G04*
G04 #@! TF.GenerationSoftware,Altium Limited,Altium Designer,22.10.1 (41)*
G04*
G04 Layer_Color=255*
%FSTAX24Y24*%
%MOIN*%
G70*
G04*
G04 #@! TF.SameCoordinates,5BB37C8D-2695-4AAB-85CC-B91A701228BC*
G04*
G04*
G04 #@! TF.FilePolarity,Positive*
G04*
G01*
G75*
%ADD17R,0.1378X0.0591*%
%ADD29R,0.0374X0.0335*%
%ADD42C,0.0535*%
%ADD43R,0.0535X0.0535*%
%ADD44C,0.1102*%
%ADD46R,0.0484X0.0709*%
%ADD47R,0.0315X0.0315*%
%ADD48R,0.0236X0.0520*%
G04:AMPARAMS|DCode=49|XSize=15.7mil|YSize=74.8mil|CornerRadius=0mil|HoleSize=0mil|Usage=FLASHONLY|Rotation=45.000|XOffset=0mil|YOffset=0mil|HoleType=Round|Shape=Rectangle|*
%AMROTATEDRECTD49*
4,1,4,0.0209,-0.0320,-0.0320,0.0209,-0.0209,0.0320,0.0320,-0.0209,0.0209,-0.0320,0.0*
%
%ADD49ROTATEDRECTD49*%

G04:AMPARAMS|DCode=50|XSize=23.6mil|YSize=74.8mil|CornerRadius=0mil|HoleSize=0mil|Usage=FLASHONLY|Rotation=45.000|XOffset=0mil|YOffset=0mil|HoleType=Round|Shape=Rectangle|*
%AMROTATEDRECTD50*
4,1,4,0.0181,-0.0348,-0.0348,0.0181,-0.0181,0.0348,0.0348,-0.0181,0.0181,-0.0348,0.0*
%
%ADD50ROTATEDRECTD50*%

%ADD51R,0.0669X0.0512*%
D17*
X033023Y017684D02*
D03*
Y015558D02*
D03*
X049952Y017684D02*
D03*
Y015558D02*
D03*
X033023Y02418D02*
D03*
Y022054D02*
D03*
X049952Y02418D02*
D03*
Y022054D02*
D03*
X033023Y030676D02*
D03*
Y02855D02*
D03*
X049952Y030676D02*
D03*
Y02855D02*
D03*
X033023Y037173D02*
D03*
Y035047D02*
D03*
X049952Y037173D02*
D03*
Y035047D02*
D03*
X033023Y043669D02*
D03*
Y041543D02*
D03*
X049952Y043669D02*
D03*
Y041543D02*
D03*
D29*
X021023Y015015D02*
D03*
Y015527D02*
D03*
X019523Y014477D02*
D03*
X019523Y013965D02*
D03*
X037952Y015015D02*
D03*
Y015527D02*
D03*
X036452Y014477D02*
D03*
X036452Y013965D02*
D03*
X021023Y021511D02*
D03*
Y022023D02*
D03*
X019523Y020973D02*
D03*
X019523Y020461D02*
D03*
X037952Y021511D02*
D03*
Y022023D02*
D03*
X036452Y020973D02*
D03*
X036452Y020461D02*
D03*
X021023Y028008D02*
D03*
Y028519D02*
D03*
X019523Y027469D02*
D03*
X019523Y026958D02*
D03*
X037952Y028008D02*
D03*
Y028519D02*
D03*
X036452Y027469D02*
D03*
X036452Y026958D02*
D03*
X021023Y034504D02*
D03*
Y035015D02*
D03*
X019523Y033965D02*
D03*
X019523Y033454D02*
D03*
X037952Y034504D02*
D03*
Y035015D02*
D03*
X036452Y033965D02*
D03*
X036452Y033454D02*
D03*
X021023Y041D02*
D03*
Y041511D02*
D03*
X019523Y040461D02*
D03*
X019523Y03995D02*
D03*
X037952Y041D02*
D03*
Y041511D02*
D03*
X036452Y040461D02*
D03*
X036452Y03995D02*
D03*
D42*
X021979Y018428D02*
D03*
Y019215D02*
D03*
X022767Y018428D02*
D03*
X038908D02*
D03*
Y019215D02*
D03*
X039696Y018428D02*
D03*
X021979Y024924D02*
D03*
Y025711D02*
D03*
X022767Y024924D02*
D03*
X038908D02*
D03*
Y025711D02*
D03*
X039696Y024924D02*
D03*
X021979Y03142D02*
D03*
Y032207D02*
D03*
X022767Y03142D02*
D03*
X038908D02*
D03*
Y032207D02*
D03*
X039696Y03142D02*
D03*
X021979Y037916D02*
D03*
Y038703D02*
D03*
X022767Y037916D02*
D03*
X038908D02*
D03*
Y038703D02*
D03*
X039696Y037916D02*
D03*
X021979Y044412D02*
D03*
Y045199D02*
D03*
X022767Y044412D02*
D03*
X038908D02*
D03*
Y045199D02*
D03*
X039696Y044412D02*
D03*
D43*
X022767Y019215D02*
D03*
X039696D02*
D03*
X022767Y025711D02*
D03*
X039696D02*
D03*
X022767Y032207D02*
D03*
X039696D02*
D03*
X022767Y038703D02*
D03*
X039696D02*
D03*
X022767Y045199D02*
D03*
X039696D02*
D03*
D44*
X018144Y017471D02*
D03*
X018144Y0157D02*
D03*
X035073Y017471D02*
D03*
X035073Y0157D02*
D03*
X018144Y023967D02*
D03*
X018144Y022196D02*
D03*
X035073Y023967D02*
D03*
X035073Y022196D02*
D03*
X018144Y030463D02*
D03*
X018144Y028692D02*
D03*
X035073Y030463D02*
D03*
X035073Y028692D02*
D03*
X018144Y03696D02*
D03*
X018144Y035188D02*
D03*
X035073Y03696D02*
D03*
X035073Y035188D02*
D03*
X018144Y043456D02*
D03*
X018144Y041684D02*
D03*
X035073Y043456D02*
D03*
X035073Y041684D02*
D03*
D46*
X021273Y017956D02*
D03*
Y018987D02*
D03*
X038202Y017956D02*
D03*
Y018987D02*
D03*
X021273Y024452D02*
D03*
Y025483D02*
D03*
X038202Y024452D02*
D03*
Y025483D02*
D03*
X021273Y030948D02*
D03*
Y031979D02*
D03*
X038202Y030948D02*
D03*
Y031979D02*
D03*
X021273Y037444D02*
D03*
Y038475D02*
D03*
X038202Y037444D02*
D03*
Y038475D02*
D03*
X021273Y04394D02*
D03*
Y044971D02*
D03*
X038202Y04394D02*
D03*
Y044971D02*
D03*
D47*
X025023Y018681D02*
D03*
Y019271D02*
D03*
X020173Y014517D02*
D03*
X020173Y013926D02*
D03*
X041952Y018681D02*
D03*
Y019271D02*
D03*
X037102Y014517D02*
D03*
X037102Y013926D02*
D03*
X025023Y025177D02*
D03*
Y025767D02*
D03*
X020173Y021013D02*
D03*
X020173Y020422D02*
D03*
X041952Y025177D02*
D03*
Y025767D02*
D03*
X037102Y021013D02*
D03*
X037102Y020422D02*
D03*
X025023Y031673D02*
D03*
Y032263D02*
D03*
X020173Y027509D02*
D03*
X020173Y026918D02*
D03*
X041952Y031673D02*
D03*
Y032263D02*
D03*
X037102Y027509D02*
D03*
X037102Y026918D02*
D03*
X025023Y038169D02*
D03*
Y03876D02*
D03*
X020173Y034005D02*
D03*
X020173Y033414D02*
D03*
X041952Y038169D02*
D03*
Y03876D02*
D03*
X037102Y034005D02*
D03*
X037102Y033414D02*
D03*
X025023Y044665D02*
D03*
Y045256D02*
D03*
X020173Y040501D02*
D03*
X020173Y03991D02*
D03*
X041952Y044665D02*
D03*
Y045256D02*
D03*
X037102Y040501D02*
D03*
X037102Y03991D02*
D03*
D48*
X020223Y017869D02*
D03*
X020597D02*
D03*
X019849D02*
D03*
Y018774D02*
D03*
X020597D02*
D03*
X037152Y017869D02*
D03*
X037526D02*
D03*
X036778D02*
D03*
Y018774D02*
D03*
X037526D02*
D03*
X020223Y024365D02*
D03*
X020597D02*
D03*
X019849D02*
D03*
Y02527D02*
D03*
X020597D02*
D03*
X037152Y024365D02*
D03*
X037526D02*
D03*
X036778D02*
D03*
Y02527D02*
D03*
X037526D02*
D03*
X020223Y030861D02*
D03*
X020597D02*
D03*
X019849D02*
D03*
Y031766D02*
D03*
X020597D02*
D03*
X037152Y030861D02*
D03*
X037526D02*
D03*
X036778D02*
D03*
Y031766D02*
D03*
X037526D02*
D03*
X020223Y037357D02*
D03*
X020597D02*
D03*
X019849D02*
D03*
Y038262D02*
D03*
X020597D02*
D03*
X037152Y037357D02*
D03*
X037526D02*
D03*
X036778D02*
D03*
Y038262D02*
D03*
X037526D02*
D03*
X020223Y043853D02*
D03*
X020597D02*
D03*
X019849D02*
D03*
Y044758D02*
D03*
X020597D02*
D03*
X037152Y043853D02*
D03*
X037526D02*
D03*
X036778D02*
D03*
Y044758D02*
D03*
X037526D02*
D03*
D49*
X023873Y015371D02*
D03*
X040802D02*
D03*
X023873Y021867D02*
D03*
X040802D02*
D03*
X023873Y028363D02*
D03*
X040802D02*
D03*
X023873Y03486D02*
D03*
X040802D02*
D03*
X023873Y041356D02*
D03*
X040802D02*
D03*
D50*
X023608Y015107D02*
D03*
X024137Y015636D02*
D03*
X040538Y015107D02*
D03*
X041067Y015636D02*
D03*
X023608Y021603D02*
D03*
X024137Y022132D02*
D03*
X040538Y021603D02*
D03*
X041067Y022132D02*
D03*
X023608Y028099D02*
D03*
X024137Y028628D02*
D03*
X040538Y028099D02*
D03*
X041067Y028628D02*
D03*
X023608Y034595D02*
D03*
X024137Y035124D02*
D03*
X040538Y034595D02*
D03*
X041067Y035124D02*
D03*
X023608Y041091D02*
D03*
X024137Y04162D02*
D03*
X040538Y041091D02*
D03*
X041067Y04162D02*
D03*
D51*
X019069Y017963D02*
D03*
Y015208D02*
D03*
Y016979D02*
D03*
Y016192D02*
D03*
X035998Y017963D02*
D03*
Y015208D02*
D03*
Y016979D02*
D03*
Y016192D02*
D03*
X019069Y02446D02*
D03*
Y021704D02*
D03*
Y023475D02*
D03*
Y022688D02*
D03*
X035998Y02446D02*
D03*
Y021704D02*
D03*
Y023475D02*
D03*
Y022688D02*
D03*
X019069Y030956D02*
D03*
Y0282D02*
D03*
Y029971D02*
D03*
Y029184D02*
D03*
X035998Y030956D02*
D03*
Y0282D02*
D03*
Y029971D02*
D03*
Y029184D02*
D03*
X019069Y037452D02*
D03*
Y034696D02*
D03*
Y036467D02*
D03*
Y03568D02*
D03*
X035998Y037452D02*
D03*
Y034696D02*
D03*
Y036467D02*
D03*
Y03568D02*
D03*
X019069Y043948D02*
D03*
Y041192D02*
D03*
Y042963D02*
D03*
Y042176D02*
D03*
X035998Y043948D02*
D03*
Y041192D02*
D03*
Y042963D02*
D03*
Y042176D02*
D03*
M02*
