G04*
G04 #@! TF.GenerationSoftware,Altium Limited,Altium Designer,22.10.1 (41)*
G04*
G04 Layer_Color=16711935*
%FSTAX24Y24*%
%MOIN*%
G70*
G04*
G04 #@! TF.SameCoordinates,5BB37C8D-2695-4AAB-85CC-B91A701228BC*
G04*
G04*
G04 #@! TF.FilePolarity,Negative*
G04*
G01*
G75*
%ADD57R,0.1458X0.0671*%
%ADD69R,0.0454X0.0415*%
%ADD78C,0.0615*%
%ADD79R,0.0615X0.0615*%
%ADD80C,0.1182*%
%ADD81C,0.0320*%
%ADD82R,0.0564X0.0789*%
%ADD83R,0.0395X0.0395*%
%ADD84R,0.0316X0.0600*%
G04:AMPARAMS|DCode=85|XSize=23.7mil|YSize=82.8mil|CornerRadius=0mil|HoleSize=0mil|Usage=FLASHONLY|Rotation=45.000|XOffset=0mil|YOffset=0mil|HoleType=Round|Shape=Rectangle|*
%AMROTATEDRECTD85*
4,1,4,0.0209,-0.0377,-0.0377,0.0209,-0.0209,0.0377,0.0377,-0.0209,0.0209,-0.0377,0.0*
%
%ADD85ROTATEDRECTD85*%

G04:AMPARAMS|DCode=86|XSize=31.6mil|YSize=82.8mil|CornerRadius=0mil|HoleSize=0mil|Usage=FLASHONLY|Rotation=45.000|XOffset=0mil|YOffset=0mil|HoleType=Round|Shape=Rectangle|*
%AMROTATEDRECTD86*
4,1,4,0.0181,-0.0405,-0.0405,0.0181,-0.0181,0.0405,0.0405,-0.0181,0.0181,-0.0405,0.0*
%
%ADD86ROTATEDRECTD86*%

%ADD87R,0.0749X0.0592*%
D57*
X033023Y017684D02*
D03*
Y015558D02*
D03*
X049952Y017684D02*
D03*
Y015558D02*
D03*
X033023Y02418D02*
D03*
Y022054D02*
D03*
X049952Y02418D02*
D03*
Y022054D02*
D03*
X033023Y030676D02*
D03*
Y02855D02*
D03*
X049952Y030676D02*
D03*
Y02855D02*
D03*
X033023Y037173D02*
D03*
Y035047D02*
D03*
X049952Y037173D02*
D03*
Y035047D02*
D03*
X033023Y043669D02*
D03*
Y041543D02*
D03*
X049952Y043669D02*
D03*
Y041543D02*
D03*
D69*
X021023Y015015D02*
D03*
Y015527D02*
D03*
X019523Y014477D02*
D03*
X019523Y013965D02*
D03*
X037952Y015015D02*
D03*
Y015527D02*
D03*
X036452Y014477D02*
D03*
X036452Y013965D02*
D03*
X021023Y021511D02*
D03*
Y022023D02*
D03*
X019523Y020973D02*
D03*
X019523Y020461D02*
D03*
X037952Y021511D02*
D03*
Y022023D02*
D03*
X036452Y020973D02*
D03*
X036452Y020461D02*
D03*
X021023Y028008D02*
D03*
Y028519D02*
D03*
X019523Y027469D02*
D03*
X019523Y026958D02*
D03*
X037952Y028008D02*
D03*
Y028519D02*
D03*
X036452Y027469D02*
D03*
X036452Y026958D02*
D03*
X021023Y034504D02*
D03*
Y035015D02*
D03*
X019523Y033965D02*
D03*
X019523Y033454D02*
D03*
X037952Y034504D02*
D03*
Y035015D02*
D03*
X036452Y033965D02*
D03*
X036452Y033454D02*
D03*
X021023Y041D02*
D03*
Y041511D02*
D03*
X019523Y040461D02*
D03*
X019523Y03995D02*
D03*
X037952Y041D02*
D03*
Y041511D02*
D03*
X036452Y040461D02*
D03*
X036452Y03995D02*
D03*
D78*
X021979Y018428D02*
D03*
Y019215D02*
D03*
X022767Y018428D02*
D03*
X038908D02*
D03*
Y019215D02*
D03*
X039696Y018428D02*
D03*
X021979Y024924D02*
D03*
Y025711D02*
D03*
X022767Y024924D02*
D03*
X038908D02*
D03*
Y025711D02*
D03*
X039696Y024924D02*
D03*
X021979Y03142D02*
D03*
Y032207D02*
D03*
X022767Y03142D02*
D03*
X038908D02*
D03*
Y032207D02*
D03*
X039696Y03142D02*
D03*
X021979Y037916D02*
D03*
Y038703D02*
D03*
X022767Y037916D02*
D03*
X038908D02*
D03*
Y038703D02*
D03*
X039696Y037916D02*
D03*
X021979Y044412D02*
D03*
Y045199D02*
D03*
X022767Y044412D02*
D03*
X038908D02*
D03*
Y045199D02*
D03*
X039696Y044412D02*
D03*
D79*
X022767Y019215D02*
D03*
X039696D02*
D03*
X022767Y025711D02*
D03*
X039696D02*
D03*
X022767Y032207D02*
D03*
X039696D02*
D03*
X022767Y038703D02*
D03*
X039696D02*
D03*
X022767Y045199D02*
D03*
X039696D02*
D03*
D80*
X018144Y017471D02*
D03*
X018144Y0157D02*
D03*
X035073Y017471D02*
D03*
X035073Y0157D02*
D03*
X018144Y023967D02*
D03*
X018144Y022196D02*
D03*
X035073Y023967D02*
D03*
X035073Y022196D02*
D03*
X018144Y030463D02*
D03*
X018144Y028692D02*
D03*
X035073Y030463D02*
D03*
X035073Y028692D02*
D03*
X018144Y03696D02*
D03*
X018144Y035188D02*
D03*
X035073Y03696D02*
D03*
X035073Y035188D02*
D03*
X018144Y043456D02*
D03*
X018144Y041684D02*
D03*
X035073Y043456D02*
D03*
X035073Y041684D02*
D03*
D81*
X024573Y017971D02*
D03*
X018473Y018271D02*
D03*
X017623Y019271D02*
D03*
X018173Y016571D02*
D03*
X019973D02*
D03*
X031173Y015771D02*
D03*
X032973Y018471D02*
D03*
Y014871D02*
D03*
Y013971D02*
D03*
X032073Y018471D02*
D03*
Y015771D02*
D03*
Y014871D02*
D03*
Y013971D02*
D03*
X031173Y018471D02*
D03*
Y016671D02*
D03*
Y014871D02*
D03*
Y013971D02*
D03*
X030273Y016671D02*
D03*
Y015771D02*
D03*
Y014871D02*
D03*
Y013971D02*
D03*
X029373Y014871D02*
D03*
Y013971D02*
D03*
X028473D02*
D03*
X027573D02*
D03*
X026673D02*
D03*
X018573D02*
D03*
X017673D02*
D03*
X028073Y016021D02*
D03*
X028373Y015621D02*
D03*
Y015071D02*
D03*
X026673Y015621D02*
D03*
Y015071D02*
D03*
X027023Y014771D02*
D03*
X031173Y019321D02*
D03*
X032023D02*
D03*
X032923D02*
D03*
X029673Y018021D02*
D03*
X030979Y017404D02*
D03*
X031634Y016894D02*
D03*
X031627Y017733D02*
D03*
X033573Y016146D02*
D03*
X032973D02*
D03*
X032373D02*
D03*
Y017097D02*
D03*
X032973D02*
D03*
X033573D02*
D03*
X031023Y018021D02*
D03*
X022623Y015521D02*
D03*
X027923Y016471D02*
D03*
X028523D02*
D03*
X029073Y018021D02*
D03*
X030273D02*
D03*
X029773Y017321D02*
D03*
X030373D02*
D03*
X020073Y017371D02*
D03*
X020473D02*
D03*
X026123Y016871D02*
D03*
X026073Y017621D02*
D03*
X025726Y016732D02*
D03*
X024923Y015971D02*
D03*
X024173Y016771D02*
D03*
X025773Y015871D02*
D03*
X022823Y016371D02*
D03*
X022273Y015821D02*
D03*
X026123Y018471D02*
D03*
X029123Y015971D02*
D03*
Y016471D02*
D03*
X019323Y018821D02*
D03*
X025023Y019271D02*
D03*
X023623D02*
D03*
X029323Y018671D02*
D03*
X021323Y016121D02*
D03*
X022023Y017621D02*
D03*
X027123Y016221D02*
D03*
X028023Y014771D02*
D03*
X027523D02*
D03*
X024073Y014721D02*
D03*
X024223Y016171D02*
D03*
X023873Y016271D02*
D03*
X024573Y015171D02*
D03*
X023573Y014521D02*
D03*
X023323Y014771D02*
D03*
X023073Y015021D02*
D03*
X022973Y015371D02*
D03*
X023273Y015671D02*
D03*
X023573Y015971D02*
D03*
X024523Y015921D02*
D03*
X024723Y015671D02*
D03*
X028573Y019021D02*
D03*
X026023Y019121D02*
D03*
X027173Y019171D02*
D03*
X020473Y015771D02*
D03*
X020423Y015321D02*
D03*
X021323Y018921D02*
D03*
X020523Y019271D02*
D03*
X023923Y018721D02*
D03*
X019223Y015321D02*
D03*
X023673Y017021D02*
D03*
X025473Y014371D02*
D03*
X023723Y013821D02*
D03*
X020573Y014621D02*
D03*
X018223Y014671D02*
D03*
X018923Y015321D02*
D03*
Y015071D02*
D03*
X019223D02*
D03*
X020223Y018321D02*
D03*
X019097Y016958D02*
D03*
X019069Y016192D02*
D03*
X025873Y014371D02*
D03*
X041502Y017971D02*
D03*
X035402Y018271D02*
D03*
X034552Y019271D02*
D03*
X035102Y016571D02*
D03*
X036902D02*
D03*
X048102Y015771D02*
D03*
X049902Y018471D02*
D03*
Y014871D02*
D03*
Y013971D02*
D03*
X049002Y018471D02*
D03*
Y015771D02*
D03*
Y014871D02*
D03*
Y013971D02*
D03*
X048102Y018471D02*
D03*
Y016671D02*
D03*
Y014871D02*
D03*
Y013971D02*
D03*
X047202Y016671D02*
D03*
Y015771D02*
D03*
Y014871D02*
D03*
Y013971D02*
D03*
X046302Y014871D02*
D03*
Y013971D02*
D03*
X045402D02*
D03*
X044502D02*
D03*
X043602D02*
D03*
X035502D02*
D03*
X034602D02*
D03*
X045002Y016021D02*
D03*
X045302Y015621D02*
D03*
Y015071D02*
D03*
X043602Y015621D02*
D03*
Y015071D02*
D03*
X043952Y014771D02*
D03*
X048102Y019321D02*
D03*
X048952D02*
D03*
X049852D02*
D03*
X046602Y018021D02*
D03*
X047908Y017404D02*
D03*
X048563Y016894D02*
D03*
X048556Y017733D02*
D03*
X050502Y016146D02*
D03*
X049902D02*
D03*
X049302D02*
D03*
Y017097D02*
D03*
X049902D02*
D03*
X050502D02*
D03*
X047952Y018021D02*
D03*
X039552Y015521D02*
D03*
X044852Y016471D02*
D03*
X045452D02*
D03*
X046002Y018021D02*
D03*
X047202D02*
D03*
X046702Y017321D02*
D03*
X047302D02*
D03*
X037002Y017371D02*
D03*
X037402D02*
D03*
X043052Y016871D02*
D03*
X043002Y017621D02*
D03*
X042655Y016732D02*
D03*
X041852Y015971D02*
D03*
X041102Y016771D02*
D03*
X042702Y015871D02*
D03*
X039752Y016371D02*
D03*
X039202Y015821D02*
D03*
X043052Y018471D02*
D03*
X046052Y015971D02*
D03*
Y016471D02*
D03*
X036252Y018821D02*
D03*
X041952Y019271D02*
D03*
X040552D02*
D03*
X046252Y018671D02*
D03*
X038252Y016121D02*
D03*
X038952Y017621D02*
D03*
X044052Y016221D02*
D03*
X044952Y014771D02*
D03*
X044452D02*
D03*
X041002Y014721D02*
D03*
X041152Y016171D02*
D03*
X040802Y016271D02*
D03*
X041502Y015171D02*
D03*
X040502Y014521D02*
D03*
X040252Y014771D02*
D03*
X040002Y015021D02*
D03*
X039902Y015371D02*
D03*
X040202Y015671D02*
D03*
X040502Y015971D02*
D03*
X041452Y015921D02*
D03*
X041652Y015671D02*
D03*
X045502Y019021D02*
D03*
X042952Y019121D02*
D03*
X044102Y019171D02*
D03*
X037402Y015771D02*
D03*
X037352Y015321D02*
D03*
X038252Y018921D02*
D03*
X037452Y019271D02*
D03*
X040852Y018721D02*
D03*
X036152Y015321D02*
D03*
X040602Y017021D02*
D03*
X042402Y014371D02*
D03*
X040652Y013821D02*
D03*
X037502Y014621D02*
D03*
X035152Y014671D02*
D03*
X035852Y015321D02*
D03*
Y015071D02*
D03*
X036152D02*
D03*
X037152Y018321D02*
D03*
X036026Y016958D02*
D03*
X035998Y016192D02*
D03*
X042802Y014371D02*
D03*
X024573Y024467D02*
D03*
X018473Y024767D02*
D03*
X017623Y025767D02*
D03*
X018173Y023067D02*
D03*
X019973D02*
D03*
X031173Y022267D02*
D03*
X032973Y024967D02*
D03*
Y021367D02*
D03*
Y020467D02*
D03*
X032073Y024967D02*
D03*
Y022267D02*
D03*
Y021367D02*
D03*
Y020467D02*
D03*
X031173Y024967D02*
D03*
Y023167D02*
D03*
Y021367D02*
D03*
Y020467D02*
D03*
X030273Y023167D02*
D03*
Y022267D02*
D03*
Y021367D02*
D03*
Y020467D02*
D03*
X029373Y021367D02*
D03*
Y020467D02*
D03*
X028473D02*
D03*
X027573D02*
D03*
X026673D02*
D03*
X018573D02*
D03*
X017673D02*
D03*
X028073Y022517D02*
D03*
X028373Y022117D02*
D03*
Y021567D02*
D03*
X026673Y022117D02*
D03*
Y021567D02*
D03*
X027023Y021267D02*
D03*
X031173Y025817D02*
D03*
X032023D02*
D03*
X032923D02*
D03*
X029673Y024517D02*
D03*
X030979Y0239D02*
D03*
X031634Y02339D02*
D03*
X031627Y02423D02*
D03*
X033573Y022642D02*
D03*
X032973D02*
D03*
X032373D02*
D03*
Y023593D02*
D03*
X032973D02*
D03*
X033573D02*
D03*
X031023Y024517D02*
D03*
X022623Y022017D02*
D03*
X027923Y022967D02*
D03*
X028523D02*
D03*
X029073Y024517D02*
D03*
X030273D02*
D03*
X029773Y023817D02*
D03*
X030373D02*
D03*
X020073Y023867D02*
D03*
X020473D02*
D03*
X026123Y023367D02*
D03*
X026073Y024117D02*
D03*
X025726Y023229D02*
D03*
X024923Y022467D02*
D03*
X024173Y023267D02*
D03*
X025773Y022367D02*
D03*
X022823Y022867D02*
D03*
X022273Y022317D02*
D03*
X026123Y024967D02*
D03*
X029123Y022467D02*
D03*
Y022967D02*
D03*
X019323Y025317D02*
D03*
X025023Y025767D02*
D03*
X023623D02*
D03*
X029323Y025167D02*
D03*
X021323Y022617D02*
D03*
X022023Y024117D02*
D03*
X027123Y022717D02*
D03*
X028023Y021267D02*
D03*
X027523D02*
D03*
X024073Y021217D02*
D03*
X024223Y022667D02*
D03*
X023873Y022767D02*
D03*
X024573Y021667D02*
D03*
X023573Y021017D02*
D03*
X023323Y021267D02*
D03*
X023073Y021517D02*
D03*
X022973Y021867D02*
D03*
X023273Y022167D02*
D03*
X023573Y022467D02*
D03*
X024523Y022417D02*
D03*
X024723Y022167D02*
D03*
X028573Y025517D02*
D03*
X026023Y025617D02*
D03*
X027173Y025667D02*
D03*
X020473Y022267D02*
D03*
X020423Y021817D02*
D03*
X021323Y025417D02*
D03*
X020523Y025767D02*
D03*
X023923Y025217D02*
D03*
X019223Y021817D02*
D03*
X023673Y023517D02*
D03*
X025473Y020867D02*
D03*
X023723Y020317D02*
D03*
X020573Y021117D02*
D03*
X018223Y021167D02*
D03*
X018923Y021817D02*
D03*
Y021567D02*
D03*
X019223D02*
D03*
X020223Y024817D02*
D03*
X019097Y023454D02*
D03*
X019069Y022688D02*
D03*
X025873Y020867D02*
D03*
X041502Y024467D02*
D03*
X035402Y024767D02*
D03*
X034552Y025767D02*
D03*
X035102Y023067D02*
D03*
X036902D02*
D03*
X048102Y022267D02*
D03*
X049902Y024967D02*
D03*
Y021367D02*
D03*
Y020467D02*
D03*
X049002Y024967D02*
D03*
Y022267D02*
D03*
Y021367D02*
D03*
Y020467D02*
D03*
X048102Y024967D02*
D03*
Y023167D02*
D03*
Y021367D02*
D03*
Y020467D02*
D03*
X047202Y023167D02*
D03*
Y022267D02*
D03*
Y021367D02*
D03*
Y020467D02*
D03*
X046302Y021367D02*
D03*
Y020467D02*
D03*
X045402D02*
D03*
X044502D02*
D03*
X043602D02*
D03*
X035502D02*
D03*
X034602D02*
D03*
X045002Y022517D02*
D03*
X045302Y022117D02*
D03*
Y021567D02*
D03*
X043602Y022117D02*
D03*
Y021567D02*
D03*
X043952Y021267D02*
D03*
X048102Y025817D02*
D03*
X048952D02*
D03*
X049852D02*
D03*
X046602Y024517D02*
D03*
X047908Y0239D02*
D03*
X048563Y02339D02*
D03*
X048556Y02423D02*
D03*
X050502Y022642D02*
D03*
X049902D02*
D03*
X049302D02*
D03*
Y023593D02*
D03*
X049902D02*
D03*
X050502D02*
D03*
X047952Y024517D02*
D03*
X039552Y022017D02*
D03*
X044852Y022967D02*
D03*
X045452D02*
D03*
X046002Y024517D02*
D03*
X047202D02*
D03*
X046702Y023817D02*
D03*
X047302D02*
D03*
X037002Y023867D02*
D03*
X037402D02*
D03*
X043052Y023367D02*
D03*
X043002Y024117D02*
D03*
X042655Y023229D02*
D03*
X041852Y022467D02*
D03*
X041102Y023267D02*
D03*
X042702Y022367D02*
D03*
X039752Y022867D02*
D03*
X039202Y022317D02*
D03*
X043052Y024967D02*
D03*
X046052Y022467D02*
D03*
Y022967D02*
D03*
X036252Y025317D02*
D03*
X041952Y025767D02*
D03*
X040552D02*
D03*
X046252Y025167D02*
D03*
X038252Y022617D02*
D03*
X038952Y024117D02*
D03*
X044052Y022717D02*
D03*
X044952Y021267D02*
D03*
X044452D02*
D03*
X041002Y021217D02*
D03*
X041152Y022667D02*
D03*
X040802Y022767D02*
D03*
X041502Y021667D02*
D03*
X040502Y021017D02*
D03*
X040252Y021267D02*
D03*
X040002Y021517D02*
D03*
X039902Y021867D02*
D03*
X040202Y022167D02*
D03*
X040502Y022467D02*
D03*
X041452Y022417D02*
D03*
X041652Y022167D02*
D03*
X045502Y025517D02*
D03*
X042952Y025617D02*
D03*
X044102Y025667D02*
D03*
X037402Y022267D02*
D03*
X037352Y021817D02*
D03*
X038252Y025417D02*
D03*
X037452Y025767D02*
D03*
X040852Y025217D02*
D03*
X036152Y021817D02*
D03*
X040602Y023517D02*
D03*
X042402Y020867D02*
D03*
X040652Y020317D02*
D03*
X037502Y021117D02*
D03*
X035152Y021167D02*
D03*
X035852Y021817D02*
D03*
Y021567D02*
D03*
X036152D02*
D03*
X037152Y024817D02*
D03*
X036026Y023454D02*
D03*
X035998Y022688D02*
D03*
X042802Y020867D02*
D03*
X024573Y030963D02*
D03*
X018473Y031263D02*
D03*
X017623Y032263D02*
D03*
X018173Y029563D02*
D03*
X019973D02*
D03*
X031173Y028763D02*
D03*
X032973Y031463D02*
D03*
Y027863D02*
D03*
Y026963D02*
D03*
X032073Y031463D02*
D03*
Y028763D02*
D03*
Y027863D02*
D03*
Y026963D02*
D03*
X031173Y031463D02*
D03*
Y029663D02*
D03*
Y027863D02*
D03*
Y026963D02*
D03*
X030273Y029663D02*
D03*
Y028763D02*
D03*
Y027863D02*
D03*
Y026963D02*
D03*
X029373Y027863D02*
D03*
Y026963D02*
D03*
X028473D02*
D03*
X027573D02*
D03*
X026673D02*
D03*
X018573D02*
D03*
X017673D02*
D03*
X028073Y029013D02*
D03*
X028373Y028613D02*
D03*
Y028063D02*
D03*
X026673Y028613D02*
D03*
Y028063D02*
D03*
X027023Y027763D02*
D03*
X031173Y032313D02*
D03*
X032023D02*
D03*
X032923D02*
D03*
X029673Y031013D02*
D03*
X030979Y030396D02*
D03*
X031634Y029886D02*
D03*
X031627Y030726D02*
D03*
X033573Y029138D02*
D03*
X032973D02*
D03*
X032373D02*
D03*
Y030089D02*
D03*
X032973D02*
D03*
X033573D02*
D03*
X031023Y031013D02*
D03*
X022623Y028513D02*
D03*
X027923Y029463D02*
D03*
X028523D02*
D03*
X029073Y031013D02*
D03*
X030273D02*
D03*
X029773Y030313D02*
D03*
X030373D02*
D03*
X020073Y030363D02*
D03*
X020473D02*
D03*
X026123Y029863D02*
D03*
X026073Y030613D02*
D03*
X025726Y029725D02*
D03*
X024923Y028963D02*
D03*
X024173Y029763D02*
D03*
X025773Y028863D02*
D03*
X022823Y029363D02*
D03*
X022273Y028813D02*
D03*
X026123Y031463D02*
D03*
X029123Y028963D02*
D03*
Y029463D02*
D03*
X019323Y031813D02*
D03*
X025023Y032263D02*
D03*
X023623D02*
D03*
X029323Y031663D02*
D03*
X021323Y029113D02*
D03*
X022023Y030613D02*
D03*
X027123Y029213D02*
D03*
X028023Y027763D02*
D03*
X027523D02*
D03*
X024073Y027713D02*
D03*
X024223Y029163D02*
D03*
X023873Y029263D02*
D03*
X024573Y028163D02*
D03*
X023573Y027513D02*
D03*
X023323Y027763D02*
D03*
X023073Y028013D02*
D03*
X022973Y028363D02*
D03*
X023273Y028663D02*
D03*
X023573Y028963D02*
D03*
X024523Y028913D02*
D03*
X024723Y028663D02*
D03*
X028573Y032013D02*
D03*
X026023Y032113D02*
D03*
X027173Y032163D02*
D03*
X020473Y028763D02*
D03*
X020423Y028313D02*
D03*
X021323Y031913D02*
D03*
X020523Y032263D02*
D03*
X023923Y031713D02*
D03*
X019223Y028313D02*
D03*
X023673Y030013D02*
D03*
X025473Y027363D02*
D03*
X023723Y026813D02*
D03*
X020573Y027613D02*
D03*
X018223Y027663D02*
D03*
X018923Y028313D02*
D03*
Y028063D02*
D03*
X019223D02*
D03*
X020223Y031313D02*
D03*
X019097Y02995D02*
D03*
X019069Y029184D02*
D03*
X025873Y027363D02*
D03*
X041502Y030963D02*
D03*
X035402Y031263D02*
D03*
X034552Y032263D02*
D03*
X035102Y029563D02*
D03*
X036902D02*
D03*
X048102Y028763D02*
D03*
X049902Y031463D02*
D03*
Y027863D02*
D03*
Y026963D02*
D03*
X049002Y031463D02*
D03*
Y028763D02*
D03*
Y027863D02*
D03*
Y026963D02*
D03*
X048102Y031463D02*
D03*
Y029663D02*
D03*
Y027863D02*
D03*
Y026963D02*
D03*
X047202Y029663D02*
D03*
Y028763D02*
D03*
Y027863D02*
D03*
Y026963D02*
D03*
X046302Y027863D02*
D03*
Y026963D02*
D03*
X045402D02*
D03*
X044502D02*
D03*
X043602D02*
D03*
X035502D02*
D03*
X034602D02*
D03*
X045002Y029013D02*
D03*
X045302Y028613D02*
D03*
Y028063D02*
D03*
X043602Y028613D02*
D03*
Y028063D02*
D03*
X043952Y027763D02*
D03*
X048102Y032313D02*
D03*
X048952D02*
D03*
X049852D02*
D03*
X046602Y031013D02*
D03*
X047908Y030396D02*
D03*
X048563Y029886D02*
D03*
X048556Y030726D02*
D03*
X050502Y029138D02*
D03*
X049902D02*
D03*
X049302D02*
D03*
Y030089D02*
D03*
X049902D02*
D03*
X050502D02*
D03*
X047952Y031013D02*
D03*
X039552Y028513D02*
D03*
X044852Y029463D02*
D03*
X045452D02*
D03*
X046002Y031013D02*
D03*
X047202D02*
D03*
X046702Y030313D02*
D03*
X047302D02*
D03*
X037002Y030363D02*
D03*
X037402D02*
D03*
X043052Y029863D02*
D03*
X043002Y030613D02*
D03*
X042655Y029725D02*
D03*
X041852Y028963D02*
D03*
X041102Y029763D02*
D03*
X042702Y028863D02*
D03*
X039752Y029363D02*
D03*
X039202Y028813D02*
D03*
X043052Y031463D02*
D03*
X046052Y028963D02*
D03*
Y029463D02*
D03*
X036252Y031813D02*
D03*
X041952Y032263D02*
D03*
X040552D02*
D03*
X046252Y031663D02*
D03*
X038252Y029113D02*
D03*
X038952Y030613D02*
D03*
X044052Y029213D02*
D03*
X044952Y027763D02*
D03*
X044452D02*
D03*
X041002Y027713D02*
D03*
X041152Y029163D02*
D03*
X040802Y029263D02*
D03*
X041502Y028163D02*
D03*
X040502Y027513D02*
D03*
X040252Y027763D02*
D03*
X040002Y028013D02*
D03*
X039902Y028363D02*
D03*
X040202Y028663D02*
D03*
X040502Y028963D02*
D03*
X041452Y028913D02*
D03*
X041652Y028663D02*
D03*
X045502Y032013D02*
D03*
X042952Y032113D02*
D03*
X044102Y032163D02*
D03*
X037402Y028763D02*
D03*
X037352Y028313D02*
D03*
X038252Y031913D02*
D03*
X037452Y032263D02*
D03*
X040852Y031713D02*
D03*
X036152Y028313D02*
D03*
X040602Y030013D02*
D03*
X042402Y027363D02*
D03*
X040652Y026813D02*
D03*
X037502Y027613D02*
D03*
X035152Y027663D02*
D03*
X035852Y028313D02*
D03*
Y028063D02*
D03*
X036152D02*
D03*
X037152Y031313D02*
D03*
X036026Y02995D02*
D03*
X035998Y029184D02*
D03*
X042802Y027363D02*
D03*
X024573Y03746D02*
D03*
X018473Y03776D02*
D03*
X017623Y03876D02*
D03*
X018173Y03606D02*
D03*
X019973D02*
D03*
X031173Y03526D02*
D03*
X032973Y03796D02*
D03*
Y03436D02*
D03*
Y03346D02*
D03*
X032073Y03796D02*
D03*
Y03526D02*
D03*
Y03436D02*
D03*
Y03346D02*
D03*
X031173Y03796D02*
D03*
Y03616D02*
D03*
Y03436D02*
D03*
Y03346D02*
D03*
X030273Y03616D02*
D03*
Y03526D02*
D03*
Y03436D02*
D03*
Y03346D02*
D03*
X029373Y03436D02*
D03*
Y03346D02*
D03*
X028473D02*
D03*
X027573D02*
D03*
X026673D02*
D03*
X018573D02*
D03*
X017673D02*
D03*
X028073Y03551D02*
D03*
X028373Y03511D02*
D03*
Y03456D02*
D03*
X026673Y03511D02*
D03*
Y03456D02*
D03*
X027023Y03426D02*
D03*
X031173Y03881D02*
D03*
X032023D02*
D03*
X032923D02*
D03*
X029673Y03751D02*
D03*
X030979Y036892D02*
D03*
X031634Y036382D02*
D03*
X031627Y037222D02*
D03*
X033573Y035634D02*
D03*
X032973D02*
D03*
X032373D02*
D03*
Y036585D02*
D03*
X032973D02*
D03*
X033573D02*
D03*
X031023Y03751D02*
D03*
X022623Y03501D02*
D03*
X027923Y03596D02*
D03*
X028523D02*
D03*
X029073Y03751D02*
D03*
X030273D02*
D03*
X029773Y03681D02*
D03*
X030373D02*
D03*
X020073Y03686D02*
D03*
X020473D02*
D03*
X026123Y03636D02*
D03*
X026073Y03711D02*
D03*
X025726Y036221D02*
D03*
X024923Y03546D02*
D03*
X024173Y03626D02*
D03*
X025773Y03536D02*
D03*
X022823Y03586D02*
D03*
X022273Y03531D02*
D03*
X026123Y03796D02*
D03*
X029123Y03546D02*
D03*
Y03596D02*
D03*
X019323Y03831D02*
D03*
X025023Y03876D02*
D03*
X023623D02*
D03*
X029323Y03816D02*
D03*
X021323Y03561D02*
D03*
X022023Y03711D02*
D03*
X027123Y03571D02*
D03*
X028023Y03426D02*
D03*
X027523D02*
D03*
X024073Y03421D02*
D03*
X024223Y03566D02*
D03*
X023873Y03576D02*
D03*
X024573Y03466D02*
D03*
X023573Y03401D02*
D03*
X023323Y03426D02*
D03*
X023073Y03451D02*
D03*
X022973Y03486D02*
D03*
X023273Y03516D02*
D03*
X023573Y03546D02*
D03*
X024523Y03541D02*
D03*
X024723Y03516D02*
D03*
X028573Y03851D02*
D03*
X026023Y03861D02*
D03*
X027173Y03866D02*
D03*
X020473Y03526D02*
D03*
X020423Y03481D02*
D03*
X021323Y03841D02*
D03*
X020523Y03876D02*
D03*
X023923Y03821D02*
D03*
X019223Y03481D02*
D03*
X023673Y03651D02*
D03*
X025473Y03386D02*
D03*
X023723Y03331D02*
D03*
X020573Y03411D02*
D03*
X018223Y03416D02*
D03*
X018923Y03481D02*
D03*
Y03456D02*
D03*
X019223D02*
D03*
X020223Y03781D02*
D03*
X019097Y036447D02*
D03*
X019069Y03568D02*
D03*
X025873Y03386D02*
D03*
X041502Y03746D02*
D03*
X035402Y03776D02*
D03*
X034552Y03876D02*
D03*
X035102Y03606D02*
D03*
X036902D02*
D03*
X048102Y03526D02*
D03*
X049902Y03796D02*
D03*
Y03436D02*
D03*
Y03346D02*
D03*
X049002Y03796D02*
D03*
Y03526D02*
D03*
Y03436D02*
D03*
Y03346D02*
D03*
X048102Y03796D02*
D03*
Y03616D02*
D03*
Y03436D02*
D03*
Y03346D02*
D03*
X047202Y03616D02*
D03*
Y03526D02*
D03*
Y03436D02*
D03*
Y03346D02*
D03*
X046302Y03436D02*
D03*
Y03346D02*
D03*
X045402D02*
D03*
X044502D02*
D03*
X043602D02*
D03*
X035502D02*
D03*
X034602D02*
D03*
X045002Y03551D02*
D03*
X045302Y03511D02*
D03*
Y03456D02*
D03*
X043602Y03511D02*
D03*
Y03456D02*
D03*
X043952Y03426D02*
D03*
X048102Y03881D02*
D03*
X048952D02*
D03*
X049852D02*
D03*
X046602Y03751D02*
D03*
X047908Y036892D02*
D03*
X048563Y036382D02*
D03*
X048556Y037222D02*
D03*
X050502Y035634D02*
D03*
X049902D02*
D03*
X049302D02*
D03*
Y036585D02*
D03*
X049902D02*
D03*
X050502D02*
D03*
X047952Y03751D02*
D03*
X039552Y03501D02*
D03*
X044852Y03596D02*
D03*
X045452D02*
D03*
X046002Y03751D02*
D03*
X047202D02*
D03*
X046702Y03681D02*
D03*
X047302D02*
D03*
X037002Y03686D02*
D03*
X037402D02*
D03*
X043052Y03636D02*
D03*
X043002Y03711D02*
D03*
X042655Y036221D02*
D03*
X041852Y03546D02*
D03*
X041102Y03626D02*
D03*
X042702Y03536D02*
D03*
X039752Y03586D02*
D03*
X039202Y03531D02*
D03*
X043052Y03796D02*
D03*
X046052Y03546D02*
D03*
Y03596D02*
D03*
X036252Y03831D02*
D03*
X041952Y03876D02*
D03*
X040552D02*
D03*
X046252Y03816D02*
D03*
X038252Y03561D02*
D03*
X038952Y03711D02*
D03*
X044052Y03571D02*
D03*
X044952Y03426D02*
D03*
X044452D02*
D03*
X041002Y03421D02*
D03*
X041152Y03566D02*
D03*
X040802Y03576D02*
D03*
X041502Y03466D02*
D03*
X040502Y03401D02*
D03*
X040252Y03426D02*
D03*
X040002Y03451D02*
D03*
X039902Y03486D02*
D03*
X040202Y03516D02*
D03*
X040502Y03546D02*
D03*
X041452Y03541D02*
D03*
X041652Y03516D02*
D03*
X045502Y03851D02*
D03*
X042952Y03861D02*
D03*
X044102Y03866D02*
D03*
X037402Y03526D02*
D03*
X037352Y03481D02*
D03*
X038252Y03841D02*
D03*
X037452Y03876D02*
D03*
X040852Y03821D02*
D03*
X036152Y03481D02*
D03*
X040602Y03651D02*
D03*
X042402Y03386D02*
D03*
X040652Y03331D02*
D03*
X037502Y03411D02*
D03*
X035152Y03416D02*
D03*
X035852Y03481D02*
D03*
Y03456D02*
D03*
X036152D02*
D03*
X037152Y03781D02*
D03*
X036026Y036447D02*
D03*
X035998Y03568D02*
D03*
X042802Y03386D02*
D03*
X024573Y043956D02*
D03*
X018473Y044256D02*
D03*
X017623Y045256D02*
D03*
X018173Y042556D02*
D03*
X019973D02*
D03*
X031173Y041756D02*
D03*
X032973Y044456D02*
D03*
Y040856D02*
D03*
Y039956D02*
D03*
X032073Y044456D02*
D03*
Y041756D02*
D03*
Y040856D02*
D03*
Y039956D02*
D03*
X031173Y044456D02*
D03*
Y042656D02*
D03*
Y040856D02*
D03*
Y039956D02*
D03*
X030273Y042656D02*
D03*
Y041756D02*
D03*
Y040856D02*
D03*
Y039956D02*
D03*
X029373Y040856D02*
D03*
Y039956D02*
D03*
X028473D02*
D03*
X027573D02*
D03*
X026673D02*
D03*
X018573D02*
D03*
X017673D02*
D03*
X028073Y042006D02*
D03*
X028373Y041606D02*
D03*
Y041056D02*
D03*
X026673Y041606D02*
D03*
Y041056D02*
D03*
X027023Y040756D02*
D03*
X031173Y045306D02*
D03*
X032023D02*
D03*
X032923D02*
D03*
X029673Y044006D02*
D03*
X030979Y043388D02*
D03*
X031634Y042878D02*
D03*
X031627Y043718D02*
D03*
X033573Y04213D02*
D03*
X032973D02*
D03*
X032373D02*
D03*
Y043081D02*
D03*
X032973D02*
D03*
X033573D02*
D03*
X031023Y044006D02*
D03*
X022623Y041506D02*
D03*
X027923Y042456D02*
D03*
X028523D02*
D03*
X029073Y044006D02*
D03*
X030273D02*
D03*
X029773Y043306D02*
D03*
X030373D02*
D03*
X020073Y043356D02*
D03*
X020473D02*
D03*
X026123Y042856D02*
D03*
X026073Y043606D02*
D03*
X025726Y042717D02*
D03*
X024923Y041956D02*
D03*
X024173Y042756D02*
D03*
X025773Y041856D02*
D03*
X022823Y042356D02*
D03*
X022273Y041806D02*
D03*
X026123Y044456D02*
D03*
X029123Y041956D02*
D03*
Y042456D02*
D03*
X019323Y044806D02*
D03*
X025023Y045256D02*
D03*
X023623D02*
D03*
X029323Y044656D02*
D03*
X021323Y042106D02*
D03*
X022023Y043606D02*
D03*
X027123Y042206D02*
D03*
X028023Y040756D02*
D03*
X027523D02*
D03*
X024073Y040706D02*
D03*
X024223Y042156D02*
D03*
X023873Y042256D02*
D03*
X024573Y041156D02*
D03*
X023573Y040506D02*
D03*
X023323Y040756D02*
D03*
X023073Y041006D02*
D03*
X022973Y041356D02*
D03*
X023273Y041656D02*
D03*
X023573Y041956D02*
D03*
X024523Y041906D02*
D03*
X024723Y041656D02*
D03*
X028573Y045006D02*
D03*
X026023Y045106D02*
D03*
X027173Y045156D02*
D03*
X020473Y041756D02*
D03*
X020423Y041306D02*
D03*
X021323Y044906D02*
D03*
X020523Y045256D02*
D03*
X023923Y044706D02*
D03*
X019223Y041306D02*
D03*
X023673Y043006D02*
D03*
X025473Y040356D02*
D03*
X023723Y039806D02*
D03*
X020573Y040606D02*
D03*
X018223Y040656D02*
D03*
X018923Y041306D02*
D03*
Y041056D02*
D03*
X019223D02*
D03*
X020223Y044306D02*
D03*
X019097Y042943D02*
D03*
X019069Y042176D02*
D03*
X025873Y040356D02*
D03*
X041502Y043956D02*
D03*
X035402Y044256D02*
D03*
X034552Y045256D02*
D03*
X035102Y042556D02*
D03*
X036902D02*
D03*
X048102Y041756D02*
D03*
X049902Y044456D02*
D03*
Y040856D02*
D03*
Y039956D02*
D03*
X049002Y044456D02*
D03*
Y041756D02*
D03*
Y040856D02*
D03*
Y039956D02*
D03*
X048102Y044456D02*
D03*
Y042656D02*
D03*
Y040856D02*
D03*
Y039956D02*
D03*
X047202Y042656D02*
D03*
Y041756D02*
D03*
Y040856D02*
D03*
Y039956D02*
D03*
X046302Y040856D02*
D03*
Y039956D02*
D03*
X045402D02*
D03*
X044502D02*
D03*
X043602D02*
D03*
X035502D02*
D03*
X034602D02*
D03*
X045002Y042006D02*
D03*
X045302Y041606D02*
D03*
Y041056D02*
D03*
X043602Y041606D02*
D03*
Y041056D02*
D03*
X043952Y040756D02*
D03*
X048102Y045306D02*
D03*
X048952D02*
D03*
X049852D02*
D03*
X046602Y044006D02*
D03*
X047908Y043388D02*
D03*
X048563Y042878D02*
D03*
X048556Y043718D02*
D03*
X050502Y04213D02*
D03*
X049902D02*
D03*
X049302D02*
D03*
Y043081D02*
D03*
X049902D02*
D03*
X050502D02*
D03*
X047952Y044006D02*
D03*
X039552Y041506D02*
D03*
X044852Y042456D02*
D03*
X045452D02*
D03*
X046002Y044006D02*
D03*
X047202D02*
D03*
X046702Y043306D02*
D03*
X047302D02*
D03*
X037002Y043356D02*
D03*
X037402D02*
D03*
X043052Y042856D02*
D03*
X043002Y043606D02*
D03*
X042655Y042717D02*
D03*
X041852Y041956D02*
D03*
X041102Y042756D02*
D03*
X042702Y041856D02*
D03*
X039752Y042356D02*
D03*
X039202Y041806D02*
D03*
X043052Y044456D02*
D03*
X046052Y041956D02*
D03*
Y042456D02*
D03*
X036252Y044806D02*
D03*
X041952Y045256D02*
D03*
X040552D02*
D03*
X046252Y044656D02*
D03*
X038252Y042106D02*
D03*
X038952Y043606D02*
D03*
X044052Y042206D02*
D03*
X044952Y040756D02*
D03*
X044452D02*
D03*
X041002Y040706D02*
D03*
X041152Y042156D02*
D03*
X040802Y042256D02*
D03*
X041502Y041156D02*
D03*
X040502Y040506D02*
D03*
X040252Y040756D02*
D03*
X040002Y041006D02*
D03*
X039902Y041356D02*
D03*
X040202Y041656D02*
D03*
X040502Y041956D02*
D03*
X041452Y041906D02*
D03*
X041652Y041656D02*
D03*
X045502Y045006D02*
D03*
X042952Y045106D02*
D03*
X044102Y045156D02*
D03*
X037402Y041756D02*
D03*
X037352Y041306D02*
D03*
X038252Y044906D02*
D03*
X037452Y045256D02*
D03*
X040852Y044706D02*
D03*
X036152Y041306D02*
D03*
X040602Y043006D02*
D03*
X042402Y040356D02*
D03*
X040652Y039806D02*
D03*
X037502Y040606D02*
D03*
X035152Y040656D02*
D03*
X035852Y041306D02*
D03*
Y041056D02*
D03*
X036152D02*
D03*
X037152Y044306D02*
D03*
X036026Y042943D02*
D03*
X035998Y042176D02*
D03*
X042802Y040356D02*
D03*
D82*
X021273Y017956D02*
D03*
Y018987D02*
D03*
X038202Y017956D02*
D03*
Y018987D02*
D03*
X021273Y024452D02*
D03*
Y025483D02*
D03*
X038202Y024452D02*
D03*
Y025483D02*
D03*
X021273Y030948D02*
D03*
Y031979D02*
D03*
X038202Y030948D02*
D03*
Y031979D02*
D03*
X021273Y037444D02*
D03*
Y038475D02*
D03*
X038202Y037444D02*
D03*
Y038475D02*
D03*
X021273Y04394D02*
D03*
Y044971D02*
D03*
X038202Y04394D02*
D03*
Y044971D02*
D03*
D83*
X025023Y018681D02*
D03*
Y019271D02*
D03*
X020173Y014517D02*
D03*
X020173Y013926D02*
D03*
X041952Y018681D02*
D03*
Y019271D02*
D03*
X037102Y014517D02*
D03*
X037102Y013926D02*
D03*
X025023Y025177D02*
D03*
Y025767D02*
D03*
X020173Y021013D02*
D03*
X020173Y020422D02*
D03*
X041952Y025177D02*
D03*
Y025767D02*
D03*
X037102Y021013D02*
D03*
X037102Y020422D02*
D03*
X025023Y031673D02*
D03*
Y032263D02*
D03*
X020173Y027509D02*
D03*
X020173Y026918D02*
D03*
X041952Y031673D02*
D03*
Y032263D02*
D03*
X037102Y027509D02*
D03*
X037102Y026918D02*
D03*
X025023Y038169D02*
D03*
Y03876D02*
D03*
X020173Y034005D02*
D03*
X020173Y033414D02*
D03*
X041952Y038169D02*
D03*
Y03876D02*
D03*
X037102Y034005D02*
D03*
X037102Y033414D02*
D03*
X025023Y044665D02*
D03*
Y045256D02*
D03*
X020173Y040501D02*
D03*
X020173Y03991D02*
D03*
X041952Y044665D02*
D03*
Y045256D02*
D03*
X037102Y040501D02*
D03*
X037102Y03991D02*
D03*
D84*
X020223Y017869D02*
D03*
X020597D02*
D03*
X019849D02*
D03*
Y018774D02*
D03*
X020597D02*
D03*
X037152Y017869D02*
D03*
X037526D02*
D03*
X036778D02*
D03*
Y018774D02*
D03*
X037526D02*
D03*
X020223Y024365D02*
D03*
X020597D02*
D03*
X019849D02*
D03*
Y02527D02*
D03*
X020597D02*
D03*
X037152Y024365D02*
D03*
X037526D02*
D03*
X036778D02*
D03*
Y02527D02*
D03*
X037526D02*
D03*
X020223Y030861D02*
D03*
X020597D02*
D03*
X019849D02*
D03*
Y031766D02*
D03*
X020597D02*
D03*
X037152Y030861D02*
D03*
X037526D02*
D03*
X036778D02*
D03*
Y031766D02*
D03*
X037526D02*
D03*
X020223Y037357D02*
D03*
X020597D02*
D03*
X019849D02*
D03*
Y038262D02*
D03*
X020597D02*
D03*
X037152Y037357D02*
D03*
X037526D02*
D03*
X036778D02*
D03*
Y038262D02*
D03*
X037526D02*
D03*
X020223Y043853D02*
D03*
X020597D02*
D03*
X019849D02*
D03*
Y044758D02*
D03*
X020597D02*
D03*
X037152Y043853D02*
D03*
X037526D02*
D03*
X036778D02*
D03*
Y044758D02*
D03*
X037526D02*
D03*
D85*
X023873Y015371D02*
D03*
X040802D02*
D03*
X023873Y021867D02*
D03*
X040802D02*
D03*
X023873Y028363D02*
D03*
X040802D02*
D03*
X023873Y03486D02*
D03*
X040802D02*
D03*
X023873Y041356D02*
D03*
X040802D02*
D03*
D86*
X023608Y015107D02*
D03*
X024137Y015636D02*
D03*
X040538Y015107D02*
D03*
X041067Y015636D02*
D03*
X023608Y021603D02*
D03*
X024137Y022132D02*
D03*
X040538Y021603D02*
D03*
X041067Y022132D02*
D03*
X023608Y028099D02*
D03*
X024137Y028628D02*
D03*
X040538Y028099D02*
D03*
X041067Y028628D02*
D03*
X023608Y034595D02*
D03*
X024137Y035124D02*
D03*
X040538Y034595D02*
D03*
X041067Y035124D02*
D03*
X023608Y041091D02*
D03*
X024137Y04162D02*
D03*
X040538Y041091D02*
D03*
X041067Y04162D02*
D03*
D87*
X019069Y017963D02*
D03*
Y015208D02*
D03*
Y016979D02*
D03*
Y016192D02*
D03*
X035998Y017963D02*
D03*
Y015208D02*
D03*
Y016979D02*
D03*
Y016192D02*
D03*
X019069Y02446D02*
D03*
Y021704D02*
D03*
Y023475D02*
D03*
Y022688D02*
D03*
X035998Y02446D02*
D03*
Y021704D02*
D03*
Y023475D02*
D03*
Y022688D02*
D03*
X019069Y030956D02*
D03*
Y0282D02*
D03*
Y029971D02*
D03*
Y029184D02*
D03*
X035998Y030956D02*
D03*
Y0282D02*
D03*
Y029971D02*
D03*
Y029184D02*
D03*
X019069Y037452D02*
D03*
Y034696D02*
D03*
Y036467D02*
D03*
Y03568D02*
D03*
X035998Y037452D02*
D03*
Y034696D02*
D03*
Y036467D02*
D03*
Y03568D02*
D03*
X019069Y043948D02*
D03*
Y041192D02*
D03*
Y042963D02*
D03*
Y042176D02*
D03*
X035998Y043948D02*
D03*
Y041192D02*
D03*
Y042963D02*
D03*
Y042176D02*
D03*
M02*
