G04*
G04 #@! TF.GenerationSoftware,Altium Limited,Altium Designer,22.10.1 (41)*
G04*
G04 Layer_Color=65535*
%FSTAX24Y24*%
%MOIN*%
G70*
G04*
G04 #@! TF.SameCoordinates,5BB37C8D-2695-4AAB-85CC-B91A701228BC*
G04*
G04*
G04 #@! TF.FilePolarity,Positive*
G04*
G01*
G75*
%ADD52C,0.0079*%
%ADD53C,0.0098*%
%ADD54C,0.0059*%
%ADD55C,0.0050*%
%ADD56C,0.0060*%
G36*
X040736Y04033D02*
X040819Y040247D01*
X040652Y04008D01*
X040485Y040247D01*
X040569Y04033D01*
X040736Y04033D01*
D02*
G37*
G36*
X023806D02*
X02389Y040247D01*
X023723Y04008D01*
X023556Y040247D01*
X023639Y04033D01*
X023806Y04033D01*
D02*
G37*
G36*
X040736Y033834D02*
X040819Y033751D01*
X040652Y033584D01*
X040485Y033751D01*
X040569Y033834D01*
X040736Y033834D01*
D02*
G37*
G36*
X023806D02*
X02389Y033751D01*
X023723Y033584D01*
X023556Y033751D01*
X023639Y033834D01*
X023806Y033834D01*
D02*
G37*
G36*
X040736Y027338D02*
X040819Y027254D01*
X040652Y027087D01*
X040485Y027254D01*
X040569Y027338D01*
X040736Y027338D01*
D02*
G37*
G36*
X023806D02*
X02389Y027254D01*
X023723Y027087D01*
X023556Y027254D01*
X023639Y027338D01*
X023806Y027338D01*
D02*
G37*
G36*
X040736Y020842D02*
X040819Y020758D01*
X040652Y020591D01*
X040485Y020758D01*
X040569Y020842D01*
X040736Y020842D01*
D02*
G37*
G36*
X023806D02*
X02389Y020758D01*
X023723Y020591D01*
X023556Y020758D01*
X023639Y020842D01*
X023806Y020842D01*
D02*
G37*
G36*
X040736Y014346D02*
X040819Y014262D01*
X040652Y014095D01*
X040485Y014262D01*
X040569Y014346D01*
X040736Y014346D01*
D02*
G37*
G36*
X023806D02*
X02389Y014262D01*
X023723Y014095D01*
X023556Y014262D01*
X023639Y014346D01*
X023806Y014346D01*
D02*
G37*
D52*
X032117Y016621D02*
G03*
X032117Y016621I-000039J0D01*
G01*
X028212Y015021D02*
G03*
X028212Y015021I-000039J0D01*
G01*
X023362Y019421D02*
G03*
X023362Y019421I-000039J0D01*
G01*
X026219Y01805D02*
G03*
X026219Y01805I-000039J0D01*
G01*
X02389Y014262D02*
G03*
X023556Y014262I-000167J-000167D01*
G01*
X019668Y017345D02*
G03*
X019668Y017345I-000039J0D01*
G01*
X023723Y014095D02*
X025449Y015821D01*
X021997D02*
X023723Y017547D01*
X021997Y015821D02*
X023723Y014095D01*
Y017547D02*
X025449Y015821D01*
X049047Y016621D02*
G03*
X049047Y016621I-000039J0D01*
G01*
X045141Y015021D02*
G03*
X045141Y015021I-000039J0D01*
G01*
X040291Y019421D02*
G03*
X040291Y019421I-000039J0D01*
G01*
X043148Y01805D02*
G03*
X043148Y01805I-000039J0D01*
G01*
X040819Y014262D02*
G03*
X040485Y014262I-000167J-000167D01*
G01*
X036597Y017345D02*
G03*
X036597Y017345I-000039J0D01*
G01*
X040652Y014095D02*
X042378Y015821D01*
X038926D02*
X040652Y017547D01*
X038926Y015821D02*
X040652Y014095D01*
Y017547D02*
X042378Y015821D01*
X032117Y023117D02*
G03*
X032117Y023117I-000039J0D01*
G01*
X028212Y021517D02*
G03*
X028212Y021517I-000039J0D01*
G01*
X023362Y025917D02*
G03*
X023362Y025917I-000039J0D01*
G01*
X026219Y024546D02*
G03*
X026219Y024546I-000039J0D01*
G01*
X02389Y020758D02*
G03*
X023556Y020758I-000167J-000167D01*
G01*
X019668Y023841D02*
G03*
X019668Y023841I-000039J0D01*
G01*
X023723Y020591D02*
X025449Y022317D01*
X021997D02*
X023723Y024043D01*
X021997Y022317D02*
X023723Y020591D01*
Y024043D02*
X025449Y022317D01*
X049047Y023117D02*
G03*
X049047Y023117I-000039J0D01*
G01*
X045141Y021517D02*
G03*
X045141Y021517I-000039J0D01*
G01*
X040291Y025917D02*
G03*
X040291Y025917I-000039J0D01*
G01*
X043148Y024546D02*
G03*
X043148Y024546I-000039J0D01*
G01*
X040819Y020758D02*
G03*
X040485Y020758I-000167J-000167D01*
G01*
X036597Y023841D02*
G03*
X036597Y023841I-000039J0D01*
G01*
X040652Y020591D02*
X042378Y022317D01*
X038926D02*
X040652Y024043D01*
X038926Y022317D02*
X040652Y020591D01*
Y024043D02*
X042378Y022317D01*
X032117Y029613D02*
G03*
X032117Y029613I-000039J0D01*
G01*
X028212Y028013D02*
G03*
X028212Y028013I-000039J0D01*
G01*
X023362Y032413D02*
G03*
X023362Y032413I-000039J0D01*
G01*
X026219Y031042D02*
G03*
X026219Y031042I-000039J0D01*
G01*
X02389Y027254D02*
G03*
X023556Y027254I-000167J-000167D01*
G01*
X019668Y030337D02*
G03*
X019668Y030337I-000039J0D01*
G01*
X023723Y027087D02*
X025449Y028813D01*
X021997D02*
X023723Y030539D01*
X021997Y028813D02*
X023723Y027087D01*
Y030539D02*
X025449Y028813D01*
X049047Y029613D02*
G03*
X049047Y029613I-000039J0D01*
G01*
X045141Y028013D02*
G03*
X045141Y028013I-000039J0D01*
G01*
X040291Y032413D02*
G03*
X040291Y032413I-000039J0D01*
G01*
X043148Y031042D02*
G03*
X043148Y031042I-000039J0D01*
G01*
X040819Y027254D02*
G03*
X040485Y027254I-000167J-000167D01*
G01*
X036597Y030337D02*
G03*
X036597Y030337I-000039J0D01*
G01*
X040652Y027087D02*
X042378Y028813D01*
X038926D02*
X040652Y030539D01*
X038926Y028813D02*
X040652Y027087D01*
Y030539D02*
X042378Y028813D01*
X032117Y03611D02*
G03*
X032117Y03611I-000039J0D01*
G01*
X028212Y03451D02*
G03*
X028212Y03451I-000039J0D01*
G01*
X023362Y03891D02*
G03*
X023362Y03891I-000039J0D01*
G01*
X026219Y037538D02*
G03*
X026219Y037538I-000039J0D01*
G01*
X02389Y033751D02*
G03*
X023556Y033751I-000167J-000167D01*
G01*
X019668Y036834D02*
G03*
X019668Y036834I-000039J0D01*
G01*
X023723Y033584D02*
X025449Y03531D01*
X021997D02*
X023723Y037036D01*
X021997Y03531D02*
X023723Y033584D01*
Y037036D02*
X025449Y03531D01*
X049047Y03611D02*
G03*
X049047Y03611I-000039J0D01*
G01*
X045141Y03451D02*
G03*
X045141Y03451I-000039J0D01*
G01*
X040291Y03891D02*
G03*
X040291Y03891I-000039J0D01*
G01*
X043148Y037538D02*
G03*
X043148Y037538I-000039J0D01*
G01*
X040819Y033751D02*
G03*
X040485Y033751I-000167J-000167D01*
G01*
X036597Y036834D02*
G03*
X036597Y036834I-000039J0D01*
G01*
X040652Y033584D02*
X042378Y03531D01*
X038926D02*
X040652Y037036D01*
X038926Y03531D02*
X040652Y033584D01*
Y037036D02*
X042378Y03531D01*
X032117Y042606D02*
G03*
X032117Y042606I-000039J0D01*
G01*
X028212Y041006D02*
G03*
X028212Y041006I-000039J0D01*
G01*
X023362Y045406D02*
G03*
X023362Y045406I-000039J0D01*
G01*
X026219Y044034D02*
G03*
X026219Y044034I-000039J0D01*
G01*
X02389Y040247D02*
G03*
X023556Y040247I-000167J-000167D01*
G01*
X019668Y04333D02*
G03*
X019668Y04333I-000039J0D01*
G01*
X023723Y04008D02*
X025449Y041806D01*
X021997D02*
X023723Y043532D01*
X021997Y041806D02*
X023723Y04008D01*
Y043532D02*
X025449Y041806D01*
X049047Y042606D02*
G03*
X049047Y042606I-000039J0D01*
G01*
X045141Y041006D02*
G03*
X045141Y041006I-000039J0D01*
G01*
X040291Y045406D02*
G03*
X040291Y045406I-000039J0D01*
G01*
X043148Y044034D02*
G03*
X043148Y044034I-000039J0D01*
G01*
X040819Y040247D02*
G03*
X040485Y040247I-000167J-000167D01*
G01*
X036597Y04333D02*
G03*
X036597Y04333I-000039J0D01*
G01*
X040652Y04008D02*
X042378Y041806D01*
X038926D02*
X040652Y043532D01*
X038926Y041806D02*
X040652Y04008D01*
Y043532D02*
X042378Y041806D01*
D53*
X024672Y013671D02*
G03*
X024672Y013671I-000049J0D01*
G01*
X041601D02*
G03*
X041601Y013671I-000049J0D01*
G01*
X024672Y020167D02*
G03*
X024672Y020167I-000049J0D01*
G01*
X041601D02*
G03*
X041601Y020167I-000049J0D01*
G01*
X024672Y026663D02*
G03*
X024672Y026663I-000049J0D01*
G01*
X041601D02*
G03*
X041601Y026663I-000049J0D01*
G01*
X024672Y03316D02*
G03*
X024672Y03316I-000049J0D01*
G01*
X041601D02*
G03*
X041601Y03316I-000049J0D01*
G01*
X024672Y039656D02*
G03*
X024672Y039656I-000049J0D01*
G01*
X041601D02*
G03*
X041601Y039656I-000049J0D01*
G01*
D54*
X026762Y015754D02*
X026818Y015809D01*
X026205Y016311D02*
X026762Y015754D01*
X026205Y016311D02*
X026261Y016366D01*
X026428Y016533D02*
X026484Y016589D01*
X02704Y016032D01*
X026985Y015976D02*
X02704Y016032D01*
X028826Y016694D02*
X028905D01*
X028826D02*
Y017402D01*
X028905D01*
X029141D02*
X02922D01*
Y016694D02*
Y017402D01*
X029141Y016694D02*
X02922D01*
X028819Y017789D02*
Y017868D01*
X029527D01*
Y017789D02*
Y017868D01*
Y017474D02*
Y017553D01*
X028819Y017474D02*
X029527D01*
X028819D02*
Y017553D01*
X030067Y016989D02*
Y017068D01*
X029279D02*
X030067D01*
X029279Y016989D02*
Y017068D01*
Y016674D02*
Y016753D01*
Y016674D02*
X030067D01*
Y016753D01*
Y016539D02*
Y016618D01*
X029279D02*
X030067D01*
X029279Y016539D02*
Y016618D01*
Y016224D02*
Y016303D01*
Y016224D02*
X030067D01*
Y016303D01*
X028326Y017144D02*
X028405D01*
X028326D02*
Y017852D01*
X028405D01*
X028641D02*
X02872D01*
Y017144D02*
Y017852D01*
X028641Y017144D02*
X02872D01*
X030417Y017553D02*
X030417Y017474D01*
X029629D02*
X030417D01*
X029629D02*
Y017553D01*
Y017789D02*
Y017868D01*
X030417D01*
X030417Y017789D02*
X030417Y017868D01*
X030476Y017478D02*
X030555D01*
X030476D02*
Y018265D01*
X030555Y018265D01*
X030791D02*
X03087Y018265D01*
Y017478D02*
Y018265D01*
X030791Y017478D02*
X03087D01*
X028341Y019515D02*
X02842D01*
Y018728D02*
Y019515D01*
X028341Y018728D02*
X02842D01*
X028026D02*
X028105D01*
X028026D02*
Y019515D01*
X028105D01*
X027523Y019121D02*
X027923D01*
X027873Y019571D02*
X027923D01*
Y018671D02*
Y019571D01*
X027873Y018671D02*
X027923D01*
X027523D02*
X027573D01*
X027523D02*
Y019571D01*
X027573D01*
X026155Y018832D02*
X026211Y018776D01*
X026155Y018832D02*
X026712Y019389D01*
X026768Y019333D01*
X026935Y019166D02*
X02699Y019111D01*
X026434Y018554D02*
X02699Y019111D01*
X026378Y018609D02*
X026434Y018554D01*
X025423Y019471D02*
X025473Y019471D01*
X025423Y018571D02*
Y019471D01*
Y018571D02*
X025473Y018571D01*
X025773D02*
X025823Y018571D01*
Y019471D01*
X025773Y019471D02*
X025823Y019471D01*
X025423Y019021D02*
X025823D01*
X024747Y018971D02*
X025299D01*
X025223Y019471D02*
X025299D01*
Y018471D02*
Y019471D01*
X025223Y018471D02*
X025299D01*
X024747D02*
X024823D01*
X024747D02*
Y019471D01*
X024823D01*
X02079Y018979D02*
Y019097D01*
X019687D02*
X02079D01*
X019687Y018979D02*
Y019097D01*
Y018546D02*
Y018664D01*
Y018546D02*
X02079D01*
Y018664D01*
X020239Y018546D02*
Y019097D01*
X024097Y019021D02*
X024648D01*
X024097Y01847D02*
X024215D01*
X024097D02*
Y019572D01*
X024215D01*
X02453D02*
X024648D01*
Y01847D02*
Y019572D01*
X02453Y01847D02*
X024648D01*
X021623Y014271D02*
Y014671D01*
X021173Y014621D02*
X021173Y014671D01*
X022073D01*
X022073Y014621D02*
X022073Y014671D01*
X022073Y014321D02*
X022073Y014271D01*
X021173D02*
X022073D01*
X021173Y014321D02*
X021173Y014271D01*
X025073Y013646D02*
Y013721D01*
Y013646D02*
X026073D01*
X026073Y013721D01*
X026073Y014197D02*
X026073Y014121D01*
X025073Y014197D02*
X026073D01*
X025073Y014121D02*
Y014197D01*
X025573Y013646D02*
Y014197D01*
X020747Y015321D02*
X021298D01*
X02118Y015872D02*
X021298D01*
Y01477D02*
Y015872D01*
X02118Y01477D02*
X021298D01*
X020747D02*
X020865D01*
X020747D02*
Y015872D01*
X020865D01*
X018958Y018979D02*
Y019097D01*
X017856D02*
X018958D01*
X017856Y018979D02*
Y019097D01*
Y018546D02*
Y018664D01*
Y018546D02*
X018958D01*
Y018664D01*
X018407Y018546D02*
Y019097D01*
X022174Y014079D02*
Y014197D01*
X021072D02*
X022174D01*
X021072Y014079D02*
Y014197D01*
Y013646D02*
Y013764D01*
Y013646D02*
X022174D01*
Y013764D01*
X021623Y013646D02*
Y014197D01*
X043691Y015754D02*
X043747Y015809D01*
X043134Y016311D02*
X043691Y015754D01*
X043134Y016311D02*
X04319Y016366D01*
X043357Y016533D02*
X043413Y016589D01*
X04397Y016032D01*
X043914Y015976D02*
X04397Y016032D01*
X045755Y016694D02*
X045834D01*
X045755D02*
Y017402D01*
X045834D01*
X04607D02*
X046149D01*
Y016694D02*
Y017402D01*
X04607Y016694D02*
X046149D01*
X045748Y017789D02*
Y017868D01*
X046456D01*
Y017789D02*
Y017868D01*
Y017474D02*
Y017553D01*
X045748Y017474D02*
X046456D01*
X045748D02*
Y017553D01*
X046996Y016989D02*
Y017068D01*
X046208D02*
X046996D01*
X046208Y016989D02*
Y017068D01*
Y016674D02*
Y016753D01*
Y016674D02*
X046996D01*
Y016753D01*
Y016539D02*
Y016618D01*
X046208D02*
X046996D01*
X046208Y016539D02*
Y016618D01*
Y016224D02*
Y016303D01*
Y016224D02*
X046996D01*
Y016303D01*
X045255Y017144D02*
X045334D01*
X045255D02*
Y017852D01*
X045334D01*
X04557D02*
X045649D01*
Y017144D02*
Y017852D01*
X04557Y017144D02*
X045649D01*
X047346Y017553D02*
X047346Y017474D01*
X046558D02*
X047346D01*
X046558D02*
Y017553D01*
Y017789D02*
Y017868D01*
X047346D01*
X047346Y017789D02*
X047346Y017868D01*
X047405Y017478D02*
X047484D01*
X047405D02*
Y018265D01*
X047484Y018265D01*
X04772D02*
X047799Y018265D01*
Y017478D02*
Y018265D01*
X04772Y017478D02*
X047799D01*
X04527Y019515D02*
X045349D01*
Y018728D02*
Y019515D01*
X04527Y018728D02*
X045349D01*
X044955D02*
X045034D01*
X044955D02*
Y019515D01*
X045034D01*
X044452Y019121D02*
X044852D01*
X044802Y019571D02*
X044852D01*
Y018671D02*
Y019571D01*
X044802Y018671D02*
X044852D01*
X044452D02*
X044502D01*
X044452D02*
Y019571D01*
X044502D01*
X043084Y018832D02*
X04314Y018776D01*
X043084Y018832D02*
X043641Y019389D01*
X043697Y019333D01*
X043864Y019166D02*
X04392Y019111D01*
X043363Y018554D02*
X04392Y019111D01*
X043307Y018609D02*
X043363Y018554D01*
X042352Y019471D02*
X042402Y019471D01*
X042352Y018571D02*
Y019471D01*
Y018571D02*
X042402Y018571D01*
X042702D02*
X042752Y018571D01*
Y019471D01*
X042702Y019471D02*
X042752Y019471D01*
X042352Y019021D02*
X042752D01*
X041676Y018971D02*
X042228D01*
X042152Y019471D02*
X042228D01*
Y018471D02*
Y019471D01*
X042152Y018471D02*
X042228D01*
X041676D02*
X041752D01*
X041676D02*
Y019471D01*
X041752D01*
X037719Y018979D02*
Y019097D01*
X036617D02*
X037719D01*
X036617Y018979D02*
Y019097D01*
Y018546D02*
Y018664D01*
Y018546D02*
X037719D01*
Y018664D01*
X037168Y018546D02*
Y019097D01*
X041026Y019021D02*
X041578D01*
X041026Y01847D02*
X041145D01*
X041026D02*
Y019572D01*
X041145D01*
X04146D02*
X041578D01*
Y01847D02*
Y019572D01*
X04146Y01847D02*
X041578D01*
X038552Y014271D02*
Y014671D01*
X038102Y014621D02*
X038102Y014671D01*
X039002D01*
X039002Y014621D02*
X039002Y014671D01*
X039002Y014321D02*
X039002Y014271D01*
X038102D02*
X039002D01*
X038102Y014321D02*
X038102Y014271D01*
X042002Y013646D02*
Y013721D01*
Y013646D02*
X043002D01*
X043002Y013721D01*
X043002Y014197D02*
X043002Y014121D01*
X042002Y014197D02*
X043002D01*
X042002Y014121D02*
Y014197D01*
X042502Y013646D02*
Y014197D01*
X037676Y015321D02*
X038228D01*
X03811Y015872D02*
X038228D01*
Y01477D02*
Y015872D01*
X03811Y01477D02*
X038228D01*
X037676D02*
X037795D01*
X037676D02*
Y015872D01*
X037795D01*
X035887Y018979D02*
Y019097D01*
X034785D02*
X035887D01*
X034785Y018979D02*
Y019097D01*
Y018546D02*
Y018664D01*
Y018546D02*
X035887D01*
Y018664D01*
X035336Y018546D02*
Y019097D01*
X039103Y014079D02*
Y014197D01*
X038001D02*
X039103D01*
X038001Y014079D02*
Y014197D01*
Y013646D02*
Y013764D01*
Y013646D02*
X039103D01*
Y013764D01*
X038552Y013646D02*
Y014197D01*
X026762Y02225D02*
X026818Y022305D01*
X026205Y022807D02*
X026762Y02225D01*
X026205Y022807D02*
X026261Y022862D01*
X026428Y023029D02*
X026484Y023085D01*
X02704Y022528D01*
X026985Y022473D02*
X02704Y022528D01*
X028826Y02319D02*
X028905D01*
X028826D02*
Y023898D01*
X028905D01*
X029141D02*
X02922D01*
Y02319D02*
Y023898D01*
X029141Y02319D02*
X02922D01*
X028819Y024286D02*
Y024364D01*
X029527D01*
Y024286D02*
Y024364D01*
Y023971D02*
Y024049D01*
X028819Y023971D02*
X029527D01*
X028819D02*
Y024049D01*
X030067Y023486D02*
Y023564D01*
X029279D02*
X030067D01*
X029279Y023486D02*
Y023564D01*
Y023171D02*
Y023249D01*
Y023171D02*
X030067D01*
Y023249D01*
Y023036D02*
Y023114D01*
X029279D02*
X030067D01*
X029279Y023036D02*
Y023114D01*
Y022721D02*
Y022799D01*
Y022721D02*
X030067D01*
Y022799D01*
X028326Y02364D02*
X028405D01*
X028326D02*
Y024348D01*
X028405D01*
X028641D02*
X02872D01*
Y02364D02*
Y024348D01*
X028641Y02364D02*
X02872D01*
X030417Y024049D02*
X030417Y023971D01*
X029629D02*
X030417D01*
X029629D02*
Y024049D01*
Y024286D02*
Y024364D01*
X030417D01*
X030417Y024285D02*
X030417Y024364D01*
X030476Y023974D02*
X030555D01*
X030476D02*
Y024761D01*
X030555Y024761D01*
X030791D02*
X03087Y024761D01*
Y023974D02*
Y024761D01*
X030791Y023974D02*
X03087D01*
X028341Y026011D02*
X02842D01*
Y025224D02*
Y026011D01*
X028341Y025224D02*
X02842D01*
X028026D02*
X028105D01*
X028026D02*
Y026011D01*
X028105D01*
X027523Y025617D02*
X027923D01*
X027873Y026067D02*
X027923D01*
Y025167D02*
Y026067D01*
X027873Y025167D02*
X027923D01*
X027523D02*
X027573D01*
X027523D02*
Y026067D01*
X027573D01*
X026155Y025328D02*
X026211Y025273D01*
X026155Y025328D02*
X026712Y025885D01*
X026768Y025829D01*
X026935Y025662D02*
X02699Y025607D01*
X026434Y02505D02*
X02699Y025607D01*
X026378Y025105D02*
X026434Y02505D01*
X025423Y025967D02*
X025473Y025967D01*
X025423Y025067D02*
Y025967D01*
Y025067D02*
X025473Y025067D01*
X025773D02*
X025823Y025067D01*
Y025967D01*
X025773Y025967D02*
X025823Y025967D01*
X025423Y025517D02*
X025823D01*
X024747Y025467D02*
X025299D01*
X025223Y025967D02*
X025299D01*
Y024967D02*
Y025967D01*
X025223Y024967D02*
X025299D01*
X024747D02*
X024823D01*
X024747D02*
Y025967D01*
X024823D01*
X02079Y025475D02*
Y025593D01*
X019687D02*
X02079D01*
X019687Y025475D02*
Y025593D01*
Y025042D02*
Y02516D01*
Y025042D02*
X02079D01*
Y02516D01*
X020239Y025042D02*
Y025593D01*
X024097Y025517D02*
X024648D01*
X024097Y024966D02*
X024215D01*
X024097D02*
Y026069D01*
X024215D01*
X02453D02*
X024648D01*
Y024966D02*
Y026069D01*
X02453Y024966D02*
X024648D01*
X021623Y020767D02*
Y021167D01*
X021173Y021117D02*
X021173Y021167D01*
X022073D01*
X022073Y021117D02*
X022073Y021167D01*
X022073Y020817D02*
X022073Y020767D01*
X021173D02*
X022073D01*
X021173Y020817D02*
X021173Y020767D01*
X025073Y020142D02*
Y020217D01*
Y020142D02*
X026073D01*
X026073Y020217D01*
X026073Y020693D02*
X026073Y020617D01*
X025073Y020693D02*
X026073D01*
X025073Y020617D02*
Y020693D01*
X025573Y020142D02*
Y020693D01*
X020747Y021817D02*
X021298D01*
X02118Y022369D02*
X021298D01*
Y021266D02*
Y022369D01*
X02118Y021266D02*
X021298D01*
X020747D02*
X020865D01*
X020747D02*
Y022369D01*
X020865D01*
X018958Y025475D02*
Y025593D01*
X017856D02*
X018958D01*
X017856Y025475D02*
Y025593D01*
Y025042D02*
Y02516D01*
Y025042D02*
X018958D01*
Y02516D01*
X018407Y025042D02*
Y025593D01*
X022174Y020575D02*
Y020693D01*
X021072D02*
X022174D01*
X021072Y020575D02*
Y020693D01*
Y020142D02*
Y02026D01*
Y020142D02*
X022174D01*
Y02026D01*
X021623Y020142D02*
Y020693D01*
X043691Y02225D02*
X043747Y022305D01*
X043134Y022807D02*
X043691Y02225D01*
X043134Y022807D02*
X04319Y022862D01*
X043357Y023029D02*
X043413Y023085D01*
X04397Y022528D01*
X043914Y022473D02*
X04397Y022528D01*
X045755Y02319D02*
X045834D01*
X045755D02*
Y023898D01*
X045834D01*
X04607D02*
X046149D01*
Y02319D02*
Y023898D01*
X04607Y02319D02*
X046149D01*
X045748Y024286D02*
Y024364D01*
X046456D01*
Y024286D02*
Y024364D01*
Y023971D02*
Y024049D01*
X045748Y023971D02*
X046456D01*
X045748D02*
Y024049D01*
X046996Y023486D02*
Y023564D01*
X046208D02*
X046996D01*
X046208Y023486D02*
Y023564D01*
Y023171D02*
Y023249D01*
Y023171D02*
X046996D01*
Y023249D01*
Y023036D02*
Y023114D01*
X046208D02*
X046996D01*
X046208Y023036D02*
Y023114D01*
Y022721D02*
Y022799D01*
Y022721D02*
X046996D01*
Y022799D01*
X045255Y02364D02*
X045334D01*
X045255D02*
Y024348D01*
X045334D01*
X04557D02*
X045649D01*
Y02364D02*
Y024348D01*
X04557Y02364D02*
X045649D01*
X047346Y024049D02*
X047346Y023971D01*
X046558D02*
X047346D01*
X046558D02*
Y024049D01*
Y024286D02*
Y024364D01*
X047346D01*
X047346Y024285D02*
X047346Y024364D01*
X047405Y023974D02*
X047484D01*
X047405D02*
Y024761D01*
X047484Y024761D01*
X04772D02*
X047799Y024761D01*
Y023974D02*
Y024761D01*
X04772Y023974D02*
X047799D01*
X04527Y026011D02*
X045349D01*
Y025224D02*
Y026011D01*
X04527Y025224D02*
X045349D01*
X044955D02*
X045034D01*
X044955D02*
Y026011D01*
X045034D01*
X044452Y025617D02*
X044852D01*
X044802Y026067D02*
X044852D01*
Y025167D02*
Y026067D01*
X044802Y025167D02*
X044852D01*
X044452D02*
X044502D01*
X044452D02*
Y026067D01*
X044502D01*
X043084Y025328D02*
X04314Y025273D01*
X043084Y025328D02*
X043641Y025885D01*
X043697Y025829D01*
X043864Y025662D02*
X04392Y025607D01*
X043363Y02505D02*
X04392Y025607D01*
X043307Y025105D02*
X043363Y02505D01*
X042352Y025967D02*
X042402Y025967D01*
X042352Y025067D02*
Y025967D01*
Y025067D02*
X042402Y025067D01*
X042702D02*
X042752Y025067D01*
Y025967D01*
X042702Y025967D02*
X042752Y025967D01*
X042352Y025517D02*
X042752D01*
X041676Y025467D02*
X042228D01*
X042152Y025967D02*
X042228D01*
Y024967D02*
Y025967D01*
X042152Y024967D02*
X042228D01*
X041676D02*
X041752D01*
X041676D02*
Y025967D01*
X041752D01*
X037719Y025475D02*
Y025593D01*
X036617D02*
X037719D01*
X036617Y025475D02*
Y025593D01*
Y025042D02*
Y02516D01*
Y025042D02*
X037719D01*
Y02516D01*
X037168Y025042D02*
Y025593D01*
X041026Y025517D02*
X041578D01*
X041026Y024966D02*
X041145D01*
X041026D02*
Y026069D01*
X041145D01*
X04146D02*
X041578D01*
Y024966D02*
Y026069D01*
X04146Y024966D02*
X041578D01*
X038552Y020767D02*
Y021167D01*
X038102Y021117D02*
X038102Y021167D01*
X039002D01*
X039002Y021117D02*
X039002Y021167D01*
X039002Y020817D02*
X039002Y020767D01*
X038102D02*
X039002D01*
X038102Y020817D02*
X038102Y020767D01*
X042002Y020142D02*
Y020217D01*
Y020142D02*
X043002D01*
X043002Y020217D01*
X043002Y020693D02*
X043002Y020617D01*
X042002Y020693D02*
X043002D01*
X042002Y020617D02*
Y020693D01*
X042502Y020142D02*
Y020693D01*
X037676Y021817D02*
X038228D01*
X03811Y022369D02*
X038228D01*
Y021266D02*
Y022369D01*
X03811Y021266D02*
X038228D01*
X037676D02*
X037795D01*
X037676D02*
Y022369D01*
X037795D01*
X035887Y025475D02*
Y025593D01*
X034785D02*
X035887D01*
X034785Y025475D02*
Y025593D01*
Y025042D02*
Y02516D01*
Y025042D02*
X035887D01*
Y02516D01*
X035336Y025042D02*
Y025593D01*
X039103Y020575D02*
Y020693D01*
X038001D02*
X039103D01*
X038001Y020575D02*
Y020693D01*
Y020142D02*
Y02026D01*
Y020142D02*
X039103D01*
Y02026D01*
X038552Y020142D02*
Y020693D01*
X026762Y028746D02*
X026818Y028802D01*
X026205Y029303D02*
X026762Y028746D01*
X026205Y029303D02*
X026261Y029358D01*
X026428Y029525D02*
X026484Y029581D01*
X02704Y029024D01*
X026985Y028969D02*
X02704Y029024D01*
X028826Y029686D02*
X028905D01*
X028826D02*
Y030395D01*
X028905D01*
X029141D02*
X02922D01*
Y029686D02*
Y030395D01*
X029141Y029686D02*
X02922D01*
X028819Y030782D02*
Y03086D01*
X029527D01*
Y030782D02*
Y03086D01*
Y030467D02*
Y030545D01*
X028819Y030467D02*
X029527D01*
X028819D02*
Y030545D01*
X030067Y029982D02*
Y03006D01*
X029279D02*
X030067D01*
X029279Y029982D02*
Y03006D01*
Y029667D02*
Y029745D01*
Y029667D02*
X030067D01*
Y029745D01*
Y029532D02*
Y02961D01*
X029279D02*
X030067D01*
X029279Y029532D02*
Y02961D01*
Y029217D02*
Y029295D01*
Y029217D02*
X030067D01*
Y029295D01*
X028326Y030136D02*
X028405D01*
X028326D02*
Y030845D01*
X028405D01*
X028641D02*
X02872D01*
Y030136D02*
Y030845D01*
X028641Y030136D02*
X02872D01*
X030417Y030545D02*
X030417Y030467D01*
X029629D02*
X030417D01*
X029629D02*
Y030545D01*
Y030782D02*
Y03086D01*
X030417D01*
X030417Y030782D02*
X030417Y03086D01*
X030476Y03047D02*
X030555D01*
X030476D02*
Y031257D01*
X030555Y031257D01*
X030791D02*
X03087Y031257D01*
Y03047D02*
Y031257D01*
X030791Y03047D02*
X03087D01*
X028341Y032507D02*
X02842D01*
Y03172D02*
Y032507D01*
X028341Y03172D02*
X02842D01*
X028026D02*
X028105D01*
X028026D02*
Y032507D01*
X028105D01*
X027523Y032113D02*
X027923D01*
X027873Y032563D02*
X027923D01*
Y031663D02*
Y032563D01*
X027873Y031663D02*
X027923D01*
X027523D02*
X027573D01*
X027523D02*
Y032563D01*
X027573D01*
X026155Y031824D02*
X026211Y031769D01*
X026155Y031824D02*
X026712Y032381D01*
X026768Y032325D01*
X026935Y032158D02*
X02699Y032103D01*
X026434Y031546D02*
X02699Y032103D01*
X026378Y031602D02*
X026434Y031546D01*
X025423Y032463D02*
X025473Y032463D01*
X025423Y031563D02*
Y032463D01*
Y031563D02*
X025473Y031563D01*
X025773D02*
X025823Y031563D01*
Y032463D01*
X025773Y032463D02*
X025823Y032463D01*
X025423Y032013D02*
X025823D01*
X024747Y031963D02*
X025299D01*
X025223Y032463D02*
X025299D01*
Y031463D02*
Y032463D01*
X025223Y031463D02*
X025299D01*
X024747D02*
X024823D01*
X024747D02*
Y032463D01*
X024823D01*
X02079Y031971D02*
Y032089D01*
X019687D02*
X02079D01*
X019687Y031971D02*
Y032089D01*
Y031538D02*
Y031656D01*
Y031538D02*
X02079D01*
Y031656D01*
X020239Y031538D02*
Y032089D01*
X024097Y032013D02*
X024648D01*
X024097Y031462D02*
X024215D01*
X024097D02*
Y032565D01*
X024215D01*
X02453D02*
X024648D01*
Y031462D02*
Y032565D01*
X02453Y031462D02*
X024648D01*
X021623Y027263D02*
Y027663D01*
X021173Y027613D02*
X021173Y027663D01*
X022073D01*
X022073Y027613D02*
X022073Y027663D01*
X022073Y027313D02*
X022073Y027263D01*
X021173D02*
X022073D01*
X021173Y027313D02*
X021173Y027263D01*
X025073Y026638D02*
Y026713D01*
Y026638D02*
X026073D01*
X026073Y026713D01*
X026073Y027189D02*
X026073Y027113D01*
X025073Y027189D02*
X026073D01*
X025073Y027113D02*
Y027189D01*
X025573Y026638D02*
Y027189D01*
X020747Y028313D02*
X021298D01*
X02118Y028865D02*
X021298D01*
Y027762D02*
Y028865D01*
X02118Y027762D02*
X021298D01*
X020747D02*
X020865D01*
X020747D02*
Y028865D01*
X020865D01*
X018958Y031971D02*
Y032089D01*
X017856D02*
X018958D01*
X017856Y031971D02*
Y032089D01*
Y031538D02*
Y031656D01*
Y031538D02*
X018958D01*
Y031656D01*
X018407Y031538D02*
Y032089D01*
X022174Y027071D02*
Y027189D01*
X021072D02*
X022174D01*
X021072Y027071D02*
Y027189D01*
Y026638D02*
Y026756D01*
Y026638D02*
X022174D01*
Y026756D01*
X021623Y026638D02*
Y027189D01*
X043691Y028746D02*
X043747Y028802D01*
X043134Y029303D02*
X043691Y028746D01*
X043134Y029303D02*
X04319Y029358D01*
X043357Y029525D02*
X043413Y029581D01*
X04397Y029024D01*
X043914Y028969D02*
X04397Y029024D01*
X045755Y029686D02*
X045834D01*
X045755D02*
Y030395D01*
X045834D01*
X04607D02*
X046149D01*
Y029686D02*
Y030395D01*
X04607Y029686D02*
X046149D01*
X045748Y030782D02*
Y03086D01*
X046456D01*
Y030782D02*
Y03086D01*
Y030467D02*
Y030545D01*
X045748Y030467D02*
X046456D01*
X045748D02*
Y030545D01*
X046996Y029982D02*
Y03006D01*
X046208D02*
X046996D01*
X046208Y029982D02*
Y03006D01*
Y029667D02*
Y029745D01*
Y029667D02*
X046996D01*
Y029745D01*
Y029532D02*
Y02961D01*
X046208D02*
X046996D01*
X046208Y029532D02*
Y02961D01*
Y029217D02*
Y029295D01*
Y029217D02*
X046996D01*
Y029295D01*
X045255Y030136D02*
X045334D01*
X045255D02*
Y030845D01*
X045334D01*
X04557D02*
X045649D01*
Y030136D02*
Y030845D01*
X04557Y030136D02*
X045649D01*
X047346Y030545D02*
X047346Y030467D01*
X046558D02*
X047346D01*
X046558D02*
Y030545D01*
Y030782D02*
Y03086D01*
X047346D01*
X047346Y030782D02*
X047346Y03086D01*
X047405Y03047D02*
X047484D01*
X047405D02*
Y031257D01*
X047484Y031257D01*
X04772D02*
X047799Y031257D01*
Y03047D02*
Y031257D01*
X04772Y03047D02*
X047799D01*
X04527Y032507D02*
X045349D01*
Y03172D02*
Y032507D01*
X04527Y03172D02*
X045349D01*
X044955D02*
X045034D01*
X044955D02*
Y032507D01*
X045034D01*
X044452Y032113D02*
X044852D01*
X044802Y032563D02*
X044852D01*
Y031663D02*
Y032563D01*
X044802Y031663D02*
X044852D01*
X044452D02*
X044502D01*
X044452D02*
Y032563D01*
X044502D01*
X043084Y031824D02*
X04314Y031769D01*
X043084Y031824D02*
X043641Y032381D01*
X043697Y032325D01*
X043864Y032158D02*
X04392Y032103D01*
X043363Y031546D02*
X04392Y032103D01*
X043307Y031602D02*
X043363Y031546D01*
X042352Y032463D02*
X042402Y032463D01*
X042352Y031563D02*
Y032463D01*
Y031563D02*
X042402Y031563D01*
X042702D02*
X042752Y031563D01*
Y032463D01*
X042702Y032463D02*
X042752Y032463D01*
X042352Y032013D02*
X042752D01*
X041676Y031963D02*
X042228D01*
X042152Y032463D02*
X042228D01*
Y031463D02*
Y032463D01*
X042152Y031463D02*
X042228D01*
X041676D02*
X041752D01*
X041676D02*
Y032463D01*
X041752D01*
X037719Y031971D02*
Y032089D01*
X036617D02*
X037719D01*
X036617Y031971D02*
Y032089D01*
Y031538D02*
Y031656D01*
Y031538D02*
X037719D01*
Y031656D01*
X037168Y031538D02*
Y032089D01*
X041026Y032013D02*
X041578D01*
X041026Y031462D02*
X041145D01*
X041026D02*
Y032565D01*
X041145D01*
X04146D02*
X041578D01*
Y031462D02*
Y032565D01*
X04146Y031462D02*
X041578D01*
X038552Y027263D02*
Y027663D01*
X038102Y027613D02*
X038102Y027663D01*
X039002D01*
X039002Y027613D02*
X039002Y027663D01*
X039002Y027313D02*
X039002Y027263D01*
X038102D02*
X039002D01*
X038102Y027313D02*
X038102Y027263D01*
X042002Y026638D02*
Y026713D01*
Y026638D02*
X043002D01*
X043002Y026713D01*
X043002Y027189D02*
X043002Y027113D01*
X042002Y027189D02*
X043002D01*
X042002Y027113D02*
Y027189D01*
X042502Y026638D02*
Y027189D01*
X037676Y028313D02*
X038228D01*
X03811Y028865D02*
X038228D01*
Y027762D02*
Y028865D01*
X03811Y027762D02*
X038228D01*
X037676D02*
X037795D01*
X037676D02*
Y028865D01*
X037795D01*
X035887Y031971D02*
Y032089D01*
X034785D02*
X035887D01*
X034785Y031971D02*
Y032089D01*
Y031538D02*
Y031656D01*
Y031538D02*
X035887D01*
Y031656D01*
X035336Y031538D02*
Y032089D01*
X039103Y027071D02*
Y027189D01*
X038001D02*
X039103D01*
X038001Y027071D02*
Y027189D01*
Y026638D02*
Y026756D01*
Y026638D02*
X039103D01*
Y026756D01*
X038552Y026638D02*
Y027189D01*
X026762Y035242D02*
X026818Y035298D01*
X026205Y035799D02*
X026762Y035242D01*
X026205Y035799D02*
X026261Y035854D01*
X026428Y036021D02*
X026484Y036077D01*
X02704Y03552D01*
X026985Y035465D02*
X02704Y03552D01*
X028826Y036182D02*
X028905D01*
X028826D02*
Y036891D01*
X028905D01*
X029141D02*
X02922D01*
Y036182D02*
Y036891D01*
X029141Y036182D02*
X02922D01*
X028819Y037278D02*
Y037356D01*
X029527D01*
Y037278D02*
Y037356D01*
Y036963D02*
Y037041D01*
X028819Y036963D02*
X029527D01*
X028819D02*
Y037041D01*
X030067Y036478D02*
Y036556D01*
X029279D02*
X030067D01*
X029279Y036478D02*
Y036556D01*
Y036163D02*
Y036241D01*
Y036163D02*
X030067D01*
Y036241D01*
Y036028D02*
Y036106D01*
X029279D02*
X030067D01*
X029279Y036028D02*
Y036106D01*
Y035713D02*
Y035791D01*
Y035713D02*
X030067D01*
Y035791D01*
X028326Y036632D02*
X028405D01*
X028326D02*
Y037341D01*
X028405D01*
X028641D02*
X02872D01*
Y036632D02*
Y037341D01*
X028641Y036632D02*
X02872D01*
X030417Y037041D02*
X030417Y036963D01*
X029629D02*
X030417D01*
X029629D02*
Y037041D01*
Y037278D02*
Y037356D01*
X030417D01*
X030417Y037278D02*
X030417Y037356D01*
X030476Y036966D02*
X030555D01*
X030476D02*
Y037753D01*
X030555Y037753D01*
X030791D02*
X03087Y037753D01*
Y036966D02*
Y037753D01*
X030791Y036966D02*
X03087D01*
X028341Y039003D02*
X02842D01*
Y038216D02*
Y039003D01*
X028341Y038216D02*
X02842D01*
X028026D02*
X028105D01*
X028026D02*
Y039003D01*
X028105D01*
X027523Y03861D02*
X027923D01*
X027873Y03906D02*
X027923D01*
Y03816D02*
Y03906D01*
X027873Y03816D02*
X027923D01*
X027523D02*
X027573D01*
X027523D02*
Y03906D01*
X027573D01*
X026155Y03832D02*
X026211Y038265D01*
X026155Y03832D02*
X026712Y038877D01*
X026768Y038821D01*
X026935Y038654D02*
X02699Y038599D01*
X026434Y038042D02*
X02699Y038599D01*
X026378Y038098D02*
X026434Y038042D01*
X025423Y03896D02*
X025473Y03896D01*
X025423Y03806D02*
Y03896D01*
Y03806D02*
X025473Y03806D01*
X025773D02*
X025823Y03806D01*
Y03896D01*
X025773Y03896D02*
X025823Y03896D01*
X025423Y03851D02*
X025823D01*
X024747Y03846D02*
X025299D01*
X025223Y03896D02*
X025299D01*
Y03796D02*
Y03896D01*
X025223Y03796D02*
X025299D01*
X024747D02*
X024823D01*
X024747D02*
Y03896D01*
X024823D01*
X02079Y038467D02*
Y038585D01*
X019687D02*
X02079D01*
X019687Y038467D02*
Y038585D01*
Y038034D02*
Y038152D01*
Y038034D02*
X02079D01*
Y038152D01*
X020239Y038034D02*
Y038585D01*
X024097Y03851D02*
X024648D01*
X024097Y037958D02*
X024215D01*
X024097D02*
Y039061D01*
X024215D01*
X02453D02*
X024648D01*
Y037958D02*
Y039061D01*
X02453Y037958D02*
X024648D01*
X021623Y03376D02*
Y03416D01*
X021173Y03411D02*
X021173Y03416D01*
X022073D01*
X022073Y03411D02*
X022073Y03416D01*
X022073Y03381D02*
X022073Y03376D01*
X021173D02*
X022073D01*
X021173Y03381D02*
X021173Y03376D01*
X025073Y033134D02*
Y03321D01*
Y033134D02*
X026073D01*
X026073Y03321D01*
X026073Y033685D02*
X026073Y03361D01*
X025073Y033685D02*
X026073D01*
X025073Y03361D02*
Y033685D01*
X025573Y033134D02*
Y033685D01*
X020747Y03481D02*
X021298D01*
X02118Y035361D02*
X021298D01*
Y034258D02*
Y035361D01*
X02118Y034258D02*
X021298D01*
X020747D02*
X020865D01*
X020747D02*
Y035361D01*
X020865D01*
X018958Y038467D02*
Y038585D01*
X017856D02*
X018958D01*
X017856Y038467D02*
Y038585D01*
Y038034D02*
Y038152D01*
Y038034D02*
X018958D01*
Y038152D01*
X018407Y038034D02*
Y038585D01*
X022174Y033567D02*
Y033685D01*
X021072D02*
X022174D01*
X021072Y033567D02*
Y033685D01*
Y033134D02*
Y033252D01*
Y033134D02*
X022174D01*
Y033252D01*
X021623Y033134D02*
Y033685D01*
X043691Y035242D02*
X043747Y035298D01*
X043134Y035799D02*
X043691Y035242D01*
X043134Y035799D02*
X04319Y035854D01*
X043357Y036021D02*
X043413Y036077D01*
X04397Y03552D01*
X043914Y035465D02*
X04397Y03552D01*
X045755Y036182D02*
X045834D01*
X045755D02*
Y036891D01*
X045834D01*
X04607D02*
X046149D01*
Y036182D02*
Y036891D01*
X04607Y036182D02*
X046149D01*
X045748Y037278D02*
Y037356D01*
X046456D01*
Y037278D02*
Y037356D01*
Y036963D02*
Y037041D01*
X045748Y036963D02*
X046456D01*
X045748D02*
Y037041D01*
X046996Y036478D02*
Y036556D01*
X046208D02*
X046996D01*
X046208Y036478D02*
Y036556D01*
Y036163D02*
Y036241D01*
Y036163D02*
X046996D01*
Y036241D01*
Y036028D02*
Y036106D01*
X046208D02*
X046996D01*
X046208Y036028D02*
Y036106D01*
Y035713D02*
Y035791D01*
Y035713D02*
X046996D01*
Y035791D01*
X045255Y036632D02*
X045334D01*
X045255D02*
Y037341D01*
X045334D01*
X04557D02*
X045649D01*
Y036632D02*
Y037341D01*
X04557Y036632D02*
X045649D01*
X047346Y037041D02*
X047346Y036963D01*
X046558D02*
X047346D01*
X046558D02*
Y037041D01*
Y037278D02*
Y037356D01*
X047346D01*
X047346Y037278D02*
X047346Y037356D01*
X047405Y036966D02*
X047484D01*
X047405D02*
Y037753D01*
X047484Y037753D01*
X04772D02*
X047799Y037753D01*
Y036966D02*
Y037753D01*
X04772Y036966D02*
X047799D01*
X04527Y039003D02*
X045349D01*
Y038216D02*
Y039003D01*
X04527Y038216D02*
X045349D01*
X044955D02*
X045034D01*
X044955D02*
Y039003D01*
X045034D01*
X044452Y03861D02*
X044852D01*
X044802Y03906D02*
X044852D01*
Y03816D02*
Y03906D01*
X044802Y03816D02*
X044852D01*
X044452D02*
X044502D01*
X044452D02*
Y03906D01*
X044502D01*
X043084Y03832D02*
X04314Y038265D01*
X043084Y03832D02*
X043641Y038877D01*
X043697Y038821D01*
X043864Y038654D02*
X04392Y038599D01*
X043363Y038042D02*
X04392Y038599D01*
X043307Y038098D02*
X043363Y038042D01*
X042352Y03896D02*
X042402Y03896D01*
X042352Y03806D02*
Y03896D01*
Y03806D02*
X042402Y03806D01*
X042702D02*
X042752Y03806D01*
Y03896D01*
X042702Y03896D02*
X042752Y03896D01*
X042352Y03851D02*
X042752D01*
X041676Y03846D02*
X042228D01*
X042152Y03896D02*
X042228D01*
Y03796D02*
Y03896D01*
X042152Y03796D02*
X042228D01*
X041676D02*
X041752D01*
X041676D02*
Y03896D01*
X041752D01*
X037719Y038467D02*
Y038585D01*
X036617D02*
X037719D01*
X036617Y038467D02*
Y038585D01*
Y038034D02*
Y038152D01*
Y038034D02*
X037719D01*
Y038152D01*
X037168Y038034D02*
Y038585D01*
X041026Y03851D02*
X041578D01*
X041026Y037958D02*
X041145D01*
X041026D02*
Y039061D01*
X041145D01*
X04146D02*
X041578D01*
Y037958D02*
Y039061D01*
X04146Y037958D02*
X041578D01*
X038552Y03376D02*
Y03416D01*
X038102Y03411D02*
X038102Y03416D01*
X039002D01*
X039002Y03411D02*
X039002Y03416D01*
X039002Y03381D02*
X039002Y03376D01*
X038102D02*
X039002D01*
X038102Y03381D02*
X038102Y03376D01*
X042002Y033134D02*
Y03321D01*
Y033134D02*
X043002D01*
X043002Y03321D01*
X043002Y033685D02*
X043002Y03361D01*
X042002Y033685D02*
X043002D01*
X042002Y03361D02*
Y033685D01*
X042502Y033134D02*
Y033685D01*
X037676Y03481D02*
X038228D01*
X03811Y035361D02*
X038228D01*
Y034258D02*
Y035361D01*
X03811Y034258D02*
X038228D01*
X037676D02*
X037795D01*
X037676D02*
Y035361D01*
X037795D01*
X035887Y038467D02*
Y038585D01*
X034785D02*
X035887D01*
X034785Y038467D02*
Y038585D01*
Y038034D02*
Y038152D01*
Y038034D02*
X035887D01*
Y038152D01*
X035336Y038034D02*
Y038585D01*
X039103Y033567D02*
Y033685D01*
X038001D02*
X039103D01*
X038001Y033567D02*
Y033685D01*
Y033134D02*
Y033252D01*
Y033134D02*
X039103D01*
Y033252D01*
X038552Y033134D02*
Y033685D01*
X026762Y041738D02*
X026818Y041794D01*
X026205Y042295D02*
X026762Y041738D01*
X026205Y042295D02*
X026261Y04235D01*
X026428Y042517D02*
X026484Y042573D01*
X02704Y042016D01*
X026985Y041961D02*
X02704Y042016D01*
X028826Y042678D02*
X028905D01*
X028826D02*
Y043387D01*
X028905D01*
X029141D02*
X02922D01*
Y042678D02*
Y043387D01*
X029141Y042678D02*
X02922D01*
X028819Y043774D02*
Y043852D01*
X029527D01*
Y043774D02*
Y043852D01*
Y043459D02*
Y043537D01*
X028819Y043459D02*
X029527D01*
X028819D02*
Y043537D01*
X030067Y042974D02*
Y043052D01*
X029279D02*
X030067D01*
X029279Y042974D02*
Y043052D01*
Y042659D02*
Y042737D01*
Y042659D02*
X030067D01*
Y042737D01*
Y042524D02*
Y042602D01*
X029279D02*
X030067D01*
X029279Y042524D02*
Y042602D01*
Y042209D02*
Y042287D01*
Y042209D02*
X030067D01*
Y042287D01*
X028326Y043128D02*
X028405D01*
X028326D02*
Y043837D01*
X028405D01*
X028641D02*
X02872D01*
Y043128D02*
Y043837D01*
X028641Y043128D02*
X02872D01*
X030417Y043537D02*
X030417Y043459D01*
X029629D02*
X030417D01*
X029629D02*
Y043537D01*
Y043774D02*
Y043852D01*
X030417D01*
X030417Y043774D02*
X030417Y043852D01*
X030476Y043462D02*
X030555D01*
X030476D02*
Y044249D01*
X030555Y044249D01*
X030791D02*
X03087Y044249D01*
Y043462D02*
Y044249D01*
X030791Y043462D02*
X03087D01*
X028341Y045499D02*
X02842D01*
Y044712D02*
Y045499D01*
X028341Y044712D02*
X02842D01*
X028026D02*
X028105D01*
X028026D02*
Y045499D01*
X028105D01*
X027523Y045106D02*
X027923D01*
X027873Y045556D02*
X027923D01*
Y044656D02*
Y045556D01*
X027873Y044656D02*
X027923D01*
X027523D02*
X027573D01*
X027523D02*
Y045556D01*
X027573D01*
X026155Y044816D02*
X026211Y044761D01*
X026155Y044816D02*
X026712Y045373D01*
X026768Y045317D01*
X026935Y04515D02*
X02699Y045095D01*
X026434Y044538D02*
X02699Y045095D01*
X026378Y044594D02*
X026434Y044538D01*
X025423Y045456D02*
X025473Y045456D01*
X025423Y044556D02*
Y045456D01*
Y044556D02*
X025473Y044556D01*
X025773D02*
X025823Y044556D01*
Y045456D01*
X025773Y045456D02*
X025823Y045456D01*
X025423Y045006D02*
X025823D01*
X024747Y044956D02*
X025299D01*
X025223Y045456D02*
X025299D01*
Y044456D02*
Y045456D01*
X025223Y044456D02*
X025299D01*
X024747D02*
X024823D01*
X024747D02*
Y045456D01*
X024823D01*
X02079Y044963D02*
Y045081D01*
X019687D02*
X02079D01*
X019687Y044963D02*
Y045081D01*
Y04453D02*
Y044648D01*
Y04453D02*
X02079D01*
Y044648D01*
X020239Y04453D02*
Y045081D01*
X024097Y045006D02*
X024648D01*
X024097Y044454D02*
X024215D01*
X024097D02*
Y045557D01*
X024215D01*
X02453D02*
X024648D01*
Y044454D02*
Y045557D01*
X02453Y044454D02*
X024648D01*
X021623Y040256D02*
Y040656D01*
X021173Y040606D02*
X021173Y040656D01*
X022073D01*
X022073Y040606D02*
X022073Y040656D01*
X022073Y040306D02*
X022073Y040256D01*
X021173D02*
X022073D01*
X021173Y040306D02*
X021173Y040256D01*
X025073Y03963D02*
Y039706D01*
Y03963D02*
X026073D01*
X026073Y039706D01*
X026073Y040181D02*
X026073Y040106D01*
X025073Y040181D02*
X026073D01*
X025073Y040106D02*
Y040181D01*
X025573Y03963D02*
Y040181D01*
X020747Y041306D02*
X021298D01*
X02118Y041857D02*
X021298D01*
Y040754D02*
Y041857D01*
X02118Y040754D02*
X021298D01*
X020747D02*
X020865D01*
X020747D02*
Y041857D01*
X020865D01*
X018958Y044963D02*
Y045081D01*
X017856D02*
X018958D01*
X017856Y044963D02*
Y045081D01*
Y04453D02*
Y044648D01*
Y04453D02*
X018958D01*
Y044648D01*
X018407Y04453D02*
Y045081D01*
X022174Y040063D02*
Y040181D01*
X021072D02*
X022174D01*
X021072Y040063D02*
Y040181D01*
Y03963D02*
Y039748D01*
Y03963D02*
X022174D01*
Y039748D01*
X021623Y03963D02*
Y040181D01*
X043691Y041738D02*
X043747Y041794D01*
X043134Y042295D02*
X043691Y041738D01*
X043134Y042295D02*
X04319Y04235D01*
X043357Y042517D02*
X043413Y042573D01*
X04397Y042016D01*
X043914Y041961D02*
X04397Y042016D01*
X045755Y042678D02*
X045834D01*
X045755D02*
Y043387D01*
X045834D01*
X04607D02*
X046149D01*
Y042678D02*
Y043387D01*
X04607Y042678D02*
X046149D01*
X045748Y043774D02*
Y043852D01*
X046456D01*
Y043774D02*
Y043852D01*
Y043459D02*
Y043537D01*
X045748Y043459D02*
X046456D01*
X045748D02*
Y043537D01*
X046996Y042974D02*
Y043052D01*
X046208D02*
X046996D01*
X046208Y042974D02*
Y043052D01*
Y042659D02*
Y042737D01*
Y042659D02*
X046996D01*
Y042737D01*
Y042524D02*
Y042602D01*
X046208D02*
X046996D01*
X046208Y042524D02*
Y042602D01*
Y042209D02*
Y042287D01*
Y042209D02*
X046996D01*
Y042287D01*
X045255Y043128D02*
X045334D01*
X045255D02*
Y043837D01*
X045334D01*
X04557D02*
X045649D01*
Y043128D02*
Y043837D01*
X04557Y043128D02*
X045649D01*
X047346Y043537D02*
X047346Y043459D01*
X046558D02*
X047346D01*
X046558D02*
Y043537D01*
Y043774D02*
Y043852D01*
X047346D01*
X047346Y043774D02*
X047346Y043852D01*
X047405Y043462D02*
X047484D01*
X047405D02*
Y044249D01*
X047484Y044249D01*
X04772D02*
X047799Y044249D01*
Y043462D02*
Y044249D01*
X04772Y043462D02*
X047799D01*
X04527Y045499D02*
X045349D01*
Y044712D02*
Y045499D01*
X04527Y044712D02*
X045349D01*
X044955D02*
X045034D01*
X044955D02*
Y045499D01*
X045034D01*
X044452Y045106D02*
X044852D01*
X044802Y045556D02*
X044852D01*
Y044656D02*
Y045556D01*
X044802Y044656D02*
X044852D01*
X044452D02*
X044502D01*
X044452D02*
Y045556D01*
X044502D01*
X043084Y044816D02*
X04314Y044761D01*
X043084Y044816D02*
X043641Y045373D01*
X043697Y045317D01*
X043864Y04515D02*
X04392Y045095D01*
X043363Y044538D02*
X04392Y045095D01*
X043307Y044594D02*
X043363Y044538D01*
X042352Y045456D02*
X042402Y045456D01*
X042352Y044556D02*
Y045456D01*
Y044556D02*
X042402Y044556D01*
X042702D02*
X042752Y044556D01*
Y045456D01*
X042702Y045456D02*
X042752Y045456D01*
X042352Y045006D02*
X042752D01*
X041676Y044956D02*
X042228D01*
X042152Y045456D02*
X042228D01*
Y044456D02*
Y045456D01*
X042152Y044456D02*
X042228D01*
X041676D02*
X041752D01*
X041676D02*
Y045456D01*
X041752D01*
X037719Y044963D02*
Y045081D01*
X036617D02*
X037719D01*
X036617Y044963D02*
Y045081D01*
Y04453D02*
Y044648D01*
Y04453D02*
X037719D01*
Y044648D01*
X037168Y04453D02*
Y045081D01*
X041026Y045006D02*
X041578D01*
X041026Y044454D02*
X041145D01*
X041026D02*
Y045557D01*
X041145D01*
X04146D02*
X041578D01*
Y044454D02*
Y045557D01*
X04146Y044454D02*
X041578D01*
X038552Y040256D02*
Y040656D01*
X038102Y040606D02*
X038102Y040656D01*
X039002D01*
X039002Y040606D02*
X039002Y040656D01*
X039002Y040306D02*
X039002Y040256D01*
X038102D02*
X039002D01*
X038102Y040306D02*
X038102Y040256D01*
X042002Y03963D02*
Y039706D01*
Y03963D02*
X043002D01*
X043002Y039706D01*
X043002Y040181D02*
X043002Y040106D01*
X042002Y040181D02*
X043002D01*
X042002Y040106D02*
Y040181D01*
X042502Y03963D02*
Y040181D01*
X037676Y041306D02*
X038228D01*
X03811Y041857D02*
X038228D01*
Y040754D02*
Y041857D01*
X03811Y040754D02*
X038228D01*
X037676D02*
X037795D01*
X037676D02*
Y041857D01*
X037795D01*
X035887Y044963D02*
Y045081D01*
X034785D02*
X035887D01*
X034785Y044963D02*
Y045081D01*
Y04453D02*
Y044648D01*
Y04453D02*
X035887D01*
Y044648D01*
X035336Y04453D02*
Y045081D01*
X039103Y040063D02*
Y040181D01*
X038001D02*
X039103D01*
X038001Y040063D02*
Y040181D01*
Y03963D02*
Y039748D01*
Y03963D02*
X039103D01*
Y039748D01*
X038552Y03963D02*
Y040181D01*
D55*
X028153Y015165D02*
Y015677D01*
X026893Y015165D02*
Y015677D01*
X021586Y018034D02*
X02316D01*
X021586Y019609D02*
X02316D01*
Y018034D02*
Y019609D01*
X021586Y018034D02*
Y019609D01*
X026479Y018203D02*
Y018341D01*
Y016766D02*
Y016904D01*
X028054Y018203D02*
Y018341D01*
Y016766D02*
Y016904D01*
X026479Y018341D02*
X026617D01*
X026479Y016766D02*
X026617D01*
X027916Y018341D02*
X028054D01*
X027916Y016766D02*
X028054D01*
X019903Y017187D02*
X020543D01*
X019903Y015955D02*
X020543D01*
X045082Y015165D02*
Y015677D01*
X043822Y015165D02*
Y015677D01*
X038515Y018034D02*
X040089D01*
X038515Y019609D02*
X040089D01*
Y018034D02*
Y019609D01*
X038515Y018034D02*
Y019609D01*
X043408Y018203D02*
Y018341D01*
Y016766D02*
Y016904D01*
X044983Y018203D02*
Y018341D01*
Y016766D02*
Y016904D01*
X043408Y018341D02*
X043546D01*
X043408Y016766D02*
X043546D01*
X044845Y018341D02*
X044983D01*
X044845Y016766D02*
X044983D01*
X036832Y017187D02*
X037472D01*
X036832Y015955D02*
X037472D01*
X028153Y021661D02*
Y022173D01*
X026893Y021661D02*
Y022173D01*
X021586Y02453D02*
X02316D01*
X021586Y026105D02*
X02316D01*
Y02453D02*
Y026105D01*
X021586Y02453D02*
Y026105D01*
X026479Y024699D02*
Y024837D01*
Y023262D02*
Y0234D01*
X028054Y024699D02*
Y024837D01*
Y023262D02*
Y0234D01*
X026479Y024837D02*
X026617D01*
X026479Y023262D02*
X026617D01*
X027916Y024837D02*
X028054D01*
X027916Y023262D02*
X028054D01*
X019903Y023684D02*
X020543D01*
X019903Y022451D02*
X020543D01*
X045082Y021661D02*
Y022173D01*
X043822Y021661D02*
Y022173D01*
X038515Y02453D02*
X040089D01*
X038515Y026105D02*
X040089D01*
Y02453D02*
Y026105D01*
X038515Y02453D02*
Y026105D01*
X043408Y024699D02*
Y024837D01*
Y023262D02*
Y0234D01*
X044983Y024699D02*
Y024837D01*
Y023262D02*
Y0234D01*
X043408Y024837D02*
X043546D01*
X043408Y023262D02*
X043546D01*
X044845Y024837D02*
X044983D01*
X044845Y023262D02*
X044983D01*
X036832Y023684D02*
X037472D01*
X036832Y022451D02*
X037472D01*
X028153Y028158D02*
Y028669D01*
X026893Y028158D02*
Y028669D01*
X021586Y031026D02*
X02316D01*
X021586Y032601D02*
X02316D01*
Y031026D02*
Y032601D01*
X021586Y031026D02*
Y032601D01*
X026479Y031195D02*
Y031333D01*
Y029758D02*
Y029896D01*
X028054Y031195D02*
Y031333D01*
Y029758D02*
Y029896D01*
X026479Y031333D02*
X026617D01*
X026479Y029758D02*
X026617D01*
X027916Y031333D02*
X028054D01*
X027916Y029758D02*
X028054D01*
X019903Y03018D02*
X020543D01*
X019903Y028947D02*
X020543D01*
X045082Y028158D02*
Y028669D01*
X043822Y028158D02*
Y028669D01*
X038515Y031026D02*
X040089D01*
X038515Y032601D02*
X040089D01*
Y031026D02*
Y032601D01*
X038515Y031026D02*
Y032601D01*
X043408Y031195D02*
Y031333D01*
Y029758D02*
Y029896D01*
X044983Y031195D02*
Y031333D01*
Y029758D02*
Y029896D01*
X043408Y031333D02*
X043546D01*
X043408Y029758D02*
X043546D01*
X044845Y031333D02*
X044983D01*
X044845Y029758D02*
X044983D01*
X036832Y03018D02*
X037472D01*
X036832Y028947D02*
X037472D01*
X028153Y034654D02*
Y035165D01*
X026893Y034654D02*
Y035165D01*
X021586Y037522D02*
X02316D01*
X021586Y039097D02*
X02316D01*
Y037522D02*
Y039097D01*
X021586Y037522D02*
Y039097D01*
X026479Y037691D02*
Y037829D01*
Y036254D02*
Y036392D01*
X028054Y037691D02*
Y037829D01*
Y036254D02*
Y036392D01*
X026479Y037829D02*
X026617D01*
X026479Y036254D02*
X026617D01*
X027916Y037829D02*
X028054D01*
X027916Y036254D02*
X028054D01*
X019903Y036676D02*
X020543D01*
X019903Y035443D02*
X020543D01*
X045082Y034654D02*
Y035165D01*
X043822Y034654D02*
Y035165D01*
X038515Y037522D02*
X040089D01*
X038515Y039097D02*
X040089D01*
Y037522D02*
Y039097D01*
X038515Y037522D02*
Y039097D01*
X043408Y037691D02*
Y037829D01*
Y036254D02*
Y036392D01*
X044983Y037691D02*
Y037829D01*
Y036254D02*
Y036392D01*
X043408Y037829D02*
X043546D01*
X043408Y036254D02*
X043546D01*
X044845Y037829D02*
X044983D01*
X044845Y036254D02*
X044983D01*
X036832Y036676D02*
X037472D01*
X036832Y035443D02*
X037472D01*
X028153Y04115D02*
Y041661D01*
X026893Y04115D02*
Y041661D01*
X021586Y044018D02*
X02316D01*
X021586Y045593D02*
X02316D01*
Y044018D02*
Y045593D01*
X021586Y044018D02*
Y045593D01*
X026479Y044187D02*
Y044325D01*
Y04275D02*
Y042888D01*
X028054Y044187D02*
Y044325D01*
Y04275D02*
Y042888D01*
X026479Y044325D02*
X026617D01*
X026479Y04275D02*
X026617D01*
X027916Y044325D02*
X028054D01*
X027916Y04275D02*
X028054D01*
X019903Y043172D02*
X020543D01*
X019903Y041939D02*
X020543D01*
X045082Y04115D02*
Y041661D01*
X043822Y04115D02*
Y041661D01*
X038515Y044018D02*
X040089D01*
X038515Y045593D02*
X040089D01*
Y044018D02*
Y045593D01*
X038515Y044018D02*
Y045593D01*
X043408Y044187D02*
Y044325D01*
Y04275D02*
Y042888D01*
X044983Y044187D02*
Y044325D01*
Y04275D02*
Y042888D01*
X043408Y044325D02*
X043546D01*
X043408Y04275D02*
X043546D01*
X044845Y044325D02*
X044983D01*
X044845Y04275D02*
X044983D01*
X036832Y043172D02*
X037472D01*
X036832Y041939D02*
X037472D01*
D56*
X023431Y019046D02*
X023348D01*
X02339D01*
Y018838D01*
X023348Y018796D01*
X023306D01*
X023265Y018838D01*
X023515Y019005D02*
X023556Y019046D01*
X02364D01*
X023681Y019005D01*
Y018963D01*
X02364Y018921D01*
X023598D01*
X02364D01*
X023681Y01888D01*
Y018838D01*
X02364Y018796D01*
X023556D01*
X023515Y018838D01*
X032073Y018046D02*
X03199D01*
X032031D01*
Y017838D01*
X03199Y017796D01*
X031948D01*
X031906Y017838D01*
X032156Y017796D02*
X03224D01*
X032198D01*
Y018046D01*
X032156Y018005D01*
X024865Y018046D02*
Y018296D01*
X02499D01*
X025031Y018255D01*
Y018171D01*
X02499Y01813D01*
X024865D01*
X024948D02*
X025031Y018046D01*
X025281Y018296D02*
X025115D01*
Y018171D01*
X025198Y018213D01*
X02524D01*
X025281Y018171D01*
Y018088D01*
X02524Y018046D01*
X025156D01*
X025115Y018088D01*
X020681Y014005D02*
X02064Y014046D01*
X020556D01*
X020515Y014005D01*
Y013838D01*
X020556Y013796D01*
X02064D01*
X020681Y013838D01*
X020765Y014005D02*
X020806Y014046D01*
X02089D01*
X020931Y014005D01*
Y013963D01*
X02089Y013921D01*
X020931Y01388D01*
Y013838D01*
X02089Y013796D01*
X020806D01*
X020765Y013838D01*
Y01388D01*
X020806Y013921D01*
X020765Y013963D01*
Y014005D01*
X020806Y013921D02*
X02089D01*
X024281Y018255D02*
X02424Y018296D01*
X024156D01*
X024115Y018255D01*
Y018088D01*
X024156Y018046D01*
X02424D01*
X024281Y018088D01*
X024365Y018296D02*
X024531D01*
Y018255D01*
X024365Y018088D01*
Y018046D01*
X020381Y015055D02*
X02034Y015096D01*
X020256D01*
X020215Y015055D01*
Y014888D01*
X020256Y014846D01*
X02034D01*
X020381Y014888D01*
X020631Y015096D02*
X020548Y015055D01*
X020465Y014971D01*
Y014888D01*
X020506Y014846D01*
X02059D01*
X020631Y014888D01*
Y01493D01*
X02059Y014971D01*
X020465D01*
X027365Y016196D02*
Y016155D01*
X027448Y016071D01*
X027531Y016155D01*
Y016196D01*
X027448Y016071D02*
Y015946D01*
X027781D02*
X027615D01*
X027781Y016113D01*
Y016155D01*
X02774Y016196D01*
X027656D01*
X027615Y016155D01*
X027406Y016546D02*
Y016338D01*
X027448Y016296D01*
X027531D01*
X027573Y016338D01*
Y016546D01*
X027656Y016296D02*
X02774D01*
X027698D01*
Y016546D01*
X027656Y016505D01*
X026965Y018696D02*
Y018946D01*
X02709D01*
X027131Y018905D01*
Y018821D01*
X02709Y01878D01*
X026965D01*
X027048D02*
X027131Y018696D01*
X027215Y018905D02*
X027256Y018946D01*
X02734D01*
X027381Y018905D01*
Y018863D01*
X02734Y018821D01*
X027298D01*
X02734D01*
X027381Y01878D01*
Y018738D01*
X02734Y018696D01*
X027256D01*
X027215Y018738D01*
X028865Y018546D02*
Y018296D01*
X029031D01*
X029115Y018505D02*
X029156Y018546D01*
X02924D01*
X029281Y018505D01*
Y018463D01*
X02924Y018421D01*
X029198D01*
X02924D01*
X029281Y01838D01*
Y018338D01*
X02924Y018296D01*
X029156D01*
X029115Y018338D01*
X028315Y018546D02*
Y018296D01*
X028481D01*
X028731D02*
X028565D01*
X028731Y018463D01*
Y018505D01*
X02869Y018546D01*
X028606D01*
X028565Y018505D01*
X028356Y016996D02*
Y016746D01*
X028523D01*
X028606D02*
X02869D01*
X028648D01*
Y016996D01*
X028606Y016955D01*
X028677Y019405D02*
X028635Y019446D01*
X028552D01*
X028511Y019405D01*
Y019238D01*
X028552Y019196D01*
X028635D01*
X028677Y019238D01*
X02876Y019196D02*
X028844D01*
X028802D01*
Y019446D01*
X02876Y019405D01*
X029135Y019196D02*
X028969D01*
X029135Y019363D01*
Y019405D01*
X029094Y019446D01*
X02901D01*
X028969Y019405D01*
X026069Y015705D02*
X026027Y015746D01*
X025944D01*
X025902Y015705D01*
Y015538D01*
X025944Y015496D01*
X026027D01*
X026069Y015538D01*
X026152Y015496D02*
X026235D01*
X026194D01*
Y015746D01*
X026152Y015705D01*
X02636Y015496D02*
X026444D01*
X026402D01*
Y015746D01*
X02636Y015705D01*
X030631Y018605D02*
X03059Y018646D01*
X030506D01*
X030465Y018605D01*
Y018438D01*
X030506Y018396D01*
X03059D01*
X030631Y018438D01*
X030881Y018646D02*
X030715D01*
Y018521D01*
X030798Y018563D01*
X03084D01*
X030881Y018521D01*
Y018438D01*
X03084Y018396D01*
X030756D01*
X030715Y018438D01*
X029931Y018505D02*
X02989Y018546D01*
X029806D01*
X029765Y018505D01*
Y018338D01*
X029806Y018296D01*
X02989D01*
X029931Y018338D01*
X03014Y018296D02*
Y018546D01*
X030015Y018421D01*
X030181D01*
X030331Y017055D02*
X03029Y017096D01*
X030206D01*
X030165Y017055D01*
Y016888D01*
X030206Y016846D01*
X03029D01*
X030331Y016888D01*
X030415Y017055D02*
X030456Y017096D01*
X03054D01*
X030581Y017055D01*
Y017013D01*
X03054Y016971D01*
X030498D01*
X03054D01*
X030581Y01693D01*
Y016888D01*
X03054Y016846D01*
X030456D01*
X030415Y016888D01*
X030331Y016455D02*
X03029Y016496D01*
X030206D01*
X030165Y016455D01*
Y016288D01*
X030206Y016246D01*
X03029D01*
X030331Y016288D01*
X030581Y016246D02*
X030415D01*
X030581Y016413D01*
Y016455D01*
X03054Y016496D01*
X030456D01*
X030415Y016455D01*
X026273Y019505D02*
X026231Y019546D01*
X026148D01*
X026106Y019505D01*
Y019338D01*
X026148Y019296D01*
X026231D01*
X026273Y019338D01*
X026356Y019296D02*
X02644D01*
X026398D01*
Y019546D01*
X026356Y019505D01*
X019515Y015796D02*
Y015588D01*
X019556Y015546D01*
X01964D01*
X019681Y015588D01*
Y015796D01*
X019931Y015546D02*
X019765D01*
X019931Y015713D01*
Y015755D01*
X01989Y015796D01*
X019806D01*
X019765Y015755D01*
X025415Y018046D02*
Y018296D01*
X02554D01*
X025581Y018255D01*
Y018171D01*
X02554Y01813D01*
X025415D01*
X025498D02*
X025581Y018046D01*
X02579D02*
Y018296D01*
X025665Y018171D01*
X025831D01*
X023402Y018296D02*
X023485D01*
X023444D01*
Y018046D01*
X023402D01*
X023485D01*
X023777Y018255D02*
X023735Y018296D01*
X023652D01*
X02361Y018255D01*
Y018088D01*
X023652Y018046D01*
X023735D01*
X023777Y018088D01*
X02386Y018046D02*
X023944D01*
X023902D01*
Y018296D01*
X02386Y018255D01*
X026306Y013796D02*
Y014046D01*
X026431D01*
X026473Y014005D01*
Y013921D01*
X026431Y01388D01*
X026306D01*
X02639D02*
X026473Y013796D01*
X026556D02*
X02664D01*
X026598D01*
Y014046D01*
X026556Y014005D01*
X020515Y014246D02*
Y014496D01*
X02064D01*
X020681Y014455D01*
Y014371D01*
X02064Y01433D01*
X020515D01*
X020598D02*
X020681Y014246D01*
X020931D02*
X020765D01*
X020931Y014413D01*
Y014455D01*
X02089Y014496D01*
X020806D01*
X020765Y014455D01*
X020031Y019455D02*
X01999Y019496D01*
X019906D01*
X019865Y019455D01*
Y019288D01*
X019906Y019246D01*
X01999D01*
X020031Y019288D01*
X020115D02*
X020156Y019246D01*
X02024D01*
X020281Y019288D01*
Y019455D01*
X02024Y019496D01*
X020156D01*
X020115Y019455D01*
Y019413D01*
X020156Y019371D01*
X020281D01*
X018327Y019455D02*
X018285Y019496D01*
X018202D01*
X018161Y019455D01*
Y019288D01*
X018202Y019246D01*
X018285D01*
X018327Y019288D01*
X01841Y019246D02*
X018494D01*
X018452D01*
Y019496D01*
X01841Y019455D01*
X018744Y019246D02*
Y019496D01*
X018619Y019371D01*
X018785D01*
X04036Y019046D02*
X040277D01*
X040319D01*
Y018838D01*
X040277Y018796D01*
X040235D01*
X040194Y018838D01*
X040444Y019005D02*
X040485Y019046D01*
X040569D01*
X04061Y019005D01*
Y018963D01*
X040569Y018921D01*
X040527D01*
X040569D01*
X04061Y01888D01*
Y018838D01*
X040569Y018796D01*
X040485D01*
X040444Y018838D01*
X049002Y018046D02*
X048919D01*
X04896D01*
Y017838D01*
X048919Y017796D01*
X048877D01*
X048835Y017838D01*
X049085Y017796D02*
X049169D01*
X049127D01*
Y018046D01*
X049085Y018005D01*
X041794Y018046D02*
Y018296D01*
X041919D01*
X04196Y018255D01*
Y018171D01*
X041919Y01813D01*
X041794D01*
X041877D02*
X04196Y018046D01*
X04221Y018296D02*
X042044D01*
Y018171D01*
X042127Y018213D01*
X042169D01*
X04221Y018171D01*
Y018088D01*
X042169Y018046D01*
X042085D01*
X042044Y018088D01*
X03761Y014005D02*
X037569Y014046D01*
X037485D01*
X037444Y014005D01*
Y013838D01*
X037485Y013796D01*
X037569D01*
X03761Y013838D01*
X037694Y014005D02*
X037735Y014046D01*
X037819D01*
X03786Y014005D01*
Y013963D01*
X037819Y013921D01*
X03786Y01388D01*
Y013838D01*
X037819Y013796D01*
X037735D01*
X037694Y013838D01*
Y01388D01*
X037735Y013921D01*
X037694Y013963D01*
Y014005D01*
X037735Y013921D02*
X037819D01*
X04121Y018255D02*
X041169Y018296D01*
X041085D01*
X041044Y018255D01*
Y018088D01*
X041085Y018046D01*
X041169D01*
X04121Y018088D01*
X041294Y018296D02*
X04146D01*
Y018255D01*
X041294Y018088D01*
Y018046D01*
X03731Y015055D02*
X037269Y015096D01*
X037185D01*
X037144Y015055D01*
Y014888D01*
X037185Y014846D01*
X037269D01*
X03731Y014888D01*
X03756Y015096D02*
X037477Y015055D01*
X037394Y014971D01*
Y014888D01*
X037435Y014846D01*
X037519D01*
X03756Y014888D01*
Y01493D01*
X037519Y014971D01*
X037394D01*
X044294Y016196D02*
Y016155D01*
X044377Y016071D01*
X04446Y016155D01*
Y016196D01*
X044377Y016071D02*
Y015946D01*
X04471D02*
X044544D01*
X04471Y016113D01*
Y016155D01*
X044669Y016196D01*
X044585D01*
X044544Y016155D01*
X044335Y016546D02*
Y016338D01*
X044377Y016296D01*
X04446D01*
X044502Y016338D01*
Y016546D01*
X044585Y016296D02*
X044669D01*
X044627D01*
Y016546D01*
X044585Y016505D01*
X043894Y018696D02*
Y018946D01*
X044019D01*
X04406Y018905D01*
Y018821D01*
X044019Y01878D01*
X043894D01*
X043977D02*
X04406Y018696D01*
X044144Y018905D02*
X044185Y018946D01*
X044269D01*
X04431Y018905D01*
Y018863D01*
X044269Y018821D01*
X044227D01*
X044269D01*
X04431Y01878D01*
Y018738D01*
X044269Y018696D01*
X044185D01*
X044144Y018738D01*
X045794Y018546D02*
Y018296D01*
X04596D01*
X046044Y018505D02*
X046085Y018546D01*
X046169D01*
X04621Y018505D01*
Y018463D01*
X046169Y018421D01*
X046127D01*
X046169D01*
X04621Y01838D01*
Y018338D01*
X046169Y018296D01*
X046085D01*
X046044Y018338D01*
X045244Y018546D02*
Y018296D01*
X04541D01*
X04566D02*
X045494D01*
X04566Y018463D01*
Y018505D01*
X045619Y018546D01*
X045535D01*
X045494Y018505D01*
X045285Y016996D02*
Y016746D01*
X045452D01*
X045535D02*
X045619D01*
X045577D01*
Y016996D01*
X045535Y016955D01*
X045606Y019405D02*
X045565Y019446D01*
X045481D01*
X04544Y019405D01*
Y019238D01*
X045481Y019196D01*
X045565D01*
X045606Y019238D01*
X04569Y019196D02*
X045773D01*
X045731D01*
Y019446D01*
X04569Y019405D01*
X046064Y019196D02*
X045898D01*
X046064Y019363D01*
Y019405D01*
X046023Y019446D01*
X045939D01*
X045898Y019405D01*
X042998Y015705D02*
X042956Y015746D01*
X042873D01*
X042831Y015705D01*
Y015538D01*
X042873Y015496D01*
X042956D01*
X042998Y015538D01*
X043081Y015496D02*
X043165D01*
X043123D01*
Y015746D01*
X043081Y015705D01*
X043289Y015496D02*
X043373D01*
X043331D01*
Y015746D01*
X043289Y015705D01*
X04756Y018605D02*
X047519Y018646D01*
X047435D01*
X047394Y018605D01*
Y018438D01*
X047435Y018396D01*
X047519D01*
X04756Y018438D01*
X04781Y018646D02*
X047644D01*
Y018521D01*
X047727Y018563D01*
X047769D01*
X04781Y018521D01*
Y018438D01*
X047769Y018396D01*
X047685D01*
X047644Y018438D01*
X04686Y018505D02*
X046819Y018546D01*
X046735D01*
X046694Y018505D01*
Y018338D01*
X046735Y018296D01*
X046819D01*
X04686Y018338D01*
X047069Y018296D02*
Y018546D01*
X046944Y018421D01*
X04711D01*
X04726Y017055D02*
X047219Y017096D01*
X047135D01*
X047094Y017055D01*
Y016888D01*
X047135Y016846D01*
X047219D01*
X04726Y016888D01*
X047344Y017055D02*
X047385Y017096D01*
X047469D01*
X04751Y017055D01*
Y017013D01*
X047469Y016971D01*
X047427D01*
X047469D01*
X04751Y01693D01*
Y016888D01*
X047469Y016846D01*
X047385D01*
X047344Y016888D01*
X04726Y016455D02*
X047219Y016496D01*
X047135D01*
X047094Y016455D01*
Y016288D01*
X047135Y016246D01*
X047219D01*
X04726Y016288D01*
X04751Y016246D02*
X047344D01*
X04751Y016413D01*
Y016455D01*
X047469Y016496D01*
X047385D01*
X047344Y016455D01*
X043202Y019505D02*
X04316Y019546D01*
X043077D01*
X043035Y019505D01*
Y019338D01*
X043077Y019296D01*
X04316D01*
X043202Y019338D01*
X043285Y019296D02*
X043369D01*
X043327D01*
Y019546D01*
X043285Y019505D01*
X036444Y015796D02*
Y015588D01*
X036485Y015546D01*
X036569D01*
X03661Y015588D01*
Y015796D01*
X03686Y015546D02*
X036694D01*
X03686Y015713D01*
Y015755D01*
X036819Y015796D01*
X036735D01*
X036694Y015755D01*
X042344Y018046D02*
Y018296D01*
X042469D01*
X04251Y018255D01*
Y018171D01*
X042469Y01813D01*
X042344D01*
X042427D02*
X04251Y018046D01*
X042719D02*
Y018296D01*
X042594Y018171D01*
X04276D01*
X040331Y018296D02*
X040415D01*
X040373D01*
Y018046D01*
X040331D01*
X040415D01*
X040706Y018255D02*
X040665Y018296D01*
X040581D01*
X04054Y018255D01*
Y018088D01*
X040581Y018046D01*
X040665D01*
X040706Y018088D01*
X040789Y018046D02*
X040873D01*
X040831D01*
Y018296D01*
X040789Y018255D01*
X043235Y013796D02*
Y014046D01*
X04336D01*
X043402Y014005D01*
Y013921D01*
X04336Y01388D01*
X043235D01*
X043319D02*
X043402Y013796D01*
X043485D02*
X043569D01*
X043527D01*
Y014046D01*
X043485Y014005D01*
X037444Y014246D02*
Y014496D01*
X037569D01*
X03761Y014455D01*
Y014371D01*
X037569Y01433D01*
X037444D01*
X037527D02*
X03761Y014246D01*
X03786D02*
X037694D01*
X03786Y014413D01*
Y014455D01*
X037819Y014496D01*
X037735D01*
X037694Y014455D01*
X03696Y019455D02*
X036919Y019496D01*
X036835D01*
X036794Y019455D01*
Y019288D01*
X036835Y019246D01*
X036919D01*
X03696Y019288D01*
X037044D02*
X037085Y019246D01*
X037169D01*
X03721Y019288D01*
Y019455D01*
X037169Y019496D01*
X037085D01*
X037044Y019455D01*
Y019413D01*
X037085Y019371D01*
X03721D01*
X035256Y019455D02*
X035215Y019496D01*
X035131D01*
X03509Y019455D01*
Y019288D01*
X035131Y019246D01*
X035215D01*
X035256Y019288D01*
X03534Y019246D02*
X035423D01*
X035381D01*
Y019496D01*
X03534Y019455D01*
X035673Y019246D02*
Y019496D01*
X035548Y019371D01*
X035714D01*
X023431Y025542D02*
X023348D01*
X02339D01*
Y025334D01*
X023348Y025292D01*
X023306D01*
X023265Y025334D01*
X023515Y025501D02*
X023556Y025542D01*
X02364D01*
X023681Y025501D01*
Y025459D01*
X02364Y025417D01*
X023598D01*
X02364D01*
X023681Y025376D01*
Y025334D01*
X02364Y025292D01*
X023556D01*
X023515Y025334D01*
X032073Y024542D02*
X03199D01*
X032031D01*
Y024334D01*
X03199Y024292D01*
X031948D01*
X031906Y024334D01*
X032156Y024292D02*
X03224D01*
X032198D01*
Y024542D01*
X032156Y024501D01*
X024865Y024542D02*
Y024792D01*
X02499D01*
X025031Y024751D01*
Y024667D01*
X02499Y024626D01*
X024865D01*
X024948D02*
X025031Y024542D01*
X025281Y024792D02*
X025115D01*
Y024667D01*
X025198Y024709D01*
X02524D01*
X025281Y024667D01*
Y024584D01*
X02524Y024542D01*
X025156D01*
X025115Y024584D01*
X020681Y020501D02*
X02064Y020542D01*
X020556D01*
X020515Y020501D01*
Y020334D01*
X020556Y020292D01*
X02064D01*
X020681Y020334D01*
X020765Y020501D02*
X020806Y020542D01*
X02089D01*
X020931Y020501D01*
Y020459D01*
X02089Y020417D01*
X020931Y020376D01*
Y020334D01*
X02089Y020292D01*
X020806D01*
X020765Y020334D01*
Y020376D01*
X020806Y020417D01*
X020765Y020459D01*
Y020501D01*
X020806Y020417D02*
X02089D01*
X024281Y024751D02*
X02424Y024792D01*
X024156D01*
X024115Y024751D01*
Y024584D01*
X024156Y024542D01*
X02424D01*
X024281Y024584D01*
X024365Y024792D02*
X024531D01*
Y024751D01*
X024365Y024584D01*
Y024542D01*
X020381Y021551D02*
X02034Y021592D01*
X020256D01*
X020215Y021551D01*
Y021384D01*
X020256Y021342D01*
X02034D01*
X020381Y021384D01*
X020631Y021592D02*
X020548Y021551D01*
X020465Y021467D01*
Y021384D01*
X020506Y021342D01*
X02059D01*
X020631Y021384D01*
Y021426D01*
X02059Y021467D01*
X020465D01*
X027365Y022692D02*
Y022651D01*
X027448Y022567D01*
X027531Y022651D01*
Y022692D01*
X027448Y022567D02*
Y022442D01*
X027781D02*
X027615D01*
X027781Y022609D01*
Y022651D01*
X02774Y022692D01*
X027656D01*
X027615Y022651D01*
X027406Y023042D02*
Y022834D01*
X027448Y022792D01*
X027531D01*
X027573Y022834D01*
Y023042D01*
X027656Y022792D02*
X02774D01*
X027698D01*
Y023042D01*
X027656Y023001D01*
X026965Y025192D02*
Y025442D01*
X02709D01*
X027131Y025401D01*
Y025317D01*
X02709Y025276D01*
X026965D01*
X027048D02*
X027131Y025192D01*
X027215Y025401D02*
X027256Y025442D01*
X02734D01*
X027381Y025401D01*
Y025359D01*
X02734Y025317D01*
X027298D01*
X02734D01*
X027381Y025276D01*
Y025234D01*
X02734Y025192D01*
X027256D01*
X027215Y025234D01*
X028865Y025042D02*
Y024792D01*
X029031D01*
X029115Y025001D02*
X029156Y025042D01*
X02924D01*
X029281Y025001D01*
Y024959D01*
X02924Y024917D01*
X029198D01*
X02924D01*
X029281Y024876D01*
Y024834D01*
X02924Y024792D01*
X029156D01*
X029115Y024834D01*
X028315Y025042D02*
Y024792D01*
X028481D01*
X028731D02*
X028565D01*
X028731Y024959D01*
Y025001D01*
X02869Y025042D01*
X028606D01*
X028565Y025001D01*
X028356Y023492D02*
Y023242D01*
X028523D01*
X028606D02*
X02869D01*
X028648D01*
Y023492D01*
X028606Y023451D01*
X028677Y025901D02*
X028635Y025942D01*
X028552D01*
X028511Y025901D01*
Y025734D01*
X028552Y025692D01*
X028635D01*
X028677Y025734D01*
X02876Y025692D02*
X028844D01*
X028802D01*
Y025942D01*
X02876Y025901D01*
X029135Y025692D02*
X028969D01*
X029135Y025859D01*
Y025901D01*
X029094Y025942D01*
X02901D01*
X028969Y025901D01*
X026069Y022201D02*
X026027Y022242D01*
X025944D01*
X025902Y022201D01*
Y022034D01*
X025944Y021992D01*
X026027D01*
X026069Y022034D01*
X026152Y021992D02*
X026235D01*
X026194D01*
Y022242D01*
X026152Y022201D01*
X02636Y021992D02*
X026444D01*
X026402D01*
Y022242D01*
X02636Y022201D01*
X030631Y025101D02*
X03059Y025142D01*
X030506D01*
X030465Y025101D01*
Y024934D01*
X030506Y024892D01*
X03059D01*
X030631Y024934D01*
X030881Y025142D02*
X030715D01*
Y025017D01*
X030798Y025059D01*
X03084D01*
X030881Y025017D01*
Y024934D01*
X03084Y024892D01*
X030756D01*
X030715Y024934D01*
X029931Y025001D02*
X02989Y025042D01*
X029806D01*
X029765Y025001D01*
Y024834D01*
X029806Y024792D01*
X02989D01*
X029931Y024834D01*
X03014Y024792D02*
Y025042D01*
X030015Y024917D01*
X030181D01*
X030331Y023551D02*
X03029Y023592D01*
X030206D01*
X030165Y023551D01*
Y023384D01*
X030206Y023342D01*
X03029D01*
X030331Y023384D01*
X030415Y023551D02*
X030456Y023592D01*
X03054D01*
X030581Y023551D01*
Y023509D01*
X03054Y023467D01*
X030498D01*
X03054D01*
X030581Y023426D01*
Y023384D01*
X03054Y023342D01*
X030456D01*
X030415Y023384D01*
X030331Y022951D02*
X03029Y022992D01*
X030206D01*
X030165Y022951D01*
Y022784D01*
X030206Y022742D01*
X03029D01*
X030331Y022784D01*
X030581Y022742D02*
X030415D01*
X030581Y022909D01*
Y022951D01*
X03054Y022992D01*
X030456D01*
X030415Y022951D01*
X026273Y026001D02*
X026231Y026042D01*
X026148D01*
X026106Y026001D01*
Y025834D01*
X026148Y025792D01*
X026231D01*
X026273Y025834D01*
X026356Y025792D02*
X02644D01*
X026398D01*
Y026042D01*
X026356Y026001D01*
X019515Y022292D02*
Y022084D01*
X019556Y022042D01*
X01964D01*
X019681Y022084D01*
Y022292D01*
X019931Y022042D02*
X019765D01*
X019931Y022209D01*
Y022251D01*
X01989Y022292D01*
X019806D01*
X019765Y022251D01*
X025415Y024542D02*
Y024792D01*
X02554D01*
X025581Y024751D01*
Y024667D01*
X02554Y024626D01*
X025415D01*
X025498D02*
X025581Y024542D01*
X02579D02*
Y024792D01*
X025665Y024667D01*
X025831D01*
X023402Y024792D02*
X023485D01*
X023444D01*
Y024542D01*
X023402D01*
X023485D01*
X023777Y024751D02*
X023735Y024792D01*
X023652D01*
X02361Y024751D01*
Y024584D01*
X023652Y024542D01*
X023735D01*
X023777Y024584D01*
X02386Y024542D02*
X023944D01*
X023902D01*
Y024792D01*
X02386Y024751D01*
X026306Y020292D02*
Y020542D01*
X026431D01*
X026473Y020501D01*
Y020417D01*
X026431Y020376D01*
X026306D01*
X02639D02*
X026473Y020292D01*
X026556D02*
X02664D01*
X026598D01*
Y020542D01*
X026556Y020501D01*
X020515Y020742D02*
Y020992D01*
X02064D01*
X020681Y020951D01*
Y020867D01*
X02064Y020826D01*
X020515D01*
X020598D02*
X020681Y020742D01*
X020931D02*
X020765D01*
X020931Y020909D01*
Y020951D01*
X02089Y020992D01*
X020806D01*
X020765Y020951D01*
X020031Y025951D02*
X01999Y025992D01*
X019906D01*
X019865Y025951D01*
Y025784D01*
X019906Y025742D01*
X01999D01*
X020031Y025784D01*
X020115D02*
X020156Y025742D01*
X02024D01*
X020281Y025784D01*
Y025951D01*
X02024Y025992D01*
X020156D01*
X020115Y025951D01*
Y025909D01*
X020156Y025867D01*
X020281D01*
X018327Y025951D02*
X018285Y025992D01*
X018202D01*
X018161Y025951D01*
Y025784D01*
X018202Y025742D01*
X018285D01*
X018327Y025784D01*
X01841Y025742D02*
X018494D01*
X018452D01*
Y025992D01*
X01841Y025951D01*
X018744Y025742D02*
Y025992D01*
X018619Y025867D01*
X018785D01*
X04036Y025542D02*
X040277D01*
X040319D01*
Y025334D01*
X040277Y025292D01*
X040235D01*
X040194Y025334D01*
X040444Y025501D02*
X040485Y025542D01*
X040569D01*
X04061Y025501D01*
Y025459D01*
X040569Y025417D01*
X040527D01*
X040569D01*
X04061Y025376D01*
Y025334D01*
X040569Y025292D01*
X040485D01*
X040444Y025334D01*
X049002Y024542D02*
X048919D01*
X04896D01*
Y024334D01*
X048919Y024292D01*
X048877D01*
X048835Y024334D01*
X049085Y024292D02*
X049169D01*
X049127D01*
Y024542D01*
X049085Y024501D01*
X041794Y024542D02*
Y024792D01*
X041919D01*
X04196Y024751D01*
Y024667D01*
X041919Y024626D01*
X041794D01*
X041877D02*
X04196Y024542D01*
X04221Y024792D02*
X042044D01*
Y024667D01*
X042127Y024709D01*
X042169D01*
X04221Y024667D01*
Y024584D01*
X042169Y024542D01*
X042085D01*
X042044Y024584D01*
X03761Y020501D02*
X037569Y020542D01*
X037485D01*
X037444Y020501D01*
Y020334D01*
X037485Y020292D01*
X037569D01*
X03761Y020334D01*
X037694Y020501D02*
X037735Y020542D01*
X037819D01*
X03786Y020501D01*
Y020459D01*
X037819Y020417D01*
X03786Y020376D01*
Y020334D01*
X037819Y020292D01*
X037735D01*
X037694Y020334D01*
Y020376D01*
X037735Y020417D01*
X037694Y020459D01*
Y020501D01*
X037735Y020417D02*
X037819D01*
X04121Y024751D02*
X041169Y024792D01*
X041085D01*
X041044Y024751D01*
Y024584D01*
X041085Y024542D01*
X041169D01*
X04121Y024584D01*
X041294Y024792D02*
X04146D01*
Y024751D01*
X041294Y024584D01*
Y024542D01*
X03731Y021551D02*
X037269Y021592D01*
X037185D01*
X037144Y021551D01*
Y021384D01*
X037185Y021342D01*
X037269D01*
X03731Y021384D01*
X03756Y021592D02*
X037477Y021551D01*
X037394Y021467D01*
Y021384D01*
X037435Y021342D01*
X037519D01*
X03756Y021384D01*
Y021426D01*
X037519Y021467D01*
X037394D01*
X044294Y022692D02*
Y022651D01*
X044377Y022567D01*
X04446Y022651D01*
Y022692D01*
X044377Y022567D02*
Y022442D01*
X04471D02*
X044544D01*
X04471Y022609D01*
Y022651D01*
X044669Y022692D01*
X044585D01*
X044544Y022651D01*
X044335Y023042D02*
Y022834D01*
X044377Y022792D01*
X04446D01*
X044502Y022834D01*
Y023042D01*
X044585Y022792D02*
X044669D01*
X044627D01*
Y023042D01*
X044585Y023001D01*
X043894Y025192D02*
Y025442D01*
X044019D01*
X04406Y025401D01*
Y025317D01*
X044019Y025276D01*
X043894D01*
X043977D02*
X04406Y025192D01*
X044144Y025401D02*
X044185Y025442D01*
X044269D01*
X04431Y025401D01*
Y025359D01*
X044269Y025317D01*
X044227D01*
X044269D01*
X04431Y025276D01*
Y025234D01*
X044269Y025192D01*
X044185D01*
X044144Y025234D01*
X045794Y025042D02*
Y024792D01*
X04596D01*
X046044Y025001D02*
X046085Y025042D01*
X046169D01*
X04621Y025001D01*
Y024959D01*
X046169Y024917D01*
X046127D01*
X046169D01*
X04621Y024876D01*
Y024834D01*
X046169Y024792D01*
X046085D01*
X046044Y024834D01*
X045244Y025042D02*
Y024792D01*
X04541D01*
X04566D02*
X045494D01*
X04566Y024959D01*
Y025001D01*
X045619Y025042D01*
X045535D01*
X045494Y025001D01*
X045285Y023492D02*
Y023242D01*
X045452D01*
X045535D02*
X045619D01*
X045577D01*
Y023492D01*
X045535Y023451D01*
X045606Y025901D02*
X045565Y025942D01*
X045481D01*
X04544Y025901D01*
Y025734D01*
X045481Y025692D01*
X045565D01*
X045606Y025734D01*
X04569Y025692D02*
X045773D01*
X045731D01*
Y025942D01*
X04569Y025901D01*
X046064Y025692D02*
X045898D01*
X046064Y025859D01*
Y025901D01*
X046023Y025942D01*
X045939D01*
X045898Y025901D01*
X042998Y022201D02*
X042956Y022242D01*
X042873D01*
X042831Y022201D01*
Y022034D01*
X042873Y021992D01*
X042956D01*
X042998Y022034D01*
X043081Y021992D02*
X043165D01*
X043123D01*
Y022242D01*
X043081Y022201D01*
X043289Y021992D02*
X043373D01*
X043331D01*
Y022242D01*
X043289Y022201D01*
X04756Y025101D02*
X047519Y025142D01*
X047435D01*
X047394Y025101D01*
Y024934D01*
X047435Y024892D01*
X047519D01*
X04756Y024934D01*
X04781Y025142D02*
X047644D01*
Y025017D01*
X047727Y025059D01*
X047769D01*
X04781Y025017D01*
Y024934D01*
X047769Y024892D01*
X047685D01*
X047644Y024934D01*
X04686Y025001D02*
X046819Y025042D01*
X046735D01*
X046694Y025001D01*
Y024834D01*
X046735Y024792D01*
X046819D01*
X04686Y024834D01*
X047069Y024792D02*
Y025042D01*
X046944Y024917D01*
X04711D01*
X04726Y023551D02*
X047219Y023592D01*
X047135D01*
X047094Y023551D01*
Y023384D01*
X047135Y023342D01*
X047219D01*
X04726Y023384D01*
X047344Y023551D02*
X047385Y023592D01*
X047469D01*
X04751Y023551D01*
Y023509D01*
X047469Y023467D01*
X047427D01*
X047469D01*
X04751Y023426D01*
Y023384D01*
X047469Y023342D01*
X047385D01*
X047344Y023384D01*
X04726Y022951D02*
X047219Y022992D01*
X047135D01*
X047094Y022951D01*
Y022784D01*
X047135Y022742D01*
X047219D01*
X04726Y022784D01*
X04751Y022742D02*
X047344D01*
X04751Y022909D01*
Y022951D01*
X047469Y022992D01*
X047385D01*
X047344Y022951D01*
X043202Y026001D02*
X04316Y026042D01*
X043077D01*
X043035Y026001D01*
Y025834D01*
X043077Y025792D01*
X04316D01*
X043202Y025834D01*
X043285Y025792D02*
X043369D01*
X043327D01*
Y026042D01*
X043285Y026001D01*
X036444Y022292D02*
Y022084D01*
X036485Y022042D01*
X036569D01*
X03661Y022084D01*
Y022292D01*
X03686Y022042D02*
X036694D01*
X03686Y022209D01*
Y022251D01*
X036819Y022292D01*
X036735D01*
X036694Y022251D01*
X042344Y024542D02*
Y024792D01*
X042469D01*
X04251Y024751D01*
Y024667D01*
X042469Y024626D01*
X042344D01*
X042427D02*
X04251Y024542D01*
X042719D02*
Y024792D01*
X042594Y024667D01*
X04276D01*
X040331Y024792D02*
X040415D01*
X040373D01*
Y024542D01*
X040331D01*
X040415D01*
X040706Y024751D02*
X040665Y024792D01*
X040581D01*
X04054Y024751D01*
Y024584D01*
X040581Y024542D01*
X040665D01*
X040706Y024584D01*
X040789Y024542D02*
X040873D01*
X040831D01*
Y024792D01*
X040789Y024751D01*
X043235Y020292D02*
Y020542D01*
X04336D01*
X043402Y020501D01*
Y020417D01*
X04336Y020376D01*
X043235D01*
X043319D02*
X043402Y020292D01*
X043485D02*
X043569D01*
X043527D01*
Y020542D01*
X043485Y020501D01*
X037444Y020742D02*
Y020992D01*
X037569D01*
X03761Y020951D01*
Y020867D01*
X037569Y020826D01*
X037444D01*
X037527D02*
X03761Y020742D01*
X03786D02*
X037694D01*
X03786Y020909D01*
Y020951D01*
X037819Y020992D01*
X037735D01*
X037694Y020951D01*
X03696Y025951D02*
X036919Y025992D01*
X036835D01*
X036794Y025951D01*
Y025784D01*
X036835Y025742D01*
X036919D01*
X03696Y025784D01*
X037044D02*
X037085Y025742D01*
X037169D01*
X03721Y025784D01*
Y025951D01*
X037169Y025992D01*
X037085D01*
X037044Y025951D01*
Y025909D01*
X037085Y025867D01*
X03721D01*
X035256Y025951D02*
X035215Y025992D01*
X035131D01*
X03509Y025951D01*
Y025784D01*
X035131Y025742D01*
X035215D01*
X035256Y025784D01*
X03534Y025742D02*
X035423D01*
X035381D01*
Y025992D01*
X03534Y025951D01*
X035673Y025742D02*
Y025992D01*
X035548Y025867D01*
X035714D01*
X023431Y032038D02*
X023348D01*
X02339D01*
Y03183D01*
X023348Y031788D01*
X023306D01*
X023265Y03183D01*
X023515Y031997D02*
X023556Y032038D01*
X02364D01*
X023681Y031997D01*
Y031955D01*
X02364Y031913D01*
X023598D01*
X02364D01*
X023681Y031872D01*
Y03183D01*
X02364Y031788D01*
X023556D01*
X023515Y03183D01*
X032073Y031038D02*
X03199D01*
X032031D01*
Y03083D01*
X03199Y030788D01*
X031948D01*
X031906Y03083D01*
X032156Y030788D02*
X03224D01*
X032198D01*
Y031038D01*
X032156Y030997D01*
X024865Y031038D02*
Y031288D01*
X02499D01*
X025031Y031247D01*
Y031163D01*
X02499Y031122D01*
X024865D01*
X024948D02*
X025031Y031038D01*
X025281Y031288D02*
X025115D01*
Y031163D01*
X025198Y031205D01*
X02524D01*
X025281Y031163D01*
Y03108D01*
X02524Y031038D01*
X025156D01*
X025115Y03108D01*
X020681Y026997D02*
X02064Y027038D01*
X020556D01*
X020515Y026997D01*
Y02683D01*
X020556Y026788D01*
X02064D01*
X020681Y02683D01*
X020765Y026997D02*
X020806Y027038D01*
X02089D01*
X020931Y026997D01*
Y026955D01*
X02089Y026913D01*
X020931Y026872D01*
Y02683D01*
X02089Y026788D01*
X020806D01*
X020765Y02683D01*
Y026872D01*
X020806Y026913D01*
X020765Y026955D01*
Y026997D01*
X020806Y026913D02*
X02089D01*
X024281Y031247D02*
X02424Y031288D01*
X024156D01*
X024115Y031247D01*
Y03108D01*
X024156Y031038D01*
X02424D01*
X024281Y03108D01*
X024365Y031288D02*
X024531D01*
Y031247D01*
X024365Y03108D01*
Y031038D01*
X020381Y028047D02*
X02034Y028088D01*
X020256D01*
X020215Y028047D01*
Y02788D01*
X020256Y027838D01*
X02034D01*
X020381Y02788D01*
X020631Y028088D02*
X020548Y028047D01*
X020465Y027963D01*
Y02788D01*
X020506Y027838D01*
X02059D01*
X020631Y02788D01*
Y027922D01*
X02059Y027963D01*
X020465D01*
X027365Y029188D02*
Y029147D01*
X027448Y029063D01*
X027531Y029147D01*
Y029188D01*
X027448Y029063D02*
Y028938D01*
X027781D02*
X027615D01*
X027781Y029105D01*
Y029147D01*
X02774Y029188D01*
X027656D01*
X027615Y029147D01*
X027406Y029538D02*
Y02933D01*
X027448Y029288D01*
X027531D01*
X027573Y02933D01*
Y029538D01*
X027656Y029288D02*
X02774D01*
X027698D01*
Y029538D01*
X027656Y029497D01*
X026965Y031688D02*
Y031938D01*
X02709D01*
X027131Y031897D01*
Y031813D01*
X02709Y031772D01*
X026965D01*
X027048D02*
X027131Y031688D01*
X027215Y031897D02*
X027256Y031938D01*
X02734D01*
X027381Y031897D01*
Y031855D01*
X02734Y031813D01*
X027298D01*
X02734D01*
X027381Y031772D01*
Y03173D01*
X02734Y031688D01*
X027256D01*
X027215Y03173D01*
X028865Y031538D02*
Y031288D01*
X029031D01*
X029115Y031497D02*
X029156Y031538D01*
X02924D01*
X029281Y031497D01*
Y031455D01*
X02924Y031413D01*
X029198D01*
X02924D01*
X029281Y031372D01*
Y03133D01*
X02924Y031288D01*
X029156D01*
X029115Y03133D01*
X028315Y031538D02*
Y031288D01*
X028481D01*
X028731D02*
X028565D01*
X028731Y031455D01*
Y031497D01*
X02869Y031538D01*
X028606D01*
X028565Y031497D01*
X028356Y029988D02*
Y029738D01*
X028523D01*
X028606D02*
X02869D01*
X028648D01*
Y029988D01*
X028606Y029947D01*
X028677Y032397D02*
X028635Y032438D01*
X028552D01*
X028511Y032397D01*
Y03223D01*
X028552Y032188D01*
X028635D01*
X028677Y03223D01*
X02876Y032188D02*
X028844D01*
X028802D01*
Y032438D01*
X02876Y032397D01*
X029135Y032188D02*
X028969D01*
X029135Y032355D01*
Y032397D01*
X029094Y032438D01*
X02901D01*
X028969Y032397D01*
X026069Y028697D02*
X026027Y028738D01*
X025944D01*
X025902Y028697D01*
Y02853D01*
X025944Y028488D01*
X026027D01*
X026069Y02853D01*
X026152Y028488D02*
X026235D01*
X026194D01*
Y028738D01*
X026152Y028697D01*
X02636Y028488D02*
X026444D01*
X026402D01*
Y028738D01*
X02636Y028697D01*
X030631Y031597D02*
X03059Y031638D01*
X030506D01*
X030465Y031597D01*
Y03143D01*
X030506Y031388D01*
X03059D01*
X030631Y03143D01*
X030881Y031638D02*
X030715D01*
Y031513D01*
X030798Y031555D01*
X03084D01*
X030881Y031513D01*
Y03143D01*
X03084Y031388D01*
X030756D01*
X030715Y03143D01*
X029931Y031497D02*
X02989Y031538D01*
X029806D01*
X029765Y031497D01*
Y03133D01*
X029806Y031288D01*
X02989D01*
X029931Y03133D01*
X03014Y031288D02*
Y031538D01*
X030015Y031413D01*
X030181D01*
X030331Y030047D02*
X03029Y030088D01*
X030206D01*
X030165Y030047D01*
Y02988D01*
X030206Y029838D01*
X03029D01*
X030331Y02988D01*
X030415Y030047D02*
X030456Y030088D01*
X03054D01*
X030581Y030047D01*
Y030005D01*
X03054Y029963D01*
X030498D01*
X03054D01*
X030581Y029922D01*
Y02988D01*
X03054Y029838D01*
X030456D01*
X030415Y02988D01*
X030331Y029447D02*
X03029Y029488D01*
X030206D01*
X030165Y029447D01*
Y02928D01*
X030206Y029238D01*
X03029D01*
X030331Y02928D01*
X030581Y029238D02*
X030415D01*
X030581Y029405D01*
Y029447D01*
X03054Y029488D01*
X030456D01*
X030415Y029447D01*
X026273Y032497D02*
X026231Y032538D01*
X026148D01*
X026106Y032497D01*
Y03233D01*
X026148Y032288D01*
X026231D01*
X026273Y03233D01*
X026356Y032288D02*
X02644D01*
X026398D01*
Y032538D01*
X026356Y032497D01*
X019515Y028788D02*
Y02858D01*
X019556Y028538D01*
X01964D01*
X019681Y02858D01*
Y028788D01*
X019931Y028538D02*
X019765D01*
X019931Y028705D01*
Y028747D01*
X01989Y028788D01*
X019806D01*
X019765Y028747D01*
X025415Y031038D02*
Y031288D01*
X02554D01*
X025581Y031247D01*
Y031163D01*
X02554Y031122D01*
X025415D01*
X025498D02*
X025581Y031038D01*
X02579D02*
Y031288D01*
X025665Y031163D01*
X025831D01*
X023402Y031288D02*
X023485D01*
X023444D01*
Y031038D01*
X023402D01*
X023485D01*
X023777Y031247D02*
X023735Y031288D01*
X023652D01*
X02361Y031247D01*
Y03108D01*
X023652Y031038D01*
X023735D01*
X023777Y03108D01*
X02386Y031038D02*
X023944D01*
X023902D01*
Y031288D01*
X02386Y031247D01*
X026306Y026788D02*
Y027038D01*
X026431D01*
X026473Y026997D01*
Y026913D01*
X026431Y026872D01*
X026306D01*
X02639D02*
X026473Y026788D01*
X026556D02*
X02664D01*
X026598D01*
Y027038D01*
X026556Y026997D01*
X020515Y027238D02*
Y027488D01*
X02064D01*
X020681Y027447D01*
Y027363D01*
X02064Y027322D01*
X020515D01*
X020598D02*
X020681Y027238D01*
X020931D02*
X020765D01*
X020931Y027405D01*
Y027447D01*
X02089Y027488D01*
X020806D01*
X020765Y027447D01*
X020031Y032447D02*
X01999Y032488D01*
X019906D01*
X019865Y032447D01*
Y03228D01*
X019906Y032238D01*
X01999D01*
X020031Y03228D01*
X020115D02*
X020156Y032238D01*
X02024D01*
X020281Y03228D01*
Y032447D01*
X02024Y032488D01*
X020156D01*
X020115Y032447D01*
Y032405D01*
X020156Y032363D01*
X020281D01*
X018327Y032447D02*
X018285Y032488D01*
X018202D01*
X018161Y032447D01*
Y03228D01*
X018202Y032238D01*
X018285D01*
X018327Y03228D01*
X01841Y032238D02*
X018494D01*
X018452D01*
Y032488D01*
X01841Y032447D01*
X018744Y032238D02*
Y032488D01*
X018619Y032363D01*
X018785D01*
X04036Y032038D02*
X040277D01*
X040319D01*
Y03183D01*
X040277Y031788D01*
X040235D01*
X040194Y03183D01*
X040444Y031997D02*
X040485Y032038D01*
X040569D01*
X04061Y031997D01*
Y031955D01*
X040569Y031913D01*
X040527D01*
X040569D01*
X04061Y031872D01*
Y03183D01*
X040569Y031788D01*
X040485D01*
X040444Y03183D01*
X049002Y031038D02*
X048919D01*
X04896D01*
Y03083D01*
X048919Y030788D01*
X048877D01*
X048835Y03083D01*
X049085Y030788D02*
X049169D01*
X049127D01*
Y031038D01*
X049085Y030997D01*
X041794Y031038D02*
Y031288D01*
X041919D01*
X04196Y031247D01*
Y031163D01*
X041919Y031122D01*
X041794D01*
X041877D02*
X04196Y031038D01*
X04221Y031288D02*
X042044D01*
Y031163D01*
X042127Y031205D01*
X042169D01*
X04221Y031163D01*
Y03108D01*
X042169Y031038D01*
X042085D01*
X042044Y03108D01*
X03761Y026997D02*
X037569Y027038D01*
X037485D01*
X037444Y026997D01*
Y02683D01*
X037485Y026788D01*
X037569D01*
X03761Y02683D01*
X037694Y026997D02*
X037735Y027038D01*
X037819D01*
X03786Y026997D01*
Y026955D01*
X037819Y026913D01*
X03786Y026872D01*
Y02683D01*
X037819Y026788D01*
X037735D01*
X037694Y02683D01*
Y026872D01*
X037735Y026913D01*
X037694Y026955D01*
Y026997D01*
X037735Y026913D02*
X037819D01*
X04121Y031247D02*
X041169Y031288D01*
X041085D01*
X041044Y031247D01*
Y03108D01*
X041085Y031038D01*
X041169D01*
X04121Y03108D01*
X041294Y031288D02*
X04146D01*
Y031247D01*
X041294Y03108D01*
Y031038D01*
X03731Y028047D02*
X037269Y028088D01*
X037185D01*
X037144Y028047D01*
Y02788D01*
X037185Y027838D01*
X037269D01*
X03731Y02788D01*
X03756Y028088D02*
X037477Y028047D01*
X037394Y027963D01*
Y02788D01*
X037435Y027838D01*
X037519D01*
X03756Y02788D01*
Y027922D01*
X037519Y027963D01*
X037394D01*
X044294Y029188D02*
Y029147D01*
X044377Y029063D01*
X04446Y029147D01*
Y029188D01*
X044377Y029063D02*
Y028938D01*
X04471D02*
X044544D01*
X04471Y029105D01*
Y029147D01*
X044669Y029188D01*
X044585D01*
X044544Y029147D01*
X044335Y029538D02*
Y02933D01*
X044377Y029288D01*
X04446D01*
X044502Y02933D01*
Y029538D01*
X044585Y029288D02*
X044669D01*
X044627D01*
Y029538D01*
X044585Y029497D01*
X043894Y031688D02*
Y031938D01*
X044019D01*
X04406Y031897D01*
Y031813D01*
X044019Y031772D01*
X043894D01*
X043977D02*
X04406Y031688D01*
X044144Y031897D02*
X044185Y031938D01*
X044269D01*
X04431Y031897D01*
Y031855D01*
X044269Y031813D01*
X044227D01*
X044269D01*
X04431Y031772D01*
Y03173D01*
X044269Y031688D01*
X044185D01*
X044144Y03173D01*
X045794Y031538D02*
Y031288D01*
X04596D01*
X046044Y031497D02*
X046085Y031538D01*
X046169D01*
X04621Y031497D01*
Y031455D01*
X046169Y031413D01*
X046127D01*
X046169D01*
X04621Y031372D01*
Y03133D01*
X046169Y031288D01*
X046085D01*
X046044Y03133D01*
X045244Y031538D02*
Y031288D01*
X04541D01*
X04566D02*
X045494D01*
X04566Y031455D01*
Y031497D01*
X045619Y031538D01*
X045535D01*
X045494Y031497D01*
X045285Y029988D02*
Y029738D01*
X045452D01*
X045535D02*
X045619D01*
X045577D01*
Y029988D01*
X045535Y029947D01*
X045606Y032397D02*
X045565Y032438D01*
X045481D01*
X04544Y032397D01*
Y03223D01*
X045481Y032188D01*
X045565D01*
X045606Y03223D01*
X04569Y032188D02*
X045773D01*
X045731D01*
Y032438D01*
X04569Y032397D01*
X046064Y032188D02*
X045898D01*
X046064Y032355D01*
Y032397D01*
X046023Y032438D01*
X045939D01*
X045898Y032397D01*
X042998Y028697D02*
X042956Y028738D01*
X042873D01*
X042831Y028697D01*
Y02853D01*
X042873Y028488D01*
X042956D01*
X042998Y02853D01*
X043081Y028488D02*
X043165D01*
X043123D01*
Y028738D01*
X043081Y028697D01*
X043289Y028488D02*
X043373D01*
X043331D01*
Y028738D01*
X043289Y028697D01*
X04756Y031597D02*
X047519Y031638D01*
X047435D01*
X047394Y031597D01*
Y03143D01*
X047435Y031388D01*
X047519D01*
X04756Y03143D01*
X04781Y031638D02*
X047644D01*
Y031513D01*
X047727Y031555D01*
X047769D01*
X04781Y031513D01*
Y03143D01*
X047769Y031388D01*
X047685D01*
X047644Y03143D01*
X04686Y031497D02*
X046819Y031538D01*
X046735D01*
X046694Y031497D01*
Y03133D01*
X046735Y031288D01*
X046819D01*
X04686Y03133D01*
X047069Y031288D02*
Y031538D01*
X046944Y031413D01*
X04711D01*
X04726Y030047D02*
X047219Y030088D01*
X047135D01*
X047094Y030047D01*
Y02988D01*
X047135Y029838D01*
X047219D01*
X04726Y02988D01*
X047344Y030047D02*
X047385Y030088D01*
X047469D01*
X04751Y030047D01*
Y030005D01*
X047469Y029963D01*
X047427D01*
X047469D01*
X04751Y029922D01*
Y02988D01*
X047469Y029838D01*
X047385D01*
X047344Y02988D01*
X04726Y029447D02*
X047219Y029488D01*
X047135D01*
X047094Y029447D01*
Y02928D01*
X047135Y029238D01*
X047219D01*
X04726Y02928D01*
X04751Y029238D02*
X047344D01*
X04751Y029405D01*
Y029447D01*
X047469Y029488D01*
X047385D01*
X047344Y029447D01*
X043202Y032497D02*
X04316Y032538D01*
X043077D01*
X043035Y032497D01*
Y03233D01*
X043077Y032288D01*
X04316D01*
X043202Y03233D01*
X043285Y032288D02*
X043369D01*
X043327D01*
Y032538D01*
X043285Y032497D01*
X036444Y028788D02*
Y02858D01*
X036485Y028538D01*
X036569D01*
X03661Y02858D01*
Y028788D01*
X03686Y028538D02*
X036694D01*
X03686Y028705D01*
Y028747D01*
X036819Y028788D01*
X036735D01*
X036694Y028747D01*
X042344Y031038D02*
Y031288D01*
X042469D01*
X04251Y031247D01*
Y031163D01*
X042469Y031122D01*
X042344D01*
X042427D02*
X04251Y031038D01*
X042719D02*
Y031288D01*
X042594Y031163D01*
X04276D01*
X040331Y031288D02*
X040415D01*
X040373D01*
Y031038D01*
X040331D01*
X040415D01*
X040706Y031247D02*
X040665Y031288D01*
X040581D01*
X04054Y031247D01*
Y03108D01*
X040581Y031038D01*
X040665D01*
X040706Y03108D01*
X040789Y031038D02*
X040873D01*
X040831D01*
Y031288D01*
X040789Y031247D01*
X043235Y026788D02*
Y027038D01*
X04336D01*
X043402Y026997D01*
Y026913D01*
X04336Y026872D01*
X043235D01*
X043319D02*
X043402Y026788D01*
X043485D02*
X043569D01*
X043527D01*
Y027038D01*
X043485Y026997D01*
X037444Y027238D02*
Y027488D01*
X037569D01*
X03761Y027447D01*
Y027363D01*
X037569Y027322D01*
X037444D01*
X037527D02*
X03761Y027238D01*
X03786D02*
X037694D01*
X03786Y027405D01*
Y027447D01*
X037819Y027488D01*
X037735D01*
X037694Y027447D01*
X03696Y032447D02*
X036919Y032488D01*
X036835D01*
X036794Y032447D01*
Y03228D01*
X036835Y032238D01*
X036919D01*
X03696Y03228D01*
X037044D02*
X037085Y032238D01*
X037169D01*
X03721Y03228D01*
Y032447D01*
X037169Y032488D01*
X037085D01*
X037044Y032447D01*
Y032405D01*
X037085Y032363D01*
X03721D01*
X035256Y032447D02*
X035215Y032488D01*
X035131D01*
X03509Y032447D01*
Y03228D01*
X035131Y032238D01*
X035215D01*
X035256Y03228D01*
X03534Y032238D02*
X035423D01*
X035381D01*
Y032488D01*
X03534Y032447D01*
X035673Y032238D02*
Y032488D01*
X035548Y032363D01*
X035714D01*
X023431Y038534D02*
X023348D01*
X02339D01*
Y038326D01*
X023348Y038285D01*
X023306D01*
X023265Y038326D01*
X023515Y038493D02*
X023556Y038534D01*
X02364D01*
X023681Y038493D01*
Y038451D01*
X02364Y03841D01*
X023598D01*
X02364D01*
X023681Y038368D01*
Y038326D01*
X02364Y038285D01*
X023556D01*
X023515Y038326D01*
X032073Y037534D02*
X03199D01*
X032031D01*
Y037326D01*
X03199Y037285D01*
X031948D01*
X031906Y037326D01*
X032156Y037285D02*
X03224D01*
X032198D01*
Y037534D01*
X032156Y037493D01*
X024865Y037535D02*
Y037784D01*
X02499D01*
X025031Y037743D01*
Y03766D01*
X02499Y037618D01*
X024865D01*
X024948D02*
X025031Y037535D01*
X025281Y037784D02*
X025115D01*
Y03766D01*
X025198Y037701D01*
X02524D01*
X025281Y03766D01*
Y037576D01*
X02524Y037535D01*
X025156D01*
X025115Y037576D01*
X020681Y033493D02*
X02064Y033534D01*
X020556D01*
X020515Y033493D01*
Y033326D01*
X020556Y033285D01*
X02064D01*
X020681Y033326D01*
X020765Y033493D02*
X020806Y033534D01*
X02089D01*
X020931Y033493D01*
Y033451D01*
X02089Y03341D01*
X020931Y033368D01*
Y033326D01*
X02089Y033285D01*
X020806D01*
X020765Y033326D01*
Y033368D01*
X020806Y03341D01*
X020765Y033451D01*
Y033493D01*
X020806Y03341D02*
X02089D01*
X024281Y037743D02*
X02424Y037784D01*
X024156D01*
X024115Y037743D01*
Y037576D01*
X024156Y037535D01*
X02424D01*
X024281Y037576D01*
X024365Y037784D02*
X024531D01*
Y037743D01*
X024365Y037576D01*
Y037535D01*
X020381Y034543D02*
X02034Y034584D01*
X020256D01*
X020215Y034543D01*
Y034376D01*
X020256Y034335D01*
X02034D01*
X020381Y034376D01*
X020631Y034584D02*
X020548Y034543D01*
X020465Y03446D01*
Y034376D01*
X020506Y034335D01*
X02059D01*
X020631Y034376D01*
Y034418D01*
X02059Y03446D01*
X020465D01*
X027365Y035684D02*
Y035643D01*
X027448Y03556D01*
X027531Y035643D01*
Y035684D01*
X027448Y03556D02*
Y035435D01*
X027781D02*
X027615D01*
X027781Y035601D01*
Y035643D01*
X02774Y035684D01*
X027656D01*
X027615Y035643D01*
X027406Y036034D02*
Y035826D01*
X027448Y035785D01*
X027531D01*
X027573Y035826D01*
Y036034D01*
X027656Y035785D02*
X02774D01*
X027698D01*
Y036034D01*
X027656Y035993D01*
X026965Y038185D02*
Y038434D01*
X02709D01*
X027131Y038393D01*
Y03831D01*
X02709Y038268D01*
X026965D01*
X027048D02*
X027131Y038185D01*
X027215Y038393D02*
X027256Y038434D01*
X02734D01*
X027381Y038393D01*
Y038351D01*
X02734Y03831D01*
X027298D01*
X02734D01*
X027381Y038268D01*
Y038226D01*
X02734Y038185D01*
X027256D01*
X027215Y038226D01*
X028865Y038034D02*
Y037785D01*
X029031D01*
X029115Y037993D02*
X029156Y038034D01*
X02924D01*
X029281Y037993D01*
Y037951D01*
X02924Y03791D01*
X029198D01*
X02924D01*
X029281Y037868D01*
Y037826D01*
X02924Y037785D01*
X029156D01*
X029115Y037826D01*
X028315Y038034D02*
Y037785D01*
X028481D01*
X028731D02*
X028565D01*
X028731Y037951D01*
Y037993D01*
X02869Y038034D01*
X028606D01*
X028565Y037993D01*
X028356Y036484D02*
Y036235D01*
X028523D01*
X028606D02*
X02869D01*
X028648D01*
Y036484D01*
X028606Y036443D01*
X028677Y038893D02*
X028635Y038934D01*
X028552D01*
X028511Y038893D01*
Y038726D01*
X028552Y038685D01*
X028635D01*
X028677Y038726D01*
X02876Y038685D02*
X028844D01*
X028802D01*
Y038934D01*
X02876Y038893D01*
X029135Y038685D02*
X028969D01*
X029135Y038851D01*
Y038893D01*
X029094Y038934D01*
X02901D01*
X028969Y038893D01*
X026069Y035193D02*
X026027Y035234D01*
X025944D01*
X025902Y035193D01*
Y035026D01*
X025944Y034985D01*
X026027D01*
X026069Y035026D01*
X026152Y034985D02*
X026235D01*
X026194D01*
Y035234D01*
X026152Y035193D01*
X02636Y034985D02*
X026444D01*
X026402D01*
Y035234D01*
X02636Y035193D01*
X030631Y038093D02*
X03059Y038134D01*
X030506D01*
X030465Y038093D01*
Y037926D01*
X030506Y037885D01*
X03059D01*
X030631Y037926D01*
X030881Y038134D02*
X030715D01*
Y03801D01*
X030798Y038051D01*
X03084D01*
X030881Y03801D01*
Y037926D01*
X03084Y037885D01*
X030756D01*
X030715Y037926D01*
X029931Y037993D02*
X02989Y038034D01*
X029806D01*
X029765Y037993D01*
Y037826D01*
X029806Y037785D01*
X02989D01*
X029931Y037826D01*
X03014Y037785D02*
Y038034D01*
X030015Y03791D01*
X030181D01*
X030331Y036543D02*
X03029Y036584D01*
X030206D01*
X030165Y036543D01*
Y036376D01*
X030206Y036335D01*
X03029D01*
X030331Y036376D01*
X030415Y036543D02*
X030456Y036584D01*
X03054D01*
X030581Y036543D01*
Y036501D01*
X03054Y03646D01*
X030498D01*
X03054D01*
X030581Y036418D01*
Y036376D01*
X03054Y036335D01*
X030456D01*
X030415Y036376D01*
X030331Y035943D02*
X03029Y035984D01*
X030206D01*
X030165Y035943D01*
Y035776D01*
X030206Y035735D01*
X03029D01*
X030331Y035776D01*
X030581Y035735D02*
X030415D01*
X030581Y035901D01*
Y035943D01*
X03054Y035984D01*
X030456D01*
X030415Y035943D01*
X026273Y038993D02*
X026231Y039034D01*
X026148D01*
X026106Y038993D01*
Y038826D01*
X026148Y038785D01*
X026231D01*
X026273Y038826D01*
X026356Y038785D02*
X02644D01*
X026398D01*
Y039034D01*
X026356Y038993D01*
X019515Y035284D02*
Y035076D01*
X019556Y035035D01*
X01964D01*
X019681Y035076D01*
Y035284D01*
X019931Y035035D02*
X019765D01*
X019931Y035201D01*
Y035243D01*
X01989Y035284D01*
X019806D01*
X019765Y035243D01*
X025415Y037535D02*
Y037784D01*
X02554D01*
X025581Y037743D01*
Y03766D01*
X02554Y037618D01*
X025415D01*
X025498D02*
X025581Y037535D01*
X02579D02*
Y037784D01*
X025665Y03766D01*
X025831D01*
X023402Y037784D02*
X023485D01*
X023444D01*
Y037535D01*
X023402D01*
X023485D01*
X023777Y037743D02*
X023735Y037784D01*
X023652D01*
X02361Y037743D01*
Y037576D01*
X023652Y037535D01*
X023735D01*
X023777Y037576D01*
X02386Y037535D02*
X023944D01*
X023902D01*
Y037784D01*
X02386Y037743D01*
X026306Y033285D02*
Y033534D01*
X026431D01*
X026473Y033493D01*
Y03341D01*
X026431Y033368D01*
X026306D01*
X02639D02*
X026473Y033285D01*
X026556D02*
X02664D01*
X026598D01*
Y033534D01*
X026556Y033493D01*
X020515Y033735D02*
Y033984D01*
X02064D01*
X020681Y033943D01*
Y03386D01*
X02064Y033818D01*
X020515D01*
X020598D02*
X020681Y033735D01*
X020931D02*
X020765D01*
X020931Y033901D01*
Y033943D01*
X02089Y033984D01*
X020806D01*
X020765Y033943D01*
X020031Y038943D02*
X01999Y038984D01*
X019906D01*
X019865Y038943D01*
Y038776D01*
X019906Y038735D01*
X01999D01*
X020031Y038776D01*
X020115D02*
X020156Y038735D01*
X02024D01*
X020281Y038776D01*
Y038943D01*
X02024Y038984D01*
X020156D01*
X020115Y038943D01*
Y038901D01*
X020156Y03886D01*
X020281D01*
X018327Y038943D02*
X018285Y038984D01*
X018202D01*
X018161Y038943D01*
Y038776D01*
X018202Y038735D01*
X018285D01*
X018327Y038776D01*
X01841Y038735D02*
X018494D01*
X018452D01*
Y038984D01*
X01841Y038943D01*
X018744Y038735D02*
Y038984D01*
X018619Y03886D01*
X018785D01*
X04036Y038534D02*
X040277D01*
X040319D01*
Y038326D01*
X040277Y038285D01*
X040235D01*
X040194Y038326D01*
X040444Y038493D02*
X040485Y038534D01*
X040569D01*
X04061Y038493D01*
Y038451D01*
X040569Y03841D01*
X040527D01*
X040569D01*
X04061Y038368D01*
Y038326D01*
X040569Y038285D01*
X040485D01*
X040444Y038326D01*
X049002Y037534D02*
X048919D01*
X04896D01*
Y037326D01*
X048919Y037285D01*
X048877D01*
X048835Y037326D01*
X049085Y037285D02*
X049169D01*
X049127D01*
Y037534D01*
X049085Y037493D01*
X041794Y037535D02*
Y037784D01*
X041919D01*
X04196Y037743D01*
Y03766D01*
X041919Y037618D01*
X041794D01*
X041877D02*
X04196Y037535D01*
X04221Y037784D02*
X042044D01*
Y03766D01*
X042127Y037701D01*
X042169D01*
X04221Y03766D01*
Y037576D01*
X042169Y037535D01*
X042085D01*
X042044Y037576D01*
X03761Y033493D02*
X037569Y033534D01*
X037485D01*
X037444Y033493D01*
Y033326D01*
X037485Y033285D01*
X037569D01*
X03761Y033326D01*
X037694Y033493D02*
X037735Y033534D01*
X037819D01*
X03786Y033493D01*
Y033451D01*
X037819Y03341D01*
X03786Y033368D01*
Y033326D01*
X037819Y033285D01*
X037735D01*
X037694Y033326D01*
Y033368D01*
X037735Y03341D01*
X037694Y033451D01*
Y033493D01*
X037735Y03341D02*
X037819D01*
X04121Y037743D02*
X041169Y037784D01*
X041085D01*
X041044Y037743D01*
Y037576D01*
X041085Y037535D01*
X041169D01*
X04121Y037576D01*
X041294Y037784D02*
X04146D01*
Y037743D01*
X041294Y037576D01*
Y037535D01*
X03731Y034543D02*
X037269Y034584D01*
X037185D01*
X037144Y034543D01*
Y034376D01*
X037185Y034335D01*
X037269D01*
X03731Y034376D01*
X03756Y034584D02*
X037477Y034543D01*
X037394Y03446D01*
Y034376D01*
X037435Y034335D01*
X037519D01*
X03756Y034376D01*
Y034418D01*
X037519Y03446D01*
X037394D01*
X044294Y035684D02*
Y035643D01*
X044377Y03556D01*
X04446Y035643D01*
Y035684D01*
X044377Y03556D02*
Y035435D01*
X04471D02*
X044544D01*
X04471Y035601D01*
Y035643D01*
X044669Y035684D01*
X044585D01*
X044544Y035643D01*
X044335Y036034D02*
Y035826D01*
X044377Y035785D01*
X04446D01*
X044502Y035826D01*
Y036034D01*
X044585Y035785D02*
X044669D01*
X044627D01*
Y036034D01*
X044585Y035993D01*
X043894Y038185D02*
Y038434D01*
X044019D01*
X04406Y038393D01*
Y03831D01*
X044019Y038268D01*
X043894D01*
X043977D02*
X04406Y038185D01*
X044144Y038393D02*
X044185Y038434D01*
X044269D01*
X04431Y038393D01*
Y038351D01*
X044269Y03831D01*
X044227D01*
X044269D01*
X04431Y038268D01*
Y038226D01*
X044269Y038185D01*
X044185D01*
X044144Y038226D01*
X045794Y038034D02*
Y037785D01*
X04596D01*
X046044Y037993D02*
X046085Y038034D01*
X046169D01*
X04621Y037993D01*
Y037951D01*
X046169Y03791D01*
X046127D01*
X046169D01*
X04621Y037868D01*
Y037826D01*
X046169Y037785D01*
X046085D01*
X046044Y037826D01*
X045244Y038034D02*
Y037785D01*
X04541D01*
X04566D02*
X045494D01*
X04566Y037951D01*
Y037993D01*
X045619Y038034D01*
X045535D01*
X045494Y037993D01*
X045285Y036484D02*
Y036235D01*
X045452D01*
X045535D02*
X045619D01*
X045577D01*
Y036484D01*
X045535Y036443D01*
X045606Y038893D02*
X045565Y038934D01*
X045481D01*
X04544Y038893D01*
Y038726D01*
X045481Y038685D01*
X045565D01*
X045606Y038726D01*
X04569Y038685D02*
X045773D01*
X045731D01*
Y038934D01*
X04569Y038893D01*
X046064Y038685D02*
X045898D01*
X046064Y038851D01*
Y038893D01*
X046023Y038934D01*
X045939D01*
X045898Y038893D01*
X042998Y035193D02*
X042956Y035234D01*
X042873D01*
X042831Y035193D01*
Y035026D01*
X042873Y034985D01*
X042956D01*
X042998Y035026D01*
X043081Y034985D02*
X043165D01*
X043123D01*
Y035234D01*
X043081Y035193D01*
X043289Y034985D02*
X043373D01*
X043331D01*
Y035234D01*
X043289Y035193D01*
X04756Y038093D02*
X047519Y038134D01*
X047435D01*
X047394Y038093D01*
Y037926D01*
X047435Y037885D01*
X047519D01*
X04756Y037926D01*
X04781Y038134D02*
X047644D01*
Y03801D01*
X047727Y038051D01*
X047769D01*
X04781Y03801D01*
Y037926D01*
X047769Y037885D01*
X047685D01*
X047644Y037926D01*
X04686Y037993D02*
X046819Y038034D01*
X046735D01*
X046694Y037993D01*
Y037826D01*
X046735Y037785D01*
X046819D01*
X04686Y037826D01*
X047069Y037785D02*
Y038034D01*
X046944Y03791D01*
X04711D01*
X04726Y036543D02*
X047219Y036584D01*
X047135D01*
X047094Y036543D01*
Y036376D01*
X047135Y036335D01*
X047219D01*
X04726Y036376D01*
X047344Y036543D02*
X047385Y036584D01*
X047469D01*
X04751Y036543D01*
Y036501D01*
X047469Y03646D01*
X047427D01*
X047469D01*
X04751Y036418D01*
Y036376D01*
X047469Y036335D01*
X047385D01*
X047344Y036376D01*
X04726Y035943D02*
X047219Y035984D01*
X047135D01*
X047094Y035943D01*
Y035776D01*
X047135Y035735D01*
X047219D01*
X04726Y035776D01*
X04751Y035735D02*
X047344D01*
X04751Y035901D01*
Y035943D01*
X047469Y035984D01*
X047385D01*
X047344Y035943D01*
X043202Y038993D02*
X04316Y039034D01*
X043077D01*
X043035Y038993D01*
Y038826D01*
X043077Y038785D01*
X04316D01*
X043202Y038826D01*
X043285Y038785D02*
X043369D01*
X043327D01*
Y039034D01*
X043285Y038993D01*
X036444Y035284D02*
Y035076D01*
X036485Y035035D01*
X036569D01*
X03661Y035076D01*
Y035284D01*
X03686Y035035D02*
X036694D01*
X03686Y035201D01*
Y035243D01*
X036819Y035284D01*
X036735D01*
X036694Y035243D01*
X042344Y037535D02*
Y037784D01*
X042469D01*
X04251Y037743D01*
Y03766D01*
X042469Y037618D01*
X042344D01*
X042427D02*
X04251Y037535D01*
X042719D02*
Y037784D01*
X042594Y03766D01*
X04276D01*
X040331Y037784D02*
X040415D01*
X040373D01*
Y037535D01*
X040331D01*
X040415D01*
X040706Y037743D02*
X040665Y037784D01*
X040581D01*
X04054Y037743D01*
Y037576D01*
X040581Y037535D01*
X040665D01*
X040706Y037576D01*
X040789Y037535D02*
X040873D01*
X040831D01*
Y037784D01*
X040789Y037743D01*
X043235Y033285D02*
Y033534D01*
X04336D01*
X043402Y033493D01*
Y03341D01*
X04336Y033368D01*
X043235D01*
X043319D02*
X043402Y033285D01*
X043485D02*
X043569D01*
X043527D01*
Y033534D01*
X043485Y033493D01*
X037444Y033735D02*
Y033984D01*
X037569D01*
X03761Y033943D01*
Y03386D01*
X037569Y033818D01*
X037444D01*
X037527D02*
X03761Y033735D01*
X03786D02*
X037694D01*
X03786Y033901D01*
Y033943D01*
X037819Y033984D01*
X037735D01*
X037694Y033943D01*
X03696Y038943D02*
X036919Y038984D01*
X036835D01*
X036794Y038943D01*
Y038776D01*
X036835Y038735D01*
X036919D01*
X03696Y038776D01*
X037044D02*
X037085Y038735D01*
X037169D01*
X03721Y038776D01*
Y038943D01*
X037169Y038984D01*
X037085D01*
X037044Y038943D01*
Y038901D01*
X037085Y03886D01*
X03721D01*
X035256Y038943D02*
X035215Y038984D01*
X035131D01*
X03509Y038943D01*
Y038776D01*
X035131Y038735D01*
X035215D01*
X035256Y038776D01*
X03534Y038735D02*
X035423D01*
X035381D01*
Y038984D01*
X03534Y038943D01*
X035673Y038735D02*
Y038984D01*
X035548Y03886D01*
X035714D01*
X023431Y045031D02*
X023348D01*
X02339D01*
Y044822D01*
X023348Y044781D01*
X023306D01*
X023265Y044822D01*
X023515Y044989D02*
X023556Y045031D01*
X02364D01*
X023681Y044989D01*
Y044947D01*
X02364Y044906D01*
X023598D01*
X02364D01*
X023681Y044864D01*
Y044822D01*
X02364Y044781D01*
X023556D01*
X023515Y044822D01*
X032073Y044031D02*
X03199D01*
X032031D01*
Y043822D01*
X03199Y043781D01*
X031948D01*
X031906Y043822D01*
X032156Y043781D02*
X03224D01*
X032198D01*
Y044031D01*
X032156Y043989D01*
X024865Y044031D02*
Y044281D01*
X02499D01*
X025031Y044239D01*
Y044156D01*
X02499Y044114D01*
X024865D01*
X024948D02*
X025031Y044031D01*
X025281Y044281D02*
X025115D01*
Y044156D01*
X025198Y044197D01*
X02524D01*
X025281Y044156D01*
Y044072D01*
X02524Y044031D01*
X025156D01*
X025115Y044072D01*
X020681Y039989D02*
X02064Y040031D01*
X020556D01*
X020515Y039989D01*
Y039822D01*
X020556Y039781D01*
X02064D01*
X020681Y039822D01*
X020765Y039989D02*
X020806Y040031D01*
X02089D01*
X020931Y039989D01*
Y039947D01*
X02089Y039906D01*
X020931Y039864D01*
Y039822D01*
X02089Y039781D01*
X020806D01*
X020765Y039822D01*
Y039864D01*
X020806Y039906D01*
X020765Y039947D01*
Y039989D01*
X020806Y039906D02*
X02089D01*
X024281Y044239D02*
X02424Y044281D01*
X024156D01*
X024115Y044239D01*
Y044072D01*
X024156Y044031D01*
X02424D01*
X024281Y044072D01*
X024365Y044281D02*
X024531D01*
Y044239D01*
X024365Y044072D01*
Y044031D01*
X020381Y041039D02*
X02034Y041081D01*
X020256D01*
X020215Y041039D01*
Y040872D01*
X020256Y040831D01*
X02034D01*
X020381Y040872D01*
X020631Y041081D02*
X020548Y041039D01*
X020465Y040956D01*
Y040872D01*
X020506Y040831D01*
X02059D01*
X020631Y040872D01*
Y040914D01*
X02059Y040956D01*
X020465D01*
X027365Y042181D02*
Y042139D01*
X027448Y042056D01*
X027531Y042139D01*
Y042181D01*
X027448Y042056D02*
Y041931D01*
X027781D02*
X027615D01*
X027781Y042097D01*
Y042139D01*
X02774Y042181D01*
X027656D01*
X027615Y042139D01*
X027406Y042531D02*
Y042322D01*
X027448Y042281D01*
X027531D01*
X027573Y042322D01*
Y042531D01*
X027656Y042281D02*
X02774D01*
X027698D01*
Y042531D01*
X027656Y042489D01*
X026965Y044681D02*
Y044931D01*
X02709D01*
X027131Y044889D01*
Y044806D01*
X02709Y044764D01*
X026965D01*
X027048D02*
X027131Y044681D01*
X027215Y044889D02*
X027256Y044931D01*
X02734D01*
X027381Y044889D01*
Y044847D01*
X02734Y044806D01*
X027298D01*
X02734D01*
X027381Y044764D01*
Y044722D01*
X02734Y044681D01*
X027256D01*
X027215Y044722D01*
X028865Y044531D02*
Y044281D01*
X029031D01*
X029115Y044489D02*
X029156Y044531D01*
X02924D01*
X029281Y044489D01*
Y044447D01*
X02924Y044406D01*
X029198D01*
X02924D01*
X029281Y044364D01*
Y044322D01*
X02924Y044281D01*
X029156D01*
X029115Y044322D01*
X028315Y044531D02*
Y044281D01*
X028481D01*
X028731D02*
X028565D01*
X028731Y044447D01*
Y044489D01*
X02869Y044531D01*
X028606D01*
X028565Y044489D01*
X028356Y042981D02*
Y042731D01*
X028523D01*
X028606D02*
X02869D01*
X028648D01*
Y042981D01*
X028606Y042939D01*
X028677Y045389D02*
X028635Y045431D01*
X028552D01*
X028511Y045389D01*
Y045222D01*
X028552Y045181D01*
X028635D01*
X028677Y045222D01*
X02876Y045181D02*
X028844D01*
X028802D01*
Y045431D01*
X02876Y045389D01*
X029135Y045181D02*
X028969D01*
X029135Y045347D01*
Y045389D01*
X029094Y045431D01*
X02901D01*
X028969Y045389D01*
X026069Y041689D02*
X026027Y041731D01*
X025944D01*
X025902Y041689D01*
Y041522D01*
X025944Y041481D01*
X026027D01*
X026069Y041522D01*
X026152Y041481D02*
X026235D01*
X026194D01*
Y041731D01*
X026152Y041689D01*
X02636Y041481D02*
X026444D01*
X026402D01*
Y041731D01*
X02636Y041689D01*
X030631Y044589D02*
X03059Y044631D01*
X030506D01*
X030465Y044589D01*
Y044422D01*
X030506Y044381D01*
X03059D01*
X030631Y044422D01*
X030881Y044631D02*
X030715D01*
Y044506D01*
X030798Y044547D01*
X03084D01*
X030881Y044506D01*
Y044422D01*
X03084Y044381D01*
X030756D01*
X030715Y044422D01*
X029931Y044489D02*
X02989Y044531D01*
X029806D01*
X029765Y044489D01*
Y044322D01*
X029806Y044281D01*
X02989D01*
X029931Y044322D01*
X03014Y044281D02*
Y044531D01*
X030015Y044406D01*
X030181D01*
X030331Y043039D02*
X03029Y043081D01*
X030206D01*
X030165Y043039D01*
Y042872D01*
X030206Y042831D01*
X03029D01*
X030331Y042872D01*
X030415Y043039D02*
X030456Y043081D01*
X03054D01*
X030581Y043039D01*
Y042997D01*
X03054Y042956D01*
X030498D01*
X03054D01*
X030581Y042914D01*
Y042872D01*
X03054Y042831D01*
X030456D01*
X030415Y042872D01*
X030331Y042439D02*
X03029Y042481D01*
X030206D01*
X030165Y042439D01*
Y042272D01*
X030206Y042231D01*
X03029D01*
X030331Y042272D01*
X030581Y042231D02*
X030415D01*
X030581Y042397D01*
Y042439D01*
X03054Y042481D01*
X030456D01*
X030415Y042439D01*
X026273Y045489D02*
X026231Y045531D01*
X026148D01*
X026106Y045489D01*
Y045322D01*
X026148Y045281D01*
X026231D01*
X026273Y045322D01*
X026356Y045281D02*
X02644D01*
X026398D01*
Y045531D01*
X026356Y045489D01*
X019515Y041781D02*
Y041572D01*
X019556Y041531D01*
X01964D01*
X019681Y041572D01*
Y041781D01*
X019931Y041531D02*
X019765D01*
X019931Y041697D01*
Y041739D01*
X01989Y041781D01*
X019806D01*
X019765Y041739D01*
X025415Y044031D02*
Y044281D01*
X02554D01*
X025581Y044239D01*
Y044156D01*
X02554Y044114D01*
X025415D01*
X025498D02*
X025581Y044031D01*
X02579D02*
Y044281D01*
X025665Y044156D01*
X025831D01*
X023402Y044281D02*
X023485D01*
X023444D01*
Y044031D01*
X023402D01*
X023485D01*
X023777Y044239D02*
X023735Y044281D01*
X023652D01*
X02361Y044239D01*
Y044072D01*
X023652Y044031D01*
X023735D01*
X023777Y044072D01*
X02386Y044031D02*
X023944D01*
X023902D01*
Y044281D01*
X02386Y044239D01*
X026306Y039781D02*
Y040031D01*
X026431D01*
X026473Y039989D01*
Y039906D01*
X026431Y039864D01*
X026306D01*
X02639D02*
X026473Y039781D01*
X026556D02*
X02664D01*
X026598D01*
Y040031D01*
X026556Y039989D01*
X020515Y040231D02*
Y040481D01*
X02064D01*
X020681Y040439D01*
Y040356D01*
X02064Y040314D01*
X020515D01*
X020598D02*
X020681Y040231D01*
X020931D02*
X020765D01*
X020931Y040397D01*
Y040439D01*
X02089Y040481D01*
X020806D01*
X020765Y040439D01*
X020031Y045439D02*
X01999Y045481D01*
X019906D01*
X019865Y045439D01*
Y045272D01*
X019906Y045231D01*
X01999D01*
X020031Y045272D01*
X020115D02*
X020156Y045231D01*
X02024D01*
X020281Y045272D01*
Y045439D01*
X02024Y045481D01*
X020156D01*
X020115Y045439D01*
Y045397D01*
X020156Y045356D01*
X020281D01*
X018327Y045439D02*
X018285Y045481D01*
X018202D01*
X018161Y045439D01*
Y045272D01*
X018202Y045231D01*
X018285D01*
X018327Y045272D01*
X01841Y045231D02*
X018494D01*
X018452D01*
Y045481D01*
X01841Y045439D01*
X018744Y045231D02*
Y045481D01*
X018619Y045356D01*
X018785D01*
X04036Y045031D02*
X040277D01*
X040319D01*
Y044822D01*
X040277Y044781D01*
X040235D01*
X040194Y044822D01*
X040444Y044989D02*
X040485Y045031D01*
X040569D01*
X04061Y044989D01*
Y044947D01*
X040569Y044906D01*
X040527D01*
X040569D01*
X04061Y044864D01*
Y044822D01*
X040569Y044781D01*
X040485D01*
X040444Y044822D01*
X049002Y044031D02*
X048919D01*
X04896D01*
Y043822D01*
X048919Y043781D01*
X048877D01*
X048835Y043822D01*
X049085Y043781D02*
X049169D01*
X049127D01*
Y044031D01*
X049085Y043989D01*
X041794Y044031D02*
Y044281D01*
X041919D01*
X04196Y044239D01*
Y044156D01*
X041919Y044114D01*
X041794D01*
X041877D02*
X04196Y044031D01*
X04221Y044281D02*
X042044D01*
Y044156D01*
X042127Y044197D01*
X042169D01*
X04221Y044156D01*
Y044072D01*
X042169Y044031D01*
X042085D01*
X042044Y044072D01*
X03761Y039989D02*
X037569Y040031D01*
X037485D01*
X037444Y039989D01*
Y039822D01*
X037485Y039781D01*
X037569D01*
X03761Y039822D01*
X037694Y039989D02*
X037735Y040031D01*
X037819D01*
X03786Y039989D01*
Y039947D01*
X037819Y039906D01*
X03786Y039864D01*
Y039822D01*
X037819Y039781D01*
X037735D01*
X037694Y039822D01*
Y039864D01*
X037735Y039906D01*
X037694Y039947D01*
Y039989D01*
X037735Y039906D02*
X037819D01*
X04121Y044239D02*
X041169Y044281D01*
X041085D01*
X041044Y044239D01*
Y044072D01*
X041085Y044031D01*
X041169D01*
X04121Y044072D01*
X041294Y044281D02*
X04146D01*
Y044239D01*
X041294Y044072D01*
Y044031D01*
X03731Y041039D02*
X037269Y041081D01*
X037185D01*
X037144Y041039D01*
Y040872D01*
X037185Y040831D01*
X037269D01*
X03731Y040872D01*
X03756Y041081D02*
X037477Y041039D01*
X037394Y040956D01*
Y040872D01*
X037435Y040831D01*
X037519D01*
X03756Y040872D01*
Y040914D01*
X037519Y040956D01*
X037394D01*
X044294Y042181D02*
Y042139D01*
X044377Y042056D01*
X04446Y042139D01*
Y042181D01*
X044377Y042056D02*
Y041931D01*
X04471D02*
X044544D01*
X04471Y042097D01*
Y042139D01*
X044669Y042181D01*
X044585D01*
X044544Y042139D01*
X044335Y042531D02*
Y042322D01*
X044377Y042281D01*
X04446D01*
X044502Y042322D01*
Y042531D01*
X044585Y042281D02*
X044669D01*
X044627D01*
Y042531D01*
X044585Y042489D01*
X043894Y044681D02*
Y044931D01*
X044019D01*
X04406Y044889D01*
Y044806D01*
X044019Y044764D01*
X043894D01*
X043977D02*
X04406Y044681D01*
X044144Y044889D02*
X044185Y044931D01*
X044269D01*
X04431Y044889D01*
Y044847D01*
X044269Y044806D01*
X044227D01*
X044269D01*
X04431Y044764D01*
Y044722D01*
X044269Y044681D01*
X044185D01*
X044144Y044722D01*
X045794Y044531D02*
Y044281D01*
X04596D01*
X046044Y044489D02*
X046085Y044531D01*
X046169D01*
X04621Y044489D01*
Y044447D01*
X046169Y044406D01*
X046127D01*
X046169D01*
X04621Y044364D01*
Y044322D01*
X046169Y044281D01*
X046085D01*
X046044Y044322D01*
X045244Y044531D02*
Y044281D01*
X04541D01*
X04566D02*
X045494D01*
X04566Y044447D01*
Y044489D01*
X045619Y044531D01*
X045535D01*
X045494Y044489D01*
X045285Y042981D02*
Y042731D01*
X045452D01*
X045535D02*
X045619D01*
X045577D01*
Y042981D01*
X045535Y042939D01*
X045606Y045389D02*
X045565Y045431D01*
X045481D01*
X04544Y045389D01*
Y045222D01*
X045481Y045181D01*
X045565D01*
X045606Y045222D01*
X04569Y045181D02*
X045773D01*
X045731D01*
Y045431D01*
X04569Y045389D01*
X046064Y045181D02*
X045898D01*
X046064Y045347D01*
Y045389D01*
X046023Y045431D01*
X045939D01*
X045898Y045389D01*
X042998Y041689D02*
X042956Y041731D01*
X042873D01*
X042831Y041689D01*
Y041522D01*
X042873Y041481D01*
X042956D01*
X042998Y041522D01*
X043081Y041481D02*
X043165D01*
X043123D01*
Y041731D01*
X043081Y041689D01*
X043289Y041481D02*
X043373D01*
X043331D01*
Y041731D01*
X043289Y041689D01*
X04756Y044589D02*
X047519Y044631D01*
X047435D01*
X047394Y044589D01*
Y044422D01*
X047435Y044381D01*
X047519D01*
X04756Y044422D01*
X04781Y044631D02*
X047644D01*
Y044506D01*
X047727Y044547D01*
X047769D01*
X04781Y044506D01*
Y044422D01*
X047769Y044381D01*
X047685D01*
X047644Y044422D01*
X04686Y044489D02*
X046819Y044531D01*
X046735D01*
X046694Y044489D01*
Y044322D01*
X046735Y044281D01*
X046819D01*
X04686Y044322D01*
X047069Y044281D02*
Y044531D01*
X046944Y044406D01*
X04711D01*
X04726Y043039D02*
X047219Y043081D01*
X047135D01*
X047094Y043039D01*
Y042872D01*
X047135Y042831D01*
X047219D01*
X04726Y042872D01*
X047344Y043039D02*
X047385Y043081D01*
X047469D01*
X04751Y043039D01*
Y042997D01*
X047469Y042956D01*
X047427D01*
X047469D01*
X04751Y042914D01*
Y042872D01*
X047469Y042831D01*
X047385D01*
X047344Y042872D01*
X04726Y042439D02*
X047219Y042481D01*
X047135D01*
X047094Y042439D01*
Y042272D01*
X047135Y042231D01*
X047219D01*
X04726Y042272D01*
X04751Y042231D02*
X047344D01*
X04751Y042397D01*
Y042439D01*
X047469Y042481D01*
X047385D01*
X047344Y042439D01*
X043202Y045489D02*
X04316Y045531D01*
X043077D01*
X043035Y045489D01*
Y045322D01*
X043077Y045281D01*
X04316D01*
X043202Y045322D01*
X043285Y045281D02*
X043369D01*
X043327D01*
Y045531D01*
X043285Y045489D01*
X036444Y041781D02*
Y041572D01*
X036485Y041531D01*
X036569D01*
X03661Y041572D01*
Y041781D01*
X03686Y041531D02*
X036694D01*
X03686Y041697D01*
Y041739D01*
X036819Y041781D01*
X036735D01*
X036694Y041739D01*
X042344Y044031D02*
Y044281D01*
X042469D01*
X04251Y044239D01*
Y044156D01*
X042469Y044114D01*
X042344D01*
X042427D02*
X04251Y044031D01*
X042719D02*
Y044281D01*
X042594Y044156D01*
X04276D01*
X040331Y044281D02*
X040415D01*
X040373D01*
Y044031D01*
X040331D01*
X040415D01*
X040706Y044239D02*
X040665Y044281D01*
X040581D01*
X04054Y044239D01*
Y044072D01*
X040581Y044031D01*
X040665D01*
X040706Y044072D01*
X040789Y044031D02*
X040873D01*
X040831D01*
Y044281D01*
X040789Y044239D01*
X043235Y039781D02*
Y040031D01*
X04336D01*
X043402Y039989D01*
Y039906D01*
X04336Y039864D01*
X043235D01*
X043319D02*
X043402Y039781D01*
X043485D02*
X043569D01*
X043527D01*
Y040031D01*
X043485Y039989D01*
X037444Y040231D02*
Y040481D01*
X037569D01*
X03761Y040439D01*
Y040356D01*
X037569Y040314D01*
X037444D01*
X037527D02*
X03761Y040231D01*
X03786D02*
X037694D01*
X03786Y040397D01*
Y040439D01*
X037819Y040481D01*
X037735D01*
X037694Y040439D01*
X03696Y045439D02*
X036919Y045481D01*
X036835D01*
X036794Y045439D01*
Y045272D01*
X036835Y045231D01*
X036919D01*
X03696Y045272D01*
X037044D02*
X037085Y045231D01*
X037169D01*
X03721Y045272D01*
Y045439D01*
X037169Y045481D01*
X037085D01*
X037044Y045439D01*
Y045397D01*
X037085Y045356D01*
X03721D01*
X035256Y045439D02*
X035215Y045481D01*
X035131D01*
X03509Y045439D01*
Y045272D01*
X035131Y045231D01*
X035215D01*
X035256Y045272D01*
X03534Y045231D02*
X035423D01*
X035381D01*
Y045481D01*
X03534Y045439D01*
X035673Y045231D02*
Y045481D01*
X035548Y045356D01*
X035714D01*
M02*
