G04*
G04 #@! TF.GenerationSoftware,Altium Limited,Altium Designer,22.10.1 (41)*
G04*
G04 Layer_Color=16711935*
%FSTAX24Y24*%
%MOIN*%
G70*
G04*
G04 #@! TF.SameCoordinates,5BB37C8D-2695-4AAB-85CC-B91A701228BC*
G04*
G04*
G04 #@! TF.FilePolarity,Positive*
G04*
G01*
G75*
%ADD52C,0.0079*%
%ADD54C,0.0059*%
%ADD55C,0.0050*%
%ADD88C,0.0039*%
%ADD93R,0.0669X0.0331*%
D52*
X032117Y016621D02*
G03*
X032117Y016621I-000039J0D01*
G01*
X028212Y015021D02*
G03*
X028212Y015021I-000039J0D01*
G01*
X023362Y019421D02*
G03*
X023362Y019421I-000039J0D01*
G01*
X026219Y01805D02*
G03*
X026219Y01805I-000039J0D01*
G01*
X020836Y017369D02*
G03*
X020836Y017369I-000039J0D01*
G01*
X019668Y017345D02*
G03*
X019668Y017345I-000039J0D01*
G01*
X0233Y014759D02*
G03*
X0233Y014759I-000039J0D01*
G01*
X049047Y016621D02*
G03*
X049047Y016621I-000039J0D01*
G01*
X045141Y015021D02*
G03*
X045141Y015021I-000039J0D01*
G01*
X040291Y019421D02*
G03*
X040291Y019421I-000039J0D01*
G01*
X043148Y01805D02*
G03*
X043148Y01805I-000039J0D01*
G01*
X037765Y017369D02*
G03*
X037765Y017369I-000039J0D01*
G01*
X036597Y017345D02*
G03*
X036597Y017345I-000039J0D01*
G01*
X040229Y014759D02*
G03*
X040229Y014759I-000039J0D01*
G01*
X032117Y023117D02*
G03*
X032117Y023117I-000039J0D01*
G01*
X028212Y021517D02*
G03*
X028212Y021517I-000039J0D01*
G01*
X023362Y025917D02*
G03*
X023362Y025917I-000039J0D01*
G01*
X026219Y024546D02*
G03*
X026219Y024546I-000039J0D01*
G01*
X020836Y023865D02*
G03*
X020836Y023865I-000039J0D01*
G01*
X019668Y023841D02*
G03*
X019668Y023841I-000039J0D01*
G01*
X0233Y021255D02*
G03*
X0233Y021255I-000039J0D01*
G01*
X049047Y023117D02*
G03*
X049047Y023117I-000039J0D01*
G01*
X045141Y021517D02*
G03*
X045141Y021517I-000039J0D01*
G01*
X040291Y025917D02*
G03*
X040291Y025917I-000039J0D01*
G01*
X043148Y024546D02*
G03*
X043148Y024546I-000039J0D01*
G01*
X037765Y023865D02*
G03*
X037765Y023865I-000039J0D01*
G01*
X036597Y023841D02*
G03*
X036597Y023841I-000039J0D01*
G01*
X040229Y021255D02*
G03*
X040229Y021255I-000039J0D01*
G01*
X032117Y029613D02*
G03*
X032117Y029613I-000039J0D01*
G01*
X028212Y028013D02*
G03*
X028212Y028013I-000039J0D01*
G01*
X023362Y032413D02*
G03*
X023362Y032413I-000039J0D01*
G01*
X026219Y031042D02*
G03*
X026219Y031042I-000039J0D01*
G01*
X020836Y030361D02*
G03*
X020836Y030361I-000039J0D01*
G01*
X019668Y030337D02*
G03*
X019668Y030337I-000039J0D01*
G01*
X0233Y027751D02*
G03*
X0233Y027751I-000039J0D01*
G01*
X049047Y029613D02*
G03*
X049047Y029613I-000039J0D01*
G01*
X045141Y028013D02*
G03*
X045141Y028013I-000039J0D01*
G01*
X040291Y032413D02*
G03*
X040291Y032413I-000039J0D01*
G01*
X043148Y031042D02*
G03*
X043148Y031042I-000039J0D01*
G01*
X037765Y030361D02*
G03*
X037765Y030361I-000039J0D01*
G01*
X036597Y030337D02*
G03*
X036597Y030337I-000039J0D01*
G01*
X040229Y027751D02*
G03*
X040229Y027751I-000039J0D01*
G01*
X032117Y03611D02*
G03*
X032117Y03611I-000039J0D01*
G01*
X028212Y03451D02*
G03*
X028212Y03451I-000039J0D01*
G01*
X023362Y03891D02*
G03*
X023362Y03891I-000039J0D01*
G01*
X026219Y037538D02*
G03*
X026219Y037538I-000039J0D01*
G01*
X020836Y036857D02*
G03*
X020836Y036857I-000039J0D01*
G01*
X019668Y036834D02*
G03*
X019668Y036834I-000039J0D01*
G01*
X0233Y034247D02*
G03*
X0233Y034247I-000039J0D01*
G01*
X049047Y03611D02*
G03*
X049047Y03611I-000039J0D01*
G01*
X045141Y03451D02*
G03*
X045141Y03451I-000039J0D01*
G01*
X040291Y03891D02*
G03*
X040291Y03891I-000039J0D01*
G01*
X043148Y037538D02*
G03*
X043148Y037538I-000039J0D01*
G01*
X037765Y036857D02*
G03*
X037765Y036857I-000039J0D01*
G01*
X036597Y036834D02*
G03*
X036597Y036834I-000039J0D01*
G01*
X040229Y034247D02*
G03*
X040229Y034247I-000039J0D01*
G01*
X032117Y042606D02*
G03*
X032117Y042606I-000039J0D01*
G01*
X028212Y041006D02*
G03*
X028212Y041006I-000039J0D01*
G01*
X023362Y045406D02*
G03*
X023362Y045406I-000039J0D01*
G01*
X026219Y044034D02*
G03*
X026219Y044034I-000039J0D01*
G01*
X020836Y043353D02*
G03*
X020836Y043353I-000039J0D01*
G01*
X019668Y04333D02*
G03*
X019668Y04333I-000039J0D01*
G01*
X0233Y040743D02*
G03*
X0233Y040743I-000039J0D01*
G01*
X049047Y042606D02*
G03*
X049047Y042606I-000039J0D01*
G01*
X045141Y041006D02*
G03*
X045141Y041006I-000039J0D01*
G01*
X040291Y045406D02*
G03*
X040291Y045406I-000039J0D01*
G01*
X043148Y044034D02*
G03*
X043148Y044034I-000039J0D01*
G01*
X037765Y043353D02*
G03*
X037765Y043353I-000039J0D01*
G01*
X036597Y04333D02*
G03*
X036597Y04333I-000039J0D01*
G01*
X040229Y040743D02*
G03*
X040229Y040743I-000039J0D01*
G01*
D54*
X011352Y014223D02*
X019148Y014223D01*
X011352D02*
X011352Y018948D01*
X019148D01*
X028282Y014223D02*
X036077Y014223D01*
X028282D02*
X028282Y018948D01*
X036077D01*
X011352Y020719D02*
X019148Y020719D01*
X011352D02*
X011352Y025444D01*
X019148D01*
X028282Y020719D02*
X036077Y020719D01*
X028282D02*
X028282Y025444D01*
X036077D01*
X011352Y027215D02*
X019148Y027215D01*
X011352D02*
X011352Y03194D01*
X019148D01*
X028282Y027215D02*
X036077Y027215D01*
X028282D02*
X028282Y03194D01*
X036077D01*
X011352Y033711D02*
X019148Y033711D01*
X011352D02*
X011352Y038436D01*
X019148D01*
X028282Y033711D02*
X036077Y033711D01*
X028282D02*
X028282Y038436D01*
X036077D01*
X011352Y040208D02*
X019148Y040208D01*
X011352D02*
X011352Y044932D01*
X019148D01*
X028282Y040208D02*
X036077Y040208D01*
X028282D02*
X028282Y044932D01*
X036077D01*
D55*
X034361Y017871D02*
X03746D01*
Y015371D02*
Y017871D01*
X034361Y015371D02*
X03746D01*
X033712D02*
X034361D01*
Y017871D01*
X033712D02*
X034361D01*
X033712Y015371D02*
Y017871D01*
X026893Y015165D02*
X028153D01*
X026893D02*
Y015677D01*
X028153D01*
Y015165D02*
Y015677D01*
X021586Y018034D02*
X02316D01*
X021586D02*
X02316D01*
Y019609D01*
X021586D02*
X02316D01*
X021586Y018034D02*
Y019609D01*
X026479Y016766D02*
Y018341D01*
X028054Y016766D02*
Y018341D01*
X026479D02*
X028054D01*
X026479Y016766D02*
X028054D01*
X020794Y018006D02*
Y018636D01*
X019652D02*
X020794D01*
X019652Y018006D02*
Y018636D01*
Y018006D02*
X020794D01*
X019903Y017147D02*
X020543Y017147D01*
Y015996D02*
Y017147D01*
X019903Y015996D02*
X020543Y015996D01*
X019903Y015996D02*
Y017147D01*
X023608Y014745D02*
X024499Y015636D01*
X024137Y015998D02*
X024499Y015636D01*
X023247Y015107D02*
X024137Y015998D01*
X023247Y015107D02*
X023608Y014745D01*
X051291Y017871D02*
X054389D01*
Y015371D02*
Y017871D01*
X051291Y015371D02*
X054389D01*
X050641D02*
X051291D01*
Y017871D01*
X050641D02*
X051291D01*
X050641Y015371D02*
Y017871D01*
X043822Y015165D02*
X045082D01*
X043822D02*
Y015677D01*
X045082D01*
Y015165D02*
Y015677D01*
X038515Y018034D02*
X040089D01*
X038515D02*
X040089D01*
Y019609D01*
X038515D02*
X040089D01*
X038515Y018034D02*
Y019609D01*
X043408Y016766D02*
Y018341D01*
X044983Y016766D02*
Y018341D01*
X043408D02*
X044983D01*
X043408Y016766D02*
X044983D01*
X037723Y018006D02*
Y018636D01*
X036581D02*
X037723D01*
X036581Y018006D02*
Y018636D01*
Y018006D02*
X037723D01*
X036832Y017147D02*
X037472Y017147D01*
Y015996D02*
Y017147D01*
X036832Y015996D02*
X037472Y015996D01*
X036832Y015996D02*
Y017147D01*
X040538Y014745D02*
X041428Y015636D01*
X041067Y015998D02*
X041428Y015636D01*
X040176Y015107D02*
X041067Y015998D01*
X040176Y015107D02*
X040538Y014745D01*
X034361Y024367D02*
X03746D01*
Y021867D02*
Y024367D01*
X034361Y021867D02*
X03746D01*
X033712D02*
X034361D01*
Y024367D01*
X033712D02*
X034361D01*
X033712Y021867D02*
Y024367D01*
X026893Y021661D02*
X028153D01*
X026893D02*
Y022173D01*
X028153D01*
Y021661D02*
Y022173D01*
X021586Y02453D02*
X02316D01*
X021586D02*
X02316D01*
Y026105D01*
X021586D02*
X02316D01*
X021586Y02453D02*
Y026105D01*
X026479Y023262D02*
Y024837D01*
X028054Y023262D02*
Y024837D01*
X026479D02*
X028054D01*
X026479Y023262D02*
X028054D01*
X020794Y024502D02*
Y025132D01*
X019652D02*
X020794D01*
X019652Y024502D02*
Y025132D01*
Y024502D02*
X020794D01*
X019903Y023643D02*
X020543Y023643D01*
Y022492D02*
Y023643D01*
X019903Y022492D02*
X020543Y022492D01*
X019903Y022492D02*
Y023643D01*
X023608Y021241D02*
X024499Y022132D01*
X024137Y022494D02*
X024499Y022132D01*
X023247Y021603D02*
X024137Y022494D01*
X023247Y021603D02*
X023608Y021241D01*
X051291Y024367D02*
X054389D01*
Y021867D02*
Y024367D01*
X051291Y021867D02*
X054389D01*
X050641D02*
X051291D01*
Y024367D01*
X050641D02*
X051291D01*
X050641Y021867D02*
Y024367D01*
X043822Y021661D02*
X045082D01*
X043822D02*
Y022173D01*
X045082D01*
Y021661D02*
Y022173D01*
X038515Y02453D02*
X040089D01*
X038515D02*
X040089D01*
Y026105D01*
X038515D02*
X040089D01*
X038515Y02453D02*
Y026105D01*
X043408Y023262D02*
Y024837D01*
X044983Y023262D02*
Y024837D01*
X043408D02*
X044983D01*
X043408Y023262D02*
X044983D01*
X037723Y024502D02*
Y025132D01*
X036581D02*
X037723D01*
X036581Y024502D02*
Y025132D01*
Y024502D02*
X037723D01*
X036832Y023643D02*
X037472Y023643D01*
Y022492D02*
Y023643D01*
X036832Y022492D02*
X037472Y022492D01*
X036832Y022492D02*
Y023643D01*
X040538Y021241D02*
X041428Y022132D01*
X041067Y022494D02*
X041428Y022132D01*
X040176Y021603D02*
X041067Y022494D01*
X040176Y021603D02*
X040538Y021241D01*
X034361Y030863D02*
X03746D01*
Y028363D02*
Y030863D01*
X034361Y028363D02*
X03746D01*
X033712D02*
X034361D01*
Y030863D01*
X033712D02*
X034361D01*
X033712Y028363D02*
Y030863D01*
X026893Y028158D02*
X028153D01*
X026893D02*
Y028669D01*
X028153D01*
Y028158D02*
Y028669D01*
X021586Y031026D02*
X02316D01*
X021586D02*
X02316D01*
Y032601D01*
X021586D02*
X02316D01*
X021586Y031026D02*
Y032601D01*
X026479Y029758D02*
Y031333D01*
X028054Y029758D02*
Y031333D01*
X026479D02*
X028054D01*
X026479Y029758D02*
X028054D01*
X020794Y030998D02*
Y031628D01*
X019652D02*
X020794D01*
X019652Y030998D02*
Y031628D01*
Y030998D02*
X020794D01*
X019903Y030139D02*
X020543Y030139D01*
Y028988D02*
Y030139D01*
X019903Y028988D02*
X020543Y028988D01*
X019903Y028988D02*
Y030139D01*
X023608Y027737D02*
X024499Y028628D01*
X024137Y02899D02*
X024499Y028628D01*
X023247Y028099D02*
X024137Y02899D01*
X023247Y028099D02*
X023608Y027737D01*
X051291Y030863D02*
X054389D01*
Y028363D02*
Y030863D01*
X051291Y028363D02*
X054389D01*
X050641D02*
X051291D01*
Y030863D01*
X050641D02*
X051291D01*
X050641Y028363D02*
Y030863D01*
X043822Y028158D02*
X045082D01*
X043822D02*
Y028669D01*
X045082D01*
Y028158D02*
Y028669D01*
X038515Y031026D02*
X040089D01*
X038515D02*
X040089D01*
Y032601D01*
X038515D02*
X040089D01*
X038515Y031026D02*
Y032601D01*
X043408Y029758D02*
Y031333D01*
X044983Y029758D02*
Y031333D01*
X043408D02*
X044983D01*
X043408Y029758D02*
X044983D01*
X037723Y030998D02*
Y031628D01*
X036581D02*
X037723D01*
X036581Y030998D02*
Y031628D01*
Y030998D02*
X037723D01*
X036832Y030139D02*
X037472Y030139D01*
Y028988D02*
Y030139D01*
X036832Y028988D02*
X037472Y028988D01*
X036832Y028988D02*
Y030139D01*
X040538Y027737D02*
X041428Y028628D01*
X041067Y02899D02*
X041428Y028628D01*
X040176Y028099D02*
X041067Y02899D01*
X040176Y028099D02*
X040538Y027737D01*
X034361Y03736D02*
X03746D01*
Y03486D02*
Y03736D01*
X034361Y03486D02*
X03746D01*
X033712D02*
X034361D01*
Y03736D01*
X033712D02*
X034361D01*
X033712Y03486D02*
Y03736D01*
X026893Y034654D02*
X028153D01*
X026893D02*
Y035165D01*
X028153D01*
Y034654D02*
Y035165D01*
X021586Y037522D02*
X02316D01*
X021586D02*
X02316D01*
Y039097D01*
X021586D02*
X02316D01*
X021586Y037522D02*
Y039097D01*
X026479Y036254D02*
Y037829D01*
X028054Y036254D02*
Y037829D01*
X026479D02*
X028054D01*
X026479Y036254D02*
X028054D01*
X020794Y037495D02*
Y038124D01*
X019652D02*
X020794D01*
X019652Y037495D02*
Y038124D01*
Y037495D02*
X020794D01*
X019903Y036635D02*
X020543Y036635D01*
Y035484D02*
Y036635D01*
X019903Y035484D02*
X020543Y035484D01*
X019903Y035484D02*
Y036635D01*
X023608Y034233D02*
X024499Y035124D01*
X024137Y035486D02*
X024499Y035124D01*
X023247Y034595D02*
X024137Y035486D01*
X023247Y034595D02*
X023608Y034233D01*
X051291Y03736D02*
X054389D01*
Y03486D02*
Y03736D01*
X051291Y03486D02*
X054389D01*
X050641D02*
X051291D01*
Y03736D01*
X050641D02*
X051291D01*
X050641Y03486D02*
Y03736D01*
X043822Y034654D02*
X045082D01*
X043822D02*
Y035165D01*
X045082D01*
Y034654D02*
Y035165D01*
X038515Y037522D02*
X040089D01*
X038515D02*
X040089D01*
Y039097D01*
X038515D02*
X040089D01*
X038515Y037522D02*
Y039097D01*
X043408Y036254D02*
Y037829D01*
X044983Y036254D02*
Y037829D01*
X043408D02*
X044983D01*
X043408Y036254D02*
X044983D01*
X037723Y037495D02*
Y038124D01*
X036581D02*
X037723D01*
X036581Y037495D02*
Y038124D01*
Y037495D02*
X037723D01*
X036832Y036635D02*
X037472Y036635D01*
Y035484D02*
Y036635D01*
X036832Y035484D02*
X037472Y035484D01*
X036832Y035484D02*
Y036635D01*
X040538Y034233D02*
X041428Y035124D01*
X041067Y035486D02*
X041428Y035124D01*
X040176Y034595D02*
X041067Y035486D01*
X040176Y034595D02*
X040538Y034233D01*
X034361Y043856D02*
X03746D01*
Y041356D02*
Y043856D01*
X034361Y041356D02*
X03746D01*
X033712D02*
X034361D01*
Y043856D01*
X033712D02*
X034361D01*
X033712Y041356D02*
Y043856D01*
X026893Y04115D02*
X028153D01*
X026893D02*
Y041661D01*
X028153D01*
Y04115D02*
Y041661D01*
X021586Y044018D02*
X02316D01*
X021586D02*
X02316D01*
Y045593D01*
X021586D02*
X02316D01*
X021586Y044018D02*
Y045593D01*
X026479Y04275D02*
Y044325D01*
X028054Y04275D02*
Y044325D01*
X026479D02*
X028054D01*
X026479Y04275D02*
X028054D01*
X020794Y043991D02*
Y044621D01*
X019652D02*
X020794D01*
X019652Y043991D02*
Y044621D01*
Y043991D02*
X020794D01*
X019903Y043131D02*
X020543Y043131D01*
Y04198D02*
Y043131D01*
X019903Y04198D02*
X020543Y04198D01*
X019903Y04198D02*
Y043131D01*
X023608Y040729D02*
X024499Y04162D01*
X024137Y041982D02*
X024499Y04162D01*
X023247Y041091D02*
X024137Y041982D01*
X023247Y041091D02*
X023608Y040729D01*
X051291Y043856D02*
X054389D01*
Y041356D02*
Y043856D01*
X051291Y041356D02*
X054389D01*
X050641D02*
X051291D01*
Y043856D01*
X050641D02*
X051291D01*
X050641Y041356D02*
Y043856D01*
X043822Y04115D02*
X045082D01*
X043822D02*
Y041661D01*
X045082D01*
Y04115D02*
Y041661D01*
X038515Y044018D02*
X040089D01*
X038515D02*
X040089D01*
Y045593D01*
X038515D02*
X040089D01*
X038515Y044018D02*
Y045593D01*
X043408Y04275D02*
Y044325D01*
X044983Y04275D02*
Y044325D01*
X043408D02*
X044983D01*
X043408Y04275D02*
X044983D01*
X037723Y043991D02*
Y044621D01*
X036581D02*
X037723D01*
X036581Y043991D02*
Y044621D01*
Y043991D02*
X037723D01*
X036832Y043131D02*
X037472Y043131D01*
Y04198D02*
Y043131D01*
X036832Y04198D02*
X037472Y04198D01*
X036832Y04198D02*
Y043131D01*
X040538Y040729D02*
X041428Y04162D01*
X041067Y041982D02*
X041428Y04162D01*
X040176Y041091D02*
X041067Y041982D01*
X040176Y041091D02*
X040538Y040729D01*
D88*
X02392Y014374D02*
G03*
X02392Y014374I-000197J0D01*
G01*
X017258Y018948D02*
X017258Y014223D01*
X026694Y015956D02*
X026839Y0161D01*
X026407Y016242D02*
X026552Y016387D01*
X026407Y016242D02*
X026694Y015956D01*
X026552Y016387D02*
X026839Y0161D01*
X028921Y016845D02*
X029125D01*
X028921Y017251D02*
X029125D01*
X028921Y016845D02*
Y017251D01*
X029125Y016845D02*
Y017251D01*
X02897Y017569D02*
Y017774D01*
X029376Y017569D02*
Y017774D01*
X02897D02*
X029376D01*
X02897Y017569D02*
X029376D01*
X02947Y016974D02*
X029876D01*
X02947Y016769D02*
X029876D01*
X02947D02*
Y016974D01*
X029876Y016769D02*
Y016974D01*
X02947Y016524D02*
X029876D01*
X02947Y016319D02*
X029876D01*
X02947D02*
Y016524D01*
X029876Y016319D02*
Y016524D01*
X028421Y017295D02*
X028625D01*
X028421Y017701D02*
X028625D01*
X028421Y017295D02*
Y017701D01*
X028625Y017295D02*
Y017701D01*
X030226Y017569D02*
Y017774D01*
X02982Y017569D02*
Y017774D01*
Y017569D02*
X030226Y017569D01*
X02982Y017774D02*
X030226Y017774D01*
X030571Y017669D02*
X030775D01*
X030571Y018074D02*
X030775D01*
X030571Y017669D02*
X030571Y018074D01*
X030775D02*
X030775Y017669D01*
X028121Y019324D02*
X028325D01*
X028121Y018919D02*
X028325D01*
Y019324D01*
X028121Y018919D02*
Y019324D01*
X027615Y018915D02*
Y019328D01*
X027831Y018915D02*
Y019328D01*
X027615Y018915D02*
X027831D01*
X027615Y019328D02*
X027831D01*
X026357Y0189D02*
X026502Y018756D01*
X026644Y019187D02*
X026789Y019042D01*
X026357Y0189D02*
X026644Y019187D01*
X026502Y018756D02*
X026789Y019042D01*
X025515Y019228D02*
X025731Y019228D01*
X025515Y018815D02*
X025731Y018815D01*
Y019228D01*
X025515Y018815D02*
Y019228D01*
X024836Y019316D02*
X02521D01*
X024836Y018627D02*
X02521D01*
Y019316D01*
X024836Y018627D02*
Y019316D01*
Y018632D02*
X02521D01*
X024836Y019321D02*
X02521D01*
Y018632D02*
Y019321D01*
X024836Y018632D02*
Y019321D01*
X020836Y014927D02*
X02121D01*
X020836Y015616D02*
X02121D01*
Y014927D02*
Y015616D01*
X020836Y014927D02*
Y015616D01*
X020583Y018634D02*
Y019008D01*
X019894Y018634D02*
Y019008D01*
Y018634D02*
X020583D01*
X019894Y019008D02*
X020583D01*
X02456Y018677D02*
Y019366D01*
X024186Y018677D02*
Y019366D01*
X02456D01*
X024186Y018677D02*
X02456D01*
X021416Y014363D02*
X02183D01*
X021416Y01458D02*
X02183D01*
X02183Y014363D02*
X02183Y01458D01*
X021416Y014363D02*
X021416Y01458D01*
X025228Y013734D02*
X025917D01*
X025228Y014108D02*
X025917D01*
Y013734D02*
Y014108D01*
X025228Y013734D02*
Y014108D01*
X023723Y013873D02*
X025672Y015821D01*
X021774D02*
X023723Y01777D01*
X021774Y015821D02*
X023723Y013873D01*
Y01777D02*
X025672Y015821D01*
X020836Y014977D02*
Y015666D01*
X02121Y014977D02*
Y015666D01*
X020836Y014977D02*
X02121D01*
X020836Y015666D02*
X02121D01*
X021608Y017796D02*
Y019141D01*
X020938Y017796D02*
Y019141D01*
Y017796D02*
X021608D01*
X020938Y019141D02*
X021608D01*
X018752Y019008D02*
X018752Y018634D01*
X018063Y018634D02*
X018063Y019008D01*
X018063Y018634D02*
X018752Y018634D01*
X018063Y019008D02*
X018752D01*
X019986Y014566D02*
X02036Y014566D01*
X019986Y013877D02*
X02036D01*
X019986Y014566D02*
X019986Y013877D01*
X02036Y014566D02*
X02036Y013877D01*
X019336Y014566D02*
X019336Y013877D01*
X01971Y013877D02*
X01971Y014566D01*
X019336D02*
X01971D01*
X019336Y013877D02*
X01971Y013877D01*
X011352Y014223D02*
X019148Y014223D01*
Y018948D01*
X011352D02*
X019148D01*
X011352D02*
X011352Y014223D01*
X021967Y013734D02*
Y014108D01*
X021278Y013734D02*
Y014108D01*
Y013734D02*
X021967D01*
X021278Y014108D02*
X021967D01*
X040849Y014374D02*
G03*
X040849Y014374I-000197J0D01*
G01*
X034187Y018948D02*
X034187Y014223D01*
X043623Y015956D02*
X043768Y0161D01*
X043336Y016242D02*
X043481Y016387D01*
X043336Y016242D02*
X043623Y015956D01*
X043481Y016387D02*
X043768Y0161D01*
X04585Y016845D02*
X046054D01*
X04585Y017251D02*
X046054D01*
X04585Y016845D02*
Y017251D01*
X046054Y016845D02*
Y017251D01*
X045899Y017569D02*
Y017774D01*
X046305Y017569D02*
Y017774D01*
X045899D02*
X046305D01*
X045899Y017569D02*
X046305D01*
X046399Y016974D02*
X046805D01*
X046399Y016769D02*
X046805D01*
X046399D02*
Y016974D01*
X046805Y016769D02*
Y016974D01*
X046399Y016524D02*
X046805D01*
X046399Y016319D02*
X046805D01*
X046399D02*
Y016524D01*
X046805Y016319D02*
Y016524D01*
X04535Y017295D02*
X045554D01*
X04535Y017701D02*
X045554D01*
X04535Y017295D02*
Y017701D01*
X045554Y017295D02*
Y017701D01*
X047155Y017569D02*
Y017774D01*
X046749Y017569D02*
Y017774D01*
Y017569D02*
X047155Y017569D01*
X046749Y017774D02*
X047155Y017774D01*
X0475Y017669D02*
X047704D01*
X0475Y018074D02*
X047704D01*
X0475Y017669D02*
X0475Y018074D01*
X047704D02*
X047704Y017669D01*
X04505Y019324D02*
X045254D01*
X04505Y018919D02*
X045254D01*
Y019324D01*
X04505Y018919D02*
Y019324D01*
X044544Y018915D02*
Y019328D01*
X04476Y018915D02*
Y019328D01*
X044544Y018915D02*
X04476D01*
X044544Y019328D02*
X04476D01*
X043286Y0189D02*
X043431Y018756D01*
X043573Y019187D02*
X043718Y019042D01*
X043286Y0189D02*
X043573Y019187D01*
X043431Y018756D02*
X043718Y019042D01*
X042444Y019228D02*
X04266Y019228D01*
X042444Y018815D02*
X04266Y018815D01*
Y019228D01*
X042444Y018815D02*
Y019228D01*
X041765Y019316D02*
X042139D01*
X041765Y018627D02*
X042139D01*
Y019316D01*
X041765Y018627D02*
Y019316D01*
Y018632D02*
X042139D01*
X041765Y019321D02*
X042139D01*
Y018632D02*
Y019321D01*
X041765Y018632D02*
Y019321D01*
X037765Y014927D02*
X038139D01*
X037765Y015616D02*
X038139D01*
Y014927D02*
Y015616D01*
X037765Y014927D02*
Y015616D01*
X037512Y018634D02*
Y019008D01*
X036823Y018634D02*
Y019008D01*
Y018634D02*
X037512D01*
X036823Y019008D02*
X037512D01*
X041489Y018677D02*
Y019366D01*
X041115Y018677D02*
Y019366D01*
X041489D01*
X041115Y018677D02*
X041489D01*
X038345Y014363D02*
X038759D01*
X038345Y01458D02*
X038759D01*
X038759Y014363D02*
X038759Y01458D01*
X038345Y014363D02*
X038345Y01458D01*
X042158Y013734D02*
X042847D01*
X042158Y014108D02*
X042847D01*
Y013734D02*
Y014108D01*
X042158Y013734D02*
Y014108D01*
X040652Y013873D02*
X042601Y015821D01*
X038703D02*
X040652Y01777D01*
X038703Y015821D02*
X040652Y013873D01*
Y01777D02*
X042601Y015821D01*
X037765Y014977D02*
Y015666D01*
X038139Y014977D02*
Y015666D01*
X037765Y014977D02*
X038139D01*
X037765Y015666D02*
X038139D01*
X038537Y017796D02*
Y019141D01*
X037867Y017796D02*
Y019141D01*
Y017796D02*
X038537D01*
X037867Y019141D02*
X038537D01*
X035681Y019008D02*
X035681Y018634D01*
X034992Y018634D02*
X034992Y019008D01*
X034992Y018634D02*
X035681Y018634D01*
X034992Y019008D02*
X035681D01*
X036915Y014566D02*
X037289Y014566D01*
X036915Y013877D02*
X037289D01*
X036915Y014566D02*
X036915Y013877D01*
X037289Y014566D02*
X037289Y013877D01*
X036265Y014566D02*
X036265Y013877D01*
X036639Y013877D02*
X036639Y014566D01*
X036265D02*
X036639D01*
X036265Y013877D02*
X036639Y013877D01*
X028282Y014223D02*
X036077Y014223D01*
Y018948D01*
X028282D02*
X036077D01*
X028282D02*
X028282Y014223D01*
X038897Y013734D02*
Y014108D01*
X038208Y013734D02*
Y014108D01*
Y013734D02*
X038897D01*
X038208Y014108D02*
X038897D01*
X02392Y02087D02*
G03*
X02392Y02087I-000197J0D01*
G01*
X017258Y025444D02*
X017258Y020719D01*
X026694Y022452D02*
X026839Y022596D01*
X026407Y022738D02*
X026552Y022883D01*
X026407Y022738D02*
X026694Y022452D01*
X026552Y022883D02*
X026839Y022596D01*
X028921Y023341D02*
X029125D01*
X028921Y023747D02*
X029125D01*
X028921Y023341D02*
Y023747D01*
X029125Y023341D02*
Y023747D01*
X02897Y024065D02*
Y02427D01*
X029376Y024065D02*
Y02427D01*
X02897D02*
X029376D01*
X02897Y024065D02*
X029376D01*
X02947Y02347D02*
X029876D01*
X02947Y023265D02*
X029876D01*
X02947D02*
Y02347D01*
X029876Y023265D02*
Y02347D01*
X02947Y02302D02*
X029876D01*
X02947Y022815D02*
X029876D01*
X02947D02*
Y02302D01*
X029876Y022815D02*
Y02302D01*
X028421Y023791D02*
X028625D01*
X028421Y024197D02*
X028625D01*
X028421Y023791D02*
Y024197D01*
X028625Y023791D02*
Y024197D01*
X030226Y024065D02*
Y02427D01*
X02982Y024065D02*
Y02427D01*
Y024065D02*
X030226Y024065D01*
X02982Y02427D02*
X030226Y02427D01*
X030571Y024165D02*
X030775D01*
X030571Y02457D02*
X030775D01*
X030571Y024165D02*
X030571Y02457D01*
X030775D02*
X030775Y024165D01*
X028121Y02582D02*
X028325D01*
X028121Y025415D02*
X028325D01*
Y02582D01*
X028121Y025415D02*
Y02582D01*
X027615Y025411D02*
Y025824D01*
X027831Y025411D02*
Y025824D01*
X027615Y025411D02*
X027831D01*
X027615Y025824D02*
X027831D01*
X026357Y025396D02*
X026502Y025252D01*
X026644Y025683D02*
X026789Y025538D01*
X026357Y025396D02*
X026644Y025683D01*
X026502Y025252D02*
X026789Y025538D01*
X025515Y025724D02*
X025731Y025724D01*
X025515Y025311D02*
X025731Y025311D01*
Y025724D01*
X025515Y025311D02*
Y025724D01*
X024836Y025812D02*
X02521D01*
X024836Y025123D02*
X02521D01*
Y025812D01*
X024836Y025123D02*
Y025812D01*
Y025128D02*
X02521D01*
X024836Y025817D02*
X02521D01*
Y025128D02*
Y025817D01*
X024836Y025128D02*
Y025817D01*
X020836Y021423D02*
X02121D01*
X020836Y022112D02*
X02121D01*
Y021423D02*
Y022112D01*
X020836Y021423D02*
Y022112D01*
X020583Y02513D02*
Y025504D01*
X019894Y02513D02*
Y025504D01*
Y02513D02*
X020583D01*
X019894Y025504D02*
X020583D01*
X02456Y025173D02*
Y025862D01*
X024186Y025173D02*
Y025862D01*
X02456D01*
X024186Y025173D02*
X02456D01*
X021416Y020859D02*
X02183D01*
X021416Y021076D02*
X02183D01*
X02183Y020859D02*
X02183Y021076D01*
X021416Y020859D02*
X021416Y021076D01*
X025228Y02023D02*
X025917D01*
X025228Y020604D02*
X025917D01*
Y02023D02*
Y020604D01*
X025228Y02023D02*
Y020604D01*
X023723Y020369D02*
X025672Y022317D01*
X021774D02*
X023723Y024266D01*
X021774Y022317D02*
X023723Y020369D01*
Y024266D02*
X025672Y022317D01*
X020836Y021473D02*
Y022162D01*
X02121Y021473D02*
Y022162D01*
X020836Y021473D02*
X02121D01*
X020836Y022162D02*
X02121D01*
X021608Y024292D02*
Y025637D01*
X020938Y024292D02*
Y025637D01*
Y024292D02*
X021608D01*
X020938Y025637D02*
X021608D01*
X018752Y025504D02*
X018752Y02513D01*
X018063Y02513D02*
X018063Y025504D01*
X018063Y02513D02*
X018752Y02513D01*
X018063Y025504D02*
X018752D01*
X019986Y021062D02*
X02036Y021062D01*
X019986Y020373D02*
X02036D01*
X019986Y021062D02*
X019986Y020373D01*
X02036Y021062D02*
X02036Y020373D01*
X019336Y021062D02*
X019336Y020373D01*
X01971Y020373D02*
X01971Y021062D01*
X019336D02*
X01971D01*
X019336Y020373D02*
X01971Y020373D01*
X011352Y020719D02*
X019148Y020719D01*
Y025444D01*
X011352D02*
X019148D01*
X011352D02*
X011352Y020719D01*
X021967Y02023D02*
Y020604D01*
X021278Y02023D02*
Y020604D01*
Y02023D02*
X021967D01*
X021278Y020604D02*
X021967D01*
X040849Y02087D02*
G03*
X040849Y02087I-000197J0D01*
G01*
X034187Y025444D02*
X034187Y020719D01*
X043623Y022452D02*
X043768Y022596D01*
X043336Y022738D02*
X043481Y022883D01*
X043336Y022738D02*
X043623Y022452D01*
X043481Y022883D02*
X043768Y022596D01*
X04585Y023341D02*
X046054D01*
X04585Y023747D02*
X046054D01*
X04585Y023341D02*
Y023747D01*
X046054Y023341D02*
Y023747D01*
X045899Y024065D02*
Y02427D01*
X046305Y024065D02*
Y02427D01*
X045899D02*
X046305D01*
X045899Y024065D02*
X046305D01*
X046399Y02347D02*
X046805D01*
X046399Y023265D02*
X046805D01*
X046399D02*
Y02347D01*
X046805Y023265D02*
Y02347D01*
X046399Y02302D02*
X046805D01*
X046399Y022815D02*
X046805D01*
X046399D02*
Y02302D01*
X046805Y022815D02*
Y02302D01*
X04535Y023791D02*
X045554D01*
X04535Y024197D02*
X045554D01*
X04535Y023791D02*
Y024197D01*
X045554Y023791D02*
Y024197D01*
X047155Y024065D02*
Y02427D01*
X046749Y024065D02*
Y02427D01*
Y024065D02*
X047155Y024065D01*
X046749Y02427D02*
X047155Y02427D01*
X0475Y024165D02*
X047704D01*
X0475Y02457D02*
X047704D01*
X0475Y024165D02*
X0475Y02457D01*
X047704D02*
X047704Y024165D01*
X04505Y02582D02*
X045254D01*
X04505Y025415D02*
X045254D01*
Y02582D01*
X04505Y025415D02*
Y02582D01*
X044544Y025411D02*
Y025824D01*
X04476Y025411D02*
Y025824D01*
X044544Y025411D02*
X04476D01*
X044544Y025824D02*
X04476D01*
X043286Y025396D02*
X043431Y025252D01*
X043573Y025683D02*
X043718Y025538D01*
X043286Y025396D02*
X043573Y025683D01*
X043431Y025252D02*
X043718Y025538D01*
X042444Y025724D02*
X04266Y025724D01*
X042444Y025311D02*
X04266Y025311D01*
Y025724D01*
X042444Y025311D02*
Y025724D01*
X041765Y025812D02*
X042139D01*
X041765Y025123D02*
X042139D01*
Y025812D01*
X041765Y025123D02*
Y025812D01*
Y025128D02*
X042139D01*
X041765Y025817D02*
X042139D01*
Y025128D02*
Y025817D01*
X041765Y025128D02*
Y025817D01*
X037765Y021423D02*
X038139D01*
X037765Y022112D02*
X038139D01*
Y021423D02*
Y022112D01*
X037765Y021423D02*
Y022112D01*
X037512Y02513D02*
Y025504D01*
X036823Y02513D02*
Y025504D01*
Y02513D02*
X037512D01*
X036823Y025504D02*
X037512D01*
X041489Y025173D02*
Y025862D01*
X041115Y025173D02*
Y025862D01*
X041489D01*
X041115Y025173D02*
X041489D01*
X038345Y020859D02*
X038759D01*
X038345Y021076D02*
X038759D01*
X038759Y020859D02*
X038759Y021076D01*
X038345Y020859D02*
X038345Y021076D01*
X042158Y02023D02*
X042847D01*
X042158Y020604D02*
X042847D01*
Y02023D02*
Y020604D01*
X042158Y02023D02*
Y020604D01*
X040652Y020369D02*
X042601Y022317D01*
X038703D02*
X040652Y024266D01*
X038703Y022317D02*
X040652Y020369D01*
Y024266D02*
X042601Y022317D01*
X037765Y021473D02*
Y022162D01*
X038139Y021473D02*
Y022162D01*
X037765Y021473D02*
X038139D01*
X037765Y022162D02*
X038139D01*
X038537Y024292D02*
Y025637D01*
X037867Y024292D02*
Y025637D01*
Y024292D02*
X038537D01*
X037867Y025637D02*
X038537D01*
X035681Y025504D02*
X035681Y02513D01*
X034992Y02513D02*
X034992Y025504D01*
X034992Y02513D02*
X035681Y02513D01*
X034992Y025504D02*
X035681D01*
X036915Y021062D02*
X037289Y021062D01*
X036915Y020373D02*
X037289D01*
X036915Y021062D02*
X036915Y020373D01*
X037289Y021062D02*
X037289Y020373D01*
X036265Y021062D02*
X036265Y020373D01*
X036639Y020373D02*
X036639Y021062D01*
X036265D02*
X036639D01*
X036265Y020373D02*
X036639Y020373D01*
X028282Y020719D02*
X036077Y020719D01*
Y025444D01*
X028282D02*
X036077D01*
X028282D02*
X028282Y020719D01*
X038897Y02023D02*
Y020604D01*
X038208Y02023D02*
Y020604D01*
Y02023D02*
X038897D01*
X038208Y020604D02*
X038897D01*
X02392Y027366D02*
G03*
X02392Y027366I-000197J0D01*
G01*
X017258Y03194D02*
X017258Y027215D01*
X026694Y028948D02*
X026839Y029092D01*
X026407Y029234D02*
X026552Y029379D01*
X026407Y029234D02*
X026694Y028948D01*
X026552Y029379D02*
X026839Y029092D01*
X028921Y029837D02*
X029125D01*
X028921Y030243D02*
X029125D01*
X028921Y029837D02*
Y030243D01*
X029125Y029837D02*
Y030243D01*
X02897Y030561D02*
Y030766D01*
X029376Y030561D02*
Y030766D01*
X02897D02*
X029376D01*
X02897Y030561D02*
X029376D01*
X02947Y029966D02*
X029876D01*
X02947Y029761D02*
X029876D01*
X02947D02*
Y029966D01*
X029876Y029761D02*
Y029966D01*
X02947Y029516D02*
X029876D01*
X02947Y029311D02*
X029876D01*
X02947D02*
Y029516D01*
X029876Y029311D02*
Y029516D01*
X028421Y030287D02*
X028625D01*
X028421Y030693D02*
X028625D01*
X028421Y030287D02*
Y030693D01*
X028625Y030287D02*
Y030693D01*
X030226Y030561D02*
Y030766D01*
X02982Y030561D02*
Y030766D01*
Y030561D02*
X030226Y030561D01*
X02982Y030766D02*
X030226Y030766D01*
X030571Y030661D02*
X030775D01*
X030571Y031066D02*
X030775D01*
X030571Y030661D02*
X030571Y031066D01*
X030775D02*
X030775Y030661D01*
X028121Y032316D02*
X028325D01*
X028121Y031911D02*
X028325D01*
Y032316D01*
X028121Y031911D02*
Y032316D01*
X027615Y031907D02*
Y03232D01*
X027831Y031907D02*
Y03232D01*
X027615Y031907D02*
X027831D01*
X027615Y03232D02*
X027831D01*
X026357Y031892D02*
X026502Y031748D01*
X026644Y032179D02*
X026789Y032034D01*
X026357Y031892D02*
X026644Y032179D01*
X026502Y031748D02*
X026789Y032034D01*
X025515Y03222D02*
X025731Y03222D01*
X025515Y031807D02*
X025731Y031807D01*
Y03222D01*
X025515Y031807D02*
Y03222D01*
X024836Y032308D02*
X02521D01*
X024836Y031619D02*
X02521D01*
Y032308D01*
X024836Y031619D02*
Y032308D01*
Y031624D02*
X02521D01*
X024836Y032313D02*
X02521D01*
Y031624D02*
Y032313D01*
X024836Y031624D02*
Y032313D01*
X020836Y027919D02*
X02121D01*
X020836Y028608D02*
X02121D01*
Y027919D02*
Y028608D01*
X020836Y027919D02*
Y028608D01*
X020583Y031626D02*
Y032D01*
X019894Y031626D02*
Y032D01*
Y031626D02*
X020583D01*
X019894Y032D02*
X020583D01*
X02456Y031669D02*
Y032358D01*
X024186Y031669D02*
Y032358D01*
X02456D01*
X024186Y031669D02*
X02456D01*
X021416Y027355D02*
X02183D01*
X021416Y027572D02*
X02183D01*
X02183Y027355D02*
X02183Y027572D01*
X021416Y027355D02*
X021416Y027572D01*
X025228Y026726D02*
X025917D01*
X025228Y0271D02*
X025917D01*
Y026726D02*
Y0271D01*
X025228Y026726D02*
Y0271D01*
X023723Y026865D02*
X025672Y028813D01*
X021774D02*
X023723Y030762D01*
X021774Y028813D02*
X023723Y026865D01*
Y030762D02*
X025672Y028813D01*
X020836Y027969D02*
Y028658D01*
X02121Y027969D02*
Y028658D01*
X020836Y027969D02*
X02121D01*
X020836Y028658D02*
X02121D01*
X021608Y030788D02*
Y032133D01*
X020938Y030788D02*
Y032133D01*
Y030788D02*
X021608D01*
X020938Y032133D02*
X021608D01*
X018752Y032D02*
X018752Y031626D01*
X018063Y031626D02*
X018063Y032D01*
X018063Y031626D02*
X018752Y031626D01*
X018063Y032D02*
X018752D01*
X019986Y027558D02*
X02036Y027558D01*
X019986Y026869D02*
X02036D01*
X019986Y027558D02*
X019986Y026869D01*
X02036Y027558D02*
X02036Y026869D01*
X019336Y027558D02*
X019336Y026869D01*
X01971Y026869D02*
X01971Y027558D01*
X019336D02*
X01971D01*
X019336Y026869D02*
X01971Y026869D01*
X011352Y027215D02*
X019148Y027215D01*
Y03194D01*
X011352D02*
X019148D01*
X011352D02*
X011352Y027215D01*
X021967Y026726D02*
Y0271D01*
X021278Y026726D02*
Y0271D01*
Y026726D02*
X021967D01*
X021278Y0271D02*
X021967D01*
X040849Y027366D02*
G03*
X040849Y027366I-000197J0D01*
G01*
X034187Y03194D02*
X034187Y027215D01*
X043623Y028948D02*
X043768Y029092D01*
X043336Y029234D02*
X043481Y029379D01*
X043336Y029234D02*
X043623Y028948D01*
X043481Y029379D02*
X043768Y029092D01*
X04585Y029837D02*
X046054D01*
X04585Y030243D02*
X046054D01*
X04585Y029837D02*
Y030243D01*
X046054Y029837D02*
Y030243D01*
X045899Y030561D02*
Y030766D01*
X046305Y030561D02*
Y030766D01*
X045899D02*
X046305D01*
X045899Y030561D02*
X046305D01*
X046399Y029966D02*
X046805D01*
X046399Y029761D02*
X046805D01*
X046399D02*
Y029966D01*
X046805Y029761D02*
Y029966D01*
X046399Y029516D02*
X046805D01*
X046399Y029311D02*
X046805D01*
X046399D02*
Y029516D01*
X046805Y029311D02*
Y029516D01*
X04535Y030287D02*
X045554D01*
X04535Y030693D02*
X045554D01*
X04535Y030287D02*
Y030693D01*
X045554Y030287D02*
Y030693D01*
X047155Y030561D02*
Y030766D01*
X046749Y030561D02*
Y030766D01*
Y030561D02*
X047155Y030561D01*
X046749Y030766D02*
X047155Y030766D01*
X0475Y030661D02*
X047704D01*
X0475Y031066D02*
X047704D01*
X0475Y030661D02*
X0475Y031066D01*
X047704D02*
X047704Y030661D01*
X04505Y032316D02*
X045254D01*
X04505Y031911D02*
X045254D01*
Y032316D01*
X04505Y031911D02*
Y032316D01*
X044544Y031907D02*
Y03232D01*
X04476Y031907D02*
Y03232D01*
X044544Y031907D02*
X04476D01*
X044544Y03232D02*
X04476D01*
X043286Y031892D02*
X043431Y031748D01*
X043573Y032179D02*
X043718Y032034D01*
X043286Y031892D02*
X043573Y032179D01*
X043431Y031748D02*
X043718Y032034D01*
X042444Y03222D02*
X04266Y03222D01*
X042444Y031807D02*
X04266Y031807D01*
Y03222D01*
X042444Y031807D02*
Y03222D01*
X041765Y032308D02*
X042139D01*
X041765Y031619D02*
X042139D01*
Y032308D01*
X041765Y031619D02*
Y032308D01*
Y031624D02*
X042139D01*
X041765Y032313D02*
X042139D01*
Y031624D02*
Y032313D01*
X041765Y031624D02*
Y032313D01*
X037765Y027919D02*
X038139D01*
X037765Y028608D02*
X038139D01*
Y027919D02*
Y028608D01*
X037765Y027919D02*
Y028608D01*
X037512Y031626D02*
Y032D01*
X036823Y031626D02*
Y032D01*
Y031626D02*
X037512D01*
X036823Y032D02*
X037512D01*
X041489Y031669D02*
Y032358D01*
X041115Y031669D02*
Y032358D01*
X041489D01*
X041115Y031669D02*
X041489D01*
X038345Y027355D02*
X038759D01*
X038345Y027572D02*
X038759D01*
X038759Y027355D02*
X038759Y027572D01*
X038345Y027355D02*
X038345Y027572D01*
X042158Y026726D02*
X042847D01*
X042158Y0271D02*
X042847D01*
Y026726D02*
Y0271D01*
X042158Y026726D02*
Y0271D01*
X040652Y026865D02*
X042601Y028813D01*
X038703D02*
X040652Y030762D01*
X038703Y028813D02*
X040652Y026865D01*
Y030762D02*
X042601Y028813D01*
X037765Y027969D02*
Y028658D01*
X038139Y027969D02*
Y028658D01*
X037765Y027969D02*
X038139D01*
X037765Y028658D02*
X038139D01*
X038537Y030788D02*
Y032133D01*
X037867Y030788D02*
Y032133D01*
Y030788D02*
X038537D01*
X037867Y032133D02*
X038537D01*
X035681Y032D02*
X035681Y031626D01*
X034992Y031626D02*
X034992Y032D01*
X034992Y031626D02*
X035681Y031626D01*
X034992Y032D02*
X035681D01*
X036915Y027558D02*
X037289Y027558D01*
X036915Y026869D02*
X037289D01*
X036915Y027558D02*
X036915Y026869D01*
X037289Y027558D02*
X037289Y026869D01*
X036265Y027558D02*
X036265Y026869D01*
X036639Y026869D02*
X036639Y027558D01*
X036265D02*
X036639D01*
X036265Y026869D02*
X036639Y026869D01*
X028282Y027215D02*
X036077Y027215D01*
Y03194D01*
X028282D02*
X036077D01*
X028282D02*
X028282Y027215D01*
X038897Y026726D02*
Y0271D01*
X038208Y026726D02*
Y0271D01*
Y026726D02*
X038897D01*
X038208Y0271D02*
X038897D01*
X02392Y033862D02*
G03*
X02392Y033862I-000197J0D01*
G01*
X017258Y038436D02*
X017258Y033711D01*
X026694Y035444D02*
X026839Y035589D01*
X026407Y035731D02*
X026552Y035875D01*
X026407Y035731D02*
X026694Y035444D01*
X026552Y035875D02*
X026839Y035589D01*
X028921Y036334D02*
X029125D01*
X028921Y036739D02*
X029125D01*
X028921Y036334D02*
Y036739D01*
X029125Y036334D02*
Y036739D01*
X02897Y037057D02*
Y037262D01*
X029376Y037057D02*
Y037262D01*
X02897D02*
X029376D01*
X02897Y037057D02*
X029376D01*
X02947Y036462D02*
X029876D01*
X02947Y036257D02*
X029876D01*
X02947D02*
Y036462D01*
X029876Y036257D02*
Y036462D01*
X02947Y036012D02*
X029876D01*
X02947Y035807D02*
X029876D01*
X02947D02*
Y036012D01*
X029876Y035807D02*
Y036012D01*
X028421Y036784D02*
X028625D01*
X028421Y037189D02*
X028625D01*
X028421Y036784D02*
Y037189D01*
X028625Y036784D02*
Y037189D01*
X030226Y037057D02*
Y037262D01*
X02982Y037057D02*
Y037262D01*
Y037057D02*
X030226Y037057D01*
X02982Y037262D02*
X030226Y037262D01*
X030571Y037157D02*
X030775D01*
X030571Y037562D02*
X030775D01*
X030571Y037157D02*
X030571Y037562D01*
X030775D02*
X030775Y037157D01*
X028121Y038812D02*
X028325D01*
X028121Y038407D02*
X028325D01*
Y038812D01*
X028121Y038407D02*
Y038812D01*
X027615Y038403D02*
Y038816D01*
X027831Y038403D02*
Y038816D01*
X027615Y038403D02*
X027831D01*
X027615Y038816D02*
X027831D01*
X026357Y038389D02*
X026502Y038244D01*
X026644Y038675D02*
X026789Y03853D01*
X026357Y038389D02*
X026644Y038675D01*
X026502Y038244D02*
X026789Y03853D01*
X025515Y038716D02*
X025731Y038716D01*
X025515Y038303D02*
X025731Y038303D01*
Y038716D01*
X025515Y038303D02*
Y038716D01*
X024836Y038804D02*
X02521D01*
X024836Y038115D02*
X02521D01*
Y038804D01*
X024836Y038115D02*
Y038804D01*
Y03812D02*
X02521D01*
X024836Y038809D02*
X02521D01*
Y03812D02*
Y038809D01*
X024836Y03812D02*
Y038809D01*
X020836Y034415D02*
X02121D01*
X020836Y035104D02*
X02121D01*
Y034415D02*
Y035104D01*
X020836Y034415D02*
Y035104D01*
X020583Y038122D02*
Y038497D01*
X019894Y038122D02*
Y038497D01*
Y038122D02*
X020583D01*
X019894Y038497D02*
X020583D01*
X02456Y038165D02*
Y038854D01*
X024186Y038165D02*
Y038854D01*
X02456D01*
X024186Y038165D02*
X02456D01*
X021416Y033851D02*
X02183D01*
X021416Y034068D02*
X02183D01*
X02183Y033851D02*
X02183Y034068D01*
X021416Y033851D02*
X021416Y034068D01*
X025228Y033222D02*
X025917D01*
X025228Y033597D02*
X025917D01*
Y033222D02*
Y033597D01*
X025228Y033222D02*
Y033597D01*
X023723Y033361D02*
X025672Y03531D01*
X021774D02*
X023723Y037258D01*
X021774Y03531D02*
X023723Y033361D01*
Y037258D02*
X025672Y03531D01*
X020836Y034465D02*
Y035154D01*
X02121Y034465D02*
Y035154D01*
X020836Y034465D02*
X02121D01*
X020836Y035154D02*
X02121D01*
X021608Y037284D02*
Y038629D01*
X020938Y037284D02*
Y038629D01*
Y037284D02*
X021608D01*
X020938Y038629D02*
X021608D01*
X018752Y038497D02*
X018752Y038122D01*
X018063Y038123D02*
X018063Y038497D01*
X018063Y038123D02*
X018752Y038122D01*
X018063Y038497D02*
X018752D01*
X019986Y034054D02*
X02036Y034054D01*
X019986Y033365D02*
X02036D01*
X019986Y034054D02*
X019986Y033365D01*
X02036Y034054D02*
X02036Y033365D01*
X019336Y034054D02*
X019336Y033365D01*
X01971Y033365D02*
X01971Y034054D01*
X019336D02*
X01971D01*
X019336Y033365D02*
X01971Y033365D01*
X011352Y033711D02*
X019148Y033711D01*
Y038436D01*
X011352D02*
X019148D01*
X011352D02*
X011352Y033711D01*
X021967Y033222D02*
Y033597D01*
X021278Y033222D02*
Y033597D01*
Y033222D02*
X021967D01*
X021278Y033597D02*
X021967D01*
X040849Y033862D02*
G03*
X040849Y033862I-000197J0D01*
G01*
X034187Y038436D02*
X034187Y033711D01*
X043623Y035444D02*
X043768Y035589D01*
X043336Y035731D02*
X043481Y035875D01*
X043336Y035731D02*
X043623Y035444D01*
X043481Y035875D02*
X043768Y035589D01*
X04585Y036334D02*
X046054D01*
X04585Y036739D02*
X046054D01*
X04585Y036334D02*
Y036739D01*
X046054Y036334D02*
Y036739D01*
X045899Y037057D02*
Y037262D01*
X046305Y037057D02*
Y037262D01*
X045899D02*
X046305D01*
X045899Y037057D02*
X046305D01*
X046399Y036462D02*
X046805D01*
X046399Y036257D02*
X046805D01*
X046399D02*
Y036462D01*
X046805Y036257D02*
Y036462D01*
X046399Y036012D02*
X046805D01*
X046399Y035807D02*
X046805D01*
X046399D02*
Y036012D01*
X046805Y035807D02*
Y036012D01*
X04535Y036784D02*
X045554D01*
X04535Y037189D02*
X045554D01*
X04535Y036784D02*
Y037189D01*
X045554Y036784D02*
Y037189D01*
X047155Y037057D02*
Y037262D01*
X046749Y037057D02*
Y037262D01*
Y037057D02*
X047155Y037057D01*
X046749Y037262D02*
X047155Y037262D01*
X0475Y037157D02*
X047704D01*
X0475Y037562D02*
X047704D01*
X0475Y037157D02*
X0475Y037562D01*
X047704D02*
X047704Y037157D01*
X04505Y038812D02*
X045254D01*
X04505Y038407D02*
X045254D01*
Y038812D01*
X04505Y038407D02*
Y038812D01*
X044544Y038403D02*
Y038816D01*
X04476Y038403D02*
Y038816D01*
X044544Y038403D02*
X04476D01*
X044544Y038816D02*
X04476D01*
X043286Y038389D02*
X043431Y038244D01*
X043573Y038675D02*
X043718Y03853D01*
X043286Y038389D02*
X043573Y038675D01*
X043431Y038244D02*
X043718Y03853D01*
X042444Y038716D02*
X04266Y038716D01*
X042444Y038303D02*
X04266Y038303D01*
Y038716D01*
X042444Y038303D02*
Y038716D01*
X041765Y038804D02*
X042139D01*
X041765Y038115D02*
X042139D01*
Y038804D01*
X041765Y038115D02*
Y038804D01*
Y03812D02*
X042139D01*
X041765Y038809D02*
X042139D01*
Y03812D02*
Y038809D01*
X041765Y03812D02*
Y038809D01*
X037765Y034415D02*
X038139D01*
X037765Y035104D02*
X038139D01*
Y034415D02*
Y035104D01*
X037765Y034415D02*
Y035104D01*
X037512Y038122D02*
Y038497D01*
X036823Y038122D02*
Y038497D01*
Y038122D02*
X037512D01*
X036823Y038497D02*
X037512D01*
X041489Y038165D02*
Y038854D01*
X041115Y038165D02*
Y038854D01*
X041489D01*
X041115Y038165D02*
X041489D01*
X038345Y033851D02*
X038759D01*
X038345Y034068D02*
X038759D01*
X038759Y033851D02*
X038759Y034068D01*
X038345Y033851D02*
X038345Y034068D01*
X042158Y033222D02*
X042847D01*
X042158Y033597D02*
X042847D01*
Y033222D02*
Y033597D01*
X042158Y033222D02*
Y033597D01*
X040652Y033361D02*
X042601Y03531D01*
X038703D02*
X040652Y037258D01*
X038703Y03531D02*
X040652Y033361D01*
Y037258D02*
X042601Y03531D01*
X037765Y034465D02*
Y035154D01*
X038139Y034465D02*
Y035154D01*
X037765Y034465D02*
X038139D01*
X037765Y035154D02*
X038139D01*
X038537Y037284D02*
Y038629D01*
X037867Y037284D02*
Y038629D01*
Y037284D02*
X038537D01*
X037867Y038629D02*
X038537D01*
X035681Y038497D02*
X035681Y038122D01*
X034992Y038123D02*
X034992Y038497D01*
X034992Y038123D02*
X035681Y038122D01*
X034992Y038497D02*
X035681D01*
X036915Y034054D02*
X037289Y034054D01*
X036915Y033365D02*
X037289D01*
X036915Y034054D02*
X036915Y033365D01*
X037289Y034054D02*
X037289Y033365D01*
X036265Y034054D02*
X036265Y033365D01*
X036639Y033365D02*
X036639Y034054D01*
X036265D02*
X036639D01*
X036265Y033365D02*
X036639Y033365D01*
X028282Y033711D02*
X036077Y033711D01*
Y038436D01*
X028282D02*
X036077D01*
X028282D02*
X028282Y033711D01*
X038897Y033222D02*
Y033597D01*
X038208Y033222D02*
Y033597D01*
Y033222D02*
X038897D01*
X038208Y033597D02*
X038897D01*
X02392Y040358D02*
G03*
X02392Y040358I-000197J0D01*
G01*
X017258Y044932D02*
X017258Y040208D01*
X026694Y04194D02*
X026839Y042085D01*
X026407Y042227D02*
X026552Y042371D01*
X026407Y042227D02*
X026694Y04194D01*
X026552Y042371D02*
X026839Y042085D01*
X028921Y04283D02*
X029125D01*
X028921Y043235D02*
X029125D01*
X028921Y04283D02*
Y043235D01*
X029125Y04283D02*
Y043235D01*
X02897Y043553D02*
Y043758D01*
X029376Y043553D02*
Y043758D01*
X02897D02*
X029376D01*
X02897Y043553D02*
X029376D01*
X02947Y042958D02*
X029876D01*
X02947Y042753D02*
X029876D01*
X02947D02*
Y042958D01*
X029876Y042753D02*
Y042958D01*
X02947Y042508D02*
X029876D01*
X02947Y042303D02*
X029876D01*
X02947D02*
Y042508D01*
X029876Y042303D02*
Y042508D01*
X028421Y04328D02*
X028625D01*
X028421Y043685D02*
X028625D01*
X028421Y04328D02*
Y043685D01*
X028625Y04328D02*
Y043685D01*
X030226Y043553D02*
Y043758D01*
X02982Y043553D02*
Y043758D01*
Y043553D02*
X030226Y043553D01*
X02982Y043758D02*
X030226Y043758D01*
X030571Y043653D02*
X030775D01*
X030571Y044058D02*
X030775D01*
X030571Y043653D02*
X030571Y044058D01*
X030775D02*
X030775Y043653D01*
X028121Y045308D02*
X028325D01*
X028121Y044903D02*
X028325D01*
Y045308D01*
X028121Y044903D02*
Y045308D01*
X027615Y044899D02*
Y045312D01*
X027831Y044899D02*
Y045312D01*
X027615Y044899D02*
X027831D01*
X027615Y045312D02*
X027831D01*
X026357Y044885D02*
X026502Y04474D01*
X026644Y045171D02*
X026789Y045027D01*
X026357Y044885D02*
X026644Y045171D01*
X026502Y04474D02*
X026789Y045027D01*
X025515Y045212D02*
X025731Y045212D01*
X025515Y044799D02*
X025731Y044799D01*
Y045212D01*
X025515Y044799D02*
Y045212D01*
X024836Y0453D02*
X02521D01*
X024836Y044611D02*
X02521D01*
Y0453D01*
X024836Y044611D02*
Y0453D01*
Y044616D02*
X02521D01*
X024836Y045305D02*
X02521D01*
Y044616D02*
Y045305D01*
X024836Y044616D02*
Y045305D01*
X020836Y040911D02*
X02121D01*
X020836Y0416D02*
X02121D01*
Y040911D02*
Y0416D01*
X020836Y040911D02*
Y0416D01*
X020583Y044619D02*
Y044993D01*
X019894Y044619D02*
Y044993D01*
Y044619D02*
X020583D01*
X019894Y044993D02*
X020583D01*
X02456Y044661D02*
Y04535D01*
X024186Y044661D02*
Y04535D01*
X02456D01*
X024186Y044661D02*
X02456D01*
X021416Y040347D02*
X02183D01*
X021416Y040564D02*
X02183D01*
X02183Y040347D02*
X02183Y040564D01*
X021416Y040347D02*
X021416Y040564D01*
X025228Y039719D02*
X025917D01*
X025228Y040093D02*
X025917D01*
Y039719D02*
Y040093D01*
X025228Y039719D02*
Y040093D01*
X023723Y039857D02*
X025672Y041806D01*
X021774D02*
X023723Y043754D01*
X021774Y041806D02*
X023723Y039857D01*
Y043754D02*
X025672Y041806D01*
X020836Y040961D02*
Y04165D01*
X02121Y040961D02*
Y04165D01*
X020836Y040961D02*
X02121D01*
X020836Y04165D02*
X02121D01*
X021608Y04378D02*
Y045125D01*
X020938Y04378D02*
Y045125D01*
Y04378D02*
X021608D01*
X020938Y045125D02*
X021608D01*
X018752Y044993D02*
X018752Y044619D01*
X018063Y044619D02*
X018063Y044993D01*
X018063Y044619D02*
X018752Y044619D01*
X018063Y044993D02*
X018752D01*
X019986Y04055D02*
X02036Y04055D01*
X019986Y039861D02*
X02036D01*
X019986Y04055D02*
X019986Y039861D01*
X02036Y04055D02*
X02036Y039861D01*
X019336Y04055D02*
X019336Y039861D01*
X01971Y039861D02*
X01971Y04055D01*
X019336D02*
X01971D01*
X019336Y039861D02*
X01971Y039861D01*
X011352Y040208D02*
X019148Y040208D01*
Y044932D01*
X011352D02*
X019148D01*
X011352D02*
X011352Y040208D01*
X021967Y039719D02*
Y040093D01*
X021278Y039719D02*
Y040093D01*
Y039719D02*
X021967D01*
X021278Y040093D02*
X021967D01*
X040849Y040358D02*
G03*
X040849Y040358I-000197J0D01*
G01*
X034187Y044932D02*
X034187Y040208D01*
X043623Y04194D02*
X043768Y042085D01*
X043336Y042227D02*
X043481Y042371D01*
X043336Y042227D02*
X043623Y04194D01*
X043481Y042371D02*
X043768Y042085D01*
X04585Y04283D02*
X046054D01*
X04585Y043235D02*
X046054D01*
X04585Y04283D02*
Y043235D01*
X046054Y04283D02*
Y043235D01*
X045899Y043553D02*
Y043758D01*
X046305Y043553D02*
Y043758D01*
X045899D02*
X046305D01*
X045899Y043553D02*
X046305D01*
X046399Y042958D02*
X046805D01*
X046399Y042753D02*
X046805D01*
X046399D02*
Y042958D01*
X046805Y042753D02*
Y042958D01*
X046399Y042508D02*
X046805D01*
X046399Y042303D02*
X046805D01*
X046399D02*
Y042508D01*
X046805Y042303D02*
Y042508D01*
X04535Y04328D02*
X045554D01*
X04535Y043685D02*
X045554D01*
X04535Y04328D02*
Y043685D01*
X045554Y04328D02*
Y043685D01*
X047155Y043553D02*
Y043758D01*
X046749Y043553D02*
Y043758D01*
Y043553D02*
X047155Y043553D01*
X046749Y043758D02*
X047155Y043758D01*
X0475Y043653D02*
X047704D01*
X0475Y044058D02*
X047704D01*
X0475Y043653D02*
X0475Y044058D01*
X047704D02*
X047704Y043653D01*
X04505Y045308D02*
X045254D01*
X04505Y044903D02*
X045254D01*
Y045308D01*
X04505Y044903D02*
Y045308D01*
X044544Y044899D02*
Y045312D01*
X04476Y044899D02*
Y045312D01*
X044544Y044899D02*
X04476D01*
X044544Y045312D02*
X04476D01*
X043286Y044885D02*
X043431Y04474D01*
X043573Y045171D02*
X043718Y045027D01*
X043286Y044885D02*
X043573Y045171D01*
X043431Y04474D02*
X043718Y045027D01*
X042444Y045212D02*
X04266Y045212D01*
X042444Y044799D02*
X04266Y044799D01*
Y045212D01*
X042444Y044799D02*
Y045212D01*
X041765Y0453D02*
X042139D01*
X041765Y044611D02*
X042139D01*
Y0453D01*
X041765Y044611D02*
Y0453D01*
Y044616D02*
X042139D01*
X041765Y045305D02*
X042139D01*
Y044616D02*
Y045305D01*
X041765Y044616D02*
Y045305D01*
X037765Y040911D02*
X038139D01*
X037765Y0416D02*
X038139D01*
Y040911D02*
Y0416D01*
X037765Y040911D02*
Y0416D01*
X037512Y044619D02*
Y044993D01*
X036823Y044619D02*
Y044993D01*
Y044619D02*
X037512D01*
X036823Y044993D02*
X037512D01*
X041489Y044661D02*
Y04535D01*
X041115Y044661D02*
Y04535D01*
X041489D01*
X041115Y044661D02*
X041489D01*
X038345Y040347D02*
X038759D01*
X038345Y040564D02*
X038759D01*
X038759Y040347D02*
X038759Y040564D01*
X038345Y040347D02*
X038345Y040564D01*
X042158Y039719D02*
X042847D01*
X042158Y040093D02*
X042847D01*
Y039719D02*
Y040093D01*
X042158Y039719D02*
Y040093D01*
X040652Y039857D02*
X042601Y041806D01*
X038703D02*
X040652Y043754D01*
X038703Y041806D02*
X040652Y039857D01*
Y043754D02*
X042601Y041806D01*
X037765Y040961D02*
Y04165D01*
X038139Y040961D02*
Y04165D01*
X037765Y040961D02*
X038139D01*
X037765Y04165D02*
X038139D01*
X038537Y04378D02*
Y045125D01*
X037867Y04378D02*
Y045125D01*
Y04378D02*
X038537D01*
X037867Y045125D02*
X038537D01*
X035681Y044993D02*
X035681Y044619D01*
X034992Y044619D02*
X034992Y044993D01*
X034992Y044619D02*
X035681Y044619D01*
X034992Y044993D02*
X035681D01*
X036915Y04055D02*
X037289Y04055D01*
X036915Y039861D02*
X037289D01*
X036915Y04055D02*
X036915Y039861D01*
X037289Y04055D02*
X037289Y039861D01*
X036265Y04055D02*
X036265Y039861D01*
X036639Y039861D02*
X036639Y04055D01*
X036265D02*
X036639D01*
X036265Y039861D02*
X036639Y039861D01*
X028282Y040208D02*
X036077Y040208D01*
Y044932D01*
X028282D02*
X036077D01*
X028282D02*
X028282Y040208D01*
X038897Y039719D02*
Y040093D01*
X038208Y039719D02*
Y040093D01*
Y039719D02*
X038897D01*
X038208Y040093D02*
X038897D01*
D93*
X021273Y018981D02*
D03*
X038202D02*
D03*
X021273Y025477D02*
D03*
X038202D02*
D03*
X021273Y031973D02*
D03*
X038202D02*
D03*
X021273Y038469D02*
D03*
X038202D02*
D03*
X021273Y044965D02*
D03*
X038202D02*
D03*
M02*
