G04*
G04 #@! TF.GenerationSoftware,Altium Limited,Altium Designer,22.10.1 (41)*
G04*
G04 Layer_Color=255*
%FSTAX24Y24*%
%MOIN*%
G70*
G04*
G04 #@! TF.SameCoordinates,5BB37C8D-2695-4AAB-85CC-B91A701228BC*
G04*
G04*
G04 #@! TF.FilePolarity,Positive*
G04*
G01*
G75*
%ADD17R,0.1378X0.0591*%
G04:AMPARAMS|DCode=18|XSize=25.2mil|YSize=23.6mil|CornerRadius=0mil|HoleSize=0mil|Usage=FLASHONLY|Rotation=225.000|XOffset=0mil|YOffset=0mil|HoleType=Round|Shape=Rectangle|*
%AMROTATEDRECTD18*
4,1,4,0.0006,0.0173,0.0173,0.0006,-0.0006,-0.0173,-0.0173,-0.0006,0.0006,0.0173,0.0*
%
%ADD18ROTATEDRECTD18*%

G04:AMPARAMS|DCode=19|XSize=25.2mil|YSize=23.6mil|CornerRadius=0mil|HoleSize=0mil|Usage=FLASHONLY|Rotation=135.000|XOffset=0mil|YOffset=0mil|HoleType=Round|Shape=Rectangle|*
%AMROTATEDRECTD19*
4,1,4,0.0173,-0.0006,0.0006,-0.0173,-0.0173,0.0006,-0.0006,0.0173,0.0173,-0.0006,0.0*
%
%ADD19ROTATEDRECTD19*%

%ADD20R,0.0236X0.0252*%
%ADD21R,0.0252X0.0236*%
%ADD22R,0.0394X0.0354*%
%ADD23R,0.0354X0.0394*%
%ADD24R,0.0236X0.0197*%
%ADD25R,0.0197X0.0236*%
%ADD26R,0.0335X0.0374*%
%ADD27R,0.0295X0.0236*%
%ADD28R,0.0236X0.0295*%
%ADD29R,0.0374X0.0335*%
G04:AMPARAMS|DCode=30|XSize=47.6mil|YSize=23.2mil|CornerRadius=2.9mil|HoleSize=0mil|Usage=FLASHONLY|Rotation=0.000|XOffset=0mil|YOffset=0mil|HoleType=Round|Shape=RoundedRectangle|*
%AMROUNDEDRECTD30*
21,1,0.0476,0.0174,0,0,0.0*
21,1,0.0418,0.0232,0,0,0.0*
1,1,0.0058,0.0209,-0.0087*
1,1,0.0058,-0.0209,-0.0087*
1,1,0.0058,-0.0209,0.0087*
1,1,0.0058,0.0209,0.0087*
%
%ADD30ROUNDEDRECTD30*%
%ADD31R,0.0157X0.0748*%
%ADD32R,0.0236X0.0748*%
%ADD33R,0.1024X0.1024*%
G04:AMPARAMS|DCode=34|XSize=31.9mil|YSize=10.2mil|CornerRadius=1.3mil|HoleSize=0mil|Usage=FLASHONLY|Rotation=0.000|XOffset=0mil|YOffset=0mil|HoleType=Round|Shape=RoundedRectangle|*
%AMROUNDEDRECTD34*
21,1,0.0319,0.0077,0,0,0.0*
21,1,0.0293,0.0102,0,0,0.0*
1,1,0.0026,0.0147,-0.0038*
1,1,0.0026,-0.0147,-0.0038*
1,1,0.0026,-0.0147,0.0038*
1,1,0.0026,0.0147,0.0038*
%
%ADD34ROUNDEDRECTD34*%
G04:AMPARAMS|DCode=35|XSize=31.9mil|YSize=10.2mil|CornerRadius=1.3mil|HoleSize=0mil|Usage=FLASHONLY|Rotation=90.000|XOffset=0mil|YOffset=0mil|HoleType=Round|Shape=RoundedRectangle|*
%AMROUNDEDRECTD35*
21,1,0.0319,0.0077,0,0,90.0*
21,1,0.0293,0.0102,0,0,90.0*
1,1,0.0026,0.0038,0.0147*
1,1,0.0026,0.0038,-0.0147*
1,1,0.0026,-0.0038,-0.0147*
1,1,0.0026,-0.0038,0.0147*
%
%ADD35ROUNDEDRECTD35*%
G04:AMPARAMS|DCode=36|XSize=11.8mil|YSize=47.2mil|CornerRadius=0mil|HoleSize=0mil|Usage=FLASHONLY|Rotation=225.000|XOffset=0mil|YOffset=0mil|HoleType=Round|Shape=Round|*
%AMOVALD36*
21,1,0.0354,0.0118,0.0000,0.0000,315.0*
1,1,0.0118,-0.0125,0.0125*
1,1,0.0118,0.0125,-0.0125*
%
%ADD36OVALD36*%

G04:AMPARAMS|DCode=37|XSize=11.8mil|YSize=47.2mil|CornerRadius=0mil|HoleSize=0mil|Usage=FLASHONLY|Rotation=135.000|XOffset=0mil|YOffset=0mil|HoleType=Round|Shape=Round|*
%AMOVALD37*
21,1,0.0354,0.0118,0.0000,0.0000,225.0*
1,1,0.0118,0.0125,0.0125*
1,1,0.0118,-0.0125,-0.0125*
%
%ADD37OVALD37*%

%ADD42C,0.0535*%
%ADD43R,0.0535X0.0535*%
%ADD44C,0.1102*%
D17*
X033023Y016621D02*
D03*
Y017684D02*
D03*
Y015558D02*
D03*
X049952Y016621D02*
D03*
Y017684D02*
D03*
Y015558D02*
D03*
X033023Y023117D02*
D03*
Y02418D02*
D03*
Y022054D02*
D03*
X049952Y023117D02*
D03*
Y02418D02*
D03*
Y022054D02*
D03*
X033023Y029613D02*
D03*
Y030676D02*
D03*
Y02855D02*
D03*
X049952Y029613D02*
D03*
Y030676D02*
D03*
Y02855D02*
D03*
X033023Y03611D02*
D03*
Y037173D02*
D03*
Y035047D02*
D03*
X049952Y03611D02*
D03*
Y037173D02*
D03*
Y035047D02*
D03*
X033023Y042606D02*
D03*
Y043669D02*
D03*
Y041543D02*
D03*
X049952Y042606D02*
D03*
Y043669D02*
D03*
Y041543D02*
D03*
D18*
X026745Y016049D02*
D03*
X0265Y016294D02*
D03*
X043675Y016049D02*
D03*
X04343Y016294D02*
D03*
X026745Y022545D02*
D03*
X0265Y02279D02*
D03*
X043675Y022545D02*
D03*
X04343Y02279D02*
D03*
X026745Y029041D02*
D03*
X0265Y029286D02*
D03*
X043675Y029041D02*
D03*
X04343Y029286D02*
D03*
X026745Y035537D02*
D03*
X0265Y035782D02*
D03*
X043675Y035537D02*
D03*
X04343Y035782D02*
D03*
X026745Y042033D02*
D03*
X0265Y042278D02*
D03*
X043675Y042033D02*
D03*
X04343Y042278D02*
D03*
D19*
X02645Y018849D02*
D03*
X026695Y019094D02*
D03*
X04338Y018849D02*
D03*
X043625Y019094D02*
D03*
X02645Y025345D02*
D03*
X026695Y02559D02*
D03*
X04338Y025345D02*
D03*
X043625Y02559D02*
D03*
X02645Y031841D02*
D03*
X026695Y032086D02*
D03*
X04338Y031841D02*
D03*
X043625Y032086D02*
D03*
X02645Y038337D02*
D03*
X026695Y038582D02*
D03*
X04338Y038337D02*
D03*
X043625Y038582D02*
D03*
X02645Y044833D02*
D03*
X026695Y045078D02*
D03*
X04338Y044833D02*
D03*
X043625Y045078D02*
D03*
D20*
X0295Y016421D02*
D03*
X029846D02*
D03*
X0295Y016871D02*
D03*
X029846D02*
D03*
X030196Y017671D02*
D03*
X02985D02*
D03*
X046429Y016421D02*
D03*
X046775D02*
D03*
X046429Y016871D02*
D03*
X046775D02*
D03*
X047125Y017671D02*
D03*
X046779D02*
D03*
X0295Y022917D02*
D03*
X029846D02*
D03*
X0295Y023367D02*
D03*
X029846D02*
D03*
X030196Y024167D02*
D03*
X02985D02*
D03*
X046429Y022917D02*
D03*
X046775D02*
D03*
X046429Y023367D02*
D03*
X046775D02*
D03*
X047125Y024167D02*
D03*
X046779D02*
D03*
X0295Y029413D02*
D03*
X029846D02*
D03*
X0295Y029863D02*
D03*
X029846D02*
D03*
X030196Y030663D02*
D03*
X02985D02*
D03*
X046429Y029413D02*
D03*
X046775D02*
D03*
X046429Y029863D02*
D03*
X046775D02*
D03*
X047125Y030663D02*
D03*
X046779D02*
D03*
X0295Y03591D02*
D03*
X029846D02*
D03*
X0295Y03636D02*
D03*
X029846D02*
D03*
X030196Y03716D02*
D03*
X02985D02*
D03*
X046429Y03591D02*
D03*
X046775D02*
D03*
X046429Y03636D02*
D03*
X046775D02*
D03*
X047125Y03716D02*
D03*
X046779D02*
D03*
X0295Y042406D02*
D03*
X029846D02*
D03*
X0295Y042856D02*
D03*
X029846D02*
D03*
X030196Y043656D02*
D03*
X02985D02*
D03*
X046429Y042406D02*
D03*
X046775D02*
D03*
X046429Y042856D02*
D03*
X046775D02*
D03*
X047125Y043656D02*
D03*
X046779D02*
D03*
D21*
X030673Y017698D02*
D03*
Y018045D02*
D03*
X028223Y019295D02*
D03*
Y018948D02*
D03*
X047602Y017698D02*
D03*
Y018045D02*
D03*
X045152Y019295D02*
D03*
Y018948D02*
D03*
X030673Y024194D02*
D03*
Y024541D02*
D03*
X028223Y025791D02*
D03*
Y025444D02*
D03*
X047602Y024194D02*
D03*
Y024541D02*
D03*
X045152Y025791D02*
D03*
Y025444D02*
D03*
X030673Y03069D02*
D03*
Y031037D02*
D03*
X028223Y032287D02*
D03*
Y03194D02*
D03*
X047602Y03069D02*
D03*
Y031037D02*
D03*
X045152Y032287D02*
D03*
Y03194D02*
D03*
X030673Y037186D02*
D03*
Y037533D02*
D03*
X028223Y038783D02*
D03*
Y038436D02*
D03*
X047602Y037186D02*
D03*
Y037533D02*
D03*
X045152Y038783D02*
D03*
Y038436D02*
D03*
X030673Y043682D02*
D03*
Y044029D02*
D03*
X028223Y045279D02*
D03*
Y044932D02*
D03*
X047602Y043682D02*
D03*
Y044029D02*
D03*
X045152Y045279D02*
D03*
Y044932D02*
D03*
D22*
X021023Y015056D02*
D03*
Y015587D02*
D03*
X024373Y019287D02*
D03*
Y018756D02*
D03*
X037952Y015056D02*
D03*
Y015587D02*
D03*
X041302Y019287D02*
D03*
Y018756D02*
D03*
X021023Y021552D02*
D03*
Y022083D02*
D03*
X024373Y025783D02*
D03*
Y025252D02*
D03*
X037952Y021552D02*
D03*
Y022083D02*
D03*
X041302Y025783D02*
D03*
Y025252D02*
D03*
X021023Y028048D02*
D03*
Y028579D02*
D03*
X024373Y032279D02*
D03*
Y031748D02*
D03*
X037952Y028048D02*
D03*
Y028579D02*
D03*
X041302Y032279D02*
D03*
Y031748D02*
D03*
X021023Y034544D02*
D03*
Y035075D02*
D03*
X024373Y038775D02*
D03*
Y038244D02*
D03*
X037952Y034544D02*
D03*
Y035075D02*
D03*
X041302Y038775D02*
D03*
Y038244D02*
D03*
X021023Y04104D02*
D03*
Y041571D02*
D03*
X024373Y045271D02*
D03*
Y04474D02*
D03*
X037952Y04104D02*
D03*
Y041571D02*
D03*
X041302Y045271D02*
D03*
Y04474D02*
D03*
D23*
X021889Y013921D02*
D03*
X021357D02*
D03*
X020504Y018821D02*
D03*
X019973D02*
D03*
X018673D02*
D03*
X018141D02*
D03*
X038818Y013921D02*
D03*
X038286D02*
D03*
X037434Y018821D02*
D03*
X036902D02*
D03*
X035602D02*
D03*
X035071D02*
D03*
X021889Y020417D02*
D03*
X021357D02*
D03*
X020504Y025317D02*
D03*
X019973D02*
D03*
X018673D02*
D03*
X018141D02*
D03*
X038818Y020417D02*
D03*
X038286D02*
D03*
X037434Y025317D02*
D03*
X036902D02*
D03*
X035602D02*
D03*
X035071D02*
D03*
X021889Y026913D02*
D03*
X021357D02*
D03*
X020504Y031813D02*
D03*
X019973D02*
D03*
X018673D02*
D03*
X018141D02*
D03*
X038818Y026913D02*
D03*
X038286D02*
D03*
X037434Y031813D02*
D03*
X036902D02*
D03*
X035602D02*
D03*
X035071D02*
D03*
X021889Y03341D02*
D03*
X021357D02*
D03*
X020504Y03831D02*
D03*
X019973D02*
D03*
X018673D02*
D03*
X018141D02*
D03*
X038818Y03341D02*
D03*
X038286D02*
D03*
X037434Y03831D02*
D03*
X036902D02*
D03*
X035602D02*
D03*
X035071D02*
D03*
X021889Y039906D02*
D03*
X021357D02*
D03*
X020504Y044806D02*
D03*
X019973D02*
D03*
X018673D02*
D03*
X018141D02*
D03*
X038818Y039906D02*
D03*
X038286D02*
D03*
X037434Y044806D02*
D03*
X036902D02*
D03*
X035602D02*
D03*
X035071D02*
D03*
D24*
X029023Y017221D02*
D03*
Y016875D02*
D03*
X028523Y017325D02*
D03*
Y017671D02*
D03*
X045952Y017221D02*
D03*
Y016875D02*
D03*
X045452Y017325D02*
D03*
Y017671D02*
D03*
X029023Y023717D02*
D03*
Y023371D02*
D03*
X028523Y023821D02*
D03*
Y024167D02*
D03*
X045952Y023717D02*
D03*
Y023371D02*
D03*
X045452Y023821D02*
D03*
Y024167D02*
D03*
X029023Y030213D02*
D03*
Y029867D02*
D03*
X028523Y030317D02*
D03*
Y030663D02*
D03*
X045952Y030213D02*
D03*
Y029867D02*
D03*
X045452Y030317D02*
D03*
Y030663D02*
D03*
X029023Y03671D02*
D03*
Y036363D02*
D03*
X028523Y036813D02*
D03*
Y03716D02*
D03*
X045952Y03671D02*
D03*
Y036363D02*
D03*
X045452Y036813D02*
D03*
Y03716D02*
D03*
X029023Y043206D02*
D03*
Y042859D02*
D03*
X028523Y043309D02*
D03*
Y043656D02*
D03*
X045952Y043206D02*
D03*
Y042859D02*
D03*
X045452Y043309D02*
D03*
Y043656D02*
D03*
D25*
X029346Y017671D02*
D03*
X029D02*
D03*
X046275D02*
D03*
X045929D02*
D03*
X029346Y024167D02*
D03*
X029D02*
D03*
X046275D02*
D03*
X045929D02*
D03*
X029346Y030663D02*
D03*
X029D02*
D03*
X046275D02*
D03*
X045929D02*
D03*
X029346Y03716D02*
D03*
X029D02*
D03*
X046275D02*
D03*
X045929D02*
D03*
X029346Y043656D02*
D03*
X029D02*
D03*
X046275D02*
D03*
X045929D02*
D03*
D26*
X025829Y013921D02*
D03*
X025317D02*
D03*
X042758D02*
D03*
X042246D02*
D03*
X025829Y020417D02*
D03*
X025317D02*
D03*
X042758D02*
D03*
X042246D02*
D03*
X025829Y026913D02*
D03*
X025317D02*
D03*
X042758D02*
D03*
X042246D02*
D03*
X025829Y03341D02*
D03*
X025317D02*
D03*
X042758D02*
D03*
X042246D02*
D03*
X025829Y039906D02*
D03*
X025317D02*
D03*
X042758D02*
D03*
X042246D02*
D03*
D27*
X021849Y014471D02*
D03*
X021397D02*
D03*
X038778D02*
D03*
X038326D02*
D03*
X021849Y020967D02*
D03*
X021397D02*
D03*
X038778D02*
D03*
X038326D02*
D03*
X021849Y027463D02*
D03*
X021397D02*
D03*
X038778D02*
D03*
X038326D02*
D03*
X021849Y03396D02*
D03*
X021397D02*
D03*
X038778D02*
D03*
X038326D02*
D03*
X021849Y040456D02*
D03*
X021397D02*
D03*
X038778D02*
D03*
X038326D02*
D03*
D28*
X027723Y018895D02*
D03*
Y019348D02*
D03*
X025623Y019248D02*
D03*
Y018795D02*
D03*
X044652Y018895D02*
D03*
Y019348D02*
D03*
X042552Y019248D02*
D03*
Y018795D02*
D03*
X027723Y025391D02*
D03*
Y025844D02*
D03*
X025623Y025744D02*
D03*
Y025291D02*
D03*
X044652Y025391D02*
D03*
Y025844D02*
D03*
X042552Y025744D02*
D03*
Y025291D02*
D03*
X027723Y031887D02*
D03*
Y03234D02*
D03*
X025623Y03224D02*
D03*
Y031787D02*
D03*
X044652Y031887D02*
D03*
Y03234D02*
D03*
X042552Y03224D02*
D03*
Y031787D02*
D03*
X027723Y038383D02*
D03*
Y038836D02*
D03*
X025623Y038736D02*
D03*
Y038283D02*
D03*
X044652Y038383D02*
D03*
Y038836D02*
D03*
X042552Y038736D02*
D03*
Y038283D02*
D03*
X027723Y044879D02*
D03*
Y045332D02*
D03*
X025623Y045232D02*
D03*
Y044779D02*
D03*
X044652Y044879D02*
D03*
Y045332D02*
D03*
X042552Y045232D02*
D03*
Y044779D02*
D03*
D29*
X025023Y019227D02*
D03*
Y018715D02*
D03*
X041952Y019227D02*
D03*
Y018715D02*
D03*
X025023Y025723D02*
D03*
Y025211D02*
D03*
X041952Y025723D02*
D03*
Y025211D02*
D03*
X025023Y032219D02*
D03*
Y031708D02*
D03*
X041952Y032219D02*
D03*
Y031708D02*
D03*
X025023Y038715D02*
D03*
Y038204D02*
D03*
X041952Y038715D02*
D03*
Y038204D02*
D03*
X025023Y045211D02*
D03*
Y0447D02*
D03*
X041952Y045211D02*
D03*
Y0447D02*
D03*
D30*
X019729Y016945D02*
D03*
Y016571D02*
D03*
Y016197D02*
D03*
X020717D02*
D03*
X020717Y016571D02*
D03*
X020717Y016945D02*
D03*
X036658D02*
D03*
Y016571D02*
D03*
Y016197D02*
D03*
X037646D02*
D03*
X037646Y016571D02*
D03*
X037646Y016945D02*
D03*
X019729Y023441D02*
D03*
Y023067D02*
D03*
Y022693D02*
D03*
X020717D02*
D03*
X020717Y023067D02*
D03*
X020717Y023441D02*
D03*
X036658D02*
D03*
Y023067D02*
D03*
Y022693D02*
D03*
X037646D02*
D03*
X037646Y023067D02*
D03*
X037646Y023441D02*
D03*
X019729Y029937D02*
D03*
Y029563D02*
D03*
Y029189D02*
D03*
X020717D02*
D03*
X020717Y029563D02*
D03*
X020717Y029937D02*
D03*
X036658D02*
D03*
Y029563D02*
D03*
Y029189D02*
D03*
X037646D02*
D03*
X037646Y029563D02*
D03*
X037646Y029937D02*
D03*
X019729Y036434D02*
D03*
Y03606D02*
D03*
Y035686D02*
D03*
X020717D02*
D03*
X020717Y03606D02*
D03*
X020717Y036434D02*
D03*
X036658D02*
D03*
Y03606D02*
D03*
Y035686D02*
D03*
X037646D02*
D03*
X037646Y03606D02*
D03*
X037646Y036434D02*
D03*
X019729Y04293D02*
D03*
Y042556D02*
D03*
Y042182D02*
D03*
X020717D02*
D03*
X020717Y042556D02*
D03*
X020717Y04293D02*
D03*
X036658D02*
D03*
Y042556D02*
D03*
Y042182D02*
D03*
X037646D02*
D03*
X037646Y042556D02*
D03*
X037646Y04293D02*
D03*
D31*
X027523Y015421D02*
D03*
X044452D02*
D03*
X027523Y021917D02*
D03*
X044452D02*
D03*
X027523Y028413D02*
D03*
X044452D02*
D03*
X027523Y03491D02*
D03*
X044452D02*
D03*
X027523Y041406D02*
D03*
X044452D02*
D03*
D32*
X027897Y015421D02*
D03*
X027149D02*
D03*
X044826D02*
D03*
X044078D02*
D03*
X027897Y021917D02*
D03*
X027149D02*
D03*
X044826D02*
D03*
X044078D02*
D03*
X027897Y028413D02*
D03*
X027149D02*
D03*
X044826D02*
D03*
X044078D02*
D03*
X027897Y03491D02*
D03*
X027149D02*
D03*
X044826D02*
D03*
X044078D02*
D03*
X027897Y041406D02*
D03*
X027149D02*
D03*
X044826D02*
D03*
X044078D02*
D03*
D33*
X027267Y017554D02*
D03*
X044196D02*
D03*
X027267Y02405D02*
D03*
X044196D02*
D03*
X027267Y030546D02*
D03*
X044196D02*
D03*
X027267Y037042D02*
D03*
X044196D02*
D03*
X027267Y043538D02*
D03*
X044196D02*
D03*
D34*
X028034Y017947D02*
D03*
Y01775D02*
D03*
Y017554D02*
D03*
Y017357D02*
D03*
Y01716D02*
D03*
X026499D02*
D03*
Y017357D02*
D03*
Y017554D02*
D03*
Y01775D02*
D03*
Y017947D02*
D03*
X044963D02*
D03*
Y01775D02*
D03*
Y017554D02*
D03*
Y017357D02*
D03*
Y01716D02*
D03*
X043428D02*
D03*
Y017357D02*
D03*
Y017554D02*
D03*
Y01775D02*
D03*
Y017947D02*
D03*
X028034Y024443D02*
D03*
Y024247D02*
D03*
Y02405D02*
D03*
Y023853D02*
D03*
Y023656D02*
D03*
X026499D02*
D03*
Y023853D02*
D03*
Y02405D02*
D03*
Y024247D02*
D03*
Y024443D02*
D03*
X044963D02*
D03*
Y024247D02*
D03*
Y02405D02*
D03*
Y023853D02*
D03*
Y023656D02*
D03*
X043428D02*
D03*
Y023853D02*
D03*
Y02405D02*
D03*
Y024247D02*
D03*
Y024443D02*
D03*
X028034Y030939D02*
D03*
Y030743D02*
D03*
Y030546D02*
D03*
Y030349D02*
D03*
Y030152D02*
D03*
X026499D02*
D03*
Y030349D02*
D03*
Y030546D02*
D03*
Y030743D02*
D03*
Y030939D02*
D03*
X044963D02*
D03*
Y030743D02*
D03*
Y030546D02*
D03*
Y030349D02*
D03*
Y030152D02*
D03*
X043428D02*
D03*
Y030349D02*
D03*
Y030546D02*
D03*
Y030743D02*
D03*
Y030939D02*
D03*
X028034Y037436D02*
D03*
Y037239D02*
D03*
Y037042D02*
D03*
Y036845D02*
D03*
Y036648D02*
D03*
X026499D02*
D03*
Y036845D02*
D03*
Y037042D02*
D03*
Y037239D02*
D03*
Y037436D02*
D03*
X044963D02*
D03*
Y037239D02*
D03*
Y037042D02*
D03*
Y036845D02*
D03*
Y036648D02*
D03*
X043428D02*
D03*
Y036845D02*
D03*
Y037042D02*
D03*
Y037239D02*
D03*
Y037436D02*
D03*
X028034Y043932D02*
D03*
Y043735D02*
D03*
Y043538D02*
D03*
Y043341D02*
D03*
Y043144D02*
D03*
X026499D02*
D03*
Y043341D02*
D03*
Y043538D02*
D03*
Y043735D02*
D03*
Y043932D02*
D03*
X044963D02*
D03*
Y043735D02*
D03*
Y043538D02*
D03*
Y043341D02*
D03*
Y043144D02*
D03*
X043428D02*
D03*
Y043341D02*
D03*
Y043538D02*
D03*
Y043735D02*
D03*
Y043932D02*
D03*
D35*
X026873Y018321D02*
D03*
X02707D02*
D03*
X027267D02*
D03*
X027463D02*
D03*
X02766D02*
D03*
Y016786D02*
D03*
X027463D02*
D03*
X027267D02*
D03*
X02707D02*
D03*
X026873D02*
D03*
X043802Y018321D02*
D03*
X043999D02*
D03*
X044196D02*
D03*
X044393D02*
D03*
X044589D02*
D03*
Y016786D02*
D03*
X044393D02*
D03*
X044196D02*
D03*
X043999D02*
D03*
X043802D02*
D03*
X026873Y024817D02*
D03*
X02707D02*
D03*
X027267D02*
D03*
X027463D02*
D03*
X02766D02*
D03*
Y023282D02*
D03*
X027463D02*
D03*
X027267D02*
D03*
X02707D02*
D03*
X026873D02*
D03*
X043802Y024817D02*
D03*
X043999D02*
D03*
X044196D02*
D03*
X044393D02*
D03*
X044589D02*
D03*
Y023282D02*
D03*
X044393D02*
D03*
X044196D02*
D03*
X043999D02*
D03*
X043802D02*
D03*
X026873Y031313D02*
D03*
X02707D02*
D03*
X027267D02*
D03*
X027463D02*
D03*
X02766D02*
D03*
Y029778D02*
D03*
X027463D02*
D03*
X027267D02*
D03*
X02707D02*
D03*
X026873D02*
D03*
X043802Y031313D02*
D03*
X043999D02*
D03*
X044196D02*
D03*
X044393D02*
D03*
X044589D02*
D03*
Y029778D02*
D03*
X044393D02*
D03*
X044196D02*
D03*
X043999D02*
D03*
X043802D02*
D03*
X026873Y03781D02*
D03*
X02707D02*
D03*
X027267D02*
D03*
X027463D02*
D03*
X02766D02*
D03*
Y036274D02*
D03*
X027463D02*
D03*
X027267D02*
D03*
X02707D02*
D03*
X026873D02*
D03*
X043802Y03781D02*
D03*
X043999D02*
D03*
X044196D02*
D03*
X044393D02*
D03*
X044589D02*
D03*
Y036274D02*
D03*
X044393D02*
D03*
X044196D02*
D03*
X043999D02*
D03*
X043802D02*
D03*
X026873Y044306D02*
D03*
X02707D02*
D03*
X027267D02*
D03*
X027463D02*
D03*
X02766D02*
D03*
Y04277D02*
D03*
X027463D02*
D03*
X027267D02*
D03*
X02707D02*
D03*
X026873D02*
D03*
X043802Y044306D02*
D03*
X043999D02*
D03*
X044196D02*
D03*
X044393D02*
D03*
X044589D02*
D03*
Y04277D02*
D03*
X044393D02*
D03*
X044196D02*
D03*
X043999D02*
D03*
X043802D02*
D03*
D36*
X02414Y013873D02*
D03*
X02428Y014012D02*
D03*
X024419Y014151D02*
D03*
X024558Y01429D02*
D03*
X024697Y014429D02*
D03*
X024836Y014569D02*
D03*
X024976Y014708D02*
D03*
X025115Y014847D02*
D03*
X025254Y014986D02*
D03*
X025393Y015125D02*
D03*
X025532Y015265D02*
D03*
X025672Y015404D02*
D03*
X023305Y01777D02*
D03*
X023166Y017631D02*
D03*
X023027Y017492D02*
D03*
X022888Y017352D02*
D03*
X022749Y017213D02*
D03*
X022609Y017074D02*
D03*
X02247Y016935D02*
D03*
X022331Y016796D02*
D03*
X022192Y016656D02*
D03*
X022053Y016517D02*
D03*
X021913Y016378D02*
D03*
X021774Y016239D02*
D03*
X04107Y013873D02*
D03*
X041209Y014012D02*
D03*
X041348Y014151D02*
D03*
X041487Y01429D02*
D03*
X041626Y014429D02*
D03*
X041766Y014569D02*
D03*
X041905Y014708D02*
D03*
X042044Y014847D02*
D03*
X042183Y014986D02*
D03*
X042322Y015125D02*
D03*
X042462Y015265D02*
D03*
X042601Y015404D02*
D03*
X040234Y01777D02*
D03*
X040095Y017631D02*
D03*
X039956Y017492D02*
D03*
X039817Y017352D02*
D03*
X039678Y017213D02*
D03*
X039538Y017074D02*
D03*
X039399Y016935D02*
D03*
X03926Y016796D02*
D03*
X039121Y016656D02*
D03*
X038982Y016517D02*
D03*
X038843Y016378D02*
D03*
X038703Y016239D02*
D03*
X02414Y020369D02*
D03*
X02428Y020508D02*
D03*
X024419Y020647D02*
D03*
X024558Y020786D02*
D03*
X024697Y020925D02*
D03*
X024836Y021065D02*
D03*
X024976Y021204D02*
D03*
X025115Y021343D02*
D03*
X025254Y021482D02*
D03*
X025393Y021621D02*
D03*
X025532Y021761D02*
D03*
X025672Y0219D02*
D03*
X023305Y024266D02*
D03*
X023166Y024127D02*
D03*
X023027Y023988D02*
D03*
X022888Y023849D02*
D03*
X022749Y023709D02*
D03*
X022609Y02357D02*
D03*
X02247Y023431D02*
D03*
X022331Y023292D02*
D03*
X022192Y023153D02*
D03*
X022053Y023013D02*
D03*
X021913Y022874D02*
D03*
X021774Y022735D02*
D03*
X04107Y020369D02*
D03*
X041209Y020508D02*
D03*
X041348Y020647D02*
D03*
X041487Y020786D02*
D03*
X041626Y020925D02*
D03*
X041766Y021065D02*
D03*
X041905Y021204D02*
D03*
X042044Y021343D02*
D03*
X042183Y021482D02*
D03*
X042322Y021621D02*
D03*
X042462Y021761D02*
D03*
X042601Y0219D02*
D03*
X040234Y024266D02*
D03*
X040095Y024127D02*
D03*
X039956Y023988D02*
D03*
X039817Y023849D02*
D03*
X039678Y023709D02*
D03*
X039538Y02357D02*
D03*
X039399Y023431D02*
D03*
X03926Y023292D02*
D03*
X039121Y023153D02*
D03*
X038982Y023013D02*
D03*
X038843Y022874D02*
D03*
X038703Y022735D02*
D03*
X02414Y026865D02*
D03*
X02428Y027004D02*
D03*
X024419Y027143D02*
D03*
X024558Y027282D02*
D03*
X024697Y027422D02*
D03*
X024836Y027561D02*
D03*
X024976Y0277D02*
D03*
X025115Y027839D02*
D03*
X025254Y027978D02*
D03*
X025393Y028117D02*
D03*
X025532Y028257D02*
D03*
X025672Y028396D02*
D03*
X023305Y030762D02*
D03*
X023166Y030623D02*
D03*
X023027Y030484D02*
D03*
X022888Y030345D02*
D03*
X022749Y030205D02*
D03*
X022609Y030066D02*
D03*
X02247Y029927D02*
D03*
X022331Y029788D02*
D03*
X022192Y029649D02*
D03*
X022053Y029509D02*
D03*
X021913Y02937D02*
D03*
X021774Y029231D02*
D03*
X04107Y026865D02*
D03*
X041209Y027004D02*
D03*
X041348Y027143D02*
D03*
X041487Y027282D02*
D03*
X041626Y027422D02*
D03*
X041766Y027561D02*
D03*
X041905Y0277D02*
D03*
X042044Y027839D02*
D03*
X042183Y027978D02*
D03*
X042322Y028117D02*
D03*
X042462Y028257D02*
D03*
X042601Y028396D02*
D03*
X040234Y030762D02*
D03*
X040095Y030623D02*
D03*
X039956Y030484D02*
D03*
X039817Y030345D02*
D03*
X039678Y030205D02*
D03*
X039538Y030066D02*
D03*
X039399Y029927D02*
D03*
X03926Y029788D02*
D03*
X039121Y029649D02*
D03*
X038982Y029509D02*
D03*
X038843Y02937D02*
D03*
X038703Y029231D02*
D03*
X02414Y033361D02*
D03*
X02428Y0335D02*
D03*
X024419Y033639D02*
D03*
X024558Y033778D02*
D03*
X024697Y033918D02*
D03*
X024836Y034057D02*
D03*
X024976Y034196D02*
D03*
X025115Y034335D02*
D03*
X025254Y034474D02*
D03*
X025393Y034614D02*
D03*
X025532Y034753D02*
D03*
X025672Y034892D02*
D03*
X023305Y037258D02*
D03*
X023166Y037119D02*
D03*
X023027Y03698D02*
D03*
X022888Y036841D02*
D03*
X022749Y036701D02*
D03*
X022609Y036562D02*
D03*
X02247Y036423D02*
D03*
X022331Y036284D02*
D03*
X022192Y036145D02*
D03*
X022053Y036005D02*
D03*
X021913Y035866D02*
D03*
X021774Y035727D02*
D03*
X04107Y033361D02*
D03*
X041209Y0335D02*
D03*
X041348Y033639D02*
D03*
X041487Y033778D02*
D03*
X041626Y033918D02*
D03*
X041766Y034057D02*
D03*
X041905Y034196D02*
D03*
X042044Y034335D02*
D03*
X042183Y034474D02*
D03*
X042322Y034614D02*
D03*
X042462Y034753D02*
D03*
X042601Y034892D02*
D03*
X040234Y037258D02*
D03*
X040095Y037119D02*
D03*
X039956Y03698D02*
D03*
X039817Y036841D02*
D03*
X039678Y036701D02*
D03*
X039538Y036562D02*
D03*
X039399Y036423D02*
D03*
X03926Y036284D02*
D03*
X039121Y036145D02*
D03*
X038982Y036005D02*
D03*
X038843Y035866D02*
D03*
X038703Y035727D02*
D03*
X02414Y039857D02*
D03*
X02428Y039996D02*
D03*
X024419Y040135D02*
D03*
X024558Y040274D02*
D03*
X024697Y040414D02*
D03*
X024836Y040553D02*
D03*
X024976Y040692D02*
D03*
X025115Y040831D02*
D03*
X025254Y04097D02*
D03*
X025393Y04111D02*
D03*
X025532Y041249D02*
D03*
X025672Y041388D02*
D03*
X023305Y043754D02*
D03*
X023166Y043615D02*
D03*
X023027Y043476D02*
D03*
X022888Y043337D02*
D03*
X022749Y043198D02*
D03*
X022609Y043058D02*
D03*
X02247Y042919D02*
D03*
X022331Y04278D02*
D03*
X022192Y042641D02*
D03*
X022053Y042502D02*
D03*
X021913Y042362D02*
D03*
X021774Y042223D02*
D03*
X04107Y039857D02*
D03*
X041209Y039996D02*
D03*
X041348Y040135D02*
D03*
X041487Y040274D02*
D03*
X041626Y040414D02*
D03*
X041766Y040553D02*
D03*
X041905Y040692D02*
D03*
X042044Y040831D02*
D03*
X042183Y04097D02*
D03*
X042322Y04111D02*
D03*
X042462Y041249D02*
D03*
X042601Y041388D02*
D03*
X040234Y043754D02*
D03*
X040095Y043615D02*
D03*
X039956Y043476D02*
D03*
X039817Y043337D02*
D03*
X039678Y043198D02*
D03*
X039538Y043058D02*
D03*
X039399Y042919D02*
D03*
X03926Y04278D02*
D03*
X039121Y042641D02*
D03*
X038982Y042502D02*
D03*
X038843Y042362D02*
D03*
X038703Y042223D02*
D03*
D37*
X025672Y016239D02*
D03*
X025532Y016378D02*
D03*
X025393Y016517D02*
D03*
X025254Y016656D02*
D03*
X025115Y016796D02*
D03*
X024976Y016935D02*
D03*
X024836Y017074D02*
D03*
X024697Y017213D02*
D03*
X024558Y017352D02*
D03*
X024419Y017492D02*
D03*
X02428Y017631D02*
D03*
X02414Y01777D02*
D03*
X021774Y015404D02*
D03*
X021913Y015265D02*
D03*
X022053Y015125D02*
D03*
X022192Y014986D02*
D03*
X022331Y014847D02*
D03*
X02247Y014708D02*
D03*
X022609Y014569D02*
D03*
X022749Y014429D02*
D03*
X022888Y01429D02*
D03*
X023027Y014151D02*
D03*
X023166Y014012D02*
D03*
X023305Y013873D02*
D03*
X042601Y016239D02*
D03*
X042462Y016378D02*
D03*
X042322Y016517D02*
D03*
X042183Y016656D02*
D03*
X042044Y016796D02*
D03*
X041905Y016935D02*
D03*
X041766Y017074D02*
D03*
X041626Y017213D02*
D03*
X041487Y017352D02*
D03*
X041348Y017492D02*
D03*
X041209Y017631D02*
D03*
X04107Y01777D02*
D03*
X038703Y015404D02*
D03*
X038843Y015265D02*
D03*
X038982Y015125D02*
D03*
X039121Y014986D02*
D03*
X03926Y014847D02*
D03*
X039399Y014708D02*
D03*
X039538Y014569D02*
D03*
X039678Y014429D02*
D03*
X039817Y01429D02*
D03*
X039956Y014151D02*
D03*
X040095Y014012D02*
D03*
X040234Y013873D02*
D03*
X025672Y022735D02*
D03*
X025532Y022874D02*
D03*
X025393Y023013D02*
D03*
X025254Y023153D02*
D03*
X025115Y023292D02*
D03*
X024976Y023431D02*
D03*
X024836Y02357D02*
D03*
X024697Y023709D02*
D03*
X024558Y023849D02*
D03*
X024419Y023988D02*
D03*
X02428Y024127D02*
D03*
X02414Y024266D02*
D03*
X021774Y0219D02*
D03*
X021913Y021761D02*
D03*
X022053Y021621D02*
D03*
X022192Y021482D02*
D03*
X022331Y021343D02*
D03*
X02247Y021204D02*
D03*
X022609Y021065D02*
D03*
X022749Y020925D02*
D03*
X022888Y020786D02*
D03*
X023027Y020647D02*
D03*
X023166Y020508D02*
D03*
X023305Y020369D02*
D03*
X042601Y022735D02*
D03*
X042462Y022874D02*
D03*
X042322Y023013D02*
D03*
X042183Y023153D02*
D03*
X042044Y023292D02*
D03*
X041905Y023431D02*
D03*
X041766Y02357D02*
D03*
X041626Y023709D02*
D03*
X041487Y023849D02*
D03*
X041348Y023988D02*
D03*
X041209Y024127D02*
D03*
X04107Y024266D02*
D03*
X038703Y0219D02*
D03*
X038843Y021761D02*
D03*
X038982Y021621D02*
D03*
X039121Y021482D02*
D03*
X03926Y021343D02*
D03*
X039399Y021204D02*
D03*
X039538Y021065D02*
D03*
X039678Y020925D02*
D03*
X039817Y020786D02*
D03*
X039956Y020647D02*
D03*
X040095Y020508D02*
D03*
X040234Y020369D02*
D03*
X025672Y029231D02*
D03*
X025532Y02937D02*
D03*
X025393Y029509D02*
D03*
X025254Y029649D02*
D03*
X025115Y029788D02*
D03*
X024976Y029927D02*
D03*
X024836Y030066D02*
D03*
X024697Y030205D02*
D03*
X024558Y030345D02*
D03*
X024419Y030484D02*
D03*
X02428Y030623D02*
D03*
X02414Y030762D02*
D03*
X021774Y028396D02*
D03*
X021913Y028257D02*
D03*
X022053Y028117D02*
D03*
X022192Y027978D02*
D03*
X022331Y027839D02*
D03*
X02247Y0277D02*
D03*
X022609Y027561D02*
D03*
X022749Y027422D02*
D03*
X022888Y027282D02*
D03*
X023027Y027143D02*
D03*
X023166Y027004D02*
D03*
X023305Y026865D02*
D03*
X042601Y029231D02*
D03*
X042462Y02937D02*
D03*
X042322Y029509D02*
D03*
X042183Y029649D02*
D03*
X042044Y029788D02*
D03*
X041905Y029927D02*
D03*
X041766Y030066D02*
D03*
X041626Y030205D02*
D03*
X041487Y030345D02*
D03*
X041348Y030484D02*
D03*
X041209Y030623D02*
D03*
X04107Y030762D02*
D03*
X038703Y028396D02*
D03*
X038843Y028257D02*
D03*
X038982Y028117D02*
D03*
X039121Y027978D02*
D03*
X03926Y027839D02*
D03*
X039399Y0277D02*
D03*
X039538Y027561D02*
D03*
X039678Y027422D02*
D03*
X039817Y027282D02*
D03*
X039956Y027143D02*
D03*
X040095Y027004D02*
D03*
X040234Y026865D02*
D03*
X025672Y035727D02*
D03*
X025532Y035866D02*
D03*
X025393Y036005D02*
D03*
X025254Y036145D02*
D03*
X025115Y036284D02*
D03*
X024976Y036423D02*
D03*
X024836Y036562D02*
D03*
X024697Y036701D02*
D03*
X024558Y036841D02*
D03*
X024419Y03698D02*
D03*
X02428Y037119D02*
D03*
X02414Y037258D02*
D03*
X021774Y034892D02*
D03*
X021913Y034753D02*
D03*
X022053Y034614D02*
D03*
X022192Y034474D02*
D03*
X022331Y034335D02*
D03*
X02247Y034196D02*
D03*
X022609Y034057D02*
D03*
X022749Y033918D02*
D03*
X022888Y033778D02*
D03*
X023027Y033639D02*
D03*
X023166Y0335D02*
D03*
X023305Y033361D02*
D03*
X042601Y035727D02*
D03*
X042462Y035866D02*
D03*
X042322Y036005D02*
D03*
X042183Y036145D02*
D03*
X042044Y036284D02*
D03*
X041905Y036423D02*
D03*
X041766Y036562D02*
D03*
X041626Y036701D02*
D03*
X041487Y036841D02*
D03*
X041348Y03698D02*
D03*
X041209Y037119D02*
D03*
X04107Y037258D02*
D03*
X038703Y034892D02*
D03*
X038843Y034753D02*
D03*
X038982Y034614D02*
D03*
X039121Y034474D02*
D03*
X03926Y034335D02*
D03*
X039399Y034196D02*
D03*
X039538Y034057D02*
D03*
X039678Y033918D02*
D03*
X039817Y033778D02*
D03*
X039956Y033639D02*
D03*
X040095Y0335D02*
D03*
X040234Y033361D02*
D03*
X025672Y042223D02*
D03*
X025532Y042362D02*
D03*
X025393Y042502D02*
D03*
X025254Y042641D02*
D03*
X025115Y04278D02*
D03*
X024976Y042919D02*
D03*
X024836Y043058D02*
D03*
X024697Y043198D02*
D03*
X024558Y043337D02*
D03*
X024419Y043476D02*
D03*
X02428Y043615D02*
D03*
X02414Y043754D02*
D03*
X021774Y041388D02*
D03*
X021913Y041249D02*
D03*
X022053Y04111D02*
D03*
X022192Y04097D02*
D03*
X022331Y040831D02*
D03*
X02247Y040692D02*
D03*
X022609Y040553D02*
D03*
X022749Y040414D02*
D03*
X022888Y040274D02*
D03*
X023027Y040135D02*
D03*
X023166Y039996D02*
D03*
X023305Y039857D02*
D03*
X042601Y042223D02*
D03*
X042462Y042362D02*
D03*
X042322Y042502D02*
D03*
X042183Y042641D02*
D03*
X042044Y04278D02*
D03*
X041905Y042919D02*
D03*
X041766Y043058D02*
D03*
X041626Y043198D02*
D03*
X041487Y043337D02*
D03*
X041348Y043476D02*
D03*
X041209Y043615D02*
D03*
X04107Y043754D02*
D03*
X038703Y041388D02*
D03*
X038843Y041249D02*
D03*
X038982Y04111D02*
D03*
X039121Y04097D02*
D03*
X03926Y040831D02*
D03*
X039399Y040692D02*
D03*
X039538Y040553D02*
D03*
X039678Y040414D02*
D03*
X039817Y040274D02*
D03*
X039956Y040135D02*
D03*
X040095Y039996D02*
D03*
X040234Y039857D02*
D03*
D42*
X021979Y018428D02*
D03*
Y019215D02*
D03*
X022767Y018428D02*
D03*
X038908D02*
D03*
Y019215D02*
D03*
X039696Y018428D02*
D03*
X021979Y024924D02*
D03*
Y025711D02*
D03*
X022767Y024924D02*
D03*
X038908D02*
D03*
Y025711D02*
D03*
X039696Y024924D02*
D03*
X021979Y03142D02*
D03*
Y032207D02*
D03*
X022767Y03142D02*
D03*
X038908D02*
D03*
Y032207D02*
D03*
X039696Y03142D02*
D03*
X021979Y037916D02*
D03*
Y038703D02*
D03*
X022767Y037916D02*
D03*
X038908D02*
D03*
Y038703D02*
D03*
X039696Y037916D02*
D03*
X021979Y044412D02*
D03*
Y045199D02*
D03*
X022767Y044412D02*
D03*
X038908D02*
D03*
Y045199D02*
D03*
X039696Y044412D02*
D03*
D43*
X022767Y019215D02*
D03*
X039696D02*
D03*
X022767Y025711D02*
D03*
X039696D02*
D03*
X022767Y032207D02*
D03*
X039696D02*
D03*
X022767Y038703D02*
D03*
X039696D02*
D03*
X022767Y045199D02*
D03*
X039696D02*
D03*
D44*
X018144Y017471D02*
D03*
X018144Y0157D02*
D03*
X035073Y017471D02*
D03*
X035073Y0157D02*
D03*
X018144Y023967D02*
D03*
X018144Y022196D02*
D03*
X035073Y023967D02*
D03*
X035073Y022196D02*
D03*
X018144Y030463D02*
D03*
X018144Y028692D02*
D03*
X035073Y030463D02*
D03*
X035073Y028692D02*
D03*
X018144Y03696D02*
D03*
X018144Y035188D02*
D03*
X035073Y03696D02*
D03*
X035073Y035188D02*
D03*
X018144Y043456D02*
D03*
X018144Y041684D02*
D03*
X035073Y043456D02*
D03*
X035073Y041684D02*
D03*
M02*
