G04*
G04 #@! TF.GenerationSoftware,Altium Limited,Altium Designer,22.10.1 (41)*
G04*
G04 Layer_Color=2752767*
%FSTAX24Y24*%
%MOIN*%
G70*
G04*
G04 #@! TF.SameCoordinates,5BB37C8D-2695-4AAB-85CC-B91A701228BC*
G04*
G04*
G04 #@! TF.FilePolarity,Positive*
G04*
G01*
G75*
%ADD95C,0.0020*%
%ADD96C,0.0027*%
D95*
X021899Y018348D02*
Y018508D01*
X022059D01*
Y018348D01*
X021899D01*
Y019135D02*
Y019295D01*
X022059D01*
Y019135D01*
X021899D01*
X022687Y018348D02*
Y018508D01*
X022847D01*
Y018348D01*
X022687D01*
Y019135D02*
Y019295D01*
X022847D01*
Y019135D01*
X022687D01*
X024573Y017891D02*
X024493Y018051D01*
X024653D01*
X024573Y017891D01*
X018473Y018191D02*
X018393Y018351D01*
X018553D01*
X018473Y018191D01*
X017623Y019191D02*
X017543Y019351D01*
X017703D01*
X017623Y019191D01*
X018173Y016491D02*
X018093Y016651D01*
X018253D01*
X018173Y016491D01*
X019973D02*
X019893Y016651D01*
X020053D01*
X019973Y016491D01*
X031173Y015691D02*
X031093Y015851D01*
X031253D01*
X031173Y015691D01*
X032973Y018391D02*
X032893Y018551D01*
X033053D01*
X032973Y018391D01*
Y014791D02*
X032893Y014951D01*
X033053D01*
X032973Y014791D01*
Y013891D02*
X032893Y014051D01*
X033053D01*
X032973Y013891D01*
X032073Y018391D02*
X031993Y018551D01*
X032153D01*
X032073Y018391D01*
Y015691D02*
X031993Y015851D01*
X032153D01*
X032073Y015691D01*
Y014791D02*
X031993Y014951D01*
X032153D01*
X032073Y014791D01*
Y013891D02*
X031993Y014051D01*
X032153D01*
X032073Y013891D01*
X031173Y018391D02*
X031093Y018551D01*
X031253D01*
X031173Y018391D01*
Y016591D02*
X031093Y016751D01*
X031253D01*
X031173Y016591D01*
Y014791D02*
X031093Y014951D01*
X031253D01*
X031173Y014791D01*
Y013891D02*
X031093Y014051D01*
X031253D01*
X031173Y013891D01*
X030273Y016591D02*
X030193Y016751D01*
X030353D01*
X030273Y016591D01*
Y015691D02*
X030193Y015851D01*
X030353D01*
X030273Y015691D01*
Y014791D02*
X030193Y014951D01*
X030353D01*
X030273Y014791D01*
Y013891D02*
X030193Y014051D01*
X030353D01*
X030273Y013891D01*
X029373Y014791D02*
X029293Y014951D01*
X029453D01*
X029373Y014791D01*
Y013891D02*
X029293Y014051D01*
X029453D01*
X029373Y013891D01*
X028473D02*
X028393Y014051D01*
X028553D01*
X028473Y013891D01*
X027573D02*
X027493Y014051D01*
X027653D01*
X027573Y013891D01*
X026673D02*
X026593Y014051D01*
X026753D01*
X026673Y013891D01*
X018573D02*
X018493Y014051D01*
X018653D01*
X018573Y013891D01*
X017673D02*
X017593Y014051D01*
X017753D01*
X017673Y013891D01*
X028073Y015941D02*
X027993Y016101D01*
X028153D01*
X028073Y015941D01*
X028373Y015541D02*
X028293Y015701D01*
X028453D01*
X028373Y015541D01*
Y014991D02*
X028293Y015151D01*
X028453D01*
X028373Y014991D01*
X026673Y015541D02*
X026593Y015701D01*
X026753D01*
X026673Y015541D01*
Y014991D02*
X026593Y015151D01*
X026753D01*
X026673Y014991D01*
X027023Y014691D02*
X026943Y014851D01*
X027103D01*
X027023Y014691D01*
X031173Y019241D02*
X031093Y019401D01*
X031253D01*
X031173Y019241D01*
X032023D02*
X031943Y019401D01*
X032103D01*
X032023Y019241D01*
X032923D02*
X032843Y019401D01*
X033003D01*
X032923Y019241D01*
X029673Y017941D02*
X029593Y018101D01*
X029753D01*
X029673Y017941D01*
X030979Y017324D02*
X031019Y017364D01*
X031059D01*
X031019Y017404D01*
X031059Y017444D01*
X031019D01*
X030979Y017484D01*
X030939Y017444D01*
X030899D01*
X030939Y017404D01*
X030899Y017364D01*
X030939D01*
X030979Y017324D01*
X031634Y016814D02*
X031674Y016854D01*
X031714D01*
X031674Y016894D01*
X031714Y016934D01*
X031674D01*
X031634Y016974D01*
X031594Y016934D01*
X031554D01*
X031594Y016894D01*
X031554Y016854D01*
X031594D01*
X031634Y016814D01*
X031627Y017653D02*
X031667Y017693D01*
X031707D01*
X031667Y017733D01*
X031707Y017773D01*
X031667D01*
X031627Y017813D01*
X031587Y017773D01*
X031547D01*
X031587Y017733D01*
X031547Y017693D01*
X031587D01*
X031627Y017653D01*
X033573Y016066D02*
X033493Y016226D01*
X033653D01*
X033573Y016066D01*
X032973D02*
X032893Y016226D01*
X033053D01*
X032973Y016066D01*
X032373D02*
X032293Y016226D01*
X032453D01*
X032373Y016066D01*
Y017017D02*
X032293Y017177D01*
X032453D01*
X032373Y017017D01*
X032973D02*
X032893Y017177D01*
X033053D01*
X032973Y017017D01*
X033573D02*
X033493Y017177D01*
X033653D01*
X033573Y017017D01*
X031023Y017941D02*
X030943Y018101D01*
X031103D01*
X031023Y017941D01*
X022623Y015441D02*
X022543Y015601D01*
X022703D01*
X022623Y015441D01*
X027923Y016391D02*
X027843Y016551D01*
X028003D01*
X027923Y016391D01*
X028523D02*
X028443Y016551D01*
X028603D01*
X028523Y016391D01*
X029073Y017941D02*
X028993Y018101D01*
X029153D01*
X029073Y017941D01*
X030273D02*
X030193Y018101D01*
X030353D01*
X030273Y017941D01*
X029773Y017241D02*
X029693Y017401D01*
X029853D01*
X029773Y017241D01*
X030373D02*
X030293Y017401D01*
X030453D01*
X030373Y017241D01*
X020073Y017291D02*
X019993Y017451D01*
X020153D01*
X020073Y017291D01*
X020473D02*
X020393Y017451D01*
X020553D01*
X020473Y017291D01*
X026123Y016791D02*
X026043Y016951D01*
X026203D01*
X026123Y016791D01*
X026073Y017541D02*
X025993Y017701D01*
X026153D01*
X026073Y017541D01*
X025726Y016652D02*
X025646Y016812D01*
X025806D01*
X025726Y016652D01*
X024923Y015891D02*
X024843Y016051D01*
X025003D01*
X024923Y015891D01*
X024173Y016691D02*
X024093Y016851D01*
X024253D01*
X024173Y016691D01*
X025773Y015791D02*
X025693Y015951D01*
X025853D01*
X025773Y015791D01*
X022823Y016291D02*
X022743Y016451D01*
X022903D01*
X022823Y016291D01*
X022273Y015741D02*
X022193Y015901D01*
X022353D01*
X022273Y015741D01*
X026123Y018391D02*
X026043Y018551D01*
X026203D01*
X026123Y018391D01*
X029123Y015891D02*
X029043Y016051D01*
X029203D01*
X029123Y015891D01*
Y016391D02*
X029043Y016551D01*
X029203D01*
X029123Y016391D01*
X019323Y018741D02*
X019243Y018901D01*
X019403D01*
X019323Y018741D01*
X025023Y019191D02*
X024943Y019351D01*
X025103D01*
X025023Y019191D01*
X023623D02*
X023543Y019351D01*
X023703D01*
X023623Y019191D01*
X029323Y018591D02*
X029243Y018751D01*
X029403D01*
X029323Y018591D01*
X021323Y016041D02*
X021243Y016201D01*
X021403D01*
X021323Y016041D01*
X022023Y017541D02*
X021943Y017701D01*
X022103D01*
X022023Y017541D01*
X027123Y016141D02*
X027043Y016301D01*
X027203D01*
X027123Y016141D01*
X028023Y014691D02*
X027943Y014851D01*
X028103D01*
X028023Y014691D01*
X027523D02*
X027443Y014851D01*
X027603D01*
X027523Y014691D01*
X024073Y014641D02*
X023993Y014801D01*
X024153D01*
X024073Y014641D01*
X024223Y016091D02*
X024143Y016251D01*
X024303D01*
X024223Y016091D01*
X023873Y016191D02*
X023793Y016351D01*
X023953D01*
X023873Y016191D01*
X024573Y015091D02*
X024493Y015251D01*
X024653D01*
X024573Y015091D01*
X023573Y014441D02*
X023493Y014601D01*
X023653D01*
X023573Y014441D01*
X023323Y014691D02*
X023243Y014851D01*
X023403D01*
X023323Y014691D01*
X023073Y014941D02*
X022993Y015101D01*
X023153D01*
X023073Y014941D01*
X022973Y015291D02*
X022893Y015451D01*
X023053D01*
X022973Y015291D01*
X023273Y015591D02*
X023193Y015751D01*
X023353D01*
X023273Y015591D01*
X023573Y015891D02*
X023493Y016051D01*
X023653D01*
X023573Y015891D01*
X024523Y015841D02*
X024443Y016001D01*
X024603D01*
X024523Y015841D01*
X024723Y015591D02*
X024643Y015751D01*
X024803D01*
X024723Y015591D01*
X028573Y018941D02*
X028493Y019101D01*
X028653D01*
X028573Y018941D01*
X026023Y019041D02*
X025943Y019201D01*
X026103D01*
X026023Y019041D01*
X027173Y019091D02*
X027093Y019251D01*
X027253D01*
X027173Y019091D01*
X020473Y015691D02*
X020393Y015851D01*
X020553D01*
X020473Y015691D01*
X020423Y015241D02*
X020343Y015401D01*
X020503D01*
X020423Y015241D01*
X021323Y018841D02*
X021243Y019001D01*
X021403D01*
X021323Y018841D01*
X020523Y019191D02*
X020443Y019351D01*
X020603D01*
X020523Y019191D01*
X023923Y018641D02*
X023843Y018801D01*
X024003D01*
X023923Y018641D01*
X019223Y015241D02*
X019143Y015401D01*
X019303D01*
X019223Y015241D01*
X023673Y016941D02*
X023593Y017101D01*
X023753D01*
X023673Y016941D01*
X025473Y014291D02*
X025393Y014451D01*
X025553D01*
X025473Y014291D01*
X023723Y013741D02*
X023643Y013901D01*
X023803D01*
X023723Y013741D01*
X020573Y014541D02*
X020493Y014701D01*
X020653D01*
X020573Y014541D01*
X018223Y014591D02*
X018143Y014751D01*
X018303D01*
X018223Y014591D01*
X018923Y015241D02*
X018843Y015401D01*
X019003D01*
X018923Y015241D01*
Y014991D02*
X018843Y015151D01*
X019003D01*
X018923Y014991D01*
X019223D02*
X019143Y015151D01*
X019303D01*
X019223Y014991D01*
X020223Y018241D02*
X020143Y018401D01*
X020303D01*
X020223Y018241D01*
X019097Y016878D02*
X019017Y017038D01*
X019177D01*
X019097Y016878D01*
X019069Y016112D02*
X018989Y016272D01*
X019149D01*
X019069Y016112D01*
X025873Y014291D02*
X025793Y014451D01*
X025953D01*
X025873Y014291D01*
X038828Y018348D02*
Y018508D01*
X038988D01*
Y018348D01*
X038828D01*
Y019135D02*
Y019295D01*
X038988D01*
Y019135D01*
X038828D01*
X039616Y018348D02*
Y018508D01*
X039776D01*
Y018348D01*
X039616D01*
Y019135D02*
Y019295D01*
X039776D01*
Y019135D01*
X039616D01*
X041502Y017891D02*
X041422Y018051D01*
X041582D01*
X041502Y017891D01*
X035402Y018191D02*
X035322Y018351D01*
X035482D01*
X035402Y018191D01*
X034552Y019191D02*
X034472Y019351D01*
X034632D01*
X034552Y019191D01*
X035102Y016491D02*
X035022Y016651D01*
X035182D01*
X035102Y016491D01*
X036902D02*
X036822Y016651D01*
X036982D01*
X036902Y016491D01*
X048102Y015691D02*
X048022Y015851D01*
X048182D01*
X048102Y015691D01*
X049902Y018391D02*
X049822Y018551D01*
X049982D01*
X049902Y018391D01*
Y014791D02*
X049822Y014951D01*
X049982D01*
X049902Y014791D01*
Y013891D02*
X049822Y014051D01*
X049982D01*
X049902Y013891D01*
X049002Y018391D02*
X048922Y018551D01*
X049082D01*
X049002Y018391D01*
Y015691D02*
X048922Y015851D01*
X049082D01*
X049002Y015691D01*
Y014791D02*
X048922Y014951D01*
X049082D01*
X049002Y014791D01*
Y013891D02*
X048922Y014051D01*
X049082D01*
X049002Y013891D01*
X048102Y018391D02*
X048022Y018551D01*
X048182D01*
X048102Y018391D01*
Y016591D02*
X048022Y016751D01*
X048182D01*
X048102Y016591D01*
Y014791D02*
X048022Y014951D01*
X048182D01*
X048102Y014791D01*
Y013891D02*
X048022Y014051D01*
X048182D01*
X048102Y013891D01*
X047202Y016591D02*
X047122Y016751D01*
X047282D01*
X047202Y016591D01*
Y015691D02*
X047122Y015851D01*
X047282D01*
X047202Y015691D01*
Y014791D02*
X047122Y014951D01*
X047282D01*
X047202Y014791D01*
Y013891D02*
X047122Y014051D01*
X047282D01*
X047202Y013891D01*
X046302Y014791D02*
X046222Y014951D01*
X046382D01*
X046302Y014791D01*
Y013891D02*
X046222Y014051D01*
X046382D01*
X046302Y013891D01*
X045402D02*
X045322Y014051D01*
X045482D01*
X045402Y013891D01*
X044502D02*
X044422Y014051D01*
X044582D01*
X044502Y013891D01*
X043602D02*
X043522Y014051D01*
X043682D01*
X043602Y013891D01*
X035502D02*
X035422Y014051D01*
X035582D01*
X035502Y013891D01*
X034602D02*
X034522Y014051D01*
X034682D01*
X034602Y013891D01*
X045002Y015941D02*
X044922Y016101D01*
X045082D01*
X045002Y015941D01*
X045302Y015541D02*
X045222Y015701D01*
X045382D01*
X045302Y015541D01*
Y014991D02*
X045222Y015151D01*
X045382D01*
X045302Y014991D01*
X043602Y015541D02*
X043522Y015701D01*
X043682D01*
X043602Y015541D01*
Y014991D02*
X043522Y015151D01*
X043682D01*
X043602Y014991D01*
X043952Y014691D02*
X043872Y014851D01*
X044032D01*
X043952Y014691D01*
X048102Y019241D02*
X048022Y019401D01*
X048182D01*
X048102Y019241D01*
X048952D02*
X048872Y019401D01*
X049032D01*
X048952Y019241D01*
X049852D02*
X049772Y019401D01*
X049932D01*
X049852Y019241D01*
X046602Y017941D02*
X046522Y018101D01*
X046682D01*
X046602Y017941D01*
X047908Y017324D02*
X047948Y017364D01*
X047988D01*
X047948Y017404D01*
X047988Y017444D01*
X047948D01*
X047908Y017484D01*
X047868Y017444D01*
X047828D01*
X047868Y017404D01*
X047828Y017364D01*
X047868D01*
X047908Y017324D01*
X048563Y016814D02*
X048603Y016854D01*
X048643D01*
X048603Y016894D01*
X048643Y016934D01*
X048603D01*
X048563Y016974D01*
X048523Y016934D01*
X048483D01*
X048523Y016894D01*
X048483Y016854D01*
X048523D01*
X048563Y016814D01*
X048556Y017653D02*
X048596Y017693D01*
X048636D01*
X048596Y017733D01*
X048636Y017773D01*
X048596D01*
X048556Y017813D01*
X048516Y017773D01*
X048476D01*
X048516Y017733D01*
X048476Y017693D01*
X048516D01*
X048556Y017653D01*
X050502Y016066D02*
X050422Y016226D01*
X050582D01*
X050502Y016066D01*
X049902D02*
X049822Y016226D01*
X049982D01*
X049902Y016066D01*
X049302D02*
X049222Y016226D01*
X049382D01*
X049302Y016066D01*
Y017017D02*
X049222Y017177D01*
X049382D01*
X049302Y017017D01*
X049902D02*
X049822Y017177D01*
X049982D01*
X049902Y017017D01*
X050502D02*
X050422Y017177D01*
X050582D01*
X050502Y017017D01*
X047952Y017941D02*
X047872Y018101D01*
X048032D01*
X047952Y017941D01*
X039552Y015441D02*
X039472Y015601D01*
X039632D01*
X039552Y015441D01*
X044852Y016391D02*
X044772Y016551D01*
X044932D01*
X044852Y016391D01*
X045452D02*
X045372Y016551D01*
X045532D01*
X045452Y016391D01*
X046002Y017941D02*
X045922Y018101D01*
X046082D01*
X046002Y017941D01*
X047202D02*
X047122Y018101D01*
X047282D01*
X047202Y017941D01*
X046702Y017241D02*
X046622Y017401D01*
X046782D01*
X046702Y017241D01*
X047302D02*
X047222Y017401D01*
X047382D01*
X047302Y017241D01*
X037002Y017291D02*
X036922Y017451D01*
X037082D01*
X037002Y017291D01*
X037402D02*
X037322Y017451D01*
X037482D01*
X037402Y017291D01*
X043052Y016791D02*
X042972Y016951D01*
X043132D01*
X043052Y016791D01*
X043002Y017541D02*
X042922Y017701D01*
X043082D01*
X043002Y017541D01*
X042655Y016652D02*
X042575Y016812D01*
X042735D01*
X042655Y016652D01*
X041852Y015891D02*
X041772Y016051D01*
X041932D01*
X041852Y015891D01*
X041102Y016691D02*
X041022Y016851D01*
X041182D01*
X041102Y016691D01*
X042702Y015791D02*
X042622Y015951D01*
X042782D01*
X042702Y015791D01*
X039752Y016291D02*
X039672Y016451D01*
X039832D01*
X039752Y016291D01*
X039202Y015741D02*
X039122Y015901D01*
X039282D01*
X039202Y015741D01*
X043052Y018391D02*
X042972Y018551D01*
X043132D01*
X043052Y018391D01*
X046052Y015891D02*
X045972Y016051D01*
X046132D01*
X046052Y015891D01*
Y016391D02*
X045972Y016551D01*
X046132D01*
X046052Y016391D01*
X036252Y018741D02*
X036172Y018901D01*
X036332D01*
X036252Y018741D01*
X041952Y019191D02*
X041872Y019351D01*
X042032D01*
X041952Y019191D01*
X040552D02*
X040472Y019351D01*
X040632D01*
X040552Y019191D01*
X046252Y018591D02*
X046172Y018751D01*
X046332D01*
X046252Y018591D01*
X038252Y016041D02*
X038172Y016201D01*
X038332D01*
X038252Y016041D01*
X038952Y017541D02*
X038872Y017701D01*
X039032D01*
X038952Y017541D01*
X044052Y016141D02*
X043972Y016301D01*
X044132D01*
X044052Y016141D01*
X044952Y014691D02*
X044872Y014851D01*
X045032D01*
X044952Y014691D01*
X044452D02*
X044372Y014851D01*
X044532D01*
X044452Y014691D01*
X041002Y014641D02*
X040922Y014801D01*
X041082D01*
X041002Y014641D01*
X041152Y016091D02*
X041072Y016251D01*
X041232D01*
X041152Y016091D01*
X040802Y016191D02*
X040722Y016351D01*
X040882D01*
X040802Y016191D01*
X041502Y015091D02*
X041422Y015251D01*
X041582D01*
X041502Y015091D01*
X040502Y014441D02*
X040422Y014601D01*
X040582D01*
X040502Y014441D01*
X040252Y014691D02*
X040172Y014851D01*
X040332D01*
X040252Y014691D01*
X040002Y014941D02*
X039922Y015101D01*
X040082D01*
X040002Y014941D01*
X039902Y015291D02*
X039822Y015451D01*
X039982D01*
X039902Y015291D01*
X040202Y015591D02*
X040122Y015751D01*
X040282D01*
X040202Y015591D01*
X040502Y015891D02*
X040422Y016051D01*
X040582D01*
X040502Y015891D01*
X041452Y015841D02*
X041372Y016001D01*
X041532D01*
X041452Y015841D01*
X041652Y015591D02*
X041572Y015751D01*
X041732D01*
X041652Y015591D01*
X045502Y018941D02*
X045422Y019101D01*
X045582D01*
X045502Y018941D01*
X042952Y019041D02*
X042872Y019201D01*
X043032D01*
X042952Y019041D01*
X044102Y019091D02*
X044022Y019251D01*
X044182D01*
X044102Y019091D01*
X037402Y015691D02*
X037322Y015851D01*
X037482D01*
X037402Y015691D01*
X037352Y015241D02*
X037272Y015401D01*
X037432D01*
X037352Y015241D01*
X038252Y018841D02*
X038172Y019001D01*
X038332D01*
X038252Y018841D01*
X037452Y019191D02*
X037372Y019351D01*
X037532D01*
X037452Y019191D01*
X040852Y018641D02*
X040772Y018801D01*
X040932D01*
X040852Y018641D01*
X036152Y015241D02*
X036072Y015401D01*
X036232D01*
X036152Y015241D01*
X040602Y016941D02*
X040522Y017101D01*
X040682D01*
X040602Y016941D01*
X042402Y014291D02*
X042322Y014451D01*
X042482D01*
X042402Y014291D01*
X040652Y013741D02*
X040572Y013901D01*
X040732D01*
X040652Y013741D01*
X037502Y014541D02*
X037422Y014701D01*
X037582D01*
X037502Y014541D01*
X035152Y014591D02*
X035072Y014751D01*
X035232D01*
X035152Y014591D01*
X035852Y015241D02*
X035772Y015401D01*
X035932D01*
X035852Y015241D01*
Y014991D02*
X035772Y015151D01*
X035932D01*
X035852Y014991D01*
X036152D02*
X036072Y015151D01*
X036232D01*
X036152Y014991D01*
X037152Y018241D02*
X037072Y018401D01*
X037232D01*
X037152Y018241D01*
X036026Y016878D02*
X035946Y017038D01*
X036106D01*
X036026Y016878D01*
X035998Y016112D02*
X035918Y016272D01*
X036078D01*
X035998Y016112D01*
X042802Y014291D02*
X042722Y014451D01*
X042882D01*
X042802Y014291D01*
X021899Y024844D02*
Y025004D01*
X022059D01*
Y024844D01*
X021899D01*
Y025631D02*
Y025791D01*
X022059D01*
Y025631D01*
X021899D01*
X022687Y024844D02*
Y025004D01*
X022847D01*
Y024844D01*
X022687D01*
Y025631D02*
Y025791D01*
X022847D01*
Y025631D01*
X022687D01*
X024573Y024387D02*
X024493Y024547D01*
X024653D01*
X024573Y024387D01*
X018473Y024687D02*
X018393Y024847D01*
X018553D01*
X018473Y024687D01*
X017623Y025687D02*
X017543Y025847D01*
X017703D01*
X017623Y025687D01*
X018173Y022987D02*
X018093Y023147D01*
X018253D01*
X018173Y022987D01*
X019973D02*
X019893Y023147D01*
X020053D01*
X019973Y022987D01*
X031173Y022187D02*
X031093Y022347D01*
X031253D01*
X031173Y022187D01*
X032973Y024887D02*
X032893Y025047D01*
X033053D01*
X032973Y024887D01*
Y021287D02*
X032893Y021447D01*
X033053D01*
X032973Y021287D01*
Y020387D02*
X032893Y020547D01*
X033053D01*
X032973Y020387D01*
X032073Y024887D02*
X031993Y025047D01*
X032153D01*
X032073Y024887D01*
Y022187D02*
X031993Y022347D01*
X032153D01*
X032073Y022187D01*
Y021287D02*
X031993Y021447D01*
X032153D01*
X032073Y021287D01*
Y020387D02*
X031993Y020547D01*
X032153D01*
X032073Y020387D01*
X031173Y024887D02*
X031093Y025047D01*
X031253D01*
X031173Y024887D01*
Y023087D02*
X031093Y023247D01*
X031253D01*
X031173Y023087D01*
Y021287D02*
X031093Y021447D01*
X031253D01*
X031173Y021287D01*
Y020387D02*
X031093Y020547D01*
X031253D01*
X031173Y020387D01*
X030273Y023087D02*
X030193Y023247D01*
X030353D01*
X030273Y023087D01*
Y022187D02*
X030193Y022347D01*
X030353D01*
X030273Y022187D01*
Y021287D02*
X030193Y021447D01*
X030353D01*
X030273Y021287D01*
Y020387D02*
X030193Y020547D01*
X030353D01*
X030273Y020387D01*
X029373Y021287D02*
X029293Y021447D01*
X029453D01*
X029373Y021287D01*
Y020387D02*
X029293Y020547D01*
X029453D01*
X029373Y020387D01*
X028473D02*
X028393Y020547D01*
X028553D01*
X028473Y020387D01*
X027573D02*
X027493Y020547D01*
X027653D01*
X027573Y020387D01*
X026673D02*
X026593Y020547D01*
X026753D01*
X026673Y020387D01*
X018573D02*
X018493Y020547D01*
X018653D01*
X018573Y020387D01*
X017673D02*
X017593Y020547D01*
X017753D01*
X017673Y020387D01*
X028073Y022437D02*
X027993Y022597D01*
X028153D01*
X028073Y022437D01*
X028373Y022037D02*
X028293Y022197D01*
X028453D01*
X028373Y022037D01*
Y021487D02*
X028293Y021647D01*
X028453D01*
X028373Y021487D01*
X026673Y022037D02*
X026593Y022197D01*
X026753D01*
X026673Y022037D01*
Y021487D02*
X026593Y021647D01*
X026753D01*
X026673Y021487D01*
X027023Y021187D02*
X026943Y021347D01*
X027103D01*
X027023Y021187D01*
X031173Y025737D02*
X031093Y025897D01*
X031253D01*
X031173Y025737D01*
X032023D02*
X031943Y025897D01*
X032103D01*
X032023Y025737D01*
X032923D02*
X032843Y025897D01*
X033003D01*
X032923Y025737D01*
X029673Y024437D02*
X029593Y024597D01*
X029753D01*
X029673Y024437D01*
X030979Y02382D02*
X031019Y02386D01*
X031059D01*
X031019Y0239D01*
X031059Y02394D01*
X031019D01*
X030979Y02398D01*
X030939Y02394D01*
X030899D01*
X030939Y0239D01*
X030899Y02386D01*
X030939D01*
X030979Y02382D01*
X031634Y02331D02*
X031674Y02335D01*
X031714D01*
X031674Y02339D01*
X031714Y02343D01*
X031674D01*
X031634Y02347D01*
X031594Y02343D01*
X031554D01*
X031594Y02339D01*
X031554Y02335D01*
X031594D01*
X031634Y02331D01*
X031627Y024149D02*
X031667Y02419D01*
X031707D01*
X031667Y02423D01*
X031707Y024269D01*
X031667D01*
X031627Y024309D01*
X031587Y024269D01*
X031547D01*
X031587Y02423D01*
X031547Y02419D01*
X031587D01*
X031627Y024149D01*
X033573Y022562D02*
X033493Y022722D01*
X033653D01*
X033573Y022562D01*
X032973D02*
X032893Y022722D01*
X033053D01*
X032973Y022562D01*
X032373D02*
X032293Y022722D01*
X032453D01*
X032373Y022562D01*
Y023513D02*
X032293Y023673D01*
X032453D01*
X032373Y023513D01*
X032973D02*
X032893Y023673D01*
X033053D01*
X032973Y023513D01*
X033573D02*
X033493Y023673D01*
X033653D01*
X033573Y023513D01*
X031023Y024437D02*
X030943Y024597D01*
X031103D01*
X031023Y024437D01*
X022623Y021937D02*
X022543Y022097D01*
X022703D01*
X022623Y021937D01*
X027923Y022887D02*
X027843Y023047D01*
X028003D01*
X027923Y022887D01*
X028523D02*
X028443Y023047D01*
X028603D01*
X028523Y022887D01*
X029073Y024437D02*
X028993Y024597D01*
X029153D01*
X029073Y024437D01*
X030273D02*
X030193Y024597D01*
X030353D01*
X030273Y024437D01*
X029773Y023737D02*
X029693Y023897D01*
X029853D01*
X029773Y023737D01*
X030373D02*
X030293Y023897D01*
X030453D01*
X030373Y023737D01*
X020073Y023787D02*
X019993Y023947D01*
X020153D01*
X020073Y023787D01*
X020473D02*
X020393Y023947D01*
X020553D01*
X020473Y023787D01*
X026123Y023287D02*
X026043Y023447D01*
X026203D01*
X026123Y023287D01*
X026073Y024037D02*
X025993Y024197D01*
X026153D01*
X026073Y024037D01*
X025726Y023149D02*
X025646Y023309D01*
X025806D01*
X025726Y023149D01*
X024923Y022387D02*
X024843Y022547D01*
X025003D01*
X024923Y022387D01*
X024173Y023187D02*
X024093Y023347D01*
X024253D01*
X024173Y023187D01*
X025773Y022287D02*
X025693Y022447D01*
X025853D01*
X025773Y022287D01*
X022823Y022787D02*
X022743Y022947D01*
X022903D01*
X022823Y022787D01*
X022273Y022237D02*
X022193Y022397D01*
X022353D01*
X022273Y022237D01*
X026123Y024887D02*
X026043Y025047D01*
X026203D01*
X026123Y024887D01*
X029123Y022387D02*
X029043Y022547D01*
X029203D01*
X029123Y022387D01*
Y022887D02*
X029043Y023047D01*
X029203D01*
X029123Y022887D01*
X019323Y025237D02*
X019243Y025397D01*
X019403D01*
X019323Y025237D01*
X025023Y025687D02*
X024943Y025847D01*
X025103D01*
X025023Y025687D01*
X023623D02*
X023543Y025847D01*
X023703D01*
X023623Y025687D01*
X029323Y025087D02*
X029243Y025247D01*
X029403D01*
X029323Y025087D01*
X021323Y022537D02*
X021243Y022697D01*
X021403D01*
X021323Y022537D01*
X022023Y024037D02*
X021943Y024197D01*
X022103D01*
X022023Y024037D01*
X027123Y022637D02*
X027043Y022797D01*
X027203D01*
X027123Y022637D01*
X028023Y021187D02*
X027943Y021347D01*
X028103D01*
X028023Y021187D01*
X027523D02*
X027443Y021347D01*
X027603D01*
X027523Y021187D01*
X024073Y021137D02*
X023993Y021297D01*
X024153D01*
X024073Y021137D01*
X024223Y022587D02*
X024143Y022747D01*
X024303D01*
X024223Y022587D01*
X023873Y022687D02*
X023793Y022847D01*
X023953D01*
X023873Y022687D01*
X024573Y021587D02*
X024493Y021747D01*
X024653D01*
X024573Y021587D01*
X023573Y020937D02*
X023493Y021097D01*
X023653D01*
X023573Y020937D01*
X023323Y021187D02*
X023243Y021347D01*
X023403D01*
X023323Y021187D01*
X023073Y021437D02*
X022993Y021597D01*
X023153D01*
X023073Y021437D01*
X022973Y021787D02*
X022893Y021947D01*
X023053D01*
X022973Y021787D01*
X023273Y022087D02*
X023193Y022247D01*
X023353D01*
X023273Y022087D01*
X023573Y022387D02*
X023493Y022547D01*
X023653D01*
X023573Y022387D01*
X024523Y022337D02*
X024443Y022497D01*
X024603D01*
X024523Y022337D01*
X024723Y022087D02*
X024643Y022247D01*
X024803D01*
X024723Y022087D01*
X028573Y025437D02*
X028493Y025597D01*
X028653D01*
X028573Y025437D01*
X026023Y025537D02*
X025943Y025697D01*
X026103D01*
X026023Y025537D01*
X027173Y025587D02*
X027093Y025747D01*
X027253D01*
X027173Y025587D01*
X020473Y022187D02*
X020393Y022347D01*
X020553D01*
X020473Y022187D01*
X020423Y021737D02*
X020343Y021897D01*
X020503D01*
X020423Y021737D01*
X021323Y025337D02*
X021243Y025497D01*
X021403D01*
X021323Y025337D01*
X020523Y025687D02*
X020443Y025847D01*
X020603D01*
X020523Y025687D01*
X023923Y025137D02*
X023843Y025297D01*
X024003D01*
X023923Y025137D01*
X019223Y021737D02*
X019143Y021897D01*
X019303D01*
X019223Y021737D01*
X023673Y023437D02*
X023593Y023597D01*
X023753D01*
X023673Y023437D01*
X025473Y020787D02*
X025393Y020947D01*
X025553D01*
X025473Y020787D01*
X023723Y020237D02*
X023643Y020397D01*
X023803D01*
X023723Y020237D01*
X020573Y021037D02*
X020493Y021197D01*
X020653D01*
X020573Y021037D01*
X018223Y021087D02*
X018143Y021247D01*
X018303D01*
X018223Y021087D01*
X018923Y021737D02*
X018843Y021897D01*
X019003D01*
X018923Y021737D01*
Y021487D02*
X018843Y021647D01*
X019003D01*
X018923Y021487D01*
X019223D02*
X019143Y021647D01*
X019303D01*
X019223Y021487D01*
X020223Y024737D02*
X020143Y024897D01*
X020303D01*
X020223Y024737D01*
X019097Y023374D02*
X019017Y023534D01*
X019177D01*
X019097Y023374D01*
X019069Y022608D02*
X018989Y022768D01*
X019149D01*
X019069Y022608D01*
X025873Y020787D02*
X025793Y020947D01*
X025953D01*
X025873Y020787D01*
X038828Y024844D02*
Y025004D01*
X038988D01*
Y024844D01*
X038828D01*
Y025631D02*
Y025791D01*
X038988D01*
Y025631D01*
X038828D01*
X039616Y024844D02*
Y025004D01*
X039776D01*
Y024844D01*
X039616D01*
Y025631D02*
Y025791D01*
X039776D01*
Y025631D01*
X039616D01*
X041502Y024387D02*
X041422Y024547D01*
X041582D01*
X041502Y024387D01*
X035402Y024687D02*
X035322Y024847D01*
X035482D01*
X035402Y024687D01*
X034552Y025687D02*
X034472Y025847D01*
X034632D01*
X034552Y025687D01*
X035102Y022987D02*
X035022Y023147D01*
X035182D01*
X035102Y022987D01*
X036902D02*
X036822Y023147D01*
X036982D01*
X036902Y022987D01*
X048102Y022187D02*
X048022Y022347D01*
X048182D01*
X048102Y022187D01*
X049902Y024887D02*
X049822Y025047D01*
X049982D01*
X049902Y024887D01*
Y021287D02*
X049822Y021447D01*
X049982D01*
X049902Y021287D01*
Y020387D02*
X049822Y020547D01*
X049982D01*
X049902Y020387D01*
X049002Y024887D02*
X048922Y025047D01*
X049082D01*
X049002Y024887D01*
Y022187D02*
X048922Y022347D01*
X049082D01*
X049002Y022187D01*
Y021287D02*
X048922Y021447D01*
X049082D01*
X049002Y021287D01*
Y020387D02*
X048922Y020547D01*
X049082D01*
X049002Y020387D01*
X048102Y024887D02*
X048022Y025047D01*
X048182D01*
X048102Y024887D01*
Y023087D02*
X048022Y023247D01*
X048182D01*
X048102Y023087D01*
Y021287D02*
X048022Y021447D01*
X048182D01*
X048102Y021287D01*
Y020387D02*
X048022Y020547D01*
X048182D01*
X048102Y020387D01*
X047202Y023087D02*
X047122Y023247D01*
X047282D01*
X047202Y023087D01*
Y022187D02*
X047122Y022347D01*
X047282D01*
X047202Y022187D01*
Y021287D02*
X047122Y021447D01*
X047282D01*
X047202Y021287D01*
Y020387D02*
X047122Y020547D01*
X047282D01*
X047202Y020387D01*
X046302Y021287D02*
X046222Y021447D01*
X046382D01*
X046302Y021287D01*
Y020387D02*
X046222Y020547D01*
X046382D01*
X046302Y020387D01*
X045402D02*
X045322Y020547D01*
X045482D01*
X045402Y020387D01*
X044502D02*
X044422Y020547D01*
X044582D01*
X044502Y020387D01*
X043602D02*
X043522Y020547D01*
X043682D01*
X043602Y020387D01*
X035502D02*
X035422Y020547D01*
X035582D01*
X035502Y020387D01*
X034602D02*
X034522Y020547D01*
X034682D01*
X034602Y020387D01*
X045002Y022437D02*
X044922Y022597D01*
X045082D01*
X045002Y022437D01*
X045302Y022037D02*
X045222Y022197D01*
X045382D01*
X045302Y022037D01*
Y021487D02*
X045222Y021647D01*
X045382D01*
X045302Y021487D01*
X043602Y022037D02*
X043522Y022197D01*
X043682D01*
X043602Y022037D01*
Y021487D02*
X043522Y021647D01*
X043682D01*
X043602Y021487D01*
X043952Y021187D02*
X043872Y021347D01*
X044032D01*
X043952Y021187D01*
X048102Y025737D02*
X048022Y025897D01*
X048182D01*
X048102Y025737D01*
X048952D02*
X048872Y025897D01*
X049032D01*
X048952Y025737D01*
X049852D02*
X049772Y025897D01*
X049932D01*
X049852Y025737D01*
X046602Y024437D02*
X046522Y024597D01*
X046682D01*
X046602Y024437D01*
X047908Y02382D02*
X047948Y02386D01*
X047988D01*
X047948Y0239D01*
X047988Y02394D01*
X047948D01*
X047908Y02398D01*
X047868Y02394D01*
X047828D01*
X047868Y0239D01*
X047828Y02386D01*
X047868D01*
X047908Y02382D01*
X048563Y02331D02*
X048603Y02335D01*
X048643D01*
X048603Y02339D01*
X048643Y02343D01*
X048603D01*
X048563Y02347D01*
X048523Y02343D01*
X048483D01*
X048523Y02339D01*
X048483Y02335D01*
X048523D01*
X048563Y02331D01*
X048556Y024149D02*
X048596Y02419D01*
X048636D01*
X048596Y02423D01*
X048636Y024269D01*
X048596D01*
X048556Y024309D01*
X048516Y024269D01*
X048476D01*
X048516Y02423D01*
X048476Y02419D01*
X048516D01*
X048556Y024149D01*
X050502Y022562D02*
X050422Y022722D01*
X050582D01*
X050502Y022562D01*
X049902D02*
X049822Y022722D01*
X049982D01*
X049902Y022562D01*
X049302D02*
X049222Y022722D01*
X049382D01*
X049302Y022562D01*
Y023513D02*
X049222Y023673D01*
X049382D01*
X049302Y023513D01*
X049902D02*
X049822Y023673D01*
X049982D01*
X049902Y023513D01*
X050502D02*
X050422Y023673D01*
X050582D01*
X050502Y023513D01*
X047952Y024437D02*
X047872Y024597D01*
X048032D01*
X047952Y024437D01*
X039552Y021937D02*
X039472Y022097D01*
X039632D01*
X039552Y021937D01*
X044852Y022887D02*
X044772Y023047D01*
X044932D01*
X044852Y022887D01*
X045452D02*
X045372Y023047D01*
X045532D01*
X045452Y022887D01*
X046002Y024437D02*
X045922Y024597D01*
X046082D01*
X046002Y024437D01*
X047202D02*
X047122Y024597D01*
X047282D01*
X047202Y024437D01*
X046702Y023737D02*
X046622Y023897D01*
X046782D01*
X046702Y023737D01*
X047302D02*
X047222Y023897D01*
X047382D01*
X047302Y023737D01*
X037002Y023787D02*
X036922Y023947D01*
X037082D01*
X037002Y023787D01*
X037402D02*
X037322Y023947D01*
X037482D01*
X037402Y023787D01*
X043052Y023287D02*
X042972Y023447D01*
X043132D01*
X043052Y023287D01*
X043002Y024037D02*
X042922Y024197D01*
X043082D01*
X043002Y024037D01*
X042655Y023149D02*
X042575Y023309D01*
X042735D01*
X042655Y023149D01*
X041852Y022387D02*
X041772Y022547D01*
X041932D01*
X041852Y022387D01*
X041102Y023187D02*
X041022Y023347D01*
X041182D01*
X041102Y023187D01*
X042702Y022287D02*
X042622Y022447D01*
X042782D01*
X042702Y022287D01*
X039752Y022787D02*
X039672Y022947D01*
X039832D01*
X039752Y022787D01*
X039202Y022237D02*
X039122Y022397D01*
X039282D01*
X039202Y022237D01*
X043052Y024887D02*
X042972Y025047D01*
X043132D01*
X043052Y024887D01*
X046052Y022387D02*
X045972Y022547D01*
X046132D01*
X046052Y022387D01*
Y022887D02*
X045972Y023047D01*
X046132D01*
X046052Y022887D01*
X036252Y025237D02*
X036172Y025397D01*
X036332D01*
X036252Y025237D01*
X041952Y025687D02*
X041872Y025847D01*
X042032D01*
X041952Y025687D01*
X040552D02*
X040472Y025847D01*
X040632D01*
X040552Y025687D01*
X046252Y025087D02*
X046172Y025247D01*
X046332D01*
X046252Y025087D01*
X038252Y022537D02*
X038172Y022697D01*
X038332D01*
X038252Y022537D01*
X038952Y024037D02*
X038872Y024197D01*
X039032D01*
X038952Y024037D01*
X044052Y022637D02*
X043972Y022797D01*
X044132D01*
X044052Y022637D01*
X044952Y021187D02*
X044872Y021347D01*
X045032D01*
X044952Y021187D01*
X044452D02*
X044372Y021347D01*
X044532D01*
X044452Y021187D01*
X041002Y021137D02*
X040922Y021297D01*
X041082D01*
X041002Y021137D01*
X041152Y022587D02*
X041072Y022747D01*
X041232D01*
X041152Y022587D01*
X040802Y022687D02*
X040722Y022847D01*
X040882D01*
X040802Y022687D01*
X041502Y021587D02*
X041422Y021747D01*
X041582D01*
X041502Y021587D01*
X040502Y020937D02*
X040422Y021097D01*
X040582D01*
X040502Y020937D01*
X040252Y021187D02*
X040172Y021347D01*
X040332D01*
X040252Y021187D01*
X040002Y021437D02*
X039922Y021597D01*
X040082D01*
X040002Y021437D01*
X039902Y021787D02*
X039822Y021947D01*
X039982D01*
X039902Y021787D01*
X040202Y022087D02*
X040122Y022247D01*
X040282D01*
X040202Y022087D01*
X040502Y022387D02*
X040422Y022547D01*
X040582D01*
X040502Y022387D01*
X041452Y022337D02*
X041372Y022497D01*
X041532D01*
X041452Y022337D01*
X041652Y022087D02*
X041572Y022247D01*
X041732D01*
X041652Y022087D01*
X045502Y025437D02*
X045422Y025597D01*
X045582D01*
X045502Y025437D01*
X042952Y025537D02*
X042872Y025697D01*
X043032D01*
X042952Y025537D01*
X044102Y025587D02*
X044022Y025747D01*
X044182D01*
X044102Y025587D01*
X037402Y022187D02*
X037322Y022347D01*
X037482D01*
X037402Y022187D01*
X037352Y021737D02*
X037272Y021897D01*
X037432D01*
X037352Y021737D01*
X038252Y025337D02*
X038172Y025497D01*
X038332D01*
X038252Y025337D01*
X037452Y025687D02*
X037372Y025847D01*
X037532D01*
X037452Y025687D01*
X040852Y025137D02*
X040772Y025297D01*
X040932D01*
X040852Y025137D01*
X036152Y021737D02*
X036072Y021897D01*
X036232D01*
X036152Y021737D01*
X040602Y023437D02*
X040522Y023597D01*
X040682D01*
X040602Y023437D01*
X042402Y020787D02*
X042322Y020947D01*
X042482D01*
X042402Y020787D01*
X040652Y020237D02*
X040572Y020397D01*
X040732D01*
X040652Y020237D01*
X037502Y021037D02*
X037422Y021197D01*
X037582D01*
X037502Y021037D01*
X035152Y021087D02*
X035072Y021247D01*
X035232D01*
X035152Y021087D01*
X035852Y021737D02*
X035772Y021897D01*
X035932D01*
X035852Y021737D01*
Y021487D02*
X035772Y021647D01*
X035932D01*
X035852Y021487D01*
X036152D02*
X036072Y021647D01*
X036232D01*
X036152Y021487D01*
X037152Y024737D02*
X037072Y024897D01*
X037232D01*
X037152Y024737D01*
X036026Y023374D02*
X035946Y023534D01*
X036106D01*
X036026Y023374D01*
X035998Y022608D02*
X035918Y022768D01*
X036078D01*
X035998Y022608D01*
X042802Y020787D02*
X042722Y020947D01*
X042882D01*
X042802Y020787D01*
X021899Y03134D02*
Y0315D01*
X022059D01*
Y03134D01*
X021899D01*
Y032127D02*
Y032287D01*
X022059D01*
Y032127D01*
X021899D01*
X022687Y03134D02*
Y0315D01*
X022847D01*
Y03134D01*
X022687D01*
Y032127D02*
Y032287D01*
X022847D01*
Y032127D01*
X022687D01*
X024573Y030883D02*
X024493Y031043D01*
X024653D01*
X024573Y030883D01*
X018473Y031183D02*
X018393Y031343D01*
X018553D01*
X018473Y031183D01*
X017623Y032183D02*
X017543Y032343D01*
X017703D01*
X017623Y032183D01*
X018173Y029483D02*
X018093Y029643D01*
X018253D01*
X018173Y029483D01*
X019973D02*
X019893Y029643D01*
X020053D01*
X019973Y029483D01*
X031173Y028683D02*
X031093Y028843D01*
X031253D01*
X031173Y028683D01*
X032973Y031383D02*
X032893Y031543D01*
X033053D01*
X032973Y031383D01*
Y027783D02*
X032893Y027943D01*
X033053D01*
X032973Y027783D01*
Y026883D02*
X032893Y027043D01*
X033053D01*
X032973Y026883D01*
X032073Y031383D02*
X031993Y031543D01*
X032153D01*
X032073Y031383D01*
Y028683D02*
X031993Y028843D01*
X032153D01*
X032073Y028683D01*
Y027783D02*
X031993Y027943D01*
X032153D01*
X032073Y027783D01*
Y026883D02*
X031993Y027043D01*
X032153D01*
X032073Y026883D01*
X031173Y031383D02*
X031093Y031543D01*
X031253D01*
X031173Y031383D01*
Y029583D02*
X031093Y029743D01*
X031253D01*
X031173Y029583D01*
Y027783D02*
X031093Y027943D01*
X031253D01*
X031173Y027783D01*
Y026883D02*
X031093Y027043D01*
X031253D01*
X031173Y026883D01*
X030273Y029583D02*
X030193Y029743D01*
X030353D01*
X030273Y029583D01*
Y028683D02*
X030193Y028843D01*
X030353D01*
X030273Y028683D01*
Y027783D02*
X030193Y027943D01*
X030353D01*
X030273Y027783D01*
Y026883D02*
X030193Y027043D01*
X030353D01*
X030273Y026883D01*
X029373Y027783D02*
X029293Y027943D01*
X029453D01*
X029373Y027783D01*
Y026883D02*
X029293Y027043D01*
X029453D01*
X029373Y026883D01*
X028473D02*
X028393Y027043D01*
X028553D01*
X028473Y026883D01*
X027573D02*
X027493Y027043D01*
X027653D01*
X027573Y026883D01*
X026673D02*
X026593Y027043D01*
X026753D01*
X026673Y026883D01*
X018573D02*
X018493Y027043D01*
X018653D01*
X018573Y026883D01*
X017673D02*
X017593Y027043D01*
X017753D01*
X017673Y026883D01*
X028073Y028933D02*
X027993Y029093D01*
X028153D01*
X028073Y028933D01*
X028373Y028533D02*
X028293Y028693D01*
X028453D01*
X028373Y028533D01*
Y027983D02*
X028293Y028143D01*
X028453D01*
X028373Y027983D01*
X026673Y028533D02*
X026593Y028693D01*
X026753D01*
X026673Y028533D01*
Y027983D02*
X026593Y028143D01*
X026753D01*
X026673Y027983D01*
X027023Y027683D02*
X026943Y027843D01*
X027103D01*
X027023Y027683D01*
X031173Y032233D02*
X031093Y032393D01*
X031253D01*
X031173Y032233D01*
X032023D02*
X031943Y032393D01*
X032103D01*
X032023Y032233D01*
X032923D02*
X032843Y032393D01*
X033003D01*
X032923Y032233D01*
X029673Y030933D02*
X029593Y031093D01*
X029753D01*
X029673Y030933D01*
X030979Y030316D02*
X031019Y030356D01*
X031059D01*
X031019Y030396D01*
X031059Y030436D01*
X031019D01*
X030979Y030476D01*
X030939Y030436D01*
X030899D01*
X030939Y030396D01*
X030899Y030356D01*
X030939D01*
X030979Y030316D01*
X031634Y029806D02*
X031674Y029846D01*
X031714D01*
X031674Y029886D01*
X031714Y029926D01*
X031674D01*
X031634Y029966D01*
X031594Y029926D01*
X031554D01*
X031594Y029886D01*
X031554Y029846D01*
X031594D01*
X031634Y029806D01*
X031627Y030646D02*
X031667Y030686D01*
X031707D01*
X031667Y030726D01*
X031707Y030766D01*
X031667D01*
X031627Y030806D01*
X031587Y030766D01*
X031547D01*
X031587Y030726D01*
X031547Y030686D01*
X031587D01*
X031627Y030646D01*
X033573Y029058D02*
X033493Y029218D01*
X033653D01*
X033573Y029058D01*
X032973D02*
X032893Y029218D01*
X033053D01*
X032973Y029058D01*
X032373D02*
X032293Y029218D01*
X032453D01*
X032373Y029058D01*
Y030009D02*
X032293Y030169D01*
X032453D01*
X032373Y030009D01*
X032973D02*
X032893Y030169D01*
X033053D01*
X032973Y030009D01*
X033573D02*
X033493Y030169D01*
X033653D01*
X033573Y030009D01*
X031023Y030933D02*
X030943Y031093D01*
X031103D01*
X031023Y030933D01*
X022623Y028433D02*
X022543Y028593D01*
X022703D01*
X022623Y028433D01*
X027923Y029383D02*
X027843Y029543D01*
X028003D01*
X027923Y029383D01*
X028523D02*
X028443Y029543D01*
X028603D01*
X028523Y029383D01*
X029073Y030933D02*
X028993Y031093D01*
X029153D01*
X029073Y030933D01*
X030273D02*
X030193Y031093D01*
X030353D01*
X030273Y030933D01*
X029773Y030233D02*
X029693Y030393D01*
X029853D01*
X029773Y030233D01*
X030373D02*
X030293Y030393D01*
X030453D01*
X030373Y030233D01*
X020073Y030283D02*
X019993Y030443D01*
X020153D01*
X020073Y030283D01*
X020473D02*
X020393Y030443D01*
X020553D01*
X020473Y030283D01*
X026123Y029783D02*
X026043Y029943D01*
X026203D01*
X026123Y029783D01*
X026073Y030533D02*
X025993Y030693D01*
X026153D01*
X026073Y030533D01*
X025726Y029645D02*
X025646Y029805D01*
X025806D01*
X025726Y029645D01*
X024923Y028883D02*
X024843Y029043D01*
X025003D01*
X024923Y028883D01*
X024173Y029683D02*
X024093Y029843D01*
X024253D01*
X024173Y029683D01*
X025773Y028783D02*
X025693Y028943D01*
X025853D01*
X025773Y028783D01*
X022823Y029283D02*
X022743Y029443D01*
X022903D01*
X022823Y029283D01*
X022273Y028733D02*
X022193Y028893D01*
X022353D01*
X022273Y028733D01*
X026123Y031383D02*
X026043Y031543D01*
X026203D01*
X026123Y031383D01*
X029123Y028883D02*
X029043Y029043D01*
X029203D01*
X029123Y028883D01*
Y029383D02*
X029043Y029543D01*
X029203D01*
X029123Y029383D01*
X019323Y031733D02*
X019243Y031893D01*
X019403D01*
X019323Y031733D01*
X025023Y032183D02*
X024943Y032343D01*
X025103D01*
X025023Y032183D01*
X023623D02*
X023543Y032343D01*
X023703D01*
X023623Y032183D01*
X029323Y031583D02*
X029243Y031743D01*
X029403D01*
X029323Y031583D01*
X021323Y029033D02*
X021243Y029193D01*
X021403D01*
X021323Y029033D01*
X022023Y030533D02*
X021943Y030693D01*
X022103D01*
X022023Y030533D01*
X027123Y029133D02*
X027043Y029293D01*
X027203D01*
X027123Y029133D01*
X028023Y027683D02*
X027943Y027843D01*
X028103D01*
X028023Y027683D01*
X027523D02*
X027443Y027843D01*
X027603D01*
X027523Y027683D01*
X024073Y027633D02*
X023993Y027793D01*
X024153D01*
X024073Y027633D01*
X024223Y029083D02*
X024143Y029243D01*
X024303D01*
X024223Y029083D01*
X023873Y029183D02*
X023793Y029343D01*
X023953D01*
X023873Y029183D01*
X024573Y028083D02*
X024493Y028243D01*
X024653D01*
X024573Y028083D01*
X023573Y027433D02*
X023493Y027593D01*
X023653D01*
X023573Y027433D01*
X023323Y027683D02*
X023243Y027843D01*
X023403D01*
X023323Y027683D01*
X023073Y027933D02*
X022993Y028093D01*
X023153D01*
X023073Y027933D01*
X022973Y028283D02*
X022893Y028443D01*
X023053D01*
X022973Y028283D01*
X023273Y028583D02*
X023193Y028743D01*
X023353D01*
X023273Y028583D01*
X023573Y028883D02*
X023493Y029043D01*
X023653D01*
X023573Y028883D01*
X024523Y028833D02*
X024443Y028993D01*
X024603D01*
X024523Y028833D01*
X024723Y028583D02*
X024643Y028743D01*
X024803D01*
X024723Y028583D01*
X028573Y031933D02*
X028493Y032093D01*
X028653D01*
X028573Y031933D01*
X026023Y032033D02*
X025943Y032193D01*
X026103D01*
X026023Y032033D01*
X027173Y032083D02*
X027093Y032243D01*
X027253D01*
X027173Y032083D01*
X020473Y028683D02*
X020393Y028843D01*
X020553D01*
X020473Y028683D01*
X020423Y028233D02*
X020343Y028393D01*
X020503D01*
X020423Y028233D01*
X021323Y031833D02*
X021243Y031993D01*
X021403D01*
X021323Y031833D01*
X020523Y032183D02*
X020443Y032343D01*
X020603D01*
X020523Y032183D01*
X023923Y031633D02*
X023843Y031793D01*
X024003D01*
X023923Y031633D01*
X019223Y028233D02*
X019143Y028393D01*
X019303D01*
X019223Y028233D01*
X023673Y029933D02*
X023593Y030093D01*
X023753D01*
X023673Y029933D01*
X025473Y027283D02*
X025393Y027443D01*
X025553D01*
X025473Y027283D01*
X023723Y026733D02*
X023643Y026893D01*
X023803D01*
X023723Y026733D01*
X020573Y027533D02*
X020493Y027693D01*
X020653D01*
X020573Y027533D01*
X018223Y027583D02*
X018143Y027743D01*
X018303D01*
X018223Y027583D01*
X018923Y028233D02*
X018843Y028393D01*
X019003D01*
X018923Y028233D01*
Y027983D02*
X018843Y028143D01*
X019003D01*
X018923Y027983D01*
X019223D02*
X019143Y028143D01*
X019303D01*
X019223Y027983D01*
X020223Y031233D02*
X020143Y031393D01*
X020303D01*
X020223Y031233D01*
X019097Y02987D02*
X019017Y03003D01*
X019177D01*
X019097Y02987D01*
X019069Y029104D02*
X018989Y029264D01*
X019149D01*
X019069Y029104D01*
X025873Y027283D02*
X025793Y027443D01*
X025953D01*
X025873Y027283D01*
X038828Y03134D02*
Y0315D01*
X038988D01*
Y03134D01*
X038828D01*
Y032127D02*
Y032287D01*
X038988D01*
Y032127D01*
X038828D01*
X039616Y03134D02*
Y0315D01*
X039776D01*
Y03134D01*
X039616D01*
Y032127D02*
Y032287D01*
X039776D01*
Y032127D01*
X039616D01*
X041502Y030883D02*
X041422Y031043D01*
X041582D01*
X041502Y030883D01*
X035402Y031183D02*
X035322Y031343D01*
X035482D01*
X035402Y031183D01*
X034552Y032183D02*
X034472Y032343D01*
X034632D01*
X034552Y032183D01*
X035102Y029483D02*
X035022Y029643D01*
X035182D01*
X035102Y029483D01*
X036902D02*
X036822Y029643D01*
X036982D01*
X036902Y029483D01*
X048102Y028683D02*
X048022Y028843D01*
X048182D01*
X048102Y028683D01*
X049902Y031383D02*
X049822Y031543D01*
X049982D01*
X049902Y031383D01*
Y027783D02*
X049822Y027943D01*
X049982D01*
X049902Y027783D01*
Y026883D02*
X049822Y027043D01*
X049982D01*
X049902Y026883D01*
X049002Y031383D02*
X048922Y031543D01*
X049082D01*
X049002Y031383D01*
Y028683D02*
X048922Y028843D01*
X049082D01*
X049002Y028683D01*
Y027783D02*
X048922Y027943D01*
X049082D01*
X049002Y027783D01*
Y026883D02*
X048922Y027043D01*
X049082D01*
X049002Y026883D01*
X048102Y031383D02*
X048022Y031543D01*
X048182D01*
X048102Y031383D01*
Y029583D02*
X048022Y029743D01*
X048182D01*
X048102Y029583D01*
Y027783D02*
X048022Y027943D01*
X048182D01*
X048102Y027783D01*
Y026883D02*
X048022Y027043D01*
X048182D01*
X048102Y026883D01*
X047202Y029583D02*
X047122Y029743D01*
X047282D01*
X047202Y029583D01*
Y028683D02*
X047122Y028843D01*
X047282D01*
X047202Y028683D01*
Y027783D02*
X047122Y027943D01*
X047282D01*
X047202Y027783D01*
Y026883D02*
X047122Y027043D01*
X047282D01*
X047202Y026883D01*
X046302Y027783D02*
X046222Y027943D01*
X046382D01*
X046302Y027783D01*
Y026883D02*
X046222Y027043D01*
X046382D01*
X046302Y026883D01*
X045402D02*
X045322Y027043D01*
X045482D01*
X045402Y026883D01*
X044502D02*
X044422Y027043D01*
X044582D01*
X044502Y026883D01*
X043602D02*
X043522Y027043D01*
X043682D01*
X043602Y026883D01*
X035502D02*
X035422Y027043D01*
X035582D01*
X035502Y026883D01*
X034602D02*
X034522Y027043D01*
X034682D01*
X034602Y026883D01*
X045002Y028933D02*
X044922Y029093D01*
X045082D01*
X045002Y028933D01*
X045302Y028533D02*
X045222Y028693D01*
X045382D01*
X045302Y028533D01*
Y027983D02*
X045222Y028143D01*
X045382D01*
X045302Y027983D01*
X043602Y028533D02*
X043522Y028693D01*
X043682D01*
X043602Y028533D01*
Y027983D02*
X043522Y028143D01*
X043682D01*
X043602Y027983D01*
X043952Y027683D02*
X043872Y027843D01*
X044032D01*
X043952Y027683D01*
X048102Y032233D02*
X048022Y032393D01*
X048182D01*
X048102Y032233D01*
X048952D02*
X048872Y032393D01*
X049032D01*
X048952Y032233D01*
X049852D02*
X049772Y032393D01*
X049932D01*
X049852Y032233D01*
X046602Y030933D02*
X046522Y031093D01*
X046682D01*
X046602Y030933D01*
X047908Y030316D02*
X047948Y030356D01*
X047988D01*
X047948Y030396D01*
X047988Y030436D01*
X047948D01*
X047908Y030476D01*
X047868Y030436D01*
X047828D01*
X047868Y030396D01*
X047828Y030356D01*
X047868D01*
X047908Y030316D01*
X048563Y029806D02*
X048603Y029846D01*
X048643D01*
X048603Y029886D01*
X048643Y029926D01*
X048603D01*
X048563Y029966D01*
X048523Y029926D01*
X048483D01*
X048523Y029886D01*
X048483Y029846D01*
X048523D01*
X048563Y029806D01*
X048556Y030646D02*
X048596Y030686D01*
X048636D01*
X048596Y030726D01*
X048636Y030766D01*
X048596D01*
X048556Y030806D01*
X048516Y030766D01*
X048476D01*
X048516Y030726D01*
X048476Y030686D01*
X048516D01*
X048556Y030646D01*
X050502Y029058D02*
X050422Y029218D01*
X050582D01*
X050502Y029058D01*
X049902D02*
X049822Y029218D01*
X049982D01*
X049902Y029058D01*
X049302D02*
X049222Y029218D01*
X049382D01*
X049302Y029058D01*
Y030009D02*
X049222Y030169D01*
X049382D01*
X049302Y030009D01*
X049902D02*
X049822Y030169D01*
X049982D01*
X049902Y030009D01*
X050502D02*
X050422Y030169D01*
X050582D01*
X050502Y030009D01*
X047952Y030933D02*
X047872Y031093D01*
X048032D01*
X047952Y030933D01*
X039552Y028433D02*
X039472Y028593D01*
X039632D01*
X039552Y028433D01*
X044852Y029383D02*
X044772Y029543D01*
X044932D01*
X044852Y029383D01*
X045452D02*
X045372Y029543D01*
X045532D01*
X045452Y029383D01*
X046002Y030933D02*
X045922Y031093D01*
X046082D01*
X046002Y030933D01*
X047202D02*
X047122Y031093D01*
X047282D01*
X047202Y030933D01*
X046702Y030233D02*
X046622Y030393D01*
X046782D01*
X046702Y030233D01*
X047302D02*
X047222Y030393D01*
X047382D01*
X047302Y030233D01*
X037002Y030283D02*
X036922Y030443D01*
X037082D01*
X037002Y030283D01*
X037402D02*
X037322Y030443D01*
X037482D01*
X037402Y030283D01*
X043052Y029783D02*
X042972Y029943D01*
X043132D01*
X043052Y029783D01*
X043002Y030533D02*
X042922Y030693D01*
X043082D01*
X043002Y030533D01*
X042655Y029645D02*
X042575Y029805D01*
X042735D01*
X042655Y029645D01*
X041852Y028883D02*
X041772Y029043D01*
X041932D01*
X041852Y028883D01*
X041102Y029683D02*
X041022Y029843D01*
X041182D01*
X041102Y029683D01*
X042702Y028783D02*
X042622Y028943D01*
X042782D01*
X042702Y028783D01*
X039752Y029283D02*
X039672Y029443D01*
X039832D01*
X039752Y029283D01*
X039202Y028733D02*
X039122Y028893D01*
X039282D01*
X039202Y028733D01*
X043052Y031383D02*
X042972Y031543D01*
X043132D01*
X043052Y031383D01*
X046052Y028883D02*
X045972Y029043D01*
X046132D01*
X046052Y028883D01*
Y029383D02*
X045972Y029543D01*
X046132D01*
X046052Y029383D01*
X036252Y031733D02*
X036172Y031893D01*
X036332D01*
X036252Y031733D01*
X041952Y032183D02*
X041872Y032343D01*
X042032D01*
X041952Y032183D01*
X040552D02*
X040472Y032343D01*
X040632D01*
X040552Y032183D01*
X046252Y031583D02*
X046172Y031743D01*
X046332D01*
X046252Y031583D01*
X038252Y029033D02*
X038172Y029193D01*
X038332D01*
X038252Y029033D01*
X038952Y030533D02*
X038872Y030693D01*
X039032D01*
X038952Y030533D01*
X044052Y029133D02*
X043972Y029293D01*
X044132D01*
X044052Y029133D01*
X044952Y027683D02*
X044872Y027843D01*
X045032D01*
X044952Y027683D01*
X044452D02*
X044372Y027843D01*
X044532D01*
X044452Y027683D01*
X041002Y027633D02*
X040922Y027793D01*
X041082D01*
X041002Y027633D01*
X041152Y029083D02*
X041072Y029243D01*
X041232D01*
X041152Y029083D01*
X040802Y029183D02*
X040722Y029343D01*
X040882D01*
X040802Y029183D01*
X041502Y028083D02*
X041422Y028243D01*
X041582D01*
X041502Y028083D01*
X040502Y027433D02*
X040422Y027593D01*
X040582D01*
X040502Y027433D01*
X040252Y027683D02*
X040172Y027843D01*
X040332D01*
X040252Y027683D01*
X040002Y027933D02*
X039922Y028093D01*
X040082D01*
X040002Y027933D01*
X039902Y028283D02*
X039822Y028443D01*
X039982D01*
X039902Y028283D01*
X040202Y028583D02*
X040122Y028743D01*
X040282D01*
X040202Y028583D01*
X040502Y028883D02*
X040422Y029043D01*
X040582D01*
X040502Y028883D01*
X041452Y028833D02*
X041372Y028993D01*
X041532D01*
X041452Y028833D01*
X041652Y028583D02*
X041572Y028743D01*
X041732D01*
X041652Y028583D01*
X045502Y031933D02*
X045422Y032093D01*
X045582D01*
X045502Y031933D01*
X042952Y032033D02*
X042872Y032193D01*
X043032D01*
X042952Y032033D01*
X044102Y032083D02*
X044022Y032243D01*
X044182D01*
X044102Y032083D01*
X037402Y028683D02*
X037322Y028843D01*
X037482D01*
X037402Y028683D01*
X037352Y028233D02*
X037272Y028393D01*
X037432D01*
X037352Y028233D01*
X038252Y031833D02*
X038172Y031993D01*
X038332D01*
X038252Y031833D01*
X037452Y032183D02*
X037372Y032343D01*
X037532D01*
X037452Y032183D01*
X040852Y031633D02*
X040772Y031793D01*
X040932D01*
X040852Y031633D01*
X036152Y028233D02*
X036072Y028393D01*
X036232D01*
X036152Y028233D01*
X040602Y029933D02*
X040522Y030093D01*
X040682D01*
X040602Y029933D01*
X042402Y027283D02*
X042322Y027443D01*
X042482D01*
X042402Y027283D01*
X040652Y026733D02*
X040572Y026893D01*
X040732D01*
X040652Y026733D01*
X037502Y027533D02*
X037422Y027693D01*
X037582D01*
X037502Y027533D01*
X035152Y027583D02*
X035072Y027743D01*
X035232D01*
X035152Y027583D01*
X035852Y028233D02*
X035772Y028393D01*
X035932D01*
X035852Y028233D01*
Y027983D02*
X035772Y028143D01*
X035932D01*
X035852Y027983D01*
X036152D02*
X036072Y028143D01*
X036232D01*
X036152Y027983D01*
X037152Y031233D02*
X037072Y031393D01*
X037232D01*
X037152Y031233D01*
X036026Y02987D02*
X035946Y03003D01*
X036106D01*
X036026Y02987D01*
X035998Y029104D02*
X035918Y029264D01*
X036078D01*
X035998Y029104D01*
X042802Y027283D02*
X042722Y027443D01*
X042882D01*
X042802Y027283D01*
X021899Y037836D02*
Y037996D01*
X022059D01*
Y037836D01*
X021899D01*
Y038623D02*
Y038783D01*
X022059D01*
Y038623D01*
X021899D01*
X022687Y037836D02*
Y037996D01*
X022847D01*
Y037836D01*
X022687D01*
Y038623D02*
Y038783D01*
X022847D01*
Y038623D01*
X022687D01*
X024573Y03738D02*
X024493Y03754D01*
X024653D01*
X024573Y03738D01*
X018473Y03768D02*
X018393Y03784D01*
X018553D01*
X018473Y03768D01*
X017623Y03868D02*
X017543Y03884D01*
X017703D01*
X017623Y03868D01*
X018173Y03598D02*
X018093Y03614D01*
X018253D01*
X018173Y03598D01*
X019973D02*
X019893Y03614D01*
X020053D01*
X019973Y03598D01*
X031173Y03518D02*
X031093Y03534D01*
X031253D01*
X031173Y03518D01*
X032973Y03788D02*
X032893Y03804D01*
X033053D01*
X032973Y03788D01*
Y03428D02*
X032893Y03444D01*
X033053D01*
X032973Y03428D01*
Y03338D02*
X032893Y03354D01*
X033053D01*
X032973Y03338D01*
X032073Y03788D02*
X031993Y03804D01*
X032153D01*
X032073Y03788D01*
Y03518D02*
X031993Y03534D01*
X032153D01*
X032073Y03518D01*
Y03428D02*
X031993Y03444D01*
X032153D01*
X032073Y03428D01*
Y03338D02*
X031993Y03354D01*
X032153D01*
X032073Y03338D01*
X031173Y03788D02*
X031093Y03804D01*
X031253D01*
X031173Y03788D01*
Y03608D02*
X031093Y03624D01*
X031253D01*
X031173Y03608D01*
Y03428D02*
X031093Y03444D01*
X031253D01*
X031173Y03428D01*
Y03338D02*
X031093Y03354D01*
X031253D01*
X031173Y03338D01*
X030273Y03608D02*
X030193Y03624D01*
X030353D01*
X030273Y03608D01*
Y03518D02*
X030193Y03534D01*
X030353D01*
X030273Y03518D01*
Y03428D02*
X030193Y03444D01*
X030353D01*
X030273Y03428D01*
Y03338D02*
X030193Y03354D01*
X030353D01*
X030273Y03338D01*
X029373Y03428D02*
X029293Y03444D01*
X029453D01*
X029373Y03428D01*
Y03338D02*
X029293Y03354D01*
X029453D01*
X029373Y03338D01*
X028473D02*
X028393Y03354D01*
X028553D01*
X028473Y03338D01*
X027573D02*
X027493Y03354D01*
X027653D01*
X027573Y03338D01*
X026673D02*
X026593Y03354D01*
X026753D01*
X026673Y03338D01*
X018573D02*
X018493Y03354D01*
X018653D01*
X018573Y03338D01*
X017673D02*
X017593Y03354D01*
X017753D01*
X017673Y03338D01*
X028073Y03543D02*
X027993Y03559D01*
X028153D01*
X028073Y03543D01*
X028373Y03503D02*
X028293Y03519D01*
X028453D01*
X028373Y03503D01*
Y03448D02*
X028293Y03464D01*
X028453D01*
X028373Y03448D01*
X026673Y03503D02*
X026593Y03519D01*
X026753D01*
X026673Y03503D01*
Y03448D02*
X026593Y03464D01*
X026753D01*
X026673Y03448D01*
X027023Y03418D02*
X026943Y03434D01*
X027103D01*
X027023Y03418D01*
X031173Y03873D02*
X031093Y03889D01*
X031253D01*
X031173Y03873D01*
X032023D02*
X031943Y03889D01*
X032103D01*
X032023Y03873D01*
X032923D02*
X032843Y03889D01*
X033003D01*
X032923Y03873D01*
X029673Y03743D02*
X029593Y03759D01*
X029753D01*
X029673Y03743D01*
X030979Y036812D02*
X031019Y036852D01*
X031059D01*
X031019Y036892D01*
X031059Y036932D01*
X031019D01*
X030979Y036972D01*
X030939Y036932D01*
X030899D01*
X030939Y036892D01*
X030899Y036852D01*
X030939D01*
X030979Y036812D01*
X031634Y036302D02*
X031674Y036342D01*
X031714D01*
X031674Y036382D01*
X031714Y036422D01*
X031674D01*
X031634Y036462D01*
X031594Y036422D01*
X031554D01*
X031594Y036382D01*
X031554Y036342D01*
X031594D01*
X031634Y036302D01*
X031627Y037142D02*
X031667Y037182D01*
X031707D01*
X031667Y037222D01*
X031707Y037262D01*
X031667D01*
X031627Y037302D01*
X031587Y037262D01*
X031547D01*
X031587Y037222D01*
X031547Y037182D01*
X031587D01*
X031627Y037142D01*
X033573Y035554D02*
X033493Y035714D01*
X033653D01*
X033573Y035554D01*
X032973D02*
X032893Y035714D01*
X033053D01*
X032973Y035554D01*
X032373D02*
X032293Y035714D01*
X032453D01*
X032373Y035554D01*
Y036505D02*
X032293Y036665D01*
X032453D01*
X032373Y036505D01*
X032973D02*
X032893Y036665D01*
X033053D01*
X032973Y036505D01*
X033573D02*
X033493Y036665D01*
X033653D01*
X033573Y036505D01*
X031023Y03743D02*
X030943Y03759D01*
X031103D01*
X031023Y03743D01*
X022623Y03493D02*
X022543Y03509D01*
X022703D01*
X022623Y03493D01*
X027923Y03588D02*
X027843Y03604D01*
X028003D01*
X027923Y03588D01*
X028523D02*
X028443Y03604D01*
X028603D01*
X028523Y03588D01*
X029073Y03743D02*
X028993Y03759D01*
X029153D01*
X029073Y03743D01*
X030273D02*
X030193Y03759D01*
X030353D01*
X030273Y03743D01*
X029773Y03673D02*
X029693Y03689D01*
X029853D01*
X029773Y03673D01*
X030373D02*
X030293Y03689D01*
X030453D01*
X030373Y03673D01*
X020073Y03678D02*
X019993Y03694D01*
X020153D01*
X020073Y03678D01*
X020473D02*
X020393Y03694D01*
X020553D01*
X020473Y03678D01*
X026123Y03628D02*
X026043Y03644D01*
X026203D01*
X026123Y03628D01*
X026073Y03703D02*
X025993Y03719D01*
X026153D01*
X026073Y03703D01*
X025726Y036141D02*
X025646Y036301D01*
X025806D01*
X025726Y036141D01*
X024923Y03538D02*
X024843Y03554D01*
X025003D01*
X024923Y03538D01*
X024173Y03618D02*
X024093Y03634D01*
X024253D01*
X024173Y03618D01*
X025773Y03528D02*
X025693Y03544D01*
X025853D01*
X025773Y03528D01*
X022823Y03578D02*
X022743Y03594D01*
X022903D01*
X022823Y03578D01*
X022273Y03523D02*
X022193Y03539D01*
X022353D01*
X022273Y03523D01*
X026123Y03788D02*
X026043Y03804D01*
X026203D01*
X026123Y03788D01*
X029123Y03538D02*
X029043Y03554D01*
X029203D01*
X029123Y03538D01*
Y03588D02*
X029043Y03604D01*
X029203D01*
X029123Y03588D01*
X019323Y03823D02*
X019243Y03839D01*
X019403D01*
X019323Y03823D01*
X025023Y03868D02*
X024943Y03884D01*
X025103D01*
X025023Y03868D01*
X023623D02*
X023543Y03884D01*
X023703D01*
X023623Y03868D01*
X029323Y03808D02*
X029243Y03824D01*
X029403D01*
X029323Y03808D01*
X021323Y03553D02*
X021243Y03569D01*
X021403D01*
X021323Y03553D01*
X022023Y03703D02*
X021943Y03719D01*
X022103D01*
X022023Y03703D01*
X027123Y03563D02*
X027043Y03579D01*
X027203D01*
X027123Y03563D01*
X028023Y03418D02*
X027943Y03434D01*
X028103D01*
X028023Y03418D01*
X027523D02*
X027443Y03434D01*
X027603D01*
X027523Y03418D01*
X024073Y03413D02*
X023993Y03429D01*
X024153D01*
X024073Y03413D01*
X024223Y03558D02*
X024143Y03574D01*
X024303D01*
X024223Y03558D01*
X023873Y03568D02*
X023793Y03584D01*
X023953D01*
X023873Y03568D01*
X024573Y03458D02*
X024493Y03474D01*
X024653D01*
X024573Y03458D01*
X023573Y03393D02*
X023493Y03409D01*
X023653D01*
X023573Y03393D01*
X023323Y03418D02*
X023243Y03434D01*
X023403D01*
X023323Y03418D01*
X023073Y03443D02*
X022993Y03459D01*
X023153D01*
X023073Y03443D01*
X022973Y03478D02*
X022893Y03494D01*
X023053D01*
X022973Y03478D01*
X023273Y03508D02*
X023193Y03524D01*
X023353D01*
X023273Y03508D01*
X023573Y03538D02*
X023493Y03554D01*
X023653D01*
X023573Y03538D01*
X024523Y03533D02*
X024443Y03549D01*
X024603D01*
X024523Y03533D01*
X024723Y03508D02*
X024643Y03524D01*
X024803D01*
X024723Y03508D01*
X028573Y03843D02*
X028493Y03859D01*
X028653D01*
X028573Y03843D01*
X026023Y03853D02*
X025943Y03869D01*
X026103D01*
X026023Y03853D01*
X027173Y03858D02*
X027093Y03874D01*
X027253D01*
X027173Y03858D01*
X020473Y03518D02*
X020393Y03534D01*
X020553D01*
X020473Y03518D01*
X020423Y03473D02*
X020343Y03489D01*
X020503D01*
X020423Y03473D01*
X021323Y03833D02*
X021243Y03849D01*
X021403D01*
X021323Y03833D01*
X020523Y03868D02*
X020443Y03884D01*
X020603D01*
X020523Y03868D01*
X023923Y03813D02*
X023843Y03829D01*
X024003D01*
X023923Y03813D01*
X019223Y03473D02*
X019143Y03489D01*
X019303D01*
X019223Y03473D01*
X023673Y03643D02*
X023593Y03659D01*
X023753D01*
X023673Y03643D01*
X025473Y03378D02*
X025393Y03394D01*
X025553D01*
X025473Y03378D01*
X023723Y03323D02*
X023643Y03339D01*
X023803D01*
X023723Y03323D01*
X020573Y03403D02*
X020493Y03419D01*
X020653D01*
X020573Y03403D01*
X018223Y03408D02*
X018143Y03424D01*
X018303D01*
X018223Y03408D01*
X018923Y03473D02*
X018843Y03489D01*
X019003D01*
X018923Y03473D01*
Y03448D02*
X018843Y03464D01*
X019003D01*
X018923Y03448D01*
X019223D02*
X019143Y03464D01*
X019303D01*
X019223Y03448D01*
X020223Y03773D02*
X020143Y03789D01*
X020303D01*
X020223Y03773D01*
X019097Y036367D02*
X019017Y036527D01*
X019177D01*
X019097Y036367D01*
X019069Y0356D02*
X018989Y03576D01*
X019149D01*
X019069Y0356D01*
X025873Y03378D02*
X025793Y03394D01*
X025953D01*
X025873Y03378D01*
X038828Y037836D02*
Y037996D01*
X038988D01*
Y037836D01*
X038828D01*
Y038623D02*
Y038783D01*
X038988D01*
Y038623D01*
X038828D01*
X039616Y037836D02*
Y037996D01*
X039776D01*
Y037836D01*
X039616D01*
Y038623D02*
Y038783D01*
X039776D01*
Y038623D01*
X039616D01*
X041502Y03738D02*
X041422Y03754D01*
X041582D01*
X041502Y03738D01*
X035402Y03768D02*
X035322Y03784D01*
X035482D01*
X035402Y03768D01*
X034552Y03868D02*
X034472Y03884D01*
X034632D01*
X034552Y03868D01*
X035102Y03598D02*
X035022Y03614D01*
X035182D01*
X035102Y03598D01*
X036902D02*
X036822Y03614D01*
X036982D01*
X036902Y03598D01*
X048102Y03518D02*
X048022Y03534D01*
X048182D01*
X048102Y03518D01*
X049902Y03788D02*
X049822Y03804D01*
X049982D01*
X049902Y03788D01*
Y03428D02*
X049822Y03444D01*
X049982D01*
X049902Y03428D01*
Y03338D02*
X049822Y03354D01*
X049982D01*
X049902Y03338D01*
X049002Y03788D02*
X048922Y03804D01*
X049082D01*
X049002Y03788D01*
Y03518D02*
X048922Y03534D01*
X049082D01*
X049002Y03518D01*
Y03428D02*
X048922Y03444D01*
X049082D01*
X049002Y03428D01*
Y03338D02*
X048922Y03354D01*
X049082D01*
X049002Y03338D01*
X048102Y03788D02*
X048022Y03804D01*
X048182D01*
X048102Y03788D01*
Y03608D02*
X048022Y03624D01*
X048182D01*
X048102Y03608D01*
Y03428D02*
X048022Y03444D01*
X048182D01*
X048102Y03428D01*
Y03338D02*
X048022Y03354D01*
X048182D01*
X048102Y03338D01*
X047202Y03608D02*
X047122Y03624D01*
X047282D01*
X047202Y03608D01*
Y03518D02*
X047122Y03534D01*
X047282D01*
X047202Y03518D01*
Y03428D02*
X047122Y03444D01*
X047282D01*
X047202Y03428D01*
Y03338D02*
X047122Y03354D01*
X047282D01*
X047202Y03338D01*
X046302Y03428D02*
X046222Y03444D01*
X046382D01*
X046302Y03428D01*
Y03338D02*
X046222Y03354D01*
X046382D01*
X046302Y03338D01*
X045402D02*
X045322Y03354D01*
X045482D01*
X045402Y03338D01*
X044502D02*
X044422Y03354D01*
X044582D01*
X044502Y03338D01*
X043602D02*
X043522Y03354D01*
X043682D01*
X043602Y03338D01*
X035502D02*
X035422Y03354D01*
X035582D01*
X035502Y03338D01*
X034602D02*
X034522Y03354D01*
X034682D01*
X034602Y03338D01*
X045002Y03543D02*
X044922Y03559D01*
X045082D01*
X045002Y03543D01*
X045302Y03503D02*
X045222Y03519D01*
X045382D01*
X045302Y03503D01*
Y03448D02*
X045222Y03464D01*
X045382D01*
X045302Y03448D01*
X043602Y03503D02*
X043522Y03519D01*
X043682D01*
X043602Y03503D01*
Y03448D02*
X043522Y03464D01*
X043682D01*
X043602Y03448D01*
X043952Y03418D02*
X043872Y03434D01*
X044032D01*
X043952Y03418D01*
X048102Y03873D02*
X048022Y03889D01*
X048182D01*
X048102Y03873D01*
X048952D02*
X048872Y03889D01*
X049032D01*
X048952Y03873D01*
X049852D02*
X049772Y03889D01*
X049932D01*
X049852Y03873D01*
X046602Y03743D02*
X046522Y03759D01*
X046682D01*
X046602Y03743D01*
X047908Y036812D02*
X047948Y036852D01*
X047988D01*
X047948Y036892D01*
X047988Y036932D01*
X047948D01*
X047908Y036972D01*
X047868Y036932D01*
X047828D01*
X047868Y036892D01*
X047828Y036852D01*
X047868D01*
X047908Y036812D01*
X048563Y036302D02*
X048603Y036342D01*
X048643D01*
X048603Y036382D01*
X048643Y036422D01*
X048603D01*
X048563Y036462D01*
X048523Y036422D01*
X048483D01*
X048523Y036382D01*
X048483Y036342D01*
X048523D01*
X048563Y036302D01*
X048556Y037142D02*
X048596Y037182D01*
X048636D01*
X048596Y037222D01*
X048636Y037262D01*
X048596D01*
X048556Y037302D01*
X048516Y037262D01*
X048476D01*
X048516Y037222D01*
X048476Y037182D01*
X048516D01*
X048556Y037142D01*
X050502Y035554D02*
X050422Y035714D01*
X050582D01*
X050502Y035554D01*
X049902D02*
X049822Y035714D01*
X049982D01*
X049902Y035554D01*
X049302D02*
X049222Y035714D01*
X049382D01*
X049302Y035554D01*
Y036505D02*
X049222Y036665D01*
X049382D01*
X049302Y036505D01*
X049902D02*
X049822Y036665D01*
X049982D01*
X049902Y036505D01*
X050502D02*
X050422Y036665D01*
X050582D01*
X050502Y036505D01*
X047952Y03743D02*
X047872Y03759D01*
X048032D01*
X047952Y03743D01*
X039552Y03493D02*
X039472Y03509D01*
X039632D01*
X039552Y03493D01*
X044852Y03588D02*
X044772Y03604D01*
X044932D01*
X044852Y03588D01*
X045452D02*
X045372Y03604D01*
X045532D01*
X045452Y03588D01*
X046002Y03743D02*
X045922Y03759D01*
X046082D01*
X046002Y03743D01*
X047202D02*
X047122Y03759D01*
X047282D01*
X047202Y03743D01*
X046702Y03673D02*
X046622Y03689D01*
X046782D01*
X046702Y03673D01*
X047302D02*
X047222Y03689D01*
X047382D01*
X047302Y03673D01*
X037002Y03678D02*
X036922Y03694D01*
X037082D01*
X037002Y03678D01*
X037402D02*
X037322Y03694D01*
X037482D01*
X037402Y03678D01*
X043052Y03628D02*
X042972Y03644D01*
X043132D01*
X043052Y03628D01*
X043002Y03703D02*
X042922Y03719D01*
X043082D01*
X043002Y03703D01*
X042655Y036141D02*
X042575Y036301D01*
X042735D01*
X042655Y036141D01*
X041852Y03538D02*
X041772Y03554D01*
X041932D01*
X041852Y03538D01*
X041102Y03618D02*
X041022Y03634D01*
X041182D01*
X041102Y03618D01*
X042702Y03528D02*
X042622Y03544D01*
X042782D01*
X042702Y03528D01*
X039752Y03578D02*
X039672Y03594D01*
X039832D01*
X039752Y03578D01*
X039202Y03523D02*
X039122Y03539D01*
X039282D01*
X039202Y03523D01*
X043052Y03788D02*
X042972Y03804D01*
X043132D01*
X043052Y03788D01*
X046052Y03538D02*
X045972Y03554D01*
X046132D01*
X046052Y03538D01*
Y03588D02*
X045972Y03604D01*
X046132D01*
X046052Y03588D01*
X036252Y03823D02*
X036172Y03839D01*
X036332D01*
X036252Y03823D01*
X041952Y03868D02*
X041872Y03884D01*
X042032D01*
X041952Y03868D01*
X040552D02*
X040472Y03884D01*
X040632D01*
X040552Y03868D01*
X046252Y03808D02*
X046172Y03824D01*
X046332D01*
X046252Y03808D01*
X038252Y03553D02*
X038172Y03569D01*
X038332D01*
X038252Y03553D01*
X038952Y03703D02*
X038872Y03719D01*
X039032D01*
X038952Y03703D01*
X044052Y03563D02*
X043972Y03579D01*
X044132D01*
X044052Y03563D01*
X044952Y03418D02*
X044872Y03434D01*
X045032D01*
X044952Y03418D01*
X044452D02*
X044372Y03434D01*
X044532D01*
X044452Y03418D01*
X041002Y03413D02*
X040922Y03429D01*
X041082D01*
X041002Y03413D01*
X041152Y03558D02*
X041072Y03574D01*
X041232D01*
X041152Y03558D01*
X040802Y03568D02*
X040722Y03584D01*
X040882D01*
X040802Y03568D01*
X041502Y03458D02*
X041422Y03474D01*
X041582D01*
X041502Y03458D01*
X040502Y03393D02*
X040422Y03409D01*
X040582D01*
X040502Y03393D01*
X040252Y03418D02*
X040172Y03434D01*
X040332D01*
X040252Y03418D01*
X040002Y03443D02*
X039922Y03459D01*
X040082D01*
X040002Y03443D01*
X039902Y03478D02*
X039822Y03494D01*
X039982D01*
X039902Y03478D01*
X040202Y03508D02*
X040122Y03524D01*
X040282D01*
X040202Y03508D01*
X040502Y03538D02*
X040422Y03554D01*
X040582D01*
X040502Y03538D01*
X041452Y03533D02*
X041372Y03549D01*
X041532D01*
X041452Y03533D01*
X041652Y03508D02*
X041572Y03524D01*
X041732D01*
X041652Y03508D01*
X045502Y03843D02*
X045422Y03859D01*
X045582D01*
X045502Y03843D01*
X042952Y03853D02*
X042872Y03869D01*
X043032D01*
X042952Y03853D01*
X044102Y03858D02*
X044022Y03874D01*
X044182D01*
X044102Y03858D01*
X037402Y03518D02*
X037322Y03534D01*
X037482D01*
X037402Y03518D01*
X037352Y03473D02*
X037272Y03489D01*
X037432D01*
X037352Y03473D01*
X038252Y03833D02*
X038172Y03849D01*
X038332D01*
X038252Y03833D01*
X037452Y03868D02*
X037372Y03884D01*
X037532D01*
X037452Y03868D01*
X040852Y03813D02*
X040772Y03829D01*
X040932D01*
X040852Y03813D01*
X036152Y03473D02*
X036072Y03489D01*
X036232D01*
X036152Y03473D01*
X040602Y03643D02*
X040522Y03659D01*
X040682D01*
X040602Y03643D01*
X042402Y03378D02*
X042322Y03394D01*
X042482D01*
X042402Y03378D01*
X040652Y03323D02*
X040572Y03339D01*
X040732D01*
X040652Y03323D01*
X037502Y03403D02*
X037422Y03419D01*
X037582D01*
X037502Y03403D01*
X035152Y03408D02*
X035072Y03424D01*
X035232D01*
X035152Y03408D01*
X035852Y03473D02*
X035772Y03489D01*
X035932D01*
X035852Y03473D01*
Y03448D02*
X035772Y03464D01*
X035932D01*
X035852Y03448D01*
X036152D02*
X036072Y03464D01*
X036232D01*
X036152Y03448D01*
X037152Y03773D02*
X037072Y03789D01*
X037232D01*
X037152Y03773D01*
X036026Y036367D02*
X035946Y036527D01*
X036106D01*
X036026Y036367D01*
X035998Y0356D02*
X035918Y03576D01*
X036078D01*
X035998Y0356D01*
X042802Y03378D02*
X042722Y03394D01*
X042882D01*
X042802Y03378D01*
X021899Y044332D02*
Y044492D01*
X022059D01*
Y044332D01*
X021899D01*
Y045119D02*
Y045279D01*
X022059D01*
Y045119D01*
X021899D01*
X022687Y044332D02*
Y044492D01*
X022847D01*
Y044332D01*
X022687D01*
Y045119D02*
Y045279D01*
X022847D01*
Y045119D01*
X022687D01*
X024573Y043876D02*
X024493Y044036D01*
X024653D01*
X024573Y043876D01*
X018473Y044176D02*
X018393Y044336D01*
X018553D01*
X018473Y044176D01*
X017623Y045176D02*
X017543Y045336D01*
X017703D01*
X017623Y045176D01*
X018173Y042476D02*
X018093Y042636D01*
X018253D01*
X018173Y042476D01*
X019973D02*
X019893Y042636D01*
X020053D01*
X019973Y042476D01*
X031173Y041676D02*
X031093Y041836D01*
X031253D01*
X031173Y041676D01*
X032973Y044376D02*
X032893Y044536D01*
X033053D01*
X032973Y044376D01*
Y040776D02*
X032893Y040936D01*
X033053D01*
X032973Y040776D01*
Y039876D02*
X032893Y040036D01*
X033053D01*
X032973Y039876D01*
X032073Y044376D02*
X031993Y044536D01*
X032153D01*
X032073Y044376D01*
Y041676D02*
X031993Y041836D01*
X032153D01*
X032073Y041676D01*
Y040776D02*
X031993Y040936D01*
X032153D01*
X032073Y040776D01*
Y039876D02*
X031993Y040036D01*
X032153D01*
X032073Y039876D01*
X031173Y044376D02*
X031093Y044536D01*
X031253D01*
X031173Y044376D01*
Y042576D02*
X031093Y042736D01*
X031253D01*
X031173Y042576D01*
Y040776D02*
X031093Y040936D01*
X031253D01*
X031173Y040776D01*
Y039876D02*
X031093Y040036D01*
X031253D01*
X031173Y039876D01*
X030273Y042576D02*
X030193Y042736D01*
X030353D01*
X030273Y042576D01*
Y041676D02*
X030193Y041836D01*
X030353D01*
X030273Y041676D01*
Y040776D02*
X030193Y040936D01*
X030353D01*
X030273Y040776D01*
Y039876D02*
X030193Y040036D01*
X030353D01*
X030273Y039876D01*
X029373Y040776D02*
X029293Y040936D01*
X029453D01*
X029373Y040776D01*
Y039876D02*
X029293Y040036D01*
X029453D01*
X029373Y039876D01*
X028473D02*
X028393Y040036D01*
X028553D01*
X028473Y039876D01*
X027573D02*
X027493Y040036D01*
X027653D01*
X027573Y039876D01*
X026673D02*
X026593Y040036D01*
X026753D01*
X026673Y039876D01*
X018573D02*
X018493Y040036D01*
X018653D01*
X018573Y039876D01*
X017673D02*
X017593Y040036D01*
X017753D01*
X017673Y039876D01*
X028073Y041926D02*
X027993Y042086D01*
X028153D01*
X028073Y041926D01*
X028373Y041526D02*
X028293Y041686D01*
X028453D01*
X028373Y041526D01*
Y040976D02*
X028293Y041136D01*
X028453D01*
X028373Y040976D01*
X026673Y041526D02*
X026593Y041686D01*
X026753D01*
X026673Y041526D01*
Y040976D02*
X026593Y041136D01*
X026753D01*
X026673Y040976D01*
X027023Y040676D02*
X026943Y040836D01*
X027103D01*
X027023Y040676D01*
X031173Y045226D02*
X031093Y045386D01*
X031253D01*
X031173Y045226D01*
X032023D02*
X031943Y045386D01*
X032103D01*
X032023Y045226D01*
X032923D02*
X032843Y045386D01*
X033003D01*
X032923Y045226D01*
X029673Y043926D02*
X029593Y044086D01*
X029753D01*
X029673Y043926D01*
X030979Y043308D02*
X031019Y043348D01*
X031059D01*
X031019Y043388D01*
X031059Y043428D01*
X031019D01*
X030979Y043468D01*
X030939Y043428D01*
X030899D01*
X030939Y043388D01*
X030899Y043348D01*
X030939D01*
X030979Y043308D01*
X031634Y042798D02*
X031674Y042838D01*
X031714D01*
X031674Y042878D01*
X031714Y042918D01*
X031674D01*
X031634Y042958D01*
X031594Y042918D01*
X031554D01*
X031594Y042878D01*
X031554Y042838D01*
X031594D01*
X031634Y042798D01*
X031627Y043638D02*
X031667Y043678D01*
X031707D01*
X031667Y043718D01*
X031707Y043758D01*
X031667D01*
X031627Y043798D01*
X031587Y043758D01*
X031547D01*
X031587Y043718D01*
X031547Y043678D01*
X031587D01*
X031627Y043638D01*
X033573Y04205D02*
X033493Y04221D01*
X033653D01*
X033573Y04205D01*
X032973D02*
X032893Y04221D01*
X033053D01*
X032973Y04205D01*
X032373D02*
X032293Y04221D01*
X032453D01*
X032373Y04205D01*
Y043001D02*
X032293Y043161D01*
X032453D01*
X032373Y043001D01*
X032973D02*
X032893Y043161D01*
X033053D01*
X032973Y043001D01*
X033573D02*
X033493Y043161D01*
X033653D01*
X033573Y043001D01*
X031023Y043926D02*
X030943Y044086D01*
X031103D01*
X031023Y043926D01*
X022623Y041426D02*
X022543Y041586D01*
X022703D01*
X022623Y041426D01*
X027923Y042376D02*
X027843Y042536D01*
X028003D01*
X027923Y042376D01*
X028523D02*
X028443Y042536D01*
X028603D01*
X028523Y042376D01*
X029073Y043926D02*
X028993Y044086D01*
X029153D01*
X029073Y043926D01*
X030273D02*
X030193Y044086D01*
X030353D01*
X030273Y043926D01*
X029773Y043226D02*
X029693Y043386D01*
X029853D01*
X029773Y043226D01*
X030373D02*
X030293Y043386D01*
X030453D01*
X030373Y043226D01*
X020073Y043276D02*
X019993Y043436D01*
X020153D01*
X020073Y043276D01*
X020473D02*
X020393Y043436D01*
X020553D01*
X020473Y043276D01*
X026123Y042776D02*
X026043Y042936D01*
X026203D01*
X026123Y042776D01*
X026073Y043526D02*
X025993Y043686D01*
X026153D01*
X026073Y043526D01*
X025726Y042637D02*
X025646Y042797D01*
X025806D01*
X025726Y042637D01*
X024923Y041876D02*
X024843Y042036D01*
X025003D01*
X024923Y041876D01*
X024173Y042676D02*
X024093Y042836D01*
X024253D01*
X024173Y042676D01*
X025773Y041776D02*
X025693Y041936D01*
X025853D01*
X025773Y041776D01*
X022823Y042276D02*
X022743Y042436D01*
X022903D01*
X022823Y042276D01*
X022273Y041726D02*
X022193Y041886D01*
X022353D01*
X022273Y041726D01*
X026123Y044376D02*
X026043Y044536D01*
X026203D01*
X026123Y044376D01*
X029123Y041876D02*
X029043Y042036D01*
X029203D01*
X029123Y041876D01*
Y042376D02*
X029043Y042536D01*
X029203D01*
X029123Y042376D01*
X019323Y044726D02*
X019243Y044886D01*
X019403D01*
X019323Y044726D01*
X025023Y045176D02*
X024943Y045336D01*
X025103D01*
X025023Y045176D01*
X023623D02*
X023543Y045336D01*
X023703D01*
X023623Y045176D01*
X029323Y044576D02*
X029243Y044736D01*
X029403D01*
X029323Y044576D01*
X021323Y042026D02*
X021243Y042186D01*
X021403D01*
X021323Y042026D01*
X022023Y043526D02*
X021943Y043686D01*
X022103D01*
X022023Y043526D01*
X027123Y042126D02*
X027043Y042286D01*
X027203D01*
X027123Y042126D01*
X028023Y040676D02*
X027943Y040836D01*
X028103D01*
X028023Y040676D01*
X027523D02*
X027443Y040836D01*
X027603D01*
X027523Y040676D01*
X024073Y040626D02*
X023993Y040786D01*
X024153D01*
X024073Y040626D01*
X024223Y042076D02*
X024143Y042236D01*
X024303D01*
X024223Y042076D01*
X023873Y042176D02*
X023793Y042336D01*
X023953D01*
X023873Y042176D01*
X024573Y041076D02*
X024493Y041236D01*
X024653D01*
X024573Y041076D01*
X023573Y040426D02*
X023493Y040586D01*
X023653D01*
X023573Y040426D01*
X023323Y040676D02*
X023243Y040836D01*
X023403D01*
X023323Y040676D01*
X023073Y040926D02*
X022993Y041086D01*
X023153D01*
X023073Y040926D01*
X022973Y041276D02*
X022893Y041436D01*
X023053D01*
X022973Y041276D01*
X023273Y041576D02*
X023193Y041736D01*
X023353D01*
X023273Y041576D01*
X023573Y041876D02*
X023493Y042036D01*
X023653D01*
X023573Y041876D01*
X024523Y041826D02*
X024443Y041986D01*
X024603D01*
X024523Y041826D01*
X024723Y041576D02*
X024643Y041736D01*
X024803D01*
X024723Y041576D01*
X028573Y044926D02*
X028493Y045086D01*
X028653D01*
X028573Y044926D01*
X026023Y045026D02*
X025943Y045186D01*
X026103D01*
X026023Y045026D01*
X027173Y045076D02*
X027093Y045236D01*
X027253D01*
X027173Y045076D01*
X020473Y041676D02*
X020393Y041836D01*
X020553D01*
X020473Y041676D01*
X020423Y041226D02*
X020343Y041386D01*
X020503D01*
X020423Y041226D01*
X021323Y044826D02*
X021243Y044986D01*
X021403D01*
X021323Y044826D01*
X020523Y045176D02*
X020443Y045336D01*
X020603D01*
X020523Y045176D01*
X023923Y044626D02*
X023843Y044786D01*
X024003D01*
X023923Y044626D01*
X019223Y041226D02*
X019143Y041386D01*
X019303D01*
X019223Y041226D01*
X023673Y042926D02*
X023593Y043086D01*
X023753D01*
X023673Y042926D01*
X025473Y040276D02*
X025393Y040436D01*
X025553D01*
X025473Y040276D01*
X023723Y039726D02*
X023643Y039886D01*
X023803D01*
X023723Y039726D01*
X020573Y040526D02*
X020493Y040686D01*
X020653D01*
X020573Y040526D01*
X018223Y040576D02*
X018143Y040736D01*
X018303D01*
X018223Y040576D01*
X018923Y041226D02*
X018843Y041386D01*
X019003D01*
X018923Y041226D01*
Y040976D02*
X018843Y041136D01*
X019003D01*
X018923Y040976D01*
X019223D02*
X019143Y041136D01*
X019303D01*
X019223Y040976D01*
X020223Y044226D02*
X020143Y044386D01*
X020303D01*
X020223Y044226D01*
X019097Y042863D02*
X019017Y043023D01*
X019177D01*
X019097Y042863D01*
X019069Y042096D02*
X018989Y042256D01*
X019149D01*
X019069Y042096D01*
X025873Y040276D02*
X025793Y040436D01*
X025953D01*
X025873Y040276D01*
X038828Y044332D02*
Y044492D01*
X038988D01*
Y044332D01*
X038828D01*
Y045119D02*
Y045279D01*
X038988D01*
Y045119D01*
X038828D01*
X039616Y044332D02*
Y044492D01*
X039776D01*
Y044332D01*
X039616D01*
Y045119D02*
Y045279D01*
X039776D01*
Y045119D01*
X039616D01*
X041502Y043876D02*
X041422Y044036D01*
X041582D01*
X041502Y043876D01*
X035402Y044176D02*
X035322Y044336D01*
X035482D01*
X035402Y044176D01*
X034552Y045176D02*
X034472Y045336D01*
X034632D01*
X034552Y045176D01*
X035102Y042476D02*
X035022Y042636D01*
X035182D01*
X035102Y042476D01*
X036902D02*
X036822Y042636D01*
X036982D01*
X036902Y042476D01*
X048102Y041676D02*
X048022Y041836D01*
X048182D01*
X048102Y041676D01*
X049902Y044376D02*
X049822Y044536D01*
X049982D01*
X049902Y044376D01*
Y040776D02*
X049822Y040936D01*
X049982D01*
X049902Y040776D01*
Y039876D02*
X049822Y040036D01*
X049982D01*
X049902Y039876D01*
X049002Y044376D02*
X048922Y044536D01*
X049082D01*
X049002Y044376D01*
Y041676D02*
X048922Y041836D01*
X049082D01*
X049002Y041676D01*
Y040776D02*
X048922Y040936D01*
X049082D01*
X049002Y040776D01*
Y039876D02*
X048922Y040036D01*
X049082D01*
X049002Y039876D01*
X048102Y044376D02*
X048022Y044536D01*
X048182D01*
X048102Y044376D01*
Y042576D02*
X048022Y042736D01*
X048182D01*
X048102Y042576D01*
Y040776D02*
X048022Y040936D01*
X048182D01*
X048102Y040776D01*
Y039876D02*
X048022Y040036D01*
X048182D01*
X048102Y039876D01*
X047202Y042576D02*
X047122Y042736D01*
X047282D01*
X047202Y042576D01*
Y041676D02*
X047122Y041836D01*
X047282D01*
X047202Y041676D01*
Y040776D02*
X047122Y040936D01*
X047282D01*
X047202Y040776D01*
Y039876D02*
X047122Y040036D01*
X047282D01*
X047202Y039876D01*
X046302Y040776D02*
X046222Y040936D01*
X046382D01*
X046302Y040776D01*
Y039876D02*
X046222Y040036D01*
X046382D01*
X046302Y039876D01*
X045402D02*
X045322Y040036D01*
X045482D01*
X045402Y039876D01*
X044502D02*
X044422Y040036D01*
X044582D01*
X044502Y039876D01*
X043602D02*
X043522Y040036D01*
X043682D01*
X043602Y039876D01*
X035502D02*
X035422Y040036D01*
X035582D01*
X035502Y039876D01*
X034602D02*
X034522Y040036D01*
X034682D01*
X034602Y039876D01*
X045002Y041926D02*
X044922Y042086D01*
X045082D01*
X045002Y041926D01*
X045302Y041526D02*
X045222Y041686D01*
X045382D01*
X045302Y041526D01*
Y040976D02*
X045222Y041136D01*
X045382D01*
X045302Y040976D01*
X043602Y041526D02*
X043522Y041686D01*
X043682D01*
X043602Y041526D01*
Y040976D02*
X043522Y041136D01*
X043682D01*
X043602Y040976D01*
X043952Y040676D02*
X043872Y040836D01*
X044032D01*
X043952Y040676D01*
X048102Y045226D02*
X048022Y045386D01*
X048182D01*
X048102Y045226D01*
X048952D02*
X048872Y045386D01*
X049032D01*
X048952Y045226D01*
X049852D02*
X049772Y045386D01*
X049932D01*
X049852Y045226D01*
X046602Y043926D02*
X046522Y044086D01*
X046682D01*
X046602Y043926D01*
X047908Y043308D02*
X047948Y043348D01*
X047988D01*
X047948Y043388D01*
X047988Y043428D01*
X047948D01*
X047908Y043468D01*
X047868Y043428D01*
X047828D01*
X047868Y043388D01*
X047828Y043348D01*
X047868D01*
X047908Y043308D01*
X048563Y042798D02*
X048603Y042838D01*
X048643D01*
X048603Y042878D01*
X048643Y042918D01*
X048603D01*
X048563Y042958D01*
X048523Y042918D01*
X048483D01*
X048523Y042878D01*
X048483Y042838D01*
X048523D01*
X048563Y042798D01*
X048556Y043638D02*
X048596Y043678D01*
X048636D01*
X048596Y043718D01*
X048636Y043758D01*
X048596D01*
X048556Y043798D01*
X048516Y043758D01*
X048476D01*
X048516Y043718D01*
X048476Y043678D01*
X048516D01*
X048556Y043638D01*
X050502Y04205D02*
X050422Y04221D01*
X050582D01*
X050502Y04205D01*
X049902D02*
X049822Y04221D01*
X049982D01*
X049902Y04205D01*
X049302D02*
X049222Y04221D01*
X049382D01*
X049302Y04205D01*
Y043001D02*
X049222Y043161D01*
X049382D01*
X049302Y043001D01*
X049902D02*
X049822Y043161D01*
X049982D01*
X049902Y043001D01*
X050502D02*
X050422Y043161D01*
X050582D01*
X050502Y043001D01*
X047952Y043926D02*
X047872Y044086D01*
X048032D01*
X047952Y043926D01*
X039552Y041426D02*
X039472Y041586D01*
X039632D01*
X039552Y041426D01*
X044852Y042376D02*
X044772Y042536D01*
X044932D01*
X044852Y042376D01*
X045452D02*
X045372Y042536D01*
X045532D01*
X045452Y042376D01*
X046002Y043926D02*
X045922Y044086D01*
X046082D01*
X046002Y043926D01*
X047202D02*
X047122Y044086D01*
X047282D01*
X047202Y043926D01*
X046702Y043226D02*
X046622Y043386D01*
X046782D01*
X046702Y043226D01*
X047302D02*
X047222Y043386D01*
X047382D01*
X047302Y043226D01*
X037002Y043276D02*
X036922Y043436D01*
X037082D01*
X037002Y043276D01*
X037402D02*
X037322Y043436D01*
X037482D01*
X037402Y043276D01*
X043052Y042776D02*
X042972Y042936D01*
X043132D01*
X043052Y042776D01*
X043002Y043526D02*
X042922Y043686D01*
X043082D01*
X043002Y043526D01*
X042655Y042637D02*
X042575Y042797D01*
X042735D01*
X042655Y042637D01*
X041852Y041876D02*
X041772Y042036D01*
X041932D01*
X041852Y041876D01*
X041102Y042676D02*
X041022Y042836D01*
X041182D01*
X041102Y042676D01*
X042702Y041776D02*
X042622Y041936D01*
X042782D01*
X042702Y041776D01*
X039752Y042276D02*
X039672Y042436D01*
X039832D01*
X039752Y042276D01*
X039202Y041726D02*
X039122Y041886D01*
X039282D01*
X039202Y041726D01*
X043052Y044376D02*
X042972Y044536D01*
X043132D01*
X043052Y044376D01*
X046052Y041876D02*
X045972Y042036D01*
X046132D01*
X046052Y041876D01*
Y042376D02*
X045972Y042536D01*
X046132D01*
X046052Y042376D01*
X036252Y044726D02*
X036172Y044886D01*
X036332D01*
X036252Y044726D01*
X041952Y045176D02*
X041872Y045336D01*
X042032D01*
X041952Y045176D01*
X040552D02*
X040472Y045336D01*
X040632D01*
X040552Y045176D01*
X046252Y044576D02*
X046172Y044736D01*
X046332D01*
X046252Y044576D01*
X038252Y042026D02*
X038172Y042186D01*
X038332D01*
X038252Y042026D01*
X038952Y043526D02*
X038872Y043686D01*
X039032D01*
X038952Y043526D01*
X044052Y042126D02*
X043972Y042286D01*
X044132D01*
X044052Y042126D01*
X044952Y040676D02*
X044872Y040836D01*
X045032D01*
X044952Y040676D01*
X044452D02*
X044372Y040836D01*
X044532D01*
X044452Y040676D01*
X041002Y040626D02*
X040922Y040786D01*
X041082D01*
X041002Y040626D01*
X041152Y042076D02*
X041072Y042236D01*
X041232D01*
X041152Y042076D01*
X040802Y042176D02*
X040722Y042336D01*
X040882D01*
X040802Y042176D01*
X041502Y041076D02*
X041422Y041236D01*
X041582D01*
X041502Y041076D01*
X040502Y040426D02*
X040422Y040586D01*
X040582D01*
X040502Y040426D01*
X040252Y040676D02*
X040172Y040836D01*
X040332D01*
X040252Y040676D01*
X040002Y040926D02*
X039922Y041086D01*
X040082D01*
X040002Y040926D01*
X039902Y041276D02*
X039822Y041436D01*
X039982D01*
X039902Y041276D01*
X040202Y041576D02*
X040122Y041736D01*
X040282D01*
X040202Y041576D01*
X040502Y041876D02*
X040422Y042036D01*
X040582D01*
X040502Y041876D01*
X041452Y041826D02*
X041372Y041986D01*
X041532D01*
X041452Y041826D01*
X041652Y041576D02*
X041572Y041736D01*
X041732D01*
X041652Y041576D01*
X045502Y044926D02*
X045422Y045086D01*
X045582D01*
X045502Y044926D01*
X042952Y045026D02*
X042872Y045186D01*
X043032D01*
X042952Y045026D01*
X044102Y045076D02*
X044022Y045236D01*
X044182D01*
X044102Y045076D01*
X037402Y041676D02*
X037322Y041836D01*
X037482D01*
X037402Y041676D01*
X037352Y041226D02*
X037272Y041386D01*
X037432D01*
X037352Y041226D01*
X038252Y044826D02*
X038172Y044986D01*
X038332D01*
X038252Y044826D01*
X037452Y045176D02*
X037372Y045336D01*
X037532D01*
X037452Y045176D01*
X040852Y044626D02*
X040772Y044786D01*
X040932D01*
X040852Y044626D01*
X036152Y041226D02*
X036072Y041386D01*
X036232D01*
X036152Y041226D01*
X040602Y042926D02*
X040522Y043086D01*
X040682D01*
X040602Y042926D01*
X042402Y040276D02*
X042322Y040436D01*
X042482D01*
X042402Y040276D01*
X040652Y039726D02*
X040572Y039886D01*
X040732D01*
X040652Y039726D01*
X037502Y040526D02*
X037422Y040686D01*
X037582D01*
X037502Y040526D01*
X035152Y040576D02*
X035072Y040736D01*
X035232D01*
X035152Y040576D01*
X035852Y041226D02*
X035772Y041386D01*
X035932D01*
X035852Y041226D01*
Y040976D02*
X035772Y041136D01*
X035932D01*
X035852Y040976D01*
X036152D02*
X036072Y041136D01*
X036232D01*
X036152Y040976D01*
X037152Y044226D02*
X037072Y044386D01*
X037232D01*
X037152Y044226D01*
X036026Y042863D02*
X035946Y043023D01*
X036106D01*
X036026Y042863D01*
X035998Y042096D02*
X035918Y042256D01*
X036078D01*
X035998Y042096D01*
X042802Y040276D02*
X042722Y040436D01*
X042882D01*
X042802Y040276D01*
D96*
X018224Y017471D02*
G03*
X018224Y017471I-00008J0D01*
G01*
X018224Y0157D02*
G03*
X018224Y0157I-00008J0D01*
G01*
X035153Y017471D02*
G03*
X035153Y017471I-00008J0D01*
G01*
X035153Y0157D02*
G03*
X035153Y0157I-00008J0D01*
G01*
X018224Y023967D02*
G03*
X018224Y023967I-00008J0D01*
G01*
X018224Y022196D02*
G03*
X018224Y022196I-00008J0D01*
G01*
X035153Y023967D02*
G03*
X035153Y023967I-00008J0D01*
G01*
X035153Y022196D02*
G03*
X035153Y022196I-00008J0D01*
G01*
X018224Y030463D02*
G03*
X018224Y030463I-00008J0D01*
G01*
X018224Y028692D02*
G03*
X018224Y028692I-00008J0D01*
G01*
X035153Y030463D02*
G03*
X035153Y030463I-00008J0D01*
G01*
X035153Y028692D02*
G03*
X035153Y028692I-00008J0D01*
G01*
X018224Y03696D02*
G03*
X018224Y03696I-00008J0D01*
G01*
X018224Y035188D02*
G03*
X018224Y035188I-00008J0D01*
G01*
X035153Y03696D02*
G03*
X035153Y03696I-00008J0D01*
G01*
X035153Y035188D02*
G03*
X035153Y035188I-00008J0D01*
G01*
X018224Y043456D02*
G03*
X018224Y043456I-00008J0D01*
G01*
X018224Y041684D02*
G03*
X018224Y041684I-00008J0D01*
G01*
X035153Y043456D02*
G03*
X035153Y043456I-00008J0D01*
G01*
X035153Y041684D02*
G03*
X035153Y041684I-00008J0D01*
G01*
M02*
