G04*
G04 #@! TF.GenerationSoftware,Altium Limited,Altium Designer,22.10.1 (41)*
G04*
G04 Layer_Color=32896*
%FSTAX24Y24*%
%MOIN*%
G70*
G04*
G04 #@! TF.SameCoordinates,5BB37C8D-2695-4AAB-85CC-B91A701228BC*
G04*
G04*
G04 #@! TF.FilePolarity,Positive*
G04*
G01*
G75*
%ADD52C,0.0079*%
%ADD53C,0.0098*%
%ADD54C,0.0059*%
%ADD55C,0.0050*%
%ADD56C,0.0060*%
%ADD88C,0.0039*%
%ADD89R,0.0236X0.0059*%
%ADD90R,0.0236X0.0059*%
D52*
X020836Y017369D02*
G03*
X020836Y017369I-000039J0D01*
G01*
X0233Y014759D02*
G03*
X0233Y014759I-000039J0D01*
G01*
X021627Y017487D02*
Y019534D01*
X021391D02*
X021627D01*
X021509Y017487D02*
X021627D01*
X021391Y019456D02*
Y019534D01*
Y019456D02*
X021627D01*
X020929Y017494D02*
Y019541D01*
X021165D01*
X020929Y017494D02*
X021047Y017494D01*
X021165Y019462D02*
Y019541D01*
X020929Y019462D02*
X021165D01*
X037765Y017369D02*
G03*
X037765Y017369I-000039J0D01*
G01*
X040229Y014759D02*
G03*
X040229Y014759I-000039J0D01*
G01*
X038556Y017487D02*
Y019534D01*
X03832D02*
X038556D01*
X038438Y017487D02*
X038556D01*
X03832Y019456D02*
Y019534D01*
Y019456D02*
X038556D01*
X037858Y017494D02*
Y019541D01*
X038094D01*
X037858Y017494D02*
X037976Y017494D01*
X038094Y019462D02*
Y019541D01*
X037858Y019462D02*
X038094D01*
X020836Y023865D02*
G03*
X020836Y023865I-000039J0D01*
G01*
X0233Y021255D02*
G03*
X0233Y021255I-000039J0D01*
G01*
X021627Y023983D02*
Y02603D01*
X021391D02*
X021627D01*
X021509Y023983D02*
X021627D01*
X021391Y025952D02*
Y02603D01*
Y025952D02*
X021627D01*
X020929Y02399D02*
Y026037D01*
X021165D01*
X020929Y02399D02*
X021047Y02399D01*
X021165Y025958D02*
Y026037D01*
X020929Y025958D02*
X021165D01*
X037765Y023865D02*
G03*
X037765Y023865I-000039J0D01*
G01*
X040229Y021255D02*
G03*
X040229Y021255I-000039J0D01*
G01*
X038556Y023983D02*
Y02603D01*
X03832D02*
X038556D01*
X038438Y023983D02*
X038556D01*
X03832Y025952D02*
Y02603D01*
Y025952D02*
X038556D01*
X037858Y02399D02*
Y026037D01*
X038094D01*
X037858Y02399D02*
X037976Y02399D01*
X038094Y025958D02*
Y026037D01*
X037858Y025958D02*
X038094D01*
X020836Y030361D02*
G03*
X020836Y030361I-000039J0D01*
G01*
X0233Y027751D02*
G03*
X0233Y027751I-000039J0D01*
G01*
X021627Y030479D02*
Y032526D01*
X021391D02*
X021627D01*
X021509Y030479D02*
X021627D01*
X021391Y032448D02*
Y032526D01*
Y032448D02*
X021627D01*
X020929Y030486D02*
Y032533D01*
X021165D01*
X020929Y030486D02*
X021047Y030486D01*
X021165Y032454D02*
Y032533D01*
X020929Y032454D02*
X021165D01*
X037765Y030361D02*
G03*
X037765Y030361I-000039J0D01*
G01*
X040229Y027751D02*
G03*
X040229Y027751I-000039J0D01*
G01*
X038556Y030479D02*
Y032526D01*
X03832D02*
X038556D01*
X038438Y030479D02*
X038556D01*
X03832Y032448D02*
Y032526D01*
Y032448D02*
X038556D01*
X037858Y030486D02*
Y032533D01*
X038094D01*
X037858Y030486D02*
X037976Y030486D01*
X038094Y032454D02*
Y032533D01*
X037858Y032454D02*
X038094D01*
X020836Y036857D02*
G03*
X020836Y036857I-000039J0D01*
G01*
X0233Y034247D02*
G03*
X0233Y034247I-000039J0D01*
G01*
X021627Y036975D02*
Y039023D01*
X021391D02*
X021627D01*
X021509Y036975D02*
X021627D01*
X021391Y038944D02*
Y039023D01*
Y038944D02*
X021627D01*
X020929Y036982D02*
Y039029D01*
X021165D01*
X020929Y036982D02*
X021047Y036982D01*
X021165Y03895D02*
Y039029D01*
X020929Y03895D02*
X021165D01*
X037765Y036857D02*
G03*
X037765Y036857I-000039J0D01*
G01*
X040229Y034247D02*
G03*
X040229Y034247I-000039J0D01*
G01*
X038556Y036975D02*
Y039023D01*
X03832D02*
X038556D01*
X038438Y036975D02*
X038556D01*
X03832Y038944D02*
Y039023D01*
Y038944D02*
X038556D01*
X037858Y036982D02*
Y039029D01*
X038094D01*
X037858Y036982D02*
X037976Y036982D01*
X038094Y03895D02*
Y039029D01*
X037858Y03895D02*
X038094D01*
X020836Y043353D02*
G03*
X020836Y043353I-000039J0D01*
G01*
X0233Y040743D02*
G03*
X0233Y040743I-000039J0D01*
G01*
X021627Y043471D02*
Y045519D01*
X021391D02*
X021627D01*
X021509Y043471D02*
X021627D01*
X021391Y04544D02*
Y045519D01*
Y04544D02*
X021627D01*
X020929Y043478D02*
Y045525D01*
X021165D01*
X020929Y043478D02*
X021047Y043478D01*
X021165Y045446D02*
Y045525D01*
X020929Y045446D02*
X021165D01*
X037765Y043353D02*
G03*
X037765Y043353I-000039J0D01*
G01*
X040229Y040743D02*
G03*
X040229Y040743I-000039J0D01*
G01*
X038556Y043471D02*
Y045519D01*
X03832D02*
X038556D01*
X038438Y043471D02*
X038556D01*
X03832Y04544D02*
Y045519D01*
Y04544D02*
X038556D01*
X037858Y043478D02*
Y045525D01*
X038094D01*
X037858Y043478D02*
X037976Y043478D01*
X038094Y045446D02*
Y045525D01*
X037858Y045446D02*
X038094D01*
D53*
X020772Y018971D02*
G03*
X020772Y018971I-000049J0D01*
G01*
X037701D02*
G03*
X037701Y018971I-000049J0D01*
G01*
X020772Y025467D02*
G03*
X020772Y025467I-000049J0D01*
G01*
X037701D02*
G03*
X037701Y025467I-000049J0D01*
G01*
X020772Y031963D02*
G03*
X020772Y031963I-000049J0D01*
G01*
X037701D02*
G03*
X037701Y031963I-000049J0D01*
G01*
X020772Y03846D02*
G03*
X020772Y03846I-000049J0D01*
G01*
X037701D02*
G03*
X037701Y03846I-000049J0D01*
G01*
X020772Y044956D02*
G03*
X020772Y044956I-000049J0D01*
G01*
X037701D02*
G03*
X037701Y044956I-000049J0D01*
G01*
D54*
X025123Y019526D02*
Y019576D01*
X025299Y019576D01*
Y019526D02*
Y019576D01*
X024923Y019526D02*
Y019576D01*
X024747Y019576D02*
X024923Y019576D01*
X024747Y019526D02*
Y019576D01*
X025223Y018376D02*
X025299D01*
Y019567D01*
X025123Y019526D02*
X025299D01*
X024747D02*
X024923D01*
X024747Y018376D02*
Y019567D01*
Y018376D02*
X024823D01*
X024747Y018976D02*
X024885D01*
X025161D02*
X025299D01*
X020747Y015271D02*
X021298D01*
X021223Y014771D02*
X021298D01*
Y015771D01*
X021223D02*
X021298D01*
X020747D02*
X020823D01*
X020747Y014771D02*
Y015771D01*
Y014771D02*
X020823D01*
X020073Y013671D02*
X020073Y013621D01*
X019897Y013621D02*
X020073Y013621D01*
X019897Y013671D02*
X019897Y013621D01*
X020273Y013671D02*
X020273Y013621D01*
X020449Y013621D01*
X020449Y013671D02*
X020449Y013621D01*
X019897Y014821D02*
X019973Y014821D01*
X019897Y013631D02*
X019897Y014821D01*
X019897Y013671D02*
X020073Y013671D01*
X020273Y013671D02*
X020449Y013671D01*
Y013631D02*
Y014821D01*
X020373Y014821D02*
X020449Y014821D01*
X020311Y014221D02*
X020449Y014221D01*
X019897Y014221D02*
X020035D01*
X019247Y013721D02*
X019323D01*
X019247D02*
Y014721D01*
X019323D01*
X019723Y014721D02*
X019799Y014721D01*
Y013721D02*
Y014721D01*
X019723Y013721D02*
X019799Y013721D01*
X019247Y014221D02*
X019799Y014221D01*
X019148Y018298D02*
Y018948D01*
X019148Y017629D02*
X019148Y017314D01*
Y016526D02*
Y016645D01*
X019148Y015542D02*
X019148Y015857D01*
Y014223D02*
Y014873D01*
X042052Y019526D02*
Y019576D01*
X042228Y019576D01*
Y019526D02*
Y019576D01*
X041852Y019526D02*
Y019576D01*
X041676Y019576D02*
X041852Y019576D01*
X041676Y019526D02*
Y019576D01*
X042152Y018376D02*
X042228D01*
Y019567D01*
X042052Y019526D02*
X042228D01*
X041676D02*
X041852D01*
X041676Y018376D02*
Y019567D01*
Y018376D02*
X041752D01*
X041676Y018976D02*
X041814D01*
X04209D02*
X042228D01*
X037676Y015271D02*
X038228D01*
X038152Y014771D02*
X038228D01*
Y015771D01*
X038152D02*
X038228D01*
X037676D02*
X037752D01*
X037676Y014771D02*
Y015771D01*
Y014771D02*
X037752D01*
X037002Y013671D02*
X037002Y013621D01*
X036826Y013621D02*
X037002Y013621D01*
X036826Y013671D02*
X036826Y013621D01*
X037202Y013671D02*
X037202Y013621D01*
X037378Y013621D01*
X037378Y013671D02*
X037378Y013621D01*
X036826Y014821D02*
X036902Y014821D01*
X036826Y013631D02*
X036826Y014821D01*
X036826Y013671D02*
X037002Y013671D01*
X037202Y013671D02*
X037378Y013671D01*
Y013631D02*
Y014821D01*
X037302Y014821D02*
X037378Y014821D01*
X03724Y014221D02*
X037378Y014221D01*
X036826Y014221D02*
X036964D01*
X036176Y013721D02*
X036252D01*
X036176D02*
Y014721D01*
X036252D01*
X036652Y014721D02*
X036728Y014721D01*
Y013721D02*
Y014721D01*
X036652Y013721D02*
X036728Y013721D01*
X036176Y014221D02*
X036728Y014221D01*
X036077Y018298D02*
Y018948D01*
X036077Y017629D02*
X036077Y017314D01*
Y016526D02*
Y016645D01*
X036077Y015542D02*
X036077Y015857D01*
Y014223D02*
Y014873D01*
X025123Y026022D02*
Y026072D01*
X025299Y026072D01*
Y026022D02*
Y026072D01*
X024923Y026022D02*
Y026072D01*
X024747Y026072D02*
X024923Y026072D01*
X024747Y026022D02*
Y026072D01*
X025223Y024872D02*
X025299D01*
Y026063D01*
X025123Y026022D02*
X025299D01*
X024747D02*
X024923D01*
X024747Y024872D02*
Y026063D01*
Y024872D02*
X024823D01*
X024747Y025472D02*
X024885D01*
X025161D02*
X025299D01*
X020747Y021767D02*
X021298D01*
X021223Y021267D02*
X021298D01*
Y022267D01*
X021223D02*
X021298D01*
X020747D02*
X020823D01*
X020747Y021267D02*
Y022267D01*
Y021267D02*
X020823D01*
X020073Y020167D02*
X020073Y020117D01*
X019897Y020117D02*
X020073Y020117D01*
X019897Y020167D02*
X019897Y020117D01*
X020273Y020167D02*
X020273Y020117D01*
X020449Y020117D01*
X020449Y020167D02*
X020449Y020117D01*
X019897Y021317D02*
X019973Y021317D01*
X019897Y020127D02*
X019897Y021317D01*
X019897Y020167D02*
X020073Y020167D01*
X020273Y020167D02*
X020449Y020167D01*
Y020127D02*
Y021317D01*
X020373Y021317D02*
X020449Y021317D01*
X020311Y020717D02*
X020449Y020717D01*
X019897Y020717D02*
X020035D01*
X019247Y020217D02*
X019323D01*
X019247D02*
Y021217D01*
X019323D01*
X019723Y021217D02*
X019799Y021217D01*
Y020217D02*
Y021217D01*
X019723Y020217D02*
X019799Y020217D01*
X019247Y020717D02*
X019799Y020717D01*
X019148Y024794D02*
Y025444D01*
X019148Y024125D02*
X019148Y02381D01*
Y023022D02*
Y023141D01*
X019148Y022038D02*
X019148Y022353D01*
Y020719D02*
Y021369D01*
X042052Y026022D02*
Y026072D01*
X042228Y026072D01*
Y026022D02*
Y026072D01*
X041852Y026022D02*
Y026072D01*
X041676Y026072D02*
X041852Y026072D01*
X041676Y026022D02*
Y026072D01*
X042152Y024872D02*
X042228D01*
Y026063D01*
X042052Y026022D02*
X042228D01*
X041676D02*
X041852D01*
X041676Y024872D02*
Y026063D01*
Y024872D02*
X041752D01*
X041676Y025472D02*
X041814D01*
X04209D02*
X042228D01*
X037676Y021767D02*
X038228D01*
X038152Y021267D02*
X038228D01*
Y022267D01*
X038152D02*
X038228D01*
X037676D02*
X037752D01*
X037676Y021267D02*
Y022267D01*
Y021267D02*
X037752D01*
X037002Y020167D02*
X037002Y020117D01*
X036826Y020117D02*
X037002Y020117D01*
X036826Y020167D02*
X036826Y020117D01*
X037202Y020167D02*
X037202Y020117D01*
X037378Y020117D01*
X037378Y020167D02*
X037378Y020117D01*
X036826Y021317D02*
X036902Y021317D01*
X036826Y020127D02*
X036826Y021317D01*
X036826Y020167D02*
X037002Y020167D01*
X037202Y020167D02*
X037378Y020167D01*
Y020127D02*
Y021317D01*
X037302Y021317D02*
X037378Y021317D01*
X03724Y020717D02*
X037378Y020717D01*
X036826Y020717D02*
X036964D01*
X036176Y020217D02*
X036252D01*
X036176D02*
Y021217D01*
X036252D01*
X036652Y021217D02*
X036728Y021217D01*
Y020217D02*
Y021217D01*
X036652Y020217D02*
X036728Y020217D01*
X036176Y020717D02*
X036728Y020717D01*
X036077Y024794D02*
Y025444D01*
X036077Y024125D02*
X036077Y02381D01*
Y023022D02*
Y023141D01*
X036077Y022038D02*
X036077Y022353D01*
Y020719D02*
Y021369D01*
X025123Y032518D02*
Y032568D01*
X025299Y032568D01*
Y032518D02*
Y032568D01*
X024923Y032518D02*
Y032568D01*
X024747Y032568D02*
X024923Y032568D01*
X024747Y032518D02*
Y032568D01*
X025223Y031368D02*
X025299D01*
Y032559D01*
X025123Y032518D02*
X025299D01*
X024747D02*
X024923D01*
X024747Y031368D02*
Y032559D01*
Y031368D02*
X024823D01*
X024747Y031968D02*
X024885D01*
X025161D02*
X025299D01*
X020747Y028263D02*
X021298D01*
X021223Y027763D02*
X021298D01*
Y028763D01*
X021223D02*
X021298D01*
X020747D02*
X020823D01*
X020747Y027763D02*
Y028763D01*
Y027763D02*
X020823D01*
X020073Y026663D02*
X020073Y026613D01*
X019897Y026613D02*
X020073Y026613D01*
X019897Y026663D02*
X019897Y026613D01*
X020273Y026663D02*
X020273Y026613D01*
X020449Y026613D01*
X020449Y026663D02*
X020449Y026613D01*
X019897Y027813D02*
X019973Y027813D01*
X019897Y026623D02*
X019897Y027813D01*
X019897Y026663D02*
X020073Y026663D01*
X020273Y026663D02*
X020449Y026663D01*
Y026623D02*
Y027813D01*
X020373Y027813D02*
X020449Y027813D01*
X020311Y027213D02*
X020449Y027213D01*
X019897Y027213D02*
X020035D01*
X019247Y026713D02*
X019323D01*
X019247D02*
Y027713D01*
X019323D01*
X019723Y027713D02*
X019799Y027713D01*
Y026713D02*
Y027713D01*
X019723Y026713D02*
X019799Y026713D01*
X019247Y027213D02*
X019799Y027213D01*
X019148Y03129D02*
Y03194D01*
X019148Y030621D02*
X019148Y030306D01*
Y029519D02*
Y029637D01*
X019148Y028534D02*
X019148Y028849D01*
Y027215D02*
Y027865D01*
X042052Y032518D02*
Y032568D01*
X042228Y032568D01*
Y032518D02*
Y032568D01*
X041852Y032518D02*
Y032568D01*
X041676Y032568D02*
X041852Y032568D01*
X041676Y032518D02*
Y032568D01*
X042152Y031368D02*
X042228D01*
Y032559D01*
X042052Y032518D02*
X042228D01*
X041676D02*
X041852D01*
X041676Y031368D02*
Y032559D01*
Y031368D02*
X041752D01*
X041676Y031968D02*
X041814D01*
X04209D02*
X042228D01*
X037676Y028263D02*
X038228D01*
X038152Y027763D02*
X038228D01*
Y028763D01*
X038152D02*
X038228D01*
X037676D02*
X037752D01*
X037676Y027763D02*
Y028763D01*
Y027763D02*
X037752D01*
X037002Y026663D02*
X037002Y026613D01*
X036826Y026613D02*
X037002Y026613D01*
X036826Y026663D02*
X036826Y026613D01*
X037202Y026663D02*
X037202Y026613D01*
X037378Y026613D01*
X037378Y026663D02*
X037378Y026613D01*
X036826Y027813D02*
X036902Y027813D01*
X036826Y026623D02*
X036826Y027813D01*
X036826Y026663D02*
X037002Y026663D01*
X037202Y026663D02*
X037378Y026663D01*
Y026623D02*
Y027813D01*
X037302Y027813D02*
X037378Y027813D01*
X03724Y027213D02*
X037378Y027213D01*
X036826Y027213D02*
X036964D01*
X036176Y026713D02*
X036252D01*
X036176D02*
Y027713D01*
X036252D01*
X036652Y027713D02*
X036728Y027713D01*
Y026713D02*
Y027713D01*
X036652Y026713D02*
X036728Y026713D01*
X036176Y027213D02*
X036728Y027213D01*
X036077Y03129D02*
Y03194D01*
X036077Y030621D02*
X036077Y030306D01*
Y029519D02*
Y029637D01*
X036077Y028534D02*
X036077Y028849D01*
Y027215D02*
Y027865D01*
X025123Y039014D02*
Y039064D01*
X025299Y039064D01*
Y039014D02*
Y039064D01*
X024923Y039014D02*
Y039064D01*
X024747Y039064D02*
X024923Y039064D01*
X024747Y039014D02*
Y039064D01*
X025223Y037864D02*
X025299D01*
Y039055D01*
X025123Y039014D02*
X025299D01*
X024747D02*
X024923D01*
X024747Y037864D02*
Y039055D01*
Y037864D02*
X024823D01*
X024747Y038464D02*
X024885D01*
X025161D02*
X025299D01*
X020747Y03476D02*
X021298D01*
X021223Y03426D02*
X021298D01*
Y03526D01*
X021223D02*
X021298D01*
X020747D02*
X020823D01*
X020747Y03426D02*
Y03526D01*
Y03426D02*
X020823D01*
X020073Y03316D02*
X020073Y03311D01*
X019897Y03311D02*
X020073Y03311D01*
X019897Y03316D02*
X019897Y03311D01*
X020273Y03316D02*
X020273Y03311D01*
X020449Y03311D01*
X020449Y03316D02*
X020449Y03311D01*
X019897Y03431D02*
X019973Y03431D01*
X019897Y033119D02*
X019897Y03431D01*
X019897Y03316D02*
X020073Y03316D01*
X020273Y03316D02*
X020449Y03316D01*
Y033119D02*
Y03431D01*
X020373Y03431D02*
X020449Y03431D01*
X020311Y03371D02*
X020449Y03371D01*
X019897Y03371D02*
X020035D01*
X019247Y03321D02*
X019323D01*
X019247D02*
Y03421D01*
X019323D01*
X019723Y03421D02*
X019799Y03421D01*
Y03321D02*
Y03421D01*
X019723Y03321D02*
X019799Y03321D01*
X019247Y03371D02*
X019799Y03371D01*
X019148Y037786D02*
Y038436D01*
X019148Y037117D02*
X019148Y036802D01*
Y036015D02*
Y036133D01*
X019148Y03503D02*
X019148Y035345D01*
Y033711D02*
Y034361D01*
X042052Y039014D02*
Y039064D01*
X042228Y039064D01*
Y039014D02*
Y039064D01*
X041852Y039014D02*
Y039064D01*
X041676Y039064D02*
X041852Y039064D01*
X041676Y039014D02*
Y039064D01*
X042152Y037864D02*
X042228D01*
Y039055D01*
X042052Y039014D02*
X042228D01*
X041676D02*
X041852D01*
X041676Y037864D02*
Y039055D01*
Y037864D02*
X041752D01*
X041676Y038464D02*
X041814D01*
X04209D02*
X042228D01*
X037676Y03476D02*
X038228D01*
X038152Y03426D02*
X038228D01*
Y03526D01*
X038152D02*
X038228D01*
X037676D02*
X037752D01*
X037676Y03426D02*
Y03526D01*
Y03426D02*
X037752D01*
X037002Y03316D02*
X037002Y03311D01*
X036826Y03311D02*
X037002Y03311D01*
X036826Y03316D02*
X036826Y03311D01*
X037202Y03316D02*
X037202Y03311D01*
X037378Y03311D01*
X037378Y03316D02*
X037378Y03311D01*
X036826Y03431D02*
X036902Y03431D01*
X036826Y033119D02*
X036826Y03431D01*
X036826Y03316D02*
X037002Y03316D01*
X037202Y03316D02*
X037378Y03316D01*
Y033119D02*
Y03431D01*
X037302Y03431D02*
X037378Y03431D01*
X03724Y03371D02*
X037378Y03371D01*
X036826Y03371D02*
X036964D01*
X036176Y03321D02*
X036252D01*
X036176D02*
Y03421D01*
X036252D01*
X036652Y03421D02*
X036728Y03421D01*
Y03321D02*
Y03421D01*
X036652Y03321D02*
X036728Y03321D01*
X036176Y03371D02*
X036728Y03371D01*
X036077Y037786D02*
Y038436D01*
X036077Y037117D02*
X036077Y036802D01*
Y036015D02*
Y036133D01*
X036077Y03503D02*
X036077Y035345D01*
Y033711D02*
Y034361D01*
X025123Y04551D02*
Y04556D01*
X025299Y04556D01*
Y04551D02*
Y04556D01*
X024923Y04551D02*
Y04556D01*
X024747Y04556D02*
X024923Y04556D01*
X024747Y04551D02*
Y04556D01*
X025223Y04436D02*
X025299D01*
Y045551D01*
X025123Y04551D02*
X025299D01*
X024747D02*
X024923D01*
X024747Y04436D02*
Y045551D01*
Y04436D02*
X024823D01*
X024747Y04496D02*
X024885D01*
X025161D02*
X025299D01*
X020747Y041256D02*
X021298D01*
X021223Y040756D02*
X021298D01*
Y041756D01*
X021223D02*
X021298D01*
X020747D02*
X020823D01*
X020747Y040756D02*
Y041756D01*
Y040756D02*
X020823D01*
X020073Y039656D02*
X020073Y039606D01*
X019897Y039606D02*
X020073Y039606D01*
X019897Y039656D02*
X019897Y039606D01*
X020273Y039656D02*
X020273Y039606D01*
X020449Y039606D01*
X020449Y039656D02*
X020449Y039606D01*
X019897Y040806D02*
X019973Y040806D01*
X019897Y039615D02*
X019897Y040806D01*
X019897Y039656D02*
X020073Y039656D01*
X020273Y039656D02*
X020449Y039656D01*
Y039615D02*
Y040806D01*
X020373Y040806D02*
X020449Y040806D01*
X020311Y040206D02*
X020449Y040206D01*
X019897Y040206D02*
X020035D01*
X019247Y039706D02*
X019323D01*
X019247D02*
Y040706D01*
X019323D01*
X019723Y040706D02*
X019799Y040706D01*
Y039706D02*
Y040706D01*
X019723Y039706D02*
X019799Y039706D01*
X019247Y040206D02*
X019799Y040206D01*
X019148Y044282D02*
Y044932D01*
X019148Y043613D02*
X019148Y043298D01*
Y042511D02*
Y042629D01*
X019148Y041526D02*
X019148Y041841D01*
Y040208D02*
Y040857D01*
X042052Y04551D02*
Y04556D01*
X042228Y04556D01*
Y04551D02*
Y04556D01*
X041852Y04551D02*
Y04556D01*
X041676Y04556D02*
X041852Y04556D01*
X041676Y04551D02*
Y04556D01*
X042152Y04436D02*
X042228D01*
Y045551D01*
X042052Y04551D02*
X042228D01*
X041676D02*
X041852D01*
X041676Y04436D02*
Y045551D01*
Y04436D02*
X041752D01*
X041676Y04496D02*
X041814D01*
X04209D02*
X042228D01*
X037676Y041256D02*
X038228D01*
X038152Y040756D02*
X038228D01*
Y041756D01*
X038152D02*
X038228D01*
X037676D02*
X037752D01*
X037676Y040756D02*
Y041756D01*
Y040756D02*
X037752D01*
X037002Y039656D02*
X037002Y039606D01*
X036826Y039606D02*
X037002Y039606D01*
X036826Y039656D02*
X036826Y039606D01*
X037202Y039656D02*
X037202Y039606D01*
X037378Y039606D01*
X037378Y039656D02*
X037378Y039606D01*
X036826Y040806D02*
X036902Y040806D01*
X036826Y039615D02*
X036826Y040806D01*
X036826Y039656D02*
X037002Y039656D01*
X037202Y039656D02*
X037378Y039656D01*
Y039615D02*
Y040806D01*
X037302Y040806D02*
X037378Y040806D01*
X03724Y040206D02*
X037378Y040206D01*
X036826Y040206D02*
X036964D01*
X036176Y039706D02*
X036252D01*
X036176D02*
Y040706D01*
X036252D01*
X036652Y040706D02*
X036728Y040706D01*
Y039706D02*
Y040706D01*
X036652Y039706D02*
X036728Y039706D01*
X036176Y040206D02*
X036728Y040206D01*
X036077Y044282D02*
Y044932D01*
X036077Y043613D02*
X036077Y043298D01*
Y042511D02*
Y042629D01*
X036077Y041526D02*
X036077Y041841D01*
Y040208D02*
Y040857D01*
D55*
X020838Y018006D02*
Y018636D01*
X019607Y018006D02*
Y018636D01*
X023247Y015107D02*
X023608Y014745D01*
X024137Y015998D02*
X024499Y015636D01*
X037768Y018006D02*
Y018636D01*
X036536Y018006D02*
Y018636D01*
X040176Y015107D02*
X040538Y014745D01*
X041067Y015998D02*
X041428Y015636D01*
X020838Y024502D02*
Y025132D01*
X019607Y024502D02*
Y025132D01*
X023247Y021603D02*
X023608Y021241D01*
X024137Y022494D02*
X024499Y022132D01*
X037768Y024502D02*
Y025132D01*
X036536Y024502D02*
Y025132D01*
X040176Y021603D02*
X040538Y021241D01*
X041067Y022494D02*
X041428Y022132D01*
X020838Y030998D02*
Y031628D01*
X019607Y030998D02*
Y031628D01*
X023247Y028099D02*
X023608Y027737D01*
X024137Y02899D02*
X024499Y028628D01*
X037768Y030998D02*
Y031628D01*
X036536Y030998D02*
Y031628D01*
X040176Y028099D02*
X040538Y027737D01*
X041067Y02899D02*
X041428Y028628D01*
X020838Y037495D02*
Y038124D01*
X019607Y037495D02*
Y038124D01*
X023247Y034595D02*
X023608Y034233D01*
X024137Y035486D02*
X024499Y035124D01*
X037768Y037495D02*
Y038124D01*
X036536Y037495D02*
Y038124D01*
X040176Y034595D02*
X040538Y034233D01*
X041067Y035486D02*
X041428Y035124D01*
X020838Y043991D02*
Y044621D01*
X019607Y043991D02*
Y044621D01*
X023247Y041091D02*
X023608Y040729D01*
X024137Y041982D02*
X024499Y04162D01*
X037768Y043991D02*
Y044621D01*
X036536Y043991D02*
Y044621D01*
X040176Y041091D02*
X040538Y040729D01*
X041067Y041982D02*
X041428Y04162D01*
D56*
X021431Y017996D02*
Y017788D01*
X02139Y017746D01*
X021306D01*
X021265Y017788D01*
Y017996D01*
X021181Y017955D02*
X02114Y017996D01*
X021056D01*
X021015Y017955D01*
Y017913D01*
X021056Y017871D01*
X021098D01*
X021056D01*
X021015Y01783D01*
Y017788D01*
X021056Y017746D01*
X02114D01*
X021181Y017788D01*
X019031Y013746D02*
Y013996D01*
X018906D01*
X018865Y013955D01*
Y013871D01*
X018906Y01383D01*
X019031D01*
X018948D02*
X018865Y013746D01*
X018781Y013996D02*
X018615D01*
Y013955D01*
X018781Y013788D01*
Y013746D01*
X020381Y015196D02*
Y014946D01*
X020256D01*
X020215Y014988D01*
Y015155D01*
X020256Y015196D01*
X020381D01*
X019965Y014946D02*
X020131D01*
X019965Y015113D01*
Y015155D01*
X020006Y015196D01*
X02009D01*
X020131Y015155D01*
X021448Y015113D02*
X021698D01*
Y015238D01*
X021656Y01528D01*
X021573D01*
X021531Y015238D01*
Y015113D01*
Y015196D02*
X021448Y01528D01*
X021698Y01553D02*
X021656Y015446D01*
X021573Y015363D01*
X02149D01*
X021448Y015405D01*
Y015488D01*
X02149Y01553D01*
X021531D01*
X021573Y015488D01*
Y015363D01*
X02519Y018196D02*
Y017946D01*
X025065D01*
X025023Y017988D01*
Y018155D01*
X025065Y018196D01*
X02519D01*
X02494Y017946D02*
X024856D01*
X024898D01*
Y018196D01*
X02494Y018155D01*
X021177Y017088D02*
X021135Y017046D01*
X021052D01*
X021011Y017088D01*
Y017255D01*
X021052Y017296D01*
X021135D01*
X021177Y017255D01*
X02126Y017296D02*
X021344D01*
X021302D01*
Y017046D01*
X02126Y017088D01*
X021469D02*
X02151Y017046D01*
X021594D01*
X021635Y017088D01*
Y01713D01*
X021594Y017171D01*
X021552D01*
X021594D01*
X021635Y017213D01*
Y017255D01*
X021594Y017296D01*
X02151D01*
X021469Y017255D01*
X03836Y017996D02*
Y017788D01*
X038319Y017746D01*
X038235D01*
X038194Y017788D01*
Y017996D01*
X03811Y017955D02*
X038069Y017996D01*
X037985D01*
X037944Y017955D01*
Y017913D01*
X037985Y017871D01*
X038027D01*
X037985D01*
X037944Y01783D01*
Y017788D01*
X037985Y017746D01*
X038069D01*
X03811Y017788D01*
X03596Y013746D02*
Y013996D01*
X035835D01*
X035794Y013955D01*
Y013871D01*
X035835Y01383D01*
X03596D01*
X035877D02*
X035794Y013746D01*
X03571Y013996D02*
X035544D01*
Y013955D01*
X03571Y013788D01*
Y013746D01*
X03731Y015196D02*
Y014946D01*
X037185D01*
X037144Y014988D01*
Y015155D01*
X037185Y015196D01*
X03731D01*
X036894Y014946D02*
X03706D01*
X036894Y015113D01*
Y015155D01*
X036935Y015196D01*
X037019D01*
X03706Y015155D01*
X038377Y015113D02*
X038627D01*
Y015238D01*
X038585Y01528D01*
X038502D01*
X03846Y015238D01*
Y015113D01*
Y015196D02*
X038377Y01528D01*
X038627Y01553D02*
X038585Y015446D01*
X038502Y015363D01*
X038419D01*
X038377Y015405D01*
Y015488D01*
X038419Y01553D01*
X03846D01*
X038502Y015488D01*
Y015363D01*
X042119Y018196D02*
Y017946D01*
X041994D01*
X041952Y017988D01*
Y018155D01*
X041994Y018196D01*
X042119D01*
X041869Y017946D02*
X041785D01*
X041827D01*
Y018196D01*
X041869Y018155D01*
X038106Y017088D02*
X038065Y017046D01*
X037981D01*
X03794Y017088D01*
Y017255D01*
X037981Y017296D01*
X038065D01*
X038106Y017255D01*
X03819Y017296D02*
X038273D01*
X038231D01*
Y017046D01*
X03819Y017088D01*
X038398D02*
X038439Y017046D01*
X038523D01*
X038564Y017088D01*
Y01713D01*
X038523Y017171D01*
X038481D01*
X038523D01*
X038564Y017213D01*
Y017255D01*
X038523Y017296D01*
X038439D01*
X038398Y017255D01*
X021431Y024492D02*
Y024284D01*
X02139Y024242D01*
X021306D01*
X021265Y024284D01*
Y024492D01*
X021181Y024451D02*
X02114Y024492D01*
X021056D01*
X021015Y024451D01*
Y024409D01*
X021056Y024367D01*
X021098D01*
X021056D01*
X021015Y024326D01*
Y024284D01*
X021056Y024242D01*
X02114D01*
X021181Y024284D01*
X019031Y020242D02*
Y020492D01*
X018906D01*
X018865Y020451D01*
Y020367D01*
X018906Y020326D01*
X019031D01*
X018948D02*
X018865Y020242D01*
X018781Y020492D02*
X018615D01*
Y020451D01*
X018781Y020284D01*
Y020242D01*
X020381Y021692D02*
Y021442D01*
X020256D01*
X020215Y021484D01*
Y021651D01*
X020256Y021692D01*
X020381D01*
X019965Y021442D02*
X020131D01*
X019965Y021609D01*
Y021651D01*
X020006Y021692D01*
X02009D01*
X020131Y021651D01*
X021448Y021609D02*
X021698D01*
Y021734D01*
X021656Y021776D01*
X021573D01*
X021531Y021734D01*
Y021609D01*
Y021692D02*
X021448Y021776D01*
X021698Y022026D02*
X021656Y021942D01*
X021573Y021859D01*
X02149D01*
X021448Y021901D01*
Y021984D01*
X02149Y022026D01*
X021531D01*
X021573Y021984D01*
Y021859D01*
X02519Y024692D02*
Y024442D01*
X025065D01*
X025023Y024484D01*
Y024651D01*
X025065Y024692D01*
X02519D01*
X02494Y024442D02*
X024856D01*
X024898D01*
Y024692D01*
X02494Y024651D01*
X021177Y023584D02*
X021135Y023542D01*
X021052D01*
X021011Y023584D01*
Y023751D01*
X021052Y023792D01*
X021135D01*
X021177Y023751D01*
X02126Y023792D02*
X021344D01*
X021302D01*
Y023542D01*
X02126Y023584D01*
X021469D02*
X02151Y023542D01*
X021594D01*
X021635Y023584D01*
Y023626D01*
X021594Y023667D01*
X021552D01*
X021594D01*
X021635Y023709D01*
Y023751D01*
X021594Y023792D01*
X02151D01*
X021469Y023751D01*
X03836Y024492D02*
Y024284D01*
X038319Y024242D01*
X038235D01*
X038194Y024284D01*
Y024492D01*
X03811Y024451D02*
X038069Y024492D01*
X037985D01*
X037944Y024451D01*
Y024409D01*
X037985Y024367D01*
X038027D01*
X037985D01*
X037944Y024326D01*
Y024284D01*
X037985Y024242D01*
X038069D01*
X03811Y024284D01*
X03596Y020242D02*
Y020492D01*
X035835D01*
X035794Y020451D01*
Y020367D01*
X035835Y020326D01*
X03596D01*
X035877D02*
X035794Y020242D01*
X03571Y020492D02*
X035544D01*
Y020451D01*
X03571Y020284D01*
Y020242D01*
X03731Y021692D02*
Y021442D01*
X037185D01*
X037144Y021484D01*
Y021651D01*
X037185Y021692D01*
X03731D01*
X036894Y021442D02*
X03706D01*
X036894Y021609D01*
Y021651D01*
X036935Y021692D01*
X037019D01*
X03706Y021651D01*
X038377Y021609D02*
X038627D01*
Y021734D01*
X038585Y021776D01*
X038502D01*
X03846Y021734D01*
Y021609D01*
Y021692D02*
X038377Y021776D01*
X038627Y022026D02*
X038585Y021942D01*
X038502Y021859D01*
X038419D01*
X038377Y021901D01*
Y021984D01*
X038419Y022026D01*
X03846D01*
X038502Y021984D01*
Y021859D01*
X042119Y024692D02*
Y024442D01*
X041994D01*
X041952Y024484D01*
Y024651D01*
X041994Y024692D01*
X042119D01*
X041869Y024442D02*
X041785D01*
X041827D01*
Y024692D01*
X041869Y024651D01*
X038106Y023584D02*
X038065Y023542D01*
X037981D01*
X03794Y023584D01*
Y023751D01*
X037981Y023792D01*
X038065D01*
X038106Y023751D01*
X03819Y023792D02*
X038273D01*
X038231D01*
Y023542D01*
X03819Y023584D01*
X038398D02*
X038439Y023542D01*
X038523D01*
X038564Y023584D01*
Y023626D01*
X038523Y023667D01*
X038481D01*
X038523D01*
X038564Y023709D01*
Y023751D01*
X038523Y023792D01*
X038439D01*
X038398Y023751D01*
X021431Y030988D02*
Y03078D01*
X02139Y030738D01*
X021306D01*
X021265Y03078D01*
Y030988D01*
X021181Y030947D02*
X02114Y030988D01*
X021056D01*
X021015Y030947D01*
Y030905D01*
X021056Y030863D01*
X021098D01*
X021056D01*
X021015Y030822D01*
Y03078D01*
X021056Y030738D01*
X02114D01*
X021181Y03078D01*
X019031Y026738D02*
Y026988D01*
X018906D01*
X018865Y026947D01*
Y026863D01*
X018906Y026822D01*
X019031D01*
X018948D02*
X018865Y026738D01*
X018781Y026988D02*
X018615D01*
Y026947D01*
X018781Y02678D01*
Y026738D01*
X020381Y028188D02*
Y027938D01*
X020256D01*
X020215Y02798D01*
Y028147D01*
X020256Y028188D01*
X020381D01*
X019965Y027938D02*
X020131D01*
X019965Y028105D01*
Y028147D01*
X020006Y028188D01*
X02009D01*
X020131Y028147D01*
X021448Y028105D02*
X021698D01*
Y02823D01*
X021656Y028272D01*
X021573D01*
X021531Y02823D01*
Y028105D01*
Y028188D02*
X021448Y028272D01*
X021698Y028522D02*
X021656Y028438D01*
X021573Y028355D01*
X02149D01*
X021448Y028397D01*
Y02848D01*
X02149Y028522D01*
X021531D01*
X021573Y02848D01*
Y028355D01*
X02519Y031188D02*
Y030938D01*
X025065D01*
X025023Y03098D01*
Y031147D01*
X025065Y031188D01*
X02519D01*
X02494Y030938D02*
X024856D01*
X024898D01*
Y031188D01*
X02494Y031147D01*
X021177Y03008D02*
X021135Y030038D01*
X021052D01*
X021011Y03008D01*
Y030247D01*
X021052Y030288D01*
X021135D01*
X021177Y030247D01*
X02126Y030288D02*
X021344D01*
X021302D01*
Y030038D01*
X02126Y03008D01*
X021469D02*
X02151Y030038D01*
X021594D01*
X021635Y03008D01*
Y030122D01*
X021594Y030163D01*
X021552D01*
X021594D01*
X021635Y030205D01*
Y030247D01*
X021594Y030288D01*
X02151D01*
X021469Y030247D01*
X03836Y030988D02*
Y03078D01*
X038319Y030738D01*
X038235D01*
X038194Y03078D01*
Y030988D01*
X03811Y030947D02*
X038069Y030988D01*
X037985D01*
X037944Y030947D01*
Y030905D01*
X037985Y030863D01*
X038027D01*
X037985D01*
X037944Y030822D01*
Y03078D01*
X037985Y030738D01*
X038069D01*
X03811Y03078D01*
X03596Y026738D02*
Y026988D01*
X035835D01*
X035794Y026947D01*
Y026863D01*
X035835Y026822D01*
X03596D01*
X035877D02*
X035794Y026738D01*
X03571Y026988D02*
X035544D01*
Y026947D01*
X03571Y02678D01*
Y026738D01*
X03731Y028188D02*
Y027938D01*
X037185D01*
X037144Y02798D01*
Y028147D01*
X037185Y028188D01*
X03731D01*
X036894Y027938D02*
X03706D01*
X036894Y028105D01*
Y028147D01*
X036935Y028188D01*
X037019D01*
X03706Y028147D01*
X038377Y028105D02*
X038627D01*
Y02823D01*
X038585Y028272D01*
X038502D01*
X03846Y02823D01*
Y028105D01*
Y028188D02*
X038377Y028272D01*
X038627Y028522D02*
X038585Y028438D01*
X038502Y028355D01*
X038419D01*
X038377Y028397D01*
Y02848D01*
X038419Y028522D01*
X03846D01*
X038502Y02848D01*
Y028355D01*
X042119Y031188D02*
Y030938D01*
X041994D01*
X041952Y03098D01*
Y031147D01*
X041994Y031188D01*
X042119D01*
X041869Y030938D02*
X041785D01*
X041827D01*
Y031188D01*
X041869Y031147D01*
X038106Y03008D02*
X038065Y030038D01*
X037981D01*
X03794Y03008D01*
Y030247D01*
X037981Y030288D01*
X038065D01*
X038106Y030247D01*
X03819Y030288D02*
X038273D01*
X038231D01*
Y030038D01*
X03819Y03008D01*
X038398D02*
X038439Y030038D01*
X038523D01*
X038564Y03008D01*
Y030122D01*
X038523Y030163D01*
X038481D01*
X038523D01*
X038564Y030205D01*
Y030247D01*
X038523Y030288D01*
X038439D01*
X038398Y030247D01*
X021431Y037484D02*
Y037276D01*
X02139Y037235D01*
X021306D01*
X021265Y037276D01*
Y037484D01*
X021181Y037443D02*
X02114Y037484D01*
X021056D01*
X021015Y037443D01*
Y037401D01*
X021056Y03736D01*
X021098D01*
X021056D01*
X021015Y037318D01*
Y037276D01*
X021056Y037235D01*
X02114D01*
X021181Y037276D01*
X019031Y033235D02*
Y033484D01*
X018906D01*
X018865Y033443D01*
Y03336D01*
X018906Y033318D01*
X019031D01*
X018948D02*
X018865Y033235D01*
X018781Y033484D02*
X018615D01*
Y033443D01*
X018781Y033276D01*
Y033235D01*
X020381Y034684D02*
Y034435D01*
X020256D01*
X020215Y034476D01*
Y034643D01*
X020256Y034684D01*
X020381D01*
X019965Y034435D02*
X020131D01*
X019965Y034601D01*
Y034643D01*
X020006Y034684D01*
X02009D01*
X020131Y034643D01*
X021448Y034601D02*
X021698D01*
Y034726D01*
X021656Y034768D01*
X021573D01*
X021531Y034726D01*
Y034601D01*
Y034685D02*
X021448Y034768D01*
X021698Y035018D02*
X021656Y034934D01*
X021573Y034851D01*
X02149D01*
X021448Y034893D01*
Y034976D01*
X02149Y035018D01*
X021531D01*
X021573Y034976D01*
Y034851D01*
X02519Y037684D02*
Y037435D01*
X025065D01*
X025023Y037476D01*
Y037643D01*
X025065Y037684D01*
X02519D01*
X02494Y037435D02*
X024856D01*
X024898D01*
Y037684D01*
X02494Y037643D01*
X021177Y036576D02*
X021135Y036535D01*
X021052D01*
X021011Y036576D01*
Y036743D01*
X021052Y036784D01*
X021135D01*
X021177Y036743D01*
X02126Y036784D02*
X021344D01*
X021302D01*
Y036535D01*
X02126Y036576D01*
X021469D02*
X02151Y036535D01*
X021594D01*
X021635Y036576D01*
Y036618D01*
X021594Y03666D01*
X021552D01*
X021594D01*
X021635Y036701D01*
Y036743D01*
X021594Y036784D01*
X02151D01*
X021469Y036743D01*
X03836Y037484D02*
Y037276D01*
X038319Y037235D01*
X038235D01*
X038194Y037276D01*
Y037484D01*
X03811Y037443D02*
X038069Y037484D01*
X037985D01*
X037944Y037443D01*
Y037401D01*
X037985Y03736D01*
X038027D01*
X037985D01*
X037944Y037318D01*
Y037276D01*
X037985Y037235D01*
X038069D01*
X03811Y037276D01*
X03596Y033235D02*
Y033484D01*
X035835D01*
X035794Y033443D01*
Y03336D01*
X035835Y033318D01*
X03596D01*
X035877D02*
X035794Y033235D01*
X03571Y033484D02*
X035544D01*
Y033443D01*
X03571Y033276D01*
Y033235D01*
X03731Y034684D02*
Y034435D01*
X037185D01*
X037144Y034476D01*
Y034643D01*
X037185Y034684D01*
X03731D01*
X036894Y034435D02*
X03706D01*
X036894Y034601D01*
Y034643D01*
X036935Y034684D01*
X037019D01*
X03706Y034643D01*
X038377Y034601D02*
X038627D01*
Y034726D01*
X038585Y034768D01*
X038502D01*
X03846Y034726D01*
Y034601D01*
Y034685D02*
X038377Y034768D01*
X038627Y035018D02*
X038585Y034934D01*
X038502Y034851D01*
X038419D01*
X038377Y034893D01*
Y034976D01*
X038419Y035018D01*
X03846D01*
X038502Y034976D01*
Y034851D01*
X042119Y037684D02*
Y037435D01*
X041994D01*
X041952Y037476D01*
Y037643D01*
X041994Y037684D01*
X042119D01*
X041869Y037435D02*
X041785D01*
X041827D01*
Y037684D01*
X041869Y037643D01*
X038106Y036576D02*
X038065Y036535D01*
X037981D01*
X03794Y036576D01*
Y036743D01*
X037981Y036784D01*
X038065D01*
X038106Y036743D01*
X03819Y036784D02*
X038273D01*
X038231D01*
Y036535D01*
X03819Y036576D01*
X038398D02*
X038439Y036535D01*
X038523D01*
X038564Y036576D01*
Y036618D01*
X038523Y03666D01*
X038481D01*
X038523D01*
X038564Y036701D01*
Y036743D01*
X038523Y036784D01*
X038439D01*
X038398Y036743D01*
X021431Y043981D02*
Y043772D01*
X02139Y043731D01*
X021306D01*
X021265Y043772D01*
Y043981D01*
X021181Y043939D02*
X02114Y043981D01*
X021056D01*
X021015Y043939D01*
Y043897D01*
X021056Y043856D01*
X021098D01*
X021056D01*
X021015Y043814D01*
Y043772D01*
X021056Y043731D01*
X02114D01*
X021181Y043772D01*
X019031Y039731D02*
Y039981D01*
X018906D01*
X018865Y039939D01*
Y039856D01*
X018906Y039814D01*
X019031D01*
X018948D02*
X018865Y039731D01*
X018781Y039981D02*
X018615D01*
Y039939D01*
X018781Y039772D01*
Y039731D01*
X020381Y041181D02*
Y040931D01*
X020256D01*
X020215Y040972D01*
Y041139D01*
X020256Y041181D01*
X020381D01*
X019965Y040931D02*
X020131D01*
X019965Y041097D01*
Y041139D01*
X020006Y041181D01*
X02009D01*
X020131Y041139D01*
X021448Y041097D02*
X021698D01*
Y041222D01*
X021656Y041264D01*
X021573D01*
X021531Y041222D01*
Y041097D01*
Y041181D02*
X021448Y041264D01*
X021698Y041514D02*
X021656Y041431D01*
X021573Y041347D01*
X02149D01*
X021448Y041389D01*
Y041472D01*
X02149Y041514D01*
X021531D01*
X021573Y041472D01*
Y041347D01*
X02519Y044181D02*
Y043931D01*
X025065D01*
X025023Y043972D01*
Y044139D01*
X025065Y044181D01*
X02519D01*
X02494Y043931D02*
X024856D01*
X024898D01*
Y044181D01*
X02494Y044139D01*
X021177Y043072D02*
X021135Y043031D01*
X021052D01*
X021011Y043072D01*
Y043239D01*
X021052Y043281D01*
X021135D01*
X021177Y043239D01*
X02126Y043281D02*
X021344D01*
X021302D01*
Y043031D01*
X02126Y043072D01*
X021469D02*
X02151Y043031D01*
X021594D01*
X021635Y043072D01*
Y043114D01*
X021594Y043156D01*
X021552D01*
X021594D01*
X021635Y043197D01*
Y043239D01*
X021594Y043281D01*
X02151D01*
X021469Y043239D01*
X03836Y043981D02*
Y043772D01*
X038319Y043731D01*
X038235D01*
X038194Y043772D01*
Y043981D01*
X03811Y043939D02*
X038069Y043981D01*
X037985D01*
X037944Y043939D01*
Y043897D01*
X037985Y043856D01*
X038027D01*
X037985D01*
X037944Y043814D01*
Y043772D01*
X037985Y043731D01*
X038069D01*
X03811Y043772D01*
X03596Y039731D02*
Y039981D01*
X035835D01*
X035794Y039939D01*
Y039856D01*
X035835Y039814D01*
X03596D01*
X035877D02*
X035794Y039731D01*
X03571Y039981D02*
X035544D01*
Y039939D01*
X03571Y039772D01*
Y039731D01*
X03731Y041181D02*
Y040931D01*
X037185D01*
X037144Y040972D01*
Y041139D01*
X037185Y041181D01*
X03731D01*
X036894Y040931D02*
X03706D01*
X036894Y041097D01*
Y041139D01*
X036935Y041181D01*
X037019D01*
X03706Y041139D01*
X038377Y041097D02*
X038627D01*
Y041222D01*
X038585Y041264D01*
X038502D01*
X03846Y041222D01*
Y041097D01*
Y041181D02*
X038377Y041264D01*
X038627Y041514D02*
X038585Y041431D01*
X038502Y041347D01*
X038419D01*
X038377Y041389D01*
Y041472D01*
X038419Y041514D01*
X03846D01*
X038502Y041472D01*
Y041347D01*
X042119Y044181D02*
Y043931D01*
X041994D01*
X041952Y043972D01*
Y044139D01*
X041994Y044181D01*
X042119D01*
X041869Y043931D02*
X041785D01*
X041827D01*
Y044181D01*
X041869Y044139D01*
X038106Y043072D02*
X038065Y043031D01*
X037981D01*
X03794Y043072D01*
Y043239D01*
X037981Y043281D01*
X038065D01*
X038106Y043239D01*
X03819Y043281D02*
X038273D01*
X038231D01*
Y043031D01*
X03819Y043072D01*
X038398D02*
X038439Y043031D01*
X038523D01*
X038564Y043072D01*
Y043114D01*
X038523Y043156D01*
X038481D01*
X038523D01*
X038564Y043197D01*
Y043239D01*
X038523Y043281D01*
X038439D01*
X038398Y043239D01*
D88*
X025023Y019045D02*
X025121Y018907D01*
X025023D02*
X025121D01*
X025023Y019045D02*
X025111Y019045D01*
X024934D02*
X025023Y019045D01*
X024924Y018907D02*
X025023D01*
X024924D02*
X025023Y019045D01*
X020074Y01429D02*
X020173Y014152D01*
X020074Y01429D02*
X020173D01*
X020084Y014152D02*
X020173Y014152D01*
X020261Y014152D01*
X020173Y01429D02*
X020271D01*
X020173Y014152D02*
X020271Y01429D01*
X041952Y019045D02*
X04205Y018907D01*
X041952D02*
X04205D01*
X041952Y019045D02*
X042041Y019045D01*
X041863D02*
X041952Y019045D01*
X041854Y018907D02*
X041952D01*
X041854D02*
X041952Y019045D01*
X037004Y01429D02*
X037102Y014152D01*
X037004Y01429D02*
X037102D01*
X037013Y014152D02*
X037102Y014152D01*
X037191Y014152D01*
X037102Y01429D02*
X0372D01*
X037102Y014152D02*
X0372Y01429D01*
X025023Y025541D02*
X025121Y025403D01*
X025023D02*
X025121D01*
X025023Y025541D02*
X025111Y025541D01*
X024934D02*
X025023Y025541D01*
X024924Y025403D02*
X025023D01*
X024924D02*
X025023Y025541D01*
X020074Y020786D02*
X020173Y020648D01*
X020074Y020786D02*
X020173D01*
X020084Y020648D02*
X020173Y020648D01*
X020261Y020648D01*
X020173Y020786D02*
X020271D01*
X020173Y020648D02*
X020271Y020786D01*
X041952Y025541D02*
X04205Y025403D01*
X041952D02*
X04205D01*
X041952Y025541D02*
X042041Y025541D01*
X041863D02*
X041952Y025541D01*
X041854Y025403D02*
X041952D01*
X041854D02*
X041952Y025541D01*
X037004Y020786D02*
X037102Y020648D01*
X037004Y020786D02*
X037102D01*
X037013Y020648D02*
X037102Y020648D01*
X037191Y020648D01*
X037102Y020786D02*
X0372D01*
X037102Y020648D02*
X0372Y020786D01*
X025023Y032037D02*
X025121Y031899D01*
X025023D02*
X025121D01*
X025023Y032037D02*
X025111Y032037D01*
X024934D02*
X025023Y032037D01*
X024924Y031899D02*
X025023D01*
X024924D02*
X025023Y032037D01*
X020074Y027282D02*
X020173Y027145D01*
X020074Y027282D02*
X020173D01*
X020084Y027145D02*
X020173Y027145D01*
X020261Y027145D01*
X020173Y027282D02*
X020271D01*
X020173Y027145D02*
X020271Y027282D01*
X041952Y032037D02*
X04205Y031899D01*
X041952D02*
X04205D01*
X041952Y032037D02*
X042041Y032037D01*
X041863D02*
X041952Y032037D01*
X041854Y031899D02*
X041952D01*
X041854D02*
X041952Y032037D01*
X037004Y027282D02*
X037102Y027145D01*
X037004Y027282D02*
X037102D01*
X037013Y027145D02*
X037102Y027145D01*
X037191Y027145D01*
X037102Y027282D02*
X0372D01*
X037102Y027145D02*
X0372Y027282D01*
X025023Y038533D02*
X025121Y038395D01*
X025023D02*
X025121D01*
X025023Y038533D02*
X025111Y038533D01*
X024934D02*
X025023Y038533D01*
X024924Y038395D02*
X025023D01*
X024924D02*
X025023Y038533D01*
X020074Y033778D02*
X020173Y033641D01*
X020074Y033778D02*
X020173D01*
X020084Y033641D02*
X020173Y033641D01*
X020261Y033641D01*
X020173Y033778D02*
X020271D01*
X020173Y033641D02*
X020271Y033778D01*
X041952Y038533D02*
X04205Y038395D01*
X041952D02*
X04205D01*
X041952Y038533D02*
X042041Y038533D01*
X041863D02*
X041952Y038533D01*
X041854Y038395D02*
X041952D01*
X041854D02*
X041952Y038533D01*
X037004Y033778D02*
X037102Y033641D01*
X037004Y033778D02*
X037102D01*
X037013Y033641D02*
X037102Y033641D01*
X037191Y033641D01*
X037102Y033778D02*
X0372D01*
X037102Y033641D02*
X0372Y033778D01*
X025023Y045029D02*
X025121Y044891D01*
X025023D02*
X025121D01*
X025023Y045029D02*
X025111Y045029D01*
X024934D02*
X025023Y045029D01*
X024924Y044891D02*
X025023D01*
X024924D02*
X025023Y045029D01*
X020074Y040274D02*
X020173Y040137D01*
X020074Y040274D02*
X020173D01*
X020084Y040137D02*
X020173Y040137D01*
X020261Y040137D01*
X020173Y040274D02*
X020271D01*
X020173Y040137D02*
X020271Y040274D01*
X041952Y045029D02*
X04205Y044891D01*
X041952D02*
X04205D01*
X041952Y045029D02*
X042041Y045029D01*
X041863D02*
X041952Y045029D01*
X041854Y044891D02*
X041952D01*
X041854D02*
X041952Y045029D01*
X037004Y040274D02*
X037102Y040137D01*
X037004Y040274D02*
X037102D01*
X037013Y040137D02*
X037102Y040137D01*
X037191Y040137D01*
X037102Y040274D02*
X0372D01*
X037102Y040137D02*
X0372Y040274D01*
D89*
X021509Y019505D02*
D03*
X038438D02*
D03*
X021047Y026007D02*
D03*
X037976D02*
D03*
X021509Y032497D02*
D03*
X038438D02*
D03*
X021047Y039D02*
D03*
X037976D02*
D03*
X021509Y045489D02*
D03*
X038438D02*
D03*
D90*
X021047Y019511D02*
D03*
X037976D02*
D03*
X021509Y026001D02*
D03*
X038438D02*
D03*
X021047Y032503D02*
D03*
X037976D02*
D03*
X021509Y038993D02*
D03*
X038438D02*
D03*
X021047Y045496D02*
D03*
X037976D02*
D03*
M02*
