G04*
G04 #@! TF.GenerationSoftware,Altium Limited,Altium Designer,22.10.1 (41)*
G04*
G04 Layer_Color=8388736*
%FSTAX24Y24*%
%MOIN*%
G70*
G04*
G04 #@! TF.SameCoordinates,8E8F082C-EA0B-43D0-983D-46ADB54C0823*
G04*
G04*
G04 #@! TF.FilePolarity,Positive*
G04*
G01*
G75*
%ADD58C,0.0050*%
D58*
X034512Y017128D02*
Y019628D01*
Y017128D02*
X035161D01*
Y019628D01*
X034512D02*
X035161D01*
X03826D01*
Y017128D02*
Y019628D01*
X035161Y017128D02*
X03826D01*
X051165D02*
Y019628D01*
Y017128D02*
X051815D01*
Y019628D01*
X051165D02*
X051815D01*
X054913D01*
Y017128D02*
Y019628D01*
X051815Y017128D02*
X054913D01*
X034512Y023349D02*
Y025849D01*
Y023349D02*
X035161D01*
Y025849D01*
X034512D02*
X035161D01*
X03826D01*
Y023349D02*
Y025849D01*
X035161Y023349D02*
X03826D01*
X051165D02*
Y025849D01*
Y023349D02*
X051815D01*
Y025849D01*
X051165D02*
X051815D01*
X054913D01*
Y023349D02*
Y025849D01*
X051815Y023349D02*
X054913D01*
X034512Y029569D02*
Y032069D01*
Y029569D02*
X035161D01*
Y032069D01*
X034512D02*
X035161D01*
X03826D01*
Y029569D02*
Y032069D01*
X035161Y029569D02*
X03826D01*
X051165D02*
Y032069D01*
Y029569D02*
X051815D01*
Y032069D01*
X051165D02*
X051815D01*
X054913D01*
Y029569D02*
Y032069D01*
X051815Y029569D02*
X054913D01*
X034512Y03579D02*
Y03829D01*
Y03579D02*
X035161D01*
Y03829D01*
X034512D02*
X035161D01*
X03826D01*
Y03579D02*
Y03829D01*
X035161Y03579D02*
X03826D01*
X051165D02*
Y03829D01*
Y03579D02*
X051815D01*
Y03829D01*
X051165D02*
X051815D01*
X054913D01*
Y03579D02*
Y03829D01*
X051815Y03579D02*
X054913D01*
X034512Y04201D02*
Y04451D01*
Y04201D02*
X035161D01*
Y04451D01*
X034512D02*
X035161D01*
X03826D01*
Y04201D02*
Y04451D01*
X035161Y04201D02*
X03826D01*
X051165D02*
Y04451D01*
Y04201D02*
X051815D01*
Y04451D01*
X051165D02*
X051815D01*
X054913D01*
Y04201D02*
Y04451D01*
X051815Y04201D02*
X054913D01*
M02*
