G04*
G04 #@! TF.GenerationSoftware,Altium Limited,Altium Designer,22.10.1 (41)*
G04*
G04 Layer_Color=16711935*
%FSTAX24Y24*%
%MOIN*%
G70*
G04*
G04 #@! TF.SameCoordinates,8E8F082C-EA0B-43D0-983D-46ADB54C0823*
G04*
G04*
G04 #@! TF.FilePolarity,Positive*
G04*
G01*
G75*
%ADD40C,0.0080*%
%ADD55C,0.0079*%
%ADD58C,0.0050*%
%ADD60C,0.0039*%
%ADD66R,0.0669X0.0331*%
G36*
X038187Y040654D02*
X037956D01*
X037956Y040833D01*
X038187D01*
X038187Y040654D01*
D02*
G37*
G36*
X021533D02*
X021303D01*
X021303Y040833D01*
X021533D01*
X021533Y040654D01*
D02*
G37*
G36*
X037396Y040283D02*
X037166D01*
Y040463D01*
X037396Y040463D01*
Y040283D01*
D02*
G37*
G36*
X020743D02*
X020513D01*
Y040463D01*
X020743Y040463D01*
Y040283D01*
D02*
G37*
G36*
X038187Y039913D02*
X037956D01*
Y040093D01*
X038187D01*
Y039913D01*
D02*
G37*
G36*
X021534D02*
X021303D01*
Y040093D01*
X021534D01*
Y039913D01*
D02*
G37*
G36*
X038187Y034433D02*
X037956D01*
X037956Y034613D01*
X038187D01*
X038187Y034433D01*
D02*
G37*
G36*
X021533D02*
X021303D01*
X021303Y034613D01*
X021533D01*
X021533Y034433D01*
D02*
G37*
G36*
X037396Y034063D02*
X037166D01*
Y034243D01*
X037396Y034243D01*
Y034063D01*
D02*
G37*
G36*
X020743D02*
X020513D01*
Y034243D01*
X020743Y034243D01*
Y034063D01*
D02*
G37*
G36*
X038187Y033692D02*
X037956D01*
Y033873D01*
X038187D01*
Y033692D01*
D02*
G37*
G36*
X021534D02*
X021303D01*
Y033873D01*
X021534D01*
Y033692D01*
D02*
G37*
G36*
X038187Y028213D02*
X037956D01*
X037956Y028392D01*
X038187D01*
X038187Y028213D01*
D02*
G37*
G36*
X021533D02*
X021303D01*
X021303Y028392D01*
X021533D01*
X021533Y028213D01*
D02*
G37*
G36*
X037396Y027842D02*
X037166D01*
Y028022D01*
X037396Y028022D01*
Y027842D01*
D02*
G37*
G36*
X020743D02*
X020513D01*
Y028022D01*
X020743Y028022D01*
Y027842D01*
D02*
G37*
G36*
X038187Y027472D02*
X037956D01*
Y027652D01*
X038187D01*
Y027472D01*
D02*
G37*
G36*
X021534D02*
X021303D01*
Y027652D01*
X021534D01*
Y027472D01*
D02*
G37*
G36*
X038187Y021992D02*
X037956D01*
X037956Y022172D01*
X038187D01*
X038187Y021992D01*
D02*
G37*
G36*
X021533D02*
X021303D01*
X021303Y022172D01*
X021533D01*
X021533Y021992D01*
D02*
G37*
G36*
X037396Y021622D02*
X037166D01*
Y021802D01*
X037396Y021802D01*
Y021622D01*
D02*
G37*
G36*
X020743D02*
X020513D01*
Y021802D01*
X020743Y021802D01*
Y021622D01*
D02*
G37*
G36*
X038187Y021251D02*
X037956D01*
Y021432D01*
X038187D01*
Y021251D01*
D02*
G37*
G36*
X021534D02*
X021303D01*
Y021432D01*
X021534D01*
Y021251D01*
D02*
G37*
G36*
X038187Y015772D02*
X037956D01*
X037956Y015951D01*
X038187D01*
X038187Y015772D01*
D02*
G37*
G36*
X021533D02*
X021303D01*
X021303Y015951D01*
X021533D01*
X021533Y015772D01*
D02*
G37*
G36*
X037396Y015401D02*
X037166D01*
Y015581D01*
X037396Y015581D01*
Y015401D01*
D02*
G37*
G36*
X020743D02*
X020513D01*
Y015581D01*
X020743Y015581D01*
Y015401D01*
D02*
G37*
G36*
X038187Y015031D02*
X037956D01*
Y015211D01*
X038187D01*
Y015031D01*
D02*
G37*
G36*
X021534D02*
X021303D01*
Y015211D01*
X021534D01*
Y015031D01*
D02*
G37*
D40*
X020763Y016051D02*
X021283D01*
Y014931D02*
Y016051D01*
X020763Y014931D02*
X021283D01*
X020763D02*
Y016051D01*
X037416D02*
X037936D01*
Y014931D02*
Y016051D01*
X037416Y014931D02*
X037936D01*
X037416D02*
Y016051D01*
X020763Y022272D02*
X021283D01*
Y021152D02*
Y022272D01*
X020763Y021152D02*
X021283D01*
X020763D02*
Y022272D01*
X037416D02*
X037936D01*
Y021152D02*
Y022272D01*
X037416Y021152D02*
X037936D01*
X037416D02*
Y022272D01*
X020763Y028492D02*
X021283D01*
Y027372D02*
Y028492D01*
X020763Y027372D02*
X021283D01*
X020763D02*
Y028492D01*
X037416D02*
X037936D01*
Y027372D02*
Y028492D01*
X037416Y027372D02*
X037936D01*
X037416D02*
Y028492D01*
X020763Y034713D02*
X021283D01*
Y033593D02*
Y034713D01*
X020763Y033593D02*
X021283D01*
X020763D02*
Y034713D01*
X037416D02*
X037936D01*
Y033593D02*
Y034713D01*
X037416Y033593D02*
X037936D01*
X037416D02*
Y034713D01*
X020763Y040933D02*
X021283D01*
Y039813D02*
Y040933D01*
X020763Y039813D02*
X021283D01*
X020763D02*
Y040933D01*
X037416D02*
X037936D01*
Y039813D02*
Y040933D01*
X037416Y039813D02*
X037936D01*
X037416D02*
Y040933D01*
D55*
X021762Y018991D02*
G03*
X021762Y018991I-000039J0D01*
G01*
X025064Y015743D02*
G03*
X025064Y015743I-000039J0D01*
G01*
X027874Y019036D02*
G03*
X027874Y019036I-000039J0D01*
G01*
X030104Y016591D02*
G03*
X030104Y016591I-000039J0D01*
G01*
X020205Y018114D02*
G03*
X020212Y018091I-000032J-000022D01*
G01*
X032917Y018378D02*
G03*
X032917Y018378I-000039J0D01*
G01*
X024656Y019835D02*
G03*
X024656Y019835I-000039J0D01*
G01*
X038416Y018991D02*
G03*
X038416Y018991I-000039J0D01*
G01*
X041718Y015743D02*
G03*
X041718Y015743I-000039J0D01*
G01*
X044528Y019036D02*
G03*
X044528Y019036I-000039J0D01*
G01*
X046758Y016591D02*
G03*
X046758Y016591I-000039J0D01*
G01*
X036859Y018114D02*
G03*
X036866Y018091I-000032J-000022D01*
G01*
X049571Y018378D02*
G03*
X049571Y018378I-000039J0D01*
G01*
X041309Y019835D02*
G03*
X041309Y019835I-000039J0D01*
G01*
X021762Y025212D02*
G03*
X021762Y025212I-000039J0D01*
G01*
X025064Y021964D02*
G03*
X025064Y021964I-000039J0D01*
G01*
X027874Y025257D02*
G03*
X027874Y025257I-000039J0D01*
G01*
X030104Y022812D02*
G03*
X030104Y022812I-000039J0D01*
G01*
X020205Y024334D02*
G03*
X020212Y024312I-000032J-000022D01*
G01*
X032917Y024599D02*
G03*
X032917Y024599I-000039J0D01*
G01*
X024656Y026056D02*
G03*
X024656Y026056I-000039J0D01*
G01*
X038416Y025212D02*
G03*
X038416Y025212I-000039J0D01*
G01*
X041718Y021964D02*
G03*
X041718Y021964I-000039J0D01*
G01*
X044528Y025257D02*
G03*
X044528Y025257I-000039J0D01*
G01*
X046758Y022812D02*
G03*
X046758Y022812I-000039J0D01*
G01*
X036859Y024334D02*
G03*
X036866Y024312I-000032J-000022D01*
G01*
X049571Y024599D02*
G03*
X049571Y024599I-000039J0D01*
G01*
X041309Y026056D02*
G03*
X041309Y026056I-000039J0D01*
G01*
X021762Y031432D02*
G03*
X021762Y031432I-000039J0D01*
G01*
X025064Y028184D02*
G03*
X025064Y028184I-000039J0D01*
G01*
X027874Y031477D02*
G03*
X027874Y031477I-000039J0D01*
G01*
X030104Y029032D02*
G03*
X030104Y029032I-000039J0D01*
G01*
X020205Y030555D02*
G03*
X020212Y030532I-000032J-000022D01*
G01*
X032917Y030819D02*
G03*
X032917Y030819I-000039J0D01*
G01*
X024656Y032276D02*
G03*
X024656Y032276I-000039J0D01*
G01*
X038416Y031432D02*
G03*
X038416Y031432I-000039J0D01*
G01*
X041718Y028184D02*
G03*
X041718Y028184I-000039J0D01*
G01*
X044528Y031477D02*
G03*
X044528Y031477I-000039J0D01*
G01*
X046758Y029032D02*
G03*
X046758Y029032I-000039J0D01*
G01*
X036859Y030555D02*
G03*
X036866Y030532I-000032J-000022D01*
G01*
X049571Y030819D02*
G03*
X049571Y030819I-000039J0D01*
G01*
X041309Y032276D02*
G03*
X041309Y032276I-000039J0D01*
G01*
X021762Y037653D02*
G03*
X021762Y037653I-000039J0D01*
G01*
X025064Y034405D02*
G03*
X025064Y034405I-000039J0D01*
G01*
X027874Y037698D02*
G03*
X027874Y037698I-000039J0D01*
G01*
X030104Y035253D02*
G03*
X030104Y035253I-000039J0D01*
G01*
X020205Y036775D02*
G03*
X020212Y036753I-000032J-000022D01*
G01*
X032917Y03704D02*
G03*
X032917Y03704I-000039J0D01*
G01*
X024656Y038496D02*
G03*
X024656Y038496I-000039J0D01*
G01*
X038416Y037653D02*
G03*
X038416Y037653I-000039J0D01*
G01*
X041718Y034405D02*
G03*
X041718Y034405I-000039J0D01*
G01*
X044528Y037698D02*
G03*
X044528Y037698I-000039J0D01*
G01*
X046758Y035253D02*
G03*
X046758Y035253I-000039J0D01*
G01*
X036859Y036775D02*
G03*
X036866Y036753I-000032J-000022D01*
G01*
X049571Y03704D02*
G03*
X049571Y03704I-000039J0D01*
G01*
X041309Y038496D02*
G03*
X041309Y038496I-000039J0D01*
G01*
X021762Y043873D02*
G03*
X021762Y043873I-000039J0D01*
G01*
X025064Y040625D02*
G03*
X025064Y040625I-000039J0D01*
G01*
X027874Y043918D02*
G03*
X027874Y043918I-000039J0D01*
G01*
X030104Y041473D02*
G03*
X030104Y041473I-000039J0D01*
G01*
X020205Y042996D02*
G03*
X020212Y042973I-000032J-000022D01*
G01*
X032917Y04326D02*
G03*
X032917Y04326I-000039J0D01*
G01*
X024656Y044717D02*
G03*
X024656Y044717I-000039J0D01*
G01*
X038416Y043873D02*
G03*
X038416Y043873I-000039J0D01*
G01*
X041718Y040625D02*
G03*
X041718Y040625I-000039J0D01*
G01*
X044528Y043918D02*
G03*
X044528Y043918I-000039J0D01*
G01*
X046758Y041473D02*
G03*
X046758Y041473I-000039J0D01*
G01*
X036859Y042996D02*
G03*
X036866Y042973I-000032J-000022D01*
G01*
X049571Y04326D02*
G03*
X049571Y04326I-000039J0D01*
G01*
X041309Y044717D02*
G03*
X041309Y044717I-000039J0D01*
G01*
D58*
X021544Y019076D02*
Y019706D01*
X020402D02*
X021544D01*
X020402Y019076D02*
Y019706D01*
Y019076D02*
X021544D01*
X025373Y015729D02*
X026264Y01662D01*
X025902Y016982D02*
X026264Y01662D01*
X025011Y016091D02*
X025902Y016982D01*
X025011Y016091D02*
X025373Y015729D01*
X028134Y017753D02*
Y019328D01*
X029709Y017753D02*
Y019328D01*
X028134D02*
X029709D01*
X028134Y017753D02*
X029709D01*
X029829Y016335D02*
Y016847D01*
X028569D02*
X029829D01*
X028569Y016335D02*
Y016847D01*
Y016335D02*
X029829D01*
X020503Y016866D02*
Y018017D01*
Y016866D02*
X021143D01*
Y018017D01*
X020503D02*
X021143D01*
X034512Y017128D02*
Y019628D01*
X035161D01*
Y017128D02*
Y019628D01*
X034512Y017128D02*
X035161D01*
X03826D01*
Y019628D01*
X035161D02*
X03826D01*
X022786Y018654D02*
Y020229D01*
X02436D01*
Y018654D02*
Y020229D01*
X022786Y018654D02*
X02436D01*
X022786D02*
X02436D01*
X038197Y019076D02*
Y019706D01*
X037056D02*
X038197D01*
X037056Y019076D02*
Y019706D01*
Y019076D02*
X038197D01*
X042026Y015729D02*
X042917Y01662D01*
X042555Y016982D02*
X042917Y01662D01*
X041665Y016091D02*
X042555Y016982D01*
X041665Y016091D02*
X042026Y015729D01*
X044788Y017753D02*
Y019328D01*
X046363Y017753D02*
Y019328D01*
X044788D02*
X046363D01*
X044788Y017753D02*
X046363D01*
X046482Y016335D02*
Y016847D01*
X045223D02*
X046482D01*
X045223Y016335D02*
Y016847D01*
Y016335D02*
X046482D01*
X037157Y016866D02*
Y018017D01*
Y016866D02*
X037796D01*
Y018017D01*
X037157D02*
X037796D01*
X051165Y017128D02*
Y019628D01*
X051815D01*
Y017128D02*
Y019628D01*
X051165Y017128D02*
X051815D01*
X054913D01*
Y019628D01*
X051815D02*
X054913D01*
X039439Y018654D02*
Y020229D01*
X041014D01*
Y018654D02*
Y020229D01*
X039439Y018654D02*
X041014D01*
X039439D02*
X041014D01*
X021544Y025297D02*
Y025927D01*
X020402D02*
X021544D01*
X020402Y025297D02*
Y025927D01*
Y025297D02*
X021544D01*
X025373Y02195D02*
X026264Y022841D01*
X025902Y023203D02*
X026264Y022841D01*
X025011Y022312D02*
X025902Y023203D01*
X025011Y022312D02*
X025373Y02195D01*
X028134Y023973D02*
Y025548D01*
X029709Y023973D02*
Y025548D01*
X028134D02*
X029709D01*
X028134Y023973D02*
X029709D01*
X029829Y022556D02*
Y023068D01*
X028569D02*
X029829D01*
X028569Y022556D02*
Y023068D01*
Y022556D02*
X029829D01*
X020503Y023086D02*
Y024238D01*
Y023086D02*
X021143D01*
Y024238D01*
X020503D02*
X021143D01*
X034512Y023349D02*
Y025849D01*
X035161D01*
Y023349D02*
Y025849D01*
X034512Y023349D02*
X035161D01*
X03826D01*
Y025849D01*
X035161D02*
X03826D01*
X022786Y024874D02*
Y026449D01*
X02436D01*
Y024874D02*
Y026449D01*
X022786Y024874D02*
X02436D01*
X022786D02*
X02436D01*
X038197Y025297D02*
Y025927D01*
X037056D02*
X038197D01*
X037056Y025297D02*
Y025927D01*
Y025297D02*
X038197D01*
X042026Y02195D02*
X042917Y022841D01*
X042555Y023203D02*
X042917Y022841D01*
X041665Y022312D02*
X042555Y023203D01*
X041665Y022312D02*
X042026Y02195D01*
X044788Y023973D02*
Y025548D01*
X046363Y023973D02*
Y025548D01*
X044788D02*
X046363D01*
X044788Y023973D02*
X046363D01*
X046482Y022556D02*
Y023068D01*
X045223D02*
X046482D01*
X045223Y022556D02*
Y023068D01*
Y022556D02*
X046482D01*
X037157Y023086D02*
Y024238D01*
Y023086D02*
X037796D01*
Y024238D01*
X037157D02*
X037796D01*
X051165Y023349D02*
Y025849D01*
X051815D01*
Y023349D02*
Y025849D01*
X051165Y023349D02*
X051815D01*
X054913D01*
Y025849D01*
X051815D02*
X054913D01*
X039439Y024874D02*
Y026449D01*
X041014D01*
Y024874D02*
Y026449D01*
X039439Y024874D02*
X041014D01*
X039439D02*
X041014D01*
X021544Y031517D02*
Y032147D01*
X020402D02*
X021544D01*
X020402Y031517D02*
Y032147D01*
Y031517D02*
X021544D01*
X025373Y02817D02*
X026264Y029061D01*
X025902Y029423D02*
X026264Y029061D01*
X025011Y028532D02*
X025902Y029423D01*
X025011Y028532D02*
X025373Y02817D01*
X028134Y030194D02*
Y031768D01*
X029709Y030194D02*
Y031768D01*
X028134D02*
X029709D01*
X028134Y030194D02*
X029709D01*
X029829Y028776D02*
Y029288D01*
X028569D02*
X029829D01*
X028569Y028776D02*
Y029288D01*
Y028776D02*
X029829D01*
X020503Y029306D02*
Y030458D01*
Y029306D02*
X021143D01*
Y030458D01*
X020503D02*
X021143D01*
X034512Y029569D02*
Y032069D01*
X035161D01*
Y029569D02*
Y032069D01*
X034512Y029569D02*
X035161D01*
X03826D01*
Y032069D01*
X035161D02*
X03826D01*
X022786Y031095D02*
Y03267D01*
X02436D01*
Y031095D02*
Y03267D01*
X022786Y031095D02*
X02436D01*
X022786D02*
X02436D01*
X038197Y031517D02*
Y032147D01*
X037056D02*
X038197D01*
X037056Y031517D02*
Y032147D01*
Y031517D02*
X038197D01*
X042026Y02817D02*
X042917Y029061D01*
X042555Y029423D02*
X042917Y029061D01*
X041665Y028532D02*
X042555Y029423D01*
X041665Y028532D02*
X042026Y02817D01*
X044788Y030194D02*
Y031768D01*
X046363Y030194D02*
Y031768D01*
X044788D02*
X046363D01*
X044788Y030194D02*
X046363D01*
X046482Y028776D02*
Y029288D01*
X045223D02*
X046482D01*
X045223Y028776D02*
Y029288D01*
Y028776D02*
X046482D01*
X037157Y029306D02*
Y030458D01*
Y029306D02*
X037796D01*
Y030458D01*
X037157D02*
X037796D01*
X051165Y029569D02*
Y032069D01*
X051815D01*
Y029569D02*
Y032069D01*
X051165Y029569D02*
X051815D01*
X054913D01*
Y032069D01*
X051815D02*
X054913D01*
X039439Y031095D02*
Y03267D01*
X041014D01*
Y031095D02*
Y03267D01*
X039439Y031095D02*
X041014D01*
X039439D02*
X041014D01*
X021544Y037738D02*
Y038368D01*
X020402D02*
X021544D01*
X020402Y037738D02*
Y038368D01*
Y037738D02*
X021544D01*
X025373Y034391D02*
X026264Y035282D01*
X025902Y035644D02*
X026264Y035282D01*
X025011Y034753D02*
X025902Y035644D01*
X025011Y034753D02*
X025373Y034391D01*
X028134Y036414D02*
Y037989D01*
X029709Y036414D02*
Y037989D01*
X028134D02*
X029709D01*
X028134Y036414D02*
X029709D01*
X029829Y034997D02*
Y035509D01*
X028569D02*
X029829D01*
X028569Y034997D02*
Y035509D01*
Y034997D02*
X029829D01*
X020503Y035527D02*
Y036679D01*
Y035527D02*
X021143D01*
Y036679D01*
X020503D02*
X021143D01*
X034512Y03579D02*
Y03829D01*
X035161D01*
Y03579D02*
Y03829D01*
X034512Y03579D02*
X035161D01*
X03826D01*
Y03829D01*
X035161D02*
X03826D01*
X022786Y037315D02*
Y03889D01*
X02436D01*
Y037315D02*
Y03889D01*
X022786Y037315D02*
X02436D01*
X022786D02*
X02436D01*
X038197Y037738D02*
Y038368D01*
X037056D02*
X038197D01*
X037056Y037738D02*
Y038368D01*
Y037738D02*
X038197D01*
X042026Y034391D02*
X042917Y035282D01*
X042555Y035644D02*
X042917Y035282D01*
X041665Y034753D02*
X042555Y035644D01*
X041665Y034753D02*
X042026Y034391D01*
X044788Y036414D02*
Y037989D01*
X046363Y036414D02*
Y037989D01*
X044788D02*
X046363D01*
X044788Y036414D02*
X046363D01*
X046482Y034997D02*
Y035509D01*
X045223D02*
X046482D01*
X045223Y034997D02*
Y035509D01*
Y034997D02*
X046482D01*
X037157Y035527D02*
Y036679D01*
Y035527D02*
X037796D01*
Y036679D01*
X037157D02*
X037796D01*
X051165Y03579D02*
Y03829D01*
X051815D01*
Y03579D02*
Y03829D01*
X051165Y03579D02*
X051815D01*
X054913D01*
Y03829D01*
X051815D02*
X054913D01*
X039439Y037315D02*
Y03889D01*
X041014D01*
Y037315D02*
Y03889D01*
X039439Y037315D02*
X041014D01*
X039439D02*
X041014D01*
X021544Y043958D02*
Y044588D01*
X020402D02*
X021544D01*
X020402Y043958D02*
Y044588D01*
Y043958D02*
X021544D01*
X025373Y040611D02*
X026264Y041502D01*
X025902Y041864D02*
X026264Y041502D01*
X025011Y040973D02*
X025902Y041864D01*
X025011Y040973D02*
X025373Y040611D01*
X028134Y042635D02*
Y044209D01*
X029709Y042635D02*
Y044209D01*
X028134D02*
X029709D01*
X028134Y042635D02*
X029709D01*
X029829Y041217D02*
Y041729D01*
X028569D02*
X029829D01*
X028569Y041217D02*
Y041729D01*
Y041217D02*
X029829D01*
X020503Y041747D02*
Y042899D01*
Y041747D02*
X021143D01*
Y042899D01*
X020503D02*
X021143D01*
X034512Y04201D02*
Y04451D01*
X035161D01*
Y04201D02*
Y04451D01*
X034512Y04201D02*
X035161D01*
X03826D01*
Y04451D01*
X035161D02*
X03826D01*
X022786Y043536D02*
Y045111D01*
X02436D01*
Y043536D02*
Y045111D01*
X022786Y043536D02*
X02436D01*
X022786D02*
X02436D01*
X038197Y043958D02*
Y044588D01*
X037056D02*
X038197D01*
X037056Y043958D02*
Y044588D01*
Y043958D02*
X038197D01*
X042026Y040611D02*
X042917Y041502D01*
X042555Y041864D02*
X042917Y041502D01*
X041665Y040973D02*
X042555Y041864D01*
X041665Y040973D02*
X042026Y040611D01*
X044788Y042635D02*
Y044209D01*
X046363Y042635D02*
Y044209D01*
X044788D02*
X046363D01*
X044788Y042635D02*
X046363D01*
X046482Y041217D02*
Y041729D01*
X045223D02*
X046482D01*
X045223Y041217D02*
Y041729D01*
Y041217D02*
X046482D01*
X037157Y041747D02*
Y042899D01*
Y041747D02*
X037796D01*
Y042899D01*
X037157D02*
X037796D01*
X051165Y04201D02*
Y04451D01*
X051815D01*
Y04201D02*
Y04451D01*
X051165Y04201D02*
X051815D01*
X054913D01*
Y04451D01*
X051815D02*
X054913D01*
X039439Y043536D02*
Y045111D01*
X041014D01*
Y043536D02*
Y045111D01*
X039439Y043536D02*
X041014D01*
X039439D02*
X041014D01*
D60*
X02572Y015294D02*
G03*
X02572Y015294I-000197J0D01*
G01*
X019017Y020004D02*
Y020378D01*
X018328Y020004D02*
Y020378D01*
X019017D01*
X018328Y020004D02*
X019017D01*
X019528D02*
X020217D01*
X019528Y020378D02*
X020217D01*
X019528Y020004D02*
Y020378D01*
X020217Y020004D02*
Y020378D01*
X032271Y018489D02*
X032475D01*
X032271Y018894D02*
X032475D01*
X032271Y018489D02*
Y018894D01*
X032475Y018489D02*
Y018894D01*
X021186Y015897D02*
X02156D01*
X021186Y016586D02*
X02156D01*
Y015897D02*
Y016586D01*
X021186Y015897D02*
Y016586D01*
X028121Y016639D02*
X028325D01*
X028121Y017044D02*
X028325D01*
X028121Y016639D02*
Y017044D01*
X028325Y016639D02*
Y017044D01*
X031926Y018389D02*
Y018594D01*
X03152Y018389D02*
Y018594D01*
Y018389D02*
X031926D01*
X03152Y018594D02*
X031926D01*
X030693Y018389D02*
X031099D01*
X030693Y018594D02*
X031099D01*
Y018389D02*
Y018594D01*
X030693Y018389D02*
Y018594D01*
X031676Y017589D02*
Y017794D01*
X03127Y017589D02*
Y017794D01*
Y017589D02*
X031676D01*
X03127Y017794D02*
X031676D01*
X031676Y017089D02*
Y017294D01*
X03127Y017089D02*
Y017294D01*
Y017089D02*
X031676Y017089D01*
X03127Y017294D02*
X031676Y017294D01*
X030375Y018139D02*
X030375Y018544D01*
X030171D02*
X030171Y018139D01*
X030171Y018544D02*
X030375D01*
X030171Y018139D02*
X030375D01*
X030875Y017665D02*
Y018071D01*
X030671Y017665D02*
Y018071D01*
X030875D01*
X030671Y017665D02*
X030875D01*
X030065Y019585D02*
Y019998D01*
X030281Y019585D02*
Y019998D01*
X030065Y019585D02*
X030281D01*
X030065Y019998D02*
X030281D01*
X029576Y019939D02*
Y020144D01*
X02917Y019939D02*
Y020144D01*
Y019939D02*
X029576D01*
X02917Y020144D02*
X029576D01*
X02832Y019939D02*
Y020144D01*
X028726Y019939D02*
Y020144D01*
X02832D02*
X028726D01*
X02832Y019939D02*
X028726D01*
X026815Y020048D02*
X027031D01*
X026815Y019635D02*
X027031D01*
X026815D02*
Y020048D01*
X027031Y019635D02*
Y020048D01*
X025186Y019497D02*
Y020186D01*
X02556Y019497D02*
Y020186D01*
X025186D02*
X02556D01*
X025186Y019497D02*
X02556Y019497D01*
X025893Y018164D02*
X026046Y018011D01*
X0256Y017872D02*
X025753Y017719D01*
X0256Y017872D02*
X025893Y018164D01*
X025753Y017719D02*
X026046Y018011D01*
X023717Y014904D02*
Y015278D01*
X023028Y014904D02*
Y015278D01*
Y014904D02*
X023717D01*
X023028Y015278D02*
X023717D01*
X012125Y015079D02*
X019921D01*
Y019804D01*
X012125D02*
X019921D01*
X012125Y015079D02*
Y019804D01*
X02621Y019497D02*
Y020186D01*
X025836Y019497D02*
X025836Y020186D01*
X025836Y019497D02*
X02621D01*
X025836Y020186D02*
X02621D01*
X025328Y019354D02*
X026017D01*
X025328Y019728D02*
X026017D01*
X026017Y019354D02*
X026017Y019728D01*
X025328D02*
X025328Y019354D01*
X025523Y014793D02*
X027472Y016741D01*
X023574D02*
X025523Y01869D01*
X023574Y016741D02*
X025523Y014793D01*
Y01869D02*
X027472Y016741D01*
X022386Y015847D02*
Y016536D01*
X02276Y015847D02*
Y016536D01*
X022386Y015847D02*
X02276D01*
X022386Y016536D02*
X02276D01*
X019967Y020004D02*
Y020378D01*
X019278Y020004D02*
Y020378D01*
Y020004D02*
X019967D01*
X019278Y020378D02*
X019967D01*
X022458Y018766D02*
Y020111D01*
X021788Y018766D02*
Y020111D01*
Y018766D02*
X022458D01*
X021788Y020111D02*
X022458D01*
X021223Y016628D02*
X021911D01*
X021223Y016254D02*
X021911D01*
X021223D02*
Y016628D01*
X021911Y016254D02*
Y016628D01*
X020678Y018304D02*
X021367D01*
X020678Y018678D02*
X021367D01*
Y018304D02*
Y018678D01*
X020678Y018304D02*
Y018678D01*
X020665Y015985D02*
Y016398D01*
X020881Y015985D02*
Y016398D01*
X020665D02*
X020881D01*
X020665Y015985D02*
X020881D01*
X027178Y014604D02*
X027867D01*
X027178Y014978D02*
X027867D01*
Y014604D02*
Y014978D01*
X027178Y014604D02*
Y014978D01*
X027678Y015254D02*
X028367D01*
X027678Y015628D02*
X028367D01*
Y015254D02*
Y015628D01*
X027678Y015254D02*
Y015628D01*
X042373Y015294D02*
G03*
X042373Y015294I-000197J0D01*
G01*
X035671Y020004D02*
Y020378D01*
X034982Y020004D02*
Y020378D01*
X035671D01*
X034982Y020004D02*
X035671D01*
X036182D02*
X036871D01*
X036182Y020378D02*
X036871D01*
X036182Y020004D02*
Y020378D01*
X036871Y020004D02*
Y020378D01*
X048924Y018489D02*
X049129D01*
X048924Y018894D02*
X049129D01*
X048924Y018489D02*
Y018894D01*
X049129Y018489D02*
Y018894D01*
X037839Y015897D02*
X038213D01*
X037839Y016586D02*
X038213D01*
Y015897D02*
Y016586D01*
X037839Y015897D02*
Y016586D01*
X044774Y016639D02*
X044979D01*
X044774Y017044D02*
X044979D01*
X044774Y016639D02*
Y017044D01*
X044979Y016639D02*
Y017044D01*
X048579Y018389D02*
Y018594D01*
X048174Y018389D02*
Y018594D01*
Y018389D02*
X048579D01*
X048174Y018594D02*
X048579D01*
X047347Y018389D02*
X047752D01*
X047347Y018594D02*
X047752D01*
Y018389D02*
Y018594D01*
X047347Y018389D02*
Y018594D01*
X048329Y017589D02*
Y017794D01*
X047924Y017589D02*
Y017794D01*
Y017589D02*
X048329D01*
X047924Y017794D02*
X048329D01*
X048329Y017089D02*
Y017294D01*
X047924Y017089D02*
Y017294D01*
Y017089D02*
X048329Y017089D01*
X047924Y017294D02*
X048329Y017294D01*
X047029Y018139D02*
X047029Y018544D01*
X046824D02*
X046824Y018139D01*
X046824Y018544D02*
X047029D01*
X046824Y018139D02*
X047029D01*
X047529Y017665D02*
Y018071D01*
X047324Y017665D02*
Y018071D01*
X047529D01*
X047324Y017665D02*
X047529D01*
X046718Y019585D02*
Y019998D01*
X046935Y019585D02*
Y019998D01*
X046718Y019585D02*
X046935D01*
X046718Y019998D02*
X046935D01*
X046229Y019939D02*
Y020144D01*
X045824Y019939D02*
Y020144D01*
Y019939D02*
X046229D01*
X045824Y020144D02*
X046229D01*
X044974Y019939D02*
Y020144D01*
X045379Y019939D02*
Y020144D01*
X044974D02*
X045379D01*
X044974Y019939D02*
X045379D01*
X043468Y020048D02*
X043685D01*
X043468Y019635D02*
X043685D01*
X043468D02*
Y020048D01*
X043685Y019635D02*
Y020048D01*
X041839Y019497D02*
Y020186D01*
X042213Y019497D02*
Y020186D01*
X041839D02*
X042213D01*
X041839Y019497D02*
X042213Y019497D01*
X042546Y018164D02*
X042699Y018011D01*
X042254Y017872D02*
X042407Y017719D01*
X042254Y017872D02*
X042546Y018164D01*
X042407Y017719D02*
X042699Y018011D01*
X040371Y014904D02*
Y015278D01*
X039682Y014904D02*
Y015278D01*
Y014904D02*
X040371D01*
X039682Y015278D02*
X040371D01*
X028779Y015079D02*
X036574D01*
Y019804D01*
X028779D02*
X036574D01*
X028779Y015079D02*
Y019804D01*
X042863Y019497D02*
Y020186D01*
X042489Y019497D02*
X042489Y020186D01*
X042489Y019497D02*
X042863D01*
X042489Y020186D02*
X042863D01*
X041982Y019354D02*
X042671D01*
X041982Y019728D02*
X042671D01*
X042671Y019354D02*
X042671Y019728D01*
X041982D02*
X041982Y019354D01*
X042176Y014793D02*
X044125Y016741D01*
X040228D02*
X042176Y01869D01*
X040228Y016741D02*
X042176Y014793D01*
Y01869D02*
X044125Y016741D01*
X039039Y015847D02*
Y016536D01*
X039413Y015847D02*
Y016536D01*
X039039Y015847D02*
X039413D01*
X039039Y016536D02*
X039413D01*
X036621Y020004D02*
Y020378D01*
X035932Y020004D02*
Y020378D01*
Y020004D02*
X036621D01*
X035932Y020378D02*
X036621D01*
X039111Y018766D02*
Y020111D01*
X038442Y018766D02*
Y020111D01*
Y018766D02*
X039111D01*
X038442Y020111D02*
X039111D01*
X037876Y016628D02*
X038565D01*
X037876Y016254D02*
X038565D01*
X037876D02*
Y016628D01*
X038565Y016254D02*
Y016628D01*
X037332Y018304D02*
X038021D01*
X037332Y018678D02*
X038021D01*
Y018304D02*
Y018678D01*
X037332Y018304D02*
Y018678D01*
X037318Y015985D02*
Y016398D01*
X037535Y015985D02*
Y016398D01*
X037318D02*
X037535D01*
X037318Y015985D02*
X037535D01*
X043832Y014604D02*
X044521D01*
X043832Y014978D02*
X044521D01*
Y014604D02*
Y014978D01*
X043832Y014604D02*
Y014978D01*
X044332Y015254D02*
X045021D01*
X044332Y015628D02*
X045021D01*
Y015254D02*
Y015628D01*
X044332Y015254D02*
Y015628D01*
X02572Y021514D02*
G03*
X02572Y021514I-000197J0D01*
G01*
X019017Y026225D02*
Y026599D01*
X018328Y026225D02*
Y026599D01*
X019017D01*
X018328Y026225D02*
X019017D01*
X019528D02*
X020217D01*
X019528Y026599D02*
X020217D01*
X019528Y026225D02*
Y026599D01*
X020217Y026225D02*
Y026599D01*
X032271Y024709D02*
X032475D01*
X032271Y025115D02*
X032475D01*
X032271Y024709D02*
Y025115D01*
X032475Y024709D02*
Y025115D01*
X021186Y022117D02*
X02156D01*
X021186Y022806D02*
X02156D01*
Y022117D02*
Y022806D01*
X021186Y022117D02*
Y022806D01*
X028121Y022859D02*
X028325D01*
X028121Y023265D02*
X028325D01*
X028121Y022859D02*
Y023265D01*
X028325Y022859D02*
Y023265D01*
X031926Y024609D02*
Y024814D01*
X03152Y024609D02*
Y024814D01*
Y024609D02*
X031926D01*
X03152Y024814D02*
X031926D01*
X030693Y024609D02*
X031099D01*
X030693Y024814D02*
X031099D01*
Y024609D02*
Y024814D01*
X030693Y024609D02*
Y024814D01*
X031676Y023809D02*
Y024014D01*
X03127Y023809D02*
Y024014D01*
Y023809D02*
X031676D01*
X03127Y024014D02*
X031676D01*
X031676Y023309D02*
Y023514D01*
X03127Y023309D02*
Y023514D01*
Y023309D02*
X031676Y023309D01*
X03127Y023514D02*
X031676Y023514D01*
X030375Y024359D02*
X030375Y024765D01*
X030171D02*
X030171Y024359D01*
X030171Y024765D02*
X030375D01*
X030171Y024359D02*
X030375D01*
X030875Y023886D02*
Y024291D01*
X030671Y023886D02*
Y024291D01*
X030875D01*
X030671Y023886D02*
X030875D01*
X030065Y025805D02*
Y026218D01*
X030281Y025805D02*
Y026218D01*
X030065Y025805D02*
X030281D01*
X030065Y026218D02*
X030281D01*
X029576Y026159D02*
Y026364D01*
X02917Y026159D02*
Y026364D01*
Y026159D02*
X029576D01*
X02917Y026364D02*
X029576D01*
X02832Y026159D02*
Y026364D01*
X028726Y026159D02*
Y026364D01*
X02832D02*
X028726D01*
X02832Y026159D02*
X028726D01*
X026815Y026268D02*
X027031D01*
X026815Y025855D02*
X027031D01*
X026815D02*
Y026268D01*
X027031Y025855D02*
Y026268D01*
X025186Y025717D02*
Y026406D01*
X02556Y025717D02*
Y026406D01*
X025186D02*
X02556D01*
X025186Y025717D02*
X02556Y025717D01*
X025893Y024385D02*
X026046Y024231D01*
X0256Y024092D02*
X025753Y023939D01*
X0256Y024092D02*
X025893Y024385D01*
X025753Y023939D02*
X026046Y024231D01*
X023717Y021125D02*
Y021499D01*
X023028Y021125D02*
Y021499D01*
Y021125D02*
X023717D01*
X023028Y021499D02*
X023717D01*
X012125Y0213D02*
X019921D01*
Y026024D01*
X012125D02*
X019921D01*
X012125Y0213D02*
Y026024D01*
X02621Y025717D02*
Y026406D01*
X025836Y025717D02*
X025836Y026406D01*
X025836Y025717D02*
X02621D01*
X025836Y026406D02*
X02621D01*
X025328Y025575D02*
X026017D01*
X025328Y025949D02*
X026017D01*
X026017Y025575D02*
X026017Y025949D01*
X025328D02*
X025328Y025575D01*
X025523Y021013D02*
X027472Y022962D01*
X023574D02*
X025523Y024911D01*
X023574Y022962D02*
X025523Y021013D01*
Y024911D02*
X027472Y022962D01*
X022386Y022067D02*
Y022756D01*
X02276Y022067D02*
Y022756D01*
X022386Y022067D02*
X02276D01*
X022386Y022756D02*
X02276D01*
X019967Y026225D02*
Y026599D01*
X019278Y026225D02*
Y026599D01*
Y026225D02*
X019967D01*
X019278Y026599D02*
X019967D01*
X022458Y024987D02*
Y026331D01*
X021788Y024987D02*
Y026331D01*
Y024987D02*
X022458D01*
X021788Y026331D02*
X022458D01*
X021223Y022849D02*
X021911D01*
X021223Y022475D02*
X021911D01*
X021223D02*
Y022849D01*
X021911Y022475D02*
Y022849D01*
X020678Y024525D02*
X021367D01*
X020678Y024899D02*
X021367D01*
Y024525D02*
Y024899D01*
X020678Y024525D02*
Y024899D01*
X020665Y022205D02*
Y022618D01*
X020881Y022205D02*
Y022618D01*
X020665D02*
X020881D01*
X020665Y022205D02*
X020881D01*
X027178Y020825D02*
X027867D01*
X027178Y021199D02*
X027867D01*
Y020825D02*
Y021199D01*
X027178Y020825D02*
Y021199D01*
X027678Y021475D02*
X028367D01*
X027678Y021849D02*
X028367D01*
Y021475D02*
Y021849D01*
X027678Y021475D02*
Y021849D01*
X042373Y021514D02*
G03*
X042373Y021514I-000197J0D01*
G01*
X035671Y026225D02*
Y026599D01*
X034982Y026225D02*
Y026599D01*
X035671D01*
X034982Y026225D02*
X035671D01*
X036182D02*
X036871D01*
X036182Y026599D02*
X036871D01*
X036182Y026225D02*
Y026599D01*
X036871Y026225D02*
Y026599D01*
X048924Y024709D02*
X049129D01*
X048924Y025115D02*
X049129D01*
X048924Y024709D02*
Y025115D01*
X049129Y024709D02*
Y025115D01*
X037839Y022117D02*
X038213D01*
X037839Y022806D02*
X038213D01*
Y022117D02*
Y022806D01*
X037839Y022117D02*
Y022806D01*
X044774Y022859D02*
X044979D01*
X044774Y023265D02*
X044979D01*
X044774Y022859D02*
Y023265D01*
X044979Y022859D02*
Y023265D01*
X048579Y024609D02*
Y024814D01*
X048174Y024609D02*
Y024814D01*
Y024609D02*
X048579D01*
X048174Y024814D02*
X048579D01*
X047347Y024609D02*
X047752D01*
X047347Y024814D02*
X047752D01*
Y024609D02*
Y024814D01*
X047347Y024609D02*
Y024814D01*
X048329Y023809D02*
Y024014D01*
X047924Y023809D02*
Y024014D01*
Y023809D02*
X048329D01*
X047924Y024014D02*
X048329D01*
X048329Y023309D02*
Y023514D01*
X047924Y023309D02*
Y023514D01*
Y023309D02*
X048329Y023309D01*
X047924Y023514D02*
X048329Y023514D01*
X047029Y024359D02*
X047029Y024765D01*
X046824D02*
X046824Y024359D01*
X046824Y024765D02*
X047029D01*
X046824Y024359D02*
X047029D01*
X047529Y023886D02*
Y024291D01*
X047324Y023886D02*
Y024291D01*
X047529D01*
X047324Y023886D02*
X047529D01*
X046718Y025805D02*
Y026218D01*
X046935Y025805D02*
Y026218D01*
X046718Y025805D02*
X046935D01*
X046718Y026218D02*
X046935D01*
X046229Y026159D02*
Y026364D01*
X045824Y026159D02*
Y026364D01*
Y026159D02*
X046229D01*
X045824Y026364D02*
X046229D01*
X044974Y026159D02*
Y026364D01*
X045379Y026159D02*
Y026364D01*
X044974D02*
X045379D01*
X044974Y026159D02*
X045379D01*
X043468Y026268D02*
X043685D01*
X043468Y025855D02*
X043685D01*
X043468D02*
Y026268D01*
X043685Y025855D02*
Y026268D01*
X041839Y025717D02*
Y026406D01*
X042213Y025717D02*
Y026406D01*
X041839D02*
X042213D01*
X041839Y025717D02*
X042213Y025717D01*
X042546Y024385D02*
X042699Y024231D01*
X042254Y024092D02*
X042407Y023939D01*
X042254Y024092D02*
X042546Y024385D01*
X042407Y023939D02*
X042699Y024231D01*
X040371Y021125D02*
Y021499D01*
X039682Y021125D02*
Y021499D01*
Y021125D02*
X040371D01*
X039682Y021499D02*
X040371D01*
X028779Y0213D02*
X036574D01*
Y026024D01*
X028779D02*
X036574D01*
X028779Y0213D02*
Y026024D01*
X042863Y025717D02*
Y026406D01*
X042489Y025717D02*
X042489Y026406D01*
X042489Y025717D02*
X042863D01*
X042489Y026406D02*
X042863D01*
X041982Y025575D02*
X042671D01*
X041982Y025949D02*
X042671D01*
X042671Y025575D02*
X042671Y025949D01*
X041982D02*
X041982Y025575D01*
X042176Y021013D02*
X044125Y022962D01*
X040228D02*
X042176Y024911D01*
X040228Y022962D02*
X042176Y021013D01*
Y024911D02*
X044125Y022962D01*
X039039Y022067D02*
Y022756D01*
X039413Y022067D02*
Y022756D01*
X039039Y022067D02*
X039413D01*
X039039Y022756D02*
X039413D01*
X036621Y026225D02*
Y026599D01*
X035932Y026225D02*
Y026599D01*
Y026225D02*
X036621D01*
X035932Y026599D02*
X036621D01*
X039111Y024987D02*
Y026331D01*
X038442Y024987D02*
Y026331D01*
Y024987D02*
X039111D01*
X038442Y026331D02*
X039111D01*
X037876Y022849D02*
X038565D01*
X037876Y022475D02*
X038565D01*
X037876D02*
Y022849D01*
X038565Y022475D02*
Y022849D01*
X037332Y024525D02*
X038021D01*
X037332Y024899D02*
X038021D01*
Y024525D02*
Y024899D01*
X037332Y024525D02*
Y024899D01*
X037318Y022205D02*
Y022618D01*
X037535Y022205D02*
Y022618D01*
X037318D02*
X037535D01*
X037318Y022205D02*
X037535D01*
X043832Y020825D02*
X044521D01*
X043832Y021199D02*
X044521D01*
Y020825D02*
Y021199D01*
X043832Y020825D02*
Y021199D01*
X044332Y021475D02*
X045021D01*
X044332Y021849D02*
X045021D01*
Y021475D02*
Y021849D01*
X044332Y021475D02*
Y021849D01*
X02572Y027735D02*
G03*
X02572Y027735I-000197J0D01*
G01*
X019017Y032445D02*
Y032819D01*
X018328Y032445D02*
Y032819D01*
X019017D01*
X018328Y032445D02*
X019017D01*
X019528D02*
X020217D01*
X019528Y032819D02*
X020217D01*
X019528Y032445D02*
Y032819D01*
X020217Y032445D02*
Y032819D01*
X032271Y03093D02*
X032475D01*
X032271Y031335D02*
X032475D01*
X032271Y03093D02*
Y031335D01*
X032475Y03093D02*
Y031335D01*
X021186Y028338D02*
X02156D01*
X021186Y029027D02*
X02156D01*
Y028338D02*
Y029027D01*
X021186Y028338D02*
Y029027D01*
X028121Y02908D02*
X028325D01*
X028121Y029485D02*
X028325D01*
X028121Y02908D02*
Y029485D01*
X028325Y02908D02*
Y029485D01*
X031926Y03083D02*
Y031035D01*
X03152Y03083D02*
Y031035D01*
Y03083D02*
X031926D01*
X03152Y031035D02*
X031926D01*
X030693Y03083D02*
X031099D01*
X030693Y031035D02*
X031099D01*
Y03083D02*
Y031035D01*
X030693Y03083D02*
Y031035D01*
X031676Y03003D02*
Y030235D01*
X03127Y03003D02*
Y030235D01*
Y03003D02*
X031676D01*
X03127Y030235D02*
X031676D01*
X031676Y02953D02*
Y029735D01*
X03127Y02953D02*
Y029735D01*
Y02953D02*
X031676Y02953D01*
X03127Y029735D02*
X031676Y029735D01*
X030375Y03058D02*
X030375Y030985D01*
X030171D02*
X030171Y03058D01*
X030171Y030985D02*
X030375D01*
X030171Y03058D02*
X030375D01*
X030875Y030106D02*
Y030512D01*
X030671Y030106D02*
Y030512D01*
X030875D01*
X030671Y030106D02*
X030875D01*
X030065Y032026D02*
Y032439D01*
X030281Y032026D02*
Y032439D01*
X030065Y032026D02*
X030281D01*
X030065Y032439D02*
X030281D01*
X029576Y03238D02*
Y032585D01*
X02917Y03238D02*
Y032585D01*
Y03238D02*
X029576D01*
X02917Y032585D02*
X029576D01*
X02832Y03238D02*
Y032585D01*
X028726Y03238D02*
Y032585D01*
X02832D02*
X028726D01*
X02832Y03238D02*
X028726D01*
X026815Y032489D02*
X027031D01*
X026815Y032076D02*
X027031D01*
X026815D02*
Y032489D01*
X027031Y032076D02*
Y032489D01*
X025186Y031938D02*
Y032627D01*
X02556Y031938D02*
Y032627D01*
X025186D02*
X02556D01*
X025186Y031938D02*
X02556Y031938D01*
X025893Y030605D02*
X026046Y030452D01*
X0256Y030313D02*
X025753Y03016D01*
X0256Y030313D02*
X025893Y030605D01*
X025753Y03016D02*
X026046Y030452D01*
X023717Y027345D02*
Y027719D01*
X023028Y027345D02*
Y027719D01*
Y027345D02*
X023717D01*
X023028Y027719D02*
X023717D01*
X012125Y02752D02*
X019921D01*
Y032244D01*
X012125D02*
X019921D01*
X012125Y02752D02*
Y032244D01*
X02621Y031938D02*
Y032627D01*
X025836Y031938D02*
X025836Y032627D01*
X025836Y031938D02*
X02621D01*
X025836Y032627D02*
X02621D01*
X025328Y031795D02*
X026017D01*
X025328Y032169D02*
X026017D01*
X026017Y031795D02*
X026017Y032169D01*
X025328D02*
X025328Y031795D01*
X025523Y027234D02*
X027472Y029182D01*
X023574D02*
X025523Y031131D01*
X023574Y029182D02*
X025523Y027234D01*
Y031131D02*
X027472Y029182D01*
X022386Y028288D02*
Y028977D01*
X02276Y028288D02*
Y028977D01*
X022386Y028288D02*
X02276D01*
X022386Y028977D02*
X02276D01*
X019967Y032445D02*
Y032819D01*
X019278Y032445D02*
Y032819D01*
Y032445D02*
X019967D01*
X019278Y032819D02*
X019967D01*
X022458Y031207D02*
Y032552D01*
X021788Y031207D02*
Y032552D01*
Y031207D02*
X022458D01*
X021788Y032552D02*
X022458D01*
X021223Y029069D02*
X021911D01*
X021223Y028695D02*
X021911D01*
X021223D02*
Y029069D01*
X021911Y028695D02*
Y029069D01*
X020678Y030745D02*
X021367D01*
X020678Y031119D02*
X021367D01*
Y030745D02*
Y031119D01*
X020678Y030745D02*
Y031119D01*
X020665Y028426D02*
Y028839D01*
X020881Y028426D02*
Y028839D01*
X020665D02*
X020881D01*
X020665Y028426D02*
X020881D01*
X027178Y027045D02*
X027867D01*
X027178Y027419D02*
X027867D01*
Y027045D02*
Y027419D01*
X027178Y027045D02*
Y027419D01*
X027678Y027695D02*
X028367D01*
X027678Y028069D02*
X028367D01*
Y027695D02*
Y028069D01*
X027678Y027695D02*
Y028069D01*
X042373Y027735D02*
G03*
X042373Y027735I-000197J0D01*
G01*
X035671Y032445D02*
Y032819D01*
X034982Y032445D02*
Y032819D01*
X035671D01*
X034982Y032445D02*
X035671D01*
X036182D02*
X036871D01*
X036182Y032819D02*
X036871D01*
X036182Y032445D02*
Y032819D01*
X036871Y032445D02*
Y032819D01*
X048924Y03093D02*
X049129D01*
X048924Y031335D02*
X049129D01*
X048924Y03093D02*
Y031335D01*
X049129Y03093D02*
Y031335D01*
X037839Y028338D02*
X038213D01*
X037839Y029027D02*
X038213D01*
Y028338D02*
Y029027D01*
X037839Y028338D02*
Y029027D01*
X044774Y02908D02*
X044979D01*
X044774Y029485D02*
X044979D01*
X044774Y02908D02*
Y029485D01*
X044979Y02908D02*
Y029485D01*
X048579Y03083D02*
Y031035D01*
X048174Y03083D02*
Y031035D01*
Y03083D02*
X048579D01*
X048174Y031035D02*
X048579D01*
X047347Y03083D02*
X047752D01*
X047347Y031035D02*
X047752D01*
Y03083D02*
Y031035D01*
X047347Y03083D02*
Y031035D01*
X048329Y03003D02*
Y030235D01*
X047924Y03003D02*
Y030235D01*
Y03003D02*
X048329D01*
X047924Y030235D02*
X048329D01*
X048329Y02953D02*
Y029735D01*
X047924Y02953D02*
Y029735D01*
Y02953D02*
X048329Y02953D01*
X047924Y029735D02*
X048329Y029735D01*
X047029Y03058D02*
X047029Y030985D01*
X046824D02*
X046824Y03058D01*
X046824Y030985D02*
X047029D01*
X046824Y03058D02*
X047029D01*
X047529Y030106D02*
Y030512D01*
X047324Y030106D02*
Y030512D01*
X047529D01*
X047324Y030106D02*
X047529D01*
X046718Y032026D02*
Y032439D01*
X046935Y032026D02*
Y032439D01*
X046718Y032026D02*
X046935D01*
X046718Y032439D02*
X046935D01*
X046229Y03238D02*
Y032585D01*
X045824Y03238D02*
Y032585D01*
Y03238D02*
X046229D01*
X045824Y032585D02*
X046229D01*
X044974Y03238D02*
Y032585D01*
X045379Y03238D02*
Y032585D01*
X044974D02*
X045379D01*
X044974Y03238D02*
X045379D01*
X043468Y032489D02*
X043685D01*
X043468Y032076D02*
X043685D01*
X043468D02*
Y032489D01*
X043685Y032076D02*
Y032489D01*
X041839Y031938D02*
Y032627D01*
X042213Y031938D02*
Y032627D01*
X041839D02*
X042213D01*
X041839Y031938D02*
X042213Y031938D01*
X042546Y030605D02*
X042699Y030452D01*
X042254Y030313D02*
X042407Y03016D01*
X042254Y030313D02*
X042546Y030605D01*
X042407Y03016D02*
X042699Y030452D01*
X040371Y027345D02*
Y027719D01*
X039682Y027345D02*
Y027719D01*
Y027345D02*
X040371D01*
X039682Y027719D02*
X040371D01*
X028779Y02752D02*
X036574D01*
Y032244D01*
X028779D02*
X036574D01*
X028779Y02752D02*
Y032244D01*
X042863Y031938D02*
Y032627D01*
X042489Y031938D02*
X042489Y032627D01*
X042489Y031938D02*
X042863D01*
X042489Y032627D02*
X042863D01*
X041982Y031795D02*
X042671D01*
X041982Y032169D02*
X042671D01*
X042671Y031795D02*
X042671Y032169D01*
X041982D02*
X041982Y031795D01*
X042176Y027234D02*
X044125Y029182D01*
X040228D02*
X042176Y031131D01*
X040228Y029182D02*
X042176Y027234D01*
Y031131D02*
X044125Y029182D01*
X039039Y028288D02*
Y028977D01*
X039413Y028288D02*
Y028977D01*
X039039Y028288D02*
X039413D01*
X039039Y028977D02*
X039413D01*
X036621Y032445D02*
Y032819D01*
X035932Y032445D02*
Y032819D01*
Y032445D02*
X036621D01*
X035932Y032819D02*
X036621D01*
X039111Y031207D02*
Y032552D01*
X038442Y031207D02*
Y032552D01*
Y031207D02*
X039111D01*
X038442Y032552D02*
X039111D01*
X037876Y029069D02*
X038565D01*
X037876Y028695D02*
X038565D01*
X037876D02*
Y029069D01*
X038565Y028695D02*
Y029069D01*
X037332Y030745D02*
X038021D01*
X037332Y031119D02*
X038021D01*
Y030745D02*
Y031119D01*
X037332Y030745D02*
Y031119D01*
X037318Y028426D02*
Y028839D01*
X037535Y028426D02*
Y028839D01*
X037318D02*
X037535D01*
X037318Y028426D02*
X037535D01*
X043832Y027045D02*
X044521D01*
X043832Y027419D02*
X044521D01*
Y027045D02*
Y027419D01*
X043832Y027045D02*
Y027419D01*
X044332Y027695D02*
X045021D01*
X044332Y028069D02*
X045021D01*
Y027695D02*
Y028069D01*
X044332Y027695D02*
Y028069D01*
X02572Y033955D02*
G03*
X02572Y033955I-000197J0D01*
G01*
X019017Y038666D02*
Y03904D01*
X018328Y038666D02*
Y03904D01*
X019017D01*
X018328Y038666D02*
X019017D01*
X019528D02*
X020217D01*
X019528Y03904D02*
X020217D01*
X019528Y038666D02*
Y03904D01*
X020217Y038666D02*
Y03904D01*
X032271Y03715D02*
X032475D01*
X032271Y037555D02*
X032475D01*
X032271Y03715D02*
Y037555D01*
X032475Y03715D02*
Y037555D01*
X021186Y034558D02*
X02156D01*
X021186Y035247D02*
X02156D01*
Y034558D02*
Y035247D01*
X021186Y034558D02*
Y035247D01*
X028121Y0353D02*
X028325D01*
X028121Y035705D02*
X028325D01*
X028121Y0353D02*
Y035705D01*
X028325Y0353D02*
Y035705D01*
X031926Y03705D02*
Y037255D01*
X03152Y03705D02*
Y037255D01*
Y03705D02*
X031926D01*
X03152Y037255D02*
X031926D01*
X030693Y03705D02*
X031099D01*
X030693Y037255D02*
X031099D01*
Y03705D02*
Y037255D01*
X030693Y03705D02*
Y037255D01*
X031676Y03625D02*
Y036455D01*
X03127Y03625D02*
Y036455D01*
Y03625D02*
X031676D01*
X03127Y036455D02*
X031676D01*
X031676Y03575D02*
Y035955D01*
X03127Y03575D02*
Y035955D01*
Y03575D02*
X031676Y03575D01*
X03127Y035955D02*
X031676Y035955D01*
X030375Y0368D02*
X030375Y037205D01*
X030171D02*
X030171Y0368D01*
X030171Y037205D02*
X030375D01*
X030171Y0368D02*
X030375D01*
X030875Y036327D02*
Y036732D01*
X030671Y036327D02*
Y036732D01*
X030875D01*
X030671Y036327D02*
X030875D01*
X030065Y038246D02*
Y038659D01*
X030281Y038246D02*
Y038659D01*
X030065Y038246D02*
X030281D01*
X030065Y038659D02*
X030281D01*
X029576Y0386D02*
Y038805D01*
X02917Y0386D02*
Y038805D01*
Y0386D02*
X029576D01*
X02917Y038805D02*
X029576D01*
X02832Y0386D02*
Y038805D01*
X028726Y0386D02*
Y038805D01*
X02832D02*
X028726D01*
X02832Y0386D02*
X028726D01*
X026815Y038709D02*
X027031D01*
X026815Y038296D02*
X027031D01*
X026815D02*
Y038709D01*
X027031Y038296D02*
Y038709D01*
X025186Y038158D02*
Y038847D01*
X02556Y038158D02*
Y038847D01*
X025186D02*
X02556D01*
X025186Y038158D02*
X02556Y038158D01*
X025893Y036825D02*
X026046Y036672D01*
X0256Y036533D02*
X025753Y03638D01*
X0256Y036533D02*
X025893Y036825D01*
X025753Y03638D02*
X026046Y036672D01*
X023717Y033566D02*
Y03394D01*
X023028Y033566D02*
Y03394D01*
Y033566D02*
X023717D01*
X023028Y03394D02*
X023717D01*
X012125Y033741D02*
X019921D01*
Y038465D01*
X012125D02*
X019921D01*
X012125Y033741D02*
Y038465D01*
X02621Y038158D02*
Y038847D01*
X025836Y038158D02*
X025836Y038847D01*
X025836Y038158D02*
X02621D01*
X025836Y038847D02*
X02621D01*
X025328Y038016D02*
X026017D01*
X025328Y03839D02*
X026017D01*
X026017Y038016D02*
X026017Y03839D01*
X025328D02*
X025328Y038016D01*
X025523Y033454D02*
X027472Y035403D01*
X023574D02*
X025523Y037351D01*
X023574Y035403D02*
X025523Y033454D01*
Y037351D02*
X027472Y035403D01*
X022386Y034508D02*
Y035197D01*
X02276Y034508D02*
Y035197D01*
X022386Y034508D02*
X02276D01*
X022386Y035197D02*
X02276D01*
X019967Y038666D02*
Y03904D01*
X019278Y038666D02*
Y03904D01*
Y038666D02*
X019967D01*
X019278Y03904D02*
X019967D01*
X022458Y037428D02*
Y038772D01*
X021788Y037428D02*
Y038772D01*
Y037428D02*
X022458D01*
X021788Y038772D02*
X022458D01*
X021223Y03529D02*
X021911D01*
X021223Y034916D02*
X021911D01*
X021223D02*
Y03529D01*
X021911Y034916D02*
Y03529D01*
X020678Y036966D02*
X021367D01*
X020678Y03734D02*
X021367D01*
Y036966D02*
Y03734D01*
X020678Y036966D02*
Y03734D01*
X020665Y034646D02*
Y035059D01*
X020881Y034646D02*
Y035059D01*
X020665D02*
X020881D01*
X020665Y034646D02*
X020881D01*
X027178Y033266D02*
X027867D01*
X027178Y03364D02*
X027867D01*
Y033266D02*
Y03364D01*
X027178Y033266D02*
Y03364D01*
X027678Y033916D02*
X028367D01*
X027678Y03429D02*
X028367D01*
Y033916D02*
Y03429D01*
X027678Y033916D02*
Y03429D01*
X042373Y033955D02*
G03*
X042373Y033955I-000197J0D01*
G01*
X035671Y038666D02*
Y03904D01*
X034982Y038666D02*
Y03904D01*
X035671D01*
X034982Y038666D02*
X035671D01*
X036182D02*
X036871D01*
X036182Y03904D02*
X036871D01*
X036182Y038666D02*
Y03904D01*
X036871Y038666D02*
Y03904D01*
X048924Y03715D02*
X049129D01*
X048924Y037555D02*
X049129D01*
X048924Y03715D02*
Y037555D01*
X049129Y03715D02*
Y037555D01*
X037839Y034558D02*
X038213D01*
X037839Y035247D02*
X038213D01*
Y034558D02*
Y035247D01*
X037839Y034558D02*
Y035247D01*
X044774Y0353D02*
X044979D01*
X044774Y035705D02*
X044979D01*
X044774Y0353D02*
Y035705D01*
X044979Y0353D02*
Y035705D01*
X048579Y03705D02*
Y037255D01*
X048174Y03705D02*
Y037255D01*
Y03705D02*
X048579D01*
X048174Y037255D02*
X048579D01*
X047347Y03705D02*
X047752D01*
X047347Y037255D02*
X047752D01*
Y03705D02*
Y037255D01*
X047347Y03705D02*
Y037255D01*
X048329Y03625D02*
Y036455D01*
X047924Y03625D02*
Y036455D01*
Y03625D02*
X048329D01*
X047924Y036455D02*
X048329D01*
X048329Y03575D02*
Y035955D01*
X047924Y03575D02*
Y035955D01*
Y03575D02*
X048329Y03575D01*
X047924Y035955D02*
X048329Y035955D01*
X047029Y0368D02*
X047029Y037205D01*
X046824D02*
X046824Y0368D01*
X046824Y037205D02*
X047029D01*
X046824Y0368D02*
X047029D01*
X047529Y036327D02*
Y036732D01*
X047324Y036327D02*
Y036732D01*
X047529D01*
X047324Y036327D02*
X047529D01*
X046718Y038246D02*
Y038659D01*
X046935Y038246D02*
Y038659D01*
X046718Y038246D02*
X046935D01*
X046718Y038659D02*
X046935D01*
X046229Y0386D02*
Y038805D01*
X045824Y0386D02*
Y038805D01*
Y0386D02*
X046229D01*
X045824Y038805D02*
X046229D01*
X044974Y0386D02*
Y038805D01*
X045379Y0386D02*
Y038805D01*
X044974D02*
X045379D01*
X044974Y0386D02*
X045379D01*
X043468Y038709D02*
X043685D01*
X043468Y038296D02*
X043685D01*
X043468D02*
Y038709D01*
X043685Y038296D02*
Y038709D01*
X041839Y038158D02*
Y038847D01*
X042213Y038158D02*
Y038847D01*
X041839D02*
X042213D01*
X041839Y038158D02*
X042213Y038158D01*
X042546Y036825D02*
X042699Y036672D01*
X042254Y036533D02*
X042407Y03638D01*
X042254Y036533D02*
X042546Y036825D01*
X042407Y03638D02*
X042699Y036672D01*
X040371Y033566D02*
Y03394D01*
X039682Y033566D02*
Y03394D01*
Y033566D02*
X040371D01*
X039682Y03394D02*
X040371D01*
X028779Y033741D02*
X036574D01*
Y038465D01*
X028779D02*
X036574D01*
X028779Y033741D02*
Y038465D01*
X042863Y038158D02*
Y038847D01*
X042489Y038158D02*
X042489Y038847D01*
X042489Y038158D02*
X042863D01*
X042489Y038847D02*
X042863D01*
X041982Y038016D02*
X042671D01*
X041982Y03839D02*
X042671D01*
X042671Y038016D02*
X042671Y03839D01*
X041982D02*
X041982Y038016D01*
X042176Y033454D02*
X044125Y035403D01*
X040228D02*
X042176Y037351D01*
X040228Y035403D02*
X042176Y033454D01*
Y037351D02*
X044125Y035403D01*
X039039Y034508D02*
Y035197D01*
X039413Y034508D02*
Y035197D01*
X039039Y034508D02*
X039413D01*
X039039Y035197D02*
X039413D01*
X036621Y038666D02*
Y03904D01*
X035932Y038666D02*
Y03904D01*
Y038666D02*
X036621D01*
X035932Y03904D02*
X036621D01*
X039111Y037428D02*
Y038772D01*
X038442Y037428D02*
Y038772D01*
Y037428D02*
X039111D01*
X038442Y038772D02*
X039111D01*
X037876Y03529D02*
X038565D01*
X037876Y034916D02*
X038565D01*
X037876D02*
Y03529D01*
X038565Y034916D02*
Y03529D01*
X037332Y036966D02*
X038021D01*
X037332Y03734D02*
X038021D01*
Y036966D02*
Y03734D01*
X037332Y036966D02*
Y03734D01*
X037318Y034646D02*
Y035059D01*
X037535Y034646D02*
Y035059D01*
X037318D02*
X037535D01*
X037318Y034646D02*
X037535D01*
X043832Y033266D02*
X044521D01*
X043832Y03364D02*
X044521D01*
Y033266D02*
Y03364D01*
X043832Y033266D02*
Y03364D01*
X044332Y033916D02*
X045021D01*
X044332Y03429D02*
X045021D01*
Y033916D02*
Y03429D01*
X044332Y033916D02*
Y03429D01*
X02572Y040176D02*
G03*
X02572Y040176I-000197J0D01*
G01*
X019017Y044886D02*
Y04526D01*
X018328Y044886D02*
Y04526D01*
X019017D01*
X018328Y044886D02*
X019017D01*
X019528D02*
X020217D01*
X019528Y04526D02*
X020217D01*
X019528Y044886D02*
Y04526D01*
X020217Y044886D02*
Y04526D01*
X032271Y04337D02*
X032475D01*
X032271Y043776D02*
X032475D01*
X032271Y04337D02*
Y043776D01*
X032475Y04337D02*
Y043776D01*
X021186Y040779D02*
X02156D01*
X021186Y041468D02*
X02156D01*
Y040779D02*
Y041468D01*
X021186Y040779D02*
Y041468D01*
X028121Y04152D02*
X028325D01*
X028121Y041926D02*
X028325D01*
X028121Y04152D02*
Y041926D01*
X028325Y04152D02*
Y041926D01*
X031926Y043271D02*
Y043476D01*
X03152Y043271D02*
Y043476D01*
Y043271D02*
X031926D01*
X03152Y043476D02*
X031926D01*
X030693Y043271D02*
X031099D01*
X030693Y043476D02*
X031099D01*
Y043271D02*
Y043476D01*
X030693Y043271D02*
Y043476D01*
X031676Y042471D02*
Y042676D01*
X03127Y042471D02*
Y042676D01*
Y042471D02*
X031676D01*
X03127Y042676D02*
X031676D01*
X031676Y041971D02*
Y042176D01*
X03127Y041971D02*
Y042176D01*
Y041971D02*
X031676Y041971D01*
X03127Y042176D02*
X031676Y042176D01*
X030375Y04302D02*
X030375Y043426D01*
X030171D02*
X030171Y04302D01*
X030171Y043426D02*
X030375D01*
X030171Y04302D02*
X030375D01*
X030875Y042547D02*
Y042953D01*
X030671Y042547D02*
Y042953D01*
X030875D01*
X030671Y042547D02*
X030875D01*
X030065Y044467D02*
Y04488D01*
X030281Y044467D02*
Y04488D01*
X030065Y044467D02*
X030281D01*
X030065Y04488D02*
X030281D01*
X029576Y044821D02*
Y045026D01*
X02917Y044821D02*
Y045026D01*
Y044821D02*
X029576D01*
X02917Y045026D02*
X029576D01*
X02832Y044821D02*
Y045026D01*
X028726Y044821D02*
Y045026D01*
X02832D02*
X028726D01*
X02832Y044821D02*
X028726D01*
X026815Y04493D02*
X027031D01*
X026815Y044517D02*
X027031D01*
X026815D02*
Y04493D01*
X027031Y044517D02*
Y04493D01*
X025186Y044379D02*
Y045068D01*
X02556Y044379D02*
Y045068D01*
X025186D02*
X02556D01*
X025186Y044379D02*
X02556Y044379D01*
X025893Y043046D02*
X026046Y042893D01*
X0256Y042754D02*
X025753Y0426D01*
X0256Y042754D02*
X025893Y043046D01*
X025753Y0426D02*
X026046Y042893D01*
X023717Y039786D02*
Y04016D01*
X023028Y039786D02*
Y04016D01*
Y039786D02*
X023717D01*
X023028Y04016D02*
X023717D01*
X012125Y039961D02*
X019921D01*
Y044685D01*
X012125D02*
X019921D01*
X012125Y039961D02*
Y044685D01*
X02621Y044379D02*
Y045068D01*
X025836Y044379D02*
X025836Y045068D01*
X025836Y044379D02*
X02621D01*
X025836Y045068D02*
X02621D01*
X025328Y044236D02*
X026017D01*
X025328Y04461D02*
X026017D01*
X026017Y044236D02*
X026017Y04461D01*
X025328D02*
X025328Y044236D01*
X025523Y039674D02*
X027472Y041623D01*
X023574D02*
X025523Y043572D01*
X023574Y041623D02*
X025523Y039674D01*
Y043572D02*
X027472Y041623D01*
X022386Y040729D02*
Y041418D01*
X02276Y040729D02*
Y041418D01*
X022386Y040729D02*
X02276D01*
X022386Y041418D02*
X02276D01*
X019967Y044886D02*
Y04526D01*
X019278Y044886D02*
Y04526D01*
Y044886D02*
X019967D01*
X019278Y04526D02*
X019967D01*
X022458Y043648D02*
Y044992D01*
X021788Y043648D02*
Y044992D01*
Y043648D02*
X022458D01*
X021788Y044992D02*
X022458D01*
X021223Y04151D02*
X021911D01*
X021223Y041136D02*
X021911D01*
X021223D02*
Y04151D01*
X021911Y041136D02*
Y04151D01*
X020678Y043186D02*
X021367D01*
X020678Y04356D02*
X021367D01*
Y043186D02*
Y04356D01*
X020678Y043186D02*
Y04356D01*
X020665Y040867D02*
Y04128D01*
X020881Y040867D02*
Y04128D01*
X020665D02*
X020881D01*
X020665Y040867D02*
X020881D01*
X027178Y039486D02*
X027867D01*
X027178Y03986D02*
X027867D01*
Y039486D02*
Y03986D01*
X027178Y039486D02*
Y03986D01*
X027678Y040136D02*
X028367D01*
X027678Y04051D02*
X028367D01*
Y040136D02*
Y04051D01*
X027678Y040136D02*
Y04051D01*
X042373Y040176D02*
G03*
X042373Y040176I-000197J0D01*
G01*
X035671Y044886D02*
Y04526D01*
X034982Y044886D02*
Y04526D01*
X035671D01*
X034982Y044886D02*
X035671D01*
X036182D02*
X036871D01*
X036182Y04526D02*
X036871D01*
X036182Y044886D02*
Y04526D01*
X036871Y044886D02*
Y04526D01*
X048924Y04337D02*
X049129D01*
X048924Y043776D02*
X049129D01*
X048924Y04337D02*
Y043776D01*
X049129Y04337D02*
Y043776D01*
X037839Y040779D02*
X038213D01*
X037839Y041468D02*
X038213D01*
Y040779D02*
Y041468D01*
X037839Y040779D02*
Y041468D01*
X044774Y04152D02*
X044979D01*
X044774Y041926D02*
X044979D01*
X044774Y04152D02*
Y041926D01*
X044979Y04152D02*
Y041926D01*
X048579Y043271D02*
Y043476D01*
X048174Y043271D02*
Y043476D01*
Y043271D02*
X048579D01*
X048174Y043476D02*
X048579D01*
X047347Y043271D02*
X047752D01*
X047347Y043476D02*
X047752D01*
Y043271D02*
Y043476D01*
X047347Y043271D02*
Y043476D01*
X048329Y042471D02*
Y042676D01*
X047924Y042471D02*
Y042676D01*
Y042471D02*
X048329D01*
X047924Y042676D02*
X048329D01*
X048329Y041971D02*
Y042176D01*
X047924Y041971D02*
Y042176D01*
Y041971D02*
X048329Y041971D01*
X047924Y042176D02*
X048329Y042176D01*
X047029Y04302D02*
X047029Y043426D01*
X046824D02*
X046824Y04302D01*
X046824Y043426D02*
X047029D01*
X046824Y04302D02*
X047029D01*
X047529Y042547D02*
Y042953D01*
X047324Y042547D02*
Y042953D01*
X047529D01*
X047324Y042547D02*
X047529D01*
X046718Y044467D02*
Y04488D01*
X046935Y044467D02*
Y04488D01*
X046718Y044467D02*
X046935D01*
X046718Y04488D02*
X046935D01*
X046229Y044821D02*
Y045026D01*
X045824Y044821D02*
Y045026D01*
Y044821D02*
X046229D01*
X045824Y045026D02*
X046229D01*
X044974Y044821D02*
Y045026D01*
X045379Y044821D02*
Y045026D01*
X044974D02*
X045379D01*
X044974Y044821D02*
X045379D01*
X043468Y04493D02*
X043685D01*
X043468Y044517D02*
X043685D01*
X043468D02*
Y04493D01*
X043685Y044517D02*
Y04493D01*
X041839Y044379D02*
Y045068D01*
X042213Y044379D02*
Y045068D01*
X041839D02*
X042213D01*
X041839Y044379D02*
X042213Y044379D01*
X042546Y043046D02*
X042699Y042893D01*
X042254Y042754D02*
X042407Y0426D01*
X042254Y042754D02*
X042546Y043046D01*
X042407Y0426D02*
X042699Y042893D01*
X040371Y039786D02*
Y04016D01*
X039682Y039786D02*
Y04016D01*
Y039786D02*
X040371D01*
X039682Y04016D02*
X040371D01*
X028779Y039961D02*
X036574D01*
Y044685D01*
X028779D02*
X036574D01*
X028779Y039961D02*
Y044685D01*
X042863Y044379D02*
Y045068D01*
X042489Y044379D02*
X042489Y045068D01*
X042489Y044379D02*
X042863D01*
X042489Y045068D02*
X042863D01*
X041982Y044236D02*
X042671D01*
X041982Y04461D02*
X042671D01*
X042671Y044236D02*
X042671Y04461D01*
X041982D02*
X041982Y044236D01*
X042176Y039674D02*
X044125Y041623D01*
X040228D02*
X042176Y043572D01*
X040228Y041623D02*
X042176Y039674D01*
Y043572D02*
X044125Y041623D01*
X039039Y040729D02*
Y041418D01*
X039413Y040729D02*
Y041418D01*
X039039Y040729D02*
X039413D01*
X039039Y041418D02*
X039413D01*
X036621Y044886D02*
Y04526D01*
X035932Y044886D02*
Y04526D01*
Y044886D02*
X036621D01*
X035932Y04526D02*
X036621D01*
X039111Y043648D02*
Y044992D01*
X038442Y043648D02*
Y044992D01*
Y043648D02*
X039111D01*
X038442Y044992D02*
X039111D01*
X037876Y04151D02*
X038565D01*
X037876Y041136D02*
X038565D01*
X037876D02*
Y04151D01*
X038565Y041136D02*
Y04151D01*
X037332Y043186D02*
X038021D01*
X037332Y04356D02*
X038021D01*
Y043186D02*
Y04356D01*
X037332Y043186D02*
Y04356D01*
X037318Y040867D02*
Y04128D01*
X037535Y040867D02*
Y04128D01*
X037318D02*
X037535D01*
X037318Y040867D02*
X037535D01*
X043832Y039486D02*
X044521D01*
X043832Y03986D02*
X044521D01*
Y039486D02*
Y03986D01*
X043832Y039486D02*
Y03986D01*
X044332Y040136D02*
X045021D01*
X044332Y04051D02*
X045021D01*
Y040136D02*
Y04051D01*
X044332Y040136D02*
Y04051D01*
D66*
X022123Y019951D02*
D03*
X038776D02*
D03*
X022123Y026172D02*
D03*
X038776D02*
D03*
X022123Y032392D02*
D03*
X038776D02*
D03*
X022123Y038613D02*
D03*
X038776D02*
D03*
X022123Y044833D02*
D03*
X038776D02*
D03*
M02*
