G04*
G04 #@! TF.GenerationSoftware,Altium Limited,Altium Designer,22.10.1 (41)*
G04*
G04 Layer_Color=32768*
%FSTAX24Y24*%
%MOIN*%
G70*
G04*
G04 #@! TF.SameCoordinates,8E8F082C-EA0B-43D0-983D-46ADB54C0823*
G04*
G04*
G04 #@! TF.FilePolarity,Positive*
G04*
G01*
G75*
%ADD60C,0.0039*%
%ADD67C,0.0020*%
D60*
X018486Y020191D02*
X01886D01*
X018673Y020004D02*
Y020378D01*
X019873Y020004D02*
Y020378D01*
X019686Y020191D02*
X02006D01*
X032373Y018589D02*
Y018794D01*
X032271Y018691D02*
X032475D01*
X021373Y016054D02*
Y016428D01*
X021186Y016241D02*
X02156D01*
X028223Y016739D02*
Y016944D01*
X028121Y016841D02*
X028325D01*
X031621Y018491D02*
X031825D01*
X031723Y018389D02*
Y018594D01*
X030896Y018389D02*
Y018594D01*
X030794Y018491D02*
X030998D01*
X031371Y017691D02*
X031575D01*
X031473Y017589D02*
Y017794D01*
X031371Y017191D02*
X031575D01*
X031473Y017089D02*
Y017294D01*
X030171Y018341D02*
X030375D01*
X030273Y018239D02*
Y018444D01*
X030671Y017868D02*
X030875D01*
X030773Y017766D02*
Y01797D01*
X030065Y019791D02*
X030281D01*
X030173Y019683D02*
Y0199D01*
X029956Y019309D02*
Y020274D01*
X030389Y019309D02*
Y020274D01*
X029956Y019309D02*
X030389Y019309D01*
X029956Y020274D02*
X030389D01*
X029271Y020041D02*
X029475D01*
X029373Y019939D02*
Y020144D01*
X028421Y020041D02*
X028625D01*
X028523Y019939D02*
Y020144D01*
X026706Y020324D02*
X027139D01*
X026706Y019359D02*
X027139Y019359D01*
X026706Y019359D02*
Y020324D01*
X027139Y019359D02*
Y020324D01*
X026923Y019733D02*
Y01995D01*
X026815Y019841D02*
X027031D01*
X025186D02*
X02556D01*
X025373Y019654D02*
Y020028D01*
X026011Y018435D02*
X026317Y018129D01*
X025329Y017753D02*
X025635Y017447D01*
X025329Y017753D02*
X026011Y018435D01*
X025635Y017447D02*
X026317Y018129D01*
X025746Y017865D02*
X025899Y018018D01*
X025746Y018018D02*
X025899Y017865D01*
X023186Y015091D02*
X02356D01*
X023373Y014904D02*
Y015278D01*
X025836Y019841D02*
X02621D01*
X026023Y019654D02*
X026023Y020028D01*
X025673Y019354D02*
Y019728D01*
X025486Y019541D02*
X02586D01*
X025384Y016881D02*
X025662Y016602D01*
X025384D02*
X025662Y016881D01*
X022386Y016191D02*
X02276D01*
X022573Y016004D02*
Y016378D01*
X019436Y020191D02*
X01981D01*
X019623Y020004D02*
Y020378D01*
X021926Y019441D02*
X02232D01*
X022123Y019244D02*
Y019638D01*
X021567Y016254D02*
Y016628D01*
X02138Y016441D02*
X021754D01*
X021023Y018304D02*
Y018678D01*
X020836Y018491D02*
X02121D01*
X020665Y016191D02*
X020881D01*
X020773Y016083D02*
Y0163D01*
X020556Y015709D02*
Y016674D01*
X020989Y015709D02*
Y016674D01*
X020556Y016674D02*
X020989Y016674D01*
X020556Y015709D02*
X020989D01*
X027523Y014604D02*
Y014978D01*
X027336Y014791D02*
X02771D01*
X028023Y015254D02*
Y015628D01*
X027836Y015441D02*
X02821D01*
X035139Y020191D02*
X035513D01*
X035326Y020004D02*
Y020378D01*
X036526Y020004D02*
Y020378D01*
X036339Y020191D02*
X036713D01*
X049026Y018589D02*
Y018794D01*
X048924Y018691D02*
X049129D01*
X038026Y016054D02*
Y016428D01*
X037839Y016241D02*
X038213D01*
X044876Y016739D02*
Y016944D01*
X044774Y016841D02*
X044979D01*
X048274Y018491D02*
X048479D01*
X048376Y018389D02*
Y018594D01*
X04755Y018389D02*
Y018594D01*
X047447Y018491D02*
X047652D01*
X048024Y017691D02*
X048229D01*
X048126Y017589D02*
Y017794D01*
X048024Y017191D02*
X048229D01*
X048126Y017089D02*
Y017294D01*
X046824Y018341D02*
X047029D01*
X046926Y018239D02*
Y018444D01*
X047324Y017868D02*
X047529D01*
X047426Y017766D02*
Y01797D01*
X046718Y019791D02*
X046935D01*
X046826Y019683D02*
Y0199D01*
X04661Y019309D02*
Y020274D01*
X047043Y019309D02*
Y020274D01*
X04661Y019309D02*
X047043Y019309D01*
X04661Y020274D02*
X047043D01*
X045924Y020041D02*
X046129D01*
X046026Y019939D02*
Y020144D01*
X045074Y020041D02*
X045279D01*
X045176Y019939D02*
Y020144D01*
X04336Y020324D02*
X043793D01*
X04336Y019359D02*
X043793Y019359D01*
X04336Y019359D02*
Y020324D01*
X043793Y019359D02*
Y020324D01*
X043576Y019733D02*
Y01995D01*
X043468Y019841D02*
X043685D01*
X041839D02*
X042213D01*
X042026Y019654D02*
Y020028D01*
X042664Y018435D02*
X042971Y018129D01*
X041982Y017753D02*
X042289Y017447D01*
X041982Y017753D02*
X042664Y018435D01*
X042289Y017447D02*
X042971Y018129D01*
X0424Y017865D02*
X042553Y018018D01*
X0424Y018018D02*
X042553Y017865D01*
X039839Y015091D02*
X040213D01*
X040026Y014904D02*
Y015278D01*
X042489Y019841D02*
X042863D01*
X042676Y019654D02*
X042676Y020028D01*
X042326Y019354D02*
Y019728D01*
X042139Y019541D02*
X042513D01*
X042037Y016881D02*
X042316Y016602D01*
X042037D02*
X042316Y016881D01*
X039039Y016191D02*
X039413D01*
X039226Y016004D02*
Y016378D01*
X036089Y020191D02*
X036463D01*
X036276Y020004D02*
Y020378D01*
X03858Y019441D02*
X038973D01*
X038776Y019244D02*
Y019638D01*
X038221Y016254D02*
Y016628D01*
X038034Y016441D02*
X038408D01*
X037676Y018304D02*
Y018678D01*
X037489Y018491D02*
X037863D01*
X037318Y016191D02*
X037535D01*
X037426Y016083D02*
Y0163D01*
X03721Y015709D02*
Y016674D01*
X037643Y015709D02*
Y016674D01*
X03721Y016674D02*
X037643Y016674D01*
X03721Y015709D02*
X037643D01*
X044176Y014604D02*
Y014978D01*
X043989Y014791D02*
X044363D01*
X044676Y015254D02*
Y015628D01*
X044489Y015441D02*
X044863D01*
X018486Y026412D02*
X01886D01*
X018673Y026225D02*
Y026599D01*
X019873Y026225D02*
Y026599D01*
X019686Y026412D02*
X02006D01*
X032373Y024809D02*
Y025014D01*
X032271Y024912D02*
X032475D01*
X021373Y022275D02*
Y022649D01*
X021186Y022462D02*
X02156D01*
X028223Y022959D02*
Y023164D01*
X028121Y023062D02*
X028325D01*
X031621Y024712D02*
X031825D01*
X031723Y024609D02*
Y024814D01*
X030896Y024609D02*
Y024814D01*
X030794Y024712D02*
X030998D01*
X031371Y023912D02*
X031575D01*
X031473Y023809D02*
Y024014D01*
X031371Y023412D02*
X031575D01*
X031473Y023309D02*
Y023514D01*
X030171Y024562D02*
X030375D01*
X030273Y024459D02*
Y024664D01*
X030671Y024089D02*
X030875D01*
X030773Y023986D02*
Y024191D01*
X030065Y026012D02*
X030281D01*
X030173Y025904D02*
Y02612D01*
X029956Y02553D02*
Y026494D01*
X030389Y02553D02*
Y026494D01*
X029956Y02553D02*
X030389Y02553D01*
X029956Y026494D02*
X030389D01*
X029271Y026262D02*
X029475D01*
X029373Y026159D02*
Y026364D01*
X028421Y026262D02*
X028625D01*
X028523Y026159D02*
Y026364D01*
X026706Y026544D02*
X027139D01*
X026706Y02558D02*
X027139Y02558D01*
X026706Y02558D02*
Y026544D01*
X027139Y02558D02*
Y026544D01*
X026923Y025954D02*
Y02617D01*
X026815Y026062D02*
X027031D01*
X025186D02*
X02556D01*
X025373Y025875D02*
Y026249D01*
X026011Y024656D02*
X026317Y02435D01*
X025329Y023974D02*
X025635Y023668D01*
X025329Y023974D02*
X026011Y024656D01*
X025635Y023668D02*
X026317Y02435D01*
X025746Y024085D02*
X025899Y024238D01*
X025746Y024238D02*
X025899Y024085D01*
X023186Y021312D02*
X02356D01*
X023373Y021125D02*
Y021499D01*
X025836Y026062D02*
X02621D01*
X026023Y025875D02*
X026023Y026249D01*
X025673Y025575D02*
Y025949D01*
X025486Y025762D02*
X02586D01*
X025384Y023101D02*
X025662Y022823D01*
X025384D02*
X025662Y023101D01*
X022386Y022412D02*
X02276D01*
X022573Y022225D02*
Y022599D01*
X019436Y026412D02*
X01981D01*
X019623Y026225D02*
Y026599D01*
X021926Y025662D02*
X02232D01*
X022123Y025465D02*
Y025859D01*
X021567Y022475D02*
Y022849D01*
X02138Y022662D02*
X021754D01*
X021023Y024525D02*
Y024899D01*
X020836Y024712D02*
X02121D01*
X020665Y022412D02*
X020881D01*
X020773Y022304D02*
Y02252D01*
X020556Y02193D02*
Y022894D01*
X020989Y02193D02*
Y022894D01*
X020556Y022894D02*
X020989Y022894D01*
X020556Y02193D02*
X020989D01*
X027523Y020825D02*
Y021199D01*
X027336Y021012D02*
X02771D01*
X028023Y021475D02*
Y021849D01*
X027836Y021662D02*
X02821D01*
X035139Y026412D02*
X035513D01*
X035326Y026225D02*
Y026599D01*
X036526Y026225D02*
Y026599D01*
X036339Y026412D02*
X036713D01*
X049026Y024809D02*
Y025014D01*
X048924Y024912D02*
X049129D01*
X038026Y022275D02*
Y022649D01*
X037839Y022462D02*
X038213D01*
X044876Y022959D02*
Y023164D01*
X044774Y023062D02*
X044979D01*
X048274Y024712D02*
X048479D01*
X048376Y024609D02*
Y024814D01*
X04755Y024609D02*
Y024814D01*
X047447Y024712D02*
X047652D01*
X048024Y023912D02*
X048229D01*
X048126Y023809D02*
Y024014D01*
X048024Y023412D02*
X048229D01*
X048126Y023309D02*
Y023514D01*
X046824Y024562D02*
X047029D01*
X046926Y024459D02*
Y024664D01*
X047324Y024089D02*
X047529D01*
X047426Y023986D02*
Y024191D01*
X046718Y026012D02*
X046935D01*
X046826Y025904D02*
Y02612D01*
X04661Y02553D02*
Y026494D01*
X047043Y02553D02*
Y026494D01*
X04661Y02553D02*
X047043Y02553D01*
X04661Y026494D02*
X047043D01*
X045924Y026262D02*
X046129D01*
X046026Y026159D02*
Y026364D01*
X045074Y026262D02*
X045279D01*
X045176Y026159D02*
Y026364D01*
X04336Y026544D02*
X043793D01*
X04336Y02558D02*
X043793Y02558D01*
X04336Y02558D02*
Y026544D01*
X043793Y02558D02*
Y026544D01*
X043576Y025954D02*
Y02617D01*
X043468Y026062D02*
X043685D01*
X041839D02*
X042213D01*
X042026Y025875D02*
Y026249D01*
X042664Y024656D02*
X042971Y02435D01*
X041982Y023974D02*
X042289Y023668D01*
X041982Y023974D02*
X042664Y024656D01*
X042289Y023668D02*
X042971Y02435D01*
X0424Y024085D02*
X042553Y024238D01*
X0424Y024238D02*
X042553Y024085D01*
X039839Y021312D02*
X040213D01*
X040026Y021125D02*
Y021499D01*
X042489Y026062D02*
X042863D01*
X042676Y025875D02*
X042676Y026249D01*
X042326Y025575D02*
Y025949D01*
X042139Y025762D02*
X042513D01*
X042037Y023101D02*
X042316Y022823D01*
X042037D02*
X042316Y023101D01*
X039039Y022412D02*
X039413D01*
X039226Y022225D02*
Y022599D01*
X036089Y026412D02*
X036463D01*
X036276Y026225D02*
Y026599D01*
X03858Y025662D02*
X038973D01*
X038776Y025465D02*
Y025859D01*
X038221Y022475D02*
Y022849D01*
X038034Y022662D02*
X038408D01*
X037676Y024525D02*
Y024899D01*
X037489Y024712D02*
X037863D01*
X037318Y022412D02*
X037535D01*
X037426Y022304D02*
Y02252D01*
X03721Y02193D02*
Y022894D01*
X037643Y02193D02*
Y022894D01*
X03721Y022894D02*
X037643Y022894D01*
X03721Y02193D02*
X037643D01*
X044176Y020825D02*
Y021199D01*
X043989Y021012D02*
X044363D01*
X044676Y021475D02*
Y021849D01*
X044489Y021662D02*
X044863D01*
X018486Y032632D02*
X01886D01*
X018673Y032445D02*
Y032819D01*
X019873Y032445D02*
Y032819D01*
X019686Y032632D02*
X02006D01*
X032373Y03103D02*
Y031235D01*
X032271Y031132D02*
X032475D01*
X021373Y028495D02*
Y028869D01*
X021186Y028682D02*
X02156D01*
X028223Y02918D02*
Y029385D01*
X028121Y029282D02*
X028325D01*
X031621Y030932D02*
X031825D01*
X031723Y03083D02*
Y031035D01*
X030896Y03083D02*
Y031035D01*
X030794Y030932D02*
X030998D01*
X031371Y030132D02*
X031575D01*
X031473Y03003D02*
Y030235D01*
X031371Y029632D02*
X031575D01*
X031473Y02953D02*
Y029735D01*
X030171Y030782D02*
X030375D01*
X030273Y03068D02*
Y030885D01*
X030671Y030309D02*
X030875D01*
X030773Y030207D02*
Y030411D01*
X030065Y032232D02*
X030281D01*
X030173Y032124D02*
Y032341D01*
X029956Y03175D02*
Y032715D01*
X030389Y03175D02*
Y032715D01*
X029956Y03175D02*
X030389Y03175D01*
X029956Y032715D02*
X030389D01*
X029271Y032482D02*
X029475D01*
X029373Y03238D02*
Y032585D01*
X028421Y032482D02*
X028625D01*
X028523Y03238D02*
Y032585D01*
X026706Y032765D02*
X027139D01*
X026706Y0318D02*
X027139Y0318D01*
X026706Y0318D02*
Y032765D01*
X027139Y0318D02*
Y032765D01*
X026923Y032174D02*
Y032391D01*
X026815Y032282D02*
X027031D01*
X025186D02*
X02556D01*
X025373Y032095D02*
Y032469D01*
X026011Y030876D02*
X026317Y03057D01*
X025329Y030194D02*
X025635Y029888D01*
X025329Y030194D02*
X026011Y030876D01*
X025635Y029888D02*
X026317Y03057D01*
X025746Y030306D02*
X025899Y030459D01*
X025746Y030459D02*
X025899Y030306D01*
X023186Y027532D02*
X02356D01*
X023373Y027345D02*
Y027719D01*
X025836Y032282D02*
X02621D01*
X026023Y032095D02*
X026023Y032469D01*
X025673Y031795D02*
Y032169D01*
X025486Y031982D02*
X02586D01*
X025384Y029321D02*
X025662Y029043D01*
X025384D02*
X025662Y029321D01*
X022386Y028632D02*
X02276D01*
X022573Y028445D02*
Y028819D01*
X019436Y032632D02*
X01981D01*
X019623Y032445D02*
Y032819D01*
X021926Y031882D02*
X02232D01*
X022123Y031685D02*
Y032079D01*
X021567Y028695D02*
Y029069D01*
X02138Y028882D02*
X021754D01*
X021023Y030745D02*
Y031119D01*
X020836Y030932D02*
X02121D01*
X020665Y028632D02*
X020881D01*
X020773Y028524D02*
Y028741D01*
X020556Y02815D02*
Y029115D01*
X020989Y02815D02*
Y029115D01*
X020556Y029115D02*
X020989Y029115D01*
X020556Y02815D02*
X020989D01*
X027523Y027045D02*
Y027419D01*
X027336Y027232D02*
X02771D01*
X028023Y027695D02*
Y028069D01*
X027836Y027882D02*
X02821D01*
X035139Y032632D02*
X035513D01*
X035326Y032445D02*
Y032819D01*
X036526Y032445D02*
Y032819D01*
X036339Y032632D02*
X036713D01*
X049026Y03103D02*
Y031235D01*
X048924Y031132D02*
X049129D01*
X038026Y028495D02*
Y028869D01*
X037839Y028682D02*
X038213D01*
X044876Y02918D02*
Y029385D01*
X044774Y029282D02*
X044979D01*
X048274Y030932D02*
X048479D01*
X048376Y03083D02*
Y031035D01*
X04755Y03083D02*
Y031035D01*
X047447Y030932D02*
X047652D01*
X048024Y030132D02*
X048229D01*
X048126Y03003D02*
Y030235D01*
X048024Y029632D02*
X048229D01*
X048126Y02953D02*
Y029735D01*
X046824Y030782D02*
X047029D01*
X046926Y03068D02*
Y030885D01*
X047324Y030309D02*
X047529D01*
X047426Y030207D02*
Y030411D01*
X046718Y032232D02*
X046935D01*
X046826Y032124D02*
Y032341D01*
X04661Y03175D02*
Y032715D01*
X047043Y03175D02*
Y032715D01*
X04661Y03175D02*
X047043Y03175D01*
X04661Y032715D02*
X047043D01*
X045924Y032482D02*
X046129D01*
X046026Y03238D02*
Y032585D01*
X045074Y032482D02*
X045279D01*
X045176Y03238D02*
Y032585D01*
X04336Y032765D02*
X043793D01*
X04336Y0318D02*
X043793Y0318D01*
X04336Y0318D02*
Y032765D01*
X043793Y0318D02*
Y032765D01*
X043576Y032174D02*
Y032391D01*
X043468Y032282D02*
X043685D01*
X041839D02*
X042213D01*
X042026Y032095D02*
Y032469D01*
X042664Y030876D02*
X042971Y03057D01*
X041982Y030194D02*
X042289Y029888D01*
X041982Y030194D02*
X042664Y030876D01*
X042289Y029888D02*
X042971Y03057D01*
X0424Y030306D02*
X042553Y030459D01*
X0424Y030459D02*
X042553Y030306D01*
X039839Y027532D02*
X040213D01*
X040026Y027345D02*
Y027719D01*
X042489Y032282D02*
X042863D01*
X042676Y032095D02*
X042676Y032469D01*
X042326Y031795D02*
Y032169D01*
X042139Y031982D02*
X042513D01*
X042037Y029321D02*
X042316Y029043D01*
X042037D02*
X042316Y029321D01*
X039039Y028632D02*
X039413D01*
X039226Y028445D02*
Y028819D01*
X036089Y032632D02*
X036463D01*
X036276Y032445D02*
Y032819D01*
X03858Y031882D02*
X038973D01*
X038776Y031685D02*
Y032079D01*
X038221Y028695D02*
Y029069D01*
X038034Y028882D02*
X038408D01*
X037676Y030745D02*
Y031119D01*
X037489Y030932D02*
X037863D01*
X037318Y028632D02*
X037535D01*
X037426Y028524D02*
Y028741D01*
X03721Y02815D02*
Y029115D01*
X037643Y02815D02*
Y029115D01*
X03721Y029115D02*
X037643Y029115D01*
X03721Y02815D02*
X037643D01*
X044176Y027045D02*
Y027419D01*
X043989Y027232D02*
X044363D01*
X044676Y027695D02*
Y028069D01*
X044489Y027882D02*
X044863D01*
X018486Y038853D02*
X01886D01*
X018673Y038666D02*
Y03904D01*
X019873Y038666D02*
Y03904D01*
X019686Y038853D02*
X02006D01*
X032373Y03725D02*
Y037455D01*
X032271Y037353D02*
X032475D01*
X021373Y034716D02*
Y03509D01*
X021186Y034903D02*
X02156D01*
X028223Y0354D02*
Y035605D01*
X028121Y035503D02*
X028325D01*
X031621Y037153D02*
X031825D01*
X031723Y03705D02*
Y037255D01*
X030896Y03705D02*
Y037255D01*
X030794Y037153D02*
X030998D01*
X031371Y036353D02*
X031575D01*
X031473Y03625D02*
Y036455D01*
X031371Y035853D02*
X031575D01*
X031473Y03575D02*
Y035955D01*
X030171Y037003D02*
X030375D01*
X030273Y0369D02*
Y037105D01*
X030671Y03653D02*
X030875D01*
X030773Y036427D02*
Y036632D01*
X030065Y038453D02*
X030281D01*
X030173Y038344D02*
Y038561D01*
X029956Y03797D02*
Y038935D01*
X030389Y03797D02*
Y038935D01*
X029956Y03797D02*
X030389Y03797D01*
X029956Y038935D02*
X030389D01*
X029271Y038703D02*
X029475D01*
X029373Y0386D02*
Y038805D01*
X028421Y038703D02*
X028625D01*
X028523Y0386D02*
Y038805D01*
X026706Y038985D02*
X027139D01*
X026706Y03802D02*
X027139Y03802D01*
X026706Y03802D02*
Y038985D01*
X027139Y03802D02*
Y038985D01*
X026923Y038394D02*
Y038611D01*
X026815Y038503D02*
X027031D01*
X025186D02*
X02556D01*
X025373Y038316D02*
Y03869D01*
X026011Y037097D02*
X026317Y036791D01*
X025329Y036415D02*
X025635Y036109D01*
X025329Y036415D02*
X026011Y037097D01*
X025635Y036109D02*
X026317Y036791D01*
X025746Y036526D02*
X025899Y036679D01*
X025746Y036679D02*
X025899Y036526D01*
X023186Y033753D02*
X02356D01*
X023373Y033566D02*
Y03394D01*
X025836Y038503D02*
X02621D01*
X026023Y038316D02*
X026023Y03869D01*
X025673Y038016D02*
Y03839D01*
X025486Y038203D02*
X02586D01*
X025384Y035542D02*
X025662Y035264D01*
X025384D02*
X025662Y035542D01*
X022386Y034853D02*
X02276D01*
X022573Y034666D02*
Y03504D01*
X019436Y038853D02*
X01981D01*
X019623Y038666D02*
Y03904D01*
X021926Y038103D02*
X02232D01*
X022123Y037906D02*
Y0383D01*
X021567Y034916D02*
Y03529D01*
X02138Y035103D02*
X021754D01*
X021023Y036966D02*
Y03734D01*
X020836Y037153D02*
X02121D01*
X020665Y034853D02*
X020881D01*
X020773Y034744D02*
Y034961D01*
X020556Y03437D02*
Y035335D01*
X020989Y03437D02*
Y035335D01*
X020556Y035335D02*
X020989Y035335D01*
X020556Y03437D02*
X020989D01*
X027523Y033266D02*
Y03364D01*
X027336Y033453D02*
X02771D01*
X028023Y033916D02*
Y03429D01*
X027836Y034103D02*
X02821D01*
X035139Y038853D02*
X035513D01*
X035326Y038666D02*
Y03904D01*
X036526Y038666D02*
Y03904D01*
X036339Y038853D02*
X036713D01*
X049026Y03725D02*
Y037455D01*
X048924Y037353D02*
X049129D01*
X038026Y034716D02*
Y03509D01*
X037839Y034903D02*
X038213D01*
X044876Y0354D02*
Y035605D01*
X044774Y035503D02*
X044979D01*
X048274Y037153D02*
X048479D01*
X048376Y03705D02*
Y037255D01*
X04755Y03705D02*
Y037255D01*
X047447Y037153D02*
X047652D01*
X048024Y036353D02*
X048229D01*
X048126Y03625D02*
Y036455D01*
X048024Y035853D02*
X048229D01*
X048126Y03575D02*
Y035955D01*
X046824Y037003D02*
X047029D01*
X046926Y0369D02*
Y037105D01*
X047324Y03653D02*
X047529D01*
X047426Y036427D02*
Y036632D01*
X046718Y038453D02*
X046935D01*
X046826Y038344D02*
Y038561D01*
X04661Y03797D02*
Y038935D01*
X047043Y03797D02*
Y038935D01*
X04661Y03797D02*
X047043Y03797D01*
X04661Y038935D02*
X047043D01*
X045924Y038703D02*
X046129D01*
X046026Y0386D02*
Y038805D01*
X045074Y038703D02*
X045279D01*
X045176Y0386D02*
Y038805D01*
X04336Y038985D02*
X043793D01*
X04336Y03802D02*
X043793Y03802D01*
X04336Y03802D02*
Y038985D01*
X043793Y03802D02*
Y038985D01*
X043576Y038394D02*
Y038611D01*
X043468Y038503D02*
X043685D01*
X041839D02*
X042213D01*
X042026Y038316D02*
Y03869D01*
X042664Y037097D02*
X042971Y036791D01*
X041982Y036415D02*
X042289Y036109D01*
X041982Y036415D02*
X042664Y037097D01*
X042289Y036109D02*
X042971Y036791D01*
X0424Y036526D02*
X042553Y036679D01*
X0424Y036679D02*
X042553Y036526D01*
X039839Y033753D02*
X040213D01*
X040026Y033566D02*
Y03394D01*
X042489Y038503D02*
X042863D01*
X042676Y038316D02*
X042676Y03869D01*
X042326Y038016D02*
Y03839D01*
X042139Y038203D02*
X042513D01*
X042037Y035542D02*
X042316Y035264D01*
X042037D02*
X042316Y035542D01*
X039039Y034853D02*
X039413D01*
X039226Y034666D02*
Y03504D01*
X036089Y038853D02*
X036463D01*
X036276Y038666D02*
Y03904D01*
X03858Y038103D02*
X038973D01*
X038776Y037906D02*
Y0383D01*
X038221Y034916D02*
Y03529D01*
X038034Y035103D02*
X038408D01*
X037676Y036966D02*
Y03734D01*
X037489Y037153D02*
X037863D01*
X037318Y034853D02*
X037535D01*
X037426Y034744D02*
Y034961D01*
X03721Y03437D02*
Y035335D01*
X037643Y03437D02*
Y035335D01*
X03721Y035335D02*
X037643Y035335D01*
X03721Y03437D02*
X037643D01*
X044176Y033266D02*
Y03364D01*
X043989Y033453D02*
X044363D01*
X044676Y033916D02*
Y03429D01*
X044489Y034103D02*
X044863D01*
X018486Y045073D02*
X01886D01*
X018673Y044886D02*
Y04526D01*
X019873Y044886D02*
Y04526D01*
X019686Y045073D02*
X02006D01*
X032373Y043471D02*
Y043676D01*
X032271Y043573D02*
X032475D01*
X021373Y040936D02*
Y04131D01*
X021186Y041123D02*
X02156D01*
X028223Y041621D02*
Y041826D01*
X028121Y041723D02*
X028325D01*
X031621Y043373D02*
X031825D01*
X031723Y043271D02*
Y043476D01*
X030896Y043271D02*
Y043476D01*
X030794Y043373D02*
X030998D01*
X031371Y042573D02*
X031575D01*
X031473Y042471D02*
Y042676D01*
X031371Y042073D02*
X031575D01*
X031473Y041971D02*
Y042176D01*
X030171Y043223D02*
X030375D01*
X030273Y043121D02*
Y043326D01*
X030671Y04275D02*
X030875D01*
X030773Y042648D02*
Y042852D01*
X030065Y044673D02*
X030281D01*
X030173Y044565D02*
Y044781D01*
X029956Y044191D02*
Y045155D01*
X030389Y044191D02*
Y045155D01*
X029956Y044191D02*
X030389Y044191D01*
X029956Y045155D02*
X030389D01*
X029271Y044923D02*
X029475D01*
X029373Y044821D02*
Y045026D01*
X028421Y044923D02*
X028625D01*
X028523Y044821D02*
Y045026D01*
X026706Y045205D02*
X027139D01*
X026706Y044241D02*
X027139Y044241D01*
X026706Y044241D02*
Y045205D01*
X027139Y044241D02*
Y045205D01*
X026923Y044615D02*
Y044831D01*
X026815Y044723D02*
X027031D01*
X025186D02*
X02556D01*
X025373Y044536D02*
Y04491D01*
X026011Y043317D02*
X026317Y043011D01*
X025329Y042635D02*
X025635Y042329D01*
X025329Y042635D02*
X026011Y043317D01*
X025635Y042329D02*
X026317Y043011D01*
X025746Y042747D02*
X025899Y0429D01*
X025746Y0429D02*
X025899Y042747D01*
X023186Y039973D02*
X02356D01*
X023373Y039786D02*
Y04016D01*
X025836Y044723D02*
X02621D01*
X026023Y044536D02*
X026023Y04491D01*
X025673Y044236D02*
Y04461D01*
X025486Y044423D02*
X02586D01*
X025384Y041762D02*
X025662Y041484D01*
X025384D02*
X025662Y041762D01*
X022386Y041073D02*
X02276D01*
X022573Y040886D02*
Y04126D01*
X019436Y045073D02*
X01981D01*
X019623Y044886D02*
Y04526D01*
X021926Y044323D02*
X02232D01*
X022123Y044126D02*
Y04452D01*
X021567Y041136D02*
Y04151D01*
X02138Y041323D02*
X021754D01*
X021023Y043186D02*
Y04356D01*
X020836Y043373D02*
X02121D01*
X020665Y041073D02*
X020881D01*
X020773Y040965D02*
Y041181D01*
X020556Y040591D02*
Y041555D01*
X020989Y040591D02*
Y041555D01*
X020556Y041555D02*
X020989Y041555D01*
X020556Y040591D02*
X020989D01*
X027523Y039486D02*
Y03986D01*
X027336Y039673D02*
X02771D01*
X028023Y040136D02*
Y04051D01*
X027836Y040323D02*
X02821D01*
X035139Y045073D02*
X035513D01*
X035326Y044886D02*
Y04526D01*
X036526Y044886D02*
Y04526D01*
X036339Y045073D02*
X036713D01*
X049026Y043471D02*
Y043676D01*
X048924Y043573D02*
X049129D01*
X038026Y040936D02*
Y04131D01*
X037839Y041123D02*
X038213D01*
X044876Y041621D02*
Y041826D01*
X044774Y041723D02*
X044979D01*
X048274Y043373D02*
X048479D01*
X048376Y043271D02*
Y043476D01*
X04755Y043271D02*
Y043476D01*
X047447Y043373D02*
X047652D01*
X048024Y042573D02*
X048229D01*
X048126Y042471D02*
Y042676D01*
X048024Y042073D02*
X048229D01*
X048126Y041971D02*
Y042176D01*
X046824Y043223D02*
X047029D01*
X046926Y043121D02*
Y043326D01*
X047324Y04275D02*
X047529D01*
X047426Y042648D02*
Y042852D01*
X046718Y044673D02*
X046935D01*
X046826Y044565D02*
Y044781D01*
X04661Y044191D02*
Y045155D01*
X047043Y044191D02*
Y045155D01*
X04661Y044191D02*
X047043Y044191D01*
X04661Y045155D02*
X047043D01*
X045924Y044923D02*
X046129D01*
X046026Y044821D02*
Y045026D01*
X045074Y044923D02*
X045279D01*
X045176Y044821D02*
Y045026D01*
X04336Y045205D02*
X043793D01*
X04336Y044241D02*
X043793Y044241D01*
X04336Y044241D02*
Y045205D01*
X043793Y044241D02*
Y045205D01*
X043576Y044615D02*
Y044831D01*
X043468Y044723D02*
X043685D01*
X041839D02*
X042213D01*
X042026Y044536D02*
Y04491D01*
X042664Y043317D02*
X042971Y043011D01*
X041982Y042635D02*
X042289Y042329D01*
X041982Y042635D02*
X042664Y043317D01*
X042289Y042329D02*
X042971Y043011D01*
X0424Y042747D02*
X042553Y0429D01*
X0424Y0429D02*
X042553Y042747D01*
X039839Y039973D02*
X040213D01*
X040026Y039786D02*
Y04016D01*
X042489Y044723D02*
X042863D01*
X042676Y044536D02*
X042676Y04491D01*
X042326Y044236D02*
Y04461D01*
X042139Y044423D02*
X042513D01*
X042037Y041762D02*
X042316Y041484D01*
X042037D02*
X042316Y041762D01*
X039039Y041073D02*
X039413D01*
X039226Y040886D02*
Y04126D01*
X036089Y045073D02*
X036463D01*
X036276Y044886D02*
Y04526D01*
X03858Y044323D02*
X038973D01*
X038776Y044126D02*
Y04452D01*
X038221Y041136D02*
Y04151D01*
X038034Y041323D02*
X038408D01*
X037676Y043186D02*
Y04356D01*
X037489Y043373D02*
X037863D01*
X037318Y041073D02*
X037535D01*
X037426Y040965D02*
Y041181D01*
X03721Y040591D02*
Y041555D01*
X037643Y040591D02*
Y041555D01*
X03721Y041555D02*
X037643Y041555D01*
X03721Y040591D02*
X037643D01*
X044176Y039486D02*
Y03986D01*
X043989Y039673D02*
X044363D01*
X044676Y040136D02*
Y04051D01*
X044489Y040323D02*
X044863D01*
D67*
X020304Y01858D02*
X021642D01*
X020304D02*
Y020202D01*
X021642D01*
Y01858D02*
Y020202D01*
X019204Y019896D02*
Y020487D01*
X018141Y019896D02*
Y020487D01*
X019204D01*
X018141Y019896D02*
X019204D01*
X019323D02*
X020423D01*
X019323Y020487D02*
X020423D01*
X019323Y019896D02*
Y020487D01*
X020423Y019896D02*
Y020487D01*
X032176Y018317D02*
X03257Y018317D01*
X032176Y019065D02*
X03257D01*
X032176Y018317D02*
Y019065D01*
X03257Y018317D02*
Y019065D01*
X021078Y01571D02*
X021668D01*
X021078Y016773D02*
X021668Y016773D01*
Y01571D02*
Y016773D01*
X021078Y01571D02*
Y016773D01*
X028026Y016467D02*
X02842Y016467D01*
X028026Y017215D02*
X02842D01*
X028026Y016467D02*
Y017215D01*
X02842Y016467D02*
Y017215D01*
X032097Y018688D02*
X032097Y018294D01*
X031349D02*
Y018688D01*
Y018294D02*
X032097D01*
X031349Y018688D02*
X032097D01*
X030522Y018294D02*
X03127D01*
X030522Y018688D02*
X03127D01*
Y018294D02*
Y018688D01*
X030522Y018294D02*
Y018688D01*
X031847Y017888D02*
X031847Y017494D01*
X031099D02*
Y017888D01*
Y017494D02*
X031847D01*
X031099Y017888D02*
X031847D01*
X031847Y016994D02*
X031847Y017388D01*
X031099D02*
X031099Y016994D01*
X031847D01*
X031099Y017388D02*
X031847D01*
X03047Y017967D02*
Y018715D01*
X030076Y017967D02*
Y018715D01*
X03047Y018715D01*
X030076Y017967D02*
X03047Y017967D01*
X03097Y017494D02*
Y018242D01*
X030576Y017494D02*
Y018242D01*
X03097D01*
X030576Y017494D02*
X03097Y017494D01*
X029747Y020238D02*
X029747Y019844D01*
X028999D02*
Y020238D01*
Y019844D02*
X029747D01*
X028999Y020238D02*
X029747D01*
X028149Y020238D02*
X028149Y019844D01*
X028897D02*
Y020238D01*
X028149D02*
X028897D01*
X028149Y019844D02*
X028897D01*
X025456Y015507D02*
X026486Y016537D01*
X025818Y017205D02*
X026486Y016537D01*
X024788Y016175D02*
X025818Y017205D01*
X024788Y016175D02*
X025456Y015507D01*
X025078Y019291D02*
Y020391D01*
X025668Y019291D02*
Y020391D01*
X025078Y020391D02*
X025668Y020391D01*
X025078Y019291D02*
X025668Y019291D01*
X023904Y014796D02*
X023904Y015387D01*
X022841D02*
X022841Y014796D01*
X023904D01*
X022841Y015387D02*
X023904D01*
X015885Y017441D02*
X016161D01*
X016023Y017304D02*
Y017579D01*
X029947Y017515D02*
Y019566D01*
X027896Y017515D02*
Y019566D01*
X029947D01*
X027896Y017515D02*
X029947D01*
X026318Y020373D02*
X026318Y01931D01*
X025728Y020373D02*
X025728Y01931D01*
X026318Y01931D01*
X025728Y020373D02*
X026318Y020373D01*
X025141Y019246D02*
X026204D01*
X025141Y019837D02*
X026204D01*
Y019246D02*
Y019837D01*
X025141Y019246D02*
X025141Y019837D01*
X025523Y013846D02*
X028418Y016741D01*
X022628D02*
X025523Y019637D01*
X022628Y016741D02*
X025523Y013846D01*
Y019637D02*
X028418Y016741D01*
X022278Y01566D02*
Y016723D01*
X022868Y01566D02*
Y016723D01*
X022278Y01566D02*
X022868Y01566D01*
X022278Y016723D02*
X022868Y016723D01*
X020154Y019896D02*
X020154Y020487D01*
X019091D02*
X019091Y019896D01*
X020154D01*
X019091Y020487D02*
X020154D01*
X02169Y02041D02*
X022556D01*
Y018473D02*
Y02041D01*
X02169Y018473D02*
Y02041D01*
Y018473D02*
X022556D01*
X029927Y016119D02*
Y017064D01*
X028471D02*
X029927D01*
X028471Y016119D02*
Y017064D01*
Y016119D02*
X029927D01*
X021036Y016737D02*
X022099D01*
X021036Y016146D02*
X022099D01*
X021036D02*
X021036Y016737D01*
X022099Y016146D02*
Y016737D01*
X020491Y018196D02*
X021554D01*
X020491Y018787D02*
X021554D01*
Y018196D02*
Y018787D01*
X020491Y018196D02*
Y018787D01*
X026991Y014496D02*
X028054D01*
X026991Y015087D02*
X028054D01*
X028054Y014496D02*
X028054Y015087D01*
X026991Y014496D02*
Y015087D01*
X027491Y015146D02*
X028554D01*
X027491Y015737D02*
X028554D01*
X028554Y015146D01*
X027491D02*
X027491Y015737D01*
X019992Y018116D02*
X021654D01*
Y016767D02*
Y018116D01*
X019992Y016767D02*
X021654D01*
X019992D02*
Y018116D01*
X032913Y016922D02*
X038358D01*
X032913D02*
Y019835D01*
X038358D01*
Y016922D02*
Y019835D01*
X022687Y018556D02*
Y020327D01*
X024459D01*
Y018556D02*
Y020327D01*
X022687Y018556D02*
X024459D01*
X036957Y01858D02*
X038296D01*
X036957D02*
Y020202D01*
X038296D01*
Y01858D02*
Y020202D01*
X035858Y019896D02*
Y020487D01*
X034795Y019896D02*
Y020487D01*
X035858D01*
X034795Y019896D02*
X035858D01*
X035976D02*
X037076D01*
X035976Y020487D02*
X037076D01*
X035976Y019896D02*
Y020487D01*
X037076Y019896D02*
Y020487D01*
X04883Y018317D02*
X049223Y018317D01*
X04883Y019065D02*
X049223D01*
X04883Y018317D02*
Y019065D01*
X049223Y018317D02*
Y019065D01*
X037731Y01571D02*
X038322D01*
X037731Y016773D02*
X038322Y016773D01*
Y01571D02*
Y016773D01*
X037731Y01571D02*
Y016773D01*
X04468Y016467D02*
X045073Y016467D01*
X04468Y017215D02*
X045073D01*
X04468Y016467D02*
Y017215D01*
X045073Y016467D02*
Y017215D01*
X04875Y018688D02*
X04875Y018294D01*
X048002D02*
Y018688D01*
Y018294D02*
X04875D01*
X048002Y018688D02*
X04875D01*
X047176Y018294D02*
X047924D01*
X047176Y018688D02*
X047924D01*
Y018294D02*
Y018688D01*
X047176Y018294D02*
Y018688D01*
X0485Y017888D02*
X0485Y017494D01*
X047752D02*
Y017888D01*
Y017494D02*
X0485D01*
X047752Y017888D02*
X0485D01*
X0485Y016994D02*
X0485Y017388D01*
X047752D02*
X047752Y016994D01*
X0485D01*
X047752Y017388D02*
X0485D01*
X047123Y017967D02*
Y018715D01*
X04673Y017967D02*
Y018715D01*
X047123Y018715D01*
X04673Y017967D02*
X047123Y017967D01*
X047623Y017494D02*
Y018242D01*
X04723Y017494D02*
Y018242D01*
X047623D01*
X04723Y017494D02*
X047623Y017494D01*
X0464Y020238D02*
X0464Y019844D01*
X045652D02*
Y020238D01*
Y019844D02*
X0464D01*
X045652Y020238D02*
X0464D01*
X044802Y020238D02*
X044802Y019844D01*
X04555D02*
Y020238D01*
X044802D02*
X04555D01*
X044802Y019844D02*
X04555D01*
X04211Y015507D02*
X04314Y016537D01*
X042472Y017205D02*
X04314Y016537D01*
X041442Y016175D02*
X042472Y017205D01*
X041442Y016175D02*
X04211Y015507D01*
X041731Y019291D02*
Y020391D01*
X042322Y019291D02*
Y020391D01*
X041731Y020391D02*
X042322Y020391D01*
X041731Y019291D02*
X042322Y019291D01*
X040558Y014796D02*
X040558Y015387D01*
X039495D02*
X039495Y014796D01*
X040558D01*
X039495Y015387D02*
X040558D01*
X032539Y017441D02*
X032814D01*
X032676Y017304D02*
Y017579D01*
X046601Y017515D02*
Y019566D01*
X04455Y017515D02*
Y019566D01*
X046601D01*
X04455Y017515D02*
X046601D01*
X042972Y020373D02*
X042972Y01931D01*
X042381Y020373D02*
X042381Y01931D01*
X042972Y01931D01*
X042381Y020373D02*
X042972Y020373D01*
X041795Y019246D02*
X042858D01*
X041795Y019837D02*
X042858D01*
Y019246D02*
Y019837D01*
X041795Y019246D02*
X041795Y019837D01*
X042176Y013846D02*
X045072Y016741D01*
X039281D02*
X042176Y019637D01*
X039281Y016741D02*
X042176Y013846D01*
Y019637D02*
X045072Y016741D01*
X038931Y01566D02*
Y016723D01*
X039522Y01566D02*
Y016723D01*
X038931Y01566D02*
X039522Y01566D01*
X038931Y016723D02*
X039522Y016723D01*
X036808Y019896D02*
X036808Y020487D01*
X035745D02*
X035745Y019896D01*
X036808D01*
X035745Y020487D02*
X036808D01*
X038343Y02041D02*
X03921D01*
Y018473D02*
Y02041D01*
X038343Y018473D02*
Y02041D01*
Y018473D02*
X03921D01*
X046581Y016119D02*
Y017064D01*
X045124D02*
X046581D01*
X045124Y016119D02*
Y017064D01*
Y016119D02*
X046581D01*
X037689Y016737D02*
X038752D01*
X037689Y016146D02*
X038752D01*
X037689D02*
X037689Y016737D01*
X038752Y016146D02*
Y016737D01*
X037145Y018196D02*
X038208D01*
X037145Y018787D02*
X038208D01*
Y018196D02*
Y018787D01*
X037145Y018196D02*
Y018787D01*
X043645Y014496D02*
X044708D01*
X043645Y015087D02*
X044708D01*
X044708Y014496D02*
X044708Y015087D01*
X043645Y014496D02*
Y015087D01*
X044145Y015146D02*
X045208D01*
X044145Y015737D02*
X045208D01*
X045208Y015146D01*
X044145D02*
X044145Y015737D01*
X036646Y018116D02*
X038307D01*
Y016767D02*
Y018116D01*
X036646Y016767D02*
X038307D01*
X036646D02*
Y018116D01*
X049567Y016922D02*
X055012D01*
X049567D02*
Y019835D01*
X055012D01*
Y016922D02*
Y019835D01*
X039341Y018556D02*
Y020327D01*
X041112D01*
Y018556D02*
Y020327D01*
X039341Y018556D02*
X041112D01*
X020304Y024801D02*
X021642D01*
X020304D02*
Y026423D01*
X021642D01*
Y024801D02*
Y026423D01*
X019204Y026117D02*
Y026707D01*
X018141Y026117D02*
Y026707D01*
X019204D01*
X018141Y026117D02*
X019204D01*
X019323D02*
X020423D01*
X019323Y026707D02*
X020423D01*
X019323Y026117D02*
Y026707D01*
X020423Y026117D02*
Y026707D01*
X032176Y024538D02*
X03257Y024538D01*
X032176Y025286D02*
X03257D01*
X032176Y024538D02*
Y025286D01*
X03257Y024538D02*
Y025286D01*
X021078Y02193D02*
X021668D01*
X021078Y022993D02*
X021668Y022993D01*
Y02193D02*
Y022993D01*
X021078Y02193D02*
Y022993D01*
X028026Y022688D02*
X02842Y022688D01*
X028026Y023436D02*
X02842D01*
X028026Y022688D02*
Y023436D01*
X02842Y022688D02*
Y023436D01*
X032097Y024909D02*
X032097Y024515D01*
X031349D02*
Y024909D01*
Y024515D02*
X032097D01*
X031349Y024909D02*
X032097D01*
X030522Y024515D02*
X03127D01*
X030522Y024909D02*
X03127D01*
Y024515D02*
Y024909D01*
X030522Y024515D02*
Y024909D01*
X031847Y024109D02*
X031847Y023715D01*
X031099D02*
Y024109D01*
Y023715D02*
X031847D01*
X031099Y024109D02*
X031847D01*
X031847Y023215D02*
X031847Y023609D01*
X031099D02*
X031099Y023215D01*
X031847D01*
X031099Y023609D02*
X031847D01*
X03047Y024188D02*
Y024936D01*
X030076Y024188D02*
Y024936D01*
X03047Y024936D01*
X030076Y024188D02*
X03047Y024188D01*
X03097Y023715D02*
Y024463D01*
X030576Y023715D02*
Y024463D01*
X03097D01*
X030576Y023715D02*
X03097Y023715D01*
X029747Y026459D02*
X029747Y026065D01*
X028999D02*
Y026459D01*
Y026065D02*
X029747D01*
X028999Y026459D02*
X029747D01*
X028149Y026459D02*
X028149Y026065D01*
X028897D02*
Y026459D01*
X028149D02*
X028897D01*
X028149Y026065D02*
X028897D01*
X025456Y021727D02*
X026486Y022757D01*
X025818Y023425D02*
X026486Y022757D01*
X024788Y022395D02*
X025818Y023425D01*
X024788Y022395D02*
X025456Y021727D01*
X025078Y025512D02*
Y026612D01*
X025668Y025512D02*
Y026612D01*
X025078Y026612D02*
X025668Y026612D01*
X025078Y025512D02*
X025668Y025512D01*
X023904Y021017D02*
X023904Y021607D01*
X022841D02*
X022841Y021017D01*
X023904D01*
X022841Y021607D02*
X023904D01*
X015885Y023662D02*
X016161D01*
X016023Y023524D02*
Y0238D01*
X029947Y023735D02*
Y025786D01*
X027896Y023735D02*
Y025786D01*
X029947D01*
X027896Y023735D02*
X029947D01*
X026318Y026593D02*
X026318Y02553D01*
X025728Y026593D02*
X025728Y02553D01*
X026318Y02553D01*
X025728Y026593D02*
X026318Y026593D01*
X025141Y025467D02*
X026204D01*
X025141Y026057D02*
X026204D01*
Y025467D02*
Y026057D01*
X025141Y025467D02*
X025141Y026057D01*
X025523Y020067D02*
X028418Y022962D01*
X022628D02*
X025523Y025857D01*
X022628Y022962D02*
X025523Y020067D01*
Y025857D02*
X028418Y022962D01*
X022278Y02188D02*
Y022943D01*
X022868Y02188D02*
Y022943D01*
X022278Y02188D02*
X022868Y02188D01*
X022278Y022943D02*
X022868Y022943D01*
X020154Y026117D02*
X020154Y026707D01*
X019091D02*
X019091Y026117D01*
X020154D01*
X019091Y026707D02*
X020154D01*
X02169Y02663D02*
X022556D01*
Y024693D02*
Y02663D01*
X02169Y024693D02*
Y02663D01*
Y024693D02*
X022556D01*
X029927Y022339D02*
Y023284D01*
X028471D02*
X029927D01*
X028471Y022339D02*
Y023284D01*
Y022339D02*
X029927D01*
X021036Y022957D02*
X022099D01*
X021036Y022367D02*
X022099D01*
X021036D02*
X021036Y022957D01*
X022099Y022367D02*
Y022957D01*
X020491Y024417D02*
X021554D01*
X020491Y025007D02*
X021554D01*
Y024417D02*
Y025007D01*
X020491Y024417D02*
Y025007D01*
X026991Y020717D02*
X028054D01*
X026991Y021307D02*
X028054D01*
X028054Y020717D02*
X028054Y021307D01*
X026991Y020717D02*
Y021307D01*
X027491Y021367D02*
X028554D01*
X027491Y021957D02*
X028554D01*
X028554Y021367D01*
X027491D02*
X027491Y021957D01*
X019992Y024336D02*
X021654D01*
Y022988D02*
Y024336D01*
X019992Y022988D02*
X021654D01*
X019992D02*
Y024336D01*
X032913Y023142D02*
X038358D01*
X032913D02*
Y026056D01*
X038358D01*
Y023142D02*
Y026056D01*
X022687Y024776D02*
Y026548D01*
X024459D01*
Y024776D02*
Y026548D01*
X022687Y024776D02*
X024459D01*
X036957Y024801D02*
X038296D01*
X036957D02*
Y026423D01*
X038296D01*
Y024801D02*
Y026423D01*
X035858Y026117D02*
Y026707D01*
X034795Y026117D02*
Y026707D01*
X035858D01*
X034795Y026117D02*
X035858D01*
X035976D02*
X037076D01*
X035976Y026707D02*
X037076D01*
X035976Y026117D02*
Y026707D01*
X037076Y026117D02*
Y026707D01*
X04883Y024538D02*
X049223Y024538D01*
X04883Y025286D02*
X049223D01*
X04883Y024538D02*
Y025286D01*
X049223Y024538D02*
Y025286D01*
X037731Y02193D02*
X038322D01*
X037731Y022993D02*
X038322Y022993D01*
Y02193D02*
Y022993D01*
X037731Y02193D02*
Y022993D01*
X04468Y022688D02*
X045073Y022688D01*
X04468Y023436D02*
X045073D01*
X04468Y022688D02*
Y023436D01*
X045073Y022688D02*
Y023436D01*
X04875Y024909D02*
X04875Y024515D01*
X048002D02*
Y024909D01*
Y024515D02*
X04875D01*
X048002Y024909D02*
X04875D01*
X047176Y024515D02*
X047924D01*
X047176Y024909D02*
X047924D01*
Y024515D02*
Y024909D01*
X047176Y024515D02*
Y024909D01*
X0485Y024109D02*
X0485Y023715D01*
X047752D02*
Y024109D01*
Y023715D02*
X0485D01*
X047752Y024109D02*
X0485D01*
X0485Y023215D02*
X0485Y023609D01*
X047752D02*
X047752Y023215D01*
X0485D01*
X047752Y023609D02*
X0485D01*
X047123Y024188D02*
Y024936D01*
X04673Y024188D02*
Y024936D01*
X047123Y024936D01*
X04673Y024188D02*
X047123Y024188D01*
X047623Y023715D02*
Y024463D01*
X04723Y023715D02*
Y024463D01*
X047623D01*
X04723Y023715D02*
X047623Y023715D01*
X0464Y026459D02*
X0464Y026065D01*
X045652D02*
Y026459D01*
Y026065D02*
X0464D01*
X045652Y026459D02*
X0464D01*
X044802Y026459D02*
X044802Y026065D01*
X04555D02*
Y026459D01*
X044802D02*
X04555D01*
X044802Y026065D02*
X04555D01*
X04211Y021727D02*
X04314Y022757D01*
X042472Y023425D02*
X04314Y022757D01*
X041442Y022395D02*
X042472Y023425D01*
X041442Y022395D02*
X04211Y021727D01*
X041731Y025512D02*
Y026612D01*
X042322Y025512D02*
Y026612D01*
X041731Y026612D02*
X042322Y026612D01*
X041731Y025512D02*
X042322Y025512D01*
X040558Y021017D02*
X040558Y021607D01*
X039495D02*
X039495Y021017D01*
X040558D01*
X039495Y021607D02*
X040558D01*
X032539Y023662D02*
X032814D01*
X032676Y023524D02*
Y0238D01*
X046601Y023735D02*
Y025786D01*
X04455Y023735D02*
Y025786D01*
X046601D01*
X04455Y023735D02*
X046601D01*
X042972Y026593D02*
X042972Y02553D01*
X042381Y026593D02*
X042381Y02553D01*
X042972Y02553D01*
X042381Y026593D02*
X042972Y026593D01*
X041795Y025467D02*
X042858D01*
X041795Y026057D02*
X042858D01*
Y025467D02*
Y026057D01*
X041795Y025467D02*
X041795Y026057D01*
X042176Y020067D02*
X045072Y022962D01*
X039281D02*
X042176Y025857D01*
X039281Y022962D02*
X042176Y020067D01*
Y025857D02*
X045072Y022962D01*
X038931Y02188D02*
Y022943D01*
X039522Y02188D02*
Y022943D01*
X038931Y02188D02*
X039522Y02188D01*
X038931Y022943D02*
X039522Y022943D01*
X036808Y026117D02*
X036808Y026707D01*
X035745D02*
X035745Y026117D01*
X036808D01*
X035745Y026707D02*
X036808D01*
X038343Y02663D02*
X03921D01*
Y024693D02*
Y02663D01*
X038343Y024693D02*
Y02663D01*
Y024693D02*
X03921D01*
X046581Y022339D02*
Y023284D01*
X045124D02*
X046581D01*
X045124Y022339D02*
Y023284D01*
Y022339D02*
X046581D01*
X037689Y022957D02*
X038752D01*
X037689Y022367D02*
X038752D01*
X037689D02*
X037689Y022957D01*
X038752Y022367D02*
Y022957D01*
X037145Y024417D02*
X038208D01*
X037145Y025007D02*
X038208D01*
Y024417D02*
Y025007D01*
X037145Y024417D02*
Y025007D01*
X043645Y020717D02*
X044708D01*
X043645Y021307D02*
X044708D01*
X044708Y020717D02*
X044708Y021307D01*
X043645Y020717D02*
Y021307D01*
X044145Y021367D02*
X045208D01*
X044145Y021957D02*
X045208D01*
X045208Y021367D01*
X044145D02*
X044145Y021957D01*
X036646Y024336D02*
X038307D01*
Y022988D02*
Y024336D01*
X036646Y022988D02*
X038307D01*
X036646D02*
Y024336D01*
X049567Y023142D02*
X055012D01*
X049567D02*
Y026056D01*
X055012D01*
Y023142D02*
Y026056D01*
X039341Y024776D02*
Y026548D01*
X041112D01*
Y024776D02*
Y026548D01*
X039341Y024776D02*
X041112D01*
X020304Y031021D02*
X021642D01*
X020304D02*
Y032643D01*
X021642D01*
Y031021D02*
Y032643D01*
X019204Y032337D02*
Y032928D01*
X018141Y032337D02*
Y032928D01*
X019204D01*
X018141Y032337D02*
X019204D01*
X019323D02*
X020423D01*
X019323Y032928D02*
X020423D01*
X019323Y032337D02*
Y032928D01*
X020423Y032337D02*
Y032928D01*
X032176Y030758D02*
X03257Y030758D01*
X032176Y031506D02*
X03257D01*
X032176Y030758D02*
Y031506D01*
X03257Y030758D02*
Y031506D01*
X021078Y028151D02*
X021668D01*
X021078Y029214D02*
X021668Y029214D01*
Y028151D02*
Y029214D01*
X021078Y028151D02*
Y029214D01*
X028026Y028908D02*
X02842Y028908D01*
X028026Y029656D02*
X02842D01*
X028026Y028908D02*
Y029656D01*
X02842Y028908D02*
Y029656D01*
X032097Y031129D02*
X032097Y030735D01*
X031349D02*
Y031129D01*
Y030735D02*
X032097D01*
X031349Y031129D02*
X032097D01*
X030522Y030735D02*
X03127D01*
X030522Y031129D02*
X03127D01*
Y030735D02*
Y031129D01*
X030522Y030735D02*
Y031129D01*
X031847Y030329D02*
X031847Y029935D01*
X031099D02*
Y030329D01*
Y029935D02*
X031847D01*
X031099Y030329D02*
X031847D01*
X031847Y029435D02*
X031847Y029829D01*
X031099D02*
X031099Y029435D01*
X031847D01*
X031099Y029829D02*
X031847D01*
X03047Y030408D02*
Y031156D01*
X030076Y030408D02*
Y031156D01*
X03047Y031156D01*
X030076Y030408D02*
X03047Y030408D01*
X03097Y029935D02*
Y030683D01*
X030576Y029935D02*
Y030683D01*
X03097D01*
X030576Y029935D02*
X03097Y029935D01*
X029747Y032679D02*
X029747Y032285D01*
X028999D02*
Y032679D01*
Y032285D02*
X029747D01*
X028999Y032679D02*
X029747D01*
X028149Y032679D02*
X028149Y032285D01*
X028897D02*
Y032679D01*
X028149D02*
X028897D01*
X028149Y032285D02*
X028897D01*
X025456Y027948D02*
X026486Y028978D01*
X025818Y029646D02*
X026486Y028978D01*
X024788Y028616D02*
X025818Y029646D01*
X024788Y028616D02*
X025456Y027948D01*
X025078Y031732D02*
Y032832D01*
X025668Y031732D02*
Y032832D01*
X025078Y032832D02*
X025668Y032832D01*
X025078Y031732D02*
X025668Y031732D01*
X023904Y027237D02*
X023904Y027828D01*
X022841D02*
X022841Y027237D01*
X023904D01*
X022841Y027828D02*
X023904D01*
X015885Y029882D02*
X016161D01*
X016023Y029744D02*
Y03002D01*
X029947Y029955D02*
Y032007D01*
X027896Y029955D02*
Y032007D01*
X029947D01*
X027896Y029955D02*
X029947D01*
X026318Y032814D02*
X026318Y031751D01*
X025728Y032814D02*
X025728Y031751D01*
X026318Y031751D01*
X025728Y032814D02*
X026318Y032814D01*
X025141Y031687D02*
X026204D01*
X025141Y032278D02*
X026204D01*
Y031687D02*
Y032278D01*
X025141Y031687D02*
X025141Y032278D01*
X025523Y026287D02*
X028418Y029182D01*
X022628D02*
X025523Y032078D01*
X022628Y029182D02*
X025523Y026287D01*
Y032078D02*
X028418Y029182D01*
X022278Y028101D02*
Y029164D01*
X022868Y028101D02*
Y029164D01*
X022278Y028101D02*
X022868Y028101D01*
X022278Y029164D02*
X022868Y029164D01*
X020154Y032337D02*
X020154Y032928D01*
X019091D02*
X019091Y032337D01*
X020154D01*
X019091Y032928D02*
X020154D01*
X02169Y032851D02*
X022556D01*
Y030914D02*
Y032851D01*
X02169Y030914D02*
Y032851D01*
Y030914D02*
X022556D01*
X029927Y02856D02*
Y029505D01*
X028471D02*
X029927D01*
X028471Y02856D02*
Y029505D01*
Y02856D02*
X029927D01*
X021036Y029178D02*
X022099D01*
X021036Y028587D02*
X022099D01*
X021036D02*
X021036Y029178D01*
X022099Y028587D02*
Y029178D01*
X020491Y030637D02*
X021554D01*
X020491Y031228D02*
X021554D01*
Y030637D02*
Y031228D01*
X020491Y030637D02*
Y031228D01*
X026991Y026937D02*
X028054D01*
X026991Y027528D02*
X028054D01*
X028054Y026937D02*
X028054Y027528D01*
X026991Y026937D02*
Y027528D01*
X027491Y027587D02*
X028554D01*
X027491Y028178D02*
X028554D01*
X028554Y027587D01*
X027491D02*
X027491Y028178D01*
X019992Y030556D02*
X021654D01*
Y029208D02*
Y030556D01*
X019992Y029208D02*
X021654D01*
X019992D02*
Y030556D01*
X032913Y029363D02*
X038358D01*
X032913D02*
Y032276D01*
X038358D01*
Y029363D02*
Y032276D01*
X022687Y030996D02*
Y032768D01*
X024459D01*
Y030996D02*
Y032768D01*
X022687Y030996D02*
X024459D01*
X036957Y031021D02*
X038296D01*
X036957D02*
Y032643D01*
X038296D01*
Y031021D02*
Y032643D01*
X035858Y032337D02*
Y032928D01*
X034795Y032337D02*
Y032928D01*
X035858D01*
X034795Y032337D02*
X035858D01*
X035976D02*
X037076D01*
X035976Y032928D02*
X037076D01*
X035976Y032337D02*
Y032928D01*
X037076Y032337D02*
Y032928D01*
X04883Y030758D02*
X049223Y030758D01*
X04883Y031506D02*
X049223D01*
X04883Y030758D02*
Y031506D01*
X049223Y030758D02*
Y031506D01*
X037731Y028151D02*
X038322D01*
X037731Y029214D02*
X038322Y029214D01*
Y028151D02*
Y029214D01*
X037731Y028151D02*
Y029214D01*
X04468Y028908D02*
X045073Y028908D01*
X04468Y029656D02*
X045073D01*
X04468Y028908D02*
Y029656D01*
X045073Y028908D02*
Y029656D01*
X04875Y031129D02*
X04875Y030735D01*
X048002D02*
Y031129D01*
Y030735D02*
X04875D01*
X048002Y031129D02*
X04875D01*
X047176Y030735D02*
X047924D01*
X047176Y031129D02*
X047924D01*
Y030735D02*
Y031129D01*
X047176Y030735D02*
Y031129D01*
X0485Y030329D02*
X0485Y029935D01*
X047752D02*
Y030329D01*
Y029935D02*
X0485D01*
X047752Y030329D02*
X0485D01*
X0485Y029435D02*
X0485Y029829D01*
X047752D02*
X047752Y029435D01*
X0485D01*
X047752Y029829D02*
X0485D01*
X047123Y030408D02*
Y031156D01*
X04673Y030408D02*
Y031156D01*
X047123Y031156D01*
X04673Y030408D02*
X047123Y030408D01*
X047623Y029935D02*
Y030683D01*
X04723Y029935D02*
Y030683D01*
X047623D01*
X04723Y029935D02*
X047623Y029935D01*
X0464Y032679D02*
X0464Y032285D01*
X045652D02*
Y032679D01*
Y032285D02*
X0464D01*
X045652Y032679D02*
X0464D01*
X044802Y032679D02*
X044802Y032285D01*
X04555D02*
Y032679D01*
X044802D02*
X04555D01*
X044802Y032285D02*
X04555D01*
X04211Y027948D02*
X04314Y028978D01*
X042472Y029646D02*
X04314Y028978D01*
X041442Y028616D02*
X042472Y029646D01*
X041442Y028616D02*
X04211Y027948D01*
X041731Y031732D02*
Y032832D01*
X042322Y031732D02*
Y032832D01*
X041731Y032832D02*
X042322Y032832D01*
X041731Y031732D02*
X042322Y031732D01*
X040558Y027237D02*
X040558Y027828D01*
X039495D02*
X039495Y027237D01*
X040558D01*
X039495Y027828D02*
X040558D01*
X032539Y029882D02*
X032814D01*
X032676Y029744D02*
Y03002D01*
X046601Y029955D02*
Y032007D01*
X04455Y029955D02*
Y032007D01*
X046601D01*
X04455Y029955D02*
X046601D01*
X042972Y032814D02*
X042972Y031751D01*
X042381Y032814D02*
X042381Y031751D01*
X042972Y031751D01*
X042381Y032814D02*
X042972Y032814D01*
X041795Y031687D02*
X042858D01*
X041795Y032278D02*
X042858D01*
Y031687D02*
Y032278D01*
X041795Y031687D02*
X041795Y032278D01*
X042176Y026287D02*
X045072Y029182D01*
X039281D02*
X042176Y032078D01*
X039281Y029182D02*
X042176Y026287D01*
Y032078D02*
X045072Y029182D01*
X038931Y028101D02*
Y029164D01*
X039522Y028101D02*
Y029164D01*
X038931Y028101D02*
X039522Y028101D01*
X038931Y029164D02*
X039522Y029164D01*
X036808Y032337D02*
X036808Y032928D01*
X035745D02*
X035745Y032337D01*
X036808D01*
X035745Y032928D02*
X036808D01*
X038343Y032851D02*
X03921D01*
Y030914D02*
Y032851D01*
X038343Y030914D02*
Y032851D01*
Y030914D02*
X03921D01*
X046581Y02856D02*
Y029505D01*
X045124D02*
X046581D01*
X045124Y02856D02*
Y029505D01*
Y02856D02*
X046581D01*
X037689Y029178D02*
X038752D01*
X037689Y028587D02*
X038752D01*
X037689D02*
X037689Y029178D01*
X038752Y028587D02*
Y029178D01*
X037145Y030637D02*
X038208D01*
X037145Y031228D02*
X038208D01*
Y030637D02*
Y031228D01*
X037145Y030637D02*
Y031228D01*
X043645Y026937D02*
X044708D01*
X043645Y027528D02*
X044708D01*
X044708Y026937D02*
X044708Y027528D01*
X043645Y026937D02*
Y027528D01*
X044145Y027587D02*
X045208D01*
X044145Y028178D02*
X045208D01*
X045208Y027587D01*
X044145D02*
X044145Y028178D01*
X036646Y030556D02*
X038307D01*
Y029208D02*
Y030556D01*
X036646Y029208D02*
X038307D01*
X036646D02*
Y030556D01*
X049567Y029363D02*
X055012D01*
X049567D02*
Y032276D01*
X055012D01*
Y029363D02*
Y032276D01*
X039341Y030996D02*
Y032768D01*
X041112D01*
Y030996D02*
Y032768D01*
X039341Y030996D02*
X041112D01*
X020304Y037242D02*
X021642D01*
X020304D02*
Y038864D01*
X021642D01*
Y037242D02*
Y038864D01*
X019204Y038557D02*
Y039148D01*
X018141Y038557D02*
Y039148D01*
X019204D01*
X018141Y038557D02*
X019204D01*
X019323D02*
X020423D01*
X019323Y039148D02*
X020423D01*
X019323Y038557D02*
Y039148D01*
X020423Y038557D02*
Y039148D01*
X032176Y036979D02*
X03257Y036979D01*
X032176Y037727D02*
X03257D01*
X032176Y036979D02*
Y037727D01*
X03257Y036979D02*
Y037727D01*
X021078Y034371D02*
X021668D01*
X021078Y035434D02*
X021668Y035434D01*
Y034371D02*
Y035434D01*
X021078Y034371D02*
Y035434D01*
X028026Y035129D02*
X02842Y035129D01*
X028026Y035877D02*
X02842D01*
X028026Y035129D02*
Y035877D01*
X02842Y035129D02*
Y035877D01*
X032097Y03735D02*
X032097Y036956D01*
X031349D02*
Y03735D01*
Y036956D02*
X032097D01*
X031349Y03735D02*
X032097D01*
X030522Y036956D02*
X03127D01*
X030522Y03735D02*
X03127D01*
Y036956D02*
Y03735D01*
X030522Y036956D02*
Y03735D01*
X031847Y03655D02*
X031847Y036156D01*
X031099D02*
Y03655D01*
Y036156D02*
X031847D01*
X031099Y03655D02*
X031847D01*
X031847Y035656D02*
X031847Y03605D01*
X031099D02*
X031099Y035656D01*
X031847D01*
X031099Y03605D02*
X031847D01*
X03047Y036629D02*
Y037377D01*
X030076Y036629D02*
Y037377D01*
X03047Y037377D01*
X030076Y036629D02*
X03047Y036629D01*
X03097Y036156D02*
Y036904D01*
X030576Y036155D02*
Y036904D01*
X03097D01*
X030576Y036155D02*
X03097Y036156D01*
X029747Y0389D02*
X029747Y038506D01*
X028999D02*
Y0389D01*
Y038506D02*
X029747D01*
X028999Y0389D02*
X029747D01*
X028149Y0389D02*
X028149Y038506D01*
X028897D02*
Y0389D01*
X028149D02*
X028897D01*
X028149Y038506D02*
X028897D01*
X025456Y034168D02*
X026486Y035198D01*
X025818Y035866D02*
X026486Y035198D01*
X024788Y034836D02*
X025818Y035866D01*
X024788Y034836D02*
X025456Y034168D01*
X025078Y037953D02*
Y039053D01*
X025668Y037953D02*
Y039053D01*
X025078Y039053D02*
X025668Y039053D01*
X025078Y037953D02*
X025668Y037953D01*
X023904Y033457D02*
X023904Y034048D01*
X022841D02*
X022841Y033457D01*
X023904D01*
X022841Y034048D02*
X023904D01*
X015885Y036103D02*
X016161D01*
X016023Y035965D02*
Y036241D01*
X029947Y036176D02*
Y038227D01*
X027896Y036176D02*
Y038227D01*
X029947D01*
X027896Y036176D02*
X029947D01*
X026318Y039034D02*
X026318Y037971D01*
X025728Y039034D02*
X025728Y037971D01*
X026318Y037971D01*
X025728Y039034D02*
X026318Y039034D01*
X025141Y037907D02*
X026204D01*
X025141Y038498D02*
X026204D01*
Y037907D02*
Y038498D01*
X025141Y037907D02*
X025141Y038498D01*
X025523Y032508D02*
X028418Y035403D01*
X022628D02*
X025523Y038298D01*
X022628Y035403D02*
X025523Y032508D01*
Y038298D02*
X028418Y035403D01*
X022278Y034321D02*
Y035384D01*
X022868Y034321D02*
Y035384D01*
X022278Y034321D02*
X022868Y034321D01*
X022278Y035384D02*
X022868Y035384D01*
X020154Y038557D02*
X020154Y039148D01*
X019091D02*
X019091Y038557D01*
X020154D01*
X019091Y039148D02*
X020154D01*
X02169Y039071D02*
X022556D01*
Y037134D02*
Y039071D01*
X02169Y037134D02*
Y039071D01*
Y037134D02*
X022556D01*
X029927Y03478D02*
Y035725D01*
X028471D02*
X029927D01*
X028471Y03478D02*
Y035725D01*
Y03478D02*
X029927D01*
X021036Y035398D02*
X022099D01*
X021036Y034807D02*
X022099D01*
X021036D02*
X021036Y035398D01*
X022099Y034807D02*
Y035398D01*
X020491Y036857D02*
X021554D01*
X020491Y037448D02*
X021554D01*
Y036857D02*
Y037448D01*
X020491Y036857D02*
Y037448D01*
X026991Y033157D02*
X028054D01*
X026991Y033748D02*
X028054D01*
X028054Y033157D02*
X028054Y033748D01*
X026991Y033157D02*
Y033748D01*
X027491Y033807D02*
X028554D01*
X027491Y034398D02*
X028554D01*
X028554Y033807D01*
X027491D02*
X027491Y034398D01*
X019992Y036777D02*
X021654D01*
Y035429D02*
Y036777D01*
X019992Y035429D02*
X021654D01*
X019992D02*
Y036777D01*
X032913Y035583D02*
X038358D01*
X032913D02*
Y038496D01*
X038358D01*
Y035583D02*
Y038496D01*
X022687Y037217D02*
Y038989D01*
X024459D01*
Y037217D02*
Y038989D01*
X022687Y037217D02*
X024459D01*
X036957Y037242D02*
X038296D01*
X036957D02*
Y038864D01*
X038296D01*
Y037242D02*
Y038864D01*
X035858Y038557D02*
Y039148D01*
X034795Y038557D02*
Y039148D01*
X035858D01*
X034795Y038557D02*
X035858D01*
X035976D02*
X037076D01*
X035976Y039148D02*
X037076D01*
X035976Y038557D02*
Y039148D01*
X037076Y038557D02*
Y039148D01*
X04883Y036979D02*
X049223Y036979D01*
X04883Y037727D02*
X049223D01*
X04883Y036979D02*
Y037727D01*
X049223Y036979D02*
Y037727D01*
X037731Y034371D02*
X038322D01*
X037731Y035434D02*
X038322Y035434D01*
Y034371D02*
Y035434D01*
X037731Y034371D02*
Y035434D01*
X04468Y035129D02*
X045073Y035129D01*
X04468Y035877D02*
X045073D01*
X04468Y035129D02*
Y035877D01*
X045073Y035129D02*
Y035877D01*
X04875Y03735D02*
X04875Y036956D01*
X048002D02*
Y03735D01*
Y036956D02*
X04875D01*
X048002Y03735D02*
X04875D01*
X047176Y036956D02*
X047924D01*
X047176Y03735D02*
X047924D01*
Y036956D02*
Y03735D01*
X047176Y036956D02*
Y03735D01*
X0485Y03655D02*
X0485Y036156D01*
X047752D02*
Y03655D01*
Y036156D02*
X0485D01*
X047752Y03655D02*
X0485D01*
X0485Y035656D02*
X0485Y03605D01*
X047752D02*
X047752Y035656D01*
X0485D01*
X047752Y03605D02*
X0485D01*
X047123Y036629D02*
Y037377D01*
X04673Y036629D02*
Y037377D01*
X047123Y037377D01*
X04673Y036629D02*
X047123Y036629D01*
X047623Y036156D02*
Y036904D01*
X04723Y036155D02*
Y036904D01*
X047623D01*
X04723Y036155D02*
X047623Y036156D01*
X0464Y0389D02*
X0464Y038506D01*
X045652D02*
Y0389D01*
Y038506D02*
X0464D01*
X045652Y0389D02*
X0464D01*
X044802Y0389D02*
X044802Y038506D01*
X04555D02*
Y0389D01*
X044802D02*
X04555D01*
X044802Y038506D02*
X04555D01*
X04211Y034168D02*
X04314Y035198D01*
X042472Y035866D02*
X04314Y035198D01*
X041442Y034836D02*
X042472Y035866D01*
X041442Y034836D02*
X04211Y034168D01*
X041731Y037953D02*
Y039053D01*
X042322Y037953D02*
Y039053D01*
X041731Y039053D02*
X042322Y039053D01*
X041731Y037953D02*
X042322Y037953D01*
X040558Y033457D02*
X040558Y034048D01*
X039495D02*
X039495Y033457D01*
X040558D01*
X039495Y034048D02*
X040558D01*
X032539Y036103D02*
X032814D01*
X032676Y035965D02*
Y036241D01*
X046601Y036176D02*
Y038227D01*
X04455Y036176D02*
Y038227D01*
X046601D01*
X04455Y036176D02*
X046601D01*
X042972Y039034D02*
X042972Y037971D01*
X042381Y039034D02*
X042381Y037971D01*
X042972Y037971D01*
X042381Y039034D02*
X042972Y039034D01*
X041795Y037907D02*
X042858D01*
X041795Y038498D02*
X042858D01*
Y037907D02*
Y038498D01*
X041795Y037907D02*
X041795Y038498D01*
X042176Y032508D02*
X045072Y035403D01*
X039281D02*
X042176Y038298D01*
X039281Y035403D02*
X042176Y032508D01*
Y038298D02*
X045072Y035403D01*
X038931Y034321D02*
Y035384D01*
X039522Y034321D02*
Y035384D01*
X038931Y034321D02*
X039522Y034321D01*
X038931Y035384D02*
X039522Y035384D01*
X036808Y038557D02*
X036808Y039148D01*
X035745D02*
X035745Y038557D01*
X036808D01*
X035745Y039148D02*
X036808D01*
X038343Y039071D02*
X03921D01*
Y037134D02*
Y039071D01*
X038343Y037134D02*
Y039071D01*
Y037134D02*
X03921D01*
X046581Y03478D02*
Y035725D01*
X045124D02*
X046581D01*
X045124Y03478D02*
Y035725D01*
Y03478D02*
X046581D01*
X037689Y035398D02*
X038752D01*
X037689Y034807D02*
X038752D01*
X037689D02*
X037689Y035398D01*
X038752Y034807D02*
Y035398D01*
X037145Y036857D02*
X038208D01*
X037145Y037448D02*
X038208D01*
Y036857D02*
Y037448D01*
X037145Y036857D02*
Y037448D01*
X043645Y033157D02*
X044708D01*
X043645Y033748D02*
X044708D01*
X044708Y033157D02*
X044708Y033748D01*
X043645Y033157D02*
Y033748D01*
X044145Y033807D02*
X045208D01*
X044145Y034398D02*
X045208D01*
X045208Y033807D01*
X044145D02*
X044145Y034398D01*
X036646Y036777D02*
X038307D01*
Y035429D02*
Y036777D01*
X036646Y035429D02*
X038307D01*
X036646D02*
Y036777D01*
X049567Y035583D02*
X055012D01*
X049567D02*
Y038496D01*
X055012D01*
Y035583D02*
Y038496D01*
X039341Y037217D02*
Y038989D01*
X041112D01*
Y037217D02*
Y038989D01*
X039341Y037217D02*
X041112D01*
X020304Y043462D02*
X021642D01*
X020304D02*
Y045084D01*
X021642D01*
Y043462D02*
Y045084D01*
X019204Y044778D02*
Y045368D01*
X018141Y044778D02*
Y045368D01*
X019204D01*
X018141Y044778D02*
X019204D01*
X019323D02*
X020423D01*
X019323Y045368D02*
X020423D01*
X019323Y044778D02*
Y045368D01*
X020423Y044778D02*
Y045368D01*
X032176Y043199D02*
X03257Y043199D01*
X032176Y043947D02*
X03257D01*
X032176Y043199D02*
Y043947D01*
X03257Y043199D02*
Y043947D01*
X021078Y040592D02*
X021668D01*
X021078Y041655D02*
X021668Y041655D01*
Y040592D02*
Y041655D01*
X021078Y040592D02*
Y041655D01*
X028026Y041349D02*
X02842Y041349D01*
X028026Y042097D02*
X02842D01*
X028026Y041349D02*
Y042097D01*
X02842Y041349D02*
Y042097D01*
X032097Y04357D02*
X032097Y043176D01*
X031349D02*
Y04357D01*
Y043176D02*
X032097D01*
X031349Y04357D02*
X032097D01*
X030522Y043176D02*
X03127D01*
X030522Y04357D02*
X03127D01*
Y043176D02*
Y04357D01*
X030522Y043176D02*
Y04357D01*
X031847Y04277D02*
X031847Y042376D01*
X031099D02*
Y04277D01*
Y042376D02*
X031847D01*
X031099Y04277D02*
X031847D01*
X031847Y041876D02*
X031847Y04227D01*
X031099D02*
X031099Y041876D01*
X031847D01*
X031099Y04227D02*
X031847D01*
X03047Y042849D02*
Y043597D01*
X030076Y042849D02*
Y043597D01*
X03047Y043597D01*
X030076Y042849D02*
X03047Y042849D01*
X03097Y042376D02*
Y043124D01*
X030576Y042376D02*
Y043124D01*
X03097D01*
X030576Y042376D02*
X03097Y042376D01*
X029747Y04512D02*
X029747Y044726D01*
X028999D02*
Y04512D01*
Y044726D02*
X029747D01*
X028999Y04512D02*
X029747D01*
X028149Y04512D02*
X028149Y044726D01*
X028897D02*
Y04512D01*
X028149D02*
X028897D01*
X028149Y044726D02*
X028897D01*
X025456Y040389D02*
X026486Y041419D01*
X025818Y042087D02*
X026486Y041419D01*
X024788Y041057D02*
X025818Y042087D01*
X024788Y041057D02*
X025456Y040389D01*
X025078Y044173D02*
Y045273D01*
X025668Y044173D02*
Y045273D01*
X025078Y045273D02*
X025668Y045273D01*
X025078Y044173D02*
X025668Y044173D01*
X023904Y039678D02*
X023904Y040268D01*
X022841D02*
X022841Y039678D01*
X023904D01*
X022841Y040268D02*
X023904D01*
X015885Y042323D02*
X016161D01*
X016023Y042185D02*
Y042461D01*
X029947Y042396D02*
Y044448D01*
X027896Y042396D02*
Y044448D01*
X029947D01*
X027896Y042396D02*
X029947D01*
X026318Y045255D02*
X026318Y044192D01*
X025728Y045255D02*
X025728Y044192D01*
X026318Y044192D01*
X025728Y045255D02*
X026318Y045255D01*
X025141Y044128D02*
X026204D01*
X025141Y044718D02*
X026204D01*
Y044128D02*
Y044718D01*
X025141Y044128D02*
X025141Y044718D01*
X025523Y038728D02*
X028418Y041623D01*
X022628D02*
X025523Y044518D01*
X022628Y041623D02*
X025523Y038728D01*
Y044518D02*
X028418Y041623D01*
X022278Y040542D02*
Y041605D01*
X022868Y040542D02*
Y041605D01*
X022278Y040542D02*
X022868Y040542D01*
X022278Y041605D02*
X022868Y041605D01*
X020154Y044778D02*
X020154Y045368D01*
X019091D02*
X019091Y044778D01*
X020154D01*
X019091Y045368D02*
X020154D01*
X02169Y045292D02*
X022556D01*
Y043355D02*
Y045292D01*
X02169Y043355D02*
Y045292D01*
Y043355D02*
X022556D01*
X029927Y041001D02*
Y041946D01*
X028471D02*
X029927D01*
X028471Y041001D02*
Y041946D01*
Y041001D02*
X029927D01*
X021036Y041618D02*
X022099D01*
X021036Y041028D02*
X022099D01*
X021036D02*
X021036Y041618D01*
X022099Y041028D02*
Y041618D01*
X020491Y043078D02*
X021554D01*
X020491Y043668D02*
X021554D01*
Y043078D02*
Y043668D01*
X020491Y043078D02*
Y043668D01*
X026991Y039378D02*
X028054D01*
X026991Y039968D02*
X028054D01*
X028054Y039378D02*
X028054Y039968D01*
X026991Y039378D02*
Y039968D01*
X027491Y040028D02*
X028554D01*
X027491Y040618D02*
X028554D01*
X028554Y040028D01*
X027491D02*
X027491Y040618D01*
X019992Y042997D02*
X021654D01*
Y041649D02*
Y042997D01*
X019992Y041649D02*
X021654D01*
X019992D02*
Y042997D01*
X032913Y041804D02*
X038358D01*
X032913D02*
Y044717D01*
X038358D01*
Y041804D02*
Y044717D01*
X022687Y043437D02*
Y045209D01*
X024459D01*
Y043437D02*
Y045209D01*
X022687Y043437D02*
X024459D01*
X036957Y043462D02*
X038296D01*
X036957D02*
Y045084D01*
X038296D01*
Y043462D02*
Y045084D01*
X035858Y044778D02*
Y045368D01*
X034795Y044778D02*
Y045368D01*
X035858D01*
X034795Y044778D02*
X035858D01*
X035976D02*
X037076D01*
X035976Y045368D02*
X037076D01*
X035976Y044778D02*
Y045368D01*
X037076Y044778D02*
Y045368D01*
X04883Y043199D02*
X049223Y043199D01*
X04883Y043947D02*
X049223D01*
X04883Y043199D02*
Y043947D01*
X049223Y043199D02*
Y043947D01*
X037731Y040592D02*
X038322D01*
X037731Y041655D02*
X038322Y041655D01*
Y040592D02*
Y041655D01*
X037731Y040592D02*
Y041655D01*
X04468Y041349D02*
X045073Y041349D01*
X04468Y042097D02*
X045073D01*
X04468Y041349D02*
Y042097D01*
X045073Y041349D02*
Y042097D01*
X04875Y04357D02*
X04875Y043176D01*
X048002D02*
Y04357D01*
Y043176D02*
X04875D01*
X048002Y04357D02*
X04875D01*
X047176Y043176D02*
X047924D01*
X047176Y04357D02*
X047924D01*
Y043176D02*
Y04357D01*
X047176Y043176D02*
Y04357D01*
X0485Y04277D02*
X0485Y042376D01*
X047752D02*
Y04277D01*
Y042376D02*
X0485D01*
X047752Y04277D02*
X0485D01*
X0485Y041876D02*
X0485Y04227D01*
X047752D02*
X047752Y041876D01*
X0485D01*
X047752Y04227D02*
X0485D01*
X047123Y042849D02*
Y043597D01*
X04673Y042849D02*
Y043597D01*
X047123Y043597D01*
X04673Y042849D02*
X047123Y042849D01*
X047623Y042376D02*
Y043124D01*
X04723Y042376D02*
Y043124D01*
X047623D01*
X04723Y042376D02*
X047623Y042376D01*
X0464Y04512D02*
X0464Y044726D01*
X045652D02*
Y04512D01*
Y044726D02*
X0464D01*
X045652Y04512D02*
X0464D01*
X044802Y04512D02*
X044802Y044726D01*
X04555D02*
Y04512D01*
X044802D02*
X04555D01*
X044802Y044726D02*
X04555D01*
X04211Y040389D02*
X04314Y041419D01*
X042472Y042087D02*
X04314Y041419D01*
X041442Y041057D02*
X042472Y042087D01*
X041442Y041057D02*
X04211Y040389D01*
X041731Y044173D02*
Y045273D01*
X042322Y044173D02*
Y045273D01*
X041731Y045273D02*
X042322Y045273D01*
X041731Y044173D02*
X042322Y044173D01*
X040558Y039678D02*
X040558Y040268D01*
X039495D02*
X039495Y039678D01*
X040558D01*
X039495Y040268D02*
X040558D01*
X032539Y042323D02*
X032814D01*
X032676Y042185D02*
Y042461D01*
X046601Y042396D02*
Y044448D01*
X04455Y042396D02*
Y044448D01*
X046601D01*
X04455Y042396D02*
X046601D01*
X042972Y045255D02*
X042972Y044192D01*
X042381Y045255D02*
X042381Y044192D01*
X042972Y044192D01*
X042381Y045255D02*
X042972Y045255D01*
X041795Y044128D02*
X042858D01*
X041795Y044718D02*
X042858D01*
Y044128D02*
Y044718D01*
X041795Y044128D02*
X041795Y044718D01*
X042176Y038728D02*
X045072Y041623D01*
X039281D02*
X042176Y044518D01*
X039281Y041623D02*
X042176Y038728D01*
Y044518D02*
X045072Y041623D01*
X038931Y040542D02*
Y041605D01*
X039522Y040542D02*
Y041605D01*
X038931Y040542D02*
X039522Y040542D01*
X038931Y041605D02*
X039522Y041605D01*
X036808Y044778D02*
X036808Y045368D01*
X035745D02*
X035745Y044778D01*
X036808D01*
X035745Y045368D02*
X036808D01*
X038343Y045292D02*
X03921D01*
Y043355D02*
Y045292D01*
X038343Y043355D02*
Y045292D01*
Y043355D02*
X03921D01*
X046581Y041001D02*
Y041946D01*
X045124D02*
X046581D01*
X045124Y041001D02*
Y041946D01*
Y041001D02*
X046581D01*
X037689Y041618D02*
X038752D01*
X037689Y041028D02*
X038752D01*
X037689D02*
X037689Y041618D01*
X038752Y041028D02*
Y041618D01*
X037145Y043078D02*
X038208D01*
X037145Y043668D02*
X038208D01*
Y043078D02*
Y043668D01*
X037145Y043078D02*
Y043668D01*
X043645Y039378D02*
X044708D01*
X043645Y039968D02*
X044708D01*
X044708Y039378D02*
X044708Y039968D01*
X043645Y039378D02*
Y039968D01*
X044145Y040028D02*
X045208D01*
X044145Y040618D02*
X045208D01*
X045208Y040028D01*
X044145D02*
X044145Y040618D01*
X036646Y042997D02*
X038307D01*
Y041649D02*
Y042997D01*
X036646Y041649D02*
X038307D01*
X036646D02*
Y042997D01*
X049567Y041804D02*
X055012D01*
X049567D02*
Y044717D01*
X055012D01*
Y041804D02*
Y044717D01*
X039341Y043437D02*
Y045209D01*
X041112D01*
Y043437D02*
Y045209D01*
X039341Y043437D02*
X041112D01*
M02*
