G04*
G04 #@! TF.GenerationSoftware,Altium Limited,Altium Designer,22.10.1 (41)*
G04*
G04 Layer_Color=16711935*
%FSTAX24Y24*%
%MOIN*%
G70*
G04*
G04 #@! TF.SameCoordinates,8E8F082C-EA0B-43D0-983D-46ADB54C0823*
G04*
G04*
G04 #@! TF.FilePolarity,Positive*
G04*
G01*
G75*
%ADD29C,0.0100*%
%ADD68C,0.0004*%
D29*
X0155Y0133D02*
X052902D01*
X0155Y046765D02*
X052902D01*
Y0133D02*
Y046765D01*
X0155Y0133D02*
Y046765D01*
D68*
X01805Y01445D02*
Y020552D01*
Y01445D02*
X034585D01*
Y020552D01*
X01805D02*
X034585D01*
X034704Y01445D02*
Y020552D01*
Y01445D02*
X051239D01*
Y020552D01*
X034704D02*
X051239D01*
X01805Y02067D02*
Y026773D01*
Y02067D02*
X034585D01*
Y026773D01*
X01805D02*
X034585D01*
X034704Y02067D02*
Y026773D01*
Y02067D02*
X051239D01*
Y026773D01*
X034704D02*
X051239D01*
X01805Y026891D02*
Y032993D01*
Y026891D02*
X034585D01*
Y032993D01*
X01805D02*
X034585D01*
X034704Y026891D02*
Y032993D01*
Y026891D02*
X051239D01*
Y032993D01*
X034704D02*
X051239D01*
X01805Y033111D02*
Y039214D01*
Y033111D02*
X034585D01*
Y039214D01*
X01805D02*
X034585D01*
X034704Y033111D02*
Y039214D01*
Y033111D02*
X051239D01*
Y039214D01*
X034704D02*
X051239D01*
X01805Y039332D02*
Y045434D01*
Y039332D02*
X034585D01*
Y045434D01*
X01805D02*
X034585D01*
X034704Y039332D02*
Y045434D01*
Y039332D02*
X051239D01*
Y045434D01*
X034704D02*
X051239D01*
M02*
