G04*
G04 #@! TF.GenerationSoftware,Altium Limited,Altium Designer,22.10.1 (41)*
G04*
G04 Layer_Color=16711935*
%FSTAX24Y24*%
%MOIN*%
G70*
G04*
G04 #@! TF.SameCoordinates,8E8F082C-EA0B-43D0-983D-46ADB54C0823*
G04*
G04*
G04 #@! TF.FilePolarity,Positive*
G04*
G01*
G75*
%ADD59C,0.0060*%
%ADD60C,0.0039*%
D59*
X017617Y016654D02*
X017867D01*
Y016779D01*
X017826Y016821D01*
X017742D01*
X017701Y016779D01*
Y016654D01*
X017826Y01707D02*
X017867Y017029D01*
Y016946D01*
X017826Y016904D01*
X017659D01*
X017617Y016946D01*
Y017029D01*
X017659Y01707D01*
X017867Y017154D02*
X017617D01*
Y017279D01*
X017659Y01732D01*
X017701D01*
X017742Y017279D01*
Y017154D01*
Y017279D01*
X017784Y01732D01*
X017826D01*
X017867Y017279D01*
Y017154D01*
Y01782D02*
Y017654D01*
X017617D01*
Y01782D01*
X017742Y017654D02*
Y017737D01*
X017867Y01807D02*
X017617D01*
Y017945D01*
X017659Y017904D01*
X017742D01*
X017784Y017945D01*
Y01807D01*
X017534Y018237D02*
Y018278D01*
X017576Y01832D01*
X017784D01*
Y018195D01*
X017742Y018153D01*
X017659D01*
X017617Y018195D01*
Y01832D01*
Y018528D02*
Y018445D01*
X017659Y018403D01*
X017742D01*
X017784Y018445D01*
Y018528D01*
X017742Y01857D01*
X017701D01*
Y018403D01*
X034271Y016654D02*
X034521D01*
Y016779D01*
X034479Y016821D01*
X034396D01*
X034354Y016779D01*
Y016654D01*
X034479Y01707D02*
X034521Y017029D01*
Y016946D01*
X034479Y016904D01*
X034313D01*
X034271Y016946D01*
Y017029D01*
X034313Y01707D01*
X034521Y017154D02*
X034271D01*
Y017279D01*
X034313Y01732D01*
X034354D01*
X034396Y017279D01*
Y017154D01*
Y017279D01*
X034438Y01732D01*
X034479D01*
X034521Y017279D01*
Y017154D01*
Y01782D02*
Y017654D01*
X034271D01*
Y01782D01*
X034396Y017654D02*
Y017737D01*
X034521Y01807D02*
X034271D01*
Y017945D01*
X034313Y017904D01*
X034396D01*
X034438Y017945D01*
Y01807D01*
X034188Y018237D02*
Y018278D01*
X034229Y01832D01*
X034438D01*
Y018195D01*
X034396Y018153D01*
X034313D01*
X034271Y018195D01*
Y01832D01*
Y018528D02*
Y018445D01*
X034313Y018403D01*
X034396D01*
X034438Y018445D01*
Y018528D01*
X034396Y01857D01*
X034354D01*
Y018403D01*
X017617Y022874D02*
X017867D01*
Y022999D01*
X017826Y023041D01*
X017742D01*
X017701Y022999D01*
Y022874D01*
X017826Y023291D02*
X017867Y023249D01*
Y023166D01*
X017826Y023124D01*
X017659D01*
X017617Y023166D01*
Y023249D01*
X017659Y023291D01*
X017867Y023374D02*
X017617D01*
Y023499D01*
X017659Y023541D01*
X017701D01*
X017742Y023499D01*
Y023374D01*
Y023499D01*
X017784Y023541D01*
X017826D01*
X017867Y023499D01*
Y023374D01*
Y024041D02*
Y023874D01*
X017617D01*
Y024041D01*
X017742Y023874D02*
Y023957D01*
X017867Y024291D02*
X017617D01*
Y024166D01*
X017659Y024124D01*
X017742D01*
X017784Y024166D01*
Y024291D01*
X017534Y024457D02*
Y024499D01*
X017576Y024541D01*
X017784D01*
Y024416D01*
X017742Y024374D01*
X017659D01*
X017617Y024416D01*
Y024541D01*
Y024749D02*
Y024665D01*
X017659Y024624D01*
X017742D01*
X017784Y024665D01*
Y024749D01*
X017742Y02479D01*
X017701D01*
Y024624D01*
X034271Y022874D02*
X034521D01*
Y022999D01*
X034479Y023041D01*
X034396D01*
X034354Y022999D01*
Y022874D01*
X034479Y023291D02*
X034521Y023249D01*
Y023166D01*
X034479Y023124D01*
X034313D01*
X034271Y023166D01*
Y023249D01*
X034313Y023291D01*
X034521Y023374D02*
X034271D01*
Y023499D01*
X034313Y023541D01*
X034354D01*
X034396Y023499D01*
Y023374D01*
Y023499D01*
X034438Y023541D01*
X034479D01*
X034521Y023499D01*
Y023374D01*
Y024041D02*
Y023874D01*
X034271D01*
Y024041D01*
X034396Y023874D02*
Y023957D01*
X034521Y024291D02*
X034271D01*
Y024166D01*
X034313Y024124D01*
X034396D01*
X034438Y024166D01*
Y024291D01*
X034188Y024457D02*
Y024499D01*
X034229Y024541D01*
X034438D01*
Y024416D01*
X034396Y024374D01*
X034313D01*
X034271Y024416D01*
Y024541D01*
Y024749D02*
Y024665D01*
X034313Y024624D01*
X034396D01*
X034438Y024665D01*
Y024749D01*
X034396Y02479D01*
X034354D01*
Y024624D01*
X017617Y029095D02*
X017867D01*
Y02922D01*
X017826Y029261D01*
X017742D01*
X017701Y02922D01*
Y029095D01*
X017826Y029511D02*
X017867Y02947D01*
Y029386D01*
X017826Y029345D01*
X017659D01*
X017617Y029386D01*
Y02947D01*
X017659Y029511D01*
X017867Y029595D02*
X017617D01*
Y02972D01*
X017659Y029761D01*
X017701D01*
X017742Y02972D01*
Y029595D01*
Y02972D01*
X017784Y029761D01*
X017826D01*
X017867Y02972D01*
Y029595D01*
Y030261D02*
Y030095D01*
X017617D01*
Y030261D01*
X017742Y030095D02*
Y030178D01*
X017867Y030511D02*
X017617D01*
Y030386D01*
X017659Y030344D01*
X017742D01*
X017784Y030386D01*
Y030511D01*
X017534Y030678D02*
Y030719D01*
X017576Y030761D01*
X017784D01*
Y030636D01*
X017742Y030594D01*
X017659D01*
X017617Y030636D01*
Y030761D01*
Y030969D02*
Y030886D01*
X017659Y030844D01*
X017742D01*
X017784Y030886D01*
Y030969D01*
X017742Y031011D01*
X017701D01*
Y030844D01*
X034271Y029095D02*
X034521D01*
Y02922D01*
X034479Y029261D01*
X034396D01*
X034354Y02922D01*
Y029095D01*
X034479Y029511D02*
X034521Y02947D01*
Y029386D01*
X034479Y029345D01*
X034313D01*
X034271Y029386D01*
Y02947D01*
X034313Y029511D01*
X034521Y029595D02*
X034271D01*
Y02972D01*
X034313Y029761D01*
X034354D01*
X034396Y02972D01*
Y029595D01*
Y02972D01*
X034438Y029761D01*
X034479D01*
X034521Y02972D01*
Y029595D01*
Y030261D02*
Y030095D01*
X034271D01*
Y030261D01*
X034396Y030095D02*
Y030178D01*
X034521Y030511D02*
X034271D01*
Y030386D01*
X034313Y030344D01*
X034396D01*
X034438Y030386D01*
Y030511D01*
X034188Y030678D02*
Y030719D01*
X034229Y030761D01*
X034438D01*
Y030636D01*
X034396Y030594D01*
X034313D01*
X034271Y030636D01*
Y030761D01*
Y030969D02*
Y030886D01*
X034313Y030844D01*
X034396D01*
X034438Y030886D01*
Y030969D01*
X034396Y031011D01*
X034354D01*
Y030844D01*
X017617Y035315D02*
X017867D01*
Y03544D01*
X017826Y035482D01*
X017742D01*
X017701Y03544D01*
Y035315D01*
X017826Y035732D02*
X017867Y03569D01*
Y035607D01*
X017826Y035565D01*
X017659D01*
X017617Y035607D01*
Y03569D01*
X017659Y035732D01*
X017867Y035815D02*
X017617D01*
Y03594D01*
X017659Y035982D01*
X017701D01*
X017742Y03594D01*
Y035815D01*
Y03594D01*
X017784Y035982D01*
X017826D01*
X017867Y03594D01*
Y035815D01*
Y036482D02*
Y036315D01*
X017617D01*
Y036482D01*
X017742Y036315D02*
Y036398D01*
X017867Y036732D02*
X017617D01*
Y036607D01*
X017659Y036565D01*
X017742D01*
X017784Y036607D01*
Y036732D01*
X017534Y036898D02*
Y03694D01*
X017576Y036981D01*
X017784D01*
Y036857D01*
X017742Y036815D01*
X017659D01*
X017617Y036857D01*
Y036981D01*
Y03719D02*
Y037106D01*
X017659Y037065D01*
X017742D01*
X017784Y037106D01*
Y03719D01*
X017742Y037231D01*
X017701D01*
Y037065D01*
X034271Y035315D02*
X034521D01*
Y03544D01*
X034479Y035482D01*
X034396D01*
X034354Y03544D01*
Y035315D01*
X034479Y035732D02*
X034521Y03569D01*
Y035607D01*
X034479Y035565D01*
X034313D01*
X034271Y035607D01*
Y03569D01*
X034313Y035732D01*
X034521Y035815D02*
X034271D01*
Y03594D01*
X034313Y035982D01*
X034354D01*
X034396Y03594D01*
Y035815D01*
Y03594D01*
X034438Y035982D01*
X034479D01*
X034521Y03594D01*
Y035815D01*
Y036482D02*
Y036315D01*
X034271D01*
Y036482D01*
X034396Y036315D02*
Y036398D01*
X034521Y036732D02*
X034271D01*
Y036607D01*
X034313Y036565D01*
X034396D01*
X034438Y036607D01*
Y036732D01*
X034188Y036898D02*
Y03694D01*
X034229Y036981D01*
X034438D01*
Y036857D01*
X034396Y036815D01*
X034313D01*
X034271Y036857D01*
Y036981D01*
Y03719D02*
Y037106D01*
X034313Y037065D01*
X034396D01*
X034438Y037106D01*
Y03719D01*
X034396Y037231D01*
X034354D01*
Y037065D01*
X017617Y041536D02*
X017867D01*
Y041661D01*
X017826Y041702D01*
X017742D01*
X017701Y041661D01*
Y041536D01*
X017826Y041952D02*
X017867Y041911D01*
Y041827D01*
X017826Y041786D01*
X017659D01*
X017617Y041827D01*
Y041911D01*
X017659Y041952D01*
X017867Y042036D02*
X017617D01*
Y042161D01*
X017659Y042202D01*
X017701D01*
X017742Y042161D01*
Y042036D01*
Y042161D01*
X017784Y042202D01*
X017826D01*
X017867Y042161D01*
Y042036D01*
Y042702D02*
Y042535D01*
X017617D01*
Y042702D01*
X017742Y042535D02*
Y042619D01*
X017867Y042952D02*
X017617D01*
Y042827D01*
X017659Y042785D01*
X017742D01*
X017784Y042827D01*
Y042952D01*
X017534Y043119D02*
Y04316D01*
X017576Y043202D01*
X017784D01*
Y043077D01*
X017742Y043035D01*
X017659D01*
X017617Y043077D01*
Y043202D01*
Y04341D02*
Y043327D01*
X017659Y043285D01*
X017742D01*
X017784Y043327D01*
Y04341D01*
X017742Y043452D01*
X017701D01*
Y043285D01*
X034271Y041536D02*
X034521D01*
Y041661D01*
X034479Y041702D01*
X034396D01*
X034354Y041661D01*
Y041536D01*
X034479Y041952D02*
X034521Y041911D01*
Y041827D01*
X034479Y041786D01*
X034313D01*
X034271Y041827D01*
Y041911D01*
X034313Y041952D01*
X034521Y042036D02*
X034271D01*
Y042161D01*
X034313Y042202D01*
X034354D01*
X034396Y042161D01*
Y042036D01*
Y042161D01*
X034438Y042202D01*
X034479D01*
X034521Y042161D01*
Y042036D01*
Y042702D02*
Y042535D01*
X034271D01*
Y042702D01*
X034396Y042535D02*
Y042619D01*
X034521Y042952D02*
X034271D01*
Y042827D01*
X034313Y042785D01*
X034396D01*
X034438Y042827D01*
Y042952D01*
X034188Y043119D02*
Y04316D01*
X034229Y043202D01*
X034438D01*
Y043077D01*
X034396Y043035D01*
X034313D01*
X034271Y043077D01*
Y043202D01*
Y04341D02*
Y043327D01*
X034313Y043285D01*
X034396D01*
X034438Y043327D01*
Y04341D01*
X034396Y043452D01*
X034354D01*
Y043285D01*
D60*
X018031Y015079D02*
Y019804D01*
X034684Y015079D02*
Y019804D01*
X018031Y0213D02*
Y026024D01*
X034684Y0213D02*
Y026024D01*
X018031Y02752D02*
Y032244D01*
X034684Y02752D02*
Y032244D01*
X018031Y033741D02*
Y038465D01*
X034684Y033741D02*
Y038465D01*
X018031Y039961D02*
Y044685D01*
X034684Y039961D02*
Y044685D01*
M02*
