G04*
G04 #@! TF.GenerationSoftware,Altium Limited,Altium Designer,22.10.1 (41)*
G04*
G04 Layer_Color=0*
%FSTAX24Y24*%
%MOIN*%
G70*
G04*
G04 #@! TF.SameCoordinates,8E8F082C-EA0B-43D0-983D-46ADB54C0823*
G04*
G04*
G04 #@! TF.FilePolarity,Positive*
G04*
G01*
G75*
%ADD67C,0.0020*%
D67*
X032913Y019835D02*
X038358D01*
X032913Y016922D02*
Y019835D01*
Y016922D02*
X038358D01*
Y019835D01*
X049567D02*
X055012D01*
X049567Y016922D02*
Y019835D01*
Y016922D02*
X055012D01*
Y019835D01*
X032913Y026056D02*
X038358D01*
X032913Y023142D02*
Y026056D01*
Y023142D02*
X038358D01*
Y026056D01*
X049567D02*
X055012D01*
X049567Y023142D02*
Y026056D01*
Y023142D02*
X055012D01*
Y026056D01*
X032913Y032276D02*
X038358D01*
X032913Y029363D02*
Y032276D01*
Y029363D02*
X038358D01*
Y032276D01*
X049567D02*
X055012D01*
X049567Y029363D02*
Y032276D01*
Y029363D02*
X055012D01*
Y032276D01*
X032913Y038496D02*
X038358D01*
X032913Y035583D02*
Y038496D01*
Y035583D02*
X038358D01*
Y038496D01*
X049567D02*
X055012D01*
X049567Y035583D02*
Y038496D01*
Y035583D02*
X055012D01*
Y038496D01*
X032913Y044717D02*
X038358D01*
X032913Y041804D02*
Y044717D01*
Y041804D02*
X038358D01*
Y044717D01*
X049567D02*
X055012D01*
X049567Y041804D02*
Y044717D01*
Y041804D02*
X055012D01*
Y044717D01*
M02*
