G04*
G04 #@! TF.GenerationSoftware,Altium Limited,Altium Designer,22.10.1 (41)*
G04*
G04 Layer_Color=32896*
%FSTAX24Y24*%
%MOIN*%
G70*
G04*
G04 #@! TF.SameCoordinates,8E8F082C-EA0B-43D0-983D-46ADB54C0823*
G04*
G04*
G04 #@! TF.FilePolarity,Positive*
G04*
G01*
G75*
%ADD45C,0.0240*%
D45*
X019842Y017098D02*
D03*
X019673Y018941D02*
D03*
Y018691D02*
D03*
Y016191D02*
D03*
X020023D02*
D03*
Y015941D02*
D03*
X019673D02*
D03*
X021289Y018491D02*
D03*
X020123Y019691D02*
D03*
X020023Y018941D02*
D03*
Y018691D02*
D03*
X019842Y017835D02*
D03*
X021456Y015117D02*
D03*
X019573Y015541D02*
D03*
X018523Y019591D02*
D03*
X020823Y017041D02*
D03*
X022573Y015926D02*
D03*
X023107Y015091D02*
D03*
X023423Y015591D02*
D03*
X025473Y014741D02*
D03*
X028223Y014791D02*
D03*
X026273Y016041D02*
D03*
X025923Y015691D02*
D03*
X025223Y016841D02*
D03*
X025173Y015541D02*
D03*
X025623Y017241D02*
D03*
X026473Y016841D02*
D03*
X026573Y016341D02*
D03*
X025623Y015391D02*
D03*
X022673Y018491D02*
D03*
X025457Y019591D02*
D03*
X023273Y016441D02*
D03*
X026473Y019541D02*
D03*
X025523Y018191D02*
D03*
X026123Y017191D02*
D03*
X025664Y01778D02*
D03*
X024573Y016941D02*
D03*
X023973Y016691D02*
D03*
X024823Y016441D02*
D03*
X024773Y015941D02*
D03*
X026923Y019615D02*
D03*
X026523Y020091D02*
D03*
X027623Y020341D02*
D03*
X030173Y020018D02*
D03*
X02835Y020041D02*
D03*
X027623Y017741D02*
D03*
X030773Y019641D02*
D03*
X027723Y018591D02*
D03*
X027373D02*
D03*
X028423Y015891D02*
D03*
X019723Y018341D02*
D03*
X020123D02*
D03*
X019273Y017641D02*
D03*
Y017241D02*
D03*
X020123Y016541D02*
D03*
X024323Y016741D02*
D03*
X024623Y017291D02*
D03*
X024023Y018491D02*
D03*
X021873Y017791D02*
D03*
X022273Y018141D02*
D03*
X021823Y017091D02*
D03*
X020273Y014691D02*
D03*
X018323Y014991D02*
D03*
X018923D02*
D03*
Y017391D02*
D03*
X019223Y019191D02*
D03*
X018923Y019791D02*
D03*
X019523Y014991D02*
D03*
X022223Y016791D02*
D03*
X023423D02*
D03*
X023123Y017391D02*
D03*
X024623Y019191D02*
D03*
X025523Y018591D02*
D03*
X027023Y016791D02*
D03*
X027623D02*
D03*
X027923Y019791D02*
D03*
X028523Y014991D02*
D03*
X029423Y015591D02*
D03*
X030023Y016791D02*
D03*
X030623Y015591D02*
D03*
X030323Y016191D02*
D03*
Y017391D02*
D03*
X030923Y014991D02*
D03*
X031223Y016791D02*
D03*
Y017991D02*
D03*
Y019191D02*
D03*
X031823Y015591D02*
D03*
X031523Y016191D02*
D03*
X031823Y019191D02*
D03*
X031523Y019791D02*
D03*
X032123Y014991D02*
D03*
X032423Y016791D02*
D03*
X032123Y017391D02*
D03*
X032423Y017991D02*
D03*
X032123Y019791D02*
D03*
X033023Y015591D02*
D03*
X032723Y016191D02*
D03*
X033323Y014991D02*
D03*
X033623Y016791D02*
D03*
X034223Y015591D02*
D03*
X033923Y016191D02*
D03*
X022423Y017291D02*
D03*
X022973Y017741D02*
D03*
X029723Y014991D02*
D03*
X031823Y020291D02*
D03*
X032473D02*
D03*
X033123D02*
D03*
X033823D02*
D03*
X031123D02*
D03*
X027905Y017517D02*
D03*
X036495Y017098D02*
D03*
X036326Y018941D02*
D03*
Y018691D02*
D03*
Y016191D02*
D03*
X036676D02*
D03*
Y015941D02*
D03*
X036326D02*
D03*
X037942Y018491D02*
D03*
X036776Y019691D02*
D03*
X036676Y018941D02*
D03*
Y018691D02*
D03*
X036495Y017835D02*
D03*
X03811Y015117D02*
D03*
X036226Y015541D02*
D03*
X035176Y019591D02*
D03*
X037476Y017041D02*
D03*
X039226Y015926D02*
D03*
X039761Y015091D02*
D03*
X040076Y015591D02*
D03*
X042126Y014741D02*
D03*
X044876Y014791D02*
D03*
X042926Y016041D02*
D03*
X042576Y015691D02*
D03*
X041876Y016841D02*
D03*
X041826Y015541D02*
D03*
X042276Y017241D02*
D03*
X043126Y016841D02*
D03*
X043226Y016341D02*
D03*
X042276Y015391D02*
D03*
X039326Y018491D02*
D03*
X042111Y019591D02*
D03*
X039926Y016441D02*
D03*
X043126Y019541D02*
D03*
X042176Y018191D02*
D03*
X042776Y017191D02*
D03*
X042318Y01778D02*
D03*
X041226Y016941D02*
D03*
X040626Y016691D02*
D03*
X041476Y016441D02*
D03*
X041426Y015941D02*
D03*
X043576Y019615D02*
D03*
X043176Y020091D02*
D03*
X044276Y020341D02*
D03*
X046826Y020018D02*
D03*
X045003Y020041D02*
D03*
X044276Y017741D02*
D03*
X047426Y019641D02*
D03*
X044376Y018591D02*
D03*
X044026D02*
D03*
X045076Y015891D02*
D03*
X036376Y018341D02*
D03*
X036776D02*
D03*
X035926Y017641D02*
D03*
Y017241D02*
D03*
X036776Y016541D02*
D03*
X040976Y016741D02*
D03*
X041276Y017291D02*
D03*
X040676Y018491D02*
D03*
X038526Y017791D02*
D03*
X038926Y018141D02*
D03*
X038476Y017091D02*
D03*
X036926Y014691D02*
D03*
X034976Y014991D02*
D03*
X035576D02*
D03*
Y017391D02*
D03*
X035876Y019191D02*
D03*
X035576Y019791D02*
D03*
X036176Y014991D02*
D03*
X038876Y016791D02*
D03*
X040076D02*
D03*
X039776Y017391D02*
D03*
X041276Y019191D02*
D03*
X042176Y018591D02*
D03*
X043676Y016791D02*
D03*
X044276D02*
D03*
X044576Y019791D02*
D03*
X045176Y014991D02*
D03*
X046076Y015591D02*
D03*
X046676Y016791D02*
D03*
X047276Y015591D02*
D03*
X046976Y016191D02*
D03*
Y017391D02*
D03*
X047576Y014991D02*
D03*
X047876Y016791D02*
D03*
Y017991D02*
D03*
Y019191D02*
D03*
X048476Y015591D02*
D03*
X048176Y016191D02*
D03*
X048476Y019191D02*
D03*
X048176Y019791D02*
D03*
X048776Y014991D02*
D03*
X049076Y016791D02*
D03*
X048776Y017391D02*
D03*
X049076Y017991D02*
D03*
X048776Y019791D02*
D03*
X049676Y015591D02*
D03*
X049376Y016191D02*
D03*
X049976Y014991D02*
D03*
X050276Y016791D02*
D03*
X050876Y015591D02*
D03*
X050576Y016191D02*
D03*
X039076Y017291D02*
D03*
X039626Y017741D02*
D03*
X046376Y014991D02*
D03*
X048476Y020291D02*
D03*
X049126D02*
D03*
X049776D02*
D03*
X050476D02*
D03*
X047776D02*
D03*
X044559Y017517D02*
D03*
X019842Y023318D02*
D03*
X019673Y025162D02*
D03*
Y024912D02*
D03*
Y022412D02*
D03*
X020023D02*
D03*
Y022162D02*
D03*
X019673D02*
D03*
X021289Y024712D02*
D03*
X020123Y025912D02*
D03*
X020023Y025162D02*
D03*
Y024912D02*
D03*
X019842Y024056D02*
D03*
X021456Y021338D02*
D03*
X019573Y021762D02*
D03*
X018523Y025812D02*
D03*
X020823Y023262D02*
D03*
X022573Y022146D02*
D03*
X023107Y021312D02*
D03*
X023423Y021812D02*
D03*
X025473Y020962D02*
D03*
X028223Y021012D02*
D03*
X026273Y022262D02*
D03*
X025923Y021912D02*
D03*
X025223Y023062D02*
D03*
X025173Y021762D02*
D03*
X025623Y023462D02*
D03*
X026473Y023062D02*
D03*
X026573Y022562D02*
D03*
X025623Y021612D02*
D03*
X022673Y024712D02*
D03*
X025457Y025812D02*
D03*
X023273Y022662D02*
D03*
X026473Y025762D02*
D03*
X025523Y024412D02*
D03*
X026123Y023412D02*
D03*
X025664Y024D02*
D03*
X024573Y023162D02*
D03*
X023973Y022912D02*
D03*
X024823Y022662D02*
D03*
X024773Y022162D02*
D03*
X026923Y025835D02*
D03*
X026523Y026312D02*
D03*
X027623Y026562D02*
D03*
X030173Y026238D02*
D03*
X02835Y026262D02*
D03*
X027623Y023962D02*
D03*
X030773Y025862D02*
D03*
X027723Y024812D02*
D03*
X027373D02*
D03*
X028423Y022112D02*
D03*
X019723Y024562D02*
D03*
X020123D02*
D03*
X019273Y023862D02*
D03*
Y023462D02*
D03*
X020123Y022762D02*
D03*
X024323Y022962D02*
D03*
X024623Y023512D02*
D03*
X024023Y024712D02*
D03*
X021873Y024012D02*
D03*
X022273Y024362D02*
D03*
X021823Y023312D02*
D03*
X020273Y020912D02*
D03*
X018323Y021212D02*
D03*
X018923D02*
D03*
Y023612D02*
D03*
X019223Y025412D02*
D03*
X018923Y026012D02*
D03*
X019523Y021212D02*
D03*
X022223Y023012D02*
D03*
X023423D02*
D03*
X023123Y023612D02*
D03*
X024623Y025412D02*
D03*
X025523Y024812D02*
D03*
X027023Y023012D02*
D03*
X027623D02*
D03*
X027923Y026012D02*
D03*
X028523Y021212D02*
D03*
X029423Y021812D02*
D03*
X030023Y023012D02*
D03*
X030623Y021812D02*
D03*
X030323Y022412D02*
D03*
Y023612D02*
D03*
X030923Y021212D02*
D03*
X031223Y023012D02*
D03*
Y024212D02*
D03*
Y025412D02*
D03*
X031823Y021812D02*
D03*
X031523Y022412D02*
D03*
X031823Y025412D02*
D03*
X031523Y026012D02*
D03*
X032123Y021212D02*
D03*
X032423Y023012D02*
D03*
X032123Y023612D02*
D03*
X032423Y024212D02*
D03*
X032123Y026012D02*
D03*
X033023Y021812D02*
D03*
X032723Y022412D02*
D03*
X033323Y021212D02*
D03*
X033623Y023012D02*
D03*
X034223Y021812D02*
D03*
X033923Y022412D02*
D03*
X022423Y023512D02*
D03*
X022973Y023962D02*
D03*
X029723Y021212D02*
D03*
X031823Y026512D02*
D03*
X032473D02*
D03*
X033123D02*
D03*
X033823D02*
D03*
X031123D02*
D03*
X027905Y023738D02*
D03*
X036495Y023318D02*
D03*
X036326Y025162D02*
D03*
Y024912D02*
D03*
Y022412D02*
D03*
X036676D02*
D03*
Y022162D02*
D03*
X036326D02*
D03*
X037942Y024712D02*
D03*
X036776Y025912D02*
D03*
X036676Y025162D02*
D03*
Y024912D02*
D03*
X036495Y024056D02*
D03*
X03811Y021338D02*
D03*
X036226Y021762D02*
D03*
X035176Y025812D02*
D03*
X037476Y023262D02*
D03*
X039226Y022146D02*
D03*
X039761Y021312D02*
D03*
X040076Y021812D02*
D03*
X042126Y020962D02*
D03*
X044876Y021012D02*
D03*
X042926Y022262D02*
D03*
X042576Y021912D02*
D03*
X041876Y023062D02*
D03*
X041826Y021762D02*
D03*
X042276Y023462D02*
D03*
X043126Y023062D02*
D03*
X043226Y022562D02*
D03*
X042276Y021612D02*
D03*
X039326Y024712D02*
D03*
X042111Y025812D02*
D03*
X039926Y022662D02*
D03*
X043126Y025762D02*
D03*
X042176Y024412D02*
D03*
X042776Y023412D02*
D03*
X042318Y024D02*
D03*
X041226Y023162D02*
D03*
X040626Y022912D02*
D03*
X041476Y022662D02*
D03*
X041426Y022162D02*
D03*
X043576Y025835D02*
D03*
X043176Y026312D02*
D03*
X044276Y026562D02*
D03*
X046826Y026238D02*
D03*
X045003Y026262D02*
D03*
X044276Y023962D02*
D03*
X047426Y025862D02*
D03*
X044376Y024812D02*
D03*
X044026D02*
D03*
X045076Y022112D02*
D03*
X036376Y024562D02*
D03*
X036776D02*
D03*
X035926Y023862D02*
D03*
Y023462D02*
D03*
X036776Y022762D02*
D03*
X040976Y022962D02*
D03*
X041276Y023512D02*
D03*
X040676Y024712D02*
D03*
X038526Y024012D02*
D03*
X038926Y024362D02*
D03*
X038476Y023312D02*
D03*
X036926Y020912D02*
D03*
X034976Y021212D02*
D03*
X035576D02*
D03*
Y023612D02*
D03*
X035876Y025412D02*
D03*
X035576Y026012D02*
D03*
X036176Y021212D02*
D03*
X038876Y023012D02*
D03*
X040076D02*
D03*
X039776Y023612D02*
D03*
X041276Y025412D02*
D03*
X042176Y024812D02*
D03*
X043676Y023012D02*
D03*
X044276D02*
D03*
X044576Y026012D02*
D03*
X045176Y021212D02*
D03*
X046076Y021812D02*
D03*
X046676Y023012D02*
D03*
X047276Y021812D02*
D03*
X046976Y022412D02*
D03*
Y023612D02*
D03*
X047576Y021212D02*
D03*
X047876Y023012D02*
D03*
Y024212D02*
D03*
Y025412D02*
D03*
X048476Y021812D02*
D03*
X048176Y022412D02*
D03*
X048476Y025412D02*
D03*
X048176Y026012D02*
D03*
X048776Y021212D02*
D03*
X049076Y023012D02*
D03*
X048776Y023612D02*
D03*
X049076Y024212D02*
D03*
X048776Y026012D02*
D03*
X049676Y021812D02*
D03*
X049376Y022412D02*
D03*
X049976Y021212D02*
D03*
X050276Y023012D02*
D03*
X050876Y021812D02*
D03*
X050576Y022412D02*
D03*
X039076Y023512D02*
D03*
X039626Y023962D02*
D03*
X046376Y021212D02*
D03*
X048476Y026512D02*
D03*
X049126D02*
D03*
X049776D02*
D03*
X050476D02*
D03*
X047776D02*
D03*
X044559Y023738D02*
D03*
X019842Y029539D02*
D03*
X019673Y031382D02*
D03*
Y031132D02*
D03*
Y028632D02*
D03*
X020023D02*
D03*
Y028382D02*
D03*
X019673D02*
D03*
X021289Y030932D02*
D03*
X020123Y032132D02*
D03*
X020023Y031382D02*
D03*
Y031132D02*
D03*
X019842Y030276D02*
D03*
X021456Y027558D02*
D03*
X019573Y027982D02*
D03*
X018523Y032032D02*
D03*
X020823Y029482D02*
D03*
X022573Y028367D02*
D03*
X023107Y027532D02*
D03*
X023423Y028032D02*
D03*
X025473Y027182D02*
D03*
X028223Y027232D02*
D03*
X026273Y028482D02*
D03*
X025923Y028132D02*
D03*
X025223Y029282D02*
D03*
X025173Y027982D02*
D03*
X025623Y029682D02*
D03*
X026473Y029282D02*
D03*
X026573Y028782D02*
D03*
X025623Y027832D02*
D03*
X022673Y030932D02*
D03*
X025457Y032032D02*
D03*
X023273Y028882D02*
D03*
X026473Y031982D02*
D03*
X025523Y030632D02*
D03*
X026123Y029632D02*
D03*
X025664Y030221D02*
D03*
X024573Y029382D02*
D03*
X023973Y029132D02*
D03*
X024823Y028882D02*
D03*
X024773Y028382D02*
D03*
X026923Y032056D02*
D03*
X026523Y032532D02*
D03*
X027623Y032782D02*
D03*
X030173Y032459D02*
D03*
X02835Y032482D02*
D03*
X027623Y030182D02*
D03*
X030773Y032082D02*
D03*
X027723Y031032D02*
D03*
X027373D02*
D03*
X028423Y028332D02*
D03*
X019723Y030782D02*
D03*
X020123D02*
D03*
X019273Y030082D02*
D03*
Y029682D02*
D03*
X020123Y028982D02*
D03*
X024323Y029182D02*
D03*
X024623Y029732D02*
D03*
X024023Y030932D02*
D03*
X021873Y030232D02*
D03*
X022273Y030582D02*
D03*
X021823Y029532D02*
D03*
X020273Y027132D02*
D03*
X018323Y027432D02*
D03*
X018923D02*
D03*
Y029832D02*
D03*
X019223Y031632D02*
D03*
X018923Y032232D02*
D03*
X019523Y027432D02*
D03*
X022223Y029232D02*
D03*
X023423D02*
D03*
X023123Y029832D02*
D03*
X024623Y031632D02*
D03*
X025523Y031032D02*
D03*
X027023Y029232D02*
D03*
X027623D02*
D03*
X027923Y032232D02*
D03*
X028523Y027432D02*
D03*
X029423Y028032D02*
D03*
X030023Y029232D02*
D03*
X030623Y028032D02*
D03*
X030323Y028632D02*
D03*
Y029832D02*
D03*
X030923Y027432D02*
D03*
X031223Y029232D02*
D03*
Y030432D02*
D03*
Y031632D02*
D03*
X031823Y028032D02*
D03*
X031523Y028632D02*
D03*
X031823Y031632D02*
D03*
X031523Y032232D02*
D03*
X032123Y027432D02*
D03*
X032423Y029232D02*
D03*
X032123Y029832D02*
D03*
X032423Y030432D02*
D03*
X032123Y032232D02*
D03*
X033023Y028032D02*
D03*
X032723Y028632D02*
D03*
X033323Y027432D02*
D03*
X033623Y029232D02*
D03*
X034223Y028032D02*
D03*
X033923Y028632D02*
D03*
X022423Y029732D02*
D03*
X022973Y030182D02*
D03*
X029723Y027432D02*
D03*
X031823Y032732D02*
D03*
X032473D02*
D03*
X033123D02*
D03*
X033823D02*
D03*
X031123D02*
D03*
X027905Y029958D02*
D03*
X036495Y029539D02*
D03*
X036326Y031382D02*
D03*
Y031132D02*
D03*
Y028632D02*
D03*
X036676D02*
D03*
Y028382D02*
D03*
X036326D02*
D03*
X037942Y030932D02*
D03*
X036776Y032132D02*
D03*
X036676Y031382D02*
D03*
Y031132D02*
D03*
X036495Y030276D02*
D03*
X03811Y027558D02*
D03*
X036226Y027982D02*
D03*
X035176Y032032D02*
D03*
X037476Y029482D02*
D03*
X039226Y028367D02*
D03*
X039761Y027532D02*
D03*
X040076Y028032D02*
D03*
X042126Y027182D02*
D03*
X044876Y027232D02*
D03*
X042926Y028482D02*
D03*
X042576Y028132D02*
D03*
X041876Y029282D02*
D03*
X041826Y027982D02*
D03*
X042276Y029682D02*
D03*
X043126Y029282D02*
D03*
X043226Y028782D02*
D03*
X042276Y027832D02*
D03*
X039326Y030932D02*
D03*
X042111Y032032D02*
D03*
X039926Y028882D02*
D03*
X043126Y031982D02*
D03*
X042176Y030632D02*
D03*
X042776Y029632D02*
D03*
X042318Y030221D02*
D03*
X041226Y029382D02*
D03*
X040626Y029132D02*
D03*
X041476Y028882D02*
D03*
X041426Y028382D02*
D03*
X043576Y032056D02*
D03*
X043176Y032532D02*
D03*
X044276Y032782D02*
D03*
X046826Y032459D02*
D03*
X045003Y032482D02*
D03*
X044276Y030182D02*
D03*
X047426Y032082D02*
D03*
X044376Y031032D02*
D03*
X044026D02*
D03*
X045076Y028332D02*
D03*
X036376Y030782D02*
D03*
X036776D02*
D03*
X035926Y030082D02*
D03*
Y029682D02*
D03*
X036776Y028982D02*
D03*
X040976Y029182D02*
D03*
X041276Y029732D02*
D03*
X040676Y030932D02*
D03*
X038526Y030232D02*
D03*
X038926Y030582D02*
D03*
X038476Y029532D02*
D03*
X036926Y027132D02*
D03*
X034976Y027432D02*
D03*
X035576D02*
D03*
Y029832D02*
D03*
X035876Y031632D02*
D03*
X035576Y032232D02*
D03*
X036176Y027432D02*
D03*
X038876Y029232D02*
D03*
X040076D02*
D03*
X039776Y029832D02*
D03*
X041276Y031632D02*
D03*
X042176Y031032D02*
D03*
X043676Y029232D02*
D03*
X044276D02*
D03*
X044576Y032232D02*
D03*
X045176Y027432D02*
D03*
X046076Y028032D02*
D03*
X046676Y029232D02*
D03*
X047276Y028032D02*
D03*
X046976Y028632D02*
D03*
Y029832D02*
D03*
X047576Y027432D02*
D03*
X047876Y029232D02*
D03*
Y030432D02*
D03*
Y031632D02*
D03*
X048476Y028032D02*
D03*
X048176Y028632D02*
D03*
X048476Y031632D02*
D03*
X048176Y032232D02*
D03*
X048776Y027432D02*
D03*
X049076Y029232D02*
D03*
X048776Y029832D02*
D03*
X049076Y030432D02*
D03*
X048776Y032232D02*
D03*
X049676Y028032D02*
D03*
X049376Y028632D02*
D03*
X049976Y027432D02*
D03*
X050276Y029232D02*
D03*
X050876Y028032D02*
D03*
X050576Y028632D02*
D03*
X039076Y029732D02*
D03*
X039626Y030182D02*
D03*
X046376Y027432D02*
D03*
X048476Y032732D02*
D03*
X049126D02*
D03*
X049776D02*
D03*
X050476D02*
D03*
X047776D02*
D03*
X044559Y029958D02*
D03*
X019842Y035759D02*
D03*
X019673Y037603D02*
D03*
Y037353D02*
D03*
Y034853D02*
D03*
X020023D02*
D03*
Y034603D02*
D03*
X019673D02*
D03*
X021289Y037153D02*
D03*
X020123Y038353D02*
D03*
X020023Y037603D02*
D03*
Y037353D02*
D03*
X019842Y036496D02*
D03*
X021456Y033779D02*
D03*
X019573Y034203D02*
D03*
X018523Y038253D02*
D03*
X020823Y035703D02*
D03*
X022573Y034587D02*
D03*
X023107Y033753D02*
D03*
X023423Y034253D02*
D03*
X025473Y033403D02*
D03*
X028223Y033453D02*
D03*
X026273Y034703D02*
D03*
X025923Y034353D02*
D03*
X025223Y035503D02*
D03*
X025173Y034203D02*
D03*
X025623Y035903D02*
D03*
X026473Y035503D02*
D03*
X026573Y035003D02*
D03*
X025623Y034053D02*
D03*
X022673Y037153D02*
D03*
X025457Y038253D02*
D03*
X023273Y035103D02*
D03*
X026473Y038203D02*
D03*
X025523Y036853D02*
D03*
X026123Y035853D02*
D03*
X025664Y036441D02*
D03*
X024573Y035603D02*
D03*
X023973Y035353D02*
D03*
X024823Y035103D02*
D03*
X024773Y034603D02*
D03*
X026923Y038276D02*
D03*
X026523Y038753D02*
D03*
X027623Y039003D02*
D03*
X030173Y038679D02*
D03*
X02835Y038703D02*
D03*
X027623Y036403D02*
D03*
X030773Y038303D02*
D03*
X027723Y037253D02*
D03*
X027373D02*
D03*
X028423Y034553D02*
D03*
X019723Y037003D02*
D03*
X020123D02*
D03*
X019273Y036303D02*
D03*
Y035903D02*
D03*
X020123Y035203D02*
D03*
X024323Y035403D02*
D03*
X024623Y035953D02*
D03*
X024023Y037153D02*
D03*
X021873Y036453D02*
D03*
X022273Y036803D02*
D03*
X021823Y035753D02*
D03*
X020273Y033353D02*
D03*
X018323Y033653D02*
D03*
X018923D02*
D03*
Y036053D02*
D03*
X019223Y037853D02*
D03*
X018923Y038453D02*
D03*
X019523Y033653D02*
D03*
X022223Y035453D02*
D03*
X023423D02*
D03*
X023123Y036053D02*
D03*
X024623Y037853D02*
D03*
X025523Y037253D02*
D03*
X027023Y035453D02*
D03*
X027623D02*
D03*
X027923Y038453D02*
D03*
X028523Y033653D02*
D03*
X029423Y034253D02*
D03*
X030023Y035453D02*
D03*
X030623Y034253D02*
D03*
X030323Y034853D02*
D03*
Y036053D02*
D03*
X030923Y033653D02*
D03*
X031223Y035453D02*
D03*
Y036653D02*
D03*
Y037853D02*
D03*
X031823Y034253D02*
D03*
X031523Y034853D02*
D03*
X031823Y037853D02*
D03*
X031523Y038453D02*
D03*
X032123Y033653D02*
D03*
X032423Y035453D02*
D03*
X032123Y036053D02*
D03*
X032423Y036653D02*
D03*
X032123Y038453D02*
D03*
X033023Y034253D02*
D03*
X032723Y034853D02*
D03*
X033323Y033653D02*
D03*
X033623Y035453D02*
D03*
X034223Y034253D02*
D03*
X033923Y034853D02*
D03*
X022423Y035953D02*
D03*
X022973Y036403D02*
D03*
X029723Y033653D02*
D03*
X031823Y038953D02*
D03*
X032473D02*
D03*
X033123D02*
D03*
X033823D02*
D03*
X031123D02*
D03*
X027905Y036179D02*
D03*
X036495Y035759D02*
D03*
X036326Y037603D02*
D03*
Y037353D02*
D03*
Y034853D02*
D03*
X036676D02*
D03*
Y034603D02*
D03*
X036326D02*
D03*
X037942Y037153D02*
D03*
X036776Y038353D02*
D03*
X036676Y037603D02*
D03*
Y037353D02*
D03*
X036495Y036496D02*
D03*
X03811Y033779D02*
D03*
X036226Y034203D02*
D03*
X035176Y038253D02*
D03*
X037476Y035703D02*
D03*
X039226Y034587D02*
D03*
X039761Y033753D02*
D03*
X040076Y034253D02*
D03*
X042126Y033403D02*
D03*
X044876Y033453D02*
D03*
X042926Y034703D02*
D03*
X042576Y034353D02*
D03*
X041876Y035503D02*
D03*
X041826Y034203D02*
D03*
X042276Y035903D02*
D03*
X043126Y035503D02*
D03*
X043226Y035003D02*
D03*
X042276Y034053D02*
D03*
X039326Y037153D02*
D03*
X042111Y038253D02*
D03*
X039926Y035103D02*
D03*
X043126Y038203D02*
D03*
X042176Y036853D02*
D03*
X042776Y035853D02*
D03*
X042318Y036441D02*
D03*
X041226Y035603D02*
D03*
X040626Y035353D02*
D03*
X041476Y035103D02*
D03*
X041426Y034603D02*
D03*
X043576Y038276D02*
D03*
X043176Y038753D02*
D03*
X044276Y039003D02*
D03*
X046826Y038679D02*
D03*
X045003Y038703D02*
D03*
X044276Y036403D02*
D03*
X047426Y038303D02*
D03*
X044376Y037253D02*
D03*
X044026D02*
D03*
X045076Y034553D02*
D03*
X036376Y037003D02*
D03*
X036776D02*
D03*
X035926Y036303D02*
D03*
Y035903D02*
D03*
X036776Y035203D02*
D03*
X040976Y035403D02*
D03*
X041276Y035953D02*
D03*
X040676Y037153D02*
D03*
X038526Y036453D02*
D03*
X038926Y036803D02*
D03*
X038476Y035753D02*
D03*
X036926Y033353D02*
D03*
X034976Y033653D02*
D03*
X035576D02*
D03*
Y036053D02*
D03*
X035876Y037853D02*
D03*
X035576Y038453D02*
D03*
X036176Y033653D02*
D03*
X038876Y035453D02*
D03*
X040076D02*
D03*
X039776Y036053D02*
D03*
X041276Y037853D02*
D03*
X042176Y037253D02*
D03*
X043676Y035453D02*
D03*
X044276D02*
D03*
X044576Y038453D02*
D03*
X045176Y033653D02*
D03*
X046076Y034253D02*
D03*
X046676Y035453D02*
D03*
X047276Y034253D02*
D03*
X046976Y034853D02*
D03*
Y036053D02*
D03*
X047576Y033653D02*
D03*
X047876Y035453D02*
D03*
Y036653D02*
D03*
Y037853D02*
D03*
X048476Y034253D02*
D03*
X048176Y034853D02*
D03*
X048476Y037853D02*
D03*
X048176Y038453D02*
D03*
X048776Y033653D02*
D03*
X049076Y035453D02*
D03*
X048776Y036053D02*
D03*
X049076Y036653D02*
D03*
X048776Y038453D02*
D03*
X049676Y034253D02*
D03*
X049376Y034853D02*
D03*
X049976Y033653D02*
D03*
X050276Y035453D02*
D03*
X050876Y034253D02*
D03*
X050576Y034853D02*
D03*
X039076Y035953D02*
D03*
X039626Y036403D02*
D03*
X046376Y033653D02*
D03*
X048476Y038953D02*
D03*
X049126D02*
D03*
X049776D02*
D03*
X050476D02*
D03*
X047776D02*
D03*
X044559Y036179D02*
D03*
X019842Y04198D02*
D03*
X019673Y043823D02*
D03*
Y043573D02*
D03*
Y041073D02*
D03*
X020023D02*
D03*
Y040823D02*
D03*
X019673D02*
D03*
X021289Y043373D02*
D03*
X020123Y044573D02*
D03*
X020023Y043823D02*
D03*
Y043573D02*
D03*
X019842Y042717D02*
D03*
X021456Y039999D02*
D03*
X019573Y040423D02*
D03*
X018523Y044473D02*
D03*
X020823Y041923D02*
D03*
X022573Y040807D02*
D03*
X023107Y039973D02*
D03*
X023423Y040473D02*
D03*
X025473Y039623D02*
D03*
X028223Y039673D02*
D03*
X026273Y040923D02*
D03*
X025923Y040573D02*
D03*
X025223Y041723D02*
D03*
X025173Y040423D02*
D03*
X025623Y042123D02*
D03*
X026473Y041723D02*
D03*
X026573Y041223D02*
D03*
X025623Y040273D02*
D03*
X022673Y043373D02*
D03*
X025457Y044473D02*
D03*
X023273Y041323D02*
D03*
X026473Y044423D02*
D03*
X025523Y043073D02*
D03*
X026123Y042073D02*
D03*
X025664Y042662D02*
D03*
X024573Y041823D02*
D03*
X023973Y041573D02*
D03*
X024823Y041323D02*
D03*
X024773Y040823D02*
D03*
X026923Y044497D02*
D03*
X026523Y044973D02*
D03*
X027623Y045223D02*
D03*
X030173Y0449D02*
D03*
X02835Y044923D02*
D03*
X027623Y042623D02*
D03*
X030773Y044523D02*
D03*
X027723Y043473D02*
D03*
X027373D02*
D03*
X028423Y040773D02*
D03*
X019723Y043223D02*
D03*
X020123D02*
D03*
X019273Y042523D02*
D03*
Y042123D02*
D03*
X020123Y041423D02*
D03*
X024323Y041623D02*
D03*
X024623Y042173D02*
D03*
X024023Y043373D02*
D03*
X021873Y042673D02*
D03*
X022273Y043023D02*
D03*
X021823Y041973D02*
D03*
X020273Y039573D02*
D03*
X018323Y039873D02*
D03*
X018923D02*
D03*
Y042273D02*
D03*
X019223Y044073D02*
D03*
X018923Y044673D02*
D03*
X019523Y039873D02*
D03*
X022223Y041673D02*
D03*
X023423D02*
D03*
X023123Y042273D02*
D03*
X024623Y044073D02*
D03*
X025523Y043473D02*
D03*
X027023Y041673D02*
D03*
X027623D02*
D03*
X027923Y044673D02*
D03*
X028523Y039873D02*
D03*
X029423Y040473D02*
D03*
X030023Y041673D02*
D03*
X030623Y040473D02*
D03*
X030323Y041073D02*
D03*
Y042273D02*
D03*
X030923Y039873D02*
D03*
X031223Y041673D02*
D03*
Y042873D02*
D03*
Y044073D02*
D03*
X031823Y040473D02*
D03*
X031523Y041073D02*
D03*
X031823Y044073D02*
D03*
X031523Y044673D02*
D03*
X032123Y039873D02*
D03*
X032423Y041673D02*
D03*
X032123Y042273D02*
D03*
X032423Y042873D02*
D03*
X032123Y044673D02*
D03*
X033023Y040473D02*
D03*
X032723Y041073D02*
D03*
X033323Y039873D02*
D03*
X033623Y041673D02*
D03*
X034223Y040473D02*
D03*
X033923Y041073D02*
D03*
X022423Y042173D02*
D03*
X022973Y042623D02*
D03*
X029723Y039873D02*
D03*
X031823Y045173D02*
D03*
X032473D02*
D03*
X033123D02*
D03*
X033823D02*
D03*
X031123D02*
D03*
X027905Y042399D02*
D03*
X036495Y04198D02*
D03*
X036326Y043823D02*
D03*
Y043573D02*
D03*
Y041073D02*
D03*
X036676D02*
D03*
Y040823D02*
D03*
X036326D02*
D03*
X037942Y043373D02*
D03*
X036776Y044573D02*
D03*
X036676Y043823D02*
D03*
Y043573D02*
D03*
X036495Y042717D02*
D03*
X03811Y039999D02*
D03*
X036226Y040423D02*
D03*
X035176Y044473D02*
D03*
X037476Y041923D02*
D03*
X039226Y040807D02*
D03*
X039761Y039973D02*
D03*
X040076Y040473D02*
D03*
X042126Y039623D02*
D03*
X044876Y039673D02*
D03*
X042926Y040923D02*
D03*
X042576Y040573D02*
D03*
X041876Y041723D02*
D03*
X041826Y040423D02*
D03*
X042276Y042123D02*
D03*
X043126Y041723D02*
D03*
X043226Y041223D02*
D03*
X042276Y040273D02*
D03*
X039326Y043373D02*
D03*
X042111Y044473D02*
D03*
X039926Y041323D02*
D03*
X043126Y044423D02*
D03*
X042176Y043073D02*
D03*
X042776Y042073D02*
D03*
X042318Y042662D02*
D03*
X041226Y041823D02*
D03*
X040626Y041573D02*
D03*
X041476Y041323D02*
D03*
X041426Y040823D02*
D03*
X043576Y044497D02*
D03*
X043176Y044973D02*
D03*
X044276Y045223D02*
D03*
X046826Y0449D02*
D03*
X045003Y044923D02*
D03*
X044276Y042623D02*
D03*
X047426Y044523D02*
D03*
X044376Y043473D02*
D03*
X044026D02*
D03*
X045076Y040773D02*
D03*
X036376Y043223D02*
D03*
X036776D02*
D03*
X035926Y042523D02*
D03*
Y042123D02*
D03*
X036776Y041423D02*
D03*
X040976Y041623D02*
D03*
X041276Y042173D02*
D03*
X040676Y043373D02*
D03*
X038526Y042673D02*
D03*
X038926Y043023D02*
D03*
X038476Y041973D02*
D03*
X036926Y039573D02*
D03*
X034976Y039873D02*
D03*
X035576D02*
D03*
Y042273D02*
D03*
X035876Y044073D02*
D03*
X035576Y044673D02*
D03*
X036176Y039873D02*
D03*
X038876Y041673D02*
D03*
X040076D02*
D03*
X039776Y042273D02*
D03*
X041276Y044073D02*
D03*
X042176Y043473D02*
D03*
X043676Y041673D02*
D03*
X044276D02*
D03*
X044576Y044673D02*
D03*
X045176Y039873D02*
D03*
X046076Y040473D02*
D03*
X046676Y041673D02*
D03*
X047276Y040473D02*
D03*
X046976Y041073D02*
D03*
Y042273D02*
D03*
X047576Y039873D02*
D03*
X047876Y041673D02*
D03*
Y042873D02*
D03*
Y044073D02*
D03*
X048476Y040473D02*
D03*
X048176Y041073D02*
D03*
X048476Y044073D02*
D03*
X048176Y044673D02*
D03*
X048776Y039873D02*
D03*
X049076Y041673D02*
D03*
X048776Y042273D02*
D03*
X049076Y042873D02*
D03*
X048776Y044673D02*
D03*
X049676Y040473D02*
D03*
X049376Y041073D02*
D03*
X049976Y039873D02*
D03*
X050276Y041673D02*
D03*
X050876Y040473D02*
D03*
X050576Y041073D02*
D03*
X039076Y042173D02*
D03*
X039626Y042623D02*
D03*
X046376Y039873D02*
D03*
X048476Y045173D02*
D03*
X049126D02*
D03*
X049776D02*
D03*
X050476D02*
D03*
X047776D02*
D03*
X044559Y042399D02*
D03*
M02*
