G04*
G04 #@! TF.GenerationSoftware,Altium Limited,Altium Designer,22.10.1 (41)*
G04*
G04 Layer_Color=65535*
%FSTAX24Y24*%
%MOIN*%
G70*
G04*
G04 #@! TF.SameCoordinates,8E8F082C-EA0B-43D0-983D-46ADB54C0823*
G04*
G04*
G04 #@! TF.FilePolarity,Positive*
G04*
G01*
G75*
%ADD40C,0.0080*%
%ADD55C,0.0079*%
%ADD56C,0.0098*%
%ADD57C,0.0059*%
%ADD58C,0.0050*%
%ADD59C,0.0060*%
G36*
X042343Y040064D02*
X042176Y039897D01*
X042009Y040064D01*
X042093Y040148D01*
X04226D01*
X042343Y040064D01*
D02*
G37*
G36*
X02569D02*
X025523Y039897D01*
X025356Y040064D01*
X025439Y040148D01*
X025606D01*
X02569Y040064D01*
D02*
G37*
G36*
X042343Y033844D02*
X042176Y033677D01*
X042009Y033844D01*
X042093Y033927D01*
X04226D01*
X042343Y033844D01*
D02*
G37*
G36*
X02569D02*
X025523Y033677D01*
X025356Y033844D01*
X025439Y033927D01*
X025606D01*
X02569Y033844D01*
D02*
G37*
G36*
X042343Y027623D02*
X042176Y027456D01*
X042009Y027623D01*
X042093Y027707D01*
X04226D01*
X042343Y027623D01*
D02*
G37*
G36*
X02569D02*
X025523Y027456D01*
X025356Y027623D01*
X025439Y027707D01*
X025606D01*
X02569Y027623D01*
D02*
G37*
G36*
X042343Y021403D02*
X042176Y021236D01*
X042009Y021403D01*
X042093Y021486D01*
X04226D01*
X042343Y021403D01*
D02*
G37*
G36*
X02569D02*
X025523Y021236D01*
X025356Y021403D01*
X025439Y021486D01*
X025606D01*
X02569Y021403D01*
D02*
G37*
G36*
X042343Y015182D02*
X042176Y015015D01*
X042009Y015182D01*
X042093Y015266D01*
X04226D01*
X042343Y015182D01*
D02*
G37*
G36*
X02569D02*
X025523Y015015D01*
X025356Y015182D01*
X025439Y015266D01*
X025606D01*
X02569Y015182D01*
D02*
G37*
D40*
X020763Y014931D02*
X021083D01*
X020763D02*
Y015151D01*
Y016051D02*
X021083D01*
X020763Y015831D02*
Y016051D01*
X037416Y014931D02*
X037736D01*
X037416D02*
Y015151D01*
Y016051D02*
X037736D01*
X037416Y015831D02*
Y016051D01*
X020763Y021152D02*
X021083D01*
X020763D02*
Y021372D01*
Y022272D02*
X021083D01*
X020763Y022052D02*
Y022272D01*
X037416Y021152D02*
X037736D01*
X037416D02*
Y021372D01*
Y022272D02*
X037736D01*
X037416Y022052D02*
Y022272D01*
X020763Y027372D02*
X021083D01*
X020763D02*
Y027592D01*
Y028492D02*
X021083D01*
X020763Y028272D02*
Y028492D01*
X037416Y027372D02*
X037736D01*
X037416D02*
Y027592D01*
Y028492D02*
X037736D01*
X037416Y028272D02*
Y028492D01*
X020763Y033593D02*
X021083D01*
X020763D02*
Y033813D01*
Y034713D02*
X021083D01*
X020763Y034493D02*
Y034713D01*
X037416Y033593D02*
X037736D01*
X037416D02*
Y033813D01*
Y034713D02*
X037736D01*
X037416Y034493D02*
Y034713D01*
X020763Y039813D02*
X021083D01*
X020763D02*
Y040033D01*
Y040933D02*
X021083D01*
X020763Y040713D02*
Y040933D01*
X037416Y039813D02*
X037736D01*
X037416D02*
Y040033D01*
Y040933D02*
X037736D01*
X037416Y040713D02*
Y040933D01*
D55*
X027874Y019036D02*
G03*
X027874Y019036I-000039J0D01*
G01*
X02569Y015182D02*
G03*
X025356Y015182I-000167J-000167D01*
G01*
X030104Y016591D02*
G03*
X030104Y016591I-000039J0D01*
G01*
X020212Y018091D02*
G03*
X020212Y018091I-000039J0D01*
G01*
X032917Y018378D02*
G03*
X032917Y018378I-000039J0D01*
G01*
X024112Y020341D02*
G03*
X024112Y020341I-000039J0D01*
G01*
X025523Y015015D02*
X027249Y016741D01*
X023797D02*
X025523Y018467D01*
X023797Y016741D02*
X025523Y015015D01*
Y018467D02*
X027249Y016741D01*
X044528Y019036D02*
G03*
X044528Y019036I-000039J0D01*
G01*
X042343Y015182D02*
G03*
X042009Y015182I-000167J-000167D01*
G01*
X046758Y016591D02*
G03*
X046758Y016591I-000039J0D01*
G01*
X036866Y018091D02*
G03*
X036866Y018091I-000039J0D01*
G01*
X049571Y018378D02*
G03*
X049571Y018378I-000039J0D01*
G01*
X040766Y020341D02*
G03*
X040766Y020341I-000039J0D01*
G01*
X042176Y015015D02*
X043902Y016741D01*
X04045D02*
X042176Y018467D01*
X04045Y016741D02*
X042176Y015015D01*
Y018467D02*
X043902Y016741D01*
X027874Y025257D02*
G03*
X027874Y025257I-000039J0D01*
G01*
X02569Y021403D02*
G03*
X025356Y021403I-000167J-000167D01*
G01*
X030104Y022812D02*
G03*
X030104Y022812I-000039J0D01*
G01*
X020212Y024312D02*
G03*
X020212Y024312I-000039J0D01*
G01*
X032917Y024599D02*
G03*
X032917Y024599I-000039J0D01*
G01*
X024112Y026562D02*
G03*
X024112Y026562I-000039J0D01*
G01*
X025523Y021236D02*
X027249Y022962D01*
X023797D02*
X025523Y024688D01*
X023797Y022962D02*
X025523Y021236D01*
Y024688D02*
X027249Y022962D01*
X044528Y025257D02*
G03*
X044528Y025257I-000039J0D01*
G01*
X042343Y021403D02*
G03*
X042009Y021403I-000167J-000167D01*
G01*
X046758Y022812D02*
G03*
X046758Y022812I-000039J0D01*
G01*
X036866Y024312D02*
G03*
X036866Y024312I-000039J0D01*
G01*
X049571Y024599D02*
G03*
X049571Y024599I-000039J0D01*
G01*
X040766Y026562D02*
G03*
X040766Y026562I-000039J0D01*
G01*
X042176Y021236D02*
X043902Y022962D01*
X04045D02*
X042176Y024688D01*
X04045Y022962D02*
X042176Y021236D01*
Y024688D02*
X043902Y022962D01*
X027874Y031477D02*
G03*
X027874Y031477I-000039J0D01*
G01*
X02569Y027623D02*
G03*
X025356Y027623I-000167J-000167D01*
G01*
X030104Y029032D02*
G03*
X030104Y029032I-000039J0D01*
G01*
X020212Y030532D02*
G03*
X020212Y030532I-000039J0D01*
G01*
X032917Y030819D02*
G03*
X032917Y030819I-000039J0D01*
G01*
X024112Y032782D02*
G03*
X024112Y032782I-000039J0D01*
G01*
X025523Y027456D02*
X027249Y029182D01*
X023797D02*
X025523Y030908D01*
X023797Y029182D02*
X025523Y027456D01*
Y030908D02*
X027249Y029182D01*
X044528Y031477D02*
G03*
X044528Y031477I-000039J0D01*
G01*
X042343Y027623D02*
G03*
X042009Y027623I-000167J-000167D01*
G01*
X046758Y029032D02*
G03*
X046758Y029032I-000039J0D01*
G01*
X036866Y030532D02*
G03*
X036866Y030532I-000039J0D01*
G01*
X049571Y030819D02*
G03*
X049571Y030819I-000039J0D01*
G01*
X040766Y032782D02*
G03*
X040766Y032782I-000039J0D01*
G01*
X042176Y027456D02*
X043902Y029182D01*
X04045D02*
X042176Y030908D01*
X04045Y029182D02*
X042176Y027456D01*
Y030908D02*
X043902Y029182D01*
X027874Y037698D02*
G03*
X027874Y037698I-000039J0D01*
G01*
X02569Y033844D02*
G03*
X025356Y033844I-000167J-000167D01*
G01*
X030104Y035253D02*
G03*
X030104Y035253I-000039J0D01*
G01*
X020212Y036753D02*
G03*
X020212Y036753I-000039J0D01*
G01*
X032917Y03704D02*
G03*
X032917Y03704I-000039J0D01*
G01*
X024112Y039003D02*
G03*
X024112Y039003I-000039J0D01*
G01*
X025523Y033677D02*
X027249Y035403D01*
X023797D02*
X025523Y037129D01*
X023797Y035403D02*
X025523Y033677D01*
Y037129D02*
X027249Y035403D01*
X044528Y037698D02*
G03*
X044528Y037698I-000039J0D01*
G01*
X042343Y033844D02*
G03*
X042009Y033844I-000167J-000167D01*
G01*
X046758Y035253D02*
G03*
X046758Y035253I-000039J0D01*
G01*
X036866Y036753D02*
G03*
X036866Y036753I-000039J0D01*
G01*
X049571Y03704D02*
G03*
X049571Y03704I-000039J0D01*
G01*
X040766Y039003D02*
G03*
X040766Y039003I-000039J0D01*
G01*
X042176Y033677D02*
X043902Y035403D01*
X04045D02*
X042176Y037129D01*
X04045Y035403D02*
X042176Y033677D01*
Y037129D02*
X043902Y035403D01*
X027874Y043918D02*
G03*
X027874Y043918I-000039J0D01*
G01*
X02569Y040064D02*
G03*
X025356Y040064I-000167J-000167D01*
G01*
X030104Y041473D02*
G03*
X030104Y041473I-000039J0D01*
G01*
X020212Y042973D02*
G03*
X020212Y042973I-000039J0D01*
G01*
X032917Y04326D02*
G03*
X032917Y04326I-000039J0D01*
G01*
X024112Y045223D02*
G03*
X024112Y045223I-000039J0D01*
G01*
X025523Y039897D02*
X027249Y041623D01*
X023797D02*
X025523Y043349D01*
X023797Y041623D02*
X025523Y039897D01*
Y043349D02*
X027249Y041623D01*
X044528Y043918D02*
G03*
X044528Y043918I-000039J0D01*
G01*
X042343Y040064D02*
G03*
X042009Y040064I-000167J-000167D01*
G01*
X046758Y041473D02*
G03*
X046758Y041473I-000039J0D01*
G01*
X036866Y042973D02*
G03*
X036866Y042973I-000039J0D01*
G01*
X049571Y04326D02*
G03*
X049571Y04326I-000039J0D01*
G01*
X040766Y045223D02*
G03*
X040766Y045223I-000039J0D01*
G01*
X042176Y039897D02*
X043902Y041623D01*
X04045D02*
X042176Y043349D01*
X04045Y041623D02*
X042176Y039897D01*
Y043349D02*
X043902Y041623D01*
D56*
X025795Y014598D02*
G03*
X025795Y014598I-000049J0D01*
G01*
X042448D02*
G03*
X042448Y014598I-000049J0D01*
G01*
X025795Y020818D02*
G03*
X025795Y020818I-000049J0D01*
G01*
X042448D02*
G03*
X042448Y020818I-000049J0D01*
G01*
X025795Y027039D02*
G03*
X025795Y027039I-000049J0D01*
G01*
X042448D02*
G03*
X042448Y027039I-000049J0D01*
G01*
X025795Y033259D02*
G03*
X025795Y033259I-000049J0D01*
G01*
X042448D02*
G03*
X042448Y033259I-000049J0D01*
G01*
X025795Y03948D02*
G03*
X025795Y03948I-000049J0D01*
G01*
X042448D02*
G03*
X042448Y03948I-000049J0D01*
G01*
D57*
X032176Y018298D02*
X032255D01*
X032176D02*
Y019085D01*
X032255D01*
X032491D02*
X03257D01*
Y018298D02*
Y019085D01*
X032491Y018298D02*
X03257D01*
X028026Y016448D02*
X028105D01*
X028026D02*
Y017235D01*
X028105D01*
X028341D02*
X02842D01*
Y016448D02*
Y017235D01*
X028341Y016448D02*
X02842D01*
X032117Y018294D02*
Y018373D01*
X031329Y018294D02*
X032117D01*
X031329D02*
Y018373D01*
Y018609D02*
Y018688D01*
X032117D01*
Y018609D02*
Y018688D01*
X030542Y018294D02*
Y018373D01*
Y018294D02*
X03125D01*
Y018373D01*
Y018609D02*
Y018688D01*
X030542D02*
X03125D01*
X030542Y018609D02*
Y018688D01*
X031867Y017494D02*
Y017573D01*
X031079Y017494D02*
X031867D01*
X031079D02*
Y017573D01*
Y017809D02*
Y017888D01*
X031867D01*
Y017809D02*
Y017888D01*
Y017073D02*
X031867Y016994D01*
X031079D02*
X031867D01*
X031079D02*
Y017073D01*
Y017309D02*
Y017388D01*
X031867D01*
X031867Y017309D02*
X031867Y017388D01*
X030391Y017987D02*
X03047D01*
Y018696D01*
X030391Y018696D02*
X03047Y018696D01*
X030076D02*
X030155Y018696D01*
X030076Y017987D02*
Y018696D01*
Y017987D02*
X030155D01*
X030891Y017514D02*
X03097D01*
Y018222D01*
X030891D02*
X03097D01*
X030576D02*
X030655D01*
X030576Y017514D02*
Y018222D01*
Y017514D02*
X030655D01*
X029973Y019791D02*
X030373D01*
X030323Y020241D02*
X030373D01*
Y019341D02*
Y020241D01*
X030323Y019341D02*
X030373D01*
X029973D02*
X030023D01*
X029973D02*
Y020241D01*
X030023D01*
X029767Y019844D02*
Y019923D01*
X028979Y019844D02*
X029767D01*
X028979D02*
Y019923D01*
Y020159D02*
Y020238D01*
X029767D01*
Y020159D02*
Y020238D01*
X028129Y020159D02*
Y020238D01*
X028917D01*
Y020159D02*
Y020238D01*
Y019844D02*
Y019923D01*
X028129Y019844D02*
X028917D01*
X028129D02*
Y019923D01*
X023924Y015249D02*
Y015367D01*
X022822D02*
X023924D01*
X022822Y015249D02*
Y015367D01*
Y014816D02*
Y014934D01*
Y014816D02*
X023924D01*
Y014934D01*
X023373Y014816D02*
Y015367D01*
X025673Y019266D02*
Y019817D01*
X025122Y019699D02*
Y019817D01*
X026224D01*
Y019699D02*
Y019817D01*
Y019266D02*
Y019384D01*
X025122Y019266D02*
X026224D01*
X025122D02*
Y019384D01*
X022297Y016191D02*
X022848D01*
X02273Y016743D02*
X022848D01*
Y01564D02*
Y016743D01*
X02273Y01564D02*
X022848D01*
X022297D02*
X022415D01*
X022297D02*
Y016743D01*
X022415D01*
X020174Y020349D02*
Y020467D01*
X019072D02*
X020174D01*
X019072Y020349D02*
Y020467D01*
Y019916D02*
Y020034D01*
Y019916D02*
X020174D01*
Y020034D01*
X019623Y019916D02*
Y020467D01*
X022067Y016641D02*
Y016717D01*
X021067D02*
X022067D01*
X021067Y016641D02*
Y016717D01*
Y016166D02*
Y016241D01*
Y016166D02*
X022067D01*
Y016241D01*
X021567Y016166D02*
Y016717D01*
X021023Y018216D02*
Y018767D01*
X020472Y018649D02*
Y018767D01*
X021574D01*
Y018649D02*
Y018767D01*
Y018216D02*
Y018334D01*
X020472Y018216D02*
X021574D01*
X020472D02*
Y018334D01*
X027023Y014516D02*
Y014591D01*
Y014516D02*
X028023D01*
Y014591D01*
Y014991D02*
Y015067D01*
X027023D02*
X028023D01*
X027023Y014991D02*
Y015067D01*
X027523Y014516D02*
Y015067D01*
X028023Y015166D02*
Y015717D01*
X027472Y015599D02*
Y015717D01*
X028574D01*
Y015599D02*
Y015717D01*
Y015166D02*
Y015284D01*
X027472Y015166D02*
X028574D01*
X027472D02*
Y015284D01*
X04883Y018298D02*
X048908D01*
X04883D02*
Y019085D01*
X048908D01*
X049145D02*
X049223D01*
Y018298D02*
Y019085D01*
X049145Y018298D02*
X049223D01*
X04468Y016448D02*
X044758D01*
X04468D02*
Y017235D01*
X044758D01*
X044995D02*
X045073D01*
Y016448D02*
Y017235D01*
X044995Y016448D02*
X045073D01*
X04877Y018294D02*
Y018373D01*
X047983Y018294D02*
X04877D01*
X047983D02*
Y018373D01*
Y018609D02*
Y018688D01*
X04877D01*
Y018609D02*
Y018688D01*
X047195Y018294D02*
Y018373D01*
Y018294D02*
X047904D01*
Y018373D01*
Y018609D02*
Y018688D01*
X047195D02*
X047904D01*
X047195Y018609D02*
Y018688D01*
X04852Y017494D02*
Y017573D01*
X047733Y017494D02*
X04852D01*
X047733D02*
Y017573D01*
Y017809D02*
Y017888D01*
X04852D01*
Y017809D02*
Y017888D01*
Y017073D02*
X04852Y016994D01*
X047733D02*
X04852D01*
X047733D02*
Y017073D01*
Y017309D02*
Y017388D01*
X04852D01*
X04852Y017309D02*
X04852Y017388D01*
X047045Y017987D02*
X047123D01*
Y018696D01*
X047045Y018696D02*
X047123Y018696D01*
X04673D02*
X046808Y018696D01*
X04673Y017987D02*
Y018696D01*
Y017987D02*
X046808D01*
X047545Y017514D02*
X047623D01*
Y018222D01*
X047545D02*
X047623D01*
X04723D02*
X047308D01*
X04723Y017514D02*
Y018222D01*
Y017514D02*
X047308D01*
X046626Y019791D02*
X047026D01*
X046976Y020241D02*
X047026D01*
Y019341D02*
Y020241D01*
X046976Y019341D02*
X047026D01*
X046626D02*
X046676D01*
X046626D02*
Y020241D01*
X046676D01*
X04642Y019844D02*
Y019923D01*
X045633Y019844D02*
X04642D01*
X045633D02*
Y019923D01*
Y020159D02*
Y020238D01*
X04642D01*
Y020159D02*
Y020238D01*
X044783Y020159D02*
Y020238D01*
X04557D01*
Y020159D02*
Y020238D01*
Y019844D02*
Y019923D01*
X044783Y019844D02*
X04557D01*
X044783D02*
Y019923D01*
X040578Y015249D02*
Y015367D01*
X039475D02*
X040578D01*
X039475Y015249D02*
Y015367D01*
Y014816D02*
Y014934D01*
Y014816D02*
X040578D01*
Y014934D01*
X040026Y014816D02*
Y015367D01*
X042326Y019266D02*
Y019817D01*
X041775Y019699D02*
Y019817D01*
X042878D01*
Y019699D02*
Y019817D01*
Y019266D02*
Y019384D01*
X041775Y019266D02*
X042878D01*
X041775D02*
Y019384D01*
X038951Y016191D02*
X039502D01*
X039384Y016743D02*
X039502D01*
Y01564D02*
Y016743D01*
X039384Y01564D02*
X039502D01*
X038951D02*
X039069D01*
X038951D02*
Y016743D01*
X039069D01*
X036828Y020349D02*
Y020467D01*
X035725D02*
X036828D01*
X035725Y020349D02*
Y020467D01*
Y019916D02*
Y020034D01*
Y019916D02*
X036828D01*
Y020034D01*
X036276Y019916D02*
Y020467D01*
X038721Y016641D02*
Y016717D01*
X037721D02*
X038721D01*
X037721Y016641D02*
Y016717D01*
Y016166D02*
Y016241D01*
Y016166D02*
X038721D01*
Y016241D01*
X038221Y016166D02*
Y016717D01*
X037676Y018216D02*
Y018767D01*
X037125Y018649D02*
Y018767D01*
X038228D01*
Y018649D02*
Y018767D01*
Y018216D02*
Y018334D01*
X037125Y018216D02*
X038228D01*
X037125D02*
Y018334D01*
X043676Y014516D02*
Y014591D01*
Y014516D02*
X044676D01*
Y014591D01*
Y014991D02*
Y015067D01*
X043676D02*
X044676D01*
X043676Y014991D02*
Y015067D01*
X044176Y014516D02*
Y015067D01*
X044676Y015166D02*
Y015717D01*
X044125Y015599D02*
Y015717D01*
X045228D01*
Y015599D02*
Y015717D01*
Y015166D02*
Y015284D01*
X044125Y015166D02*
X045228D01*
X044125D02*
Y015284D01*
X032176Y024518D02*
X032255D01*
X032176D02*
Y025306D01*
X032255D01*
X032491D02*
X03257D01*
Y024518D02*
Y025306D01*
X032491Y024518D02*
X03257D01*
X028026Y022668D02*
X028105D01*
X028026D02*
Y023456D01*
X028105D01*
X028341D02*
X02842D01*
Y022668D02*
Y023456D01*
X028341Y022668D02*
X02842D01*
X032117Y024515D02*
Y024594D01*
X031329Y024515D02*
X032117D01*
X031329D02*
Y024594D01*
Y02483D02*
Y024909D01*
X032117D01*
Y02483D02*
Y024909D01*
X030542Y024515D02*
Y024594D01*
Y024515D02*
X03125D01*
Y024594D01*
Y02483D02*
Y024909D01*
X030542D02*
X03125D01*
X030542Y02483D02*
Y024909D01*
X031867Y023715D02*
Y023794D01*
X031079Y023715D02*
X031867D01*
X031079D02*
Y023794D01*
Y02403D02*
Y024109D01*
X031867D01*
Y02403D02*
Y024109D01*
Y023294D02*
X031867Y023215D01*
X031079D02*
X031867D01*
X031079D02*
Y023294D01*
Y02353D02*
Y023609D01*
X031867D01*
X031867Y02353D02*
X031867Y023609D01*
X030391Y024207D02*
X03047D01*
Y024916D01*
X030391Y024916D02*
X03047Y024916D01*
X030076D02*
X030155Y024916D01*
X030076Y024207D02*
Y024916D01*
Y024207D02*
X030155D01*
X030891Y023734D02*
X03097D01*
Y024443D01*
X030891D02*
X03097D01*
X030576D02*
X030655D01*
X030576Y023734D02*
Y024443D01*
Y023734D02*
X030655D01*
X029973Y026012D02*
X030373D01*
X030323Y026462D02*
X030373D01*
Y025562D02*
Y026462D01*
X030323Y025562D02*
X030373D01*
X029973D02*
X030023D01*
X029973D02*
Y026462D01*
X030023D01*
X029767Y026065D02*
Y026144D01*
X028979Y026065D02*
X029767D01*
X028979D02*
Y026144D01*
Y02638D02*
Y026459D01*
X029767D01*
Y02638D02*
Y026459D01*
X028129Y02638D02*
Y026459D01*
X028917D01*
Y02638D02*
Y026459D01*
Y026065D02*
Y026144D01*
X028129Y026065D02*
X028917D01*
X028129D02*
Y026144D01*
X023924Y021469D02*
Y021587D01*
X022822D02*
X023924D01*
X022822Y021469D02*
Y021587D01*
Y021036D02*
Y021154D01*
Y021036D02*
X023924D01*
Y021154D01*
X023373Y021036D02*
Y021587D01*
X025673Y025486D02*
Y026037D01*
X025122Y025919D02*
Y026037D01*
X026224D01*
Y025919D02*
Y026037D01*
Y025486D02*
Y025604D01*
X025122Y025486D02*
X026224D01*
X025122D02*
Y025604D01*
X022297Y022412D02*
X022848D01*
X02273Y022963D02*
X022848D01*
Y021861D02*
Y022963D01*
X02273Y021861D02*
X022848D01*
X022297D02*
X022415D01*
X022297D02*
Y022963D01*
X022415D01*
X020174Y026569D02*
Y026687D01*
X019072D02*
X020174D01*
X019072Y026569D02*
Y026687D01*
Y026136D02*
Y026254D01*
Y026136D02*
X020174D01*
Y026254D01*
X019623Y026136D02*
Y026687D01*
X022067Y022862D02*
Y022937D01*
X021067D02*
X022067D01*
X021067Y022862D02*
Y022937D01*
Y022386D02*
Y022462D01*
Y022386D02*
X022067D01*
Y022462D01*
X021567Y022386D02*
Y022937D01*
X021023Y024436D02*
Y024987D01*
X020472Y024869D02*
Y024987D01*
X021574D01*
Y024869D02*
Y024987D01*
Y024436D02*
Y024554D01*
X020472Y024436D02*
X021574D01*
X020472D02*
Y024554D01*
X027023Y020736D02*
Y020812D01*
Y020736D02*
X028023D01*
Y020812D01*
Y021212D02*
Y021287D01*
X027023D02*
X028023D01*
X027023Y021212D02*
Y021287D01*
X027523Y020736D02*
Y021287D01*
X028023Y021386D02*
Y021937D01*
X027472Y021819D02*
Y021937D01*
X028574D01*
Y021819D02*
Y021937D01*
Y021386D02*
Y021504D01*
X027472Y021386D02*
X028574D01*
X027472D02*
Y021504D01*
X04883Y024518D02*
X048908D01*
X04883D02*
Y025306D01*
X048908D01*
X049145D02*
X049223D01*
Y024518D02*
Y025306D01*
X049145Y024518D02*
X049223D01*
X04468Y022668D02*
X044758D01*
X04468D02*
Y023456D01*
X044758D01*
X044995D02*
X045073D01*
Y022668D02*
Y023456D01*
X044995Y022668D02*
X045073D01*
X04877Y024515D02*
Y024594D01*
X047983Y024515D02*
X04877D01*
X047983D02*
Y024594D01*
Y02483D02*
Y024909D01*
X04877D01*
Y02483D02*
Y024909D01*
X047195Y024515D02*
Y024594D01*
Y024515D02*
X047904D01*
Y024594D01*
Y02483D02*
Y024909D01*
X047195D02*
X047904D01*
X047195Y02483D02*
Y024909D01*
X04852Y023715D02*
Y023794D01*
X047733Y023715D02*
X04852D01*
X047733D02*
Y023794D01*
Y02403D02*
Y024109D01*
X04852D01*
Y02403D02*
Y024109D01*
Y023294D02*
X04852Y023215D01*
X047733D02*
X04852D01*
X047733D02*
Y023294D01*
Y02353D02*
Y023609D01*
X04852D01*
X04852Y02353D02*
X04852Y023609D01*
X047045Y024207D02*
X047123D01*
Y024916D01*
X047045Y024916D02*
X047123Y024916D01*
X04673D02*
X046808Y024916D01*
X04673Y024207D02*
Y024916D01*
Y024207D02*
X046808D01*
X047545Y023734D02*
X047623D01*
Y024443D01*
X047545D02*
X047623D01*
X04723D02*
X047308D01*
X04723Y023734D02*
Y024443D01*
Y023734D02*
X047308D01*
X046626Y026012D02*
X047026D01*
X046976Y026462D02*
X047026D01*
Y025562D02*
Y026462D01*
X046976Y025562D02*
X047026D01*
X046626D02*
X046676D01*
X046626D02*
Y026462D01*
X046676D01*
X04642Y026065D02*
Y026144D01*
X045633Y026065D02*
X04642D01*
X045633D02*
Y026144D01*
Y02638D02*
Y026459D01*
X04642D01*
Y02638D02*
Y026459D01*
X044783Y02638D02*
Y026459D01*
X04557D01*
Y02638D02*
Y026459D01*
Y026065D02*
Y026144D01*
X044783Y026065D02*
X04557D01*
X044783D02*
Y026144D01*
X040578Y021469D02*
Y021587D01*
X039475D02*
X040578D01*
X039475Y021469D02*
Y021587D01*
Y021036D02*
Y021154D01*
Y021036D02*
X040578D01*
Y021154D01*
X040026Y021036D02*
Y021587D01*
X042326Y025486D02*
Y026037D01*
X041775Y025919D02*
Y026037D01*
X042878D01*
Y025919D02*
Y026037D01*
Y025486D02*
Y025604D01*
X041775Y025486D02*
X042878D01*
X041775D02*
Y025604D01*
X038951Y022412D02*
X039502D01*
X039384Y022963D02*
X039502D01*
Y021861D02*
Y022963D01*
X039384Y021861D02*
X039502D01*
X038951D02*
X039069D01*
X038951D02*
Y022963D01*
X039069D01*
X036828Y026569D02*
Y026687D01*
X035725D02*
X036828D01*
X035725Y026569D02*
Y026687D01*
Y026136D02*
Y026254D01*
Y026136D02*
X036828D01*
Y026254D01*
X036276Y026136D02*
Y026687D01*
X038721Y022862D02*
Y022937D01*
X037721D02*
X038721D01*
X037721Y022862D02*
Y022937D01*
Y022386D02*
Y022462D01*
Y022386D02*
X038721D01*
Y022462D01*
X038221Y022386D02*
Y022937D01*
X037676Y024436D02*
Y024987D01*
X037125Y024869D02*
Y024987D01*
X038228D01*
Y024869D02*
Y024987D01*
Y024436D02*
Y024554D01*
X037125Y024436D02*
X038228D01*
X037125D02*
Y024554D01*
X043676Y020736D02*
Y020812D01*
Y020736D02*
X044676D01*
Y020812D01*
Y021212D02*
Y021287D01*
X043676D02*
X044676D01*
X043676Y021212D02*
Y021287D01*
X044176Y020736D02*
Y021287D01*
X044676Y021386D02*
Y021937D01*
X044125Y021819D02*
Y021937D01*
X045228D01*
Y021819D02*
Y021937D01*
Y021386D02*
Y021504D01*
X044125Y021386D02*
X045228D01*
X044125D02*
Y021504D01*
X032176Y030739D02*
X032255D01*
X032176D02*
Y031526D01*
X032255D01*
X032491D02*
X03257D01*
Y030739D02*
Y031526D01*
X032491Y030739D02*
X03257D01*
X028026Y028889D02*
X028105D01*
X028026D02*
Y029676D01*
X028105D01*
X028341D02*
X02842D01*
Y028889D02*
Y029676D01*
X028341Y028889D02*
X02842D01*
X032117Y030735D02*
Y030814D01*
X031329Y030735D02*
X032117D01*
X031329D02*
Y030814D01*
Y03105D02*
Y031129D01*
X032117D01*
Y03105D02*
Y031129D01*
X030542Y030735D02*
Y030814D01*
Y030735D02*
X03125D01*
Y030814D01*
Y03105D02*
Y031129D01*
X030542D02*
X03125D01*
X030542Y03105D02*
Y031129D01*
X031867Y029935D02*
Y030014D01*
X031079Y029935D02*
X031867D01*
X031079D02*
Y030014D01*
Y03025D02*
Y030329D01*
X031867D01*
Y03025D02*
Y030329D01*
Y029514D02*
X031867Y029435D01*
X031079D02*
X031867D01*
X031079D02*
Y029514D01*
Y02975D02*
Y029829D01*
X031867D01*
X031867Y02975D02*
X031867Y029829D01*
X030391Y030428D02*
X03047D01*
Y031137D01*
X030391Y031137D02*
X03047Y031137D01*
X030076D02*
X030155Y031137D01*
X030076Y030428D02*
Y031137D01*
Y030428D02*
X030155D01*
X030891Y029955D02*
X03097D01*
Y030663D01*
X030891D02*
X03097D01*
X030576D02*
X030655D01*
X030576Y029955D02*
Y030663D01*
Y029955D02*
X030655D01*
X029973Y032232D02*
X030373D01*
X030323Y032682D02*
X030373D01*
Y031782D02*
Y032682D01*
X030323Y031782D02*
X030373D01*
X029973D02*
X030023D01*
X029973D02*
Y032682D01*
X030023D01*
X029767Y032285D02*
Y032364D01*
X028979Y032285D02*
X029767D01*
X028979D02*
Y032364D01*
Y0326D02*
Y032679D01*
X029767D01*
Y0326D02*
Y032679D01*
X028129Y0326D02*
Y032679D01*
X028917D01*
Y0326D02*
Y032679D01*
Y032285D02*
Y032364D01*
X028129Y032285D02*
X028917D01*
X028129D02*
Y032364D01*
X023924Y02769D02*
Y027808D01*
X022822D02*
X023924D01*
X022822Y02769D02*
Y027808D01*
Y027257D02*
Y027375D01*
Y027257D02*
X023924D01*
Y027375D01*
X023373Y027257D02*
Y027808D01*
X025673Y031707D02*
Y032258D01*
X025122Y03214D02*
Y032258D01*
X026224D01*
Y03214D02*
Y032258D01*
Y031707D02*
Y031825D01*
X025122Y031707D02*
X026224D01*
X025122D02*
Y031825D01*
X022297Y028632D02*
X022848D01*
X02273Y029183D02*
X022848D01*
Y028081D02*
Y029183D01*
X02273Y028081D02*
X022848D01*
X022297D02*
X022415D01*
X022297D02*
Y029183D01*
X022415D01*
X020174Y03279D02*
Y032908D01*
X019072D02*
X020174D01*
X019072Y03279D02*
Y032908D01*
Y032357D02*
Y032475D01*
Y032357D02*
X020174D01*
Y032475D01*
X019623Y032357D02*
Y032908D01*
X022067Y029082D02*
Y029158D01*
X021067D02*
X022067D01*
X021067Y029082D02*
Y029158D01*
Y028607D02*
Y028682D01*
Y028607D02*
X022067D01*
Y028682D01*
X021567Y028607D02*
Y029158D01*
X021023Y030657D02*
Y031208D01*
X020472Y03109D02*
Y031208D01*
X021574D01*
Y03109D02*
Y031208D01*
Y030657D02*
Y030775D01*
X020472Y030657D02*
X021574D01*
X020472D02*
Y030775D01*
X027023Y026957D02*
Y027032D01*
Y026957D02*
X028023D01*
Y027032D01*
Y027432D02*
Y027508D01*
X027023D02*
X028023D01*
X027023Y027432D02*
Y027508D01*
X027523Y026957D02*
Y027508D01*
X028023Y027607D02*
Y028158D01*
X027472Y02804D02*
Y028158D01*
X028574D01*
Y02804D02*
Y028158D01*
Y027607D02*
Y027725D01*
X027472Y027607D02*
X028574D01*
X027472D02*
Y027725D01*
X04883Y030739D02*
X048908D01*
X04883D02*
Y031526D01*
X048908D01*
X049145D02*
X049223D01*
Y030739D02*
Y031526D01*
X049145Y030739D02*
X049223D01*
X04468Y028889D02*
X044758D01*
X04468D02*
Y029676D01*
X044758D01*
X044995D02*
X045073D01*
Y028889D02*
Y029676D01*
X044995Y028889D02*
X045073D01*
X04877Y030735D02*
Y030814D01*
X047983Y030735D02*
X04877D01*
X047983D02*
Y030814D01*
Y03105D02*
Y031129D01*
X04877D01*
Y03105D02*
Y031129D01*
X047195Y030735D02*
Y030814D01*
Y030735D02*
X047904D01*
Y030814D01*
Y03105D02*
Y031129D01*
X047195D02*
X047904D01*
X047195Y03105D02*
Y031129D01*
X04852Y029935D02*
Y030014D01*
X047733Y029935D02*
X04852D01*
X047733D02*
Y030014D01*
Y03025D02*
Y030329D01*
X04852D01*
Y03025D02*
Y030329D01*
Y029514D02*
X04852Y029435D01*
X047733D02*
X04852D01*
X047733D02*
Y029514D01*
Y02975D02*
Y029829D01*
X04852D01*
X04852Y02975D02*
X04852Y029829D01*
X047045Y030428D02*
X047123D01*
Y031137D01*
X047045Y031137D02*
X047123Y031137D01*
X04673D02*
X046808Y031137D01*
X04673Y030428D02*
Y031137D01*
Y030428D02*
X046808D01*
X047545Y029955D02*
X047623D01*
Y030663D01*
X047545D02*
X047623D01*
X04723D02*
X047308D01*
X04723Y029955D02*
Y030663D01*
Y029955D02*
X047308D01*
X046626Y032232D02*
X047026D01*
X046976Y032682D02*
X047026D01*
Y031782D02*
Y032682D01*
X046976Y031782D02*
X047026D01*
X046626D02*
X046676D01*
X046626D02*
Y032682D01*
X046676D01*
X04642Y032285D02*
Y032364D01*
X045633Y032285D02*
X04642D01*
X045633D02*
Y032364D01*
Y0326D02*
Y032679D01*
X04642D01*
Y0326D02*
Y032679D01*
X044783Y0326D02*
Y032679D01*
X04557D01*
Y0326D02*
Y032679D01*
Y032285D02*
Y032364D01*
X044783Y032285D02*
X04557D01*
X044783D02*
Y032364D01*
X040578Y02769D02*
Y027808D01*
X039475D02*
X040578D01*
X039475Y02769D02*
Y027808D01*
Y027257D02*
Y027375D01*
Y027257D02*
X040578D01*
Y027375D01*
X040026Y027257D02*
Y027808D01*
X042326Y031707D02*
Y032258D01*
X041775Y03214D02*
Y032258D01*
X042878D01*
Y03214D02*
Y032258D01*
Y031707D02*
Y031825D01*
X041775Y031707D02*
X042878D01*
X041775D02*
Y031825D01*
X038951Y028632D02*
X039502D01*
X039384Y029183D02*
X039502D01*
Y028081D02*
Y029183D01*
X039384Y028081D02*
X039502D01*
X038951D02*
X039069D01*
X038951D02*
Y029183D01*
X039069D01*
X036828Y03279D02*
Y032908D01*
X035725D02*
X036828D01*
X035725Y03279D02*
Y032908D01*
Y032357D02*
Y032475D01*
Y032357D02*
X036828D01*
Y032475D01*
X036276Y032357D02*
Y032908D01*
X038721Y029082D02*
Y029158D01*
X037721D02*
X038721D01*
X037721Y029082D02*
Y029158D01*
Y028607D02*
Y028682D01*
Y028607D02*
X038721D01*
Y028682D01*
X038221Y028607D02*
Y029158D01*
X037676Y030657D02*
Y031208D01*
X037125Y03109D02*
Y031208D01*
X038228D01*
Y03109D02*
Y031208D01*
Y030657D02*
Y030775D01*
X037125Y030657D02*
X038228D01*
X037125D02*
Y030775D01*
X043676Y026957D02*
Y027032D01*
Y026957D02*
X044676D01*
Y027032D01*
Y027432D02*
Y027508D01*
X043676D02*
X044676D01*
X043676Y027432D02*
Y027508D01*
X044176Y026957D02*
Y027508D01*
X044676Y027607D02*
Y028158D01*
X044125Y02804D02*
Y028158D01*
X045228D01*
Y02804D02*
Y028158D01*
Y027607D02*
Y027725D01*
X044125Y027607D02*
X045228D01*
X044125D02*
Y027725D01*
X032176Y036959D02*
X032255D01*
X032176D02*
Y037746D01*
X032255D01*
X032491D02*
X03257D01*
Y036959D02*
Y037746D01*
X032491Y036959D02*
X03257D01*
X028026Y035109D02*
X028105D01*
X028026D02*
Y035896D01*
X028105D01*
X028341D02*
X02842D01*
Y035109D02*
Y035896D01*
X028341Y035109D02*
X02842D01*
X032117Y036956D02*
Y037035D01*
X031329Y036956D02*
X032117D01*
X031329D02*
Y037035D01*
Y037271D02*
Y03735D01*
X032117D01*
Y037271D02*
Y03735D01*
X030542Y036956D02*
Y037035D01*
Y036956D02*
X03125D01*
Y037035D01*
Y037271D02*
Y03735D01*
X030542D02*
X03125D01*
X030542Y037271D02*
Y03735D01*
X031867Y036156D02*
Y036235D01*
X031079Y036156D02*
X031867D01*
X031079D02*
Y036235D01*
Y036471D02*
Y03655D01*
X031867D01*
Y036471D02*
Y03655D01*
Y035735D02*
X031867Y035656D01*
X031079D02*
X031867D01*
X031079D02*
Y035735D01*
Y035971D02*
Y03605D01*
X031867D01*
X031867Y035971D02*
X031867Y03605D01*
X030391Y036648D02*
X03047D01*
Y037357D01*
X030391Y037357D02*
X03047Y037357D01*
X030076D02*
X030155Y037357D01*
X030076Y036648D02*
Y037357D01*
Y036648D02*
X030155D01*
X030891Y036175D02*
X03097D01*
Y036884D01*
X030891D02*
X03097D01*
X030576D02*
X030655D01*
X030576Y036175D02*
Y036884D01*
Y036175D02*
X030655D01*
X029973Y038453D02*
X030373D01*
X030323Y038903D02*
X030373D01*
Y038003D02*
Y038903D01*
X030323Y038003D02*
X030373D01*
X029973D02*
X030023D01*
X029973D02*
Y038903D01*
X030023D01*
X029767Y038506D02*
Y038585D01*
X028979Y038506D02*
X029767D01*
X028979D02*
Y038585D01*
Y038821D02*
Y0389D01*
X029767D01*
Y038821D02*
Y0389D01*
X028129Y038821D02*
Y0389D01*
X028917D01*
Y038821D02*
Y0389D01*
Y038506D02*
Y038585D01*
X028129Y038506D02*
X028917D01*
X028129D02*
Y038585D01*
X023924Y03391D02*
Y034028D01*
X022822D02*
X023924D01*
X022822Y03391D02*
Y034028D01*
Y033477D02*
Y033595D01*
Y033477D02*
X023924D01*
Y033595D01*
X023373Y033477D02*
Y034028D01*
X025673Y037927D02*
Y038478D01*
X025122Y03836D02*
Y038478D01*
X026224D01*
Y03836D02*
Y038478D01*
Y037927D02*
Y038045D01*
X025122Y037927D02*
X026224D01*
X025122D02*
Y038045D01*
X022297Y034853D02*
X022848D01*
X02273Y035404D02*
X022848D01*
Y034302D02*
Y035404D01*
X02273Y034302D02*
X022848D01*
X022297D02*
X022415D01*
X022297D02*
Y035404D01*
X022415D01*
X020174Y03901D02*
Y039128D01*
X019072D02*
X020174D01*
X019072Y03901D02*
Y039128D01*
Y038577D02*
Y038695D01*
Y038577D02*
X020174D01*
Y038695D01*
X019623Y038577D02*
Y039128D01*
X022067Y035303D02*
Y035378D01*
X021067D02*
X022067D01*
X021067Y035303D02*
Y035378D01*
Y034827D02*
Y034903D01*
Y034827D02*
X022067D01*
Y034903D01*
X021567Y034827D02*
Y035378D01*
X021023Y036877D02*
Y037428D01*
X020472Y03731D02*
Y037428D01*
X021574D01*
Y03731D02*
Y037428D01*
Y036877D02*
Y036995D01*
X020472Y036877D02*
X021574D01*
X020472D02*
Y036995D01*
X027023Y033177D02*
Y033253D01*
Y033177D02*
X028023D01*
Y033253D01*
Y033653D02*
Y033728D01*
X027023D02*
X028023D01*
X027023Y033653D02*
Y033728D01*
X027523Y033177D02*
Y033728D01*
X028023Y033827D02*
Y034378D01*
X027472Y03426D02*
Y034378D01*
X028574D01*
Y03426D02*
Y034378D01*
Y033827D02*
Y033945D01*
X027472Y033827D02*
X028574D01*
X027472D02*
Y033945D01*
X04883Y036959D02*
X048908D01*
X04883D02*
Y037746D01*
X048908D01*
X049145D02*
X049223D01*
Y036959D02*
Y037746D01*
X049145Y036959D02*
X049223D01*
X04468Y035109D02*
X044758D01*
X04468D02*
Y035896D01*
X044758D01*
X044995D02*
X045073D01*
Y035109D02*
Y035896D01*
X044995Y035109D02*
X045073D01*
X04877Y036956D02*
Y037035D01*
X047983Y036956D02*
X04877D01*
X047983D02*
Y037035D01*
Y037271D02*
Y03735D01*
X04877D01*
Y037271D02*
Y03735D01*
X047195Y036956D02*
Y037035D01*
Y036956D02*
X047904D01*
Y037035D01*
Y037271D02*
Y03735D01*
X047195D02*
X047904D01*
X047195Y037271D02*
Y03735D01*
X04852Y036156D02*
Y036235D01*
X047733Y036156D02*
X04852D01*
X047733D02*
Y036235D01*
Y036471D02*
Y03655D01*
X04852D01*
Y036471D02*
Y03655D01*
Y035735D02*
X04852Y035656D01*
X047733D02*
X04852D01*
X047733D02*
Y035735D01*
Y035971D02*
Y03605D01*
X04852D01*
X04852Y035971D02*
X04852Y03605D01*
X047045Y036648D02*
X047123D01*
Y037357D01*
X047045Y037357D02*
X047123Y037357D01*
X04673D02*
X046808Y037357D01*
X04673Y036648D02*
Y037357D01*
Y036648D02*
X046808D01*
X047545Y036175D02*
X047623D01*
Y036884D01*
X047545D02*
X047623D01*
X04723D02*
X047308D01*
X04723Y036175D02*
Y036884D01*
Y036175D02*
X047308D01*
X046626Y038453D02*
X047026D01*
X046976Y038903D02*
X047026D01*
Y038003D02*
Y038903D01*
X046976Y038003D02*
X047026D01*
X046626D02*
X046676D01*
X046626D02*
Y038903D01*
X046676D01*
X04642Y038506D02*
Y038585D01*
X045633Y038506D02*
X04642D01*
X045633D02*
Y038585D01*
Y038821D02*
Y0389D01*
X04642D01*
Y038821D02*
Y0389D01*
X044783Y038821D02*
Y0389D01*
X04557D01*
Y038821D02*
Y0389D01*
Y038506D02*
Y038585D01*
X044783Y038506D02*
X04557D01*
X044783D02*
Y038585D01*
X040578Y03391D02*
Y034028D01*
X039475D02*
X040578D01*
X039475Y03391D02*
Y034028D01*
Y033477D02*
Y033595D01*
Y033477D02*
X040578D01*
Y033595D01*
X040026Y033477D02*
Y034028D01*
X042326Y037927D02*
Y038478D01*
X041775Y03836D02*
Y038478D01*
X042878D01*
Y03836D02*
Y038478D01*
Y037927D02*
Y038045D01*
X041775Y037927D02*
X042878D01*
X041775D02*
Y038045D01*
X038951Y034853D02*
X039502D01*
X039384Y035404D02*
X039502D01*
Y034302D02*
Y035404D01*
X039384Y034302D02*
X039502D01*
X038951D02*
X039069D01*
X038951D02*
Y035404D01*
X039069D01*
X036828Y03901D02*
Y039128D01*
X035725D02*
X036828D01*
X035725Y03901D02*
Y039128D01*
Y038577D02*
Y038695D01*
Y038577D02*
X036828D01*
Y038695D01*
X036276Y038577D02*
Y039128D01*
X038721Y035303D02*
Y035378D01*
X037721D02*
X038721D01*
X037721Y035303D02*
Y035378D01*
Y034827D02*
Y034903D01*
Y034827D02*
X038721D01*
Y034903D01*
X038221Y034827D02*
Y035378D01*
X037676Y036877D02*
Y037428D01*
X037125Y03731D02*
Y037428D01*
X038228D01*
Y03731D02*
Y037428D01*
Y036877D02*
Y036995D01*
X037125Y036877D02*
X038228D01*
X037125D02*
Y036995D01*
X043676Y033177D02*
Y033253D01*
Y033177D02*
X044676D01*
Y033253D01*
Y033653D02*
Y033728D01*
X043676D02*
X044676D01*
X043676Y033653D02*
Y033728D01*
X044176Y033177D02*
Y033728D01*
X044676Y033827D02*
Y034378D01*
X044125Y03426D02*
Y034378D01*
X045228D01*
Y03426D02*
Y034378D01*
Y033827D02*
Y033945D01*
X044125Y033827D02*
X045228D01*
X044125D02*
Y033945D01*
X032176Y04318D02*
X032255D01*
X032176D02*
Y043967D01*
X032255D01*
X032491D02*
X03257D01*
Y04318D02*
Y043967D01*
X032491Y04318D02*
X03257D01*
X028026Y04133D02*
X028105D01*
X028026D02*
Y042117D01*
X028105D01*
X028341D02*
X02842D01*
Y04133D02*
Y042117D01*
X028341Y04133D02*
X02842D01*
X032117Y043176D02*
Y043255D01*
X031329Y043176D02*
X032117D01*
X031329D02*
Y043255D01*
Y043491D02*
Y04357D01*
X032117D01*
Y043491D02*
Y04357D01*
X030542Y043176D02*
Y043255D01*
Y043176D02*
X03125D01*
Y043255D01*
Y043491D02*
Y04357D01*
X030542D02*
X03125D01*
X030542Y043491D02*
Y04357D01*
X031867Y042376D02*
Y042455D01*
X031079Y042376D02*
X031867D01*
X031079D02*
Y042455D01*
Y042691D02*
Y04277D01*
X031867D01*
Y042691D02*
Y04277D01*
Y041955D02*
X031867Y041876D01*
X031079D02*
X031867D01*
X031079D02*
Y041955D01*
Y042191D02*
Y04227D01*
X031867D01*
X031867Y042191D02*
X031867Y04227D01*
X030391Y042869D02*
X03047D01*
Y043578D01*
X030391Y043578D02*
X03047Y043578D01*
X030076D02*
X030155Y043578D01*
X030076Y042869D02*
Y043578D01*
Y042869D02*
X030155D01*
X030891Y042396D02*
X03097D01*
Y043104D01*
X030891D02*
X03097D01*
X030576D02*
X030655D01*
X030576Y042396D02*
Y043104D01*
Y042396D02*
X030655D01*
X029973Y044673D02*
X030373D01*
X030323Y045123D02*
X030373D01*
Y044223D02*
Y045123D01*
X030323Y044223D02*
X030373D01*
X029973D02*
X030023D01*
X029973D02*
Y045123D01*
X030023D01*
X029767Y044726D02*
Y044805D01*
X028979Y044726D02*
X029767D01*
X028979D02*
Y044805D01*
Y045041D02*
Y04512D01*
X029767D01*
Y045041D02*
Y04512D01*
X028129Y045041D02*
Y04512D01*
X028917D01*
Y045041D02*
Y04512D01*
Y044726D02*
Y044805D01*
X028129Y044726D02*
X028917D01*
X028129D02*
Y044805D01*
X023924Y040131D02*
Y040249D01*
X022822D02*
X023924D01*
X022822Y040131D02*
Y040249D01*
Y039698D02*
Y039816D01*
Y039698D02*
X023924D01*
Y039816D01*
X023373Y039698D02*
Y040249D01*
X025673Y044148D02*
Y044699D01*
X025122Y044581D02*
Y044699D01*
X026224D01*
Y044581D02*
Y044699D01*
Y044148D02*
Y044266D01*
X025122Y044148D02*
X026224D01*
X025122D02*
Y044266D01*
X022297Y041073D02*
X022848D01*
X02273Y041624D02*
X022848D01*
Y040522D02*
Y041624D01*
X02273Y040522D02*
X022848D01*
X022297D02*
X022415D01*
X022297D02*
Y041624D01*
X022415D01*
X020174Y045231D02*
Y045349D01*
X019072D02*
X020174D01*
X019072Y045231D02*
Y045349D01*
Y044798D02*
Y044916D01*
Y044798D02*
X020174D01*
Y044916D01*
X019623Y044798D02*
Y045349D01*
X022067Y041523D02*
Y041599D01*
X021067D02*
X022067D01*
X021067Y041523D02*
Y041599D01*
Y041048D02*
Y041123D01*
Y041048D02*
X022067D01*
Y041123D01*
X021567Y041048D02*
Y041599D01*
X021023Y043098D02*
Y043649D01*
X020472Y043531D02*
Y043649D01*
X021574D01*
Y043531D02*
Y043649D01*
Y043098D02*
Y043216D01*
X020472Y043098D02*
X021574D01*
X020472D02*
Y043216D01*
X027023Y039398D02*
Y039473D01*
Y039398D02*
X028023D01*
Y039473D01*
Y039873D02*
Y039949D01*
X027023D02*
X028023D01*
X027023Y039873D02*
Y039949D01*
X027523Y039398D02*
Y039949D01*
X028023Y040048D02*
Y040599D01*
X027472Y040481D02*
Y040599D01*
X028574D01*
Y040481D02*
Y040599D01*
Y040048D02*
Y040166D01*
X027472Y040048D02*
X028574D01*
X027472D02*
Y040166D01*
X04883Y04318D02*
X048908D01*
X04883D02*
Y043967D01*
X048908D01*
X049145D02*
X049223D01*
Y04318D02*
Y043967D01*
X049145Y04318D02*
X049223D01*
X04468Y04133D02*
X044758D01*
X04468D02*
Y042117D01*
X044758D01*
X044995D02*
X045073D01*
Y04133D02*
Y042117D01*
X044995Y04133D02*
X045073D01*
X04877Y043176D02*
Y043255D01*
X047983Y043176D02*
X04877D01*
X047983D02*
Y043255D01*
Y043491D02*
Y04357D01*
X04877D01*
Y043491D02*
Y04357D01*
X047195Y043176D02*
Y043255D01*
Y043176D02*
X047904D01*
Y043255D01*
Y043491D02*
Y04357D01*
X047195D02*
X047904D01*
X047195Y043491D02*
Y04357D01*
X04852Y042376D02*
Y042455D01*
X047733Y042376D02*
X04852D01*
X047733D02*
Y042455D01*
Y042691D02*
Y04277D01*
X04852D01*
Y042691D02*
Y04277D01*
Y041955D02*
X04852Y041876D01*
X047733D02*
X04852D01*
X047733D02*
Y041955D01*
Y042191D02*
Y04227D01*
X04852D01*
X04852Y042191D02*
X04852Y04227D01*
X047045Y042869D02*
X047123D01*
Y043578D01*
X047045Y043578D02*
X047123Y043578D01*
X04673D02*
X046808Y043578D01*
X04673Y042869D02*
Y043578D01*
Y042869D02*
X046808D01*
X047545Y042396D02*
X047623D01*
Y043104D01*
X047545D02*
X047623D01*
X04723D02*
X047308D01*
X04723Y042396D02*
Y043104D01*
Y042396D02*
X047308D01*
X046626Y044673D02*
X047026D01*
X046976Y045123D02*
X047026D01*
Y044223D02*
Y045123D01*
X046976Y044223D02*
X047026D01*
X046626D02*
X046676D01*
X046626D02*
Y045123D01*
X046676D01*
X04642Y044726D02*
Y044805D01*
X045633Y044726D02*
X04642D01*
X045633D02*
Y044805D01*
Y045041D02*
Y04512D01*
X04642D01*
Y045041D02*
Y04512D01*
X044783Y045041D02*
Y04512D01*
X04557D01*
Y045041D02*
Y04512D01*
Y044726D02*
Y044805D01*
X044783Y044726D02*
X04557D01*
X044783D02*
Y044805D01*
X040578Y040131D02*
Y040249D01*
X039475D02*
X040578D01*
X039475Y040131D02*
Y040249D01*
Y039698D02*
Y039816D01*
Y039698D02*
X040578D01*
Y039816D01*
X040026Y039698D02*
Y040249D01*
X042326Y044148D02*
Y044699D01*
X041775Y044581D02*
Y044699D01*
X042878D01*
Y044581D02*
Y044699D01*
Y044148D02*
Y044266D01*
X041775Y044148D02*
X042878D01*
X041775D02*
Y044266D01*
X038951Y041073D02*
X039502D01*
X039384Y041624D02*
X039502D01*
Y040522D02*
Y041624D01*
X039384Y040522D02*
X039502D01*
X038951D02*
X039069D01*
X038951D02*
Y041624D01*
X039069D01*
X036828Y045231D02*
Y045349D01*
X035725D02*
X036828D01*
X035725Y045231D02*
Y045349D01*
Y044798D02*
Y044916D01*
Y044798D02*
X036828D01*
Y044916D01*
X036276Y044798D02*
Y045349D01*
X038721Y041523D02*
Y041599D01*
X037721D02*
X038721D01*
X037721Y041523D02*
Y041599D01*
Y041048D02*
Y041123D01*
Y041048D02*
X038721D01*
Y041123D01*
X038221Y041048D02*
Y041599D01*
X037676Y043098D02*
Y043649D01*
X037125Y043531D02*
Y043649D01*
X038228D01*
Y043531D02*
Y043649D01*
Y043098D02*
Y043216D01*
X037125Y043098D02*
X038228D01*
X037125D02*
Y043216D01*
X043676Y039398D02*
Y039473D01*
Y039398D02*
X044676D01*
Y039473D01*
Y039873D02*
Y039949D01*
X043676D02*
X044676D01*
X043676Y039873D02*
Y039949D01*
X044176Y039398D02*
Y039949D01*
X044676Y040048D02*
Y040599D01*
X044125Y040481D02*
Y040599D01*
X045228D01*
Y040481D02*
Y040599D01*
Y040048D02*
Y040166D01*
X044125Y040048D02*
X045228D01*
X044125D02*
Y040166D01*
D58*
X028134Y01919D02*
Y019328D01*
Y017753D02*
Y017891D01*
X029709Y01919D02*
Y019328D01*
Y017753D02*
Y017891D01*
X028134Y019328D02*
X028272D01*
X028134Y017753D02*
X028272D01*
X029571Y019328D02*
X029709D01*
X029571Y017753D02*
X029709D01*
X028569Y016335D02*
Y016847D01*
X029829Y016335D02*
Y016847D01*
X020503Y016825D02*
X021143D01*
X020503Y018057D02*
X021143D01*
X022786Y018654D02*
Y020229D01*
X02436Y018654D02*
Y020229D01*
X022786D02*
X02436D01*
X022786Y018654D02*
X02436D01*
X044788Y01919D02*
Y019328D01*
Y017753D02*
Y017891D01*
X046363Y01919D02*
Y019328D01*
Y017753D02*
Y017891D01*
X044788Y019328D02*
X044926D01*
X044788Y017753D02*
X044926D01*
X046225Y019328D02*
X046363D01*
X046225Y017753D02*
X046363D01*
X045223Y016335D02*
Y016847D01*
X046482Y016335D02*
Y016847D01*
X037157Y016825D02*
X037796D01*
X037157Y018057D02*
X037796D01*
X039439Y018654D02*
Y020229D01*
X041014Y018654D02*
Y020229D01*
X039439D02*
X041014D01*
X039439Y018654D02*
X041014D01*
X028134Y02541D02*
Y025548D01*
Y023973D02*
Y024111D01*
X029709Y02541D02*
Y025548D01*
Y023973D02*
Y024111D01*
X028134Y025548D02*
X028272D01*
X028134Y023973D02*
X028272D01*
X029571Y025548D02*
X029709D01*
X029571Y023973D02*
X029709D01*
X028569Y022556D02*
Y023068D01*
X029829Y022556D02*
Y023068D01*
X020503Y023046D02*
X021143D01*
X020503Y024278D02*
X021143D01*
X022786Y024874D02*
Y026449D01*
X02436Y024874D02*
Y026449D01*
X022786D02*
X02436D01*
X022786Y024874D02*
X02436D01*
X044788Y02541D02*
Y025548D01*
Y023973D02*
Y024111D01*
X046363Y02541D02*
Y025548D01*
Y023973D02*
Y024111D01*
X044788Y025548D02*
X044926D01*
X044788Y023973D02*
X044926D01*
X046225Y025548D02*
X046363D01*
X046225Y023973D02*
X046363D01*
X045223Y022556D02*
Y023068D01*
X046482Y022556D02*
Y023068D01*
X037157Y023046D02*
X037796D01*
X037157Y024278D02*
X037796D01*
X039439Y024874D02*
Y026449D01*
X041014Y024874D02*
Y026449D01*
X039439D02*
X041014D01*
X039439Y024874D02*
X041014D01*
X028134Y031631D02*
Y031768D01*
Y030194D02*
Y030331D01*
X029709Y031631D02*
Y031768D01*
Y030194D02*
Y030331D01*
X028134Y031768D02*
X028272D01*
X028134Y030194D02*
X028272D01*
X029571Y031768D02*
X029709D01*
X029571Y030194D02*
X029709D01*
X028569Y028776D02*
Y029288D01*
X029829Y028776D02*
Y029288D01*
X020503Y029266D02*
X021143D01*
X020503Y030498D02*
X021143D01*
X022786Y031095D02*
Y03267D01*
X02436Y031095D02*
Y03267D01*
X022786D02*
X02436D01*
X022786Y031095D02*
X02436D01*
X044788Y031631D02*
Y031768D01*
Y030194D02*
Y030331D01*
X046363Y031631D02*
Y031768D01*
Y030194D02*
Y030331D01*
X044788Y031768D02*
X044926D01*
X044788Y030194D02*
X044926D01*
X046225Y031768D02*
X046363D01*
X046225Y030194D02*
X046363D01*
X045223Y028776D02*
Y029288D01*
X046482Y028776D02*
Y029288D01*
X037157Y029266D02*
X037796D01*
X037157Y030498D02*
X037796D01*
X039439Y031095D02*
Y03267D01*
X041014Y031095D02*
Y03267D01*
X039439D02*
X041014D01*
X039439Y031095D02*
X041014D01*
X028134Y037851D02*
Y037989D01*
Y036414D02*
Y036552D01*
X029709Y037851D02*
Y037989D01*
Y036414D02*
Y036552D01*
X028134Y037989D02*
X028272D01*
X028134Y036414D02*
X028272D01*
X029571Y037989D02*
X029709D01*
X029571Y036414D02*
X029709D01*
X028569Y034997D02*
Y035509D01*
X029829Y034997D02*
Y035509D01*
X020503Y035487D02*
X021143D01*
X020503Y036719D02*
X021143D01*
X022786Y037315D02*
Y03889D01*
X02436Y037315D02*
Y03889D01*
X022786D02*
X02436D01*
X022786Y037315D02*
X02436D01*
X044788Y037851D02*
Y037989D01*
Y036414D02*
Y036552D01*
X046363Y037851D02*
Y037989D01*
Y036414D02*
Y036552D01*
X044788Y037989D02*
X044926D01*
X044788Y036414D02*
X044926D01*
X046225Y037989D02*
X046363D01*
X046225Y036414D02*
X046363D01*
X045223Y034997D02*
Y035509D01*
X046482Y034997D02*
Y035509D01*
X037157Y035487D02*
X037796D01*
X037157Y036719D02*
X037796D01*
X039439Y037315D02*
Y03889D01*
X041014Y037315D02*
Y03889D01*
X039439D02*
X041014D01*
X039439Y037315D02*
X041014D01*
X028134Y044072D02*
Y044209D01*
Y042635D02*
Y042772D01*
X029709Y044072D02*
Y044209D01*
Y042635D02*
Y042772D01*
X028134Y044209D02*
X028272D01*
X028134Y042635D02*
X028272D01*
X029571Y044209D02*
X029709D01*
X029571Y042635D02*
X029709D01*
X028569Y041217D02*
Y041729D01*
X029829Y041217D02*
Y041729D01*
X020503Y041707D02*
X021143D01*
X020503Y042939D02*
X021143D01*
X022786Y043536D02*
Y045111D01*
X02436Y043536D02*
Y045111D01*
X022786D02*
X02436D01*
X022786Y043536D02*
X02436D01*
X044788Y044072D02*
Y044209D01*
Y042635D02*
Y042772D01*
X046363Y044072D02*
Y044209D01*
Y042635D02*
Y042772D01*
X044788Y044209D02*
X044926D01*
X044788Y042635D02*
X044926D01*
X046225Y044209D02*
X046363D01*
X046225Y042635D02*
X046363D01*
X045223Y041217D02*
Y041729D01*
X046482Y041217D02*
Y041729D01*
X037157Y041707D02*
X037796D01*
X037157Y042939D02*
X037796D01*
X039439Y043536D02*
Y045111D01*
X041014Y043536D02*
Y045111D01*
X039439D02*
X041014D01*
X039439Y043536D02*
X041014D01*
D59*
X02214Y01915D02*
X022098Y019191D01*
X022015D01*
X021973Y01915D01*
Y018983D01*
X022015Y018941D01*
X022098D01*
X02214Y018983D01*
X022223Y019191D02*
Y018941D01*
X022389D01*
X022473Y019191D02*
Y018941D01*
Y019025D01*
X022639Y019191D01*
X022514Y019066D01*
X022639Y018941D01*
X024473Y019191D02*
Y018941D01*
X024598D01*
X02464Y018983D01*
Y01915D01*
X024598Y019191D01*
X024473D01*
X024723D02*
X024806D01*
X024764D01*
Y018941D01*
X024723D01*
X024806D01*
X025056Y019191D02*
X024973D01*
X024931Y01915D01*
Y018983D01*
X024973Y018941D01*
X025056D01*
X025098Y018983D01*
Y01915D01*
X025056Y019191D01*
X02464Y02015D02*
X024598Y020191D01*
X024515D01*
X024473Y02015D01*
Y019983D01*
X024515Y019941D01*
X024598D01*
X02464Y019983D01*
Y020066D01*
X024556D01*
X024723Y019941D02*
Y020191D01*
X024889Y019941D01*
Y020191D01*
X024973D02*
Y019941D01*
X025098D01*
X025139Y019983D01*
Y02015D01*
X025098Y020191D01*
X024973D01*
X0224Y020201D02*
X022233D01*
Y020076D01*
X022316Y020118D01*
X022358D01*
X0224Y020076D01*
Y019993D01*
X022358Y019951D01*
X022275D01*
X022233Y019993D01*
X022483Y020201D02*
Y020035D01*
X022566Y019951D01*
X022649Y020035D01*
Y020201D01*
X018427Y020275D02*
X018385Y020316D01*
X018302D01*
X018261Y020275D01*
Y020108D01*
X018302Y020066D01*
X018385D01*
X018427Y020108D01*
X01851Y020066D02*
X018594D01*
X018552D01*
Y020316D01*
X01851Y020275D01*
X018719D02*
X01876Y020316D01*
X018844D01*
X018885Y020275D01*
Y020233D01*
X018844Y020191D01*
X018802D01*
X018844D01*
X018885Y02015D01*
Y020108D01*
X018844Y020066D01*
X01876D01*
X018719Y020108D01*
X029015Y016066D02*
Y016025D01*
X029098Y015941D01*
X029181Y016025D01*
Y016066D01*
X029098Y015941D02*
Y015816D01*
X029431D02*
X029265D01*
X029431Y015983D01*
Y016025D01*
X02939Y016066D01*
X029306D01*
X029265Y016025D01*
X020515Y016316D02*
Y016566D01*
X02064D01*
X020681Y016525D01*
Y016441D01*
X02064Y0164D01*
X020515D01*
X020598D02*
X020681Y016316D01*
X020765Y016525D02*
X020806Y016566D01*
X02089D01*
X020931Y016525D01*
Y016483D01*
X02089Y016441D01*
X020931Y0164D01*
Y016358D01*
X02089Y016316D01*
X020806D01*
X020765Y016358D01*
Y0164D01*
X020806Y016441D01*
X020765Y016483D01*
Y016525D01*
X020806Y016441D02*
X02089D01*
X030465Y019916D02*
Y020166D01*
X03059D01*
X030631Y020125D01*
Y020041D01*
X03059Y02D01*
X030465D01*
X030548D02*
X030631Y019916D01*
X030715Y020125D02*
X030756Y020166D01*
X03084D01*
X030881Y020125D01*
Y020083D01*
X03084Y020041D01*
X030798D01*
X03084D01*
X030881Y02D01*
Y019958D01*
X03084Y019916D01*
X030756D01*
X030715Y019958D01*
X026556Y014616D02*
Y014866D01*
X026681D01*
X026723Y014825D01*
Y014741D01*
X026681Y0147D01*
X026556D01*
X02664D02*
X026723Y014616D01*
X026806D02*
X02689D01*
X026848D01*
Y014866D01*
X026806Y014825D01*
X020423Y014958D02*
Y015125D01*
X020381Y015166D01*
X020298D01*
X020256Y015125D01*
Y014958D01*
X020298Y014916D01*
X020381D01*
X02034Y015D02*
X020423Y014916D01*
X020381D02*
X020423Y014958D01*
X020506Y014916D02*
X02059D01*
X020548D01*
Y015166D01*
X020506Y015125D01*
X030665Y019016D02*
Y018766D01*
X030831D01*
X030915Y018975D02*
X030956Y019016D01*
X03104D01*
X031081Y018975D01*
Y018933D01*
X03104Y018891D01*
X030998D01*
X03104D01*
X031081Y01885D01*
Y018808D01*
X03104Y018766D01*
X030956D01*
X030915Y018808D01*
X030015Y017866D02*
Y017616D01*
X030181D01*
X030431D02*
X030265D01*
X030431Y017783D01*
Y017825D01*
X03039Y017866D01*
X030306D01*
X030265Y017825D01*
X030606Y017416D02*
Y017166D01*
X030773D01*
X030856D02*
X03094D01*
X030898D01*
Y017416D01*
X030856Y017375D01*
X028877Y015525D02*
X028835Y015566D01*
X028752D01*
X028711Y015525D01*
Y015358D01*
X028752Y015316D01*
X028835D01*
X028877Y015358D01*
X02896Y015316D02*
X029044D01*
X029002D01*
Y015566D01*
X02896Y015525D01*
X029294Y015316D02*
Y015566D01*
X029169Y015441D01*
X029335D01*
X022319Y015525D02*
X022277Y015566D01*
X022194D01*
X022152Y015525D01*
Y015358D01*
X022194Y015316D01*
X022277D01*
X022319Y015358D01*
X022402Y015316D02*
X022485D01*
X022444D01*
Y015566D01*
X022402Y015525D01*
X02261Y015316D02*
X022694D01*
X022652D01*
Y015566D01*
X02261Y015525D01*
X025643Y020175D02*
X025601Y020216D01*
X025518D01*
X025476Y020175D01*
Y020008D01*
X025518Y019966D01*
X025601D01*
X025643Y020008D01*
X025726Y019966D02*
X025809D01*
X025768D01*
Y020216D01*
X025726Y020175D01*
X025934D02*
X025976Y020216D01*
X026059D01*
X026101Y020175D01*
Y020008D01*
X026059Y019966D01*
X025976D01*
X025934Y020008D01*
Y020175D01*
X022431Y015175D02*
X02239Y015216D01*
X022306D01*
X022265Y015175D01*
Y015008D01*
X022306Y014966D01*
X02239D01*
X022431Y015008D01*
X022515D02*
X022556Y014966D01*
X02264D01*
X022681Y015008D01*
Y015175D01*
X02264Y015216D01*
X022556D01*
X022515Y015175D01*
Y015133D01*
X022556Y015091D01*
X022681D01*
X029631Y019725D02*
X02959Y019766D01*
X029506D01*
X029465Y019725D01*
Y019558D01*
X029506Y019516D01*
X02959D01*
X029631Y019558D01*
X029715Y019725D02*
X029756Y019766D01*
X02984D01*
X029881Y019725D01*
Y019683D01*
X02984Y019641D01*
X029881Y0196D01*
Y019558D01*
X02984Y019516D01*
X029756D01*
X029715Y019558D01*
Y0196D01*
X029756Y019641D01*
X029715Y019683D01*
Y019725D01*
X029756Y019641D02*
X02984D01*
X028131Y016275D02*
X02809Y016316D01*
X028006D01*
X027965Y016275D01*
Y016108D01*
X028006Y016066D01*
X02809D01*
X028131Y016108D01*
X028215Y016316D02*
X028381D01*
Y016275D01*
X028215Y016108D01*
Y016066D01*
X021881Y018575D02*
X02184Y018616D01*
X021756D01*
X021715Y018575D01*
Y018408D01*
X021756Y018366D01*
X02184D01*
X021881Y018408D01*
X022131Y018616D02*
X022048Y018575D01*
X021965Y018491D01*
Y018408D01*
X022006Y018366D01*
X02209D01*
X022131Y018408D01*
Y01845D01*
X02209Y018491D01*
X021965D01*
X032331Y019425D02*
X03229Y019466D01*
X032206D01*
X032165Y019425D01*
Y019258D01*
X032206Y019216D01*
X03229D01*
X032331Y019258D01*
X032581Y019466D02*
X032415D01*
Y019341D01*
X032498Y019383D01*
X03254D01*
X032581Y019341D01*
Y019258D01*
X03254Y019216D01*
X032456D01*
X032415Y019258D01*
X031681Y018975D02*
X03164Y019016D01*
X031556D01*
X031515Y018975D01*
Y018808D01*
X031556Y018766D01*
X03164D01*
X031681Y018808D01*
X03189Y018766D02*
Y019016D01*
X031765Y018891D01*
X031931D01*
X032131Y017225D02*
X03209Y017266D01*
X032006D01*
X031965Y017225D01*
Y017058D01*
X032006Y017016D01*
X03209D01*
X032131Y017058D01*
X032215Y017225D02*
X032256Y017266D01*
X03234D01*
X032381Y017225D01*
Y017183D01*
X03234Y017141D01*
X032298D01*
X03234D01*
X032381Y0171D01*
Y017058D01*
X03234Y017016D01*
X032256D01*
X032215Y017058D01*
X032131Y017725D02*
X03209Y017766D01*
X032006D01*
X031965Y017725D01*
Y017558D01*
X032006Y017516D01*
X03209D01*
X032131Y017558D01*
X032381Y017516D02*
X032215D01*
X032381Y017683D01*
Y017725D01*
X03234Y017766D01*
X032256D01*
X032215Y017725D01*
X027823Y020125D02*
X027781Y020166D01*
X027698D01*
X027656Y020125D01*
Y019958D01*
X027698Y019916D01*
X027781D01*
X027823Y019958D01*
X027906Y019916D02*
X02799D01*
X027948D01*
Y020166D01*
X027906Y020125D01*
X038793Y01915D02*
X038751Y019191D01*
X038668D01*
X038626Y01915D01*
Y018983D01*
X038668Y018941D01*
X038751D01*
X038793Y018983D01*
X038876Y019191D02*
Y018941D01*
X039043D01*
X039126Y019191D02*
Y018941D01*
Y019025D01*
X039293Y019191D01*
X039168Y019066D01*
X039293Y018941D01*
X041126Y019191D02*
Y018941D01*
X041251D01*
X041293Y018983D01*
Y01915D01*
X041251Y019191D01*
X041126D01*
X041376D02*
X04146D01*
X041418D01*
Y018941D01*
X041376D01*
X04146D01*
X04171Y019191D02*
X041626D01*
X041585Y01915D01*
Y018983D01*
X041626Y018941D01*
X04171D01*
X041751Y018983D01*
Y01915D01*
X04171Y019191D01*
X041293Y02015D02*
X041251Y020191D01*
X041168D01*
X041126Y02015D01*
Y019983D01*
X041168Y019941D01*
X041251D01*
X041293Y019983D01*
Y020066D01*
X04121D01*
X041376Y019941D02*
Y020191D01*
X041543Y019941D01*
Y020191D01*
X041626D02*
Y019941D01*
X041751D01*
X041793Y019983D01*
Y02015D01*
X041751Y020191D01*
X041626D01*
X039053Y020201D02*
X038886D01*
Y020076D01*
X03897Y020118D01*
X039011D01*
X039053Y020076D01*
Y019993D01*
X039011Y019951D01*
X038928D01*
X038886Y019993D01*
X039136Y020201D02*
Y020035D01*
X03922Y019951D01*
X039303Y020035D01*
Y020201D01*
X035081Y020275D02*
X035039Y020316D01*
X034956D01*
X034914Y020275D01*
Y020108D01*
X034956Y020066D01*
X035039D01*
X035081Y020108D01*
X035164Y020066D02*
X035247D01*
X035206D01*
Y020316D01*
X035164Y020275D01*
X035372D02*
X035414Y020316D01*
X035497D01*
X035539Y020275D01*
Y020233D01*
X035497Y020191D01*
X035456D01*
X035497D01*
X035539Y02015D01*
Y020108D01*
X035497Y020066D01*
X035414D01*
X035372Y020108D01*
X045668Y016066D02*
Y016025D01*
X045751Y015941D01*
X045835Y016025D01*
Y016066D01*
X045751Y015941D02*
Y015816D01*
X046085D02*
X045918D01*
X046085Y015983D01*
Y016025D01*
X046043Y016066D01*
X04596D01*
X045918Y016025D01*
X037168Y016316D02*
Y016566D01*
X037293D01*
X037335Y016525D01*
Y016441D01*
X037293Y0164D01*
X037168D01*
X037251D02*
X037335Y016316D01*
X037418Y016525D02*
X03746Y016566D01*
X037543D01*
X037585Y016525D01*
Y016483D01*
X037543Y016441D01*
X037585Y0164D01*
Y016358D01*
X037543Y016316D01*
X03746D01*
X037418Y016358D01*
Y0164D01*
X03746Y016441D01*
X037418Y016483D01*
Y016525D01*
X03746Y016441D02*
X037543D01*
X047118Y019916D02*
Y020166D01*
X047243D01*
X047285Y020125D01*
Y020041D01*
X047243Y02D01*
X047118D01*
X047201D02*
X047285Y019916D01*
X047368Y020125D02*
X04741Y020166D01*
X047493D01*
X047535Y020125D01*
Y020083D01*
X047493Y020041D01*
X047451D01*
X047493D01*
X047535Y02D01*
Y019958D01*
X047493Y019916D01*
X04741D01*
X047368Y019958D01*
X04321Y014616D02*
Y014866D01*
X043335D01*
X043376Y014825D01*
Y014741D01*
X043335Y0147D01*
X04321D01*
X043293D02*
X043376Y014616D01*
X04346D02*
X043543D01*
X043501D01*
Y014866D01*
X04346Y014825D01*
X037076Y014958D02*
Y015125D01*
X037035Y015166D01*
X036951D01*
X03691Y015125D01*
Y014958D01*
X036951Y014916D01*
X037035D01*
X036993Y015D02*
X037076Y014916D01*
X037035D02*
X037076Y014958D01*
X03716Y014916D02*
X037243D01*
X037201D01*
Y015166D01*
X03716Y015125D01*
X047318Y019016D02*
Y018766D01*
X047485D01*
X047568Y018975D02*
X04761Y019016D01*
X047693D01*
X047735Y018975D01*
Y018933D01*
X047693Y018891D01*
X047651D01*
X047693D01*
X047735Y01885D01*
Y018808D01*
X047693Y018766D01*
X04761D01*
X047568Y018808D01*
X046668Y017866D02*
Y017616D01*
X046835D01*
X047085D02*
X046918D01*
X047085Y017783D01*
Y017825D01*
X047043Y017866D01*
X04696D01*
X046918Y017825D01*
X04726Y017416D02*
Y017166D01*
X047426D01*
X04751D02*
X047593D01*
X047551D01*
Y017416D01*
X04751Y017375D01*
X045531Y015525D02*
X045489Y015566D01*
X045406D01*
X045364Y015525D01*
Y015358D01*
X045406Y015316D01*
X045489D01*
X045531Y015358D01*
X045614Y015316D02*
X045697D01*
X045656D01*
Y015566D01*
X045614Y015525D01*
X045947Y015316D02*
Y015566D01*
X045822Y015441D01*
X045989D01*
X038972Y015525D02*
X038931Y015566D01*
X038847D01*
X038806Y015525D01*
Y015358D01*
X038847Y015316D01*
X038931D01*
X038972Y015358D01*
X039056Y015316D02*
X039139D01*
X039097D01*
Y015566D01*
X039056Y015525D01*
X039264Y015316D02*
X039347D01*
X039306D01*
Y015566D01*
X039264Y015525D01*
X042296Y020175D02*
X042255Y020216D01*
X042171D01*
X04213Y020175D01*
Y020008D01*
X042171Y019966D01*
X042255D01*
X042296Y020008D01*
X04238Y019966D02*
X042463D01*
X042421D01*
Y020216D01*
X04238Y020175D01*
X042588D02*
X04263Y020216D01*
X042713D01*
X042755Y020175D01*
Y020008D01*
X042713Y019966D01*
X04263D01*
X042588Y020008D01*
Y020175D01*
X039085Y015175D02*
X039043Y015216D01*
X03896D01*
X038918Y015175D01*
Y015008D01*
X03896Y014966D01*
X039043D01*
X039085Y015008D01*
X039168D02*
X03921Y014966D01*
X039293D01*
X039335Y015008D01*
Y015175D01*
X039293Y015216D01*
X03921D01*
X039168Y015175D01*
Y015133D01*
X03921Y015091D01*
X039335D01*
X046285Y019725D02*
X046243Y019766D01*
X04616D01*
X046118Y019725D01*
Y019558D01*
X04616Y019516D01*
X046243D01*
X046285Y019558D01*
X046368Y019725D02*
X04641Y019766D01*
X046493D01*
X046535Y019725D01*
Y019683D01*
X046493Y019641D01*
X046535Y0196D01*
Y019558D01*
X046493Y019516D01*
X04641D01*
X046368Y019558D01*
Y0196D01*
X04641Y019641D01*
X046368Y019683D01*
Y019725D01*
X04641Y019641D02*
X046493D01*
X044785Y016275D02*
X044743Y016316D01*
X04466D01*
X044618Y016275D01*
Y016108D01*
X04466Y016066D01*
X044743D01*
X044785Y016108D01*
X044868Y016316D02*
X045035D01*
Y016275D01*
X044868Y016108D01*
Y016066D01*
X038535Y018575D02*
X038493Y018616D01*
X03841D01*
X038368Y018575D01*
Y018408D01*
X03841Y018366D01*
X038493D01*
X038535Y018408D01*
X038785Y018616D02*
X038701Y018575D01*
X038618Y018491D01*
Y018408D01*
X03866Y018366D01*
X038743D01*
X038785Y018408D01*
Y01845D01*
X038743Y018491D01*
X038618D01*
X048985Y019425D02*
X048943Y019466D01*
X04886D01*
X048818Y019425D01*
Y019258D01*
X04886Y019216D01*
X048943D01*
X048985Y019258D01*
X049235Y019466D02*
X049068D01*
Y019341D01*
X049151Y019383D01*
X049193D01*
X049235Y019341D01*
Y019258D01*
X049193Y019216D01*
X04911D01*
X049068Y019258D01*
X048335Y018975D02*
X048293Y019016D01*
X04821D01*
X048168Y018975D01*
Y018808D01*
X04821Y018766D01*
X048293D01*
X048335Y018808D01*
X048543Y018766D02*
Y019016D01*
X048418Y018891D01*
X048585D01*
X048785Y017225D02*
X048743Y017266D01*
X04866D01*
X048618Y017225D01*
Y017058D01*
X04866Y017016D01*
X048743D01*
X048785Y017058D01*
X048868Y017225D02*
X04891Y017266D01*
X048993D01*
X049035Y017225D01*
Y017183D01*
X048993Y017141D01*
X048951D01*
X048993D01*
X049035Y0171D01*
Y017058D01*
X048993Y017016D01*
X04891D01*
X048868Y017058D01*
X048785Y017725D02*
X048743Y017766D01*
X04866D01*
X048618Y017725D01*
Y017558D01*
X04866Y017516D01*
X048743D01*
X048785Y017558D01*
X049035Y017516D02*
X048868D01*
X049035Y017683D01*
Y017725D01*
X048993Y017766D01*
X04891D01*
X048868Y017725D01*
X044476Y020125D02*
X044435Y020166D01*
X044351D01*
X04431Y020125D01*
Y019958D01*
X044351Y019916D01*
X044435D01*
X044476Y019958D01*
X04456Y019916D02*
X044643D01*
X044601D01*
Y020166D01*
X04456Y020125D01*
X02214Y02537D02*
X022098Y025412D01*
X022015D01*
X021973Y02537D01*
Y025203D01*
X022015Y025162D01*
X022098D01*
X02214Y025203D01*
X022223Y025412D02*
Y025162D01*
X022389D01*
X022473Y025412D02*
Y025162D01*
Y025245D01*
X022639Y025412D01*
X022514Y025287D01*
X022639Y025162D01*
X024473Y025412D02*
Y025162D01*
X024598D01*
X02464Y025203D01*
Y02537D01*
X024598Y025412D01*
X024473D01*
X024723D02*
X024806D01*
X024764D01*
Y025162D01*
X024723D01*
X024806D01*
X025056Y025412D02*
X024973D01*
X024931Y02537D01*
Y025203D01*
X024973Y025162D01*
X025056D01*
X025098Y025203D01*
Y02537D01*
X025056Y025412D01*
X02464Y02637D02*
X024598Y026412D01*
X024515D01*
X024473Y02637D01*
Y026203D01*
X024515Y026162D01*
X024598D01*
X02464Y026203D01*
Y026287D01*
X024556D01*
X024723Y026162D02*
Y026412D01*
X024889Y026162D01*
Y026412D01*
X024973D02*
Y026162D01*
X025098D01*
X025139Y026203D01*
Y02637D01*
X025098Y026412D01*
X024973D01*
X0224Y026422D02*
X022233D01*
Y026297D01*
X022316Y026338D01*
X022358D01*
X0224Y026297D01*
Y026213D01*
X022358Y026172D01*
X022275D01*
X022233Y026213D01*
X022483Y026422D02*
Y026255D01*
X022566Y026172D01*
X022649Y026255D01*
Y026422D01*
X018427Y026495D02*
X018385Y026537D01*
X018302D01*
X018261Y026495D01*
Y026328D01*
X018302Y026287D01*
X018385D01*
X018427Y026328D01*
X01851Y026287D02*
X018594D01*
X018552D01*
Y026537D01*
X01851Y026495D01*
X018719D02*
X01876Y026537D01*
X018844D01*
X018885Y026495D01*
Y026453D01*
X018844Y026412D01*
X018802D01*
X018844D01*
X018885Y02637D01*
Y026328D01*
X018844Y026287D01*
X01876D01*
X018719Y026328D01*
X029015Y022287D02*
Y022245D01*
X029098Y022162D01*
X029181Y022245D01*
Y022287D01*
X029098Y022162D02*
Y022037D01*
X029431D02*
X029265D01*
X029431Y022203D01*
Y022245D01*
X02939Y022287D01*
X029306D01*
X029265Y022245D01*
X020515Y022537D02*
Y022787D01*
X02064D01*
X020681Y022745D01*
Y022662D01*
X02064Y02262D01*
X020515D01*
X020598D02*
X020681Y022537D01*
X020765Y022745D02*
X020806Y022787D01*
X02089D01*
X020931Y022745D01*
Y022703D01*
X02089Y022662D01*
X020931Y02262D01*
Y022578D01*
X02089Y022537D01*
X020806D01*
X020765Y022578D01*
Y02262D01*
X020806Y022662D01*
X020765Y022703D01*
Y022745D01*
X020806Y022662D02*
X02089D01*
X030465Y026137D02*
Y026387D01*
X03059D01*
X030631Y026345D01*
Y026262D01*
X03059Y02622D01*
X030465D01*
X030548D02*
X030631Y026137D01*
X030715Y026345D02*
X030756Y026387D01*
X03084D01*
X030881Y026345D01*
Y026303D01*
X03084Y026262D01*
X030798D01*
X03084D01*
X030881Y02622D01*
Y026178D01*
X03084Y026137D01*
X030756D01*
X030715Y026178D01*
X026556Y020837D02*
Y021087D01*
X026681D01*
X026723Y021045D01*
Y020962D01*
X026681Y02092D01*
X026556D01*
X02664D02*
X026723Y020837D01*
X026806D02*
X02689D01*
X026848D01*
Y021087D01*
X026806Y021045D01*
X020423Y021178D02*
Y021345D01*
X020381Y021387D01*
X020298D01*
X020256Y021345D01*
Y021178D01*
X020298Y021137D01*
X020381D01*
X02034Y02122D02*
X020423Y021137D01*
X020381D02*
X020423Y021178D01*
X020506Y021137D02*
X02059D01*
X020548D01*
Y021387D01*
X020506Y021345D01*
X030665Y025237D02*
Y024987D01*
X030831D01*
X030915Y025195D02*
X030956Y025237D01*
X03104D01*
X031081Y025195D01*
Y025153D01*
X03104Y025112D01*
X030998D01*
X03104D01*
X031081Y02507D01*
Y025028D01*
X03104Y024987D01*
X030956D01*
X030915Y025028D01*
X030015Y024087D02*
Y023837D01*
X030181D01*
X030431D02*
X030265D01*
X030431Y024003D01*
Y024045D01*
X03039Y024087D01*
X030306D01*
X030265Y024045D01*
X030606Y023637D02*
Y023387D01*
X030773D01*
X030856D02*
X03094D01*
X030898D01*
Y023637D01*
X030856Y023595D01*
X028877Y021745D02*
X028835Y021787D01*
X028752D01*
X028711Y021745D01*
Y021578D01*
X028752Y021537D01*
X028835D01*
X028877Y021578D01*
X02896Y021537D02*
X029044D01*
X029002D01*
Y021787D01*
X02896Y021745D01*
X029294Y021537D02*
Y021787D01*
X029169Y021662D01*
X029335D01*
X022319Y021745D02*
X022277Y021787D01*
X022194D01*
X022152Y021745D01*
Y021578D01*
X022194Y021537D01*
X022277D01*
X022319Y021578D01*
X022402Y021537D02*
X022485D01*
X022444D01*
Y021787D01*
X022402Y021745D01*
X02261Y021537D02*
X022694D01*
X022652D01*
Y021787D01*
X02261Y021745D01*
X025643Y026395D02*
X025601Y026437D01*
X025518D01*
X025476Y026395D01*
Y026228D01*
X025518Y026187D01*
X025601D01*
X025643Y026228D01*
X025726Y026187D02*
X025809D01*
X025768D01*
Y026437D01*
X025726Y026395D01*
X025934D02*
X025976Y026437D01*
X026059D01*
X026101Y026395D01*
Y026228D01*
X026059Y026187D01*
X025976D01*
X025934Y026228D01*
Y026395D01*
X022431Y021395D02*
X02239Y021437D01*
X022306D01*
X022265Y021395D01*
Y021228D01*
X022306Y021187D01*
X02239D01*
X022431Y021228D01*
X022515D02*
X022556Y021187D01*
X02264D01*
X022681Y021228D01*
Y021395D01*
X02264Y021437D01*
X022556D01*
X022515Y021395D01*
Y021353D01*
X022556Y021312D01*
X022681D01*
X029631Y025945D02*
X02959Y025987D01*
X029506D01*
X029465Y025945D01*
Y025778D01*
X029506Y025737D01*
X02959D01*
X029631Y025778D01*
X029715Y025945D02*
X029756Y025987D01*
X02984D01*
X029881Y025945D01*
Y025903D01*
X02984Y025862D01*
X029881Y02582D01*
Y025778D01*
X02984Y025737D01*
X029756D01*
X029715Y025778D01*
Y02582D01*
X029756Y025862D01*
X029715Y025903D01*
Y025945D01*
X029756Y025862D02*
X02984D01*
X028131Y022495D02*
X02809Y022537D01*
X028006D01*
X027965Y022495D01*
Y022328D01*
X028006Y022287D01*
X02809D01*
X028131Y022328D01*
X028215Y022537D02*
X028381D01*
Y022495D01*
X028215Y022328D01*
Y022287D01*
X021881Y024795D02*
X02184Y024837D01*
X021756D01*
X021715Y024795D01*
Y024628D01*
X021756Y024587D01*
X02184D01*
X021881Y024628D01*
X022131Y024837D02*
X022048Y024795D01*
X021965Y024712D01*
Y024628D01*
X022006Y024587D01*
X02209D01*
X022131Y024628D01*
Y02467D01*
X02209Y024712D01*
X021965D01*
X032331Y025645D02*
X03229Y025687D01*
X032206D01*
X032165Y025645D01*
Y025478D01*
X032206Y025437D01*
X03229D01*
X032331Y025478D01*
X032581Y025687D02*
X032415D01*
Y025562D01*
X032498Y025603D01*
X03254D01*
X032581Y025562D01*
Y025478D01*
X03254Y025437D01*
X032456D01*
X032415Y025478D01*
X031681Y025195D02*
X03164Y025237D01*
X031556D01*
X031515Y025195D01*
Y025028D01*
X031556Y024987D01*
X03164D01*
X031681Y025028D01*
X03189Y024987D02*
Y025237D01*
X031765Y025112D01*
X031931D01*
X032131Y023445D02*
X03209Y023487D01*
X032006D01*
X031965Y023445D01*
Y023278D01*
X032006Y023237D01*
X03209D01*
X032131Y023278D01*
X032215Y023445D02*
X032256Y023487D01*
X03234D01*
X032381Y023445D01*
Y023403D01*
X03234Y023362D01*
X032298D01*
X03234D01*
X032381Y02332D01*
Y023278D01*
X03234Y023237D01*
X032256D01*
X032215Y023278D01*
X032131Y023945D02*
X03209Y023987D01*
X032006D01*
X031965Y023945D01*
Y023778D01*
X032006Y023737D01*
X03209D01*
X032131Y023778D01*
X032381Y023737D02*
X032215D01*
X032381Y023903D01*
Y023945D01*
X03234Y023987D01*
X032256D01*
X032215Y023945D01*
X027823Y026345D02*
X027781Y026387D01*
X027698D01*
X027656Y026345D01*
Y026178D01*
X027698Y026137D01*
X027781D01*
X027823Y026178D01*
X027906Y026137D02*
X02799D01*
X027948D01*
Y026387D01*
X027906Y026345D01*
X038793Y02537D02*
X038751Y025412D01*
X038668D01*
X038626Y02537D01*
Y025203D01*
X038668Y025162D01*
X038751D01*
X038793Y025203D01*
X038876Y025412D02*
Y025162D01*
X039043D01*
X039126Y025412D02*
Y025162D01*
Y025245D01*
X039293Y025412D01*
X039168Y025287D01*
X039293Y025162D01*
X041126Y025412D02*
Y025162D01*
X041251D01*
X041293Y025203D01*
Y02537D01*
X041251Y025412D01*
X041126D01*
X041376D02*
X04146D01*
X041418D01*
Y025162D01*
X041376D01*
X04146D01*
X04171Y025412D02*
X041626D01*
X041585Y02537D01*
Y025203D01*
X041626Y025162D01*
X04171D01*
X041751Y025203D01*
Y02537D01*
X04171Y025412D01*
X041293Y02637D02*
X041251Y026412D01*
X041168D01*
X041126Y02637D01*
Y026203D01*
X041168Y026162D01*
X041251D01*
X041293Y026203D01*
Y026287D01*
X04121D01*
X041376Y026162D02*
Y026412D01*
X041543Y026162D01*
Y026412D01*
X041626D02*
Y026162D01*
X041751D01*
X041793Y026203D01*
Y02637D01*
X041751Y026412D01*
X041626D01*
X039053Y026422D02*
X038886D01*
Y026297D01*
X03897Y026338D01*
X039011D01*
X039053Y026297D01*
Y026213D01*
X039011Y026172D01*
X038928D01*
X038886Y026213D01*
X039136Y026422D02*
Y026255D01*
X03922Y026172D01*
X039303Y026255D01*
Y026422D01*
X035081Y026495D02*
X035039Y026537D01*
X034956D01*
X034914Y026495D01*
Y026328D01*
X034956Y026287D01*
X035039D01*
X035081Y026328D01*
X035164Y026287D02*
X035247D01*
X035206D01*
Y026537D01*
X035164Y026495D01*
X035372D02*
X035414Y026537D01*
X035497D01*
X035539Y026495D01*
Y026453D01*
X035497Y026412D01*
X035456D01*
X035497D01*
X035539Y02637D01*
Y026328D01*
X035497Y026287D01*
X035414D01*
X035372Y026328D01*
X045668Y022287D02*
Y022245D01*
X045751Y022162D01*
X045835Y022245D01*
Y022287D01*
X045751Y022162D02*
Y022037D01*
X046085D02*
X045918D01*
X046085Y022203D01*
Y022245D01*
X046043Y022287D01*
X04596D01*
X045918Y022245D01*
X037168Y022537D02*
Y022787D01*
X037293D01*
X037335Y022745D01*
Y022662D01*
X037293Y02262D01*
X037168D01*
X037251D02*
X037335Y022537D01*
X037418Y022745D02*
X03746Y022787D01*
X037543D01*
X037585Y022745D01*
Y022703D01*
X037543Y022662D01*
X037585Y02262D01*
Y022578D01*
X037543Y022537D01*
X03746D01*
X037418Y022578D01*
Y02262D01*
X03746Y022662D01*
X037418Y022703D01*
Y022745D01*
X03746Y022662D02*
X037543D01*
X047118Y026137D02*
Y026387D01*
X047243D01*
X047285Y026345D01*
Y026262D01*
X047243Y02622D01*
X047118D01*
X047201D02*
X047285Y026137D01*
X047368Y026345D02*
X04741Y026387D01*
X047493D01*
X047535Y026345D01*
Y026303D01*
X047493Y026262D01*
X047451D01*
X047493D01*
X047535Y02622D01*
Y026178D01*
X047493Y026137D01*
X04741D01*
X047368Y026178D01*
X04321Y020837D02*
Y021087D01*
X043335D01*
X043376Y021045D01*
Y020962D01*
X043335Y02092D01*
X04321D01*
X043293D02*
X043376Y020837D01*
X04346D02*
X043543D01*
X043501D01*
Y021087D01*
X04346Y021045D01*
X037076Y021178D02*
Y021345D01*
X037035Y021387D01*
X036951D01*
X03691Y021345D01*
Y021178D01*
X036951Y021137D01*
X037035D01*
X036993Y02122D02*
X037076Y021137D01*
X037035D02*
X037076Y021178D01*
X03716Y021137D02*
X037243D01*
X037201D01*
Y021387D01*
X03716Y021345D01*
X047318Y025237D02*
Y024987D01*
X047485D01*
X047568Y025195D02*
X04761Y025237D01*
X047693D01*
X047735Y025195D01*
Y025153D01*
X047693Y025112D01*
X047651D01*
X047693D01*
X047735Y02507D01*
Y025028D01*
X047693Y024987D01*
X04761D01*
X047568Y025028D01*
X046668Y024087D02*
Y023837D01*
X046835D01*
X047085D02*
X046918D01*
X047085Y024003D01*
Y024045D01*
X047043Y024087D01*
X04696D01*
X046918Y024045D01*
X04726Y023637D02*
Y023387D01*
X047426D01*
X04751D02*
X047593D01*
X047551D01*
Y023637D01*
X04751Y023595D01*
X045531Y021745D02*
X045489Y021787D01*
X045406D01*
X045364Y021745D01*
Y021578D01*
X045406Y021537D01*
X045489D01*
X045531Y021578D01*
X045614Y021537D02*
X045697D01*
X045656D01*
Y021787D01*
X045614Y021745D01*
X045947Y021537D02*
Y021787D01*
X045822Y021662D01*
X045989D01*
X038972Y021745D02*
X038931Y021787D01*
X038847D01*
X038806Y021745D01*
Y021578D01*
X038847Y021537D01*
X038931D01*
X038972Y021578D01*
X039056Y021537D02*
X039139D01*
X039097D01*
Y021787D01*
X039056Y021745D01*
X039264Y021537D02*
X039347D01*
X039306D01*
Y021787D01*
X039264Y021745D01*
X042296Y026395D02*
X042255Y026437D01*
X042171D01*
X04213Y026395D01*
Y026228D01*
X042171Y026187D01*
X042255D01*
X042296Y026228D01*
X04238Y026187D02*
X042463D01*
X042421D01*
Y026437D01*
X04238Y026395D01*
X042588D02*
X04263Y026437D01*
X042713D01*
X042755Y026395D01*
Y026228D01*
X042713Y026187D01*
X04263D01*
X042588Y026228D01*
Y026395D01*
X039085Y021395D02*
X039043Y021437D01*
X03896D01*
X038918Y021395D01*
Y021228D01*
X03896Y021187D01*
X039043D01*
X039085Y021228D01*
X039168D02*
X03921Y021187D01*
X039293D01*
X039335Y021228D01*
Y021395D01*
X039293Y021437D01*
X03921D01*
X039168Y021395D01*
Y021353D01*
X03921Y021312D01*
X039335D01*
X046285Y025945D02*
X046243Y025987D01*
X04616D01*
X046118Y025945D01*
Y025778D01*
X04616Y025737D01*
X046243D01*
X046285Y025778D01*
X046368Y025945D02*
X04641Y025987D01*
X046493D01*
X046535Y025945D01*
Y025903D01*
X046493Y025862D01*
X046535Y02582D01*
Y025778D01*
X046493Y025737D01*
X04641D01*
X046368Y025778D01*
Y02582D01*
X04641Y025862D01*
X046368Y025903D01*
Y025945D01*
X04641Y025862D02*
X046493D01*
X044785Y022495D02*
X044743Y022537D01*
X04466D01*
X044618Y022495D01*
Y022328D01*
X04466Y022287D01*
X044743D01*
X044785Y022328D01*
X044868Y022537D02*
X045035D01*
Y022495D01*
X044868Y022328D01*
Y022287D01*
X038535Y024795D02*
X038493Y024837D01*
X03841D01*
X038368Y024795D01*
Y024628D01*
X03841Y024587D01*
X038493D01*
X038535Y024628D01*
X038785Y024837D02*
X038701Y024795D01*
X038618Y024712D01*
Y024628D01*
X03866Y024587D01*
X038743D01*
X038785Y024628D01*
Y02467D01*
X038743Y024712D01*
X038618D01*
X048985Y025645D02*
X048943Y025687D01*
X04886D01*
X048818Y025645D01*
Y025478D01*
X04886Y025437D01*
X048943D01*
X048985Y025478D01*
X049235Y025687D02*
X049068D01*
Y025562D01*
X049151Y025603D01*
X049193D01*
X049235Y025562D01*
Y025478D01*
X049193Y025437D01*
X04911D01*
X049068Y025478D01*
X048335Y025195D02*
X048293Y025237D01*
X04821D01*
X048168Y025195D01*
Y025028D01*
X04821Y024987D01*
X048293D01*
X048335Y025028D01*
X048543Y024987D02*
Y025237D01*
X048418Y025112D01*
X048585D01*
X048785Y023445D02*
X048743Y023487D01*
X04866D01*
X048618Y023445D01*
Y023278D01*
X04866Y023237D01*
X048743D01*
X048785Y023278D01*
X048868Y023445D02*
X04891Y023487D01*
X048993D01*
X049035Y023445D01*
Y023403D01*
X048993Y023362D01*
X048951D01*
X048993D01*
X049035Y02332D01*
Y023278D01*
X048993Y023237D01*
X04891D01*
X048868Y023278D01*
X048785Y023945D02*
X048743Y023987D01*
X04866D01*
X048618Y023945D01*
Y023778D01*
X04866Y023737D01*
X048743D01*
X048785Y023778D01*
X049035Y023737D02*
X048868D01*
X049035Y023903D01*
Y023945D01*
X048993Y023987D01*
X04891D01*
X048868Y023945D01*
X044476Y026345D02*
X044435Y026387D01*
X044351D01*
X04431Y026345D01*
Y026178D01*
X044351Y026137D01*
X044435D01*
X044476Y026178D01*
X04456Y026137D02*
X044643D01*
X044601D01*
Y026387D01*
X04456Y026345D01*
X02214Y031591D02*
X022098Y031632D01*
X022015D01*
X021973Y031591D01*
Y031424D01*
X022015Y031382D01*
X022098D01*
X02214Y031424D01*
X022223Y031632D02*
Y031382D01*
X022389D01*
X022473Y031632D02*
Y031382D01*
Y031466D01*
X022639Y031632D01*
X022514Y031507D01*
X022639Y031382D01*
X024473Y031632D02*
Y031382D01*
X024598D01*
X02464Y031424D01*
Y031591D01*
X024598Y031632D01*
X024473D01*
X024723D02*
X024806D01*
X024764D01*
Y031382D01*
X024723D01*
X024806D01*
X025056Y031632D02*
X024973D01*
X024931Y031591D01*
Y031424D01*
X024973Y031382D01*
X025056D01*
X025098Y031424D01*
Y031591D01*
X025056Y031632D01*
X02464Y032591D02*
X024598Y032632D01*
X024515D01*
X024473Y032591D01*
Y032424D01*
X024515Y032382D01*
X024598D01*
X02464Y032424D01*
Y032507D01*
X024556D01*
X024723Y032382D02*
Y032632D01*
X024889Y032382D01*
Y032632D01*
X024973D02*
Y032382D01*
X025098D01*
X025139Y032424D01*
Y032591D01*
X025098Y032632D01*
X024973D01*
X0224Y032642D02*
X022233D01*
Y032517D01*
X022316Y032559D01*
X022358D01*
X0224Y032517D01*
Y032434D01*
X022358Y032392D01*
X022275D01*
X022233Y032434D01*
X022483Y032642D02*
Y032476D01*
X022566Y032392D01*
X022649Y032476D01*
Y032642D01*
X018427Y032716D02*
X018385Y032757D01*
X018302D01*
X018261Y032716D01*
Y032549D01*
X018302Y032507D01*
X018385D01*
X018427Y032549D01*
X01851Y032507D02*
X018594D01*
X018552D01*
Y032757D01*
X01851Y032716D01*
X018719D02*
X01876Y032757D01*
X018844D01*
X018885Y032716D01*
Y032674D01*
X018844Y032632D01*
X018802D01*
X018844D01*
X018885Y032591D01*
Y032549D01*
X018844Y032507D01*
X01876D01*
X018719Y032549D01*
X029015Y028507D02*
Y028466D01*
X029098Y028382D01*
X029181Y028466D01*
Y028507D01*
X029098Y028382D02*
Y028257D01*
X029431D02*
X029265D01*
X029431Y028424D01*
Y028466D01*
X02939Y028507D01*
X029306D01*
X029265Y028466D01*
X020515Y028757D02*
Y029007D01*
X02064D01*
X020681Y028966D01*
Y028882D01*
X02064Y028841D01*
X020515D01*
X020598D02*
X020681Y028757D01*
X020765Y028966D02*
X020806Y029007D01*
X02089D01*
X020931Y028966D01*
Y028924D01*
X02089Y028882D01*
X020931Y028841D01*
Y028799D01*
X02089Y028757D01*
X020806D01*
X020765Y028799D01*
Y028841D01*
X020806Y028882D01*
X020765Y028924D01*
Y028966D01*
X020806Y028882D02*
X02089D01*
X030465Y032357D02*
Y032607D01*
X03059D01*
X030631Y032566D01*
Y032482D01*
X03059Y032441D01*
X030465D01*
X030548D02*
X030631Y032357D01*
X030715Y032566D02*
X030756Y032607D01*
X03084D01*
X030881Y032566D01*
Y032524D01*
X03084Y032482D01*
X030798D01*
X03084D01*
X030881Y032441D01*
Y032399D01*
X03084Y032357D01*
X030756D01*
X030715Y032399D01*
X026556Y027057D02*
Y027307D01*
X026681D01*
X026723Y027266D01*
Y027182D01*
X026681Y027141D01*
X026556D01*
X02664D02*
X026723Y027057D01*
X026806D02*
X02689D01*
X026848D01*
Y027307D01*
X026806Y027266D01*
X020423Y027399D02*
Y027566D01*
X020381Y027607D01*
X020298D01*
X020256Y027566D01*
Y027399D01*
X020298Y027357D01*
X020381D01*
X02034Y027441D02*
X020423Y027357D01*
X020381D02*
X020423Y027399D01*
X020506Y027357D02*
X02059D01*
X020548D01*
Y027607D01*
X020506Y027566D01*
X030665Y031457D02*
Y031207D01*
X030831D01*
X030915Y031416D02*
X030956Y031457D01*
X03104D01*
X031081Y031416D01*
Y031374D01*
X03104Y031332D01*
X030998D01*
X03104D01*
X031081Y031291D01*
Y031249D01*
X03104Y031207D01*
X030956D01*
X030915Y031249D01*
X030015Y030307D02*
Y030057D01*
X030181D01*
X030431D02*
X030265D01*
X030431Y030224D01*
Y030266D01*
X03039Y030307D01*
X030306D01*
X030265Y030266D01*
X030606Y029857D02*
Y029607D01*
X030773D01*
X030856D02*
X03094D01*
X030898D01*
Y029857D01*
X030856Y029816D01*
X028877Y027966D02*
X028835Y028007D01*
X028752D01*
X028711Y027966D01*
Y027799D01*
X028752Y027757D01*
X028835D01*
X028877Y027799D01*
X02896Y027757D02*
X029044D01*
X029002D01*
Y028007D01*
X02896Y027966D01*
X029294Y027757D02*
Y028007D01*
X029169Y027882D01*
X029335D01*
X022319Y027966D02*
X022277Y028007D01*
X022194D01*
X022152Y027966D01*
Y027799D01*
X022194Y027757D01*
X022277D01*
X022319Y027799D01*
X022402Y027757D02*
X022485D01*
X022444D01*
Y028007D01*
X022402Y027966D01*
X02261Y027757D02*
X022694D01*
X022652D01*
Y028007D01*
X02261Y027966D01*
X025643Y032616D02*
X025601Y032657D01*
X025518D01*
X025476Y032616D01*
Y032449D01*
X025518Y032407D01*
X025601D01*
X025643Y032449D01*
X025726Y032407D02*
X025809D01*
X025768D01*
Y032657D01*
X025726Y032616D01*
X025934D02*
X025976Y032657D01*
X026059D01*
X026101Y032616D01*
Y032449D01*
X026059Y032407D01*
X025976D01*
X025934Y032449D01*
Y032616D01*
X022431Y027616D02*
X02239Y027657D01*
X022306D01*
X022265Y027616D01*
Y027449D01*
X022306Y027407D01*
X02239D01*
X022431Y027449D01*
X022515D02*
X022556Y027407D01*
X02264D01*
X022681Y027449D01*
Y027616D01*
X02264Y027657D01*
X022556D01*
X022515Y027616D01*
Y027574D01*
X022556Y027532D01*
X022681D01*
X029631Y032166D02*
X02959Y032207D01*
X029506D01*
X029465Y032166D01*
Y031999D01*
X029506Y031957D01*
X02959D01*
X029631Y031999D01*
X029715Y032166D02*
X029756Y032207D01*
X02984D01*
X029881Y032166D01*
Y032124D01*
X02984Y032082D01*
X029881Y032041D01*
Y031999D01*
X02984Y031957D01*
X029756D01*
X029715Y031999D01*
Y032041D01*
X029756Y032082D01*
X029715Y032124D01*
Y032166D01*
X029756Y032082D02*
X02984D01*
X028131Y028716D02*
X02809Y028757D01*
X028006D01*
X027965Y028716D01*
Y028549D01*
X028006Y028507D01*
X02809D01*
X028131Y028549D01*
X028215Y028757D02*
X028381D01*
Y028716D01*
X028215Y028549D01*
Y028507D01*
X021881Y031016D02*
X02184Y031057D01*
X021756D01*
X021715Y031016D01*
Y030849D01*
X021756Y030807D01*
X02184D01*
X021881Y030849D01*
X022131Y031057D02*
X022048Y031016D01*
X021965Y030932D01*
Y030849D01*
X022006Y030807D01*
X02209D01*
X022131Y030849D01*
Y030891D01*
X02209Y030932D01*
X021965D01*
X032331Y031866D02*
X03229Y031907D01*
X032206D01*
X032165Y031866D01*
Y031699D01*
X032206Y031657D01*
X03229D01*
X032331Y031699D01*
X032581Y031907D02*
X032415D01*
Y031782D01*
X032498Y031824D01*
X03254D01*
X032581Y031782D01*
Y031699D01*
X03254Y031657D01*
X032456D01*
X032415Y031699D01*
X031681Y031416D02*
X03164Y031457D01*
X031556D01*
X031515Y031416D01*
Y031249D01*
X031556Y031207D01*
X03164D01*
X031681Y031249D01*
X03189Y031207D02*
Y031457D01*
X031765Y031332D01*
X031931D01*
X032131Y029666D02*
X03209Y029707D01*
X032006D01*
X031965Y029666D01*
Y029499D01*
X032006Y029457D01*
X03209D01*
X032131Y029499D01*
X032215Y029666D02*
X032256Y029707D01*
X03234D01*
X032381Y029666D01*
Y029624D01*
X03234Y029582D01*
X032298D01*
X03234D01*
X032381Y029541D01*
Y029499D01*
X03234Y029457D01*
X032256D01*
X032215Y029499D01*
X032131Y030166D02*
X03209Y030207D01*
X032006D01*
X031965Y030166D01*
Y029999D01*
X032006Y029957D01*
X03209D01*
X032131Y029999D01*
X032381Y029957D02*
X032215D01*
X032381Y030124D01*
Y030166D01*
X03234Y030207D01*
X032256D01*
X032215Y030166D01*
X027823Y032566D02*
X027781Y032607D01*
X027698D01*
X027656Y032566D01*
Y032399D01*
X027698Y032357D01*
X027781D01*
X027823Y032399D01*
X027906Y032357D02*
X02799D01*
X027948D01*
Y032607D01*
X027906Y032566D01*
X038793Y031591D02*
X038751Y031632D01*
X038668D01*
X038626Y031591D01*
Y031424D01*
X038668Y031382D01*
X038751D01*
X038793Y031424D01*
X038876Y031632D02*
Y031382D01*
X039043D01*
X039126Y031632D02*
Y031382D01*
Y031466D01*
X039293Y031632D01*
X039168Y031507D01*
X039293Y031382D01*
X041126Y031632D02*
Y031382D01*
X041251D01*
X041293Y031424D01*
Y031591D01*
X041251Y031632D01*
X041126D01*
X041376D02*
X04146D01*
X041418D01*
Y031382D01*
X041376D01*
X04146D01*
X04171Y031632D02*
X041626D01*
X041585Y031591D01*
Y031424D01*
X041626Y031382D01*
X04171D01*
X041751Y031424D01*
Y031591D01*
X04171Y031632D01*
X041293Y032591D02*
X041251Y032632D01*
X041168D01*
X041126Y032591D01*
Y032424D01*
X041168Y032382D01*
X041251D01*
X041293Y032424D01*
Y032507D01*
X04121D01*
X041376Y032382D02*
Y032632D01*
X041543Y032382D01*
Y032632D01*
X041626D02*
Y032382D01*
X041751D01*
X041793Y032424D01*
Y032591D01*
X041751Y032632D01*
X041626D01*
X039053Y032642D02*
X038886D01*
Y032517D01*
X03897Y032559D01*
X039011D01*
X039053Y032517D01*
Y032434D01*
X039011Y032392D01*
X038928D01*
X038886Y032434D01*
X039136Y032642D02*
Y032476D01*
X03922Y032392D01*
X039303Y032476D01*
Y032642D01*
X035081Y032716D02*
X035039Y032757D01*
X034956D01*
X034914Y032716D01*
Y032549D01*
X034956Y032507D01*
X035039D01*
X035081Y032549D01*
X035164Y032507D02*
X035247D01*
X035206D01*
Y032757D01*
X035164Y032716D01*
X035372D02*
X035414Y032757D01*
X035497D01*
X035539Y032716D01*
Y032674D01*
X035497Y032632D01*
X035456D01*
X035497D01*
X035539Y032591D01*
Y032549D01*
X035497Y032507D01*
X035414D01*
X035372Y032549D01*
X045668Y028507D02*
Y028466D01*
X045751Y028382D01*
X045835Y028466D01*
Y028507D01*
X045751Y028382D02*
Y028257D01*
X046085D02*
X045918D01*
X046085Y028424D01*
Y028466D01*
X046043Y028507D01*
X04596D01*
X045918Y028466D01*
X037168Y028757D02*
Y029007D01*
X037293D01*
X037335Y028966D01*
Y028882D01*
X037293Y028841D01*
X037168D01*
X037251D02*
X037335Y028757D01*
X037418Y028966D02*
X03746Y029007D01*
X037543D01*
X037585Y028966D01*
Y028924D01*
X037543Y028882D01*
X037585Y028841D01*
Y028799D01*
X037543Y028757D01*
X03746D01*
X037418Y028799D01*
Y028841D01*
X03746Y028882D01*
X037418Y028924D01*
Y028966D01*
X03746Y028882D02*
X037543D01*
X047118Y032357D02*
Y032607D01*
X047243D01*
X047285Y032566D01*
Y032482D01*
X047243Y032441D01*
X047118D01*
X047201D02*
X047285Y032357D01*
X047368Y032566D02*
X04741Y032607D01*
X047493D01*
X047535Y032566D01*
Y032524D01*
X047493Y032482D01*
X047451D01*
X047493D01*
X047535Y032441D01*
Y032399D01*
X047493Y032357D01*
X04741D01*
X047368Y032399D01*
X04321Y027057D02*
Y027307D01*
X043335D01*
X043376Y027266D01*
Y027182D01*
X043335Y027141D01*
X04321D01*
X043293D02*
X043376Y027057D01*
X04346D02*
X043543D01*
X043501D01*
Y027307D01*
X04346Y027266D01*
X037076Y027399D02*
Y027566D01*
X037035Y027607D01*
X036951D01*
X03691Y027566D01*
Y027399D01*
X036951Y027357D01*
X037035D01*
X036993Y027441D02*
X037076Y027357D01*
X037035D02*
X037076Y027399D01*
X03716Y027357D02*
X037243D01*
X037201D01*
Y027607D01*
X03716Y027566D01*
X047318Y031457D02*
Y031207D01*
X047485D01*
X047568Y031416D02*
X04761Y031457D01*
X047693D01*
X047735Y031416D01*
Y031374D01*
X047693Y031332D01*
X047651D01*
X047693D01*
X047735Y031291D01*
Y031249D01*
X047693Y031207D01*
X04761D01*
X047568Y031249D01*
X046668Y030307D02*
Y030057D01*
X046835D01*
X047085D02*
X046918D01*
X047085Y030224D01*
Y030266D01*
X047043Y030307D01*
X04696D01*
X046918Y030266D01*
X04726Y029857D02*
Y029607D01*
X047426D01*
X04751D02*
X047593D01*
X047551D01*
Y029857D01*
X04751Y029816D01*
X045531Y027966D02*
X045489Y028007D01*
X045406D01*
X045364Y027966D01*
Y027799D01*
X045406Y027757D01*
X045489D01*
X045531Y027799D01*
X045614Y027757D02*
X045697D01*
X045656D01*
Y028007D01*
X045614Y027966D01*
X045947Y027757D02*
Y028007D01*
X045822Y027882D01*
X045989D01*
X038972Y027966D02*
X038931Y028007D01*
X038847D01*
X038806Y027966D01*
Y027799D01*
X038847Y027757D01*
X038931D01*
X038972Y027799D01*
X039056Y027757D02*
X039139D01*
X039097D01*
Y028007D01*
X039056Y027966D01*
X039264Y027757D02*
X039347D01*
X039306D01*
Y028007D01*
X039264Y027966D01*
X042296Y032616D02*
X042255Y032657D01*
X042171D01*
X04213Y032616D01*
Y032449D01*
X042171Y032407D01*
X042255D01*
X042296Y032449D01*
X04238Y032407D02*
X042463D01*
X042421D01*
Y032657D01*
X04238Y032616D01*
X042588D02*
X04263Y032657D01*
X042713D01*
X042755Y032616D01*
Y032449D01*
X042713Y032407D01*
X04263D01*
X042588Y032449D01*
Y032616D01*
X039085Y027616D02*
X039043Y027657D01*
X03896D01*
X038918Y027616D01*
Y027449D01*
X03896Y027407D01*
X039043D01*
X039085Y027449D01*
X039168D02*
X03921Y027407D01*
X039293D01*
X039335Y027449D01*
Y027616D01*
X039293Y027657D01*
X03921D01*
X039168Y027616D01*
Y027574D01*
X03921Y027532D01*
X039335D01*
X046285Y032166D02*
X046243Y032207D01*
X04616D01*
X046118Y032166D01*
Y031999D01*
X04616Y031957D01*
X046243D01*
X046285Y031999D01*
X046368Y032166D02*
X04641Y032207D01*
X046493D01*
X046535Y032166D01*
Y032124D01*
X046493Y032082D01*
X046535Y032041D01*
Y031999D01*
X046493Y031957D01*
X04641D01*
X046368Y031999D01*
Y032041D01*
X04641Y032082D01*
X046368Y032124D01*
Y032166D01*
X04641Y032082D02*
X046493D01*
X044785Y028716D02*
X044743Y028757D01*
X04466D01*
X044618Y028716D01*
Y028549D01*
X04466Y028507D01*
X044743D01*
X044785Y028549D01*
X044868Y028757D02*
X045035D01*
Y028716D01*
X044868Y028549D01*
Y028507D01*
X038535Y031016D02*
X038493Y031057D01*
X03841D01*
X038368Y031016D01*
Y030849D01*
X03841Y030807D01*
X038493D01*
X038535Y030849D01*
X038785Y031057D02*
X038701Y031016D01*
X038618Y030932D01*
Y030849D01*
X03866Y030807D01*
X038743D01*
X038785Y030849D01*
Y030891D01*
X038743Y030932D01*
X038618D01*
X048985Y031866D02*
X048943Y031907D01*
X04886D01*
X048818Y031866D01*
Y031699D01*
X04886Y031657D01*
X048943D01*
X048985Y031699D01*
X049235Y031907D02*
X049068D01*
Y031782D01*
X049151Y031824D01*
X049193D01*
X049235Y031782D01*
Y031699D01*
X049193Y031657D01*
X04911D01*
X049068Y031699D01*
X048335Y031416D02*
X048293Y031457D01*
X04821D01*
X048168Y031416D01*
Y031249D01*
X04821Y031207D01*
X048293D01*
X048335Y031249D01*
X048543Y031207D02*
Y031457D01*
X048418Y031332D01*
X048585D01*
X048785Y029666D02*
X048743Y029707D01*
X04866D01*
X048618Y029666D01*
Y029499D01*
X04866Y029457D01*
X048743D01*
X048785Y029499D01*
X048868Y029666D02*
X04891Y029707D01*
X048993D01*
X049035Y029666D01*
Y029624D01*
X048993Y029582D01*
X048951D01*
X048993D01*
X049035Y029541D01*
Y029499D01*
X048993Y029457D01*
X04891D01*
X048868Y029499D01*
X048785Y030166D02*
X048743Y030207D01*
X04866D01*
X048618Y030166D01*
Y029999D01*
X04866Y029957D01*
X048743D01*
X048785Y029999D01*
X049035Y029957D02*
X048868D01*
X049035Y030124D01*
Y030166D01*
X048993Y030207D01*
X04891D01*
X048868Y030166D01*
X044476Y032566D02*
X044435Y032607D01*
X044351D01*
X04431Y032566D01*
Y032399D01*
X044351Y032357D01*
X044435D01*
X044476Y032399D01*
X04456Y032357D02*
X044643D01*
X044601D01*
Y032607D01*
X04456Y032566D01*
X02214Y037811D02*
X022098Y037853D01*
X022015D01*
X021973Y037811D01*
Y037644D01*
X022015Y037603D01*
X022098D01*
X02214Y037644D01*
X022223Y037853D02*
Y037603D01*
X022389D01*
X022473Y037853D02*
Y037603D01*
Y037686D01*
X022639Y037853D01*
X022514Y037728D01*
X022639Y037603D01*
X024473Y037853D02*
Y037603D01*
X024598D01*
X02464Y037644D01*
Y037811D01*
X024598Y037853D01*
X024473D01*
X024723D02*
X024806D01*
X024764D01*
Y037603D01*
X024723D01*
X024806D01*
X025056Y037853D02*
X024973D01*
X024931Y037811D01*
Y037644D01*
X024973Y037603D01*
X025056D01*
X025098Y037644D01*
Y037811D01*
X025056Y037853D01*
X02464Y038811D02*
X024598Y038853D01*
X024515D01*
X024473Y038811D01*
Y038644D01*
X024515Y038603D01*
X024598D01*
X02464Y038644D01*
Y038728D01*
X024556D01*
X024723Y038603D02*
Y038853D01*
X024889Y038603D01*
Y038853D01*
X024973D02*
Y038603D01*
X025098D01*
X025139Y038644D01*
Y038811D01*
X025098Y038853D01*
X024973D01*
X0224Y038863D02*
X022233D01*
Y038738D01*
X022316Y038779D01*
X022358D01*
X0224Y038738D01*
Y038654D01*
X022358Y038613D01*
X022275D01*
X022233Y038654D01*
X022483Y038863D02*
Y038696D01*
X022566Y038613D01*
X022649Y038696D01*
Y038863D01*
X018427Y038936D02*
X018385Y038978D01*
X018302D01*
X018261Y038936D01*
Y038769D01*
X018302Y038728D01*
X018385D01*
X018427Y038769D01*
X01851Y038728D02*
X018594D01*
X018552D01*
Y038978D01*
X01851Y038936D01*
X018719D02*
X01876Y038978D01*
X018844D01*
X018885Y038936D01*
Y038894D01*
X018844Y038853D01*
X018802D01*
X018844D01*
X018885Y038811D01*
Y038769D01*
X018844Y038728D01*
X01876D01*
X018719Y038769D01*
X029015Y034728D02*
Y034686D01*
X029098Y034603D01*
X029181Y034686D01*
Y034728D01*
X029098Y034603D02*
Y034478D01*
X029431D02*
X029265D01*
X029431Y034644D01*
Y034686D01*
X02939Y034728D01*
X029306D01*
X029265Y034686D01*
X020515Y034978D02*
Y035228D01*
X02064D01*
X020681Y035186D01*
Y035103D01*
X02064Y035061D01*
X020515D01*
X020598D02*
X020681Y034978D01*
X020765Y035186D02*
X020806Y035228D01*
X02089D01*
X020931Y035186D01*
Y035144D01*
X02089Y035103D01*
X020931Y035061D01*
Y035019D01*
X02089Y034978D01*
X020806D01*
X020765Y035019D01*
Y035061D01*
X020806Y035103D01*
X020765Y035144D01*
Y035186D01*
X020806Y035103D02*
X02089D01*
X030465Y038578D02*
Y038828D01*
X03059D01*
X030631Y038786D01*
Y038703D01*
X03059Y038661D01*
X030465D01*
X030548D02*
X030631Y038578D01*
X030715Y038786D02*
X030756Y038828D01*
X03084D01*
X030881Y038786D01*
Y038744D01*
X03084Y038703D01*
X030798D01*
X03084D01*
X030881Y038661D01*
Y038619D01*
X03084Y038578D01*
X030756D01*
X030715Y038619D01*
X026556Y033278D02*
Y033528D01*
X026681D01*
X026723Y033486D01*
Y033403D01*
X026681Y033361D01*
X026556D01*
X02664D02*
X026723Y033278D01*
X026806D02*
X02689D01*
X026848D01*
Y033528D01*
X026806Y033486D01*
X020423Y033619D02*
Y033786D01*
X020381Y033828D01*
X020298D01*
X020256Y033786D01*
Y033619D01*
X020298Y033578D01*
X020381D01*
X02034Y033661D02*
X020423Y033578D01*
X020381D02*
X020423Y033619D01*
X020506Y033578D02*
X02059D01*
X020548D01*
Y033828D01*
X020506Y033786D01*
X030665Y037678D02*
Y037428D01*
X030831D01*
X030915Y037636D02*
X030956Y037678D01*
X03104D01*
X031081Y037636D01*
Y037594D01*
X03104Y037553D01*
X030998D01*
X03104D01*
X031081Y037511D01*
Y037469D01*
X03104Y037428D01*
X030956D01*
X030915Y037469D01*
X030015Y036528D02*
Y036278D01*
X030181D01*
X030431D02*
X030265D01*
X030431Y036444D01*
Y036486D01*
X03039Y036528D01*
X030306D01*
X030265Y036486D01*
X030606Y036078D02*
Y035828D01*
X030773D01*
X030856D02*
X03094D01*
X030898D01*
Y036078D01*
X030856Y036036D01*
X028877Y034186D02*
X028835Y034228D01*
X028752D01*
X028711Y034186D01*
Y034019D01*
X028752Y033978D01*
X028835D01*
X028877Y034019D01*
X02896Y033978D02*
X029044D01*
X029002D01*
Y034228D01*
X02896Y034186D01*
X029294Y033978D02*
Y034228D01*
X029169Y034103D01*
X029335D01*
X022319Y034186D02*
X022277Y034228D01*
X022194D01*
X022152Y034186D01*
Y034019D01*
X022194Y033978D01*
X022277D01*
X022319Y034019D01*
X022402Y033978D02*
X022485D01*
X022444D01*
Y034228D01*
X022402Y034186D01*
X02261Y033978D02*
X022694D01*
X022652D01*
Y034228D01*
X02261Y034186D01*
X025643Y038836D02*
X025601Y038878D01*
X025518D01*
X025476Y038836D01*
Y038669D01*
X025518Y038628D01*
X025601D01*
X025643Y038669D01*
X025726Y038628D02*
X025809D01*
X025768D01*
Y038878D01*
X025726Y038836D01*
X025934D02*
X025976Y038878D01*
X026059D01*
X026101Y038836D01*
Y038669D01*
X026059Y038628D01*
X025976D01*
X025934Y038669D01*
Y038836D01*
X022431Y033836D02*
X02239Y033878D01*
X022306D01*
X022265Y033836D01*
Y033669D01*
X022306Y033628D01*
X02239D01*
X022431Y033669D01*
X022515D02*
X022556Y033628D01*
X02264D01*
X022681Y033669D01*
Y033836D01*
X02264Y033878D01*
X022556D01*
X022515Y033836D01*
Y033794D01*
X022556Y033753D01*
X022681D01*
X029631Y038386D02*
X02959Y038428D01*
X029506D01*
X029465Y038386D01*
Y038219D01*
X029506Y038178D01*
X02959D01*
X029631Y038219D01*
X029715Y038386D02*
X029756Y038428D01*
X02984D01*
X029881Y038386D01*
Y038344D01*
X02984Y038303D01*
X029881Y038261D01*
Y038219D01*
X02984Y038178D01*
X029756D01*
X029715Y038219D01*
Y038261D01*
X029756Y038303D01*
X029715Y038344D01*
Y038386D01*
X029756Y038303D02*
X02984D01*
X028131Y034936D02*
X02809Y034978D01*
X028006D01*
X027965Y034936D01*
Y034769D01*
X028006Y034728D01*
X02809D01*
X028131Y034769D01*
X028215Y034978D02*
X028381D01*
Y034936D01*
X028215Y034769D01*
Y034728D01*
X021881Y037236D02*
X02184Y037278D01*
X021756D01*
X021715Y037236D01*
Y037069D01*
X021756Y037028D01*
X02184D01*
X021881Y037069D01*
X022131Y037278D02*
X022048Y037236D01*
X021965Y037153D01*
Y037069D01*
X022006Y037028D01*
X02209D01*
X022131Y037069D01*
Y037111D01*
X02209Y037153D01*
X021965D01*
X032331Y038086D02*
X03229Y038128D01*
X032206D01*
X032165Y038086D01*
Y037919D01*
X032206Y037878D01*
X03229D01*
X032331Y037919D01*
X032581Y038128D02*
X032415D01*
Y038003D01*
X032498Y038044D01*
X03254D01*
X032581Y038003D01*
Y037919D01*
X03254Y037878D01*
X032456D01*
X032415Y037919D01*
X031681Y037636D02*
X03164Y037678D01*
X031556D01*
X031515Y037636D01*
Y037469D01*
X031556Y037428D01*
X03164D01*
X031681Y037469D01*
X03189Y037428D02*
Y037678D01*
X031765Y037553D01*
X031931D01*
X032131Y035886D02*
X03209Y035928D01*
X032006D01*
X031965Y035886D01*
Y035719D01*
X032006Y035678D01*
X03209D01*
X032131Y035719D01*
X032215Y035886D02*
X032256Y035928D01*
X03234D01*
X032381Y035886D01*
Y035844D01*
X03234Y035803D01*
X032298D01*
X03234D01*
X032381Y035761D01*
Y035719D01*
X03234Y035678D01*
X032256D01*
X032215Y035719D01*
X032131Y036386D02*
X03209Y036428D01*
X032006D01*
X031965Y036386D01*
Y036219D01*
X032006Y036178D01*
X03209D01*
X032131Y036219D01*
X032381Y036178D02*
X032215D01*
X032381Y036344D01*
Y036386D01*
X03234Y036428D01*
X032256D01*
X032215Y036386D01*
X027823Y038786D02*
X027781Y038828D01*
X027698D01*
X027656Y038786D01*
Y038619D01*
X027698Y038578D01*
X027781D01*
X027823Y038619D01*
X027906Y038578D02*
X02799D01*
X027948D01*
Y038828D01*
X027906Y038786D01*
X038793Y037811D02*
X038751Y037853D01*
X038668D01*
X038626Y037811D01*
Y037644D01*
X038668Y037603D01*
X038751D01*
X038793Y037644D01*
X038876Y037853D02*
Y037603D01*
X039043D01*
X039126Y037853D02*
Y037603D01*
Y037686D01*
X039293Y037853D01*
X039168Y037728D01*
X039293Y037603D01*
X041126Y037853D02*
Y037603D01*
X041251D01*
X041293Y037644D01*
Y037811D01*
X041251Y037853D01*
X041126D01*
X041376D02*
X04146D01*
X041418D01*
Y037603D01*
X041376D01*
X04146D01*
X04171Y037853D02*
X041626D01*
X041585Y037811D01*
Y037644D01*
X041626Y037603D01*
X04171D01*
X041751Y037644D01*
Y037811D01*
X04171Y037853D01*
X041293Y038811D02*
X041251Y038853D01*
X041168D01*
X041126Y038811D01*
Y038644D01*
X041168Y038603D01*
X041251D01*
X041293Y038644D01*
Y038728D01*
X04121D01*
X041376Y038603D02*
Y038853D01*
X041543Y038603D01*
Y038853D01*
X041626D02*
Y038603D01*
X041751D01*
X041793Y038644D01*
Y038811D01*
X041751Y038853D01*
X041626D01*
X039053Y038863D02*
X038886D01*
Y038738D01*
X03897Y038779D01*
X039011D01*
X039053Y038738D01*
Y038654D01*
X039011Y038613D01*
X038928D01*
X038886Y038654D01*
X039136Y038863D02*
Y038696D01*
X03922Y038613D01*
X039303Y038696D01*
Y038863D01*
X035081Y038936D02*
X035039Y038978D01*
X034956D01*
X034914Y038936D01*
Y038769D01*
X034956Y038728D01*
X035039D01*
X035081Y038769D01*
X035164Y038728D02*
X035247D01*
X035206D01*
Y038978D01*
X035164Y038936D01*
X035372D02*
X035414Y038978D01*
X035497D01*
X035539Y038936D01*
Y038894D01*
X035497Y038853D01*
X035456D01*
X035497D01*
X035539Y038811D01*
Y038769D01*
X035497Y038728D01*
X035414D01*
X035372Y038769D01*
X045668Y034728D02*
Y034686D01*
X045751Y034603D01*
X045835Y034686D01*
Y034728D01*
X045751Y034603D02*
Y034478D01*
X046085D02*
X045918D01*
X046085Y034644D01*
Y034686D01*
X046043Y034728D01*
X04596D01*
X045918Y034686D01*
X037168Y034978D02*
Y035228D01*
X037293D01*
X037335Y035186D01*
Y035103D01*
X037293Y035061D01*
X037168D01*
X037251D02*
X037335Y034978D01*
X037418Y035186D02*
X03746Y035228D01*
X037543D01*
X037585Y035186D01*
Y035144D01*
X037543Y035103D01*
X037585Y035061D01*
Y035019D01*
X037543Y034978D01*
X03746D01*
X037418Y035019D01*
Y035061D01*
X03746Y035103D01*
X037418Y035144D01*
Y035186D01*
X03746Y035103D02*
X037543D01*
X047118Y038578D02*
Y038828D01*
X047243D01*
X047285Y038786D01*
Y038703D01*
X047243Y038661D01*
X047118D01*
X047201D02*
X047285Y038578D01*
X047368Y038786D02*
X04741Y038828D01*
X047493D01*
X047535Y038786D01*
Y038744D01*
X047493Y038703D01*
X047451D01*
X047493D01*
X047535Y038661D01*
Y038619D01*
X047493Y038578D01*
X04741D01*
X047368Y038619D01*
X04321Y033278D02*
Y033528D01*
X043335D01*
X043376Y033486D01*
Y033403D01*
X043335Y033361D01*
X04321D01*
X043293D02*
X043376Y033278D01*
X04346D02*
X043543D01*
X043501D01*
Y033528D01*
X04346Y033486D01*
X037076Y033619D02*
Y033786D01*
X037035Y033828D01*
X036951D01*
X03691Y033786D01*
Y033619D01*
X036951Y033578D01*
X037035D01*
X036993Y033661D02*
X037076Y033578D01*
X037035D02*
X037076Y033619D01*
X03716Y033578D02*
X037243D01*
X037201D01*
Y033828D01*
X03716Y033786D01*
X047318Y037678D02*
Y037428D01*
X047485D01*
X047568Y037636D02*
X04761Y037678D01*
X047693D01*
X047735Y037636D01*
Y037594D01*
X047693Y037553D01*
X047651D01*
X047693D01*
X047735Y037511D01*
Y037469D01*
X047693Y037428D01*
X04761D01*
X047568Y037469D01*
X046668Y036528D02*
Y036278D01*
X046835D01*
X047085D02*
X046918D01*
X047085Y036444D01*
Y036486D01*
X047043Y036528D01*
X04696D01*
X046918Y036486D01*
X04726Y036078D02*
Y035828D01*
X047426D01*
X04751D02*
X047593D01*
X047551D01*
Y036078D01*
X04751Y036036D01*
X045531Y034186D02*
X045489Y034228D01*
X045406D01*
X045364Y034186D01*
Y034019D01*
X045406Y033978D01*
X045489D01*
X045531Y034019D01*
X045614Y033978D02*
X045697D01*
X045656D01*
Y034228D01*
X045614Y034186D01*
X045947Y033978D02*
Y034228D01*
X045822Y034103D01*
X045989D01*
X038972Y034186D02*
X038931Y034228D01*
X038847D01*
X038806Y034186D01*
Y034019D01*
X038847Y033978D01*
X038931D01*
X038972Y034019D01*
X039056Y033978D02*
X039139D01*
X039097D01*
Y034228D01*
X039056Y034186D01*
X039264Y033978D02*
X039347D01*
X039306D01*
Y034228D01*
X039264Y034186D01*
X042296Y038836D02*
X042255Y038878D01*
X042171D01*
X04213Y038836D01*
Y038669D01*
X042171Y038628D01*
X042255D01*
X042296Y038669D01*
X04238Y038628D02*
X042463D01*
X042421D01*
Y038878D01*
X04238Y038836D01*
X042588D02*
X04263Y038878D01*
X042713D01*
X042755Y038836D01*
Y038669D01*
X042713Y038628D01*
X04263D01*
X042588Y038669D01*
Y038836D01*
X039085Y033836D02*
X039043Y033878D01*
X03896D01*
X038918Y033836D01*
Y033669D01*
X03896Y033628D01*
X039043D01*
X039085Y033669D01*
X039168D02*
X03921Y033628D01*
X039293D01*
X039335Y033669D01*
Y033836D01*
X039293Y033878D01*
X03921D01*
X039168Y033836D01*
Y033794D01*
X03921Y033753D01*
X039335D01*
X046285Y038386D02*
X046243Y038428D01*
X04616D01*
X046118Y038386D01*
Y038219D01*
X04616Y038178D01*
X046243D01*
X046285Y038219D01*
X046368Y038386D02*
X04641Y038428D01*
X046493D01*
X046535Y038386D01*
Y038344D01*
X046493Y038303D01*
X046535Y038261D01*
Y038219D01*
X046493Y038178D01*
X04641D01*
X046368Y038219D01*
Y038261D01*
X04641Y038303D01*
X046368Y038344D01*
Y038386D01*
X04641Y038303D02*
X046493D01*
X044785Y034936D02*
X044743Y034978D01*
X04466D01*
X044618Y034936D01*
Y034769D01*
X04466Y034728D01*
X044743D01*
X044785Y034769D01*
X044868Y034978D02*
X045035D01*
Y034936D01*
X044868Y034769D01*
Y034728D01*
X038535Y037236D02*
X038493Y037278D01*
X03841D01*
X038368Y037236D01*
Y037069D01*
X03841Y037028D01*
X038493D01*
X038535Y037069D01*
X038785Y037278D02*
X038701Y037236D01*
X038618Y037153D01*
Y037069D01*
X03866Y037028D01*
X038743D01*
X038785Y037069D01*
Y037111D01*
X038743Y037153D01*
X038618D01*
X048985Y038086D02*
X048943Y038128D01*
X04886D01*
X048818Y038086D01*
Y037919D01*
X04886Y037878D01*
X048943D01*
X048985Y037919D01*
X049235Y038128D02*
X049068D01*
Y038003D01*
X049151Y038044D01*
X049193D01*
X049235Y038003D01*
Y037919D01*
X049193Y037878D01*
X04911D01*
X049068Y037919D01*
X048335Y037636D02*
X048293Y037678D01*
X04821D01*
X048168Y037636D01*
Y037469D01*
X04821Y037428D01*
X048293D01*
X048335Y037469D01*
X048543Y037428D02*
Y037678D01*
X048418Y037553D01*
X048585D01*
X048785Y035886D02*
X048743Y035928D01*
X04866D01*
X048618Y035886D01*
Y035719D01*
X04866Y035678D01*
X048743D01*
X048785Y035719D01*
X048868Y035886D02*
X04891Y035928D01*
X048993D01*
X049035Y035886D01*
Y035844D01*
X048993Y035803D01*
X048951D01*
X048993D01*
X049035Y035761D01*
Y035719D01*
X048993Y035678D01*
X04891D01*
X048868Y035719D01*
X048785Y036386D02*
X048743Y036428D01*
X04866D01*
X048618Y036386D01*
Y036219D01*
X04866Y036178D01*
X048743D01*
X048785Y036219D01*
X049035Y036178D02*
X048868D01*
X049035Y036344D01*
Y036386D01*
X048993Y036428D01*
X04891D01*
X048868Y036386D01*
X044476Y038786D02*
X044435Y038828D01*
X044351D01*
X04431Y038786D01*
Y038619D01*
X044351Y038578D01*
X044435D01*
X044476Y038619D01*
X04456Y038578D02*
X044643D01*
X044601D01*
Y038828D01*
X04456Y038786D01*
X02214Y044031D02*
X022098Y044073D01*
X022015D01*
X021973Y044031D01*
Y043865D01*
X022015Y043823D01*
X022098D01*
X02214Y043865D01*
X022223Y044073D02*
Y043823D01*
X022389D01*
X022473Y044073D02*
Y043823D01*
Y043907D01*
X022639Y044073D01*
X022514Y043948D01*
X022639Y043823D01*
X024473Y044073D02*
Y043823D01*
X024598D01*
X02464Y043865D01*
Y044031D01*
X024598Y044073D01*
X024473D01*
X024723D02*
X024806D01*
X024764D01*
Y043823D01*
X024723D01*
X024806D01*
X025056Y044073D02*
X024973D01*
X024931Y044031D01*
Y043865D01*
X024973Y043823D01*
X025056D01*
X025098Y043865D01*
Y044031D01*
X025056Y044073D01*
X02464Y045031D02*
X024598Y045073D01*
X024515D01*
X024473Y045031D01*
Y044865D01*
X024515Y044823D01*
X024598D01*
X02464Y044865D01*
Y044948D01*
X024556D01*
X024723Y044823D02*
Y045073D01*
X024889Y044823D01*
Y045073D01*
X024973D02*
Y044823D01*
X025098D01*
X025139Y044865D01*
Y045031D01*
X025098Y045073D01*
X024973D01*
X0224Y045083D02*
X022233D01*
Y044958D01*
X022316Y045D01*
X022358D01*
X0224Y044958D01*
Y044875D01*
X022358Y044833D01*
X022275D01*
X022233Y044875D01*
X022483Y045083D02*
Y044917D01*
X022566Y044833D01*
X022649Y044917D01*
Y045083D01*
X018427Y045157D02*
X018385Y045198D01*
X018302D01*
X018261Y045157D01*
Y04499D01*
X018302Y044948D01*
X018385D01*
X018427Y04499D01*
X01851Y044948D02*
X018594D01*
X018552D01*
Y045198D01*
X01851Y045157D01*
X018719D02*
X01876Y045198D01*
X018844D01*
X018885Y045157D01*
Y045115D01*
X018844Y045073D01*
X018802D01*
X018844D01*
X018885Y045032D01*
Y04499D01*
X018844Y044948D01*
X01876D01*
X018719Y04499D01*
X029015Y040948D02*
Y040907D01*
X029098Y040823D01*
X029181Y040907D01*
Y040948D01*
X029098Y040823D02*
Y040698D01*
X029431D02*
X029265D01*
X029431Y040865D01*
Y040907D01*
X02939Y040948D01*
X029306D01*
X029265Y040907D01*
X020515Y041198D02*
Y041448D01*
X02064D01*
X020681Y041407D01*
Y041323D01*
X02064Y041282D01*
X020515D01*
X020598D02*
X020681Y041198D01*
X020765Y041407D02*
X020806Y041448D01*
X02089D01*
X020931Y041407D01*
Y041365D01*
X02089Y041323D01*
X020931Y041282D01*
Y04124D01*
X02089Y041198D01*
X020806D01*
X020765Y04124D01*
Y041282D01*
X020806Y041323D01*
X020765Y041365D01*
Y041407D01*
X020806Y041323D02*
X02089D01*
X030465Y044798D02*
Y045048D01*
X03059D01*
X030631Y045007D01*
Y044923D01*
X03059Y044882D01*
X030465D01*
X030548D02*
X030631Y044798D01*
X030715Y045007D02*
X030756Y045048D01*
X03084D01*
X030881Y045007D01*
Y044965D01*
X03084Y044923D01*
X030798D01*
X03084D01*
X030881Y044882D01*
Y04484D01*
X03084Y044798D01*
X030756D01*
X030715Y04484D01*
X026556Y039498D02*
Y039748D01*
X026681D01*
X026723Y039707D01*
Y039623D01*
X026681Y039582D01*
X026556D01*
X02664D02*
X026723Y039498D01*
X026806D02*
X02689D01*
X026848D01*
Y039748D01*
X026806Y039707D01*
X020423Y03984D02*
Y040007D01*
X020381Y040048D01*
X020298D01*
X020256Y040007D01*
Y03984D01*
X020298Y039798D01*
X020381D01*
X02034Y039882D02*
X020423Y039798D01*
X020381D02*
X020423Y03984D01*
X020506Y039798D02*
X02059D01*
X020548D01*
Y040048D01*
X020506Y040007D01*
X030665Y043898D02*
Y043648D01*
X030831D01*
X030915Y043857D02*
X030956Y043898D01*
X03104D01*
X031081Y043857D01*
Y043815D01*
X03104Y043773D01*
X030998D01*
X03104D01*
X031081Y043732D01*
Y04369D01*
X03104Y043648D01*
X030956D01*
X030915Y04369D01*
X030015Y042748D02*
Y042498D01*
X030181D01*
X030431D02*
X030265D01*
X030431Y042665D01*
Y042707D01*
X03039Y042748D01*
X030306D01*
X030265Y042707D01*
X030606Y042298D02*
Y042048D01*
X030773D01*
X030856D02*
X03094D01*
X030898D01*
Y042298D01*
X030856Y042257D01*
X028877Y040407D02*
X028835Y040448D01*
X028752D01*
X028711Y040407D01*
Y04024D01*
X028752Y040198D01*
X028835D01*
X028877Y04024D01*
X02896Y040198D02*
X029044D01*
X029002D01*
Y040448D01*
X02896Y040407D01*
X029294Y040198D02*
Y040448D01*
X029169Y040323D01*
X029335D01*
X022319Y040407D02*
X022277Y040448D01*
X022194D01*
X022152Y040407D01*
Y04024D01*
X022194Y040198D01*
X022277D01*
X022319Y04024D01*
X022402Y040198D02*
X022485D01*
X022444D01*
Y040448D01*
X022402Y040407D01*
X02261Y040198D02*
X022694D01*
X022652D01*
Y040448D01*
X02261Y040407D01*
X025643Y045057D02*
X025601Y045098D01*
X025518D01*
X025476Y045057D01*
Y04489D01*
X025518Y044848D01*
X025601D01*
X025643Y04489D01*
X025726Y044848D02*
X025809D01*
X025768D01*
Y045098D01*
X025726Y045057D01*
X025934D02*
X025976Y045098D01*
X026059D01*
X026101Y045057D01*
Y04489D01*
X026059Y044848D01*
X025976D01*
X025934Y04489D01*
Y045057D01*
X022431Y040057D02*
X02239Y040098D01*
X022306D01*
X022265Y040057D01*
Y03989D01*
X022306Y039848D01*
X02239D01*
X022431Y03989D01*
X022515D02*
X022556Y039848D01*
X02264D01*
X022681Y03989D01*
Y040057D01*
X02264Y040098D01*
X022556D01*
X022515Y040057D01*
Y040015D01*
X022556Y039973D01*
X022681D01*
X029631Y044607D02*
X02959Y044648D01*
X029506D01*
X029465Y044607D01*
Y04444D01*
X029506Y044398D01*
X02959D01*
X029631Y04444D01*
X029715Y044607D02*
X029756Y044648D01*
X02984D01*
X029881Y044607D01*
Y044565D01*
X02984Y044523D01*
X029881Y044482D01*
Y04444D01*
X02984Y044398D01*
X029756D01*
X029715Y04444D01*
Y044482D01*
X029756Y044523D01*
X029715Y044565D01*
Y044607D01*
X029756Y044523D02*
X02984D01*
X028131Y041157D02*
X02809Y041198D01*
X028006D01*
X027965Y041157D01*
Y04099D01*
X028006Y040948D01*
X02809D01*
X028131Y04099D01*
X028215Y041198D02*
X028381D01*
Y041157D01*
X028215Y04099D01*
Y040948D01*
X021881Y043457D02*
X02184Y043498D01*
X021756D01*
X021715Y043457D01*
Y04329D01*
X021756Y043248D01*
X02184D01*
X021881Y04329D01*
X022131Y043498D02*
X022048Y043457D01*
X021965Y043373D01*
Y04329D01*
X022006Y043248D01*
X02209D01*
X022131Y04329D01*
Y043332D01*
X02209Y043373D01*
X021965D01*
X032331Y044307D02*
X03229Y044348D01*
X032206D01*
X032165Y044307D01*
Y04414D01*
X032206Y044098D01*
X03229D01*
X032331Y04414D01*
X032581Y044348D02*
X032415D01*
Y044223D01*
X032498Y044265D01*
X03254D01*
X032581Y044223D01*
Y04414D01*
X03254Y044098D01*
X032456D01*
X032415Y04414D01*
X031681Y043857D02*
X03164Y043898D01*
X031556D01*
X031515Y043857D01*
Y04369D01*
X031556Y043648D01*
X03164D01*
X031681Y04369D01*
X03189Y043648D02*
Y043898D01*
X031765Y043773D01*
X031931D01*
X032131Y042107D02*
X03209Y042148D01*
X032006D01*
X031965Y042107D01*
Y04194D01*
X032006Y041898D01*
X03209D01*
X032131Y04194D01*
X032215Y042107D02*
X032256Y042148D01*
X03234D01*
X032381Y042107D01*
Y042065D01*
X03234Y042023D01*
X032298D01*
X03234D01*
X032381Y041982D01*
Y04194D01*
X03234Y041898D01*
X032256D01*
X032215Y04194D01*
X032131Y042607D02*
X03209Y042648D01*
X032006D01*
X031965Y042607D01*
Y04244D01*
X032006Y042398D01*
X03209D01*
X032131Y04244D01*
X032381Y042398D02*
X032215D01*
X032381Y042565D01*
Y042607D01*
X03234Y042648D01*
X032256D01*
X032215Y042607D01*
X027823Y045007D02*
X027781Y045048D01*
X027698D01*
X027656Y045007D01*
Y04484D01*
X027698Y044798D01*
X027781D01*
X027823Y04484D01*
X027906Y044798D02*
X02799D01*
X027948D01*
Y045048D01*
X027906Y045007D01*
X038793Y044031D02*
X038751Y044073D01*
X038668D01*
X038626Y044031D01*
Y043865D01*
X038668Y043823D01*
X038751D01*
X038793Y043865D01*
X038876Y044073D02*
Y043823D01*
X039043D01*
X039126Y044073D02*
Y043823D01*
Y043907D01*
X039293Y044073D01*
X039168Y043948D01*
X039293Y043823D01*
X041126Y044073D02*
Y043823D01*
X041251D01*
X041293Y043865D01*
Y044031D01*
X041251Y044073D01*
X041126D01*
X041376D02*
X04146D01*
X041418D01*
Y043823D01*
X041376D01*
X04146D01*
X04171Y044073D02*
X041626D01*
X041585Y044031D01*
Y043865D01*
X041626Y043823D01*
X04171D01*
X041751Y043865D01*
Y044031D01*
X04171Y044073D01*
X041293Y045031D02*
X041251Y045073D01*
X041168D01*
X041126Y045031D01*
Y044865D01*
X041168Y044823D01*
X041251D01*
X041293Y044865D01*
Y044948D01*
X04121D01*
X041376Y044823D02*
Y045073D01*
X041543Y044823D01*
Y045073D01*
X041626D02*
Y044823D01*
X041751D01*
X041793Y044865D01*
Y045031D01*
X041751Y045073D01*
X041626D01*
X039053Y045083D02*
X038886D01*
Y044958D01*
X03897Y045D01*
X039011D01*
X039053Y044958D01*
Y044875D01*
X039011Y044833D01*
X038928D01*
X038886Y044875D01*
X039136Y045083D02*
Y044917D01*
X03922Y044833D01*
X039303Y044917D01*
Y045083D01*
X035081Y045157D02*
X035039Y045198D01*
X034956D01*
X034914Y045157D01*
Y04499D01*
X034956Y044948D01*
X035039D01*
X035081Y04499D01*
X035164Y044948D02*
X035247D01*
X035206D01*
Y045198D01*
X035164Y045157D01*
X035372D02*
X035414Y045198D01*
X035497D01*
X035539Y045157D01*
Y045115D01*
X035497Y045073D01*
X035456D01*
X035497D01*
X035539Y045032D01*
Y04499D01*
X035497Y044948D01*
X035414D01*
X035372Y04499D01*
X045668Y040948D02*
Y040907D01*
X045751Y040823D01*
X045835Y040907D01*
Y040948D01*
X045751Y040823D02*
Y040698D01*
X046085D02*
X045918D01*
X046085Y040865D01*
Y040907D01*
X046043Y040948D01*
X04596D01*
X045918Y040907D01*
X037168Y041198D02*
Y041448D01*
X037293D01*
X037335Y041407D01*
Y041323D01*
X037293Y041282D01*
X037168D01*
X037251D02*
X037335Y041198D01*
X037418Y041407D02*
X03746Y041448D01*
X037543D01*
X037585Y041407D01*
Y041365D01*
X037543Y041323D01*
X037585Y041282D01*
Y04124D01*
X037543Y041198D01*
X03746D01*
X037418Y04124D01*
Y041282D01*
X03746Y041323D01*
X037418Y041365D01*
Y041407D01*
X03746Y041323D02*
X037543D01*
X047118Y044798D02*
Y045048D01*
X047243D01*
X047285Y045007D01*
Y044923D01*
X047243Y044882D01*
X047118D01*
X047201D02*
X047285Y044798D01*
X047368Y045007D02*
X04741Y045048D01*
X047493D01*
X047535Y045007D01*
Y044965D01*
X047493Y044923D01*
X047451D01*
X047493D01*
X047535Y044882D01*
Y04484D01*
X047493Y044798D01*
X04741D01*
X047368Y04484D01*
X04321Y039498D02*
Y039748D01*
X043335D01*
X043376Y039707D01*
Y039623D01*
X043335Y039582D01*
X04321D01*
X043293D02*
X043376Y039498D01*
X04346D02*
X043543D01*
X043501D01*
Y039748D01*
X04346Y039707D01*
X037076Y03984D02*
Y040007D01*
X037035Y040048D01*
X036951D01*
X03691Y040007D01*
Y03984D01*
X036951Y039798D01*
X037035D01*
X036993Y039882D02*
X037076Y039798D01*
X037035D02*
X037076Y03984D01*
X03716Y039798D02*
X037243D01*
X037201D01*
Y040048D01*
X03716Y040007D01*
X047318Y043898D02*
Y043648D01*
X047485D01*
X047568Y043857D02*
X04761Y043898D01*
X047693D01*
X047735Y043857D01*
Y043815D01*
X047693Y043773D01*
X047651D01*
X047693D01*
X047735Y043732D01*
Y04369D01*
X047693Y043648D01*
X04761D01*
X047568Y04369D01*
X046668Y042748D02*
Y042498D01*
X046835D01*
X047085D02*
X046918D01*
X047085Y042665D01*
Y042707D01*
X047043Y042748D01*
X04696D01*
X046918Y042707D01*
X04726Y042298D02*
Y042048D01*
X047426D01*
X04751D02*
X047593D01*
X047551D01*
Y042298D01*
X04751Y042257D01*
X045531Y040407D02*
X045489Y040448D01*
X045406D01*
X045364Y040407D01*
Y04024D01*
X045406Y040198D01*
X045489D01*
X045531Y04024D01*
X045614Y040198D02*
X045697D01*
X045656D01*
Y040448D01*
X045614Y040407D01*
X045947Y040198D02*
Y040448D01*
X045822Y040323D01*
X045989D01*
X038972Y040407D02*
X038931Y040448D01*
X038847D01*
X038806Y040407D01*
Y04024D01*
X038847Y040198D01*
X038931D01*
X038972Y04024D01*
X039056Y040198D02*
X039139D01*
X039097D01*
Y040448D01*
X039056Y040407D01*
X039264Y040198D02*
X039347D01*
X039306D01*
Y040448D01*
X039264Y040407D01*
X042296Y045057D02*
X042255Y045098D01*
X042171D01*
X04213Y045057D01*
Y04489D01*
X042171Y044848D01*
X042255D01*
X042296Y04489D01*
X04238Y044848D02*
X042463D01*
X042421D01*
Y045098D01*
X04238Y045057D01*
X042588D02*
X04263Y045098D01*
X042713D01*
X042755Y045057D01*
Y04489D01*
X042713Y044848D01*
X04263D01*
X042588Y04489D01*
Y045057D01*
X039085Y040057D02*
X039043Y040098D01*
X03896D01*
X038918Y040057D01*
Y03989D01*
X03896Y039848D01*
X039043D01*
X039085Y03989D01*
X039168D02*
X03921Y039848D01*
X039293D01*
X039335Y03989D01*
Y040057D01*
X039293Y040098D01*
X03921D01*
X039168Y040057D01*
Y040015D01*
X03921Y039973D01*
X039335D01*
X046285Y044607D02*
X046243Y044648D01*
X04616D01*
X046118Y044607D01*
Y04444D01*
X04616Y044398D01*
X046243D01*
X046285Y04444D01*
X046368Y044607D02*
X04641Y044648D01*
X046493D01*
X046535Y044607D01*
Y044565D01*
X046493Y044523D01*
X046535Y044482D01*
Y04444D01*
X046493Y044398D01*
X04641D01*
X046368Y04444D01*
Y044482D01*
X04641Y044523D01*
X046368Y044565D01*
Y044607D01*
X04641Y044523D02*
X046493D01*
X044785Y041157D02*
X044743Y041198D01*
X04466D01*
X044618Y041157D01*
Y04099D01*
X04466Y040948D01*
X044743D01*
X044785Y04099D01*
X044868Y041198D02*
X045035D01*
Y041157D01*
X044868Y04099D01*
Y040948D01*
X038535Y043457D02*
X038493Y043498D01*
X03841D01*
X038368Y043457D01*
Y04329D01*
X03841Y043248D01*
X038493D01*
X038535Y04329D01*
X038785Y043498D02*
X038701Y043457D01*
X038618Y043373D01*
Y04329D01*
X03866Y043248D01*
X038743D01*
X038785Y04329D01*
Y043332D01*
X038743Y043373D01*
X038618D01*
X048985Y044307D02*
X048943Y044348D01*
X04886D01*
X048818Y044307D01*
Y04414D01*
X04886Y044098D01*
X048943D01*
X048985Y04414D01*
X049235Y044348D02*
X049068D01*
Y044223D01*
X049151Y044265D01*
X049193D01*
X049235Y044223D01*
Y04414D01*
X049193Y044098D01*
X04911D01*
X049068Y04414D01*
X048335Y043857D02*
X048293Y043898D01*
X04821D01*
X048168Y043857D01*
Y04369D01*
X04821Y043648D01*
X048293D01*
X048335Y04369D01*
X048543Y043648D02*
Y043898D01*
X048418Y043773D01*
X048585D01*
X048785Y042107D02*
X048743Y042148D01*
X04866D01*
X048618Y042107D01*
Y04194D01*
X04866Y041898D01*
X048743D01*
X048785Y04194D01*
X048868Y042107D02*
X04891Y042148D01*
X048993D01*
X049035Y042107D01*
Y042065D01*
X048993Y042023D01*
X048951D01*
X048993D01*
X049035Y041982D01*
Y04194D01*
X048993Y041898D01*
X04891D01*
X048868Y04194D01*
X048785Y042607D02*
X048743Y042648D01*
X04866D01*
X048618Y042607D01*
Y04244D01*
X04866Y042398D01*
X048743D01*
X048785Y04244D01*
X049035Y042398D02*
X048868D01*
X049035Y042565D01*
Y042607D01*
X048993Y042648D01*
X04891D01*
X048868Y042607D01*
X044476Y045007D02*
X044435Y045048D01*
X044351D01*
X04431Y045007D01*
Y04484D01*
X044351Y044798D01*
X044435D01*
X044476Y04484D01*
X04456Y044798D02*
X044643D01*
X044601D01*
Y045048D01*
X04456Y045007D01*
M02*
