G04*
G04 #@! TF.GenerationSoftware,Altium Limited,Altium Designer,22.10.1 (41)*
G04*
G04 Layer_Color=255*
%FSTAX24Y24*%
%MOIN*%
G70*
G04*
G04 #@! TF.SameCoordinates,8E8F082C-EA0B-43D0-983D-46ADB54C0823*
G04*
G04*
G04 #@! TF.FilePolarity,Positive*
G04*
G01*
G75*
%ADD10R,0.0252X0.0236*%
%ADD11R,0.0236X0.0252*%
%ADD12R,0.0197X0.0236*%
%ADD13R,0.0236X0.0197*%
%ADD14R,0.0236X0.0295*%
%ADD15R,0.0354X0.0394*%
%ADD16R,0.1024X0.1024*%
G04:AMPARAMS|DCode=17|XSize=31.9mil|YSize=10.2mil|CornerRadius=1.3mil|HoleSize=0mil|Usage=FLASHONLY|Rotation=0.000|XOffset=0mil|YOffset=0mil|HoleType=Round|Shape=RoundedRectangle|*
%AMROUNDEDRECTD17*
21,1,0.0319,0.0077,0,0,0.0*
21,1,0.0293,0.0102,0,0,0.0*
1,1,0.0026,0.0147,-0.0038*
1,1,0.0026,-0.0147,-0.0038*
1,1,0.0026,-0.0147,0.0038*
1,1,0.0026,0.0147,0.0038*
%
%ADD17ROUNDEDRECTD17*%
G04:AMPARAMS|DCode=18|XSize=31.9mil|YSize=10.2mil|CornerRadius=1.3mil|HoleSize=0mil|Usage=FLASHONLY|Rotation=90.000|XOffset=0mil|YOffset=0mil|HoleType=Round|Shape=RoundedRectangle|*
%AMROUNDEDRECTD18*
21,1,0.0319,0.0077,0,0,90.0*
21,1,0.0293,0.0102,0,0,90.0*
1,1,0.0026,0.0038,0.0147*
1,1,0.0026,0.0038,-0.0147*
1,1,0.0026,-0.0038,-0.0147*
1,1,0.0026,-0.0038,0.0147*
%
%ADD18ROUNDEDRECTD18*%
G04:AMPARAMS|DCode=19|XSize=11.8mil|YSize=47.2mil|CornerRadius=0mil|HoleSize=0mil|Usage=FLASHONLY|Rotation=225.000|XOffset=0mil|YOffset=0mil|HoleType=Round|Shape=Round|*
%AMOVALD19*
21,1,0.0354,0.0118,0.0000,0.0000,315.0*
1,1,0.0118,-0.0125,0.0125*
1,1,0.0118,0.0125,-0.0125*
%
%ADD19OVALD19*%

G04:AMPARAMS|DCode=20|XSize=11.8mil|YSize=47.2mil|CornerRadius=0mil|HoleSize=0mil|Usage=FLASHONLY|Rotation=135.000|XOffset=0mil|YOffset=0mil|HoleType=Round|Shape=Round|*
%AMOVALD20*
21,1,0.0354,0.0118,0.0000,0.0000,225.0*
1,1,0.0118,0.0125,0.0125*
1,1,0.0118,-0.0125,-0.0125*
%
%ADD20OVALD20*%

%ADD21R,0.0394X0.0354*%
%ADD22R,0.0236X0.0748*%
%ADD23R,0.0157X0.0748*%
%ADD24R,0.1378X0.0591*%
%ADD25R,0.0335X0.0374*%
%ADD26R,0.0551X0.0394*%
G04:AMPARAMS|DCode=27|XSize=47.6mil|YSize=23.2mil|CornerRadius=2.9mil|HoleSize=0mil|Usage=FLASHONLY|Rotation=0.000|XOffset=0mil|YOffset=0mil|HoleType=Round|Shape=RoundedRectangle|*
%AMROUNDEDRECTD27*
21,1,0.0476,0.0174,0,0,0.0*
21,1,0.0418,0.0232,0,0,0.0*
1,1,0.0058,0.0209,-0.0087*
1,1,0.0058,-0.0209,-0.0087*
1,1,0.0058,-0.0209,0.0087*
1,1,0.0058,0.0209,0.0087*
%
%ADD27ROUNDEDRECTD27*%
%ADD42C,0.1102*%
%ADD43R,0.0535X0.0535*%
%ADD44C,0.0535*%
D10*
X032373Y018518D02*
D03*
Y018865D02*
D03*
X028223Y016668D02*
D03*
Y017015D02*
D03*
X049026Y018518D02*
D03*
Y018865D02*
D03*
X044876Y016668D02*
D03*
Y017015D02*
D03*
X032373Y024739D02*
D03*
Y025085D02*
D03*
X028223Y022889D02*
D03*
Y023235D02*
D03*
X049026Y024739D02*
D03*
Y025085D02*
D03*
X044876Y022889D02*
D03*
Y023235D02*
D03*
X032373Y030959D02*
D03*
Y031305D02*
D03*
X028223Y029109D02*
D03*
Y029455D02*
D03*
X049026Y030959D02*
D03*
Y031305D02*
D03*
X044876Y029109D02*
D03*
Y029455D02*
D03*
X032373Y03718D02*
D03*
Y037526D02*
D03*
X028223Y03533D02*
D03*
Y035676D02*
D03*
X049026Y03718D02*
D03*
Y037526D02*
D03*
X044876Y03533D02*
D03*
Y035676D02*
D03*
X032373Y0434D02*
D03*
Y043746D02*
D03*
X028223Y04155D02*
D03*
Y041896D02*
D03*
X049026Y0434D02*
D03*
Y043746D02*
D03*
X044876Y04155D02*
D03*
Y041896D02*
D03*
D11*
X031896Y018491D02*
D03*
X03155D02*
D03*
X031646Y017691D02*
D03*
X0313D02*
D03*
X031646Y017191D02*
D03*
X0313D02*
D03*
X029546Y020041D02*
D03*
X0292D02*
D03*
X02835D02*
D03*
X028696D02*
D03*
X04855Y018491D02*
D03*
X048203D02*
D03*
X0483Y017691D02*
D03*
X047953D02*
D03*
X0483Y017191D02*
D03*
X047953D02*
D03*
X0462Y020041D02*
D03*
X045853D02*
D03*
X045003D02*
D03*
X04535D02*
D03*
X031896Y024712D02*
D03*
X03155D02*
D03*
X031646Y023912D02*
D03*
X0313D02*
D03*
X031646Y023412D02*
D03*
X0313D02*
D03*
X029546Y026262D02*
D03*
X0292D02*
D03*
X02835D02*
D03*
X028696D02*
D03*
X04855Y024712D02*
D03*
X048203D02*
D03*
X0483Y023912D02*
D03*
X047953D02*
D03*
X0483Y023412D02*
D03*
X047953D02*
D03*
X0462Y026262D02*
D03*
X045853D02*
D03*
X045003D02*
D03*
X04535D02*
D03*
X031896Y030932D02*
D03*
X03155D02*
D03*
X031646Y030132D02*
D03*
X0313D02*
D03*
X031646Y029632D02*
D03*
X0313D02*
D03*
X029546Y032482D02*
D03*
X0292D02*
D03*
X02835D02*
D03*
X028696D02*
D03*
X04855Y030932D02*
D03*
X048203D02*
D03*
X0483Y030132D02*
D03*
X047953D02*
D03*
X0483Y029632D02*
D03*
X047953D02*
D03*
X0462Y032482D02*
D03*
X045853D02*
D03*
X045003D02*
D03*
X04535D02*
D03*
X031896Y037153D02*
D03*
X03155D02*
D03*
X031646Y036353D02*
D03*
X0313D02*
D03*
X031646Y035853D02*
D03*
X0313D02*
D03*
X029546Y038703D02*
D03*
X0292D02*
D03*
X02835D02*
D03*
X028696D02*
D03*
X04855Y037153D02*
D03*
X048203D02*
D03*
X0483Y036353D02*
D03*
X047953D02*
D03*
X0483Y035853D02*
D03*
X047953D02*
D03*
X0462Y038703D02*
D03*
X045853D02*
D03*
X045003D02*
D03*
X04535D02*
D03*
X031896Y043373D02*
D03*
X03155D02*
D03*
X031646Y042573D02*
D03*
X0313D02*
D03*
X031646Y042073D02*
D03*
X0313D02*
D03*
X029546Y044923D02*
D03*
X0292D02*
D03*
X02835D02*
D03*
X028696D02*
D03*
X04855Y043373D02*
D03*
X048203D02*
D03*
X0483Y042573D02*
D03*
X047953D02*
D03*
X0483Y042073D02*
D03*
X047953D02*
D03*
X0462Y044923D02*
D03*
X045853D02*
D03*
X045003D02*
D03*
X04535D02*
D03*
D12*
X031069Y018491D02*
D03*
X030723D02*
D03*
X047723D02*
D03*
X047376D02*
D03*
X031069Y024712D02*
D03*
X030723D02*
D03*
X047723D02*
D03*
X047376D02*
D03*
X031069Y030932D02*
D03*
X030723D02*
D03*
X047723D02*
D03*
X047376D02*
D03*
X031069Y037153D02*
D03*
X030723D02*
D03*
X047723D02*
D03*
X047376D02*
D03*
X031069Y043373D02*
D03*
X030723D02*
D03*
X047723D02*
D03*
X047376D02*
D03*
D13*
X030273Y018515D02*
D03*
Y018168D02*
D03*
X030773Y018041D02*
D03*
Y017695D02*
D03*
X046926Y018515D02*
D03*
Y018168D02*
D03*
X047426Y018041D02*
D03*
Y017695D02*
D03*
X030273Y024735D02*
D03*
Y024389D02*
D03*
X030773Y024262D02*
D03*
Y023915D02*
D03*
X046926Y024735D02*
D03*
Y024389D02*
D03*
X047426Y024262D02*
D03*
Y023915D02*
D03*
X030273Y030956D02*
D03*
Y030609D02*
D03*
X030773Y030482D02*
D03*
Y030136D02*
D03*
X046926Y030956D02*
D03*
Y030609D02*
D03*
X047426Y030482D02*
D03*
Y030136D02*
D03*
X030273Y037176D02*
D03*
Y03683D02*
D03*
X030773Y036703D02*
D03*
Y036356D02*
D03*
X046926Y037176D02*
D03*
Y03683D02*
D03*
X047426Y036703D02*
D03*
Y036356D02*
D03*
X030273Y043396D02*
D03*
Y04305D02*
D03*
X030773Y042923D02*
D03*
Y042577D02*
D03*
X046926Y043396D02*
D03*
Y04305D02*
D03*
X047426Y042923D02*
D03*
Y042577D02*
D03*
D14*
X030173Y019565D02*
D03*
Y020018D02*
D03*
X046826Y019565D02*
D03*
Y020018D02*
D03*
X030173Y025785D02*
D03*
Y026238D02*
D03*
X046826Y025785D02*
D03*
Y026238D02*
D03*
X030173Y032006D02*
D03*
Y032459D02*
D03*
X046826Y032006D02*
D03*
Y032459D02*
D03*
X030173Y038226D02*
D03*
Y038679D02*
D03*
X046826Y038226D02*
D03*
Y038679D02*
D03*
X030173Y044447D02*
D03*
Y0449D02*
D03*
X046826Y044447D02*
D03*
Y0449D02*
D03*
D15*
X023639Y015091D02*
D03*
X023107D02*
D03*
X025939Y019541D02*
D03*
X025407D02*
D03*
X019889Y020191D02*
D03*
X019357D02*
D03*
X021289Y018491D02*
D03*
X020757D02*
D03*
X028289Y015441D02*
D03*
X027757D02*
D03*
X040292Y015091D02*
D03*
X039761D02*
D03*
X042592Y019541D02*
D03*
X042061D02*
D03*
X036542Y020191D02*
D03*
X036011D02*
D03*
X037942Y018491D02*
D03*
X037411D02*
D03*
X044942Y015441D02*
D03*
X044411D02*
D03*
X023639Y021312D02*
D03*
X023107D02*
D03*
X025939Y025762D02*
D03*
X025407D02*
D03*
X019889Y026412D02*
D03*
X019357D02*
D03*
X021289Y024712D02*
D03*
X020757D02*
D03*
X028289Y021662D02*
D03*
X027757D02*
D03*
X040292Y021312D02*
D03*
X039761D02*
D03*
X042592Y025762D02*
D03*
X042061D02*
D03*
X036542Y026412D02*
D03*
X036011D02*
D03*
X037942Y024712D02*
D03*
X037411D02*
D03*
X044942Y021662D02*
D03*
X044411D02*
D03*
X023639Y027532D02*
D03*
X023107D02*
D03*
X025939Y031982D02*
D03*
X025407D02*
D03*
X019889Y032632D02*
D03*
X019357D02*
D03*
X021289Y030932D02*
D03*
X020757D02*
D03*
X028289Y027882D02*
D03*
X027757D02*
D03*
X040292Y027532D02*
D03*
X039761D02*
D03*
X042592Y031982D02*
D03*
X042061D02*
D03*
X036542Y032632D02*
D03*
X036011D02*
D03*
X037942Y030932D02*
D03*
X037411D02*
D03*
X044942Y027882D02*
D03*
X044411D02*
D03*
X023639Y033753D02*
D03*
X023107D02*
D03*
X025939Y038203D02*
D03*
X025407D02*
D03*
X019889Y038853D02*
D03*
X019357D02*
D03*
X021289Y037153D02*
D03*
X020757D02*
D03*
X028289Y034103D02*
D03*
X027757D02*
D03*
X040292Y033753D02*
D03*
X039761D02*
D03*
X042592Y038203D02*
D03*
X042061D02*
D03*
X036542Y038853D02*
D03*
X036011D02*
D03*
X037942Y037153D02*
D03*
X037411D02*
D03*
X044942Y034103D02*
D03*
X044411D02*
D03*
X023639Y039973D02*
D03*
X023107D02*
D03*
X025939Y044423D02*
D03*
X025407D02*
D03*
X019889Y045073D02*
D03*
X019357D02*
D03*
X021289Y043373D02*
D03*
X020757D02*
D03*
X028289Y040323D02*
D03*
X027757D02*
D03*
X040292Y039973D02*
D03*
X039761D02*
D03*
X042592Y044423D02*
D03*
X042061D02*
D03*
X036542Y045073D02*
D03*
X036011D02*
D03*
X037942Y043373D02*
D03*
X037411D02*
D03*
X044942Y040323D02*
D03*
X044411D02*
D03*
D16*
X028922Y01854D02*
D03*
X045575D02*
D03*
X028922Y024761D02*
D03*
X045575D02*
D03*
X028922Y030981D02*
D03*
X045575D02*
D03*
X028922Y037202D02*
D03*
X045575D02*
D03*
X028922Y043422D02*
D03*
X045575D02*
D03*
D17*
X029689Y018934D02*
D03*
Y018737D02*
D03*
Y01854D02*
D03*
Y018343D02*
D03*
Y018146D02*
D03*
X028154D02*
D03*
Y018343D02*
D03*
Y01854D02*
D03*
Y018737D02*
D03*
Y018934D02*
D03*
X046343D02*
D03*
Y018737D02*
D03*
Y01854D02*
D03*
Y018343D02*
D03*
Y018146D02*
D03*
X044808D02*
D03*
Y018343D02*
D03*
Y01854D02*
D03*
Y018737D02*
D03*
Y018934D02*
D03*
X029689Y025154D02*
D03*
Y024957D02*
D03*
Y024761D02*
D03*
Y024564D02*
D03*
Y024367D02*
D03*
X028154D02*
D03*
Y024564D02*
D03*
Y024761D02*
D03*
Y024957D02*
D03*
Y025154D02*
D03*
X046343D02*
D03*
Y024957D02*
D03*
Y024761D02*
D03*
Y024564D02*
D03*
Y024367D02*
D03*
X044808D02*
D03*
Y024564D02*
D03*
Y024761D02*
D03*
Y024957D02*
D03*
Y025154D02*
D03*
X029689Y031375D02*
D03*
Y031178D02*
D03*
Y030981D02*
D03*
Y030784D02*
D03*
Y030587D02*
D03*
X028154D02*
D03*
Y030784D02*
D03*
Y030981D02*
D03*
Y031178D02*
D03*
Y031375D02*
D03*
X046343D02*
D03*
Y031178D02*
D03*
Y030981D02*
D03*
Y030784D02*
D03*
Y030587D02*
D03*
X044808D02*
D03*
Y030784D02*
D03*
Y030981D02*
D03*
Y031178D02*
D03*
Y031375D02*
D03*
X029689Y037595D02*
D03*
Y037398D02*
D03*
Y037202D02*
D03*
Y037005D02*
D03*
Y036808D02*
D03*
X028154D02*
D03*
Y037005D02*
D03*
Y037202D02*
D03*
Y037398D02*
D03*
Y037595D02*
D03*
X046343D02*
D03*
Y037398D02*
D03*
Y037202D02*
D03*
Y037005D02*
D03*
Y036808D02*
D03*
X044808D02*
D03*
Y037005D02*
D03*
Y037202D02*
D03*
Y037398D02*
D03*
Y037595D02*
D03*
X029689Y043816D02*
D03*
Y043619D02*
D03*
Y043422D02*
D03*
Y043225D02*
D03*
Y043028D02*
D03*
X028154D02*
D03*
Y043225D02*
D03*
Y043422D02*
D03*
Y043619D02*
D03*
Y043816D02*
D03*
X046343D02*
D03*
Y043619D02*
D03*
Y043422D02*
D03*
Y043225D02*
D03*
Y043028D02*
D03*
X044808D02*
D03*
Y043225D02*
D03*
Y043422D02*
D03*
Y043619D02*
D03*
Y043816D02*
D03*
D18*
X028528Y019308D02*
D03*
X028725D02*
D03*
X028922D02*
D03*
X029119D02*
D03*
X029315D02*
D03*
Y017772D02*
D03*
X029119D02*
D03*
X028922D02*
D03*
X028725D02*
D03*
X028528D02*
D03*
X045182Y019308D02*
D03*
X045378D02*
D03*
X045575D02*
D03*
X045772D02*
D03*
X045969D02*
D03*
Y017772D02*
D03*
X045772D02*
D03*
X045575D02*
D03*
X045378D02*
D03*
X045182D02*
D03*
X028528Y025528D02*
D03*
X028725D02*
D03*
X028922D02*
D03*
X029119D02*
D03*
X029315D02*
D03*
Y023993D02*
D03*
X029119D02*
D03*
X028922D02*
D03*
X028725D02*
D03*
X028528D02*
D03*
X045182Y025528D02*
D03*
X045378D02*
D03*
X045575D02*
D03*
X045772D02*
D03*
X045969D02*
D03*
Y023993D02*
D03*
X045772D02*
D03*
X045575D02*
D03*
X045378D02*
D03*
X045182D02*
D03*
X028528Y031749D02*
D03*
X028725D02*
D03*
X028922D02*
D03*
X029119D02*
D03*
X029315D02*
D03*
Y030213D02*
D03*
X029119D02*
D03*
X028922D02*
D03*
X028725D02*
D03*
X028528D02*
D03*
X045182Y031749D02*
D03*
X045378D02*
D03*
X045575D02*
D03*
X045772D02*
D03*
X045969D02*
D03*
Y030213D02*
D03*
X045772D02*
D03*
X045575D02*
D03*
X045378D02*
D03*
X045182D02*
D03*
X028528Y037969D02*
D03*
X028725D02*
D03*
X028922D02*
D03*
X029119D02*
D03*
X029315D02*
D03*
Y036434D02*
D03*
X029119D02*
D03*
X028922D02*
D03*
X028725D02*
D03*
X028528D02*
D03*
X045182Y037969D02*
D03*
X045378D02*
D03*
X045575D02*
D03*
X045772D02*
D03*
X045969D02*
D03*
Y036434D02*
D03*
X045772D02*
D03*
X045575D02*
D03*
X045378D02*
D03*
X045182D02*
D03*
X028528Y04419D02*
D03*
X028725D02*
D03*
X028922D02*
D03*
X029119D02*
D03*
X029315D02*
D03*
Y042654D02*
D03*
X029119D02*
D03*
X028922D02*
D03*
X028725D02*
D03*
X028528D02*
D03*
X045182Y04419D02*
D03*
X045378D02*
D03*
X045575D02*
D03*
X045772D02*
D03*
X045969D02*
D03*
Y042654D02*
D03*
X045772D02*
D03*
X045575D02*
D03*
X045378D02*
D03*
X045182D02*
D03*
D19*
X02594Y014793D02*
D03*
X02608Y014932D02*
D03*
X026219Y015071D02*
D03*
X026358Y01521D02*
D03*
X026497Y015349D02*
D03*
X026636Y015489D02*
D03*
X026776Y015628D02*
D03*
X026915Y015767D02*
D03*
X027054Y015906D02*
D03*
X027193Y016045D02*
D03*
X027332Y016185D02*
D03*
X027472Y016324D02*
D03*
X025105Y01869D02*
D03*
X024966Y018551D02*
D03*
X024827Y018412D02*
D03*
X024688Y018272D02*
D03*
X024549Y018133D02*
D03*
X024409Y017994D02*
D03*
X02427Y017855D02*
D03*
X024131Y017716D02*
D03*
X023992Y017576D02*
D03*
X023853Y017437D02*
D03*
X023713Y017298D02*
D03*
X023574Y017159D02*
D03*
X042594Y014793D02*
D03*
X042733Y014932D02*
D03*
X042872Y015071D02*
D03*
X043012Y01521D02*
D03*
X043151Y015349D02*
D03*
X04329Y015489D02*
D03*
X043429Y015628D02*
D03*
X043568Y015767D02*
D03*
X043708Y015906D02*
D03*
X043847Y016045D02*
D03*
X043986Y016185D02*
D03*
X044125Y016324D02*
D03*
X041759Y01869D02*
D03*
X04162Y018551D02*
D03*
X04148Y018412D02*
D03*
X041341Y018272D02*
D03*
X041202Y018133D02*
D03*
X041063Y017994D02*
D03*
X040924Y017855D02*
D03*
X040785Y017716D02*
D03*
X040645Y017576D02*
D03*
X040506Y017437D02*
D03*
X040367Y017298D02*
D03*
X040228Y017159D02*
D03*
X02594Y021013D02*
D03*
X02608Y021152D02*
D03*
X026219Y021291D02*
D03*
X026358Y021431D02*
D03*
X026497Y02157D02*
D03*
X026636Y021709D02*
D03*
X026776Y021848D02*
D03*
X026915Y021987D02*
D03*
X027054Y022127D02*
D03*
X027193Y022266D02*
D03*
X027332Y022405D02*
D03*
X027472Y022544D02*
D03*
X025105Y024911D02*
D03*
X024966Y024771D02*
D03*
X024827Y024632D02*
D03*
X024688Y024493D02*
D03*
X024549Y024354D02*
D03*
X024409Y024215D02*
D03*
X02427Y024075D02*
D03*
X024131Y023936D02*
D03*
X023992Y023797D02*
D03*
X023853Y023658D02*
D03*
X023713Y023519D02*
D03*
X023574Y023379D02*
D03*
X042594Y021013D02*
D03*
X042733Y021152D02*
D03*
X042872Y021291D02*
D03*
X043012Y021431D02*
D03*
X043151Y02157D02*
D03*
X04329Y021709D02*
D03*
X043429Y021848D02*
D03*
X043568Y021987D02*
D03*
X043708Y022127D02*
D03*
X043847Y022266D02*
D03*
X043986Y022405D02*
D03*
X044125Y022544D02*
D03*
X041759Y024911D02*
D03*
X04162Y024771D02*
D03*
X04148Y024632D02*
D03*
X041341Y024493D02*
D03*
X041202Y024354D02*
D03*
X041063Y024215D02*
D03*
X040924Y024075D02*
D03*
X040785Y023936D02*
D03*
X040645Y023797D02*
D03*
X040506Y023658D02*
D03*
X040367Y023519D02*
D03*
X040228Y023379D02*
D03*
X02594Y027234D02*
D03*
X02608Y027373D02*
D03*
X026219Y027512D02*
D03*
X026358Y027651D02*
D03*
X026497Y02779D02*
D03*
X026636Y02793D02*
D03*
X026776Y028069D02*
D03*
X026915Y028208D02*
D03*
X027054Y028347D02*
D03*
X027193Y028486D02*
D03*
X027332Y028625D02*
D03*
X027472Y028765D02*
D03*
X025105Y031131D02*
D03*
X024966Y030992D02*
D03*
X024827Y030853D02*
D03*
X024688Y030713D02*
D03*
X024549Y030574D02*
D03*
X024409Y030435D02*
D03*
X02427Y030296D02*
D03*
X024131Y030157D02*
D03*
X023992Y030017D02*
D03*
X023853Y029878D02*
D03*
X023713Y029739D02*
D03*
X023574Y0296D02*
D03*
X042594Y027234D02*
D03*
X042733Y027373D02*
D03*
X042872Y027512D02*
D03*
X043012Y027651D02*
D03*
X043151Y02779D02*
D03*
X04329Y02793D02*
D03*
X043429Y028069D02*
D03*
X043568Y028208D02*
D03*
X043708Y028347D02*
D03*
X043847Y028486D02*
D03*
X043986Y028625D02*
D03*
X044125Y028765D02*
D03*
X041759Y031131D02*
D03*
X04162Y030992D02*
D03*
X04148Y030853D02*
D03*
X041341Y030713D02*
D03*
X041202Y030574D02*
D03*
X041063Y030435D02*
D03*
X040924Y030296D02*
D03*
X040785Y030157D02*
D03*
X040645Y030017D02*
D03*
X040506Y029878D02*
D03*
X040367Y029739D02*
D03*
X040228Y0296D02*
D03*
X02594Y033454D02*
D03*
X02608Y033593D02*
D03*
X026219Y033732D02*
D03*
X026358Y033872D02*
D03*
X026497Y034011D02*
D03*
X026636Y03415D02*
D03*
X026776Y034289D02*
D03*
X026915Y034428D02*
D03*
X027054Y034568D02*
D03*
X027193Y034707D02*
D03*
X027332Y034846D02*
D03*
X027472Y034985D02*
D03*
X025105Y037351D02*
D03*
X024966Y037212D02*
D03*
X024827Y037073D02*
D03*
X024688Y036934D02*
D03*
X024549Y036795D02*
D03*
X024409Y036655D02*
D03*
X02427Y036516D02*
D03*
X024131Y036377D02*
D03*
X023992Y036238D02*
D03*
X023853Y036099D02*
D03*
X023713Y03596D02*
D03*
X023574Y03582D02*
D03*
X042594Y033454D02*
D03*
X042733Y033593D02*
D03*
X042872Y033732D02*
D03*
X043012Y033872D02*
D03*
X043151Y034011D02*
D03*
X04329Y03415D02*
D03*
X043429Y034289D02*
D03*
X043568Y034428D02*
D03*
X043708Y034568D02*
D03*
X043847Y034707D02*
D03*
X043986Y034846D02*
D03*
X044125Y034985D02*
D03*
X041759Y037351D02*
D03*
X04162Y037212D02*
D03*
X04148Y037073D02*
D03*
X041341Y036934D02*
D03*
X041202Y036795D02*
D03*
X041063Y036655D02*
D03*
X040924Y036516D02*
D03*
X040785Y036377D02*
D03*
X040645Y036238D02*
D03*
X040506Y036099D02*
D03*
X040367Y03596D02*
D03*
X040228Y03582D02*
D03*
X02594Y039674D02*
D03*
X02608Y039814D02*
D03*
X026219Y039953D02*
D03*
X026358Y040092D02*
D03*
X026497Y040231D02*
D03*
X026636Y04037D02*
D03*
X026776Y04051D02*
D03*
X026915Y040649D02*
D03*
X027054Y040788D02*
D03*
X027193Y040927D02*
D03*
X027332Y041066D02*
D03*
X027472Y041206D02*
D03*
X025105Y043572D02*
D03*
X024966Y043433D02*
D03*
X024827Y043294D02*
D03*
X024688Y043154D02*
D03*
X024549Y043015D02*
D03*
X024409Y042876D02*
D03*
X02427Y042737D02*
D03*
X024131Y042598D02*
D03*
X023992Y042458D02*
D03*
X023853Y042319D02*
D03*
X023713Y04218D02*
D03*
X023574Y042041D02*
D03*
X042594Y039674D02*
D03*
X042733Y039814D02*
D03*
X042872Y039953D02*
D03*
X043012Y040092D02*
D03*
X043151Y040231D02*
D03*
X04329Y04037D02*
D03*
X043429Y04051D02*
D03*
X043568Y040649D02*
D03*
X043708Y040788D02*
D03*
X043847Y040927D02*
D03*
X043986Y041066D02*
D03*
X044125Y041206D02*
D03*
X041759Y043572D02*
D03*
X04162Y043433D02*
D03*
X04148Y043294D02*
D03*
X041341Y043154D02*
D03*
X041202Y043015D02*
D03*
X041063Y042876D02*
D03*
X040924Y042737D02*
D03*
X040785Y042598D02*
D03*
X040645Y042458D02*
D03*
X040506Y042319D02*
D03*
X040367Y04218D02*
D03*
X040228Y042041D02*
D03*
D20*
X027472Y017159D02*
D03*
X027332Y017298D02*
D03*
X027193Y017437D02*
D03*
X027054Y017576D02*
D03*
X026915Y017716D02*
D03*
X026776Y017855D02*
D03*
X026636Y017994D02*
D03*
X026497Y018133D02*
D03*
X026358Y018272D02*
D03*
X026219Y018412D02*
D03*
X02608Y018551D02*
D03*
X02594Y01869D02*
D03*
X023574Y016324D02*
D03*
X023713Y016185D02*
D03*
X023853Y016045D02*
D03*
X023992Y015906D02*
D03*
X024131Y015767D02*
D03*
X02427Y015628D02*
D03*
X024409Y015489D02*
D03*
X024549Y015349D02*
D03*
X024688Y01521D02*
D03*
X024827Y015071D02*
D03*
X024966Y014932D02*
D03*
X025105Y014793D02*
D03*
X044125Y017159D02*
D03*
X043986Y017298D02*
D03*
X043847Y017437D02*
D03*
X043708Y017576D02*
D03*
X043568Y017716D02*
D03*
X043429Y017855D02*
D03*
X04329Y017994D02*
D03*
X043151Y018133D02*
D03*
X043012Y018272D02*
D03*
X042872Y018412D02*
D03*
X042733Y018551D02*
D03*
X042594Y01869D02*
D03*
X040228Y016324D02*
D03*
X040367Y016185D02*
D03*
X040506Y016045D02*
D03*
X040645Y015906D02*
D03*
X040785Y015767D02*
D03*
X040924Y015628D02*
D03*
X041063Y015489D02*
D03*
X041202Y015349D02*
D03*
X041341Y01521D02*
D03*
X04148Y015071D02*
D03*
X04162Y014932D02*
D03*
X041759Y014793D02*
D03*
X027472Y023379D02*
D03*
X027332Y023519D02*
D03*
X027193Y023658D02*
D03*
X027054Y023797D02*
D03*
X026915Y023936D02*
D03*
X026776Y024075D02*
D03*
X026636Y024215D02*
D03*
X026497Y024354D02*
D03*
X026358Y024493D02*
D03*
X026219Y024632D02*
D03*
X02608Y024771D02*
D03*
X02594Y024911D02*
D03*
X023574Y022544D02*
D03*
X023713Y022405D02*
D03*
X023853Y022266D02*
D03*
X023992Y022127D02*
D03*
X024131Y021987D02*
D03*
X02427Y021848D02*
D03*
X024409Y021709D02*
D03*
X024549Y02157D02*
D03*
X024688Y021431D02*
D03*
X024827Y021291D02*
D03*
X024966Y021152D02*
D03*
X025105Y021013D02*
D03*
X044125Y023379D02*
D03*
X043986Y023519D02*
D03*
X043847Y023658D02*
D03*
X043708Y023797D02*
D03*
X043568Y023936D02*
D03*
X043429Y024075D02*
D03*
X04329Y024215D02*
D03*
X043151Y024354D02*
D03*
X043012Y024493D02*
D03*
X042872Y024632D02*
D03*
X042733Y024771D02*
D03*
X042594Y024911D02*
D03*
X040228Y022544D02*
D03*
X040367Y022405D02*
D03*
X040506Y022266D02*
D03*
X040645Y022127D02*
D03*
X040785Y021987D02*
D03*
X040924Y021848D02*
D03*
X041063Y021709D02*
D03*
X041202Y02157D02*
D03*
X041341Y021431D02*
D03*
X04148Y021291D02*
D03*
X04162Y021152D02*
D03*
X041759Y021013D02*
D03*
X027472Y0296D02*
D03*
X027332Y029739D02*
D03*
X027193Y029878D02*
D03*
X027054Y030017D02*
D03*
X026915Y030157D02*
D03*
X026776Y030296D02*
D03*
X026636Y030435D02*
D03*
X026497Y030574D02*
D03*
X026358Y030713D02*
D03*
X026219Y030853D02*
D03*
X02608Y030992D02*
D03*
X02594Y031131D02*
D03*
X023574Y028765D02*
D03*
X023713Y028625D02*
D03*
X023853Y028486D02*
D03*
X023992Y028347D02*
D03*
X024131Y028208D02*
D03*
X02427Y028069D02*
D03*
X024409Y02793D02*
D03*
X024549Y02779D02*
D03*
X024688Y027651D02*
D03*
X024827Y027512D02*
D03*
X024966Y027373D02*
D03*
X025105Y027234D02*
D03*
X044125Y0296D02*
D03*
X043986Y029739D02*
D03*
X043847Y029878D02*
D03*
X043708Y030017D02*
D03*
X043568Y030157D02*
D03*
X043429Y030296D02*
D03*
X04329Y030435D02*
D03*
X043151Y030574D02*
D03*
X043012Y030713D02*
D03*
X042872Y030853D02*
D03*
X042733Y030992D02*
D03*
X042594Y031131D02*
D03*
X040228Y028765D02*
D03*
X040367Y028625D02*
D03*
X040506Y028486D02*
D03*
X040645Y028347D02*
D03*
X040785Y028208D02*
D03*
X040924Y028069D02*
D03*
X041063Y02793D02*
D03*
X041202Y02779D02*
D03*
X041341Y027651D02*
D03*
X04148Y027512D02*
D03*
X04162Y027373D02*
D03*
X041759Y027234D02*
D03*
X027472Y03582D02*
D03*
X027332Y03596D02*
D03*
X027193Y036099D02*
D03*
X027054Y036238D02*
D03*
X026915Y036377D02*
D03*
X026776Y036516D02*
D03*
X026636Y036655D02*
D03*
X026497Y036795D02*
D03*
X026358Y036934D02*
D03*
X026219Y037073D02*
D03*
X02608Y037212D02*
D03*
X02594Y037351D02*
D03*
X023574Y034985D02*
D03*
X023713Y034846D02*
D03*
X023853Y034707D02*
D03*
X023992Y034568D02*
D03*
X024131Y034428D02*
D03*
X02427Y034289D02*
D03*
X024409Y03415D02*
D03*
X024549Y034011D02*
D03*
X024688Y033872D02*
D03*
X024827Y033732D02*
D03*
X024966Y033593D02*
D03*
X025105Y033454D02*
D03*
X044125Y03582D02*
D03*
X043986Y03596D02*
D03*
X043847Y036099D02*
D03*
X043708Y036238D02*
D03*
X043568Y036377D02*
D03*
X043429Y036516D02*
D03*
X04329Y036655D02*
D03*
X043151Y036795D02*
D03*
X043012Y036934D02*
D03*
X042872Y037073D02*
D03*
X042733Y037212D02*
D03*
X042594Y037351D02*
D03*
X040228Y034985D02*
D03*
X040367Y034846D02*
D03*
X040506Y034707D02*
D03*
X040645Y034568D02*
D03*
X040785Y034428D02*
D03*
X040924Y034289D02*
D03*
X041063Y03415D02*
D03*
X041202Y034011D02*
D03*
X041341Y033872D02*
D03*
X04148Y033732D02*
D03*
X04162Y033593D02*
D03*
X041759Y033454D02*
D03*
X027472Y042041D02*
D03*
X027332Y04218D02*
D03*
X027193Y042319D02*
D03*
X027054Y042458D02*
D03*
X026915Y042598D02*
D03*
X026776Y042737D02*
D03*
X026636Y042876D02*
D03*
X026497Y043015D02*
D03*
X026358Y043154D02*
D03*
X026219Y043294D02*
D03*
X02608Y043433D02*
D03*
X02594Y043572D02*
D03*
X023574Y041206D02*
D03*
X023713Y041066D02*
D03*
X023853Y040927D02*
D03*
X023992Y040788D02*
D03*
X024131Y040649D02*
D03*
X02427Y04051D02*
D03*
X024409Y04037D02*
D03*
X024549Y040231D02*
D03*
X024688Y040092D02*
D03*
X024827Y039953D02*
D03*
X024966Y039814D02*
D03*
X025105Y039674D02*
D03*
X044125Y042041D02*
D03*
X043986Y04218D02*
D03*
X043847Y042319D02*
D03*
X043708Y042458D02*
D03*
X043568Y042598D02*
D03*
X043429Y042737D02*
D03*
X04329Y042876D02*
D03*
X043151Y043015D02*
D03*
X043012Y043154D02*
D03*
X042872Y043294D02*
D03*
X042733Y043433D02*
D03*
X042594Y043572D02*
D03*
X040228Y041206D02*
D03*
X040367Y041066D02*
D03*
X040506Y040927D02*
D03*
X040645Y040788D02*
D03*
X040785Y040649D02*
D03*
X040924Y04051D02*
D03*
X041063Y04037D02*
D03*
X041202Y040231D02*
D03*
X041341Y040092D02*
D03*
X04148Y039953D02*
D03*
X04162Y039814D02*
D03*
X041759Y039674D02*
D03*
D21*
X022573Y015926D02*
D03*
Y016457D02*
D03*
X039226Y015926D02*
D03*
Y016457D02*
D03*
X022573Y022146D02*
D03*
Y022678D02*
D03*
X039226Y022146D02*
D03*
Y022678D02*
D03*
X022573Y028367D02*
D03*
Y028898D02*
D03*
X039226Y028367D02*
D03*
Y028898D02*
D03*
X022573Y034587D02*
D03*
Y035118D02*
D03*
X039226Y034587D02*
D03*
Y035118D02*
D03*
X022573Y040807D02*
D03*
Y041339D02*
D03*
X039226Y040807D02*
D03*
Y041339D02*
D03*
D22*
X028825Y016591D02*
D03*
X029573D02*
D03*
X045478D02*
D03*
X046226D02*
D03*
X028825Y022812D02*
D03*
X029573D02*
D03*
X045478D02*
D03*
X046226D02*
D03*
X028825Y029032D02*
D03*
X029573D02*
D03*
X045478D02*
D03*
X046226D02*
D03*
X028825Y035253D02*
D03*
X029573D02*
D03*
X045478D02*
D03*
X046226D02*
D03*
X028825Y041473D02*
D03*
X029573D02*
D03*
X045478D02*
D03*
X046226D02*
D03*
D23*
X029199Y016591D02*
D03*
X045852D02*
D03*
X029199Y022812D02*
D03*
X045852D02*
D03*
X029199Y029032D02*
D03*
X045852D02*
D03*
X029199Y035253D02*
D03*
X045852D02*
D03*
X029199Y041473D02*
D03*
X045852D02*
D03*
D24*
X033823Y017315D02*
D03*
Y019441D02*
D03*
Y018378D02*
D03*
Y017315D02*
D03*
Y019441D02*
D03*
X050476Y017315D02*
D03*
Y019441D02*
D03*
Y018378D02*
D03*
Y017315D02*
D03*
Y019441D02*
D03*
X033823Y023536D02*
D03*
Y025662D02*
D03*
Y024599D02*
D03*
Y023536D02*
D03*
Y025662D02*
D03*
X050476Y023536D02*
D03*
Y025662D02*
D03*
Y024599D02*
D03*
Y023536D02*
D03*
Y025662D02*
D03*
X033823Y029756D02*
D03*
Y031882D02*
D03*
Y030819D02*
D03*
Y029756D02*
D03*
Y031882D02*
D03*
X050476Y029756D02*
D03*
Y031882D02*
D03*
Y030819D02*
D03*
Y029756D02*
D03*
Y031882D02*
D03*
X033823Y035977D02*
D03*
Y038103D02*
D03*
Y03704D02*
D03*
Y035977D02*
D03*
Y038103D02*
D03*
X050476Y035977D02*
D03*
Y038103D02*
D03*
Y03704D02*
D03*
Y035977D02*
D03*
Y038103D02*
D03*
X033823Y042197D02*
D03*
Y044323D02*
D03*
Y04326D02*
D03*
Y042197D02*
D03*
Y044323D02*
D03*
X050476Y042197D02*
D03*
Y044323D02*
D03*
Y04326D02*
D03*
Y042197D02*
D03*
Y044323D02*
D03*
D25*
X021311Y016441D02*
D03*
X021823D02*
D03*
X027779Y014791D02*
D03*
X027267D02*
D03*
X037965Y016441D02*
D03*
X038476D02*
D03*
X044432Y014791D02*
D03*
X043921D02*
D03*
X021311Y022662D02*
D03*
X021823D02*
D03*
X027779Y021012D02*
D03*
X027267D02*
D03*
X037965Y022662D02*
D03*
X038476D02*
D03*
X044432Y021012D02*
D03*
X043921D02*
D03*
X021311Y028882D02*
D03*
X021823D02*
D03*
X027779Y027232D02*
D03*
X027267D02*
D03*
X037965Y028882D02*
D03*
X038476D02*
D03*
X044432Y027232D02*
D03*
X043921D02*
D03*
X021311Y035103D02*
D03*
X021823D02*
D03*
X027779Y033453D02*
D03*
X027267D02*
D03*
X037965Y035103D02*
D03*
X038476D02*
D03*
X044432Y033453D02*
D03*
X043921D02*
D03*
X021311Y041323D02*
D03*
X021823D02*
D03*
X027779Y039673D02*
D03*
X027267D02*
D03*
X037965Y041323D02*
D03*
X038476D02*
D03*
X044432Y039673D02*
D03*
X043921D02*
D03*
D26*
X02059Y015491D02*
D03*
X021456Y015865D02*
D03*
Y015117D02*
D03*
X037243Y015491D02*
D03*
X03811Y015865D02*
D03*
Y015117D02*
D03*
X02059Y021712D02*
D03*
X021456Y022086D02*
D03*
Y021338D02*
D03*
X037243Y021712D02*
D03*
X03811Y022086D02*
D03*
Y021338D02*
D03*
X02059Y027932D02*
D03*
X021456Y028306D02*
D03*
Y027558D02*
D03*
X037243Y027932D02*
D03*
X03811Y028306D02*
D03*
Y027558D02*
D03*
X02059Y034153D02*
D03*
X021456Y034527D02*
D03*
Y033779D02*
D03*
X037243Y034153D02*
D03*
X03811Y034527D02*
D03*
Y033779D02*
D03*
X02059Y040373D02*
D03*
X021456Y040747D02*
D03*
Y039999D02*
D03*
X037243Y040373D02*
D03*
X03811Y040747D02*
D03*
Y039999D02*
D03*
D27*
X021317Y017815D02*
D03*
Y017441D02*
D03*
Y017067D02*
D03*
X020329D02*
D03*
Y017441D02*
D03*
Y017815D02*
D03*
X037971D02*
D03*
Y017441D02*
D03*
Y017067D02*
D03*
X036982D02*
D03*
Y017441D02*
D03*
Y017815D02*
D03*
X021317Y024036D02*
D03*
Y023662D02*
D03*
Y023288D02*
D03*
X020329D02*
D03*
Y023662D02*
D03*
Y024036D02*
D03*
X037971D02*
D03*
Y023662D02*
D03*
Y023288D02*
D03*
X036982D02*
D03*
Y023662D02*
D03*
Y024036D02*
D03*
X021317Y030256D02*
D03*
Y029882D02*
D03*
Y029508D02*
D03*
X020329D02*
D03*
Y029882D02*
D03*
Y030256D02*
D03*
X037971D02*
D03*
Y029882D02*
D03*
Y029508D02*
D03*
X036982D02*
D03*
Y029882D02*
D03*
Y030256D02*
D03*
X021317Y036477D02*
D03*
Y036103D02*
D03*
Y035729D02*
D03*
X020329D02*
D03*
Y036103D02*
D03*
Y036477D02*
D03*
X037971D02*
D03*
Y036103D02*
D03*
Y035729D02*
D03*
X036982D02*
D03*
Y036103D02*
D03*
Y036477D02*
D03*
X021317Y042697D02*
D03*
Y042323D02*
D03*
Y041949D02*
D03*
X020329D02*
D03*
Y042323D02*
D03*
Y042697D02*
D03*
X037971D02*
D03*
Y042323D02*
D03*
Y041949D02*
D03*
X036982D02*
D03*
Y042323D02*
D03*
Y042697D02*
D03*
D42*
X018917Y018327D02*
D03*
X018917Y016556D02*
D03*
X03557Y018327D02*
D03*
X03557Y016556D02*
D03*
X018917Y024548D02*
D03*
X018917Y022776D02*
D03*
X03557Y024548D02*
D03*
X03557Y022776D02*
D03*
X018917Y030768D02*
D03*
X018917Y028996D02*
D03*
X03557Y030768D02*
D03*
X03557Y028996D02*
D03*
X018917Y036989D02*
D03*
X018917Y035217D02*
D03*
X03557Y036989D02*
D03*
X03557Y035217D02*
D03*
X018917Y043209D02*
D03*
X018917Y041437D02*
D03*
X03557Y043209D02*
D03*
X03557Y041437D02*
D03*
D43*
X023967Y019835D02*
D03*
X04062D02*
D03*
X023967Y026056D02*
D03*
X04062D02*
D03*
X023967Y032276D02*
D03*
X04062D02*
D03*
X023967Y038496D02*
D03*
X04062D02*
D03*
X023967Y044717D02*
D03*
X04062D02*
D03*
D44*
X023967Y019048D02*
D03*
X023179Y019835D02*
D03*
Y019048D02*
D03*
X04062D02*
D03*
X039833Y019835D02*
D03*
Y019048D02*
D03*
X023967Y025268D02*
D03*
X023179Y026056D02*
D03*
Y025268D02*
D03*
X04062D02*
D03*
X039833Y026056D02*
D03*
Y025268D02*
D03*
X023967Y031489D02*
D03*
X023179Y032276D02*
D03*
Y031489D02*
D03*
X04062D02*
D03*
X039833Y032276D02*
D03*
Y031489D02*
D03*
X023967Y037709D02*
D03*
X023179Y038496D02*
D03*
Y037709D02*
D03*
X04062D02*
D03*
X039833Y038496D02*
D03*
Y037709D02*
D03*
X023967Y04393D02*
D03*
X023179Y044717D02*
D03*
Y04393D02*
D03*
X04062D02*
D03*
X039833Y044717D02*
D03*
Y04393D02*
D03*
M02*
