M48
;Layer_Color=9474304
;FILE_FORMAT=2:4
INCH,LZ
;TYPE=PLATED
T1F00S00C0.0120
T2F00S00C0.0335
T3F00S00C0.0748
%
T01
X018323Y014991
X018923
X019523
X019573Y015541
X020273Y014691
X021456Y015117
X023107Y015091
X023423Y015591
X025173Y015541
X025623Y015391
X025473Y014741
X028223Y014791
X028523Y014991
X029723
X029423Y015591
X030623
X030923Y014991
X032123
X031823Y015591
X033023
X033323Y014991
X034223Y015591
X034976Y014991
X035576
X036176
X036226Y015541
X036926Y014691
X03811Y015117
X039761Y015091
X040076Y015591
X041826Y015541
X042276Y015391
X042126Y014741
X044876Y014791
X045176Y014991
X046376
X046076Y015591
X047276
X047576Y014991
X048776
X048476Y015591
X049676
X049976Y014991
X050876Y015591
X050576Y016191
X050276Y016791
X049076
X049376Y016191
X048176
X047876Y016791
Y017991
X049076
X048776Y017391
X046976
Y016191
X047876Y019191
X048476
X048776Y019791
X048176
X048476Y020291
X049126
X049776
X050476
X049976Y021212
X049676Y021812
X049376Y022412
X049076Y023012
X048776Y023612
X049076Y024212
X047876
Y025412
X048476
X048776Y026012
X048176
X048476Y026512
X049126
X049776
X050476
X049976Y027432
X049676Y028032
X049376Y028632
X049076Y029232
X048776Y029832
X049076Y030432
X047876
Y029232
X048176Y028632
X048476Y028032
X048776Y027432
X047576
X047276Y028032
X046976Y028632
Y029832
X050276Y029232
X050576Y028632
X050876Y028032
X047776Y026512
X047426Y025862
X046976Y023612
Y022412
X047276Y021812
X047576Y021212
X047776Y020291
X047426Y019641
X048776Y021212
X048476Y021812
X048176Y022412
X047876Y023012
X050276
X050576Y022412
X050876Y021812
X046076
X046376Y021212
X045176
X044876Y021012
X045003Y020041
X044576Y019791
X044276Y020341
X043176Y020091
X043126Y019541
X043576Y019615
X044026Y018591
X044376
X044276Y017741
X044559Y017517
X044276Y016791
X043676
X043126Y016841
X043226Y016341
X042926Y016041
X042576Y015691
X041426Y015941
X041476Y016441
X041226Y016941
X041276Y017291
X040976Y016741
X040626Y016691
X040076Y016791
X039926Y016441
X039776Y017391
X039626Y017741
X039076Y017291
X038876Y016791
X038476Y017091
X038526Y017791
X038926Y018141
X039326Y018491
X040676
X041276Y019191
X042111Y019591
X042176Y018591
Y018191
X042318Y01778
X042276Y017241
X042776Y017191
X041876Y016841
X039226Y015926
X036676Y015941
Y016191
X036326
Y015941
X036776Y016541
X036495Y017098
X035926Y017241
Y017641
X035576Y017391
X036495Y017835
X036376Y018341
X036776
X036676Y018691
Y018941
X036326
Y018691
X035876Y019191
X035576Y019791
X035176Y019591
X036776Y019691
X036926Y020912
X036176Y021212
X035576
X034976
X034223Y021812
X033923Y022412
X033623Y023012
X032423
X032723Y022412
X033023Y021812
X033323Y021212
X033123Y020291
X032473
X031823
X032123Y019791
X031523
X031823Y019191
X032423Y017991
X032123Y017391
X032423Y016791
X032723Y016191
X033923
X033623Y016791
X031523Y016191
X032123Y021212
X031823Y021812
X031523Y022412
X032123Y023612
X032423Y024212
X031823Y025412
X032123Y026012
X031523
X031823Y026512
X032473
X033123
X033823
X033323Y027432
X033023Y028032
X032723Y028632
X032423Y029232
X032123Y029832
X032423Y030432
X033623Y029232
X033923Y028632
X034223Y028032
X034976Y027432
X035576
X036176
X036226Y027982
X036326Y028382
Y028632
X036676
Y028382
X036776Y028982
X036495Y029539
X035926Y029682
Y030082
X035576Y029832
X036495Y030276
X036376Y030782
X036776
X036676Y031132
X036326
X037942Y030932
X038526Y030232
X038476Y029532
X038876Y029232
X039076Y029732
X039776Y029832
X039626Y030182
X039326Y030932
X038926Y030582
X040676Y030932
X042176Y031032
Y030632
X042318Y030221
X042276Y029682
X042776Y029632
X043126Y029282
X043676Y029232
X044276
Y030182
X044559Y029958
X044376Y031032
X044026
X043226Y028782
X042926Y028482
X042576Y028132
X042276Y027832
X041826Y027982
X041426Y028382
X041476Y028882
X041226Y029382
X041276Y029732
X040976Y029182
X040626Y029132
X040076Y029232
X039926Y028882
X040076Y028032
X039761Y027532
X039226Y028367
X03811Y027558
X036926Y027132
X036776Y025912
X036676Y025162
Y024912
X036326
Y025162
X036376Y024562
X036776
X036495Y024056
Y023318
X035926Y023462
Y023862
X035576Y023612
X036326Y022412
Y022162
X036676
Y022412
X036776Y022762
X037476Y023262
X038476Y023312
X038876Y023012
X039076Y023512
X039776Y023612
X039626Y023962
X039326Y024712
X038926Y024362
X038526Y024012
X037942Y024712
X040676
X041276Y025412
X042111Y025812
X042176Y024812
Y024412
X042318Y024
X042276Y023462
X042776Y023412
X043126Y023062
X043676Y023012
X044276
Y023962
X044559Y023738
X044376Y024812
X044026
X043576Y025835
X043126Y025762
X043176Y026312
X044276Y026562
X044576Y026012
X045003Y026262
X044876Y027232
X045176Y027432
X045076Y028332
X046076Y028032
X046376Y027432
X046826Y026238
X046676Y029232
X041876Y029282
X042126Y027182
X041876Y023062
X041226Y023162
X041276Y023512
X040976Y022962
X040626Y022912
X040076Y023012
X039926Y022662
X040076Y021812
X039761Y021312
X039226Y022146
X03811Y021338
X036226Y021762
X033823Y020291
X037942Y018491
X037476Y017041
X042126Y020962
X042276Y021612
X041826Y021762
X041426Y022162
X041476Y022662
X043226Y022562
X042926Y022262
X042576Y021912
X045076Y022112
X046676Y023012
X046826Y020018
X046676Y016791
X045076Y015891
X035876Y025412
X035576Y026012
X035176Y025812
X032123Y027432
X031823Y028032
X031523Y028632
X037476Y029482
X031223Y029232
Y030432
X030323Y029832
X030023Y029232
X030323Y028632
X030623Y028032
X030923Y027432
X031123Y026512
X030773Y025862
X031223Y025412
Y024212
Y023012
X030023
X030323Y023612
Y022412
X030623Y021812
X030923Y021212
X031123Y020291
X030773Y019641
X031223Y019191
Y017991
Y016791
X030023
X030323Y017391
Y016191
X028423Y015891
X027623Y016791
X027023
X026473Y016841
X026573Y016341
X026273Y016041
X025923Y015691
X024773Y015941
X024823Y016441
X024573Y016941
X024623Y017291
X024323Y016741
X023973Y016691
X023423Y016791
X023273Y016441
X023123Y017391
X022973Y017741
X022423Y017291
X022223Y016791
X021823Y017091
X021873Y017791
X022273Y018141
X022673Y018491
X024023
X024623Y019191
X025457Y019591
X025523Y018591
Y018191
X025664Y01778
X025623Y017241
X026123Y017191
X025223Y016841
X027623Y017741
X027905Y017517
X027723Y018591
X027373
X026923Y019615
X026473Y019541
X026523Y020091
X027623Y020341
X027923Y019791
X02835Y020041
X028223Y021012
X028523Y021212
X028423Y022112
X029423Y021812
X029723Y021212
X030173Y020018
X027623Y023012
X027023
X026473Y023062
X026573Y022562
X026273Y022262
X025923Y021912
X025623Y021612
X025173Y021762
X024773Y022162
X024823Y022662
X024573Y023162
X024623Y023512
X024323Y022962
X023973Y022912
X023423Y023012
X023273Y022662
X023423Y021812
X023107Y021312
X022573Y022146
X022223Y023012
X022423Y023512
X023123Y023612
X022973Y023962
X022673Y024712
X022273Y024362
X021873Y024012
X021823Y023312
X020823Y023262
X019842Y023318
X019273Y023462
Y023862
X018923Y023612
X019842Y024056
X019723Y024562
X020123
X020023Y024912
Y025162
X019673
Y024912
X019223Y025412
X018923Y026012
X018523Y025812
X020123Y025912
X020273Y027132
X019523Y027432
X018923
X018323
X019573Y027982
X019673Y028382
Y028632
X020023
Y028382
X020123Y028982
X019842Y029539
X019273Y029682
Y030082
X018923Y029832
X019842Y030276
X019723Y030782
X020123
X020023Y031132
X019673
X021289Y030932
X021873Y030232
X021823Y029532
X022223Y029232
X022423Y029732
X023123Y029832
X022973Y030182
X022673Y030932
X022273Y030582
X024023Y030932
X025523Y031032
Y030632
X025664Y030221
X025623Y029682
X026123Y029632
X026473Y029282
X027023Y029232
X027623
Y030182
X027905Y029958
X027723Y031032
X027373
X026573Y028782
X026273Y028482
X025923Y028132
X025623Y027832
X025173Y027982
X024773Y028382
X024823Y028882
X024573Y029382
X024623Y029732
X024323Y029182
X023973Y029132
X023423Y029232
X023273Y028882
X023423Y028032
X023107Y027532
X022573Y028367
X021456Y027558
X020823Y029482
X025223Y029282
X025473Y027182
X025457Y025812
X025523Y024812
Y024412
X025664Y024
X025623Y023462
X026123Y023412
X025223Y023062
X025473Y020962
X021456Y021338
X020273Y020912
X019523Y021212
X018923
X018323
X019573Y021762
X019673Y022162
Y022412
X020023
Y022162
X020123Y022762
Y019691
X020023Y018941
Y018691
X019673
Y018941
X019723Y018341
X020123
X019842Y017835
Y017098
X019273Y017241
Y017641
X018923Y017391
X019673Y016191
Y015941
X020023
Y016191
X020123Y016541
X020823Y017041
X021289Y018491
X019223Y019191
X018923Y019791
X018523Y019591
X022573Y015926
X021289Y024712
X024023
X024623Y025412
X026473Y025762
X026923Y025835
X026523Y026312
X027623Y026562
X027923Y026012
X02835Y026262
X028223Y027232
X028523Y027432
X028423Y028332
X029423Y028032
X029723Y027432
X030173Y026238
X027723Y024812
X027373
X027623Y023962
X027905Y023738
X027923Y032232
X02835Y032482
X027623Y032782
X028223Y033453
X028523Y033653
X028423Y034553
X029423Y034253
X029723Y033653
X030923
X030623Y034253
X030323Y034853
X030023Y035453
X030323Y036053
X031223Y036653
Y037853
X030773Y038303
X030173Y038679
X031123Y038953
X030923Y039873
X030623Y040473
X030323Y041073
X030023Y041673
X030323Y042273
X031223Y042873
Y044073
X030773Y044523
X030173Y0449
X031123Y045173
X02835Y044923
X027923Y044673
X027623Y045223
X026523Y044973
X026473Y044423
X026923Y044497
X027373Y043473
X027723
X027623Y042623
X027905Y042399
X027623Y041673
X027023
X026473Y041723
X026573Y041223
X026273Y040923
X025923Y040573
X025623Y040273
X025173Y040423
X024773Y040823
X024823Y041323
X024573Y041823
X024623Y042173
X024323Y041623
X023973Y041573
X023423Y041673
X023273Y041323
X023423Y040473
X023107Y039973
X022573Y040807
X022223Y041673
X022423Y042173
X023123Y042273
X022973Y042623
X022673Y043373
X022273Y043023
X021873Y042673
X021823Y041973
X020823Y041923
X019842Y04198
X019273Y042123
Y042523
X018923Y042273
X019842Y042717
X019723Y043223
X020123
X020023Y043573
Y043823
X019673
Y043573
X019223Y044073
X018923Y044673
X018523Y044473
X020123Y044573
X021289Y043373
X024023
X024623Y044073
X025457Y044473
X025523Y043473
Y043073
X025664Y042662
X025623Y042123
X026123Y042073
X025223Y041723
X025473Y039623
X025457Y038253
X025523Y037253
Y036853
X025664Y036441
X025623Y035903
X026123Y035853
X026473Y035503
X027023Y035453
X027623
Y036403
X027905Y036179
X027723Y037253
X027373
X026923Y038276
X026473Y038203
X026523Y038753
X027623Y039003
X027923Y038453
X02835Y038703
X028223Y039673
X028523Y039873
X028423Y040773
X029423Y040473
X029723Y039873
X031223Y041673
Y035453
X031123Y032732
X030773Y032082
X031223Y031632
X030173Y032459
X026923Y032056
X026473Y031982
X026523Y032532
X025457Y032032
X024623Y031632
X025473Y033403
X025623Y034053
X025173Y034203
X024773Y034603
X024823Y035103
X024573Y035603
X024623Y035953
X024323Y035403
X023973Y035353
X023423Y035453
X023273Y035103
X023423Y034253
X023107Y033753
X022573Y034587
X022223Y035453
X022423Y035953
X023123Y036053
X022973Y036403
X022673Y037153
X022273Y036803
X021873Y036453
X021823Y035753
X020823Y035703
X019842Y035759
X019273Y035903
Y036303
X018923Y036053
X019842Y036496
X019723Y037003
X020123
X020023Y037353
Y037603
X019673
Y037353
X019223Y037853
X018923Y038453
X018523Y038253
X020123Y038353
X020273Y039573
X019523Y039873
X018923
X018323
X019573Y040423
X019673Y040823
Y041073
X020023
Y040823
X020123Y041423
X021456Y039999
X021289Y037153
X024023
X024623Y037853
X025223Y035503
X026573Y035003
X026273Y034703
X025923Y034353
X021456Y033779
X020273Y033353
X019523Y033653
X018923
X018323
X019573Y034203
X019673Y034603
Y034853
X020023
Y034603
X020123Y035203
Y032132
X020023Y031382
X019673
X019223Y031632
X018923Y032232
X018523Y032032
X031523Y032232
X032123
X031823Y032732
X032473
X033123
X033823
X033323Y033653
X033023Y034253
X032723Y034853
X032423Y035453
X032123Y036053
X032423Y036653
X031823Y037853
X032123Y038453
X031523
X031823Y038953
X032473
X033123
X033823
X033323Y039873
X033023Y040473
X032723Y041073
X032423Y041673
X032123Y042273
X032423Y042873
X031823Y044073
X032123Y044673
X031523
X031823Y045173
X032473
X033123
X033823
X035176Y044473
X035576Y044673
X035876Y044073
X036326Y043823
Y043573
X036676
Y043823
X036776Y043223
X036376
X036495Y042717
Y04198
X035926Y042123
Y042523
X035576Y042273
X036326Y041073
Y040823
X036676
Y041073
X036776Y041423
X037476Y041923
X038476Y041973
X038876Y041673
X039076Y042173
X039776Y042273
X039626Y042623
X039326Y043373
X038926Y043023
X038526Y042673
X037942Y043373
X036776Y044573
X036226Y040423
X036176Y039873
X035576
X034976
X034223Y040473
X033923Y041073
X033623Y041673
X031523Y041073
X031823Y040473
X032123Y039873
X035176Y038253
X035576Y038453
X035876Y037853
X036326Y037603
Y037353
X036676
Y037603
X036776Y037003
X036376
X036495Y036496
Y035759
X035926Y035903
Y036303
X035576Y036053
X036326Y034853
Y034603
X036676
Y034853
X036776Y035203
X037476Y035703
X038476Y035753
X038876Y035453
X039076Y035953
X039776Y036053
X039626Y036403
X039326Y037153
X038926Y036803
X038526Y036453
X037942Y037153
X036776Y038353
X036926Y039573
X03811Y039999
X039761Y039973
X040076Y040473
X039926Y041323
X040076Y041673
X040626Y041573
X040976Y041623
X041226Y041823
X041276Y042173
X041476Y041323
X041426Y040823
X041826Y040423
X042276Y040273
X042576Y040573
X042926Y040923
X043226Y041223
X043126Y041723
X043676Y041673
X044276
Y042623
X044559Y042399
X044376Y043473
X044026
X043576Y044497
X043126Y044423
X043176Y044973
X044276Y045223
X044576Y044673
X045003Y044923
X046826Y0449
X046676Y041673
X046076Y040473
X046376Y039873
X045176
X044876Y039673
X045003Y038703
X044576Y038453
X044276Y039003
X043176Y038753
X043126Y038203
X043576Y038276
X044026Y037253
X044376
X044276Y036403
X044559Y036179
X044276Y035453
X043676
X043126Y035503
X043226Y035003
X042926Y034703
X042576Y034353
X042276Y034053
X041826Y034203
X041426Y034603
X041476Y035103
X041226Y035603
X041276Y035953
X040976Y035403
X040626Y035353
X040076Y035453
X039926Y035103
X040076Y034253
X039761Y033753
X039226Y034587
X03811Y033779
X036926Y033353
X036176Y033653
X035576
X034976
X034223Y034253
X033923Y034853
X033623Y035453
X031523Y034853
X031823Y034253
X032123Y033653
X031823Y031632
X035176Y032032
X035576Y032232
X035876Y031632
X036326Y031382
X036676
X036776Y032132
X036226Y034203
X042126Y033403
X042111Y032032
X043126Y031982
X043576Y032056
X043176Y032532
X044276Y032782
X044576Y032232
X045003Y032482
X044876Y033453
X045176Y033653
X045076Y034553
X046076Y034253
X046376Y033653
X046826Y032459
X046676Y035453
X046826Y038679
X045076Y040773
X042776Y042073
X042276Y042123
X042318Y042662
X042176Y043073
Y043473
X042111Y044473
X041276Y044073
X040676Y043373
X041876Y041723
X042126Y039623
X042111Y038253
X042176Y037253
Y036853
X042318Y036441
X042276Y035903
X042776Y035853
X041876Y035503
X040676Y037153
X041276Y037853
X039226Y040807
X041276Y031632
X047876
X048476
X048776Y032232
X048176
X048476Y032732
X049126
X049776
X050476
X049976Y033653
X049676Y034253
X049376Y034853
X049076Y035453
X048776Y036053
X049076Y036653
X047876
Y037853
X048476
X048776Y038453
X048176
X048476Y038953
X049126
X049776
X050476
X049976Y039873
X049676Y040473
X049376Y041073
X049076Y041673
X048776Y042273
X049076Y042873
X047876
Y044073
X048476
X048776Y044673
X048176
X048476Y045173
X049126
X049776
X050476
X047776
X047426Y044523
X046976Y042273
Y041073
X047276Y040473
X047576Y039873
X047776Y038953
X047426Y038303
X046976Y036053
Y034853
X047276Y034253
X047576Y033653
X047776Y032732
X047426Y032082
X048776Y033653
X048476Y034253
X048176Y034853
X047876Y035453
X050276
X050576Y034853
X050876Y034253
Y040473
X050576Y041073
X050276Y041673
X047876
X048176Y041073
X048476Y040473
X048776Y039873
T02
X039833Y019048
X04062
Y019835
X039833
Y025268
X04062
Y026056
X039833
X023967
Y025268
X023179
Y026056
Y019835
X023967
Y019048
X023179
Y031489
X023967
Y032276
X023179
Y037709
X023967
Y038496
X023179
Y04393
X023967
Y044717
X023179
X039833
X04062
Y04393
X039833
Y038496
X04062
Y037709
X039833
Y032276
X04062
Y031489
X039833
T03
X03557Y016556
X03557Y018327
X03557Y022776
X03557Y024548
X03557Y028996
X03557Y030768
X018917
X018917Y028996
X018917Y024548
X018917Y022776
X018917Y018327
X018917Y016556
Y035217
X018917Y036989
X018917Y041437
X018917Y043209
X03557
X03557Y041437
X03557Y036989
X03557Y035217
M30
