G04*
G04 #@! TF.GenerationSoftware,Altium Limited,Altium Designer,22.10.1 (41)*
G04*
G04 Layer_Color=2752767*
%FSTAX24Y24*%
%MOIN*%
G70*
G04*
G04 #@! TF.SameCoordinates,8E8F082C-EA0B-43D0-983D-46ADB54C0823*
G04*
G04*
G04 #@! TF.FilePolarity,Positive*
G04*
G01*
G75*
%ADD69C,0.0020*%
%ADD70C,0.0027*%
D69*
X018837Y018247D02*
Y018407D01*
X018997D01*
Y018247D01*
X018837D01*
X018837Y016475D02*
Y016636D01*
X018997D01*
Y016475D01*
X018837D01*
X027905Y017437D02*
X027825Y017597D01*
X027985D01*
X027905Y017437D01*
X031123Y020211D02*
X031043Y020371D01*
X031203D01*
X031123Y020211D01*
X033823D02*
X033743Y020371D01*
X033903D01*
X033823Y020211D01*
X033123D02*
X033043Y020371D01*
X033203D01*
X033123Y020211D01*
X032473D02*
X032393Y020371D01*
X032553D01*
X032473Y020211D01*
X031823D02*
X031743Y020371D01*
X031903D01*
X031823Y020211D01*
X029723Y014911D02*
X029643Y015071D01*
X029803D01*
X029723Y014911D01*
X022973Y017661D02*
X022893Y017821D01*
X023053D01*
X022973Y017661D01*
X022423Y017211D02*
X022343Y017371D01*
X022503D01*
X022423Y017211D01*
X033923Y016111D02*
X033843Y016271D01*
X034003D01*
X033923Y016111D01*
X034223Y015511D02*
X034143Y015671D01*
X034303D01*
X034223Y015511D01*
X033623Y016711D02*
X033543Y016871D01*
X033703D01*
X033623Y016711D01*
X033323Y014911D02*
X033243Y015071D01*
X033403D01*
X033323Y014911D01*
X032723Y016111D02*
X032643Y016271D01*
X032803D01*
X032723Y016111D01*
X033023Y015511D02*
X032943Y015671D01*
X033103D01*
X033023Y015511D01*
X032123Y019711D02*
X032043Y019871D01*
X032203D01*
X032123Y019711D01*
X032423Y017911D02*
X032343Y018071D01*
X032503D01*
X032423Y017911D01*
X032123Y017311D02*
X032043Y017471D01*
X032203D01*
X032123Y017311D01*
X032423Y016711D02*
X032343Y016871D01*
X032503D01*
X032423Y016711D01*
X032123Y014911D02*
X032043Y015071D01*
X032203D01*
X032123Y014911D01*
X031523Y019711D02*
X031443Y019871D01*
X031603D01*
X031523Y019711D01*
X031823Y019111D02*
X031743Y019271D01*
X031903D01*
X031823Y019111D01*
X031523Y016111D02*
X031443Y016271D01*
X031603D01*
X031523Y016111D01*
X031823Y015511D02*
X031743Y015671D01*
X031903D01*
X031823Y015511D01*
X031223Y019111D02*
X031143Y019271D01*
X031303D01*
X031223Y019111D01*
Y017911D02*
X031143Y018071D01*
X031303D01*
X031223Y017911D01*
Y016711D02*
X031143Y016871D01*
X031303D01*
X031223Y016711D01*
X030923Y014911D02*
X030843Y015071D01*
X031003D01*
X030923Y014911D01*
X030323Y017311D02*
X030243Y017471D01*
X030403D01*
X030323Y017311D01*
Y016111D02*
X030243Y016271D01*
X030403D01*
X030323Y016111D01*
X030623Y015511D02*
X030543Y015671D01*
X030703D01*
X030623Y015511D01*
X030023Y016711D02*
X029943Y016871D01*
X030103D01*
X030023Y016711D01*
X029423Y015511D02*
X029343Y015671D01*
X029503D01*
X029423Y015511D01*
X028523Y014911D02*
X028443Y015071D01*
X028603D01*
X028523Y014911D01*
X027923Y019711D02*
X027843Y019871D01*
X028003D01*
X027923Y019711D01*
X027623Y016711D02*
X027543Y016871D01*
X027703D01*
X027623Y016711D01*
X027023D02*
X026943Y016871D01*
X027103D01*
X027023Y016711D01*
X025523Y018511D02*
X025443Y018671D01*
X025603D01*
X025523Y018511D01*
X024623Y019111D02*
X024543Y019271D01*
X024703D01*
X024623Y019111D01*
X023123Y017311D02*
X023043Y017471D01*
X023203D01*
X023123Y017311D01*
X023423Y016711D02*
X023343Y016871D01*
X023503D01*
X023423Y016711D01*
X022223D02*
X022143Y016871D01*
X022303D01*
X022223Y016711D01*
X019523Y014911D02*
X019443Y015071D01*
X019603D01*
X019523Y014911D01*
X018923Y019711D02*
X018843Y019871D01*
X019003D01*
X018923Y019711D01*
X019223Y019111D02*
X019143Y019271D01*
X019303D01*
X019223Y019111D01*
X018923Y017311D02*
X018843Y017471D01*
X019003D01*
X018923Y017311D01*
Y014911D02*
X018843Y015071D01*
X019003D01*
X018923Y014911D01*
X018323D02*
X018243Y015071D01*
X018403D01*
X018323Y014911D01*
X020273Y014611D02*
X020193Y014771D01*
X020353D01*
X020273Y014611D01*
X021823Y017011D02*
X021743Y017171D01*
X021903D01*
X021823Y017011D01*
X022273Y018061D02*
X022193Y018221D01*
X022353D01*
X022273Y018061D01*
X021873Y017711D02*
X021793Y017871D01*
X021953D01*
X021873Y017711D01*
X024023Y018411D02*
X023943Y018571D01*
X024103D01*
X024023Y018411D01*
X024623Y017211D02*
X024543Y017371D01*
X024703D01*
X024623Y017211D01*
X024323Y016661D02*
X024243Y016821D01*
X024403D01*
X024323Y016661D01*
X020123Y016461D02*
X020043Y016621D01*
X020203D01*
X020123Y016461D01*
X019273Y017161D02*
X019193Y017321D01*
X019353D01*
X019273Y017161D01*
Y017561D02*
X019193Y017721D01*
X019353D01*
X019273Y017561D01*
X020123Y018261D02*
X020043Y018421D01*
X020203D01*
X020123Y018261D01*
X019723D02*
X019643Y018421D01*
X019803D01*
X019723Y018261D01*
X028423Y015811D02*
X028343Y015971D01*
X028503D01*
X028423Y015811D01*
X027373Y018511D02*
X027293Y018671D01*
X027453D01*
X027373Y018511D01*
X027723D02*
X027643Y018671D01*
X027803D01*
X027723Y018511D01*
X030773Y019561D02*
X030693Y019721D01*
X030853D01*
X030773Y019561D01*
X027623Y017661D02*
X027543Y017821D01*
X027703D01*
X027623Y017661D01*
X02835Y019961D02*
X02827Y020121D01*
X02843D01*
X02835Y019961D01*
X030173Y019938D02*
X030093Y020098D01*
X030253D01*
X030173Y019938D01*
X027623Y020261D02*
X027543Y020421D01*
X027703D01*
X027623Y020261D01*
X026523Y020011D02*
X026443Y020171D01*
X026603D01*
X026523Y020011D01*
X026923Y019535D02*
X026843Y019695D01*
X027003D01*
X026923Y019535D01*
X024773Y015861D02*
X024693Y016021D01*
X024853D01*
X024773Y015861D01*
X024823Y016361D02*
X024743Y016521D01*
X024903D01*
X024823Y016361D01*
X023973Y016611D02*
X023893Y016771D01*
X024053D01*
X023973Y016611D01*
X024573Y016861D02*
X024493Y017021D01*
X024653D01*
X024573Y016861D01*
X025664Y0177D02*
X025584Y01786D01*
X025744D01*
X025664Y0177D01*
X026123Y017111D02*
X026043Y017271D01*
X026203D01*
X026123Y017111D01*
X025523Y018111D02*
X025443Y018271D01*
X025603D01*
X025523Y018111D01*
X026473Y019461D02*
X026393Y019621D01*
X026553D01*
X026473Y019461D01*
X023273Y016361D02*
X023193Y016521D01*
X023353D01*
X023273Y016361D01*
X025457Y019511D02*
X025377Y019671D01*
X025537D01*
X025457Y019511D01*
X022673Y018411D02*
X022593Y018571D01*
X022753D01*
X022673Y018411D01*
X025623Y015311D02*
X025543Y015471D01*
X025703D01*
X025623Y015311D01*
X026573Y016261D02*
X026493Y016421D01*
X026653D01*
X026573Y016261D01*
X026473Y016761D02*
X026393Y016921D01*
X026553D01*
X026473Y016761D01*
X025623Y017161D02*
X025543Y017321D01*
X025703D01*
X025623Y017161D01*
X025173Y015461D02*
X025093Y015621D01*
X025253D01*
X025173Y015461D01*
X025223Y016761D02*
X025143Y016921D01*
X025303D01*
X025223Y016761D01*
X025923Y015611D02*
X025843Y015771D01*
X026003D01*
X025923Y015611D01*
X026273Y015961D02*
X026193Y016121D01*
X026353D01*
X026273Y015961D01*
X028223Y014711D02*
X028143Y014871D01*
X028303D01*
X028223Y014711D01*
X025473Y014661D02*
X025393Y014821D01*
X025553D01*
X025473Y014661D01*
X023423Y015511D02*
X023343Y015671D01*
X023503D01*
X023423Y015511D01*
X023107Y015011D02*
X023027Y015171D01*
X023187D01*
X023107Y015011D01*
X022573Y015846D02*
X022493Y016006D01*
X022653D01*
X022573Y015846D01*
X020823Y016961D02*
X020743Y017121D01*
X020903D01*
X020823Y016961D01*
X018523Y019511D02*
X018443Y019671D01*
X018603D01*
X018523Y019511D01*
X019573Y015461D02*
X019493Y015621D01*
X019653D01*
X019573Y015461D01*
X021456Y015037D02*
X021376Y015197D01*
X021536D01*
X021456Y015037D01*
X019842Y017755D02*
X019762Y017915D01*
X019922D01*
X019842Y017755D01*
X020023Y018611D02*
X019943Y018771D01*
X020103D01*
X020023Y018611D01*
Y018861D02*
X019943Y019021D01*
X020103D01*
X020023Y018861D01*
X020123Y019611D02*
X020043Y019771D01*
X020203D01*
X020123Y019611D01*
X021289Y018411D02*
X021209Y018571D01*
X021369D01*
X021289Y018411D01*
X019673Y015861D02*
X019593Y016021D01*
X019753D01*
X019673Y015861D01*
X020023D02*
X019943Y016021D01*
X020103D01*
X020023Y015861D01*
Y016111D02*
X019943Y016271D01*
X020103D01*
X020023Y016111D01*
X019673D02*
X019593Y016271D01*
X019753D01*
X019673Y016111D01*
Y018611D02*
X019593Y018771D01*
X019753D01*
X019673Y018611D01*
Y018861D02*
X019593Y019021D01*
X019753D01*
X019673Y018861D01*
X019842Y017018D02*
X019762Y017178D01*
X019922D01*
X019842Y017018D01*
X03549Y018247D02*
Y018407D01*
X03565D01*
Y018247D01*
X03549D01*
X03549Y016475D02*
Y016636D01*
X03565D01*
Y016475D01*
X03549D01*
X044559Y017437D02*
X044479Y017597D01*
X044639D01*
X044559Y017437D01*
X047776Y020211D02*
X047696Y020371D01*
X047856D01*
X047776Y020211D01*
X050476D02*
X050396Y020371D01*
X050556D01*
X050476Y020211D01*
X049776D02*
X049696Y020371D01*
X049856D01*
X049776Y020211D01*
X049126D02*
X049046Y020371D01*
X049206D01*
X049126Y020211D01*
X048476D02*
X048396Y020371D01*
X048556D01*
X048476Y020211D01*
X046376Y014911D02*
X046296Y015071D01*
X046456D01*
X046376Y014911D01*
X039626Y017661D02*
X039546Y017821D01*
X039706D01*
X039626Y017661D01*
X039076Y017211D02*
X038996Y017371D01*
X039156D01*
X039076Y017211D01*
X050576Y016111D02*
X050496Y016271D01*
X050656D01*
X050576Y016111D01*
X050876Y015511D02*
X050796Y015671D01*
X050956D01*
X050876Y015511D01*
X050276Y016711D02*
X050196Y016871D01*
X050356D01*
X050276Y016711D01*
X049976Y014911D02*
X049896Y015071D01*
X050056D01*
X049976Y014911D01*
X049376Y016111D02*
X049296Y016271D01*
X049456D01*
X049376Y016111D01*
X049676Y015511D02*
X049596Y015671D01*
X049756D01*
X049676Y015511D01*
X048776Y019711D02*
X048696Y019871D01*
X048856D01*
X048776Y019711D01*
X049076Y017911D02*
X048996Y018071D01*
X049156D01*
X049076Y017911D01*
X048776Y017311D02*
X048696Y017471D01*
X048856D01*
X048776Y017311D01*
X049076Y016711D02*
X048996Y016871D01*
X049156D01*
X049076Y016711D01*
X048776Y014911D02*
X048696Y015071D01*
X048856D01*
X048776Y014911D01*
X048176Y019711D02*
X048096Y019871D01*
X048256D01*
X048176Y019711D01*
X048476Y019111D02*
X048396Y019271D01*
X048556D01*
X048476Y019111D01*
X048176Y016111D02*
X048096Y016271D01*
X048256D01*
X048176Y016111D01*
X048476Y015511D02*
X048396Y015671D01*
X048556D01*
X048476Y015511D01*
X047876Y019111D02*
X047796Y019271D01*
X047956D01*
X047876Y019111D01*
Y017911D02*
X047796Y018071D01*
X047956D01*
X047876Y017911D01*
Y016711D02*
X047796Y016871D01*
X047956D01*
X047876Y016711D01*
X047576Y014911D02*
X047496Y015071D01*
X047656D01*
X047576Y014911D01*
X046976Y017311D02*
X046896Y017471D01*
X047056D01*
X046976Y017311D01*
Y016111D02*
X046896Y016271D01*
X047056D01*
X046976Y016111D01*
X047276Y015511D02*
X047196Y015671D01*
X047356D01*
X047276Y015511D01*
X046676Y016711D02*
X046596Y016871D01*
X046756D01*
X046676Y016711D01*
X046076Y015511D02*
X045996Y015671D01*
X046156D01*
X046076Y015511D01*
X045176Y014911D02*
X045096Y015071D01*
X045256D01*
X045176Y014911D01*
X044576Y019711D02*
X044496Y019871D01*
X044656D01*
X044576Y019711D01*
X044276Y016711D02*
X044196Y016871D01*
X044356D01*
X044276Y016711D01*
X043676D02*
X043596Y016871D01*
X043756D01*
X043676Y016711D01*
X042176Y018511D02*
X042096Y018671D01*
X042256D01*
X042176Y018511D01*
X041276Y019111D02*
X041196Y019271D01*
X041356D01*
X041276Y019111D01*
X039776Y017311D02*
X039696Y017471D01*
X039856D01*
X039776Y017311D01*
X040076Y016711D02*
X039996Y016871D01*
X040156D01*
X040076Y016711D01*
X038876D02*
X038796Y016871D01*
X038956D01*
X038876Y016711D01*
X036176Y014911D02*
X036096Y015071D01*
X036256D01*
X036176Y014911D01*
X035576Y019711D02*
X035496Y019871D01*
X035656D01*
X035576Y019711D01*
X035876Y019111D02*
X035796Y019271D01*
X035956D01*
X035876Y019111D01*
X035576Y017311D02*
X035496Y017471D01*
X035656D01*
X035576Y017311D01*
Y014911D02*
X035496Y015071D01*
X035656D01*
X035576Y014911D01*
X034976D02*
X034896Y015071D01*
X035056D01*
X034976Y014911D01*
X036926Y014611D02*
X036846Y014771D01*
X037006D01*
X036926Y014611D01*
X038476Y017011D02*
X038396Y017171D01*
X038556D01*
X038476Y017011D01*
X038926Y018061D02*
X038846Y018221D01*
X039006D01*
X038926Y018061D01*
X038526Y017711D02*
X038446Y017871D01*
X038606D01*
X038526Y017711D01*
X040676Y018411D02*
X040596Y018571D01*
X040756D01*
X040676Y018411D01*
X041276Y017211D02*
X041196Y017371D01*
X041356D01*
X041276Y017211D01*
X040976Y016661D02*
X040896Y016821D01*
X041056D01*
X040976Y016661D01*
X036776Y016461D02*
X036696Y016621D01*
X036856D01*
X036776Y016461D01*
X035926Y017161D02*
X035846Y017321D01*
X036006D01*
X035926Y017161D01*
Y017561D02*
X035846Y017721D01*
X036006D01*
X035926Y017561D01*
X036776Y018261D02*
X036696Y018421D01*
X036856D01*
X036776Y018261D01*
X036376D02*
X036296Y018421D01*
X036456D01*
X036376Y018261D01*
X045076Y015811D02*
X044996Y015971D01*
X045156D01*
X045076Y015811D01*
X044026Y018511D02*
X043946Y018671D01*
X044106D01*
X044026Y018511D01*
X044376D02*
X044296Y018671D01*
X044456D01*
X044376Y018511D01*
X047426Y019561D02*
X047346Y019721D01*
X047506D01*
X047426Y019561D01*
X044276Y017661D02*
X044196Y017821D01*
X044356D01*
X044276Y017661D01*
X045003Y019961D02*
X044923Y020121D01*
X045083D01*
X045003Y019961D01*
X046826Y019938D02*
X046746Y020098D01*
X046906D01*
X046826Y019938D01*
X044276Y020261D02*
X044196Y020421D01*
X044356D01*
X044276Y020261D01*
X043176Y020011D02*
X043096Y020171D01*
X043256D01*
X043176Y020011D01*
X043576Y019535D02*
X043496Y019695D01*
X043656D01*
X043576Y019535D01*
X041426Y015861D02*
X041346Y016021D01*
X041506D01*
X041426Y015861D01*
X041476Y016361D02*
X041396Y016521D01*
X041556D01*
X041476Y016361D01*
X040626Y016611D02*
X040546Y016771D01*
X040706D01*
X040626Y016611D01*
X041226Y016861D02*
X041146Y017021D01*
X041306D01*
X041226Y016861D01*
X042318Y0177D02*
X042238Y01786D01*
X042398D01*
X042318Y0177D01*
X042776Y017111D02*
X042696Y017271D01*
X042856D01*
X042776Y017111D01*
X042176Y018111D02*
X042096Y018271D01*
X042256D01*
X042176Y018111D01*
X043126Y019461D02*
X043046Y019621D01*
X043206D01*
X043126Y019461D01*
X039926Y016361D02*
X039846Y016521D01*
X040006D01*
X039926Y016361D01*
X042111Y019511D02*
X042031Y019671D01*
X042191D01*
X042111Y019511D01*
X039326Y018411D02*
X039246Y018571D01*
X039406D01*
X039326Y018411D01*
X042276Y015311D02*
X042196Y015471D01*
X042356D01*
X042276Y015311D01*
X043226Y016261D02*
X043146Y016421D01*
X043306D01*
X043226Y016261D01*
X043126Y016761D02*
X043046Y016921D01*
X043206D01*
X043126Y016761D01*
X042276Y017161D02*
X042196Y017321D01*
X042356D01*
X042276Y017161D01*
X041826Y015461D02*
X041746Y015621D01*
X041906D01*
X041826Y015461D01*
X041876Y016761D02*
X041796Y016921D01*
X041956D01*
X041876Y016761D01*
X042576Y015611D02*
X042496Y015771D01*
X042656D01*
X042576Y015611D01*
X042926Y015961D02*
X042846Y016121D01*
X043006D01*
X042926Y015961D01*
X044876Y014711D02*
X044796Y014871D01*
X044956D01*
X044876Y014711D01*
X042126Y014661D02*
X042046Y014821D01*
X042206D01*
X042126Y014661D01*
X040076Y015511D02*
X039996Y015671D01*
X040156D01*
X040076Y015511D01*
X039761Y015011D02*
X039681Y015171D01*
X039841D01*
X039761Y015011D01*
X039226Y015846D02*
X039146Y016006D01*
X039306D01*
X039226Y015846D01*
X037476Y016961D02*
X037396Y017121D01*
X037556D01*
X037476Y016961D01*
X035176Y019511D02*
X035096Y019671D01*
X035256D01*
X035176Y019511D01*
X036226Y015461D02*
X036146Y015621D01*
X036306D01*
X036226Y015461D01*
X03811Y015037D02*
X03803Y015197D01*
X03819D01*
X03811Y015037D01*
X036495Y017755D02*
X036415Y017915D01*
X036575D01*
X036495Y017755D01*
X036676Y018611D02*
X036596Y018771D01*
X036756D01*
X036676Y018611D01*
Y018861D02*
X036596Y019021D01*
X036756D01*
X036676Y018861D01*
X036776Y019611D02*
X036696Y019771D01*
X036856D01*
X036776Y019611D01*
X037942Y018411D02*
X037862Y018571D01*
X038022D01*
X037942Y018411D01*
X036326Y015861D02*
X036246Y016021D01*
X036406D01*
X036326Y015861D01*
X036676D02*
X036596Y016021D01*
X036756D01*
X036676Y015861D01*
Y016111D02*
X036596Y016271D01*
X036756D01*
X036676Y016111D01*
X036326D02*
X036246Y016271D01*
X036406D01*
X036326Y016111D01*
Y018611D02*
X036246Y018771D01*
X036406D01*
X036326Y018611D01*
Y018861D02*
X036246Y019021D01*
X036406D01*
X036326Y018861D01*
X036495Y017018D02*
X036415Y017178D01*
X036575D01*
X036495Y017018D01*
X018837Y024468D02*
Y024628D01*
X018997D01*
Y024468D01*
X018837D01*
X018837Y022696D02*
Y022856D01*
X018997D01*
Y022696D01*
X018837D01*
X027905Y023658D02*
X027825Y023818D01*
X027985D01*
X027905Y023658D01*
X031123Y026432D02*
X031043Y026592D01*
X031203D01*
X031123Y026432D01*
X033823D02*
X033743Y026592D01*
X033903D01*
X033823Y026432D01*
X033123D02*
X033043Y026592D01*
X033203D01*
X033123Y026432D01*
X032473D02*
X032393Y026592D01*
X032553D01*
X032473Y026432D01*
X031823D02*
X031743Y026592D01*
X031903D01*
X031823Y026432D01*
X029723Y021132D02*
X029643Y021292D01*
X029803D01*
X029723Y021132D01*
X022973Y023882D02*
X022893Y024042D01*
X023053D01*
X022973Y023882D01*
X022423Y023432D02*
X022343Y023592D01*
X022503D01*
X022423Y023432D01*
X033923Y022332D02*
X033843Y022492D01*
X034003D01*
X033923Y022332D01*
X034223Y021732D02*
X034143Y021892D01*
X034303D01*
X034223Y021732D01*
X033623Y022932D02*
X033543Y023092D01*
X033703D01*
X033623Y022932D01*
X033323Y021132D02*
X033243Y021292D01*
X033403D01*
X033323Y021132D01*
X032723Y022332D02*
X032643Y022492D01*
X032803D01*
X032723Y022332D01*
X033023Y021732D02*
X032943Y021892D01*
X033103D01*
X033023Y021732D01*
X032123Y025932D02*
X032043Y026092D01*
X032203D01*
X032123Y025932D01*
X032423Y024132D02*
X032343Y024292D01*
X032503D01*
X032423Y024132D01*
X032123Y023532D02*
X032043Y023692D01*
X032203D01*
X032123Y023532D01*
X032423Y022932D02*
X032343Y023092D01*
X032503D01*
X032423Y022932D01*
X032123Y021132D02*
X032043Y021292D01*
X032203D01*
X032123Y021132D01*
X031523Y025932D02*
X031443Y026092D01*
X031603D01*
X031523Y025932D01*
X031823Y025332D02*
X031743Y025492D01*
X031903D01*
X031823Y025332D01*
X031523Y022332D02*
X031443Y022492D01*
X031603D01*
X031523Y022332D01*
X031823Y021732D02*
X031743Y021892D01*
X031903D01*
X031823Y021732D01*
X031223Y025332D02*
X031143Y025492D01*
X031303D01*
X031223Y025332D01*
Y024132D02*
X031143Y024292D01*
X031303D01*
X031223Y024132D01*
Y022932D02*
X031143Y023092D01*
X031303D01*
X031223Y022932D01*
X030923Y021132D02*
X030843Y021292D01*
X031003D01*
X030923Y021132D01*
X030323Y023532D02*
X030243Y023692D01*
X030403D01*
X030323Y023532D01*
Y022332D02*
X030243Y022492D01*
X030403D01*
X030323Y022332D01*
X030623Y021732D02*
X030543Y021892D01*
X030703D01*
X030623Y021732D01*
X030023Y022932D02*
X029943Y023092D01*
X030103D01*
X030023Y022932D01*
X029423Y021732D02*
X029343Y021892D01*
X029503D01*
X029423Y021732D01*
X028523Y021132D02*
X028443Y021292D01*
X028603D01*
X028523Y021132D01*
X027923Y025932D02*
X027843Y026092D01*
X028003D01*
X027923Y025932D01*
X027623Y022932D02*
X027543Y023092D01*
X027703D01*
X027623Y022932D01*
X027023D02*
X026943Y023092D01*
X027103D01*
X027023Y022932D01*
X025523Y024732D02*
X025443Y024892D01*
X025603D01*
X025523Y024732D01*
X024623Y025332D02*
X024543Y025492D01*
X024703D01*
X024623Y025332D01*
X023123Y023532D02*
X023043Y023692D01*
X023203D01*
X023123Y023532D01*
X023423Y022932D02*
X023343Y023092D01*
X023503D01*
X023423Y022932D01*
X022223D02*
X022143Y023092D01*
X022303D01*
X022223Y022932D01*
X019523Y021132D02*
X019443Y021292D01*
X019603D01*
X019523Y021132D01*
X018923Y025932D02*
X018843Y026092D01*
X019003D01*
X018923Y025932D01*
X019223Y025332D02*
X019143Y025492D01*
X019303D01*
X019223Y025332D01*
X018923Y023532D02*
X018843Y023692D01*
X019003D01*
X018923Y023532D01*
Y021132D02*
X018843Y021292D01*
X019003D01*
X018923Y021132D01*
X018323D02*
X018243Y021292D01*
X018403D01*
X018323Y021132D01*
X020273Y020832D02*
X020193Y020992D01*
X020353D01*
X020273Y020832D01*
X021823Y023232D02*
X021743Y023392D01*
X021903D01*
X021823Y023232D01*
X022273Y024282D02*
X022193Y024442D01*
X022353D01*
X022273Y024282D01*
X021873Y023932D02*
X021793Y024092D01*
X021953D01*
X021873Y023932D01*
X024023Y024632D02*
X023943Y024792D01*
X024103D01*
X024023Y024632D01*
X024623Y023432D02*
X024543Y023592D01*
X024703D01*
X024623Y023432D01*
X024323Y022882D02*
X024243Y023042D01*
X024403D01*
X024323Y022882D01*
X020123Y022682D02*
X020043Y022842D01*
X020203D01*
X020123Y022682D01*
X019273Y023382D02*
X019193Y023542D01*
X019353D01*
X019273Y023382D01*
Y023782D02*
X019193Y023942D01*
X019353D01*
X019273Y023782D01*
X020123Y024482D02*
X020043Y024642D01*
X020203D01*
X020123Y024482D01*
X019723D02*
X019643Y024642D01*
X019803D01*
X019723Y024482D01*
X028423Y022032D02*
X028343Y022192D01*
X028503D01*
X028423Y022032D01*
X027373Y024732D02*
X027293Y024892D01*
X027453D01*
X027373Y024732D01*
X027723D02*
X027643Y024892D01*
X027803D01*
X027723Y024732D01*
X030773Y025782D02*
X030693Y025942D01*
X030853D01*
X030773Y025782D01*
X027623Y023882D02*
X027543Y024042D01*
X027703D01*
X027623Y023882D01*
X02835Y026182D02*
X02827Y026342D01*
X02843D01*
X02835Y026182D01*
X030173Y026158D02*
X030093Y026318D01*
X030253D01*
X030173Y026158D01*
X027623Y026482D02*
X027543Y026642D01*
X027703D01*
X027623Y026482D01*
X026523Y026232D02*
X026443Y026392D01*
X026603D01*
X026523Y026232D01*
X026923Y025755D02*
X026843Y025915D01*
X027003D01*
X026923Y025755D01*
X024773Y022082D02*
X024693Y022242D01*
X024853D01*
X024773Y022082D01*
X024823Y022582D02*
X024743Y022742D01*
X024903D01*
X024823Y022582D01*
X023973Y022832D02*
X023893Y022992D01*
X024053D01*
X023973Y022832D01*
X024573Y023082D02*
X024493Y023242D01*
X024653D01*
X024573Y023082D01*
X025664Y02392D02*
X025584Y02408D01*
X025744D01*
X025664Y02392D01*
X026123Y023332D02*
X026043Y023492D01*
X026203D01*
X026123Y023332D01*
X025523Y024332D02*
X025443Y024492D01*
X025603D01*
X025523Y024332D01*
X026473Y025682D02*
X026393Y025842D01*
X026553D01*
X026473Y025682D01*
X023273Y022582D02*
X023193Y022742D01*
X023353D01*
X023273Y022582D01*
X025457Y025732D02*
X025377Y025892D01*
X025537D01*
X025457Y025732D01*
X022673Y024632D02*
X022593Y024792D01*
X022753D01*
X022673Y024632D01*
X025623Y021532D02*
X025543Y021692D01*
X025703D01*
X025623Y021532D01*
X026573Y022482D02*
X026493Y022642D01*
X026653D01*
X026573Y022482D01*
X026473Y022982D02*
X026393Y023142D01*
X026553D01*
X026473Y022982D01*
X025623Y023382D02*
X025543Y023542D01*
X025703D01*
X025623Y023382D01*
X025173Y021682D02*
X025093Y021842D01*
X025253D01*
X025173Y021682D01*
X025223Y022982D02*
X025143Y023142D01*
X025303D01*
X025223Y022982D01*
X025923Y021832D02*
X025843Y021992D01*
X026003D01*
X025923Y021832D01*
X026273Y022182D02*
X026193Y022342D01*
X026353D01*
X026273Y022182D01*
X028223Y020932D02*
X028143Y021092D01*
X028303D01*
X028223Y020932D01*
X025473Y020882D02*
X025393Y021042D01*
X025553D01*
X025473Y020882D01*
X023423Y021732D02*
X023343Y021892D01*
X023503D01*
X023423Y021732D01*
X023107Y021232D02*
X023027Y021392D01*
X023187D01*
X023107Y021232D01*
X022573Y022066D02*
X022493Y022226D01*
X022653D01*
X022573Y022066D01*
X020823Y023182D02*
X020743Y023342D01*
X020903D01*
X020823Y023182D01*
X018523Y025732D02*
X018443Y025892D01*
X018603D01*
X018523Y025732D01*
X019573Y021682D02*
X019493Y021842D01*
X019653D01*
X019573Y021682D01*
X021456Y021258D02*
X021376Y021418D01*
X021536D01*
X021456Y021258D01*
X019842Y023976D02*
X019762Y024135D01*
X019922D01*
X019842Y023976D01*
X020023Y024832D02*
X019943Y024992D01*
X020103D01*
X020023Y024832D01*
Y025082D02*
X019943Y025242D01*
X020103D01*
X020023Y025082D01*
X020123Y025832D02*
X020043Y025992D01*
X020203D01*
X020123Y025832D01*
X021289Y024632D02*
X021209Y024792D01*
X021369D01*
X021289Y024632D01*
X019673Y022082D02*
X019593Y022242D01*
X019753D01*
X019673Y022082D01*
X020023D02*
X019943Y022242D01*
X020103D01*
X020023Y022082D01*
Y022332D02*
X019943Y022492D01*
X020103D01*
X020023Y022332D01*
X019673D02*
X019593Y022492D01*
X019753D01*
X019673Y022332D01*
Y024832D02*
X019593Y024992D01*
X019753D01*
X019673Y024832D01*
Y025082D02*
X019593Y025242D01*
X019753D01*
X019673Y025082D01*
X019842Y023238D02*
X019762Y023398D01*
X019922D01*
X019842Y023238D01*
X03549Y024468D02*
Y024628D01*
X03565D01*
Y024468D01*
X03549D01*
X03549Y022696D02*
Y022856D01*
X03565D01*
Y022696D01*
X03549D01*
X044559Y023658D02*
X044479Y023818D01*
X044639D01*
X044559Y023658D01*
X047776Y026432D02*
X047696Y026592D01*
X047856D01*
X047776Y026432D01*
X050476D02*
X050396Y026592D01*
X050556D01*
X050476Y026432D01*
X049776D02*
X049696Y026592D01*
X049856D01*
X049776Y026432D01*
X049126D02*
X049046Y026592D01*
X049206D01*
X049126Y026432D01*
X048476D02*
X048396Y026592D01*
X048556D01*
X048476Y026432D01*
X046376Y021132D02*
X046296Y021292D01*
X046456D01*
X046376Y021132D01*
X039626Y023882D02*
X039546Y024042D01*
X039706D01*
X039626Y023882D01*
X039076Y023432D02*
X038996Y023592D01*
X039156D01*
X039076Y023432D01*
X050576Y022332D02*
X050496Y022492D01*
X050656D01*
X050576Y022332D01*
X050876Y021732D02*
X050796Y021892D01*
X050956D01*
X050876Y021732D01*
X050276Y022932D02*
X050196Y023092D01*
X050356D01*
X050276Y022932D01*
X049976Y021132D02*
X049896Y021292D01*
X050056D01*
X049976Y021132D01*
X049376Y022332D02*
X049296Y022492D01*
X049456D01*
X049376Y022332D01*
X049676Y021732D02*
X049596Y021892D01*
X049756D01*
X049676Y021732D01*
X048776Y025932D02*
X048696Y026092D01*
X048856D01*
X048776Y025932D01*
X049076Y024132D02*
X048996Y024292D01*
X049156D01*
X049076Y024132D01*
X048776Y023532D02*
X048696Y023692D01*
X048856D01*
X048776Y023532D01*
X049076Y022932D02*
X048996Y023092D01*
X049156D01*
X049076Y022932D01*
X048776Y021132D02*
X048696Y021292D01*
X048856D01*
X048776Y021132D01*
X048176Y025932D02*
X048096Y026092D01*
X048256D01*
X048176Y025932D01*
X048476Y025332D02*
X048396Y025492D01*
X048556D01*
X048476Y025332D01*
X048176Y022332D02*
X048096Y022492D01*
X048256D01*
X048176Y022332D01*
X048476Y021732D02*
X048396Y021892D01*
X048556D01*
X048476Y021732D01*
X047876Y025332D02*
X047796Y025492D01*
X047956D01*
X047876Y025332D01*
Y024132D02*
X047796Y024292D01*
X047956D01*
X047876Y024132D01*
Y022932D02*
X047796Y023092D01*
X047956D01*
X047876Y022932D01*
X047576Y021132D02*
X047496Y021292D01*
X047656D01*
X047576Y021132D01*
X046976Y023532D02*
X046896Y023692D01*
X047056D01*
X046976Y023532D01*
Y022332D02*
X046896Y022492D01*
X047056D01*
X046976Y022332D01*
X047276Y021732D02*
X047196Y021892D01*
X047356D01*
X047276Y021732D01*
X046676Y022932D02*
X046596Y023092D01*
X046756D01*
X046676Y022932D01*
X046076Y021732D02*
X045996Y021892D01*
X046156D01*
X046076Y021732D01*
X045176Y021132D02*
X045096Y021292D01*
X045256D01*
X045176Y021132D01*
X044576Y025932D02*
X044496Y026092D01*
X044656D01*
X044576Y025932D01*
X044276Y022932D02*
X044196Y023092D01*
X044356D01*
X044276Y022932D01*
X043676D02*
X043596Y023092D01*
X043756D01*
X043676Y022932D01*
X042176Y024732D02*
X042096Y024892D01*
X042256D01*
X042176Y024732D01*
X041276Y025332D02*
X041196Y025492D01*
X041356D01*
X041276Y025332D01*
X039776Y023532D02*
X039696Y023692D01*
X039856D01*
X039776Y023532D01*
X040076Y022932D02*
X039996Y023092D01*
X040156D01*
X040076Y022932D01*
X038876D02*
X038796Y023092D01*
X038956D01*
X038876Y022932D01*
X036176Y021132D02*
X036096Y021292D01*
X036256D01*
X036176Y021132D01*
X035576Y025932D02*
X035496Y026092D01*
X035656D01*
X035576Y025932D01*
X035876Y025332D02*
X035796Y025492D01*
X035956D01*
X035876Y025332D01*
X035576Y023532D02*
X035496Y023692D01*
X035656D01*
X035576Y023532D01*
Y021132D02*
X035496Y021292D01*
X035656D01*
X035576Y021132D01*
X034976D02*
X034896Y021292D01*
X035056D01*
X034976Y021132D01*
X036926Y020832D02*
X036846Y020992D01*
X037006D01*
X036926Y020832D01*
X038476Y023232D02*
X038396Y023392D01*
X038556D01*
X038476Y023232D01*
X038926Y024282D02*
X038846Y024442D01*
X039006D01*
X038926Y024282D01*
X038526Y023932D02*
X038446Y024092D01*
X038606D01*
X038526Y023932D01*
X040676Y024632D02*
X040596Y024792D01*
X040756D01*
X040676Y024632D01*
X041276Y023432D02*
X041196Y023592D01*
X041356D01*
X041276Y023432D01*
X040976Y022882D02*
X040896Y023042D01*
X041056D01*
X040976Y022882D01*
X036776Y022682D02*
X036696Y022842D01*
X036856D01*
X036776Y022682D01*
X035926Y023382D02*
X035846Y023542D01*
X036006D01*
X035926Y023382D01*
Y023782D02*
X035846Y023942D01*
X036006D01*
X035926Y023782D01*
X036776Y024482D02*
X036696Y024642D01*
X036856D01*
X036776Y024482D01*
X036376D02*
X036296Y024642D01*
X036456D01*
X036376Y024482D01*
X045076Y022032D02*
X044996Y022192D01*
X045156D01*
X045076Y022032D01*
X044026Y024732D02*
X043946Y024892D01*
X044106D01*
X044026Y024732D01*
X044376D02*
X044296Y024892D01*
X044456D01*
X044376Y024732D01*
X047426Y025782D02*
X047346Y025942D01*
X047506D01*
X047426Y025782D01*
X044276Y023882D02*
X044196Y024042D01*
X044356D01*
X044276Y023882D01*
X045003Y026182D02*
X044923Y026342D01*
X045083D01*
X045003Y026182D01*
X046826Y026158D02*
X046746Y026318D01*
X046906D01*
X046826Y026158D01*
X044276Y026482D02*
X044196Y026642D01*
X044356D01*
X044276Y026482D01*
X043176Y026232D02*
X043096Y026392D01*
X043256D01*
X043176Y026232D01*
X043576Y025755D02*
X043496Y025915D01*
X043656D01*
X043576Y025755D01*
X041426Y022082D02*
X041346Y022242D01*
X041506D01*
X041426Y022082D01*
X041476Y022582D02*
X041396Y022742D01*
X041556D01*
X041476Y022582D01*
X040626Y022832D02*
X040546Y022992D01*
X040706D01*
X040626Y022832D01*
X041226Y023082D02*
X041146Y023242D01*
X041306D01*
X041226Y023082D01*
X042318Y02392D02*
X042238Y02408D01*
X042398D01*
X042318Y02392D01*
X042776Y023332D02*
X042696Y023492D01*
X042856D01*
X042776Y023332D01*
X042176Y024332D02*
X042096Y024492D01*
X042256D01*
X042176Y024332D01*
X043126Y025682D02*
X043046Y025842D01*
X043206D01*
X043126Y025682D01*
X039926Y022582D02*
X039846Y022742D01*
X040006D01*
X039926Y022582D01*
X042111Y025732D02*
X042031Y025892D01*
X042191D01*
X042111Y025732D01*
X039326Y024632D02*
X039246Y024792D01*
X039406D01*
X039326Y024632D01*
X042276Y021532D02*
X042196Y021692D01*
X042356D01*
X042276Y021532D01*
X043226Y022482D02*
X043146Y022642D01*
X043306D01*
X043226Y022482D01*
X043126Y022982D02*
X043046Y023142D01*
X043206D01*
X043126Y022982D01*
X042276Y023382D02*
X042196Y023542D01*
X042356D01*
X042276Y023382D01*
X041826Y021682D02*
X041746Y021842D01*
X041906D01*
X041826Y021682D01*
X041876Y022982D02*
X041796Y023142D01*
X041956D01*
X041876Y022982D01*
X042576Y021832D02*
X042496Y021992D01*
X042656D01*
X042576Y021832D01*
X042926Y022182D02*
X042846Y022342D01*
X043006D01*
X042926Y022182D01*
X044876Y020932D02*
X044796Y021092D01*
X044956D01*
X044876Y020932D01*
X042126Y020882D02*
X042046Y021042D01*
X042206D01*
X042126Y020882D01*
X040076Y021732D02*
X039996Y021892D01*
X040156D01*
X040076Y021732D01*
X039761Y021232D02*
X039681Y021392D01*
X039841D01*
X039761Y021232D01*
X039226Y022066D02*
X039146Y022226D01*
X039306D01*
X039226Y022066D01*
X037476Y023182D02*
X037396Y023342D01*
X037556D01*
X037476Y023182D01*
X035176Y025732D02*
X035096Y025892D01*
X035256D01*
X035176Y025732D01*
X036226Y021682D02*
X036146Y021842D01*
X036306D01*
X036226Y021682D01*
X03811Y021258D02*
X03803Y021418D01*
X03819D01*
X03811Y021258D01*
X036495Y023976D02*
X036415Y024135D01*
X036575D01*
X036495Y023976D01*
X036676Y024832D02*
X036596Y024992D01*
X036756D01*
X036676Y024832D01*
Y025082D02*
X036596Y025242D01*
X036756D01*
X036676Y025082D01*
X036776Y025832D02*
X036696Y025992D01*
X036856D01*
X036776Y025832D01*
X037942Y024632D02*
X037862Y024792D01*
X038022D01*
X037942Y024632D01*
X036326Y022082D02*
X036246Y022242D01*
X036406D01*
X036326Y022082D01*
X036676D02*
X036596Y022242D01*
X036756D01*
X036676Y022082D01*
Y022332D02*
X036596Y022492D01*
X036756D01*
X036676Y022332D01*
X036326D02*
X036246Y022492D01*
X036406D01*
X036326Y022332D01*
Y024832D02*
X036246Y024992D01*
X036406D01*
X036326Y024832D01*
Y025082D02*
X036246Y025242D01*
X036406D01*
X036326Y025082D01*
X036495Y023238D02*
X036415Y023398D01*
X036575D01*
X036495Y023238D01*
X018837Y030688D02*
Y030848D01*
X018997D01*
Y030688D01*
X018837D01*
X018837Y028916D02*
Y029076D01*
X018997D01*
Y028916D01*
X018837D01*
X027905Y029878D02*
X027825Y030038D01*
X027985D01*
X027905Y029878D01*
X031123Y032652D02*
X031043Y032812D01*
X031203D01*
X031123Y032652D01*
X033823D02*
X033743Y032812D01*
X033903D01*
X033823Y032652D01*
X033123D02*
X033043Y032812D01*
X033203D01*
X033123Y032652D01*
X032473D02*
X032393Y032812D01*
X032553D01*
X032473Y032652D01*
X031823D02*
X031743Y032812D01*
X031903D01*
X031823Y032652D01*
X029723Y027352D02*
X029643Y027512D01*
X029803D01*
X029723Y027352D01*
X022973Y030102D02*
X022893Y030262D01*
X023053D01*
X022973Y030102D01*
X022423Y029652D02*
X022343Y029812D01*
X022503D01*
X022423Y029652D01*
X033923Y028552D02*
X033843Y028712D01*
X034003D01*
X033923Y028552D01*
X034223Y027952D02*
X034143Y028112D01*
X034303D01*
X034223Y027952D01*
X033623Y029152D02*
X033543Y029312D01*
X033703D01*
X033623Y029152D01*
X033323Y027352D02*
X033243Y027512D01*
X033403D01*
X033323Y027352D01*
X032723Y028552D02*
X032643Y028712D01*
X032803D01*
X032723Y028552D01*
X033023Y027952D02*
X032943Y028112D01*
X033103D01*
X033023Y027952D01*
X032123Y032152D02*
X032043Y032312D01*
X032203D01*
X032123Y032152D01*
X032423Y030352D02*
X032343Y030512D01*
X032503D01*
X032423Y030352D01*
X032123Y029752D02*
X032043Y029912D01*
X032203D01*
X032123Y029752D01*
X032423Y029152D02*
X032343Y029312D01*
X032503D01*
X032423Y029152D01*
X032123Y027352D02*
X032043Y027512D01*
X032203D01*
X032123Y027352D01*
X031523Y032152D02*
X031443Y032312D01*
X031603D01*
X031523Y032152D01*
X031823Y031552D02*
X031743Y031712D01*
X031903D01*
X031823Y031552D01*
X031523Y028552D02*
X031443Y028712D01*
X031603D01*
X031523Y028552D01*
X031823Y027952D02*
X031743Y028112D01*
X031903D01*
X031823Y027952D01*
X031223Y031552D02*
X031143Y031712D01*
X031303D01*
X031223Y031552D01*
Y030352D02*
X031143Y030512D01*
X031303D01*
X031223Y030352D01*
Y029152D02*
X031143Y029312D01*
X031303D01*
X031223Y029152D01*
X030923Y027352D02*
X030843Y027512D01*
X031003D01*
X030923Y027352D01*
X030323Y029752D02*
X030243Y029912D01*
X030403D01*
X030323Y029752D01*
Y028552D02*
X030243Y028712D01*
X030403D01*
X030323Y028552D01*
X030623Y027952D02*
X030543Y028112D01*
X030703D01*
X030623Y027952D01*
X030023Y029152D02*
X029943Y029312D01*
X030103D01*
X030023Y029152D01*
X029423Y027952D02*
X029343Y028112D01*
X029503D01*
X029423Y027952D01*
X028523Y027352D02*
X028443Y027512D01*
X028603D01*
X028523Y027352D01*
X027923Y032152D02*
X027843Y032312D01*
X028003D01*
X027923Y032152D01*
X027623Y029152D02*
X027543Y029312D01*
X027703D01*
X027623Y029152D01*
X027023D02*
X026943Y029312D01*
X027103D01*
X027023Y029152D01*
X025523Y030952D02*
X025443Y031112D01*
X025603D01*
X025523Y030952D01*
X024623Y031552D02*
X024543Y031712D01*
X024703D01*
X024623Y031552D01*
X023123Y029752D02*
X023043Y029912D01*
X023203D01*
X023123Y029752D01*
X023423Y029152D02*
X023343Y029312D01*
X023503D01*
X023423Y029152D01*
X022223D02*
X022143Y029312D01*
X022303D01*
X022223Y029152D01*
X019523Y027352D02*
X019443Y027512D01*
X019603D01*
X019523Y027352D01*
X018923Y032152D02*
X018843Y032312D01*
X019003D01*
X018923Y032152D01*
X019223Y031552D02*
X019143Y031712D01*
X019303D01*
X019223Y031552D01*
X018923Y029752D02*
X018843Y029912D01*
X019003D01*
X018923Y029752D01*
Y027352D02*
X018843Y027512D01*
X019003D01*
X018923Y027352D01*
X018323D02*
X018243Y027512D01*
X018403D01*
X018323Y027352D01*
X020273Y027052D02*
X020193Y027212D01*
X020353D01*
X020273Y027052D01*
X021823Y029452D02*
X021743Y029612D01*
X021903D01*
X021823Y029452D01*
X022273Y030502D02*
X022193Y030662D01*
X022353D01*
X022273Y030502D01*
X021873Y030152D02*
X021793Y030312D01*
X021953D01*
X021873Y030152D01*
X024023Y030852D02*
X023943Y031012D01*
X024103D01*
X024023Y030852D01*
X024623Y029652D02*
X024543Y029812D01*
X024703D01*
X024623Y029652D01*
X024323Y029102D02*
X024243Y029262D01*
X024403D01*
X024323Y029102D01*
X020123Y028902D02*
X020043Y029062D01*
X020203D01*
X020123Y028902D01*
X019273Y029602D02*
X019193Y029762D01*
X019353D01*
X019273Y029602D01*
Y030002D02*
X019193Y030162D01*
X019353D01*
X019273Y030002D01*
X020123Y030702D02*
X020043Y030862D01*
X020203D01*
X020123Y030702D01*
X019723D02*
X019643Y030862D01*
X019803D01*
X019723Y030702D01*
X028423Y028252D02*
X028343Y028412D01*
X028503D01*
X028423Y028252D01*
X027373Y030952D02*
X027293Y031112D01*
X027453D01*
X027373Y030952D01*
X027723D02*
X027643Y031112D01*
X027803D01*
X027723Y030952D01*
X030773Y032002D02*
X030693Y032162D01*
X030853D01*
X030773Y032002D01*
X027623Y030102D02*
X027543Y030262D01*
X027703D01*
X027623Y030102D01*
X02835Y032402D02*
X02827Y032562D01*
X02843D01*
X02835Y032402D01*
X030173Y032379D02*
X030093Y032539D01*
X030253D01*
X030173Y032379D01*
X027623Y032702D02*
X027543Y032862D01*
X027703D01*
X027623Y032702D01*
X026523Y032452D02*
X026443Y032612D01*
X026603D01*
X026523Y032452D01*
X026923Y031976D02*
X026843Y032136D01*
X027003D01*
X026923Y031976D01*
X024773Y028302D02*
X024693Y028462D01*
X024853D01*
X024773Y028302D01*
X024823Y028802D02*
X024743Y028962D01*
X024903D01*
X024823Y028802D01*
X023973Y029052D02*
X023893Y029212D01*
X024053D01*
X023973Y029052D01*
X024573Y029302D02*
X024493Y029462D01*
X024653D01*
X024573Y029302D01*
X025664Y030141D02*
X025584Y030301D01*
X025744D01*
X025664Y030141D01*
X026123Y029552D02*
X026043Y029712D01*
X026203D01*
X026123Y029552D01*
X025523Y030552D02*
X025443Y030712D01*
X025603D01*
X025523Y030552D01*
X026473Y031902D02*
X026393Y032062D01*
X026553D01*
X026473Y031902D01*
X023273Y028802D02*
X023193Y028962D01*
X023353D01*
X023273Y028802D01*
X025457Y031952D02*
X025377Y032112D01*
X025537D01*
X025457Y031952D01*
X022673Y030852D02*
X022593Y031012D01*
X022753D01*
X022673Y030852D01*
X025623Y027752D02*
X025543Y027912D01*
X025703D01*
X025623Y027752D01*
X026573Y028702D02*
X026493Y028862D01*
X026653D01*
X026573Y028702D01*
X026473Y029202D02*
X026393Y029362D01*
X026553D01*
X026473Y029202D01*
X025623Y029602D02*
X025543Y029762D01*
X025703D01*
X025623Y029602D01*
X025173Y027902D02*
X025093Y028062D01*
X025253D01*
X025173Y027902D01*
X025223Y029202D02*
X025143Y029362D01*
X025303D01*
X025223Y029202D01*
X025923Y028052D02*
X025843Y028212D01*
X026003D01*
X025923Y028052D01*
X026273Y028402D02*
X026193Y028562D01*
X026353D01*
X026273Y028402D01*
X028223Y027152D02*
X028143Y027312D01*
X028303D01*
X028223Y027152D01*
X025473Y027102D02*
X025393Y027262D01*
X025553D01*
X025473Y027102D01*
X023423Y027952D02*
X023343Y028112D01*
X023503D01*
X023423Y027952D01*
X023107Y027452D02*
X023027Y027612D01*
X023187D01*
X023107Y027452D01*
X022573Y028287D02*
X022493Y028447D01*
X022653D01*
X022573Y028287D01*
X020823Y029402D02*
X020743Y029562D01*
X020903D01*
X020823Y029402D01*
X018523Y031952D02*
X018443Y032112D01*
X018603D01*
X018523Y031952D01*
X019573Y027902D02*
X019493Y028062D01*
X019653D01*
X019573Y027902D01*
X021456Y027478D02*
X021376Y027638D01*
X021536D01*
X021456Y027478D01*
X019842Y030196D02*
X019762Y030356D01*
X019922D01*
X019842Y030196D01*
X020023Y031052D02*
X019943Y031212D01*
X020103D01*
X020023Y031052D01*
Y031302D02*
X019943Y031462D01*
X020103D01*
X020023Y031302D01*
X020123Y032052D02*
X020043Y032212D01*
X020203D01*
X020123Y032052D01*
X021289Y030852D02*
X021209Y031012D01*
X021369D01*
X021289Y030852D01*
X019673Y028302D02*
X019593Y028462D01*
X019753D01*
X019673Y028302D01*
X020023D02*
X019943Y028462D01*
X020103D01*
X020023Y028302D01*
Y028552D02*
X019943Y028712D01*
X020103D01*
X020023Y028552D01*
X019673D02*
X019593Y028712D01*
X019753D01*
X019673Y028552D01*
Y031052D02*
X019593Y031212D01*
X019753D01*
X019673Y031052D01*
Y031302D02*
X019593Y031462D01*
X019753D01*
X019673Y031302D01*
X019842Y029459D02*
X019762Y029619D01*
X019922D01*
X019842Y029459D01*
X03549Y030688D02*
Y030848D01*
X03565D01*
Y030688D01*
X03549D01*
X03549Y028916D02*
Y029076D01*
X03565D01*
Y028916D01*
X03549D01*
X044559Y029878D02*
X044479Y030038D01*
X044639D01*
X044559Y029878D01*
X047776Y032652D02*
X047696Y032812D01*
X047856D01*
X047776Y032652D01*
X050476D02*
X050396Y032812D01*
X050556D01*
X050476Y032652D01*
X049776D02*
X049696Y032812D01*
X049856D01*
X049776Y032652D01*
X049126D02*
X049046Y032812D01*
X049206D01*
X049126Y032652D01*
X048476D02*
X048396Y032812D01*
X048556D01*
X048476Y032652D01*
X046376Y027352D02*
X046296Y027512D01*
X046456D01*
X046376Y027352D01*
X039626Y030102D02*
X039546Y030262D01*
X039706D01*
X039626Y030102D01*
X039076Y029652D02*
X038996Y029812D01*
X039156D01*
X039076Y029652D01*
X050576Y028552D02*
X050496Y028712D01*
X050656D01*
X050576Y028552D01*
X050876Y027952D02*
X050796Y028112D01*
X050956D01*
X050876Y027952D01*
X050276Y029152D02*
X050196Y029312D01*
X050356D01*
X050276Y029152D01*
X049976Y027352D02*
X049896Y027512D01*
X050056D01*
X049976Y027352D01*
X049376Y028552D02*
X049296Y028712D01*
X049456D01*
X049376Y028552D01*
X049676Y027952D02*
X049596Y028112D01*
X049756D01*
X049676Y027952D01*
X048776Y032152D02*
X048696Y032312D01*
X048856D01*
X048776Y032152D01*
X049076Y030352D02*
X048996Y030512D01*
X049156D01*
X049076Y030352D01*
X048776Y029752D02*
X048696Y029912D01*
X048856D01*
X048776Y029752D01*
X049076Y029152D02*
X048996Y029312D01*
X049156D01*
X049076Y029152D01*
X048776Y027352D02*
X048696Y027512D01*
X048856D01*
X048776Y027352D01*
X048176Y032152D02*
X048096Y032312D01*
X048256D01*
X048176Y032152D01*
X048476Y031552D02*
X048396Y031712D01*
X048556D01*
X048476Y031552D01*
X048176Y028552D02*
X048096Y028712D01*
X048256D01*
X048176Y028552D01*
X048476Y027952D02*
X048396Y028112D01*
X048556D01*
X048476Y027952D01*
X047876Y031552D02*
X047796Y031712D01*
X047956D01*
X047876Y031552D01*
Y030352D02*
X047796Y030512D01*
X047956D01*
X047876Y030352D01*
Y029152D02*
X047796Y029312D01*
X047956D01*
X047876Y029152D01*
X047576Y027352D02*
X047496Y027512D01*
X047656D01*
X047576Y027352D01*
X046976Y029752D02*
X046896Y029912D01*
X047056D01*
X046976Y029752D01*
Y028552D02*
X046896Y028712D01*
X047056D01*
X046976Y028552D01*
X047276Y027952D02*
X047196Y028112D01*
X047356D01*
X047276Y027952D01*
X046676Y029152D02*
X046596Y029312D01*
X046756D01*
X046676Y029152D01*
X046076Y027952D02*
X045996Y028112D01*
X046156D01*
X046076Y027952D01*
X045176Y027352D02*
X045096Y027512D01*
X045256D01*
X045176Y027352D01*
X044576Y032152D02*
X044496Y032312D01*
X044656D01*
X044576Y032152D01*
X044276Y029152D02*
X044196Y029312D01*
X044356D01*
X044276Y029152D01*
X043676D02*
X043596Y029312D01*
X043756D01*
X043676Y029152D01*
X042176Y030952D02*
X042096Y031112D01*
X042256D01*
X042176Y030952D01*
X041276Y031552D02*
X041196Y031712D01*
X041356D01*
X041276Y031552D01*
X039776Y029752D02*
X039696Y029912D01*
X039856D01*
X039776Y029752D01*
X040076Y029152D02*
X039996Y029312D01*
X040156D01*
X040076Y029152D01*
X038876D02*
X038796Y029312D01*
X038956D01*
X038876Y029152D01*
X036176Y027352D02*
X036096Y027512D01*
X036256D01*
X036176Y027352D01*
X035576Y032152D02*
X035496Y032312D01*
X035656D01*
X035576Y032152D01*
X035876Y031552D02*
X035796Y031712D01*
X035956D01*
X035876Y031552D01*
X035576Y029752D02*
X035496Y029912D01*
X035656D01*
X035576Y029752D01*
Y027352D02*
X035496Y027512D01*
X035656D01*
X035576Y027352D01*
X034976D02*
X034896Y027512D01*
X035056D01*
X034976Y027352D01*
X036926Y027052D02*
X036846Y027212D01*
X037006D01*
X036926Y027052D01*
X038476Y029452D02*
X038396Y029612D01*
X038556D01*
X038476Y029452D01*
X038926Y030502D02*
X038846Y030662D01*
X039006D01*
X038926Y030502D01*
X038526Y030152D02*
X038446Y030312D01*
X038606D01*
X038526Y030152D01*
X040676Y030852D02*
X040596Y031012D01*
X040756D01*
X040676Y030852D01*
X041276Y029652D02*
X041196Y029812D01*
X041356D01*
X041276Y029652D01*
X040976Y029102D02*
X040896Y029262D01*
X041056D01*
X040976Y029102D01*
X036776Y028902D02*
X036696Y029062D01*
X036856D01*
X036776Y028902D01*
X035926Y029602D02*
X035846Y029762D01*
X036006D01*
X035926Y029602D01*
Y030002D02*
X035846Y030162D01*
X036006D01*
X035926Y030002D01*
X036776Y030702D02*
X036696Y030862D01*
X036856D01*
X036776Y030702D01*
X036376D02*
X036296Y030862D01*
X036456D01*
X036376Y030702D01*
X045076Y028252D02*
X044996Y028412D01*
X045156D01*
X045076Y028252D01*
X044026Y030952D02*
X043946Y031112D01*
X044106D01*
X044026Y030952D01*
X044376D02*
X044296Y031112D01*
X044456D01*
X044376Y030952D01*
X047426Y032002D02*
X047346Y032162D01*
X047506D01*
X047426Y032002D01*
X044276Y030102D02*
X044196Y030262D01*
X044356D01*
X044276Y030102D01*
X045003Y032402D02*
X044923Y032562D01*
X045083D01*
X045003Y032402D01*
X046826Y032379D02*
X046746Y032539D01*
X046906D01*
X046826Y032379D01*
X044276Y032702D02*
X044196Y032862D01*
X044356D01*
X044276Y032702D01*
X043176Y032452D02*
X043096Y032612D01*
X043256D01*
X043176Y032452D01*
X043576Y031976D02*
X043496Y032136D01*
X043656D01*
X043576Y031976D01*
X041426Y028302D02*
X041346Y028462D01*
X041506D01*
X041426Y028302D01*
X041476Y028802D02*
X041396Y028962D01*
X041556D01*
X041476Y028802D01*
X040626Y029052D02*
X040546Y029212D01*
X040706D01*
X040626Y029052D01*
X041226Y029302D02*
X041146Y029462D01*
X041306D01*
X041226Y029302D01*
X042318Y030141D02*
X042238Y030301D01*
X042398D01*
X042318Y030141D01*
X042776Y029552D02*
X042696Y029712D01*
X042856D01*
X042776Y029552D01*
X042176Y030552D02*
X042096Y030712D01*
X042256D01*
X042176Y030552D01*
X043126Y031902D02*
X043046Y032062D01*
X043206D01*
X043126Y031902D01*
X039926Y028802D02*
X039846Y028962D01*
X040006D01*
X039926Y028802D01*
X042111Y031952D02*
X042031Y032112D01*
X042191D01*
X042111Y031952D01*
X039326Y030852D02*
X039246Y031012D01*
X039406D01*
X039326Y030852D01*
X042276Y027752D02*
X042196Y027912D01*
X042356D01*
X042276Y027752D01*
X043226Y028702D02*
X043146Y028862D01*
X043306D01*
X043226Y028702D01*
X043126Y029202D02*
X043046Y029362D01*
X043206D01*
X043126Y029202D01*
X042276Y029602D02*
X042196Y029762D01*
X042356D01*
X042276Y029602D01*
X041826Y027902D02*
X041746Y028062D01*
X041906D01*
X041826Y027902D01*
X041876Y029202D02*
X041796Y029362D01*
X041956D01*
X041876Y029202D01*
X042576Y028052D02*
X042496Y028212D01*
X042656D01*
X042576Y028052D01*
X042926Y028402D02*
X042846Y028562D01*
X043006D01*
X042926Y028402D01*
X044876Y027152D02*
X044796Y027312D01*
X044956D01*
X044876Y027152D01*
X042126Y027102D02*
X042046Y027262D01*
X042206D01*
X042126Y027102D01*
X040076Y027952D02*
X039996Y028112D01*
X040156D01*
X040076Y027952D01*
X039761Y027452D02*
X039681Y027612D01*
X039841D01*
X039761Y027452D01*
X039226Y028287D02*
X039146Y028447D01*
X039306D01*
X039226Y028287D01*
X037476Y029402D02*
X037396Y029562D01*
X037556D01*
X037476Y029402D01*
X035176Y031952D02*
X035096Y032112D01*
X035256D01*
X035176Y031952D01*
X036226Y027902D02*
X036146Y028062D01*
X036306D01*
X036226Y027902D01*
X03811Y027478D02*
X03803Y027638D01*
X03819D01*
X03811Y027478D01*
X036495Y030196D02*
X036415Y030356D01*
X036575D01*
X036495Y030196D01*
X036676Y031052D02*
X036596Y031212D01*
X036756D01*
X036676Y031052D01*
Y031302D02*
X036596Y031462D01*
X036756D01*
X036676Y031302D01*
X036776Y032052D02*
X036696Y032212D01*
X036856D01*
X036776Y032052D01*
X037942Y030852D02*
X037862Y031012D01*
X038022D01*
X037942Y030852D01*
X036326Y028302D02*
X036246Y028462D01*
X036406D01*
X036326Y028302D01*
X036676D02*
X036596Y028462D01*
X036756D01*
X036676Y028302D01*
Y028552D02*
X036596Y028712D01*
X036756D01*
X036676Y028552D01*
X036326D02*
X036246Y028712D01*
X036406D01*
X036326Y028552D01*
Y031052D02*
X036246Y031212D01*
X036406D01*
X036326Y031052D01*
Y031302D02*
X036246Y031462D01*
X036406D01*
X036326Y031302D01*
X036495Y029459D02*
X036415Y029619D01*
X036575D01*
X036495Y029459D01*
X018837Y036909D02*
Y037069D01*
X018997D01*
Y036909D01*
X018837D01*
X018837Y035137D02*
Y035297D01*
X018997D01*
Y035137D01*
X018837D01*
X027905Y036099D02*
X027825Y036259D01*
X027985D01*
X027905Y036099D01*
X031123Y038873D02*
X031043Y039033D01*
X031203D01*
X031123Y038873D01*
X033823D02*
X033743Y039033D01*
X033903D01*
X033823Y038873D01*
X033123D02*
X033043Y039033D01*
X033203D01*
X033123Y038873D01*
X032473D02*
X032393Y039033D01*
X032553D01*
X032473Y038873D01*
X031823D02*
X031743Y039033D01*
X031903D01*
X031823Y038873D01*
X029723Y033573D02*
X029643Y033733D01*
X029803D01*
X029723Y033573D01*
X022973Y036323D02*
X022893Y036483D01*
X023053D01*
X022973Y036323D01*
X022423Y035873D02*
X022343Y036033D01*
X022503D01*
X022423Y035873D01*
X033923Y034773D02*
X033843Y034933D01*
X034003D01*
X033923Y034773D01*
X034223Y034173D02*
X034143Y034333D01*
X034303D01*
X034223Y034173D01*
X033623Y035373D02*
X033543Y035533D01*
X033703D01*
X033623Y035373D01*
X033323Y033573D02*
X033243Y033733D01*
X033403D01*
X033323Y033573D01*
X032723Y034773D02*
X032643Y034933D01*
X032803D01*
X032723Y034773D01*
X033023Y034173D02*
X032943Y034333D01*
X033103D01*
X033023Y034173D01*
X032123Y038373D02*
X032043Y038533D01*
X032203D01*
X032123Y038373D01*
X032423Y036573D02*
X032343Y036733D01*
X032503D01*
X032423Y036573D01*
X032123Y035973D02*
X032043Y036133D01*
X032203D01*
X032123Y035973D01*
X032423Y035373D02*
X032343Y035533D01*
X032503D01*
X032423Y035373D01*
X032123Y033573D02*
X032043Y033733D01*
X032203D01*
X032123Y033573D01*
X031523Y038373D02*
X031443Y038533D01*
X031603D01*
X031523Y038373D01*
X031823Y037773D02*
X031743Y037933D01*
X031903D01*
X031823Y037773D01*
X031523Y034773D02*
X031443Y034933D01*
X031603D01*
X031523Y034773D01*
X031823Y034173D02*
X031743Y034333D01*
X031903D01*
X031823Y034173D01*
X031223Y037773D02*
X031143Y037933D01*
X031303D01*
X031223Y037773D01*
Y036573D02*
X031143Y036733D01*
X031303D01*
X031223Y036573D01*
Y035373D02*
X031143Y035533D01*
X031303D01*
X031223Y035373D01*
X030923Y033573D02*
X030843Y033733D01*
X031003D01*
X030923Y033573D01*
X030323Y035973D02*
X030243Y036133D01*
X030403D01*
X030323Y035973D01*
Y034773D02*
X030243Y034933D01*
X030403D01*
X030323Y034773D01*
X030623Y034173D02*
X030543Y034333D01*
X030703D01*
X030623Y034173D01*
X030023Y035373D02*
X029943Y035533D01*
X030103D01*
X030023Y035373D01*
X029423Y034173D02*
X029343Y034333D01*
X029503D01*
X029423Y034173D01*
X028523Y033573D02*
X028443Y033733D01*
X028603D01*
X028523Y033573D01*
X027923Y038373D02*
X027843Y038533D01*
X028003D01*
X027923Y038373D01*
X027623Y035373D02*
X027543Y035533D01*
X027703D01*
X027623Y035373D01*
X027023D02*
X026943Y035533D01*
X027103D01*
X027023Y035373D01*
X025523Y037173D02*
X025443Y037333D01*
X025603D01*
X025523Y037173D01*
X024623Y037773D02*
X024543Y037933D01*
X024703D01*
X024623Y037773D01*
X023123Y035973D02*
X023043Y036133D01*
X023203D01*
X023123Y035973D01*
X023423Y035373D02*
X023343Y035533D01*
X023503D01*
X023423Y035373D01*
X022223D02*
X022143Y035533D01*
X022303D01*
X022223Y035373D01*
X019523Y033573D02*
X019443Y033733D01*
X019603D01*
X019523Y033573D01*
X018923Y038373D02*
X018843Y038533D01*
X019003D01*
X018923Y038373D01*
X019223Y037773D02*
X019143Y037933D01*
X019303D01*
X019223Y037773D01*
X018923Y035973D02*
X018843Y036133D01*
X019003D01*
X018923Y035973D01*
Y033573D02*
X018843Y033733D01*
X019003D01*
X018923Y033573D01*
X018323D02*
X018243Y033733D01*
X018403D01*
X018323Y033573D01*
X020273Y033273D02*
X020193Y033433D01*
X020353D01*
X020273Y033273D01*
X021823Y035673D02*
X021743Y035833D01*
X021903D01*
X021823Y035673D01*
X022273Y036723D02*
X022193Y036883D01*
X022353D01*
X022273Y036723D01*
X021873Y036373D02*
X021793Y036533D01*
X021953D01*
X021873Y036373D01*
X024023Y037073D02*
X023943Y037233D01*
X024103D01*
X024023Y037073D01*
X024623Y035873D02*
X024543Y036033D01*
X024703D01*
X024623Y035873D01*
X024323Y035323D02*
X024243Y035483D01*
X024403D01*
X024323Y035323D01*
X020123Y035123D02*
X020043Y035283D01*
X020203D01*
X020123Y035123D01*
X019273Y035823D02*
X019193Y035983D01*
X019353D01*
X019273Y035823D01*
Y036223D02*
X019193Y036383D01*
X019353D01*
X019273Y036223D01*
X020123Y036923D02*
X020043Y037083D01*
X020203D01*
X020123Y036923D01*
X019723D02*
X019643Y037083D01*
X019803D01*
X019723Y036923D01*
X028423Y034473D02*
X028343Y034633D01*
X028503D01*
X028423Y034473D01*
X027373Y037173D02*
X027293Y037333D01*
X027453D01*
X027373Y037173D01*
X027723D02*
X027643Y037333D01*
X027803D01*
X027723Y037173D01*
X030773Y038223D02*
X030693Y038383D01*
X030853D01*
X030773Y038223D01*
X027623Y036323D02*
X027543Y036483D01*
X027703D01*
X027623Y036323D01*
X02835Y038623D02*
X02827Y038783D01*
X02843D01*
X02835Y038623D01*
X030173Y038599D02*
X030093Y038759D01*
X030253D01*
X030173Y038599D01*
X027623Y038923D02*
X027543Y039083D01*
X027703D01*
X027623Y038923D01*
X026523Y038673D02*
X026443Y038833D01*
X026603D01*
X026523Y038673D01*
X026923Y038196D02*
X026843Y038356D01*
X027003D01*
X026923Y038196D01*
X024773Y034523D02*
X024693Y034683D01*
X024853D01*
X024773Y034523D01*
X024823Y035023D02*
X024743Y035183D01*
X024903D01*
X024823Y035023D01*
X023973Y035273D02*
X023893Y035433D01*
X024053D01*
X023973Y035273D01*
X024573Y035523D02*
X024493Y035683D01*
X024653D01*
X024573Y035523D01*
X025664Y036361D02*
X025584Y036521D01*
X025744D01*
X025664Y036361D01*
X026123Y035773D02*
X026043Y035933D01*
X026203D01*
X026123Y035773D01*
X025523Y036773D02*
X025443Y036933D01*
X025603D01*
X025523Y036773D01*
X026473Y038123D02*
X026393Y038283D01*
X026553D01*
X026473Y038123D01*
X023273Y035023D02*
X023193Y035183D01*
X023353D01*
X023273Y035023D01*
X025457Y038173D02*
X025377Y038333D01*
X025537D01*
X025457Y038173D01*
X022673Y037073D02*
X022593Y037233D01*
X022753D01*
X022673Y037073D01*
X025623Y033973D02*
X025543Y034133D01*
X025703D01*
X025623Y033973D01*
X026573Y034923D02*
X026493Y035083D01*
X026653D01*
X026573Y034923D01*
X026473Y035423D02*
X026393Y035583D01*
X026553D01*
X026473Y035423D01*
X025623Y035823D02*
X025543Y035983D01*
X025703D01*
X025623Y035823D01*
X025173Y034123D02*
X025093Y034283D01*
X025253D01*
X025173Y034123D01*
X025223Y035423D02*
X025143Y035583D01*
X025303D01*
X025223Y035423D01*
X025923Y034273D02*
X025843Y034433D01*
X026003D01*
X025923Y034273D01*
X026273Y034623D02*
X026193Y034783D01*
X026353D01*
X026273Y034623D01*
X028223Y033373D02*
X028143Y033533D01*
X028303D01*
X028223Y033373D01*
X025473Y033323D02*
X025393Y033483D01*
X025553D01*
X025473Y033323D01*
X023423Y034173D02*
X023343Y034333D01*
X023503D01*
X023423Y034173D01*
X023107Y033673D02*
X023027Y033833D01*
X023187D01*
X023107Y033673D01*
X022573Y034507D02*
X022493Y034667D01*
X022653D01*
X022573Y034507D01*
X020823Y035623D02*
X020743Y035783D01*
X020903D01*
X020823Y035623D01*
X018523Y038173D02*
X018443Y038333D01*
X018603D01*
X018523Y038173D01*
X019573Y034123D02*
X019493Y034283D01*
X019653D01*
X019573Y034123D01*
X021456Y033699D02*
X021376Y033859D01*
X021536D01*
X021456Y033699D01*
X019842Y036416D02*
X019762Y036576D01*
X019922D01*
X019842Y036416D01*
X020023Y037273D02*
X019943Y037433D01*
X020103D01*
X020023Y037273D01*
Y037523D02*
X019943Y037683D01*
X020103D01*
X020023Y037523D01*
X020123Y038273D02*
X020043Y038433D01*
X020203D01*
X020123Y038273D01*
X021289Y037073D02*
X021209Y037233D01*
X021369D01*
X021289Y037073D01*
X019673Y034523D02*
X019593Y034683D01*
X019753D01*
X019673Y034523D01*
X020023D02*
X019943Y034683D01*
X020103D01*
X020023Y034523D01*
Y034773D02*
X019943Y034933D01*
X020103D01*
X020023Y034773D01*
X019673D02*
X019593Y034933D01*
X019753D01*
X019673Y034773D01*
Y037273D02*
X019593Y037433D01*
X019753D01*
X019673Y037273D01*
Y037523D02*
X019593Y037683D01*
X019753D01*
X019673Y037523D01*
X019842Y035679D02*
X019762Y035839D01*
X019922D01*
X019842Y035679D01*
X03549Y036909D02*
Y037069D01*
X03565D01*
Y036909D01*
X03549D01*
X03549Y035137D02*
Y035297D01*
X03565D01*
Y035137D01*
X03549D01*
X044559Y036099D02*
X044479Y036259D01*
X044639D01*
X044559Y036099D01*
X047776Y038873D02*
X047696Y039033D01*
X047856D01*
X047776Y038873D01*
X050476D02*
X050396Y039033D01*
X050556D01*
X050476Y038873D01*
X049776D02*
X049696Y039033D01*
X049856D01*
X049776Y038873D01*
X049126D02*
X049046Y039033D01*
X049206D01*
X049126Y038873D01*
X048476D02*
X048396Y039033D01*
X048556D01*
X048476Y038873D01*
X046376Y033573D02*
X046296Y033733D01*
X046456D01*
X046376Y033573D01*
X039626Y036323D02*
X039546Y036483D01*
X039706D01*
X039626Y036323D01*
X039076Y035873D02*
X038996Y036033D01*
X039156D01*
X039076Y035873D01*
X050576Y034773D02*
X050496Y034933D01*
X050656D01*
X050576Y034773D01*
X050876Y034173D02*
X050796Y034333D01*
X050956D01*
X050876Y034173D01*
X050276Y035373D02*
X050196Y035533D01*
X050356D01*
X050276Y035373D01*
X049976Y033573D02*
X049896Y033733D01*
X050056D01*
X049976Y033573D01*
X049376Y034773D02*
X049296Y034933D01*
X049456D01*
X049376Y034773D01*
X049676Y034173D02*
X049596Y034333D01*
X049756D01*
X049676Y034173D01*
X048776Y038373D02*
X048696Y038533D01*
X048856D01*
X048776Y038373D01*
X049076Y036573D02*
X048996Y036733D01*
X049156D01*
X049076Y036573D01*
X048776Y035973D02*
X048696Y036133D01*
X048856D01*
X048776Y035973D01*
X049076Y035373D02*
X048996Y035533D01*
X049156D01*
X049076Y035373D01*
X048776Y033573D02*
X048696Y033733D01*
X048856D01*
X048776Y033573D01*
X048176Y038373D02*
X048096Y038533D01*
X048256D01*
X048176Y038373D01*
X048476Y037773D02*
X048396Y037933D01*
X048556D01*
X048476Y037773D01*
X048176Y034773D02*
X048096Y034933D01*
X048256D01*
X048176Y034773D01*
X048476Y034173D02*
X048396Y034333D01*
X048556D01*
X048476Y034173D01*
X047876Y037773D02*
X047796Y037933D01*
X047956D01*
X047876Y037773D01*
Y036573D02*
X047796Y036733D01*
X047956D01*
X047876Y036573D01*
Y035373D02*
X047796Y035533D01*
X047956D01*
X047876Y035373D01*
X047576Y033573D02*
X047496Y033733D01*
X047656D01*
X047576Y033573D01*
X046976Y035973D02*
X046896Y036133D01*
X047056D01*
X046976Y035973D01*
Y034773D02*
X046896Y034933D01*
X047056D01*
X046976Y034773D01*
X047276Y034173D02*
X047196Y034333D01*
X047356D01*
X047276Y034173D01*
X046676Y035373D02*
X046596Y035533D01*
X046756D01*
X046676Y035373D01*
X046076Y034173D02*
X045996Y034333D01*
X046156D01*
X046076Y034173D01*
X045176Y033573D02*
X045096Y033733D01*
X045256D01*
X045176Y033573D01*
X044576Y038373D02*
X044496Y038533D01*
X044656D01*
X044576Y038373D01*
X044276Y035373D02*
X044196Y035533D01*
X044356D01*
X044276Y035373D01*
X043676D02*
X043596Y035533D01*
X043756D01*
X043676Y035373D01*
X042176Y037173D02*
X042096Y037333D01*
X042256D01*
X042176Y037173D01*
X041276Y037773D02*
X041196Y037933D01*
X041356D01*
X041276Y037773D01*
X039776Y035973D02*
X039696Y036133D01*
X039856D01*
X039776Y035973D01*
X040076Y035373D02*
X039996Y035533D01*
X040156D01*
X040076Y035373D01*
X038876D02*
X038796Y035533D01*
X038956D01*
X038876Y035373D01*
X036176Y033573D02*
X036096Y033733D01*
X036256D01*
X036176Y033573D01*
X035576Y038373D02*
X035496Y038533D01*
X035656D01*
X035576Y038373D01*
X035876Y037773D02*
X035796Y037933D01*
X035956D01*
X035876Y037773D01*
X035576Y035973D02*
X035496Y036133D01*
X035656D01*
X035576Y035973D01*
Y033573D02*
X035496Y033733D01*
X035656D01*
X035576Y033573D01*
X034976D02*
X034896Y033733D01*
X035056D01*
X034976Y033573D01*
X036926Y033273D02*
X036846Y033433D01*
X037006D01*
X036926Y033273D01*
X038476Y035673D02*
X038396Y035833D01*
X038556D01*
X038476Y035673D01*
X038926Y036723D02*
X038846Y036883D01*
X039006D01*
X038926Y036723D01*
X038526Y036373D02*
X038446Y036533D01*
X038606D01*
X038526Y036373D01*
X040676Y037073D02*
X040596Y037233D01*
X040756D01*
X040676Y037073D01*
X041276Y035873D02*
X041196Y036033D01*
X041356D01*
X041276Y035873D01*
X040976Y035323D02*
X040896Y035483D01*
X041056D01*
X040976Y035323D01*
X036776Y035123D02*
X036696Y035283D01*
X036856D01*
X036776Y035123D01*
X035926Y035823D02*
X035846Y035983D01*
X036006D01*
X035926Y035823D01*
Y036223D02*
X035846Y036383D01*
X036006D01*
X035926Y036223D01*
X036776Y036923D02*
X036696Y037083D01*
X036856D01*
X036776Y036923D01*
X036376D02*
X036296Y037083D01*
X036456D01*
X036376Y036923D01*
X045076Y034473D02*
X044996Y034633D01*
X045156D01*
X045076Y034473D01*
X044026Y037173D02*
X043946Y037333D01*
X044106D01*
X044026Y037173D01*
X044376D02*
X044296Y037333D01*
X044456D01*
X044376Y037173D01*
X047426Y038223D02*
X047346Y038383D01*
X047506D01*
X047426Y038223D01*
X044276Y036323D02*
X044196Y036483D01*
X044356D01*
X044276Y036323D01*
X045003Y038623D02*
X044923Y038783D01*
X045083D01*
X045003Y038623D01*
X046826Y038599D02*
X046746Y038759D01*
X046906D01*
X046826Y038599D01*
X044276Y038923D02*
X044196Y039083D01*
X044356D01*
X044276Y038923D01*
X043176Y038673D02*
X043096Y038833D01*
X043256D01*
X043176Y038673D01*
X043576Y038196D02*
X043496Y038356D01*
X043656D01*
X043576Y038196D01*
X041426Y034523D02*
X041346Y034683D01*
X041506D01*
X041426Y034523D01*
X041476Y035023D02*
X041396Y035183D01*
X041556D01*
X041476Y035023D01*
X040626Y035273D02*
X040546Y035433D01*
X040706D01*
X040626Y035273D01*
X041226Y035523D02*
X041146Y035683D01*
X041306D01*
X041226Y035523D01*
X042318Y036361D02*
X042238Y036521D01*
X042398D01*
X042318Y036361D01*
X042776Y035773D02*
X042696Y035933D01*
X042856D01*
X042776Y035773D01*
X042176Y036773D02*
X042096Y036933D01*
X042256D01*
X042176Y036773D01*
X043126Y038123D02*
X043046Y038283D01*
X043206D01*
X043126Y038123D01*
X039926Y035023D02*
X039846Y035183D01*
X040006D01*
X039926Y035023D01*
X042111Y038173D02*
X042031Y038333D01*
X042191D01*
X042111Y038173D01*
X039326Y037073D02*
X039246Y037233D01*
X039406D01*
X039326Y037073D01*
X042276Y033973D02*
X042196Y034133D01*
X042356D01*
X042276Y033973D01*
X043226Y034923D02*
X043146Y035083D01*
X043306D01*
X043226Y034923D01*
X043126Y035423D02*
X043046Y035583D01*
X043206D01*
X043126Y035423D01*
X042276Y035823D02*
X042196Y035983D01*
X042356D01*
X042276Y035823D01*
X041826Y034123D02*
X041746Y034283D01*
X041906D01*
X041826Y034123D01*
X041876Y035423D02*
X041796Y035583D01*
X041956D01*
X041876Y035423D01*
X042576Y034273D02*
X042496Y034433D01*
X042656D01*
X042576Y034273D01*
X042926Y034623D02*
X042846Y034783D01*
X043006D01*
X042926Y034623D01*
X044876Y033373D02*
X044796Y033533D01*
X044956D01*
X044876Y033373D01*
X042126Y033323D02*
X042046Y033483D01*
X042206D01*
X042126Y033323D01*
X040076Y034173D02*
X039996Y034333D01*
X040156D01*
X040076Y034173D01*
X039761Y033673D02*
X039681Y033833D01*
X039841D01*
X039761Y033673D01*
X039226Y034507D02*
X039146Y034667D01*
X039306D01*
X039226Y034507D01*
X037476Y035623D02*
X037396Y035783D01*
X037556D01*
X037476Y035623D01*
X035176Y038173D02*
X035096Y038333D01*
X035256D01*
X035176Y038173D01*
X036226Y034123D02*
X036146Y034283D01*
X036306D01*
X036226Y034123D01*
X03811Y033699D02*
X03803Y033859D01*
X03819D01*
X03811Y033699D01*
X036495Y036416D02*
X036415Y036576D01*
X036575D01*
X036495Y036416D01*
X036676Y037273D02*
X036596Y037433D01*
X036756D01*
X036676Y037273D01*
Y037523D02*
X036596Y037683D01*
X036756D01*
X036676Y037523D01*
X036776Y038273D02*
X036696Y038433D01*
X036856D01*
X036776Y038273D01*
X037942Y037073D02*
X037862Y037233D01*
X038022D01*
X037942Y037073D01*
X036326Y034523D02*
X036246Y034683D01*
X036406D01*
X036326Y034523D01*
X036676D02*
X036596Y034683D01*
X036756D01*
X036676Y034523D01*
Y034773D02*
X036596Y034933D01*
X036756D01*
X036676Y034773D01*
X036326D02*
X036246Y034933D01*
X036406D01*
X036326Y034773D01*
Y037273D02*
X036246Y037433D01*
X036406D01*
X036326Y037273D01*
Y037523D02*
X036246Y037683D01*
X036406D01*
X036326Y037523D01*
X036495Y035679D02*
X036415Y035839D01*
X036575D01*
X036495Y035679D01*
X018837Y043129D02*
Y043289D01*
X018997D01*
Y043129D01*
X018837D01*
X018837Y041357D02*
Y041517D01*
X018997D01*
Y041357D01*
X018837D01*
X027905Y042319D02*
X027825Y042479D01*
X027985D01*
X027905Y042319D01*
X031123Y045093D02*
X031043Y045253D01*
X031203D01*
X031123Y045093D01*
X033823D02*
X033743Y045253D01*
X033903D01*
X033823Y045093D01*
X033123D02*
X033043Y045253D01*
X033203D01*
X033123Y045093D01*
X032473D02*
X032393Y045253D01*
X032553D01*
X032473Y045093D01*
X031823D02*
X031743Y045253D01*
X031903D01*
X031823Y045093D01*
X029723Y039793D02*
X029643Y039953D01*
X029803D01*
X029723Y039793D01*
X022973Y042543D02*
X022893Y042703D01*
X023053D01*
X022973Y042543D01*
X022423Y042093D02*
X022343Y042253D01*
X022503D01*
X022423Y042093D01*
X033923Y040993D02*
X033843Y041153D01*
X034003D01*
X033923Y040993D01*
X034223Y040393D02*
X034143Y040553D01*
X034303D01*
X034223Y040393D01*
X033623Y041593D02*
X033543Y041753D01*
X033703D01*
X033623Y041593D01*
X033323Y039793D02*
X033243Y039953D01*
X033403D01*
X033323Y039793D01*
X032723Y040993D02*
X032643Y041153D01*
X032803D01*
X032723Y040993D01*
X033023Y040393D02*
X032943Y040553D01*
X033103D01*
X033023Y040393D01*
X032123Y044593D02*
X032043Y044753D01*
X032203D01*
X032123Y044593D01*
X032423Y042793D02*
X032343Y042953D01*
X032503D01*
X032423Y042793D01*
X032123Y042193D02*
X032043Y042353D01*
X032203D01*
X032123Y042193D01*
X032423Y041593D02*
X032343Y041753D01*
X032503D01*
X032423Y041593D01*
X032123Y039793D02*
X032043Y039953D01*
X032203D01*
X032123Y039793D01*
X031523Y044593D02*
X031443Y044753D01*
X031603D01*
X031523Y044593D01*
X031823Y043993D02*
X031743Y044153D01*
X031903D01*
X031823Y043993D01*
X031523Y040993D02*
X031443Y041153D01*
X031603D01*
X031523Y040993D01*
X031823Y040393D02*
X031743Y040553D01*
X031903D01*
X031823Y040393D01*
X031223Y043993D02*
X031143Y044153D01*
X031303D01*
X031223Y043993D01*
Y042793D02*
X031143Y042953D01*
X031303D01*
X031223Y042793D01*
Y041593D02*
X031143Y041753D01*
X031303D01*
X031223Y041593D01*
X030923Y039793D02*
X030843Y039953D01*
X031003D01*
X030923Y039793D01*
X030323Y042193D02*
X030243Y042353D01*
X030403D01*
X030323Y042193D01*
Y040993D02*
X030243Y041153D01*
X030403D01*
X030323Y040993D01*
X030623Y040393D02*
X030543Y040553D01*
X030703D01*
X030623Y040393D01*
X030023Y041593D02*
X029943Y041753D01*
X030103D01*
X030023Y041593D01*
X029423Y040393D02*
X029343Y040553D01*
X029503D01*
X029423Y040393D01*
X028523Y039793D02*
X028443Y039953D01*
X028603D01*
X028523Y039793D01*
X027923Y044593D02*
X027843Y044753D01*
X028003D01*
X027923Y044593D01*
X027623Y041593D02*
X027543Y041753D01*
X027703D01*
X027623Y041593D01*
X027023D02*
X026943Y041753D01*
X027103D01*
X027023Y041593D01*
X025523Y043393D02*
X025443Y043553D01*
X025603D01*
X025523Y043393D01*
X024623Y043993D02*
X024543Y044153D01*
X024703D01*
X024623Y043993D01*
X023123Y042193D02*
X023043Y042353D01*
X023203D01*
X023123Y042193D01*
X023423Y041593D02*
X023343Y041753D01*
X023503D01*
X023423Y041593D01*
X022223D02*
X022143Y041753D01*
X022303D01*
X022223Y041593D01*
X019523Y039793D02*
X019443Y039953D01*
X019603D01*
X019523Y039793D01*
X018923Y044593D02*
X018843Y044753D01*
X019003D01*
X018923Y044593D01*
X019223Y043993D02*
X019143Y044153D01*
X019303D01*
X019223Y043993D01*
X018923Y042193D02*
X018843Y042353D01*
X019003D01*
X018923Y042193D01*
Y039793D02*
X018843Y039953D01*
X019003D01*
X018923Y039793D01*
X018323D02*
X018243Y039953D01*
X018403D01*
X018323Y039793D01*
X020273Y039493D02*
X020193Y039653D01*
X020353D01*
X020273Y039493D01*
X021823Y041893D02*
X021743Y042053D01*
X021903D01*
X021823Y041893D01*
X022273Y042943D02*
X022193Y043103D01*
X022353D01*
X022273Y042943D01*
X021873Y042593D02*
X021793Y042753D01*
X021953D01*
X021873Y042593D01*
X024023Y043293D02*
X023943Y043453D01*
X024103D01*
X024023Y043293D01*
X024623Y042093D02*
X024543Y042253D01*
X024703D01*
X024623Y042093D01*
X024323Y041543D02*
X024243Y041703D01*
X024403D01*
X024323Y041543D01*
X020123Y041343D02*
X020043Y041503D01*
X020203D01*
X020123Y041343D01*
X019273Y042043D02*
X019193Y042203D01*
X019353D01*
X019273Y042043D01*
Y042443D02*
X019193Y042603D01*
X019353D01*
X019273Y042443D01*
X020123Y043143D02*
X020043Y043303D01*
X020203D01*
X020123Y043143D01*
X019723D02*
X019643Y043303D01*
X019803D01*
X019723Y043143D01*
X028423Y040693D02*
X028343Y040853D01*
X028503D01*
X028423Y040693D01*
X027373Y043393D02*
X027293Y043553D01*
X027453D01*
X027373Y043393D01*
X027723D02*
X027643Y043553D01*
X027803D01*
X027723Y043393D01*
X030773Y044443D02*
X030693Y044603D01*
X030853D01*
X030773Y044443D01*
X027623Y042543D02*
X027543Y042703D01*
X027703D01*
X027623Y042543D01*
X02835Y044843D02*
X02827Y045003D01*
X02843D01*
X02835Y044843D01*
X030173Y04482D02*
X030093Y04498D01*
X030253D01*
X030173Y04482D01*
X027623Y045143D02*
X027543Y045303D01*
X027703D01*
X027623Y045143D01*
X026523Y044893D02*
X026443Y045053D01*
X026603D01*
X026523Y044893D01*
X026923Y044417D02*
X026843Y044577D01*
X027003D01*
X026923Y044417D01*
X024773Y040743D02*
X024693Y040903D01*
X024853D01*
X024773Y040743D01*
X024823Y041243D02*
X024743Y041403D01*
X024903D01*
X024823Y041243D01*
X023973Y041493D02*
X023893Y041653D01*
X024053D01*
X023973Y041493D01*
X024573Y041743D02*
X024493Y041903D01*
X024653D01*
X024573Y041743D01*
X025664Y042582D02*
X025584Y042742D01*
X025744D01*
X025664Y042582D01*
X026123Y041993D02*
X026043Y042153D01*
X026203D01*
X026123Y041993D01*
X025523Y042993D02*
X025443Y043153D01*
X025603D01*
X025523Y042993D01*
X026473Y044343D02*
X026393Y044503D01*
X026553D01*
X026473Y044343D01*
X023273Y041243D02*
X023193Y041403D01*
X023353D01*
X023273Y041243D01*
X025457Y044393D02*
X025377Y044553D01*
X025537D01*
X025457Y044393D01*
X022673Y043293D02*
X022593Y043453D01*
X022753D01*
X022673Y043293D01*
X025623Y040193D02*
X025543Y040353D01*
X025703D01*
X025623Y040193D01*
X026573Y041143D02*
X026493Y041303D01*
X026653D01*
X026573Y041143D01*
X026473Y041643D02*
X026393Y041803D01*
X026553D01*
X026473Y041643D01*
X025623Y042043D02*
X025543Y042203D01*
X025703D01*
X025623Y042043D01*
X025173Y040343D02*
X025093Y040503D01*
X025253D01*
X025173Y040343D01*
X025223Y041643D02*
X025143Y041803D01*
X025303D01*
X025223Y041643D01*
X025923Y040493D02*
X025843Y040653D01*
X026003D01*
X025923Y040493D01*
X026273Y040843D02*
X026193Y041003D01*
X026353D01*
X026273Y040843D01*
X028223Y039593D02*
X028143Y039753D01*
X028303D01*
X028223Y039593D01*
X025473Y039543D02*
X025393Y039703D01*
X025553D01*
X025473Y039543D01*
X023423Y040393D02*
X023343Y040553D01*
X023503D01*
X023423Y040393D01*
X023107Y039893D02*
X023027Y040053D01*
X023187D01*
X023107Y039893D01*
X022573Y040727D02*
X022493Y040887D01*
X022653D01*
X022573Y040727D01*
X020823Y041843D02*
X020743Y042003D01*
X020903D01*
X020823Y041843D01*
X018523Y044393D02*
X018443Y044553D01*
X018603D01*
X018523Y044393D01*
X019573Y040343D02*
X019493Y040503D01*
X019653D01*
X019573Y040343D01*
X021456Y039919D02*
X021376Y040079D01*
X021536D01*
X021456Y039919D01*
X019842Y042637D02*
X019762Y042797D01*
X019922D01*
X019842Y042637D01*
X020023Y043493D02*
X019943Y043653D01*
X020103D01*
X020023Y043493D01*
Y043743D02*
X019943Y043903D01*
X020103D01*
X020023Y043743D01*
X020123Y044493D02*
X020043Y044653D01*
X020203D01*
X020123Y044493D01*
X021289Y043293D02*
X021209Y043453D01*
X021369D01*
X021289Y043293D01*
X019673Y040743D02*
X019593Y040903D01*
X019753D01*
X019673Y040743D01*
X020023D02*
X019943Y040903D01*
X020103D01*
X020023Y040743D01*
Y040993D02*
X019943Y041153D01*
X020103D01*
X020023Y040993D01*
X019673D02*
X019593Y041153D01*
X019753D01*
X019673Y040993D01*
Y043493D02*
X019593Y043653D01*
X019753D01*
X019673Y043493D01*
Y043743D02*
X019593Y043903D01*
X019753D01*
X019673Y043743D01*
X019842Y0419D02*
X019762Y04206D01*
X019922D01*
X019842Y0419D01*
X03549Y043129D02*
Y043289D01*
X03565D01*
Y043129D01*
X03549D01*
X03549Y041357D02*
Y041517D01*
X03565D01*
Y041357D01*
X03549D01*
X044559Y042319D02*
X044479Y042479D01*
X044639D01*
X044559Y042319D01*
X047776Y045093D02*
X047696Y045253D01*
X047856D01*
X047776Y045093D01*
X050476D02*
X050396Y045253D01*
X050556D01*
X050476Y045093D01*
X049776D02*
X049696Y045253D01*
X049856D01*
X049776Y045093D01*
X049126D02*
X049046Y045253D01*
X049206D01*
X049126Y045093D01*
X048476D02*
X048396Y045253D01*
X048556D01*
X048476Y045093D01*
X046376Y039793D02*
X046296Y039953D01*
X046456D01*
X046376Y039793D01*
X039626Y042543D02*
X039546Y042703D01*
X039706D01*
X039626Y042543D01*
X039076Y042093D02*
X038996Y042253D01*
X039156D01*
X039076Y042093D01*
X050576Y040993D02*
X050496Y041153D01*
X050656D01*
X050576Y040993D01*
X050876Y040393D02*
X050796Y040553D01*
X050956D01*
X050876Y040393D01*
X050276Y041593D02*
X050196Y041753D01*
X050356D01*
X050276Y041593D01*
X049976Y039793D02*
X049896Y039953D01*
X050056D01*
X049976Y039793D01*
X049376Y040993D02*
X049296Y041153D01*
X049456D01*
X049376Y040993D01*
X049676Y040393D02*
X049596Y040553D01*
X049756D01*
X049676Y040393D01*
X048776Y044593D02*
X048696Y044753D01*
X048856D01*
X048776Y044593D01*
X049076Y042793D02*
X048996Y042953D01*
X049156D01*
X049076Y042793D01*
X048776Y042193D02*
X048696Y042353D01*
X048856D01*
X048776Y042193D01*
X049076Y041593D02*
X048996Y041753D01*
X049156D01*
X049076Y041593D01*
X048776Y039793D02*
X048696Y039953D01*
X048856D01*
X048776Y039793D01*
X048176Y044593D02*
X048096Y044753D01*
X048256D01*
X048176Y044593D01*
X048476Y043993D02*
X048396Y044153D01*
X048556D01*
X048476Y043993D01*
X048176Y040993D02*
X048096Y041153D01*
X048256D01*
X048176Y040993D01*
X048476Y040393D02*
X048396Y040553D01*
X048556D01*
X048476Y040393D01*
X047876Y043993D02*
X047796Y044153D01*
X047956D01*
X047876Y043993D01*
Y042793D02*
X047796Y042953D01*
X047956D01*
X047876Y042793D01*
Y041593D02*
X047796Y041753D01*
X047956D01*
X047876Y041593D01*
X047576Y039793D02*
X047496Y039953D01*
X047656D01*
X047576Y039793D01*
X046976Y042193D02*
X046896Y042353D01*
X047056D01*
X046976Y042193D01*
Y040993D02*
X046896Y041153D01*
X047056D01*
X046976Y040993D01*
X047276Y040393D02*
X047196Y040553D01*
X047356D01*
X047276Y040393D01*
X046676Y041593D02*
X046596Y041753D01*
X046756D01*
X046676Y041593D01*
X046076Y040393D02*
X045996Y040553D01*
X046156D01*
X046076Y040393D01*
X045176Y039793D02*
X045096Y039953D01*
X045256D01*
X045176Y039793D01*
X044576Y044593D02*
X044496Y044753D01*
X044656D01*
X044576Y044593D01*
X044276Y041593D02*
X044196Y041753D01*
X044356D01*
X044276Y041593D01*
X043676D02*
X043596Y041753D01*
X043756D01*
X043676Y041593D01*
X042176Y043393D02*
X042096Y043553D01*
X042256D01*
X042176Y043393D01*
X041276Y043993D02*
X041196Y044153D01*
X041356D01*
X041276Y043993D01*
X039776Y042193D02*
X039696Y042353D01*
X039856D01*
X039776Y042193D01*
X040076Y041593D02*
X039996Y041753D01*
X040156D01*
X040076Y041593D01*
X038876D02*
X038796Y041753D01*
X038956D01*
X038876Y041593D01*
X036176Y039793D02*
X036096Y039953D01*
X036256D01*
X036176Y039793D01*
X035576Y044593D02*
X035496Y044753D01*
X035656D01*
X035576Y044593D01*
X035876Y043993D02*
X035796Y044153D01*
X035956D01*
X035876Y043993D01*
X035576Y042193D02*
X035496Y042353D01*
X035656D01*
X035576Y042193D01*
Y039793D02*
X035496Y039953D01*
X035656D01*
X035576Y039793D01*
X034976D02*
X034896Y039953D01*
X035056D01*
X034976Y039793D01*
X036926Y039493D02*
X036846Y039653D01*
X037006D01*
X036926Y039493D01*
X038476Y041893D02*
X038396Y042053D01*
X038556D01*
X038476Y041893D01*
X038926Y042943D02*
X038846Y043103D01*
X039006D01*
X038926Y042943D01*
X038526Y042593D02*
X038446Y042753D01*
X038606D01*
X038526Y042593D01*
X040676Y043293D02*
X040596Y043453D01*
X040756D01*
X040676Y043293D01*
X041276Y042093D02*
X041196Y042253D01*
X041356D01*
X041276Y042093D01*
X040976Y041543D02*
X040896Y041703D01*
X041056D01*
X040976Y041543D01*
X036776Y041343D02*
X036696Y041503D01*
X036856D01*
X036776Y041343D01*
X035926Y042043D02*
X035846Y042203D01*
X036006D01*
X035926Y042043D01*
Y042443D02*
X035846Y042603D01*
X036006D01*
X035926Y042443D01*
X036776Y043143D02*
X036696Y043303D01*
X036856D01*
X036776Y043143D01*
X036376D02*
X036296Y043303D01*
X036456D01*
X036376Y043143D01*
X045076Y040693D02*
X044996Y040853D01*
X045156D01*
X045076Y040693D01*
X044026Y043393D02*
X043946Y043553D01*
X044106D01*
X044026Y043393D01*
X044376D02*
X044296Y043553D01*
X044456D01*
X044376Y043393D01*
X047426Y044443D02*
X047346Y044603D01*
X047506D01*
X047426Y044443D01*
X044276Y042543D02*
X044196Y042703D01*
X044356D01*
X044276Y042543D01*
X045003Y044843D02*
X044923Y045003D01*
X045083D01*
X045003Y044843D01*
X046826Y04482D02*
X046746Y04498D01*
X046906D01*
X046826Y04482D01*
X044276Y045143D02*
X044196Y045303D01*
X044356D01*
X044276Y045143D01*
X043176Y044893D02*
X043096Y045053D01*
X043256D01*
X043176Y044893D01*
X043576Y044417D02*
X043496Y044577D01*
X043656D01*
X043576Y044417D01*
X041426Y040743D02*
X041346Y040903D01*
X041506D01*
X041426Y040743D01*
X041476Y041243D02*
X041396Y041403D01*
X041556D01*
X041476Y041243D01*
X040626Y041493D02*
X040546Y041653D01*
X040706D01*
X040626Y041493D01*
X041226Y041743D02*
X041146Y041903D01*
X041306D01*
X041226Y041743D01*
X042318Y042582D02*
X042238Y042742D01*
X042398D01*
X042318Y042582D01*
X042776Y041993D02*
X042696Y042153D01*
X042856D01*
X042776Y041993D01*
X042176Y042993D02*
X042096Y043153D01*
X042256D01*
X042176Y042993D01*
X043126Y044343D02*
X043046Y044503D01*
X043206D01*
X043126Y044343D01*
X039926Y041243D02*
X039846Y041403D01*
X040006D01*
X039926Y041243D01*
X042111Y044393D02*
X042031Y044553D01*
X042191D01*
X042111Y044393D01*
X039326Y043293D02*
X039246Y043453D01*
X039406D01*
X039326Y043293D01*
X042276Y040193D02*
X042196Y040353D01*
X042356D01*
X042276Y040193D01*
X043226Y041143D02*
X043146Y041303D01*
X043306D01*
X043226Y041143D01*
X043126Y041643D02*
X043046Y041803D01*
X043206D01*
X043126Y041643D01*
X042276Y042043D02*
X042196Y042203D01*
X042356D01*
X042276Y042043D01*
X041826Y040343D02*
X041746Y040503D01*
X041906D01*
X041826Y040343D01*
X041876Y041643D02*
X041796Y041803D01*
X041956D01*
X041876Y041643D01*
X042576Y040493D02*
X042496Y040653D01*
X042656D01*
X042576Y040493D01*
X042926Y040843D02*
X042846Y041003D01*
X043006D01*
X042926Y040843D01*
X044876Y039593D02*
X044796Y039753D01*
X044956D01*
X044876Y039593D01*
X042126Y039543D02*
X042046Y039703D01*
X042206D01*
X042126Y039543D01*
X040076Y040393D02*
X039996Y040553D01*
X040156D01*
X040076Y040393D01*
X039761Y039893D02*
X039681Y040053D01*
X039841D01*
X039761Y039893D01*
X039226Y040727D02*
X039146Y040887D01*
X039306D01*
X039226Y040727D01*
X037476Y041843D02*
X037396Y042003D01*
X037556D01*
X037476Y041843D01*
X035176Y044393D02*
X035096Y044553D01*
X035256D01*
X035176Y044393D01*
X036226Y040343D02*
X036146Y040503D01*
X036306D01*
X036226Y040343D01*
X03811Y039919D02*
X03803Y040079D01*
X03819D01*
X03811Y039919D01*
X036495Y042637D02*
X036415Y042797D01*
X036575D01*
X036495Y042637D01*
X036676Y043493D02*
X036596Y043653D01*
X036756D01*
X036676Y043493D01*
Y043743D02*
X036596Y043903D01*
X036756D01*
X036676Y043743D01*
X036776Y044493D02*
X036696Y044653D01*
X036856D01*
X036776Y044493D01*
X037942Y043293D02*
X037862Y043453D01*
X038022D01*
X037942Y043293D01*
X036326Y040743D02*
X036246Y040903D01*
X036406D01*
X036326Y040743D01*
X036676D02*
X036596Y040903D01*
X036756D01*
X036676Y040743D01*
Y040993D02*
X036596Y041153D01*
X036756D01*
X036676Y040993D01*
X036326D02*
X036246Y041153D01*
X036406D01*
X036326Y040993D01*
Y043493D02*
X036246Y043653D01*
X036406D01*
X036326Y043493D01*
Y043743D02*
X036246Y043903D01*
X036406D01*
X036326Y043743D01*
X036495Y0419D02*
X036415Y04206D01*
X036575D01*
X036495Y0419D01*
D70*
X024047Y019835D02*
G03*
X024047Y019835I-00008J0D01*
G01*
Y019048D02*
G03*
X024047Y019048I-00008J0D01*
G01*
X023259Y019835D02*
G03*
X023259Y019835I-00008J0D01*
G01*
Y019048D02*
G03*
X023259Y019048I-00008J0D01*
G01*
X0407Y019835D02*
G03*
X0407Y019835I-00008J0D01*
G01*
Y019048D02*
G03*
X0407Y019048I-00008J0D01*
G01*
X039913Y019835D02*
G03*
X039913Y019835I-00008J0D01*
G01*
Y019048D02*
G03*
X039913Y019048I-00008J0D01*
G01*
X024047Y026056D02*
G03*
X024047Y026056I-00008J0D01*
G01*
Y025268D02*
G03*
X024047Y025268I-00008J0D01*
G01*
X023259Y026056D02*
G03*
X023259Y026056I-00008J0D01*
G01*
Y025268D02*
G03*
X023259Y025268I-00008J0D01*
G01*
X0407Y026056D02*
G03*
X0407Y026056I-00008J0D01*
G01*
Y025268D02*
G03*
X0407Y025268I-00008J0D01*
G01*
X039913Y026056D02*
G03*
X039913Y026056I-00008J0D01*
G01*
Y025268D02*
G03*
X039913Y025268I-00008J0D01*
G01*
X024047Y032276D02*
G03*
X024047Y032276I-00008J0D01*
G01*
Y031489D02*
G03*
X024047Y031489I-00008J0D01*
G01*
X023259Y032276D02*
G03*
X023259Y032276I-00008J0D01*
G01*
Y031489D02*
G03*
X023259Y031489I-00008J0D01*
G01*
X0407Y032276D02*
G03*
X0407Y032276I-00008J0D01*
G01*
Y031489D02*
G03*
X0407Y031489I-00008J0D01*
G01*
X039913Y032276D02*
G03*
X039913Y032276I-00008J0D01*
G01*
Y031489D02*
G03*
X039913Y031489I-00008J0D01*
G01*
X024047Y038496D02*
G03*
X024047Y038496I-00008J0D01*
G01*
Y037709D02*
G03*
X024047Y037709I-00008J0D01*
G01*
X023259Y038496D02*
G03*
X023259Y038496I-00008J0D01*
G01*
Y037709D02*
G03*
X023259Y037709I-00008J0D01*
G01*
X0407Y038496D02*
G03*
X0407Y038496I-00008J0D01*
G01*
Y037709D02*
G03*
X0407Y037709I-00008J0D01*
G01*
X039913Y038496D02*
G03*
X039913Y038496I-00008J0D01*
G01*
Y037709D02*
G03*
X039913Y037709I-00008J0D01*
G01*
X024047Y044717D02*
G03*
X024047Y044717I-00008J0D01*
G01*
Y04393D02*
G03*
X024047Y04393I-00008J0D01*
G01*
X023259Y044717D02*
G03*
X023259Y044717I-00008J0D01*
G01*
Y04393D02*
G03*
X023259Y04393I-00008J0D01*
G01*
X0407Y044717D02*
G03*
X0407Y044717I-00008J0D01*
G01*
Y04393D02*
G03*
X0407Y04393I-00008J0D01*
G01*
X039913Y044717D02*
G03*
X039913Y044717I-00008J0D01*
G01*
Y04393D02*
G03*
X039913Y04393I-00008J0D01*
G01*
M02*
