G04*
G04 #@! TF.GenerationSoftware,Altium Limited,Altium Designer,22.10.1 (41)*
G04*
G04 Layer_Color=32768*
%FSTAX24Y24*%
%MOIN*%
G70*
G04*
G04 #@! TF.SameCoordinates,66E382E7-BC4A-4C08-8AB3-1FD61AD418E8*
G04*
G04*
G04 #@! TF.FilePolarity,Positive*
G04*
G01*
G75*
%ADD84C,0.0039*%
%ADD86C,0.0020*%
D84*
X029691Y011485D02*
Y011689D01*
X029588Y011587D02*
X029793D01*
X026551Y007948D02*
X02683Y008226D01*
X026551D02*
X02683Y007948D01*
X026808Y007755D02*
X027073Y008019D01*
X026808Y008019D02*
X027073Y007755D01*
X024132Y006037D02*
X024349D01*
X024241Y005929D02*
Y006145D01*
X024024Y005555D02*
Y006519D01*
X024457Y005555D02*
Y006519D01*
X024024Y005555D02*
X024457Y005555D01*
X024024Y006519D02*
X024457Y006519D01*
X032641Y008563D02*
Y008767D01*
X032538Y008665D02*
X032743D01*
X032941Y010335D02*
Y010539D01*
X032838Y010437D02*
X033043D01*
X032941Y009913D02*
Y010117D01*
X032838Y010015D02*
X033043D01*
X029391Y0081D02*
Y008474D01*
X029204Y008287D02*
X029578D01*
X030391Y007135D02*
Y007339D01*
X030288Y007237D02*
X030493D01*
X031438Y008137D02*
X031643D01*
X031541Y008035D02*
Y008239D01*
X032641Y009013D02*
Y009217D01*
X032538Y009115D02*
X032743D01*
X032038Y010015D02*
X032243D01*
X032141Y009913D02*
Y010117D01*
X031541Y009785D02*
Y009989D01*
X031438Y009887D02*
X031643D01*
X032641Y009463D02*
Y009667D01*
X032538Y009565D02*
X032743D01*
X031991Y009312D02*
Y009517D01*
X031888Y009415D02*
X032093D01*
X030824Y012069D02*
X031257D01*
X030824Y011105D02*
X031257Y011105D01*
Y012069D01*
X030824Y011105D02*
Y012069D01*
X031041Y011479D02*
Y011695D01*
X030932Y011587D02*
X031149D01*
X030338D02*
X030543D01*
X030441Y011485D02*
Y011689D01*
X026554Y010837D02*
X026928D01*
X026741Y01065D02*
Y011024D01*
X025024Y005455D02*
X025457D01*
X025024Y006419D02*
X025457Y006419D01*
X025024Y005455D02*
Y006419D01*
X025457Y005455D02*
Y006419D01*
X025241Y005829D02*
Y006045D01*
X025132Y005937D02*
X025349D01*
X029208Y006819D02*
X029473Y006555D01*
X029208D02*
X029473Y006819D01*
X026318Y005609D02*
X026463Y005465D01*
X026318D02*
X026463Y005609D01*
X024041Y00745D02*
Y007824D01*
X023854Y007637D02*
X024228D01*
X023254Y010787D02*
X023628D01*
X023441Y0106D02*
Y010974D01*
X023691Y00585D02*
Y006224D01*
X023504Y006037D02*
X023878D01*
X023141Y0075D02*
Y007874D01*
X022954Y007687D02*
X023328D01*
X021604Y013865D02*
X021978Y013865D01*
X021791Y013678D02*
Y014052D01*
X021791Y013028D02*
Y013402D01*
X021604Y013215D02*
X021978D01*
X028891Y0117D02*
X028891Y012074D01*
X028704Y011887D02*
X029078D01*
X028004D02*
X028378D01*
X028191Y0117D02*
Y012074D01*
X028524Y012097D02*
X028957D01*
X028524Y011133D02*
X028957Y011133D01*
Y012097D01*
X028524Y011133D02*
Y012097D01*
X028741Y011507D02*
Y011723D01*
X028632Y011615D02*
X028849D01*
X022891Y012568D02*
Y012962D01*
X022694Y012765D02*
X023087D01*
X025041Y012578D02*
Y012952D01*
X024854Y012765D02*
X025228D01*
X013037Y011485D02*
Y011689D01*
X012935Y011587D02*
X013139D01*
X009898Y007948D02*
X010176Y008226D01*
X009898D02*
X010176Y007948D01*
X010155Y007755D02*
X010419Y008019D01*
X010155Y008019D02*
X010419Y007755D01*
X007479Y006037D02*
X007695D01*
X007587Y005929D02*
Y006145D01*
X00737Y005555D02*
Y006519D01*
X007804Y005555D02*
Y006519D01*
X00737Y005555D02*
X007804Y005555D01*
X00737Y006519D02*
X007804Y006519D01*
X015987Y008563D02*
Y008767D01*
X015885Y008665D02*
X016089D01*
X016287Y010335D02*
Y010539D01*
X016185Y010437D02*
X016389D01*
X016287Y009913D02*
Y010117D01*
X016185Y010015D02*
X016389D01*
X012737Y0081D02*
Y008474D01*
X01255Y008287D02*
X012924D01*
X013737Y007135D02*
Y007339D01*
X013635Y007237D02*
X013839D01*
X014785Y008137D02*
X014989D01*
X014887Y008035D02*
Y008239D01*
X015987Y009013D02*
Y009217D01*
X015885Y009115D02*
X016089D01*
X015385Y010015D02*
X015589D01*
X015487Y009913D02*
Y010117D01*
X014887Y009785D02*
Y009989D01*
X014785Y009887D02*
X014989D01*
X015987Y009463D02*
Y009667D01*
X015885Y009565D02*
X016089D01*
X015337Y009312D02*
Y009517D01*
X015235Y009415D02*
X015439D01*
X01417Y012069D02*
X014604D01*
X01417Y011105D02*
X014604Y011105D01*
Y012069D01*
X01417Y011105D02*
Y012069D01*
X014387Y011479D02*
Y011695D01*
X014279Y011587D02*
X014495D01*
X013685D02*
X013889D01*
X013787Y011485D02*
Y011689D01*
X0099Y010837D02*
X010274D01*
X010087Y01065D02*
Y011024D01*
X00837Y005455D02*
X008804D01*
X00837Y006419D02*
X008804Y006419D01*
X00837Y005455D02*
Y006419D01*
X008804Y005455D02*
Y006419D01*
X008587Y005829D02*
Y006045D01*
X008479Y005937D02*
X008695D01*
X012555Y006819D02*
X012819Y006555D01*
X012555D02*
X012819Y006819D01*
X009665Y005609D02*
X009809Y005465D01*
X009665D02*
X009809Y005609D01*
X007387Y00745D02*
Y007824D01*
X0072Y007637D02*
X007574D01*
X0066Y010787D02*
X006974D01*
X006787Y0106D02*
Y010974D01*
X007037Y00585D02*
Y006224D01*
X00685Y006037D02*
X007224D01*
X006487Y0075D02*
Y007874D01*
X0063Y007687D02*
X006674D01*
X00495Y013865D02*
X005324Y013865D01*
X005137Y013678D02*
Y014052D01*
X005137Y013028D02*
Y013402D01*
X00495Y013215D02*
X005324D01*
X012237Y0117D02*
X012237Y012074D01*
X01205Y011887D02*
X012424D01*
X01135D02*
X011724D01*
X011537Y0117D02*
Y012074D01*
X01187Y012097D02*
X012304D01*
X01187Y011133D02*
X012304Y011133D01*
Y012097D01*
X01187Y011133D02*
Y012097D01*
X012087Y011507D02*
Y011723D01*
X011979Y011615D02*
X012195D01*
X006237Y012568D02*
Y012962D01*
X00604Y012765D02*
X006434D01*
X008387Y012578D02*
Y012952D01*
X0082Y012765D02*
X008574D01*
X013102Y026691D02*
X013318D01*
X01321Y026582D02*
Y026799D01*
X012993Y026208D02*
Y027173D01*
X013426Y026208D02*
Y027173D01*
X012993Y026208D02*
X013426Y026208D01*
X012993Y027173D02*
X013426D01*
X01256Y026504D02*
Y026878D01*
X012373Y026691D02*
X012747D01*
X00896Y023204D02*
Y023578D01*
X008773Y023391D02*
X009147D01*
X01521Y026838D02*
Y027043D01*
X015108Y026941D02*
X015312D01*
X01621Y026632D02*
Y026849D01*
X016102Y026741D02*
X016318D01*
X015728Y026957D02*
X016692D01*
X015728Y026524D02*
X016692D01*
X015728Y026957D02*
X015728Y026524D01*
X016692D02*
Y026957D01*
X01451Y026838D02*
Y027043D01*
X014408Y026941D02*
X014612D01*
X011798Y024635D02*
X012104Y024328D01*
X011116Y023953D02*
X011422Y023646D01*
X011116Y023953D02*
X011798Y024635D01*
X011422Y023646D02*
X012104Y024328D01*
X011533Y024064D02*
X011686Y024217D01*
X011533Y024217D02*
X011686Y024064D01*
X01686Y023388D02*
Y023593D01*
X016758Y023491D02*
X016962D01*
X015608Y022691D02*
X015812D01*
X01571Y022588D02*
Y022793D01*
X004323Y027041D02*
X004697D01*
X00451Y026854D02*
Y027228D01*
X00456Y026854D02*
Y027228D01*
X004373Y027041D02*
X004747D01*
X00571Y026854D02*
Y027228D01*
X005523Y027041D02*
X005897D01*
X00801Y026044D02*
Y026437D01*
X007813Y026241D02*
X008207D01*
X011278Y026158D02*
X011542Y026423D01*
X011278D02*
X011542Y026158D01*
X01321Y026504D02*
Y026878D01*
X013023Y026691D02*
X013397D01*
X018008Y024141D02*
X018212D01*
X01811Y024038D02*
Y024243D01*
X018008Y024591D02*
X018212D01*
X01811Y024488D02*
Y024693D01*
X018008Y025041D02*
X018212D01*
X01811Y024938D02*
Y025143D01*
X01756Y025388D02*
Y025593D01*
X017458Y025491D02*
X017662D01*
X018308Y025941D02*
X018512D01*
X01841Y025838D02*
Y026043D01*
X018308Y025491D02*
X018512D01*
X01841Y025388D02*
Y025593D01*
X017308Y024891D02*
X017512D01*
X01741Y024788D02*
Y024993D01*
X016808Y025341D02*
X017012D01*
X01691Y025238D02*
Y025443D01*
X007793Y022008D02*
X008226D01*
X007793Y022973D02*
X008226Y022973D01*
X007793Y022008D02*
Y022973D01*
X008226Y022008D02*
Y022973D01*
X00801Y022382D02*
Y022599D01*
X007902Y022491D02*
X008118Y022491D01*
X009508Y021741D02*
X009712D01*
X00961Y021638D02*
Y021843D01*
X00866Y022304D02*
Y022678D01*
X008473Y022491D02*
X008847Y022491D01*
X00741Y023104D02*
Y023478D01*
X007223Y023291D02*
X007597D01*
X00696Y025254D02*
Y025628D01*
X006773Y025441D02*
X007147D01*
X00696Y025904D02*
Y026278D01*
X006773Y026091D02*
X007147D01*
X011721Y02368D02*
X011999Y023401D01*
X011721D02*
X011999Y02368D01*
X013573Y021691D02*
X013947D01*
X01376Y021504D02*
Y021878D01*
X01476Y023454D02*
Y023828D01*
X014573Y023641D02*
X014947D01*
X029755Y026691D02*
X029972D01*
X029863Y026582D02*
Y026799D01*
X029647Y026208D02*
Y027173D01*
X03008Y026208D02*
Y027173D01*
X029647Y026208D02*
X03008Y026208D01*
X029647Y027173D02*
X03008D01*
X029213Y026504D02*
Y026878D01*
X029026Y026691D02*
X0294D01*
X025613Y023204D02*
Y023578D01*
X025426Y023391D02*
X0258D01*
X031863Y026838D02*
Y027043D01*
X031761Y026941D02*
X031966D01*
X032863Y026632D02*
Y026849D01*
X032755Y026741D02*
X032972D01*
X032381Y026957D02*
X033346D01*
X032381Y026524D02*
X033346D01*
X032381Y026957D02*
X032381Y026524D01*
X033346D02*
Y026957D01*
X031163Y026838D02*
Y027043D01*
X031061Y026941D02*
X031266D01*
X028451Y024635D02*
X028758Y024328D01*
X027769Y023953D02*
X028076Y023646D01*
X027769Y023953D02*
X028451Y024635D01*
X028076Y023646D02*
X028758Y024328D01*
X028187Y024064D02*
X02834Y024217D01*
X028187Y024217D02*
X02834Y024064D01*
X033513Y023388D02*
Y023593D01*
X033411Y023491D02*
X033616D01*
X032261Y022691D02*
X032466D01*
X032363Y022588D02*
Y022793D01*
X020976Y027041D02*
X02135D01*
X021163Y026854D02*
Y027228D01*
X021213Y026854D02*
Y027228D01*
X021026Y027041D02*
X0214D01*
X022363Y026854D02*
Y027228D01*
X022176Y027041D02*
X02255D01*
X024663Y026044D02*
Y026437D01*
X024467Y026241D02*
X02486D01*
X027931Y026158D02*
X028196Y026423D01*
X027931D02*
X028196Y026158D01*
X029863Y026504D02*
Y026878D01*
X029676Y026691D02*
X03005D01*
X034661Y024141D02*
X034866D01*
X034763Y024038D02*
Y024243D01*
X034661Y024591D02*
X034866D01*
X034763Y024488D02*
Y024693D01*
X034661Y025041D02*
X034866D01*
X034763Y024938D02*
Y025143D01*
X034213Y025388D02*
Y025593D01*
X034111Y025491D02*
X034316D01*
X034961Y025941D02*
X035166D01*
X035063Y025838D02*
Y026043D01*
X034961Y025491D02*
X035166D01*
X035063Y025388D02*
Y025593D01*
X033961Y024891D02*
X034166D01*
X034063Y024788D02*
Y024993D01*
X033461Y025341D02*
X033666D01*
X033563Y025238D02*
Y025443D01*
X024447Y022008D02*
X02488D01*
X024447Y022973D02*
X02488Y022973D01*
X024447Y022008D02*
Y022973D01*
X02488Y022008D02*
Y022973D01*
X024663Y022382D02*
Y022599D01*
X024555Y022491D02*
X024772Y022491D01*
X026161Y021741D02*
X026366D01*
X026263Y021638D02*
Y021843D01*
X025313Y022304D02*
Y022678D01*
X025126Y022491D02*
X0255Y022491D01*
X024063Y023104D02*
Y023478D01*
X023876Y023291D02*
X02425D01*
X023613Y025254D02*
Y025628D01*
X023426Y025441D02*
X0238D01*
X023613Y025904D02*
Y026278D01*
X023426Y026091D02*
X0238D01*
X028374Y02368D02*
X028653Y023401D01*
X028374D02*
X028653Y02368D01*
X030226Y021691D02*
X0306D01*
X030413Y021504D02*
Y021878D01*
X031413Y023454D02*
Y023828D01*
X031226Y023641D02*
X0316D01*
X01306Y020283D02*
Y020657D01*
X012873Y02047D02*
X013247D01*
X014173Y01742D02*
X014547D01*
X01436Y017233D02*
Y017607D01*
X014858Y02057D02*
X015062D01*
X01496Y020468D02*
Y020672D01*
X014073Y01607D02*
X014447D01*
X01426Y015883D02*
Y016257D01*
X014358Y02057D02*
X014562D01*
X01446Y020468D02*
Y020672D01*
X016758Y01827D02*
X016962D01*
X01686Y018168D02*
Y018372D01*
X016758Y01782D02*
X016962Y01782D01*
X01686Y017718D02*
Y017922D01*
X015752Y02062D02*
X015968D01*
X01586Y020512D02*
Y020728D01*
X015643Y020138D02*
Y021102D01*
X016076Y020138D02*
Y021102D01*
X015643Y020138D02*
X016076Y020138D01*
X015643Y021102D02*
X016076D01*
X01641Y016968D02*
Y017172D01*
X016308Y01707D02*
X016512D01*
X015258Y01622D02*
X015462D01*
X01536Y016118D02*
Y016322D01*
X011621Y017231D02*
X011899Y017509D01*
X011621D02*
X011899Y017231D01*
X00991Y015283D02*
Y015657D01*
X009723Y01547D02*
X010097D01*
X008973Y01697D02*
X009347D01*
X00916Y016783D02*
Y017157D01*
X00791Y019823D02*
Y020217D01*
X007713Y02002D02*
X008107D01*
X01341Y015233D02*
Y015607D01*
X013223Y01542D02*
X013597D01*
X007973Y01612D02*
X008347D01*
X00816Y015933D02*
Y016307D01*
X007502Y01612D02*
X007718D01*
X00761Y016012D02*
Y016228D01*
X007826Y015638D02*
Y016602D01*
X007393Y015638D02*
Y016602D01*
X007826Y016602D01*
X007393Y015638D02*
X007826D01*
X00731Y016883D02*
Y017257D01*
X007123Y01707D02*
X007497D01*
X00676Y018883D02*
Y019257D01*
X006573Y01907D02*
X006947D01*
X005523Y02082D02*
X005897D01*
X00571Y020633D02*
Y021007D01*
X00451Y020633D02*
Y021007D01*
X004323Y02082D02*
X004697D01*
X011633Y017897D02*
X011786Y017744D01*
X011633D02*
X011786Y017897D01*
X011522Y017326D02*
X012204Y018008D01*
X011216Y017632D02*
X011898Y018314D01*
X011216Y017632D02*
X011522Y017326D01*
X011898Y018314D02*
X012204Y018008D01*
X01241Y020233D02*
Y020607D01*
X012223Y02042D02*
X012597D01*
X013498Y020364D02*
X013804Y020058D01*
X012816Y019682D02*
X013122Y019376D01*
X013804Y020058D01*
X012816Y019682D02*
X013498Y020364D01*
X013233Y019794D02*
X013386Y019947D01*
X013233D02*
X013386Y019794D01*
X011538Y019798D02*
X011682Y019942D01*
X011538D02*
X011682Y019798D01*
X005073Y02017D02*
X005447D01*
X00526Y019983D02*
Y020357D01*
X029713Y020283D02*
Y020657D01*
X029526Y02047D02*
X0299D01*
X030826Y01742D02*
X0312D01*
X031013Y017233D02*
Y017607D01*
X031511Y02057D02*
X031716D01*
X031613Y020468D02*
Y020672D01*
X030726Y01607D02*
X0311D01*
X030913Y015883D02*
Y016257D01*
X031011Y02057D02*
X031216D01*
X031113Y020468D02*
Y020672D01*
X033411Y01827D02*
X033616D01*
X033513Y018168D02*
Y018372D01*
X033411Y01782D02*
X033616Y01782D01*
X033513Y017718D02*
Y017922D01*
X032405Y02062D02*
X032622D01*
X032513Y020512D02*
Y020728D01*
X032297Y020138D02*
Y021102D01*
X03273Y020138D02*
Y021102D01*
X032297Y020138D02*
X03273Y020138D01*
X032297Y021102D02*
X03273D01*
X033063Y016968D02*
Y017172D01*
X032961Y01707D02*
X033166D01*
X031911Y01622D02*
X032116D01*
X032013Y016118D02*
Y016322D01*
X028274Y017231D02*
X028553Y017509D01*
X028274D02*
X028553Y017231D01*
X026563Y015283D02*
Y015657D01*
X026376Y01547D02*
X02675D01*
X025626Y01697D02*
X026D01*
X025813Y016783D02*
Y017157D01*
X024563Y019823D02*
Y020217D01*
X024367Y02002D02*
X02476D01*
X030063Y015233D02*
Y015607D01*
X029876Y01542D02*
X03025D01*
X024626Y01612D02*
X025D01*
X024813Y015933D02*
Y016307D01*
X024155Y01612D02*
X024372D01*
X024263Y016012D02*
Y016228D01*
X02448Y015638D02*
Y016602D01*
X024047Y015638D02*
Y016602D01*
X02448Y016602D01*
X024047Y015638D02*
X02448D01*
X023963Y016883D02*
Y017257D01*
X023776Y01707D02*
X02415D01*
X023413Y018883D02*
Y019257D01*
X023226Y01907D02*
X0236D01*
X022176Y02082D02*
X02255D01*
X022363Y020633D02*
Y021007D01*
X021163Y020633D02*
Y021007D01*
X020976Y02082D02*
X02135D01*
X028287Y017897D02*
X02844Y017744D01*
X028287D02*
X02844Y017897D01*
X028176Y017326D02*
X028858Y018008D01*
X027869Y017632D02*
X028551Y018314D01*
X027869Y017632D02*
X028176Y017326D01*
X028551Y018314D02*
X028858Y018008D01*
X029063Y020233D02*
Y020607D01*
X028876Y02042D02*
X02925D01*
X030151Y020364D02*
X030458Y020058D01*
X029469Y019682D02*
X029776Y019376D01*
X030458Y020058D01*
X029469Y019682D02*
X030151Y020364D01*
X029887Y019794D02*
X03004Y019947D01*
X029887D02*
X03004Y019794D01*
X028191Y019798D02*
X028336Y019942D01*
X028191D02*
X028336Y019798D01*
X021726Y02017D02*
X0221D01*
X021913Y019983D02*
Y020357D01*
D86*
X029494Y011961D02*
X029887Y011961D01*
X029494Y011213D02*
X029887D01*
Y011961D01*
X029494Y011213D02*
Y011961D01*
X026691Y010982D02*
X029586Y008087D01*
X023795D02*
X026691Y005192D01*
X023795Y008087D02*
X026691Y010982D01*
Y005192D02*
X029586Y008087D01*
X026356Y008054D02*
X027108Y007302D01*
X026774Y008472D02*
X027525Y00772D01*
X026356Y008054D02*
X026774Y008472D01*
X027108Y007302D02*
X027525Y00772D01*
X032267Y008862D02*
X033015D01*
X032267Y008468D02*
X033015D01*
X032267D02*
Y008862D01*
X033015D02*
X033015Y008468D01*
X032567Y010634D02*
X033315D01*
X032567Y01024D02*
X033315D01*
X032567D02*
Y010634D01*
X033315D02*
X033315Y01024D01*
X032567Y010212D02*
X033315D01*
X032567Y009818D02*
X033315D01*
X032567D02*
Y010212D01*
X033315D02*
X033315Y009818D01*
X029095Y008819D02*
X029686Y008819D01*
X029095Y007756D02*
X029686Y007756D01*
Y008819D01*
X029095Y007756D02*
Y008819D01*
X029971Y007514D02*
X03131D01*
X029971D02*
Y008616D01*
X03131D01*
Y007514D02*
Y008616D01*
X030017Y007434D02*
X030765D01*
X030017Y00704D02*
X030765D01*
X030017D02*
Y007434D01*
X030765D02*
X030765Y00704D01*
X031737Y007763D02*
Y008511D01*
X031344Y007763D02*
Y008511D01*
X031737D01*
X031344Y007763D02*
X031737Y007763D01*
X032267Y009312D02*
X033015D01*
X032267Y008918D02*
X033015D01*
X032267D02*
Y009312D01*
X033015D02*
X033015Y008918D01*
X031767Y009818D02*
Y010212D01*
X032515Y009818D02*
Y010212D01*
X031767D02*
X032515D01*
X031767Y009818D02*
X032515D01*
X031344Y009513D02*
X031737Y009513D01*
X031344Y010261D02*
X031737D01*
X031344Y009513D02*
Y010261D01*
X031737Y009513D02*
Y010261D01*
X032267Y009762D02*
X033015D01*
X032267Y009368D02*
X033015D01*
X032267D02*
Y009762D01*
X033015D02*
X033015Y009368D01*
X031794Y009789D02*
X032187Y009789D01*
X031794Y009041D02*
X032187D01*
Y009789D01*
X031794Y009041D02*
Y009789D01*
X030244Y011213D02*
Y011961D01*
X030637Y011213D02*
Y011961D01*
X030244Y011213D02*
X030637D01*
X030244Y011961D02*
X030637Y011961D01*
X027272Y010542D02*
X027272Y011132D01*
X026209D02*
X026209Y010542D01*
X027272D01*
X026209Y011132D02*
X027272D01*
X027691Y005806D02*
X02836Y005138D01*
X02939Y006168D01*
X028721Y006836D02*
X02939Y006168D01*
X027691Y005806D02*
X028721Y006836D01*
X028756Y006854D02*
X029174Y007272D01*
X029508Y006102D02*
X029925Y00652D01*
X029174Y007272D02*
X029925Y00652D01*
X028756Y006854D02*
X029508Y006102D01*
X026265Y005133D02*
X026794Y005662D01*
X025987Y005412D02*
X026516Y005941D01*
X026794Y005662D01*
X025987Y005412D02*
X026265Y005133D01*
X023745Y008169D02*
X024336Y008169D01*
X023745Y007106D02*
X024336Y007106D01*
Y008169D01*
X023745Y007106D02*
Y008169D01*
X023972Y010492D02*
X023972Y011082D01*
X022909D02*
X022909Y010492D01*
X023972D01*
X022909Y011082D02*
X023972D01*
X023395Y006568D02*
X023986Y006569D01*
X023395Y005506D02*
X023986Y005506D01*
X023986Y006569D01*
X023395Y005506D02*
Y006568D01*
X022845Y007156D02*
X023436D01*
X022845Y008219D02*
X023436Y008219D01*
X022845Y007156D02*
Y008219D01*
X023436Y007156D02*
Y008219D01*
X021259Y01357D02*
Y01416D01*
X022322Y01416D02*
X022322Y01357D01*
X021259Y01357D02*
X022322Y01357D01*
X021259Y01416D02*
X022322Y01416D01*
X021241Y01292D02*
X022341Y01292D01*
X021241Y01351D02*
X022341D01*
X021241Y01292D02*
X021241Y01351D01*
X022341Y01292D02*
Y01351D01*
X028595Y012419D02*
X029186D01*
X028595Y011356D02*
X029186Y011356D01*
X028595Y012419D02*
X028595Y011356D01*
X029186Y011356D02*
Y012419D01*
X027895Y011337D02*
Y012437D01*
X028486Y011337D02*
Y012437D01*
X027895D02*
X028486D01*
X027895Y011337D02*
X028486D01*
X018403Y009415D02*
X018678D01*
X018541Y009277D02*
Y009553D01*
X029215Y008961D02*
X031266D01*
X029215Y011013D02*
X031266D01*
X029215Y008961D02*
Y011013D01*
X031266Y008961D02*
Y011013D01*
X02256Y008763D02*
Y010111D01*
Y008763D02*
X024221D01*
Y010111D01*
X02256D02*
X024221D01*
X025608Y011289D02*
X027773D01*
X025608D02*
Y013485D01*
X027773D01*
Y011289D02*
Y013485D01*
X023371Y011954D02*
X02471D01*
Y013576D01*
X023371D02*
X02471D01*
X023371Y011954D02*
Y013576D01*
X022457Y011796D02*
X023324D01*
Y013733D01*
X022457Y011796D02*
Y013733D01*
X023324D01*
X024745Y013296D02*
X025336Y013296D01*
X024745Y012233D02*
X025336Y012233D01*
Y013296D01*
X024745Y012233D02*
Y013296D01*
X01284Y011961D02*
X013234Y011961D01*
X01284Y011213D02*
X013234D01*
Y011961D01*
X01284Y011213D02*
Y011961D01*
X010037Y010982D02*
X012932Y008087D01*
X007142D02*
X010037Y005192D01*
X007142Y008087D02*
X010037Y010982D01*
Y005192D02*
X012932Y008087D01*
X009702Y008054D02*
X010454Y007302D01*
X01012Y008472D02*
X010872Y00772D01*
X009702Y008054D02*
X01012Y008472D01*
X010454Y007302D02*
X010872Y00772D01*
X015613Y008862D02*
X016361D01*
X015613Y008468D02*
X016361D01*
X015613D02*
Y008862D01*
X016361D02*
X016361Y008468D01*
X015913Y010634D02*
X016661D01*
X015913Y01024D02*
X016661D01*
X015913D02*
Y010634D01*
X016661D02*
X016661Y01024D01*
X015913Y010212D02*
X016661D01*
X015913Y009818D02*
X016661D01*
X015913D02*
Y010212D01*
X016661D02*
X016661Y009818D01*
X012442Y008819D02*
X013032Y008819D01*
X012442Y007756D02*
X013032Y007756D01*
Y008819D01*
X012442Y007756D02*
Y008819D01*
X013318Y007514D02*
X014656D01*
X013318D02*
Y008616D01*
X014656D01*
Y007514D02*
Y008616D01*
X013363Y007434D02*
X014111D01*
X013363Y00704D02*
X014111D01*
X013363D02*
Y007434D01*
X014111D02*
X014111Y00704D01*
X015084Y007763D02*
Y008511D01*
X01469Y007763D02*
Y008511D01*
X015084D01*
X01469Y007763D02*
X015084Y007763D01*
X015613Y009312D02*
X016361D01*
X015613Y008918D02*
X016361D01*
X015613D02*
Y009312D01*
X016361D02*
X016361Y008918D01*
X015113Y009818D02*
Y010212D01*
X015861Y009818D02*
Y010212D01*
X015113D02*
X015861D01*
X015113Y009818D02*
X015861D01*
X01469Y009513D02*
X015084Y009513D01*
X01469Y010261D02*
X015084D01*
X01469Y009513D02*
Y010261D01*
X015084Y009513D02*
Y010261D01*
X015613Y009762D02*
X016361D01*
X015613Y009368D02*
X016361D01*
X015613D02*
Y009762D01*
X016361D02*
X016361Y009368D01*
X01514Y009789D02*
X015534Y009789D01*
X01514Y009041D02*
X015534D01*
Y009789D01*
X01514Y009041D02*
Y009789D01*
X01359Y011213D02*
Y011961D01*
X013984Y011213D02*
Y011961D01*
X01359Y011213D02*
X013984D01*
X01359Y011961D02*
X013984Y011961D01*
X010618Y010542D02*
X010618Y011132D01*
X009556D02*
X009556Y010542D01*
X010618D01*
X009556Y011132D02*
X010618D01*
X011038Y005806D02*
X011706Y005138D01*
X012736Y006168D01*
X012068Y006836D02*
X012736Y006168D01*
X011038Y005806D02*
X012068Y006836D01*
X012102Y006854D02*
X01252Y007272D01*
X012854Y006102D02*
X013272Y00652D01*
X01252Y007272D02*
X013272Y00652D01*
X012102Y006854D02*
X012854Y006102D01*
X009612Y005133D02*
X010141Y005662D01*
X009333Y005412D02*
X009862Y005941D01*
X010141Y005662D01*
X009333Y005412D02*
X009612Y005133D01*
X007092Y008169D02*
X007682Y008169D01*
X007092Y007106D02*
X007682Y007106D01*
Y008169D01*
X007092Y007106D02*
Y008169D01*
X007319Y010492D02*
X007319Y011082D01*
X006256D02*
X006256Y010492D01*
X007319D01*
X006256Y011082D02*
X007319D01*
X006742Y006568D02*
X007332Y006569D01*
X006742Y005506D02*
X007332Y005506D01*
X007332Y006569D01*
X006742Y005506D02*
Y006568D01*
X006192Y007156D02*
X006782D01*
X006192Y008219D02*
X006782Y008219D01*
X006192Y007156D02*
Y008219D01*
X006782Y007156D02*
Y008219D01*
X004606Y01357D02*
Y01416D01*
X005669Y01416D02*
X005669Y01357D01*
X004606Y01357D02*
X005669Y01357D01*
X004606Y01416D02*
X005669Y01416D01*
X004587Y01292D02*
X005687Y01292D01*
X004587Y01351D02*
X005687D01*
X004587Y01292D02*
X004587Y01351D01*
X005687Y01292D02*
Y01351D01*
X011942Y012419D02*
X012532D01*
X011942Y011356D02*
X012532Y011356D01*
X011942Y012419D02*
X011942Y011356D01*
X012532Y011356D02*
Y012419D01*
X011242Y011337D02*
Y012437D01*
X011832Y011337D02*
Y012437D01*
X011242D02*
X011832D01*
X011242Y011337D02*
X011832D01*
X001749Y009415D02*
X002025D01*
X001887Y009277D02*
Y009553D01*
X012561Y008961D02*
X014613D01*
X012561Y011013D02*
X014613D01*
X012561Y008961D02*
Y011013D01*
X014613Y008961D02*
Y011013D01*
X005906Y008763D02*
Y010111D01*
Y008763D02*
X007568D01*
Y010111D01*
X005906D02*
X007568D01*
X008954Y011289D02*
X01112D01*
X008954D02*
Y013485D01*
X01112D01*
Y011289D02*
Y013485D01*
X006718Y011954D02*
X008056D01*
Y013576D01*
X006718D02*
X008056D01*
X006718Y011954D02*
Y013576D01*
X005804Y011796D02*
X00667D01*
Y013733D01*
X005804Y011796D02*
Y013733D01*
X00667D01*
X008092Y013296D02*
X008682Y013296D01*
X008092Y012233D02*
X008682Y012233D01*
Y013296D01*
X008092Y012233D02*
Y013296D01*
X012265Y026141D02*
X012855D01*
X012265Y027241D02*
X012855D01*
Y026141D02*
Y027241D01*
X012265Y026141D02*
Y027241D01*
X008428Y023686D02*
X009491D01*
X008428Y023095D02*
X009491D01*
X008428Y023686D02*
X008428Y023095D01*
X009491D02*
X009491Y023686D01*
X015013Y027315D02*
X015407Y027315D01*
X015013Y026567D02*
X015407D01*
Y027315D01*
X015013Y026567D02*
Y027315D01*
X014313D02*
X014707Y027315D01*
X014313Y026567D02*
X014707D01*
Y027315D01*
X014313Y026567D02*
Y027315D01*
X016629Y022939D02*
Y024042D01*
X015291D02*
X016629D01*
X015291Y022939D02*
Y024042D01*
Y022939D02*
X016629D01*
X016663Y023117D02*
X017057Y023117D01*
X016663Y023865D02*
X017057D01*
X016663Y023117D02*
Y023865D01*
X017057Y023117D02*
Y023865D01*
X016084Y022887D02*
X016084Y022494D01*
X015336D02*
Y022887D01*
Y022494D02*
X016084D01*
X015336Y022887D02*
X016084D01*
X005041Y026745D02*
Y027336D01*
X003978Y026745D02*
Y027336D01*
X005041D01*
X003978Y026745D02*
X005041D01*
X004028Y027336D02*
X005091D01*
X004028Y026745D02*
X005091D01*
X004028Y027336D02*
X004028Y026745D01*
X005091D02*
X005091Y027336D01*
X00516Y026745D02*
X00626D01*
X00516Y027336D02*
X00626D01*
X00516Y026745D02*
Y027336D01*
X00626Y026745D02*
Y027336D01*
X007577Y025272D02*
X008443D01*
X007577D02*
Y027209D01*
X008443Y025272D02*
Y027209D01*
X007577D02*
X008443D01*
X011243Y026875D02*
X011995Y026123D01*
X010825Y026458D02*
X011577Y025706D01*
X010825Y026458D02*
X011243Y026875D01*
X011577Y025706D02*
X011995Y026123D01*
X012915Y027222D02*
X013505D01*
X012915Y026159D02*
X013505Y026159D01*
X012915Y026159D02*
Y027222D01*
X013505Y026159D02*
Y027222D01*
X018484Y024337D02*
X018484Y023944D01*
X017736D02*
Y024337D01*
Y023944D02*
X018484D01*
X017736Y024337D02*
X018484D01*
Y024787D02*
X018484Y024394D01*
X017736D02*
Y024787D01*
Y024394D02*
X018484D01*
X017736Y024787D02*
X018484D01*
X024245Y023984D02*
Y026897D01*
X01881D02*
X024245D01*
X01881Y023984D02*
Y026897D01*
Y023984D02*
X024245D01*
X018484Y025237D02*
X018484Y024844D01*
X017736D02*
Y025237D01*
Y024844D02*
X018484D01*
X017736Y025237D02*
X018484D01*
X017186Y025294D02*
X017934D01*
X017186Y025687D02*
X017934D01*
Y025294D02*
Y025687D01*
X017186Y025294D02*
Y025687D01*
X018784Y026137D02*
X018784Y025744D01*
X018036D02*
Y026137D01*
Y025744D02*
X018784D01*
X018036Y026137D02*
X018784D01*
Y025687D02*
X018784Y025294D01*
X018036D02*
Y025687D01*
Y025294D02*
X018784D01*
X018036Y025687D02*
X018784D01*
X017213Y024517D02*
Y025265D01*
X017607Y024517D02*
Y025265D01*
X017213Y024517D02*
X017607D01*
X017213Y025265D02*
X017607Y025265D01*
X017107Y024967D02*
Y025715D01*
X016713Y024967D02*
Y025715D01*
X017107D01*
X016713Y024967D02*
X017107Y024967D01*
X009236Y021937D02*
X009236Y021544D01*
X009984D02*
Y021937D01*
X009236D02*
X009984D01*
X009236Y021544D02*
X009984D01*
X008365Y021959D02*
X008955D01*
X008365Y023022D02*
X008955Y023022D01*
X008365Y023022D02*
X008365Y021959D01*
X008955Y023022D02*
X008955Y021959D01*
X006878Y022995D02*
X007941D01*
X006878Y023586D02*
X007941D01*
Y022995D02*
Y023586D01*
X006878Y022995D02*
Y023586D01*
X006428Y025736D02*
X007491D01*
X006428Y025145D02*
X007491D01*
X006428Y025736D02*
X006428Y025145D01*
X007491D02*
X007491Y025736D01*
X007579Y02533D02*
Y026952D01*
X006241D02*
X007579D01*
X006241Y02533D02*
Y026952D01*
Y02533D02*
X007579D01*
X006428Y025795D02*
X007491D01*
X006428Y026386D02*
X007491D01*
X007491Y025795D01*
X006428D02*
X006428Y026386D01*
X011211Y02286D02*
X011879Y022191D01*
X011211Y02286D02*
X012241Y02389D01*
X012909Y023221D01*
X011879Y022191D02*
X012909Y023221D01*
X010743Y025242D02*
Y027439D01*
X008577D02*
X010743D01*
X008577Y025242D02*
Y027439D01*
Y025242D02*
X010743D01*
X006079Y023616D02*
Y024965D01*
Y023616D02*
X007741D01*
Y024965D01*
X006079D02*
X007741D01*
X001772Y024291D02*
X002048D01*
X00191Y024153D02*
Y024428D01*
X01186Y020645D02*
X014755Y023541D01*
X008965D02*
X01186Y026436D01*
X008965Y023541D02*
X01186Y020645D01*
Y026436D02*
X014755Y023541D01*
X014434Y024415D02*
X016486D01*
X014434Y026466D02*
X016486D01*
X014434Y024415D02*
Y026466D01*
X016486Y024415D02*
Y026466D01*
X013228Y021395D02*
Y021986D01*
X014291Y021395D02*
Y021986D01*
X013228D02*
X014291D01*
X013228Y021395D02*
X014291D01*
X014465Y024172D02*
X015055Y024172D01*
X014465Y023109D02*
X015055Y023109D01*
Y024172D01*
X014465Y023109D02*
Y024172D01*
X028918Y026141D02*
X029509D01*
X028918Y027241D02*
X029509D01*
Y026141D02*
Y027241D01*
X028918Y026141D02*
Y027241D01*
X025082Y023686D02*
X026145D01*
X025082Y023095D02*
X026145D01*
X025082Y023686D02*
X025082Y023095D01*
X026145D02*
X026145Y023686D01*
X031667Y027315D02*
X03206Y027315D01*
X031667Y026567D02*
X03206D01*
Y027315D01*
X031667Y026567D02*
Y027315D01*
X030967D02*
X03136Y027315D01*
X030967Y026567D02*
X03136D01*
Y027315D01*
X030967Y026567D02*
Y027315D01*
X033283Y022939D02*
Y024042D01*
X031944D02*
X033283D01*
X031944Y022939D02*
Y024042D01*
Y022939D02*
X033283D01*
X033317Y023117D02*
X03371Y023117D01*
X033317Y023865D02*
X03371D01*
X033317Y023117D02*
Y023865D01*
X03371Y023117D02*
Y023865D01*
X032737Y022887D02*
X032737Y022494D01*
X031989D02*
Y022887D01*
Y022494D02*
X032737D01*
X031989Y022887D02*
X032737D01*
X021695Y026745D02*
Y027336D01*
X020632Y026745D02*
Y027336D01*
X021695D01*
X020632Y026745D02*
X021695D01*
X020682Y027336D02*
X021745D01*
X020682Y026745D02*
X021745D01*
X020682Y027336D02*
X020682Y026745D01*
X021745D02*
X021745Y027336D01*
X021813Y026745D02*
X022913D01*
X021813Y027336D02*
X022913D01*
X021813Y026745D02*
Y027336D01*
X022913Y026745D02*
Y027336D01*
X02423Y025272D02*
X025097D01*
X02423D02*
Y027209D01*
X025097Y025272D02*
Y027209D01*
X02423D02*
X025097D01*
X027896Y026875D02*
X028648Y026123D01*
X027479Y026458D02*
X02823Y025706D01*
X027479Y026458D02*
X027896Y026875D01*
X02823Y025706D02*
X028648Y026123D01*
X029568Y027222D02*
X030159D01*
X029568Y026159D02*
X030159Y026159D01*
X029568Y026159D02*
Y027222D01*
X030159Y026159D02*
Y027222D01*
X035137Y024337D02*
X035137Y023944D01*
X034389D02*
Y024337D01*
Y023944D02*
X035137D01*
X034389Y024337D02*
X035137D01*
Y024787D02*
X035137Y024394D01*
X034389D02*
Y024787D01*
Y024394D02*
X035137D01*
X034389Y024787D02*
X035137D01*
X040899Y023984D02*
Y026897D01*
X035463D02*
X040899D01*
X035463Y023984D02*
Y026897D01*
Y023984D02*
X040899D01*
X035137Y025237D02*
X035137Y024844D01*
X034389D02*
Y025237D01*
Y024844D02*
X035137D01*
X034389Y025237D02*
X035137D01*
X033839Y025294D02*
X034587D01*
X033839Y025687D02*
X034587D01*
Y025294D02*
Y025687D01*
X033839Y025294D02*
Y025687D01*
X035437Y026137D02*
X035437Y025744D01*
X034689D02*
Y026137D01*
Y025744D02*
X035437D01*
X034689Y026137D02*
X035437D01*
Y025687D02*
X035437Y025294D01*
X034689D02*
Y025687D01*
Y025294D02*
X035437D01*
X034689Y025687D02*
X035437D01*
X033867Y024517D02*
Y025265D01*
X03426Y024517D02*
Y025265D01*
X033867Y024517D02*
X03426D01*
X033867Y025265D02*
X03426Y025265D01*
X03376Y024967D02*
Y025715D01*
X033367Y024967D02*
Y025715D01*
X03376D01*
X033367Y024967D02*
X03376Y024967D01*
X025889Y021937D02*
X025889Y021544D01*
X026637D02*
Y021937D01*
X025889D02*
X026637D01*
X025889Y021544D02*
X026637D01*
X025018Y021959D02*
X025609D01*
X025018Y023022D02*
X025609Y023022D01*
X025018Y023022D02*
X025018Y021959D01*
X025609Y023022D02*
X025609Y021959D01*
X023532Y022995D02*
X024595D01*
X023532Y023586D02*
X024595D01*
Y022995D02*
Y023586D01*
X023532Y022995D02*
Y023586D01*
X023082Y025736D02*
X024145D01*
X023082Y025145D02*
X024145D01*
X023082Y025736D02*
X023082Y025145D01*
X024145D02*
X024145Y025736D01*
X024233Y02533D02*
Y026952D01*
X022894D02*
X024233D01*
X022894Y02533D02*
Y026952D01*
Y02533D02*
X024233D01*
X023082Y025795D02*
X024145D01*
X023082Y026386D02*
X024145D01*
X024145Y025795D01*
X023082D02*
X023082Y026386D01*
X027864Y02286D02*
X028533Y022191D01*
X027864Y02286D02*
X028894Y02389D01*
X029563Y023221D01*
X028533Y022191D02*
X029563Y023221D01*
X027396Y025242D02*
Y027439D01*
X025231D02*
X027396D01*
X025231Y025242D02*
Y027439D01*
Y025242D02*
X027396D01*
X022733Y023616D02*
Y024965D01*
Y023616D02*
X024394D01*
Y024965D01*
X022733D02*
X024394D01*
X018426Y024291D02*
X018701D01*
X018563Y024153D02*
Y024428D01*
X028513Y020645D02*
X031409Y023541D01*
X025618D02*
X028513Y026436D01*
X025618Y023541D02*
X028513Y020645D01*
Y026436D02*
X031409Y023541D01*
X031088Y024415D02*
X033139D01*
X031088Y026466D02*
X033139D01*
X031088Y024415D02*
Y026466D01*
X033139Y024415D02*
Y026466D01*
X029882Y021395D02*
Y021986D01*
X030945Y021395D02*
Y021986D01*
X029882D02*
X030945D01*
X029882Y021395D02*
X030945D01*
X031118Y024172D02*
X031709Y024172D01*
X031118Y023109D02*
X031709Y023109D01*
Y024172D01*
X031118Y023109D02*
Y024172D01*
X012765Y021002D02*
X013355D01*
X012765Y019939D02*
X013355Y019939D01*
X012765Y019939D02*
Y021002D01*
X013355Y019939D02*
Y021002D01*
X014065Y016889D02*
Y017952D01*
X014655Y016889D02*
Y017952D01*
X014065Y016889D02*
X014655Y016889D01*
X014065Y017952D02*
X014655Y017952D01*
X016297Y019294D02*
X017123D01*
X016297Y018546D02*
Y019294D01*
Y018546D02*
X017123D01*
Y019294D01*
X014763Y020196D02*
Y020944D01*
X015157Y020196D02*
Y020944D01*
X014763Y020196D02*
X015157D01*
X014763Y020944D02*
X015157Y020944D01*
X013728Y015775D02*
Y016365D01*
X014791Y015775D02*
Y016365D01*
X013728D02*
X014791D01*
X013728Y015775D02*
X014791D01*
X016136Y017994D02*
Y020046D01*
X014084Y017994D02*
Y020046D01*
X016136D01*
X014084Y017994D02*
X016136D01*
X014263Y020196D02*
Y020944D01*
X014657Y020196D02*
Y020944D01*
X014263Y020196D02*
X014657D01*
X014263Y020944D02*
X014657Y020944D01*
X017275Y020705D02*
X020445D01*
Y017535D02*
Y020705D01*
X017275Y017535D02*
X020445D01*
X017275D02*
Y020705D01*
X017234Y018467D02*
X017234Y018073D01*
X016486D02*
Y018467D01*
Y018073D02*
X017234D01*
X016486Y018467D02*
X017234D01*
Y018017D02*
X017234Y017623D01*
X016486D02*
Y018017D01*
Y017623D02*
X017234D01*
X016486Y018017D02*
X017234D01*
X016179Y016469D02*
Y017571D01*
X014841D02*
X016179D01*
X014841Y016469D02*
Y017571D01*
Y016469D02*
X016179D01*
X016213Y016696D02*
X016607Y016696D01*
X016213Y017444D02*
X016607D01*
X016213Y016696D02*
Y017444D01*
X016607Y016696D02*
Y017444D01*
X015734Y016417D02*
X015734Y016023D01*
X014986D02*
Y016417D01*
Y016023D02*
X015734D01*
X014986Y016417D02*
X015734D01*
X01176Y020265D02*
X014655Y01737D01*
X008865D02*
X01176Y014475D01*
X008865Y01737D02*
X01176Y020265D01*
Y014475D02*
X014655Y01737D01*
X009378Y015765D02*
X010441D01*
X009378Y015175D02*
X010441D01*
X009378Y015765D02*
X009378Y015175D01*
X010441D02*
X010441Y015765D01*
X008865Y016439D02*
Y017502D01*
X009455Y016439D02*
Y017502D01*
X008865Y016439D02*
X009455Y016439D01*
X008865Y017502D02*
X009455Y017502D01*
X007477Y019052D02*
X008343D01*
X007477D02*
Y020989D01*
X008343Y019052D02*
Y020989D01*
X007477D02*
X008343D01*
X012878Y015125D02*
X013941D01*
X012878Y015715D02*
X013941D01*
X013941Y015125D02*
X013941Y015715D01*
X012878Y015125D02*
Y015715D01*
X008455Y015589D02*
Y016652D01*
X007865Y015589D02*
Y016652D01*
X008455Y016652D01*
X007865Y015589D02*
X008455D01*
X006778Y016775D02*
X007841D01*
X006778Y017365D02*
X007841D01*
Y016775D02*
Y017365D01*
X006778Y016775D02*
Y017365D01*
X005929Y018744D02*
X007591D01*
Y017396D02*
Y018744D01*
X005929Y017396D02*
X007591D01*
X005929D02*
Y018744D01*
X006228Y019365D02*
X007291D01*
X006228Y018775D02*
X007291D01*
X006228Y019365D02*
X006228Y018775D01*
X007291D02*
X007291Y019365D01*
X00626Y021115D02*
X00626Y020525D01*
X00516Y021115D02*
X00516Y020525D01*
X00516Y021115D02*
X00626D01*
X00516Y020525D02*
X00626D01*
X003978D02*
X005041D01*
X003978Y021115D02*
X005041D01*
X003978Y020525D02*
Y021115D01*
X005041Y020525D02*
Y021115D01*
X012115Y01987D02*
X012705D01*
X012115Y02097D02*
X012705D01*
Y01987D02*
Y02097D01*
X012115Y01987D02*
Y02097D01*
X011161Y016639D02*
X011829Y015971D01*
X011161Y016639D02*
X012191Y017669D01*
X012859Y017001D01*
X011829Y015971D02*
X012859Y017001D01*
X007479Y019359D02*
Y020981D01*
X006141D02*
X007479D01*
X006141Y019359D02*
Y020981D01*
Y019359D02*
X007479D01*
X00191Y017932D02*
Y018208D01*
X001772Y01807D02*
X002048D01*
X011206Y019995D02*
X011735Y019466D01*
X011485Y020274D02*
X012014Y019745D01*
X011735Y019466D02*
X012014Y019745D01*
X011206Y019995D02*
X011485Y020274D01*
X008527Y019022D02*
X010693D01*
X008527D02*
Y021218D01*
X010693D01*
Y019022D02*
Y021218D01*
X005791Y019875D02*
X005791Y020465D01*
X004728D02*
X004728Y019875D01*
X005791D01*
X004728Y020465D02*
X005791D01*
X029418Y021002D02*
X030009D01*
X029418Y019939D02*
X030009Y019939D01*
X029418Y019939D02*
Y021002D01*
X030009Y019939D02*
Y021002D01*
X030718Y016889D02*
Y017952D01*
X031309Y016889D02*
Y017952D01*
X030718Y016889D02*
X031309Y016889D01*
X030718Y017952D02*
X031309Y017952D01*
X03295Y019294D02*
X033777D01*
X03295Y018546D02*
Y019294D01*
Y018546D02*
X033777D01*
Y019294D01*
X031417Y020196D02*
Y020944D01*
X03181Y020196D02*
Y020944D01*
X031417Y020196D02*
X03181D01*
X031417Y020944D02*
X03181Y020944D01*
X030382Y015775D02*
Y016365D01*
X031445Y015775D02*
Y016365D01*
X030382D02*
X031445D01*
X030382Y015775D02*
X031445D01*
X032789Y017994D02*
Y020046D01*
X030738Y017994D02*
Y020046D01*
X032789D01*
X030738Y017994D02*
X032789D01*
X030917Y020196D02*
Y020944D01*
X03131Y020196D02*
Y020944D01*
X030917Y020196D02*
X03131D01*
X030917Y020944D02*
X03131Y020944D01*
X033929Y020705D02*
X037098D01*
Y017535D02*
Y020705D01*
X033929Y017535D02*
X037098D01*
X033929D02*
Y020705D01*
X033887Y018467D02*
X033887Y018073D01*
X033139D02*
Y018467D01*
Y018073D02*
X033887D01*
X033139Y018467D02*
X033887D01*
Y018017D02*
X033887Y017623D01*
X033139D02*
Y018017D01*
Y017623D02*
X033887D01*
X033139Y018017D02*
X033887D01*
X032833Y016469D02*
Y017571D01*
X031494D02*
X032833D01*
X031494Y016469D02*
Y017571D01*
Y016469D02*
X032833D01*
X032867Y016696D02*
X03326Y016696D01*
X032867Y017444D02*
X03326D01*
X032867Y016696D02*
Y017444D01*
X03326Y016696D02*
Y017444D01*
X032387Y016417D02*
X032387Y016023D01*
X031639D02*
Y016417D01*
Y016023D02*
X032387D01*
X031639Y016417D02*
X032387D01*
X028413Y020265D02*
X031309Y01737D01*
X025518D02*
X028413Y014475D01*
X025518Y01737D02*
X028413Y020265D01*
Y014475D02*
X031309Y01737D01*
X026032Y015765D02*
X027095D01*
X026032Y015175D02*
X027095D01*
X026032Y015765D02*
X026032Y015175D01*
X027095D02*
X027095Y015765D01*
X025518Y016439D02*
Y017502D01*
X026109Y016439D02*
Y017502D01*
X025518Y016439D02*
X026109Y016439D01*
X025518Y017502D02*
X026109Y017502D01*
X02413Y019052D02*
X024997D01*
X02413D02*
Y020989D01*
X024997Y019052D02*
Y020989D01*
X02413D02*
X024997D01*
X029532Y015125D02*
X030595D01*
X029532Y015715D02*
X030595D01*
X030595Y015125D02*
X030595Y015715D01*
X029532Y015125D02*
Y015715D01*
X025109Y015589D02*
Y016652D01*
X024518Y015589D02*
Y016652D01*
X025109Y016652D01*
X024518Y015589D02*
X025109D01*
X023432Y016775D02*
X024495D01*
X023432Y017365D02*
X024495D01*
Y016775D02*
Y017365D01*
X023432Y016775D02*
Y017365D01*
X022583Y018744D02*
X024244D01*
Y017396D02*
Y018744D01*
X022583Y017396D02*
X024244D01*
X022583D02*
Y018744D01*
X022882Y019365D02*
X023945D01*
X022882Y018775D02*
X023945D01*
X022882Y019365D02*
X022882Y018775D01*
X023945D02*
X023945Y019365D01*
X022913Y021115D02*
X022913Y020525D01*
X021813Y021115D02*
X021813Y020525D01*
X021813Y021115D02*
X022913D01*
X021813Y020525D02*
X022913D01*
X020632D02*
X021695D01*
X020632Y021115D02*
X021695D01*
X020632Y020525D02*
Y021115D01*
X021695Y020525D02*
Y021115D01*
X028768Y01987D02*
X029359D01*
X028768Y02097D02*
X029359D01*
Y01987D02*
Y02097D01*
X028768Y01987D02*
Y02097D01*
X027814Y016639D02*
X028483Y015971D01*
X027814Y016639D02*
X028844Y017669D01*
X029513Y017001D01*
X028483Y015971D02*
X029513Y017001D01*
X024133Y019359D02*
Y020981D01*
X022794D02*
X024133D01*
X022794Y019359D02*
Y020981D01*
Y019359D02*
X024133D01*
X018563Y017932D02*
Y018208D01*
X018426Y01807D02*
X018701D01*
X02786Y019995D02*
X028389Y019466D01*
X028138Y020274D02*
X028667Y019745D01*
X028389Y019466D02*
X028667Y019745D01*
X02786Y019995D02*
X028138Y020274D01*
X025181Y019022D02*
X027346D01*
X025181D02*
Y021218D01*
X027346D01*
Y019022D02*
Y021218D01*
X022445Y019875D02*
X022445Y020465D01*
X021382D02*
X021382Y019875D01*
X022445D01*
X021382Y020465D02*
X022445D01*
M02*
