G04*
G04 #@! TF.GenerationSoftware,Altium Limited,Altium Designer,22.10.1 (41)*
G04*
G04 Layer_Color=32768*
%FSTAX24Y24*%
%MOIN*%
G70*
G04*
G04 #@! TF.SameCoordinates,A34DC46A-7450-461F-AC4F-9E147ECCBACE*
G04*
G04*
G04 #@! TF.FilePolarity,Positive*
G04*
G01*
G75*
%ADD82C,0.0039*%
%ADD84C,0.0020*%
D82*
X034141Y020937D02*
Y021141D01*
X034038Y021039D02*
X034243D01*
X034441Y022737D02*
Y022941D01*
X034338Y022839D02*
X034543D01*
X034441Y022287D02*
Y022491D01*
X034338Y022389D02*
X034543D01*
X030841Y020202D02*
Y020576D01*
X030654Y020389D02*
X031028D01*
X027601Y020078D02*
X02788Y0198D01*
X027601D02*
X02788Y020078D01*
X031841Y019437D02*
Y019641D01*
X031738Y019539D02*
X031943D01*
X032938Y020489D02*
X033143D01*
X033041Y020387D02*
Y020591D01*
X034141Y021387D02*
Y021591D01*
X034038Y021489D02*
X034243D01*
X033538Y022389D02*
X033743D01*
X033641Y022287D02*
Y022491D01*
X033041Y022137D02*
Y022341D01*
X032938Y022239D02*
X033143D01*
X034141Y021837D02*
Y022041D01*
X034038Y021939D02*
X034243D01*
X033491Y021687D02*
Y021891D01*
X033388Y021789D02*
X033593D01*
X031924Y024421D02*
X032357D01*
X031924Y023457D02*
X032357Y023457D01*
Y024421D01*
X031924Y023457D02*
Y024421D01*
X032141Y023831D02*
Y024047D01*
X032032Y023939D02*
X032249D01*
X031388Y023839D02*
X031593D01*
X031491Y023737D02*
Y023941D01*
X028391Y022902D02*
Y023276D01*
X028204Y023089D02*
X028578D01*
X025596Y017601D02*
X025903Y017295D01*
X026278Y018283D02*
X026585Y017977D01*
X025596Y017601D02*
X026278Y018283D01*
X025903Y017295D02*
X026585Y017977D01*
X026014Y017712D02*
X026167Y017866D01*
X026014Y017866D02*
X026167Y017712D01*
X030408Y019121D02*
X030673Y018857D01*
X030408D02*
X030673Y019121D01*
X030158Y018471D02*
X030423Y018207D01*
X030158Y018207D02*
X030423Y018471D01*
X026718Y017367D02*
X026863Y017511D01*
X026718D02*
X026863Y017367D01*
X024354Y020339D02*
X024728D01*
X024541Y020152D02*
Y020526D01*
X023404Y023489D02*
X023778D01*
X023591Y023302D02*
Y023676D01*
X024591Y018652D02*
Y019026D01*
X024404Y018839D02*
X024778D01*
X023774Y018357D02*
X024207D01*
X023774Y019321D02*
X024207Y019321D01*
X023774Y018357D02*
Y019321D01*
X024207Y018357D02*
Y019321D01*
X023991Y018731D02*
Y018947D01*
X023882Y018839D02*
X024099D01*
X023591Y020202D02*
Y020576D01*
X023404Y020389D02*
X023778D01*
X021654Y026439D02*
X022028Y026439D01*
X021841Y026252D02*
Y026626D01*
X021841Y025602D02*
Y025976D01*
X021654Y025789D02*
X022028D01*
X028791Y023157D02*
X028791Y023531D01*
X028604Y023344D02*
X028978D01*
X029254Y023339D02*
X029628D01*
X029441Y023152D02*
Y023526D01*
X030442Y023512D02*
Y023717D01*
X03034Y023614D02*
X030544D01*
X028774Y022607D02*
X029207D01*
X028774Y023571D02*
X029207Y023571D01*
X028774Y022607D02*
Y023571D01*
X029207Y022607D02*
Y023571D01*
X028991Y022981D02*
Y023197D01*
X028882Y023089D02*
X029099D01*
X022941Y025142D02*
Y025536D01*
X022744Y025339D02*
X023137D01*
X025091Y025152D02*
Y025526D01*
X024904Y025339D02*
X025278D01*
X017487Y008496D02*
Y0087D01*
X017385Y008598D02*
X017589D01*
X017787Y010296D02*
Y0105D01*
X017685Y010398D02*
X017889D01*
X017787Y009846D02*
Y01005D01*
X017685Y009948D02*
X017889D01*
X014187Y007761D02*
Y008135D01*
X014Y007948D02*
X014374D01*
X010948Y007637D02*
X011226Y007359D01*
X010948D02*
X011226Y007637D01*
X015187Y006996D02*
Y0072D01*
X015085Y007098D02*
X015289D01*
X016285Y008048D02*
X016489D01*
X016387Y007946D02*
Y00815D01*
X017487Y008946D02*
Y00915D01*
X017385Y009048D02*
X017589D01*
X016885Y009948D02*
X017089D01*
X016987Y009846D02*
Y01005D01*
X016387Y009696D02*
Y0099D01*
X016285Y009798D02*
X016489D01*
X017487Y009396D02*
Y0096D01*
X017385Y009498D02*
X017589D01*
X016837Y009246D02*
Y00945D01*
X016735Y009348D02*
X016939D01*
X01527Y01198D02*
X015704D01*
X01527Y011016D02*
X015704Y011016D01*
Y01198D01*
X01527Y011016D02*
Y01198D01*
X015487Y01139D02*
Y011606D01*
X015379Y011498D02*
X015595D01*
X014735Y011398D02*
X014939D01*
X014837Y011296D02*
Y0115D01*
X011737Y010461D02*
Y010835D01*
X01155Y010648D02*
X011924D01*
X008943Y00516D02*
X009249Y004854D01*
X009625Y005842D02*
X009931Y005536D01*
X008943Y00516D02*
X009625Y005842D01*
X009249Y004854D02*
X009931Y005536D01*
X00936Y005271D02*
X009514Y005425D01*
X00936Y005425D02*
X009514Y005271D01*
X013755Y00668D02*
X014019Y006416D01*
X013755D02*
X014019Y00668D01*
X013505Y00603D02*
X013769Y005766D01*
X013505Y005766D02*
X013769Y00603D01*
X010065Y004926D02*
X010209Y00507D01*
X010065D02*
X010209Y004926D01*
X0077Y007898D02*
X008074D01*
X007887Y007711D02*
Y008085D01*
X00675Y011048D02*
X007124D01*
X006937Y010861D02*
Y011235D01*
X007937Y006211D02*
Y006585D01*
X00775Y006398D02*
X008124D01*
X00712Y005916D02*
X007554D01*
X00712Y00688D02*
X007554Y00688D01*
X00712Y005916D02*
Y00688D01*
X007554Y005916D02*
Y00688D01*
X007337Y00629D02*
Y006506D01*
X007229Y006398D02*
X007445D01*
X006937Y007761D02*
Y008135D01*
X00675Y007948D02*
X007124D01*
X005Y013998D02*
X005374Y013998D01*
X005187Y013811D02*
Y014185D01*
X005187Y013161D02*
Y013535D01*
X005Y013348D02*
X005374D01*
X012137Y010716D02*
X012137Y01109D01*
X01195Y010903D02*
X012324D01*
X0126Y010898D02*
X012974D01*
X012787Y010711D02*
Y011085D01*
X013788Y011071D02*
Y011276D01*
X013686Y011173D02*
X013891D01*
X01212Y010166D02*
X012554D01*
X01212Y01113D02*
X012554Y01113D01*
X01212Y010166D02*
Y01113D01*
X012554Y010166D02*
Y01113D01*
X012337Y01054D02*
Y010756D01*
X012229Y010648D02*
X012445D01*
X006287Y012701D02*
Y013095D01*
X00609Y012898D02*
X006484D01*
X008437Y012711D02*
Y013085D01*
X00825Y012898D02*
X008624D01*
X00896Y023204D02*
Y023578D01*
X008773Y023391D02*
X009147D01*
X01521Y026838D02*
Y027043D01*
X015108Y026941D02*
X015312D01*
X01621Y026632D02*
Y026849D01*
X016102Y026741D02*
X016318D01*
X015728Y026957D02*
X016692D01*
X015728Y026524D02*
X016692D01*
X015728Y026957D02*
X015728Y026524D01*
X016692D02*
Y026957D01*
X01451Y026838D02*
Y027043D01*
X014408Y026941D02*
X014612D01*
X011798Y024635D02*
X012104Y024328D01*
X011116Y023953D02*
X011422Y023646D01*
X011116Y023953D02*
X011798Y024635D01*
X011422Y023646D02*
X012104Y024328D01*
X011533Y024064D02*
X011686Y024217D01*
X011533Y024217D02*
X011686Y024064D01*
X01686Y023388D02*
Y023593D01*
X016758Y023491D02*
X016962D01*
X015608Y022691D02*
X015812D01*
X01571Y022588D02*
Y022793D01*
X004323Y027041D02*
X004697D01*
X00451Y026854D02*
Y027228D01*
X00456Y026854D02*
Y027228D01*
X004373Y027041D02*
X004747D01*
X00571Y026854D02*
Y027228D01*
X005523Y027041D02*
X005897D01*
X00801Y026044D02*
Y026437D01*
X007813Y026241D02*
X008207D01*
X011278Y026158D02*
X011542Y026423D01*
X011278D02*
X011542Y026158D01*
X01321Y026504D02*
Y026878D01*
X013023Y026691D02*
X013397D01*
X012373D02*
X012747D01*
X01256Y026504D02*
Y026878D01*
X018008Y024141D02*
X018212D01*
X01811Y024038D02*
Y024243D01*
X018008Y024591D02*
X018212D01*
X01811Y024488D02*
Y024693D01*
X018008Y025041D02*
X018212D01*
X01811Y024938D02*
Y025143D01*
X01756Y025388D02*
Y025593D01*
X017458Y025491D02*
X017662D01*
X018308Y025941D02*
X018512D01*
X01841Y025838D02*
Y026043D01*
X018308Y025491D02*
X018512D01*
X01841Y025388D02*
Y025593D01*
X017308Y024891D02*
X017512D01*
X01741Y024788D02*
Y024993D01*
X016808Y025341D02*
X017012D01*
X01691Y025238D02*
Y025443D01*
X007793Y022008D02*
X008226D01*
X007793Y022973D02*
X008226Y022973D01*
X007793Y022008D02*
Y022973D01*
X008226Y022008D02*
Y022973D01*
X00801Y022382D02*
Y022599D01*
X007902Y022491D02*
X008118Y022491D01*
X009508Y021741D02*
X009712D01*
X00961Y021638D02*
Y021843D01*
X00866Y022304D02*
Y022678D01*
X008473Y022491D02*
X008847Y022491D01*
X00741Y023104D02*
Y023478D01*
X007223Y023291D02*
X007597D01*
X00696Y025254D02*
Y025628D01*
X006773Y025441D02*
X007147D01*
X00696Y025904D02*
Y026278D01*
X006773Y026091D02*
X007147D01*
X011721Y02368D02*
X011999Y023401D01*
X011721D02*
X011999Y02368D01*
X013573Y021691D02*
X013947D01*
X01376Y021504D02*
Y021878D01*
X012993Y027173D02*
X013426D01*
X012993Y026208D02*
X013426Y026208D01*
Y027173D01*
X012993Y026208D02*
Y027173D01*
X01321Y026582D02*
Y026799D01*
X013102Y026691D02*
X013318D01*
X01476Y023454D02*
Y023828D01*
X014573Y023641D02*
X014947D01*
X033284Y008135D02*
Y007761D01*
X033471Y007948D02*
X033097D01*
X027034Y0045D02*
Y004296D01*
X027137Y004398D02*
X026932D01*
X026034Y004706D02*
Y00449D01*
X026142Y004598D02*
X025926D01*
X026516Y004382D02*
X025552D01*
X026516Y004815D02*
X025552D01*
X026516Y004382D02*
X026516Y004815D01*
X025552D02*
Y004382D01*
X027734Y0045D02*
Y004296D01*
X027837Y004398D02*
X027632D01*
X030446Y006704D02*
X03014Y00701D01*
X031128Y007386D02*
X030822Y007692D01*
X031128Y007386D02*
X030446Y006704D01*
X030822Y007692D02*
X03014Y00701D01*
X030711Y007275D02*
X030558Y007121D01*
X030711Y007121D02*
X030558Y007275D01*
X025384Y00795D02*
Y007746D01*
X025487Y007848D02*
X025282D01*
X026637Y008648D02*
X026432D01*
X026534Y00875D02*
Y008546D01*
X037921Y004298D02*
X037547D01*
X037734Y004485D02*
Y004111D01*
X037684Y004485D02*
Y004111D01*
X037871Y004298D02*
X037497D01*
X036534Y004485D02*
Y004111D01*
X036721Y004298D02*
X036347D01*
X034234Y005295D02*
Y004901D01*
X034431Y005098D02*
X034037D01*
X030966Y00518D02*
X030702Y004916D01*
X030966D02*
X030702Y00518D01*
X029034Y004835D02*
Y004461D01*
X029221Y004648D02*
X028847D01*
X029871D02*
X029497D01*
X029684Y004835D02*
Y004461D01*
X024237Y007198D02*
X024032D01*
X024134Y0073D02*
Y007096D01*
X024237Y006748D02*
X024032D01*
X024134Y00685D02*
Y006646D01*
X024237Y006298D02*
X024032D01*
X024134Y0064D02*
Y006196D01*
X024684Y00595D02*
Y005746D01*
X024787Y005848D02*
X024582D01*
X023937Y005398D02*
X023732D01*
X023834Y0055D02*
Y005296D01*
X023937Y005848D02*
X023732D01*
X023834Y00595D02*
Y005746D01*
X024937Y006448D02*
X024732D01*
X024834Y00655D02*
Y006346D01*
X025437Y005998D02*
X025232D01*
X025334Y0061D02*
Y005896D01*
X034451Y00933D02*
X034018D01*
X034451Y008366D02*
X034018Y008366D01*
X034451Y00933D02*
Y008366D01*
X034018Y00933D02*
Y008366D01*
X034234Y008956D02*
Y00874D01*
X034342Y008848D02*
X034126Y008848D01*
X032737Y009598D02*
X032532D01*
X032634Y0097D02*
Y009496D01*
X033584Y009035D02*
Y008661D01*
X033771Y008848D02*
X033397Y008848D01*
X034834Y008235D02*
Y007861D01*
X035021Y008048D02*
X034647D01*
X035284Y006085D02*
Y005711D01*
X035471Y005898D02*
X035097D01*
X035284Y005435D02*
Y005061D01*
X035471Y005248D02*
X035097D01*
X030523Y007659D02*
X030245Y007937D01*
X030523D02*
X030245Y007659D01*
X028671Y009648D02*
X028297D01*
X028484Y009835D02*
Y009461D01*
X029251Y004166D02*
X028818D01*
X029251Y00513D02*
X028818Y00513D01*
Y004166D01*
X029251Y00513D02*
Y004166D01*
X029034Y004756D02*
Y00454D01*
X029142Y004648D02*
X028926D01*
X027484Y007885D02*
Y007511D01*
X027671Y007698D02*
X027297D01*
X01306Y020283D02*
Y020657D01*
X012873Y02047D02*
X013247D01*
X014173Y01742D02*
X014547D01*
X01436Y017233D02*
Y017607D01*
X014858Y02057D02*
X015062D01*
X01496Y020468D02*
Y020672D01*
X014073Y01607D02*
X014447D01*
X01426Y015883D02*
Y016257D01*
X014358Y02057D02*
X014562D01*
X01446Y020468D02*
Y020672D01*
X016758Y01827D02*
X016962D01*
X01686Y018168D02*
Y018372D01*
X016758Y01782D02*
X016962Y01782D01*
X01686Y017718D02*
Y017922D01*
X015752Y02062D02*
X015968D01*
X01586Y020512D02*
Y020728D01*
X015643Y020138D02*
Y021102D01*
X016076Y020138D02*
Y021102D01*
X015643Y020138D02*
X016076Y020138D01*
X015643Y021102D02*
X016076D01*
X01641Y016968D02*
Y017172D01*
X016308Y01707D02*
X016512D01*
X015258Y01622D02*
X015462D01*
X01536Y016118D02*
Y016322D01*
X011621Y017231D02*
X011899Y017509D01*
X011621D02*
X011899Y017231D01*
X00991Y015283D02*
Y015657D01*
X009723Y01547D02*
X010097D01*
X008973Y01697D02*
X009347D01*
X00916Y016783D02*
Y017157D01*
X00791Y019823D02*
Y020217D01*
X007713Y02002D02*
X008107D01*
X01341Y015233D02*
Y015607D01*
X013223Y01542D02*
X013597D01*
X007973Y01612D02*
X008347D01*
X00816Y015933D02*
Y016307D01*
X007502Y01612D02*
X007718D01*
X00761Y016012D02*
Y016228D01*
X007826Y015638D02*
Y016602D01*
X007393Y015638D02*
Y016602D01*
X007826Y016602D01*
X007393Y015638D02*
X007826D01*
X00731Y016883D02*
Y017257D01*
X007123Y01707D02*
X007497D01*
X00676Y018883D02*
Y019257D01*
X006573Y01907D02*
X006947D01*
X005523Y02082D02*
X005897D01*
X00571Y020633D02*
Y021007D01*
X00451Y020633D02*
Y021007D01*
X004323Y02082D02*
X004697D01*
X011633Y017897D02*
X011786Y017744D01*
X011633D02*
X011786Y017897D01*
X011522Y017326D02*
X012204Y018008D01*
X011216Y017632D02*
X011898Y018314D01*
X011216Y017632D02*
X011522Y017326D01*
X011898Y018314D02*
X012204Y018008D01*
X01241Y020233D02*
Y020607D01*
X012223Y02042D02*
X012597D01*
X013498Y020364D02*
X013804Y020058D01*
X012816Y019682D02*
X013122Y019376D01*
X013804Y020058D01*
X012816Y019682D02*
X013498Y020364D01*
X013233Y019794D02*
X013386Y019947D01*
X013233D02*
X013386Y019794D01*
X011538Y019798D02*
X011682Y019942D01*
X011538D02*
X011682Y019798D01*
X005073Y02017D02*
X005447D01*
X00526Y019983D02*
Y020357D01*
X029184Y011056D02*
Y010682D01*
X029371Y010869D02*
X028997D01*
X028071Y013919D02*
X027697D01*
X027884Y014106D02*
Y013732D01*
X027387Y010769D02*
X027182D01*
X027284Y010871D02*
Y010666D01*
X028171Y015269D02*
X027797D01*
X027984Y015456D02*
Y015082D01*
X027887Y010769D02*
X027682D01*
X027784Y010871D02*
Y010666D01*
X025487Y013069D02*
X025282D01*
X025384Y013171D02*
Y012966D01*
X025487Y013519D02*
X025282Y013519D01*
X025384Y013621D02*
Y013416D01*
X026492Y010719D02*
X026276D01*
X026384Y010827D02*
Y01061D01*
X026601Y011201D02*
Y010236D01*
X026168Y011201D02*
Y010236D01*
X026601Y011201D02*
X026168Y011201D01*
X026601Y010236D02*
X026168D01*
X025834Y014371D02*
Y014166D01*
X025937Y014269D02*
X025732D01*
X026987Y015119D02*
X026782D01*
X026884Y015221D02*
Y015016D01*
X030623Y014108D02*
X030345Y013829D01*
X030623D02*
X030345Y014108D01*
X032334Y016056D02*
Y015682D01*
X032521Y015869D02*
X032147D01*
X033271Y014369D02*
X032897D01*
X033084Y014556D02*
Y014182D01*
X034334Y011515D02*
Y011122D01*
X034531Y011319D02*
X034137D01*
X028834Y016106D02*
Y015732D01*
X029021Y015919D02*
X028647D01*
X034271Y015219D02*
X033897D01*
X034084Y015406D02*
Y015032D01*
X034742Y015219D02*
X034526D01*
X034634Y015327D02*
Y01511D01*
X034418Y015701D02*
Y014736D01*
X034851Y015701D02*
Y014736D01*
X034418Y014736D01*
X034851Y015701D02*
X034418D01*
X034934Y014456D02*
Y014082D01*
X035121Y014269D02*
X034747D01*
X035484Y012456D02*
Y012082D01*
X035671Y012269D02*
X035297D01*
X036721Y010519D02*
X036347D01*
X036534Y010706D02*
Y010332D01*
X037734Y010706D02*
Y010332D01*
X037921Y010519D02*
X037547D01*
X030611Y013442D02*
X030458Y013595D01*
X030611D02*
X030458Y013442D01*
X030722Y014013D02*
X03004Y013331D01*
X031028Y013706D02*
X030346Y013024D01*
X031028Y013706D02*
X030722Y014013D01*
X030346Y013024D02*
X03004Y013331D01*
X029834Y011106D02*
Y010732D01*
X030021Y010919D02*
X029647D01*
X028746Y010974D02*
X02844Y011281D01*
X029428Y011656D02*
X029122Y011963D01*
X02844Y011281D01*
X029428Y011656D02*
X028746Y010974D01*
X029011Y011545D02*
X028858Y011392D01*
X029011D02*
X028858Y011545D01*
X030707Y011541D02*
X030562Y011396D01*
X030707D02*
X030562Y011541D01*
X037171Y011169D02*
X036797D01*
X036984Y011356D02*
Y010982D01*
D84*
X033767Y021236D02*
X034515D01*
X033767Y020842D02*
X034515D01*
X033767D02*
Y021236D01*
X034515D02*
X034515Y020842D01*
X034067Y023036D02*
X034815D01*
X034067Y022642D02*
X034815D01*
X034067D02*
Y023036D01*
X034815D02*
X034815Y022642D01*
X034067Y022586D02*
X034815D01*
X034067Y022192D02*
X034815D01*
X034067D02*
Y022586D01*
X034815D02*
X034815Y022192D01*
X030545Y02092D02*
X031136Y02092D01*
X030545Y019857D02*
X031136Y019857D01*
Y02092D01*
X030545Y019857D02*
Y02092D01*
X027741Y017044D02*
X030636Y019939D01*
X024845D02*
X027741Y022834D01*
X024845Y019939D02*
X027741Y017044D01*
Y022834D02*
X030636Y019939D01*
X031421Y019788D02*
X03276D01*
X031421D02*
Y02089D01*
X03276D01*
Y019788D02*
Y02089D01*
X031467Y019736D02*
X032215D01*
X031467Y019342D02*
X032215D01*
X031467D02*
Y019736D01*
X032215D02*
X032215Y019342D01*
X033237Y020115D02*
Y020863D01*
X032844Y020115D02*
Y020863D01*
X033237D01*
X032844Y020115D02*
X033237Y020115D01*
X033767Y021686D02*
X034515D01*
X033767Y021292D02*
X034515D01*
X033767D02*
Y021686D01*
X034515D02*
X034515Y021292D01*
X033267Y022192D02*
Y022586D01*
X034015Y022192D02*
Y022586D01*
X033267D02*
X034015D01*
X033267Y022192D02*
X034015D01*
X032844Y021865D02*
X033237Y021865D01*
X032844Y022613D02*
X033237D01*
X032844Y021865D02*
Y022613D01*
X033237Y021865D02*
Y022613D01*
X033767Y022136D02*
X034515D01*
X033767Y021742D02*
X034515D01*
X033767D02*
Y022136D01*
X034515D02*
X034515Y021742D01*
X033294Y022163D02*
X033687Y022163D01*
X033294Y021415D02*
X033687D01*
Y022163D01*
X033294Y021415D02*
Y022163D01*
X031294Y023465D02*
Y024213D01*
X031687Y023465D02*
Y024213D01*
X031294Y023465D02*
X031687D01*
X031294Y024213D02*
X031687Y024213D01*
X028095Y022557D02*
X028686D01*
X028095Y02362D02*
X028686D01*
X028095Y022557D02*
Y02362D01*
X028686Y022557D02*
Y02362D01*
X028591Y017508D02*
X02926Y01684D01*
X03029Y01787D01*
X029622Y018538D02*
X03029Y01787D01*
X028591Y017508D02*
X029622Y018538D01*
X029956Y019156D02*
X030374Y019574D01*
X030708Y018404D02*
X031125Y018822D01*
X030374Y019574D02*
X031125Y018822D01*
X029956Y019156D02*
X030708Y018404D01*
X029706Y018506D02*
X030124Y018924D01*
X030458Y017754D02*
X030875Y018172D01*
X030124Y018924D02*
X030875Y018172D01*
X029706Y018506D02*
X030458Y017754D01*
X026387Y017564D02*
X026916Y017035D01*
X026665Y017843D02*
X027194Y017314D01*
X026916Y017035D02*
X027194Y017314D01*
X026387Y017564D02*
X026665Y017843D01*
X025072Y020044D02*
X025072Y020634D01*
X024009D02*
X024009Y020044D01*
X025072D01*
X024009Y020634D02*
X025072D01*
X024122Y023194D02*
X024122Y023784D01*
X023059D02*
X023059Y023194D01*
X024122D01*
X023059Y023784D02*
X024122D01*
X024295Y018307D02*
X024886D01*
X024295Y01937D02*
X024886Y01937D01*
X024295Y018307D02*
Y01937D01*
X024886Y018307D02*
Y01937D01*
X023295Y019857D02*
X023886D01*
X023295Y02092D02*
X023886Y02092D01*
X023295Y019857D02*
Y02092D01*
X023886Y019857D02*
Y02092D01*
X021309Y026144D02*
Y026734D01*
X022372Y026734D02*
X022372Y026144D01*
X021309Y026144D02*
X022372Y026144D01*
X021309Y026734D02*
X022372Y026734D01*
X021291Y025494D02*
X022391Y025494D01*
X021291Y026084D02*
X022391D01*
X021291Y025494D02*
X021291Y026084D01*
X022391Y025494D02*
Y026084D01*
X028495Y023876D02*
X029086D01*
X028495Y022813D02*
X029086Y022813D01*
X028495Y023876D02*
X028495Y022813D01*
X029086Y022813D02*
Y023876D01*
X029145Y022789D02*
Y023889D01*
X029736Y022789D02*
Y023889D01*
X029145D02*
X029736D01*
X029145Y022789D02*
X029736D01*
X018453Y021989D02*
X018728D01*
X018591Y021851D02*
Y022127D01*
X030068Y023418D02*
X030816D01*
X030068Y023811D02*
X030816D01*
Y023418D02*
Y023811D01*
X030068Y023418D02*
Y023811D01*
X030615Y021313D02*
X032666D01*
X030615Y023365D02*
X032666D01*
X030615Y021313D02*
Y023365D01*
X032666Y021313D02*
Y023365D01*
X02271Y021315D02*
Y022663D01*
Y021315D02*
X024371D01*
Y022663D01*
X02271D02*
X024371D01*
X025858Y023091D02*
X028023D01*
X025858D02*
Y025287D01*
X028023D01*
Y023091D02*
Y025287D01*
X023421Y024528D02*
X02476D01*
Y02615D01*
X023421D02*
X02476D01*
X023421Y024528D02*
Y02615D01*
X022507Y02437D02*
X023374D01*
Y026307D01*
X022507Y02437D02*
Y026307D01*
X023374D01*
X024795Y02587D02*
X025386Y02587D01*
X024795Y024807D02*
X025386Y024807D01*
Y02587D01*
X024795Y024807D02*
Y02587D01*
X017113Y008795D02*
X017861D01*
X017113Y008401D02*
X017861D01*
X017113D02*
Y008795D01*
X017861D02*
X017861Y008401D01*
X017413Y010595D02*
X018161D01*
X017413Y010201D02*
X018161D01*
X017413D02*
Y010595D01*
X018161D02*
X018161Y010201D01*
X017413Y010145D02*
X018161D01*
X017413Y009751D02*
X018161D01*
X017413D02*
Y010145D01*
X018161D02*
X018161Y009751D01*
X013892Y00848D02*
X014482Y00848D01*
X013892Y007417D02*
X014482Y007417D01*
Y00848D01*
X013892Y007417D02*
Y00848D01*
X011087Y004603D02*
X013982Y007498D01*
X008192D02*
X011087Y010393D01*
X008192Y007498D02*
X011087Y004603D01*
Y010393D02*
X013982Y007498D01*
X014768Y007347D02*
X016106D01*
X014768D02*
Y008449D01*
X016106D01*
Y007347D02*
Y008449D01*
X014813Y007295D02*
X015561D01*
X014813Y006901D02*
X015561D01*
X014813D02*
Y007295D01*
X015561D02*
X015561Y006901D01*
X016584Y007674D02*
Y008422D01*
X01619Y007674D02*
Y008422D01*
X016584D01*
X01619Y007674D02*
X016584Y007674D01*
X017113Y009245D02*
X017861D01*
X017113Y008851D02*
X017861D01*
X017113D02*
Y009245D01*
X017861D02*
X017861Y008851D01*
X016613Y009751D02*
Y010145D01*
X017361Y009751D02*
Y010145D01*
X016613D02*
X017361D01*
X016613Y009751D02*
X017361D01*
X01619Y009424D02*
X016584Y009424D01*
X01619Y010172D02*
X016584D01*
X01619Y009424D02*
Y010172D01*
X016584Y009424D02*
Y010172D01*
X017113Y009695D02*
X017861D01*
X017113Y009301D02*
X017861D01*
X017113D02*
Y009695D01*
X017861D02*
X017861Y009301D01*
X01664Y009722D02*
X017034Y009722D01*
X01664Y008974D02*
X017034D01*
Y009722D01*
X01664Y008974D02*
Y009722D01*
X01464Y011024D02*
Y011772D01*
X015034Y011024D02*
Y011772D01*
X01464Y011024D02*
X015034D01*
X01464Y011772D02*
X015034Y011772D01*
X011442Y010117D02*
X012032D01*
X011442Y01118D02*
X012032D01*
X011442Y010117D02*
Y01118D01*
X012032Y010117D02*
Y01118D01*
X011938Y005067D02*
X012606Y004399D01*
X013636Y005429D01*
X012968Y006097D02*
X013636Y005429D01*
X011938Y005067D02*
X012968Y006097D01*
X013302Y006715D02*
X01372Y007133D01*
X014054Y005963D02*
X014472Y006381D01*
X01372Y007133D02*
X014472Y006381D01*
X013302Y006715D02*
X014054Y005963D01*
X013052Y006065D02*
X01347Y006483D01*
X013804Y005313D02*
X014222Y005731D01*
X01347Y006483D02*
X014222Y005731D01*
X013052Y006065D02*
X013804Y005313D01*
X009733Y005123D02*
X010262Y004594D01*
X010012Y005402D02*
X010541Y004873D01*
X010262Y004594D02*
X010541Y004873D01*
X009733Y005123D02*
X010012Y005402D01*
X008418Y007603D02*
X008418Y008193D01*
X007356D02*
X007356Y007603D01*
X008418D01*
X007356Y008193D02*
X008418D01*
X007469Y010753D02*
X007469Y011343D01*
X006406D02*
X006406Y010753D01*
X007469D01*
X006406Y011343D02*
X007469D01*
X007642Y005867D02*
X008232D01*
X007642Y00693D02*
X008232Y00693D01*
X007642Y005867D02*
Y00693D01*
X008232Y005867D02*
Y00693D01*
X006642Y007417D02*
X007232D01*
X006642Y00848D02*
X007232Y00848D01*
X006642Y007417D02*
Y00848D01*
X007232Y007417D02*
Y00848D01*
X004656Y013703D02*
Y014293D01*
X005719Y014293D02*
X005719Y013703D01*
X004656Y013703D02*
X005719Y013703D01*
X004656Y014293D02*
X005719Y014293D01*
X004637Y013053D02*
X005737Y013053D01*
X004637Y013643D02*
X005737D01*
X004637Y013053D02*
X004637Y013643D01*
X005737Y013053D02*
Y013643D01*
X011842Y011435D02*
X012432D01*
X011842Y010372D02*
X012432Y010372D01*
X011842Y011435D02*
X011842Y010372D01*
X012432Y010372D02*
Y011435D01*
X012492Y010348D02*
Y011448D01*
X013082Y010348D02*
Y011448D01*
X012492D02*
X013082D01*
X012492Y010348D02*
X013082D01*
X001799Y009548D02*
X002075D01*
X001937Y00941D02*
Y009686D01*
X013414Y010977D02*
X014162D01*
X013414Y01137D02*
X014162D01*
Y010977D02*
Y01137D01*
X013414Y010977D02*
Y01137D01*
X013961Y008872D02*
X016013D01*
X013961Y010924D02*
X016013D01*
X013961Y008872D02*
Y010924D01*
X016013Y008872D02*
Y010924D01*
X006056Y008874D02*
Y010222D01*
Y008874D02*
X007718D01*
Y010222D01*
X006056D02*
X007718D01*
X009204Y01065D02*
X01137D01*
X009204D02*
Y012846D01*
X01137D01*
Y01065D02*
Y012846D01*
X006768Y012087D02*
X008106D01*
Y013709D01*
X006768D02*
X008106D01*
X006768Y012087D02*
Y013709D01*
X005854Y01193D02*
X00672D01*
Y013867D01*
X005854Y01193D02*
Y013867D01*
X00672D01*
X008142Y01343D02*
X008732Y01343D01*
X008142Y012367D02*
X008732Y012367D01*
Y01343D01*
X008142Y012367D02*
Y01343D01*
X008428Y023686D02*
X009491D01*
X008428Y023095D02*
X009491D01*
X008428Y023686D02*
X008428Y023095D01*
X009491D02*
X009491Y023686D01*
X015013Y027315D02*
X015407Y027315D01*
X015013Y026567D02*
X015407D01*
Y027315D01*
X015013Y026567D02*
Y027315D01*
X014313D02*
X014707Y027315D01*
X014313Y026567D02*
X014707D01*
Y027315D01*
X014313Y026567D02*
Y027315D01*
X016629Y022939D02*
Y024042D01*
X015291D02*
X016629D01*
X015291Y022939D02*
Y024042D01*
Y022939D02*
X016629D01*
X016663Y023117D02*
X017057Y023117D01*
X016663Y023865D02*
X017057D01*
X016663Y023117D02*
Y023865D01*
X017057Y023117D02*
Y023865D01*
X016084Y022887D02*
X016084Y022494D01*
X015336D02*
Y022887D01*
Y022494D02*
X016084D01*
X015336Y022887D02*
X016084D01*
X005041Y026745D02*
Y027336D01*
X003978Y026745D02*
Y027336D01*
X005041D01*
X003978Y026745D02*
X005041D01*
X004028Y027336D02*
X005091D01*
X004028Y026745D02*
X005091D01*
X004028Y027336D02*
X004028Y026745D01*
X005091D02*
X005091Y027336D01*
X00516Y026745D02*
X00626D01*
X00516Y027336D02*
X00626D01*
X00516Y026745D02*
Y027336D01*
X00626Y026745D02*
Y027336D01*
X007577Y025272D02*
X008443D01*
X007577D02*
Y027209D01*
X008443Y025272D02*
Y027209D01*
X007577D02*
X008443D01*
X011243Y026875D02*
X011995Y026123D01*
X010825Y026458D02*
X011577Y025706D01*
X010825Y026458D02*
X011243Y026875D01*
X011577Y025706D02*
X011995Y026123D01*
X012915Y027222D02*
X013505D01*
X012915Y026159D02*
X013505Y026159D01*
X012915Y026159D02*
Y027222D01*
X013505Y026159D02*
Y027222D01*
X012265Y026141D02*
Y027241D01*
X012855Y026141D02*
Y027241D01*
X012265D02*
X012855D01*
X012265Y026141D02*
X012855D01*
X018484Y024337D02*
X018484Y023944D01*
X017736D02*
Y024337D01*
Y023944D02*
X018484D01*
X017736Y024337D02*
X018484D01*
Y024787D02*
X018484Y024394D01*
X017736D02*
Y024787D01*
Y024394D02*
X018484D01*
X017736Y024787D02*
X018484D01*
X024245Y023984D02*
Y026897D01*
X01881D02*
X024245D01*
X01881Y023984D02*
Y026897D01*
Y023984D02*
X024245D01*
X018484Y025237D02*
X018484Y024844D01*
X017736D02*
Y025237D01*
Y024844D02*
X018484D01*
X017736Y025237D02*
X018484D01*
X017186Y025294D02*
X017934D01*
X017186Y025687D02*
X017934D01*
Y025294D02*
Y025687D01*
X017186Y025294D02*
Y025687D01*
X018784Y026137D02*
X018784Y025744D01*
X018036D02*
Y026137D01*
Y025744D02*
X018784D01*
X018036Y026137D02*
X018784D01*
Y025687D02*
X018784Y025294D01*
X018036D02*
Y025687D01*
Y025294D02*
X018784D01*
X018036Y025687D02*
X018784D01*
X017213Y024517D02*
Y025265D01*
X017607Y024517D02*
Y025265D01*
X017213Y024517D02*
X017607D01*
X017213Y025265D02*
X017607Y025265D01*
X017107Y024967D02*
Y025715D01*
X016713Y024967D02*
Y025715D01*
X017107D01*
X016713Y024967D02*
X017107Y024967D01*
X009236Y021937D02*
X009236Y021544D01*
X009984D02*
Y021937D01*
X009236D02*
X009984D01*
X009236Y021544D02*
X009984D01*
X008365Y021959D02*
X008955D01*
X008365Y023022D02*
X008955Y023022D01*
X008365Y023022D02*
X008365Y021959D01*
X008955Y023022D02*
X008955Y021959D01*
X006878Y022995D02*
X007941D01*
X006878Y023586D02*
X007941D01*
Y022995D02*
Y023586D01*
X006878Y022995D02*
Y023586D01*
X006428Y025736D02*
X007491D01*
X006428Y025145D02*
X007491D01*
X006428Y025736D02*
X006428Y025145D01*
X007491D02*
X007491Y025736D01*
X007579Y02533D02*
Y026952D01*
X006241D02*
X007579D01*
X006241Y02533D02*
Y026952D01*
Y02533D02*
X007579D01*
X006428Y025795D02*
X007491D01*
X006428Y026386D02*
X007491D01*
X007491Y025795D01*
X006428D02*
X006428Y026386D01*
X011211Y02286D02*
X011879Y022191D01*
X011211Y02286D02*
X012241Y02389D01*
X012909Y023221D01*
X011879Y022191D02*
X012909Y023221D01*
X010743Y025242D02*
Y027439D01*
X008577D02*
X010743D01*
X008577Y025242D02*
Y027439D01*
Y025242D02*
X010743D01*
X006079Y023616D02*
Y024965D01*
Y023616D02*
X007741D01*
Y024965D01*
X006079D02*
X007741D01*
X001772Y024291D02*
X002048D01*
X00191Y024153D02*
Y024428D01*
X01186Y020645D02*
X014755Y023541D01*
X008965D02*
X01186Y026436D01*
X008965Y023541D02*
X01186Y020645D01*
Y026436D02*
X014755Y023541D01*
X014434Y024415D02*
X016486D01*
X014434Y026466D02*
X016486D01*
X014434Y024415D02*
Y026466D01*
X016486Y024415D02*
Y026466D01*
X013228Y021395D02*
Y021986D01*
X014291Y021395D02*
Y021986D01*
X013228D02*
X014291D01*
X013228Y021395D02*
X014291D01*
X014465Y024172D02*
X015055Y024172D01*
X014465Y023109D02*
X015055Y023109D01*
Y024172D01*
X014465Y023109D02*
Y024172D01*
X033816Y007653D02*
X032753D01*
X033816Y008243D02*
X032753D01*
X033816Y007653D02*
X033816Y008243D01*
X032753D02*
X032753Y007653D01*
X027231Y004024D02*
X026837Y004024D01*
X027231Y004772D02*
X026837D01*
Y004024D01*
X027231Y004772D02*
Y004024D01*
X027931D02*
X027537Y004024D01*
X027931Y004772D02*
X027537D01*
Y004024D01*
X027931Y004772D02*
Y004024D01*
X025615Y008399D02*
Y007297D01*
X026953D02*
X025615D01*
X026953Y008399D02*
Y007297D01*
Y008399D02*
X025615D01*
X025581Y008222D02*
X025187Y008222D01*
X025581Y007474D02*
X025187D01*
X025581Y008222D02*
Y007474D01*
X025187Y008222D02*
Y007474D01*
X02616Y008451D02*
X02616Y008845D01*
X026908D02*
Y008451D01*
Y008845D02*
X02616D01*
X026908Y008451D02*
X02616D01*
X037203Y004593D02*
Y004003D01*
X038266Y004593D02*
Y004003D01*
X037203D01*
X038266Y004593D02*
X037203D01*
X038216Y004003D02*
X037153D01*
X038216Y004593D02*
X037153D01*
X038216Y004003D02*
X038216Y004593D01*
X037153D02*
X037153Y004003D01*
X037084Y004593D02*
X035984D01*
X037084Y004003D02*
X035984D01*
X037084Y004593D02*
Y004003D01*
X035984Y004593D02*
Y004003D01*
X034667Y006067D02*
X033801D01*
X034667D02*
Y00413D01*
X033801Y006067D02*
Y00413D01*
X034667D02*
X033801D01*
X031001Y004463D02*
X03025Y005215D01*
X031419Y004881D02*
X030667Y005633D01*
X031419Y004881D02*
X031001Y004463D01*
X030667Y005633D02*
X03025Y005215D01*
X029329Y004117D02*
X028739D01*
X029329Y00518D02*
X028739Y00518D01*
X029329Y00518D02*
Y004117D01*
X028739Y00518D02*
Y004117D01*
X029979Y005198D02*
Y004098D01*
X029389Y005198D02*
Y004098D01*
X029979D02*
X029389D01*
X029979Y005198D02*
X029389D01*
X02376Y007001D02*
X02376Y007395D01*
X024508D02*
Y007001D01*
Y007395D02*
X02376D01*
X024508Y007001D02*
X02376D01*
Y006551D02*
X02376Y006945D01*
X024508D02*
Y006551D01*
Y006945D02*
X02376D01*
X024508Y006551D02*
X02376D01*
X017999Y007355D02*
Y004441D01*
X023434D02*
X017999D01*
X023434Y007355D02*
Y004441D01*
Y007355D02*
X017999D01*
X02376Y006101D02*
X02376Y006495D01*
X024508D02*
Y006101D01*
Y006495D02*
X02376D01*
X024508Y006101D02*
X02376D01*
X025058Y006045D02*
X02431D01*
X025058Y005651D02*
X02431D01*
Y006045D02*
Y005651D01*
X025058Y006045D02*
Y005651D01*
X02346Y005201D02*
X02346Y005595D01*
X024208D02*
Y005201D01*
Y005595D02*
X02346D01*
X024208Y005201D02*
X02346D01*
Y005651D02*
X02346Y006045D01*
X024208D02*
Y005651D01*
Y006045D02*
X02346D01*
X024208Y005651D02*
X02346D01*
X025031Y006822D02*
Y006074D01*
X024637Y006822D02*
Y006074D01*
X025031Y006822D02*
X024637D01*
X025031Y006074D02*
X024637Y006074D01*
X025137Y006372D02*
Y005624D01*
X025531Y006372D02*
Y005624D01*
X025137D01*
X025531Y006372D02*
X025137Y006372D01*
X033008Y009401D02*
X033008Y009795D01*
X03226D02*
Y009401D01*
X033008D02*
X03226D01*
X033008Y009795D02*
X03226D01*
X033879Y00938D02*
X033289D01*
X033879Y008317D02*
X033289Y008317D01*
X033879Y008317D02*
X033879Y00938D01*
X033289Y008317D02*
X033289Y00938D01*
X035366Y008343D02*
X034303D01*
X035366Y007753D02*
X034303D01*
Y008343D02*
Y007753D01*
X035366Y008343D02*
Y007753D01*
X035816Y005603D02*
X034753D01*
X035816Y006193D02*
X034753D01*
X035816Y005603D02*
X035816Y006193D01*
X034753D02*
X034753Y005603D01*
X034665Y006009D02*
Y004387D01*
X036003D02*
X034665D01*
X036003Y006009D02*
Y004387D01*
Y006009D02*
X034665D01*
X035816Y005543D02*
X034753D01*
X035816Y004953D02*
X034753D01*
X034753Y005543D01*
X035816D02*
X035816Y004953D01*
X031033Y008479D02*
X030365Y009147D01*
X031033Y008479D02*
X030003Y007449D01*
X029335Y008117D01*
X030365Y009147D02*
X029335Y008117D01*
X031502Y006096D02*
Y0039D01*
X033667D02*
X031502D01*
X033667Y006096D02*
Y0039D01*
Y006096D02*
X031502D01*
X036165Y007722D02*
Y006374D01*
Y007722D02*
X034503D01*
Y006374D01*
X036165D02*
X034503D01*
X040472Y007048D02*
X040196D01*
X040334Y007186D02*
Y00691D01*
X030384Y010693D02*
X027489Y007798D01*
X033279D02*
X030384Y004903D01*
X033279Y007798D02*
X030384Y010693D01*
Y004903D02*
X027489Y007798D01*
X02781Y006924D02*
X025759D01*
X02781Y004872D02*
X025759D01*
X02781Y006924D02*
Y004872D01*
X025759Y006924D02*
Y004872D01*
X029016Y009943D02*
Y009353D01*
X027953Y009943D02*
Y009353D01*
X029016D02*
X027953D01*
X029016Y009943D02*
X027953D01*
X027779Y007167D02*
X027189Y007167D01*
X027779Y00823D02*
X027189Y00823D01*
Y007167D01*
X027779Y00823D02*
Y007167D01*
X012765Y021002D02*
X013355D01*
X012765Y019939D02*
X013355Y019939D01*
X012765Y019939D02*
Y021002D01*
X013355Y019939D02*
Y021002D01*
X014065Y016889D02*
Y017952D01*
X014655Y016889D02*
Y017952D01*
X014065Y016889D02*
X014655Y016889D01*
X014065Y017952D02*
X014655Y017952D01*
X016297Y019294D02*
X017123D01*
X016297Y018546D02*
Y019294D01*
Y018546D02*
X017123D01*
Y019294D01*
X014763Y020196D02*
Y020944D01*
X015157Y020196D02*
Y020944D01*
X014763Y020196D02*
X015157D01*
X014763Y020944D02*
X015157Y020944D01*
X013728Y015775D02*
Y016365D01*
X014791Y015775D02*
Y016365D01*
X013728D02*
X014791D01*
X013728Y015775D02*
X014791D01*
X016136Y017994D02*
Y020046D01*
X014084Y017994D02*
Y020046D01*
X016136D01*
X014084Y017994D02*
X016136D01*
X014263Y020196D02*
Y020944D01*
X014657Y020196D02*
Y020944D01*
X014263Y020196D02*
X014657D01*
X014263Y020944D02*
X014657Y020944D01*
X017275Y020705D02*
X020445D01*
Y017535D02*
Y020705D01*
X017275Y017535D02*
X020445D01*
X017275D02*
Y020705D01*
X017234Y018467D02*
X017234Y018073D01*
X016486D02*
Y018467D01*
Y018073D02*
X017234D01*
X016486Y018467D02*
X017234D01*
Y018017D02*
X017234Y017623D01*
X016486D02*
Y018017D01*
Y017623D02*
X017234D01*
X016486Y018017D02*
X017234D01*
X016179Y016469D02*
Y017571D01*
X014841D02*
X016179D01*
X014841Y016469D02*
Y017571D01*
Y016469D02*
X016179D01*
X016213Y016696D02*
X016607Y016696D01*
X016213Y017444D02*
X016607D01*
X016213Y016696D02*
Y017444D01*
X016607Y016696D02*
Y017444D01*
X015734Y016417D02*
X015734Y016023D01*
X014986D02*
Y016417D01*
Y016023D02*
X015734D01*
X014986Y016417D02*
X015734D01*
X01176Y020265D02*
X014655Y01737D01*
X008865D02*
X01176Y014475D01*
X008865Y01737D02*
X01176Y020265D01*
Y014475D02*
X014655Y01737D01*
X009378Y015765D02*
X010441D01*
X009378Y015175D02*
X010441D01*
X009378Y015765D02*
X009378Y015175D01*
X010441D02*
X010441Y015765D01*
X008865Y016439D02*
Y017502D01*
X009455Y016439D02*
Y017502D01*
X008865Y016439D02*
X009455Y016439D01*
X008865Y017502D02*
X009455Y017502D01*
X007477Y019052D02*
X008343D01*
X007477D02*
Y020989D01*
X008343Y019052D02*
Y020989D01*
X007477D02*
X008343D01*
X012878Y015125D02*
X013941D01*
X012878Y015715D02*
X013941D01*
X013941Y015125D02*
X013941Y015715D01*
X012878Y015125D02*
Y015715D01*
X008455Y015589D02*
Y016652D01*
X007865Y015589D02*
Y016652D01*
X008455Y016652D01*
X007865Y015589D02*
X008455D01*
X006778Y016775D02*
X007841D01*
X006778Y017365D02*
X007841D01*
Y016775D02*
Y017365D01*
X006778Y016775D02*
Y017365D01*
X005929Y018744D02*
X007591D01*
Y017396D02*
Y018744D01*
X005929Y017396D02*
X007591D01*
X005929D02*
Y018744D01*
X006228Y019365D02*
X007291D01*
X006228Y018775D02*
X007291D01*
X006228Y019365D02*
X006228Y018775D01*
X007291D02*
X007291Y019365D01*
X00626Y021115D02*
X00626Y020525D01*
X00516Y021115D02*
X00516Y020525D01*
X00516Y021115D02*
X00626D01*
X00516Y020525D02*
X00626D01*
X003978D02*
X005041D01*
X003978Y021115D02*
X005041D01*
X003978Y020525D02*
Y021115D01*
X005041Y020525D02*
Y021115D01*
X012115Y01987D02*
X012705D01*
X012115Y02097D02*
X012705D01*
Y01987D02*
Y02097D01*
X012115Y01987D02*
Y02097D01*
X011161Y016639D02*
X011829Y015971D01*
X011161Y016639D02*
X012191Y017669D01*
X012859Y017001D01*
X011829Y015971D02*
X012859Y017001D01*
X007479Y019359D02*
Y020981D01*
X006141D02*
X007479D01*
X006141Y019359D02*
Y020981D01*
Y019359D02*
X007479D01*
X00191Y017932D02*
Y018208D01*
X001772Y01807D02*
X002048D01*
X011206Y019995D02*
X011735Y019466D01*
X011485Y020274D02*
X012014Y019745D01*
X011735Y019466D02*
X012014Y019745D01*
X011206Y019995D02*
X011485Y020274D01*
X008527Y019022D02*
X010693D01*
X008527D02*
Y021218D01*
X010693D01*
Y019022D02*
Y021218D01*
X005791Y019875D02*
X005791Y020465D01*
X004728D02*
X004728Y019875D01*
X005791D01*
X004728Y020465D02*
X005791D01*
X029479Y010337D02*
X028889D01*
X029479Y0114D02*
X028889Y0114D01*
X029479Y0114D02*
Y010337D01*
X028889Y0114D02*
Y010337D01*
X028179Y01445D02*
Y013387D01*
X027589Y01445D02*
Y013387D01*
X028179Y01445D02*
X027589Y01445D01*
X028179Y013387D02*
X027589Y013387D01*
X025948Y012045D02*
X025121D01*
X025948Y012793D02*
Y012045D01*
Y012793D02*
X025121D01*
Y012045D01*
X027481Y011143D02*
Y010395D01*
X027087Y011143D02*
Y010395D01*
X027481Y011143D02*
X027087D01*
X027481Y010395D02*
X027087Y010395D01*
X028516Y015564D02*
Y014973D01*
X027453Y015564D02*
Y014973D01*
X028516D02*
X027453D01*
X028516Y015564D02*
X027453D01*
X026109Y013344D02*
Y011293D01*
X02816Y013344D02*
Y011293D01*
X026109D01*
X02816Y013344D02*
X026109D01*
X027981Y011143D02*
Y010395D01*
X027587Y011143D02*
Y010395D01*
X027981Y011143D02*
X027587D01*
X027981Y010395D02*
X027587Y010395D01*
X024969Y010634D02*
X0218D01*
Y013803D02*
Y010634D01*
X024969Y013803D02*
X0218D01*
X024969D02*
Y010634D01*
X02501Y012872D02*
X02501Y013265D01*
X025758D02*
Y012872D01*
Y013265D02*
X02501D01*
X025758Y012872D02*
X02501D01*
Y013322D02*
X02501Y013715D01*
X025758D02*
Y013322D01*
Y013715D02*
X02501D01*
X025758Y013322D02*
X02501D01*
X026065Y01487D02*
Y013767D01*
X027403D02*
X026065D01*
X027403Y01487D02*
Y013767D01*
Y01487D02*
X026065D01*
X026031Y014643D02*
X025637Y014643D01*
X026031Y013894D02*
X025637D01*
X026031Y014643D02*
Y013894D01*
X025637Y014643D02*
Y013894D01*
X02651Y014922D02*
X02651Y015315D01*
X027258D02*
Y014922D01*
Y015315D02*
X02651D01*
X027258Y014922D02*
X02651D01*
X030484Y011073D02*
X027589Y013969D01*
X033379D02*
X030484Y016864D01*
X033379Y013969D02*
X030484Y011073D01*
Y016864D02*
X027589Y013969D01*
X032866Y015573D02*
X031803D01*
X032866Y016164D02*
X031803D01*
X032866Y015573D02*
X032866Y016164D01*
X031803D02*
X031803Y015573D01*
X033379Y0149D02*
Y013837D01*
X032789Y0149D02*
Y013837D01*
X033379Y0149D02*
X032789Y0149D01*
X033379Y013837D02*
X032789Y013837D01*
X034767Y012287D02*
X033901D01*
X034767D02*
Y01035D01*
X033901Y012287D02*
Y01035D01*
X034767D02*
X033901D01*
X029366Y016214D02*
X028303D01*
X029366Y015623D02*
X028303D01*
X028303Y016214D02*
X028303Y015623D01*
X029366Y016214D02*
Y015623D01*
X033789Y01575D02*
Y014687D01*
X034379Y01575D02*
Y014687D01*
X033789Y014687D01*
X034379Y01575D02*
X033789D01*
X035466Y014564D02*
X034403D01*
X035466Y013973D02*
X034403D01*
Y014564D02*
Y013973D01*
X035466Y014564D02*
Y013973D01*
X036315Y012594D02*
X034653D01*
Y013943D02*
Y012594D01*
X036315Y013943D02*
X034653D01*
X036315D02*
Y012594D01*
X036016Y011973D02*
X034953D01*
X036016Y012564D02*
X034953D01*
X036016Y011973D02*
X036016Y012564D01*
X034953D02*
X034953Y011973D01*
X035984Y010223D02*
X035984Y010814D01*
X037084Y010223D02*
X037084Y010814D01*
X037084Y010223D02*
X035984D01*
X037084Y010814D02*
X035984D01*
X038266D02*
X037203D01*
X038266Y010223D02*
X037203D01*
X038266Y010814D02*
Y010223D01*
X037203Y010814D02*
Y010223D01*
X030129Y011469D02*
X029539D01*
X030129Y010369D02*
X029539D01*
Y011469D02*
Y010369D01*
X030129Y011469D02*
Y010369D01*
X031083Y014699D02*
X030415Y015368D01*
X031083Y014699D02*
X030053Y013669D01*
X029385Y014338D01*
X030415Y015368D02*
X029385Y014338D01*
X034765Y01198D02*
Y010358D01*
X036103D02*
X034765D01*
X036103Y01198D02*
Y010358D01*
Y01198D02*
X034765D01*
X040334Y013406D02*
Y013131D01*
X040472Y013269D02*
X040196D01*
X031038Y011343D02*
X030509Y011872D01*
X030759Y011065D02*
X030231Y011594D01*
X030509Y011872D02*
X030231Y011594D01*
X031038Y011343D02*
X030759Y011065D01*
X033717Y012317D02*
X031551D01*
X033717D02*
Y01012D01*
X031551D01*
Y012317D02*
Y01012D01*
X036453Y011464D02*
X036453Y010873D01*
X037516D02*
X037516Y011464D01*
X036453D01*
X037516Y010873D02*
X036453D01*
M02*
