G04*
G04 #@! TF.GenerationSoftware,Altium Limited,Altium Designer,22.10.1 (41)*
G04*
G04 Layer_Color=8388736*
%FSTAX24Y24*%
%MOIN*%
G70*
G04*
G04 #@! TF.SameCoordinates,45835C21-10AE-4195-8F6B-2C948669ADBA*
G04*
G04*
G04 #@! TF.FilePolarity,Negative*
G04*
G01*
G75*
%ADD57R,0.1458X0.0671*%
G04:AMPARAMS|DCode=58|XSize=33.2mil|YSize=31.6mil|CornerRadius=0mil|HoleSize=0mil|Usage=FLASHONLY|Rotation=225.000|XOffset=0mil|YOffset=0mil|HoleType=Round|Shape=Rectangle|*
%AMROTATEDRECTD58*
4,1,4,0.0006,0.0229,0.0229,0.0006,-0.0006,-0.0229,-0.0229,-0.0006,0.0006,0.0229,0.0*
%
%ADD58ROTATEDRECTD58*%

G04:AMPARAMS|DCode=59|XSize=33.2mil|YSize=31.6mil|CornerRadius=0mil|HoleSize=0mil|Usage=FLASHONLY|Rotation=135.000|XOffset=0mil|YOffset=0mil|HoleType=Round|Shape=Rectangle|*
%AMROTATEDRECTD59*
4,1,4,0.0229,-0.0006,0.0006,-0.0229,-0.0229,0.0006,-0.0006,0.0229,0.0229,-0.0006,0.0*
%
%ADD59ROTATEDRECTD59*%

%ADD60R,0.0316X0.0332*%
%ADD61R,0.0332X0.0316*%
%ADD62R,0.0474X0.0434*%
%ADD63R,0.0434X0.0474*%
%ADD64R,0.0316X0.0277*%
%ADD65R,0.0277X0.0316*%
%ADD66R,0.0415X0.0454*%
%ADD67R,0.0375X0.0316*%
%ADD68R,0.0316X0.0375*%
%ADD69R,0.0454X0.0415*%
G04:AMPARAMS|DCode=70|XSize=55.6mil|YSize=31.2mil|CornerRadius=6.9mil|HoleSize=0mil|Usage=FLASHONLY|Rotation=0.000|XOffset=0mil|YOffset=0mil|HoleType=Round|Shape=RoundedRectangle|*
%AMROUNDEDRECTD70*
21,1,0.0556,0.0174,0,0,0.0*
21,1,0.0418,0.0312,0,0,0.0*
1,1,0.0138,0.0209,-0.0087*
1,1,0.0138,-0.0209,-0.0087*
1,1,0.0138,-0.0209,0.0087*
1,1,0.0138,0.0209,0.0087*
%
%ADD70ROUNDEDRECTD70*%
%ADD71R,0.0237X0.0828*%
%ADD72R,0.0316X0.0828*%
%ADD73R,0.1104X0.1104*%
G04:AMPARAMS|DCode=74|XSize=39.9mil|YSize=18.2mil|CornerRadius=5.3mil|HoleSize=0mil|Usage=FLASHONLY|Rotation=0.000|XOffset=0mil|YOffset=0mil|HoleType=Round|Shape=RoundedRectangle|*
%AMROUNDEDRECTD74*
21,1,0.0399,0.0077,0,0,0.0*
21,1,0.0293,0.0182,0,0,0.0*
1,1,0.0106,0.0147,-0.0038*
1,1,0.0106,-0.0147,-0.0038*
1,1,0.0106,-0.0147,0.0038*
1,1,0.0106,0.0147,0.0038*
%
%ADD74ROUNDEDRECTD74*%
G04:AMPARAMS|DCode=75|XSize=39.9mil|YSize=18.2mil|CornerRadius=5.3mil|HoleSize=0mil|Usage=FLASHONLY|Rotation=90.000|XOffset=0mil|YOffset=0mil|HoleType=Round|Shape=RoundedRectangle|*
%AMROUNDEDRECTD75*
21,1,0.0399,0.0077,0,0,90.0*
21,1,0.0293,0.0182,0,0,90.0*
1,1,0.0106,0.0038,0.0147*
1,1,0.0106,0.0038,-0.0147*
1,1,0.0106,-0.0038,-0.0147*
1,1,0.0106,-0.0038,0.0147*
%
%ADD75ROUNDEDRECTD75*%
G04:AMPARAMS|DCode=76|XSize=19.8mil|YSize=55.2mil|CornerRadius=0mil|HoleSize=0mil|Usage=FLASHONLY|Rotation=225.000|XOffset=0mil|YOffset=0mil|HoleType=Round|Shape=Round|*
%AMOVALD76*
21,1,0.0354,0.0198,0.0000,0.0000,315.0*
1,1,0.0198,-0.0125,0.0125*
1,1,0.0198,0.0125,-0.0125*
%
%ADD76OVALD76*%

G04:AMPARAMS|DCode=77|XSize=19.8mil|YSize=55.2mil|CornerRadius=0mil|HoleSize=0mil|Usage=FLASHONLY|Rotation=135.000|XOffset=0mil|YOffset=0mil|HoleType=Round|Shape=Round|*
%AMOVALD77*
21,1,0.0354,0.0198,0.0000,0.0000,225.0*
1,1,0.0198,0.0125,0.0125*
1,1,0.0198,-0.0125,-0.0125*
%
%ADD77OVALD77*%

%ADD78C,0.0615*%
%ADD79R,0.0615X0.0615*%
%ADD80C,0.1182*%
%ADD81C,0.0320*%
D57*
X033323Y016521D02*
D03*
Y017584D02*
D03*
Y015458D02*
D03*
X049976Y016521D02*
D03*
Y017584D02*
D03*
Y015458D02*
D03*
X033323Y022742D02*
D03*
Y023805D02*
D03*
Y021679D02*
D03*
X049976Y022742D02*
D03*
Y023805D02*
D03*
Y021679D02*
D03*
X033323Y028962D02*
D03*
Y030025D02*
D03*
Y027899D02*
D03*
X049976Y028962D02*
D03*
Y030025D02*
D03*
Y027899D02*
D03*
X033323Y035183D02*
D03*
Y036246D02*
D03*
Y03412D02*
D03*
X049976Y035183D02*
D03*
Y036246D02*
D03*
Y03412D02*
D03*
X033323Y041403D02*
D03*
Y042466D02*
D03*
Y04034D02*
D03*
X049976Y041403D02*
D03*
Y042466D02*
D03*
Y04034D02*
D03*
D58*
X027045Y015949D02*
D03*
X0268Y016194D02*
D03*
X043699Y015949D02*
D03*
X043454Y016194D02*
D03*
X027045Y022169D02*
D03*
X0268Y022414D02*
D03*
X043699Y022169D02*
D03*
X043454Y022414D02*
D03*
X027045Y02839D02*
D03*
X0268Y028635D02*
D03*
X043699Y02839D02*
D03*
X043454Y028635D02*
D03*
X027045Y03461D02*
D03*
X0268Y034855D02*
D03*
X043699Y03461D02*
D03*
X043454Y034855D02*
D03*
X027045Y040831D02*
D03*
X0268Y041076D02*
D03*
X043699Y040831D02*
D03*
X043454Y041076D02*
D03*
D59*
X02675Y018749D02*
D03*
X026995Y018994D02*
D03*
X043404Y018749D02*
D03*
X043649Y018994D02*
D03*
X02675Y024969D02*
D03*
X026995Y025214D02*
D03*
X043404Y024969D02*
D03*
X043649Y025214D02*
D03*
X02675Y03119D02*
D03*
X026995Y031435D02*
D03*
X043404Y03119D02*
D03*
X043649Y031435D02*
D03*
X02675Y03741D02*
D03*
X026995Y037655D02*
D03*
X043404Y03741D02*
D03*
X043649Y037655D02*
D03*
X02675Y043631D02*
D03*
X026995Y043876D02*
D03*
X043404Y043631D02*
D03*
X043649Y043876D02*
D03*
D60*
X0298Y016321D02*
D03*
X030146D02*
D03*
X0298Y016771D02*
D03*
X030146D02*
D03*
X030496Y017571D02*
D03*
X03015D02*
D03*
X046453Y016321D02*
D03*
X0468D02*
D03*
X046453Y016771D02*
D03*
X0468D02*
D03*
X04715Y017571D02*
D03*
X046803D02*
D03*
X0298Y022542D02*
D03*
X030146D02*
D03*
X0298Y022992D02*
D03*
X030146D02*
D03*
X030496Y023792D02*
D03*
X03015D02*
D03*
X046453Y022542D02*
D03*
X0468D02*
D03*
X046453Y022992D02*
D03*
X0468D02*
D03*
X04715Y023792D02*
D03*
X046803D02*
D03*
X0298Y028762D02*
D03*
X030146D02*
D03*
X0298Y029212D02*
D03*
X030146D02*
D03*
X030496Y030012D02*
D03*
X03015D02*
D03*
X046453Y028762D02*
D03*
X0468D02*
D03*
X046453Y029212D02*
D03*
X0468D02*
D03*
X04715Y030012D02*
D03*
X046803D02*
D03*
X0298Y034983D02*
D03*
X030146D02*
D03*
X0298Y035433D02*
D03*
X030146D02*
D03*
X030496Y036233D02*
D03*
X03015D02*
D03*
X046453Y034983D02*
D03*
X0468D02*
D03*
X046453Y035433D02*
D03*
X0468D02*
D03*
X04715Y036233D02*
D03*
X046803D02*
D03*
X0298Y041203D02*
D03*
X030146D02*
D03*
X0298Y041653D02*
D03*
X030146D02*
D03*
X030496Y042453D02*
D03*
X03015D02*
D03*
X046453Y041203D02*
D03*
X0468D02*
D03*
X046453Y041653D02*
D03*
X0468D02*
D03*
X04715Y042453D02*
D03*
X046803D02*
D03*
D61*
X030973Y017598D02*
D03*
Y017945D02*
D03*
X028523Y019195D02*
D03*
Y018848D02*
D03*
X047626Y017598D02*
D03*
Y017945D02*
D03*
X045176Y019195D02*
D03*
Y018848D02*
D03*
X030973Y023819D02*
D03*
Y024165D02*
D03*
X028523Y025415D02*
D03*
Y025069D02*
D03*
X047626Y023819D02*
D03*
Y024165D02*
D03*
X045176Y025415D02*
D03*
Y025069D02*
D03*
X030973Y030039D02*
D03*
Y030385D02*
D03*
X028523Y031635D02*
D03*
Y031289D02*
D03*
X047626Y030039D02*
D03*
Y030385D02*
D03*
X045176Y031635D02*
D03*
Y031289D02*
D03*
X030973Y03626D02*
D03*
Y036606D02*
D03*
X028523Y037856D02*
D03*
Y03751D02*
D03*
X047626Y03626D02*
D03*
Y036606D02*
D03*
X045176Y037856D02*
D03*
Y03751D02*
D03*
X030973Y04248D02*
D03*
Y042826D02*
D03*
X028523Y044076D02*
D03*
Y04373D02*
D03*
X047626Y04248D02*
D03*
Y042826D02*
D03*
X045176Y044076D02*
D03*
Y04373D02*
D03*
D62*
X021323Y014956D02*
D03*
Y015487D02*
D03*
X024673Y019187D02*
D03*
Y018656D02*
D03*
X037976Y014956D02*
D03*
Y015487D02*
D03*
X041326Y019187D02*
D03*
Y018656D02*
D03*
X021323Y021176D02*
D03*
Y021708D02*
D03*
X024673Y025408D02*
D03*
Y024876D02*
D03*
X037976Y021176D02*
D03*
Y021708D02*
D03*
X041326Y025408D02*
D03*
Y024876D02*
D03*
X021323Y027397D02*
D03*
Y027928D02*
D03*
X024673Y031628D02*
D03*
Y031097D02*
D03*
X037976Y027397D02*
D03*
Y027928D02*
D03*
X041326Y031628D02*
D03*
Y031097D02*
D03*
X021323Y033617D02*
D03*
Y034148D02*
D03*
X024673Y037848D02*
D03*
Y037317D02*
D03*
X037976Y033617D02*
D03*
Y034148D02*
D03*
X041326Y037848D02*
D03*
Y037317D02*
D03*
X021323Y039837D02*
D03*
Y040369D02*
D03*
X024673Y044069D02*
D03*
Y043537D02*
D03*
X037976Y039837D02*
D03*
Y040369D02*
D03*
X041326Y044069D02*
D03*
Y043537D02*
D03*
D63*
X022189Y013821D02*
D03*
X021657D02*
D03*
X020804Y018721D02*
D03*
X020273D02*
D03*
X018973D02*
D03*
X018441D02*
D03*
X038842Y013821D02*
D03*
X038311D02*
D03*
X037458Y018721D02*
D03*
X036926D02*
D03*
X035626D02*
D03*
X035095D02*
D03*
X022189Y020042D02*
D03*
X021657D02*
D03*
X020804Y024942D02*
D03*
X020273D02*
D03*
X018973D02*
D03*
X018441D02*
D03*
X038842Y020042D02*
D03*
X038311D02*
D03*
X037458Y024942D02*
D03*
X036926D02*
D03*
X035626D02*
D03*
X035095D02*
D03*
X022189Y026262D02*
D03*
X021657D02*
D03*
X020804Y031162D02*
D03*
X020273D02*
D03*
X018973D02*
D03*
X018441D02*
D03*
X038842Y026262D02*
D03*
X038311D02*
D03*
X037458Y031162D02*
D03*
X036926D02*
D03*
X035626D02*
D03*
X035095D02*
D03*
X022189Y032483D02*
D03*
X021657D02*
D03*
X020804Y037383D02*
D03*
X020273D02*
D03*
X018973D02*
D03*
X018441D02*
D03*
X038842Y032483D02*
D03*
X038311D02*
D03*
X037458Y037383D02*
D03*
X036926D02*
D03*
X035626D02*
D03*
X035095D02*
D03*
X022189Y038703D02*
D03*
X021657D02*
D03*
X020804Y043603D02*
D03*
X020273D02*
D03*
X018973D02*
D03*
X018441D02*
D03*
X038842Y038703D02*
D03*
X038311D02*
D03*
X037458Y043603D02*
D03*
X036926D02*
D03*
X035626D02*
D03*
X035095D02*
D03*
D64*
X029323Y017121D02*
D03*
Y016775D02*
D03*
X028823Y017225D02*
D03*
Y017571D02*
D03*
X045976Y017121D02*
D03*
Y016775D02*
D03*
X045476Y017225D02*
D03*
Y017571D02*
D03*
X029323Y023342D02*
D03*
Y022995D02*
D03*
X028823Y023445D02*
D03*
Y023792D02*
D03*
X045976Y023342D02*
D03*
Y022995D02*
D03*
X045476Y023445D02*
D03*
Y023792D02*
D03*
X029323Y029562D02*
D03*
Y029216D02*
D03*
X028823Y029666D02*
D03*
Y030012D02*
D03*
X045976Y029562D02*
D03*
Y029216D02*
D03*
X045476Y029666D02*
D03*
Y030012D02*
D03*
X029323Y035783D02*
D03*
Y035436D02*
D03*
X028823Y035886D02*
D03*
Y036233D02*
D03*
X045976Y035783D02*
D03*
Y035436D02*
D03*
X045476Y035886D02*
D03*
Y036233D02*
D03*
X029323Y042003D02*
D03*
Y041657D02*
D03*
X028823Y042107D02*
D03*
Y042453D02*
D03*
X045976Y042003D02*
D03*
Y041657D02*
D03*
X045476Y042107D02*
D03*
Y042453D02*
D03*
D65*
X029646Y017571D02*
D03*
X0293D02*
D03*
X0463D02*
D03*
X045953D02*
D03*
X029646Y023792D02*
D03*
X0293D02*
D03*
X0463D02*
D03*
X045953D02*
D03*
X029646Y030012D02*
D03*
X0293D02*
D03*
X0463D02*
D03*
X045953D02*
D03*
X029646Y036233D02*
D03*
X0293D02*
D03*
X0463D02*
D03*
X045953D02*
D03*
X029646Y042453D02*
D03*
X0293D02*
D03*
X0463D02*
D03*
X045953D02*
D03*
D66*
X026129Y013821D02*
D03*
X025617D02*
D03*
X042782D02*
D03*
X042271D02*
D03*
X026129Y020042D02*
D03*
X025617D02*
D03*
X042782D02*
D03*
X042271D02*
D03*
X026129Y026262D02*
D03*
X025617D02*
D03*
X042782D02*
D03*
X042271D02*
D03*
X026129Y032483D02*
D03*
X025617D02*
D03*
X042782D02*
D03*
X042271D02*
D03*
X026129Y038703D02*
D03*
X025617D02*
D03*
X042782D02*
D03*
X042271D02*
D03*
D67*
X022149Y014371D02*
D03*
X021697D02*
D03*
X038803D02*
D03*
X03835D02*
D03*
X022149Y020592D02*
D03*
X021697D02*
D03*
X038803D02*
D03*
X03835D02*
D03*
X022149Y026812D02*
D03*
X021697D02*
D03*
X038803D02*
D03*
X03835D02*
D03*
X022149Y033033D02*
D03*
X021697D02*
D03*
X038803D02*
D03*
X03835D02*
D03*
X022149Y039253D02*
D03*
X021697D02*
D03*
X038803D02*
D03*
X03835D02*
D03*
D68*
X028023Y018795D02*
D03*
Y019248D02*
D03*
X025923Y019148D02*
D03*
Y018695D02*
D03*
X044676Y018795D02*
D03*
Y019248D02*
D03*
X042576Y019148D02*
D03*
Y018695D02*
D03*
X028023Y025015D02*
D03*
Y025468D02*
D03*
X025923Y025368D02*
D03*
Y024915D02*
D03*
X044676Y025015D02*
D03*
Y025468D02*
D03*
X042576Y025368D02*
D03*
Y024915D02*
D03*
X028023Y031236D02*
D03*
Y031689D02*
D03*
X025923Y031589D02*
D03*
Y031136D02*
D03*
X044676Y031236D02*
D03*
Y031689D02*
D03*
X042576Y031589D02*
D03*
Y031136D02*
D03*
X028023Y037456D02*
D03*
Y037909D02*
D03*
X025923Y037809D02*
D03*
Y037356D02*
D03*
X044676Y037456D02*
D03*
Y037909D02*
D03*
X042576Y037809D02*
D03*
Y037356D02*
D03*
X028023Y043677D02*
D03*
Y04413D02*
D03*
X025923Y04403D02*
D03*
Y043577D02*
D03*
X044676Y043677D02*
D03*
Y04413D02*
D03*
X042576Y04403D02*
D03*
Y043577D02*
D03*
D69*
X025323Y019127D02*
D03*
Y018615D02*
D03*
X041976Y019127D02*
D03*
Y018615D02*
D03*
X025323Y025348D02*
D03*
Y024836D02*
D03*
X041976Y025348D02*
D03*
Y024836D02*
D03*
X025323Y031568D02*
D03*
Y031056D02*
D03*
X041976Y031568D02*
D03*
Y031056D02*
D03*
X025323Y037789D02*
D03*
Y037277D02*
D03*
X041976Y037789D02*
D03*
Y037277D02*
D03*
X025323Y044009D02*
D03*
Y043497D02*
D03*
X041976Y044009D02*
D03*
Y043497D02*
D03*
D70*
X020029Y016845D02*
D03*
Y016471D02*
D03*
Y016097D02*
D03*
X021017D02*
D03*
X021017Y016471D02*
D03*
X021017Y016845D02*
D03*
X036682D02*
D03*
Y016471D02*
D03*
Y016097D02*
D03*
X037671D02*
D03*
X037671Y016471D02*
D03*
X037671Y016845D02*
D03*
X020029Y023066D02*
D03*
Y022692D02*
D03*
Y022318D02*
D03*
X021017D02*
D03*
X021017Y022692D02*
D03*
X021017Y023066D02*
D03*
X036682D02*
D03*
Y022692D02*
D03*
Y022318D02*
D03*
X037671D02*
D03*
X037671Y022692D02*
D03*
X037671Y023066D02*
D03*
X020029Y029286D02*
D03*
Y028912D02*
D03*
Y028538D02*
D03*
X021017D02*
D03*
X021017Y028912D02*
D03*
X021017Y029286D02*
D03*
X036682D02*
D03*
Y028912D02*
D03*
Y028538D02*
D03*
X037671D02*
D03*
X037671Y028912D02*
D03*
X037671Y029286D02*
D03*
X020029Y035507D02*
D03*
Y035133D02*
D03*
Y034759D02*
D03*
X021017D02*
D03*
X021017Y035133D02*
D03*
X021017Y035507D02*
D03*
X036682D02*
D03*
Y035133D02*
D03*
Y034759D02*
D03*
X037671D02*
D03*
X037671Y035133D02*
D03*
X037671Y035507D02*
D03*
X020029Y041727D02*
D03*
Y041353D02*
D03*
Y040979D02*
D03*
X021017D02*
D03*
X021017Y041353D02*
D03*
X021017Y041727D02*
D03*
X036682D02*
D03*
Y041353D02*
D03*
Y040979D02*
D03*
X037671D02*
D03*
X037671Y041353D02*
D03*
X037671Y041727D02*
D03*
D71*
X027823Y015321D02*
D03*
X044476D02*
D03*
X027823Y021542D02*
D03*
X044476D02*
D03*
X027823Y027762D02*
D03*
X044476D02*
D03*
X027823Y033983D02*
D03*
X044476D02*
D03*
X027823Y040203D02*
D03*
X044476D02*
D03*
D72*
X028197Y015321D02*
D03*
X027449D02*
D03*
X04485D02*
D03*
X044102D02*
D03*
X028197Y021542D02*
D03*
X027449D02*
D03*
X04485D02*
D03*
X044102D02*
D03*
X028197Y027762D02*
D03*
X027449D02*
D03*
X04485D02*
D03*
X044102D02*
D03*
X028197Y033983D02*
D03*
X027449D02*
D03*
X04485D02*
D03*
X044102D02*
D03*
X028197Y040203D02*
D03*
X027449D02*
D03*
X04485D02*
D03*
X044102D02*
D03*
D73*
X027567Y017454D02*
D03*
X04422D02*
D03*
X027567Y023674D02*
D03*
X04422D02*
D03*
X027567Y029895D02*
D03*
X04422D02*
D03*
X027567Y036115D02*
D03*
X04422D02*
D03*
X027567Y042335D02*
D03*
X04422D02*
D03*
D74*
X028334Y017847D02*
D03*
Y01765D02*
D03*
Y017454D02*
D03*
Y017257D02*
D03*
Y01706D02*
D03*
X026799D02*
D03*
Y017257D02*
D03*
Y017454D02*
D03*
Y01765D02*
D03*
Y017847D02*
D03*
X044988D02*
D03*
Y01765D02*
D03*
Y017454D02*
D03*
Y017257D02*
D03*
Y01706D02*
D03*
X043452D02*
D03*
Y017257D02*
D03*
Y017454D02*
D03*
Y01765D02*
D03*
Y017847D02*
D03*
X028334Y024068D02*
D03*
Y023871D02*
D03*
Y023674D02*
D03*
Y023477D02*
D03*
Y02328D02*
D03*
X026799D02*
D03*
Y023477D02*
D03*
Y023674D02*
D03*
Y023871D02*
D03*
Y024068D02*
D03*
X044988D02*
D03*
Y023871D02*
D03*
Y023674D02*
D03*
Y023477D02*
D03*
Y02328D02*
D03*
X043452D02*
D03*
Y023477D02*
D03*
Y023674D02*
D03*
Y023871D02*
D03*
Y024068D02*
D03*
X028334Y030288D02*
D03*
Y030091D02*
D03*
Y029895D02*
D03*
Y029698D02*
D03*
Y029501D02*
D03*
X026799D02*
D03*
Y029698D02*
D03*
Y029895D02*
D03*
Y030091D02*
D03*
Y030288D02*
D03*
X044988D02*
D03*
Y030091D02*
D03*
Y029895D02*
D03*
Y029698D02*
D03*
Y029501D02*
D03*
X043452D02*
D03*
Y029698D02*
D03*
Y029895D02*
D03*
Y030091D02*
D03*
Y030288D02*
D03*
X028334Y036509D02*
D03*
Y036312D02*
D03*
Y036115D02*
D03*
Y035918D02*
D03*
Y035721D02*
D03*
X026799D02*
D03*
Y035918D02*
D03*
Y036115D02*
D03*
Y036312D02*
D03*
Y036509D02*
D03*
X044988D02*
D03*
Y036312D02*
D03*
Y036115D02*
D03*
Y035918D02*
D03*
Y035721D02*
D03*
X043452D02*
D03*
Y035918D02*
D03*
Y036115D02*
D03*
Y036312D02*
D03*
Y036509D02*
D03*
X028334Y042729D02*
D03*
Y042532D02*
D03*
Y042335D02*
D03*
Y042139D02*
D03*
Y041942D02*
D03*
X026799D02*
D03*
Y042139D02*
D03*
Y042335D02*
D03*
Y042532D02*
D03*
Y042729D02*
D03*
X044988D02*
D03*
Y042532D02*
D03*
Y042335D02*
D03*
Y042139D02*
D03*
Y041942D02*
D03*
X043452D02*
D03*
Y042139D02*
D03*
Y042335D02*
D03*
Y042532D02*
D03*
Y042729D02*
D03*
D75*
X027173Y018221D02*
D03*
X02737D02*
D03*
X027567D02*
D03*
X027763D02*
D03*
X02796D02*
D03*
Y016686D02*
D03*
X027763D02*
D03*
X027567D02*
D03*
X02737D02*
D03*
X027173D02*
D03*
X043826Y018221D02*
D03*
X044023D02*
D03*
X04422D02*
D03*
X044417D02*
D03*
X044614D02*
D03*
Y016686D02*
D03*
X044417D02*
D03*
X04422D02*
D03*
X044023D02*
D03*
X043826D02*
D03*
X027173Y024442D02*
D03*
X02737D02*
D03*
X027567D02*
D03*
X027763D02*
D03*
X02796D02*
D03*
Y022906D02*
D03*
X027763D02*
D03*
X027567D02*
D03*
X02737D02*
D03*
X027173D02*
D03*
X043826Y024442D02*
D03*
X044023D02*
D03*
X04422D02*
D03*
X044417D02*
D03*
X044614D02*
D03*
Y022906D02*
D03*
X044417D02*
D03*
X04422D02*
D03*
X044023D02*
D03*
X043826D02*
D03*
X027173Y030662D02*
D03*
X02737D02*
D03*
X027567D02*
D03*
X027763D02*
D03*
X02796D02*
D03*
Y029127D02*
D03*
X027763D02*
D03*
X027567D02*
D03*
X02737D02*
D03*
X027173D02*
D03*
X043826Y030662D02*
D03*
X044023D02*
D03*
X04422D02*
D03*
X044417D02*
D03*
X044614D02*
D03*
Y029127D02*
D03*
X044417D02*
D03*
X04422D02*
D03*
X044023D02*
D03*
X043826D02*
D03*
X027173Y036883D02*
D03*
X02737D02*
D03*
X027567D02*
D03*
X027763D02*
D03*
X02796D02*
D03*
Y035347D02*
D03*
X027763D02*
D03*
X027567D02*
D03*
X02737D02*
D03*
X027173D02*
D03*
X043826Y036883D02*
D03*
X044023D02*
D03*
X04422D02*
D03*
X044417D02*
D03*
X044614D02*
D03*
Y035347D02*
D03*
X044417D02*
D03*
X04422D02*
D03*
X044023D02*
D03*
X043826D02*
D03*
X027173Y043103D02*
D03*
X02737D02*
D03*
X027567D02*
D03*
X027763D02*
D03*
X02796D02*
D03*
Y041568D02*
D03*
X027763D02*
D03*
X027567D02*
D03*
X02737D02*
D03*
X027173D02*
D03*
X043826Y043103D02*
D03*
X044023D02*
D03*
X04422D02*
D03*
X044417D02*
D03*
X044614D02*
D03*
Y041568D02*
D03*
X044417D02*
D03*
X04422D02*
D03*
X044023D02*
D03*
X043826D02*
D03*
D76*
X02444Y013773D02*
D03*
X02458Y013912D02*
D03*
X024719Y014051D02*
D03*
X024858Y01419D02*
D03*
X024997Y014329D02*
D03*
X025136Y014469D02*
D03*
X025276Y014608D02*
D03*
X025415Y014747D02*
D03*
X025554Y014886D02*
D03*
X025693Y015025D02*
D03*
X025832Y015165D02*
D03*
X025972Y015304D02*
D03*
X023605Y01767D02*
D03*
X023466Y017531D02*
D03*
X023327Y017392D02*
D03*
X023188Y017252D02*
D03*
X023049Y017113D02*
D03*
X022909Y016974D02*
D03*
X02277Y016835D02*
D03*
X022631Y016696D02*
D03*
X022492Y016556D02*
D03*
X022353Y016417D02*
D03*
X022213Y016278D02*
D03*
X022074Y016139D02*
D03*
X041094Y013773D02*
D03*
X041233Y013912D02*
D03*
X041372Y014051D02*
D03*
X041512Y01419D02*
D03*
X041651Y014329D02*
D03*
X04179Y014469D02*
D03*
X041929Y014608D02*
D03*
X042068Y014747D02*
D03*
X042208Y014886D02*
D03*
X042347Y015025D02*
D03*
X042486Y015165D02*
D03*
X042625Y015304D02*
D03*
X040259Y01767D02*
D03*
X04012Y017531D02*
D03*
X03998Y017392D02*
D03*
X039841Y017252D02*
D03*
X039702Y017113D02*
D03*
X039563Y016974D02*
D03*
X039424Y016835D02*
D03*
X039285Y016696D02*
D03*
X039145Y016556D02*
D03*
X039006Y016417D02*
D03*
X038867Y016278D02*
D03*
X038728Y016139D02*
D03*
X02444Y019993D02*
D03*
X02458Y020132D02*
D03*
X024719Y020271D02*
D03*
X024858Y020411D02*
D03*
X024997Y02055D02*
D03*
X025136Y020689D02*
D03*
X025276Y020828D02*
D03*
X025415Y020967D02*
D03*
X025554Y021107D02*
D03*
X025693Y021246D02*
D03*
X025832Y021385D02*
D03*
X025972Y021524D02*
D03*
X023605Y023891D02*
D03*
X023466Y023751D02*
D03*
X023327Y023612D02*
D03*
X023188Y023473D02*
D03*
X023049Y023334D02*
D03*
X022909Y023195D02*
D03*
X02277Y023055D02*
D03*
X022631Y022916D02*
D03*
X022492Y022777D02*
D03*
X022353Y022638D02*
D03*
X022213Y022499D02*
D03*
X022074Y022359D02*
D03*
X041094Y019993D02*
D03*
X041233Y020132D02*
D03*
X041372Y020271D02*
D03*
X041512Y020411D02*
D03*
X041651Y02055D02*
D03*
X04179Y020689D02*
D03*
X041929Y020828D02*
D03*
X042068Y020967D02*
D03*
X042208Y021107D02*
D03*
X042347Y021246D02*
D03*
X042486Y021385D02*
D03*
X042625Y021524D02*
D03*
X040259Y023891D02*
D03*
X04012Y023751D02*
D03*
X03998Y023612D02*
D03*
X039841Y023473D02*
D03*
X039702Y023334D02*
D03*
X039563Y023195D02*
D03*
X039424Y023055D02*
D03*
X039285Y022916D02*
D03*
X039145Y022777D02*
D03*
X039006Y022638D02*
D03*
X038867Y022499D02*
D03*
X038728Y022359D02*
D03*
X02444Y026214D02*
D03*
X02458Y026353D02*
D03*
X024719Y026492D02*
D03*
X024858Y026631D02*
D03*
X024997Y02677D02*
D03*
X025136Y02691D02*
D03*
X025276Y027049D02*
D03*
X025415Y027188D02*
D03*
X025554Y027327D02*
D03*
X025693Y027466D02*
D03*
X025832Y027605D02*
D03*
X025972Y027745D02*
D03*
X023605Y030111D02*
D03*
X023466Y029972D02*
D03*
X023327Y029833D02*
D03*
X023188Y029693D02*
D03*
X023049Y029554D02*
D03*
X022909Y029415D02*
D03*
X02277Y029276D02*
D03*
X022631Y029137D02*
D03*
X022492Y028997D02*
D03*
X022353Y028858D02*
D03*
X022213Y028719D02*
D03*
X022074Y02858D02*
D03*
X041094Y026214D02*
D03*
X041233Y026353D02*
D03*
X041372Y026492D02*
D03*
X041512Y026631D02*
D03*
X041651Y02677D02*
D03*
X04179Y02691D02*
D03*
X041929Y027049D02*
D03*
X042068Y027188D02*
D03*
X042208Y027327D02*
D03*
X042347Y027466D02*
D03*
X042486Y027605D02*
D03*
X042625Y027745D02*
D03*
X040259Y030111D02*
D03*
X04012Y029972D02*
D03*
X03998Y029833D02*
D03*
X039841Y029693D02*
D03*
X039702Y029554D02*
D03*
X039563Y029415D02*
D03*
X039424Y029276D02*
D03*
X039285Y029137D02*
D03*
X039145Y028997D02*
D03*
X039006Y028858D02*
D03*
X038867Y028719D02*
D03*
X038728Y02858D02*
D03*
X02444Y032434D02*
D03*
X02458Y032573D02*
D03*
X024719Y032712D02*
D03*
X024858Y032852D02*
D03*
X024997Y032991D02*
D03*
X025136Y03313D02*
D03*
X025276Y033269D02*
D03*
X025415Y033408D02*
D03*
X025554Y033548D02*
D03*
X025693Y033687D02*
D03*
X025832Y033826D02*
D03*
X025972Y033965D02*
D03*
X023605Y036331D02*
D03*
X023466Y036192D02*
D03*
X023327Y036053D02*
D03*
X023188Y035914D02*
D03*
X023049Y035775D02*
D03*
X022909Y035635D02*
D03*
X02277Y035496D02*
D03*
X022631Y035357D02*
D03*
X022492Y035218D02*
D03*
X022353Y035079D02*
D03*
X022213Y03494D02*
D03*
X022074Y0348D02*
D03*
X041094Y032434D02*
D03*
X041233Y032573D02*
D03*
X041372Y032712D02*
D03*
X041512Y032852D02*
D03*
X041651Y032991D02*
D03*
X04179Y03313D02*
D03*
X041929Y033269D02*
D03*
X042068Y033408D02*
D03*
X042208Y033548D02*
D03*
X042347Y033687D02*
D03*
X042486Y033826D02*
D03*
X042625Y033965D02*
D03*
X040259Y036331D02*
D03*
X04012Y036192D02*
D03*
X03998Y036053D02*
D03*
X039841Y035914D02*
D03*
X039702Y035775D02*
D03*
X039563Y035635D02*
D03*
X039424Y035496D02*
D03*
X039285Y035357D02*
D03*
X039145Y035218D02*
D03*
X039006Y035079D02*
D03*
X038867Y03494D02*
D03*
X038728Y0348D02*
D03*
X02444Y038654D02*
D03*
X02458Y038794D02*
D03*
X024719Y038933D02*
D03*
X024858Y039072D02*
D03*
X024997Y039211D02*
D03*
X025136Y03935D02*
D03*
X025276Y03949D02*
D03*
X025415Y039629D02*
D03*
X025554Y039768D02*
D03*
X025693Y039907D02*
D03*
X025832Y040046D02*
D03*
X025972Y040186D02*
D03*
X023605Y042552D02*
D03*
X023466Y042413D02*
D03*
X023327Y042274D02*
D03*
X023188Y042134D02*
D03*
X023049Y041995D02*
D03*
X022909Y041856D02*
D03*
X02277Y041717D02*
D03*
X022631Y041578D02*
D03*
X022492Y041438D02*
D03*
X022353Y041299D02*
D03*
X022213Y04116D02*
D03*
X022074Y041021D02*
D03*
X041094Y038654D02*
D03*
X041233Y038794D02*
D03*
X041372Y038933D02*
D03*
X041512Y039072D02*
D03*
X041651Y039211D02*
D03*
X04179Y03935D02*
D03*
X041929Y03949D02*
D03*
X042068Y039629D02*
D03*
X042208Y039768D02*
D03*
X042347Y039907D02*
D03*
X042486Y040046D02*
D03*
X042625Y040186D02*
D03*
X040259Y042552D02*
D03*
X04012Y042413D02*
D03*
X03998Y042274D02*
D03*
X039841Y042134D02*
D03*
X039702Y041995D02*
D03*
X039563Y041856D02*
D03*
X039424Y041717D02*
D03*
X039285Y041578D02*
D03*
X039145Y041438D02*
D03*
X039006Y041299D02*
D03*
X038867Y04116D02*
D03*
X038728Y041021D02*
D03*
D77*
X025972Y016139D02*
D03*
X025832Y016278D02*
D03*
X025693Y016417D02*
D03*
X025554Y016556D02*
D03*
X025415Y016696D02*
D03*
X025276Y016835D02*
D03*
X025136Y016974D02*
D03*
X024997Y017113D02*
D03*
X024858Y017252D02*
D03*
X024719Y017392D02*
D03*
X02458Y017531D02*
D03*
X02444Y01767D02*
D03*
X022074Y015304D02*
D03*
X022213Y015165D02*
D03*
X022353Y015025D02*
D03*
X022492Y014886D02*
D03*
X022631Y014747D02*
D03*
X02277Y014608D02*
D03*
X022909Y014469D02*
D03*
X023049Y014329D02*
D03*
X023188Y01419D02*
D03*
X023327Y014051D02*
D03*
X023466Y013912D02*
D03*
X023605Y013773D02*
D03*
X042625Y016139D02*
D03*
X042486Y016278D02*
D03*
X042347Y016417D02*
D03*
X042208Y016556D02*
D03*
X042068Y016696D02*
D03*
X041929Y016835D02*
D03*
X04179Y016974D02*
D03*
X041651Y017113D02*
D03*
X041512Y017252D02*
D03*
X041372Y017392D02*
D03*
X041233Y017531D02*
D03*
X041094Y01767D02*
D03*
X038728Y015304D02*
D03*
X038867Y015165D02*
D03*
X039006Y015025D02*
D03*
X039145Y014886D02*
D03*
X039285Y014747D02*
D03*
X039424Y014608D02*
D03*
X039563Y014469D02*
D03*
X039702Y014329D02*
D03*
X039841Y01419D02*
D03*
X03998Y014051D02*
D03*
X04012Y013912D02*
D03*
X040259Y013773D02*
D03*
X025972Y022359D02*
D03*
X025832Y022499D02*
D03*
X025693Y022638D02*
D03*
X025554Y022777D02*
D03*
X025415Y022916D02*
D03*
X025276Y023055D02*
D03*
X025136Y023195D02*
D03*
X024997Y023334D02*
D03*
X024858Y023473D02*
D03*
X024719Y023612D02*
D03*
X02458Y023751D02*
D03*
X02444Y023891D02*
D03*
X022074Y021524D02*
D03*
X022213Y021385D02*
D03*
X022353Y021246D02*
D03*
X022492Y021107D02*
D03*
X022631Y020967D02*
D03*
X02277Y020828D02*
D03*
X022909Y020689D02*
D03*
X023049Y02055D02*
D03*
X023188Y020411D02*
D03*
X023327Y020271D02*
D03*
X023466Y020132D02*
D03*
X023605Y019993D02*
D03*
X042625Y022359D02*
D03*
X042486Y022499D02*
D03*
X042347Y022638D02*
D03*
X042208Y022777D02*
D03*
X042068Y022916D02*
D03*
X041929Y023055D02*
D03*
X04179Y023195D02*
D03*
X041651Y023334D02*
D03*
X041512Y023473D02*
D03*
X041372Y023612D02*
D03*
X041233Y023751D02*
D03*
X041094Y023891D02*
D03*
X038728Y021524D02*
D03*
X038867Y021385D02*
D03*
X039006Y021246D02*
D03*
X039145Y021107D02*
D03*
X039285Y020967D02*
D03*
X039424Y020828D02*
D03*
X039563Y020689D02*
D03*
X039702Y02055D02*
D03*
X039841Y020411D02*
D03*
X03998Y020271D02*
D03*
X04012Y020132D02*
D03*
X040259Y019993D02*
D03*
X025972Y02858D02*
D03*
X025832Y028719D02*
D03*
X025693Y028858D02*
D03*
X025554Y028997D02*
D03*
X025415Y029137D02*
D03*
X025276Y029276D02*
D03*
X025136Y029415D02*
D03*
X024997Y029554D02*
D03*
X024858Y029693D02*
D03*
X024719Y029833D02*
D03*
X02458Y029972D02*
D03*
X02444Y030111D02*
D03*
X022074Y027745D02*
D03*
X022213Y027605D02*
D03*
X022353Y027466D02*
D03*
X022492Y027327D02*
D03*
X022631Y027188D02*
D03*
X02277Y027049D02*
D03*
X022909Y02691D02*
D03*
X023049Y02677D02*
D03*
X023188Y026631D02*
D03*
X023327Y026492D02*
D03*
X023466Y026353D02*
D03*
X023605Y026214D02*
D03*
X042625Y02858D02*
D03*
X042486Y028719D02*
D03*
X042347Y028858D02*
D03*
X042208Y028997D02*
D03*
X042068Y029137D02*
D03*
X041929Y029276D02*
D03*
X04179Y029415D02*
D03*
X041651Y029554D02*
D03*
X041512Y029693D02*
D03*
X041372Y029833D02*
D03*
X041233Y029972D02*
D03*
X041094Y030111D02*
D03*
X038728Y027745D02*
D03*
X038867Y027605D02*
D03*
X039006Y027466D02*
D03*
X039145Y027327D02*
D03*
X039285Y027188D02*
D03*
X039424Y027049D02*
D03*
X039563Y02691D02*
D03*
X039702Y02677D02*
D03*
X039841Y026631D02*
D03*
X03998Y026492D02*
D03*
X04012Y026353D02*
D03*
X040259Y026214D02*
D03*
X025972Y0348D02*
D03*
X025832Y03494D02*
D03*
X025693Y035079D02*
D03*
X025554Y035218D02*
D03*
X025415Y035357D02*
D03*
X025276Y035496D02*
D03*
X025136Y035635D02*
D03*
X024997Y035775D02*
D03*
X024858Y035914D02*
D03*
X024719Y036053D02*
D03*
X02458Y036192D02*
D03*
X02444Y036331D02*
D03*
X022074Y033965D02*
D03*
X022213Y033826D02*
D03*
X022353Y033687D02*
D03*
X022492Y033548D02*
D03*
X022631Y033408D02*
D03*
X02277Y033269D02*
D03*
X022909Y03313D02*
D03*
X023049Y032991D02*
D03*
X023188Y032852D02*
D03*
X023327Y032712D02*
D03*
X023466Y032573D02*
D03*
X023605Y032434D02*
D03*
X042625Y0348D02*
D03*
X042486Y03494D02*
D03*
X042347Y035079D02*
D03*
X042208Y035218D02*
D03*
X042068Y035357D02*
D03*
X041929Y035496D02*
D03*
X04179Y035635D02*
D03*
X041651Y035775D02*
D03*
X041512Y035914D02*
D03*
X041372Y036053D02*
D03*
X041233Y036192D02*
D03*
X041094Y036331D02*
D03*
X038728Y033965D02*
D03*
X038867Y033826D02*
D03*
X039006Y033687D02*
D03*
X039145Y033548D02*
D03*
X039285Y033408D02*
D03*
X039424Y033269D02*
D03*
X039563Y03313D02*
D03*
X039702Y032991D02*
D03*
X039841Y032852D02*
D03*
X03998Y032712D02*
D03*
X04012Y032573D02*
D03*
X040259Y032434D02*
D03*
X025972Y041021D02*
D03*
X025832Y04116D02*
D03*
X025693Y041299D02*
D03*
X025554Y041438D02*
D03*
X025415Y041578D02*
D03*
X025276Y041717D02*
D03*
X025136Y041856D02*
D03*
X024997Y041995D02*
D03*
X024858Y042134D02*
D03*
X024719Y042274D02*
D03*
X02458Y042413D02*
D03*
X02444Y042552D02*
D03*
X022074Y040186D02*
D03*
X022213Y040046D02*
D03*
X022353Y039907D02*
D03*
X022492Y039768D02*
D03*
X022631Y039629D02*
D03*
X02277Y03949D02*
D03*
X022909Y03935D02*
D03*
X023049Y039211D02*
D03*
X023188Y039072D02*
D03*
X023327Y038933D02*
D03*
X023466Y038794D02*
D03*
X023605Y038654D02*
D03*
X042625Y041021D02*
D03*
X042486Y04116D02*
D03*
X042347Y041299D02*
D03*
X042208Y041438D02*
D03*
X042068Y041578D02*
D03*
X041929Y041717D02*
D03*
X04179Y041856D02*
D03*
X041651Y041995D02*
D03*
X041512Y042134D02*
D03*
X041372Y042274D02*
D03*
X041233Y042413D02*
D03*
X041094Y042552D02*
D03*
X038728Y040186D02*
D03*
X038867Y040046D02*
D03*
X039006Y039907D02*
D03*
X039145Y039768D02*
D03*
X039285Y039629D02*
D03*
X039424Y03949D02*
D03*
X039563Y03935D02*
D03*
X039702Y039211D02*
D03*
X039841Y039072D02*
D03*
X03998Y038933D02*
D03*
X04012Y038794D02*
D03*
X040259Y038654D02*
D03*
D78*
X022279Y018328D02*
D03*
Y019115D02*
D03*
X023067Y018328D02*
D03*
X038933D02*
D03*
Y019115D02*
D03*
X03972Y018328D02*
D03*
X022279Y024548D02*
D03*
Y025336D02*
D03*
X023067Y024548D02*
D03*
X038933D02*
D03*
Y025336D02*
D03*
X03972Y024548D02*
D03*
X022279Y030769D02*
D03*
Y031556D02*
D03*
X023067Y030769D02*
D03*
X038933D02*
D03*
Y031556D02*
D03*
X03972Y030769D02*
D03*
X022279Y036989D02*
D03*
Y037776D02*
D03*
X023067Y036989D02*
D03*
X038933D02*
D03*
Y037776D02*
D03*
X03972Y036989D02*
D03*
X022279Y04321D02*
D03*
Y043997D02*
D03*
X023067Y04321D02*
D03*
X038933D02*
D03*
Y043997D02*
D03*
X03972Y04321D02*
D03*
D79*
X023067Y019115D02*
D03*
X03972D02*
D03*
X023067Y025336D02*
D03*
X03972D02*
D03*
X023067Y031556D02*
D03*
X03972D02*
D03*
X023067Y037776D02*
D03*
X03972D02*
D03*
X023067Y043997D02*
D03*
X03972D02*
D03*
D80*
X018444Y017371D02*
D03*
X018444Y0156D02*
D03*
X035097Y017371D02*
D03*
X035097Y0156D02*
D03*
X018444Y023592D02*
D03*
X018444Y02182D02*
D03*
X035097Y023592D02*
D03*
X035097Y02182D02*
D03*
X018444Y029812D02*
D03*
X018444Y028041D02*
D03*
X035097Y029812D02*
D03*
X035097Y028041D02*
D03*
X018444Y036033D02*
D03*
X018444Y034261D02*
D03*
X035097Y036033D02*
D03*
X035097Y034261D02*
D03*
X018444Y042253D02*
D03*
X018444Y040482D02*
D03*
X035097Y042253D02*
D03*
X035097Y040482D02*
D03*
D81*
X024873Y017871D02*
D03*
X018773Y018171D02*
D03*
X017923Y019171D02*
D03*
X018473Y016471D02*
D03*
X020273D02*
D03*
X031473Y015671D02*
D03*
X033273Y018371D02*
D03*
Y014771D02*
D03*
Y013871D02*
D03*
X032373Y018371D02*
D03*
Y015671D02*
D03*
Y014771D02*
D03*
Y013871D02*
D03*
X031473Y018371D02*
D03*
Y016571D02*
D03*
Y014771D02*
D03*
Y013871D02*
D03*
X030573Y016571D02*
D03*
Y015671D02*
D03*
Y014771D02*
D03*
Y013871D02*
D03*
X029673Y014771D02*
D03*
Y013871D02*
D03*
X028773D02*
D03*
X027873D02*
D03*
X026973D02*
D03*
X018873D02*
D03*
X017973D02*
D03*
X028373Y015921D02*
D03*
X028673Y015521D02*
D03*
Y014971D02*
D03*
X026973Y015521D02*
D03*
Y014971D02*
D03*
X027323Y014671D02*
D03*
X031473Y019221D02*
D03*
X032323D02*
D03*
X033223D02*
D03*
X029973Y017921D02*
D03*
X031279Y017304D02*
D03*
X031934Y016794D02*
D03*
X031927Y017633D02*
D03*
X033873Y016046D02*
D03*
X033273D02*
D03*
X032673D02*
D03*
Y016997D02*
D03*
X033273D02*
D03*
X033873D02*
D03*
X031323Y017921D02*
D03*
X022923Y015421D02*
D03*
X028223Y016371D02*
D03*
X028823D02*
D03*
X029373Y017921D02*
D03*
X030573D02*
D03*
X030073Y017221D02*
D03*
X030673D02*
D03*
X020373Y017271D02*
D03*
X020773D02*
D03*
X026423Y016771D02*
D03*
X026373Y017521D02*
D03*
X026026Y016632D02*
D03*
X025223Y015871D02*
D03*
X024473Y016671D02*
D03*
X026073Y015771D02*
D03*
X023123Y016271D02*
D03*
X022573Y015721D02*
D03*
X026423Y018371D02*
D03*
X029423Y015871D02*
D03*
Y016371D02*
D03*
X019623Y018721D02*
D03*
X025323Y019171D02*
D03*
X023923D02*
D03*
X029623Y018571D02*
D03*
X021623Y016021D02*
D03*
X022323Y017521D02*
D03*
X027423Y016121D02*
D03*
X028323Y014671D02*
D03*
X027823D02*
D03*
X024373Y014621D02*
D03*
X024523Y016071D02*
D03*
X024173Y016171D02*
D03*
X024873Y015071D02*
D03*
X023873Y014421D02*
D03*
X023623Y014671D02*
D03*
X023373Y014921D02*
D03*
X023273Y015271D02*
D03*
X023573Y015571D02*
D03*
X023873Y015871D02*
D03*
X024823Y015821D02*
D03*
X025023Y015571D02*
D03*
X028873Y018921D02*
D03*
X026323Y019021D02*
D03*
X027473Y019071D02*
D03*
X020773Y015671D02*
D03*
X020723Y015221D02*
D03*
X021623Y018821D02*
D03*
X020823Y019171D02*
D03*
X024223Y018621D02*
D03*
X019523Y015221D02*
D03*
X023973Y016921D02*
D03*
X025773Y014271D02*
D03*
X024023Y013721D02*
D03*
X020873Y014521D02*
D03*
X018523Y014571D02*
D03*
X019223Y015221D02*
D03*
Y014971D02*
D03*
X019523D02*
D03*
X020523Y018221D02*
D03*
X019397Y016858D02*
D03*
X019369Y016092D02*
D03*
X026173Y014271D02*
D03*
X041526Y017871D02*
D03*
X035426Y018171D02*
D03*
X034576Y019171D02*
D03*
X035126Y016471D02*
D03*
X036926D02*
D03*
X048126Y015671D02*
D03*
X049926Y018371D02*
D03*
Y014771D02*
D03*
Y013871D02*
D03*
X049026Y018371D02*
D03*
Y015671D02*
D03*
Y014771D02*
D03*
Y013871D02*
D03*
X048126Y018371D02*
D03*
Y016571D02*
D03*
Y014771D02*
D03*
Y013871D02*
D03*
X047226Y016571D02*
D03*
Y015671D02*
D03*
Y014771D02*
D03*
Y013871D02*
D03*
X046326Y014771D02*
D03*
Y013871D02*
D03*
X045426D02*
D03*
X044526D02*
D03*
X043626D02*
D03*
X035526D02*
D03*
X034626D02*
D03*
X045026Y015921D02*
D03*
X045326Y015521D02*
D03*
Y014971D02*
D03*
X043626Y015521D02*
D03*
Y014971D02*
D03*
X043976Y014671D02*
D03*
X048126Y019221D02*
D03*
X048976D02*
D03*
X049876D02*
D03*
X046626Y017921D02*
D03*
X047933Y017304D02*
D03*
X048588Y016794D02*
D03*
X04858Y017633D02*
D03*
X050526Y016046D02*
D03*
X049926D02*
D03*
X049326D02*
D03*
Y016997D02*
D03*
X049926D02*
D03*
X050526D02*
D03*
X047976Y017921D02*
D03*
X039576Y015421D02*
D03*
X044876Y016371D02*
D03*
X045476D02*
D03*
X046026Y017921D02*
D03*
X047226D02*
D03*
X046726Y017221D02*
D03*
X047326D02*
D03*
X037026Y017271D02*
D03*
X037426D02*
D03*
X043076Y016771D02*
D03*
X043026Y017521D02*
D03*
X04268Y016632D02*
D03*
X041876Y015871D02*
D03*
X041126Y016671D02*
D03*
X042726Y015771D02*
D03*
X039776Y016271D02*
D03*
X039226Y015721D02*
D03*
X043076Y018371D02*
D03*
X046076Y015871D02*
D03*
Y016371D02*
D03*
X036276Y018721D02*
D03*
X041976Y019171D02*
D03*
X040576D02*
D03*
X046276Y018571D02*
D03*
X038276Y016021D02*
D03*
X038976Y017521D02*
D03*
X044076Y016121D02*
D03*
X044976Y014671D02*
D03*
X044476D02*
D03*
X041026Y014621D02*
D03*
X041176Y016071D02*
D03*
X040826Y016171D02*
D03*
X041526Y015071D02*
D03*
X040526Y014421D02*
D03*
X040276Y014671D02*
D03*
X040026Y014921D02*
D03*
X039926Y015271D02*
D03*
X040226Y015571D02*
D03*
X040526Y015871D02*
D03*
X041476Y015821D02*
D03*
X041676Y015571D02*
D03*
X045526Y018921D02*
D03*
X042976Y019021D02*
D03*
X044126Y019071D02*
D03*
X037426Y015671D02*
D03*
X037376Y015221D02*
D03*
X038276Y018821D02*
D03*
X037476Y019171D02*
D03*
X040876Y018621D02*
D03*
X036176Y015221D02*
D03*
X040626Y016921D02*
D03*
X042426Y014271D02*
D03*
X040676Y013721D02*
D03*
X037526Y014521D02*
D03*
X035176Y014571D02*
D03*
X035876Y015221D02*
D03*
Y014971D02*
D03*
X036176D02*
D03*
X037176Y018221D02*
D03*
X03605Y016858D02*
D03*
X036023Y016092D02*
D03*
X042826Y014271D02*
D03*
X024873Y024092D02*
D03*
X018773Y024392D02*
D03*
X017923Y025392D02*
D03*
X018473Y022692D02*
D03*
X020273D02*
D03*
X031473Y021892D02*
D03*
X033273Y024592D02*
D03*
Y020992D02*
D03*
Y020092D02*
D03*
X032373Y024592D02*
D03*
Y021892D02*
D03*
Y020992D02*
D03*
Y020092D02*
D03*
X031473Y024592D02*
D03*
Y022792D02*
D03*
Y020992D02*
D03*
Y020092D02*
D03*
X030573Y022792D02*
D03*
Y021892D02*
D03*
Y020992D02*
D03*
Y020092D02*
D03*
X029673Y020992D02*
D03*
Y020092D02*
D03*
X028773D02*
D03*
X027873D02*
D03*
X026973D02*
D03*
X018873D02*
D03*
X017973D02*
D03*
X028373Y022142D02*
D03*
X028673Y021742D02*
D03*
Y021192D02*
D03*
X026973Y021742D02*
D03*
Y021192D02*
D03*
X027323Y020892D02*
D03*
X031473Y025442D02*
D03*
X032323D02*
D03*
X033223D02*
D03*
X029973Y024142D02*
D03*
X031279Y023525D02*
D03*
X031934Y023015D02*
D03*
X031927Y023854D02*
D03*
X033873Y022266D02*
D03*
X033273D02*
D03*
X032673D02*
D03*
Y023217D02*
D03*
X033273D02*
D03*
X033873D02*
D03*
X031323Y024142D02*
D03*
X022923Y021642D02*
D03*
X028223Y022592D02*
D03*
X028823D02*
D03*
X029373Y024142D02*
D03*
X030573D02*
D03*
X030073Y023442D02*
D03*
X030673D02*
D03*
X020373Y023492D02*
D03*
X020773D02*
D03*
X026423Y022992D02*
D03*
X026373Y023742D02*
D03*
X026026Y022853D02*
D03*
X025223Y022092D02*
D03*
X024473Y022892D02*
D03*
X026073Y021992D02*
D03*
X023123Y022492D02*
D03*
X022573Y021942D02*
D03*
X026423Y024592D02*
D03*
X029423Y022092D02*
D03*
Y022592D02*
D03*
X019623Y024942D02*
D03*
X025323Y025392D02*
D03*
X023923D02*
D03*
X029623Y024792D02*
D03*
X021623Y022242D02*
D03*
X022323Y023742D02*
D03*
X027423Y022342D02*
D03*
X028323Y020892D02*
D03*
X027823D02*
D03*
X024373Y020842D02*
D03*
X024523Y022292D02*
D03*
X024173Y022392D02*
D03*
X024873Y021292D02*
D03*
X023873Y020642D02*
D03*
X023623Y020892D02*
D03*
X023373Y021142D02*
D03*
X023273Y021492D02*
D03*
X023573Y021792D02*
D03*
X023873Y022092D02*
D03*
X024823Y022042D02*
D03*
X025023Y021792D02*
D03*
X028873Y025142D02*
D03*
X026323Y025242D02*
D03*
X027473Y025292D02*
D03*
X020773Y021892D02*
D03*
X020723Y021442D02*
D03*
X021623Y025042D02*
D03*
X020823Y025392D02*
D03*
X024223Y024842D02*
D03*
X019523Y021442D02*
D03*
X023973Y023142D02*
D03*
X025773Y020492D02*
D03*
X024023Y019942D02*
D03*
X020873Y020742D02*
D03*
X018523Y020792D02*
D03*
X019223Y021442D02*
D03*
Y021192D02*
D03*
X019523D02*
D03*
X020523Y024442D02*
D03*
X019397Y023079D02*
D03*
X019369Y022312D02*
D03*
X026173Y020492D02*
D03*
X041526Y024092D02*
D03*
X035426Y024392D02*
D03*
X034576Y025392D02*
D03*
X035126Y022692D02*
D03*
X036926D02*
D03*
X048126Y021892D02*
D03*
X049926Y024592D02*
D03*
Y020992D02*
D03*
Y020092D02*
D03*
X049026Y024592D02*
D03*
Y021892D02*
D03*
Y020992D02*
D03*
Y020092D02*
D03*
X048126Y024592D02*
D03*
Y022792D02*
D03*
Y020992D02*
D03*
Y020092D02*
D03*
X047226Y022792D02*
D03*
Y021892D02*
D03*
Y020992D02*
D03*
Y020092D02*
D03*
X046326Y020992D02*
D03*
Y020092D02*
D03*
X045426D02*
D03*
X044526D02*
D03*
X043626D02*
D03*
X035526D02*
D03*
X034626D02*
D03*
X045026Y022142D02*
D03*
X045326Y021742D02*
D03*
Y021192D02*
D03*
X043626Y021742D02*
D03*
Y021192D02*
D03*
X043976Y020892D02*
D03*
X048126Y025442D02*
D03*
X048976D02*
D03*
X049876D02*
D03*
X046626Y024142D02*
D03*
X047933Y023525D02*
D03*
X048588Y023015D02*
D03*
X04858Y023854D02*
D03*
X050526Y022266D02*
D03*
X049926D02*
D03*
X049326D02*
D03*
Y023217D02*
D03*
X049926D02*
D03*
X050526D02*
D03*
X047976Y024142D02*
D03*
X039576Y021642D02*
D03*
X044876Y022592D02*
D03*
X045476D02*
D03*
X046026Y024142D02*
D03*
X047226D02*
D03*
X046726Y023442D02*
D03*
X047326D02*
D03*
X037026Y023492D02*
D03*
X037426D02*
D03*
X043076Y022992D02*
D03*
X043026Y023742D02*
D03*
X04268Y022853D02*
D03*
X041876Y022092D02*
D03*
X041126Y022892D02*
D03*
X042726Y021992D02*
D03*
X039776Y022492D02*
D03*
X039226Y021942D02*
D03*
X043076Y024592D02*
D03*
X046076Y022092D02*
D03*
Y022592D02*
D03*
X036276Y024942D02*
D03*
X041976Y025392D02*
D03*
X040576D02*
D03*
X046276Y024792D02*
D03*
X038276Y022242D02*
D03*
X038976Y023742D02*
D03*
X044076Y022342D02*
D03*
X044976Y020892D02*
D03*
X044476D02*
D03*
X041026Y020842D02*
D03*
X041176Y022292D02*
D03*
X040826Y022392D02*
D03*
X041526Y021292D02*
D03*
X040526Y020642D02*
D03*
X040276Y020892D02*
D03*
X040026Y021142D02*
D03*
X039926Y021492D02*
D03*
X040226Y021792D02*
D03*
X040526Y022092D02*
D03*
X041476Y022042D02*
D03*
X041676Y021792D02*
D03*
X045526Y025142D02*
D03*
X042976Y025242D02*
D03*
X044126Y025292D02*
D03*
X037426Y021892D02*
D03*
X037376Y021442D02*
D03*
X038276Y025042D02*
D03*
X037476Y025392D02*
D03*
X040876Y024842D02*
D03*
X036176Y021442D02*
D03*
X040626Y023142D02*
D03*
X042426Y020492D02*
D03*
X040676Y019942D02*
D03*
X037526Y020742D02*
D03*
X035176Y020792D02*
D03*
X035876Y021442D02*
D03*
Y021192D02*
D03*
X036176D02*
D03*
X037176Y024442D02*
D03*
X03605Y023079D02*
D03*
X036023Y022312D02*
D03*
X042826Y020492D02*
D03*
X024873Y030312D02*
D03*
X018773Y030612D02*
D03*
X017923Y031612D02*
D03*
X018473Y028912D02*
D03*
X020273D02*
D03*
X031473Y028112D02*
D03*
X033273Y030812D02*
D03*
Y027212D02*
D03*
Y026312D02*
D03*
X032373Y030812D02*
D03*
Y028112D02*
D03*
Y027212D02*
D03*
Y026312D02*
D03*
X031473Y030812D02*
D03*
Y029012D02*
D03*
Y027212D02*
D03*
Y026312D02*
D03*
X030573Y029012D02*
D03*
Y028112D02*
D03*
Y027212D02*
D03*
Y026312D02*
D03*
X029673Y027212D02*
D03*
Y026312D02*
D03*
X028773D02*
D03*
X027873D02*
D03*
X026973D02*
D03*
X018873D02*
D03*
X017973D02*
D03*
X028373Y028362D02*
D03*
X028673Y027962D02*
D03*
Y027412D02*
D03*
X026973Y027962D02*
D03*
Y027412D02*
D03*
X027323Y027112D02*
D03*
X031473Y031662D02*
D03*
X032323D02*
D03*
X033223D02*
D03*
X029973Y030362D02*
D03*
X031279Y029745D02*
D03*
X031934Y029235D02*
D03*
X031927Y030074D02*
D03*
X033873Y028487D02*
D03*
X033273D02*
D03*
X032673D02*
D03*
Y029438D02*
D03*
X033273D02*
D03*
X033873D02*
D03*
X031323Y030362D02*
D03*
X022923Y027862D02*
D03*
X028223Y028812D02*
D03*
X028823D02*
D03*
X029373Y030362D02*
D03*
X030573D02*
D03*
X030073Y029662D02*
D03*
X030673D02*
D03*
X020373Y029712D02*
D03*
X020773D02*
D03*
X026423Y029212D02*
D03*
X026373Y029962D02*
D03*
X026026Y029073D02*
D03*
X025223Y028312D02*
D03*
X024473Y029112D02*
D03*
X026073Y028212D02*
D03*
X023123Y028712D02*
D03*
X022573Y028162D02*
D03*
X026423Y030812D02*
D03*
X029423Y028312D02*
D03*
Y028812D02*
D03*
X019623Y031162D02*
D03*
X025323Y031612D02*
D03*
X023923D02*
D03*
X029623Y031012D02*
D03*
X021623Y028462D02*
D03*
X022323Y029962D02*
D03*
X027423Y028562D02*
D03*
X028323Y027112D02*
D03*
X027823D02*
D03*
X024373Y027062D02*
D03*
X024523Y028512D02*
D03*
X024173Y028612D02*
D03*
X024873Y027512D02*
D03*
X023873Y026862D02*
D03*
X023623Y027112D02*
D03*
X023373Y027362D02*
D03*
X023273Y027712D02*
D03*
X023573Y028012D02*
D03*
X023873Y028312D02*
D03*
X024823Y028262D02*
D03*
X025023Y028012D02*
D03*
X028873Y031362D02*
D03*
X026323Y031462D02*
D03*
X027473Y031512D02*
D03*
X020773Y028112D02*
D03*
X020723Y027662D02*
D03*
X021623Y031262D02*
D03*
X020823Y031612D02*
D03*
X024223Y031062D02*
D03*
X019523Y027662D02*
D03*
X023973Y029362D02*
D03*
X025773Y026712D02*
D03*
X024023Y026162D02*
D03*
X020873Y026962D02*
D03*
X018523Y027012D02*
D03*
X019223Y027662D02*
D03*
Y027412D02*
D03*
X019523D02*
D03*
X020523Y030662D02*
D03*
X019397Y029299D02*
D03*
X019369Y028533D02*
D03*
X026173Y026712D02*
D03*
X041526Y030312D02*
D03*
X035426Y030612D02*
D03*
X034576Y031612D02*
D03*
X035126Y028912D02*
D03*
X036926D02*
D03*
X048126Y028112D02*
D03*
X049926Y030812D02*
D03*
Y027212D02*
D03*
Y026312D02*
D03*
X049026Y030812D02*
D03*
Y028112D02*
D03*
Y027212D02*
D03*
Y026312D02*
D03*
X048126Y030812D02*
D03*
Y029012D02*
D03*
Y027212D02*
D03*
Y026312D02*
D03*
X047226Y029012D02*
D03*
Y028112D02*
D03*
Y027212D02*
D03*
Y026312D02*
D03*
X046326Y027212D02*
D03*
Y026312D02*
D03*
X045426D02*
D03*
X044526D02*
D03*
X043626D02*
D03*
X035526D02*
D03*
X034626D02*
D03*
X045026Y028362D02*
D03*
X045326Y027962D02*
D03*
Y027412D02*
D03*
X043626Y027962D02*
D03*
Y027412D02*
D03*
X043976Y027112D02*
D03*
X048126Y031662D02*
D03*
X048976D02*
D03*
X049876D02*
D03*
X046626Y030362D02*
D03*
X047933Y029745D02*
D03*
X048588Y029235D02*
D03*
X04858Y030074D02*
D03*
X050526Y028487D02*
D03*
X049926D02*
D03*
X049326D02*
D03*
Y029438D02*
D03*
X049926D02*
D03*
X050526D02*
D03*
X047976Y030362D02*
D03*
X039576Y027862D02*
D03*
X044876Y028812D02*
D03*
X045476D02*
D03*
X046026Y030362D02*
D03*
X047226D02*
D03*
X046726Y029662D02*
D03*
X047326D02*
D03*
X037026Y029712D02*
D03*
X037426D02*
D03*
X043076Y029212D02*
D03*
X043026Y029962D02*
D03*
X04268Y029073D02*
D03*
X041876Y028312D02*
D03*
X041126Y029112D02*
D03*
X042726Y028212D02*
D03*
X039776Y028712D02*
D03*
X039226Y028162D02*
D03*
X043076Y030812D02*
D03*
X046076Y028312D02*
D03*
Y028812D02*
D03*
X036276Y031162D02*
D03*
X041976Y031612D02*
D03*
X040576D02*
D03*
X046276Y031012D02*
D03*
X038276Y028462D02*
D03*
X038976Y029962D02*
D03*
X044076Y028562D02*
D03*
X044976Y027112D02*
D03*
X044476D02*
D03*
X041026Y027062D02*
D03*
X041176Y028512D02*
D03*
X040826Y028612D02*
D03*
X041526Y027512D02*
D03*
X040526Y026862D02*
D03*
X040276Y027112D02*
D03*
X040026Y027362D02*
D03*
X039926Y027712D02*
D03*
X040226Y028012D02*
D03*
X040526Y028312D02*
D03*
X041476Y028262D02*
D03*
X041676Y028012D02*
D03*
X045526Y031362D02*
D03*
X042976Y031462D02*
D03*
X044126Y031512D02*
D03*
X037426Y028112D02*
D03*
X037376Y027662D02*
D03*
X038276Y031262D02*
D03*
X037476Y031612D02*
D03*
X040876Y031062D02*
D03*
X036176Y027662D02*
D03*
X040626Y029362D02*
D03*
X042426Y026712D02*
D03*
X040676Y026162D02*
D03*
X037526Y026962D02*
D03*
X035176Y027012D02*
D03*
X035876Y027662D02*
D03*
Y027412D02*
D03*
X036176D02*
D03*
X037176Y030662D02*
D03*
X03605Y029299D02*
D03*
X036023Y028533D02*
D03*
X042826Y026712D02*
D03*
X024873Y036533D02*
D03*
X018773Y036833D02*
D03*
X017923Y037833D02*
D03*
X018473Y035133D02*
D03*
X020273D02*
D03*
X031473Y034333D02*
D03*
X033273Y037033D02*
D03*
Y033433D02*
D03*
Y032533D02*
D03*
X032373Y037033D02*
D03*
Y034333D02*
D03*
Y033433D02*
D03*
Y032533D02*
D03*
X031473Y037033D02*
D03*
Y035233D02*
D03*
Y033433D02*
D03*
Y032533D02*
D03*
X030573Y035233D02*
D03*
Y034333D02*
D03*
Y033433D02*
D03*
Y032533D02*
D03*
X029673Y033433D02*
D03*
Y032533D02*
D03*
X028773D02*
D03*
X027873D02*
D03*
X026973D02*
D03*
X018873D02*
D03*
X017973D02*
D03*
X028373Y034583D02*
D03*
X028673Y034183D02*
D03*
Y033633D02*
D03*
X026973Y034183D02*
D03*
Y033633D02*
D03*
X027323Y033333D02*
D03*
X031473Y037883D02*
D03*
X032323D02*
D03*
X033223D02*
D03*
X029973Y036583D02*
D03*
X031279Y035966D02*
D03*
X031934Y035456D02*
D03*
X031927Y036295D02*
D03*
X033873Y034707D02*
D03*
X033273D02*
D03*
X032673D02*
D03*
Y035658D02*
D03*
X033273D02*
D03*
X033873D02*
D03*
X031323Y036583D02*
D03*
X022923Y034083D02*
D03*
X028223Y035033D02*
D03*
X028823D02*
D03*
X029373Y036583D02*
D03*
X030573D02*
D03*
X030073Y035883D02*
D03*
X030673D02*
D03*
X020373Y035933D02*
D03*
X020773D02*
D03*
X026423Y035433D02*
D03*
X026373Y036183D02*
D03*
X026026Y035294D02*
D03*
X025223Y034533D02*
D03*
X024473Y035333D02*
D03*
X026073Y034433D02*
D03*
X023123Y034933D02*
D03*
X022573Y034383D02*
D03*
X026423Y037033D02*
D03*
X029423Y034533D02*
D03*
Y035033D02*
D03*
X019623Y037383D02*
D03*
X025323Y037833D02*
D03*
X023923D02*
D03*
X029623Y037233D02*
D03*
X021623Y034683D02*
D03*
X022323Y036183D02*
D03*
X027423Y034783D02*
D03*
X028323Y033333D02*
D03*
X027823D02*
D03*
X024373Y033283D02*
D03*
X024523Y034733D02*
D03*
X024173Y034833D02*
D03*
X024873Y033733D02*
D03*
X023873Y033083D02*
D03*
X023623Y033333D02*
D03*
X023373Y033583D02*
D03*
X023273Y033933D02*
D03*
X023573Y034233D02*
D03*
X023873Y034533D02*
D03*
X024823Y034483D02*
D03*
X025023Y034233D02*
D03*
X028873Y037583D02*
D03*
X026323Y037683D02*
D03*
X027473Y037733D02*
D03*
X020773Y034333D02*
D03*
X020723Y033883D02*
D03*
X021623Y037483D02*
D03*
X020823Y037833D02*
D03*
X024223Y037283D02*
D03*
X019523Y033883D02*
D03*
X023973Y035583D02*
D03*
X025773Y032933D02*
D03*
X024023Y032383D02*
D03*
X020873Y033183D02*
D03*
X018523Y033233D02*
D03*
X019223Y033883D02*
D03*
Y033633D02*
D03*
X019523D02*
D03*
X020523Y036883D02*
D03*
X019397Y03552D02*
D03*
X019369Y034753D02*
D03*
X026173Y032933D02*
D03*
X041526Y036533D02*
D03*
X035426Y036833D02*
D03*
X034576Y037833D02*
D03*
X035126Y035133D02*
D03*
X036926D02*
D03*
X048126Y034333D02*
D03*
X049926Y037033D02*
D03*
Y033433D02*
D03*
Y032533D02*
D03*
X049026Y037033D02*
D03*
Y034333D02*
D03*
Y033433D02*
D03*
Y032533D02*
D03*
X048126Y037033D02*
D03*
Y035233D02*
D03*
Y033433D02*
D03*
Y032533D02*
D03*
X047226Y035233D02*
D03*
Y034333D02*
D03*
Y033433D02*
D03*
Y032533D02*
D03*
X046326Y033433D02*
D03*
Y032533D02*
D03*
X045426D02*
D03*
X044526D02*
D03*
X043626D02*
D03*
X035526D02*
D03*
X034626D02*
D03*
X045026Y034583D02*
D03*
X045326Y034183D02*
D03*
Y033633D02*
D03*
X043626Y034183D02*
D03*
Y033633D02*
D03*
X043976Y033333D02*
D03*
X048126Y037883D02*
D03*
X048976D02*
D03*
X049876D02*
D03*
X046626Y036583D02*
D03*
X047933Y035966D02*
D03*
X048588Y035456D02*
D03*
X04858Y036295D02*
D03*
X050526Y034707D02*
D03*
X049926D02*
D03*
X049326D02*
D03*
Y035658D02*
D03*
X049926D02*
D03*
X050526D02*
D03*
X047976Y036583D02*
D03*
X039576Y034083D02*
D03*
X044876Y035033D02*
D03*
X045476D02*
D03*
X046026Y036583D02*
D03*
X047226D02*
D03*
X046726Y035883D02*
D03*
X047326D02*
D03*
X037026Y035933D02*
D03*
X037426D02*
D03*
X043076Y035433D02*
D03*
X043026Y036183D02*
D03*
X04268Y035294D02*
D03*
X041876Y034533D02*
D03*
X041126Y035333D02*
D03*
X042726Y034433D02*
D03*
X039776Y034933D02*
D03*
X039226Y034383D02*
D03*
X043076Y037033D02*
D03*
X046076Y034533D02*
D03*
Y035033D02*
D03*
X036276Y037383D02*
D03*
X041976Y037833D02*
D03*
X040576D02*
D03*
X046276Y037233D02*
D03*
X038276Y034683D02*
D03*
X038976Y036183D02*
D03*
X044076Y034783D02*
D03*
X044976Y033333D02*
D03*
X044476D02*
D03*
X041026Y033283D02*
D03*
X041176Y034733D02*
D03*
X040826Y034833D02*
D03*
X041526Y033733D02*
D03*
X040526Y033083D02*
D03*
X040276Y033333D02*
D03*
X040026Y033583D02*
D03*
X039926Y033933D02*
D03*
X040226Y034233D02*
D03*
X040526Y034533D02*
D03*
X041476Y034483D02*
D03*
X041676Y034233D02*
D03*
X045526Y037583D02*
D03*
X042976Y037683D02*
D03*
X044126Y037733D02*
D03*
X037426Y034333D02*
D03*
X037376Y033883D02*
D03*
X038276Y037483D02*
D03*
X037476Y037833D02*
D03*
X040876Y037283D02*
D03*
X036176Y033883D02*
D03*
X040626Y035583D02*
D03*
X042426Y032933D02*
D03*
X040676Y032383D02*
D03*
X037526Y033183D02*
D03*
X035176Y033233D02*
D03*
X035876Y033883D02*
D03*
Y033633D02*
D03*
X036176D02*
D03*
X037176Y036883D02*
D03*
X03605Y03552D02*
D03*
X036023Y034753D02*
D03*
X042826Y032933D02*
D03*
X024873Y042753D02*
D03*
X018773Y043053D02*
D03*
X017923Y044053D02*
D03*
X018473Y041353D02*
D03*
X020273D02*
D03*
X031473Y040553D02*
D03*
X033273Y043253D02*
D03*
Y039653D02*
D03*
Y038753D02*
D03*
X032373Y043253D02*
D03*
Y040553D02*
D03*
Y039653D02*
D03*
Y038753D02*
D03*
X031473Y043253D02*
D03*
Y041453D02*
D03*
Y039653D02*
D03*
Y038753D02*
D03*
X030573Y041453D02*
D03*
Y040553D02*
D03*
Y039653D02*
D03*
Y038753D02*
D03*
X029673Y039653D02*
D03*
Y038753D02*
D03*
X028773D02*
D03*
X027873D02*
D03*
X026973D02*
D03*
X018873D02*
D03*
X017973D02*
D03*
X028373Y040803D02*
D03*
X028673Y040403D02*
D03*
Y039853D02*
D03*
X026973Y040403D02*
D03*
Y039853D02*
D03*
X027323Y039553D02*
D03*
X031473Y044103D02*
D03*
X032323D02*
D03*
X033223D02*
D03*
X029973Y042803D02*
D03*
X031279Y042186D02*
D03*
X031934Y041676D02*
D03*
X031927Y042515D02*
D03*
X033873Y040928D02*
D03*
X033273D02*
D03*
X032673D02*
D03*
Y041879D02*
D03*
X033273D02*
D03*
X033873D02*
D03*
X031323Y042803D02*
D03*
X022923Y040303D02*
D03*
X028223Y041253D02*
D03*
X028823D02*
D03*
X029373Y042803D02*
D03*
X030573D02*
D03*
X030073Y042103D02*
D03*
X030673D02*
D03*
X020373Y042153D02*
D03*
X020773D02*
D03*
X026423Y041653D02*
D03*
X026373Y042403D02*
D03*
X026026Y041514D02*
D03*
X025223Y040753D02*
D03*
X024473Y041553D02*
D03*
X026073Y040653D02*
D03*
X023123Y041153D02*
D03*
X022573Y040603D02*
D03*
X026423Y043253D02*
D03*
X029423Y040753D02*
D03*
Y041253D02*
D03*
X019623Y043603D02*
D03*
X025323Y044053D02*
D03*
X023923D02*
D03*
X029623Y043453D02*
D03*
X021623Y040903D02*
D03*
X022323Y042403D02*
D03*
X027423Y041003D02*
D03*
X028323Y039553D02*
D03*
X027823D02*
D03*
X024373Y039503D02*
D03*
X024523Y040953D02*
D03*
X024173Y041053D02*
D03*
X024873Y039953D02*
D03*
X023873Y039303D02*
D03*
X023623Y039553D02*
D03*
X023373Y039803D02*
D03*
X023273Y040153D02*
D03*
X023573Y040453D02*
D03*
X023873Y040753D02*
D03*
X024823Y040703D02*
D03*
X025023Y040453D02*
D03*
X028873Y043803D02*
D03*
X026323Y043903D02*
D03*
X027473Y043953D02*
D03*
X020773Y040553D02*
D03*
X020723Y040103D02*
D03*
X021623Y043703D02*
D03*
X020823Y044053D02*
D03*
X024223Y043503D02*
D03*
X019523Y040103D02*
D03*
X023973Y041803D02*
D03*
X025773Y039153D02*
D03*
X024023Y038603D02*
D03*
X020873Y039403D02*
D03*
X018523Y039453D02*
D03*
X019223Y040103D02*
D03*
Y039853D02*
D03*
X019523D02*
D03*
X020523Y043103D02*
D03*
X019397Y04174D02*
D03*
X019369Y040974D02*
D03*
X026173Y039153D02*
D03*
X041526Y042753D02*
D03*
X035426Y043053D02*
D03*
X034576Y044053D02*
D03*
X035126Y041353D02*
D03*
X036926D02*
D03*
X048126Y040553D02*
D03*
X049926Y043253D02*
D03*
Y039653D02*
D03*
Y038753D02*
D03*
X049026Y043253D02*
D03*
Y040553D02*
D03*
Y039653D02*
D03*
Y038753D02*
D03*
X048126Y043253D02*
D03*
Y041453D02*
D03*
Y039653D02*
D03*
Y038753D02*
D03*
X047226Y041453D02*
D03*
Y040553D02*
D03*
Y039653D02*
D03*
Y038753D02*
D03*
X046326Y039653D02*
D03*
Y038753D02*
D03*
X045426D02*
D03*
X044526D02*
D03*
X043626D02*
D03*
X035526D02*
D03*
X034626D02*
D03*
X045026Y040803D02*
D03*
X045326Y040403D02*
D03*
Y039853D02*
D03*
X043626Y040403D02*
D03*
Y039853D02*
D03*
X043976Y039553D02*
D03*
X048126Y044103D02*
D03*
X048976D02*
D03*
X049876D02*
D03*
X046626Y042803D02*
D03*
X047933Y042186D02*
D03*
X048588Y041676D02*
D03*
X04858Y042515D02*
D03*
X050526Y040928D02*
D03*
X049926D02*
D03*
X049326D02*
D03*
Y041879D02*
D03*
X049926D02*
D03*
X050526D02*
D03*
X047976Y042803D02*
D03*
X039576Y040303D02*
D03*
X044876Y041253D02*
D03*
X045476D02*
D03*
X046026Y042803D02*
D03*
X047226D02*
D03*
X046726Y042103D02*
D03*
X047326D02*
D03*
X037026Y042153D02*
D03*
X037426D02*
D03*
X043076Y041653D02*
D03*
X043026Y042403D02*
D03*
X04268Y041514D02*
D03*
X041876Y040753D02*
D03*
X041126Y041553D02*
D03*
X042726Y040653D02*
D03*
X039776Y041153D02*
D03*
X039226Y040603D02*
D03*
X043076Y043253D02*
D03*
X046076Y040753D02*
D03*
Y041253D02*
D03*
X036276Y043603D02*
D03*
X041976Y044053D02*
D03*
X040576D02*
D03*
X046276Y043453D02*
D03*
X038276Y040903D02*
D03*
X038976Y042403D02*
D03*
X044076Y041003D02*
D03*
X044976Y039553D02*
D03*
X044476D02*
D03*
X041026Y039503D02*
D03*
X041176Y040953D02*
D03*
X040826Y041053D02*
D03*
X041526Y039953D02*
D03*
X040526Y039303D02*
D03*
X040276Y039553D02*
D03*
X040026Y039803D02*
D03*
X039926Y040153D02*
D03*
X040226Y040453D02*
D03*
X040526Y040753D02*
D03*
X041476Y040703D02*
D03*
X041676Y040453D02*
D03*
X045526Y043803D02*
D03*
X042976Y043903D02*
D03*
X044126Y043953D02*
D03*
X037426Y040553D02*
D03*
X037376Y040103D02*
D03*
X038276Y043703D02*
D03*
X037476Y044053D02*
D03*
X040876Y043503D02*
D03*
X036176Y040103D02*
D03*
X040626Y041803D02*
D03*
X042426Y039153D02*
D03*
X040676Y038603D02*
D03*
X037526Y039403D02*
D03*
X035176Y039453D02*
D03*
X035876Y040103D02*
D03*
Y039853D02*
D03*
X036176D02*
D03*
X037176Y043103D02*
D03*
X03605Y04174D02*
D03*
X036023Y040974D02*
D03*
X042826Y039153D02*
D03*
M02*
