G04*
G04 #@! TF.GenerationSoftware,Altium Limited,Altium Designer,22.10.1 (41)*
G04*
G04 Layer_Color=0*
%FSTAX24Y24*%
%MOIN*%
G70*
G04*
G04 #@! TF.SameCoordinates,45835C21-10AE-4195-8F6B-2C948669ADBA*
G04*
G04*
G04 #@! TF.FilePolarity,Positive*
G04*
G01*
G75*
%ADD95C,0.0020*%
D95*
X037858Y015065D02*
Y017978D01*
X032413Y015065D02*
X037858D01*
X032413D02*
Y017978D01*
X037858D01*
X054512Y015065D02*
Y017978D01*
X049067Y015065D02*
X054512D01*
X049067D02*
Y017978D01*
X054512D01*
X037858Y021285D02*
Y024198D01*
X032413Y021285D02*
X037858D01*
X032413D02*
Y024198D01*
X037858D01*
X054512Y021285D02*
Y024198D01*
X049067Y021285D02*
X054512D01*
X049067D02*
Y024198D01*
X054512D01*
X037858Y027506D02*
Y030419D01*
X032413Y027506D02*
X037858D01*
X032413D02*
Y030419D01*
X037858D01*
X054512Y027506D02*
Y030419D01*
X049067Y027506D02*
X054512D01*
X049067D02*
Y030419D01*
X054512D01*
X037858Y033726D02*
Y036639D01*
X032413Y033726D02*
X037858D01*
X032413D02*
Y036639D01*
X037858D01*
X054512Y033726D02*
Y036639D01*
X049067Y033726D02*
X054512D01*
X049067D02*
Y036639D01*
X054512D01*
X037858Y039947D02*
Y04286D01*
X032413Y039947D02*
X037858D01*
X032413D02*
Y04286D01*
X037858D01*
X054512Y039947D02*
Y04286D01*
X049067Y039947D02*
X054512D01*
X049067D02*
Y04286D01*
X054512D01*
M02*
