G04*
G04 #@! TF.GenerationSoftware,Altium Limited,Altium Designer,22.10.1 (41)*
G04*
G04 Layer_Color=16711935*
%FSTAX24Y24*%
%MOIN*%
G70*
G04*
G04 #@! TF.SameCoordinates,68DEA821-BA8F-46B5-960C-AC53CEFB18E0*
G04*
G04*
G04 #@! TF.FilePolarity,Positive*
G04*
G01*
G75*
%ADD85C,0.0004*%
D85*
X001298Y002909D02*
X0387D01*
X001298Y0285D02*
X0387D01*
Y002909D02*
Y0285D01*
X001298Y002909D02*
Y0285D01*
X020591Y003937D02*
X037126D01*
X020591Y014961D02*
X037126D01*
Y003937D02*
Y014961D01*
X020591Y003937D02*
Y014961D01*
X003937Y003937D02*
X020472D01*
X003937Y014961D02*
X020472D01*
Y003937D02*
Y014961D01*
X003937Y003937D02*
Y014961D01*
X020472Y021299D02*
Y027402D01*
X003937Y021299D02*
X020472D01*
X003937D02*
Y027402D01*
X020472D01*
X037126Y021299D02*
Y027402D01*
X020591Y021299D02*
X037126D01*
X020591D02*
Y027402D01*
X037126D01*
X003937Y021181D02*
X020472D01*
Y015079D02*
Y021181D01*
X003937Y015079D02*
X020472D01*
X003937D02*
Y021181D01*
X020591D02*
X037126D01*
Y015079D02*
Y021181D01*
X020591Y015079D02*
X037126D01*
X020591D02*
Y021181D01*
M02*
