G04*
G04 #@! TF.GenerationSoftware,Altium Limited,Altium Designer,22.10.1 (41)*
G04*
G04 Layer_Physical_Order=4*
G04 Layer_Color=16711680*
%FSTAX24Y24*%
%MOIN*%
G70*
G04*
G04 #@! TF.SameCoordinates,A34DC46A-7450-461F-AC4F-9E147ECCBACE*
G04*
G04*
G04 #@! TF.FilePolarity,Positive*
G04*
G01*
G75*
%ADD10C,0.0100*%
G04:AMPARAMS|DCode=20|XSize=23.6mil|YSize=74.8mil|CornerRadius=0mil|HoleSize=0mil|Usage=FLASHONLY|Rotation=45.000|XOffset=0mil|YOffset=0mil|HoleType=Round|Shape=Rectangle|*
%AMROTATEDRECTD20*
4,1,4,0.0181,-0.0348,-0.0348,0.0181,-0.0181,0.0348,0.0348,-0.0181,0.0181,-0.0348,0.0*
%
%ADD20ROTATEDRECTD20*%

G04:AMPARAMS|DCode=21|XSize=15.7mil|YSize=74.8mil|CornerRadius=0mil|HoleSize=0mil|Usage=FLASHONLY|Rotation=45.000|XOffset=0mil|YOffset=0mil|HoleType=Round|Shape=Rectangle|*
%AMROTATEDRECTD21*
4,1,4,0.0209,-0.0320,-0.0320,0.0209,-0.0209,0.0320,0.0320,-0.0209,0.0209,-0.0320,0.0*
%
%ADD21ROTATEDRECTD21*%

G04:AMPARAMS|DCode=22|XSize=23.6mil|YSize=29.5mil|CornerRadius=0mil|HoleSize=0mil|Usage=FLASHONLY|Rotation=135.000|XOffset=0mil|YOffset=0mil|HoleType=Round|Shape=Rectangle|*
%AMROTATEDRECTD22*
4,1,4,0.0188,0.0021,-0.0021,-0.0188,-0.0188,-0.0021,0.0021,0.0188,0.0188,0.0021,0.0*
%
%ADD22ROTATEDRECTD22*%

%ADD27R,0.0374X0.0335*%
%ADD37R,0.0236X0.0520*%
%ADD38R,0.0484X0.0709*%
%ADD41C,0.0300*%
%ADD42C,0.0150*%
%ADD43C,0.0200*%
%ADD54R,0.0335X0.0374*%
%ADD56C,0.0119*%
%ADD58C,0.0118*%
%ADD62C,0.1102*%
%ADD63R,0.0594X0.0594*%
%ADD64C,0.0594*%
%ADD65C,0.0240*%
%ADD66C,0.1004*%
%ADD67C,0.0886*%
%ADD68R,0.0315X0.0315*%
%ADD69R,0.0315X0.0315*%
%ADD70R,0.0669X0.0512*%
%ADD71R,0.0315X0.0315*%
G36*
X035391Y016441D02*
X020654D01*
Y020157D01*
X020704Y020178D01*
X021105Y019776D01*
X021158Y019741D01*
X02122Y019728D01*
X021588D01*
X021635Y019709D01*
X021706D01*
X021747Y019726D01*
X021814D01*
X021855Y019709D01*
X021926D01*
X021967Y019726D01*
X024214D01*
X024255Y019709D01*
X024326D01*
X024367Y019726D01*
X024514D01*
X024555Y019709D01*
X024626D01*
X024693Y019736D01*
X024743Y019787D01*
X024768Y019848D01*
X024772Y019851D01*
X025942D01*
X026138Y019656D01*
X026182Y019626D01*
X026235Y019616D01*
X026235Y019616D01*
X026446D01*
X026499Y019626D01*
X026544Y019656D01*
X026739Y019851D01*
X029939D01*
X02994Y019851D01*
X029941Y019851D01*
X030141D01*
X030193Y019862D01*
X030214Y019876D01*
X030255Y019859D01*
X030326D01*
X030393Y019886D01*
X030443Y019937D01*
X030471Y020003D01*
Y020075D01*
X030446Y020134D01*
Y020236D01*
X030434Y020298D01*
X030421Y020318D01*
Y020325D01*
X030393Y020391D01*
X030343Y020442D01*
X030276Y020469D01*
X030205D01*
X030139Y020442D01*
X030124Y020427D01*
X030078Y020397D01*
X029998Y020316D01*
X029939Y020292D01*
X029888Y020241D01*
X02986Y020175D01*
Y020165D01*
X029825Y02013D01*
X029823Y020127D01*
X026682D01*
X026682Y020127D01*
X026629Y020116D01*
X026584Y020086D01*
X026565Y020067D01*
X026506Y020079D01*
X026493Y020111D01*
X026453Y020151D01*
Y021638D01*
X02652Y021705D01*
X02652Y021705D01*
X026544Y021742D01*
X026553Y021785D01*
Y023332D01*
X026797D01*
Y024046D01*
X026084D01*
Y023332D01*
X026328D01*
Y021831D01*
X026261Y021764D01*
X026237Y021727D01*
X026228Y021685D01*
X026228Y021685D01*
Y020151D01*
X026188Y020111D01*
X026175Y020079D01*
X026116Y020067D01*
X026097Y020086D01*
X026052Y020116D01*
X025999Y020127D01*
X024715D01*
X024662Y020116D01*
X024618Y020086D01*
X024618Y020086D01*
X0246Y020069D01*
X024555D01*
X024514Y020052D01*
X024367D01*
X024326Y020069D01*
X024255D01*
X024214Y020052D01*
X022104D01*
X02207Y020102D01*
X022071Y020103D01*
Y020175D01*
X022043Y020241D01*
X021993Y020292D01*
X021926Y020319D01*
X021855D01*
X021814Y020302D01*
X021747D01*
X021706Y020319D01*
X021635D01*
X021569Y020292D01*
X021518Y020241D01*
X021491Y020175D01*
Y020103D01*
X021493Y020096D01*
X021466Y020055D01*
X021288D01*
X020936Y020407D01*
Y020733D01*
X020986Y020748D01*
X02101Y020714D01*
X021095Y020628D01*
X021195Y020562D01*
X021306Y020515D01*
X021424Y020492D01*
X021544D01*
X021663Y020515D01*
X021774Y020562D01*
X021874Y020628D01*
X021959Y020714D01*
X022026Y020814D01*
X022072Y020925D01*
X022095Y021043D01*
Y021163D01*
X02208Y021241D01*
X022112Y021279D01*
X022804D01*
Y021911D01*
X022015D01*
Y021495D01*
X021967Y021481D01*
X021959Y021493D01*
X021874Y021578D01*
X021774Y021645D01*
X021663Y021691D01*
X021544Y021714D01*
X021424D01*
X021306Y021691D01*
X021195Y021645D01*
X021095Y021578D01*
X02101Y021493D01*
X020986Y021458D01*
X020936Y021473D01*
Y022505D01*
X020986Y02252D01*
X02101Y022485D01*
X021095Y0224D01*
X021195Y022333D01*
X021306Y022287D01*
X021424Y022264D01*
X021544D01*
X021663Y022287D01*
X021774Y022333D01*
X021874Y0224D01*
X021959Y022485D01*
X021967Y022497D01*
X022015Y022483D01*
Y022067D01*
X022804D01*
Y022699D01*
X022112D01*
X02208Y022737D01*
X022095Y022815D01*
Y022935D01*
X02208Y023012D01*
X022112Y023051D01*
X022804D01*
Y023683D01*
X022015D01*
Y023267D01*
X021967Y023252D01*
X021959Y023264D01*
X021874Y02335D01*
X021774Y023416D01*
X021663Y023463D01*
X021544Y023486D01*
X021424D01*
X021306Y023463D01*
X021195Y023416D01*
X021095Y02335D01*
X02101Y023264D01*
X020986Y02323D01*
X020936Y023245D01*
Y024104D01*
X022453Y025621D01*
X023236D01*
X023298Y025634D01*
X023351Y025669D01*
X023852Y026169D01*
X023867Y026176D01*
X023964D01*
X024005Y026159D01*
X024076D01*
X024143Y026186D01*
X024193Y026237D01*
X024221Y026303D01*
Y026375D01*
X024204Y026416D01*
Y026512D01*
X024221Y026553D01*
Y026625D01*
X024193Y026691D01*
X024143Y026742D01*
X024076Y026769D01*
X024005D01*
X023964Y026752D01*
X023867D01*
X023826Y026769D01*
X023755D01*
X023689Y026742D01*
X023638Y026691D01*
X02361Y026625D01*
Y026553D01*
X023627Y026512D01*
Y026416D01*
X023621Y0264D01*
X023168Y025947D01*
X022353D01*
Y026006D01*
X021918D01*
Y025571D01*
X021918Y025571D01*
X021918D01*
X0219Y025529D01*
X020704Y024333D01*
X020654Y024354D01*
Y027338D01*
X035391D01*
Y016441D01*
D02*
G37*
G36*
X020409Y021362D02*
X014456D01*
X014441Y021407D01*
X01444Y021412D01*
X014538Y02151D01*
X014596D01*
X014662Y021538D01*
X014713Y021589D01*
X01474Y021655D01*
Y021726D01*
X014713Y021793D01*
X014662Y021843D01*
X014596Y021871D01*
X014524D01*
X014458Y021843D01*
X014407Y021793D01*
X01438Y021726D01*
Y021669D01*
X014313Y021603D01*
X012002D01*
X011962Y021643D01*
X011896Y021671D01*
X011824D01*
X011758Y021643D01*
X011707Y021593D01*
X01168Y021526D01*
Y021455D01*
X011697Y021412D01*
X011668Y021362D01*
X004D01*
Y027338D01*
X020409D01*
Y021362D01*
D02*
G37*
G36*
Y015142D02*
X004D01*
Y021118D01*
X006043D01*
X006062Y021072D01*
X006028Y021038D01*
X005788D01*
Y020603D01*
X006182D01*
X006215Y020553D01*
X006211Y020543D01*
X006095D01*
X006095Y020543D01*
X006073Y020539D01*
X006046Y02055D01*
X005974D01*
X005908Y020523D01*
X005857Y020472D01*
X00583Y020406D01*
Y020334D01*
X005857Y020268D01*
X005908Y020217D01*
X005974Y02019D01*
X006046D01*
X006112Y020217D01*
X006163Y020268D01*
X006176Y020301D01*
X006377D01*
X006377Y020301D01*
X006388Y020303D01*
X006614D01*
Y020886D01*
X006927D01*
X007003Y020809D01*
Y020719D01*
X006986Y020693D01*
X00697Y020611D01*
X006986Y020529D01*
X007006Y0205D01*
Y020303D01*
X007362D01*
Y020365D01*
X007608D01*
Y020121D01*
X007909D01*
X008246Y019785D01*
Y01942D01*
X008262Y019338D01*
X008309Y019269D01*
X008378Y019222D01*
X00846Y019206D01*
X008542Y019222D01*
X008611Y019269D01*
X008658Y019338D01*
X008674Y01942D01*
Y019874D01*
Y020495D01*
X008658Y020577D01*
X008611Y020646D01*
X008542Y020693D01*
X00846Y020709D01*
X008378Y020693D01*
X008309Y020646D01*
X008262Y020577D01*
X008262Y020576D01*
X008212Y020581D01*
Y02095D01*
X007608D01*
Y020793D01*
X007362D01*
Y020943D01*
X007252D01*
X007238Y020963D01*
X00713Y021072D01*
X007149Y021118D01*
X020409D01*
Y015142D01*
D02*
G37*
G36*
X018737Y004D02*
X004D01*
Y007716D01*
X00405Y007737D01*
X004452Y007335D01*
X004505Y0073D01*
X004567Y007288D01*
X004934D01*
X004981Y007268D01*
X005053D01*
X005094Y007285D01*
X00516D01*
X005201Y007268D01*
X005273D01*
X005314Y007285D01*
X00756D01*
X007601Y007268D01*
X007673D01*
X007714Y007285D01*
X00786D01*
X007901Y007268D01*
X007973D01*
X008039Y007295D01*
X00809Y007346D01*
X008115Y007407D01*
X008118Y00741D01*
X009289D01*
X009484Y007215D01*
X009529Y007185D01*
X009581Y007175D01*
X009581Y007175D01*
X009793D01*
X009845Y007185D01*
X00989Y007215D01*
X010085Y00741D01*
X013285D01*
X013287Y00741D01*
X013288Y00741D01*
X013487D01*
X01354Y007421D01*
X013561Y007435D01*
X013601Y007418D01*
X013673D01*
X013739Y007445D01*
X01379Y007496D01*
X013817Y007562D01*
Y007634D01*
X013792Y007693D01*
Y007795D01*
X01378Y007857D01*
X013767Y007877D01*
Y007884D01*
X01374Y00795D01*
X013689Y008001D01*
X013623Y008028D01*
X013551D01*
X013485Y008001D01*
X013471Y007986D01*
X013425Y007956D01*
X013344Y007875D01*
X013285Y007851D01*
X013234Y0078D01*
X013207Y007734D01*
Y007724D01*
X013171Y007689D01*
X013169Y007686D01*
X010028D01*
X010028Y007686D01*
X009975Y007675D01*
X009931Y007645D01*
X009912Y007626D01*
X009853Y007638D01*
X00984Y00767D01*
X009799Y00771D01*
Y009197D01*
X009866Y009264D01*
X009866Y009264D01*
X009891Y009301D01*
X009899Y009344D01*
Y010891D01*
X010144D01*
Y011605D01*
X00943D01*
Y010891D01*
X009675D01*
Y00939D01*
X009608Y009323D01*
X009583Y009286D01*
X009575Y009244D01*
X009575Y009244D01*
Y00771D01*
X009534Y00767D01*
X009521Y007638D01*
X009462Y007626D01*
X009443Y007645D01*
X009399Y007675D01*
X009346Y007686D01*
X008061D01*
X008009Y007675D01*
X007964Y007645D01*
X007964Y007645D01*
X007947Y007628D01*
X007901D01*
X00786Y007611D01*
X007714D01*
X007673Y007628D01*
X007601D01*
X00756Y007611D01*
X00545D01*
X005417Y007661D01*
X005417Y007662D01*
Y007734D01*
X00539Y0078D01*
X005339Y007851D01*
X005273Y007878D01*
X005201D01*
X00516Y007861D01*
X005094D01*
X005053Y007878D01*
X004981D01*
X004915Y007851D01*
X004864Y0078D01*
X004837Y007734D01*
Y007662D01*
X00484Y007655D01*
X004812Y007614D01*
X004635D01*
X004283Y007966D01*
Y008292D01*
X004333Y008307D01*
X004356Y008273D01*
X004441Y008187D01*
X004541Y008121D01*
X004652Y008075D01*
X004771Y008051D01*
X004891D01*
X005009Y008075D01*
X00512Y008121D01*
X00522Y008187D01*
X005305Y008273D01*
X005372Y008373D01*
X005418Y008484D01*
X005442Y008602D01*
Y008722D01*
X005427Y0088D01*
X005458Y008838D01*
X006151D01*
Y00947D01*
X005361D01*
Y009054D01*
X005313Y00904D01*
X005305Y009052D01*
X00522Y009137D01*
X00512Y009204D01*
X005009Y00925D01*
X004891Y009273D01*
X004771D01*
X004652Y00925D01*
X004541Y009204D01*
X004441Y009137D01*
X004356Y009052D01*
X004333Y009017D01*
X004283Y009032D01*
Y010064D01*
X004333Y010079D01*
X004356Y010044D01*
X004441Y009959D01*
X004541Y009892D01*
X004652Y009846D01*
X004771Y009823D01*
X004891D01*
X005009Y009846D01*
X00512Y009892D01*
X00522Y009959D01*
X005305Y010044D01*
X005313Y010056D01*
X005361Y010042D01*
Y009626D01*
X006151D01*
Y010258D01*
X005458D01*
X005427Y010296D01*
X005442Y010374D01*
Y010494D01*
X005427Y010571D01*
X005458Y01061D01*
X006151D01*
Y011242D01*
X005361D01*
Y010826D01*
X005313Y010812D01*
X005305Y010823D01*
X00522Y010909D01*
X00512Y010975D01*
X005009Y011022D01*
X004891Y011045D01*
X004771D01*
X004652Y011022D01*
X004541Y010975D01*
X004441Y010909D01*
X004356Y010823D01*
X004333Y010789D01*
X004283Y010804D01*
Y011663D01*
X0058Y01318D01*
X006582D01*
X006645Y013193D01*
X006698Y013228D01*
X007198Y013728D01*
X007214Y013735D01*
X00731D01*
X007351Y013718D01*
X007423D01*
X007489Y013745D01*
X00754Y013796D01*
X007567Y013862D01*
Y013934D01*
X00755Y013975D01*
Y014071D01*
X007567Y014112D01*
Y014184D01*
X00754Y01425D01*
X007489Y014301D01*
X007423Y014328D01*
X007351D01*
X00731Y014311D01*
X007214D01*
X007173Y014328D01*
X007101D01*
X007035Y014301D01*
X006984Y01425D01*
X006957Y014184D01*
Y014112D01*
X006974Y014071D01*
Y013975D01*
X006967Y013959D01*
X006515Y013506D01*
X0057D01*
Y013566D01*
X005265D01*
Y013131D01*
X005265Y013131D01*
X005265D01*
X005246Y013088D01*
X00405Y011892D01*
X004Y011913D01*
Y014897D01*
X018737D01*
Y004D01*
D02*
G37*
G36*
X038244Y010221D02*
X036201D01*
X036182Y010267D01*
X036216Y010301D01*
X036456D01*
Y010736D01*
X036062D01*
X036029Y010786D01*
X036033Y010796D01*
X036149D01*
X036149Y010796D01*
X036171Y0108D01*
X036198Y010788D01*
X03627D01*
X036336Y010816D01*
X036387Y010867D01*
X036414Y010933D01*
Y011004D01*
X036387Y011071D01*
X036336Y011121D01*
X03627Y011149D01*
X036198D01*
X036132Y011121D01*
X036082Y011071D01*
X036068Y011038D01*
X035867D01*
X035867Y011038D01*
X035856Y011036D01*
X03563D01*
Y010453D01*
X035317D01*
X035241Y010529D01*
Y01062D01*
X035258Y010645D01*
X035274Y010727D01*
X035258Y010809D01*
X035238Y010839D01*
Y011036D01*
X034882D01*
Y010973D01*
X034636D01*
Y011217D01*
X034335D01*
X033998Y011554D01*
Y011919D01*
X033982Y012D01*
X033936Y01207D01*
X033866Y012116D01*
X033784Y012133D01*
X033702Y012116D01*
X033633Y01207D01*
X033586Y012D01*
X03357Y011919D01*
Y011465D01*
Y010844D01*
X033586Y010762D01*
X033633Y010692D01*
X033702Y010646D01*
X033784Y01063D01*
X033866Y010646D01*
X033936Y010692D01*
X033982Y010762D01*
X033982Y010762D01*
X034032Y010757D01*
Y010388D01*
X034636D01*
Y010545D01*
X034882D01*
Y010396D01*
X034992D01*
X035006Y010375D01*
X035114Y010267D01*
X035095Y010221D01*
X021835D01*
Y016197D01*
X038244D01*
Y010221D01*
D02*
G37*
G36*
Y004D02*
X021835D01*
Y009976D01*
X027788D01*
X027804Y009931D01*
X027804Y009926D01*
X027706Y009828D01*
X027648D01*
X027582Y009801D01*
X027532Y00975D01*
X027504Y009684D01*
Y009612D01*
X027532Y009546D01*
X027582Y009495D01*
X027648Y009468D01*
X02772D01*
X027786Y009495D01*
X027837Y009546D01*
X027864Y009612D01*
Y00967D01*
X027931Y009736D01*
X030242D01*
X030282Y009695D01*
X030348Y009668D01*
X03042D01*
X030486Y009695D01*
X030537Y009746D01*
X030564Y009812D01*
Y009884D01*
X030547Y009926D01*
X030576Y009976D01*
X038244D01*
Y004D01*
D02*
G37*
%LPC*%
G36*
X021812Y026686D02*
X021357D01*
Y026192D01*
X021447D01*
Y026006D01*
X021328D01*
Y025571D01*
X021763D01*
Y026006D01*
X021722D01*
Y026192D01*
X021812D01*
Y026686D01*
D02*
G37*
G36*
X026488Y025046D02*
X026394D01*
X026303Y025022D01*
X026221Y024975D01*
X026155Y024908D01*
X026108Y024827D01*
X026084Y024736D01*
Y024642D01*
X026108Y024551D01*
X026155Y02447D01*
X026221Y024403D01*
X026303Y024356D01*
X026394Y024332D01*
X026488D01*
X026578Y024356D01*
X02666Y024403D01*
X026726Y02447D01*
X026773Y024551D01*
X026797Y024642D01*
Y024736D01*
X026773Y024827D01*
X026726Y024908D01*
X02666Y024975D01*
X026578Y025022D01*
X026488Y025046D01*
D02*
G37*
G36*
X029658Y023852D02*
X029223D01*
Y023712D01*
X029038D01*
Y023827D01*
X028544D01*
Y023373D01*
X029038D01*
Y023488D01*
X029223D01*
Y023417D01*
X029658D01*
Y023852D01*
D02*
G37*
G36*
X029691Y024201D02*
X029691Y024201D01*
X028541D01*
X028498Y024193D01*
X028461Y024168D01*
X028461Y024168D01*
X027813Y02352D01*
X027773Y02355D01*
X027773Y023551D01*
X027797Y023642D01*
Y023736D01*
X027773Y023827D01*
X027726Y023908D01*
X02766Y023975D01*
X027578Y024022D01*
X027488Y024046D01*
X027394D01*
X027303Y024022D01*
X027221Y023975D01*
X027155Y023908D01*
X027108Y023827D01*
X027084Y023736D01*
Y023642D01*
X027108Y023551D01*
X027155Y02347D01*
X027221Y023403D01*
X027288Y023365D01*
X0273Y02332D01*
X027299Y023306D01*
X026761Y022768D01*
X026737Y022732D01*
X026728Y022689D01*
X026728Y022689D01*
Y020681D01*
X026688Y020641D01*
X02666Y020575D01*
Y020503D01*
X026688Y020437D01*
X026739Y020386D01*
X026805Y020359D01*
X026876D01*
X026943Y020386D01*
X026993Y020437D01*
X027021Y020503D01*
Y020575D01*
X026993Y020641D01*
X026953Y020681D01*
Y022643D01*
X02752Y02321D01*
X02752Y02321D01*
X027544Y023246D01*
X027553Y023289D01*
X027553Y023289D01*
Y02335D01*
X027578Y023356D01*
X02766Y023403D01*
X027685Y023429D01*
X027731Y023405D01*
X027728Y023389D01*
X027728Y023389D01*
Y023027D01*
X027718Y023016D01*
X027678Y022998D01*
X027626Y023019D01*
X027555D01*
X027489Y022992D01*
X027438Y022941D01*
X02741Y022875D01*
Y022803D01*
X027438Y022737D01*
X027461Y022714D01*
X027438Y022691D01*
X02741Y022625D01*
Y022553D01*
X027438Y022487D01*
X027489Y022436D01*
X027555Y022409D01*
X027626D01*
X027693Y022436D01*
X027716Y022459D01*
X027739Y022436D01*
X027805Y022409D01*
X027876D01*
X027943Y022436D01*
X027993Y022487D01*
X028021Y022553D01*
Y022625D01*
X027993Y022691D01*
X02797Y022714D01*
X027993Y022737D01*
X028021Y022803D01*
Y022875D01*
X027993Y022941D01*
X027953Y022981D01*
Y023343D01*
X028587Y023977D01*
X029644D01*
X029778Y023843D01*
Y023285D01*
X029704Y023211D01*
X029658Y02323D01*
Y023261D01*
X029223D01*
Y022826D01*
X029658D01*
Y022901D01*
X029695Y022932D01*
X029738Y02294D01*
X029775Y022964D01*
X02997Y02316D01*
X029994Y023196D01*
X030003Y023239D01*
X030003Y023239D01*
Y023889D01*
X030003Y023889D01*
X029994Y023932D01*
X02997Y023968D01*
X02997Y023968D01*
X02977Y024168D01*
X029733Y024193D01*
X029691Y024201D01*
D02*
G37*
G36*
X031176Y023869D02*
X031105D01*
X031039Y023842D01*
X030988Y023791D01*
X03096Y023725D01*
Y023653D01*
X030988Y023587D01*
X031039Y023536D01*
X031105Y023509D01*
X031176D01*
X031243Y023536D01*
X031293Y023587D01*
X031321Y023653D01*
Y023725D01*
X031293Y023791D01*
X031243Y023842D01*
X031176Y023869D01*
D02*
G37*
G36*
X032726Y023519D02*
X032655D01*
X032589Y023492D01*
X032566Y023469D01*
X032543Y023492D01*
X032476Y023519D01*
X032405D01*
X032339Y023492D01*
X032288Y023441D01*
X03226Y023375D01*
Y023303D01*
X032288Y023237D01*
X032339Y023186D01*
X032405Y023159D01*
X032476D01*
X032543Y023186D01*
X032566Y023209D01*
X032589Y023186D01*
X032655Y023159D01*
X032726D01*
X032793Y023186D01*
X032843Y023237D01*
X032871Y023303D01*
Y023375D01*
X032843Y023441D01*
X032793Y023492D01*
X032726Y023519D01*
D02*
G37*
G36*
X029038Y023316D02*
X028544D01*
Y022861D01*
X028778D01*
Y022131D01*
X028738Y022091D01*
X02871Y022025D01*
Y021953D01*
X028738Y021887D01*
X028789Y021836D01*
X028855Y021809D01*
X028926D01*
X028993Y021836D01*
X029043Y021887D01*
X029071Y021953D01*
Y022025D01*
X029043Y022091D01*
X029003Y022131D01*
Y022861D01*
X029038D01*
Y023316D01*
D02*
G37*
G36*
X030426Y022569D02*
X030355D01*
X030289Y022542D01*
X030238Y022491D01*
X03021Y022425D01*
Y022368D01*
X030111Y022268D01*
X030087Y022232D01*
X030078Y022189D01*
X030078Y022189D01*
Y021419D01*
X030055D01*
X029989Y021392D01*
X029938Y021341D01*
X02991Y021275D01*
Y021203D01*
X029938Y021137D01*
X029989Y021086D01*
X030055Y021059D01*
X030126D01*
X030193Y021086D01*
X030243Y021137D01*
X030271Y021203D01*
Y021275D01*
X030266Y021285D01*
X03027Y021288D01*
X03027Y021288D01*
X030294Y021325D01*
X030303Y021368D01*
Y022143D01*
X030369Y022209D01*
X030426D01*
X030493Y022236D01*
X030543Y022287D01*
X030571Y022353D01*
Y022425D01*
X030543Y022491D01*
X030493Y022542D01*
X030426Y022569D01*
D02*
G37*
G36*
X023876Y019669D02*
X023805D01*
X023764Y019652D01*
X022541D01*
X022478Y01964D01*
X022425Y019604D01*
X022073Y019252D01*
X021217D01*
X021176Y019269D01*
X021105D01*
X021039Y019242D01*
X020988Y019191D01*
X02096Y019125D01*
Y019053D01*
X020988Y018987D01*
X021039Y018936D01*
X021105Y018909D01*
X021176D01*
X021217Y018926D01*
X022141D01*
X022203Y018938D01*
X022256Y018974D01*
X022608Y019326D01*
X023764D01*
X023805Y019309D01*
X023876D01*
X023943Y019336D01*
X023993Y019387D01*
X024021Y019453D01*
Y019525D01*
X023993Y019591D01*
X023943Y019642D01*
X023876Y019669D01*
D02*
G37*
G36*
X025076Y018769D02*
X025005D01*
X024939Y018742D01*
X024888Y018691D01*
X02486Y018625D01*
Y018553D01*
X024888Y018487D01*
X024939Y018436D01*
X025005Y018409D01*
X025076D01*
X025143Y018436D01*
X02518Y018474D01*
X025822D01*
X025865Y01843D01*
X025931Y018403D01*
X026003D01*
X026069Y01843D01*
X02612Y018481D01*
X026147Y018547D01*
Y018619D01*
X02612Y018685D01*
X026069Y018736D01*
X026003Y018763D01*
X025931D01*
X025865Y018736D01*
X025828Y018698D01*
X025186D01*
X025143Y018742D01*
X025076Y018769D01*
D02*
G37*
G36*
X012777Y027203D02*
X012342D01*
Y026768D01*
X012777D01*
Y026874D01*
X012963D01*
Y026719D01*
X013457D01*
Y027174D01*
X012963D01*
Y027098D01*
X012777D01*
Y027203D01*
D02*
G37*
G36*
X014896Y026921D02*
X014824D01*
X014758Y026893D01*
X014707Y026843D01*
X01468Y026776D01*
Y026705D01*
X014707Y026639D01*
X014758Y026588D01*
X014824Y02656D01*
X014896D01*
X014962Y026588D01*
X015013Y026639D01*
X01504Y026705D01*
Y026776D01*
X015013Y026843D01*
X014962Y026893D01*
X014896Y026921D01*
D02*
G37*
G36*
X009207Y027197D02*
X009113D01*
X009022Y027173D01*
X008941Y027126D01*
X008874Y02706D01*
X008827Y026978D01*
X008803Y026888D01*
Y026794D01*
X008827Y026703D01*
X008874Y026621D01*
X008941Y026555D01*
X009022Y026508D01*
X009113Y026484D01*
X009207D01*
X009298Y026508D01*
X009379Y026555D01*
X009445Y026621D01*
X009492Y026703D01*
X009517Y026794D01*
Y026888D01*
X009492Y026978D01*
X009445Y02706D01*
X009379Y027126D01*
X009298Y027173D01*
X009207Y027197D01*
D02*
G37*
G36*
X016446Y026321D02*
X016374D01*
X016308Y026293D01*
X016257Y026243D01*
X01623Y026176D01*
Y026105D01*
X016257Y026039D01*
X016308Y025988D01*
X016374Y02596D01*
X016446D01*
X016512Y025988D01*
X016563Y026039D01*
X01659Y026105D01*
Y026176D01*
X016563Y026243D01*
X016512Y026293D01*
X016446Y026321D01*
D02*
G37*
G36*
X01201Y026955D02*
X01166D01*
X011578Y026938D01*
X011509Y026892D01*
X011462Y026822D01*
X011446Y026741D01*
X011462Y026659D01*
X011509Y026589D01*
X011759Y026339D01*
X011759Y026339D01*
X011854Y026244D01*
X011923Y026197D01*
X012005Y026181D01*
X012342D01*
Y026178D01*
X012726D01*
X012752Y026139D01*
X012755Y026128D01*
X012748Y026091D01*
X012748Y026091D01*
Y025883D01*
X012707Y025843D01*
X01268Y025776D01*
Y025705D01*
X012707Y025639D01*
X012758Y025588D01*
X012824Y02556D01*
X012896D01*
X012962Y025588D01*
X013013Y025639D01*
X01304Y025705D01*
Y025776D01*
X013013Y025843D01*
X012972Y025883D01*
Y026044D01*
X013135Y026207D01*
X013457D01*
Y026662D01*
X012963D01*
Y026352D01*
X012827Y026217D01*
X012777Y026237D01*
Y026613D01*
X012342D01*
Y026609D01*
X012224D01*
Y026741D01*
X012208Y026822D01*
X012161Y026892D01*
X012092Y026938D01*
X01201Y026955D01*
D02*
G37*
G36*
X007462Y026008D02*
X007106D01*
Y025685D01*
X007103Y02567D01*
Y025375D01*
X007081Y025354D01*
X006739D01*
X006717Y025375D01*
Y02567D01*
X006714Y025685D01*
Y026008D01*
X006358D01*
Y025851D01*
X006123D01*
Y025984D01*
X005334D01*
Y025569D01*
X005286Y025554D01*
X005278Y025566D01*
X005193Y025651D01*
X005093Y025718D01*
X004982Y025764D01*
X004864Y025788D01*
X004743D01*
X004625Y025764D01*
X004514Y025718D01*
X004414Y025651D01*
X004329Y025566D01*
X004262Y025466D01*
X004216Y025355D01*
X004192Y025237D01*
Y025116D01*
X004216Y024998D01*
X004262Y024887D01*
X004329Y024787D01*
X004414Y024702D01*
X004514Y024635D01*
X004625Y024589D01*
X004743Y024565D01*
X004864D01*
X004982Y024589D01*
X005093Y024635D01*
X005193Y024702D01*
X005278Y024787D01*
X005286Y024799D01*
X005334Y024784D01*
Y024368D01*
X006123D01*
Y025D01*
X005431D01*
X005399Y025039D01*
X005415Y025116D01*
Y025237D01*
X005399Y025314D01*
X005431Y025353D01*
X006123D01*
Y025525D01*
X006358D01*
Y025368D01*
X006391D01*
Y025308D01*
X006403Y025245D01*
X006424Y025215D01*
Y023765D01*
X006424Y023765D01*
X006432Y023722D01*
X006457Y023685D01*
X006781Y023361D01*
X006781Y023361D01*
X006817Y023337D01*
X00686Y023328D01*
X007876D01*
X00793Y023274D01*
Y023255D01*
X007957Y023189D01*
X008008Y023138D01*
X008074Y02311D01*
X008146D01*
X008212Y023138D01*
X008263Y023189D01*
X00829Y023255D01*
Y023326D01*
X008263Y023393D01*
X008212Y023443D01*
X008146Y023471D01*
X008074D01*
X008057Y023464D01*
X008001Y02352D01*
X007965Y023544D01*
X007922Y023553D01*
X007922Y023553D01*
X006906D01*
X006648Y023811D01*
Y025008D01*
X006671Y025027D01*
X007149D01*
X007211Y02504D01*
X007264Y025075D01*
X007381Y025192D01*
X007417Y025245D01*
X007429Y025308D01*
Y025368D01*
X007462D01*
Y026008D01*
D02*
G37*
G36*
X004993Y027288D02*
X004539D01*
Y026794D01*
X004993D01*
Y026877D01*
X005197D01*
Y026823D01*
X005492D01*
X005511Y026777D01*
X005388Y026654D01*
X004937D01*
X004896Y026671D01*
X004824D01*
X004758Y026643D01*
X004707Y026593D01*
X00468Y026526D01*
Y026455D01*
X004707Y026389D01*
X004758Y026338D01*
X004824Y02631D01*
X004896D01*
X004937Y026327D01*
X005455D01*
X005518Y02634D01*
X005571Y026375D01*
X006018Y026823D01*
X006223D01*
Y026927D01*
X006314D01*
X006358Y026913D01*
X006358Y026877D01*
Y026273D01*
X006714D01*
Y026511D01*
X006737Y026525D01*
X006764Y026535D01*
X006824Y02651D01*
X006896D01*
X006962Y026538D01*
X007013Y026589D01*
X00704Y026655D01*
Y026726D01*
X007013Y026793D01*
X006962Y026843D01*
X006896Y026871D01*
X006824D01*
X006764Y026846D01*
X006737Y026856D01*
X00672Y026866D01*
X006722Y026916D01*
X006758Y026927D01*
X007081D01*
X007103Y026906D01*
Y026682D01*
X007106Y026666D01*
Y026273D01*
X007462D01*
Y026477D01*
X007708D01*
Y026376D01*
X008136D01*
X008152Y026373D01*
X008247D01*
X00833Y02629D01*
Y026255D01*
X008347Y026214D01*
Y025917D01*
X00833Y025876D01*
Y025805D01*
X008347Y025764D01*
Y025517D01*
X00833Y025476D01*
Y025405D01*
X008357Y025339D01*
X008359Y025328D01*
X008395Y025275D01*
X008447Y02524D01*
X00851Y025227D01*
X008572Y02524D01*
X008625Y025275D01*
X008661Y025328D01*
X008663Y025339D01*
X00869Y025405D01*
Y025476D01*
X008673Y025517D01*
Y025764D01*
X00869Y025805D01*
Y025876D01*
X008673Y025917D01*
Y026214D01*
X00869Y026255D01*
Y026326D01*
X008673Y026367D01*
Y026564D01*
X00869Y026605D01*
Y026676D01*
X008663Y026743D01*
X008612Y026793D01*
X008546Y026821D01*
X008474D01*
X008433Y026804D01*
X008312D01*
Y027205D01*
X007708D01*
Y026804D01*
X007462D01*
Y026913D01*
X007429D01*
Y026973D01*
X007417Y027036D01*
X007381Y027089D01*
X007264Y027206D01*
X007211Y027241D01*
X007149Y027254D01*
X006223D01*
Y027258D01*
X005788D01*
Y027054D01*
X005678Y026944D01*
X005632Y026964D01*
Y027258D01*
X005197D01*
Y027204D01*
X004993D01*
Y027288D01*
D02*
G37*
G36*
X014158Y025658D02*
X014086D01*
X01402Y025631D01*
X01397Y02558D01*
X013942Y025514D01*
Y025442D01*
X01397Y025376D01*
X01401Y025336D01*
Y025152D01*
X014006Y025146D01*
X013998Y025103D01*
X013998Y025103D01*
Y024787D01*
X013931Y024721D01*
X013874D01*
X013808Y024693D01*
X013757Y024643D01*
X01373Y024576D01*
Y024505D01*
X013757Y024439D01*
X013808Y024388D01*
X013874Y02436D01*
X013946D01*
X014012Y024388D01*
X014063Y024439D01*
X01409Y024505D01*
Y024562D01*
X014189Y024661D01*
X014189Y024661D01*
X014214Y024698D01*
X014222Y024741D01*
X014222Y024741D01*
Y025067D01*
X014226Y025073D01*
X014234Y025116D01*
X014234Y025116D01*
Y025336D01*
X014275Y025376D01*
X014302Y025442D01*
Y025514D01*
X014275Y02558D01*
X014224Y025631D01*
X014158Y025658D01*
D02*
G37*
G36*
X006123Y024213D02*
X005334D01*
Y023797D01*
X005286Y023782D01*
X005278Y023794D01*
X005193Y023879D01*
X005093Y023946D01*
X004982Y023992D01*
X004864Y024016D01*
X004743D01*
X004625Y023992D01*
X004514Y023946D01*
X004414Y023879D01*
X004329Y023794D01*
X004262Y023694D01*
X004216Y023583D01*
X004192Y023465D01*
Y023345D01*
X004216Y023226D01*
X004262Y023115D01*
X004329Y023015D01*
X004414Y02293D01*
X004514Y022863D01*
X004625Y022817D01*
X004743Y022794D01*
X004864D01*
X004982Y022817D01*
X005093Y022863D01*
X005193Y02293D01*
X005278Y023015D01*
X005345Y023115D01*
X005391Y023226D01*
X005415Y023345D01*
Y023465D01*
X005399Y023542D01*
X005431Y023581D01*
X006123D01*
Y024213D01*
D02*
G37*
G36*
X011471Y024253D02*
X011177Y02396D01*
X011224Y023913D01*
X010731Y023421D01*
X010674D01*
X010608Y023393D01*
X010557Y023343D01*
X01053Y023276D01*
Y023205D01*
X010557Y023139D01*
X010608Y023088D01*
X010674Y02306D01*
X010746D01*
X010812Y023088D01*
X010863Y023139D01*
X01089Y023205D01*
Y023262D01*
X011382Y023754D01*
X011429Y023708D01*
X011723Y024001D01*
X011471Y024253D01*
D02*
G37*
G36*
X010207Y026197D02*
X010113D01*
X010022Y026173D01*
X009941Y026126D01*
X009874Y02606D01*
X009827Y025978D01*
X009803Y025888D01*
Y025794D01*
X009827Y025703D01*
X009874Y025621D01*
X009941Y025555D01*
X010022Y025508D01*
X010113Y025484D01*
X010158D01*
X010598Y025044D01*
Y023983D01*
X010557Y023943D01*
X01053Y023876D01*
Y023805D01*
X010557Y023739D01*
X010608Y023688D01*
X010674Y02366D01*
X010746D01*
X010812Y023688D01*
X010863Y023739D01*
X01089Y023805D01*
Y023876D01*
X010863Y023943D01*
X010822Y023983D01*
Y025091D01*
X010814Y025133D01*
X010789Y02517D01*
X010789Y02517D01*
X010392Y025568D01*
X010445Y025621D01*
X010492Y025703D01*
X010517Y025794D01*
Y025888D01*
X010492Y025978D01*
X010445Y02606D01*
X010379Y026126D01*
X010298Y026173D01*
X010207Y026197D01*
D02*
G37*
G36*
X016446Y025021D02*
X016374D01*
X016308Y024993D01*
X016257Y024943D01*
X01623Y024876D01*
Y024805D01*
X016257Y024739D01*
X016308Y024688D01*
X016374Y02466D01*
X016446D01*
X016497Y024682D01*
X016624Y024555D01*
X016663Y024528D01*
X01671Y024519D01*
X01701D01*
X01773Y023799D01*
Y023755D01*
X017757Y023689D01*
X017808Y023638D01*
X017874Y02361D01*
X017946D01*
X018012Y023638D01*
X018063Y023689D01*
X01809Y023755D01*
Y023826D01*
X018063Y023893D01*
X018012Y023943D01*
X017946Y023971D01*
X017902D01*
X017146Y024727D01*
X017106Y024753D01*
X01706Y024762D01*
X01676D01*
X016619Y024903D01*
X01658Y02493D01*
X016567Y024932D01*
X016563Y024943D01*
X016512Y024993D01*
X016446Y025021D01*
D02*
G37*
G36*
X009517Y026197D02*
X008803D01*
Y025484D01*
X009216D01*
X009245Y025444D01*
X009253Y025401D01*
X009277Y025364D01*
X009831Y024811D01*
Y023625D01*
X009826Y023601D01*
X009808Y023593D01*
X009757Y023543D01*
X00973Y023476D01*
Y023405D01*
X009757Y023339D01*
X009808Y023288D01*
X009874Y02326D01*
X009946D01*
X010012Y023288D01*
X010063Y023339D01*
X01009Y023405D01*
Y023476D01*
X010063Y023543D01*
X010049Y023556D01*
Y023565D01*
X010055Y023599D01*
Y024857D01*
X010047Y0249D01*
X010023Y024936D01*
X010023Y024936D01*
X009505Y025454D01*
X009517Y025484D01*
X009517D01*
Y026197D01*
D02*
G37*
G36*
X014146Y023971D02*
X014074D01*
X014008Y023943D01*
X013957Y023893D01*
X01393Y023826D01*
Y023771D01*
X013874D01*
X013808Y023743D01*
X013757Y023693D01*
X01373Y023626D01*
Y023555D01*
X013757Y023489D01*
X013808Y023438D01*
X013874Y02341D01*
X01393D01*
Y023355D01*
X013957Y023289D01*
X014008Y023238D01*
X014074Y02321D01*
X014146D01*
X014212Y023238D01*
X014263Y023289D01*
X01429Y023355D01*
Y02341D01*
X014346D01*
X014412Y023438D01*
X014463Y023489D01*
X01449Y023555D01*
Y023626D01*
X014463Y023693D01*
X014412Y023743D01*
X014346Y023771D01*
X01429D01*
Y023826D01*
X014263Y023893D01*
X014212Y023943D01*
X014146Y023971D01*
D02*
G37*
G36*
X012143Y023738D02*
X011892Y023486D01*
X012505Y022872D01*
X012505D01*
X012547Y022864D01*
X012557Y022839D01*
X012608Y022788D01*
X012674Y02276D01*
X012746D01*
X012812Y022788D01*
X012863Y022839D01*
X01289Y022905D01*
Y022976D01*
X012863Y023043D01*
X012812Y023093D01*
X012759Y023115D01*
X012757Y023124D01*
Y023124D01*
X012143Y023738D01*
D02*
G37*
G36*
X009396Y023071D02*
X009324D01*
X009258Y023043D01*
X009207Y022993D01*
X00918Y022926D01*
Y022855D01*
X009207Y022789D01*
X009243Y022753D01*
X009222Y022703D01*
X00781D01*
X007767Y022694D01*
X007731Y02267D01*
X007731Y02267D01*
X007513Y022453D01*
X006052D01*
X006012Y022493D01*
X005946Y022521D01*
X005874D01*
X005808Y022493D01*
X005757Y022443D01*
X00573Y022376D01*
Y022305D01*
X005757Y022239D01*
X005808Y022188D01*
X005874Y02216D01*
X005946D01*
X006012Y022188D01*
X006052Y022228D01*
X00756D01*
X00756Y022228D01*
X007603Y022237D01*
X007639Y022261D01*
X007856Y022478D01*
X00954D01*
X009541Y022477D01*
X009557Y022439D01*
X009593Y022403D01*
X009572Y022353D01*
X009252D01*
X009212Y022393D01*
X009146Y022421D01*
X009074D01*
X009008Y022393D01*
X008957Y022343D01*
X00893Y022276D01*
Y022205D01*
X008957Y022139D01*
X009008Y022088D01*
X009074Y02206D01*
X009146D01*
X009212Y022088D01*
X009252Y022128D01*
X010017D01*
X010058Y022088D01*
X010124Y02206D01*
X010196D01*
X010262Y022088D01*
X010313Y022139D01*
X01034Y022205D01*
Y022276D01*
X010313Y022343D01*
X010262Y022393D01*
X010196Y022421D01*
X010124D01*
X010058Y022393D01*
X010017Y022353D01*
X009847D01*
X009827Y022403D01*
X009863Y022439D01*
X00989Y022505D01*
Y022576D01*
X009863Y022643D01*
X009812Y022693D01*
X009746Y022721D01*
X009674D01*
X009615Y022696D01*
X009581Y022703D01*
X009581Y022703D01*
X009497D01*
X009477Y022753D01*
X009513Y022789D01*
X00954Y022855D01*
Y022926D01*
X009513Y022993D01*
X009462Y023043D01*
X009396Y023071D01*
D02*
G37*
G36*
X011615Y023209D02*
X011363Y022957D01*
X011976Y022343D01*
X011978Y022344D01*
X012007Y022339D01*
X012058Y022288D01*
X012124Y02226D01*
X012196D01*
X012262Y022288D01*
X012313Y022339D01*
X01234Y022405D01*
Y022476D01*
X012313Y022543D01*
X012262Y022593D01*
X012208Y022616D01*
X011615Y023209D01*
D02*
G37*
G36*
X013307Y020953D02*
X012813D01*
Y020838D01*
X012627D01*
Y020933D01*
X012192D01*
Y020498D01*
X012627D01*
Y020614D01*
X012813D01*
Y020499D01*
X013307D01*
Y020953D01*
D02*
G37*
G36*
X004993Y021067D02*
X004539D01*
Y020573D01*
X004993D01*
Y020657D01*
X005197D01*
Y020603D01*
X005632D01*
Y021038D01*
X005197D01*
Y020983D01*
X004993D01*
Y021067D01*
D02*
G37*
G36*
X015347Y020949D02*
X015275D01*
X015209Y020922D01*
X015158Y020871D01*
X015131Y020805D01*
Y020733D01*
X015158Y020667D01*
X015209Y020616D01*
X015275Y020589D01*
X015347D01*
X015413Y020616D01*
X015464Y020667D01*
X015491Y020733D01*
Y020805D01*
X015464Y020871D01*
X015413Y020922D01*
X015347Y020949D01*
D02*
G37*
G36*
X009157Y020977D02*
X009063D01*
X008972Y020953D01*
X008891Y020906D01*
X008824Y020839D01*
X008777Y020758D01*
X008753Y020667D01*
Y020573D01*
X008777Y020482D01*
X008824Y020401D01*
X008891Y020335D01*
X008972Y020288D01*
X009063Y020263D01*
X009157D01*
X009248Y020288D01*
X009329Y020335D01*
X009395Y020401D01*
X009442Y020482D01*
X009467Y020573D01*
Y020667D01*
X009442Y020758D01*
X009395Y020839D01*
X009329Y020906D01*
X009248Y020953D01*
X009157Y020977D01*
D02*
G37*
G36*
X015946Y0202D02*
X015874D01*
X015808Y020173D01*
X015757Y020122D01*
X01573Y020056D01*
Y019984D01*
X015757Y019918D01*
X015808Y019867D01*
X015874Y01984D01*
X015946D01*
X016012Y019867D01*
X016063Y019918D01*
X01609Y019984D01*
Y020056D01*
X016063Y020122D01*
X016012Y020173D01*
X015946Y0202D01*
D02*
G37*
G36*
X011996Y020442D02*
X011924D01*
X011858Y020414D01*
X011807Y020364D01*
X01178Y020297D01*
Y020226D01*
X011797Y020185D01*
Y020097D01*
X01178Y020056D01*
Y019984D01*
X011807Y019918D01*
X011858Y019867D01*
X011924Y01984D01*
X011996D01*
X012062Y019867D01*
X012099Y019904D01*
X012352D01*
X012368Y019907D01*
X012627D01*
Y020342D01*
X012192D01*
Y02023D01*
X01214D01*
Y020297D01*
X012113Y020364D01*
X012062Y020414D01*
X011996Y020442D01*
D02*
G37*
G36*
X007362Y020037D02*
X007006D01*
Y019715D01*
X007003Y019699D01*
Y019444D01*
X006942Y019383D01*
X006639D01*
X006617Y019405D01*
Y019699D01*
X006614Y019715D01*
Y020037D01*
X006258D01*
Y019684D01*
X006123D01*
Y019764D01*
X005334D01*
Y019348D01*
X005286Y019334D01*
X005278Y019346D01*
X005193Y019431D01*
X005093Y019498D01*
X004982Y019544D01*
X004864Y019567D01*
X004743D01*
X004625Y019544D01*
X004514Y019498D01*
X004414Y019431D01*
X004329Y019346D01*
X004262Y019245D01*
X004216Y019134D01*
X004192Y019016D01*
Y018896D01*
X004216Y018778D01*
X004262Y018666D01*
X004329Y018566D01*
X004414Y018481D01*
X004514Y018414D01*
X004625Y018368D01*
X004743Y018345D01*
X004864D01*
X004982Y018368D01*
X005093Y018414D01*
X005193Y018481D01*
X005278Y018566D01*
X005286Y018578D01*
X005334Y018564D01*
Y018148D01*
X006123D01*
Y01878D01*
X005431D01*
X005399Y018818D01*
X005415Y018896D01*
Y019016D01*
X005399Y019093D01*
X005431Y019132D01*
X006123D01*
Y019256D01*
X00631D01*
X006315Y019257D01*
X006339Y019222D01*
X006456Y019105D01*
X006509Y019069D01*
X006571Y019057D01*
X00701D01*
X007072Y019069D01*
X007125Y019105D01*
X007281Y019261D01*
X007317Y019314D01*
X007329Y019376D01*
Y019397D01*
X007362D01*
Y020037D01*
D02*
G37*
G36*
X013307Y020441D02*
X012813D01*
Y020126D01*
X012781Y020093D01*
X012756Y020057D01*
X012748Y020014D01*
X012748Y020014D01*
Y019413D01*
X012707Y019372D01*
X01268Y019306D01*
Y019234D01*
X012707Y019168D01*
X012758Y019117D01*
X012824Y01909D01*
X012896D01*
X012962Y019117D01*
X013013Y019168D01*
X01304Y019234D01*
Y019306D01*
X013013Y019372D01*
X012972Y019413D01*
Y019968D01*
X012991Y019987D01*
X013307D01*
Y020441D01*
D02*
G37*
G36*
X018926Y019623D02*
X018794D01*
X018666Y019589D01*
X018551Y019522D01*
X018457Y019429D01*
X018391Y019314D01*
X018357Y019186D01*
Y019054D01*
X018391Y018926D01*
X018457Y018811D01*
X018551Y018718D01*
X018666Y018651D01*
X018794Y018617D01*
X018926D01*
X019054Y018651D01*
X019169Y018718D01*
X019262Y018811D01*
X019329Y018926D01*
X019363Y019054D01*
Y019186D01*
X019329Y019314D01*
X019262Y019429D01*
X019169Y019522D01*
X019054Y019589D01*
X018926Y019623D01*
D02*
G37*
G36*
X013996Y01925D02*
X013924D01*
X013858Y019223D01*
X013807Y019172D01*
X01378Y019106D01*
Y019034D01*
X013807Y018968D01*
X013848Y018928D01*
Y018657D01*
X013779Y018588D01*
X013759D01*
X013693Y018561D01*
X013642Y01851D01*
X013615Y018444D01*
Y018372D01*
X013642Y018306D01*
X013693Y018255D01*
X013759Y018228D01*
X013831D01*
X013897Y018255D01*
X013948Y018306D01*
X013975Y018372D01*
Y018444D01*
X013968Y018461D01*
X014039Y018532D01*
X014064Y018568D01*
X014072Y018611D01*
X014072Y018611D01*
Y018928D01*
X014113Y018968D01*
X01414Y019034D01*
Y019106D01*
X014113Y019172D01*
X014062Y019223D01*
X013996Y01925D01*
D02*
G37*
G36*
X006123Y017992D02*
X005334D01*
Y017576D01*
X005286Y017562D01*
X005278Y017574D01*
X005193Y017659D01*
X005093Y017726D01*
X004982Y017772D01*
X004864Y017795D01*
X004743D01*
X004625Y017772D01*
X004514Y017726D01*
X004414Y017659D01*
X004329Y017574D01*
X004262Y017474D01*
X004216Y017363D01*
X004192Y017244D01*
Y017124D01*
X004216Y017006D01*
X004262Y016895D01*
X004329Y016795D01*
X004414Y01671D01*
X004514Y016643D01*
X004625Y016597D01*
X004743Y016573D01*
X004864D01*
X004982Y016597D01*
X005093Y016643D01*
X005193Y01671D01*
X005278Y016795D01*
X005345Y016895D01*
X005391Y017006D01*
X005415Y017124D01*
Y017244D01*
X005399Y017322D01*
X005431Y01736D01*
X006123D01*
Y017992D01*
D02*
G37*
G36*
X008746Y0175D02*
X008674D01*
X008608Y017473D01*
X008585Y01745D01*
X008562Y017473D01*
X008496Y0175D01*
X008424D01*
X008358Y017473D01*
X008307Y017422D01*
X00828Y017356D01*
Y017284D01*
X008307Y017218D01*
X00833Y017195D01*
X008307Y017172D01*
X00828Y017106D01*
Y017034D01*
X008307Y016968D01*
X008358Y016917D01*
X008424Y01689D01*
X008496D01*
X008562Y016917D01*
X008585Y01694D01*
X008608Y016917D01*
X008674Y01689D01*
X008746D01*
X008812Y016917D01*
X008863Y016968D01*
X00889Y017034D01*
Y017106D01*
X008863Y017172D01*
X00884Y017195D01*
X008863Y017218D01*
X00889Y017284D01*
Y017356D01*
X008863Y017422D01*
X008812Y017473D01*
X008746Y0175D01*
D02*
G37*
G36*
X011571Y017933D02*
X011277Y017639D01*
X011324Y017592D01*
X010757Y017026D01*
X010733Y01699D01*
X010732Y016983D01*
X010708Y016973D01*
X010657Y016922D01*
X01063Y016856D01*
Y016784D01*
X010657Y016718D01*
X010708Y016667D01*
X010774Y01664D01*
X010846D01*
X010912Y016667D01*
X010963Y016718D01*
X01099Y016784D01*
Y016856D01*
X010965Y016916D01*
X011482Y017434D01*
X011529Y017387D01*
X011823Y017681D01*
X011571Y017933D01*
D02*
G37*
G36*
X010157Y019977D02*
X010063D01*
X009972Y019953D01*
X009891Y019906D01*
X009824Y019839D01*
X009777Y019758D01*
X009753Y019667D01*
Y019573D01*
X009777Y019482D01*
X009824Y019401D01*
X009891Y019335D01*
X009972Y019288D01*
X010063Y019263D01*
X010157D01*
X010248Y019288D01*
X010271Y019301D01*
X010448Y019124D01*
Y017663D01*
X010407Y017622D01*
X01038Y017556D01*
Y017484D01*
X010407Y017418D01*
X010458Y017367D01*
X010524Y01734D01*
X010596D01*
X010662Y017367D01*
X010713Y017418D01*
X01074Y017484D01*
Y017556D01*
X010713Y017622D01*
X010672Y017663D01*
Y01917D01*
X010672Y01917D01*
X010664Y019213D01*
X010639Y019249D01*
X010639Y019249D01*
X010429Y019459D01*
X010442Y019482D01*
X010467Y019573D01*
Y019667D01*
X010442Y019758D01*
X010395Y019839D01*
X010329Y019906D01*
X010248Y019953D01*
X010157Y019977D01*
D02*
G37*
G36*
X013896Y0177D02*
X013824D01*
X013758Y017673D01*
X013707Y017622D01*
X01368Y017556D01*
Y017484D01*
X013707Y017418D01*
X013755Y01737D01*
X013707Y017322D01*
X01368Y017256D01*
Y017184D01*
X013707Y017118D01*
X013758Y017067D01*
X013824Y01704D01*
X013896D01*
X013962Y017067D01*
X014013Y017118D01*
X01404Y017184D01*
Y017256D01*
X014013Y017322D01*
X013965Y01737D01*
X014013Y017418D01*
X01404Y017484D01*
Y017556D01*
X014013Y017622D01*
X013962Y017673D01*
X013896Y0177D01*
D02*
G37*
G36*
X009467Y019977D02*
X008753D01*
Y019263D01*
X009308D01*
X009648Y018924D01*
Y017363D01*
X009607Y017322D01*
X00958Y017256D01*
Y017184D01*
X009607Y017118D01*
X009658Y017067D01*
X009724Y01704D01*
X009796D01*
X009862Y017067D01*
X009913Y017118D01*
X00994Y017184D01*
Y017256D01*
X009913Y017322D01*
X009872Y017363D01*
Y01897D01*
X009872Y01897D01*
X009864Y019013D01*
X009839Y019049D01*
X009839Y019049D01*
X009467Y019422D01*
Y019977D01*
D02*
G37*
G36*
X008019Y017173D02*
X007947D01*
X007881Y017146D01*
X00783Y017095D01*
X007803Y017029D01*
Y016957D01*
X00783Y016891D01*
X007881Y016841D01*
X007947Y016813D01*
X008019D01*
X008085Y016841D01*
X008136Y016891D01*
X008163Y016957D01*
Y017029D01*
X008136Y017095D01*
X008085Y017146D01*
X008019Y017173D01*
D02*
G37*
G36*
X012093Y017517D02*
X011842Y017265D01*
X012392Y016715D01*
Y016646D01*
X01242Y01658D01*
X01247Y01653D01*
X012536Y016502D01*
X012608D01*
X012674Y01653D01*
X012725Y01658D01*
X012752Y016646D01*
Y016718D01*
X012725Y016784D01*
X012692Y016817D01*
X012684Y016881D01*
X012707Y016904D01*
X012093Y017517D01*
D02*
G37*
G36*
X011565Y016988D02*
X011313Y016737D01*
X011926Y016123D01*
X011965Y016162D01*
X011995Y016156D01*
X012046Y016105D01*
X012112Y016078D01*
X012183D01*
X01225Y016105D01*
X0123Y016156D01*
X012328Y016222D01*
Y016294D01*
X0123Y01636D01*
X01225Y01641D01*
X012183Y016438D01*
X012115D01*
X011565Y016988D01*
D02*
G37*
G36*
X013596Y0164D02*
X013524D01*
X013458Y016373D01*
X013407Y016322D01*
X01338Y016256D01*
Y016184D01*
X013406Y01612D01*
X01338Y016056D01*
Y015984D01*
X013407Y015918D01*
X013458Y015867D01*
X013524Y01584D01*
X013596D01*
X013662Y015867D01*
X013713Y015918D01*
X01374Y015984D01*
Y016056D01*
X013713Y01612D01*
X01374Y016184D01*
Y016256D01*
X013713Y016322D01*
X013662Y016373D01*
X013596Y0164D01*
D02*
G37*
G36*
X009796Y01655D02*
X009724D01*
X009658Y016523D01*
X009617Y016482D01*
X00901D01*
X008967Y016474D01*
X008931Y016449D01*
X008931Y016449D01*
X008631Y01615D01*
X008574D01*
X008508Y016123D01*
X008457Y016072D01*
X00843Y016006D01*
Y015934D01*
X008457Y015868D01*
X008493Y015832D01*
X008472Y015782D01*
X008206D01*
X007839Y016149D01*
X007803Y016174D01*
X00776Y016182D01*
X00776Y016182D01*
X005652D01*
X005612Y016223D01*
X005546Y01625D01*
X005474D01*
X005408Y016223D01*
X005357Y016172D01*
X00533Y016106D01*
Y016034D01*
X005357Y015968D01*
X005408Y015917D01*
X005474Y01589D01*
X005546D01*
X005612Y015917D01*
X005652Y015958D01*
X007713D01*
X008081Y015591D01*
X008081Y015591D01*
X008117Y015566D01*
X00816Y015558D01*
X009225D01*
X009225Y015558D01*
X009268Y015566D01*
X009305Y015591D01*
X009504Y01579D01*
X009561D01*
X009627Y015817D01*
X009668Y015858D01*
X009708Y015817D01*
X009774Y01579D01*
X009846D01*
X009912Y015817D01*
X009963Y015868D01*
X00999Y015934D01*
Y016006D01*
X009963Y016072D01*
X009912Y016123D01*
X009846Y01615D01*
X00983D01*
X00982Y0162D01*
X009862Y016217D01*
X009913Y016268D01*
X00994Y016334D01*
Y016406D01*
X009913Y016472D01*
X009862Y016523D01*
X009796Y01655D01*
D02*
G37*
G36*
X005158Y014245D02*
X004704D01*
Y013751D01*
X004793D01*
Y013566D01*
X004674D01*
Y013131D01*
X005109D01*
Y013566D01*
X005069D01*
Y013751D01*
X005158D01*
Y014245D01*
D02*
G37*
G36*
X009834Y012605D02*
X00974D01*
X009649Y012581D01*
X009568Y012534D01*
X009501Y012467D01*
X009454Y012386D01*
X00943Y012295D01*
Y012201D01*
X009454Y01211D01*
X009501Y012029D01*
X009568Y011962D01*
X009649Y011916D01*
X00974Y011891D01*
X009834D01*
X009925Y011916D01*
X010006Y011962D01*
X010073Y012029D01*
X01012Y01211D01*
X010144Y012201D01*
Y012295D01*
X01012Y012386D01*
X010073Y012467D01*
X010006Y012534D01*
X009925Y012581D01*
X009834Y012605D01*
D02*
G37*
G36*
X013004Y011411D02*
X01257D01*
Y011271D01*
X012384D01*
Y011386D01*
X01189D01*
Y010932D01*
X012384D01*
Y011047D01*
X01257D01*
Y010976D01*
X013004D01*
Y011411D01*
D02*
G37*
G36*
X013037Y01176D02*
X013037Y01176D01*
X011887D01*
X011844Y011752D01*
X011808Y011727D01*
X011808Y011727D01*
X011159Y011079D01*
X011119Y011109D01*
X01112Y01111D01*
X011144Y011201D01*
Y011295D01*
X01112Y011386D01*
X011073Y011467D01*
X011006Y011534D01*
X010925Y011581D01*
X010834Y011605D01*
X01074D01*
X010649Y011581D01*
X010568Y011534D01*
X010501Y011467D01*
X010454Y011386D01*
X01043Y011295D01*
Y011201D01*
X010454Y01111D01*
X010501Y011029D01*
X010568Y010962D01*
X010634Y010924D01*
X010646Y010879D01*
X010645Y010865D01*
X010108Y010327D01*
X010083Y010291D01*
X010075Y010248D01*
X010075Y010248D01*
Y008241D01*
X010034Y0082D01*
X010007Y008134D01*
Y008062D01*
X010034Y007996D01*
X010085Y007945D01*
X010151Y007918D01*
X010223D01*
X010289Y007945D01*
X01034Y007996D01*
X010367Y008062D01*
Y008134D01*
X01034Y0082D01*
X010299Y008241D01*
Y010202D01*
X010866Y010769D01*
X010866Y010769D01*
X010891Y010805D01*
X010899Y010848D01*
X010899Y010848D01*
Y010909D01*
X010925Y010915D01*
X011006Y010962D01*
X011032Y010988D01*
X011078Y010964D01*
X011075Y010948D01*
X011075Y010948D01*
Y010586D01*
X011064Y010575D01*
X011025Y010557D01*
X010973Y010578D01*
X010901D01*
X010835Y010551D01*
X010784Y0105D01*
X010757Y010434D01*
Y010362D01*
X010784Y010296D01*
X010807Y010273D01*
X010784Y01025D01*
X010757Y010184D01*
Y010112D01*
X010784Y010046D01*
X010835Y009995D01*
X010901Y009968D01*
X010973D01*
X011039Y009995D01*
X011062Y010018D01*
X011085Y009995D01*
X011151Y009968D01*
X011223D01*
X011289Y009995D01*
X01134Y010046D01*
X011367Y010112D01*
Y010184D01*
X01134Y01025D01*
X011317Y010273D01*
X01134Y010296D01*
X011367Y010362D01*
Y010434D01*
X01134Y0105D01*
X011299Y010541D01*
Y010902D01*
X011933Y011536D01*
X012991D01*
X013125Y011402D01*
Y010844D01*
X013051Y01077D01*
X013004Y010789D01*
Y01082D01*
X01257D01*
Y010385D01*
X013004D01*
Y01046D01*
X013042Y010491D01*
X013085Y010499D01*
X013121Y010523D01*
X013316Y010719D01*
X013341Y010755D01*
X013349Y010798D01*
X013349Y010798D01*
Y011448D01*
X013349Y011448D01*
X013341Y011491D01*
X013316Y011527D01*
X013316Y011527D01*
X013116Y011727D01*
X01308Y011752D01*
X013037Y01176D01*
D02*
G37*
G36*
X014523Y011428D02*
X014451D01*
X014385Y011401D01*
X014334Y01135D01*
X014307Y011284D01*
Y011212D01*
X014334Y011146D01*
X014385Y011095D01*
X014451Y011068D01*
X014523D01*
X014589Y011095D01*
X01464Y011146D01*
X014667Y011212D01*
Y011284D01*
X01464Y01135D01*
X014589Y011401D01*
X014523Y011428D01*
D02*
G37*
G36*
X016073Y011078D02*
X016001D01*
X015935Y011051D01*
X015912Y011028D01*
X015889Y011051D01*
X015823Y011078D01*
X015751D01*
X015685Y011051D01*
X015634Y011D01*
X015607Y010934D01*
Y010862D01*
X015634Y010796D01*
X015685Y010745D01*
X015751Y010718D01*
X015823D01*
X015889Y010745D01*
X015912Y010768D01*
X015935Y010745D01*
X016001Y010718D01*
X016073D01*
X016139Y010745D01*
X01619Y010796D01*
X016217Y010862D01*
Y010934D01*
X01619Y011D01*
X016139Y011051D01*
X016073Y011078D01*
D02*
G37*
G36*
X012384Y010875D02*
X01189D01*
Y01042D01*
X012125D01*
Y009691D01*
X012084Y00965D01*
X012057Y009584D01*
Y009512D01*
X012084Y009446D01*
X012135Y009395D01*
X012201Y009368D01*
X012273D01*
X012339Y009395D01*
X01239Y009446D01*
X012417Y009512D01*
Y009584D01*
X01239Y00965D01*
X012349Y009691D01*
Y01042D01*
X012384D01*
Y010875D01*
D02*
G37*
G36*
X013773Y010128D02*
X013701D01*
X013635Y010101D01*
X013584Y01005D01*
X013557Y009984D01*
Y009927D01*
X013458Y009827D01*
X013433Y009791D01*
X013425Y009748D01*
X013425Y009748D01*
Y008978D01*
X013401D01*
X013335Y008951D01*
X013284Y0089D01*
X013257Y008834D01*
Y008762D01*
X013284Y008696D01*
X013335Y008645D01*
X013401Y008618D01*
X013473D01*
X013539Y008645D01*
X01359Y008696D01*
X013617Y008762D01*
Y008834D01*
X013613Y008844D01*
X013616Y008847D01*
X013616Y008847D01*
X013641Y008884D01*
X013649Y008927D01*
Y009702D01*
X013716Y009768D01*
X013773D01*
X013839Y009795D01*
X01389Y009846D01*
X013917Y009912D01*
Y009984D01*
X01389Y01005D01*
X013839Y010101D01*
X013773Y010128D01*
D02*
G37*
G36*
X007223Y007228D02*
X007151D01*
X00711Y007211D01*
X005887D01*
X005825Y007199D01*
X005772Y007163D01*
X005419Y006811D01*
X004564D01*
X004523Y006828D01*
X004451D01*
X004385Y006801D01*
X004334Y00675D01*
X004307Y006684D01*
Y006612D01*
X004334Y006546D01*
X004385Y006495D01*
X004451Y006468D01*
X004523D01*
X004564Y006485D01*
X005487D01*
X005549Y006497D01*
X005602Y006533D01*
X005955Y006885D01*
X00711D01*
X007151Y006868D01*
X007223D01*
X007289Y006895D01*
X00734Y006946D01*
X007367Y007012D01*
Y007084D01*
X00734Y00715D01*
X007289Y007201D01*
X007223Y007228D01*
D02*
G37*
G36*
X008423Y006328D02*
X008351D01*
X008285Y006301D01*
X008234Y00625D01*
X008207Y006184D01*
Y006112D01*
X008234Y006046D01*
X008285Y005995D01*
X008351Y005968D01*
X008423D01*
X008489Y005995D01*
X008527Y006033D01*
X009168D01*
X009212Y005989D01*
X009278Y005962D01*
X009349D01*
X009416Y005989D01*
X009466Y00604D01*
X009494Y006106D01*
Y006178D01*
X009466Y006244D01*
X009416Y006295D01*
X009349Y006322D01*
X009278D01*
X009212Y006295D01*
X009174Y006257D01*
X008532D01*
X008489Y006301D01*
X008423Y006328D01*
D02*
G37*
G36*
X033019Y015781D02*
X032976Y015772D01*
X032939Y015748D01*
X03274Y015549D01*
X032683D01*
X032617Y015521D01*
X032576Y015481D01*
X032536Y015521D01*
X03247Y015549D01*
X032398D01*
X032332Y015521D01*
X032282Y015471D01*
X032254Y015404D01*
Y015333D01*
X032282Y015267D01*
X032332Y015216D01*
X032398Y015188D01*
X032414D01*
X032424Y015138D01*
X032382Y015121D01*
X032332Y015071D01*
X032304Y015004D01*
Y014933D01*
X032332Y014867D01*
X032382Y014816D01*
X032448Y014788D01*
X03252D01*
X032586Y014816D01*
X032627Y014856D01*
X033234D01*
X033277Y014865D01*
X033313Y014889D01*
X033313Y014889D01*
X033613Y015188D01*
X03367D01*
X033736Y015216D01*
X033787Y015267D01*
X033814Y015333D01*
Y015404D01*
X033787Y015471D01*
X033751Y015506D01*
X033772Y015556D01*
X034038D01*
X034405Y015189D01*
X034441Y015165D01*
X034484Y015156D01*
X034484Y015156D01*
X036592D01*
X036632Y015116D01*
X036698Y015088D01*
X03677D01*
X036836Y015116D01*
X036887Y015167D01*
X036914Y015233D01*
Y015304D01*
X036887Y015371D01*
X036836Y015421D01*
X03677Y015449D01*
X036698D01*
X036632Y015421D01*
X036592Y015381D01*
X034531D01*
X034163Y015748D01*
X034163Y015748D01*
X034127Y015772D01*
X034084Y015781D01*
X033019D01*
X033019Y015781D01*
D02*
G37*
G36*
X02872Y015499D02*
X028648D01*
X028582Y015471D01*
X028532Y015421D01*
X028504Y015354D01*
Y015283D01*
X028531Y015219D01*
X028504Y015154D01*
Y015083D01*
X028532Y015017D01*
X028582Y014966D01*
X028648Y014938D01*
X02872D01*
X028786Y014966D01*
X028837Y015017D01*
X028864Y015083D01*
Y015154D01*
X028838Y015219D01*
X028864Y015283D01*
Y015354D01*
X028837Y015421D01*
X028786Y015471D01*
X02872Y015499D01*
D02*
G37*
G36*
X03382Y014449D02*
X033748D01*
X033682Y014421D01*
X033659Y014398D01*
X033636Y014421D01*
X03357Y014449D01*
X033498D01*
X033432Y014421D01*
X033382Y014371D01*
X033354Y014304D01*
Y014233D01*
X033382Y014167D01*
X033405Y014144D01*
X033382Y014121D01*
X033354Y014054D01*
Y013983D01*
X033382Y013917D01*
X033432Y013866D01*
X033498Y013838D01*
X03357D01*
X033636Y013866D01*
X033659Y013889D01*
X033682Y013866D01*
X033748Y013838D01*
X03382D01*
X033886Y013866D01*
X033937Y013917D01*
X033964Y013983D01*
Y014054D01*
X033937Y014121D01*
X033914Y014144D01*
X033937Y014167D01*
X033964Y014233D01*
Y014304D01*
X033937Y014371D01*
X033886Y014421D01*
X03382Y014449D01*
D02*
G37*
G36*
X030132Y015261D02*
X030061D01*
X029994Y015233D01*
X029944Y015183D01*
X029916Y015117D01*
Y015045D01*
X029944Y014979D01*
X029994Y014928D01*
X030061Y014901D01*
X030129D01*
X03068Y01435D01*
X030931Y014602D01*
X030318Y015216D01*
X030279Y015177D01*
X030249Y015183D01*
X030198Y015233D01*
X030132Y015261D01*
D02*
G37*
G36*
X034297Y014525D02*
X034225D01*
X034159Y014498D01*
X034108Y014447D01*
X034081Y014381D01*
Y01431D01*
X034108Y014243D01*
X034159Y014193D01*
X034225Y014165D01*
X034297D01*
X034363Y014193D01*
X034414Y014243D01*
X034441Y01431D01*
Y014381D01*
X034414Y014447D01*
X034363Y014498D01*
X034297Y014525D01*
D02*
G37*
G36*
X03147Y014699D02*
X031398D01*
X031332Y014671D01*
X031282Y014621D01*
X031254Y014554D01*
Y014483D01*
X031279Y014422D01*
X030762Y013905D01*
X030715Y013951D01*
X030421Y013658D01*
X030673Y013406D01*
X030967Y013699D01*
X03092Y013746D01*
X031487Y014312D01*
X031511Y014349D01*
X031512Y014356D01*
X031536Y014366D01*
X031587Y014417D01*
X031614Y014483D01*
Y014554D01*
X031587Y014621D01*
X031536Y014671D01*
X03147Y014699D01*
D02*
G37*
G36*
X029708Y014836D02*
X029636D01*
X02957Y014809D01*
X029519Y014758D01*
X029492Y014692D01*
Y01462D01*
X029519Y014554D01*
X029552Y014521D01*
X02956Y014458D01*
X029537Y014435D01*
X030151Y013821D01*
X030403Y014073D01*
X029852Y014624D01*
Y014692D01*
X029825Y014758D01*
X029774Y014809D01*
X029708Y014836D01*
D02*
G37*
G36*
X02842Y014299D02*
X028348D01*
X028282Y014271D01*
X028232Y014221D01*
X028204Y014154D01*
Y014083D01*
X028232Y014017D01*
X02828Y013969D01*
X028232Y013921D01*
X028204Y013854D01*
Y013783D01*
X028232Y013717D01*
X028282Y013666D01*
X028348Y013638D01*
X02842D01*
X028486Y013666D01*
X028537Y013717D01*
X028564Y013783D01*
Y013854D01*
X028537Y013921D01*
X028489Y013969D01*
X028537Y014017D01*
X028564Y014083D01*
Y014154D01*
X028537Y014221D01*
X028486Y014271D01*
X02842Y014299D01*
D02*
G37*
G36*
X037501Y014766D02*
X03738D01*
X037262Y014742D01*
X037151Y014696D01*
X037051Y014629D01*
X036966Y014544D01*
X036899Y014444D01*
X036853Y014333D01*
X036829Y014215D01*
Y014094D01*
X036845Y014017D01*
X036813Y013978D01*
X036121D01*
Y013346D01*
X03691D01*
Y013762D01*
X036958Y013777D01*
X036966Y013765D01*
X037051Y01368D01*
X037151Y013613D01*
X037262Y013567D01*
X03738Y013543D01*
X037501D01*
X037619Y013567D01*
X03773Y013613D01*
X03783Y01368D01*
X037915Y013765D01*
X037982Y013865D01*
X038028Y013976D01*
X038052Y014094D01*
Y014215D01*
X038028Y014333D01*
X037982Y014444D01*
X037915Y014544D01*
X03783Y014629D01*
X03773Y014696D01*
X037619Y014742D01*
X037501Y014766D01*
D02*
G37*
G36*
X028485Y013111D02*
X028413D01*
X028347Y013083D01*
X028296Y013033D01*
X028269Y012966D01*
Y012895D01*
X028276Y012878D01*
X028205Y012807D01*
X028181Y012771D01*
X028172Y012728D01*
X028172Y012728D01*
Y012411D01*
X028132Y012371D01*
X028104Y012304D01*
Y012233D01*
X028132Y012167D01*
X028182Y012116D01*
X028248Y012088D01*
X02832D01*
X028386Y012116D01*
X028437Y012167D01*
X028464Y012233D01*
Y012304D01*
X028437Y012371D01*
X028396Y012411D01*
Y012681D01*
X028465Y01275D01*
X028485D01*
X028551Y012778D01*
X028602Y012829D01*
X028629Y012895D01*
Y012966D01*
X028602Y013033D01*
X028551Y013083D01*
X028485Y013111D01*
D02*
G37*
G36*
X03691Y013191D02*
X036121D01*
Y012559D01*
X036813D01*
X036845Y01252D01*
X036829Y012443D01*
Y012322D01*
X036845Y012245D01*
X036813Y012206D01*
X036121D01*
Y012083D01*
X035934D01*
X035929Y012082D01*
X035905Y012117D01*
X035788Y012234D01*
X035735Y012269D01*
X035673Y012282D01*
X035234D01*
X035172Y012269D01*
X035119Y012234D01*
X034963Y012078D01*
X034928Y012025D01*
X034915Y011963D01*
Y011941D01*
X034882D01*
Y011301D01*
X035238D01*
Y011624D01*
X035241Y011639D01*
Y011895D01*
X035302Y011955D01*
X035605D01*
X035627Y011934D01*
Y011639D01*
X03563Y011624D01*
Y011301D01*
X035986D01*
Y011654D01*
X036121D01*
Y011575D01*
X03691D01*
Y01199D01*
X036958Y012005D01*
X036966Y011993D01*
X037051Y011908D01*
X037151Y011841D01*
X037262Y011795D01*
X03738Y011772D01*
X037501D01*
X037619Y011795D01*
X03773Y011841D01*
X03783Y011908D01*
X037915Y011993D01*
X037982Y012093D01*
X038028Y012204D01*
X038052Y012322D01*
Y012443D01*
X038028Y012561D01*
X037982Y012672D01*
X037915Y012772D01*
X03783Y012857D01*
X03773Y012924D01*
X037619Y01297D01*
X037501Y012994D01*
X03738D01*
X037262Y01297D01*
X037151Y012924D01*
X037051Y012857D01*
X036966Y012772D01*
X036958Y01276D01*
X03691Y012775D01*
Y013191D01*
D02*
G37*
G36*
X02345Y012721D02*
X023318D01*
X02319Y012687D01*
X023075Y012621D01*
X022982Y012527D01*
X022916Y012413D01*
X022881Y012285D01*
Y012152D01*
X022916Y012024D01*
X022982Y01191D01*
X023075Y011816D01*
X02319Y01175D01*
X023318Y011716D01*
X02345D01*
X023578Y01175D01*
X023693Y011816D01*
X023787Y01191D01*
X023853Y012024D01*
X023887Y012152D01*
Y012285D01*
X023853Y012413D01*
X023787Y012527D01*
X023693Y012621D01*
X023578Y012687D01*
X02345Y012721D01*
D02*
G37*
G36*
X03252Y014299D02*
X032448D01*
X032382Y014271D01*
X032332Y014221D01*
X032304Y014154D01*
Y014083D01*
X032332Y014017D01*
X032372Y013976D01*
Y012369D01*
X032372Y012369D01*
X032381Y012326D01*
X032405Y012289D01*
X032405Y012289D01*
X032777Y011917D01*
Y011362D01*
X033491D01*
Y012075D01*
X032936D01*
X032596Y012415D01*
Y013976D01*
X032637Y014017D01*
X032664Y014083D01*
Y014154D01*
X032637Y014221D01*
X032586Y014271D01*
X03252Y014299D01*
D02*
G37*
G36*
X03172Y013999D02*
X031648D01*
X031582Y013971D01*
X031532Y013921D01*
X031504Y013854D01*
Y013783D01*
X031532Y013717D01*
X031572Y013676D01*
Y012169D01*
X031572Y012169D01*
X031581Y012126D01*
X031605Y012089D01*
X031605Y012089D01*
X031815Y011879D01*
X031802Y011856D01*
X031777Y011766D01*
Y011672D01*
X031802Y011581D01*
X031849Y011499D01*
X031915Y011433D01*
X031996Y011386D01*
X032087Y011362D01*
X032181D01*
X032272Y011386D01*
X032353Y011433D01*
X03242Y011499D01*
X032467Y011581D01*
X032491Y011672D01*
Y011766D01*
X032467Y011856D01*
X03242Y011938D01*
X032353Y012004D01*
X032272Y012051D01*
X032181Y012075D01*
X032087D01*
X031996Y012051D01*
X031974Y012038D01*
X031796Y012215D01*
Y013676D01*
X031837Y013717D01*
X031864Y013783D01*
Y013854D01*
X031837Y013921D01*
X031786Y013971D01*
X03172Y013999D01*
D02*
G37*
G36*
X02637Y011499D02*
X026298D01*
X026232Y011471D01*
X026182Y011421D01*
X026154Y011354D01*
Y011283D01*
X026182Y011217D01*
X026232Y011166D01*
X026298Y011138D01*
X02637D01*
X026436Y011166D01*
X026487Y011217D01*
X026514Y011283D01*
Y011354D01*
X026487Y011421D01*
X026436Y011471D01*
X02637Y011499D01*
D02*
G37*
G36*
X02942Y012249D02*
X029348D01*
X029282Y012221D01*
X029232Y012171D01*
X029204Y012104D01*
Y012033D01*
X029232Y011967D01*
X029272Y011926D01*
Y011371D01*
X029253Y011352D01*
X028937D01*
Y010897D01*
X029431D01*
Y011213D01*
X029463Y011245D01*
X029488Y011282D01*
X029496Y011324D01*
X029496Y011324D01*
Y011926D01*
X029537Y011967D01*
X029564Y012033D01*
Y012104D01*
X029537Y012171D01*
X029486Y012221D01*
X02942Y012249D01*
D02*
G37*
G36*
X03032Y011499D02*
X030248D01*
X030182Y011471D01*
X030145Y011434D01*
X029892D01*
X029876Y011431D01*
X029617D01*
Y010996D01*
X030052D01*
Y011108D01*
X030104D01*
Y011041D01*
X030132Y010975D01*
X030182Y010924D01*
X030248Y010897D01*
X03032D01*
X030386Y010924D01*
X030437Y010975D01*
X030464Y011041D01*
Y011113D01*
X030447Y011154D01*
Y011242D01*
X030464Y011283D01*
Y011354D01*
X030437Y011421D01*
X030386Y011471D01*
X03032Y011499D01*
D02*
G37*
G36*
X030052Y010841D02*
X029617D01*
Y010725D01*
X029431D01*
Y01084D01*
X028937D01*
Y010385D01*
X029431D01*
Y0105D01*
X029617D01*
Y010406D01*
X030052D01*
Y010841D01*
D02*
G37*
G36*
X037706Y010766D02*
X037251D01*
Y010682D01*
X037047D01*
Y010736D01*
X036612D01*
Y010301D01*
X037047D01*
Y010355D01*
X037251D01*
Y010272D01*
X037706D01*
Y010766D01*
D02*
G37*
G36*
X026969Y01075D02*
X026897D01*
X026831Y010722D01*
X02678Y010672D01*
X026753Y010605D01*
Y010534D01*
X02678Y010468D01*
X026831Y010417D01*
X026897Y01039D01*
X026969D01*
X027035Y010417D01*
X027086Y010468D01*
X027113Y010534D01*
Y010605D01*
X027086Y010672D01*
X027035Y010722D01*
X026969Y01075D01*
D02*
G37*
G36*
X033181Y011075D02*
X033087D01*
X032996Y011051D01*
X032915Y011004D01*
X032849Y010938D01*
X032802Y010856D01*
X032777Y010766D01*
Y010672D01*
X032802Y010581D01*
X032849Y010499D01*
X032915Y010433D01*
X032996Y010386D01*
X033087Y010362D01*
X033181D01*
X033272Y010386D01*
X033353Y010433D01*
X03342Y010499D01*
X033467Y010581D01*
X033491Y010672D01*
Y010766D01*
X033467Y010856D01*
X03342Y010938D01*
X033353Y011004D01*
X033272Y011051D01*
X033181Y011075D01*
D02*
G37*
G36*
X03317Y009278D02*
X033098D01*
X033032Y009251D01*
X032992Y00921D01*
X032227D01*
X032186Y009251D01*
X03212Y009278D01*
X032048D01*
X031982Y009251D01*
X031932Y0092D01*
X031904Y009134D01*
Y009062D01*
X031932Y008996D01*
X031982Y008945D01*
X032048Y008918D01*
X03212D01*
X032186Y008945D01*
X032227Y008986D01*
X032397D01*
X032417Y008936D01*
X032382Y0089D01*
X032354Y008834D01*
Y008762D01*
X032382Y008696D01*
X032432Y008645D01*
X032498Y008618D01*
X03257D01*
X032629Y008643D01*
X032663Y008636D01*
X032663Y008636D01*
X032747D01*
X032767Y008586D01*
X032732Y00855D01*
X032704Y008484D01*
Y008412D01*
X032732Y008346D01*
X032782Y008295D01*
X032848Y008268D01*
X03292D01*
X032986Y008295D01*
X033037Y008346D01*
X033064Y008412D01*
Y008484D01*
X033037Y00855D01*
X033001Y008586D01*
X033022Y008636D01*
X034434D01*
X034477Y008644D01*
X034513Y008669D01*
X034513Y008669D01*
X034731Y008886D01*
X036192D01*
X036232Y008845D01*
X036298Y008818D01*
X03637D01*
X036436Y008845D01*
X036487Y008896D01*
X036514Y008962D01*
Y009034D01*
X036487Y0091D01*
X036436Y009151D01*
X03637Y009178D01*
X036298D01*
X036232Y009151D01*
X036192Y00911D01*
X034684D01*
X034684Y00911D01*
X034641Y009102D01*
X034605Y009077D01*
X034388Y00886D01*
X032704D01*
X032703Y008861D01*
X032687Y0089D01*
X032651Y008936D01*
X032672Y008986D01*
X032992D01*
X033032Y008945D01*
X033098Y008918D01*
X03317D01*
X033236Y008945D01*
X033287Y008996D01*
X033314Y009062D01*
Y009134D01*
X033287Y0092D01*
X033236Y009251D01*
X03317Y009278D01*
D02*
G37*
G36*
X03012Y009078D02*
X030048D01*
X029982Y009051D01*
X029932Y009D01*
X029904Y008934D01*
Y008862D01*
X029932Y008796D01*
X029982Y008745D01*
X030036Y008723D01*
X03063Y00813D01*
X030881Y008382D01*
X030268Y008995D01*
X030266Y008994D01*
X030237Y009D01*
X030186Y009051D01*
X03012Y009078D01*
D02*
G37*
G36*
X02957Y008578D02*
X029498D01*
X029432Y008551D01*
X029382Y0085D01*
X029354Y008434D01*
Y008362D01*
X029382Y008296D01*
X029432Y008245D01*
X029485Y008223D01*
X029487Y008215D01*
Y008215D01*
X030101Y007601D01*
X030353Y007853D01*
X029739Y008466D01*
X029739D01*
X029697Y008475D01*
X029687Y0085D01*
X029636Y008551D01*
X02957Y008578D01*
D02*
G37*
G36*
X03157Y008278D02*
X031498D01*
X031432Y008251D01*
X031382Y0082D01*
X031354Y008134D01*
Y008077D01*
X030862Y007584D01*
X030815Y007631D01*
X030521Y007337D01*
X030773Y007085D01*
X031067Y007379D01*
X03102Y007426D01*
X031513Y007918D01*
X03157D01*
X031636Y007945D01*
X031687Y007996D01*
X031714Y008062D01*
Y008134D01*
X031687Y0082D01*
X031636Y008251D01*
X03157Y008278D01*
D02*
G37*
G36*
X02817Y008128D02*
X028098D01*
X028032Y008101D01*
X027982Y00805D01*
X027954Y007984D01*
Y007928D01*
X027898D01*
X027832Y007901D01*
X027782Y00785D01*
X027754Y007784D01*
Y007712D01*
X027782Y007646D01*
X027832Y007595D01*
X027898Y007568D01*
X027954D01*
Y007512D01*
X027982Y007446D01*
X028032Y007395D01*
X028098Y007368D01*
X02817D01*
X028236Y007395D01*
X028287Y007446D01*
X028314Y007512D01*
Y007568D01*
X02837D01*
X028436Y007595D01*
X028487Y007646D01*
X028514Y007712D01*
Y007784D01*
X028487Y00785D01*
X028436Y007901D01*
X02837Y007928D01*
X028314D01*
Y007984D01*
X028287Y00805D01*
X028236Y008101D01*
X02817Y008128D01*
D02*
G37*
G36*
X037501Y008545D02*
X03738D01*
X037262Y008522D01*
X037151Y008475D01*
X037051Y008409D01*
X036966Y008323D01*
X036899Y008223D01*
X036853Y008112D01*
X036829Y007994D01*
Y007874D01*
X036845Y007796D01*
X036813Y007758D01*
X036121D01*
Y007126D01*
X03691D01*
Y007542D01*
X036958Y007556D01*
X036966Y007544D01*
X037051Y007459D01*
X037151Y007392D01*
X037262Y007346D01*
X03738Y007323D01*
X037501D01*
X037619Y007346D01*
X03773Y007392D01*
X03783Y007459D01*
X037915Y007544D01*
X037982Y007644D01*
X038028Y007756D01*
X038052Y007874D01*
Y007994D01*
X038028Y008112D01*
X037982Y008223D01*
X037915Y008323D01*
X03783Y008409D01*
X03773Y008475D01*
X037619Y008522D01*
X037501Y008545D01*
D02*
G37*
G36*
X02437Y007728D02*
X024298D01*
X024232Y007701D01*
X024182Y00765D01*
X024154Y007584D01*
Y007512D01*
X024182Y007446D01*
X024232Y007395D01*
X024298Y007368D01*
X024342D01*
X025098Y006612D01*
X025138Y006586D01*
X025184Y006576D01*
X025484D01*
X025625Y006435D01*
X025664Y006409D01*
X025677Y006406D01*
X025682Y006396D01*
X025732Y006345D01*
X025798Y006318D01*
X02587D01*
X025936Y006345D01*
X025987Y006396D01*
X026014Y006462D01*
Y006534D01*
X025987Y0066D01*
X025936Y006651D01*
X02587Y006678D01*
X025798D01*
X025747Y006657D01*
X02562Y006784D01*
X025581Y00681D01*
X025534Y00682D01*
X025235D01*
X024514Y00754D01*
Y007584D01*
X024487Y00765D01*
X024436Y007701D01*
X02437Y007728D01*
D02*
G37*
G36*
X02837Y006978D02*
X028298D01*
X028232Y006951D01*
X028182Y0069D01*
X028154Y006834D01*
Y006777D01*
X028055Y006677D01*
X028055Y006677D01*
X028031Y006641D01*
X028022Y006598D01*
X028022Y006598D01*
Y006272D01*
X028018Y006266D01*
X02801Y006223D01*
X02801Y006223D01*
Y006003D01*
X027969Y005962D01*
X027942Y005896D01*
Y005824D01*
X027969Y005758D01*
X02802Y005708D01*
X028086Y00568D01*
X028158D01*
X028224Y005708D01*
X028275Y005758D01*
X028302Y005824D01*
Y005896D01*
X028275Y005962D01*
X028234Y006003D01*
Y006187D01*
X028238Y006192D01*
X028246Y006235D01*
X028246Y006235D01*
Y006552D01*
X028313Y006618D01*
X02837D01*
X028436Y006645D01*
X028487Y006696D01*
X028514Y006762D01*
Y006834D01*
X028487Y0069D01*
X028436Y006951D01*
X02837Y006978D01*
D02*
G37*
G36*
X03417Y008228D02*
X034098D01*
X034032Y008201D01*
X033982Y00815D01*
X033954Y008084D01*
Y008012D01*
X033982Y007946D01*
X034032Y007895D01*
X034098Y007868D01*
X03417D01*
X034187Y007875D01*
X034243Y007819D01*
X034279Y007794D01*
X034322Y007786D01*
X034322Y007786D01*
X035338D01*
X035596Y007528D01*
Y00633D01*
X035573Y006311D01*
X035095D01*
X035033Y006299D01*
X03498Y006263D01*
X034863Y006146D01*
X034828Y006093D01*
X034815Y006031D01*
Y005971D01*
X034782D01*
Y005331D01*
X035138D01*
Y005653D01*
X035141Y005669D01*
Y005963D01*
X035163Y005985D01*
X035505D01*
X035527Y005963D01*
Y005669D01*
X03553Y005653D01*
Y005331D01*
X035886D01*
Y005488D01*
X036121D01*
Y005354D01*
X03691D01*
Y00577D01*
X036958Y005785D01*
X036966Y005773D01*
X037051Y005687D01*
X037151Y005621D01*
X037262Y005575D01*
X03738Y005551D01*
X037501D01*
X037619Y005575D01*
X03773Y005621D01*
X03783Y005687D01*
X037915Y005773D01*
X037982Y005873D01*
X038028Y005984D01*
X038052Y006102D01*
Y006222D01*
X038028Y00634D01*
X037982Y006452D01*
X037915Y006552D01*
X03783Y006637D01*
X03773Y006704D01*
X037619Y00675D01*
X037501Y006773D01*
X03738D01*
X037262Y00675D01*
X037151Y006704D01*
X037051Y006637D01*
X036966Y006552D01*
X036958Y00654D01*
X03691Y006554D01*
Y00697D01*
X036121D01*
Y006338D01*
X036813D01*
X036845Y0063D01*
X036829Y006222D01*
Y006102D01*
X036845Y006025D01*
X036813Y005986D01*
X036121D01*
Y005814D01*
X035886D01*
Y005971D01*
X035853D01*
Y006031D01*
X035841Y006093D01*
X03582Y006124D01*
Y007574D01*
X03582Y007574D01*
X035812Y007617D01*
X035787Y007653D01*
X035463Y007977D01*
X035463Y007977D01*
X035427Y008002D01*
X035384Y00801D01*
X034369D01*
X034314Y008065D01*
Y008084D01*
X034287Y00815D01*
X034236Y008201D01*
X03417Y008228D01*
D02*
G37*
G36*
X03237Y008078D02*
X032298D01*
X032232Y008051D01*
X032182Y008D01*
X032154Y007934D01*
Y007862D01*
X032182Y007796D01*
X032195Y007782D01*
Y007773D01*
X032189Y00774D01*
Y006481D01*
X032197Y006439D01*
X032221Y006402D01*
X032221Y006402D01*
X032739Y005884D01*
X032727Y005855D01*
X032727D01*
Y005141D01*
X033441D01*
Y005855D01*
X033028D01*
X032999Y005895D01*
X032991Y005938D01*
X032967Y005974D01*
X032413Y006528D01*
Y007714D01*
X032418Y007738D01*
X032436Y007745D01*
X032487Y007796D01*
X032514Y007862D01*
Y007934D01*
X032487Y008D01*
X032436Y008051D01*
X03237Y008078D01*
D02*
G37*
G36*
X03157Y007678D02*
X031498D01*
X031432Y007651D01*
X031382Y0076D01*
X031354Y007534D01*
Y007462D01*
X031382Y007396D01*
X031422Y007356D01*
Y006248D01*
X031431Y006205D01*
X031455Y006169D01*
X031455Y006169D01*
X031853Y005771D01*
X031799Y005717D01*
X031752Y005636D01*
X031727Y005545D01*
Y005451D01*
X031752Y00536D01*
X031799Y005279D01*
X031865Y005213D01*
X031946Y005166D01*
X032037Y005141D01*
X032131D01*
X032222Y005166D01*
X032303Y005213D01*
X03237Y005279D01*
X032417Y00536D01*
X032441Y005451D01*
Y005545D01*
X032417Y005636D01*
X03237Y005717D01*
X032303Y005784D01*
X032222Y005831D01*
X032131Y005855D01*
X032086D01*
X031646Y006295D01*
Y007356D01*
X031687Y007396D01*
X031714Y007462D01*
Y007534D01*
X031687Y0076D01*
X031636Y007651D01*
X03157Y007678D01*
D02*
G37*
G36*
X02587Y005378D02*
X025798D01*
X025732Y005351D01*
X025682Y0053D01*
X025654Y005234D01*
Y005162D01*
X025682Y005096D01*
X025732Y005045D01*
X025798Y005018D01*
X02587D01*
X025936Y005045D01*
X025987Y005096D01*
X026014Y005162D01*
Y005234D01*
X025987Y0053D01*
X025936Y005351D01*
X02587Y005378D01*
D02*
G37*
G36*
X033734Y006111D02*
X033672Y006099D01*
X033619Y006063D01*
X033583Y00601D01*
X033581Y005999D01*
X033554Y005934D01*
Y005862D01*
X033571Y005821D01*
Y005575D01*
X033554Y005534D01*
Y005462D01*
X033571Y005421D01*
Y005125D01*
X033554Y005084D01*
Y005012D01*
X033571Y004971D01*
Y004775D01*
X033554Y004734D01*
Y004662D01*
X033582Y004596D01*
X033632Y004545D01*
X033698Y004518D01*
X03377D01*
X033811Y004535D01*
X033932D01*
Y004134D01*
X034536D01*
Y004535D01*
X034782D01*
Y004425D01*
X034815D01*
Y004365D01*
X034828Y004303D01*
X034863Y00425D01*
X03498Y004133D01*
X035033Y004097D01*
X035095Y004085D01*
X036021D01*
Y004081D01*
X036456D01*
Y004285D01*
X036566Y004394D01*
X036612Y004375D01*
Y004081D01*
X037047D01*
Y004135D01*
X037251D01*
Y004051D01*
X037706D01*
Y004545D01*
X037251D01*
Y004461D01*
X037047D01*
Y004516D01*
X036752D01*
X036733Y004562D01*
X036856Y004685D01*
X037307D01*
X037348Y004668D01*
X03742D01*
X037486Y004695D01*
X037537Y004746D01*
X037564Y004812D01*
Y004884D01*
X037537Y00495D01*
X037486Y005001D01*
X03742Y005028D01*
X037348D01*
X037307Y005011D01*
X036789D01*
X036726Y004999D01*
X036674Y004963D01*
X036226Y004516D01*
X036021D01*
Y004411D01*
X03593D01*
X035886Y004425D01*
X035886Y004461D01*
Y005065D01*
X03553D01*
Y004828D01*
X035507Y004813D01*
X03548Y004803D01*
X03542Y004828D01*
X035348D01*
X035282Y004801D01*
X035232Y00475D01*
X035204Y004684D01*
Y004612D01*
X035232Y004546D01*
X035282Y004495D01*
X035348Y004468D01*
X03542D01*
X03548Y004493D01*
X035507Y004483D01*
X035524Y004472D01*
X035523Y004423D01*
X035486Y004411D01*
X035163D01*
X035141Y004433D01*
Y004657D01*
X035138Y004672D01*
Y005065D01*
X034782D01*
Y004861D01*
X034536D01*
Y004962D01*
X034108D01*
X034092Y004966D01*
X033997D01*
X033914Y005049D01*
Y005084D01*
X033897Y005125D01*
Y005421D01*
X033914Y005462D01*
Y005534D01*
X033897Y005575D01*
Y005821D01*
X033914Y005862D01*
Y005934D01*
X033887Y005999D01*
X033885Y00601D01*
X03385Y006063D01*
X033797Y006099D01*
X033734Y006111D01*
D02*
G37*
G36*
X02742Y004778D02*
X027348D01*
X027282Y004751D01*
X027232Y0047D01*
X027204Y004634D01*
Y004562D01*
X027232Y004496D01*
X027282Y004445D01*
X027348Y004418D01*
X02742D01*
X027486Y004445D01*
X027537Y004496D01*
X027564Y004562D01*
Y004634D01*
X027537Y0047D01*
X027486Y004751D01*
X02742Y004778D01*
D02*
G37*
G36*
X02942Y005778D02*
X029348D01*
X029282Y005751D01*
X029232Y0057D01*
X029204Y005634D01*
Y005562D01*
X029232Y005496D01*
X029272Y005456D01*
Y005295D01*
X029109Y005131D01*
X028787D01*
Y004677D01*
X029281D01*
Y004986D01*
X029417Y005122D01*
X029467Y005101D01*
Y004726D01*
X029902D01*
Y004729D01*
X03002D01*
Y004598D01*
X030036Y004516D01*
X030083Y004447D01*
X030152Y0044D01*
X030234Y004384D01*
X030584D01*
X030666Y0044D01*
X030736Y004447D01*
X030782Y004516D01*
X030798Y004598D01*
X030782Y00468D01*
X030736Y004749D01*
X030486Y004999D01*
X030486Y004999D01*
X03039Y005095D01*
X030321Y005141D01*
X030239Y005157D01*
X029902D01*
Y005161D01*
X029518D01*
X029492Y005199D01*
X029489Y005211D01*
X029496Y005248D01*
X029496Y005248D01*
Y005456D01*
X029537Y005496D01*
X029564Y005562D01*
Y005634D01*
X029537Y0057D01*
X029486Y005751D01*
X02942Y005778D01*
D02*
G37*
G36*
X033131Y004855D02*
X033037D01*
X032946Y004831D01*
X032865Y004784D01*
X032799Y004717D01*
X032752Y004636D01*
X032727Y004545D01*
Y004451D01*
X032752Y00436D01*
X032799Y004279D01*
X032865Y004212D01*
X032946Y004166D01*
X033037Y004141D01*
X033131D01*
X033222Y004166D01*
X033303Y004212D01*
X03337Y004279D01*
X033417Y00436D01*
X033441Y004451D01*
Y004545D01*
X033417Y004636D01*
X03337Y004717D01*
X033303Y004784D01*
X033222Y004831D01*
X033131Y004855D01*
D02*
G37*
G36*
X029281Y004619D02*
X028787D01*
Y004165D01*
X029281D01*
Y004241D01*
X029467D01*
Y004135D01*
X029902D01*
Y00457D01*
X029467D01*
Y004465D01*
X029281D01*
Y004619D01*
D02*
G37*
%LPD*%
D10*
X033091Y021689D02*
X03412Y020659D01*
X03437D01*
X034391Y020639D01*
X027441Y024689D02*
X029791D01*
X030091Y024389D01*
Y022439D02*
Y024389D01*
X030191Y022189D02*
X030391Y022389D01*
X030191Y021368D02*
Y022189D01*
X030441Y020989D02*
Y021289D01*
X029977Y020526D02*
X030441Y020989D01*
X02982Y022419D02*
X03007D01*
X030091Y022439D01*
X027741Y020339D02*
X02982Y022419D01*
X030441Y021289D02*
X031857D01*
X032057Y021089D01*
X030091Y021239D02*
Y021268D01*
X030191Y021368D01*
X030989Y018288D02*
Y0184D01*
X031141Y018551D01*
Y018589D01*
X030041Y017339D02*
X030989Y018288D01*
X032041Y021089D02*
X032057D01*
X031471Y020519D02*
X032041Y021089D01*
X030184Y020519D02*
X031471D01*
X030177Y020526D02*
X030184Y020519D01*
X029977Y020526D02*
X030177D01*
X026341Y020009D02*
Y021685D01*
X029541Y016889D02*
X029566D01*
X029503D02*
X029541D01*
X029791Y020339D02*
X029977Y020526D01*
X027741Y020339D02*
X029791D01*
X027841Y022839D02*
Y023389D01*
X029891Y023239D02*
Y023889D01*
X029441Y023044D02*
X029695D01*
X029891Y023239D01*
X029691Y024089D02*
X029891Y023889D01*
X028541Y024089D02*
X029691D01*
X027841Y023389D02*
X028541Y024089D01*
X026841Y020539D02*
Y022689D01*
X027441Y023289D02*
Y023689D01*
X026841Y022689D02*
X027441Y023289D01*
X028791Y0236D02*
X029356D01*
X029441Y023684D01*
X028891Y021989D02*
Y022988D01*
X028791Y023088D02*
X028891Y022988D01*
X025091Y018989D02*
X026191D01*
X028141Y017039D01*
X029555Y017754D02*
X029625D01*
X029121Y018188D02*
X029555Y017754D01*
X029625D02*
X030041Y017339D01*
X029566Y016889D02*
X030016Y017339D01*
X030041D01*
X029353Y017039D02*
X029503Y016889D01*
X028141Y017039D02*
X029353D01*
X026441Y021785D02*
Y023689D01*
X026341Y021685D02*
X026441Y021785D01*
X025964Y018586D02*
X025967Y018583D01*
X025043Y018586D02*
X025964D01*
X025041Y018589D02*
X025043Y018586D01*
X016437Y009248D02*
X017467Y008218D01*
X017717D01*
X017737Y008198D01*
X010787Y012248D02*
X013137D01*
X013437Y011948D01*
Y009998D02*
Y011948D01*
X013537Y009748D02*
X013737Y009948D01*
X013537Y008927D02*
Y009748D01*
X013787Y008548D02*
Y008848D01*
X013324Y008085D02*
X013787Y008548D01*
X013167Y009978D02*
X013417D01*
X013437Y009998D01*
X011087Y007898D02*
X013167Y009978D01*
X013787Y008848D02*
X015204D01*
X015404Y008648D01*
X013437Y008798D02*
Y008827D01*
X013537Y008927D01*
X014336Y005847D02*
Y005959D01*
X014487Y00611D01*
Y006148D01*
X013387Y004898D02*
X014336Y005847D01*
X015387Y008648D02*
X015404D01*
X014817Y008078D02*
X015387Y008648D01*
X01353Y008078D02*
X014817D01*
X013524Y008085D02*
X01353Y008078D01*
X013324Y008085D02*
X013524D01*
X009687Y007568D02*
Y009244D01*
X012887Y004448D02*
X012912D01*
X012849D02*
X012887D01*
X013137Y007898D02*
X013324Y008085D01*
X011087Y007898D02*
X013137D01*
X011187Y010398D02*
Y010948D01*
X013237Y010798D02*
Y011448D01*
X012787Y010603D02*
X013042D01*
X013237Y010798D01*
X013037Y011648D02*
X013237Y011448D01*
X011887Y011648D02*
X013037D01*
X011187Y010948D02*
X011887Y011648D01*
X010187Y008098D02*
Y010248D01*
X010787Y010848D02*
Y011248D01*
X010187Y010248D02*
X010787Y010848D01*
X012137Y011159D02*
X012703D01*
X012787Y011243D01*
X012237Y009548D02*
Y010547D01*
X012137Y010647D02*
X012237Y010547D01*
X008437Y006548D02*
X009537D01*
X011487Y004598D01*
X012901Y005313D02*
X012972D01*
X012467Y005747D02*
X012901Y005313D01*
X012972D02*
X013387Y004898D01*
X012912Y004448D02*
X013362Y004898D01*
X013387D01*
X012699Y004598D02*
X012849Y004448D01*
X011487Y004598D02*
X012699D01*
X009787Y009344D02*
Y011248D01*
X009687Y009244D02*
X009787Y009344D01*
X009311Y006145D02*
X009314Y006142D01*
X00839Y006145D02*
X009311D01*
X008387Y006148D02*
X00839Y006145D01*
X01861Y024141D02*
Y024591D01*
X018635Y024866D02*
X01866Y024891D01*
X01861Y024591D02*
X018635Y024616D01*
Y024866D01*
X01861Y024141D02*
X01951D01*
X00911Y025791D02*
X009357Y025544D01*
Y025444D02*
X009943Y024857D01*
X009357Y025444D02*
Y025544D01*
X009937Y023467D02*
Y023592D01*
X009943Y023599D02*
Y024857D01*
X00991Y023441D02*
X009937Y023467D01*
Y023592D02*
X009943Y023599D01*
X01001Y022941D02*
X01101D01*
X00961Y023341D02*
X01001Y022941D01*
X00946Y023341D02*
X00961D01*
X01071Y023841D02*
Y025091D01*
X01821Y026291D02*
Y027191D01*
X01951Y024141D02*
X02026Y023391D01*
X01286Y025741D02*
Y026091D01*
X013073Y026304D01*
Y026317D01*
X01491Y022891D02*
Y023291D01*
X01581Y024191D01*
X01296Y023241D02*
X013296Y022904D01*
X014578D01*
X01361Y023891D02*
X01421Y024491D01*
X01211Y023891D02*
X01361D01*
X012235Y025166D02*
X013535D01*
X01196Y024891D02*
X012235Y025166D01*
X013535D02*
X01381Y025441D01*
X010254Y026634D02*
X01196Y024928D01*
X010254Y026634D02*
Y026746D01*
X01196Y024641D02*
X01211Y024491D01*
X01016Y026841D02*
X010254Y026746D01*
X01196Y024585D02*
Y024641D01*
Y024891D01*
X01211Y023891D02*
Y024491D01*
X01177Y024395D02*
X01196Y024585D01*
Y024891D02*
Y024928D01*
X01177Y024301D02*
Y024395D01*
X01391Y024541D02*
X01411Y024741D01*
Y025103D01*
X014122Y025116D01*
Y025478D01*
X00771Y025091D02*
X00946Y023341D01*
X00686Y023441D02*
X007922D01*
X008072Y023291D02*
X00811D01*
X007922Y023441D02*
X008072Y023291D01*
X013171Y026986D02*
X01321Y026946D01*
X01256Y026986D02*
X013171D01*
X013073Y026317D02*
X01319Y026435D01*
X01321D01*
X012503Y026395D02*
X01251Y026403D01*
X012452Y026345D02*
X012503Y026395D01*
X01071Y023241D02*
X01145Y02398D01*
X011106Y023025D02*
X011172Y023091D01*
X01101Y022941D02*
X011094Y023025D01*
X011106D01*
X011172Y023091D02*
X01121D01*
X009683Y022567D02*
X00971Y022541D01*
X009581Y022591D02*
X009604Y022567D01*
X00756Y022341D02*
X00781Y022591D01*
X009604Y022567D02*
X009683D01*
X00781Y022591D02*
X009581D01*
X00591Y022341D02*
X00756D01*
X01186Y021491D02*
X01436D01*
X01456Y021691D01*
X01161Y023491D02*
X01206Y023041D01*
X006536Y023765D02*
X00686Y023441D01*
X006536Y023765D02*
Y025688D01*
X00911Y022241D02*
X01016D01*
X005528Y022791D02*
X00556D01*
X005444Y022699D02*
Y022707D01*
X00451Y022641D02*
X005386D01*
X005444Y022707D02*
X005528Y022791D01*
X005386Y022641D02*
X005444Y022699D01*
X00411Y023041D02*
X00451Y022641D01*
X00411Y023041D02*
Y025691D01*
X00456Y026141D02*
X005994D01*
X00411Y025691D02*
X00456Y026141D01*
X01001Y025791D02*
X01071Y025091D01*
X01206Y023041D02*
X01241Y022691D01*
X012324Y023305D02*
X012324D01*
X012689Y022941D01*
X01271D01*
X011824Y022776D02*
X01216Y022441D01*
X011795Y022776D02*
X011824D01*
X004371Y026479D02*
X00461Y026241D01*
X004254Y027041D02*
X004371Y026923D01*
X005894Y026241D02*
X005994Y026141D01*
X004371Y026479D02*
Y026923D01*
X00461Y026241D02*
X005894D01*
X005994Y026141D02*
X006979D01*
X023634Y007198D02*
Y006748D01*
X023609Y006473D02*
X023584Y006448D01*
X023634Y006748D02*
X023609Y006723D01*
Y006473D01*
X023634Y007198D02*
X022734D01*
X033134Y005548D02*
X032887Y005795D01*
Y005895D02*
X032301Y006481D01*
X032887Y005895D02*
Y005795D01*
X032307Y007871D02*
Y007747D01*
X032301Y00774D02*
Y006481D01*
X032334Y007898D02*
X032307Y007871D01*
Y007747D02*
X032301Y00774D01*
X032234Y008398D02*
X031234D01*
X032634Y007998D02*
X032234Y008398D01*
X032784Y007998D02*
X032634D01*
X031534Y007498D02*
Y006248D01*
X024034Y005048D02*
Y004148D01*
X022734Y007198D02*
X021984Y007948D01*
X029384Y005598D02*
Y005248D01*
X029171Y005035D01*
Y005021D01*
X027334Y008448D02*
Y008048D01*
X026434Y007148D01*
X029284Y008098D02*
X028948Y008434D01*
X027666D01*
X028634Y007448D02*
X028034Y006848D01*
X030134Y007448D02*
X028634D01*
X030009Y006173D02*
X028709D01*
X030284Y006448D02*
X030009Y006173D01*
X028709D02*
X028434Y005898D01*
X03199Y004705D02*
X030284Y00641D01*
X03199Y004705D02*
Y004593D01*
X030284Y006698D02*
X030134Y006848D01*
X032084Y004498D02*
X03199Y004593D01*
X030284Y006753D02*
Y006698D01*
Y006448D01*
X030134Y007448D02*
Y006848D01*
X030474Y006943D02*
X030284Y006753D01*
Y006448D02*
Y00641D01*
X030474Y007038D02*
Y006943D01*
X028334Y006798D02*
X028134Y006598D01*
Y006235D01*
X028122Y006223D01*
Y00586D01*
X034534Y006248D02*
X032784Y007998D01*
X035384Y007898D02*
X034322D01*
X034172Y008048D02*
X034134D01*
X034322Y007898D02*
X034172Y008048D01*
X029074Y004353D02*
X029034Y004392D01*
X029684Y004353D02*
X029074D01*
X029171Y005021D02*
X029054Y004904D01*
X029034D01*
X029741Y004943D02*
X029734Y004936D01*
X029792Y004994D02*
X029741Y004943D01*
X031534Y008098D02*
X030794Y007358D01*
X031138Y008314D02*
X031072Y008248D01*
X031234Y008398D02*
X03115Y008314D01*
X031138D01*
X031072Y008248D02*
X031034D01*
X032561Y008771D02*
X032534Y008798D01*
X032663Y008748D02*
X03264Y008771D01*
X034684Y008998D02*
X034434Y008748D01*
X03264Y008771D02*
X032561D01*
X034434Y008748D02*
X032663D01*
X036334Y008998D02*
X034684D01*
X030384Y009848D02*
X027884D01*
X027684Y009648D01*
X030634Y007848D02*
X030184Y008298D01*
X035708Y007574D02*
X035384Y007898D01*
X035708Y007574D02*
Y005651D01*
X033134Y009098D02*
X032084D01*
X036716Y008548D02*
X036684D01*
X0368Y008639D02*
Y008632D01*
X037734Y008698D02*
X036858D01*
X0368Y008632D02*
X036716Y008548D01*
X036858Y008698D02*
X0368Y008639D01*
X038134Y008298D02*
X037734Y008698D01*
X038134Y008298D02*
Y005648D01*
X037684Y005198D02*
X03625D01*
X038134Y005648D02*
X037684Y005198D01*
X032234Y005548D02*
X031534Y006248D01*
X030184Y008298D02*
X029834Y008648D01*
X02992Y008034D02*
X02992D01*
X029555Y008398D01*
X029534D01*
X03042Y008563D02*
X030084Y008898D01*
X030449Y008563D02*
X03042D01*
X037873Y004859D02*
X037634Y005098D01*
X03799Y004298D02*
X037873Y004415D01*
X03635Y005098D02*
X03625Y005198D01*
X037873Y004859D02*
Y004415D01*
X037634Y005098D02*
X03635D01*
X03625Y005198D02*
X035265D01*
X01626Y01857D02*
Y01857D01*
X015341Y017651D02*
X01626Y01857D01*
X015341Y017632D02*
Y017651D01*
X013997Y018157D02*
Y018169D01*
X01416Y018332D02*
Y01837D01*
X013997Y018169D02*
X01416Y018332D01*
X013939Y018099D02*
X013997Y018157D01*
X01281Y01712D02*
X01311Y01742D01*
X013789Y018099D02*
X013939D01*
X01311Y01742D02*
X013789Y018099D01*
X017903Y01938D02*
X017929Y019353D01*
X017876Y020104D02*
X017903Y020077D01*
Y01938D02*
Y020077D01*
X01516Y01567D02*
Y01745D01*
X015341Y017632D01*
X01211Y01827D02*
X012883Y017497D01*
X013033D02*
X01306Y01747D01*
X012883Y017497D02*
X013033D01*
X01326Y01712D02*
X01471Y01567D01*
X01516D01*
X01281Y01712D02*
X01326D01*
X013795Y018408D02*
Y018446D01*
X01396Y018611D02*
Y01907D01*
X013795Y018446D02*
X01396Y018611D01*
X01381Y01937D02*
Y02017D01*
X012421Y020726D02*
X01306D01*
X01241Y020715D02*
X012421Y020726D01*
X012923Y020097D02*
X01304Y020214D01*
X012923Y020077D02*
Y020097D01*
X01286Y01927D02*
Y020014D01*
X01304Y020214D02*
X01306D01*
X01286Y020014D02*
X012923Y020077D01*
X01011Y01962D02*
X01056Y01917D01*
Y01752D02*
Y01917D01*
X01187Y018005D02*
X01211Y018245D01*
X01187Y01798D02*
Y018005D01*
X01211Y018245D02*
Y01827D01*
X01011Y02062D02*
X01111Y01962D01*
Y01874D02*
Y01962D01*
Y01874D02*
X01187Y01798D01*
X008372Y01672D02*
X008422Y01667D01*
X009404D01*
X00901Y01637D02*
X00976D01*
X006013Y01672D02*
X008372D01*
X00861Y01597D02*
X00901Y01637D01*
X00816Y01567D02*
X009225D01*
X00776Y01607D02*
X00816Y01567D01*
X00551Y01607D02*
X00776D01*
X009225Y01567D02*
X009525Y01597D01*
X00591Y01657D02*
Y016616D01*
X006013Y01672D01*
X009454D02*
X01011D01*
X009404Y01667D02*
X009454Y01672D01*
X01011D02*
X01076Y01607D01*
X01161D01*
X00911Y01962D02*
X00976Y01897D01*
Y01722D02*
Y01897D01*
X01081Y01682D02*
X010837Y016847D01*
Y016947D01*
X01155Y01766D01*
X012274Y016994D02*
X012299D01*
X012572Y01672D01*
Y016682D02*
Y01672D01*
X01211Y016258D02*
X012148D01*
X011836Y016531D02*
X01211Y016258D01*
X011836Y016531D02*
Y016556D01*
X012274Y016994D02*
Y017085D01*
X011745Y016556D02*
X011836D01*
X025984Y012769D02*
Y012769D01*
X026903Y013688D02*
X025984Y012769D01*
X026903Y013707D02*
Y013688D01*
X028247Y013181D02*
Y013169D01*
X028084Y013006D02*
Y012969D01*
X028247Y013169D02*
X028084Y013006D01*
X028306Y01324D02*
X028247Y013181D01*
X029434Y014219D02*
X029134Y013919D01*
X028456Y01324D02*
X028306D01*
X029134Y013919D02*
X028456Y01324D01*
X024341Y011958D02*
X024315Y011985D01*
X024368Y011234D02*
X024341Y011261D01*
Y011958D02*
Y011261D01*
X027084Y015669D02*
Y013888D01*
X026903Y013707D01*
X030134Y013069D02*
X029361Y013842D01*
X029211D02*
X029184Y013869D01*
X029361Y013842D02*
X029211D01*
X028984Y014219D02*
X027534Y015669D01*
X027084D01*
X029434Y014219D02*
X028984D01*
X028449Y012931D02*
Y012893D01*
X028284Y012728D02*
Y012269D01*
X028449Y012893D02*
X028284Y012728D01*
X028434Y011969D02*
Y011169D01*
X029824Y010613D02*
X029184D01*
X029834Y010623D02*
X029824Y010613D01*
X029321Y011242D02*
X029204Y011124D01*
X029321Y011261D02*
Y011242D01*
X029384Y012069D02*
Y011324D01*
X029204Y011124D02*
X029184D01*
X029384Y011324D02*
X029321Y011261D01*
X032134Y011719D02*
X031684Y012169D01*
Y013819D02*
Y012169D01*
X030374Y013333D02*
X030134Y013094D01*
X030374Y013358D02*
Y013333D01*
X030134Y013094D02*
Y013069D01*
X032134Y010719D02*
X031134Y011719D01*
Y012598D02*
Y011719D01*
Y012598D02*
X030374Y013358D01*
X033872Y014619D02*
X033822Y014669D01*
X03284D01*
X033234Y014969D02*
X032484D01*
X036231Y014619D02*
X033872D01*
X033634Y015369D02*
X033234Y014969D01*
X034084Y015669D02*
X033019D01*
X034484Y015269D02*
X034084Y015669D01*
X036734Y015269D02*
X034484D01*
X033019Y015669D02*
X032719Y015369D01*
X036334Y014769D02*
Y014722D01*
X036231Y014619D01*
X03279D02*
X032134D01*
X03284Y014669D02*
X03279Y014619D01*
X032134D02*
X031484Y015269D01*
X030634D01*
X033134Y011719D02*
X032484Y012369D01*
Y014119D02*
Y012369D01*
X031434Y014519D02*
X031407Y014492D01*
Y014392D01*
X030694Y013679D01*
X02997Y014345D02*
X029945D01*
X029672Y014618D01*
Y014656D02*
Y014618D01*
X030134Y015081D02*
X030096D01*
X030408Y014807D02*
X030134Y015081D01*
X030408Y014807D02*
Y014783D01*
X02997Y014345D02*
Y014254D01*
X030499Y014783D02*
X030408D01*
D20*
X012324Y023305D02*
D03*
X011795Y022776D02*
D03*
X02992Y008034D02*
D03*
X030449Y008563D02*
D03*
X012274Y017085D02*
D03*
X011745Y016556D02*
D03*
X02997Y014254D02*
D03*
X030499Y014783D02*
D03*
D21*
X01206Y023041D02*
D03*
X030184Y008298D02*
D03*
X01201Y01682D02*
D03*
X030234Y014519D02*
D03*
D22*
X01177Y024301D02*
D03*
X01145Y02398D02*
D03*
X030474Y007038D02*
D03*
X030794Y007358D02*
D03*
X01155Y01766D02*
D03*
X01187Y01798D02*
D03*
X030694Y013679D02*
D03*
X030374Y013358D02*
D03*
D27*
X028791Y0236D02*
D03*
Y023088D02*
D03*
X012137Y011159D02*
D03*
Y010647D02*
D03*
X01321Y026946D02*
D03*
Y026435D02*
D03*
X029034Y004392D02*
D03*
Y004904D02*
D03*
X01306Y020726D02*
D03*
Y020214D02*
D03*
X029184Y010613D02*
D03*
Y011124D02*
D03*
D37*
X007284Y026593D02*
D03*
X006536D02*
D03*
Y025688D02*
D03*
X00691D02*
D03*
X007284D02*
D03*
X03496Y004745D02*
D03*
X035708D02*
D03*
Y005651D02*
D03*
X035334D02*
D03*
X03496D02*
D03*
X007184Y020623D02*
D03*
X006436D02*
D03*
Y019717D02*
D03*
X00681D02*
D03*
X007184D02*
D03*
X03506Y010716D02*
D03*
X035808D02*
D03*
Y011621D02*
D03*
X035434D02*
D03*
X03506D02*
D03*
D38*
X00801Y026791D02*
D03*
Y025725D02*
D03*
X034234Y004548D02*
D03*
Y005614D02*
D03*
X00791Y020536D02*
D03*
Y019504D02*
D03*
X034334Y010803D02*
D03*
Y011834D02*
D03*
D41*
X01191Y026491D02*
X01201Y026591D01*
X01166Y026741D02*
X01201D01*
Y026591D02*
Y026741D01*
X01166D02*
X01191Y026491D01*
X012503Y026395D02*
X01256D01*
X012005D02*
X012503D01*
X01191Y026491D02*
X012005Y026395D01*
X030334Y004848D02*
X030234Y004748D01*
X030584Y004598D02*
X030234D01*
Y004748D02*
Y004598D01*
X030584D02*
X030334Y004848D01*
X029741Y004943D02*
X029684D01*
X030239D02*
X029741D01*
X030334Y004848D02*
X030239Y004943D01*
X00846Y019874D02*
Y020495D01*
X00791Y020424D02*
X00846Y019874D01*
Y01977D02*
Y019874D01*
X007866Y020579D02*
X00791Y020536D01*
X00846Y01942D02*
Y01977D01*
X00791Y020424D02*
Y020536D01*
X005751Y01947D02*
X00631D01*
X005729Y019448D02*
X005751Y01947D01*
X007184Y020611D02*
X007216Y020579D01*
X007866D01*
X033784Y011465D02*
Y010844D01*
X034334Y010915D02*
X033784Y011465D01*
Y011569D02*
Y011465D01*
X034378Y010759D02*
X034334Y010803D01*
X033784Y011919D02*
Y011569D01*
X034334Y010915D02*
Y010803D01*
X036493Y011869D02*
X035934D01*
X036515Y011891D02*
X036493Y011869D01*
X03506Y010727D02*
X035028Y010759D01*
X034378D01*
D42*
X022096Y026259D02*
X022189Y026351D01*
X030141Y019989D02*
X030173Y020022D01*
X02994Y019989D02*
X030141D01*
X026682D02*
X02994D01*
X030273Y020022D02*
X030291Y020039D01*
X030173Y020022D02*
X030273D01*
X030041Y020115D02*
Y020139D01*
X02994Y019989D02*
Y020014D01*
X026446Y019754D02*
X026682Y019989D01*
X024615Y019889D02*
X024715Y019989D01*
X024591Y019889D02*
X024615D01*
X025999Y019989D02*
X026235Y019754D01*
X026446D01*
X024715Y019989D02*
X025999D01*
X023441Y026939D02*
X025191D01*
X027441Y024689D01*
X024591Y022389D02*
Y022413D01*
X024391Y022613D02*
Y023839D01*
Y022613D02*
X024591Y022413D01*
X024391Y023839D02*
Y024089D01*
X024591Y021489D02*
Y022389D01*
X023991Y020789D02*
X024241D01*
X022641D02*
X023991D01*
Y020839D02*
X024241Y021089D01*
X023991Y020789D02*
Y020839D01*
X022591Y020739D02*
X022641Y020789D01*
X024241D02*
Y021089D01*
X022136Y025789D02*
X023241D01*
X022119D02*
X022136D01*
X021545D02*
X021585Y025828D01*
Y026239D01*
X022941Y026439D02*
X023441Y026939D01*
X022296Y026439D02*
X022941D01*
X022189Y026351D02*
X022208D01*
X022296Y026439D01*
X022096Y026239D02*
Y026259D01*
X005443Y013818D02*
X005535Y01391D01*
X013487Y007548D02*
X01352Y007581D01*
X013287Y007548D02*
X013487D01*
X010028D02*
X013287D01*
X01362Y007581D02*
X013637Y007598D01*
X01352Y007581D02*
X01362D01*
X013387Y007674D02*
Y007698D01*
X013287Y007548D02*
Y007573D01*
X009793Y007313D02*
X010028Y007548D01*
X007961Y007448D02*
X008061Y007548D01*
X007937Y007448D02*
X007961D01*
X009346Y007548D02*
X009581Y007313D01*
X009793D01*
X008061Y007548D02*
X009346D01*
X006787Y014498D02*
X008537D01*
X010787Y012248D01*
X007937Y009948D02*
Y009972D01*
X007737Y010172D02*
Y011398D01*
Y010172D02*
X007937Y009972D01*
X007737Y011398D02*
Y011648D01*
X007937Y009048D02*
Y009948D01*
X007337Y008348D02*
X007587D01*
X005987D02*
X007337D01*
Y008398D02*
X007587Y008648D01*
X007337Y008348D02*
Y008398D01*
X005937Y008298D02*
X005987Y008348D01*
X007587D02*
Y008648D01*
X005482Y013348D02*
X006587D01*
X005465D02*
X005482D01*
X004892D02*
X004931Y013387D01*
Y013798D01*
X006287Y013998D02*
X006787Y014498D01*
X005643Y013998D02*
X006287D01*
X005535Y01391D02*
X005555D01*
X005643Y013998D01*
X005443Y013798D02*
Y013818D01*
X006208Y021023D02*
X006984D01*
X006005Y02082D02*
X006208Y021023D01*
X006984D02*
X007141Y020866D01*
Y020666D02*
Y020866D01*
Y020666D02*
X007184Y020623D01*
X004117Y016763D02*
X00441Y01647D01*
X005428D02*
X005528Y01657D01*
X00556D01*
X00441Y01647D02*
X005428D01*
X004117Y016763D02*
Y02013D01*
X004254Y020267D01*
X007743Y019103D02*
Y019337D01*
X00791Y019504D01*
X00751Y01887D02*
X007743Y019103D01*
X00451Y02002D02*
X00606D01*
X00621Y02017D01*
X006944D01*
X006853Y01976D02*
Y019987D01*
X006856Y01999D01*
Y020082D01*
X00681Y019717D02*
X006853Y01976D01*
X006856Y020082D02*
X006944Y02017D01*
X00741D01*
X007743Y019837D01*
Y019671D02*
X00791Y019504D01*
X007743Y019671D02*
Y019837D01*
X004254Y020267D02*
Y02082D01*
Y020267D02*
X004501Y02002D01*
X00451D01*
X036036Y010315D02*
X03526D01*
X036239Y010519D02*
X036036Y010315D01*
X03526D02*
X035103Y010472D01*
Y010673D02*
Y010472D01*
Y010673D02*
X03506Y010716D01*
X038127Y014576D02*
X037834Y014869D01*
X036816D02*
X036716Y014769D01*
X036684D01*
X037834Y014869D02*
X036816D01*
X038127Y014576D02*
Y011208D01*
X03799Y011072D01*
X034501Y012236D02*
Y012001D01*
X034334Y011834D01*
X034734Y012469D02*
X034501Y012236D01*
X037734Y011319D02*
X036184D01*
X036034Y011169D01*
X0353D01*
X035391Y011578D02*
Y011351D01*
X035388Y011349D01*
Y011256D01*
X035434Y011621D02*
X035391Y011578D01*
X035388Y011256D02*
X0353Y011169D01*
X034834D01*
X034501Y011501D01*
Y011667D02*
X034334Y011834D01*
X034501Y011667D02*
Y011501D01*
X03799Y011072D02*
Y010519D01*
Y011072D02*
X037743Y011319D01*
X037734D01*
D43*
X030248Y020092D02*
Y02027D01*
X020773Y024172D02*
X022386Y025784D01*
X021891Y019889D02*
Y020139D01*
X030248Y020092D02*
X030283Y020058D01*
X030248Y02027D02*
X030283Y020236D01*
Y020058D02*
Y020236D01*
X030051Y020139D02*
X030194Y020281D01*
X030233D01*
X030241Y020278D02*
Y020289D01*
X030248Y02027D02*
Y020281D01*
X030233D02*
X030241Y020289D01*
X030291Y020039D02*
Y02005D01*
X030283Y020058D02*
X030291Y02005D01*
X030241Y020278D02*
X030248Y02027D01*
X030283Y020047D02*
Y020058D01*
X030241Y020289D02*
X030248Y020281D01*
X030144Y020047D02*
X030283D01*
X030291Y020039D01*
X030051Y020139D02*
X030144Y020047D01*
X030041Y020139D02*
X030051D01*
X02994Y020014D02*
X030041Y020115D01*
X021671Y019889D02*
X021891D01*
X021641D02*
X021671D01*
X024041Y026339D02*
Y026589D01*
X022141Y019089D02*
X022541Y019489D01*
X023841D01*
X021141Y019089D02*
X022141D01*
X021671Y020139D02*
X021891D01*
X024291Y019889D02*
X024591D01*
X021891D02*
X024291D01*
X02122Y019892D02*
X021638D01*
X020773Y020339D02*
X02122Y019892D01*
X021638D02*
X021641Y019889D01*
X022386Y025784D02*
X023236D01*
X022141D02*
X022386D01*
X020773Y020339D02*
Y024172D01*
X023791Y026339D02*
X024041D01*
X023791Y026589D02*
X024041D01*
X023791Y026339D02*
Y026589D01*
X023241Y025789D02*
X023791Y026339D01*
X023236Y025784D02*
X023241Y025789D01*
X022136D02*
X022141Y025784D01*
X013595Y007651D02*
Y007829D01*
X00412Y011731D02*
X005732Y013343D01*
X005237Y007448D02*
Y007698D01*
X013595Y007651D02*
X013629Y007617D01*
X013595Y007829D02*
X013629Y007795D01*
Y007617D02*
Y007795D01*
X013398Y007698D02*
X01354Y00784D01*
X013579D01*
X013587Y007837D02*
Y007848D01*
X013595Y007829D02*
Y00784D01*
X013579D02*
X013587Y007848D01*
X013637Y007598D02*
Y007609D01*
X013629Y007617D02*
X013637Y007609D01*
X013587Y007837D02*
X013595Y007829D01*
X013629Y007606D02*
Y007617D01*
X013587Y007848D02*
X013595Y00784D01*
X01349Y007606D02*
X013629D01*
X013637Y007598D01*
X013398Y007698D02*
X01349Y007606D01*
X013387Y007698D02*
X013398D01*
X013287Y007573D02*
X013387Y007674D01*
X005017Y007448D02*
X005237D01*
X004987D02*
X005017D01*
X007387Y013898D02*
Y014148D01*
X005487Y006648D02*
X005887Y007048D01*
X007187D01*
X004487Y006648D02*
X005487D01*
X005017Y007698D02*
X005237D01*
X007637Y007448D02*
X007937D01*
X005237D02*
X007637D01*
X004567Y007451D02*
X004984D01*
X00412Y007898D02*
X004567Y007451D01*
X004984D02*
X004987Y007448D01*
X005732Y013343D02*
X006582D01*
X005487D02*
X005732D01*
X00412Y007898D02*
Y011731D01*
X007137Y013898D02*
X007387D01*
X007137Y014148D02*
X007387D01*
X007137Y013898D02*
Y014148D01*
X006587Y013348D02*
X007137Y013898D01*
X006582Y013343D02*
X006587Y013348D01*
X005482D02*
X005487Y013343D01*
X008079Y026641D02*
X00851D01*
X008048D02*
X008079D01*
Y026672D01*
Y026609D02*
Y026641D01*
X007337D02*
X007868D01*
X007302D02*
X007337D01*
X008314Y026536D02*
X008502Y026348D01*
X006003Y027038D02*
X006008D01*
X008152Y026536D02*
X008314D01*
X008502Y026298D02*
X00851Y026291D01*
X008502Y026298D02*
Y026348D01*
X00801Y026783D02*
Y026791D01*
X007868Y026641D02*
X00801Y026783D01*
X008079Y026609D02*
X008152Y026536D01*
X00851Y026291D02*
Y026641D01*
Y025841D02*
Y026291D01*
X00801Y026678D02*
X008048Y026641D01*
X00851Y025441D02*
Y025841D01*
Y025391D02*
Y025441D01*
X007149Y025191D02*
X007266Y025308D01*
Y02567D01*
X006536Y025688D02*
X006554Y02567D01*
X006671Y025191D02*
X007149D01*
X006554Y025308D02*
X006671Y025191D01*
X006554Y025308D02*
Y02567D01*
X007284Y026593D02*
Y026664D01*
Y026493D02*
Y026593D01*
X005455Y026491D02*
X006003Y027038D01*
X00486Y026491D02*
X005455D01*
X006005Y027041D02*
X006055Y027091D01*
X007266Y02567D02*
X007284Y025688D01*
X00591Y025782D02*
Y025791D01*
X006005Y025688D02*
X006536D01*
X00591Y025782D02*
X006005Y025688D01*
X007266Y026682D02*
Y026973D01*
Y026682D02*
X007284Y026664D01*
X006055Y027091D02*
X007149D01*
X007266Y026973D01*
X004766Y027041D02*
X005415D01*
X034165Y004698D02*
X033734D01*
X034196D02*
X034165D01*
Y004667D01*
Y004729D02*
Y004698D01*
X034907D02*
X034376D01*
X034942D02*
X034907D01*
X03393Y004802D02*
X033742Y00499D01*
X036241Y0043D02*
X036237D01*
X034092Y004802D02*
X03393D01*
X033742Y00504D02*
X033734Y005048D01*
X033742Y00504D02*
Y00499D01*
X034234Y004556D02*
Y004548D01*
X034376Y004698D02*
X034234Y004556D01*
X034165Y004729D02*
X034092Y004802D01*
X033734Y005048D02*
Y004698D01*
Y005498D02*
Y005048D01*
X034234Y00466D02*
X034196Y004698D01*
X033734Y005898D02*
Y005498D01*
Y005948D02*
Y005898D01*
X035095Y006148D02*
X034978Y006031D01*
Y005669D01*
X035708Y005651D02*
X03569Y005669D01*
X035573Y006148D02*
X035095D01*
X03569Y006031D02*
X035573Y006148D01*
X03569Y006031D02*
Y005669D01*
X03496Y004745D02*
Y004675D01*
Y004845D02*
Y004745D01*
X036789Y004848D02*
X036241Y0043D01*
X037384Y004848D02*
X036789D01*
X036239Y004298D02*
X036189Y004248D01*
X034978Y005669D02*
X03496Y005651D01*
X036334Y005556D02*
Y005548D01*
X036239Y005651D02*
X035708D01*
X036334Y005556D02*
X036239Y005651D01*
X034978Y004657D02*
Y004365D01*
Y004657D02*
X03496Y004675D01*
X036189Y004248D02*
X035095D01*
X034978Y004365D01*
X037478Y004298D02*
X036829D01*
X01196Y02002D02*
Y020262D01*
X011971Y02002D02*
X012018Y020067D01*
X01196Y02002D02*
X011971D01*
X012352Y020067D02*
X01241Y020125D01*
X012018Y020067D02*
X012352D01*
X007166Y019376D02*
Y019699D01*
X007184Y019717D01*
X00701Y01922D02*
X007166Y019376D01*
X006571Y01922D02*
X00701D01*
X006454Y019337D02*
Y019699D01*
Y019337D02*
X006571Y01922D01*
X006436Y019717D02*
X006454Y019699D01*
X004766Y02082D02*
X005415D01*
X030284Y011319D02*
Y011077D01*
X030273Y011319D02*
X030226Y011271D01*
X030284Y011319D02*
X030273D01*
X029892Y011271D02*
X029834Y011214D01*
X030226Y011271D02*
X029892D01*
X035078Y011963D02*
Y011639D01*
X03506Y011621D01*
X035234Y012119D02*
X035078Y011963D01*
X035673Y012119D02*
X035234D01*
X03579Y012001D02*
Y011639D01*
Y012001D02*
X035673Y012119D01*
X035808Y011621D02*
X03579Y011639D01*
X037478Y010519D02*
X036829D01*
D54*
X021585Y026439D02*
D03*
X022096D02*
D03*
X004931Y013998D02*
D03*
X005443D02*
D03*
X004766Y027041D02*
D03*
X004254D02*
D03*
X037478Y004298D02*
D03*
X03799D02*
D03*
X004254Y02082D02*
D03*
X004766D02*
D03*
X03799Y010519D02*
D03*
X037478D02*
D03*
D56*
X01641Y024841D02*
X016433Y024817D01*
X016533D01*
X01671Y024641D01*
X01706D01*
X01791Y023791D01*
X025834Y006498D02*
X025811Y006521D01*
X025711D01*
X025534Y006698D01*
X025184D01*
X024334Y007548D01*
D58*
X007337Y026641D02*
Y026664D01*
Y026546D02*
Y026641D01*
X007284Y026493D02*
X007337Y026546D01*
X00771Y024191D02*
X00806Y023841D01*
X00771Y024191D02*
Y025091D01*
X007889Y02527D02*
Y025604D01*
X00771Y025091D02*
X007889Y02527D01*
Y025604D02*
X00801Y025725D01*
X00771Y025091D02*
Y025091D01*
X00751Y025091D02*
X00771D01*
X006933Y024514D02*
X00751Y025091D01*
X006933Y024064D02*
Y024514D01*
X00691Y024041D02*
X006933Y024064D01*
X006979Y026141D02*
X007706D01*
X00801Y025837D01*
X00691Y025688D02*
Y026072D01*
X006979Y026141D01*
X00801Y025725D02*
Y025837D01*
X006595Y026691D02*
X00686D01*
X006536Y026593D02*
Y026631D01*
X006595Y026691D01*
X006005Y027041D02*
X006008Y027038D01*
X034907Y004698D02*
Y004675D01*
Y004793D02*
Y004698D01*
X03496Y004845D02*
X034907Y004793D01*
X034534Y007148D02*
X034184Y007498D01*
X034534Y007148D02*
Y006248D01*
X034355Y006069D02*
Y005735D01*
X034534Y006248D02*
X034355Y006069D01*
Y005735D02*
X034234Y005614D01*
X034534Y006248D02*
Y006248D01*
X034734Y006248D02*
X034534D01*
X035311Y006825D02*
X034734Y006248D01*
X035311Y007275D02*
Y006825D01*
X035334Y007298D02*
X035311Y007275D01*
X035265Y005198D02*
X034538D01*
X034234Y005502D01*
X035334Y005651D02*
Y005267D01*
X035265Y005198D01*
X034234Y005614D02*
Y005502D01*
X035649Y004648D02*
X035384D01*
X035708Y004745D02*
Y004707D01*
X035649Y004648D01*
X036239Y004298D02*
X036237Y0043D01*
X006043Y02037D02*
X006095Y020422D01*
X006377D01*
X00601Y02037D02*
X006043D01*
X01201Y01682D02*
X01236Y01647D01*
X01161Y01722D02*
X01201Y01682D01*
X006436Y020481D02*
Y020623D01*
X006377Y020422D02*
X006436Y020481D01*
X036201Y010969D02*
X036149Y010917D01*
X035867D01*
X036234Y010969D02*
X036201D01*
X030234Y014519D02*
X029884Y014869D01*
X030634Y014119D02*
X030234Y014519D01*
X035808Y010857D02*
Y010716D01*
X035867Y010917D02*
X035808Y010857D01*
D62*
X021484Y022875D02*
D03*
X021484Y021103D02*
D03*
X004831Y010434D02*
D03*
X004831Y008662D02*
D03*
X004804Y025176D02*
D03*
X004804Y023405D02*
D03*
X03744Y006162D02*
D03*
X03744Y007934D02*
D03*
X004804Y017184D02*
D03*
X004804Y018956D02*
D03*
X03744Y014154D02*
D03*
X03744Y012383D02*
D03*
D63*
X026441Y023689D02*
D03*
X009787Y011248D02*
D03*
X00916Y025841D02*
D03*
X033084Y005498D02*
D03*
X00911Y01962D02*
D03*
X033134Y011719D02*
D03*
D64*
X026441Y024689D02*
D03*
X027441Y023689D02*
D03*
Y024689D02*
D03*
X009787Y012248D02*
D03*
X010787Y011248D02*
D03*
Y012248D02*
D03*
X00916Y026841D02*
D03*
X01016D02*
D03*
Y025841D02*
D03*
X033084Y004498D02*
D03*
X032084D02*
D03*
Y005498D02*
D03*
X00911Y02062D02*
D03*
X01011Y01962D02*
D03*
Y02062D02*
D03*
X033134Y010719D02*
D03*
X032134Y011719D02*
D03*
Y010719D02*
D03*
D65*
X035291Y025189D02*
D03*
X020991Y018689D02*
D03*
X021541Y027089D02*
D03*
X028291Y017489D02*
D03*
X031391Y017739D02*
D03*
X030741Y017189D02*
D03*
X028641Y017039D02*
D03*
X030541Y016689D02*
D03*
X027141Y022289D02*
D03*
X026041D02*
D03*
X027691Y017489D02*
D03*
X033841Y020189D02*
D03*
Y020639D02*
D03*
X034391D02*
D03*
X035091D02*
D03*
X035141Y023339D02*
D03*
Y023839D02*
D03*
X035241Y022039D02*
D03*
X034391Y020189D02*
D03*
X035091D02*
D03*
X033891Y019689D02*
D03*
X031841Y018689D02*
D03*
X032541Y018739D02*
D03*
X028291Y025139D02*
D03*
X027241Y025639D02*
D03*
X028041D02*
D03*
X026491Y026589D02*
D03*
X026391Y027089D02*
D03*
X027191Y027139D02*
D03*
X027291Y026639D02*
D03*
X027841Y027139D02*
D03*
X028091Y026689D02*
D03*
X028791D02*
D03*
X028541Y027089D02*
D03*
X029391Y027239D02*
D03*
X029541Y026739D02*
D03*
X030441D02*
D03*
X030041Y027189D02*
D03*
X030991Y027139D02*
D03*
Y026689D02*
D03*
X031741D02*
D03*
X031641Y027139D02*
D03*
X020841Y027089D02*
D03*
Y026439D02*
D03*
Y025939D02*
D03*
Y025239D02*
D03*
X025341Y017989D02*
D03*
X026741Y016639D02*
D03*
X025741Y016589D02*
D03*
X024691D02*
D03*
X023941D02*
D03*
X032891Y024539D02*
D03*
X033641Y023739D02*
D03*
X033291Y023389D02*
D03*
X032741Y023889D02*
D03*
X032441Y025139D02*
D03*
X031891D02*
D03*
X032341Y027189D02*
D03*
Y026639D02*
D03*
X032941D02*
D03*
X032991Y027139D02*
D03*
X033541D02*
D03*
Y026639D02*
D03*
X034141D02*
D03*
Y027139D02*
D03*
X034691Y026639D02*
D03*
X035141D02*
D03*
X034641Y027139D02*
D03*
X035141D02*
D03*
X034841Y026189D02*
D03*
X035091Y025689D02*
D03*
X034841Y025189D02*
D03*
X035091Y024689D02*
D03*
X034841Y024189D02*
D03*
X035091Y019689D02*
D03*
X034841Y019189D02*
D03*
X035091Y018689D02*
D03*
X034841Y018189D02*
D03*
X035091Y017689D02*
D03*
X034841Y017189D02*
D03*
X035091Y016689D02*
D03*
X034341Y026189D02*
D03*
X034591Y025689D02*
D03*
X034341Y025189D02*
D03*
X034591Y024689D02*
D03*
X034341Y024189D02*
D03*
X034591Y019689D02*
D03*
X034341Y019189D02*
D03*
X034591Y018689D02*
D03*
X034341Y018189D02*
D03*
X034591Y017689D02*
D03*
X034341Y017189D02*
D03*
X034591Y016689D02*
D03*
X033841Y026189D02*
D03*
X034091Y025689D02*
D03*
X033841Y025189D02*
D03*
X034091Y024689D02*
D03*
X033841Y024189D02*
D03*
Y019189D02*
D03*
X034091Y018689D02*
D03*
X033841Y018189D02*
D03*
X034091Y017689D02*
D03*
X033841Y017189D02*
D03*
X034091Y016689D02*
D03*
X033341Y026189D02*
D03*
X033591Y025689D02*
D03*
X033341Y025189D02*
D03*
X033591Y024689D02*
D03*
X033341Y024189D02*
D03*
Y019189D02*
D03*
X033591Y018689D02*
D03*
X033341Y018189D02*
D03*
X033591Y017689D02*
D03*
X033341Y017189D02*
D03*
X033591Y016689D02*
D03*
X032841Y026189D02*
D03*
X033091Y025689D02*
D03*
X032841Y025189D02*
D03*
X033091Y018689D02*
D03*
X032841Y018189D02*
D03*
X033091Y017689D02*
D03*
X032841Y017189D02*
D03*
X033091Y016689D02*
D03*
X032341Y026189D02*
D03*
X032591Y025689D02*
D03*
X032341Y018189D02*
D03*
X032591Y017689D02*
D03*
X032341Y017189D02*
D03*
X032591Y016689D02*
D03*
X031841Y026189D02*
D03*
X032091Y025689D02*
D03*
Y017689D02*
D03*
X031841Y017189D02*
D03*
X032091Y016689D02*
D03*
X031341Y026189D02*
D03*
X031591Y025689D02*
D03*
X031341Y025189D02*
D03*
Y017189D02*
D03*
X031591Y016689D02*
D03*
X030841Y026189D02*
D03*
X031091Y025689D02*
D03*
X030841Y025189D02*
D03*
X031091Y016689D02*
D03*
X030341Y026189D02*
D03*
X030591Y025689D02*
D03*
X030341Y025189D02*
D03*
X030591Y024689D02*
D03*
X029841Y026189D02*
D03*
X030091Y025689D02*
D03*
X029841Y025189D02*
D03*
X030091Y024689D02*
D03*
X029341Y026189D02*
D03*
X029591Y025689D02*
D03*
X029341Y025189D02*
D03*
X029591Y024689D02*
D03*
X028841Y026189D02*
D03*
X029091Y025689D02*
D03*
X028841Y025189D02*
D03*
X029091Y024689D02*
D03*
X028341Y026189D02*
D03*
X028591Y025689D02*
D03*
X027841Y026189D02*
D03*
Y019189D02*
D03*
X027341Y026189D02*
D03*
X026841D02*
D03*
X024591Y017689D02*
D03*
X024091D02*
D03*
X023591D02*
D03*
X022841Y017189D02*
D03*
X023091Y016689D02*
D03*
X022341Y017189D02*
D03*
X022591Y016689D02*
D03*
X021841Y018189D02*
D03*
X022091Y017689D02*
D03*
X021841Y017189D02*
D03*
X022091Y016689D02*
D03*
X021591Y018689D02*
D03*
X021341Y018189D02*
D03*
X021591Y017689D02*
D03*
X021341Y017189D02*
D03*
X021591Y016689D02*
D03*
X021091Y017689D02*
D03*
Y016689D02*
D03*
X033941Y023139D02*
D03*
X034693Y022079D02*
D03*
X035006Y022213D02*
D03*
X034915Y022814D02*
D03*
X034802Y023135D02*
D03*
X033569Y02269D02*
D03*
X033229Y02268D02*
D03*
X033091Y021689D02*
D03*
X032691Y023339D02*
D03*
X031141Y023689D02*
D03*
X032441Y023339D02*
D03*
X030441Y021289D02*
D03*
X030091Y022439D02*
D03*
Y021239D02*
D03*
X030391Y022389D02*
D03*
X031141Y018589D02*
D03*
X032057Y021089D02*
D03*
X030241Y020289D02*
D03*
X026341Y020009D02*
D03*
X030291Y020039D02*
D03*
X030041Y020139D02*
D03*
X027741Y020339D02*
D03*
X027841Y022839D02*
D03*
X027591D02*
D03*
Y022589D02*
D03*
X027841D02*
D03*
X028891Y021989D02*
D03*
X025091Y018989D02*
D03*
X029541Y016889D02*
D03*
X030041Y017339D02*
D03*
X029121Y018188D02*
D03*
X028141Y017039D02*
D03*
X024391Y024089D02*
D03*
Y023839D02*
D03*
X022441Y021589D02*
D03*
X022465Y022363D02*
D03*
X025641Y022189D02*
D03*
X025391Y021039D02*
D03*
X025041Y021339D02*
D03*
X024591Y021489D02*
D03*
X025991Y021839D02*
D03*
X025091Y022389D02*
D03*
X024591D02*
D03*
X026841Y020539D02*
D03*
X024241Y021089D02*
D03*
Y020789D02*
D03*
X023841Y019489D02*
D03*
X021141Y019089D02*
D03*
X021671Y019889D02*
D03*
Y020139D02*
D03*
X022591Y020739D02*
D03*
Y020489D02*
D03*
X024591Y019889D02*
D03*
X024291D02*
D03*
X021891D02*
D03*
Y020139D02*
D03*
X023791Y026589D02*
D03*
X024041D02*
D03*
X025041Y018589D02*
D03*
X025967Y018583D02*
D03*
X022191Y024939D02*
D03*
X023791Y026339D02*
D03*
X024041D02*
D03*
X022191Y024589D02*
D03*
X022591Y023239D02*
D03*
Y023489D02*
D03*
X022241Y020489D02*
D03*
Y020739D02*
D03*
Y023239D02*
D03*
Y023489D02*
D03*
X018637Y012748D02*
D03*
X004337Y006248D02*
D03*
X004887Y014648D02*
D03*
X011637Y005048D02*
D03*
X014737Y005298D02*
D03*
X014087Y004748D02*
D03*
X011987Y004598D02*
D03*
X013887Y004248D02*
D03*
X010487Y009848D02*
D03*
X009387D02*
D03*
X011037Y005048D02*
D03*
X017187Y007748D02*
D03*
Y008198D02*
D03*
X017737D02*
D03*
X018437D02*
D03*
X018487Y010898D02*
D03*
Y011398D02*
D03*
X018587Y009598D02*
D03*
X017737Y007748D02*
D03*
X018437D02*
D03*
X017237Y007248D02*
D03*
X015187Y006248D02*
D03*
X015887Y006298D02*
D03*
X011637Y012698D02*
D03*
X010587Y013198D02*
D03*
X011387D02*
D03*
X009837Y014148D02*
D03*
X009737Y014648D02*
D03*
X010537Y014698D02*
D03*
X010637Y014198D02*
D03*
X011187Y014698D02*
D03*
X011437Y014248D02*
D03*
X012137D02*
D03*
X011887Y014648D02*
D03*
X012737Y014798D02*
D03*
X012887Y014298D02*
D03*
X013787D02*
D03*
X013387Y014748D02*
D03*
X014337Y014698D02*
D03*
Y014248D02*
D03*
X015087D02*
D03*
X014987Y014698D02*
D03*
X004187Y014648D02*
D03*
Y013998D02*
D03*
Y013498D02*
D03*
Y012798D02*
D03*
X008687Y005548D02*
D03*
X010087Y004198D02*
D03*
X009087Y004148D02*
D03*
X008037D02*
D03*
X007287D02*
D03*
X016237Y012098D02*
D03*
X016987Y011298D02*
D03*
X016637Y010948D02*
D03*
X016087Y011448D02*
D03*
X015787Y012698D02*
D03*
X015237D02*
D03*
X015687Y014748D02*
D03*
Y014198D02*
D03*
X016287D02*
D03*
X016337Y014698D02*
D03*
X016887D02*
D03*
Y014198D02*
D03*
X017487D02*
D03*
Y014698D02*
D03*
X018037Y014198D02*
D03*
X018487D02*
D03*
X017987Y014698D02*
D03*
X018487D02*
D03*
X018187Y013748D02*
D03*
X018437Y013248D02*
D03*
X018187Y012748D02*
D03*
X018437Y012248D02*
D03*
X018187Y011748D02*
D03*
X018437Y007248D02*
D03*
X018187Y006748D02*
D03*
X018437Y006248D02*
D03*
X018187Y005748D02*
D03*
X018437Y005248D02*
D03*
X018187Y004748D02*
D03*
X018437Y004248D02*
D03*
X017687Y013748D02*
D03*
X017937Y013248D02*
D03*
X017687Y012748D02*
D03*
X017937Y012248D02*
D03*
X017687Y011748D02*
D03*
X017937Y007248D02*
D03*
X017687Y006748D02*
D03*
X017937Y006248D02*
D03*
X017687Y005748D02*
D03*
X017937Y005248D02*
D03*
X017687Y004748D02*
D03*
X017937Y004248D02*
D03*
X017187Y013748D02*
D03*
X017437Y013248D02*
D03*
X017187Y012748D02*
D03*
X017437Y012248D02*
D03*
X017187Y011748D02*
D03*
Y006748D02*
D03*
X017437Y006248D02*
D03*
X017187Y005748D02*
D03*
X017437Y005248D02*
D03*
X017187Y004748D02*
D03*
X017437Y004248D02*
D03*
X016687Y013748D02*
D03*
X016937Y013248D02*
D03*
X016687Y012748D02*
D03*
X016937Y012248D02*
D03*
X016687Y011748D02*
D03*
Y006748D02*
D03*
X016937Y006248D02*
D03*
X016687Y005748D02*
D03*
X016937Y005248D02*
D03*
X016687Y004748D02*
D03*
X016937Y004248D02*
D03*
X016187Y013748D02*
D03*
X016437Y013248D02*
D03*
X016187Y012748D02*
D03*
X016437Y006248D02*
D03*
X016187Y005748D02*
D03*
X016437Y005248D02*
D03*
X016187Y004748D02*
D03*
X016437Y004248D02*
D03*
X015687Y013748D02*
D03*
X015937Y013248D02*
D03*
X015687Y005748D02*
D03*
X015937Y005248D02*
D03*
X015687Y004748D02*
D03*
X015937Y004248D02*
D03*
X015187Y013748D02*
D03*
X015437Y013248D02*
D03*
Y005248D02*
D03*
X015187Y004748D02*
D03*
X015437Y004248D02*
D03*
X014687Y013748D02*
D03*
X014937Y013248D02*
D03*
X014687Y012748D02*
D03*
Y004748D02*
D03*
X014937Y004248D02*
D03*
X014187Y013748D02*
D03*
X014437Y013248D02*
D03*
X014187Y012748D02*
D03*
X014437Y004248D02*
D03*
X013687Y013748D02*
D03*
X013937Y013248D02*
D03*
X013687Y012748D02*
D03*
X013937Y012248D02*
D03*
X013187Y013748D02*
D03*
X013437Y013248D02*
D03*
X013187Y012748D02*
D03*
X013437Y012248D02*
D03*
X012687Y013748D02*
D03*
X012937Y013248D02*
D03*
X012687Y012748D02*
D03*
X012937Y012248D02*
D03*
X012187Y013748D02*
D03*
X012437Y013248D02*
D03*
X012187Y012748D02*
D03*
X012437Y012248D02*
D03*
X011687Y013748D02*
D03*
X011937Y013248D02*
D03*
X011187Y013748D02*
D03*
Y006748D02*
D03*
X010687Y013748D02*
D03*
X010187D02*
D03*
X007937Y005248D02*
D03*
X007437D02*
D03*
X006937D02*
D03*
X006187Y004748D02*
D03*
X006437Y004248D02*
D03*
X005687Y004748D02*
D03*
X005937Y004248D02*
D03*
X005187Y005748D02*
D03*
X005437Y005248D02*
D03*
X005187Y004748D02*
D03*
X005437Y004248D02*
D03*
X004937Y006248D02*
D03*
X004687Y005748D02*
D03*
X004937Y005248D02*
D03*
X004687Y004748D02*
D03*
X004937Y004248D02*
D03*
X004437Y005248D02*
D03*
Y004248D02*
D03*
X017287Y010698D02*
D03*
X018039Y009638D02*
D03*
X018352Y009772D02*
D03*
X018262Y010373D02*
D03*
X018149Y010694D02*
D03*
X016915Y010249D02*
D03*
X016575Y010239D02*
D03*
X016437Y009248D02*
D03*
X016037Y010898D02*
D03*
X014487Y011248D02*
D03*
X015787Y010898D02*
D03*
X013787Y008848D02*
D03*
X013437Y009998D02*
D03*
Y008798D02*
D03*
X013737Y009948D02*
D03*
X014487Y006148D02*
D03*
X015404Y008648D02*
D03*
X013587Y007848D02*
D03*
X009687Y007568D02*
D03*
X013637Y007598D02*
D03*
X013387Y007698D02*
D03*
X011087Y007898D02*
D03*
X011187Y010398D02*
D03*
X010937D02*
D03*
Y010148D02*
D03*
X011187D02*
D03*
X012237Y009548D02*
D03*
X008437Y006548D02*
D03*
X012887Y004448D02*
D03*
X013387Y004898D02*
D03*
X012467Y005747D02*
D03*
X011487Y004598D02*
D03*
X007737Y011648D02*
D03*
Y011398D02*
D03*
X005787Y009148D02*
D03*
X005811Y009922D02*
D03*
X008987Y009748D02*
D03*
X008737Y008598D02*
D03*
X008387Y008898D02*
D03*
X007937Y009048D02*
D03*
X009337Y009398D02*
D03*
X008437Y009948D02*
D03*
X007937D02*
D03*
X010187Y008098D02*
D03*
X007587Y008648D02*
D03*
Y008348D02*
D03*
X007187Y007048D02*
D03*
X004487Y006648D02*
D03*
X005017Y007448D02*
D03*
Y007698D02*
D03*
X005937Y008298D02*
D03*
Y008048D02*
D03*
X007937Y007448D02*
D03*
X007637D02*
D03*
X005237D02*
D03*
Y007698D02*
D03*
X007137Y014148D02*
D03*
X007387D02*
D03*
X008387Y006148D02*
D03*
X009314Y006142D02*
D03*
X005537Y012498D02*
D03*
X007137Y013898D02*
D03*
X007387D02*
D03*
X005537Y012148D02*
D03*
X005937Y010798D02*
D03*
Y011048D02*
D03*
X005587Y008048D02*
D03*
Y008298D02*
D03*
Y010798D02*
D03*
Y011048D02*
D03*
X02026Y023941D02*
D03*
X01496Y021991D02*
D03*
Y022541D02*
D03*
X01536Y022291D02*
D03*
Y021891D02*
D03*
X01586D02*
D03*
Y022291D02*
D03*
X01656Y022341D02*
D03*
Y021841D02*
D03*
X01386Y026441D02*
D03*
X01381Y027191D02*
D03*
X00561Y022091D02*
D03*
X00491D02*
D03*
X00421Y022141D02*
D03*
X01791Y023791D02*
D03*
X01691Y024379D02*
D03*
X01641Y02454D02*
D03*
Y024841D02*
D03*
X016494Y02413D02*
D03*
X01861Y024591D02*
D03*
Y024141D02*
D03*
X00926Y025191D02*
D03*
X01096Y024041D02*
D03*
X00991Y023441D02*
D03*
X01071Y023841D02*
D03*
X01001Y025191D02*
D03*
X01866Y024891D02*
D03*
X01821Y026291D02*
D03*
X00881Y021541D02*
D03*
X00786D02*
D03*
X00686D02*
D03*
X00591D02*
D03*
X00496D02*
D03*
X00416D02*
D03*
X01201Y026741D02*
D03*
X01121Y027191D02*
D03*
X01201D02*
D03*
X01486Y021491D02*
D03*
X01536D02*
D03*
X01591D02*
D03*
X01656D02*
D03*
X01721D02*
D03*
X02021Y027191D02*
D03*
X01956D02*
D03*
X01886D02*
D03*
X01821D02*
D03*
X01756D02*
D03*
X02026Y023391D02*
D03*
Y022791D02*
D03*
Y022241D02*
D03*
Y021691D02*
D03*
X01981Y021491D02*
D03*
X01911D02*
D03*
X01851D02*
D03*
X01776D02*
D03*
X01721Y021791D02*
D03*
Y022391D02*
D03*
Y023091D02*
D03*
Y023741D02*
D03*
X01691Y025991D02*
D03*
Y026591D02*
D03*
Y027191D02*
D03*
X01641Y026141D02*
D03*
X01486Y026741D02*
D03*
X01286Y025741D02*
D03*
X01581Y024191D02*
D03*
X01491Y022891D02*
D03*
X014578Y022904D02*
D03*
X00936Y022891D02*
D03*
X01411Y023791D02*
D03*
Y023391D02*
D03*
X01431Y023591D02*
D03*
X01391D02*
D03*
X01196Y024891D02*
D03*
X01296Y023241D02*
D03*
X01391Y024541D02*
D03*
X01421Y024491D02*
D03*
X00806Y023841D02*
D03*
X00811Y023291D02*
D03*
X014122Y025478D02*
D03*
X01381Y025441D02*
D03*
X01191Y026491D02*
D03*
X01166Y026741D02*
D03*
X01071Y023241D02*
D03*
X00851Y026641D02*
D03*
Y026291D02*
D03*
Y025841D02*
D03*
Y025441D02*
D03*
X00591Y022341D02*
D03*
X00971Y022541D02*
D03*
X01456Y021691D02*
D03*
X01186Y021491D02*
D03*
X01181Y022241D02*
D03*
X01121Y023091D02*
D03*
X01161Y023491D02*
D03*
X01016Y022241D02*
D03*
X00911D02*
D03*
X01211Y023891D02*
D03*
X01241Y022691D02*
D03*
X01216Y022441D02*
D03*
X01271Y022941D02*
D03*
X00691Y024041D02*
D03*
X00771Y025091D02*
D03*
X00571Y023891D02*
D03*
Y024691D02*
D03*
X00556Y022791D02*
D03*
Y023041D02*
D03*
X00591Y022791D02*
D03*
Y023041D02*
D03*
X00486Y026491D02*
D03*
X00556Y025791D02*
D03*
Y025541D02*
D03*
X00686Y026691D02*
D03*
X00591Y025541D02*
D03*
Y025791D02*
D03*
X004294Y027041D02*
D03*
X021984Y007398D02*
D03*
X027284Y009348D02*
D03*
Y008798D02*
D03*
X026884Y009048D02*
D03*
Y009448D02*
D03*
X026384D02*
D03*
Y009048D02*
D03*
X025684Y008998D02*
D03*
Y009498D02*
D03*
X028384Y004898D02*
D03*
X028434Y004148D02*
D03*
X036634Y009248D02*
D03*
X037334D02*
D03*
X038034Y009198D02*
D03*
X024334Y007548D02*
D03*
X025334Y00696D02*
D03*
X025834Y006798D02*
D03*
Y006498D02*
D03*
X02575Y007208D02*
D03*
X023634Y006748D02*
D03*
Y007198D02*
D03*
X032984Y006148D02*
D03*
X031284Y007298D02*
D03*
X032334Y007898D02*
D03*
X031534Y007498D02*
D03*
X032234Y006148D02*
D03*
X023584Y006448D02*
D03*
X024034Y005048D02*
D03*
X033434Y009798D02*
D03*
X034384D02*
D03*
X035384D02*
D03*
X036334D02*
D03*
X037284D02*
D03*
X038084D02*
D03*
X030234Y004598D02*
D03*
X031034Y004148D02*
D03*
X030234D02*
D03*
X027384Y009848D02*
D03*
X026884D02*
D03*
X026334D02*
D03*
X025684D02*
D03*
X025034D02*
D03*
X022034Y004148D02*
D03*
X022684D02*
D03*
X023384D02*
D03*
X024034D02*
D03*
X024684D02*
D03*
X021984Y007948D02*
D03*
Y008548D02*
D03*
Y009098D02*
D03*
Y009648D02*
D03*
X022434Y009848D02*
D03*
X023134D02*
D03*
X023734D02*
D03*
X024484D02*
D03*
X025034Y009548D02*
D03*
Y008948D02*
D03*
Y008248D02*
D03*
Y007598D02*
D03*
X025334Y005348D02*
D03*
Y004748D02*
D03*
Y004148D02*
D03*
X025834Y005198D02*
D03*
X027384Y004598D02*
D03*
X029384Y005598D02*
D03*
X026434Y007148D02*
D03*
X027334Y008448D02*
D03*
X027666Y008434D02*
D03*
X032884Y008448D02*
D03*
X028134Y007548D02*
D03*
Y007948D02*
D03*
X027934Y007748D02*
D03*
X028334D02*
D03*
X030284Y006448D02*
D03*
X029284Y008098D02*
D03*
X028334Y006798D02*
D03*
X028034Y006848D02*
D03*
X034184Y007498D02*
D03*
X034134Y008048D02*
D03*
X028122Y00586D02*
D03*
X028434Y005898D02*
D03*
X030334Y004848D02*
D03*
X030584Y004598D02*
D03*
X031534Y008098D02*
D03*
X033734Y004698D02*
D03*
Y005048D02*
D03*
Y005498D02*
D03*
Y005898D02*
D03*
X036334Y008998D02*
D03*
X032534Y008798D02*
D03*
X027684Y009648D02*
D03*
X030384Y009848D02*
D03*
X030434Y009098D02*
D03*
X031034Y008248D02*
D03*
X030634Y007848D02*
D03*
X032084Y009098D02*
D03*
X033134D02*
D03*
X030134Y007448D02*
D03*
X029834Y008648D02*
D03*
X030084Y008898D02*
D03*
X029534Y008398D02*
D03*
X035334Y007298D02*
D03*
X034534Y006248D02*
D03*
X036534Y007448D02*
D03*
Y006648D02*
D03*
X036684Y008548D02*
D03*
Y008298D02*
D03*
X036334Y008548D02*
D03*
Y008298D02*
D03*
X037384Y004848D02*
D03*
X036684Y005548D02*
D03*
Y005798D02*
D03*
X035384Y004648D02*
D03*
X036334Y005798D02*
D03*
Y005548D02*
D03*
X03795Y004298D02*
D03*
X007983Y016993D02*
D03*
X01996Y01907D02*
D03*
X01626Y01857D02*
D03*
X01416Y01837D02*
D03*
X017929Y019353D02*
D03*
X017278Y01884D02*
D03*
X018107Y018798D02*
D03*
X018878Y018492D02*
D03*
X019484Y019059D02*
D03*
X019Y019734D02*
D03*
X01661Y01617D02*
D03*
X01721Y01672D02*
D03*
X01751Y01722D02*
D03*
X015311Y020769D02*
D03*
X01711Y01992D02*
D03*
X01726Y02047D02*
D03*
X01666Y01992D02*
D03*
Y02047D02*
D03*
Y02097D02*
D03*
X01591Y02002D02*
D03*
X01246Y01807D02*
D03*
X01276Y01777D02*
D03*
X01306Y01747D02*
D03*
X01386Y01722D02*
D03*
Y01752D02*
D03*
X013795Y018408D02*
D03*
X01396Y01907D02*
D03*
X01381Y01937D02*
D03*
X015341Y017651D02*
D03*
X01381Y02017D02*
D03*
X01176Y02097D02*
D03*
X01086D02*
D03*
X01376Y020999D02*
D03*
X01966Y01717D02*
D03*
X01896Y01722D02*
D03*
X01816D02*
D03*
X01966Y01672D02*
D03*
X01896Y01667D02*
D03*
X01791Y01672D02*
D03*
X01961Y01617D02*
D03*
X01896D02*
D03*
X01806D02*
D03*
X01961Y01567D02*
D03*
X01856D02*
D03*
X01721Y01617D02*
D03*
X01776Y01562D02*
D03*
X01691Y01567D02*
D03*
X01601D02*
D03*
X01516D02*
D03*
X01196Y020262D02*
D03*
X01956Y02097D02*
D03*
X015269Y015261D02*
D03*
X01451Y01527D02*
D03*
X01606D02*
D03*
X01671D02*
D03*
X01746D02*
D03*
X01826D02*
D03*
X01896D02*
D03*
X00421Y01602D02*
D03*
X00846Y01527D02*
D03*
X00691D02*
D03*
X00601D02*
D03*
X00506D02*
D03*
X00426D02*
D03*
X01966D02*
D03*
X02026D02*
D03*
Y01567D02*
D03*
Y01622D02*
D03*
Y01672D02*
D03*
Y01722D02*
D03*
Y02097D02*
D03*
X01881D02*
D03*
X01811D02*
D03*
X01741D02*
D03*
X01286Y01927D02*
D03*
X01196Y02002D02*
D03*
X01031Y01897D02*
D03*
X01211Y01827D02*
D03*
X00911Y01897D02*
D03*
X01356Y01602D02*
D03*
Y01622D02*
D03*
X00846Y020495D02*
D03*
Y02017D02*
D03*
X00871Y01667D02*
D03*
X00976Y01637D02*
D03*
X00846Y01707D02*
D03*
X00871D02*
D03*
Y01732D02*
D03*
X00846D02*
D03*
Y01942D02*
D03*
Y01977D02*
D03*
X00861Y01597D02*
D03*
X00551Y01607D02*
D03*
X00981Y01597D02*
D03*
X009525D02*
D03*
X01056Y01752D02*
D03*
X00976Y01722D02*
D03*
X01081Y01682D02*
D03*
X011196Y016759D02*
D03*
X00451Y02002D02*
D03*
X00671Y01772D02*
D03*
X00601Y02037D02*
D03*
X00751Y01887D02*
D03*
X01161Y01607D02*
D03*
Y01722D02*
D03*
X01226Y01762D02*
D03*
X01281Y01712D02*
D03*
X012572Y016682D02*
D03*
X01236Y01647D02*
D03*
X012148Y016258D02*
D03*
X00556Y01932D02*
D03*
X00591D02*
D03*
Y01957D02*
D03*
X00556D02*
D03*
Y01657D02*
D03*
X00591D02*
D03*
Y01682D02*
D03*
X00556D02*
D03*
X00576Y01767D02*
D03*
Y01842D02*
D03*
X034261Y014345D02*
D03*
X022284Y012269D02*
D03*
X025984Y012769D02*
D03*
X028084Y012969D02*
D03*
X024315Y011985D02*
D03*
X024967Y012499D02*
D03*
X024137Y01254D02*
D03*
X023366Y012847D02*
D03*
X02276Y012279D02*
D03*
X023245Y011605D02*
D03*
X025634Y015169D02*
D03*
X025034Y014619D02*
D03*
X024734Y014119D02*
D03*
X026933Y01057D02*
D03*
X025134Y011419D02*
D03*
X024984Y010869D02*
D03*
X025584Y011419D02*
D03*
Y010869D02*
D03*
Y010369D02*
D03*
X026334Y011319D02*
D03*
X029784Y013269D02*
D03*
X029484Y013569D02*
D03*
X029184Y013869D02*
D03*
X028384Y014119D02*
D03*
Y013819D02*
D03*
X028449Y012931D02*
D03*
X028284Y012269D02*
D03*
X028434Y011969D02*
D03*
X026903Y013688D02*
D03*
X028434Y011169D02*
D03*
X030484Y010369D02*
D03*
X031384D02*
D03*
X028484Y01034D02*
D03*
X022584Y014169D02*
D03*
X023284Y014119D02*
D03*
X024084D02*
D03*
X022584Y014619D02*
D03*
X023284Y014669D02*
D03*
X024334Y014619D02*
D03*
X022634Y015169D02*
D03*
X023284D02*
D03*
X024184D02*
D03*
X022634Y015669D02*
D03*
X023684D02*
D03*
X025034Y015169D02*
D03*
X024484Y015719D02*
D03*
X025334Y015669D02*
D03*
X026234D02*
D03*
X027084D02*
D03*
X030284Y011077D02*
D03*
X022684Y010369D02*
D03*
X026975Y016078D02*
D03*
X027734Y016069D02*
D03*
X026184D02*
D03*
X025534D02*
D03*
X024784D02*
D03*
X023984D02*
D03*
X023284D02*
D03*
X038034Y015319D02*
D03*
X033784Y016069D02*
D03*
X035334D02*
D03*
X036234D02*
D03*
X037184D02*
D03*
X037984D02*
D03*
X022584D02*
D03*
X021984D02*
D03*
Y015669D02*
D03*
Y015119D02*
D03*
Y014619D02*
D03*
Y014119D02*
D03*
Y010369D02*
D03*
X023434D02*
D03*
X024134D02*
D03*
X024834D02*
D03*
X029384Y012069D02*
D03*
X030284Y011319D02*
D03*
X031934Y012369D02*
D03*
X030134Y013069D02*
D03*
X033134Y012369D02*
D03*
X028684Y015319D02*
D03*
Y015119D02*
D03*
X033784Y010844D02*
D03*
Y011169D02*
D03*
X033534Y014669D02*
D03*
X032484Y014969D02*
D03*
X033784Y014269D02*
D03*
X033534D02*
D03*
Y014019D02*
D03*
X033784D02*
D03*
Y011919D02*
D03*
Y011569D02*
D03*
X033634Y015369D02*
D03*
X036734Y015269D02*
D03*
X032434Y015369D02*
D03*
X032719D02*
D03*
X031684Y013819D02*
D03*
X032484Y014119D02*
D03*
X031434Y014519D02*
D03*
X031048Y01458D02*
D03*
X037734Y011319D02*
D03*
X035534Y013619D02*
D03*
X036234Y010969D02*
D03*
X034734Y012469D02*
D03*
X030634Y015269D02*
D03*
Y014119D02*
D03*
X029984Y013719D02*
D03*
X029434Y014219D02*
D03*
X029672Y014656D02*
D03*
X029884Y014869D02*
D03*
X030096Y015081D02*
D03*
X036684Y012019D02*
D03*
X036334D02*
D03*
Y011769D02*
D03*
X036684D02*
D03*
Y014769D02*
D03*
X036334D02*
D03*
Y014519D02*
D03*
X036684D02*
D03*
X036484Y013669D02*
D03*
Y012919D02*
D03*
D66*
X017876Y020104D02*
D03*
X019844D02*
D03*
Y018136D02*
D03*
X017876D02*
D03*
X024368Y011234D02*
D03*
X0224D02*
D03*
Y013203D02*
D03*
X024368D02*
D03*
D67*
X01886Y01912D02*
D03*
X023384Y012219D02*
D03*
D68*
X021545Y025789D02*
D03*
X022136D02*
D03*
X004892Y013348D02*
D03*
X005482D02*
D03*
X005415Y027041D02*
D03*
X006005D02*
D03*
X036829Y004298D02*
D03*
X036239D02*
D03*
X006005Y02082D02*
D03*
X005415D02*
D03*
X036239Y010519D02*
D03*
X036829D02*
D03*
D69*
X029441Y023634D02*
D03*
Y023044D02*
D03*
X029684Y004353D02*
D03*
Y004943D02*
D03*
X029834Y011214D02*
D03*
Y010623D02*
D03*
D70*
X022409Y023367D02*
D03*
Y020611D02*
D03*
Y022383D02*
D03*
Y021595D02*
D03*
X005756Y010926D02*
D03*
Y00817D02*
D03*
Y009942D02*
D03*
Y009154D02*
D03*
X005729Y025668D02*
D03*
Y022913D02*
D03*
Y024684D02*
D03*
Y023897D02*
D03*
X036515Y00567D02*
D03*
Y008426D02*
D03*
Y006654D02*
D03*
Y007442D02*
D03*
X005729Y017676D02*
D03*
Y018464D02*
D03*
Y016692D02*
D03*
Y019448D02*
D03*
X036515Y013662D02*
D03*
Y012875D02*
D03*
Y014646D02*
D03*
Y011891D02*
D03*
D71*
X012787Y011193D02*
D03*
Y010603D02*
D03*
X01256Y026986D02*
D03*
Y026395D02*
D03*
X01241Y020125D02*
D03*
Y020715D02*
D03*
M02*
