G04*
G04 #@! TF.GenerationSoftware,Altium Limited,Altium Designer,22.10.1 (41)*
G04*
G04 Layer_Physical_Order=4*
G04 Layer_Color=16711680*
%FSTAX24Y24*%
%MOIN*%
G70*
G04*
G04 #@! TF.SameCoordinates,87BD3A09-32BE-4FA1-A735-6A54E07DCED2*
G04*
G04*
G04 #@! TF.FilePolarity,Positive*
G04*
G01*
G75*
%ADD29R,0.0335X0.0374*%
%ADD30R,0.0374X0.0335*%
G04:AMPARAMS|DCode=33|XSize=23.6mil|YSize=29.5mil|CornerRadius=0mil|HoleSize=0mil|Usage=FLASHONLY|Rotation=315.000|XOffset=0mil|YOffset=0mil|HoleType=Round|Shape=Rectangle|*
%AMROTATEDRECTD33*
4,1,4,-0.0188,-0.0021,0.0021,0.0188,0.0188,0.0021,-0.0021,-0.0188,-0.0188,-0.0021,0.0*
%
%ADD33ROTATEDRECTD33*%

%ADD36C,0.1004*%
%ADD37C,0.0886*%
%ADD38C,0.1102*%
%ADD39R,0.0594X0.0594*%
%ADD40C,0.0594*%
%ADD41C,0.0100*%
%ADD43C,0.0150*%
%ADD44C,0.0200*%
%ADD46C,0.0300*%
%ADD47C,0.0118*%
%ADD48C,0.0240*%
%ADD49R,0.0484X0.0709*%
%ADD50R,0.0315X0.0315*%
%ADD51R,0.0315X0.0315*%
G04:AMPARAMS|DCode=52|XSize=23.6mil|YSize=74.8mil|CornerRadius=0mil|HoleSize=0mil|Usage=FLASHONLY|Rotation=45.000|XOffset=0mil|YOffset=0mil|HoleType=Round|Shape=Rectangle|*
%AMROTATEDRECTD52*
4,1,4,0.0181,-0.0348,-0.0348,0.0181,-0.0181,0.0348,0.0348,-0.0181,0.0181,-0.0348,0.0*
%
%ADD52ROTATEDRECTD52*%

G04:AMPARAMS|DCode=53|XSize=15.7mil|YSize=74.8mil|CornerRadius=0mil|HoleSize=0mil|Usage=FLASHONLY|Rotation=45.000|XOffset=0mil|YOffset=0mil|HoleType=Round|Shape=Rectangle|*
%AMROTATEDRECTD53*
4,1,4,0.0209,-0.0320,-0.0320,0.0209,-0.0209,0.0320,0.0320,-0.0209,0.0209,-0.0320,0.0*
%
%ADD53ROTATEDRECTD53*%

%ADD54R,0.0236X0.0520*%
%ADD55R,0.0669X0.0512*%
G36*
X022949Y005322D02*
X00654D01*
Y011298D01*
X008583D01*
X008602Y011252D01*
X008568Y011217D01*
X008328D01*
Y010783D01*
X008722D01*
X008755Y010733D01*
X008751Y010723D01*
X008635D01*
X008635Y010723D01*
X008613Y010719D01*
X008586Y01073D01*
X008514D01*
X008448Y010703D01*
X008397Y010652D01*
X00837Y010586D01*
Y010514D01*
X008397Y010448D01*
X008448Y010397D01*
X008514Y01037D01*
X008586D01*
X008652Y010397D01*
X008703Y010448D01*
X008716Y010481D01*
X008917D01*
X008917Y010481D01*
X008928Y010483D01*
X009154D01*
Y011065D01*
X009467D01*
X009543Y010989D01*
Y010899D01*
X009526Y010873D01*
X00951Y010791D01*
X009526Y010709D01*
X009546Y01068D01*
Y010483D01*
X009902D01*
Y010545D01*
X010148D01*
Y010301D01*
X010449D01*
X010786Y009965D01*
Y0096D01*
X010802Y009518D01*
X010849Y009449D01*
X010918Y009402D01*
X011Y009386D01*
X011082Y009402D01*
X011151Y009449D01*
X011198Y009518D01*
X011214Y0096D01*
Y010054D01*
Y010675D01*
X011198Y010757D01*
X011151Y010826D01*
X011082Y010872D01*
X011Y010889D01*
X010918Y010872D01*
X010849Y010826D01*
X010802Y010757D01*
X010802Y010756D01*
X010752Y010761D01*
Y01113D01*
X010148D01*
Y010973D01*
X009902D01*
Y011123D01*
X009792D01*
X009778Y011143D01*
X00967Y011252D01*
X009689Y011298D01*
X022949D01*
Y005322D01*
D02*
G37*
%LPC*%
G36*
X015847Y011133D02*
X015353D01*
Y011018D01*
X015167D01*
Y011113D01*
X014733D01*
Y010678D01*
X015167D01*
Y010794D01*
X015353D01*
Y010679D01*
X015847D01*
Y011133D01*
D02*
G37*
G36*
X007533Y011247D02*
X007079D01*
Y010753D01*
X007533D01*
Y010837D01*
X007737D01*
Y010783D01*
X008172D01*
Y011217D01*
X007737D01*
Y011163D01*
X007533D01*
Y011247D01*
D02*
G37*
G36*
X017887Y011129D02*
X017815D01*
X017749Y011102D01*
X017698Y011051D01*
X017671Y010985D01*
Y010913D01*
X017698Y010847D01*
X017749Y010796D01*
X017815Y010769D01*
X017887D01*
X017953Y010796D01*
X018004Y010847D01*
X018031Y010913D01*
Y010985D01*
X018004Y011051D01*
X017953Y011102D01*
X017887Y011129D01*
D02*
G37*
G36*
X011697Y011157D02*
X011603D01*
X011512Y011133D01*
X011431Y011086D01*
X011364Y011019D01*
X011317Y010938D01*
X011293Y010847D01*
Y010753D01*
X011317Y010662D01*
X011364Y010581D01*
X011431Y010514D01*
X011512Y010467D01*
X011603Y010443D01*
X011697D01*
X011788Y010467D01*
X011869Y010514D01*
X011936Y010581D01*
X011983Y010662D01*
X012007Y010753D01*
Y010847D01*
X011983Y010938D01*
X011936Y011019D01*
X011869Y011086D01*
X011788Y011133D01*
X011697Y011157D01*
D02*
G37*
G36*
X018486Y01038D02*
X018414D01*
X018348Y010353D01*
X018297Y010302D01*
X01827Y010236D01*
Y010164D01*
X018297Y010098D01*
X018348Y010047D01*
X018414Y01002D01*
X018486D01*
X018552Y010047D01*
X018603Y010098D01*
X01863Y010164D01*
Y010236D01*
X018603Y010302D01*
X018552Y010353D01*
X018486Y01038D01*
D02*
G37*
G36*
X014536Y010622D02*
X014464D01*
X014398Y010594D01*
X014347Y010544D01*
X01432Y010477D01*
Y010406D01*
X014337Y010365D01*
Y010277D01*
X01432Y010236D01*
Y010164D01*
X014347Y010098D01*
X014398Y010047D01*
X014464Y01002D01*
X014536D01*
X014602Y010047D01*
X014639Y010084D01*
X014893D01*
X014908Y010087D01*
X015167D01*
Y010522D01*
X014733D01*
Y01041D01*
X01468D01*
Y010477D01*
X014653Y010544D01*
X014602Y010594D01*
X014536Y010622D01*
D02*
G37*
G36*
X009902Y010217D02*
X009546D01*
Y009895D01*
X009543Y009879D01*
Y009623D01*
X009482Y009563D01*
X009179D01*
X009157Y009585D01*
Y009879D01*
X009154Y009895D01*
Y010217D01*
X008798D01*
Y009864D01*
X008664D01*
Y009944D01*
X007874D01*
Y009528D01*
X007826Y009514D01*
X007818Y009525D01*
X007733Y009611D01*
X007633Y009677D01*
X007522Y009724D01*
X007404Y009747D01*
X007284D01*
X007165Y009724D01*
X007054Y009677D01*
X006954Y009611D01*
X006869Y009525D01*
X006802Y009425D01*
X006756Y009314D01*
X006733Y009196D01*
Y009076D01*
X006756Y008958D01*
X006802Y008846D01*
X006869Y008746D01*
X006954Y008661D01*
X007054Y008594D01*
X007165Y008548D01*
X007284Y008525D01*
X007404D01*
X007522Y008548D01*
X007633Y008594D01*
X007733Y008661D01*
X007818Y008746D01*
X007826Y008758D01*
X007874Y008744D01*
Y008328D01*
X008664D01*
Y00896D01*
X007971D01*
X00794Y008998D01*
X007955Y009076D01*
Y009196D01*
X00794Y009273D01*
X007971Y009312D01*
X008664D01*
Y009436D01*
X00885D01*
X008855Y009437D01*
X008879Y009402D01*
X008996Y009285D01*
X009049Y009249D01*
X009111Y009237D01*
X00955D01*
X009612Y009249D01*
X009665Y009285D01*
X009821Y009441D01*
X009857Y009493D01*
X009869Y009556D01*
Y009577D01*
X009902D01*
Y010217D01*
D02*
G37*
G36*
X015847Y010621D02*
X015353D01*
Y010306D01*
X015321Y010273D01*
X015296Y010237D01*
X015288Y010194D01*
X015288Y010194D01*
Y009593D01*
X015247Y009552D01*
X01522Y009486D01*
Y009414D01*
X015247Y009348D01*
X015298Y009297D01*
X015364Y00927D01*
X015436D01*
X015502Y009297D01*
X015553Y009348D01*
X01558Y009414D01*
Y009486D01*
X015553Y009552D01*
X015512Y009593D01*
Y010148D01*
X015531Y010167D01*
X015847D01*
Y010621D01*
D02*
G37*
G36*
X021466Y009803D02*
X021334D01*
X021206Y009769D01*
X021091Y009702D01*
X020998Y009609D01*
X020931Y009494D01*
X020897Y009366D01*
Y009234D01*
X020931Y009106D01*
X020998Y008991D01*
X021091Y008898D01*
X021206Y008831D01*
X021334Y008797D01*
X021466D01*
X021594Y008831D01*
X021709Y008898D01*
X021802Y008991D01*
X021869Y009106D01*
X021903Y009234D01*
Y009366D01*
X021869Y009494D01*
X021802Y009609D01*
X021709Y009702D01*
X021594Y009769D01*
X021466Y009803D01*
D02*
G37*
G36*
X016536Y00943D02*
X016464D01*
X016398Y009403D01*
X016347Y009352D01*
X01632Y009286D01*
Y009214D01*
X016347Y009148D01*
X016388Y009107D01*
Y008837D01*
X016319Y008768D01*
X016299D01*
X016233Y008741D01*
X016183Y00869D01*
X016155Y008624D01*
Y008552D01*
X016183Y008486D01*
X016233Y008435D01*
X016299Y008408D01*
X016371D01*
X016437Y008435D01*
X016488Y008486D01*
X016515Y008552D01*
Y008624D01*
X016508Y00864D01*
X016579Y008711D01*
X016604Y008748D01*
X016612Y008791D01*
X016612Y008791D01*
Y009107D01*
X016653Y009148D01*
X01668Y009214D01*
Y009286D01*
X016653Y009352D01*
X016602Y009403D01*
X016536Y00943D01*
D02*
G37*
G36*
X008664Y008172D02*
X007874D01*
Y007756D01*
X007826Y007742D01*
X007818Y007754D01*
X007733Y007839D01*
X007633Y007906D01*
X007522Y007952D01*
X007404Y007975D01*
X007284D01*
X007165Y007952D01*
X007054Y007906D01*
X006954Y007839D01*
X006869Y007754D01*
X006802Y007654D01*
X006756Y007542D01*
X006733Y007424D01*
Y007304D01*
X006756Y007186D01*
X006802Y007075D01*
X006869Y006975D01*
X006954Y006889D01*
X007054Y006823D01*
X007165Y006776D01*
X007284Y006753D01*
X007404D01*
X007522Y006776D01*
X007633Y006823D01*
X007733Y006889D01*
X007818Y006975D01*
X007885Y007075D01*
X007931Y007186D01*
X007955Y007304D01*
Y007424D01*
X00794Y007502D01*
X007971Y00754D01*
X008664D01*
Y008172D01*
D02*
G37*
G36*
X011286Y00768D02*
X011214D01*
X011148Y007653D01*
X011125Y00763D01*
X011102Y007653D01*
X011036Y00768D01*
X010964D01*
X010898Y007653D01*
X010847Y007602D01*
X01082Y007536D01*
Y007464D01*
X010847Y007398D01*
X01087Y007375D01*
X010847Y007352D01*
X01082Y007286D01*
Y007214D01*
X010847Y007148D01*
X010898Y007097D01*
X010964Y00707D01*
X011036D01*
X011102Y007097D01*
X011125Y00712D01*
X011148Y007097D01*
X011214Y00707D01*
X011286D01*
X011352Y007097D01*
X011403Y007148D01*
X01143Y007214D01*
Y007286D01*
X011403Y007352D01*
X01138Y007375D01*
X011403Y007398D01*
X01143Y007464D01*
Y007536D01*
X011403Y007602D01*
X011352Y007653D01*
X011286Y00768D01*
D02*
G37*
G36*
X014111Y008113D02*
X013817Y007819D01*
X013864Y007772D01*
X013298Y007206D01*
X013273Y00717D01*
X013272Y007163D01*
X013248Y007153D01*
X013197Y007102D01*
X01317Y007036D01*
Y006964D01*
X013197Y006898D01*
X013248Y006847D01*
X013314Y00682D01*
X013386D01*
X013452Y006847D01*
X013503Y006898D01*
X01353Y006964D01*
Y007036D01*
X013505Y007096D01*
X014022Y007614D01*
X014069Y007567D01*
X014363Y007861D01*
X014111Y008113D01*
D02*
G37*
G36*
X012697Y010157D02*
X012603D01*
X012512Y010133D01*
X012431Y010086D01*
X012364Y010019D01*
X012317Y009938D01*
X012293Y009847D01*
Y009753D01*
X012317Y009662D01*
X012364Y009581D01*
X012431Y009514D01*
X012512Y009467D01*
X012603Y009443D01*
X012697D01*
X012788Y009467D01*
X012811Y009481D01*
X012988Y009304D01*
Y007843D01*
X012947Y007802D01*
X01292Y007736D01*
Y007664D01*
X012947Y007598D01*
X012998Y007547D01*
X013064Y00752D01*
X013136D01*
X013202Y007547D01*
X013253Y007598D01*
X01328Y007664D01*
Y007736D01*
X013253Y007802D01*
X013212Y007843D01*
Y00935D01*
X013212Y00935D01*
X013204Y009393D01*
X013179Y009429D01*
X013179Y009429D01*
X012969Y009639D01*
X012983Y009662D01*
X013007Y009753D01*
Y009847D01*
X012983Y009938D01*
X012936Y010019D01*
X012869Y010086D01*
X012788Y010133D01*
X012697Y010157D01*
D02*
G37*
G36*
X016436Y00788D02*
X016364D01*
X016298Y007853D01*
X016247Y007802D01*
X01622Y007736D01*
Y007664D01*
X016247Y007598D01*
X016295Y00755D01*
X016247Y007502D01*
X01622Y007436D01*
Y007364D01*
X016247Y007298D01*
X016298Y007247D01*
X016364Y00722D01*
X016436D01*
X016502Y007247D01*
X016553Y007298D01*
X01658Y007364D01*
Y007436D01*
X016553Y007502D01*
X016505Y00755D01*
X016553Y007598D01*
X01658Y007664D01*
Y007736D01*
X016553Y007802D01*
X016502Y007853D01*
X016436Y00788D01*
D02*
G37*
G36*
X012007Y010157D02*
X011293D01*
Y009443D01*
X011848D01*
X012188Y009104D01*
Y007543D01*
X012147Y007502D01*
X01212Y007436D01*
Y007364D01*
X012147Y007298D01*
X012198Y007247D01*
X012264Y00722D01*
X012336D01*
X012402Y007247D01*
X012453Y007298D01*
X01248Y007364D01*
Y007436D01*
X012453Y007502D01*
X012412Y007543D01*
Y00915D01*
X012412Y00915D01*
X012404Y009193D01*
X012379Y009229D01*
X012379Y009229D01*
X012007Y009602D01*
Y010157D01*
D02*
G37*
G36*
X010559Y007353D02*
X010487D01*
X010421Y007326D01*
X010371Y007275D01*
X010343Y007209D01*
Y007137D01*
X010371Y007071D01*
X010421Y007021D01*
X010487Y006993D01*
X010559D01*
X010625Y007021D01*
X010676Y007071D01*
X010703Y007137D01*
Y007209D01*
X010676Y007275D01*
X010625Y007326D01*
X010559Y007353D01*
D02*
G37*
G36*
X014634Y007697D02*
X014382Y007445D01*
X014932Y006895D01*
Y006826D01*
X01496Y00676D01*
X01501Y00671D01*
X015076Y006682D01*
X015148D01*
X015214Y00671D01*
X015265Y00676D01*
X015292Y006826D01*
Y006898D01*
X015265Y006964D01*
X015232Y006997D01*
X015224Y007061D01*
X015247Y007084D01*
X014634Y007697D01*
D02*
G37*
G36*
X014105Y007168D02*
X013853Y006916D01*
X014466Y006303D01*
X014505Y006342D01*
X014535Y006336D01*
X014586Y006285D01*
X014652Y006258D01*
X014724D01*
X01479Y006285D01*
X01484Y006336D01*
X014868Y006402D01*
Y006474D01*
X01484Y00654D01*
X01479Y00659D01*
X014724Y006618D01*
X014655D01*
X014105Y007168D01*
D02*
G37*
G36*
X016136Y00658D02*
X016064D01*
X015998Y006553D01*
X015947Y006502D01*
X01592Y006436D01*
Y006364D01*
X015947Y0063D01*
X01592Y006236D01*
Y006164D01*
X015947Y006098D01*
X015998Y006047D01*
X016064Y00602D01*
X016136D01*
X016202Y006047D01*
X016253Y006098D01*
X01628Y006164D01*
Y006236D01*
X016253Y0063D01*
X01628Y006364D01*
Y006436D01*
X016253Y006502D01*
X016202Y006553D01*
X016136Y00658D01*
D02*
G37*
G36*
X012336Y00673D02*
X012264D01*
X012198Y006703D01*
X012157Y006662D01*
X01155D01*
X011507Y006654D01*
X011471Y006629D01*
X011471Y006629D01*
X011171Y00633D01*
X011114D01*
X011048Y006303D01*
X010997Y006252D01*
X01097Y006186D01*
Y006114D01*
X010997Y006048D01*
X011033Y006012D01*
X011012Y005962D01*
X010746D01*
X010379Y006329D01*
X010343Y006354D01*
X0103Y006362D01*
X0103Y006362D01*
X008193D01*
X008152Y006403D01*
X008086Y00643D01*
X008014D01*
X007948Y006403D01*
X007897Y006352D01*
X00787Y006286D01*
Y006214D01*
X007897Y006148D01*
X007948Y006097D01*
X008014Y00607D01*
X008086D01*
X008152Y006097D01*
X008193Y006138D01*
X010254D01*
X010621Y005771D01*
X010621Y005771D01*
X010657Y005746D01*
X0107Y005738D01*
X011765D01*
X011765Y005738D01*
X011808Y005746D01*
X011845Y005771D01*
X012044Y00597D01*
X012101D01*
X012167Y005997D01*
X012208Y006038D01*
X012248Y005997D01*
X012314Y00597D01*
X012386D01*
X012452Y005997D01*
X012503Y006048D01*
X01253Y006114D01*
Y006186D01*
X012503Y006252D01*
X012452Y006303D01*
X012386Y00633D01*
X01237D01*
X01236Y00638D01*
X012402Y006397D01*
X012453Y006448D01*
X01248Y006514D01*
Y006586D01*
X012453Y006652D01*
X012402Y006703D01*
X012336Y00673D01*
D02*
G37*
%LPD*%
D29*
X006794Y011D02*
D03*
X007306D02*
D03*
D30*
X0156Y010906D02*
D03*
Y010394D02*
D03*
D33*
X01409Y00784D02*
D03*
X01441Y00816D02*
D03*
D36*
X020416Y010284D02*
D03*
X022384D02*
D03*
Y008316D02*
D03*
X020416D02*
D03*
D37*
X0214Y0093D02*
D03*
D38*
X007344Y007364D02*
D03*
X007344Y009136D02*
D03*
D39*
X01165Y0098D02*
D03*
D40*
Y0108D02*
D03*
X01265Y0098D02*
D03*
Y0108D02*
D03*
D41*
X0188Y00875D02*
Y00875D01*
X017881Y007831D02*
X0188Y00875D01*
X017881Y007811D02*
Y007831D01*
X016537Y008337D02*
Y008349D01*
X0167Y008512D02*
Y00855D01*
X016537Y008349D02*
X0167Y008512D01*
X016479Y008279D02*
X016537Y008337D01*
X01535Y0073D02*
X01565Y0076D01*
X016329Y008279D02*
X016479D01*
X01565Y0076D02*
X016329Y008279D01*
X020443Y00956D02*
X02047Y009533D01*
X020416Y010284D02*
X020443Y010257D01*
Y00956D02*
Y010257D01*
X0177Y00585D02*
Y00763D01*
X017881Y007811D01*
X01465Y00845D02*
X015423Y007677D01*
X015573D02*
X0156Y00765D01*
X015423Y007677D02*
X015573D01*
X0158Y0073D02*
X01725Y00585D01*
X0177D01*
X01535Y0073D02*
X0158D01*
X016335Y008588D02*
Y008626D01*
X0165Y008791D02*
Y00925D01*
X016335Y008626D02*
X0165Y008791D01*
X01635Y00955D02*
Y01035D01*
X014961Y010906D02*
X0156D01*
X01495Y010895D02*
X014961Y010906D01*
X015463Y010277D02*
X01558Y010394D01*
X015463Y010257D02*
Y010277D01*
X0154Y00945D02*
Y010194D01*
X01558Y010394D02*
X0156D01*
X0154Y010194D02*
X015463Y010257D01*
X01265Y0098D02*
X0131Y00935D01*
Y0077D02*
Y00935D01*
X01441Y008185D02*
X01465Y008425D01*
X01441Y00816D02*
Y008185D01*
X01465Y008425D02*
Y00845D01*
X01265Y0108D02*
X01365Y0098D01*
Y00892D02*
Y0098D01*
Y00892D02*
X01441Y00816D01*
X010912Y0069D02*
X010962Y00685D01*
X011944D01*
X01155Y00655D02*
X0123D01*
X008554Y0069D02*
X010912D01*
X01115Y00615D02*
X01155Y00655D01*
X0107Y00585D02*
X011765D01*
X0103Y00625D02*
X0107Y00585D01*
X00805Y00625D02*
X0103D01*
X011765Y00585D02*
X012065Y00615D01*
X00845Y00675D02*
Y006796D01*
X008554Y0069D01*
X011994D02*
X01265D01*
X011944Y00685D02*
X011994Y0069D01*
X01265D02*
X0133Y00625D01*
X01415D01*
X01165Y0098D02*
X0123Y00915D01*
Y0074D02*
Y00915D01*
X01335Y007D02*
X013377Y007027D01*
Y007127D01*
X01409Y00784D01*
X014814Y007173D02*
X014839D01*
X015112Y0069D01*
Y006862D02*
Y0069D01*
X01465Y006438D02*
X014688D01*
X014377Y006711D02*
X01465Y006438D01*
X014377Y006711D02*
Y006736D01*
X014814Y007173D02*
Y007264D01*
X014286Y006736D02*
X014377D01*
D43*
X008748Y011203D02*
X009524D01*
X008545Y011D02*
X008748Y011203D01*
X009524D02*
X009681Y011046D01*
Y010846D02*
Y011046D01*
Y010846D02*
X009724Y010803D01*
X006658Y006942D02*
X00695Y00665D01*
X007968D02*
X008068Y00675D01*
X0081D01*
X00695Y00665D02*
X007968D01*
X006658Y006942D02*
Y01031D01*
X006794Y010447D01*
X010283Y009283D02*
Y009517D01*
X01045Y009684D01*
X01005Y00905D02*
X010283Y009283D01*
X00705Y0102D02*
X0086D01*
X00875Y01035D01*
X009484D01*
X009393Y00994D02*
Y010167D01*
X009396Y01017D01*
Y010262D01*
X00935Y009897D02*
X009393Y00994D01*
X009396Y010262D02*
X009484Y01035D01*
X00995D01*
X010283Y010017D01*
Y009851D02*
X01045Y009684D01*
X010283Y009851D02*
Y010017D01*
X006794Y010447D02*
Y011D01*
Y010447D02*
X007041Y0102D01*
X00705D01*
D44*
X0145D02*
Y010442D01*
X014511Y0102D02*
X014558Y010247D01*
X0145Y0102D02*
X014511D01*
X014893Y010247D02*
X01495Y010305D01*
X014558Y010247D02*
X014893D01*
X009706Y009556D02*
Y009879D01*
X009724Y009897D01*
X00955Y0094D02*
X009706Y009556D01*
X009111Y0094D02*
X00955D01*
X008994Y009517D02*
Y009879D01*
Y009517D02*
X009111Y0094D01*
X008976Y009897D02*
X008994Y009879D01*
X007306Y011D02*
X007955D01*
D46*
X011Y010054D02*
Y010675D01*
X01045Y010604D02*
X011Y010054D01*
Y00995D02*
Y010054D01*
X010407Y010759D02*
X01045Y010716D01*
X011Y0096D02*
Y00995D01*
X01045Y010604D02*
Y010716D01*
X008291Y00965D02*
X00885D01*
X008269Y009628D02*
X008291Y00965D01*
X009724Y010791D02*
X009756Y010759D01*
X010407D01*
D47*
X008583Y01055D02*
X008635Y010602D01*
X008917D01*
X00855Y01055D02*
X008583D01*
X01455Y007D02*
X0149Y00665D01*
X01415Y0074D02*
X01455Y007D01*
X008976Y010661D02*
Y010803D01*
X008917Y010602D02*
X008976Y010661D01*
D48*
X010523Y007173D02*
D03*
X0225Y00925D02*
D03*
X0188Y00875D02*
D03*
X0167Y00855D02*
D03*
X02047Y009533D02*
D03*
X019818Y00902D02*
D03*
X020647Y008978D02*
D03*
X021418Y008672D02*
D03*
X022024Y009239D02*
D03*
X02154Y009914D02*
D03*
X01915Y00635D02*
D03*
X01975Y0069D02*
D03*
X02005Y0074D02*
D03*
X017851Y010949D02*
D03*
X01965Y0101D02*
D03*
X0198Y01065D02*
D03*
X0192Y0101D02*
D03*
Y01065D02*
D03*
Y01115D02*
D03*
X01845Y0102D02*
D03*
X015Y00825D02*
D03*
X0153Y00795D02*
D03*
X0156Y00765D02*
D03*
X0164Y0074D02*
D03*
Y0077D02*
D03*
X016335Y008588D02*
D03*
X0165Y00925D02*
D03*
X01635Y00955D02*
D03*
X017881Y007831D02*
D03*
X01635Y01035D02*
D03*
X0143Y01115D02*
D03*
X0134D02*
D03*
X0163Y011179D02*
D03*
X0222Y00735D02*
D03*
X0215Y0074D02*
D03*
X0207D02*
D03*
X0222Y0069D02*
D03*
X0215Y00685D02*
D03*
X02045Y0069D02*
D03*
X02215Y00635D02*
D03*
X0215D02*
D03*
X0206D02*
D03*
X02215Y00585D02*
D03*
X0211D02*
D03*
X01975Y00635D02*
D03*
X0203Y0058D02*
D03*
X01945Y00585D02*
D03*
X01855D02*
D03*
X0177D02*
D03*
X0145Y010442D02*
D03*
X0221Y01115D02*
D03*
X017809Y005441D02*
D03*
X01705Y00545D02*
D03*
X0186D02*
D03*
X01925D02*
D03*
X02D02*
D03*
X0208D02*
D03*
X0215D02*
D03*
X00675Y0062D02*
D03*
X011Y00545D02*
D03*
X00945D02*
D03*
X00855D02*
D03*
X0076D02*
D03*
X0068D02*
D03*
X0222D02*
D03*
X0228D02*
D03*
Y00585D02*
D03*
Y0064D02*
D03*
Y0069D02*
D03*
Y0074D02*
D03*
Y01115D02*
D03*
X02135D02*
D03*
X02065D02*
D03*
X01995D02*
D03*
X0154Y00945D02*
D03*
X0145Y0102D02*
D03*
X01285Y00915D02*
D03*
X01465Y00845D02*
D03*
X01165Y00915D02*
D03*
X0161Y0062D02*
D03*
Y0064D02*
D03*
X011Y010675D02*
D03*
Y01035D02*
D03*
X01125Y00685D02*
D03*
X0123Y00655D02*
D03*
X011Y00725D02*
D03*
X01125D02*
D03*
Y0075D02*
D03*
X011D02*
D03*
Y0096D02*
D03*
Y00995D02*
D03*
X01115Y00615D02*
D03*
X00805Y00625D02*
D03*
X01235Y00615D02*
D03*
X012065D02*
D03*
X0131Y0077D02*
D03*
X0123Y0074D02*
D03*
X01335Y007D02*
D03*
X013736Y006939D02*
D03*
X00705Y0102D02*
D03*
X00925Y0079D02*
D03*
X00855Y01055D02*
D03*
X01005Y00905D02*
D03*
X01415Y00625D02*
D03*
Y0074D02*
D03*
X0148Y0078D02*
D03*
X01535Y0073D02*
D03*
X015112Y006862D02*
D03*
X0149Y00665D02*
D03*
X014688Y006438D02*
D03*
X0081Y0095D02*
D03*
X00845D02*
D03*
Y00975D02*
D03*
X0081D02*
D03*
Y00675D02*
D03*
X00845D02*
D03*
Y007D02*
D03*
X0081D02*
D03*
X0083Y00785D02*
D03*
Y0086D02*
D03*
D49*
X01045Y010716D02*
D03*
Y009684D02*
D03*
D50*
X008545Y011D02*
D03*
X007955D02*
D03*
D51*
X01495Y010305D02*
D03*
Y010895D02*
D03*
D52*
X014814Y007264D02*
D03*
X014286Y006736D02*
D03*
D53*
X01455Y007D02*
D03*
D54*
X009724Y010803D02*
D03*
X008976D02*
D03*
Y009897D02*
D03*
X00935D02*
D03*
X009724D02*
D03*
D55*
X008269Y007856D02*
D03*
Y008644D02*
D03*
Y006872D02*
D03*
Y009628D02*
D03*
M02*
