G04*
G04 #@! TF.GenerationSoftware,Altium Limited,Altium Designer,22.10.1 (41)*
G04*
G04 Layer_Color=8388736*
%FSTAX24Y24*%
%MOIN*%
G70*
G04*
G04 #@! TF.SameCoordinates,3ABB2080-4673-4E4B-9202-AF62ACB4AD27*
G04*
G04*
G04 #@! TF.FilePolarity,Positive*
G04*
G01*
G75*
%ADD55C,0.0050*%
D55*
X034661Y015271D02*
X03776D01*
Y017771D01*
X034661D02*
X03776D01*
X034012D02*
X034661D01*
Y015271D02*
Y017771D01*
X034012Y015271D02*
X034661D01*
X034012D02*
Y017771D01*
X051315Y015271D02*
X054413D01*
Y017771D01*
X051315D02*
X054413D01*
X050665D02*
X051315D01*
Y015271D02*
Y017771D01*
X050665Y015271D02*
X051315D01*
X050665D02*
Y017771D01*
X034661Y021492D02*
X03776D01*
Y023992D01*
X034661D02*
X03776D01*
X034012D02*
X034661D01*
Y021492D02*
Y023992D01*
X034012Y021492D02*
X034661D01*
X034012D02*
Y023992D01*
X051315Y021492D02*
X054413D01*
Y023992D01*
X051315D02*
X054413D01*
X050665D02*
X051315D01*
Y021492D02*
Y023992D01*
X050665Y021492D02*
X051315D01*
X050665D02*
Y023992D01*
X034661Y027712D02*
X03776D01*
Y030212D01*
X034661D02*
X03776D01*
X034012D02*
X034661D01*
Y027712D02*
Y030212D01*
X034012Y027712D02*
X034661D01*
X034012D02*
Y030212D01*
X051315Y027712D02*
X054413D01*
Y030212D01*
X051315D02*
X054413D01*
X050665D02*
X051315D01*
Y027712D02*
Y030212D01*
X050665Y027712D02*
X051315D01*
X050665D02*
Y030212D01*
X034661Y033933D02*
X03776D01*
Y036433D01*
X034661D02*
X03776D01*
X034012D02*
X034661D01*
Y033933D02*
Y036433D01*
X034012Y033933D02*
X034661D01*
X034012D02*
Y036433D01*
X051315Y033933D02*
X054413D01*
Y036433D01*
X051315D02*
X054413D01*
X050665D02*
X051315D01*
Y033933D02*
Y036433D01*
X050665Y033933D02*
X051315D01*
X050665D02*
Y036433D01*
X034661Y040153D02*
X03776D01*
Y042653D01*
X034661D02*
X03776D01*
X034012D02*
X034661D01*
Y040153D02*
Y042653D01*
X034012Y040153D02*
X034661D01*
X034012D02*
Y042653D01*
X051315Y040153D02*
X054413D01*
Y042653D01*
X051315D02*
X054413D01*
X050665D02*
X051315D01*
Y040153D02*
Y042653D01*
X050665Y040153D02*
X051315D01*
X050665D02*
Y042653D01*
M02*
