G04*
G04 #@! TF.GenerationSoftware,Altium Limited,Altium Designer,22.10.1 (41)*
G04*
G04 Layer_Color=16711935*
%FSTAX24Y24*%
%MOIN*%
G70*
G04*
G04 #@! TF.SameCoordinates,A34DC46A-7450-461F-AC4F-9E147ECCBACE*
G04*
G04*
G04 #@! TF.FilePolarity,Positive*
G04*
G01*
G75*
%ADD77C,0.0060*%
%ADD82C,0.0039*%
D77*
X020185Y021202D02*
X020485D01*
Y021052D01*
X020435Y021002D01*
X020335D01*
X020285Y021052D01*
Y021202D01*
X020435Y020702D02*
X020485Y020752D01*
Y020852D01*
X020435Y020902D01*
X020235D01*
X020185Y020852D01*
Y020752D01*
X020235Y020702D01*
X020485Y020602D02*
X020185D01*
Y020452D01*
X020235Y020402D01*
X020285D01*
X020335Y020452D01*
Y020602D01*
Y020452D01*
X020385Y020402D01*
X020435D01*
X020485Y020452D01*
Y020602D01*
Y019802D02*
Y020002D01*
X020185D01*
Y019802D01*
X020335Y020002D02*
Y019902D01*
X020485Y019502D02*
X020185D01*
Y019652D01*
X020235Y019702D01*
X020335D01*
X020385Y019652D01*
Y019502D01*
X020085Y019302D02*
Y019252D01*
X020135Y019202D01*
X020385D01*
Y019352D01*
X020335Y019402D01*
X020235D01*
X020185Y019352D01*
Y019202D01*
Y018952D02*
Y019052D01*
X020235Y019102D01*
X020335D01*
X020385Y019052D01*
Y018952D01*
X020335Y018902D01*
X020285D01*
Y019102D01*
X003532Y008761D02*
X003831D01*
Y008611D01*
X003781Y008561D01*
X003681D01*
X003631Y008611D01*
Y008761D01*
X003781Y008261D02*
X003831Y008311D01*
Y008411D01*
X003781Y008461D01*
X003582D01*
X003532Y008411D01*
Y008311D01*
X003582Y008261D01*
X003831Y008161D02*
X003532D01*
Y008011D01*
X003582Y007961D01*
X003631D01*
X003681Y008011D01*
Y008161D01*
Y008011D01*
X003731Y007961D01*
X003781D01*
X003831Y008011D01*
Y008161D01*
Y007361D02*
Y007561D01*
X003532D01*
Y007361D01*
X003681Y007561D02*
Y007461D01*
X003831Y007061D02*
X003532D01*
Y007211D01*
X003582Y007261D01*
X003681D01*
X003731Y007211D01*
Y007061D01*
X003432Y006861D02*
Y006811D01*
X003482Y006761D01*
X003731D01*
Y006911D01*
X003681Y006961D01*
X003582D01*
X003532Y006911D01*
Y006761D01*
Y006511D02*
Y006611D01*
X003582Y006661D01*
X003681D01*
X003731Y006611D01*
Y006511D01*
X003681Y006461D01*
X003631D01*
Y006661D01*
X003504Y023503D02*
X003704D01*
Y023603D01*
X003671Y023636D01*
X003604D01*
X003571Y023603D01*
Y023503D01*
X003671Y023836D02*
X003704Y023803D01*
Y023736D01*
X003671Y023703D01*
X003538D01*
X003504Y023736D01*
Y023803D01*
X003538Y023836D01*
X003704Y023903D02*
X003504D01*
Y024003D01*
X003538Y024036D01*
X003571D01*
X003604Y024003D01*
Y023903D01*
Y024003D01*
X003638Y024036D01*
X003671D01*
X003704Y024003D01*
Y023903D01*
Y024436D02*
Y024303D01*
X003504D01*
Y024436D01*
X003604Y024303D02*
Y02437D01*
X003704Y024636D02*
X003504D01*
Y024536D01*
X003538Y024503D01*
X003604D01*
X003638Y024536D01*
Y024636D01*
X003438Y024769D02*
Y024803D01*
X003471Y024836D01*
X003638D01*
Y024736D01*
X003604Y024703D01*
X003538D01*
X003504Y024736D01*
Y024836D01*
Y025003D02*
Y024936D01*
X003538Y024903D01*
X003604D01*
X003638Y024936D01*
Y025003D01*
X003604Y025036D01*
X003571D01*
Y024903D01*
X03874Y007835D02*
X03854D01*
Y007735D01*
X038573Y007702D01*
X03864D01*
X038673Y007735D01*
Y007835D01*
X038573Y007502D02*
X03854Y007536D01*
Y007602D01*
X038573Y007636D01*
X038706D01*
X03874Y007602D01*
Y007536D01*
X038706Y007502D01*
X03854Y007436D02*
X03874D01*
Y007336D01*
X038706Y007302D01*
X038673D01*
X03864Y007336D01*
Y007436D01*
Y007336D01*
X038606Y007302D01*
X038573D01*
X03854Y007336D01*
Y007436D01*
Y006902D02*
Y007036D01*
X03874D01*
Y006902D01*
X03864Y007036D02*
Y006969D01*
X03854Y006702D02*
X03874D01*
Y006802D01*
X038706Y006836D01*
X03864D01*
X038606Y006802D01*
Y006702D01*
X038806Y006569D02*
Y006536D01*
X038773Y006503D01*
X038606D01*
Y006603D01*
X03864Y006636D01*
X038706D01*
X03874Y006603D01*
Y006503D01*
Y006336D02*
Y006403D01*
X038706Y006436D01*
X03864D01*
X038606Y006403D01*
Y006336D01*
X03864Y006303D01*
X038673D01*
Y006436D01*
X003504Y017283D02*
X003704D01*
Y017383D01*
X003671Y017416D01*
X003604D01*
X003571Y017383D01*
Y017283D01*
X003671Y017616D02*
X003704Y017583D01*
Y017516D01*
X003671Y017483D01*
X003538D01*
X003504Y017516D01*
Y017583D01*
X003538Y017616D01*
X003704Y017683D02*
X003504D01*
Y017783D01*
X003538Y017816D01*
X003571D01*
X003604Y017783D01*
Y017683D01*
Y017783D01*
X003638Y017816D01*
X003671D01*
X003704Y017783D01*
Y017683D01*
Y018216D02*
Y018082D01*
X003504D01*
Y018216D01*
X003604Y018082D02*
Y018149D01*
X003704Y018416D02*
X003504D01*
Y018316D01*
X003538Y018282D01*
X003604D01*
X003638Y018316D01*
Y018416D01*
X003438Y018549D02*
Y018582D01*
X003471Y018616D01*
X003638D01*
Y018516D01*
X003604Y018482D01*
X003538D01*
X003504Y018516D01*
Y018616D01*
Y018782D02*
Y018716D01*
X003538Y018682D01*
X003604D01*
X003638Y018716D01*
Y018782D01*
X003604Y018815D01*
X003571D01*
Y018682D01*
X03874Y014056D02*
X03854D01*
Y013956D01*
X038573Y013923D01*
X03864D01*
X038673Y013956D01*
Y014056D01*
X038573Y013723D02*
X03854Y013756D01*
Y013823D01*
X038573Y013856D01*
X038706D01*
X03874Y013823D01*
Y013756D01*
X038706Y013723D01*
X03854Y013656D02*
X03874D01*
Y013556D01*
X038706Y013523D01*
X038673D01*
X03864Y013556D01*
Y013656D01*
Y013556D01*
X038606Y013523D01*
X038573D01*
X03854Y013556D01*
Y013656D01*
Y013123D02*
Y013256D01*
X03874D01*
Y013123D01*
X03864Y013256D02*
Y01319D01*
X03854Y012923D02*
X03874D01*
Y013023D01*
X038706Y013056D01*
X03864D01*
X038606Y013023D01*
Y012923D01*
X038806Y01279D02*
Y012756D01*
X038773Y012723D01*
X038606D01*
Y012823D01*
X03864Y012856D01*
X038706D01*
X03874Y012823D01*
Y012723D01*
Y012556D02*
Y012623D01*
X038706Y012656D01*
X03864D01*
X038606Y012623D01*
Y012556D01*
X03864Y012523D01*
X038673D01*
Y012656D01*
D82*
X020598Y019627D02*
Y024351D01*
X003945Y007186D02*
Y01191D01*
X003918Y021928D02*
Y026653D01*
X038326Y00941D02*
Y004686D01*
X003918Y015708D02*
Y020432D01*
X038326Y015631D02*
Y010906D01*
M02*
