G04*
G04 #@! TF.GenerationSoftware,Altium Limited,Altium Designer,22.10.1 (41)*
G04*
G04 Layer_Color=2752767*
%FSTAX24Y24*%
%MOIN*%
G70*
G04*
G04 #@! TF.SameCoordinates,66E382E7-BC4A-4C08-8AB3-1FD61AD418E8*
G04*
G04*
G04 #@! TF.FilePolarity,Positive*
G04*
G01*
G75*
%ADD88C,0.0020*%
%ADD89C,0.0027*%
D88*
X021354Y010221D02*
Y010381D01*
X021514D01*
Y010221D01*
X021354D01*
X021354Y008449D02*
Y008609D01*
X021514D01*
Y008449D01*
X021354D01*
X021791Y009357D02*
X021711Y009517D01*
X021871D01*
X021791Y009357D01*
X022141Y007307D02*
X022061Y007467D01*
X022221D01*
X022141Y007307D01*
X021541D02*
X021461Y007467D01*
X021621D01*
X021541Y007307D01*
X033491Y013807D02*
X033531Y013847D01*
X033571D01*
X033531Y013887D01*
X033571Y013927D01*
X033531D01*
X033491Y013967D01*
X033451Y013927D01*
X033411D01*
X033451Y013887D01*
X033411Y013847D01*
X033451D01*
X033491Y013807D01*
Y012847D02*
X033531Y012887D01*
X033571D01*
X033531Y012927D01*
X033571Y012967D01*
X033531D01*
X033491Y013007D01*
X033451Y012967D01*
X033411D01*
X033451Y012927D01*
X033411Y012887D01*
X033451D01*
X033491Y012847D01*
Y011887D02*
X033531Y011927D01*
X033571D01*
X033531Y011967D01*
X033571Y012007D01*
X033531D01*
X033491Y012047D01*
X033451Y012007D01*
X033411D01*
X033451Y011967D01*
X033411Y011927D01*
X033451D01*
X033491Y011887D01*
Y007087D02*
X033531Y007127D01*
X033571D01*
X033531Y007167D01*
X033571Y007207D01*
X033531D01*
X033491Y007247D01*
X033451Y007207D01*
X033411D01*
X033451Y007167D01*
X033411Y007127D01*
X033451D01*
X033491Y007087D01*
Y006127D02*
X033531Y006167D01*
X033571D01*
X033531Y006207D01*
X033571Y006247D01*
X033531D01*
X033491Y006287D01*
X033451Y006247D01*
X033411D01*
X033451Y006207D01*
X033411Y006167D01*
X033451D01*
X033491Y006127D01*
Y005167D02*
X033531Y005207D01*
X033571D01*
X033531Y005247D01*
X033571Y005287D01*
X033531D01*
X033491Y005327D01*
X033451Y005287D01*
X033411D01*
X033451Y005247D01*
X033411Y005207D01*
X033451D01*
X033491Y005167D01*
Y004207D02*
X033531Y004247D01*
X033571D01*
X033531Y004287D01*
X033571Y004327D01*
X033531D01*
X033491Y004367D01*
X033451Y004327D01*
X033411D01*
X033451Y004287D01*
X033411Y004247D01*
X033451D01*
X033491Y004207D01*
X033011Y013807D02*
X033051Y013847D01*
X033091D01*
X033051Y013887D01*
X033091Y013927D01*
X033051D01*
X033011Y013967D01*
X032971Y013927D01*
X032931D01*
X032971Y013887D01*
X032931Y013847D01*
X032971D01*
X033011Y013807D01*
X033251Y013327D02*
X033291Y013367D01*
X033331D01*
X033291Y013407D01*
X033331Y013447D01*
X033291D01*
X033251Y013487D01*
X033211Y013447D01*
X033171D01*
X033211Y013407D01*
X033171Y013367D01*
X033211D01*
X033251Y013327D01*
X033011Y012847D02*
X033051Y012887D01*
X033091D01*
X033051Y012927D01*
X033091Y012967D01*
X033051D01*
X033011Y013007D01*
X032971Y012967D01*
X032931D01*
X032971Y012927D01*
X032931Y012887D01*
X032971D01*
X033011Y012847D01*
X033251Y012367D02*
X033291Y012407D01*
X033331D01*
X033291Y012447D01*
X033331Y012487D01*
X033291D01*
X033251Y012527D01*
X033211Y012487D01*
X033171D01*
X033211Y012447D01*
X033171Y012407D01*
X033211D01*
X033251Y012367D01*
X033011Y011887D02*
X033051Y011927D01*
X033091D01*
X033051Y011967D01*
X033091Y012007D01*
X033051D01*
X033011Y012047D01*
X032971Y012007D01*
X032931D01*
X032971Y011967D01*
X032931Y011927D01*
X032971D01*
X033011Y011887D01*
X033251Y007567D02*
X033291Y007607D01*
X033331D01*
X033291Y007647D01*
X033331Y007687D01*
X033291D01*
X033251Y007727D01*
X033211Y007687D01*
X033171D01*
X033211Y007647D01*
X033171Y007607D01*
X033211D01*
X033251Y007567D01*
X033011Y007087D02*
X033051Y007127D01*
X033091D01*
X033051Y007167D01*
X033091Y007207D01*
X033051D01*
X033011Y007247D01*
X032971Y007207D01*
X032931D01*
X032971Y007167D01*
X032931Y007127D01*
X032971D01*
X033011Y007087D01*
X033251Y006607D02*
X033291Y006647D01*
X033331D01*
X033291Y006687D01*
X033331Y006727D01*
X033291D01*
X033251Y006767D01*
X033211Y006727D01*
X033171D01*
X033211Y006687D01*
X033171Y006647D01*
X033211D01*
X033251Y006607D01*
X033011Y006127D02*
X033051Y006167D01*
X033091D01*
X033051Y006207D01*
X033091Y006247D01*
X033051D01*
X033011Y006287D01*
X032971Y006247D01*
X032931D01*
X032971Y006207D01*
X032931Y006167D01*
X032971D01*
X033011Y006127D01*
X033251Y005647D02*
X033291Y005687D01*
X033331D01*
X033291Y005727D01*
X033331Y005767D01*
X033291D01*
X033251Y005807D01*
X033211Y005767D01*
X033171D01*
X033211Y005727D01*
X033171Y005687D01*
X033211D01*
X033251Y005647D01*
X033011Y005167D02*
X033051Y005207D01*
X033091D01*
X033051Y005247D01*
X033091Y005287D01*
X033051D01*
X033011Y005327D01*
X032971Y005287D01*
X032931D01*
X032971Y005247D01*
X032931Y005207D01*
X032971D01*
X033011Y005167D01*
X033251Y004687D02*
X033291Y004727D01*
X033331D01*
X033291Y004767D01*
X033331Y004807D01*
X033291D01*
X033251Y004847D01*
X033211Y004807D01*
X033171D01*
X033211Y004767D01*
X033171Y004727D01*
X033211D01*
X033251Y004687D01*
X033011Y004207D02*
X033051Y004247D01*
X033091D01*
X033051Y004287D01*
X033091Y004327D01*
X033051D01*
X033011Y004367D01*
X032971Y004327D01*
X032931D01*
X032971Y004287D01*
X032931Y004247D01*
X032971D01*
X033011Y004207D01*
X032531Y013807D02*
X032571Y013847D01*
X032611D01*
X032571Y013887D01*
X032611Y013927D01*
X032571D01*
X032531Y013967D01*
X032491Y013927D01*
X032451D01*
X032491Y013887D01*
X032451Y013847D01*
X032491D01*
X032531Y013807D01*
X032771Y013327D02*
X032811Y013367D01*
X032851D01*
X032811Y013407D01*
X032851Y013447D01*
X032811D01*
X032771Y013487D01*
X032731Y013447D01*
X032691D01*
X032731Y013407D01*
X032691Y013367D01*
X032731D01*
X032771Y013327D01*
X032531Y012847D02*
X032571Y012887D01*
X032611D01*
X032571Y012927D01*
X032611Y012967D01*
X032571D01*
X032531Y013007D01*
X032491Y012967D01*
X032451D01*
X032491Y012927D01*
X032451Y012887D01*
X032491D01*
X032531Y012847D01*
X032771Y012367D02*
X032811Y012407D01*
X032851D01*
X032811Y012447D01*
X032851Y012487D01*
X032811D01*
X032771Y012527D01*
X032731Y012487D01*
X032691D01*
X032731Y012447D01*
X032691Y012407D01*
X032731D01*
X032771Y012367D01*
X032531Y011887D02*
X032571Y011927D01*
X032611D01*
X032571Y011967D01*
X032611Y012007D01*
X032571D01*
X032531Y012047D01*
X032491Y012007D01*
X032451D01*
X032491Y011967D01*
X032451Y011927D01*
X032491D01*
X032531Y011887D01*
Y007087D02*
X032571Y007127D01*
X032611D01*
X032571Y007167D01*
X032611Y007207D01*
X032571D01*
X032531Y007247D01*
X032491Y007207D01*
X032451D01*
X032491Y007167D01*
X032451Y007127D01*
X032491D01*
X032531Y007087D01*
X032771Y006607D02*
X032811Y006647D01*
X032851D01*
X032811Y006687D01*
X032851Y006727D01*
X032811D01*
X032771Y006767D01*
X032731Y006727D01*
X032691D01*
X032731Y006687D01*
X032691Y006647D01*
X032731D01*
X032771Y006607D01*
X032531Y006127D02*
X032571Y006167D01*
X032611D01*
X032571Y006207D01*
X032611Y006247D01*
X032571D01*
X032531Y006287D01*
X032491Y006247D01*
X032451D01*
X032491Y006207D01*
X032451Y006167D01*
X032491D01*
X032531Y006127D01*
X032771Y005647D02*
X032811Y005687D01*
X032851D01*
X032811Y005727D01*
X032851Y005767D01*
X032811D01*
X032771Y005807D01*
X032731Y005767D01*
X032691D01*
X032731Y005727D01*
X032691Y005687D01*
X032731D01*
X032771Y005647D01*
X032531Y005167D02*
X032571Y005207D01*
X032611D01*
X032571Y005247D01*
X032611Y005287D01*
X032571D01*
X032531Y005327D01*
X032491Y005287D01*
X032451D01*
X032491Y005247D01*
X032451Y005207D01*
X032491D01*
X032531Y005167D01*
X032771Y004687D02*
X032811Y004727D01*
X032851D01*
X032811Y004767D01*
X032851Y004807D01*
X032811D01*
X032771Y004847D01*
X032731Y004807D01*
X032691D01*
X032731Y004767D01*
X032691Y004727D01*
X032731D01*
X032771Y004687D01*
X032531Y004207D02*
X032571Y004247D01*
X032611D01*
X032571Y004287D01*
X032611Y004327D01*
X032571D01*
X032531Y004367D01*
X032491Y004327D01*
X032451D01*
X032491Y004287D01*
X032451Y004247D01*
X032491D01*
X032531Y004207D01*
X032051Y013807D02*
X032091Y013847D01*
X032131D01*
X032091Y013887D01*
X032131Y013927D01*
X032091D01*
X032051Y013967D01*
X032011Y013927D01*
X031971D01*
X032011Y013887D01*
X031971Y013847D01*
X032011D01*
X032051Y013807D01*
X032291Y013327D02*
X032331Y013367D01*
X032371D01*
X032331Y013407D01*
X032371Y013447D01*
X032331D01*
X032291Y013487D01*
X032251Y013447D01*
X032211D01*
X032251Y013407D01*
X032211Y013367D01*
X032251D01*
X032291Y013327D01*
X032051Y012847D02*
X032091Y012887D01*
X032131D01*
X032091Y012927D01*
X032131Y012967D01*
X032091D01*
X032051Y013007D01*
X032011Y012967D01*
X031971D01*
X032011Y012927D01*
X031971Y012887D01*
X032011D01*
X032051Y012847D01*
X032291Y012367D02*
X032331Y012407D01*
X032371D01*
X032331Y012447D01*
X032371Y012487D01*
X032331D01*
X032291Y012527D01*
X032251Y012487D01*
X032211D01*
X032251Y012447D01*
X032211Y012407D01*
X032251D01*
X032291Y012367D01*
Y011407D02*
X032331Y011447D01*
X032371D01*
X032331Y011487D01*
X032371Y011527D01*
X032331D01*
X032291Y011567D01*
X032251Y011527D01*
X032211D01*
X032251Y011487D01*
X032211Y011447D01*
X032251D01*
X032291Y011407D01*
Y006607D02*
X032331Y006647D01*
X032371D01*
X032331Y006687D01*
X032371Y006727D01*
X032331D01*
X032291Y006767D01*
X032251Y006727D01*
X032211D01*
X032251Y006687D01*
X032211Y006647D01*
X032251D01*
X032291Y006607D01*
X032051Y006127D02*
X032091Y006167D01*
X032131D01*
X032091Y006207D01*
X032131Y006247D01*
X032091D01*
X032051Y006287D01*
X032011Y006247D01*
X031971D01*
X032011Y006207D01*
X031971Y006167D01*
X032011D01*
X032051Y006127D01*
X032291Y005647D02*
X032331Y005687D01*
X032371D01*
X032331Y005727D01*
X032371Y005767D01*
X032331D01*
X032291Y005807D01*
X032251Y005767D01*
X032211D01*
X032251Y005727D01*
X032211Y005687D01*
X032251D01*
X032291Y005647D01*
X032051Y005167D02*
X032091Y005207D01*
X032131D01*
X032091Y005247D01*
X032131Y005287D01*
X032091D01*
X032051Y005327D01*
X032011Y005287D01*
X031971D01*
X032011Y005247D01*
X031971Y005207D01*
X032011D01*
X032051Y005167D01*
X032291Y004687D02*
X032331Y004727D01*
X032371D01*
X032331Y004767D01*
X032371Y004807D01*
X032331D01*
X032291Y004847D01*
X032251Y004807D01*
X032211D01*
X032251Y004767D01*
X032211Y004727D01*
X032251D01*
X032291Y004687D01*
X032051Y004207D02*
X032091Y004247D01*
X032131D01*
X032091Y004287D01*
X032131Y004327D01*
X032091D01*
X032051Y004367D01*
X032011Y004327D01*
X031971D01*
X032011Y004287D01*
X031971Y004247D01*
X032011D01*
X032051Y004207D01*
X031571Y013807D02*
X031611Y013847D01*
X031651D01*
X031611Y013887D01*
X031651Y013927D01*
X031611D01*
X031571Y013967D01*
X031531Y013927D01*
X031491D01*
X031531Y013887D01*
X031491Y013847D01*
X031531D01*
X031571Y013807D01*
X031811Y013327D02*
X031851Y013367D01*
X031891D01*
X031851Y013407D01*
X031891Y013447D01*
X031851D01*
X031811Y013487D01*
X031771Y013447D01*
X031731D01*
X031771Y013407D01*
X031731Y013367D01*
X031771D01*
X031811Y013327D01*
X031571Y012847D02*
X031611Y012887D01*
X031651D01*
X031611Y012927D01*
X031651Y012967D01*
X031611D01*
X031571Y013007D01*
X031531Y012967D01*
X031491D01*
X031531Y012927D01*
X031491Y012887D01*
X031531D01*
X031571Y012847D01*
X031811Y006607D02*
X031851Y006647D01*
X031891D01*
X031851Y006687D01*
X031891Y006727D01*
X031851D01*
X031811Y006767D01*
X031771Y006727D01*
X031731D01*
X031771Y006687D01*
X031731Y006647D01*
X031771D01*
X031811Y006607D01*
X031571Y006127D02*
X031611Y006167D01*
X031651D01*
X031611Y006207D01*
X031651Y006247D01*
X031611D01*
X031571Y006287D01*
X031531Y006247D01*
X031491D01*
X031531Y006207D01*
X031491Y006167D01*
X031531D01*
X031571Y006127D01*
X031811Y005647D02*
X031851Y005687D01*
X031891D01*
X031851Y005727D01*
X031891Y005767D01*
X031851D01*
X031811Y005807D01*
X031771Y005767D01*
X031731D01*
X031771Y005727D01*
X031731Y005687D01*
X031771D01*
X031811Y005647D01*
X031571Y005167D02*
X031611Y005207D01*
X031651D01*
X031611Y005247D01*
X031651Y005287D01*
X031611D01*
X031571Y005327D01*
X031531Y005287D01*
X031491D01*
X031531Y005247D01*
X031491Y005207D01*
X031531D01*
X031571Y005167D01*
X031811Y004687D02*
X031851Y004727D01*
X031891D01*
X031851Y004767D01*
X031891Y004807D01*
X031851D01*
X031811Y004847D01*
X031771Y004807D01*
X031731D01*
X031771Y004767D01*
X031731Y004727D01*
X031771D01*
X031811Y004687D01*
X031571Y004207D02*
X031611Y004247D01*
X031651D01*
X031611Y004287D01*
X031651Y004327D01*
X031611D01*
X031571Y004367D01*
X031531Y004327D01*
X031491D01*
X031531Y004287D01*
X031491Y004247D01*
X031531D01*
X031571Y004207D01*
X031091Y013807D02*
X031131Y013847D01*
X031171D01*
X031131Y013887D01*
X031171Y013927D01*
X031131D01*
X031091Y013967D01*
X031051Y013927D01*
X031011D01*
X031051Y013887D01*
X031011Y013847D01*
X031051D01*
X031091Y013807D01*
X031331Y013327D02*
X031371Y013367D01*
X031411D01*
X031371Y013407D01*
X031411Y013447D01*
X031371D01*
X031331Y013487D01*
X031291Y013447D01*
X031251D01*
X031291Y013407D01*
X031251Y013367D01*
X031291D01*
X031331Y013327D01*
X031091Y012847D02*
X031131Y012887D01*
X031171D01*
X031131Y012927D01*
X031171Y012967D01*
X031131D01*
X031091Y013007D01*
X031051Y012967D01*
X031011D01*
X031051Y012927D01*
X031011Y012887D01*
X031051D01*
X031091Y012847D01*
Y006127D02*
X031131Y006167D01*
X031171D01*
X031131Y006207D01*
X031171Y006247D01*
X031131D01*
X031091Y006287D01*
X031051Y006247D01*
X031011D01*
X031051Y006207D01*
X031011Y006167D01*
X031051D01*
X031091Y006127D01*
X031331Y005647D02*
X031371Y005687D01*
X031411D01*
X031371Y005727D01*
X031411Y005767D01*
X031371D01*
X031331Y005807D01*
X031291Y005767D01*
X031251D01*
X031291Y005727D01*
X031251Y005687D01*
X031291D01*
X031331Y005647D01*
X031091Y005167D02*
X031131Y005207D01*
X031171D01*
X031131Y005247D01*
X031171Y005287D01*
X031131D01*
X031091Y005327D01*
X031051Y005287D01*
X031011D01*
X031051Y005247D01*
X031011Y005207D01*
X031051D01*
X031091Y005167D01*
X031331Y004687D02*
X031371Y004727D01*
X031411D01*
X031371Y004767D01*
X031411Y004807D01*
X031371D01*
X031331Y004847D01*
X031291Y004807D01*
X031251D01*
X031291Y004767D01*
X031251Y004727D01*
X031291D01*
X031331Y004687D01*
X031091Y004207D02*
X031131Y004247D01*
X031171D01*
X031131Y004287D01*
X031171Y004327D01*
X031131D01*
X031091Y004367D01*
X031051Y004327D01*
X031011D01*
X031051Y004287D01*
X031011Y004247D01*
X031051D01*
X031091Y004207D01*
X030611Y013807D02*
X030651Y013847D01*
X030691D01*
X030651Y013887D01*
X030691Y013927D01*
X030651D01*
X030611Y013967D01*
X030571Y013927D01*
X030531D01*
X030571Y013887D01*
X030531Y013847D01*
X030571D01*
X030611Y013807D01*
X030851Y013327D02*
X030891Y013367D01*
X030931D01*
X030891Y013407D01*
X030931Y013447D01*
X030891D01*
X030851Y013487D01*
X030811Y013447D01*
X030771D01*
X030811Y013407D01*
X030771Y013367D01*
X030811D01*
X030851Y013327D01*
X030611Y012847D02*
X030651Y012887D01*
X030691D01*
X030651Y012927D01*
X030691Y012967D01*
X030651D01*
X030611Y013007D01*
X030571Y012967D01*
X030531D01*
X030571Y012927D01*
X030531Y012887D01*
X030571D01*
X030611Y012847D01*
X030851Y005647D02*
X030891Y005687D01*
X030931D01*
X030891Y005727D01*
X030931Y005767D01*
X030891D01*
X030851Y005807D01*
X030811Y005767D01*
X030771D01*
X030811Y005727D01*
X030771Y005687D01*
X030811D01*
X030851Y005647D01*
X030611Y005167D02*
X030651Y005207D01*
X030691D01*
X030651Y005247D01*
X030691Y005287D01*
X030651D01*
X030611Y005327D01*
X030571Y005287D01*
X030531D01*
X030571Y005247D01*
X030531Y005207D01*
X030571D01*
X030611Y005167D01*
X030851Y004687D02*
X030891Y004727D01*
X030931D01*
X030891Y004767D01*
X030931Y004807D01*
X030891D01*
X030851Y004847D01*
X030811Y004807D01*
X030771D01*
X030811Y004767D01*
X030771Y004727D01*
X030811D01*
X030851Y004687D01*
X030611Y004207D02*
X030651Y004247D01*
X030691D01*
X030651Y004287D01*
X030691Y004327D01*
X030651D01*
X030611Y004367D01*
X030571Y004327D01*
X030531D01*
X030571Y004287D01*
X030531Y004247D01*
X030571D01*
X030611Y004207D01*
X030131Y013807D02*
X030171Y013847D01*
X030211D01*
X030171Y013887D01*
X030211Y013927D01*
X030171D01*
X030131Y013967D01*
X030091Y013927D01*
X030051D01*
X030091Y013887D01*
X030051Y013847D01*
X030091D01*
X030131Y013807D01*
X030371Y013327D02*
X030411Y013367D01*
X030451D01*
X030411Y013407D01*
X030451Y013447D01*
X030411D01*
X030371Y013487D01*
X030331Y013447D01*
X030291D01*
X030331Y013407D01*
X030291Y013367D01*
X030331D01*
X030371Y013327D01*
X030131Y012847D02*
X030171Y012887D01*
X030211D01*
X030171Y012927D01*
X030211Y012967D01*
X030171D01*
X030131Y013007D01*
X030091Y012967D01*
X030051D01*
X030091Y012927D01*
X030051Y012887D01*
X030091D01*
X030131Y012847D01*
X030371Y005647D02*
X030411Y005687D01*
X030451D01*
X030411Y005727D01*
X030451Y005767D01*
X030411D01*
X030371Y005807D01*
X030331Y005767D01*
X030291D01*
X030331Y005727D01*
X030291Y005687D01*
X030331D01*
X030371Y005647D01*
X030131Y005167D02*
X030171Y005207D01*
X030211D01*
X030171Y005247D01*
X030211Y005287D01*
X030171D01*
X030131Y005327D01*
X030091Y005287D01*
X030051D01*
X030091Y005247D01*
X030051Y005207D01*
X030091D01*
X030131Y005167D01*
X030371Y004687D02*
X030411Y004727D01*
X030451D01*
X030411Y004767D01*
X030451Y004807D01*
X030411D01*
X030371Y004847D01*
X030331Y004807D01*
X030291D01*
X030331Y004767D01*
X030291Y004727D01*
X030331D01*
X030371Y004687D01*
X030131Y004207D02*
X030171Y004247D01*
X030211D01*
X030171Y004287D01*
X030211Y004327D01*
X030171D01*
X030131Y004367D01*
X030091Y004327D01*
X030051D01*
X030091Y004287D01*
X030051Y004247D01*
X030091D01*
X030131Y004207D01*
X029651Y013807D02*
X029691Y013847D01*
X029731D01*
X029691Y013887D01*
X029731Y013927D01*
X029691D01*
X029651Y013967D01*
X029611Y013927D01*
X029571D01*
X029611Y013887D01*
X029571Y013847D01*
X029611D01*
X029651Y013807D01*
X029891Y013327D02*
X029931Y013367D01*
X029971D01*
X029931Y013407D01*
X029971Y013447D01*
X029931D01*
X029891Y013487D01*
X029851Y013447D01*
X029811D01*
X029851Y013407D01*
X029811Y013367D01*
X029851D01*
X029891Y013327D01*
X029651Y012847D02*
X029691Y012887D01*
X029731D01*
X029691Y012927D01*
X029731Y012967D01*
X029691D01*
X029651Y013007D01*
X029611Y012967D01*
X029571D01*
X029611Y012927D01*
X029571Y012887D01*
X029611D01*
X029651Y012847D01*
Y005167D02*
X029691Y005207D01*
X029731D01*
X029691Y005247D01*
X029731Y005287D01*
X029691D01*
X029651Y005327D01*
X029611Y005287D01*
X029571D01*
X029611Y005247D01*
X029571Y005207D01*
X029611D01*
X029651Y005167D01*
X029891Y004687D02*
X029931Y004727D01*
X029971D01*
X029931Y004767D01*
X029971Y004807D01*
X029931D01*
X029891Y004847D01*
X029851Y004807D01*
X029811D01*
X029851Y004767D01*
X029811Y004727D01*
X029851D01*
X029891Y004687D01*
X029651Y004207D02*
X029691Y004247D01*
X029731D01*
X029691Y004287D01*
X029731Y004327D01*
X029691D01*
X029651Y004367D01*
X029611Y004327D01*
X029571D01*
X029611Y004287D01*
X029571Y004247D01*
X029611D01*
X029651Y004207D01*
X029171Y013807D02*
X029211Y013847D01*
X029251D01*
X029211Y013887D01*
X029251Y013927D01*
X029211D01*
X029171Y013967D01*
X029131Y013927D01*
X029091D01*
X029131Y013887D01*
X029091Y013847D01*
X029131D01*
X029171Y013807D01*
X029411Y013327D02*
X029451Y013367D01*
X029491D01*
X029451Y013407D01*
X029491Y013447D01*
X029451D01*
X029411Y013487D01*
X029371Y013447D01*
X029331D01*
X029371Y013407D01*
X029331Y013367D01*
X029371D01*
X029411Y013327D01*
X029171Y012847D02*
X029211Y012887D01*
X029251D01*
X029211Y012927D01*
X029251Y012967D01*
X029211D01*
X029171Y013007D01*
X029131Y012967D01*
X029091D01*
X029131Y012927D01*
X029091Y012887D01*
X029131D01*
X029171Y012847D01*
X029411Y004687D02*
X029451Y004727D01*
X029491D01*
X029451Y004767D01*
X029491Y004807D01*
X029451D01*
X029411Y004847D01*
X029371Y004807D01*
X029331D01*
X029371Y004767D01*
X029331Y004727D01*
X029371D01*
X029411Y004687D01*
X029171Y004207D02*
X029211Y004247D01*
X029251D01*
X029211Y004287D01*
X029251Y004327D01*
X029211D01*
X029171Y004367D01*
X029131Y004327D01*
X029091D01*
X029131Y004287D01*
X029091Y004247D01*
X029131D01*
X029171Y004207D01*
X028691Y013807D02*
X028731Y013847D01*
X028771D01*
X028731Y013887D01*
X028771Y013927D01*
X028731D01*
X028691Y013967D01*
X028651Y013927D01*
X028611D01*
X028651Y013887D01*
X028611Y013847D01*
X028651D01*
X028691Y013807D01*
X028931Y013327D02*
X028971Y013367D01*
X029011D01*
X028971Y013407D01*
X029011Y013447D01*
X028971D01*
X028931Y013487D01*
X028891Y013447D01*
X028851D01*
X028891Y013407D01*
X028851Y013367D01*
X028891D01*
X028931Y013327D01*
X028691Y012847D02*
X028731Y012887D01*
X028771D01*
X028731Y012927D01*
X028771Y012967D01*
X028731D01*
X028691Y013007D01*
X028651Y012967D01*
X028611D01*
X028651Y012927D01*
X028611Y012887D01*
X028651D01*
X028691Y012847D01*
Y004207D02*
X028731Y004247D01*
X028771D01*
X028731Y004287D01*
X028771Y004327D01*
X028731D01*
X028691Y004367D01*
X028651Y004327D01*
X028611D01*
X028651Y004287D01*
X028611Y004247D01*
X028651D01*
X028691Y004207D01*
X028211Y013807D02*
X028251Y013847D01*
X028291D01*
X028251Y013887D01*
X028291Y013927D01*
X028251D01*
X028211Y013967D01*
X028171Y013927D01*
X028131D01*
X028171Y013887D01*
X028131Y013847D01*
X028171D01*
X028211Y013807D01*
X028451Y013327D02*
X028491Y013367D01*
X028531D01*
X028491Y013407D01*
X028531Y013447D01*
X028491D01*
X028451Y013487D01*
X028411Y013447D01*
X028371D01*
X028411Y013407D01*
X028371Y013367D01*
X028411D01*
X028451Y013327D01*
Y004687D02*
X028491Y004727D01*
X028531D01*
X028491Y004767D01*
X028531Y004807D01*
X028491D01*
X028451Y004847D01*
X028411Y004807D01*
X028371D01*
X028411Y004767D01*
X028371Y004727D01*
X028411D01*
X028451Y004687D01*
X028211Y004207D02*
X028251Y004247D01*
X028291D01*
X028251Y004287D01*
X028291Y004327D01*
X028251D01*
X028211Y004367D01*
X028171Y004327D01*
X028131D01*
X028171Y004287D01*
X028131Y004247D01*
X028171D01*
X028211Y004207D01*
X027731Y005167D02*
X027771Y005207D01*
X027811D01*
X027771Y005247D01*
X027811Y005287D01*
X027771D01*
X027731Y005327D01*
X027691Y005287D01*
X027651D01*
X027691Y005247D01*
X027651Y005207D01*
X027691D01*
X027731Y005167D01*
X027971Y004687D02*
X028011Y004727D01*
X028051D01*
X028011Y004767D01*
X028051Y004807D01*
X028011D01*
X027971Y004847D01*
X027931Y004807D01*
X027891D01*
X027931Y004767D01*
X027891Y004727D01*
X027931D01*
X027971Y004687D01*
X027731Y004207D02*
X027771Y004247D01*
X027811D01*
X027771Y004287D01*
X027811Y004327D01*
X027771D01*
X027731Y004367D01*
X027691Y004327D01*
X027651D01*
X027691Y004287D01*
X027651Y004247D01*
X027691D01*
X027731Y004207D01*
X027491Y008527D02*
X027531Y008567D01*
X027571D01*
X027531Y008607D01*
X027571Y008647D01*
X027531D01*
X027491Y008687D01*
X027451Y008647D01*
X027411D01*
X027451Y008607D01*
X027411Y008567D01*
X027451D01*
X027491Y008527D01*
Y004687D02*
X027531Y004727D01*
X027571D01*
X027531Y004767D01*
X027571Y004807D01*
X027531D01*
X027491Y004847D01*
X027451Y004807D01*
X027411D01*
X027451Y004767D01*
X027411Y004727D01*
X027451D01*
X027491Y004687D01*
X027251Y004207D02*
X027291Y004247D01*
X027331D01*
X027291Y004287D01*
X027331Y004327D01*
X027291D01*
X027251Y004367D01*
X027211Y004327D01*
X027171D01*
X027211Y004287D01*
X027171Y004247D01*
X027211D01*
X027251Y004207D01*
X027011Y008527D02*
X027051Y008567D01*
X027091D01*
X027051Y008607D01*
X027091Y008647D01*
X027051D01*
X027011Y008687D01*
X026971Y008647D01*
X026931D01*
X026971Y008607D01*
X026931Y008567D01*
X026971D01*
X027011Y008527D01*
X026771Y004207D02*
X026811Y004247D01*
X026851D01*
X026811Y004287D01*
X026851Y004327D01*
X026811D01*
X026771Y004367D01*
X026731Y004327D01*
X026691D01*
X026731Y004287D01*
X026691Y004247D01*
X026731D01*
X026771Y004207D01*
X026291Y013807D02*
X026331Y013847D01*
X026371D01*
X026331Y013887D01*
X026371Y013927D01*
X026331D01*
X026291Y013967D01*
X026251Y013927D01*
X026211D01*
X026251Y013887D01*
X026211Y013847D01*
X026251D01*
X026291Y013807D01*
X026531Y008527D02*
X026571Y008567D01*
X026611D01*
X026571Y008607D01*
X026611Y008647D01*
X026571D01*
X026531Y008687D01*
X026491Y008647D01*
X026451D01*
X026491Y008607D01*
X026451Y008567D01*
X026491D01*
X026531Y008527D01*
X026291Y004207D02*
X026331Y004247D01*
X026371D01*
X026331Y004287D01*
X026371Y004327D01*
X026331D01*
X026291Y004367D01*
X026251Y004327D01*
X026211D01*
X026251Y004287D01*
X026211Y004247D01*
X026251D01*
X026291Y004207D01*
X025811Y013807D02*
X025851Y013847D01*
X025891D01*
X025851Y013887D01*
X025891Y013927D01*
X025851D01*
X025811Y013967D01*
X025771Y013927D01*
X025731D01*
X025771Y013887D01*
X025731Y013847D01*
X025771D01*
X025811Y013807D01*
X026051Y007567D02*
X026091Y007607D01*
X026131D01*
X026091Y007647D01*
X026131Y007687D01*
X026091D01*
X026051Y007727D01*
X026011Y007687D01*
X025971D01*
X026011Y007647D01*
X025971Y007607D01*
X026011D01*
X026051Y007567D01*
X025811Y004207D02*
X025851Y004247D01*
X025891D01*
X025851Y004287D01*
X025891Y004327D01*
X025851D01*
X025811Y004367D01*
X025771Y004327D01*
X025731D01*
X025771Y004287D01*
X025731Y004247D01*
X025771D01*
X025811Y004207D01*
X025331Y013807D02*
X025371Y013847D01*
X025411D01*
X025371Y013887D01*
X025411Y013927D01*
X025371D01*
X025331Y013967D01*
X025291Y013927D01*
X025251D01*
X025291Y013887D01*
X025251Y013847D01*
X025291D01*
X025331Y013807D01*
X025571Y007567D02*
X025611Y007607D01*
X025651D01*
X025611Y007647D01*
X025651Y007687D01*
X025611D01*
X025571Y007727D01*
X025531Y007687D01*
X025491D01*
X025531Y007647D01*
X025491Y007607D01*
X025531D01*
X025571Y007567D01*
X025331Y004207D02*
X025371Y004247D01*
X025411D01*
X025371Y004287D01*
X025411Y004327D01*
X025371D01*
X025331Y004367D01*
X025291Y004327D01*
X025251D01*
X025291Y004287D01*
X025251Y004247D01*
X025291D01*
X025331Y004207D01*
X024851D02*
X024891Y004247D01*
X024931D01*
X024891Y004287D01*
X024931Y004327D01*
X024891D01*
X024851Y004367D01*
X024811Y004327D01*
X024771D01*
X024811Y004287D01*
X024771Y004247D01*
X024811D01*
X024851Y004207D01*
X024611Y004687D02*
X024651Y004727D01*
X024691D01*
X024651Y004767D01*
X024691Y004807D01*
X024651D01*
X024611Y004847D01*
X024571Y004807D01*
X024531D01*
X024571Y004767D01*
X024531Y004727D01*
X024571D01*
X024611Y004687D01*
X024371Y004207D02*
X024411Y004247D01*
X024451D01*
X024411Y004287D01*
X024451Y004327D01*
X024411D01*
X024371Y004367D01*
X024331Y004327D01*
X024291D01*
X024331Y004287D01*
X024291Y004247D01*
X024331D01*
X024371Y004207D01*
X023891D02*
X023931Y004247D01*
X023971D01*
X023931Y004287D01*
X023971Y004327D01*
X023931D01*
X023891Y004367D01*
X023851Y004327D01*
X023811D01*
X023851Y004287D01*
X023811Y004247D01*
X023851D01*
X023891Y004207D01*
X023411Y013807D02*
X023451Y013847D01*
X023491D01*
X023451Y013887D01*
X023491Y013927D01*
X023451D01*
X023411Y013967D01*
X023371Y013927D01*
X023331D01*
X023371Y013887D01*
X023331Y013847D01*
X023371D01*
X023411Y013807D01*
Y004207D02*
X023451Y004247D01*
X023491D01*
X023451Y004287D01*
X023491Y004327D01*
X023451D01*
X023411Y004367D01*
X023371Y004327D01*
X023331D01*
X023371Y004287D01*
X023331Y004247D01*
X023371D01*
X023411Y004207D01*
X022931D02*
X022971Y004247D01*
X023011D01*
X022971Y004287D01*
X023011Y004327D01*
X022971D01*
X022931Y004367D01*
X022891Y004327D01*
X022851D01*
X022891Y004287D01*
X022851Y004247D01*
X022891D01*
X022931Y004207D01*
X022451Y005167D02*
X022491Y005207D01*
X022531D01*
X022491Y005247D01*
X022531Y005287D01*
X022491D01*
X022451Y005327D01*
X022411Y005287D01*
X022371D01*
X022411Y005247D01*
X022371Y005207D01*
X022411D01*
X022451Y005167D01*
X022691Y004687D02*
X022731Y004727D01*
X022771D01*
X022731Y004767D01*
X022771Y004807D01*
X022731D01*
X022691Y004847D01*
X022651Y004807D01*
X022611D01*
X022651Y004767D01*
X022611Y004727D01*
X022651D01*
X022691Y004687D01*
X022451Y004207D02*
X022491Y004247D01*
X022531D01*
X022491Y004287D01*
X022531Y004327D01*
X022491D01*
X022451Y004367D01*
X022411Y004327D01*
X022371D01*
X022411Y004287D01*
X022371Y004247D01*
X022411D01*
X022451Y004207D01*
X022211Y005647D02*
X022251Y005687D01*
X022291D01*
X022251Y005727D01*
X022291Y005767D01*
X022251D01*
X022211Y005807D01*
X022171Y005767D01*
X022131D01*
X022171Y005727D01*
X022131Y005687D01*
X022171D01*
X022211Y005647D01*
X021971Y005167D02*
X022011Y005207D01*
X022051D01*
X022011Y005247D01*
X022051Y005287D01*
X022011D01*
X021971Y005327D01*
X021931Y005287D01*
X021891D01*
X021931Y005247D01*
X021891Y005207D01*
X021931D01*
X021971Y005167D01*
X022211Y004687D02*
X022251Y004727D01*
X022291D01*
X022251Y004767D01*
X022291Y004807D01*
X022251D01*
X022211Y004847D01*
X022171Y004807D01*
X022131D01*
X022171Y004767D01*
X022131Y004727D01*
X022171D01*
X022211Y004687D01*
X021971Y004207D02*
X022011Y004247D01*
X022051D01*
X022011Y004287D01*
X022051Y004327D01*
X022011D01*
X021971Y004367D01*
X021931Y004327D01*
X021891D01*
X021931Y004287D01*
X021891Y004247D01*
X021931D01*
X021971Y004207D01*
X021731Y011407D02*
X021771Y011447D01*
X021811D01*
X021771Y011487D01*
X021811Y011527D01*
X021771D01*
X021731Y011567D01*
X021691Y011527D01*
X021651D01*
X021691Y011487D01*
X021651Y011447D01*
X021691D01*
X021731Y011407D01*
X021491Y006127D02*
X021531Y006167D01*
X021571D01*
X021531Y006207D01*
X021571Y006247D01*
X021531D01*
X021491Y006287D01*
X021451Y006247D01*
X021411D01*
X021451Y006207D01*
X021411Y006167D01*
X021451D01*
X021491Y006127D01*
X021731Y005647D02*
X021771Y005687D01*
X021811D01*
X021771Y005727D01*
X021811Y005767D01*
X021771D01*
X021731Y005807D01*
X021691Y005767D01*
X021651D01*
X021691Y005727D01*
X021651Y005687D01*
X021691D01*
X021731Y005647D01*
X021491Y005167D02*
X021531Y005207D01*
X021571D01*
X021531Y005247D01*
X021571Y005287D01*
X021531D01*
X021491Y005327D01*
X021451Y005287D01*
X021411D01*
X021451Y005247D01*
X021411Y005207D01*
X021451D01*
X021491Y005167D01*
X021731Y004687D02*
X021771Y004727D01*
X021811D01*
X021771Y004767D01*
X021811Y004807D01*
X021771D01*
X021731Y004847D01*
X021691Y004807D01*
X021651D01*
X021691Y004767D01*
X021651Y004727D01*
X021691D01*
X021731Y004687D01*
X021491Y004207D02*
X021531Y004247D01*
X021571D01*
X021531Y004287D01*
X021571Y004327D01*
X021531D01*
X021491Y004367D01*
X021451Y004327D01*
X021411D01*
X021451Y004287D01*
X021411Y004247D01*
X021451D01*
X021491Y004207D01*
X021011Y012847D02*
X021051Y012887D01*
X021091D01*
X021051Y012927D01*
X021091Y012967D01*
X021051D01*
X021011Y013007D01*
X020971Y012967D01*
X020931D01*
X020971Y012927D01*
X020931Y012887D01*
X020971D01*
X021011Y012847D01*
X021251Y012367D02*
X021291Y012407D01*
X021331D01*
X021291Y012447D01*
X021331Y012487D01*
X021291D01*
X021251Y012527D01*
X021211Y012487D01*
X021171D01*
X021211Y012447D01*
X021171Y012407D01*
X021211D01*
X021251Y012367D01*
X021011Y006127D02*
X021051Y006167D01*
X021091D01*
X021051Y006207D01*
X021091Y006247D01*
X021051D01*
X021011Y006287D01*
X020971Y006247D01*
X020931D01*
X020971Y006207D01*
X020931Y006167D01*
X020971D01*
X021011Y006127D01*
X021251Y005647D02*
X021291Y005687D01*
X021331D01*
X021291Y005727D01*
X021331Y005767D01*
X021291D01*
X021251Y005807D01*
X021211Y005767D01*
X021171D01*
X021211Y005727D01*
X021171Y005687D01*
X021211D01*
X021251Y005647D01*
X021011Y005167D02*
X021051Y005207D01*
X021091D01*
X021051Y005247D01*
X021091Y005287D01*
X021051D01*
X021011Y005327D01*
X020971Y005287D01*
X020931D01*
X020971Y005247D01*
X020931Y005207D01*
X020971D01*
X021011Y005167D01*
X021251Y004687D02*
X021291Y004727D01*
X021331D01*
X021291Y004767D01*
X021331Y004807D01*
X021291D01*
X021251Y004847D01*
X021211Y004807D01*
X021171D01*
X021211Y004767D01*
X021171Y004727D01*
X021211D01*
X021251Y004687D01*
X021011Y004207D02*
X021051Y004247D01*
X021091D01*
X021051Y004287D01*
X021091Y004327D01*
X021051D01*
X021011Y004367D01*
X020971Y004327D01*
X020931D01*
X020971Y004287D01*
X020931Y004247D01*
X020971D01*
X021011Y004207D01*
X033691Y008207D02*
X033611Y008367D01*
X033771D01*
X033691Y008207D01*
X023391Y011507D02*
X023311Y011667D01*
X023471D01*
X023391Y011507D01*
X029191Y010807D02*
X029111Y010967D01*
X029271D01*
X029191Y010807D01*
X029741Y007057D02*
X029661Y007217D01*
X029821D01*
X029741Y007057D01*
X025011Y014507D02*
X025051Y014587D01*
X025011Y014667D01*
X025091Y014627D01*
X025171Y014667D01*
X025131Y014587D01*
X025171Y014507D01*
X025091Y014547D01*
X025011Y014507D01*
X025761D02*
X025801Y014587D01*
X025761Y014667D01*
X025841Y014627D01*
X025921Y014667D01*
X025881Y014587D01*
X025921Y014507D01*
X025841Y014547D01*
X025761Y014507D01*
X033691Y007557D02*
X033611Y007717D01*
X033771D01*
X033691Y007557D01*
Y004707D02*
X033611Y004867D01*
X033771D01*
X033691Y004707D01*
Y005657D02*
X033611Y005817D01*
X033771D01*
X033691Y005657D01*
Y006607D02*
X033611Y006767D01*
X033771D01*
X033691Y006607D01*
X024711Y009707D02*
X024751Y009787D01*
X024711Y009867D01*
X024791Y009827D01*
X024871Y009867D01*
X024831Y009787D01*
X024871Y009707D01*
X024791Y009747D01*
X024711Y009707D01*
X024511Y009007D02*
X024551Y009087D01*
X024511Y009167D01*
X024591Y009127D01*
X024671Y009167D01*
X024631Y009087D01*
X024671Y009007D01*
X024591Y009047D01*
X024511Y009007D01*
X024311Y009707D02*
X024351Y009787D01*
X024311Y009867D01*
X024391Y009827D01*
X024471Y009867D01*
X024431Y009787D01*
X024471Y009707D01*
X024391Y009747D01*
X024311Y009707D01*
X025091Y009557D02*
X025011Y009717D01*
X025171D01*
X025091Y009557D01*
X032991Y008207D02*
X032911Y008367D01*
X033071D01*
X032991Y008207D01*
X033691Y008857D02*
X033611Y009017D01*
X033771D01*
X033691Y008857D01*
Y009507D02*
X033611Y009667D01*
X033771D01*
X033691Y009507D01*
X024861Y010707D02*
X024901Y010787D01*
X024861Y010867D01*
X024941Y010827D01*
X025021Y010867D01*
X024981Y010787D01*
X025021Y010707D01*
X024941Y010747D01*
X024861Y010707D01*
X023211Y004907D02*
X023251Y004987D01*
X023211Y005067D01*
X023291Y005027D01*
X023371Y005067D01*
X023331Y004987D01*
X023371Y004907D01*
X023291Y004947D01*
X023211Y004907D01*
X023711Y004507D02*
X023751Y004587D01*
X023711Y004667D01*
X023791Y004627D01*
X023871Y004667D01*
X023831Y004587D01*
X023871Y004507D01*
X023791Y004547D01*
X023711Y004507D01*
X021261Y009357D02*
X021301Y009437D01*
X021261Y009517D01*
X021341Y009477D01*
X021421Y009517D01*
X021381Y009437D01*
X021421Y009357D01*
X021341Y009397D01*
X021261Y009357D01*
X020811Y013457D02*
X020851Y013537D01*
X020811Y013617D01*
X020891Y013577D01*
X020971Y013617D01*
X020931Y013537D01*
X020971Y013457D01*
X020891Y013497D01*
X020811Y013457D01*
Y013957D02*
X020851Y014037D01*
X020811Y014117D01*
X020891Y014077D01*
X020971Y014117D01*
X020931Y014037D01*
X020971Y013957D01*
X020891Y013997D01*
X020811Y013957D01*
Y014507D02*
X020851Y014587D01*
X020811Y014667D01*
X020891Y014627D01*
X020971Y014667D01*
X020931Y014587D01*
X020971Y014507D01*
X020891Y014547D01*
X020811Y014507D01*
X021361Y014607D02*
X021401Y014687D01*
X021361Y014767D01*
X021441Y014727D01*
X021521Y014767D01*
X021481Y014687D01*
X021521Y014607D01*
X021441Y014647D01*
X021361Y014607D01*
X022111D02*
X022151Y014687D01*
X022111Y014767D01*
X022191Y014727D01*
X022271Y014767D01*
X022231Y014687D01*
X022271Y014607D01*
X022191Y014647D01*
X022111Y014607D01*
X023361D02*
X023401Y014687D01*
X023361Y014767D01*
X023441Y014727D01*
X023521Y014767D01*
X023481Y014687D01*
X023521Y014607D01*
X023441Y014647D01*
X023361Y014607D01*
X024061D02*
X024101Y014687D01*
X024061Y014767D01*
X024141Y014727D01*
X024221Y014767D01*
X024181Y014687D01*
X024221Y014607D01*
X024141Y014647D01*
X024061Y014607D01*
X026411Y014507D02*
X026451Y014587D01*
X026411Y014667D01*
X026491Y014627D01*
X026571Y014667D01*
X026531Y014587D01*
X026571Y014507D01*
X026491Y014547D01*
X026411Y014507D01*
X027011D02*
X027051Y014587D01*
X027011Y014667D01*
X027091Y014627D01*
X027171Y014667D01*
X027131Y014587D01*
X027171Y014507D01*
X027091Y014547D01*
X027011Y014507D01*
Y013807D02*
X027051Y013887D01*
X027011Y013967D01*
X027091Y013927D01*
X027171Y013967D01*
X027131Y013887D01*
X027171Y013807D01*
X027091Y013847D01*
X027011Y013807D01*
X027561D02*
X027601Y013887D01*
X027561Y013967D01*
X027641Y013927D01*
X027721Y013967D01*
X027681Y013887D01*
X027721Y013807D01*
X027641Y013847D01*
X027561Y013807D01*
X027811Y014507D02*
X027851Y014587D01*
X027811Y014667D01*
X027891Y014627D01*
X027971Y014667D01*
X027931Y014587D01*
X027971Y014507D01*
X027891Y014547D01*
X027811Y014507D01*
X028511D02*
X028551Y014587D01*
X028511Y014667D01*
X028591Y014627D01*
X028671Y014667D01*
X028631Y014587D01*
X028671Y014507D01*
X028591Y014547D01*
X028511Y014507D01*
X029411D02*
X029451Y014587D01*
X029411Y014667D01*
X029491Y014627D01*
X029571Y014667D01*
X029531Y014587D01*
X029571Y014507D01*
X029491Y014547D01*
X029411Y014507D01*
X030311D02*
X030351Y014587D01*
X030311Y014667D01*
X030391Y014627D01*
X030471Y014667D01*
X030431Y014587D01*
X030471Y014507D01*
X030391Y014547D01*
X030311Y014507D01*
X031161D02*
X031201Y014587D01*
X031161Y014667D01*
X031241Y014627D01*
X031321Y014667D01*
X031281Y014587D01*
X031321Y014507D01*
X031241Y014547D01*
X031161Y014507D01*
X032011D02*
X032051Y014587D01*
X032011Y014667D01*
X032091Y014627D01*
X032171Y014667D01*
X032131Y014587D01*
X032171Y014507D01*
X032091Y014547D01*
X032011Y014507D01*
X032761D02*
X032801Y014587D01*
X032761Y014667D01*
X032841Y014627D01*
X032921Y014667D01*
X032881Y014587D01*
X032921Y014507D01*
X032841Y014547D01*
X032761Y014507D01*
X033411D02*
X033451Y014587D01*
X033411Y014667D01*
X033491Y014627D01*
X033571Y014667D01*
X033531Y014587D01*
X033571Y014507D01*
X033491Y014547D01*
X033411Y014507D01*
X032211Y008207D02*
X032251Y008287D01*
X032211Y008367D01*
X032291Y008327D01*
X032371Y008367D01*
X032331Y008287D01*
X032371Y008207D01*
X032291Y008247D01*
X032211Y008207D01*
X032311Y007557D02*
X032351Y007637D01*
X032311Y007717D01*
X032391Y007677D01*
X032471Y007717D01*
X032431Y007637D01*
X032471Y007557D01*
X032391Y007597D01*
X032311Y007557D01*
X031861Y007107D02*
X031901Y007187D01*
X031861Y007267D01*
X031941Y007227D01*
X032021Y007267D01*
X031981Y007187D01*
X032021Y007107D01*
X031941Y007147D01*
X031861Y007107D01*
X028861Y004707D02*
X028901Y004787D01*
X028861Y004867D01*
X028941Y004827D01*
X029021Y004867D01*
X028981Y004787D01*
X029021Y004707D01*
X028941Y004747D01*
X028861Y004707D01*
X028961Y005207D02*
X029001Y005287D01*
X028961Y005367D01*
X029041Y005327D01*
X029121Y005367D01*
X029081Y005287D01*
X029121Y005207D01*
X029041Y005247D01*
X028961Y005207D01*
X029411Y005657D02*
X029451Y005737D01*
X029411Y005817D01*
X029491Y005777D01*
X029571Y005817D01*
X029531Y005737D01*
X029571Y005657D01*
X029491Y005697D01*
X029411Y005657D01*
X030461Y006657D02*
X030501Y006737D01*
X030461Y006817D01*
X030541Y006777D01*
X030621Y006817D01*
X030581Y006737D01*
X030621Y006657D01*
X030541Y006697D01*
X030461Y006657D01*
X031061Y006607D02*
X031101Y006687D01*
X031061Y006767D01*
X031141Y006727D01*
X031221Y006767D01*
X031181Y006687D01*
X031221Y006607D01*
X031141Y006647D01*
X031061Y006607D01*
X031711Y010907D02*
X031751Y010987D01*
X031711Y011067D01*
X031791Y011027D01*
X031871Y011067D01*
X031831Y010987D01*
X031871Y010907D01*
X031791Y010947D01*
X031711Y010907D01*
X032211D02*
X032251Y010987D01*
X032211Y011067D01*
X032291Y011027D01*
X032371Y011067D01*
X032331Y010987D01*
X032371Y010907D01*
X032291Y010947D01*
X032211Y010907D01*
X033461D02*
X033501Y010987D01*
X033461Y011067D01*
X033541Y011027D01*
X033621Y011067D01*
X033581Y010987D01*
X033621Y010907D01*
X033541Y010947D01*
X033461Y010907D01*
X033411Y011357D02*
X033451Y011437D01*
X033411Y011517D01*
X033491Y011477D01*
X033571Y011517D01*
X033531Y011437D01*
X033571Y011357D01*
X033491Y011397D01*
X033411Y011357D01*
X031661Y011457D02*
X031701Y011537D01*
X031661Y011617D01*
X031741Y011577D01*
X031821Y011617D01*
X031781Y011537D01*
X031821Y011457D01*
X031741Y011497D01*
X031661Y011457D01*
Y012357D02*
X031701Y012437D01*
X031661Y012517D01*
X031741Y012477D01*
X031821Y012517D01*
X031781Y012437D01*
X031821Y012357D01*
X031741Y012397D01*
X031661Y012357D01*
X031811Y011907D02*
X031851Y011987D01*
X031811Y012067D01*
X031891Y012027D01*
X031971Y012067D01*
X031931Y011987D01*
X031971Y011907D01*
X031891Y011947D01*
X031811Y011907D01*
X033155Y009625D02*
X033195Y009665D01*
X033235D01*
X033195Y009705D01*
X033235Y009745D01*
X033195D01*
X033155Y009785D01*
X033115Y009745D01*
X033075D01*
X033115Y009705D01*
X033075Y009665D01*
X033115D01*
X033155Y009625D01*
X033449Y009686D02*
X033489Y009726D01*
X033529D01*
X033489Y009766D01*
X033529Y009806D01*
X033489D01*
X033449Y009846D01*
X033409Y009806D01*
X033369D01*
X033409Y009766D01*
X033369Y009726D01*
X033409D01*
X033449Y009686D01*
X033441Y010357D02*
X033481Y010397D01*
X033521D01*
X033481Y010437D01*
X033521Y010477D01*
X033481D01*
X033441Y010517D01*
X033401Y010477D01*
X033361D01*
X033401Y010437D01*
X033361Y010397D01*
X033401D01*
X033441Y010357D01*
X032891Y011507D02*
X032931Y011547D01*
X032971D01*
X032931Y011587D01*
X032971Y011627D01*
X032931D01*
X032891Y011667D01*
X032851Y011627D01*
X032811D01*
X032851Y011587D01*
X032811Y011547D01*
X032851D01*
X032891Y011507D01*
X028111Y006206D02*
X028151Y006286D01*
X028111Y006366D01*
X028191Y006326D01*
X028271Y006366D01*
X028231Y006286D01*
X028271Y006206D01*
X028191Y006246D01*
X028111Y006206D01*
X02856Y009957D02*
X0286Y010037D01*
X02856Y010117D01*
X02864Y010077D01*
X02872Y010117D01*
X02868Y010037D01*
X02872Y009957D01*
X02864Y009997D01*
X02856Y009957D01*
X031361Y008757D02*
X031401Y008837D01*
X031361Y008917D01*
X031441Y008877D01*
X031521Y008917D01*
X031481Y008837D01*
X031521Y008757D01*
X031441Y008797D01*
X031361Y008757D01*
X031461Y009257D02*
X031501Y009337D01*
X031461Y009417D01*
X031541Y009377D01*
X031621Y009417D01*
X031581Y009337D01*
X031621Y009257D01*
X031541Y009297D01*
X031461Y009257D01*
X031261Y010857D02*
X031301Y010937D01*
X031261Y011017D01*
X031341Y010977D01*
X031421Y011017D01*
X031381Y010937D01*
X031421Y010857D01*
X031341Y010897D01*
X031261Y010857D01*
X031011D02*
X031051Y010937D01*
X031011Y011017D01*
X031091Y010977D01*
X031171Y011017D01*
X031131Y010937D01*
X031171Y010857D01*
X031091Y010897D01*
X031011Y010857D01*
X030011Y011557D02*
X030051Y011637D01*
X030011Y011717D01*
X030091Y011677D01*
X030171Y011717D01*
X030131Y011637D01*
X030171Y011557D01*
X030091Y011597D01*
X030011Y011557D01*
Y011307D02*
X030051Y011387D01*
X030011Y011467D01*
X030091Y011427D01*
X030171Y011467D01*
X030131Y011387D01*
X030171Y011307D01*
X030091Y011347D01*
X030011Y011307D01*
X028861Y008157D02*
X028901Y008237D01*
X028861Y008317D01*
X028941Y008277D01*
X029021Y008317D01*
X028981Y008237D01*
X029021Y008157D01*
X028941Y008197D01*
X028861Y008157D01*
X028811Y007807D02*
X028851Y007887D01*
X028811Y007967D01*
X028891Y007927D01*
X028971Y007967D01*
X028931Y007887D01*
X028971Y007807D01*
X028891Y007847D01*
X028811Y007807D01*
X028661Y008007D02*
X028701Y008087D01*
X028661Y008167D01*
X028741Y008127D01*
X028821Y008167D01*
X028781Y008087D01*
X028821Y008007D01*
X028741Y008047D01*
X028661Y008007D01*
X027811Y010957D02*
X027851Y011037D01*
X027811Y011117D01*
X027891Y011077D01*
X027971Y011117D01*
X027931Y011037D01*
X027971Y010957D01*
X027891Y010997D01*
X027811Y010957D01*
X027511D02*
X027551Y011037D01*
X027511Y011117D01*
X027591Y011077D01*
X027671Y011117D01*
X027631Y011037D01*
X027671Y010957D01*
X027591Y010997D01*
X027511Y010957D01*
X027561Y010207D02*
X027601Y010287D01*
X027561Y010367D01*
X027641Y010327D01*
X027721Y010367D01*
X027681Y010287D01*
X027721Y010207D01*
X027641Y010247D01*
X027561Y010207D01*
X030511Y008707D02*
X030551Y008787D01*
X030511Y008867D01*
X030591Y008827D01*
X030671Y008867D01*
X030631Y008787D01*
X030671Y008707D01*
X030591Y008747D01*
X030511Y008707D01*
X028711Y009057D02*
X028751Y009137D01*
X028711Y009217D01*
X028791Y009177D01*
X028871Y009217D01*
X028831Y009137D01*
X028871Y009057D01*
X028791Y009097D01*
X028711Y009057D01*
X027411Y007307D02*
X027451Y007387D01*
X027411Y007467D01*
X027491Y007427D01*
X027571Y007467D01*
X027531Y007387D01*
X027571Y007307D01*
X027491Y007347D01*
X027411Y007307D01*
X024461Y006807D02*
X024501Y006887D01*
X024461Y006967D01*
X024541Y006927D01*
X024621Y006967D01*
X024581Y006887D01*
X024621Y006807D01*
X024541Y006847D01*
X024461Y006807D01*
X023861Y008557D02*
X023901Y008637D01*
X023861Y008717D01*
X023941Y008677D01*
X024021Y008717D01*
X023981Y008637D01*
X024021Y008557D01*
X023941Y008597D01*
X023861Y008557D01*
X026661Y005207D02*
X026701Y005287D01*
X026661Y005367D01*
X026741Y005327D01*
X026821Y005367D01*
X026781Y005287D01*
X026821Y005207D01*
X026741Y005247D01*
X026661Y005207D01*
X026811Y005382D02*
X026851Y005462D01*
X026811Y005542D01*
X026891Y005502D01*
X026971Y005542D01*
X026931Y005462D01*
X026971Y005382D01*
X026891Y005422D01*
X026811Y005382D01*
X024961Y006707D02*
X025001Y006787D01*
X024961Y006867D01*
X025041Y006827D01*
X025121Y006867D01*
X025081Y006787D01*
X025121Y006707D01*
X025041Y006747D01*
X024961Y006707D01*
X022311Y008957D02*
X022351Y009037D01*
X022311Y009117D01*
X022391Y009077D01*
X022471Y009117D01*
X022431Y009037D01*
X022471Y008957D01*
X022391Y008997D01*
X022311Y008957D01*
X022274Y009744D02*
X022314Y009824D01*
X022274Y009904D01*
X022354Y009864D01*
X022434Y009904D01*
X022394Y009824D01*
X022434Y009744D01*
X022354Y009784D01*
X022274Y009744D01*
X022111Y008057D02*
X022151Y008137D01*
X022111Y008217D01*
X022191Y008177D01*
X022271Y008217D01*
X022231Y008137D01*
X022271Y008057D01*
X022191Y008097D01*
X022111Y008057D01*
X024561Y005707D02*
X024601Y005787D01*
X024561Y005867D01*
X024641Y005827D01*
X024721Y005867D01*
X024681Y005787D01*
X024721Y005707D01*
X024641Y005747D01*
X024561Y005707D01*
X024511Y006207D02*
X024551Y006287D01*
X024511Y006367D01*
X024591Y006327D01*
X024671Y006367D01*
X024631Y006287D01*
X024671Y006207D01*
X024591Y006247D01*
X024511Y006207D01*
X022461Y008057D02*
X022501Y008137D01*
X022461Y008217D01*
X022541Y008177D01*
X022621Y008217D01*
X022581Y008137D01*
X022621Y008057D01*
X022541Y008097D01*
X022461Y008057D01*
X025161Y008007D02*
X025201Y008087D01*
X025161Y008167D01*
X025241Y008127D01*
X025321Y008167D01*
X025281Y008087D01*
X025321Y008007D01*
X025241Y008047D01*
X025161Y008007D01*
X024111Y014007D02*
X024151Y014087D01*
X024111Y014167D01*
X024191Y014127D01*
X024271Y014167D01*
X024231Y014087D01*
X024271Y014007D01*
X024191Y014047D01*
X024111Y014007D01*
X024361D02*
X024401Y014087D01*
X024361Y014167D01*
X024441Y014127D01*
X024521Y014167D01*
X024481Y014087D01*
X024521Y014007D01*
X024441Y014047D01*
X024361Y014007D01*
X022011Y012657D02*
X022051Y012737D01*
X022011Y012817D01*
X022091Y012777D01*
X022171Y012817D01*
X022131Y012737D01*
X022171Y012657D01*
X022091Y012697D01*
X022011Y012657D01*
X024111Y008307D02*
X024151Y008387D01*
X024111Y008467D01*
X024191Y008427D01*
X024271Y008467D01*
X024231Y008387D01*
X024271Y008307D01*
X024191Y008347D01*
X024111Y008307D01*
Y008557D02*
X024151Y008637D01*
X024111Y008717D01*
X024191Y008677D01*
X024271Y008717D01*
X024231Y008637D01*
X024271Y008557D01*
X024191Y008597D01*
X024111Y008557D01*
X023861Y008307D02*
X023901Y008387D01*
X023861Y008467D01*
X023941Y008427D01*
X024021Y008467D01*
X023981Y008387D01*
X024021Y008307D01*
X023941Y008347D01*
X023861Y008307D01*
X024361Y013757D02*
X024401Y013837D01*
X024361Y013917D01*
X024441Y013877D01*
X024521Y013917D01*
X024481Y013837D01*
X024521Y013757D01*
X024441Y013797D01*
X024361Y013757D01*
X024111Y01374D02*
X024151Y01382D01*
X024111Y0139D01*
X024191Y01386D01*
X024271Y0139D01*
X024231Y01382D01*
X024271Y01374D01*
X024191Y01378D01*
X024111Y01374D01*
X022111Y007807D02*
X022151Y007887D01*
X022111Y007967D01*
X022191Y007927D01*
X022271Y007967D01*
X022231Y007887D01*
X022271Y007807D01*
X022191Y007847D01*
X022111Y007807D01*
X022461D02*
X022501Y007887D01*
X022461Y007967D01*
X022541Y007927D01*
X022621Y007967D01*
X022581Y007887D01*
X022621Y007807D01*
X022541Y007847D01*
X022461Y007807D01*
Y010807D02*
X022501Y010887D01*
X022461Y010967D01*
X022541Y010927D01*
X022621Y010967D01*
X022581Y010887D01*
X022621Y010807D01*
X022541Y010847D01*
X022461Y010807D01*
X022111Y010557D02*
X022151Y010637D01*
X022111Y010717D01*
X022191Y010677D01*
X022271Y010717D01*
X022231Y010637D01*
X022271Y010557D01*
X022191Y010597D01*
X022111Y010557D01*
X022461D02*
X022501Y010637D01*
X022461Y010717D01*
X022541Y010677D01*
X022621Y010717D01*
X022581Y010637D01*
X022621Y010557D01*
X022541Y010597D01*
X022461Y010557D01*
X022111Y010807D02*
X022151Y010887D01*
X022111Y010967D01*
X022191Y010927D01*
X022271Y010967D01*
X022231Y010887D01*
X022271Y010807D01*
X022191Y010847D01*
X022111Y010807D01*
X025711Y008557D02*
X025751Y008637D01*
X025711Y008717D01*
X025791Y008677D01*
X025871Y008717D01*
X025831Y008637D01*
X025871Y008557D01*
X025791Y008597D01*
X025711Y008557D01*
X028861Y009957D02*
X028901Y010037D01*
X028861Y010117D01*
X028941Y010077D01*
X029021Y010117D01*
X028981Y010037D01*
X029021Y009957D01*
X028941Y009997D01*
X028861Y009957D01*
X028961Y009257D02*
X029001Y009337D01*
X028961Y009417D01*
X029041Y009377D01*
X029121Y009417D01*
X029081Y009337D01*
X029121Y009257D01*
X029041Y009297D01*
X028961Y009257D01*
X004701Y010221D02*
Y010381D01*
X004861D01*
Y010221D01*
X004701D01*
X004701Y008449D02*
Y008609D01*
X004861D01*
Y008449D01*
X004701D01*
X005137Y009357D02*
X005057Y009517D01*
X005217D01*
X005137Y009357D01*
X005487Y007307D02*
X005407Y007467D01*
X005567D01*
X005487Y007307D01*
X004887D02*
X004807Y007467D01*
X004967D01*
X004887Y007307D01*
X016837Y013807D02*
X016877Y013847D01*
X016917D01*
X016877Y013887D01*
X016917Y013927D01*
X016877D01*
X016837Y013967D01*
X016797Y013927D01*
X016757D01*
X016797Y013887D01*
X016757Y013847D01*
X016797D01*
X016837Y013807D01*
Y012847D02*
X016877Y012887D01*
X016917D01*
X016877Y012927D01*
X016917Y012967D01*
X016877D01*
X016837Y013007D01*
X016797Y012967D01*
X016757D01*
X016797Y012927D01*
X016757Y012887D01*
X016797D01*
X016837Y012847D01*
Y011887D02*
X016877Y011927D01*
X016917D01*
X016877Y011967D01*
X016917Y012007D01*
X016877D01*
X016837Y012047D01*
X016797Y012007D01*
X016757D01*
X016797Y011967D01*
X016757Y011927D01*
X016797D01*
X016837Y011887D01*
Y007087D02*
X016877Y007127D01*
X016917D01*
X016877Y007167D01*
X016917Y007207D01*
X016877D01*
X016837Y007247D01*
X016797Y007207D01*
X016757D01*
X016797Y007167D01*
X016757Y007127D01*
X016797D01*
X016837Y007087D01*
Y006127D02*
X016877Y006167D01*
X016917D01*
X016877Y006207D01*
X016917Y006247D01*
X016877D01*
X016837Y006287D01*
X016797Y006247D01*
X016757D01*
X016797Y006207D01*
X016757Y006167D01*
X016797D01*
X016837Y006127D01*
Y005167D02*
X016877Y005207D01*
X016917D01*
X016877Y005247D01*
X016917Y005287D01*
X016877D01*
X016837Y005327D01*
X016797Y005287D01*
X016757D01*
X016797Y005247D01*
X016757Y005207D01*
X016797D01*
X016837Y005167D01*
Y004207D02*
X016877Y004247D01*
X016917D01*
X016877Y004287D01*
X016917Y004327D01*
X016877D01*
X016837Y004367D01*
X016797Y004327D01*
X016757D01*
X016797Y004287D01*
X016757Y004247D01*
X016797D01*
X016837Y004207D01*
X016357Y013807D02*
X016397Y013847D01*
X016437D01*
X016397Y013887D01*
X016437Y013927D01*
X016397D01*
X016357Y013967D01*
X016317Y013927D01*
X016277D01*
X016317Y013887D01*
X016277Y013847D01*
X016317D01*
X016357Y013807D01*
X016597Y013327D02*
X016637Y013367D01*
X016677D01*
X016637Y013407D01*
X016677Y013447D01*
X016637D01*
X016597Y013487D01*
X016557Y013447D01*
X016517D01*
X016557Y013407D01*
X016517Y013367D01*
X016557D01*
X016597Y013327D01*
X016357Y012847D02*
X016397Y012887D01*
X016437D01*
X016397Y012927D01*
X016437Y012967D01*
X016397D01*
X016357Y013007D01*
X016317Y012967D01*
X016277D01*
X016317Y012927D01*
X016277Y012887D01*
X016317D01*
X016357Y012847D01*
X016597Y012367D02*
X016637Y012407D01*
X016677D01*
X016637Y012447D01*
X016677Y012487D01*
X016637D01*
X016597Y012527D01*
X016557Y012487D01*
X016517D01*
X016557Y012447D01*
X016517Y012407D01*
X016557D01*
X016597Y012367D01*
X016357Y011887D02*
X016397Y011927D01*
X016437D01*
X016397Y011967D01*
X016437Y012007D01*
X016397D01*
X016357Y012047D01*
X016317Y012007D01*
X016277D01*
X016317Y011967D01*
X016277Y011927D01*
X016317D01*
X016357Y011887D01*
X016597Y007567D02*
X016637Y007607D01*
X016677D01*
X016637Y007647D01*
X016677Y007687D01*
X016637D01*
X016597Y007727D01*
X016557Y007687D01*
X016517D01*
X016557Y007647D01*
X016517Y007607D01*
X016557D01*
X016597Y007567D01*
X016357Y007087D02*
X016397Y007127D01*
X016437D01*
X016397Y007167D01*
X016437Y007207D01*
X016397D01*
X016357Y007247D01*
X016317Y007207D01*
X016277D01*
X016317Y007167D01*
X016277Y007127D01*
X016317D01*
X016357Y007087D01*
X016597Y006607D02*
X016637Y006647D01*
X016677D01*
X016637Y006687D01*
X016677Y006727D01*
X016637D01*
X016597Y006767D01*
X016557Y006727D01*
X016517D01*
X016557Y006687D01*
X016517Y006647D01*
X016557D01*
X016597Y006607D01*
X016357Y006127D02*
X016397Y006167D01*
X016437D01*
X016397Y006207D01*
X016437Y006247D01*
X016397D01*
X016357Y006287D01*
X016317Y006247D01*
X016277D01*
X016317Y006207D01*
X016277Y006167D01*
X016317D01*
X016357Y006127D01*
X016597Y005647D02*
X016637Y005687D01*
X016677D01*
X016637Y005727D01*
X016677Y005767D01*
X016637D01*
X016597Y005807D01*
X016557Y005767D01*
X016517D01*
X016557Y005727D01*
X016517Y005687D01*
X016557D01*
X016597Y005647D01*
X016357Y005167D02*
X016397Y005207D01*
X016437D01*
X016397Y005247D01*
X016437Y005287D01*
X016397D01*
X016357Y005327D01*
X016317Y005287D01*
X016277D01*
X016317Y005247D01*
X016277Y005207D01*
X016317D01*
X016357Y005167D01*
X016597Y004687D02*
X016637Y004727D01*
X016677D01*
X016637Y004767D01*
X016677Y004807D01*
X016637D01*
X016597Y004847D01*
X016557Y004807D01*
X016517D01*
X016557Y004767D01*
X016517Y004727D01*
X016557D01*
X016597Y004687D01*
X016357Y004207D02*
X016397Y004247D01*
X016437D01*
X016397Y004287D01*
X016437Y004327D01*
X016397D01*
X016357Y004367D01*
X016317Y004327D01*
X016277D01*
X016317Y004287D01*
X016277Y004247D01*
X016317D01*
X016357Y004207D01*
X015877Y013807D02*
X015917Y013847D01*
X015957D01*
X015917Y013887D01*
X015957Y013927D01*
X015917D01*
X015877Y013967D01*
X015837Y013927D01*
X015797D01*
X015837Y013887D01*
X015797Y013847D01*
X015837D01*
X015877Y013807D01*
X016117Y013327D02*
X016157Y013367D01*
X016197D01*
X016157Y013407D01*
X016197Y013447D01*
X016157D01*
X016117Y013487D01*
X016077Y013447D01*
X016037D01*
X016077Y013407D01*
X016037Y013367D01*
X016077D01*
X016117Y013327D01*
X015877Y012847D02*
X015917Y012887D01*
X015957D01*
X015917Y012927D01*
X015957Y012967D01*
X015917D01*
X015877Y013007D01*
X015837Y012967D01*
X015797D01*
X015837Y012927D01*
X015797Y012887D01*
X015837D01*
X015877Y012847D01*
X016117Y012367D02*
X016157Y012407D01*
X016197D01*
X016157Y012447D01*
X016197Y012487D01*
X016157D01*
X016117Y012527D01*
X016077Y012487D01*
X016037D01*
X016077Y012447D01*
X016037Y012407D01*
X016077D01*
X016117Y012367D01*
X015877Y011887D02*
X015917Y011927D01*
X015957D01*
X015917Y011967D01*
X015957Y012007D01*
X015917D01*
X015877Y012047D01*
X015837Y012007D01*
X015797D01*
X015837Y011967D01*
X015797Y011927D01*
X015837D01*
X015877Y011887D01*
Y007087D02*
X015917Y007127D01*
X015957D01*
X015917Y007167D01*
X015957Y007207D01*
X015917D01*
X015877Y007247D01*
X015837Y007207D01*
X015797D01*
X015837Y007167D01*
X015797Y007127D01*
X015837D01*
X015877Y007087D01*
X016117Y006607D02*
X016157Y006647D01*
X016197D01*
X016157Y006687D01*
X016197Y006727D01*
X016157D01*
X016117Y006767D01*
X016077Y006727D01*
X016037D01*
X016077Y006687D01*
X016037Y006647D01*
X016077D01*
X016117Y006607D01*
X015877Y006127D02*
X015917Y006167D01*
X015957D01*
X015917Y006207D01*
X015957Y006247D01*
X015917D01*
X015877Y006287D01*
X015837Y006247D01*
X015797D01*
X015837Y006207D01*
X015797Y006167D01*
X015837D01*
X015877Y006127D01*
X016117Y005647D02*
X016157Y005687D01*
X016197D01*
X016157Y005727D01*
X016197Y005767D01*
X016157D01*
X016117Y005807D01*
X016077Y005767D01*
X016037D01*
X016077Y005727D01*
X016037Y005687D01*
X016077D01*
X016117Y005647D01*
X015877Y005167D02*
X015917Y005207D01*
X015957D01*
X015917Y005247D01*
X015957Y005287D01*
X015917D01*
X015877Y005327D01*
X015837Y005287D01*
X015797D01*
X015837Y005247D01*
X015797Y005207D01*
X015837D01*
X015877Y005167D01*
X016117Y004687D02*
X016157Y004727D01*
X016197D01*
X016157Y004767D01*
X016197Y004807D01*
X016157D01*
X016117Y004847D01*
X016077Y004807D01*
X016037D01*
X016077Y004767D01*
X016037Y004727D01*
X016077D01*
X016117Y004687D01*
X015877Y004207D02*
X015917Y004247D01*
X015957D01*
X015917Y004287D01*
X015957Y004327D01*
X015917D01*
X015877Y004367D01*
X015837Y004327D01*
X015797D01*
X015837Y004287D01*
X015797Y004247D01*
X015837D01*
X015877Y004207D01*
X015397Y013807D02*
X015437Y013847D01*
X015477D01*
X015437Y013887D01*
X015477Y013927D01*
X015437D01*
X015397Y013967D01*
X015357Y013927D01*
X015317D01*
X015357Y013887D01*
X015317Y013847D01*
X015357D01*
X015397Y013807D01*
X015637Y013327D02*
X015677Y013367D01*
X015717D01*
X015677Y013407D01*
X015717Y013447D01*
X015677D01*
X015637Y013487D01*
X015597Y013447D01*
X015557D01*
X015597Y013407D01*
X015557Y013367D01*
X015597D01*
X015637Y013327D01*
X015397Y012847D02*
X015437Y012887D01*
X015477D01*
X015437Y012927D01*
X015477Y012967D01*
X015437D01*
X015397Y013007D01*
X015357Y012967D01*
X015317D01*
X015357Y012927D01*
X015317Y012887D01*
X015357D01*
X015397Y012847D01*
X015637Y012367D02*
X015677Y012407D01*
X015717D01*
X015677Y012447D01*
X015717Y012487D01*
X015677D01*
X015637Y012527D01*
X015597Y012487D01*
X015557D01*
X015597Y012447D01*
X015557Y012407D01*
X015597D01*
X015637Y012367D01*
Y011407D02*
X015677Y011447D01*
X015717D01*
X015677Y011487D01*
X015717Y011527D01*
X015677D01*
X015637Y011567D01*
X015597Y011527D01*
X015557D01*
X015597Y011487D01*
X015557Y011447D01*
X015597D01*
X015637Y011407D01*
Y006607D02*
X015677Y006647D01*
X015717D01*
X015677Y006687D01*
X015717Y006727D01*
X015677D01*
X015637Y006767D01*
X015597Y006727D01*
X015557D01*
X015597Y006687D01*
X015557Y006647D01*
X015597D01*
X015637Y006607D01*
X015397Y006127D02*
X015437Y006167D01*
X015477D01*
X015437Y006207D01*
X015477Y006247D01*
X015437D01*
X015397Y006287D01*
X015357Y006247D01*
X015317D01*
X015357Y006207D01*
X015317Y006167D01*
X015357D01*
X015397Y006127D01*
X015637Y005647D02*
X015677Y005687D01*
X015717D01*
X015677Y005727D01*
X015717Y005767D01*
X015677D01*
X015637Y005807D01*
X015597Y005767D01*
X015557D01*
X015597Y005727D01*
X015557Y005687D01*
X015597D01*
X015637Y005647D01*
X015397Y005167D02*
X015437Y005207D01*
X015477D01*
X015437Y005247D01*
X015477Y005287D01*
X015437D01*
X015397Y005327D01*
X015357Y005287D01*
X015317D01*
X015357Y005247D01*
X015317Y005207D01*
X015357D01*
X015397Y005167D01*
X015637Y004687D02*
X015677Y004727D01*
X015717D01*
X015677Y004767D01*
X015717Y004807D01*
X015677D01*
X015637Y004847D01*
X015597Y004807D01*
X015557D01*
X015597Y004767D01*
X015557Y004727D01*
X015597D01*
X015637Y004687D01*
X015397Y004207D02*
X015437Y004247D01*
X015477D01*
X015437Y004287D01*
X015477Y004327D01*
X015437D01*
X015397Y004367D01*
X015357Y004327D01*
X015317D01*
X015357Y004287D01*
X015317Y004247D01*
X015357D01*
X015397Y004207D01*
X014917Y013807D02*
X014957Y013847D01*
X014997D01*
X014957Y013887D01*
X014997Y013927D01*
X014957D01*
X014917Y013967D01*
X014877Y013927D01*
X014837D01*
X014877Y013887D01*
X014837Y013847D01*
X014877D01*
X014917Y013807D01*
X015157Y013327D02*
X015197Y013367D01*
X015237D01*
X015197Y013407D01*
X015237Y013447D01*
X015197D01*
X015157Y013487D01*
X015117Y013447D01*
X015077D01*
X015117Y013407D01*
X015077Y013367D01*
X015117D01*
X015157Y013327D01*
X014917Y012847D02*
X014957Y012887D01*
X014997D01*
X014957Y012927D01*
X014997Y012967D01*
X014957D01*
X014917Y013007D01*
X014877Y012967D01*
X014837D01*
X014877Y012927D01*
X014837Y012887D01*
X014877D01*
X014917Y012847D01*
X015157Y006607D02*
X015197Y006647D01*
X015237D01*
X015197Y006687D01*
X015237Y006727D01*
X015197D01*
X015157Y006767D01*
X015117Y006727D01*
X015077D01*
X015117Y006687D01*
X015077Y006647D01*
X015117D01*
X015157Y006607D01*
X014917Y006127D02*
X014957Y006167D01*
X014997D01*
X014957Y006207D01*
X014997Y006247D01*
X014957D01*
X014917Y006287D01*
X014877Y006247D01*
X014837D01*
X014877Y006207D01*
X014837Y006167D01*
X014877D01*
X014917Y006127D01*
X015157Y005647D02*
X015197Y005687D01*
X015237D01*
X015197Y005727D01*
X015237Y005767D01*
X015197D01*
X015157Y005807D01*
X015117Y005767D01*
X015077D01*
X015117Y005727D01*
X015077Y005687D01*
X015117D01*
X015157Y005647D01*
X014917Y005167D02*
X014957Y005207D01*
X014997D01*
X014957Y005247D01*
X014997Y005287D01*
X014957D01*
X014917Y005327D01*
X014877Y005287D01*
X014837D01*
X014877Y005247D01*
X014837Y005207D01*
X014877D01*
X014917Y005167D01*
X015157Y004687D02*
X015197Y004727D01*
X015237D01*
X015197Y004767D01*
X015237Y004807D01*
X015197D01*
X015157Y004847D01*
X015117Y004807D01*
X015077D01*
X015117Y004767D01*
X015077Y004727D01*
X015117D01*
X015157Y004687D01*
X014917Y004207D02*
X014957Y004247D01*
X014997D01*
X014957Y004287D01*
X014997Y004327D01*
X014957D01*
X014917Y004367D01*
X014877Y004327D01*
X014837D01*
X014877Y004287D01*
X014837Y004247D01*
X014877D01*
X014917Y004207D01*
X014437Y013807D02*
X014477Y013847D01*
X014517D01*
X014477Y013887D01*
X014517Y013927D01*
X014477D01*
X014437Y013967D01*
X014397Y013927D01*
X014357D01*
X014397Y013887D01*
X014357Y013847D01*
X014397D01*
X014437Y013807D01*
X014677Y013327D02*
X014717Y013367D01*
X014757D01*
X014717Y013407D01*
X014757Y013447D01*
X014717D01*
X014677Y013487D01*
X014637Y013447D01*
X014597D01*
X014637Y013407D01*
X014597Y013367D01*
X014637D01*
X014677Y013327D01*
X014437Y012847D02*
X014477Y012887D01*
X014517D01*
X014477Y012927D01*
X014517Y012967D01*
X014477D01*
X014437Y013007D01*
X014397Y012967D01*
X014357D01*
X014397Y012927D01*
X014357Y012887D01*
X014397D01*
X014437Y012847D01*
Y006127D02*
X014477Y006167D01*
X014517D01*
X014477Y006207D01*
X014517Y006247D01*
X014477D01*
X014437Y006287D01*
X014397Y006247D01*
X014357D01*
X014397Y006207D01*
X014357Y006167D01*
X014397D01*
X014437Y006127D01*
X014677Y005647D02*
X014717Y005687D01*
X014757D01*
X014717Y005727D01*
X014757Y005767D01*
X014717D01*
X014677Y005807D01*
X014637Y005767D01*
X014597D01*
X014637Y005727D01*
X014597Y005687D01*
X014637D01*
X014677Y005647D01*
X014437Y005167D02*
X014477Y005207D01*
X014517D01*
X014477Y005247D01*
X014517Y005287D01*
X014477D01*
X014437Y005327D01*
X014397Y005287D01*
X014357D01*
X014397Y005247D01*
X014357Y005207D01*
X014397D01*
X014437Y005167D01*
X014677Y004687D02*
X014717Y004727D01*
X014757D01*
X014717Y004767D01*
X014757Y004807D01*
X014717D01*
X014677Y004847D01*
X014637Y004807D01*
X014597D01*
X014637Y004767D01*
X014597Y004727D01*
X014637D01*
X014677Y004687D01*
X014437Y004207D02*
X014477Y004247D01*
X014517D01*
X014477Y004287D01*
X014517Y004327D01*
X014477D01*
X014437Y004367D01*
X014397Y004327D01*
X014357D01*
X014397Y004287D01*
X014357Y004247D01*
X014397D01*
X014437Y004207D01*
X013957Y013807D02*
X013997Y013847D01*
X014037D01*
X013997Y013887D01*
X014037Y013927D01*
X013997D01*
X013957Y013967D01*
X013917Y013927D01*
X013877D01*
X013917Y013887D01*
X013877Y013847D01*
X013917D01*
X013957Y013807D01*
X014197Y013327D02*
X014237Y013367D01*
X014277D01*
X014237Y013407D01*
X014277Y013447D01*
X014237D01*
X014197Y013487D01*
X014157Y013447D01*
X014117D01*
X014157Y013407D01*
X014117Y013367D01*
X014157D01*
X014197Y013327D01*
X013957Y012847D02*
X013997Y012887D01*
X014037D01*
X013997Y012927D01*
X014037Y012967D01*
X013997D01*
X013957Y013007D01*
X013917Y012967D01*
X013877D01*
X013917Y012927D01*
X013877Y012887D01*
X013917D01*
X013957Y012847D01*
X014197Y005647D02*
X014237Y005687D01*
X014277D01*
X014237Y005727D01*
X014277Y005767D01*
X014237D01*
X014197Y005807D01*
X014157Y005767D01*
X014117D01*
X014157Y005727D01*
X014117Y005687D01*
X014157D01*
X014197Y005647D01*
X013957Y005167D02*
X013997Y005207D01*
X014037D01*
X013997Y005247D01*
X014037Y005287D01*
X013997D01*
X013957Y005327D01*
X013917Y005287D01*
X013877D01*
X013917Y005247D01*
X013877Y005207D01*
X013917D01*
X013957Y005167D01*
X014197Y004687D02*
X014237Y004727D01*
X014277D01*
X014237Y004767D01*
X014277Y004807D01*
X014237D01*
X014197Y004847D01*
X014157Y004807D01*
X014117D01*
X014157Y004767D01*
X014117Y004727D01*
X014157D01*
X014197Y004687D01*
X013957Y004207D02*
X013997Y004247D01*
X014037D01*
X013997Y004287D01*
X014037Y004327D01*
X013997D01*
X013957Y004367D01*
X013917Y004327D01*
X013877D01*
X013917Y004287D01*
X013877Y004247D01*
X013917D01*
X013957Y004207D01*
X013477Y013807D02*
X013517Y013847D01*
X013557D01*
X013517Y013887D01*
X013557Y013927D01*
X013517D01*
X013477Y013967D01*
X013437Y013927D01*
X013397D01*
X013437Y013887D01*
X013397Y013847D01*
X013437D01*
X013477Y013807D01*
X013717Y013327D02*
X013757Y013367D01*
X013797D01*
X013757Y013407D01*
X013797Y013447D01*
X013757D01*
X013717Y013487D01*
X013677Y013447D01*
X013637D01*
X013677Y013407D01*
X013637Y013367D01*
X013677D01*
X013717Y013327D01*
X013477Y012847D02*
X013517Y012887D01*
X013557D01*
X013517Y012927D01*
X013557Y012967D01*
X013517D01*
X013477Y013007D01*
X013437Y012967D01*
X013397D01*
X013437Y012927D01*
X013397Y012887D01*
X013437D01*
X013477Y012847D01*
X013717Y005647D02*
X013757Y005687D01*
X013797D01*
X013757Y005727D01*
X013797Y005767D01*
X013757D01*
X013717Y005807D01*
X013677Y005767D01*
X013637D01*
X013677Y005727D01*
X013637Y005687D01*
X013677D01*
X013717Y005647D01*
X013477Y005167D02*
X013517Y005207D01*
X013557D01*
X013517Y005247D01*
X013557Y005287D01*
X013517D01*
X013477Y005327D01*
X013437Y005287D01*
X013397D01*
X013437Y005247D01*
X013397Y005207D01*
X013437D01*
X013477Y005167D01*
X013717Y004687D02*
X013757Y004727D01*
X013797D01*
X013757Y004767D01*
X013797Y004807D01*
X013757D01*
X013717Y004847D01*
X013677Y004807D01*
X013637D01*
X013677Y004767D01*
X013637Y004727D01*
X013677D01*
X013717Y004687D01*
X013477Y004207D02*
X013517Y004247D01*
X013557D01*
X013517Y004287D01*
X013557Y004327D01*
X013517D01*
X013477Y004367D01*
X013437Y004327D01*
X013397D01*
X013437Y004287D01*
X013397Y004247D01*
X013437D01*
X013477Y004207D01*
X012997Y013807D02*
X013037Y013847D01*
X013077D01*
X013037Y013887D01*
X013077Y013927D01*
X013037D01*
X012997Y013967D01*
X012957Y013927D01*
X012917D01*
X012957Y013887D01*
X012917Y013847D01*
X012957D01*
X012997Y013807D01*
X013237Y013327D02*
X013277Y013367D01*
X013317D01*
X013277Y013407D01*
X013317Y013447D01*
X013277D01*
X013237Y013487D01*
X013197Y013447D01*
X013157D01*
X013197Y013407D01*
X013157Y013367D01*
X013197D01*
X013237Y013327D01*
X012997Y012847D02*
X013037Y012887D01*
X013077D01*
X013037Y012927D01*
X013077Y012967D01*
X013037D01*
X012997Y013007D01*
X012957Y012967D01*
X012917D01*
X012957Y012927D01*
X012917Y012887D01*
X012957D01*
X012997Y012847D01*
Y005167D02*
X013037Y005207D01*
X013077D01*
X013037Y005247D01*
X013077Y005287D01*
X013037D01*
X012997Y005327D01*
X012957Y005287D01*
X012917D01*
X012957Y005247D01*
X012917Y005207D01*
X012957D01*
X012997Y005167D01*
X013237Y004687D02*
X013277Y004727D01*
X013317D01*
X013277Y004767D01*
X013317Y004807D01*
X013277D01*
X013237Y004847D01*
X013197Y004807D01*
X013157D01*
X013197Y004767D01*
X013157Y004727D01*
X013197D01*
X013237Y004687D01*
X012997Y004207D02*
X013037Y004247D01*
X013077D01*
X013037Y004287D01*
X013077Y004327D01*
X013037D01*
X012997Y004367D01*
X012957Y004327D01*
X012917D01*
X012957Y004287D01*
X012917Y004247D01*
X012957D01*
X012997Y004207D01*
X012517Y013807D02*
X012557Y013847D01*
X012597D01*
X012557Y013887D01*
X012597Y013927D01*
X012557D01*
X012517Y013967D01*
X012477Y013927D01*
X012437D01*
X012477Y013887D01*
X012437Y013847D01*
X012477D01*
X012517Y013807D01*
X012757Y013327D02*
X012797Y013367D01*
X012837D01*
X012797Y013407D01*
X012837Y013447D01*
X012797D01*
X012757Y013487D01*
X012717Y013447D01*
X012677D01*
X012717Y013407D01*
X012677Y013367D01*
X012717D01*
X012757Y013327D01*
X012517Y012847D02*
X012557Y012887D01*
X012597D01*
X012557Y012927D01*
X012597Y012967D01*
X012557D01*
X012517Y013007D01*
X012477Y012967D01*
X012437D01*
X012477Y012927D01*
X012437Y012887D01*
X012477D01*
X012517Y012847D01*
X012757Y004687D02*
X012797Y004727D01*
X012837D01*
X012797Y004767D01*
X012837Y004807D01*
X012797D01*
X012757Y004847D01*
X012717Y004807D01*
X012677D01*
X012717Y004767D01*
X012677Y004727D01*
X012717D01*
X012757Y004687D01*
X012517Y004207D02*
X012557Y004247D01*
X012597D01*
X012557Y004287D01*
X012597Y004327D01*
X012557D01*
X012517Y004367D01*
X012477Y004327D01*
X012437D01*
X012477Y004287D01*
X012437Y004247D01*
X012477D01*
X012517Y004207D01*
X012037Y013807D02*
X012077Y013847D01*
X012117D01*
X012077Y013887D01*
X012117Y013927D01*
X012077D01*
X012037Y013967D01*
X011997Y013927D01*
X011957D01*
X011997Y013887D01*
X011957Y013847D01*
X011997D01*
X012037Y013807D01*
X012277Y013327D02*
X012317Y013367D01*
X012357D01*
X012317Y013407D01*
X012357Y013447D01*
X012317D01*
X012277Y013487D01*
X012237Y013447D01*
X012197D01*
X012237Y013407D01*
X012197Y013367D01*
X012237D01*
X012277Y013327D01*
X012037Y012847D02*
X012077Y012887D01*
X012117D01*
X012077Y012927D01*
X012117Y012967D01*
X012077D01*
X012037Y013007D01*
X011997Y012967D01*
X011957D01*
X011997Y012927D01*
X011957Y012887D01*
X011997D01*
X012037Y012847D01*
Y004207D02*
X012077Y004247D01*
X012117D01*
X012077Y004287D01*
X012117Y004327D01*
X012077D01*
X012037Y004367D01*
X011997Y004327D01*
X011957D01*
X011997Y004287D01*
X011957Y004247D01*
X011997D01*
X012037Y004207D01*
X011557Y013807D02*
X011597Y013847D01*
X011637D01*
X011597Y013887D01*
X011637Y013927D01*
X011597D01*
X011557Y013967D01*
X011517Y013927D01*
X011477D01*
X011517Y013887D01*
X011477Y013847D01*
X011517D01*
X011557Y013807D01*
X011797Y013327D02*
X011837Y013367D01*
X011877D01*
X011837Y013407D01*
X011877Y013447D01*
X011837D01*
X011797Y013487D01*
X011757Y013447D01*
X011717D01*
X011757Y013407D01*
X011717Y013367D01*
X011757D01*
X011797Y013327D01*
Y004687D02*
X011837Y004727D01*
X011877D01*
X011837Y004767D01*
X011877Y004807D01*
X011837D01*
X011797Y004847D01*
X011757Y004807D01*
X011717D01*
X011757Y004767D01*
X011717Y004727D01*
X011757D01*
X011797Y004687D01*
X011557Y004207D02*
X011597Y004247D01*
X011637D01*
X011597Y004287D01*
X011637Y004327D01*
X011597D01*
X011557Y004367D01*
X011517Y004327D01*
X011477D01*
X011517Y004287D01*
X011477Y004247D01*
X011517D01*
X011557Y004207D01*
X011077Y005167D02*
X011117Y005207D01*
X011157D01*
X011117Y005247D01*
X011157Y005287D01*
X011117D01*
X011077Y005327D01*
X011037Y005287D01*
X010997D01*
X011037Y005247D01*
X010997Y005207D01*
X011037D01*
X011077Y005167D01*
X011317Y004687D02*
X011357Y004727D01*
X011397D01*
X011357Y004767D01*
X011397Y004807D01*
X011357D01*
X011317Y004847D01*
X011277Y004807D01*
X011237D01*
X011277Y004767D01*
X011237Y004727D01*
X011277D01*
X011317Y004687D01*
X011077Y004207D02*
X011117Y004247D01*
X011157D01*
X011117Y004287D01*
X011157Y004327D01*
X011117D01*
X011077Y004367D01*
X011037Y004327D01*
X010997D01*
X011037Y004287D01*
X010997Y004247D01*
X011037D01*
X011077Y004207D01*
X010837Y008527D02*
X010877Y008567D01*
X010917D01*
X010877Y008607D01*
X010917Y008647D01*
X010877D01*
X010837Y008687D01*
X010797Y008647D01*
X010757D01*
X010797Y008607D01*
X010757Y008567D01*
X010797D01*
X010837Y008527D01*
Y004687D02*
X010877Y004727D01*
X010917D01*
X010877Y004767D01*
X010917Y004807D01*
X010877D01*
X010837Y004847D01*
X010797Y004807D01*
X010757D01*
X010797Y004767D01*
X010757Y004727D01*
X010797D01*
X010837Y004687D01*
X010597Y004207D02*
X010637Y004247D01*
X010677D01*
X010637Y004287D01*
X010677Y004327D01*
X010637D01*
X010597Y004367D01*
X010557Y004327D01*
X010517D01*
X010557Y004287D01*
X010517Y004247D01*
X010557D01*
X010597Y004207D01*
X010357Y008527D02*
X010397Y008567D01*
X010437D01*
X010397Y008607D01*
X010437Y008647D01*
X010397D01*
X010357Y008687D01*
X010317Y008647D01*
X010277D01*
X010317Y008607D01*
X010277Y008567D01*
X010317D01*
X010357Y008527D01*
X010117Y004207D02*
X010157Y004247D01*
X010197D01*
X010157Y004287D01*
X010197Y004327D01*
X010157D01*
X010117Y004367D01*
X010077Y004327D01*
X010037D01*
X010077Y004287D01*
X010037Y004247D01*
X010077D01*
X010117Y004207D01*
X009637Y013807D02*
X009677Y013847D01*
X009717D01*
X009677Y013887D01*
X009717Y013927D01*
X009677D01*
X009637Y013967D01*
X009597Y013927D01*
X009557D01*
X009597Y013887D01*
X009557Y013847D01*
X009597D01*
X009637Y013807D01*
X009877Y008527D02*
X009917Y008567D01*
X009957D01*
X009917Y008607D01*
X009957Y008647D01*
X009917D01*
X009877Y008687D01*
X009837Y008647D01*
X009797D01*
X009837Y008607D01*
X009797Y008567D01*
X009837D01*
X009877Y008527D01*
X009637Y004207D02*
X009677Y004247D01*
X009717D01*
X009677Y004287D01*
X009717Y004327D01*
X009677D01*
X009637Y004367D01*
X009597Y004327D01*
X009557D01*
X009597Y004287D01*
X009557Y004247D01*
X009597D01*
X009637Y004207D01*
X009157Y013807D02*
X009197Y013847D01*
X009237D01*
X009197Y013887D01*
X009237Y013927D01*
X009197D01*
X009157Y013967D01*
X009117Y013927D01*
X009077D01*
X009117Y013887D01*
X009077Y013847D01*
X009117D01*
X009157Y013807D01*
X009397Y007567D02*
X009437Y007607D01*
X009477D01*
X009437Y007647D01*
X009477Y007687D01*
X009437D01*
X009397Y007727D01*
X009357Y007687D01*
X009317D01*
X009357Y007647D01*
X009317Y007607D01*
X009357D01*
X009397Y007567D01*
X009157Y004207D02*
X009197Y004247D01*
X009237D01*
X009197Y004287D01*
X009237Y004327D01*
X009197D01*
X009157Y004367D01*
X009117Y004327D01*
X009077D01*
X009117Y004287D01*
X009077Y004247D01*
X009117D01*
X009157Y004207D01*
X008677Y013807D02*
X008717Y013847D01*
X008757D01*
X008717Y013887D01*
X008757Y013927D01*
X008717D01*
X008677Y013967D01*
X008637Y013927D01*
X008597D01*
X008637Y013887D01*
X008597Y013847D01*
X008637D01*
X008677Y013807D01*
X008917Y007567D02*
X008957Y007607D01*
X008997D01*
X008957Y007647D01*
X008997Y007687D01*
X008957D01*
X008917Y007727D01*
X008877Y007687D01*
X008837D01*
X008877Y007647D01*
X008837Y007607D01*
X008877D01*
X008917Y007567D01*
X008677Y004207D02*
X008717Y004247D01*
X008757D01*
X008717Y004287D01*
X008757Y004327D01*
X008717D01*
X008677Y004367D01*
X008637Y004327D01*
X008597D01*
X008637Y004287D01*
X008597Y004247D01*
X008637D01*
X008677Y004207D01*
X008197D02*
X008237Y004247D01*
X008277D01*
X008237Y004287D01*
X008277Y004327D01*
X008237D01*
X008197Y004367D01*
X008157Y004327D01*
X008117D01*
X008157Y004287D01*
X008117Y004247D01*
X008157D01*
X008197Y004207D01*
X007957Y004687D02*
X007997Y004727D01*
X008037D01*
X007997Y004767D01*
X008037Y004807D01*
X007997D01*
X007957Y004847D01*
X007917Y004807D01*
X007877D01*
X007917Y004767D01*
X007877Y004727D01*
X007917D01*
X007957Y004687D01*
X007717Y004207D02*
X007757Y004247D01*
X007797D01*
X007757Y004287D01*
X007797Y004327D01*
X007757D01*
X007717Y004367D01*
X007677Y004327D01*
X007637D01*
X007677Y004287D01*
X007637Y004247D01*
X007677D01*
X007717Y004207D01*
X007237D02*
X007277Y004247D01*
X007317D01*
X007277Y004287D01*
X007317Y004327D01*
X007277D01*
X007237Y004367D01*
X007197Y004327D01*
X007157D01*
X007197Y004287D01*
X007157Y004247D01*
X007197D01*
X007237Y004207D01*
X006757Y013807D02*
X006797Y013847D01*
X006837D01*
X006797Y013887D01*
X006837Y013927D01*
X006797D01*
X006757Y013967D01*
X006717Y013927D01*
X006677D01*
X006717Y013887D01*
X006677Y013847D01*
X006717D01*
X006757Y013807D01*
Y004207D02*
X006797Y004247D01*
X006837D01*
X006797Y004287D01*
X006837Y004327D01*
X006797D01*
X006757Y004367D01*
X006717Y004327D01*
X006677D01*
X006717Y004287D01*
X006677Y004247D01*
X006717D01*
X006757Y004207D01*
X006277D02*
X006317Y004247D01*
X006357D01*
X006317Y004287D01*
X006357Y004327D01*
X006317D01*
X006277Y004367D01*
X006237Y004327D01*
X006197D01*
X006237Y004287D01*
X006197Y004247D01*
X006237D01*
X006277Y004207D01*
X005797Y005167D02*
X005837Y005207D01*
X005877D01*
X005837Y005247D01*
X005877Y005287D01*
X005837D01*
X005797Y005327D01*
X005757Y005287D01*
X005717D01*
X005757Y005247D01*
X005717Y005207D01*
X005757D01*
X005797Y005167D01*
X006037Y004687D02*
X006077Y004727D01*
X006117D01*
X006077Y004767D01*
X006117Y004807D01*
X006077D01*
X006037Y004847D01*
X005997Y004807D01*
X005957D01*
X005997Y004767D01*
X005957Y004727D01*
X005997D01*
X006037Y004687D01*
X005797Y004207D02*
X005837Y004247D01*
X005877D01*
X005837Y004287D01*
X005877Y004327D01*
X005837D01*
X005797Y004367D01*
X005757Y004327D01*
X005717D01*
X005757Y004287D01*
X005717Y004247D01*
X005757D01*
X005797Y004207D01*
X005557Y005647D02*
X005597Y005687D01*
X005637D01*
X005597Y005727D01*
X005637Y005767D01*
X005597D01*
X005557Y005807D01*
X005517Y005767D01*
X005477D01*
X005517Y005727D01*
X005477Y005687D01*
X005517D01*
X005557Y005647D01*
X005317Y005167D02*
X005357Y005207D01*
X005397D01*
X005357Y005247D01*
X005397Y005287D01*
X005357D01*
X005317Y005327D01*
X005277Y005287D01*
X005237D01*
X005277Y005247D01*
X005237Y005207D01*
X005277D01*
X005317Y005167D01*
X005557Y004687D02*
X005597Y004727D01*
X005637D01*
X005597Y004767D01*
X005637Y004807D01*
X005597D01*
X005557Y004847D01*
X005517Y004807D01*
X005477D01*
X005517Y004767D01*
X005477Y004727D01*
X005517D01*
X005557Y004687D01*
X005317Y004207D02*
X005357Y004247D01*
X005397D01*
X005357Y004287D01*
X005397Y004327D01*
X005357D01*
X005317Y004367D01*
X005277Y004327D01*
X005237D01*
X005277Y004287D01*
X005237Y004247D01*
X005277D01*
X005317Y004207D01*
X005077Y011407D02*
X005117Y011447D01*
X005157D01*
X005117Y011487D01*
X005157Y011527D01*
X005117D01*
X005077Y011567D01*
X005037Y011527D01*
X004997D01*
X005037Y011487D01*
X004997Y011447D01*
X005037D01*
X005077Y011407D01*
X004837Y006127D02*
X004877Y006167D01*
X004917D01*
X004877Y006207D01*
X004917Y006247D01*
X004877D01*
X004837Y006287D01*
X004797Y006247D01*
X004757D01*
X004797Y006207D01*
X004757Y006167D01*
X004797D01*
X004837Y006127D01*
X005077Y005647D02*
X005117Y005687D01*
X005157D01*
X005117Y005727D01*
X005157Y005767D01*
X005117D01*
X005077Y005807D01*
X005037Y005767D01*
X004997D01*
X005037Y005727D01*
X004997Y005687D01*
X005037D01*
X005077Y005647D01*
X004837Y005167D02*
X004877Y005207D01*
X004917D01*
X004877Y005247D01*
X004917Y005287D01*
X004877D01*
X004837Y005327D01*
X004797Y005287D01*
X004757D01*
X004797Y005247D01*
X004757Y005207D01*
X004797D01*
X004837Y005167D01*
X005077Y004687D02*
X005117Y004727D01*
X005157D01*
X005117Y004767D01*
X005157Y004807D01*
X005117D01*
X005077Y004847D01*
X005037Y004807D01*
X004997D01*
X005037Y004767D01*
X004997Y004727D01*
X005037D01*
X005077Y004687D01*
X004837Y004207D02*
X004877Y004247D01*
X004917D01*
X004877Y004287D01*
X004917Y004327D01*
X004877D01*
X004837Y004367D01*
X004797Y004327D01*
X004757D01*
X004797Y004287D01*
X004757Y004247D01*
X004797D01*
X004837Y004207D01*
X004357Y012847D02*
X004397Y012887D01*
X004437D01*
X004397Y012927D01*
X004437Y012967D01*
X004397D01*
X004357Y013007D01*
X004317Y012967D01*
X004277D01*
X004317Y012927D01*
X004277Y012887D01*
X004317D01*
X004357Y012847D01*
X004597Y012367D02*
X004637Y012407D01*
X004677D01*
X004637Y012447D01*
X004677Y012487D01*
X004637D01*
X004597Y012527D01*
X004557Y012487D01*
X004517D01*
X004557Y012447D01*
X004517Y012407D01*
X004557D01*
X004597Y012367D01*
X004357Y006127D02*
X004397Y006167D01*
X004437D01*
X004397Y006207D01*
X004437Y006247D01*
X004397D01*
X004357Y006287D01*
X004317Y006247D01*
X004277D01*
X004317Y006207D01*
X004277Y006167D01*
X004317D01*
X004357Y006127D01*
X004597Y005647D02*
X004637Y005687D01*
X004677D01*
X004637Y005727D01*
X004677Y005767D01*
X004637D01*
X004597Y005807D01*
X004557Y005767D01*
X004517D01*
X004557Y005727D01*
X004517Y005687D01*
X004557D01*
X004597Y005647D01*
X004357Y005167D02*
X004397Y005207D01*
X004437D01*
X004397Y005247D01*
X004437Y005287D01*
X004397D01*
X004357Y005327D01*
X004317Y005287D01*
X004277D01*
X004317Y005247D01*
X004277Y005207D01*
X004317D01*
X004357Y005167D01*
X004597Y004687D02*
X004637Y004727D01*
X004677D01*
X004637Y004767D01*
X004677Y004807D01*
X004637D01*
X004597Y004847D01*
X004557Y004807D01*
X004517D01*
X004557Y004767D01*
X004517Y004727D01*
X004557D01*
X004597Y004687D01*
X004357Y004207D02*
X004397Y004247D01*
X004437D01*
X004397Y004287D01*
X004437Y004327D01*
X004397D01*
X004357Y004367D01*
X004317Y004327D01*
X004277D01*
X004317Y004287D01*
X004277Y004247D01*
X004317D01*
X004357Y004207D01*
X017037Y008207D02*
X016957Y008367D01*
X017117D01*
X017037Y008207D01*
X006737Y011507D02*
X006657Y011667D01*
X006817D01*
X006737Y011507D01*
X012537Y010807D02*
X012457Y010967D01*
X012617D01*
X012537Y010807D01*
X013087Y007057D02*
X013007Y007217D01*
X013167D01*
X013087Y007057D01*
X008357Y014507D02*
X008397Y014587D01*
X008357Y014667D01*
X008437Y014627D01*
X008517Y014667D01*
X008477Y014587D01*
X008517Y014507D01*
X008437Y014547D01*
X008357Y014507D01*
X009107D02*
X009147Y014587D01*
X009107Y014667D01*
X009187Y014627D01*
X009267Y014667D01*
X009227Y014587D01*
X009267Y014507D01*
X009187Y014547D01*
X009107Y014507D01*
X017037Y007557D02*
X016957Y007717D01*
X017117D01*
X017037Y007557D01*
Y004707D02*
X016957Y004867D01*
X017117D01*
X017037Y004707D01*
Y005657D02*
X016957Y005817D01*
X017117D01*
X017037Y005657D01*
Y006607D02*
X016957Y006767D01*
X017117D01*
X017037Y006607D01*
X008057Y009707D02*
X008097Y009787D01*
X008057Y009867D01*
X008137Y009827D01*
X008217Y009867D01*
X008177Y009787D01*
X008217Y009707D01*
X008137Y009747D01*
X008057Y009707D01*
X007857Y009007D02*
X007897Y009087D01*
X007857Y009167D01*
X007937Y009127D01*
X008017Y009167D01*
X007977Y009087D01*
X008017Y009007D01*
X007937Y009047D01*
X007857Y009007D01*
X007657Y009707D02*
X007697Y009787D01*
X007657Y009867D01*
X007737Y009827D01*
X007817Y009867D01*
X007777Y009787D01*
X007817Y009707D01*
X007737Y009747D01*
X007657Y009707D01*
X008437Y009557D02*
X008357Y009717D01*
X008517D01*
X008437Y009557D01*
X016337Y008207D02*
X016257Y008367D01*
X016417D01*
X016337Y008207D01*
X017037Y008857D02*
X016957Y009017D01*
X017117D01*
X017037Y008857D01*
Y009507D02*
X016957Y009667D01*
X017117D01*
X017037Y009507D01*
X008207Y010707D02*
X008247Y010787D01*
X008207Y010867D01*
X008287Y010827D01*
X008367Y010867D01*
X008327Y010787D01*
X008367Y010707D01*
X008287Y010747D01*
X008207Y010707D01*
X006557Y004907D02*
X006597Y004987D01*
X006557Y005067D01*
X006637Y005027D01*
X006717Y005067D01*
X006677Y004987D01*
X006717Y004907D01*
X006637Y004947D01*
X006557Y004907D01*
X007057Y004507D02*
X007097Y004587D01*
X007057Y004667D01*
X007137Y004627D01*
X007217Y004667D01*
X007177Y004587D01*
X007217Y004507D01*
X007137Y004547D01*
X007057Y004507D01*
X004607Y009357D02*
X004647Y009437D01*
X004607Y009517D01*
X004687Y009477D01*
X004767Y009517D01*
X004727Y009437D01*
X004767Y009357D01*
X004687Y009397D01*
X004607Y009357D01*
X004157Y013457D02*
X004197Y013537D01*
X004157Y013617D01*
X004237Y013577D01*
X004317Y013617D01*
X004277Y013537D01*
X004317Y013457D01*
X004237Y013497D01*
X004157Y013457D01*
Y013957D02*
X004197Y014037D01*
X004157Y014117D01*
X004237Y014077D01*
X004317Y014117D01*
X004277Y014037D01*
X004317Y013957D01*
X004237Y013997D01*
X004157Y013957D01*
Y014507D02*
X004197Y014587D01*
X004157Y014667D01*
X004237Y014627D01*
X004317Y014667D01*
X004277Y014587D01*
X004317Y014507D01*
X004237Y014547D01*
X004157Y014507D01*
X004707Y014607D02*
X004747Y014687D01*
X004707Y014767D01*
X004787Y014727D01*
X004867Y014767D01*
X004827Y014687D01*
X004867Y014607D01*
X004787Y014647D01*
X004707Y014607D01*
X005457D02*
X005497Y014687D01*
X005457Y014767D01*
X005537Y014727D01*
X005617Y014767D01*
X005577Y014687D01*
X005617Y014607D01*
X005537Y014647D01*
X005457Y014607D01*
X006707D02*
X006747Y014687D01*
X006707Y014767D01*
X006787Y014727D01*
X006867Y014767D01*
X006827Y014687D01*
X006867Y014607D01*
X006787Y014647D01*
X006707Y014607D01*
X007407D02*
X007447Y014687D01*
X007407Y014767D01*
X007487Y014727D01*
X007567Y014767D01*
X007527Y014687D01*
X007567Y014607D01*
X007487Y014647D01*
X007407Y014607D01*
X009757Y014507D02*
X009797Y014587D01*
X009757Y014667D01*
X009837Y014627D01*
X009917Y014667D01*
X009877Y014587D01*
X009917Y014507D01*
X009837Y014547D01*
X009757Y014507D01*
X010357D02*
X010397Y014587D01*
X010357Y014667D01*
X010437Y014627D01*
X010517Y014667D01*
X010477Y014587D01*
X010517Y014507D01*
X010437Y014547D01*
X010357Y014507D01*
Y013807D02*
X010397Y013887D01*
X010357Y013967D01*
X010437Y013927D01*
X010517Y013967D01*
X010477Y013887D01*
X010517Y013807D01*
X010437Y013847D01*
X010357Y013807D01*
X010907D02*
X010947Y013887D01*
X010907Y013967D01*
X010987Y013927D01*
X011067Y013967D01*
X011027Y013887D01*
X011067Y013807D01*
X010987Y013847D01*
X010907Y013807D01*
X011157Y014507D02*
X011197Y014587D01*
X011157Y014667D01*
X011237Y014627D01*
X011317Y014667D01*
X011277Y014587D01*
X011317Y014507D01*
X011237Y014547D01*
X011157Y014507D01*
X011857D02*
X011897Y014587D01*
X011857Y014667D01*
X011937Y014627D01*
X012017Y014667D01*
X011977Y014587D01*
X012017Y014507D01*
X011937Y014547D01*
X011857Y014507D01*
X012757D02*
X012797Y014587D01*
X012757Y014667D01*
X012837Y014627D01*
X012917Y014667D01*
X012877Y014587D01*
X012917Y014507D01*
X012837Y014547D01*
X012757Y014507D01*
X013657D02*
X013697Y014587D01*
X013657Y014667D01*
X013737Y014627D01*
X013817Y014667D01*
X013777Y014587D01*
X013817Y014507D01*
X013737Y014547D01*
X013657Y014507D01*
X014507D02*
X014547Y014587D01*
X014507Y014667D01*
X014587Y014627D01*
X014667Y014667D01*
X014627Y014587D01*
X014667Y014507D01*
X014587Y014547D01*
X014507Y014507D01*
X015357D02*
X015397Y014587D01*
X015357Y014667D01*
X015437Y014627D01*
X015517Y014667D01*
X015477Y014587D01*
X015517Y014507D01*
X015437Y014547D01*
X015357Y014507D01*
X016107D02*
X016147Y014587D01*
X016107Y014667D01*
X016187Y014627D01*
X016267Y014667D01*
X016227Y014587D01*
X016267Y014507D01*
X016187Y014547D01*
X016107Y014507D01*
X016757D02*
X016797Y014587D01*
X016757Y014667D01*
X016837Y014627D01*
X016917Y014667D01*
X016877Y014587D01*
X016917Y014507D01*
X016837Y014547D01*
X016757Y014507D01*
X015557Y008207D02*
X015597Y008287D01*
X015557Y008367D01*
X015637Y008327D01*
X015717Y008367D01*
X015677Y008287D01*
X015717Y008207D01*
X015637Y008247D01*
X015557Y008207D01*
X015657Y007557D02*
X015697Y007637D01*
X015657Y007717D01*
X015737Y007677D01*
X015817Y007717D01*
X015777Y007637D01*
X015817Y007557D01*
X015737Y007597D01*
X015657Y007557D01*
X015207Y007107D02*
X015247Y007187D01*
X015207Y007267D01*
X015287Y007227D01*
X015367Y007267D01*
X015327Y007187D01*
X015367Y007107D01*
X015287Y007147D01*
X015207Y007107D01*
X012207Y004707D02*
X012247Y004787D01*
X012207Y004867D01*
X012287Y004827D01*
X012367Y004867D01*
X012327Y004787D01*
X012367Y004707D01*
X012287Y004747D01*
X012207Y004707D01*
X012307Y005207D02*
X012347Y005287D01*
X012307Y005367D01*
X012387Y005327D01*
X012467Y005367D01*
X012427Y005287D01*
X012467Y005207D01*
X012387Y005247D01*
X012307Y005207D01*
X012757Y005657D02*
X012797Y005737D01*
X012757Y005817D01*
X012837Y005777D01*
X012917Y005817D01*
X012877Y005737D01*
X012917Y005657D01*
X012837Y005697D01*
X012757Y005657D01*
X013807Y006657D02*
X013847Y006737D01*
X013807Y006817D01*
X013887Y006777D01*
X013967Y006817D01*
X013927Y006737D01*
X013967Y006657D01*
X013887Y006697D01*
X013807Y006657D01*
X014407Y006607D02*
X014447Y006687D01*
X014407Y006767D01*
X014487Y006727D01*
X014567Y006767D01*
X014527Y006687D01*
X014567Y006607D01*
X014487Y006647D01*
X014407Y006607D01*
X015057Y010907D02*
X015097Y010987D01*
X015057Y011067D01*
X015137Y011027D01*
X015217Y011067D01*
X015177Y010987D01*
X015217Y010907D01*
X015137Y010947D01*
X015057Y010907D01*
X015557D02*
X015597Y010987D01*
X015557Y011067D01*
X015637Y011027D01*
X015717Y011067D01*
X015677Y010987D01*
X015717Y010907D01*
X015637Y010947D01*
X015557Y010907D01*
X016807D02*
X016847Y010987D01*
X016807Y011067D01*
X016887Y011027D01*
X016967Y011067D01*
X016927Y010987D01*
X016967Y010907D01*
X016887Y010947D01*
X016807Y010907D01*
X016757Y011357D02*
X016797Y011437D01*
X016757Y011517D01*
X016837Y011477D01*
X016917Y011517D01*
X016877Y011437D01*
X016917Y011357D01*
X016837Y011397D01*
X016757Y011357D01*
X015007Y011457D02*
X015047Y011537D01*
X015007Y011617D01*
X015087Y011577D01*
X015167Y011617D01*
X015127Y011537D01*
X015167Y011457D01*
X015087Y011497D01*
X015007Y011457D01*
Y012357D02*
X015047Y012437D01*
X015007Y012517D01*
X015087Y012477D01*
X015167Y012517D01*
X015127Y012437D01*
X015167Y012357D01*
X015087Y012397D01*
X015007Y012357D01*
X015157Y011907D02*
X015197Y011987D01*
X015157Y012067D01*
X015237Y012027D01*
X015317Y012067D01*
X015277Y011987D01*
X015317Y011907D01*
X015237Y011947D01*
X015157Y011907D01*
X016501Y009625D02*
X016541Y009665D01*
X016581D01*
X016541Y009705D01*
X016581Y009745D01*
X016541D01*
X016501Y009785D01*
X016461Y009745D01*
X016421D01*
X016461Y009705D01*
X016421Y009665D01*
X016461D01*
X016501Y009625D01*
X016795Y009686D02*
X016835Y009726D01*
X016875D01*
X016835Y009766D01*
X016875Y009806D01*
X016835D01*
X016795Y009846D01*
X016755Y009806D01*
X016715D01*
X016755Y009766D01*
X016715Y009726D01*
X016755D01*
X016795Y009686D01*
X016787Y010357D02*
X016827Y010397D01*
X016867D01*
X016827Y010437D01*
X016867Y010477D01*
X016827D01*
X016787Y010517D01*
X016747Y010477D01*
X016707D01*
X016747Y010437D01*
X016707Y010397D01*
X016747D01*
X016787Y010357D01*
X016237Y011507D02*
X016277Y011547D01*
X016317D01*
X016277Y011587D01*
X016317Y011627D01*
X016277D01*
X016237Y011667D01*
X016197Y011627D01*
X016157D01*
X016197Y011587D01*
X016157Y011547D01*
X016197D01*
X016237Y011507D01*
X011457Y006206D02*
X011497Y006286D01*
X011457Y006366D01*
X011537Y006326D01*
X011617Y006366D01*
X011577Y006286D01*
X011617Y006206D01*
X011537Y006246D01*
X011457Y006206D01*
X011907Y009957D02*
X011947Y010037D01*
X011907Y010117D01*
X011987Y010077D01*
X012067Y010117D01*
X012027Y010037D01*
X012067Y009957D01*
X011987Y009997D01*
X011907Y009957D01*
X014707Y008757D02*
X014747Y008837D01*
X014707Y008917D01*
X014787Y008877D01*
X014867Y008917D01*
X014827Y008837D01*
X014867Y008757D01*
X014787Y008797D01*
X014707Y008757D01*
X014807Y009257D02*
X014847Y009337D01*
X014807Y009417D01*
X014887Y009377D01*
X014967Y009417D01*
X014927Y009337D01*
X014967Y009257D01*
X014887Y009297D01*
X014807Y009257D01*
X014607Y010857D02*
X014647Y010937D01*
X014607Y011017D01*
X014687Y010977D01*
X014767Y011017D01*
X014727Y010937D01*
X014767Y010857D01*
X014687Y010897D01*
X014607Y010857D01*
X014357D02*
X014397Y010937D01*
X014357Y011017D01*
X014437Y010977D01*
X014517Y011017D01*
X014477Y010937D01*
X014517Y010857D01*
X014437Y010897D01*
X014357Y010857D01*
X013357Y011557D02*
X013397Y011637D01*
X013357Y011717D01*
X013437Y011677D01*
X013517Y011717D01*
X013477Y011637D01*
X013517Y011557D01*
X013437Y011597D01*
X013357Y011557D01*
Y011307D02*
X013397Y011387D01*
X013357Y011467D01*
X013437Y011427D01*
X013517Y011467D01*
X013477Y011387D01*
X013517Y011307D01*
X013437Y011347D01*
X013357Y011307D01*
X012207Y008157D02*
X012247Y008237D01*
X012207Y008317D01*
X012287Y008277D01*
X012367Y008317D01*
X012327Y008237D01*
X012367Y008157D01*
X012287Y008197D01*
X012207Y008157D01*
X012157Y007807D02*
X012197Y007887D01*
X012157Y007967D01*
X012237Y007927D01*
X012317Y007967D01*
X012277Y007887D01*
X012317Y007807D01*
X012237Y007847D01*
X012157Y007807D01*
X012007Y008007D02*
X012047Y008087D01*
X012007Y008167D01*
X012087Y008127D01*
X012167Y008167D01*
X012127Y008087D01*
X012167Y008007D01*
X012087Y008047D01*
X012007Y008007D01*
X011157Y010957D02*
X011197Y011037D01*
X011157Y011117D01*
X011237Y011077D01*
X011317Y011117D01*
X011277Y011037D01*
X011317Y010957D01*
X011237Y010997D01*
X011157Y010957D01*
X010857D02*
X010897Y011037D01*
X010857Y011117D01*
X010937Y011077D01*
X011017Y011117D01*
X010977Y011037D01*
X011017Y010957D01*
X010937Y010997D01*
X010857Y010957D01*
X010907Y010207D02*
X010947Y010287D01*
X010907Y010367D01*
X010987Y010327D01*
X011067Y010367D01*
X011027Y010287D01*
X011067Y010207D01*
X010987Y010247D01*
X010907Y010207D01*
X013857Y008707D02*
X013897Y008787D01*
X013857Y008867D01*
X013937Y008827D01*
X014017Y008867D01*
X013977Y008787D01*
X014017Y008707D01*
X013937Y008747D01*
X013857Y008707D01*
X012057Y009057D02*
X012097Y009137D01*
X012057Y009217D01*
X012137Y009177D01*
X012217Y009217D01*
X012177Y009137D01*
X012217Y009057D01*
X012137Y009097D01*
X012057Y009057D01*
X010757Y007307D02*
X010797Y007387D01*
X010757Y007467D01*
X010837Y007427D01*
X010917Y007467D01*
X010877Y007387D01*
X010917Y007307D01*
X010837Y007347D01*
X010757Y007307D01*
X007807Y006807D02*
X007847Y006887D01*
X007807Y006967D01*
X007887Y006927D01*
X007967Y006967D01*
X007927Y006887D01*
X007967Y006807D01*
X007887Y006847D01*
X007807Y006807D01*
X007207Y008557D02*
X007247Y008637D01*
X007207Y008717D01*
X007287Y008677D01*
X007367Y008717D01*
X007327Y008637D01*
X007367Y008557D01*
X007287Y008597D01*
X007207Y008557D01*
X010007Y005207D02*
X010047Y005287D01*
X010007Y005367D01*
X010087Y005327D01*
X010167Y005367D01*
X010127Y005287D01*
X010167Y005207D01*
X010087Y005247D01*
X010007Y005207D01*
X010157Y005382D02*
X010197Y005462D01*
X010157Y005542D01*
X010237Y005502D01*
X010317Y005542D01*
X010277Y005462D01*
X010317Y005382D01*
X010237Y005422D01*
X010157Y005382D01*
X008307Y006707D02*
X008347Y006787D01*
X008307Y006867D01*
X008387Y006827D01*
X008467Y006867D01*
X008427Y006787D01*
X008467Y006707D01*
X008387Y006747D01*
X008307Y006707D01*
X005657Y008957D02*
X005697Y009037D01*
X005657Y009117D01*
X005737Y009077D01*
X005817Y009117D01*
X005777Y009037D01*
X005817Y008957D01*
X005737Y008997D01*
X005657Y008957D01*
X00562Y009744D02*
X00566Y009824D01*
X00562Y009904D01*
X0057Y009864D01*
X00578Y009904D01*
X00574Y009824D01*
X00578Y009744D01*
X0057Y009784D01*
X00562Y009744D01*
X005457Y008057D02*
X005497Y008137D01*
X005457Y008217D01*
X005537Y008177D01*
X005617Y008217D01*
X005577Y008137D01*
X005617Y008057D01*
X005537Y008097D01*
X005457Y008057D01*
X007907Y005707D02*
X007947Y005787D01*
X007907Y005867D01*
X007987Y005827D01*
X008067Y005867D01*
X008027Y005787D01*
X008067Y005707D01*
X007987Y005747D01*
X007907Y005707D01*
X007857Y006207D02*
X007897Y006287D01*
X007857Y006367D01*
X007937Y006327D01*
X008017Y006367D01*
X007977Y006287D01*
X008017Y006207D01*
X007937Y006247D01*
X007857Y006207D01*
X005807Y008057D02*
X005847Y008137D01*
X005807Y008217D01*
X005887Y008177D01*
X005967Y008217D01*
X005927Y008137D01*
X005967Y008057D01*
X005887Y008097D01*
X005807Y008057D01*
X008507Y008007D02*
X008547Y008087D01*
X008507Y008167D01*
X008587Y008127D01*
X008667Y008167D01*
X008627Y008087D01*
X008667Y008007D01*
X008587Y008047D01*
X008507Y008007D01*
X007457Y014007D02*
X007497Y014087D01*
X007457Y014167D01*
X007537Y014127D01*
X007617Y014167D01*
X007577Y014087D01*
X007617Y014007D01*
X007537Y014047D01*
X007457Y014007D01*
X007707D02*
X007747Y014087D01*
X007707Y014167D01*
X007787Y014127D01*
X007867Y014167D01*
X007827Y014087D01*
X007867Y014007D01*
X007787Y014047D01*
X007707Y014007D01*
X005357Y012657D02*
X005397Y012737D01*
X005357Y012817D01*
X005437Y012777D01*
X005517Y012817D01*
X005477Y012737D01*
X005517Y012657D01*
X005437Y012697D01*
X005357Y012657D01*
X007457Y008307D02*
X007497Y008387D01*
X007457Y008467D01*
X007537Y008427D01*
X007617Y008467D01*
X007577Y008387D01*
X007617Y008307D01*
X007537Y008347D01*
X007457Y008307D01*
Y008557D02*
X007497Y008637D01*
X007457Y008717D01*
X007537Y008677D01*
X007617Y008717D01*
X007577Y008637D01*
X007617Y008557D01*
X007537Y008597D01*
X007457Y008557D01*
X007207Y008307D02*
X007247Y008387D01*
X007207Y008467D01*
X007287Y008427D01*
X007367Y008467D01*
X007327Y008387D01*
X007367Y008307D01*
X007287Y008347D01*
X007207Y008307D01*
X007707Y013757D02*
X007747Y013837D01*
X007707Y013917D01*
X007787Y013877D01*
X007867Y013917D01*
X007827Y013837D01*
X007867Y013757D01*
X007787Y013797D01*
X007707Y013757D01*
X007457Y01374D02*
X007497Y01382D01*
X007457Y0139D01*
X007537Y01386D01*
X007617Y0139D01*
X007577Y01382D01*
X007617Y01374D01*
X007537Y01378D01*
X007457Y01374D01*
X005457Y007807D02*
X005497Y007887D01*
X005457Y007967D01*
X005537Y007927D01*
X005617Y007967D01*
X005577Y007887D01*
X005617Y007807D01*
X005537Y007847D01*
X005457Y007807D01*
X005807D02*
X005847Y007887D01*
X005807Y007967D01*
X005887Y007927D01*
X005967Y007967D01*
X005927Y007887D01*
X005967Y007807D01*
X005887Y007847D01*
X005807Y007807D01*
Y010807D02*
X005847Y010887D01*
X005807Y010967D01*
X005887Y010927D01*
X005967Y010967D01*
X005927Y010887D01*
X005967Y010807D01*
X005887Y010847D01*
X005807Y010807D01*
X005457Y010557D02*
X005497Y010637D01*
X005457Y010717D01*
X005537Y010677D01*
X005617Y010717D01*
X005577Y010637D01*
X005617Y010557D01*
X005537Y010597D01*
X005457Y010557D01*
X005807D02*
X005847Y010637D01*
X005807Y010717D01*
X005887Y010677D01*
X005967Y010717D01*
X005927Y010637D01*
X005967Y010557D01*
X005887Y010597D01*
X005807Y010557D01*
X005457Y010807D02*
X005497Y010887D01*
X005457Y010967D01*
X005537Y010927D01*
X005617Y010967D01*
X005577Y010887D01*
X005617Y010807D01*
X005537Y010847D01*
X005457Y010807D01*
X009057Y008557D02*
X009097Y008637D01*
X009057Y008717D01*
X009137Y008677D01*
X009217Y008717D01*
X009177Y008637D01*
X009217Y008557D01*
X009137Y008597D01*
X009057Y008557D01*
X012207Y009957D02*
X012247Y010037D01*
X012207Y010117D01*
X012287Y010077D01*
X012367Y010117D01*
X012327Y010037D01*
X012367Y009957D01*
X012287Y009997D01*
X012207Y009957D01*
X012307Y009257D02*
X012347Y009337D01*
X012307Y009417D01*
X012387Y009377D01*
X012467Y009417D01*
X012427Y009337D01*
X012467Y009257D01*
X012387Y009297D01*
X012307Y009257D01*
X004724Y025096D02*
Y025256D01*
X004884D01*
Y025096D01*
X004724D01*
X004724Y023325D02*
Y023485D01*
X004884D01*
Y023325D01*
X004724D01*
X02026Y023861D02*
X02018Y024021D01*
X02034D01*
X02026Y023861D01*
X01496Y021911D02*
X01488Y022071D01*
X01504D01*
X01496Y021911D01*
Y022461D02*
X01488Y022621D01*
X01504D01*
X01496Y022461D01*
X01536Y022211D02*
X01528Y022371D01*
X01544D01*
X01536Y022211D01*
Y021811D02*
X01528Y021971D01*
X01544D01*
X01536Y021811D01*
X01586D02*
X01578Y021971D01*
X01594D01*
X01586Y021811D01*
Y022211D02*
X01578Y022371D01*
X01594D01*
X01586Y022211D01*
X01656Y022261D02*
X01648Y022421D01*
X01664D01*
X01656Y022261D01*
Y021761D02*
X01648Y021921D01*
X01664D01*
X01656Y021761D01*
X01386Y026361D02*
X01378Y026521D01*
X01394D01*
X01386Y026361D01*
X01381Y027111D02*
X01373Y027271D01*
X01389D01*
X01381Y027111D01*
X00561Y022011D02*
X00553Y022171D01*
X00569D01*
X00561Y022011D01*
X00491D02*
X00483Y022171D01*
X00499D01*
X00491Y022011D01*
X00421Y022061D02*
X00413Y022221D01*
X00429D01*
X00421Y022061D01*
X01791Y023711D02*
X01783Y023871D01*
X01799D01*
X01791Y023711D01*
X01683Y024299D02*
X01687Y024379D01*
X01683Y024459D01*
X01691Y024419D01*
X01699Y024459D01*
X01695Y024379D01*
X01699Y024299D01*
X01691Y024339D01*
X01683Y024299D01*
X01633Y02446D02*
X01637Y02454D01*
X01633Y02462D01*
X01641Y02458D01*
X01649Y02462D01*
X01645Y02454D01*
X01649Y02446D01*
X01641Y0245D01*
X01633Y02446D01*
X01641Y024761D02*
X01633Y024921D01*
X01649D01*
X01641Y024761D01*
X016414Y02405D02*
X016454Y02413D01*
X016414Y02421D01*
X016494Y02417D01*
X016574Y02421D01*
X016534Y02413D01*
X016574Y02405D01*
X016494Y02409D01*
X016414Y02405D01*
X01853Y024511D02*
X01857Y024591D01*
X01853Y024671D01*
X01861Y024631D01*
X01869Y024671D01*
X01865Y024591D01*
X01869Y024511D01*
X01861Y024551D01*
X01853Y024511D01*
Y024061D02*
X01857Y024141D01*
X01853Y024221D01*
X01861Y024181D01*
X01869Y024221D01*
X01865Y024141D01*
X01869Y024061D01*
X01861Y024101D01*
X01853Y024061D01*
X00918Y025111D02*
X00922Y025191D01*
X00918Y025271D01*
X00926Y025231D01*
X00934Y025271D01*
X0093Y025191D01*
X00934Y025111D01*
X00926Y025151D01*
X00918Y025111D01*
X01088Y023961D02*
X01092Y024041D01*
X01088Y024121D01*
X01096Y024081D01*
X01104Y024121D01*
X011Y024041D01*
X01104Y023961D01*
X01096Y024001D01*
X01088Y023961D01*
X00983Y023361D02*
X00987Y023441D01*
X00983Y023521D01*
X00991Y023481D01*
X00999Y023521D01*
X00995Y023441D01*
X00999Y023361D01*
X00991Y023401D01*
X00983Y023361D01*
X01063Y023761D02*
X01067Y023841D01*
X01063Y023921D01*
X01071Y023881D01*
X01079Y023921D01*
X01075Y023841D01*
X01079Y023761D01*
X01071Y023801D01*
X01063Y023761D01*
X00993Y025111D02*
X00997Y025191D01*
X00993Y025271D01*
X01001Y025231D01*
X01009Y025271D01*
X01005Y025191D01*
X01009Y025111D01*
X01001Y025151D01*
X00993Y025111D01*
X01858Y024811D02*
X01862Y024891D01*
X01858Y024971D01*
X01866Y024931D01*
X01874Y024971D01*
X0187Y024891D01*
X01874Y024811D01*
X01866Y024851D01*
X01858Y024811D01*
X01813Y026211D02*
X01817Y026291D01*
X01813Y026371D01*
X01821Y026331D01*
X01829Y026371D01*
X01825Y026291D01*
X01829Y026211D01*
X01821Y026251D01*
X01813Y026211D01*
X00873Y021461D02*
X00877Y021541D01*
X00873Y021621D01*
X00881Y021581D01*
X00889Y021621D01*
X00885Y021541D01*
X00889Y021461D01*
X00881Y021501D01*
X00873Y021461D01*
X00778D02*
X00782Y021541D01*
X00778Y021621D01*
X00786Y021581D01*
X00794Y021621D01*
X0079Y021541D01*
X00794Y021461D01*
X00786Y021501D01*
X00778Y021461D01*
X00678D02*
X00682Y021541D01*
X00678Y021621D01*
X00686Y021581D01*
X00694Y021621D01*
X0069Y021541D01*
X00694Y021461D01*
X00686Y021501D01*
X00678Y021461D01*
X00583D02*
X00587Y021541D01*
X00583Y021621D01*
X00591Y021581D01*
X00599Y021621D01*
X00595Y021541D01*
X00599Y021461D01*
X00591Y021501D01*
X00583Y021461D01*
X00488D02*
X00492Y021541D01*
X00488Y021621D01*
X00496Y021581D01*
X00504Y021621D01*
X005Y021541D01*
X00504Y021461D01*
X00496Y021501D01*
X00488Y021461D01*
X00408D02*
X00412Y021541D01*
X00408Y021621D01*
X00416Y021581D01*
X00424Y021621D01*
X0042Y021541D01*
X00424Y021461D01*
X00416Y021501D01*
X00408Y021461D01*
X01193Y026661D02*
X01197Y026741D01*
X01193Y026821D01*
X01201Y026781D01*
X01209Y026821D01*
X01205Y026741D01*
X01209Y026661D01*
X01201Y026701D01*
X01193Y026661D01*
X01113Y027111D02*
X01117Y027191D01*
X01113Y027271D01*
X01121Y027231D01*
X01129Y027271D01*
X01125Y027191D01*
X01129Y027111D01*
X01121Y027151D01*
X01113Y027111D01*
X01193D02*
X01197Y027191D01*
X01193Y027271D01*
X01201Y027231D01*
X01209Y027271D01*
X01205Y027191D01*
X01209Y027111D01*
X01201Y027151D01*
X01193Y027111D01*
X01478Y021411D02*
X01482Y021491D01*
X01478Y021571D01*
X01486Y021531D01*
X01494Y021571D01*
X0149Y021491D01*
X01494Y021411D01*
X01486Y021451D01*
X01478Y021411D01*
X01528D02*
X01532Y021491D01*
X01528Y021571D01*
X01536Y021531D01*
X01544Y021571D01*
X0154Y021491D01*
X01544Y021411D01*
X01536Y021451D01*
X01528Y021411D01*
X01583D02*
X01587Y021491D01*
X01583Y021571D01*
X01591Y021531D01*
X01599Y021571D01*
X01595Y021491D01*
X01599Y021411D01*
X01591Y021451D01*
X01583Y021411D01*
X01648D02*
X01652Y021491D01*
X01648Y021571D01*
X01656Y021531D01*
X01664Y021571D01*
X0166Y021491D01*
X01664Y021411D01*
X01656Y021451D01*
X01648Y021411D01*
X01713D02*
X01717Y021491D01*
X01713Y021571D01*
X01721Y021531D01*
X01729Y021571D01*
X01725Y021491D01*
X01729Y021411D01*
X01721Y021451D01*
X01713Y021411D01*
X02013Y027111D02*
X02017Y027191D01*
X02013Y027271D01*
X02021Y027231D01*
X02029Y027271D01*
X02025Y027191D01*
X02029Y027111D01*
X02021Y027151D01*
X02013Y027111D01*
X01948D02*
X01952Y027191D01*
X01948Y027271D01*
X01956Y027231D01*
X01964Y027271D01*
X0196Y027191D01*
X01964Y027111D01*
X01956Y027151D01*
X01948Y027111D01*
X01878D02*
X01882Y027191D01*
X01878Y027271D01*
X01886Y027231D01*
X01894Y027271D01*
X0189Y027191D01*
X01894Y027111D01*
X01886Y027151D01*
X01878Y027111D01*
X01813D02*
X01817Y027191D01*
X01813Y027271D01*
X01821Y027231D01*
X01829Y027271D01*
X01825Y027191D01*
X01829Y027111D01*
X01821Y027151D01*
X01813Y027111D01*
X01748D02*
X01752Y027191D01*
X01748Y027271D01*
X01756Y027231D01*
X01764Y027271D01*
X0176Y027191D01*
X01764Y027111D01*
X01756Y027151D01*
X01748Y027111D01*
X02018Y023311D02*
X02022Y023391D01*
X02018Y023471D01*
X02026Y023431D01*
X02034Y023471D01*
X0203Y023391D01*
X02034Y023311D01*
X02026Y023351D01*
X02018Y023311D01*
Y022711D02*
X02022Y022791D01*
X02018Y022871D01*
X02026Y022831D01*
X02034Y022871D01*
X0203Y022791D01*
X02034Y022711D01*
X02026Y022751D01*
X02018Y022711D01*
Y022161D02*
X02022Y022241D01*
X02018Y022321D01*
X02026Y022281D01*
X02034Y022321D01*
X0203Y022241D01*
X02034Y022161D01*
X02026Y022201D01*
X02018Y022161D01*
Y021611D02*
X02022Y021691D01*
X02018Y021771D01*
X02026Y021731D01*
X02034Y021771D01*
X0203Y021691D01*
X02034Y021611D01*
X02026Y021651D01*
X02018Y021611D01*
X01973Y021411D02*
X01977Y021491D01*
X01973Y021571D01*
X01981Y021531D01*
X01989Y021571D01*
X01985Y021491D01*
X01989Y021411D01*
X01981Y021451D01*
X01973Y021411D01*
X01903D02*
X01907Y021491D01*
X01903Y021571D01*
X01911Y021531D01*
X01919Y021571D01*
X01915Y021491D01*
X01919Y021411D01*
X01911Y021451D01*
X01903Y021411D01*
X01843D02*
X01847Y021491D01*
X01843Y021571D01*
X01851Y021531D01*
X01859Y021571D01*
X01855Y021491D01*
X01859Y021411D01*
X01851Y021451D01*
X01843Y021411D01*
X01768D02*
X01772Y021491D01*
X01768Y021571D01*
X01776Y021531D01*
X01784Y021571D01*
X0178Y021491D01*
X01784Y021411D01*
X01776Y021451D01*
X01768Y021411D01*
X01713Y021711D02*
X01717Y021791D01*
X01713Y021871D01*
X01721Y021831D01*
X01729Y021871D01*
X01725Y021791D01*
X01729Y021711D01*
X01721Y021751D01*
X01713Y021711D01*
Y022311D02*
X01717Y022391D01*
X01713Y022471D01*
X01721Y022431D01*
X01729Y022471D01*
X01725Y022391D01*
X01729Y022311D01*
X01721Y022351D01*
X01713Y022311D01*
Y023011D02*
X01717Y023091D01*
X01713Y023171D01*
X01721Y023131D01*
X01729Y023171D01*
X01725Y023091D01*
X01729Y023011D01*
X01721Y023051D01*
X01713Y023011D01*
Y023661D02*
X01717Y023741D01*
X01713Y023821D01*
X01721Y023781D01*
X01729Y023821D01*
X01725Y023741D01*
X01729Y023661D01*
X01721Y023701D01*
X01713Y023661D01*
X01683Y025911D02*
X01687Y025991D01*
X01683Y026071D01*
X01691Y026031D01*
X01699Y026071D01*
X01695Y025991D01*
X01699Y025911D01*
X01691Y025951D01*
X01683Y025911D01*
Y026511D02*
X01687Y026591D01*
X01683Y026671D01*
X01691Y026631D01*
X01699Y026671D01*
X01695Y026591D01*
X01699Y026511D01*
X01691Y026551D01*
X01683Y026511D01*
Y027111D02*
X01687Y027191D01*
X01683Y027271D01*
X01691Y027231D01*
X01699Y027271D01*
X01695Y027191D01*
X01699Y027111D01*
X01691Y027151D01*
X01683Y027111D01*
X01633Y026061D02*
X01637Y026141D01*
X01633Y026221D01*
X01641Y026181D01*
X01649Y026221D01*
X01645Y026141D01*
X01649Y026061D01*
X01641Y026101D01*
X01633Y026061D01*
X01478Y026661D02*
X01482Y026741D01*
X01478Y026821D01*
X01486Y026781D01*
X01494Y026821D01*
X0149Y026741D01*
X01494Y026661D01*
X01486Y026701D01*
X01478Y026661D01*
X01278Y025661D02*
X01282Y025741D01*
X01278Y025821D01*
X01286Y025781D01*
X01294Y025821D01*
X0129Y025741D01*
X01294Y025661D01*
X01286Y025701D01*
X01278Y025661D01*
X01573Y024111D02*
X01577Y024191D01*
X01573Y024271D01*
X01581Y024231D01*
X01589Y024271D01*
X01585Y024191D01*
X01589Y024111D01*
X01581Y024151D01*
X01573Y024111D01*
X01483Y022811D02*
X01487Y022891D01*
X01483Y022971D01*
X01491Y022931D01*
X01499Y022971D01*
X01495Y022891D01*
X01499Y022811D01*
X01491Y022851D01*
X01483Y022811D01*
X014498Y022824D02*
X014538Y022904D01*
X014498Y022984D01*
X014578Y022944D01*
X014658Y022984D01*
X014618Y022904D01*
X014658Y022824D01*
X014578Y022864D01*
X014498Y022824D01*
X00928Y022811D02*
X00932Y022891D01*
X00928Y022971D01*
X00936Y022931D01*
X00944Y022971D01*
X0094Y022891D01*
X00944Y022811D01*
X00936Y022851D01*
X00928Y022811D01*
X01403Y023711D02*
X01407Y023791D01*
X01403Y023871D01*
X01411Y023831D01*
X01419Y023871D01*
X01415Y023791D01*
X01419Y023711D01*
X01411Y023751D01*
X01403Y023711D01*
Y023311D02*
X01407Y023391D01*
X01403Y023471D01*
X01411Y023431D01*
X01419Y023471D01*
X01415Y023391D01*
X01419Y023311D01*
X01411Y023351D01*
X01403Y023311D01*
X01423Y023511D02*
X01427Y023591D01*
X01423Y023671D01*
X01431Y023631D01*
X01439Y023671D01*
X01435Y023591D01*
X01439Y023511D01*
X01431Y023551D01*
X01423Y023511D01*
X01383D02*
X01387Y023591D01*
X01383Y023671D01*
X01391Y023631D01*
X01399Y023671D01*
X01395Y023591D01*
X01399Y023511D01*
X01391Y023551D01*
X01383Y023511D01*
X01188Y024811D02*
X01192Y024891D01*
X01188Y024971D01*
X01196Y024931D01*
X01204Y024971D01*
X012Y024891D01*
X01204Y024811D01*
X01196Y024851D01*
X01188Y024811D01*
X01288Y023161D02*
X01292Y023241D01*
X01288Y023321D01*
X01296Y023281D01*
X01304Y023321D01*
X013Y023241D01*
X01304Y023161D01*
X01296Y023201D01*
X01288Y023161D01*
X01383Y024461D02*
X01387Y024541D01*
X01383Y024621D01*
X01391Y024581D01*
X01399Y024621D01*
X01395Y024541D01*
X01399Y024461D01*
X01391Y024501D01*
X01383Y024461D01*
X01413Y024411D02*
X01417Y024491D01*
X01413Y024571D01*
X01421Y024531D01*
X01429Y024571D01*
X01425Y024491D01*
X01429Y024411D01*
X01421Y024451D01*
X01413Y024411D01*
X00798Y023761D02*
X00802Y023841D01*
X00798Y023921D01*
X00806Y023881D01*
X00814Y023921D01*
X0081Y023841D01*
X00814Y023761D01*
X00806Y023801D01*
X00798Y023761D01*
X00803Y023211D02*
X00807Y023291D01*
X00803Y023371D01*
X00811Y023331D01*
X00819Y023371D01*
X00815Y023291D01*
X00819Y023211D01*
X00811Y023251D01*
X00803Y023211D01*
X014042Y025398D02*
X014082Y025478D01*
X014042Y025558D01*
X014122Y025518D01*
X014202Y025558D01*
X014162Y025478D01*
X014202Y025398D01*
X014122Y025438D01*
X014042Y025398D01*
X01373Y025361D02*
X01377Y025441D01*
X01373Y025521D01*
X01381Y025481D01*
X01389Y025521D01*
X01385Y025441D01*
X01389Y025361D01*
X01381Y025401D01*
X01373Y025361D01*
X01183Y026411D02*
X01187Y026491D01*
X01183Y026571D01*
X01191Y026531D01*
X01199Y026571D01*
X01195Y026491D01*
X01199Y026411D01*
X01191Y026451D01*
X01183Y026411D01*
X01158Y026661D02*
X01162Y026741D01*
X01158Y026821D01*
X01166Y026781D01*
X01174Y026821D01*
X0117Y026741D01*
X01174Y026661D01*
X01166Y026701D01*
X01158Y026661D01*
X01063Y023161D02*
X01067Y023241D01*
X01063Y023321D01*
X01071Y023281D01*
X01079Y023321D01*
X01075Y023241D01*
X01079Y023161D01*
X01071Y023201D01*
X01063Y023161D01*
X00843Y026561D02*
X00847Y026641D01*
X00843Y026721D01*
X00851Y026681D01*
X00859Y026721D01*
X00855Y026641D01*
X00859Y026561D01*
X00851Y026601D01*
X00843Y026561D01*
Y026211D02*
X00847Y026291D01*
X00843Y026371D01*
X00851Y026331D01*
X00859Y026371D01*
X00855Y026291D01*
X00859Y026211D01*
X00851Y026251D01*
X00843Y026211D01*
Y025761D02*
X00847Y025841D01*
X00843Y025921D01*
X00851Y025881D01*
X00859Y025921D01*
X00855Y025841D01*
X00859Y025761D01*
X00851Y025801D01*
X00843Y025761D01*
Y025361D02*
X00847Y025441D01*
X00843Y025521D01*
X00851Y025481D01*
X00859Y025521D01*
X00855Y025441D01*
X00859Y025361D01*
X00851Y025401D01*
X00843Y025361D01*
X00583Y022261D02*
X00587Y022341D01*
X00583Y022421D01*
X00591Y022381D01*
X00599Y022421D01*
X00595Y022341D01*
X00599Y022261D01*
X00591Y022301D01*
X00583Y022261D01*
X00963Y022461D02*
X00967Y022541D01*
X00963Y022621D01*
X00971Y022581D01*
X00979Y022621D01*
X00975Y022541D01*
X00979Y022461D01*
X00971Y022501D01*
X00963Y022461D01*
X01448Y021611D02*
X01452Y021691D01*
X01448Y021771D01*
X01456Y021731D01*
X01464Y021771D01*
X0146Y021691D01*
X01464Y021611D01*
X01456Y021651D01*
X01448Y021611D01*
X01178Y021411D02*
X01182Y021491D01*
X01178Y021571D01*
X01186Y021531D01*
X01194Y021571D01*
X0119Y021491D01*
X01194Y021411D01*
X01186Y021451D01*
X01178Y021411D01*
X01173Y022161D02*
X01177Y022241D01*
X01173Y022321D01*
X01181Y022281D01*
X01189Y022321D01*
X01185Y022241D01*
X01189Y022161D01*
X01181Y022201D01*
X01173Y022161D01*
X01113Y023011D02*
X01117Y023091D01*
X01113Y023171D01*
X01121Y023131D01*
X01129Y023171D01*
X01125Y023091D01*
X01129Y023011D01*
X01121Y023051D01*
X01113Y023011D01*
X01153Y023411D02*
X01157Y023491D01*
X01153Y023571D01*
X01161Y023531D01*
X01169Y023571D01*
X01165Y023491D01*
X01169Y023411D01*
X01161Y023451D01*
X01153Y023411D01*
X01008Y022161D02*
X01012Y022241D01*
X01008Y022321D01*
X01016Y022281D01*
X01024Y022321D01*
X0102Y022241D01*
X01024Y022161D01*
X01016Y022201D01*
X01008Y022161D01*
X00903D02*
X00907Y022241D01*
X00903Y022321D01*
X00911Y022281D01*
X00919Y022321D01*
X00915Y022241D01*
X00919Y022161D01*
X00911Y022201D01*
X00903Y022161D01*
X01203Y023811D02*
X01207Y023891D01*
X01203Y023971D01*
X01211Y023931D01*
X01219Y023971D01*
X01215Y023891D01*
X01219Y023811D01*
X01211Y023851D01*
X01203Y023811D01*
X01233Y022611D02*
X01237Y022691D01*
X01233Y022771D01*
X01241Y022731D01*
X01249Y022771D01*
X01245Y022691D01*
X01249Y022611D01*
X01241Y022651D01*
X01233Y022611D01*
X01208Y022361D02*
X01212Y022441D01*
X01208Y022521D01*
X01216Y022481D01*
X01224Y022521D01*
X0122Y022441D01*
X01224Y022361D01*
X01216Y022401D01*
X01208Y022361D01*
X01263Y022861D02*
X01267Y022941D01*
X01263Y023021D01*
X01271Y022981D01*
X01279Y023021D01*
X01275Y022941D01*
X01279Y022861D01*
X01271Y022901D01*
X01263Y022861D01*
X00683Y023961D02*
X00687Y024041D01*
X00683Y024121D01*
X00691Y024081D01*
X00699Y024121D01*
X00695Y024041D01*
X00699Y023961D01*
X00691Y024001D01*
X00683Y023961D01*
X00763Y025011D02*
X00767Y025091D01*
X00763Y025171D01*
X00771Y025131D01*
X00779Y025171D01*
X00775Y025091D01*
X00779Y025011D01*
X00771Y025051D01*
X00763Y025011D01*
X00563Y023811D02*
X00567Y023891D01*
X00563Y023971D01*
X00571Y023931D01*
X00579Y023971D01*
X00575Y023891D01*
X00579Y023811D01*
X00571Y023851D01*
X00563Y023811D01*
Y024611D02*
X00567Y024691D01*
X00563Y024771D01*
X00571Y024731D01*
X00579Y024771D01*
X00575Y024691D01*
X00579Y024611D01*
X00571Y024651D01*
X00563Y024611D01*
X00548Y022711D02*
X00552Y022791D01*
X00548Y022871D01*
X00556Y022831D01*
X00564Y022871D01*
X0056Y022791D01*
X00564Y022711D01*
X00556Y022751D01*
X00548Y022711D01*
Y022961D02*
X00552Y023041D01*
X00548Y023121D01*
X00556Y023081D01*
X00564Y023121D01*
X0056Y023041D01*
X00564Y022961D01*
X00556Y023001D01*
X00548Y022961D01*
X00583Y022711D02*
X00587Y022791D01*
X00583Y022871D01*
X00591Y022831D01*
X00599Y022871D01*
X00595Y022791D01*
X00599Y022711D01*
X00591Y022751D01*
X00583Y022711D01*
Y022961D02*
X00587Y023041D01*
X00583Y023121D01*
X00591Y023081D01*
X00599Y023121D01*
X00595Y023041D01*
X00599Y022961D01*
X00591Y023001D01*
X00583Y022961D01*
X00478Y026411D02*
X00482Y026491D01*
X00478Y026571D01*
X00486Y026531D01*
X00494Y026571D01*
X0049Y026491D01*
X00494Y026411D01*
X00486Y026451D01*
X00478Y026411D01*
X00548Y025711D02*
X00552Y025791D01*
X00548Y025871D01*
X00556Y025831D01*
X00564Y025871D01*
X0056Y025791D01*
X00564Y025711D01*
X00556Y025751D01*
X00548Y025711D01*
Y025461D02*
X00552Y025541D01*
X00548Y025621D01*
X00556Y025581D01*
X00564Y025621D01*
X0056Y025541D01*
X00564Y025461D01*
X00556Y025501D01*
X00548Y025461D01*
X00678Y026611D02*
X00682Y026691D01*
X00678Y026771D01*
X00686Y026731D01*
X00694Y026771D01*
X0069Y026691D01*
X00694Y026611D01*
X00686Y026651D01*
X00678Y026611D01*
X00583Y025461D02*
X00587Y025541D01*
X00583Y025621D01*
X00591Y025581D01*
X00599Y025621D01*
X00595Y025541D01*
X00599Y025461D01*
X00591Y025501D01*
X00583Y025461D01*
Y025711D02*
X00587Y025791D01*
X00583Y025871D01*
X00591Y025831D01*
X00599Y025871D01*
X00595Y025791D01*
X00599Y025711D01*
X00591Y025751D01*
X00583Y025711D01*
X004214Y026961D02*
X004254Y027041D01*
X004214Y027121D01*
X004294Y027081D01*
X004374Y027121D01*
X004334Y027041D01*
X004374Y026961D01*
X004294Y027001D01*
X004214Y026961D01*
X021377Y025096D02*
Y025256D01*
X021537D01*
Y025096D01*
X021377D01*
X021377Y023325D02*
Y023485D01*
X021537D01*
Y023325D01*
X021377D01*
X036913Y023861D02*
X036833Y024021D01*
X036993D01*
X036913Y023861D01*
X031613Y021911D02*
X031533Y022071D01*
X031693D01*
X031613Y021911D01*
Y022461D02*
X031533Y022621D01*
X031693D01*
X031613Y022461D01*
X032013Y022211D02*
X031933Y022371D01*
X032093D01*
X032013Y022211D01*
Y021811D02*
X031933Y021971D01*
X032093D01*
X032013Y021811D01*
X032513D02*
X032433Y021971D01*
X032593D01*
X032513Y021811D01*
Y022211D02*
X032433Y022371D01*
X032593D01*
X032513Y022211D01*
X033213Y022261D02*
X033133Y022421D01*
X033293D01*
X033213Y022261D01*
Y021761D02*
X033133Y021921D01*
X033293D01*
X033213Y021761D01*
X030513Y026361D02*
X030433Y026521D01*
X030593D01*
X030513Y026361D01*
X030463Y027111D02*
X030383Y027271D01*
X030543D01*
X030463Y027111D01*
X022263Y022011D02*
X022183Y022171D01*
X022343D01*
X022263Y022011D01*
X021563D02*
X021483Y022171D01*
X021643D01*
X021563Y022011D01*
X020863Y022061D02*
X020783Y022221D01*
X020943D01*
X020863Y022061D01*
X034563Y023711D02*
X034483Y023871D01*
X034643D01*
X034563Y023711D01*
X033483Y024299D02*
X033523Y024379D01*
X033483Y024459D01*
X033563Y024419D01*
X033643Y024459D01*
X033603Y024379D01*
X033643Y024299D01*
X033563Y024339D01*
X033483Y024299D01*
X032983Y02446D02*
X033023Y02454D01*
X032983Y02462D01*
X033063Y02458D01*
X033143Y02462D01*
X033103Y02454D01*
X033143Y02446D01*
X033063Y0245D01*
X032983Y02446D01*
X033063Y024761D02*
X032983Y024921D01*
X033143D01*
X033063Y024761D01*
X033067Y02405D02*
X033107Y02413D01*
X033067Y02421D01*
X033147Y02417D01*
X033227Y02421D01*
X033187Y02413D01*
X033227Y02405D01*
X033147Y02409D01*
X033067Y02405D01*
X035183Y024511D02*
X035223Y024591D01*
X035183Y024671D01*
X035263Y024631D01*
X035343Y024671D01*
X035303Y024591D01*
X035343Y024511D01*
X035263Y024551D01*
X035183Y024511D01*
Y024061D02*
X035223Y024141D01*
X035183Y024221D01*
X035263Y024181D01*
X035343Y024221D01*
X035303Y024141D01*
X035343Y024061D01*
X035263Y024101D01*
X035183Y024061D01*
X025833Y025111D02*
X025873Y025191D01*
X025833Y025271D01*
X025913Y025231D01*
X025993Y025271D01*
X025953Y025191D01*
X025993Y025111D01*
X025913Y025151D01*
X025833Y025111D01*
X027533Y023961D02*
X027573Y024041D01*
X027533Y024121D01*
X027613Y024081D01*
X027693Y024121D01*
X027653Y024041D01*
X027693Y023961D01*
X027613Y024001D01*
X027533Y023961D01*
X026483Y023361D02*
X026523Y023441D01*
X026483Y023521D01*
X026563Y023481D01*
X026643Y023521D01*
X026603Y023441D01*
X026643Y023361D01*
X026563Y023401D01*
X026483Y023361D01*
X027283Y023761D02*
X027323Y023841D01*
X027283Y023921D01*
X027363Y023881D01*
X027443Y023921D01*
X027403Y023841D01*
X027443Y023761D01*
X027363Y023801D01*
X027283Y023761D01*
X026583Y025111D02*
X026623Y025191D01*
X026583Y025271D01*
X026663Y025231D01*
X026743Y025271D01*
X026703Y025191D01*
X026743Y025111D01*
X026663Y025151D01*
X026583Y025111D01*
X035233Y024811D02*
X035273Y024891D01*
X035233Y024971D01*
X035313Y024931D01*
X035393Y024971D01*
X035353Y024891D01*
X035393Y024811D01*
X035313Y024851D01*
X035233Y024811D01*
X034783Y026211D02*
X034823Y026291D01*
X034783Y026371D01*
X034863Y026331D01*
X034943Y026371D01*
X034903Y026291D01*
X034943Y026211D01*
X034863Y026251D01*
X034783Y026211D01*
X025383Y021461D02*
X025423Y021541D01*
X025383Y021621D01*
X025463Y021581D01*
X025543Y021621D01*
X025503Y021541D01*
X025543Y021461D01*
X025463Y021501D01*
X025383Y021461D01*
X024433D02*
X024473Y021541D01*
X024433Y021621D01*
X024513Y021581D01*
X024593Y021621D01*
X024553Y021541D01*
X024593Y021461D01*
X024513Y021501D01*
X024433Y021461D01*
X023433D02*
X023473Y021541D01*
X023433Y021621D01*
X023513Y021581D01*
X023593Y021621D01*
X023553Y021541D01*
X023593Y021461D01*
X023513Y021501D01*
X023433Y021461D01*
X022483D02*
X022523Y021541D01*
X022483Y021621D01*
X022563Y021581D01*
X022643Y021621D01*
X022603Y021541D01*
X022643Y021461D01*
X022563Y021501D01*
X022483Y021461D01*
X021533D02*
X021573Y021541D01*
X021533Y021621D01*
X021613Y021581D01*
X021693Y021621D01*
X021653Y021541D01*
X021693Y021461D01*
X021613Y021501D01*
X021533Y021461D01*
X020733D02*
X020773Y021541D01*
X020733Y021621D01*
X020813Y021581D01*
X020893Y021621D01*
X020853Y021541D01*
X020893Y021461D01*
X020813Y021501D01*
X020733Y021461D01*
X028583Y026661D02*
X028623Y026741D01*
X028583Y026821D01*
X028663Y026781D01*
X028743Y026821D01*
X028703Y026741D01*
X028743Y026661D01*
X028663Y026701D01*
X028583Y026661D01*
X027783Y027111D02*
X027823Y027191D01*
X027783Y027271D01*
X027863Y027231D01*
X027943Y027271D01*
X027903Y027191D01*
X027943Y027111D01*
X027863Y027151D01*
X027783Y027111D01*
X028583D02*
X028623Y027191D01*
X028583Y027271D01*
X028663Y027231D01*
X028743Y027271D01*
X028703Y027191D01*
X028743Y027111D01*
X028663Y027151D01*
X028583Y027111D01*
X031433Y021411D02*
X031473Y021491D01*
X031433Y021571D01*
X031513Y021531D01*
X031593Y021571D01*
X031553Y021491D01*
X031593Y021411D01*
X031513Y021451D01*
X031433Y021411D01*
X031933D02*
X031973Y021491D01*
X031933Y021571D01*
X032013Y021531D01*
X032093Y021571D01*
X032053Y021491D01*
X032093Y021411D01*
X032013Y021451D01*
X031933Y021411D01*
X032483D02*
X032523Y021491D01*
X032483Y021571D01*
X032563Y021531D01*
X032643Y021571D01*
X032603Y021491D01*
X032643Y021411D01*
X032563Y021451D01*
X032483Y021411D01*
X033133D02*
X033173Y021491D01*
X033133Y021571D01*
X033213Y021531D01*
X033293Y021571D01*
X033253Y021491D01*
X033293Y021411D01*
X033213Y021451D01*
X033133Y021411D01*
X033783D02*
X033823Y021491D01*
X033783Y021571D01*
X033863Y021531D01*
X033943Y021571D01*
X033903Y021491D01*
X033943Y021411D01*
X033863Y021451D01*
X033783Y021411D01*
X036783Y027111D02*
X036823Y027191D01*
X036783Y027271D01*
X036863Y027231D01*
X036943Y027271D01*
X036903Y027191D01*
X036943Y027111D01*
X036863Y027151D01*
X036783Y027111D01*
X036133D02*
X036173Y027191D01*
X036133Y027271D01*
X036213Y027231D01*
X036293Y027271D01*
X036253Y027191D01*
X036293Y027111D01*
X036213Y027151D01*
X036133Y027111D01*
X035433D02*
X035473Y027191D01*
X035433Y027271D01*
X035513Y027231D01*
X035593Y027271D01*
X035553Y027191D01*
X035593Y027111D01*
X035513Y027151D01*
X035433Y027111D01*
X034783D02*
X034823Y027191D01*
X034783Y027271D01*
X034863Y027231D01*
X034943Y027271D01*
X034903Y027191D01*
X034943Y027111D01*
X034863Y027151D01*
X034783Y027111D01*
X034133D02*
X034173Y027191D01*
X034133Y027271D01*
X034213Y027231D01*
X034293Y027271D01*
X034253Y027191D01*
X034293Y027111D01*
X034213Y027151D01*
X034133Y027111D01*
X036833Y023311D02*
X036873Y023391D01*
X036833Y023471D01*
X036913Y023431D01*
X036993Y023471D01*
X036953Y023391D01*
X036993Y023311D01*
X036913Y023351D01*
X036833Y023311D01*
Y022711D02*
X036873Y022791D01*
X036833Y022871D01*
X036913Y022831D01*
X036993Y022871D01*
X036953Y022791D01*
X036993Y022711D01*
X036913Y022751D01*
X036833Y022711D01*
Y022161D02*
X036873Y022241D01*
X036833Y022321D01*
X036913Y022281D01*
X036993Y022321D01*
X036953Y022241D01*
X036993Y022161D01*
X036913Y022201D01*
X036833Y022161D01*
Y021611D02*
X036873Y021691D01*
X036833Y021771D01*
X036913Y021731D01*
X036993Y021771D01*
X036953Y021691D01*
X036993Y021611D01*
X036913Y021651D01*
X036833Y021611D01*
X036383Y021411D02*
X036423Y021491D01*
X036383Y021571D01*
X036463Y021531D01*
X036543Y021571D01*
X036503Y021491D01*
X036543Y021411D01*
X036463Y021451D01*
X036383Y021411D01*
X035683D02*
X035723Y021491D01*
X035683Y021571D01*
X035763Y021531D01*
X035843Y021571D01*
X035803Y021491D01*
X035843Y021411D01*
X035763Y021451D01*
X035683Y021411D01*
X035083D02*
X035123Y021491D01*
X035083Y021571D01*
X035163Y021531D01*
X035243Y021571D01*
X035203Y021491D01*
X035243Y021411D01*
X035163Y021451D01*
X035083Y021411D01*
X034333D02*
X034373Y021491D01*
X034333Y021571D01*
X034413Y021531D01*
X034493Y021571D01*
X034453Y021491D01*
X034493Y021411D01*
X034413Y021451D01*
X034333Y021411D01*
X033783Y021711D02*
X033823Y021791D01*
X033783Y021871D01*
X033863Y021831D01*
X033943Y021871D01*
X033903Y021791D01*
X033943Y021711D01*
X033863Y021751D01*
X033783Y021711D01*
Y022311D02*
X033823Y022391D01*
X033783Y022471D01*
X033863Y022431D01*
X033943Y022471D01*
X033903Y022391D01*
X033943Y022311D01*
X033863Y022351D01*
X033783Y022311D01*
Y023011D02*
X033823Y023091D01*
X033783Y023171D01*
X033863Y023131D01*
X033943Y023171D01*
X033903Y023091D01*
X033943Y023011D01*
X033863Y023051D01*
X033783Y023011D01*
Y023661D02*
X033823Y023741D01*
X033783Y023821D01*
X033863Y023781D01*
X033943Y023821D01*
X033903Y023741D01*
X033943Y023661D01*
X033863Y023701D01*
X033783Y023661D01*
X033483Y025911D02*
X033523Y025991D01*
X033483Y026071D01*
X033563Y026031D01*
X033643Y026071D01*
X033603Y025991D01*
X033643Y025911D01*
X033563Y025951D01*
X033483Y025911D01*
Y026511D02*
X033523Y026591D01*
X033483Y026671D01*
X033563Y026631D01*
X033643Y026671D01*
X033603Y026591D01*
X033643Y026511D01*
X033563Y026551D01*
X033483Y026511D01*
Y027111D02*
X033523Y027191D01*
X033483Y027271D01*
X033563Y027231D01*
X033643Y027271D01*
X033603Y027191D01*
X033643Y027111D01*
X033563Y027151D01*
X033483Y027111D01*
X032983Y026061D02*
X033023Y026141D01*
X032983Y026221D01*
X033063Y026181D01*
X033143Y026221D01*
X033103Y026141D01*
X033143Y026061D01*
X033063Y026101D01*
X032983Y026061D01*
X031433Y026661D02*
X031473Y026741D01*
X031433Y026821D01*
X031513Y026781D01*
X031593Y026821D01*
X031553Y026741D01*
X031593Y026661D01*
X031513Y026701D01*
X031433Y026661D01*
X029433Y025661D02*
X029473Y025741D01*
X029433Y025821D01*
X029513Y025781D01*
X029593Y025821D01*
X029553Y025741D01*
X029593Y025661D01*
X029513Y025701D01*
X029433Y025661D01*
X032383Y024111D02*
X032423Y024191D01*
X032383Y024271D01*
X032463Y024231D01*
X032543Y024271D01*
X032503Y024191D01*
X032543Y024111D01*
X032463Y024151D01*
X032383Y024111D01*
X031483Y022811D02*
X031523Y022891D01*
X031483Y022971D01*
X031563Y022931D01*
X031643Y022971D01*
X031603Y022891D01*
X031643Y022811D01*
X031563Y022851D01*
X031483Y022811D01*
X031152Y022824D02*
X031192Y022904D01*
X031152Y022984D01*
X031232Y022944D01*
X031312Y022984D01*
X031272Y022904D01*
X031312Y022824D01*
X031232Y022864D01*
X031152Y022824D01*
X025933Y022811D02*
X025973Y022891D01*
X025933Y022971D01*
X026013Y022931D01*
X026093Y022971D01*
X026053Y022891D01*
X026093Y022811D01*
X026013Y022851D01*
X025933Y022811D01*
X030683Y023711D02*
X030723Y023791D01*
X030683Y023871D01*
X030763Y023831D01*
X030843Y023871D01*
X030803Y023791D01*
X030843Y023711D01*
X030763Y023751D01*
X030683Y023711D01*
Y023311D02*
X030723Y023391D01*
X030683Y023471D01*
X030763Y023431D01*
X030843Y023471D01*
X030803Y023391D01*
X030843Y023311D01*
X030763Y023351D01*
X030683Y023311D01*
X030883Y023511D02*
X030923Y023591D01*
X030883Y023671D01*
X030963Y023631D01*
X031043Y023671D01*
X031003Y023591D01*
X031043Y023511D01*
X030963Y023551D01*
X030883Y023511D01*
X030483D02*
X030523Y023591D01*
X030483Y023671D01*
X030563Y023631D01*
X030643Y023671D01*
X030603Y023591D01*
X030643Y023511D01*
X030563Y023551D01*
X030483Y023511D01*
X028533Y024811D02*
X028573Y024891D01*
X028533Y024971D01*
X028613Y024931D01*
X028693Y024971D01*
X028653Y024891D01*
X028693Y024811D01*
X028613Y024851D01*
X028533Y024811D01*
X029533Y023161D02*
X029573Y023241D01*
X029533Y023321D01*
X029613Y023281D01*
X029693Y023321D01*
X029653Y023241D01*
X029693Y023161D01*
X029613Y023201D01*
X029533Y023161D01*
X030483Y024461D02*
X030523Y024541D01*
X030483Y024621D01*
X030563Y024581D01*
X030643Y024621D01*
X030603Y024541D01*
X030643Y024461D01*
X030563Y024501D01*
X030483Y024461D01*
X030783Y024411D02*
X030823Y024491D01*
X030783Y024571D01*
X030863Y024531D01*
X030943Y024571D01*
X030903Y024491D01*
X030943Y024411D01*
X030863Y024451D01*
X030783Y024411D01*
X024633Y023761D02*
X024673Y023841D01*
X024633Y023921D01*
X024713Y023881D01*
X024793Y023921D01*
X024753Y023841D01*
X024793Y023761D01*
X024713Y023801D01*
X024633Y023761D01*
X024683Y023211D02*
X024723Y023291D01*
X024683Y023371D01*
X024763Y023331D01*
X024843Y023371D01*
X024803Y023291D01*
X024843Y023211D01*
X024763Y023251D01*
X024683Y023211D01*
X030696Y025398D02*
X030736Y025478D01*
X030696Y025558D01*
X030776Y025518D01*
X030856Y025558D01*
X030816Y025478D01*
X030856Y025398D01*
X030776Y025438D01*
X030696Y025398D01*
X030383Y025361D02*
X030423Y025441D01*
X030383Y025521D01*
X030463Y025481D01*
X030543Y025521D01*
X030503Y025441D01*
X030543Y025361D01*
X030463Y025401D01*
X030383Y025361D01*
X028483Y026411D02*
X028523Y026491D01*
X028483Y026571D01*
X028563Y026531D01*
X028643Y026571D01*
X028603Y026491D01*
X028643Y026411D01*
X028563Y026451D01*
X028483Y026411D01*
X028233Y026661D02*
X028273Y026741D01*
X028233Y026821D01*
X028313Y026781D01*
X028393Y026821D01*
X028353Y026741D01*
X028393Y026661D01*
X028313Y026701D01*
X028233Y026661D01*
X027283Y023161D02*
X027323Y023241D01*
X027283Y023321D01*
X027363Y023281D01*
X027443Y023321D01*
X027403Y023241D01*
X027443Y023161D01*
X027363Y023201D01*
X027283Y023161D01*
X025083Y026561D02*
X025123Y026641D01*
X025083Y026721D01*
X025163Y026681D01*
X025243Y026721D01*
X025203Y026641D01*
X025243Y026561D01*
X025163Y026601D01*
X025083Y026561D01*
Y026211D02*
X025123Y026291D01*
X025083Y026371D01*
X025163Y026331D01*
X025243Y026371D01*
X025203Y026291D01*
X025243Y026211D01*
X025163Y026251D01*
X025083Y026211D01*
Y025761D02*
X025123Y025841D01*
X025083Y025921D01*
X025163Y025881D01*
X025243Y025921D01*
X025203Y025841D01*
X025243Y025761D01*
X025163Y025801D01*
X025083Y025761D01*
Y025361D02*
X025123Y025441D01*
X025083Y025521D01*
X025163Y025481D01*
X025243Y025521D01*
X025203Y025441D01*
X025243Y025361D01*
X025163Y025401D01*
X025083Y025361D01*
X022483Y022261D02*
X022523Y022341D01*
X022483Y022421D01*
X022563Y022381D01*
X022643Y022421D01*
X022603Y022341D01*
X022643Y022261D01*
X022563Y022301D01*
X022483Y022261D01*
X026283Y022461D02*
X026323Y022541D01*
X026283Y022621D01*
X026363Y022581D01*
X026443Y022621D01*
X026403Y022541D01*
X026443Y022461D01*
X026363Y022501D01*
X026283Y022461D01*
X031133Y021611D02*
X031173Y021691D01*
X031133Y021771D01*
X031213Y021731D01*
X031293Y021771D01*
X031253Y021691D01*
X031293Y021611D01*
X031213Y021651D01*
X031133Y021611D01*
X028433Y021411D02*
X028473Y021491D01*
X028433Y021571D01*
X028513Y021531D01*
X028593Y021571D01*
X028553Y021491D01*
X028593Y021411D01*
X028513Y021451D01*
X028433Y021411D01*
X028383Y022161D02*
X028423Y022241D01*
X028383Y022321D01*
X028463Y022281D01*
X028543Y022321D01*
X028503Y022241D01*
X028543Y022161D01*
X028463Y022201D01*
X028383Y022161D01*
X027783Y023011D02*
X027823Y023091D01*
X027783Y023171D01*
X027863Y023131D01*
X027943Y023171D01*
X027903Y023091D01*
X027943Y023011D01*
X027863Y023051D01*
X027783Y023011D01*
X028183Y023411D02*
X028223Y023491D01*
X028183Y023571D01*
X028263Y023531D01*
X028343Y023571D01*
X028303Y023491D01*
X028343Y023411D01*
X028263Y023451D01*
X028183Y023411D01*
X026733Y022161D02*
X026773Y022241D01*
X026733Y022321D01*
X026813Y022281D01*
X026893Y022321D01*
X026853Y022241D01*
X026893Y022161D01*
X026813Y022201D01*
X026733Y022161D01*
X025683D02*
X025723Y022241D01*
X025683Y022321D01*
X025763Y022281D01*
X025843Y022321D01*
X025803Y022241D01*
X025843Y022161D01*
X025763Y022201D01*
X025683Y022161D01*
X028683Y023811D02*
X028723Y023891D01*
X028683Y023971D01*
X028763Y023931D01*
X028843Y023971D01*
X028803Y023891D01*
X028843Y023811D01*
X028763Y023851D01*
X028683Y023811D01*
X028983Y022611D02*
X029023Y022691D01*
X028983Y022771D01*
X029063Y022731D01*
X029143Y022771D01*
X029103Y022691D01*
X029143Y022611D01*
X029063Y022651D01*
X028983Y022611D01*
X028733Y022361D02*
X028773Y022441D01*
X028733Y022521D01*
X028813Y022481D01*
X028893Y022521D01*
X028853Y022441D01*
X028893Y022361D01*
X028813Y022401D01*
X028733Y022361D01*
X029283Y022861D02*
X029323Y022941D01*
X029283Y023021D01*
X029363Y022981D01*
X029443Y023021D01*
X029403Y022941D01*
X029443Y022861D01*
X029363Y022901D01*
X029283Y022861D01*
X023483Y023961D02*
X023523Y024041D01*
X023483Y024121D01*
X023563Y024081D01*
X023643Y024121D01*
X023603Y024041D01*
X023643Y023961D01*
X023563Y024001D01*
X023483Y023961D01*
X024283Y025011D02*
X024323Y025091D01*
X024283Y025171D01*
X024363Y025131D01*
X024443Y025171D01*
X024403Y025091D01*
X024443Y025011D01*
X024363Y025051D01*
X024283Y025011D01*
X022283Y023811D02*
X022323Y023891D01*
X022283Y023971D01*
X022363Y023931D01*
X022443Y023971D01*
X022403Y023891D01*
X022443Y023811D01*
X022363Y023851D01*
X022283Y023811D01*
Y024611D02*
X022323Y024691D01*
X022283Y024771D01*
X022363Y024731D01*
X022443Y024771D01*
X022403Y024691D01*
X022443Y024611D01*
X022363Y024651D01*
X022283Y024611D01*
X022133Y022711D02*
X022173Y022791D01*
X022133Y022871D01*
X022213Y022831D01*
X022293Y022871D01*
X022253Y022791D01*
X022293Y022711D01*
X022213Y022751D01*
X022133Y022711D01*
Y022961D02*
X022173Y023041D01*
X022133Y023121D01*
X022213Y023081D01*
X022293Y023121D01*
X022253Y023041D01*
X022293Y022961D01*
X022213Y023001D01*
X022133Y022961D01*
X022483Y022711D02*
X022523Y022791D01*
X022483Y022871D01*
X022563Y022831D01*
X022643Y022871D01*
X022603Y022791D01*
X022643Y022711D01*
X022563Y022751D01*
X022483Y022711D01*
Y022961D02*
X022523Y023041D01*
X022483Y023121D01*
X022563Y023081D01*
X022643Y023121D01*
X022603Y023041D01*
X022643Y022961D01*
X022563Y023001D01*
X022483Y022961D01*
X021433Y026411D02*
X021473Y026491D01*
X021433Y026571D01*
X021513Y026531D01*
X021593Y026571D01*
X021553Y026491D01*
X021593Y026411D01*
X021513Y026451D01*
X021433Y026411D01*
X022133Y025711D02*
X022173Y025791D01*
X022133Y025871D01*
X022213Y025831D01*
X022293Y025871D01*
X022253Y025791D01*
X022293Y025711D01*
X022213Y025751D01*
X022133Y025711D01*
Y025461D02*
X022173Y025541D01*
X022133Y025621D01*
X022213Y025581D01*
X022293Y025621D01*
X022253Y025541D01*
X022293Y025461D01*
X022213Y025501D01*
X022133Y025461D01*
X023433Y026611D02*
X023473Y026691D01*
X023433Y026771D01*
X023513Y026731D01*
X023593Y026771D01*
X023553Y026691D01*
X023593Y026611D01*
X023513Y026651D01*
X023433Y026611D01*
X022483Y025461D02*
X022523Y025541D01*
X022483Y025621D01*
X022563Y025581D01*
X022643Y025621D01*
X022603Y025541D01*
X022643Y025461D01*
X022563Y025501D01*
X022483Y025461D01*
Y025711D02*
X022523Y025791D01*
X022483Y025871D01*
X022563Y025831D01*
X022643Y025871D01*
X022603Y025791D01*
X022643Y025711D01*
X022563Y025751D01*
X022483Y025711D01*
X020868Y026961D02*
X020908Y027041D01*
X020868Y027121D01*
X020948Y027081D01*
X021028Y027121D01*
X020988Y027041D01*
X021028Y026961D01*
X020948Y027001D01*
X020868Y026961D01*
X017836Y020064D02*
Y020024D01*
X017916D01*
Y020064D01*
X017956D01*
Y020144D01*
X017916D01*
Y020184D01*
X017836D01*
Y020144D01*
X017796D01*
Y020064D01*
X017836D01*
X019804D02*
Y020024D01*
X019884D01*
Y020064D01*
X019924D01*
Y020144D01*
X019884D01*
Y020184D01*
X019804D01*
Y020144D01*
X019764D01*
Y020064D01*
X019804D01*
Y018096D02*
Y018056D01*
X019884D01*
Y018096D01*
X019924D01*
Y018176D01*
X019884D01*
Y018216D01*
X019804D01*
Y018176D01*
X019764D01*
Y018096D01*
X019804D01*
X017836D02*
Y018056D01*
X017916D01*
Y018096D01*
X017956D01*
Y018176D01*
X017916D01*
Y018216D01*
X017836D01*
Y018176D01*
X017796D01*
Y018096D01*
X017836D01*
X01878Y01904D02*
X01882D01*
X01886Y01908D01*
X0189Y01904D01*
X01894D01*
Y01908D01*
X0189Y01912D01*
X01894Y01916D01*
Y0192D01*
X0189D01*
X01886Y01916D01*
X01882Y0192D01*
X01878D01*
Y01916D01*
X01882Y01912D01*
X01878Y01908D01*
Y01904D01*
X004724Y017104D02*
Y017264D01*
X004884D01*
Y017104D01*
X004724D01*
X004724Y018876D02*
Y019036D01*
X004884D01*
Y018876D01*
X004724D01*
X007903Y016913D02*
X007943Y016993D01*
X007903Y017073D01*
X007983Y017033D01*
X008063Y017073D01*
X008023Y016993D01*
X008063Y016913D01*
X007983Y016953D01*
X007903Y016913D01*
X01996Y01899D02*
X01988Y01915D01*
X02004D01*
X01996Y01899D01*
X01618Y01849D02*
X01622Y01857D01*
X01618Y01865D01*
X01626Y01861D01*
X01634Y01865D01*
X0163Y01857D01*
X01634Y01849D01*
X01626Y01853D01*
X01618Y01849D01*
X01408Y01829D02*
X01412Y01837D01*
X01408Y01845D01*
X01416Y01841D01*
X01424Y01845D01*
X0142Y01837D01*
X01424Y01829D01*
X01416Y01833D01*
X01408Y01829D01*
X017929Y019274D02*
X017969Y019313D01*
X018009D01*
X017969Y019353D01*
X018009Y019394D01*
X017969D01*
X017929Y019433D01*
X017889Y019394D01*
X017849D01*
X017889Y019353D01*
X017849Y019313D01*
X017889D01*
X017929Y019274D01*
X017278Y01876D02*
X017318Y0188D01*
X017358D01*
X017318Y01884D01*
X017358Y01888D01*
X017318D01*
X017278Y01892D01*
X017238Y01888D01*
X017198D01*
X017238Y01884D01*
X017198Y0188D01*
X017238D01*
X017278Y01876D01*
X018107Y018718D02*
X018147Y018758D01*
X018187D01*
X018147Y018798D01*
X018187Y018838D01*
X018147D01*
X018107Y018878D01*
X018067Y018838D01*
X018027D01*
X018067Y018798D01*
X018027Y018758D01*
X018067D01*
X018107Y018718D01*
X018878Y018412D02*
X018918Y018452D01*
X018958D01*
X018918Y018492D01*
X018958Y018532D01*
X018918D01*
X018878Y018572D01*
X018838Y018532D01*
X018798D01*
X018838Y018492D01*
X018798Y018452D01*
X018838D01*
X018878Y018412D01*
X019484Y018979D02*
X019524Y019019D01*
X019564D01*
X019524Y019059D01*
X019564Y019099D01*
X019524D01*
X019484Y019139D01*
X019444Y019099D01*
X019404D01*
X019444Y019059D01*
X019404Y019019D01*
X019444D01*
X019484Y018979D01*
X019Y019654D02*
X01904Y019694D01*
X01908D01*
X01904Y019734D01*
X01908Y019774D01*
X01904D01*
X019Y019814D01*
X01896Y019774D01*
X01892D01*
X01896Y019734D01*
X01892Y019694D01*
X01896D01*
X019Y019654D01*
X01653Y01609D02*
X01657Y01617D01*
X01653Y01625D01*
X01661Y01621D01*
X01669Y01625D01*
X01665Y01617D01*
X01669Y01609D01*
X01661Y01613D01*
X01653Y01609D01*
X01713Y01664D02*
X01717Y01672D01*
X01713Y0168D01*
X01721Y01676D01*
X01729Y0168D01*
X01725Y01672D01*
X01729Y01664D01*
X01721Y01668D01*
X01713Y01664D01*
X01743Y01714D02*
X01747Y01722D01*
X01743Y0173D01*
X01751Y01726D01*
X01759Y0173D01*
X01755Y01722D01*
X01759Y01714D01*
X01751Y01718D01*
X01743Y01714D01*
X015231Y020689D02*
X015271Y020769D01*
X015231Y020849D01*
X015311Y020809D01*
X015391Y020849D01*
X015351Y020769D01*
X015391Y020689D01*
X015311Y020729D01*
X015231Y020689D01*
X01703Y01984D02*
X01707Y01992D01*
X01703Y02D01*
X01711Y01996D01*
X01719Y02D01*
X01715Y01992D01*
X01719Y01984D01*
X01711Y01988D01*
X01703Y01984D01*
X01718Y02039D02*
X01722Y02047D01*
X01718Y02055D01*
X01726Y02051D01*
X01734Y02055D01*
X0173Y02047D01*
X01734Y02039D01*
X01726Y02043D01*
X01718Y02039D01*
X01658Y01984D02*
X01662Y01992D01*
X01658Y02D01*
X01666Y01996D01*
X01674Y02D01*
X0167Y01992D01*
X01674Y01984D01*
X01666Y01988D01*
X01658Y01984D01*
Y02039D02*
X01662Y02047D01*
X01658Y02055D01*
X01666Y02051D01*
X01674Y02055D01*
X0167Y02047D01*
X01674Y02039D01*
X01666Y02043D01*
X01658Y02039D01*
Y02089D02*
X01662Y02097D01*
X01658Y02105D01*
X01666Y02101D01*
X01674Y02105D01*
X0167Y02097D01*
X01674Y02089D01*
X01666Y02093D01*
X01658Y02089D01*
X01583Y01994D02*
X01587Y02002D01*
X01583Y0201D01*
X01591Y02006D01*
X01599Y0201D01*
X01595Y02002D01*
X01599Y01994D01*
X01591Y01998D01*
X01583Y01994D01*
X01238Y01799D02*
X01242Y01807D01*
X01238Y01815D01*
X01246Y01811D01*
X01254Y01815D01*
X0125Y01807D01*
X01254Y01799D01*
X01246Y01803D01*
X01238Y01799D01*
X01268Y01769D02*
X01272Y01777D01*
X01268Y01785D01*
X01276Y01781D01*
X01284Y01785D01*
X0128Y01777D01*
X01284Y01769D01*
X01276Y01773D01*
X01268Y01769D01*
X01298Y01739D02*
X01302Y01747D01*
X01298Y01755D01*
X01306Y01751D01*
X01314Y01755D01*
X0131Y01747D01*
X01314Y01739D01*
X01306Y01743D01*
X01298Y01739D01*
X01378Y01714D02*
X01382Y01722D01*
X01378Y0173D01*
X01386Y01726D01*
X01394Y0173D01*
X0139Y01722D01*
X01394Y01714D01*
X01386Y01718D01*
X01378Y01714D01*
Y01744D02*
X01382Y01752D01*
X01378Y0176D01*
X01386Y01756D01*
X01394Y0176D01*
X0139Y01752D01*
X01394Y01744D01*
X01386Y01748D01*
X01378Y01744D01*
X013715Y018328D02*
X013755Y018408D01*
X013715Y018488D01*
X013795Y018448D01*
X013875Y018488D01*
X013835Y018408D01*
X013875Y018328D01*
X013795Y018368D01*
X013715Y018328D01*
X01388Y01899D02*
X01392Y01907D01*
X01388Y01915D01*
X01396Y01911D01*
X01404Y01915D01*
X014Y01907D01*
X01404Y01899D01*
X01396Y01903D01*
X01388Y01899D01*
X01373Y01929D02*
X01377Y01937D01*
X01373Y01945D01*
X01381Y01941D01*
X01389Y01945D01*
X01385Y01937D01*
X01389Y01929D01*
X01381Y01933D01*
X01373Y01929D01*
X015261Y017571D02*
X015301Y017651D01*
X015261Y017731D01*
X015341Y017691D01*
X015421Y017731D01*
X015381Y017651D01*
X015421Y017571D01*
X015341Y017611D01*
X015261Y017571D01*
X01373Y02009D02*
X01377Y02017D01*
X01373Y02025D01*
X01381Y02021D01*
X01389Y02025D01*
X01385Y02017D01*
X01389Y02009D01*
X01381Y02013D01*
X01373Y02009D01*
X01168Y02089D02*
X01172Y02097D01*
X01168Y02105D01*
X01176Y02101D01*
X01184Y02105D01*
X0118Y02097D01*
X01184Y02089D01*
X01176Y02093D01*
X01168Y02089D01*
X01078D02*
X01082Y02097D01*
X01078Y02105D01*
X01086Y02101D01*
X01094Y02105D01*
X0109Y02097D01*
X01094Y02089D01*
X01086Y02093D01*
X01078Y02089D01*
X01368Y020919D02*
X01372Y020999D01*
X01368Y021079D01*
X01376Y021039D01*
X01384Y021079D01*
X0138Y020999D01*
X01384Y020919D01*
X01376Y020959D01*
X01368Y020919D01*
X01958Y01709D02*
X01962Y01717D01*
X01958Y01725D01*
X01966Y01721D01*
X01974Y01725D01*
X0197Y01717D01*
X01974Y01709D01*
X01966Y01713D01*
X01958Y01709D01*
X01888Y01714D02*
X01892Y01722D01*
X01888Y0173D01*
X01896Y01726D01*
X01904Y0173D01*
X019Y01722D01*
X01904Y01714D01*
X01896Y01718D01*
X01888Y01714D01*
X01808D02*
X01812Y01722D01*
X01808Y0173D01*
X01816Y01726D01*
X01824Y0173D01*
X0182Y01722D01*
X01824Y01714D01*
X01816Y01718D01*
X01808Y01714D01*
X01958Y01664D02*
X01962Y01672D01*
X01958Y0168D01*
X01966Y01676D01*
X01974Y0168D01*
X0197Y01672D01*
X01974Y01664D01*
X01966Y01668D01*
X01958Y01664D01*
X01888Y01659D02*
X01892Y01667D01*
X01888Y01675D01*
X01896Y01671D01*
X01904Y01675D01*
X019Y01667D01*
X01904Y01659D01*
X01896Y01663D01*
X01888Y01659D01*
X01783Y01664D02*
X01787Y01672D01*
X01783Y0168D01*
X01791Y01676D01*
X01799Y0168D01*
X01795Y01672D01*
X01799Y01664D01*
X01791Y01668D01*
X01783Y01664D01*
X01953Y01609D02*
X01957Y01617D01*
X01953Y01625D01*
X01961Y01621D01*
X01969Y01625D01*
X01965Y01617D01*
X01969Y01609D01*
X01961Y01613D01*
X01953Y01609D01*
X01888D02*
X01892Y01617D01*
X01888Y01625D01*
X01896Y01621D01*
X01904Y01625D01*
X019Y01617D01*
X01904Y01609D01*
X01896Y01613D01*
X01888Y01609D01*
X01798D02*
X01802Y01617D01*
X01798Y01625D01*
X01806Y01621D01*
X01814Y01625D01*
X0181Y01617D01*
X01814Y01609D01*
X01806Y01613D01*
X01798Y01609D01*
X01953Y01559D02*
X01957Y01567D01*
X01953Y01575D01*
X01961Y01571D01*
X01969Y01575D01*
X01965Y01567D01*
X01969Y01559D01*
X01961Y01563D01*
X01953Y01559D01*
X01848D02*
X01852Y01567D01*
X01848Y01575D01*
X01856Y01571D01*
X01864Y01575D01*
X0186Y01567D01*
X01864Y01559D01*
X01856Y01563D01*
X01848Y01559D01*
X01713Y01609D02*
X01717Y01617D01*
X01713Y01625D01*
X01721Y01621D01*
X01729Y01625D01*
X01725Y01617D01*
X01729Y01609D01*
X01721Y01613D01*
X01713Y01609D01*
X01768Y01554D02*
X01772Y01562D01*
X01768Y0157D01*
X01776Y01566D01*
X01784Y0157D01*
X0178Y01562D01*
X01784Y01554D01*
X01776Y01558D01*
X01768Y01554D01*
X01683Y01559D02*
X01687Y01567D01*
X01683Y01575D01*
X01691Y01571D01*
X01699Y01575D01*
X01695Y01567D01*
X01699Y01559D01*
X01691Y01563D01*
X01683Y01559D01*
X01593D02*
X01597Y01567D01*
X01593Y01575D01*
X01601Y01571D01*
X01609Y01575D01*
X01605Y01567D01*
X01609Y01559D01*
X01601Y01563D01*
X01593Y01559D01*
X01508D02*
X01512Y01567D01*
X01508Y01575D01*
X01516Y01571D01*
X01524Y01575D01*
X0152Y01567D01*
X01524Y01559D01*
X01516Y01563D01*
X01508Y01559D01*
X01188Y020182D02*
X01192Y020262D01*
X01188Y020342D01*
X01196Y020302D01*
X01204Y020342D01*
X012Y020262D01*
X01204Y020182D01*
X01196Y020222D01*
X01188Y020182D01*
X01948Y02089D02*
X01952Y02097D01*
X01948Y02105D01*
X01956Y02101D01*
X01964Y02105D01*
X0196Y02097D01*
X01964Y02089D01*
X01956Y02093D01*
X01948Y02089D01*
X015189Y015181D02*
X015229Y015261D01*
X015189Y015341D01*
X015269Y015301D01*
X015349Y015341D01*
X015309Y015261D01*
X015349Y015181D01*
X015269Y015221D01*
X015189Y015181D01*
X01443Y01519D02*
X01447Y01527D01*
X01443Y01535D01*
X01451Y01531D01*
X01459Y01535D01*
X01455Y01527D01*
X01459Y01519D01*
X01451Y01523D01*
X01443Y01519D01*
X01598D02*
X01602Y01527D01*
X01598Y01535D01*
X01606Y01531D01*
X01614Y01535D01*
X0161Y01527D01*
X01614Y01519D01*
X01606Y01523D01*
X01598Y01519D01*
X01663D02*
X01667Y01527D01*
X01663Y01535D01*
X01671Y01531D01*
X01679Y01535D01*
X01675Y01527D01*
X01679Y01519D01*
X01671Y01523D01*
X01663Y01519D01*
X01738D02*
X01742Y01527D01*
X01738Y01535D01*
X01746Y01531D01*
X01754Y01535D01*
X0175Y01527D01*
X01754Y01519D01*
X01746Y01523D01*
X01738Y01519D01*
X01818D02*
X01822Y01527D01*
X01818Y01535D01*
X01826Y01531D01*
X01834Y01535D01*
X0183Y01527D01*
X01834Y01519D01*
X01826Y01523D01*
X01818Y01519D01*
X01888D02*
X01892Y01527D01*
X01888Y01535D01*
X01896Y01531D01*
X01904Y01535D01*
X019Y01527D01*
X01904Y01519D01*
X01896Y01523D01*
X01888Y01519D01*
X00413Y01594D02*
X00417Y01602D01*
X00413Y0161D01*
X00421Y01606D01*
X00429Y0161D01*
X00425Y01602D01*
X00429Y01594D01*
X00421Y01598D01*
X00413Y01594D01*
X00838Y01519D02*
X00842Y01527D01*
X00838Y01535D01*
X00846Y01531D01*
X00854Y01535D01*
X0085Y01527D01*
X00854Y01519D01*
X00846Y01523D01*
X00838Y01519D01*
X00683D02*
X00687Y01527D01*
X00683Y01535D01*
X00691Y01531D01*
X00699Y01535D01*
X00695Y01527D01*
X00699Y01519D01*
X00691Y01523D01*
X00683Y01519D01*
X00593D02*
X00597Y01527D01*
X00593Y01535D01*
X00601Y01531D01*
X00609Y01535D01*
X00605Y01527D01*
X00609Y01519D01*
X00601Y01523D01*
X00593Y01519D01*
X00498D02*
X00502Y01527D01*
X00498Y01535D01*
X00506Y01531D01*
X00514Y01535D01*
X0051Y01527D01*
X00514Y01519D01*
X00506Y01523D01*
X00498Y01519D01*
X00418D02*
X00422Y01527D01*
X00418Y01535D01*
X00426Y01531D01*
X00434Y01535D01*
X0043Y01527D01*
X00434Y01519D01*
X00426Y01523D01*
X00418Y01519D01*
X01958D02*
X01962Y01527D01*
X01958Y01535D01*
X01966Y01531D01*
X01974Y01535D01*
X0197Y01527D01*
X01974Y01519D01*
X01966Y01523D01*
X01958Y01519D01*
X02018D02*
X02022Y01527D01*
X02018Y01535D01*
X02026Y01531D01*
X02034Y01535D01*
X0203Y01527D01*
X02034Y01519D01*
X02026Y01523D01*
X02018Y01519D01*
Y01559D02*
X02022Y01567D01*
X02018Y01575D01*
X02026Y01571D01*
X02034Y01575D01*
X0203Y01567D01*
X02034Y01559D01*
X02026Y01563D01*
X02018Y01559D01*
Y01614D02*
X02022Y01622D01*
X02018Y0163D01*
X02026Y01626D01*
X02034Y0163D01*
X0203Y01622D01*
X02034Y01614D01*
X02026Y01618D01*
X02018Y01614D01*
Y01664D02*
X02022Y01672D01*
X02018Y0168D01*
X02026Y01676D01*
X02034Y0168D01*
X0203Y01672D01*
X02034Y01664D01*
X02026Y01668D01*
X02018Y01664D01*
Y01714D02*
X02022Y01722D01*
X02018Y0173D01*
X02026Y01726D01*
X02034Y0173D01*
X0203Y01722D01*
X02034Y01714D01*
X02026Y01718D01*
X02018Y01714D01*
Y02089D02*
X02022Y02097D01*
X02018Y02105D01*
X02026Y02101D01*
X02034Y02105D01*
X0203Y02097D01*
X02034Y02089D01*
X02026Y02093D01*
X02018Y02089D01*
X01873D02*
X01877Y02097D01*
X01873Y02105D01*
X01881Y02101D01*
X01889Y02105D01*
X01885Y02097D01*
X01889Y02089D01*
X01881Y02093D01*
X01873Y02089D01*
X01803D02*
X01807Y02097D01*
X01803Y02105D01*
X01811Y02101D01*
X01819Y02105D01*
X01815Y02097D01*
X01819Y02089D01*
X01811Y02093D01*
X01803Y02089D01*
X01733D02*
X01737Y02097D01*
X01733Y02105D01*
X01741Y02101D01*
X01749Y02105D01*
X01745Y02097D01*
X01749Y02089D01*
X01741Y02093D01*
X01733Y02089D01*
X01278Y01919D02*
X01282Y01927D01*
X01278Y01935D01*
X01286Y01931D01*
X01294Y01935D01*
X0129Y01927D01*
X01294Y01919D01*
X01286Y01923D01*
X01278Y01919D01*
X01188Y01994D02*
X01192Y02002D01*
X01188Y0201D01*
X01196Y02006D01*
X01204Y0201D01*
X012Y02002D01*
X01204Y01994D01*
X01196Y01998D01*
X01188Y01994D01*
X01023Y01889D02*
X01027Y01897D01*
X01023Y01905D01*
X01031Y01901D01*
X01039Y01905D01*
X01035Y01897D01*
X01039Y01889D01*
X01031Y01893D01*
X01023Y01889D01*
X01203Y01819D02*
X01207Y01827D01*
X01203Y01835D01*
X01211Y01831D01*
X01219Y01835D01*
X01215Y01827D01*
X01219Y01819D01*
X01211Y01823D01*
X01203Y01819D01*
X00903Y01889D02*
X00907Y01897D01*
X00903Y01905D01*
X00911Y01901D01*
X00919Y01905D01*
X00915Y01897D01*
X00919Y01889D01*
X00911Y01893D01*
X00903Y01889D01*
X01348Y01594D02*
X01352Y01602D01*
X01348Y0161D01*
X01356Y01606D01*
X01364Y0161D01*
X0136Y01602D01*
X01364Y01594D01*
X01356Y01598D01*
X01348Y01594D01*
Y01614D02*
X01352Y01622D01*
X01348Y0163D01*
X01356Y01626D01*
X01364Y0163D01*
X0136Y01622D01*
X01364Y01614D01*
X01356Y01618D01*
X01348Y01614D01*
X00838Y020415D02*
X00842Y020495D01*
X00838Y020575D01*
X00846Y020535D01*
X00854Y020575D01*
X0085Y020495D01*
X00854Y020415D01*
X00846Y020455D01*
X00838Y020415D01*
Y02009D02*
X00842Y02017D01*
X00838Y02025D01*
X00846Y02021D01*
X00854Y02025D01*
X0085Y02017D01*
X00854Y02009D01*
X00846Y02013D01*
X00838Y02009D01*
X00863Y01659D02*
X00867Y01667D01*
X00863Y01675D01*
X00871Y01671D01*
X00879Y01675D01*
X00875Y01667D01*
X00879Y01659D01*
X00871Y01663D01*
X00863Y01659D01*
X00968Y01629D02*
X00972Y01637D01*
X00968Y01645D01*
X00976Y01641D01*
X00984Y01645D01*
X0098Y01637D01*
X00984Y01629D01*
X00976Y01633D01*
X00968Y01629D01*
X00838Y01699D02*
X00842Y01707D01*
X00838Y01715D01*
X00846Y01711D01*
X00854Y01715D01*
X0085Y01707D01*
X00854Y01699D01*
X00846Y01703D01*
X00838Y01699D01*
X00863D02*
X00867Y01707D01*
X00863Y01715D01*
X00871Y01711D01*
X00879Y01715D01*
X00875Y01707D01*
X00879Y01699D01*
X00871Y01703D01*
X00863Y01699D01*
Y01724D02*
X00867Y01732D01*
X00863Y0174D01*
X00871Y01736D01*
X00879Y0174D01*
X00875Y01732D01*
X00879Y01724D01*
X00871Y01728D01*
X00863Y01724D01*
X00838D02*
X00842Y01732D01*
X00838Y0174D01*
X00846Y01736D01*
X00854Y0174D01*
X0085Y01732D01*
X00854Y01724D01*
X00846Y01728D01*
X00838Y01724D01*
Y01934D02*
X00842Y01942D01*
X00838Y0195D01*
X00846Y01946D01*
X00854Y0195D01*
X0085Y01942D01*
X00854Y01934D01*
X00846Y01938D01*
X00838Y01934D01*
Y01969D02*
X00842Y01977D01*
X00838Y01985D01*
X00846Y01981D01*
X00854Y01985D01*
X0085Y01977D01*
X00854Y01969D01*
X00846Y01973D01*
X00838Y01969D01*
X00853Y01589D02*
X00857Y01597D01*
X00853Y01605D01*
X00861Y01601D01*
X00869Y01605D01*
X00865Y01597D01*
X00869Y01589D01*
X00861Y01593D01*
X00853Y01589D01*
X00543Y01599D02*
X00547Y01607D01*
X00543Y01615D01*
X00551Y01611D01*
X00559Y01615D01*
X00555Y01607D01*
X00559Y01599D01*
X00551Y01603D01*
X00543Y01599D01*
X00973Y01589D02*
X00977Y01597D01*
X00973Y01605D01*
X00981Y01601D01*
X00989Y01605D01*
X00985Y01597D01*
X00989Y01589D01*
X00981Y01593D01*
X00973Y01589D01*
X009445D02*
X009485Y01597D01*
X009445Y01605D01*
X009525Y01601D01*
X009605Y01605D01*
X009565Y01597D01*
X009605Y01589D01*
X009525Y01593D01*
X009445Y01589D01*
X01048Y01744D02*
X01052Y01752D01*
X01048Y0176D01*
X01056Y01756D01*
X01064Y0176D01*
X0106Y01752D01*
X01064Y01744D01*
X01056Y01748D01*
X01048Y01744D01*
X00968Y01714D02*
X00972Y01722D01*
X00968Y0173D01*
X00976Y01726D01*
X00984Y0173D01*
X0098Y01722D01*
X00984Y01714D01*
X00976Y01718D01*
X00968Y01714D01*
X01073Y01674D02*
X01077Y01682D01*
X01073Y0169D01*
X01081Y01686D01*
X01089Y0169D01*
X01085Y01682D01*
X01089Y01674D01*
X01081Y01678D01*
X01073Y01674D01*
X011116Y016679D02*
X011156Y016759D01*
X011116Y016839D01*
X011196Y016799D01*
X011276Y016839D01*
X011236Y016759D01*
X011276Y016679D01*
X011196Y016719D01*
X011116Y016679D01*
X00443Y01994D02*
X00447Y02002D01*
X00443Y0201D01*
X00451Y02006D01*
X00459Y0201D01*
X00455Y02002D01*
X00459Y01994D01*
X00451Y01998D01*
X00443Y01994D01*
X00663Y01764D02*
X00667Y01772D01*
X00663Y0178D01*
X00671Y01776D01*
X00679Y0178D01*
X00675Y01772D01*
X00679Y01764D01*
X00671Y01768D01*
X00663Y01764D01*
X00593Y02029D02*
X00597Y02037D01*
X00593Y02045D01*
X00601Y02041D01*
X00609Y02045D01*
X00605Y02037D01*
X00609Y02029D01*
X00601Y02033D01*
X00593Y02029D01*
X00743Y01879D02*
X00747Y01887D01*
X00743Y01895D01*
X00751Y01891D01*
X00759Y01895D01*
X00755Y01887D01*
X00759Y01879D01*
X00751Y01883D01*
X00743Y01879D01*
X01153Y01599D02*
X01157Y01607D01*
X01153Y01615D01*
X01161Y01611D01*
X01169Y01615D01*
X01165Y01607D01*
X01169Y01599D01*
X01161Y01603D01*
X01153Y01599D01*
Y01714D02*
X01157Y01722D01*
X01153Y0173D01*
X01161Y01726D01*
X01169Y0173D01*
X01165Y01722D01*
X01169Y01714D01*
X01161Y01718D01*
X01153Y01714D01*
X01218Y01754D02*
X01222Y01762D01*
X01218Y0177D01*
X01226Y01766D01*
X01234Y0177D01*
X0123Y01762D01*
X01234Y01754D01*
X01226Y01758D01*
X01218Y01754D01*
X01273Y01704D02*
X01277Y01712D01*
X01273Y0172D01*
X01281Y01716D01*
X01289Y0172D01*
X01285Y01712D01*
X01289Y01704D01*
X01281Y01708D01*
X01273Y01704D01*
X012492Y016602D02*
X012532Y016682D01*
X012492Y016762D01*
X012572Y016722D01*
X012652Y016762D01*
X012612Y016682D01*
X012652Y016602D01*
X012572Y016642D01*
X012492Y016602D01*
X01228Y01639D02*
X01232Y01647D01*
X01228Y01655D01*
X01236Y01651D01*
X01244Y01655D01*
X0124Y01647D01*
X01244Y01639D01*
X01236Y01643D01*
X01228Y01639D01*
X012068Y016178D02*
X012108Y016258D01*
X012068Y016338D01*
X012148Y016298D01*
X012228Y016338D01*
X012188Y016258D01*
X012228Y016178D01*
X012148Y016218D01*
X012068Y016178D01*
X00548Y01924D02*
X00552Y01932D01*
X00548Y0194D01*
X00556Y01936D01*
X00564Y0194D01*
X0056Y01932D01*
X00564Y01924D01*
X00556Y01928D01*
X00548Y01924D01*
X00583D02*
X00587Y01932D01*
X00583Y0194D01*
X00591Y01936D01*
X00599Y0194D01*
X00595Y01932D01*
X00599Y01924D01*
X00591Y01928D01*
X00583Y01924D01*
Y01949D02*
X00587Y01957D01*
X00583Y01965D01*
X00591Y01961D01*
X00599Y01965D01*
X00595Y01957D01*
X00599Y01949D01*
X00591Y01953D01*
X00583Y01949D01*
X00548D02*
X00552Y01957D01*
X00548Y01965D01*
X00556Y01961D01*
X00564Y01965D01*
X0056Y01957D01*
X00564Y01949D01*
X00556Y01953D01*
X00548Y01949D01*
Y01649D02*
X00552Y01657D01*
X00548Y01665D01*
X00556Y01661D01*
X00564Y01665D01*
X0056Y01657D01*
X00564Y01649D01*
X00556Y01653D01*
X00548Y01649D01*
X00583D02*
X00587Y01657D01*
X00583Y01665D01*
X00591Y01661D01*
X00599Y01665D01*
X00595Y01657D01*
X00599Y01649D01*
X00591Y01653D01*
X00583Y01649D01*
Y01674D02*
X00587Y01682D01*
X00583Y0169D01*
X00591Y01686D01*
X00599Y0169D01*
X00595Y01682D01*
X00599Y01674D01*
X00591Y01678D01*
X00583Y01674D01*
X00548D02*
X00552Y01682D01*
X00548Y0169D01*
X00556Y01686D01*
X00564Y0169D01*
X0056Y01682D01*
X00564Y01674D01*
X00556Y01678D01*
X00548Y01674D01*
X00568Y01759D02*
X00572Y01767D01*
X00568Y01775D01*
X00576Y01771D01*
X00584Y01775D01*
X0058Y01767D01*
X00584Y01759D01*
X00576Y01763D01*
X00568Y01759D01*
Y01834D02*
X00572Y01842D01*
X00568Y0185D01*
X00576Y01846D01*
X00584Y0185D01*
X0058Y01842D01*
X00584Y01834D01*
X00576Y01838D01*
X00568Y01834D01*
X034489Y020064D02*
Y020024D01*
X034569D01*
Y020064D01*
X034609D01*
Y020144D01*
X034569D01*
Y020184D01*
X034489D01*
Y020144D01*
X034449D01*
Y020064D01*
X034489D01*
X036458D02*
Y020024D01*
X036538D01*
Y020064D01*
X036578D01*
Y020144D01*
X036538D01*
Y020184D01*
X036458D01*
Y020144D01*
X036418D01*
Y020064D01*
X036458D01*
Y018096D02*
Y018056D01*
X036538D01*
Y018096D01*
X036578D01*
Y018176D01*
X036538D01*
Y018216D01*
X036458D01*
Y018176D01*
X036418D01*
Y018096D01*
X036458D01*
X034489D02*
Y018056D01*
X034569D01*
Y018096D01*
X034609D01*
Y018176D01*
X034569D01*
Y018216D01*
X034489D01*
Y018176D01*
X034449D01*
Y018096D01*
X034489D01*
X035433Y01904D02*
X035473D01*
X035513Y01908D01*
X035553Y01904D01*
X035593D01*
Y01908D01*
X035553Y01912D01*
X035593Y01916D01*
Y0192D01*
X035553D01*
X035513Y01916D01*
X035473Y0192D01*
X035433D01*
Y01916D01*
X035473Y01912D01*
X035433Y01908D01*
Y01904D01*
X021377Y017104D02*
Y017264D01*
X021537D01*
Y017104D01*
X021377D01*
X021377Y018876D02*
Y019036D01*
X021537D01*
Y018876D01*
X021377D01*
X024557Y016913D02*
X024597Y016993D01*
X024557Y017073D01*
X024637Y017033D01*
X024717Y017073D01*
X024677Y016993D01*
X024717Y016913D01*
X024637Y016953D01*
X024557Y016913D01*
X036613Y01899D02*
X036533Y01915D01*
X036693D01*
X036613Y01899D01*
X032833Y01849D02*
X032873Y01857D01*
X032833Y01865D01*
X032913Y01861D01*
X032993Y01865D01*
X032953Y01857D01*
X032993Y01849D01*
X032913Y01853D01*
X032833Y01849D01*
X030733Y01829D02*
X030773Y01837D01*
X030733Y01845D01*
X030813Y01841D01*
X030893Y01845D01*
X030853Y01837D01*
X030893Y01829D01*
X030813Y01833D01*
X030733Y01829D01*
X034583Y019274D02*
X034623Y019313D01*
X034663D01*
X034623Y019353D01*
X034663Y019394D01*
X034623D01*
X034583Y019433D01*
X034543Y019394D01*
X034503D01*
X034543Y019353D01*
X034503Y019313D01*
X034543D01*
X034583Y019274D01*
X033931Y01876D02*
X033971Y0188D01*
X034011D01*
X033971Y01884D01*
X034011Y01888D01*
X033971D01*
X033931Y01892D01*
X033891Y01888D01*
X033851D01*
X033891Y01884D01*
X033851Y0188D01*
X033891D01*
X033931Y01876D01*
X03476Y018718D02*
X0348Y018758D01*
X03484D01*
X0348Y018798D01*
X03484Y018838D01*
X0348D01*
X03476Y018878D01*
X03472Y018838D01*
X03468D01*
X03472Y018798D01*
X03468Y018758D01*
X03472D01*
X03476Y018718D01*
X035532Y018412D02*
X035572Y018452D01*
X035612D01*
X035572Y018492D01*
X035612Y018532D01*
X035572D01*
X035532Y018572D01*
X035492Y018532D01*
X035452D01*
X035492Y018492D01*
X035452Y018452D01*
X035492D01*
X035532Y018412D01*
X036137Y018979D02*
X036177Y019019D01*
X036217D01*
X036177Y019059D01*
X036217Y019099D01*
X036177D01*
X036137Y019139D01*
X036097Y019099D01*
X036057D01*
X036097Y019059D01*
X036057Y019019D01*
X036097D01*
X036137Y018979D01*
X035653Y019654D02*
X035693Y019694D01*
X035733D01*
X035693Y019734D01*
X035733Y019774D01*
X035693D01*
X035653Y019814D01*
X035613Y019774D01*
X035573D01*
X035613Y019734D01*
X035573Y019694D01*
X035613D01*
X035653Y019654D01*
X033183Y01609D02*
X033223Y01617D01*
X033183Y01625D01*
X033263Y01621D01*
X033343Y01625D01*
X033303Y01617D01*
X033343Y01609D01*
X033263Y01613D01*
X033183Y01609D01*
X033783Y01664D02*
X033823Y01672D01*
X033783Y0168D01*
X033863Y01676D01*
X033943Y0168D01*
X033903Y01672D01*
X033943Y01664D01*
X033863Y01668D01*
X033783Y01664D01*
X034083Y01714D02*
X034123Y01722D01*
X034083Y0173D01*
X034163Y01726D01*
X034243Y0173D01*
X034203Y01722D01*
X034243Y01714D01*
X034163Y01718D01*
X034083Y01714D01*
X031885Y020689D02*
X031925Y020769D01*
X031885Y020849D01*
X031965Y020809D01*
X032045Y020849D01*
X032005Y020769D01*
X032045Y020689D01*
X031965Y020729D01*
X031885Y020689D01*
X033683Y01984D02*
X033723Y01992D01*
X033683Y02D01*
X033763Y01996D01*
X033843Y02D01*
X033803Y01992D01*
X033843Y01984D01*
X033763Y01988D01*
X033683Y01984D01*
X033833Y02039D02*
X033873Y02047D01*
X033833Y02055D01*
X033913Y02051D01*
X033993Y02055D01*
X033953Y02047D01*
X033993Y02039D01*
X033913Y02043D01*
X033833Y02039D01*
X033233Y01984D02*
X033273Y01992D01*
X033233Y02D01*
X033313Y01996D01*
X033393Y02D01*
X033353Y01992D01*
X033393Y01984D01*
X033313Y01988D01*
X033233Y01984D01*
Y02039D02*
X033273Y02047D01*
X033233Y02055D01*
X033313Y02051D01*
X033393Y02055D01*
X033353Y02047D01*
X033393Y02039D01*
X033313Y02043D01*
X033233Y02039D01*
Y02089D02*
X033273Y02097D01*
X033233Y02105D01*
X033313Y02101D01*
X033393Y02105D01*
X033353Y02097D01*
X033393Y02089D01*
X033313Y02093D01*
X033233Y02089D01*
X032483Y01994D02*
X032523Y02002D01*
X032483Y0201D01*
X032563Y02006D01*
X032643Y0201D01*
X032603Y02002D01*
X032643Y01994D01*
X032563Y01998D01*
X032483Y01994D01*
X029033Y01799D02*
X029073Y01807D01*
X029033Y01815D01*
X029113Y01811D01*
X029193Y01815D01*
X029153Y01807D01*
X029193Y01799D01*
X029113Y01803D01*
X029033Y01799D01*
X029333Y01769D02*
X029373Y01777D01*
X029333Y01785D01*
X029413Y01781D01*
X029493Y01785D01*
X029453Y01777D01*
X029493Y01769D01*
X029413Y01773D01*
X029333Y01769D01*
X029633Y01739D02*
X029673Y01747D01*
X029633Y01755D01*
X029713Y01751D01*
X029793Y01755D01*
X029753Y01747D01*
X029793Y01739D01*
X029713Y01743D01*
X029633Y01739D01*
X030433Y01714D02*
X030473Y01722D01*
X030433Y0173D01*
X030513Y01726D01*
X030593Y0173D01*
X030553Y01722D01*
X030593Y01714D01*
X030513Y01718D01*
X030433Y01714D01*
Y01744D02*
X030473Y01752D01*
X030433Y0176D01*
X030513Y01756D01*
X030593Y0176D01*
X030553Y01752D01*
X030593Y01744D01*
X030513Y01748D01*
X030433Y01744D01*
X030369Y018328D02*
X030409Y018408D01*
X030369Y018488D01*
X030449Y018448D01*
X030529Y018488D01*
X030489Y018408D01*
X030529Y018328D01*
X030449Y018368D01*
X030369Y018328D01*
X030533Y01899D02*
X030573Y01907D01*
X030533Y01915D01*
X030613Y01911D01*
X030693Y01915D01*
X030653Y01907D01*
X030693Y01899D01*
X030613Y01903D01*
X030533Y01899D01*
X030383Y01929D02*
X030423Y01937D01*
X030383Y01945D01*
X030463Y01941D01*
X030543Y01945D01*
X030503Y01937D01*
X030543Y01929D01*
X030463Y01933D01*
X030383Y01929D01*
X031915Y017571D02*
X031955Y017651D01*
X031915Y017731D01*
X031995Y017691D01*
X032075Y017731D01*
X032035Y017651D01*
X032075Y017571D01*
X031995Y017611D01*
X031915Y017571D01*
X030383Y02009D02*
X030423Y02017D01*
X030383Y02025D01*
X030463Y02021D01*
X030543Y02025D01*
X030503Y02017D01*
X030543Y02009D01*
X030463Y02013D01*
X030383Y02009D01*
X028333Y02089D02*
X028373Y02097D01*
X028333Y02105D01*
X028413Y02101D01*
X028493Y02105D01*
X028453Y02097D01*
X028493Y02089D01*
X028413Y02093D01*
X028333Y02089D01*
X027433D02*
X027473Y02097D01*
X027433Y02105D01*
X027513Y02101D01*
X027593Y02105D01*
X027553Y02097D01*
X027593Y02089D01*
X027513Y02093D01*
X027433Y02089D01*
X030333Y020919D02*
X030373Y020999D01*
X030333Y021079D01*
X030413Y021039D01*
X030493Y021079D01*
X030453Y020999D01*
X030493Y020919D01*
X030413Y020959D01*
X030333Y020919D01*
X036233Y01709D02*
X036273Y01717D01*
X036233Y01725D01*
X036313Y01721D01*
X036393Y01725D01*
X036353Y01717D01*
X036393Y01709D01*
X036313Y01713D01*
X036233Y01709D01*
X035533Y01714D02*
X035573Y01722D01*
X035533Y0173D01*
X035613Y01726D01*
X035693Y0173D01*
X035653Y01722D01*
X035693Y01714D01*
X035613Y01718D01*
X035533Y01714D01*
X034733D02*
X034773Y01722D01*
X034733Y0173D01*
X034813Y01726D01*
X034893Y0173D01*
X034853Y01722D01*
X034893Y01714D01*
X034813Y01718D01*
X034733Y01714D01*
X036233Y01664D02*
X036273Y01672D01*
X036233Y0168D01*
X036313Y01676D01*
X036393Y0168D01*
X036353Y01672D01*
X036393Y01664D01*
X036313Y01668D01*
X036233Y01664D01*
X035533Y01659D02*
X035573Y01667D01*
X035533Y01675D01*
X035613Y01671D01*
X035693Y01675D01*
X035653Y01667D01*
X035693Y01659D01*
X035613Y01663D01*
X035533Y01659D01*
X034483Y01664D02*
X034523Y01672D01*
X034483Y0168D01*
X034563Y01676D01*
X034643Y0168D01*
X034603Y01672D01*
X034643Y01664D01*
X034563Y01668D01*
X034483Y01664D01*
X036183Y01609D02*
X036223Y01617D01*
X036183Y01625D01*
X036263Y01621D01*
X036343Y01625D01*
X036303Y01617D01*
X036343Y01609D01*
X036263Y01613D01*
X036183Y01609D01*
X035533D02*
X035573Y01617D01*
X035533Y01625D01*
X035613Y01621D01*
X035693Y01625D01*
X035653Y01617D01*
X035693Y01609D01*
X035613Y01613D01*
X035533Y01609D01*
X034633D02*
X034673Y01617D01*
X034633Y01625D01*
X034713Y01621D01*
X034793Y01625D01*
X034753Y01617D01*
X034793Y01609D01*
X034713Y01613D01*
X034633Y01609D01*
X036183Y01559D02*
X036223Y01567D01*
X036183Y01575D01*
X036263Y01571D01*
X036343Y01575D01*
X036303Y01567D01*
X036343Y01559D01*
X036263Y01563D01*
X036183Y01559D01*
X035133D02*
X035173Y01567D01*
X035133Y01575D01*
X035213Y01571D01*
X035293Y01575D01*
X035253Y01567D01*
X035293Y01559D01*
X035213Y01563D01*
X035133Y01559D01*
X033783Y01609D02*
X033823Y01617D01*
X033783Y01625D01*
X033863Y01621D01*
X033943Y01625D01*
X033903Y01617D01*
X033943Y01609D01*
X033863Y01613D01*
X033783Y01609D01*
X034333Y01554D02*
X034373Y01562D01*
X034333Y0157D01*
X034413Y01566D01*
X034493Y0157D01*
X034453Y01562D01*
X034493Y01554D01*
X034413Y01558D01*
X034333Y01554D01*
X033483Y01559D02*
X033523Y01567D01*
X033483Y01575D01*
X033563Y01571D01*
X033643Y01575D01*
X033603Y01567D01*
X033643Y01559D01*
X033563Y01563D01*
X033483Y01559D01*
X032583D02*
X032623Y01567D01*
X032583Y01575D01*
X032663Y01571D01*
X032743Y01575D01*
X032703Y01567D01*
X032743Y01559D01*
X032663Y01563D01*
X032583Y01559D01*
X031733D02*
X031773Y01567D01*
X031733Y01575D01*
X031813Y01571D01*
X031893Y01575D01*
X031853Y01567D01*
X031893Y01559D01*
X031813Y01563D01*
X031733Y01559D01*
X028533Y020182D02*
X028573Y020262D01*
X028533Y020342D01*
X028613Y020302D01*
X028693Y020342D01*
X028653Y020262D01*
X028693Y020182D01*
X028613Y020222D01*
X028533Y020182D01*
X036133Y02089D02*
X036173Y02097D01*
X036133Y02105D01*
X036213Y02101D01*
X036293Y02105D01*
X036253Y02097D01*
X036293Y02089D01*
X036213Y02093D01*
X036133Y02089D01*
X031843Y015181D02*
X031883Y015261D01*
X031843Y015341D01*
X031923Y015301D01*
X032003Y015341D01*
X031963Y015261D01*
X032003Y015181D01*
X031923Y015221D01*
X031843Y015181D01*
X031083Y01519D02*
X031123Y01527D01*
X031083Y01535D01*
X031163Y01531D01*
X031243Y01535D01*
X031203Y01527D01*
X031243Y01519D01*
X031163Y01523D01*
X031083Y01519D01*
X032633D02*
X032673Y01527D01*
X032633Y01535D01*
X032713Y01531D01*
X032793Y01535D01*
X032753Y01527D01*
X032793Y01519D01*
X032713Y01523D01*
X032633Y01519D01*
X033283D02*
X033323Y01527D01*
X033283Y01535D01*
X033363Y01531D01*
X033443Y01535D01*
X033403Y01527D01*
X033443Y01519D01*
X033363Y01523D01*
X033283Y01519D01*
X034033D02*
X034073Y01527D01*
X034033Y01535D01*
X034113Y01531D01*
X034193Y01535D01*
X034153Y01527D01*
X034193Y01519D01*
X034113Y01523D01*
X034033Y01519D01*
X034833D02*
X034873Y01527D01*
X034833Y01535D01*
X034913Y01531D01*
X034993Y01535D01*
X034953Y01527D01*
X034993Y01519D01*
X034913Y01523D01*
X034833Y01519D01*
X035533D02*
X035573Y01527D01*
X035533Y01535D01*
X035613Y01531D01*
X035693Y01535D01*
X035653Y01527D01*
X035693Y01519D01*
X035613Y01523D01*
X035533Y01519D01*
X020783Y01594D02*
X020823Y01602D01*
X020783Y0161D01*
X020863Y01606D01*
X020943Y0161D01*
X020903Y01602D01*
X020943Y01594D01*
X020863Y01598D01*
X020783Y01594D01*
X025033Y01519D02*
X025073Y01527D01*
X025033Y01535D01*
X025113Y01531D01*
X025193Y01535D01*
X025153Y01527D01*
X025193Y01519D01*
X025113Y01523D01*
X025033Y01519D01*
X023483D02*
X023523Y01527D01*
X023483Y01535D01*
X023563Y01531D01*
X023643Y01535D01*
X023603Y01527D01*
X023643Y01519D01*
X023563Y01523D01*
X023483Y01519D01*
X022583D02*
X022623Y01527D01*
X022583Y01535D01*
X022663Y01531D01*
X022743Y01535D01*
X022703Y01527D01*
X022743Y01519D01*
X022663Y01523D01*
X022583Y01519D01*
X021633D02*
X021673Y01527D01*
X021633Y01535D01*
X021713Y01531D01*
X021793Y01535D01*
X021753Y01527D01*
X021793Y01519D01*
X021713Y01523D01*
X021633Y01519D01*
X020833D02*
X020873Y01527D01*
X020833Y01535D01*
X020913Y01531D01*
X020993Y01535D01*
X020953Y01527D01*
X020993Y01519D01*
X020913Y01523D01*
X020833Y01519D01*
X036233D02*
X036273Y01527D01*
X036233Y01535D01*
X036313Y01531D01*
X036393Y01535D01*
X036353Y01527D01*
X036393Y01519D01*
X036313Y01523D01*
X036233Y01519D01*
X036833D02*
X036873Y01527D01*
X036833Y01535D01*
X036913Y01531D01*
X036993Y01535D01*
X036953Y01527D01*
X036993Y01519D01*
X036913Y01523D01*
X036833Y01519D01*
Y01559D02*
X036873Y01567D01*
X036833Y01575D01*
X036913Y01571D01*
X036993Y01575D01*
X036953Y01567D01*
X036993Y01559D01*
X036913Y01563D01*
X036833Y01559D01*
Y01614D02*
X036873Y01622D01*
X036833Y0163D01*
X036913Y01626D01*
X036993Y0163D01*
X036953Y01622D01*
X036993Y01614D01*
X036913Y01618D01*
X036833Y01614D01*
Y01664D02*
X036873Y01672D01*
X036833Y0168D01*
X036913Y01676D01*
X036993Y0168D01*
X036953Y01672D01*
X036993Y01664D01*
X036913Y01668D01*
X036833Y01664D01*
Y01714D02*
X036873Y01722D01*
X036833Y0173D01*
X036913Y01726D01*
X036993Y0173D01*
X036953Y01722D01*
X036993Y01714D01*
X036913Y01718D01*
X036833Y01714D01*
Y02089D02*
X036873Y02097D01*
X036833Y02105D01*
X036913Y02101D01*
X036993Y02105D01*
X036953Y02097D01*
X036993Y02089D01*
X036913Y02093D01*
X036833Y02089D01*
X035383D02*
X035423Y02097D01*
X035383Y02105D01*
X035463Y02101D01*
X035543Y02105D01*
X035503Y02097D01*
X035543Y02089D01*
X035463Y02093D01*
X035383Y02089D01*
X034683D02*
X034723Y02097D01*
X034683Y02105D01*
X034763Y02101D01*
X034843Y02105D01*
X034803Y02097D01*
X034843Y02089D01*
X034763Y02093D01*
X034683Y02089D01*
X033983D02*
X034023Y02097D01*
X033983Y02105D01*
X034063Y02101D01*
X034143Y02105D01*
X034103Y02097D01*
X034143Y02089D01*
X034063Y02093D01*
X033983Y02089D01*
X029433Y01919D02*
X029473Y01927D01*
X029433Y01935D01*
X029513Y01931D01*
X029593Y01935D01*
X029553Y01927D01*
X029593Y01919D01*
X029513Y01923D01*
X029433Y01919D01*
X028533Y01994D02*
X028573Y02002D01*
X028533Y0201D01*
X028613Y02006D01*
X028693Y0201D01*
X028653Y02002D01*
X028693Y01994D01*
X028613Y01998D01*
X028533Y01994D01*
X026883Y01889D02*
X026923Y01897D01*
X026883Y01905D01*
X026963Y01901D01*
X027043Y01905D01*
X027003Y01897D01*
X027043Y01889D01*
X026963Y01893D01*
X026883Y01889D01*
X028683Y01819D02*
X028723Y01827D01*
X028683Y01835D01*
X028763Y01831D01*
X028843Y01835D01*
X028803Y01827D01*
X028843Y01819D01*
X028763Y01823D01*
X028683Y01819D01*
X025683Y01889D02*
X025723Y01897D01*
X025683Y01905D01*
X025763Y01901D01*
X025843Y01905D01*
X025803Y01897D01*
X025843Y01889D01*
X025763Y01893D01*
X025683Y01889D01*
X030133Y01594D02*
X030173Y01602D01*
X030133Y0161D01*
X030213Y01606D01*
X030293Y0161D01*
X030253Y01602D01*
X030293Y01594D01*
X030213Y01598D01*
X030133Y01594D01*
Y01614D02*
X030173Y01622D01*
X030133Y0163D01*
X030213Y01626D01*
X030293Y0163D01*
X030253Y01622D01*
X030293Y01614D01*
X030213Y01618D01*
X030133Y01614D01*
X025033Y020415D02*
X025073Y020495D01*
X025033Y020575D01*
X025113Y020535D01*
X025193Y020575D01*
X025153Y020495D01*
X025193Y020415D01*
X025113Y020455D01*
X025033Y020415D01*
Y02009D02*
X025073Y02017D01*
X025033Y02025D01*
X025113Y02021D01*
X025193Y02025D01*
X025153Y02017D01*
X025193Y02009D01*
X025113Y02013D01*
X025033Y02009D01*
X025283Y01659D02*
X025323Y01667D01*
X025283Y01675D01*
X025363Y01671D01*
X025443Y01675D01*
X025403Y01667D01*
X025443Y01659D01*
X025363Y01663D01*
X025283Y01659D01*
X026333Y01629D02*
X026373Y01637D01*
X026333Y01645D01*
X026413Y01641D01*
X026493Y01645D01*
X026453Y01637D01*
X026493Y01629D01*
X026413Y01633D01*
X026333Y01629D01*
X025033Y01699D02*
X025073Y01707D01*
X025033Y01715D01*
X025113Y01711D01*
X025193Y01715D01*
X025153Y01707D01*
X025193Y01699D01*
X025113Y01703D01*
X025033Y01699D01*
X025283D02*
X025323Y01707D01*
X025283Y01715D01*
X025363Y01711D01*
X025443Y01715D01*
X025403Y01707D01*
X025443Y01699D01*
X025363Y01703D01*
X025283Y01699D01*
Y01724D02*
X025323Y01732D01*
X025283Y0174D01*
X025363Y01736D01*
X025443Y0174D01*
X025403Y01732D01*
X025443Y01724D01*
X025363Y01728D01*
X025283Y01724D01*
X025033D02*
X025073Y01732D01*
X025033Y0174D01*
X025113Y01736D01*
X025193Y0174D01*
X025153Y01732D01*
X025193Y01724D01*
X025113Y01728D01*
X025033Y01724D01*
Y01934D02*
X025073Y01942D01*
X025033Y0195D01*
X025113Y01946D01*
X025193Y0195D01*
X025153Y01942D01*
X025193Y01934D01*
X025113Y01938D01*
X025033Y01934D01*
Y01969D02*
X025073Y01977D01*
X025033Y01985D01*
X025113Y01981D01*
X025193Y01985D01*
X025153Y01977D01*
X025193Y01969D01*
X025113Y01973D01*
X025033Y01969D01*
X025183Y01589D02*
X025223Y01597D01*
X025183Y01605D01*
X025263Y01601D01*
X025343Y01605D01*
X025303Y01597D01*
X025343Y01589D01*
X025263Y01593D01*
X025183Y01589D01*
X022083Y01599D02*
X022123Y01607D01*
X022083Y01615D01*
X022163Y01611D01*
X022243Y01615D01*
X022203Y01607D01*
X022243Y01599D01*
X022163Y01603D01*
X022083Y01599D01*
X026383Y01589D02*
X026423Y01597D01*
X026383Y01605D01*
X026463Y01601D01*
X026543Y01605D01*
X026503Y01597D01*
X026543Y01589D01*
X026463Y01593D01*
X026383Y01589D01*
X026099D02*
X026139Y01597D01*
X026099Y01605D01*
X026179Y01601D01*
X026259Y01605D01*
X026219Y01597D01*
X026259Y01589D01*
X026179Y01593D01*
X026099Y01589D01*
X027133Y01744D02*
X027173Y01752D01*
X027133Y0176D01*
X027213Y01756D01*
X027293Y0176D01*
X027253Y01752D01*
X027293Y01744D01*
X027213Y01748D01*
X027133Y01744D01*
X026333Y01714D02*
X026373Y01722D01*
X026333Y0173D01*
X026413Y01726D01*
X026493Y0173D01*
X026453Y01722D01*
X026493Y01714D01*
X026413Y01718D01*
X026333Y01714D01*
X027383Y01674D02*
X027423Y01682D01*
X027383Y0169D01*
X027463Y01686D01*
X027543Y0169D01*
X027503Y01682D01*
X027543Y01674D01*
X027463Y01678D01*
X027383Y01674D01*
X02777Y016679D02*
X02781Y016759D01*
X02777Y016839D01*
X02785Y016799D01*
X02793Y016839D01*
X02789Y016759D01*
X02793Y016679D01*
X02785Y016719D01*
X02777Y016679D01*
X021083Y01994D02*
X021123Y02002D01*
X021083Y0201D01*
X021163Y02006D01*
X021243Y0201D01*
X021203Y02002D01*
X021243Y01994D01*
X021163Y01998D01*
X021083Y01994D01*
X023283Y01764D02*
X023323Y01772D01*
X023283Y0178D01*
X023363Y01776D01*
X023443Y0178D01*
X023403Y01772D01*
X023443Y01764D01*
X023363Y01768D01*
X023283Y01764D01*
X022583Y02029D02*
X022623Y02037D01*
X022583Y02045D01*
X022663Y02041D01*
X022743Y02045D01*
X022703Y02037D01*
X022743Y02029D01*
X022663Y02033D01*
X022583Y02029D01*
X024083Y01879D02*
X024123Y01887D01*
X024083Y01895D01*
X024163Y01891D01*
X024243Y01895D01*
X024203Y01887D01*
X024243Y01879D01*
X024163Y01883D01*
X024083Y01879D01*
X028183Y01599D02*
X028223Y01607D01*
X028183Y01615D01*
X028263Y01611D01*
X028343Y01615D01*
X028303Y01607D01*
X028343Y01599D01*
X028263Y01603D01*
X028183Y01599D01*
Y01714D02*
X028223Y01722D01*
X028183Y0173D01*
X028263Y01726D01*
X028343Y0173D01*
X028303Y01722D01*
X028343Y01714D01*
X028263Y01718D01*
X028183Y01714D01*
X028833Y01754D02*
X028873Y01762D01*
X028833Y0177D01*
X028913Y01766D01*
X028993Y0177D01*
X028953Y01762D01*
X028993Y01754D01*
X028913Y01758D01*
X028833Y01754D01*
X029383Y01704D02*
X029423Y01712D01*
X029383Y0172D01*
X029463Y01716D01*
X029543Y0172D01*
X029503Y01712D01*
X029543Y01704D01*
X029463Y01708D01*
X029383Y01704D01*
X029146Y016602D02*
X029186Y016682D01*
X029146Y016762D01*
X029226Y016722D01*
X029306Y016762D01*
X029266Y016682D01*
X029306Y016602D01*
X029226Y016642D01*
X029146Y016602D01*
X028933Y01639D02*
X028973Y01647D01*
X028933Y01655D01*
X029013Y01651D01*
X029093Y01655D01*
X029053Y01647D01*
X029093Y01639D01*
X029013Y01643D01*
X028933Y01639D01*
X028721Y016178D02*
X028761Y016258D01*
X028721Y016338D01*
X028801Y016298D01*
X028881Y016338D01*
X028841Y016258D01*
X028881Y016178D01*
X028801Y016218D01*
X028721Y016178D01*
X022133Y01924D02*
X022173Y01932D01*
X022133Y0194D01*
X022213Y01936D01*
X022293Y0194D01*
X022253Y01932D01*
X022293Y01924D01*
X022213Y01928D01*
X022133Y01924D01*
X022483D02*
X022523Y01932D01*
X022483Y0194D01*
X022563Y01936D01*
X022643Y0194D01*
X022603Y01932D01*
X022643Y01924D01*
X022563Y01928D01*
X022483Y01924D01*
Y01949D02*
X022523Y01957D01*
X022483Y01965D01*
X022563Y01961D01*
X022643Y01965D01*
X022603Y01957D01*
X022643Y01949D01*
X022563Y01953D01*
X022483Y01949D01*
X022133D02*
X022173Y01957D01*
X022133Y01965D01*
X022213Y01961D01*
X022293Y01965D01*
X022253Y01957D01*
X022293Y01949D01*
X022213Y01953D01*
X022133Y01949D01*
Y01649D02*
X022173Y01657D01*
X022133Y01665D01*
X022213Y01661D01*
X022293Y01665D01*
X022253Y01657D01*
X022293Y01649D01*
X022213Y01653D01*
X022133Y01649D01*
X022483D02*
X022523Y01657D01*
X022483Y01665D01*
X022563Y01661D01*
X022643Y01665D01*
X022603Y01657D01*
X022643Y01649D01*
X022563Y01653D01*
X022483Y01649D01*
Y01674D02*
X022523Y01682D01*
X022483Y0169D01*
X022563Y01686D01*
X022643Y0169D01*
X022603Y01682D01*
X022643Y01674D01*
X022563Y01678D01*
X022483Y01674D01*
X022133D02*
X022173Y01682D01*
X022133Y0169D01*
X022213Y01686D01*
X022293Y0169D01*
X022253Y01682D01*
X022293Y01674D01*
X022213Y01678D01*
X022133Y01674D01*
X022333Y01759D02*
X022373Y01767D01*
X022333Y01775D01*
X022413Y01771D01*
X022493Y01775D01*
X022453Y01767D01*
X022493Y01759D01*
X022413Y01763D01*
X022333Y01759D01*
Y01834D02*
X022373Y01842D01*
X022333Y0185D01*
X022413Y01846D01*
X022493Y0185D01*
X022453Y01842D01*
X022493Y01834D01*
X022413Y01838D01*
X022333Y01834D01*
D89*
X026271Y011887D02*
G03*
X026271Y011887I-00008J0D01*
G01*
Y012887D02*
G03*
X026271Y012887I-00008J0D01*
G01*
X027271Y011887D02*
G03*
X027271Y011887I-00008J0D01*
G01*
Y012887D02*
G03*
X027271Y012887I-00008J0D01*
G01*
X009617Y011887D02*
G03*
X009617Y011887I-00008J0D01*
G01*
Y012887D02*
G03*
X009617Y012887I-00008J0D01*
G01*
X010617Y011887D02*
G03*
X010617Y011887I-00008J0D01*
G01*
Y012887D02*
G03*
X010617Y012887I-00008J0D01*
G01*
X00924Y026841D02*
G03*
X00924Y026841I-00008J0D01*
G01*
X01024D02*
G03*
X01024Y026841I-00008J0D01*
G01*
Y025841D02*
G03*
X01024Y025841I-00008J0D01*
G01*
X00924D02*
G03*
X00924Y025841I-00008J0D01*
G01*
X025893Y026841D02*
G03*
X025893Y026841I-00008J0D01*
G01*
X026893D02*
G03*
X026893Y026841I-00008J0D01*
G01*
Y025841D02*
G03*
X026893Y025841I-00008J0D01*
G01*
X025893D02*
G03*
X025893Y025841I-00008J0D01*
G01*
X00919Y01962D02*
G03*
X00919Y01962I-00008J0D01*
G01*
Y02062D02*
G03*
X00919Y02062I-00008J0D01*
G01*
X01019Y01962D02*
G03*
X01019Y01962I-00008J0D01*
G01*
Y02062D02*
G03*
X01019Y02062I-00008J0D01*
G01*
X025843Y01962D02*
G03*
X025843Y01962I-00008J0D01*
G01*
Y02062D02*
G03*
X025843Y02062I-00008J0D01*
G01*
X026843Y01962D02*
G03*
X026843Y01962I-00008J0D01*
G01*
Y02062D02*
G03*
X026843Y02062I-00008J0D01*
G01*
M02*
