M48
;Layer_Color=9474304
;FILE_FORMAT=2:4
INCH,LZ
;TYPE=PLATED
T1F00S00C0.0120
T2F00S00C0.0120
T3F00S00C0.0394
T4F00S00C0.0591
T5F00S00C0.0669
T6F00S00C0.0748
%
T01
X019818Y00902
X020647Y008978
X02047Y009533
X02154Y009914
X022024Y009239
X021418Y008672
T02
X0068Y00545
X00675Y0062
X00805Y00625
X0081Y00675
Y007
X00845
Y00675
X0083Y00785
Y0086
X00845Y0095
Y00975
X0081
Y0095
X00855Y01055
X00705Y0102
X011Y01035
Y010675
Y00995
Y0096
X01165Y00915
X01285
X0131Y0077
X01335Y007
X013736Y006939
X01415Y0074
X0148Y0078
X015Y00825
X01465Y00845
X0153Y00795
X0156Y00765
X01535Y0073
X015112Y006862
X0149Y00665
X014688Y006438
X01415Y00625
X01235Y00615
X012065
X0123Y00655
Y0074
X01125Y0075
Y00725
X011
Y0075
X010523Y007173
X01125Y00685
X01115Y00615
X011Y00545
X00945
X00855
X0076
X00925Y0079
X01005Y00905
X0134Y01115
X0143
X0145Y010442
Y0102
X0154Y00945
X01635Y00955
X0165Y00925
X016335Y008588
X0167Y00855
X0164Y0077
Y0074
X0161Y0064
Y0062
X01705Y00545
X017809Y005441
X0177Y00585
X01855
X0186Y00545
X01925
X01945Y00585
X01915Y00635
X01975
Y0069
X02045
X0206Y00635
X0203Y0058
X02Y00545
X0208
X0211Y00585
X0215Y00545
X0222
X02215Y00585
Y00635
X0222Y0069
Y00735
X0228Y0074
Y0069
Y0064
Y00585
Y00545
X0215Y00635
Y00685
Y0074
X0207
X02005
X017881Y007831
X0188Y00875
X0192Y0101
X01965
X0198Y01065
X0192
Y01115
X01995
X02065
X02135
X0221
X0228
X0225Y00925
X01845Y0102
X017851Y010949
X0163Y011179
X01635Y01035
T03
X01165Y0098
Y0108
X01265
Y0098
T04
X0214Y0093
T05
X020416Y008316
Y010284
X022384
Y008316
T06
X007344Y007364
X007344Y009136
M30
