G04*
G04 #@! TF.GenerationSoftware,Altium Limited,Altium Designer,22.10.1 (41)*
G04*
G04 Layer_Color=65535*
%FSTAX24Y24*%
%MOIN*%
G70*
G04*
G04 #@! TF.SameCoordinates,A34DC46A-7450-461F-AC4F-9E147ECCBACE*
G04*
G04*
G04 #@! TF.FilePolarity,Positive*
G04*
G01*
G75*
%ADD44C,0.0080*%
%ADD72C,0.0098*%
%ADD73C,0.0079*%
%ADD74C,0.0118*%
%ADD75C,0.0059*%
%ADD76C,0.0050*%
%ADD77C,0.0060*%
%ADD78R,0.0236X0.0059*%
%ADD79R,0.0236X0.0059*%
%ADD80R,0.0236X0.0059*%
%ADD81R,0.0236X0.0059*%
%ADD82C,0.0039*%
G36*
X012027Y021982D02*
X01186Y021815D01*
X011693Y021982D01*
X011776Y022065D01*
X011943D01*
X012027Y021982D01*
D02*
G37*
G36*
X027908Y01838D02*
X027741Y018213D01*
X027574Y01838D01*
X027657Y018464D01*
X027824D01*
X027908Y01838D01*
D02*
G37*
G36*
X011927Y015811D02*
X01176Y015644D01*
X011593Y015811D01*
X011676Y015895D01*
X011843D01*
X011927Y015811D01*
D02*
G37*
G36*
X030651Y015527D02*
X030568Y015444D01*
X030401D01*
X030317Y015527D01*
X030484Y015695D01*
X030651Y015527D01*
D02*
G37*
G36*
X030551Y009357D02*
X030468Y009274D01*
X030301D01*
X030217Y009357D01*
X030384Y009524D01*
X030551Y009357D01*
D02*
G37*
G36*
X011254Y005939D02*
X011087Y005772D01*
X01092Y005939D01*
X011003Y006023D01*
X011171D01*
X011254Y005939D01*
D02*
G37*
D44*
X022631Y018379D02*
X022951D01*
X022631D02*
Y018599D01*
Y019499D02*
X022951D01*
X022631Y019279D02*
Y019499D01*
X005977Y005938D02*
X006297D01*
X005977D02*
Y006158D01*
Y007058D02*
X006297D01*
X005977Y006838D02*
Y007058D01*
X00665Y022681D02*
Y022901D01*
X00697D01*
X00665Y021781D02*
Y022001D01*
Y021781D02*
X00697D01*
X035594Y008658D02*
Y008438D01*
X035274D01*
X035594Y009558D02*
Y009338D01*
Y009558D02*
X035274D01*
X00635Y01641D02*
Y01663D01*
X00667D01*
X00635Y01551D02*
Y01573D01*
Y01551D02*
X00667D01*
X035894Y014929D02*
Y014709D01*
X035574D01*
X035894Y015829D02*
Y015609D01*
Y015829D02*
X035574D01*
D72*
X028012Y017795D02*
G03*
X028012Y017795I-000049J0D01*
G01*
X023462Y026559D02*
G03*
X023462Y026559I-000049J0D01*
G01*
X011359Y005354D02*
G03*
X011359Y005354I-000049J0D01*
G01*
X006809Y014119D02*
G03*
X006809Y014119I-000049J0D01*
G01*
X013059Y021491D02*
G03*
X013059Y021491I-000049J0D01*
G01*
X029185Y009848D02*
G03*
X029185Y009848I000049J0D01*
G01*
X012032Y015226D02*
G03*
X012032Y015226I-000049J0D01*
G01*
X030212Y016112D02*
G03*
X030212Y016112I000049J0D01*
G01*
D73*
X027908Y01838D02*
G03*
X027574Y01838I-000167J-000167D01*
G01*
X028867Y017077D02*
G03*
X028867Y017077I-000039J0D01*
G01*
X030593Y022835D02*
G03*
X030593Y022835I-000039J0D01*
G01*
X02308Y022739D02*
G03*
X02308Y022739I-000039J0D01*
G01*
X025759Y023689D02*
G03*
X025759Y023689I-000039J0D01*
G01*
X023736Y024355D02*
G03*
X023736Y024355I-000039J0D01*
G01*
X027741Y018213D02*
X029467Y019939D01*
X026015D02*
X027741Y021665D01*
X026015Y019939D02*
X027741Y018213D01*
Y021665D02*
X029467Y019939D01*
X023048Y02633D02*
X023284D01*
X023048D02*
Y026409D01*
X023166Y024361D02*
X023284D01*
X023048Y026409D02*
X023284D01*
Y024361D02*
Y026409D01*
X022586Y026323D02*
X022822D01*
Y026402D01*
X022586Y024355D02*
X022704D01*
X022586Y026402D02*
X022822D01*
X022586Y024355D02*
Y026402D01*
X011254Y005939D02*
G03*
X01092Y005939I-000167J-000167D01*
G01*
X012214Y004636D02*
G03*
X012214Y004636I-000039J0D01*
G01*
X01394Y010394D02*
G03*
X01394Y010394I-000039J0D01*
G01*
X006426Y010298D02*
G03*
X006426Y010298I-000039J0D01*
G01*
X009106Y011248D02*
G03*
X009106Y011248I-000039J0D01*
G01*
X007083Y011914D02*
G03*
X007083Y011914I-000039J0D01*
G01*
X011087Y005772D02*
X012813Y007498D01*
X009361D02*
X011087Y009224D01*
X009361Y007498D02*
X011087Y005772D01*
Y009224D02*
X012813Y007498D01*
X006395Y013889D02*
X006631D01*
X006395D02*
Y013968D01*
X006513Y01192D02*
X006631D01*
X006395Y013968D02*
X006631D01*
Y01192D02*
Y013968D01*
X005933Y013882D02*
X006169D01*
Y013961D01*
X005933Y011914D02*
X006051D01*
X005933Y013961D02*
X006169D01*
X005933Y011914D02*
Y013961D01*
X019149Y025941D02*
G03*
X019149Y025941I-000039J0D01*
G01*
X008899Y025191D02*
G03*
X008899Y025191I-000039J0D01*
G01*
X006449Y024991D02*
G03*
X006449Y024991I-000039J0D01*
G01*
X012027Y021982D02*
G03*
X011693Y021982I-000167J-000167D01*
G01*
X014413Y025937D02*
G03*
X014413Y025937I-000039J0D01*
G01*
X01186Y021815D02*
X013586Y023541D01*
X010134D02*
X01186Y025267D01*
X010134Y023541D02*
X01186Y021815D01*
Y025267D02*
X013586Y023541D01*
X023095Y005398D02*
G03*
X023095Y005398I000039J0D01*
G01*
X033345Y006148D02*
G03*
X033345Y006148I000039J0D01*
G01*
X035795Y006348D02*
G03*
X035795Y006348I000039J0D01*
G01*
X030217Y009357D02*
G03*
X030551Y009357I000167J000167D01*
G01*
X027831Y005402D02*
G03*
X027831Y005402I000039J0D01*
G01*
X030384Y009524D02*
X028658Y007798D01*
X03211D02*
X030384Y006072D01*
X03211Y007798D02*
X030384Y009524D01*
Y006072D02*
X028658Y007798D01*
X014063Y019516D02*
G03*
X014063Y019516I-000039J0D01*
G01*
X011927Y015811D02*
G03*
X011593Y015811I-000167J-000167D01*
G01*
X006199Y01867D02*
G03*
X006199Y01867I-000039J0D01*
G01*
X009549Y01927D02*
G03*
X009549Y01927I-000039J0D01*
G01*
X01176Y019096D02*
X013486Y01737D01*
X010034D02*
X01176Y015644D01*
X010034Y01737D02*
X01176Y019096D01*
Y015644D02*
X013486Y01737D01*
X028181Y011822D02*
G03*
X028181Y011822I000039J0D01*
G01*
X030317Y015527D02*
G03*
X030651Y015527I000167J000167D01*
G01*
X036045Y012669D02*
G03*
X036045Y012669I000039J0D01*
G01*
X032695Y012069D02*
G03*
X032695Y012069I000039J0D01*
G01*
X030484Y012243D02*
X028758Y013969D01*
X03221D02*
X030484Y015695D01*
X03221Y013969D02*
X030484Y012243D01*
Y015695D02*
X028758Y013969D01*
D74*
X03231Y020939D02*
G03*
X03231Y020939I-00002J0D01*
G01*
X015657Y008498D02*
G03*
X015657Y008498I-00002J0D01*
G01*
X01628Y024141D02*
G03*
X01628Y024141I-00002J0D01*
G01*
X025964Y007198D02*
G03*
X025964Y007198I00002J0D01*
G01*
X01578Y01757D02*
G03*
X01578Y01757I-00002J0D01*
G01*
X026464Y013769D02*
G03*
X026464Y013769I00002J0D01*
G01*
D75*
X034534Y021157D02*
Y021236D01*
X033747D02*
X034534D01*
X033747Y021157D02*
Y021236D01*
Y020842D02*
Y020921D01*
Y020842D02*
X034534D01*
Y020921D01*
X034834Y022957D02*
Y023036D01*
X034047D02*
X034834D01*
X034047Y022957D02*
Y023036D01*
Y022642D02*
Y022721D01*
Y022642D02*
X034834D01*
Y022721D01*
Y022507D02*
Y022586D01*
X034047D02*
X034834D01*
X034047Y022507D02*
Y022586D01*
Y022192D02*
Y022271D01*
Y022192D02*
X034834D01*
Y022271D01*
X030565Y02094D02*
X030683D01*
X030565Y019838D02*
Y02094D01*
Y019838D02*
X030683D01*
X030998D02*
X031116D01*
Y02094D01*
X030998D02*
X031116D01*
X030565Y020389D02*
X031116D01*
X032234Y019657D02*
Y019736D01*
X031447D02*
X032234D01*
X031447Y019657D02*
Y019736D01*
Y019342D02*
Y019421D01*
Y019342D02*
X032234D01*
Y019421D01*
X033159Y020095D02*
X033237D01*
Y020883D01*
X033159D02*
X033237D01*
X032844D02*
X032922D01*
X032844Y020095D02*
Y020883D01*
Y020095D02*
X032922D01*
X034534Y021607D02*
Y021686D01*
X033747D02*
X034534D01*
X033747Y021607D02*
Y021686D01*
Y021292D02*
Y021371D01*
Y021292D02*
X034534D01*
Y021371D01*
X033286Y022507D02*
Y022586D01*
X033995D01*
Y022507D02*
Y022586D01*
Y022192D02*
Y022271D01*
X033286Y022192D02*
X033995D01*
X033286D02*
Y022271D01*
X032844Y021885D02*
X032922D01*
X032844D02*
Y022593D01*
X032922D01*
X033159D02*
X033237D01*
Y021885D02*
Y022593D01*
X033159Y021885D02*
X033237D01*
X034534Y022057D02*
Y022136D01*
X033747D02*
X034534D01*
X033747Y022057D02*
Y022136D01*
Y021742D02*
Y021821D01*
Y021742D02*
X034534D01*
Y021821D01*
X033609Y022143D02*
X033687D01*
Y021435D02*
Y022143D01*
X033609Y021435D02*
X033687D01*
X033294D02*
X033372D01*
X033294D02*
Y022143D01*
X033372D01*
X031941Y024389D02*
X031991D01*
X031941Y023489D02*
Y024389D01*
Y023489D02*
X031991D01*
X032291D02*
X032341D01*
Y024389D01*
X032291D02*
X032341D01*
X031941Y023939D02*
X032341D01*
X031294Y024233D02*
X031372D01*
X031294Y023445D02*
Y024233D01*
Y023445D02*
X031372D01*
X031609D02*
X031687D01*
Y024233D01*
X031609D02*
X031687D01*
X028548Y022538D02*
X028666D01*
Y02364D01*
X028548D02*
X028666D01*
X028115D02*
X028233D01*
X028115Y022538D02*
Y02364D01*
Y022538D02*
X028233D01*
X028115Y023089D02*
X028666D01*
X025878Y017365D02*
X025914Y017329D01*
X02655Y017966D01*
X026515Y018001D02*
X02655Y017966D01*
X026267Y018249D02*
X026303Y018213D01*
X025631Y017612D02*
X026267Y018249D01*
X025631Y017612D02*
X025666Y017577D01*
X025949Y01793D02*
X026232Y017648D01*
X029956Y019184D02*
X030039Y019267D01*
X029956Y019184D02*
X030735Y018404D01*
X030819Y018488D01*
X031042Y018711D02*
X031125Y018794D01*
X030346Y019574D02*
X031125Y018794D01*
X030262Y01949D02*
X030346Y019574D01*
Y018794D02*
X030735Y019184D01*
X030096Y018144D02*
X030485Y018534D01*
X030078Y018834D02*
X030132Y018887D01*
X030839Y01818D01*
X030786Y018127D02*
X030839Y01818D01*
X030449Y017791D02*
X030503Y017844D01*
X029742Y018498D02*
X030449Y017791D01*
X029742Y018498D02*
X029796Y018551D01*
X026373Y017578D02*
X026429Y017634D01*
X026373Y017578D02*
X02693Y017021D01*
X026985Y017077D01*
X027152Y017244D02*
X027208Y0173D01*
X026651Y017857D02*
X027208Y0173D01*
X026596Y017801D02*
X026651Y017857D01*
X025092Y020496D02*
Y020615D01*
X023989D02*
X025092D01*
X023989Y020496D02*
Y020615D01*
Y020063D02*
Y020182D01*
Y020063D02*
X025092D01*
Y020182D01*
X024541Y020063D02*
Y020615D01*
X024142Y023646D02*
Y023765D01*
X023039D02*
X024142D01*
X023039Y023646D02*
Y023765D01*
Y023213D02*
Y023331D01*
Y023213D02*
X024142D01*
Y023331D01*
X023591Y023213D02*
Y023765D01*
X024315Y018839D02*
X024866D01*
X024315Y018339D02*
X024391D01*
X024315D02*
Y019339D01*
X024391D01*
X024791D02*
X024866D01*
Y018339D02*
Y019339D01*
X024791Y018339D02*
X024866D01*
X024141Y018389D02*
X024191D01*
Y019289D01*
X024141D02*
X024191D01*
X023791D02*
X023841D01*
X023791Y018389D02*
Y019289D01*
Y018389D02*
X023841D01*
X023791Y018839D02*
X024191D01*
X023315Y020389D02*
X023866D01*
X023315Y019889D02*
X023391D01*
X023315D02*
Y020889D01*
X023391D01*
X023791D02*
X023866D01*
Y019889D02*
Y020889D01*
X023791Y019889D02*
X023866D01*
X030048Y023418D02*
Y023496D01*
Y023418D02*
X030836D01*
Y023496D01*
Y023732D02*
Y023811D01*
X030048D02*
X030836D01*
X030048Y023732D02*
Y023811D01*
X029141Y022639D02*
X029191D01*
Y023539D01*
X029141D02*
X029191D01*
X028791D02*
X028841D01*
X028791Y022639D02*
Y023539D01*
Y022639D02*
X028841D01*
X028791Y023089D02*
X029191D01*
X024815Y02589D02*
X024933D01*
X024815Y024788D02*
Y02589D01*
Y024788D02*
X024933D01*
X025248D02*
X025366D01*
Y02589D01*
X025248D02*
X025366D01*
X024815Y025339D02*
X025366D01*
X017881Y008716D02*
Y008795D01*
X017093D02*
X017881D01*
X017093Y008716D02*
Y008795D01*
Y008401D02*
Y00848D01*
Y008401D02*
X017881D01*
Y00848D01*
X018181Y010516D02*
Y010595D01*
X017393D02*
X018181D01*
X017393Y010516D02*
Y010595D01*
Y010201D02*
Y01028D01*
Y010201D02*
X018181D01*
Y01028D01*
Y010066D02*
Y010145D01*
X017393D02*
X018181D01*
X017393Y010066D02*
Y010145D01*
Y009751D02*
Y00983D01*
Y009751D02*
X018181D01*
Y00983D01*
X013911Y008499D02*
X01403D01*
X013911Y007397D02*
Y008499D01*
Y007397D02*
X01403D01*
X014344D02*
X014463D01*
Y008499D01*
X014344D02*
X014463D01*
X013911Y007948D02*
X014463D01*
X015581Y007216D02*
Y007295D01*
X014793D02*
X015581D01*
X014793Y007216D02*
Y007295D01*
Y006901D02*
Y00698D01*
Y006901D02*
X015581D01*
Y00698D01*
X016505Y007654D02*
X016584D01*
Y008442D01*
X016505D02*
X016584D01*
X01619D02*
X016269D01*
X01619Y007654D02*
Y008442D01*
Y007654D02*
X016269D01*
X017881Y009166D02*
Y009245D01*
X017093D02*
X017881D01*
X017093Y009166D02*
Y009245D01*
Y008851D02*
Y00893D01*
Y008851D02*
X017881D01*
Y00893D01*
X016633Y010066D02*
Y010145D01*
X017341D01*
Y010066D02*
Y010145D01*
Y009751D02*
Y00983D01*
X016633Y009751D02*
X017341D01*
X016633D02*
Y00983D01*
X01619Y009444D02*
X016269D01*
X01619D02*
Y010152D01*
X016269D01*
X016505D02*
X016584D01*
Y009444D02*
Y010152D01*
X016505Y009444D02*
X016584D01*
X017881Y009616D02*
Y009695D01*
X017093D02*
X017881D01*
X017093Y009616D02*
Y009695D01*
Y009301D02*
Y00938D01*
Y009301D02*
X017881D01*
Y00938D01*
X016955Y009702D02*
X017034D01*
Y008994D02*
Y009702D01*
X016955Y008994D02*
X017034D01*
X01664D02*
X016719D01*
X01664D02*
Y009702D01*
X016719D01*
X015287Y011948D02*
X015337D01*
X015287Y011048D02*
Y011948D01*
Y011048D02*
X015337D01*
X015637D02*
X015687D01*
Y011948D01*
X015637D02*
X015687D01*
X015287Y011498D02*
X015687D01*
X01464Y011792D02*
X014719D01*
X01464Y011004D02*
Y011792D01*
Y011004D02*
X014719D01*
X014955D02*
X015034D01*
Y011792D01*
X014955D02*
X015034D01*
X011894Y010097D02*
X012013D01*
Y011199D01*
X011894D02*
X012013D01*
X011461D02*
X01158D01*
X011461Y010097D02*
Y011199D01*
Y010097D02*
X01158D01*
X011461Y010648D02*
X012013D01*
X009225Y004924D02*
X00926Y004888D01*
X009897Y005525D01*
X009861Y00556D02*
X009897Y005525D01*
X009614Y005808D02*
X009649Y005772D01*
X008977Y005171D02*
X009614Y005808D01*
X008977Y005171D02*
X009013Y005136D01*
X009296Y005489D02*
X009578Y005207D01*
X013302Y006743D02*
X013386Y006826D01*
X013302Y006743D02*
X014082Y005963D01*
X014165Y006047D01*
X014388Y00627D02*
X014472Y006353D01*
X013692Y007133D02*
X014472Y006353D01*
X013609Y007049D02*
X013692Y007133D01*
Y006353D02*
X014082Y006743D01*
X013442Y005703D02*
X013832Y006093D01*
X013425Y006393D02*
X013478Y006446D01*
X014185Y005739D01*
X014132Y005686D02*
X014185Y005739D01*
X013796Y00535D02*
X013849Y005403D01*
X013089Y006057D02*
X013796Y00535D01*
X013089Y006057D02*
X013142Y00611D01*
X009719Y005137D02*
X009775Y005193D01*
X009719Y005137D02*
X010276Y00458D01*
X010332Y004636D01*
X010499Y004803D02*
X010555Y004859D01*
X009998Y005416D02*
X010555Y004859D01*
X009942Y00536D02*
X009998Y005416D01*
X008438Y008056D02*
Y008174D01*
X007336D02*
X008438D01*
X007336Y008056D02*
Y008174D01*
Y007622D02*
Y007741D01*
Y007622D02*
X008438D01*
Y007741D01*
X007887Y007622D02*
Y008174D01*
X007488Y011206D02*
Y011324D01*
X006386D02*
X007488D01*
X006386Y011206D02*
Y011324D01*
Y010772D02*
Y010891D01*
Y010772D02*
X007488D01*
Y010891D01*
X006937Y010772D02*
Y011324D01*
X007661Y006398D02*
X008213D01*
X007661Y005898D02*
X007737D01*
X007661D02*
Y006898D01*
X007737D01*
X008137D02*
X008213D01*
Y005898D02*
Y006898D01*
X008137Y005898D02*
X008213D01*
X007487Y005948D02*
X007537D01*
Y006848D01*
X007487D02*
X007537D01*
X007137D02*
X007187D01*
X007137Y005948D02*
Y006848D01*
Y005948D02*
X007187D01*
X007137Y006398D02*
X007537D01*
X006661Y007948D02*
X007213D01*
X006661Y007448D02*
X006737D01*
X006661D02*
Y008448D01*
X006737D01*
X007137D02*
X007213D01*
Y007448D02*
Y008448D01*
X007137Y007448D02*
X007213D01*
X013395Y010977D02*
Y011055D01*
Y010977D02*
X014182D01*
Y011055D01*
Y011292D02*
Y01137D01*
X013395D02*
X014182D01*
X013395Y011292D02*
Y01137D01*
X012487Y010198D02*
X012537D01*
Y011098D01*
X012487D02*
X012537D01*
X012137D02*
X012187D01*
X012137Y010198D02*
Y011098D01*
Y010198D02*
X012187D01*
X012137Y010648D02*
X012537D01*
X008161Y013449D02*
X00828D01*
X008161Y012347D02*
Y013449D01*
Y012347D02*
X00828D01*
X008594D02*
X008713D01*
Y013449D01*
X008594D02*
X008713D01*
X008161Y012898D02*
X008713D01*
X00896Y023115D02*
Y023666D01*
X009511Y023115D02*
Y023233D01*
X008409Y023115D02*
X009511D01*
X008409D02*
Y023233D01*
Y023548D02*
Y023666D01*
X009511D01*
Y023548D02*
Y023666D01*
X015328Y027334D02*
X015407D01*
Y026547D02*
Y027334D01*
X015328Y026547D02*
X015407D01*
X015013D02*
X015092D01*
X015013D02*
Y027334D01*
X015092D01*
X01621Y026541D02*
Y026941D01*
X01666Y026541D02*
Y026591D01*
X01576Y026541D02*
X01666D01*
X01576D02*
Y026591D01*
Y026891D02*
Y026941D01*
X01666D01*
Y026891D02*
Y026941D01*
X014628Y027334D02*
X014707D01*
Y026547D02*
Y027334D01*
X014628Y026547D02*
X014707D01*
X014313D02*
X014392D01*
X014313D02*
Y027334D01*
X014392D01*
X016663Y023097D02*
X016742D01*
X016663D02*
Y023884D01*
X016742D01*
X016978D02*
X017057D01*
Y023097D02*
Y023884D01*
X016978Y023097D02*
X017057D01*
X016104Y022494D02*
Y022572D01*
X015316Y022494D02*
X016104D01*
X015316D02*
Y022572D01*
Y022809D02*
Y022887D01*
X016104D01*
Y022809D02*
Y022887D01*
X00456Y026765D02*
Y027316D01*
X005111Y026765D02*
Y026883D01*
X004009Y026765D02*
X005111D01*
X004009D02*
Y026883D01*
Y027198D02*
Y027316D01*
X005111D01*
Y027198D02*
Y027316D01*
X011215Y026096D02*
X011605Y026485D01*
Y025706D02*
X011688Y025789D01*
X010825Y026485D02*
X011605Y025706D01*
X010825Y026485D02*
X010909Y026569D01*
X011132Y026792D02*
X011215Y026875D01*
X011995Y026096D01*
X011911Y026012D02*
X011995Y026096D01*
X018504Y023944D02*
Y024022D01*
X017716Y023944D02*
X018504D01*
X017716D02*
Y024022D01*
Y024259D02*
Y024337D01*
X018504D01*
Y024259D02*
Y024337D01*
Y024394D02*
Y024472D01*
X017716Y024394D02*
X018504D01*
X017716D02*
Y024472D01*
Y024709D02*
Y024787D01*
X018504D01*
Y024709D02*
Y024787D01*
Y024844D02*
Y024922D01*
X017716Y024844D02*
X018504D01*
X017716D02*
Y024922D01*
Y025159D02*
Y025237D01*
X018504D01*
Y025159D02*
Y025237D01*
X017206Y025294D02*
Y025372D01*
Y025294D02*
X017914D01*
Y025372D01*
Y025609D02*
Y025687D01*
X017206D02*
X017914D01*
X017206Y025609D02*
Y025687D01*
X018804Y025744D02*
Y025822D01*
X018016Y025744D02*
X018804D01*
X018016D02*
Y025822D01*
Y026059D02*
Y026137D01*
X018804D01*
Y026059D02*
Y026137D01*
Y025294D02*
Y025372D01*
X018016Y025294D02*
X018804D01*
X018016D02*
Y025372D01*
Y025609D02*
Y025687D01*
X018804D01*
Y025609D02*
Y025687D01*
X017213Y025245D02*
X017292D01*
X017213Y024536D02*
Y025245D01*
Y024536D02*
X017292D01*
X017528D02*
X017607D01*
Y025245D01*
X017528D02*
X017607D01*
X017028Y024986D02*
X017107D01*
Y025695D01*
X017028D02*
X017107D01*
X016713D02*
X016792D01*
X016713Y024986D02*
Y025695D01*
Y024986D02*
X016792D01*
X00816Y022041D02*
X00821Y022041D01*
Y022941D01*
X00816Y022941D02*
X00821Y022941D01*
X00781D02*
X00786Y022941D01*
X00781Y022041D02*
X00781Y022941D01*
X00781Y022041D02*
X00786Y022041D01*
X00781Y022491D02*
X00821D01*
X009216Y021859D02*
Y021937D01*
X010004D01*
Y021859D02*
Y021937D01*
Y021544D02*
Y021622D01*
X009216Y021544D02*
X010004D01*
X009216D02*
Y021622D01*
X008384Y022491D02*
X008936D01*
X008384Y021991D02*
X00846D01*
X008384D02*
Y022991D01*
X00846D01*
X00886Y022991D02*
X008936Y022991D01*
X008936Y021991D01*
X00886D02*
X008936D01*
X00691Y023015D02*
Y023091D01*
Y023015D02*
X00791D01*
Y023091D01*
Y023491D02*
Y023566D01*
X00691D02*
X00791D01*
X00691Y023491D02*
Y023566D01*
X00741Y023015D02*
Y023566D01*
X00696Y025165D02*
Y025716D01*
X007511Y025165D02*
Y025283D01*
X006409Y025165D02*
X007511D01*
X006409D02*
Y025283D01*
Y025598D02*
Y025716D01*
X007511D01*
Y025598D02*
Y025716D01*
X00696Y025815D02*
Y026366D01*
X006409Y026248D02*
Y026366D01*
X007511D01*
Y026248D02*
Y026366D01*
Y025815D02*
Y025933D01*
X006409Y025815D02*
X007511D01*
X006409D02*
Y025933D01*
X01376Y021415D02*
Y021966D01*
X01326Y021891D02*
Y021966D01*
X01426D01*
Y021891D02*
Y021966D01*
Y021415D02*
Y021491D01*
X01326Y021415D02*
X01426D01*
X01326D02*
Y021491D01*
X01301Y027141D02*
X01306D01*
X01301Y026241D02*
Y027141D01*
Y026241D02*
X01306D01*
X01336D02*
X01341D01*
Y027141D01*
X01336D02*
X01341D01*
X01301Y026691D02*
X01341D01*
X014484Y024192D02*
X014602D01*
X014484Y023089D02*
Y024192D01*
Y023089D02*
X014602D01*
X014917D02*
X015036D01*
Y024192D01*
X014917D02*
X015036D01*
X014484Y023641D02*
X015036D01*
X033284Y008224D02*
Y007672D01*
X032733Y008224D02*
Y008106D01*
X033835Y008224D02*
X032733D01*
X033835D02*
Y008106D01*
Y007791D02*
Y007672D01*
X032733D01*
Y007791D02*
Y007672D01*
X026916Y004004D02*
X026837D01*
Y004792D02*
Y004004D01*
X026916Y004792D02*
X026837D01*
X027231D02*
X027152D01*
X027231D02*
Y004004D01*
X027152D01*
X026034Y004798D02*
Y004398D01*
X025584Y004798D02*
Y004748D01*
X026484Y004798D02*
X025584D01*
X026484D02*
Y004748D01*
Y004448D02*
Y004398D01*
X025584D01*
Y004448D02*
Y004398D01*
X027616Y004004D02*
X027537D01*
Y004792D02*
Y004004D01*
X027616Y004792D02*
X027537D01*
X027931D02*
X027852D01*
X027931D02*
Y004004D01*
X027852D01*
X025581Y008242D02*
X025502D01*
X025581D02*
Y007454D01*
X025502D01*
X025266D02*
X025187D01*
Y008242D02*
Y007454D01*
X025266Y008242D02*
X025187D01*
X02614Y008845D02*
Y008766D01*
X026928Y008845D02*
X02614D01*
X026928D02*
Y008766D01*
Y00853D02*
Y008451D01*
X02614D01*
Y00853D02*
Y008451D01*
X037684Y004574D02*
Y004022D01*
X037133Y004574D02*
Y004456D01*
X038235Y004574D02*
X037133D01*
X038235D02*
Y004456D01*
Y004141D02*
Y004022D01*
X037133D01*
Y004141D02*
Y004022D01*
X031029Y005243D02*
X030639Y004853D01*
Y005633D02*
X030556Y005549D01*
X031419Y004853D02*
X030639Y005633D01*
X031419Y004853D02*
X031335Y00477D01*
X031113Y004547D02*
X031029Y004463D01*
X03025Y005243D01*
X030333Y005326D02*
X03025Y005243D01*
X02374Y007395D02*
Y007316D01*
X024528Y007395D02*
X02374D01*
X024528D02*
Y007316D01*
Y00708D02*
Y007001D01*
X02374D01*
Y00708D02*
Y007001D01*
Y006945D02*
Y006866D01*
X024528Y006945D02*
X02374D01*
X024528D02*
Y006866D01*
Y00663D02*
Y006551D01*
X02374D01*
Y00663D02*
Y006551D01*
Y006495D02*
Y006416D01*
X024528Y006495D02*
X02374D01*
X024528D02*
Y006416D01*
Y00618D02*
Y006101D01*
X02374D01*
Y00618D02*
Y006101D01*
X025039Y006045D02*
Y005966D01*
Y006045D02*
X02433D01*
Y005966D01*
Y00573D02*
Y005651D01*
X025039D02*
X02433D01*
X025039Y00573D02*
Y005651D01*
X02344Y005595D02*
Y005516D01*
X024228Y005595D02*
X02344D01*
X024228D02*
Y005516D01*
Y00528D02*
Y005201D01*
X02344D01*
Y00528D02*
Y005201D01*
Y006045D02*
Y005966D01*
X024228Y006045D02*
X02344D01*
X024228D02*
Y005966D01*
Y00573D02*
Y005651D01*
X02344D01*
Y00573D02*
Y005651D01*
X025031Y006094D02*
X024952D01*
X025031Y006802D02*
Y006094D01*
Y006802D02*
X024952D01*
X024716D02*
X024637D01*
Y006094D01*
X024716D02*
X024637D01*
X025216Y006352D02*
X025137D01*
Y005644D01*
X025216D02*
X025137D01*
X025531D02*
X025452D01*
X025531Y006352D02*
Y005644D01*
Y006352D02*
X025452D01*
X034084Y009298D02*
X034034Y009298D01*
Y008398D01*
X034084Y008398D02*
X034034Y008398D01*
X034434D02*
X034384Y008398D01*
X034434Y009298D02*
X034434Y008398D01*
X034434Y009298D02*
X034384Y009298D01*
X034434Y008848D02*
X034034D01*
X033028Y00948D02*
Y009401D01*
X03224D01*
Y00948D02*
Y009401D01*
Y009795D02*
Y009716D01*
X033028Y009795D02*
X03224D01*
X033028D02*
Y009716D01*
X03386Y008848D02*
X033309D01*
X03386Y009348D02*
X033784D01*
X03386D02*
Y008348D01*
X033784D01*
X033384Y008348D02*
X033309Y008348D01*
X033309Y009348D01*
X033384D02*
X033309D01*
X035334Y008324D02*
Y008248D01*
Y008324D02*
X034334D01*
Y008248D01*
Y007848D02*
Y007772D01*
X035334D02*
X034334D01*
X035334Y007848D02*
Y007772D01*
X034834Y008324D02*
Y007772D01*
X035284Y006174D02*
Y005622D01*
X034733Y006174D02*
Y006056D01*
X035835Y006174D02*
X034733D01*
X035835D02*
Y006056D01*
Y005741D02*
Y005622D01*
X034733D01*
Y005741D02*
Y005622D01*
X035284Y005524D02*
Y004972D01*
X035835Y005091D02*
Y004972D01*
X034733D01*
Y005091D02*
Y004972D01*
Y005524D02*
Y005406D01*
X035835Y005524D02*
X034733D01*
X035835D02*
Y005406D01*
X028484Y009924D02*
Y009372D01*
X028984Y009448D02*
Y009372D01*
X027984D01*
Y009448D02*
Y009372D01*
Y009924D02*
Y009848D01*
X028984Y009924D02*
X027984D01*
X028984D02*
Y009848D01*
X029234Y004198D02*
X029184D01*
X029234Y005098D02*
Y004198D01*
Y005098D02*
X029184D01*
X028884D02*
X028834D01*
Y004198D01*
X028884D02*
X028834D01*
X029234Y004648D02*
X028834D01*
X02776Y007147D02*
X027642D01*
X02776Y008249D02*
Y007147D01*
Y008249D02*
X027642D01*
X027327D02*
X027209D01*
Y007147D01*
X027327D02*
X027209D01*
X02776Y007698D02*
X027209D01*
X014084Y01742D02*
X014636D01*
X014517Y017971D02*
X014636D01*
Y016869D02*
Y017971D01*
X014517Y016869D02*
X014636D01*
X014084D02*
X014202D01*
X014084D02*
Y017971D01*
X014202D01*
X014763Y020964D02*
X014842D01*
X014763Y020176D02*
Y020964D01*
Y020176D02*
X014842D01*
X015078D02*
X015157D01*
Y020964D01*
X015078D02*
X015157D01*
X013709Y015794D02*
Y015913D01*
Y015794D02*
X014811D01*
Y015913D01*
Y016228D02*
Y016346D01*
X013709D02*
X014811D01*
X013709Y016228D02*
Y016346D01*
X01426Y015794D02*
Y016346D01*
X014263Y020964D02*
X014342D01*
X014263Y020176D02*
Y020964D01*
Y020176D02*
X014342D01*
X014578D02*
X014657D01*
Y020964D01*
X014578D02*
X014657D01*
X017254Y018073D02*
Y018152D01*
X016466Y018073D02*
X017254D01*
X016466D02*
Y018152D01*
Y018388D02*
Y018467D01*
X017254D01*
Y018388D02*
Y018467D01*
Y017623D02*
Y017702D01*
X016466Y017623D02*
X017254D01*
X016466D02*
Y017702D01*
Y017938D02*
Y018017D01*
X017254D01*
Y017938D02*
Y018017D01*
X01566Y02062D02*
X01606D01*
X01601Y02107D02*
X01606D01*
Y02017D02*
Y02107D01*
X01601Y02017D02*
X01606D01*
X01566D02*
X01571D01*
X01566D02*
Y02107D01*
X01571D01*
X016213Y016676D02*
X016292D01*
X016213D02*
Y017464D01*
X016292D01*
X016528D02*
X016607D01*
Y016676D02*
Y017464D01*
X016528Y016676D02*
X016607D01*
X015754Y016023D02*
Y016102D01*
X014966Y016023D02*
X015754D01*
X014966D02*
Y016102D01*
Y016338D02*
Y016417D01*
X015754D01*
Y016338D02*
Y016417D01*
X00991Y015194D02*
Y015746D01*
X010461Y015194D02*
Y015313D01*
X009359Y015194D02*
X010461D01*
X009359D02*
Y015313D01*
Y015628D02*
Y015746D01*
X010461D01*
Y015628D02*
Y015746D01*
X008884Y01697D02*
X009436D01*
X009317Y017521D02*
X009436D01*
Y016419D02*
Y017521D01*
X009317Y016419D02*
X009436D01*
X008884D02*
X009002D01*
X008884D02*
Y017521D01*
X009002D01*
X01291Y015144D02*
Y01522D01*
Y015144D02*
X01391D01*
Y01522D01*
Y01562D02*
Y015696D01*
X01291D02*
X01391D01*
X01291Y01562D02*
Y015696D01*
X01341Y015144D02*
Y015696D01*
X00836Y01562D02*
X008436D01*
Y01662D01*
X00836D02*
X008436D01*
X007884D02*
X00796D01*
X007884Y01562D02*
Y01662D01*
Y01562D02*
X00796D01*
X007884Y01612D02*
X008436D01*
X00741D02*
X00781D01*
X00741Y01567D02*
X00746D01*
X00741D02*
Y01657D01*
X00746D01*
X00776D02*
X00781D01*
Y01567D02*
Y01657D01*
X00776Y01567D02*
X00781D01*
X00681Y016794D02*
Y01687D01*
Y016794D02*
X00781D01*
Y01687D01*
Y01727D02*
Y017346D01*
X00681D02*
X00781D01*
X00681Y01727D02*
Y017346D01*
X00731Y016794D02*
Y017346D01*
X00676Y018794D02*
Y019346D01*
X007311Y018794D02*
Y018913D01*
X006209Y018794D02*
X007311D01*
X006209D02*
Y018913D01*
Y019228D02*
Y019346D01*
X007311D01*
Y019228D02*
Y019346D01*
X013487Y02033D02*
X013522Y020294D01*
X01285Y019693D02*
X013487Y02033D01*
X01285Y019693D02*
X012886Y019658D01*
X013098Y019446D02*
X013133Y01941D01*
X01377Y020047D01*
X013734Y020082D02*
X01377Y020047D01*
X013168Y020011D02*
X013451Y019729D01*
X011192Y020009D02*
X011248Y020065D01*
X011192Y020009D02*
X011749Y019452D01*
X011805Y019508D01*
X011972Y019675D02*
X012027Y019731D01*
X011471Y020288D02*
X012027Y019731D01*
X011415Y020232D02*
X011471Y020288D01*
X005811Y020328D02*
Y020446D01*
X004709D02*
X005811D01*
X004709Y020328D02*
Y020446D01*
Y019894D02*
Y020013D01*
Y019894D02*
X005811D01*
Y020013D01*
X00526Y019894D02*
Y020446D01*
X02816Y013919D02*
X027609D01*
X027727Y013367D02*
X027609D01*
Y01447D02*
Y013367D01*
X027727Y01447D02*
X027609D01*
X02816D02*
X028042D01*
X02816D02*
Y013367D01*
X028042D01*
X027481Y010375D02*
X027402D01*
X027481Y011162D02*
Y010375D01*
Y011162D02*
X027402D01*
X027166D02*
X027087D01*
Y010375D01*
X027166D02*
X027087D01*
X028535Y015544D02*
Y015426D01*
Y015544D02*
X027433D01*
Y015426D01*
Y015111D02*
Y014993D01*
X028535D02*
X027433D01*
X028535Y015111D02*
Y014993D01*
X027984Y015544D02*
Y014993D01*
X027981Y010375D02*
X027902D01*
X027981Y011162D02*
Y010375D01*
Y011162D02*
X027902D01*
X027666D02*
X027587D01*
Y010375D01*
X027666D02*
X027587D01*
X02499Y013265D02*
Y013187D01*
X025778Y013265D02*
X02499D01*
X025778D02*
Y013187D01*
Y01295D02*
Y012872D01*
X02499D01*
Y01295D02*
Y012872D01*
Y013715D02*
Y013637D01*
X025778Y013715D02*
X02499D01*
X025778D02*
Y013637D01*
Y0134D02*
Y013322D01*
X02499D01*
Y0134D02*
Y013322D01*
X026584Y010719D02*
X026184D01*
X026234Y010269D02*
X026184D01*
Y011169D02*
Y010269D01*
X026234Y011169D02*
X026184D01*
X026584D02*
X026534D01*
X026584D02*
Y010269D01*
X026534D01*
X026031Y014662D02*
X025952D01*
X026031D02*
Y013875D01*
X025952D01*
X025716D02*
X025637D01*
Y014662D02*
Y013875D01*
X025716Y014662D02*
X025637D01*
X02649Y015315D02*
Y015237D01*
X027278Y015315D02*
X02649D01*
X027278D02*
Y015237D01*
Y015D02*
Y014922D01*
X02649D01*
Y015D02*
Y014922D01*
X032334Y016144D02*
Y015593D01*
X031783Y016144D02*
Y016026D01*
X032885Y016144D02*
X031783D01*
X032885D02*
Y016026D01*
Y015711D02*
Y015593D01*
X031783D01*
Y015711D02*
Y015593D01*
X03336Y014369D02*
X032809D01*
X032927Y013817D02*
X032809D01*
Y01492D02*
Y013817D01*
X032927Y01492D02*
X032809D01*
X03336D02*
X033242D01*
X03336D02*
Y013817D01*
X033242D01*
X029334Y016194D02*
Y016119D01*
Y016194D02*
X028334D01*
Y016119D01*
Y015719D02*
Y015643D01*
X029334D02*
X028334D01*
X029334Y015719D02*
Y015643D01*
X028834Y016194D02*
Y015643D01*
X033884Y015719D02*
X033809D01*
Y014719D01*
X033884D02*
X033809D01*
X03436D02*
X034284D01*
X03436Y015719D02*
Y014719D01*
Y015719D02*
X034284D01*
X03436Y015219D02*
X033809D01*
X034834D02*
X034434D01*
X034834Y015669D02*
X034784D01*
X034834D02*
Y014769D01*
X034784D01*
X034484D02*
X034434D01*
Y015669D02*
Y014769D01*
X034484Y015669D02*
X034434D01*
X035434Y014544D02*
Y014469D01*
Y014544D02*
X034434D01*
Y014469D01*
Y014069D02*
Y013993D01*
X035434D02*
X034434D01*
X035434Y014069D02*
Y013993D01*
X034934Y014544D02*
Y013993D01*
X035484Y012544D02*
Y011993D01*
X034933Y012544D02*
Y012426D01*
X036035Y012544D02*
X034933D01*
X036035D02*
Y012426D01*
Y012111D02*
Y011993D01*
X034933D01*
Y012111D02*
Y011993D01*
X028757Y011009D02*
X028722Y011044D01*
X029394Y011645D02*
X028757Y011009D01*
X029394Y011645D02*
X029358Y011681D01*
X029146Y011893D02*
X029111Y011928D01*
X028475Y011292D01*
X02851Y011256D02*
X028475Y011292D01*
X029076Y011327D02*
X028793Y01161D01*
X031052Y011329D02*
X030996Y011274D01*
X031052Y011329D02*
X030495Y011886D01*
X030439Y01183D01*
X030272Y011663D02*
X030217Y011608D01*
X030773Y011051D02*
X030217Y011608D01*
X030829Y011107D02*
X030773Y011051D01*
X036433Y011011D02*
Y010893D01*
X037535D02*
X036433D01*
X037535Y011011D02*
Y010893D01*
Y011444D02*
Y011326D01*
Y011444D02*
X036433D01*
Y011326D01*
X036984Y011444D02*
Y010893D01*
D76*
X029705Y018315D02*
X030067Y017953D01*
X028814Y017425D02*
X029176Y017063D01*
X03229Y021552D02*
X032428D01*
X03229Y023126D02*
X032428D01*
X030853Y021552D02*
X030991D01*
X030853Y023126D02*
X030991D01*
X032428Y021552D02*
Y021689D01*
Y022989D02*
Y023126D01*
X030853Y021552D02*
Y021689D01*
Y022989D02*
Y023126D01*
X023221Y022605D02*
X02386D01*
X023221Y021373D02*
X02386D01*
X025956Y023189D02*
X027925D01*
X025956D02*
Y025189D01*
X027925D01*
Y023189D02*
Y025189D01*
X023475Y025024D02*
Y025654D01*
X024706Y025024D02*
Y025654D01*
X013051Y005874D02*
X013413Y005512D01*
X012161Y004984D02*
X012523Y004622D01*
X015637Y009111D02*
X015774D01*
X015637Y010685D02*
X015774D01*
X0142Y009111D02*
X014337D01*
X0142Y010685D02*
X014337D01*
X015774Y009111D02*
Y009248D01*
Y010548D02*
Y010685D01*
X0142Y009111D02*
Y009248D01*
Y010548D02*
Y010685D01*
X006567Y010164D02*
X007207D01*
X006567Y008932D02*
X007207D01*
X009303Y010748D02*
X011271D01*
X009303D02*
Y012748D01*
X011271D01*
Y010748D02*
Y012748D01*
X006821Y012583D02*
Y013213D01*
X008053Y012583D02*
Y013213D01*
X010644Y025341D02*
Y027341D01*
X008676D02*
X010644D01*
X008676Y025341D02*
Y027341D01*
Y025341D02*
X010644D01*
X00659Y024907D02*
X00723D01*
X00659Y023674D02*
X00723D01*
X01611Y024653D02*
X016247D01*
X01611Y026228D02*
X016247D01*
X014673Y024653D02*
X01481D01*
X014673Y026228D02*
X01481D01*
X016247Y024653D02*
Y024791D01*
Y02609D02*
Y026228D01*
X014673Y024653D02*
Y024791D01*
Y02609D02*
Y026228D01*
X0316Y005998D02*
Y003998D01*
X033568D02*
X0316D01*
X033568Y005998D02*
Y003998D01*
Y005998D02*
X0316D01*
X035654Y006432D02*
X035014D01*
X035654Y007664D02*
X035014D01*
X026135Y006685D02*
X025997D01*
X026135Y005111D02*
X025997D01*
X027572Y006685D02*
X027434D01*
X027572Y005111D02*
X027434D01*
X025997Y006685D02*
Y006548D01*
Y005248D02*
Y005111D01*
X027572Y006685D02*
Y006548D01*
Y005248D02*
Y005111D01*
X016338Y018763D02*
Y019078D01*
X017082Y018763D02*
Y019078D01*
X014323Y01967D02*
Y019807D01*
Y018233D02*
Y01837D01*
X015897Y01967D02*
Y019807D01*
Y018233D02*
Y01837D01*
X014323Y019807D02*
X01446D01*
X014323Y018233D02*
X01446D01*
X01576Y019807D02*
X015897D01*
X01576Y018233D02*
X015897D01*
X018486Y0204D02*
X019234D01*
X01758Y018746D02*
Y019494D01*
X018486Y017841D02*
X019234D01*
X020139Y018746D02*
Y019494D01*
X00644Y017454D02*
X00708D01*
X00644Y018686D02*
X00708D01*
X008626Y01912D02*
X010594D01*
X008626D02*
Y02112D01*
X010594D01*
Y01912D02*
Y02112D01*
X025906Y012576D02*
Y012261D01*
X025162Y012576D02*
Y012261D01*
X027922Y011669D02*
Y011531D01*
Y013106D02*
Y012968D01*
X026347Y011669D02*
Y011531D01*
Y013106D02*
Y012968D01*
X027922Y011531D02*
X027784D01*
X027922Y013106D02*
X027784D01*
X026485Y011531D02*
X026347D01*
X026485Y013106D02*
X026347D01*
X023758Y010939D02*
X02301D01*
X024664Y012593D02*
Y011845D01*
X023758Y013498D02*
X02301D01*
X022105Y012593D02*
Y011845D01*
X035804Y013885D02*
X035164D01*
X035804Y012652D02*
X035164D01*
X033618Y012219D02*
X03165D01*
X033618D02*
Y010219D01*
X03165D01*
Y012219D02*
Y010219D01*
D77*
X030766Y019689D02*
X030716Y019739D01*
X030616D01*
X030566Y019689D01*
Y019489D01*
X030616Y019439D01*
X030716D01*
X030766Y019489D01*
X030866Y019439D02*
X030966D01*
X030916D01*
Y019739D01*
X030866Y019689D01*
X031116D02*
X031165Y019739D01*
X031265D01*
X031315Y019689D01*
Y019639D01*
X031265Y019589D01*
X031215D01*
X031265D01*
X031315Y019539D01*
Y019489D01*
X031265Y019439D01*
X031165D01*
X031116Y019489D01*
X023341Y020989D02*
Y021289D01*
X023491D01*
X023541Y021239D01*
Y021139D01*
X023491Y021089D01*
X023341D01*
X023441D02*
X023541Y020989D01*
X023641Y021239D02*
X023691Y021289D01*
X02379D01*
X02384Y021239D01*
Y021189D01*
X02379Y021139D01*
X02384Y021089D01*
Y021039D01*
X02379Y020989D01*
X023691D01*
X023641Y021039D01*
Y021089D01*
X023691Y021139D01*
X023641Y021189D01*
Y021239D01*
X023691Y021139D02*
X02379D01*
X024341Y017939D02*
Y018239D01*
X024491D01*
X024541Y018189D01*
Y018089D01*
X024491Y018039D01*
X024341D01*
X024441D02*
X024541Y017939D01*
X024641Y018239D02*
X02484D01*
Y018189D01*
X024641Y017989D01*
Y017939D01*
X023691D02*
Y018239D01*
X023841D01*
X023891Y018189D01*
Y018089D01*
X023841Y018039D01*
X023691D01*
X023791D02*
X023891Y017939D01*
X02419Y018239D02*
X02409Y018189D01*
X023991Y018089D01*
Y017989D01*
X024041Y017939D01*
X02414D01*
X02419Y017989D01*
Y018039D01*
X02414Y018089D01*
X023991D01*
X028811Y023849D02*
Y024149D01*
X02896D01*
X02901Y024099D01*
Y023999D01*
X02896Y023949D01*
X028811D01*
X028911D02*
X02901Y023849D01*
X02926D02*
Y024149D01*
X02911Y023999D01*
X02931D01*
X031941Y024539D02*
Y024839D01*
X032091D01*
X032141Y024789D01*
Y024689D01*
X032091Y024639D01*
X031941D01*
X032041D02*
X032141Y024539D01*
X032241Y024789D02*
X032291Y024839D01*
X03239D01*
X03244Y024789D01*
Y024739D01*
X03239Y024689D01*
X032341D01*
X03239D01*
X03244Y024639D01*
Y024589D01*
X03239Y024539D01*
X032291D01*
X032241Y024589D01*
X025191Y017139D02*
Y017439D01*
X025341D01*
X025391Y017389D01*
Y017289D01*
X025341Y017239D01*
X025191D01*
X025291D02*
X025391Y017139D01*
X02569D02*
X025491D01*
X02569Y017339D01*
Y017389D01*
X02564Y017439D01*
X025541D01*
X025491Y017389D01*
X030641Y017589D02*
Y017889D01*
X030791D01*
X030841Y017839D01*
Y017739D01*
X030791Y017689D01*
X030641D01*
X030741D02*
X030841Y017589D01*
X030941D02*
X03104D01*
X030991D01*
Y017889D01*
X030941Y017839D01*
X033141Y021339D02*
Y021039D01*
X033341D01*
X033441Y021289D02*
X033491Y021339D01*
X03359D01*
X03364Y021289D01*
Y021239D01*
X03359Y021189D01*
X03354D01*
X03359D01*
X03364Y021139D01*
Y021089D01*
X03359Y021039D01*
X033491D01*
X033441Y021089D01*
X032791Y023039D02*
Y022739D01*
X032991D01*
X03329D02*
X033091D01*
X03329Y022939D01*
Y022989D01*
X03324Y023039D01*
X033141D01*
X033091Y022989D01*
X033541Y022989D02*
Y022689D01*
X033741D01*
X033841D02*
X03394D01*
X033891D01*
Y022989D01*
X033841Y022939D01*
X028366Y024039D02*
X028316Y024089D01*
X028216D01*
X028166Y024039D01*
Y023839D01*
X028216Y023789D01*
X028316D01*
X028366Y023839D01*
X028466Y023789D02*
X028566D01*
X028516D01*
Y024089D01*
X028466Y024039D01*
X028716Y024089D02*
X028915D01*
Y024039D01*
X028716Y023839D01*
Y023789D01*
X02504Y026429D02*
X02499Y026479D01*
X024891D01*
X024841Y026429D01*
Y026229D01*
X024891Y026179D01*
X02499D01*
X02504Y026229D01*
X02514Y026179D02*
X02524D01*
X02519D01*
Y026479D01*
X02514Y026429D01*
X02559Y026479D02*
X02549Y026429D01*
X02539Y026329D01*
Y026229D01*
X02544Y026179D01*
X02554D01*
X02559Y026229D01*
Y026279D01*
X02554Y026329D01*
X02539D01*
X02276Y027169D02*
X02271Y027219D01*
X022611D01*
X022561Y027169D01*
Y026969D01*
X022611Y026919D01*
X02271D01*
X02276Y026969D01*
X02286Y026919D02*
X02296D01*
X02291D01*
Y027219D01*
X02286Y027169D01*
X02331Y027219D02*
X02311D01*
Y027069D01*
X02321Y027119D01*
X02326D01*
X02331Y027069D01*
Y026969D01*
X02326Y026919D01*
X02316D01*
X02311Y026969D01*
X024616Y020989D02*
X024566Y021039D01*
X024466D01*
X024416Y020989D01*
Y020789D01*
X024466Y020739D01*
X024566D01*
X024616Y020789D01*
X024716Y020739D02*
X024816D01*
X024766D01*
Y021039D01*
X024716Y020989D01*
X025115Y020739D02*
Y021039D01*
X024966Y020889D01*
X025165D01*
X031166Y018389D02*
X031116Y018439D01*
X031016D01*
X030966Y018389D01*
Y018189D01*
X031016Y018139D01*
X031116D01*
X031166Y018189D01*
X031266Y018139D02*
X031366D01*
X031316D01*
Y018439D01*
X031266Y018389D01*
X031715Y018139D02*
X031516D01*
X031715Y018339D01*
Y018389D01*
X031665Y018439D01*
X031565D01*
X031516Y018389D01*
X026216Y017189D02*
X026166Y017239D01*
X026066D01*
X026016Y017189D01*
Y016989D01*
X026066Y016939D01*
X026166D01*
X026216Y016989D01*
X026316Y016939D02*
X026416D01*
X026366D01*
Y017239D01*
X026316Y017189D01*
X026565Y016939D02*
X026665D01*
X026615D01*
Y017239D01*
X026565Y017189D01*
X031216Y024689D02*
X031166Y024739D01*
X031066D01*
X031016Y024689D01*
Y024489D01*
X031066Y024439D01*
X031166D01*
X031216Y024489D01*
X031316Y024439D02*
X031416D01*
X031366D01*
Y024739D01*
X031316Y024689D01*
X031565D02*
X031615Y024739D01*
X031715D01*
X031765Y024689D01*
Y024489D01*
X031715Y024439D01*
X031615D01*
X031565Y024489D01*
Y024689D01*
X024441Y023589D02*
X024391Y023639D01*
X024291D01*
X024241Y023589D01*
Y023389D01*
X024291Y023339D01*
X024391D01*
X024441Y023389D01*
X024541D02*
X024591Y023339D01*
X02469D01*
X02474Y023389D01*
Y023589D01*
X02469Y023639D01*
X024591D01*
X024541Y023589D01*
Y023539D01*
X024591Y023489D01*
X02474D01*
X032541Y019639D02*
X032491Y019689D01*
X032391D01*
X032341Y019639D01*
Y019439D01*
X032391Y019389D01*
X032491D01*
X032541Y019439D01*
X032641Y019639D02*
X032691Y019689D01*
X03279D01*
X03284Y019639D01*
Y019589D01*
X03279Y019539D01*
X03284Y019489D01*
Y019439D01*
X03279Y019389D01*
X032691D01*
X032641Y019439D01*
Y019489D01*
X032691Y019539D01*
X032641Y019589D01*
Y019639D01*
X032691Y019539D02*
X03279D01*
X033041Y019939D02*
X032991Y019989D01*
X032891D01*
X032841Y019939D01*
Y019739D01*
X032891Y019689D01*
X032991D01*
X033041Y019739D01*
X033141Y019989D02*
X03334D01*
Y019939D01*
X033141Y019739D01*
Y019689D01*
X034891Y021089D02*
X034841Y021139D01*
X034741D01*
X034691Y021089D01*
Y020889D01*
X034741Y020839D01*
X034841D01*
X034891Y020889D01*
X03519Y021139D02*
X03509Y021089D01*
X034991Y020989D01*
Y020889D01*
X035041Y020839D01*
X03514D01*
X03519Y020889D01*
Y020939D01*
X03514Y020989D01*
X034991D01*
X034891Y021489D02*
X034841Y021539D01*
X034741D01*
X034691Y021489D01*
Y021289D01*
X034741Y021239D01*
X034841D01*
X034891Y021289D01*
X03519Y021539D02*
X034991D01*
Y021389D01*
X03509Y021439D01*
X03514D01*
X03519Y021389D01*
Y021289D01*
X03514Y021239D01*
X035041D01*
X034991Y021289D01*
X034891Y021889D02*
X034841Y021939D01*
X034741D01*
X034691Y021889D01*
Y021689D01*
X034741Y021639D01*
X034841D01*
X034891Y021689D01*
X03514Y021639D02*
Y021939D01*
X034991Y021789D01*
X03519D01*
X034341Y023789D02*
X034291Y023839D01*
X034191D01*
X034141Y023789D01*
Y023589D01*
X034191Y023539D01*
X034291D01*
X034341Y023589D01*
X034441Y023789D02*
X034491Y023839D01*
X03459D01*
X03464Y023789D01*
Y023739D01*
X03459Y023689D01*
X034541D01*
X03459D01*
X03464Y023639D01*
Y023589D01*
X03459Y023539D01*
X034491D01*
X034441Y023589D01*
X034341Y023389D02*
X034291Y023439D01*
X034191D01*
X034141Y023389D01*
Y023189D01*
X034191Y023139D01*
X034291D01*
X034341Y023189D01*
X03464Y023139D02*
X034441D01*
X03464Y023339D01*
Y023389D01*
X03459Y023439D01*
X034491D01*
X034441Y023389D01*
X03028Y024349D02*
X030231Y024399D01*
X030131D01*
X030081Y024349D01*
Y024149D01*
X030131Y024099D01*
X030231D01*
X03028Y024149D01*
X03038Y024099D02*
X03048D01*
X03043D01*
Y024399D01*
X03038Y024349D01*
X014112Y007248D02*
X014062Y007298D01*
X013962D01*
X013912Y007248D01*
Y007048D01*
X013962Y006998D01*
X014062D01*
X014112Y007048D01*
X014212Y006998D02*
X014312D01*
X014262D01*
Y007298D01*
X014212Y007248D01*
X014462D02*
X014512Y007298D01*
X014612D01*
X014662Y007248D01*
Y007198D01*
X014612Y007148D01*
X014562D01*
X014612D01*
X014662Y007098D01*
Y007048D01*
X014612Y006998D01*
X014512D01*
X014462Y007048D01*
X006687Y008548D02*
Y008848D01*
X006837D01*
X006887Y008798D01*
Y008698D01*
X006837Y008648D01*
X006687D01*
X006787D02*
X006887Y008548D01*
X006987Y008798D02*
X007037Y008848D01*
X007137D01*
X007187Y008798D01*
Y008748D01*
X007137Y008698D01*
X007187Y008648D01*
Y008598D01*
X007137Y008548D01*
X007037D01*
X006987Y008598D01*
Y008648D01*
X007037Y008698D01*
X006987Y008748D01*
Y008798D01*
X007037Y008698D02*
X007137D01*
X007687Y005498D02*
Y005798D01*
X007837D01*
X007887Y005748D01*
Y005648D01*
X007837Y005598D01*
X007687D01*
X007787D02*
X007887Y005498D01*
X007987Y005798D02*
X008187D01*
Y005748D01*
X007987Y005548D01*
Y005498D01*
X007037D02*
Y005798D01*
X007187D01*
X007237Y005748D01*
Y005648D01*
X007187Y005598D01*
X007037D01*
X007137D02*
X007237Y005498D01*
X007537Y005798D02*
X007437Y005748D01*
X007337Y005648D01*
Y005548D01*
X007387Y005498D01*
X007487D01*
X007537Y005548D01*
Y005598D01*
X007487Y005648D01*
X007337D01*
X012157Y011408D02*
Y011708D01*
X012307D01*
X012357Y011658D01*
Y011558D01*
X012307Y011508D01*
X012157D01*
X012257D02*
X012357Y011408D01*
X012607D02*
Y011708D01*
X012457Y011558D01*
X012657D01*
X015287Y012098D02*
Y012398D01*
X015437D01*
X015487Y012348D01*
Y012248D01*
X015437Y012198D01*
X015287D01*
X015387D02*
X015487Y012098D01*
X015587Y012348D02*
X015637Y012398D01*
X015737D01*
X015787Y012348D01*
Y012298D01*
X015737Y012248D01*
X015687D01*
X015737D01*
X015787Y012198D01*
Y012148D01*
X015737Y012098D01*
X015637D01*
X015587Y012148D01*
X008537Y004698D02*
Y004998D01*
X008687D01*
X008737Y004948D01*
Y004848D01*
X008687Y004798D01*
X008537D01*
X008637D02*
X008737Y004698D01*
X009037D02*
X008837D01*
X009037Y004898D01*
Y004948D01*
X008987Y004998D01*
X008887D01*
X008837Y004948D01*
X013987Y005148D02*
Y005448D01*
X014137D01*
X014187Y005398D01*
Y005298D01*
X014137Y005248D01*
X013987D01*
X014087D02*
X014187Y005148D01*
X014287D02*
X014387D01*
X014337D01*
Y005448D01*
X014287Y005398D01*
X016487Y008898D02*
Y008598D01*
X016687D01*
X016787Y008848D02*
X016837Y008898D01*
X016937D01*
X016987Y008848D01*
Y008798D01*
X016937Y008748D01*
X016887D01*
X016937D01*
X016987Y008698D01*
Y008648D01*
X016937Y008598D01*
X016837D01*
X016787Y008648D01*
X016137Y010598D02*
Y010298D01*
X016337D01*
X016637D02*
X016437D01*
X016637Y010498D01*
Y010548D01*
X016587Y010598D01*
X016487D01*
X016437Y010548D01*
X016887Y010548D02*
Y010248D01*
X017087D01*
X017187D02*
X017287D01*
X017237D01*
Y010548D01*
X017187Y010498D01*
X011712Y011598D02*
X011662Y011648D01*
X011562D01*
X011512Y011598D01*
Y011398D01*
X011562Y011348D01*
X011662D01*
X011712Y011398D01*
X011812Y011348D02*
X011912D01*
X011862D01*
Y011648D01*
X011812Y011598D01*
X012062Y011648D02*
X012262D01*
Y011598D01*
X012062Y011398D01*
Y011348D01*
X008387Y013988D02*
X008337Y014038D01*
X008237D01*
X008187Y013988D01*
Y013788D01*
X008237Y013738D01*
X008337D01*
X008387Y013788D01*
X008487Y013738D02*
X008587D01*
X008537D01*
Y014038D01*
X008487Y013988D01*
X008937Y014038D02*
X008837Y013988D01*
X008737Y013888D01*
Y013788D01*
X008787Y013738D01*
X008887D01*
X008937Y013788D01*
Y013838D01*
X008887Y013888D01*
X008737D01*
X006107Y014728D02*
X006057Y014778D01*
X005957D01*
X005907Y014728D01*
Y014528D01*
X005957Y014478D01*
X006057D01*
X006107Y014528D01*
X006207Y014478D02*
X006307D01*
X006257D01*
Y014778D01*
X006207Y014728D01*
X006657Y014778D02*
X006457D01*
Y014628D01*
X006557Y014678D01*
X006607D01*
X006657Y014628D01*
Y014528D01*
X006607Y014478D01*
X006507D01*
X006457Y014528D01*
X007962Y008548D02*
X007912Y008598D01*
X007812D01*
X007762Y008548D01*
Y008348D01*
X007812Y008298D01*
X007912D01*
X007962Y008348D01*
X008062Y008298D02*
X008162D01*
X008112D01*
Y008598D01*
X008062Y008548D01*
X008462Y008298D02*
Y008598D01*
X008312Y008448D01*
X008512D01*
X014512Y005948D02*
X014462Y005998D01*
X014362D01*
X014312Y005948D01*
Y005748D01*
X014362Y005698D01*
X014462D01*
X014512Y005748D01*
X014612Y005698D02*
X014712D01*
X014662D01*
Y005998D01*
X014612Y005948D01*
X015062Y005698D02*
X014862D01*
X015062Y005898D01*
Y005948D01*
X015012Y005998D01*
X014912D01*
X014862Y005948D01*
X009562Y004748D02*
X009512Y004798D01*
X009412D01*
X009362Y004748D01*
Y004548D01*
X009412Y004498D01*
X009512D01*
X009562Y004548D01*
X009662Y004498D02*
X009762D01*
X009712D01*
Y004798D01*
X009662Y004748D01*
X009912Y004498D02*
X010012D01*
X009962D01*
Y004798D01*
X009912Y004748D01*
X014562Y012248D02*
X014512Y012298D01*
X014412D01*
X014362Y012248D01*
Y012048D01*
X014412Y011998D01*
X014512D01*
X014562Y012048D01*
X014662Y011998D02*
X014762D01*
X014712D01*
Y012298D01*
X014662Y012248D01*
X014912D02*
X014962Y012298D01*
X015062D01*
X015112Y012248D01*
Y012048D01*
X015062Y011998D01*
X014962D01*
X014912Y012048D01*
Y012248D01*
X007787Y011148D02*
X007737Y011198D01*
X007637D01*
X007587Y011148D01*
Y010948D01*
X007637Y010898D01*
X007737D01*
X007787Y010948D01*
X007887D02*
X007937Y010898D01*
X008037D01*
X008087Y010948D01*
Y011148D01*
X008037Y011198D01*
X007937D01*
X007887Y011148D01*
Y011098D01*
X007937Y011048D01*
X008087D01*
X015887Y007198D02*
X015837Y007248D01*
X015737D01*
X015687Y007198D01*
Y006998D01*
X015737Y006948D01*
X015837D01*
X015887Y006998D01*
X015987Y007198D02*
X016037Y007248D01*
X016137D01*
X016187Y007198D01*
Y007148D01*
X016137Y007098D01*
X016187Y007048D01*
Y006998D01*
X016137Y006948D01*
X016037D01*
X015987Y006998D01*
Y007048D01*
X016037Y007098D01*
X015987Y007148D01*
Y007198D01*
X016037Y007098D02*
X016137D01*
X016387Y007498D02*
X016337Y007548D01*
X016237D01*
X016187Y007498D01*
Y007298D01*
X016237Y007248D01*
X016337D01*
X016387Y007298D01*
X016487Y007548D02*
X016687D01*
Y007498D01*
X016487Y007298D01*
Y007248D01*
X018237Y008648D02*
X018187Y008698D01*
X018087D01*
X018037Y008648D01*
Y008448D01*
X018087Y008398D01*
X018187D01*
X018237Y008448D01*
X018537Y008698D02*
X018437Y008648D01*
X018337Y008548D01*
Y008448D01*
X018387Y008398D01*
X018487D01*
X018537Y008448D01*
Y008498D01*
X018487Y008548D01*
X018337D01*
X018237Y009048D02*
X018187Y009098D01*
X018087D01*
X018037Y009048D01*
Y008848D01*
X018087Y008798D01*
X018187D01*
X018237Y008848D01*
X018537Y009098D02*
X018337D01*
Y008948D01*
X018437Y008998D01*
X018487D01*
X018537Y008948D01*
Y008848D01*
X018487Y008798D01*
X018387D01*
X018337Y008848D01*
X018237Y009448D02*
X018187Y009498D01*
X018087D01*
X018037Y009448D01*
Y009248D01*
X018087Y009198D01*
X018187D01*
X018237Y009248D01*
X018487Y009198D02*
Y009498D01*
X018337Y009348D01*
X018537D01*
X017687Y011348D02*
X017637Y011398D01*
X017537D01*
X017487Y011348D01*
Y011148D01*
X017537Y011098D01*
X017637D01*
X017687Y011148D01*
X017787Y011348D02*
X017837Y011398D01*
X017937D01*
X017987Y011348D01*
Y011298D01*
X017937Y011248D01*
X017887D01*
X017937D01*
X017987Y011198D01*
Y011148D01*
X017937Y011098D01*
X017837D01*
X017787Y011148D01*
X017687Y010948D02*
X017637Y010998D01*
X017537D01*
X017487Y010948D01*
Y010748D01*
X017537Y010698D01*
X017637D01*
X017687Y010748D01*
X017987Y010698D02*
X017787D01*
X017987Y010898D01*
Y010948D01*
X017937Y010998D01*
X017837D01*
X017787Y010948D01*
X013627Y011908D02*
X013577Y011958D01*
X013477D01*
X013427Y011908D01*
Y011708D01*
X013477Y011658D01*
X013577D01*
X013627Y011708D01*
X013727Y011658D02*
X013827D01*
X013777D01*
Y011958D01*
X013727Y011908D01*
X006393Y023241D02*
Y02344D01*
X006493D01*
X006527Y023407D01*
Y023341D01*
X006493Y023307D01*
X006393D01*
X00646D02*
X006527Y023241D01*
X006593Y023407D02*
X006627Y02344D01*
X006693D01*
X006727Y023407D01*
Y023374D01*
X006693Y023341D01*
X006727Y023307D01*
Y023274D01*
X006693Y023241D01*
X006627D01*
X006593Y023274D01*
Y023307D01*
X006627Y023341D01*
X006593Y023374D01*
Y023407D01*
X006627Y023341D02*
X006693D01*
X008493Y021691D02*
Y02189D01*
X008593D01*
X008627Y021857D01*
Y021791D01*
X008593Y021757D01*
X008493D01*
X00856D02*
X008627Y021691D01*
X008693Y02189D02*
X008827D01*
Y021857D01*
X008693Y021724D01*
Y021691D01*
X007843Y021741D02*
Y021941D01*
X007943D01*
X007977Y021907D01*
Y021841D01*
X007943Y021807D01*
X007843D01*
X00791D02*
X007977Y021741D01*
X008177Y021941D02*
X00811Y021907D01*
X008043Y021841D01*
Y021774D01*
X008077Y021741D01*
X008143D01*
X008177Y021774D01*
Y021807D01*
X008143Y021841D01*
X008043D01*
X01303Y027451D02*
Y02765D01*
X01313D01*
X013163Y027617D01*
Y02755D01*
X01313Y027517D01*
X01303D01*
X013097D02*
X013163Y027451D01*
X01333D02*
Y02765D01*
X01323Y02755D01*
X013363D01*
X016393Y027091D02*
Y02729D01*
X016493D01*
X016527Y027257D01*
Y027191D01*
X016493Y027157D01*
X016393D01*
X01646D02*
X016527Y027091D01*
X016593Y027257D02*
X016627Y02729D01*
X016693D01*
X016727Y027257D01*
Y027224D01*
X016693Y027191D01*
X01666D01*
X016693D01*
X016727Y027157D01*
Y027124D01*
X016693Y027091D01*
X016627D01*
X016593Y027124D01*
X01328Y022261D02*
Y02246D01*
X01338D01*
X013413Y022427D01*
Y02236D01*
X01338Y022327D01*
X01328D01*
X013347D02*
X013413Y022261D01*
X01348D02*
X013547D01*
X013513D01*
Y02246D01*
X01348Y022427D01*
X00626Y021774D02*
Y021907D01*
X006227Y021941D01*
X00616D01*
X006127Y021907D01*
Y021774D01*
X00616Y021741D01*
X006227D01*
X006193Y021807D02*
X00626Y021741D01*
X006227D02*
X00626Y021774D01*
X006327Y021741D02*
X006393D01*
X00636D01*
Y021941D01*
X006327Y021907D01*
X017243Y024441D02*
Y024241D01*
X017377D01*
X017443Y024407D02*
X017477Y024441D01*
X017543D01*
X017577Y024407D01*
Y024374D01*
X017543Y024341D01*
X01751D01*
X017543D01*
X017577Y024307D01*
Y024274D01*
X017543Y024241D01*
X017477D01*
X017443Y024274D01*
X016993Y025991D02*
Y025791D01*
X017127D01*
X017327D02*
X017193D01*
X017327Y025924D01*
Y025957D01*
X017293Y025991D01*
X017227D01*
X017193Y025957D01*
X017527Y025991D02*
Y025791D01*
X01766D01*
X017727D02*
X017793D01*
X01776D01*
Y025991D01*
X017727Y025957D01*
X010893Y025907D02*
X01086Y02594D01*
X010793D01*
X01076Y025907D01*
Y025774D01*
X010793Y025741D01*
X01086D01*
X010893Y025774D01*
X01096Y025741D02*
X011027D01*
X010993D01*
Y02594D01*
X01096Y025907D01*
X011127Y02594D02*
X01126D01*
Y025907D01*
X011127Y025774D01*
Y025741D01*
X007893Y026257D02*
X00786Y026291D01*
X007793D01*
X00776Y026257D01*
Y026124D01*
X007793Y026091D01*
X00786D01*
X007893Y026124D01*
X00796Y026091D02*
X008027D01*
X007993D01*
Y026291D01*
X00796Y026257D01*
X00826Y026291D02*
X008193Y026257D01*
X008127Y026191D01*
Y026124D01*
X00816Y026091D01*
X008227D01*
X00826Y026124D01*
Y026157D01*
X008227Y026191D01*
X008127D01*
X014643Y024647D02*
X01461Y02468D01*
X014543D01*
X01451Y024647D01*
Y024514D01*
X014543Y024481D01*
X01461D01*
X014643Y024514D01*
X01471Y024481D02*
X014777D01*
X014743D01*
Y02468D01*
X01471Y024647D01*
X014976Y024481D02*
Y02468D01*
X014876Y024581D01*
X01501D01*
X004193Y026607D02*
X00416Y026641D01*
X004093D01*
X00406Y026607D01*
Y026474D01*
X004093Y026441D01*
X00416D01*
X004193Y026474D01*
X00426Y026441D02*
X004327D01*
X004293D01*
Y026641D01*
X00426Y026607D01*
X004427D02*
X00446Y026641D01*
X004527D01*
X00456Y026607D01*
Y026574D01*
X004527Y026541D01*
X004493D01*
X004527D01*
X00456Y026507D01*
Y026474D01*
X004527Y026441D01*
X00446D01*
X004427Y026474D01*
X008573Y024127D02*
X00854Y02416D01*
X008473D01*
X00844Y024127D01*
Y023994D01*
X008473Y023961D01*
X00854D01*
X008573Y023994D01*
X00864Y023961D02*
X008706D01*
X008673D01*
Y02416D01*
X00864Y024127D01*
X00894Y023961D02*
X008806D01*
X00894Y024094D01*
Y024127D01*
X008906Y02416D01*
X00884D01*
X008806Y024127D01*
X010227Y021807D02*
X010193Y021841D01*
X010127D01*
X010093Y021807D01*
Y021674D01*
X010127Y021641D01*
X010193D01*
X010227Y021674D01*
X010293Y021641D02*
X01036D01*
X010327D01*
Y021841D01*
X010293Y021807D01*
X01046Y021641D02*
X010527D01*
X010493D01*
Y021841D01*
X01046Y021807D01*
X015643Y027257D02*
X01561Y02729D01*
X015543D01*
X01551Y027257D01*
Y027124D01*
X015543Y027091D01*
X01561D01*
X015643Y027124D01*
X01571Y027091D02*
X015777D01*
X015743D01*
Y02729D01*
X01571Y027257D01*
X015877D02*
X01591Y02729D01*
X015977D01*
X01601Y027257D01*
Y027124D01*
X015977Y027091D01*
X01591D01*
X015877Y027124D01*
Y027257D01*
X007877Y025607D02*
X007843Y02564D01*
X007777D01*
X007743Y025607D01*
Y025474D01*
X007777Y025441D01*
X007843D01*
X007877Y025474D01*
X007943D02*
X007977Y025441D01*
X008043D01*
X008077Y025474D01*
Y025607D01*
X008043Y02564D01*
X007977D01*
X007943Y025607D01*
Y025574D01*
X007977Y025541D01*
X008077D01*
X016327Y022757D02*
X016293Y022791D01*
X016227D01*
X016193Y022757D01*
Y022624D01*
X016227Y022591D01*
X016293D01*
X016327Y022624D01*
X016393Y022757D02*
X016427Y022791D01*
X016493D01*
X016527Y022757D01*
Y022724D01*
X016493Y022691D01*
X016527Y022657D01*
Y022624D01*
X016493Y022591D01*
X016427D01*
X016393Y022624D01*
Y022657D01*
X016427Y022691D01*
X016393Y022724D01*
Y022757D01*
X016427Y022691D02*
X016493D01*
X016827Y022957D02*
X016793Y022991D01*
X016727D01*
X016693Y022957D01*
Y022824D01*
X016727Y022791D01*
X016793D01*
X016827Y022824D01*
X016893Y022991D02*
X017027D01*
Y022957D01*
X016893Y022824D01*
Y022791D01*
X018227Y023157D02*
X018193Y023191D01*
X018127D01*
X018093Y023157D01*
Y023024D01*
X018127Y022991D01*
X018193D01*
X018227Y023024D01*
X018427Y023191D02*
X01836Y023157D01*
X018293Y023091D01*
Y023024D01*
X018327Y022991D01*
X018393D01*
X018427Y023024D01*
Y023057D01*
X018393Y023091D01*
X018293D01*
X018227Y023457D02*
X018193Y023491D01*
X018127D01*
X018093Y023457D01*
Y023324D01*
X018127Y023291D01*
X018193D01*
X018227Y023324D01*
X018427Y023491D02*
X018293D01*
Y023391D01*
X01836Y023424D01*
X018393D01*
X018427Y023391D01*
Y023324D01*
X018393Y023291D01*
X018327D01*
X018293Y023324D01*
X018227Y023757D02*
X018193Y023791D01*
X018127D01*
X018093Y023757D01*
Y023624D01*
X018127Y023591D01*
X018193D01*
X018227Y023624D01*
X018393Y023591D02*
Y023791D01*
X018293Y023691D01*
X018427D01*
X018527Y026407D02*
X018493Y02644D01*
X018427D01*
X018393Y026407D01*
Y026274D01*
X018427Y026241D01*
X018493D01*
X018527Y026274D01*
X018593Y026407D02*
X018627Y02644D01*
X018693D01*
X018727Y026407D01*
Y026374D01*
X018693Y026341D01*
X01866D01*
X018693D01*
X018727Y026307D01*
Y026274D01*
X018693Y026241D01*
X018627D01*
X018593Y026274D01*
X018727Y025207D02*
X018693Y02524D01*
X018627D01*
X018593Y025207D01*
Y025074D01*
X018627Y025041D01*
X018693D01*
X018727Y025074D01*
X018927Y025041D02*
X018793D01*
X018927Y025174D01*
Y025207D01*
X018893Y02524D01*
X018827D01*
X018793Y025207D01*
X01411Y027057D02*
X014077Y02709D01*
X01401D01*
X013977Y027057D01*
Y026924D01*
X01401Y026891D01*
X014077D01*
X01411Y026924D01*
X014177Y026891D02*
X014243D01*
X01421D01*
Y02709D01*
X014177Y027057D01*
X035851Y008098D02*
Y007898D01*
X035751D01*
X035717Y007931D01*
Y007998D01*
X035751Y008031D01*
X035851D01*
X035784D02*
X035717Y008098D01*
X035651Y007931D02*
X035618Y007898D01*
X035551D01*
X035518Y007931D01*
Y007965D01*
X035551Y007998D01*
X035518Y008031D01*
Y008065D01*
X035551Y008098D01*
X035618D01*
X035651Y008065D01*
Y008031D01*
X035618Y007998D01*
X035651Y007965D01*
Y007931D01*
X035618Y007998D02*
X035551D01*
X033751Y009648D02*
Y009448D01*
X033651D01*
X033617Y009481D01*
Y009548D01*
X033651Y009581D01*
X033751D01*
X033684D02*
X033617Y009648D01*
X033551Y009448D02*
X033418D01*
Y009481D01*
X033551Y009615D01*
Y009648D01*
X034401Y009598D02*
Y009398D01*
X034301D01*
X034267Y009431D01*
Y009498D01*
X034301Y009531D01*
X034401D01*
X034334D02*
X034267Y009598D01*
X034068Y009398D02*
X034134Y009431D01*
X034201Y009498D01*
Y009565D01*
X034168Y009598D01*
X034101D01*
X034068Y009565D01*
Y009531D01*
X034101Y009498D01*
X034201D01*
X029214Y003888D02*
Y003688D01*
X029114D01*
X029081Y003721D01*
Y003788D01*
X029114Y003821D01*
X029214D01*
X029148D02*
X029081Y003888D01*
X028914D02*
Y003688D01*
X029014Y003788D01*
X028881D01*
X025851Y004248D02*
Y004048D01*
X025751D01*
X025717Y004081D01*
Y004148D01*
X025751Y004181D01*
X025851D01*
X025784D02*
X025717Y004248D01*
X025651Y004081D02*
X025618Y004048D01*
X025551D01*
X025518Y004081D01*
Y004115D01*
X025551Y004148D01*
X025584D01*
X025551D01*
X025518Y004181D01*
Y004215D01*
X025551Y004248D01*
X025618D01*
X025651Y004215D01*
X028964Y009078D02*
Y008878D01*
X028864D01*
X028831Y008911D01*
Y008978D01*
X028864Y009011D01*
X028964D01*
X028898D02*
X028831Y009078D01*
X028764D02*
X028698D01*
X028731D01*
Y008878D01*
X028764Y008911D01*
X035984Y009565D02*
Y009431D01*
X036017Y009398D01*
X036084D01*
X036117Y009431D01*
Y009565D01*
X036084Y009598D01*
X036017D01*
X036051Y009531D02*
X035984Y009598D01*
X036017D02*
X035984Y009565D01*
X035918Y009598D02*
X035851D01*
X035884D01*
Y009398D01*
X035918Y009431D01*
X025001Y006898D02*
Y007098D01*
X024867D01*
X024801Y006931D02*
X024768Y006898D01*
X024701D01*
X024668Y006931D01*
Y006965D01*
X024701Y006998D01*
X024734D01*
X024701D01*
X024668Y007031D01*
Y007065D01*
X024701Y007098D01*
X024768D01*
X024801Y007065D01*
X025251Y005348D02*
Y005548D01*
X025117D01*
X024918D02*
X025051D01*
X024918Y005415D01*
Y005381D01*
X024951Y005348D01*
X025018D01*
X025051Y005381D01*
X024717Y005348D02*
Y005548D01*
X024584D01*
X024518D02*
X024451D01*
X024484D01*
Y005348D01*
X024518Y005381D01*
X031351Y005431D02*
X031384Y005398D01*
X031451D01*
X031484Y005431D01*
Y005565D01*
X031451Y005598D01*
X031384D01*
X031351Y005565D01*
X031284Y005598D02*
X031218D01*
X031251D01*
Y005398D01*
X031284Y005431D01*
X031118Y005398D02*
X030984D01*
Y005431D01*
X031118Y005565D01*
Y005598D01*
X034351Y005081D02*
X034384Y005048D01*
X034451D01*
X034484Y005081D01*
Y005215D01*
X034451Y005248D01*
X034384D01*
X034351Y005215D01*
X034284Y005248D02*
X034218D01*
X034251D01*
Y005048D01*
X034284Y005081D01*
X033984Y005048D02*
X034051Y005081D01*
X034118Y005148D01*
Y005215D01*
X034084Y005248D01*
X034018D01*
X033984Y005215D01*
Y005181D01*
X034018Y005148D01*
X034118D01*
X027601Y006691D02*
X027634Y006658D01*
X027701D01*
X027734Y006691D01*
Y006825D01*
X027701Y006858D01*
X027634D01*
X027601Y006825D01*
X027534Y006858D02*
X027468D01*
X027501D01*
Y006658D01*
X027534Y006691D01*
X027268Y006858D02*
Y006658D01*
X027368Y006758D01*
X027234D01*
X038051Y004731D02*
X038084Y004698D01*
X038151D01*
X038184Y004731D01*
Y004865D01*
X038151Y004898D01*
X038084D01*
X038051Y004865D01*
X037984Y004898D02*
X037918D01*
X037951D01*
Y004698D01*
X037984Y004731D01*
X037818D02*
X037784Y004698D01*
X037718D01*
X037684Y004731D01*
Y004765D01*
X037718Y004798D01*
X037751D01*
X037718D01*
X037684Y004831D01*
Y004865D01*
X037718Y004898D01*
X037784D01*
X037818Y004865D01*
X033671Y007211D02*
X033704Y007178D01*
X033771D01*
X033804Y007211D01*
Y007345D01*
X033771Y007378D01*
X033704D01*
X033671Y007345D01*
X033604Y007378D02*
X033538D01*
X033571D01*
Y007178D01*
X033604Y007211D01*
X033304Y007378D02*
X033438D01*
X033304Y007245D01*
Y007211D01*
X033338Y007178D01*
X033404D01*
X033438Y007211D01*
X032017Y009531D02*
X032051Y009498D01*
X032117D01*
X032151Y009531D01*
Y009665D01*
X032117Y009698D01*
X032051D01*
X032017Y009665D01*
X031951Y009698D02*
X031884D01*
X031918D01*
Y009498D01*
X031951Y009531D01*
X031784Y009698D02*
X031718D01*
X031751D01*
Y009498D01*
X031784Y009531D01*
X026601Y004081D02*
X026634Y004048D01*
X026701D01*
X026734Y004081D01*
Y004215D01*
X026701Y004248D01*
X026634D01*
X026601Y004215D01*
X026534Y004248D02*
X026468D01*
X026501D01*
Y004048D01*
X026534Y004081D01*
X026368D02*
X026334Y004048D01*
X026268D01*
X026234Y004081D01*
Y004215D01*
X026268Y004248D01*
X026334D01*
X026368Y004215D01*
Y004081D01*
X034367Y005731D02*
X034401Y005698D01*
X034467D01*
X034501Y005731D01*
Y005865D01*
X034467Y005898D01*
X034401D01*
X034367Y005865D01*
X034301D02*
X034268Y005898D01*
X034201D01*
X034168Y005865D01*
Y005731D01*
X034201Y005698D01*
X034268D01*
X034301Y005731D01*
Y005765D01*
X034268Y005798D01*
X034168D01*
X025917Y008581D02*
X025951Y008548D01*
X026017D01*
X026051Y008581D01*
Y008715D01*
X026017Y008748D01*
X025951D01*
X025917Y008715D01*
X025851Y008581D02*
X025818Y008548D01*
X025751D01*
X025718Y008581D01*
Y008615D01*
X025751Y008648D01*
X025718Y008681D01*
Y008715D01*
X025751Y008748D01*
X025818D01*
X025851Y008715D01*
Y008681D01*
X025818Y008648D01*
X025851Y008615D01*
Y008581D01*
X025818Y008648D02*
X025751D01*
X025417Y008381D02*
X025451Y008348D01*
X025517D01*
X025551Y008381D01*
Y008515D01*
X025517Y008548D01*
X025451D01*
X025417Y008515D01*
X025351Y008348D02*
X025218D01*
Y008381D01*
X025351Y008515D01*
Y008548D01*
X024018Y008181D02*
X024051Y008148D01*
X024117D01*
X024151Y008181D01*
Y008315D01*
X024117Y008348D01*
X024051D01*
X024018Y008315D01*
X023818Y008148D02*
X023884Y008181D01*
X023951Y008248D01*
Y008315D01*
X023918Y008348D01*
X023851D01*
X023818Y008315D01*
Y008281D01*
X023851Y008248D01*
X023951D01*
X024018Y007881D02*
X024051Y007848D01*
X024117D01*
X024151Y007881D01*
Y008015D01*
X024117Y008048D01*
X024051D01*
X024018Y008015D01*
X023818Y007848D02*
X023951D01*
Y007948D01*
X023884Y007915D01*
X023851D01*
X023818Y007948D01*
Y008015D01*
X023851Y008048D01*
X023918D01*
X023951Y008015D01*
X024018Y007581D02*
X024051Y007548D01*
X024117D01*
X024151Y007581D01*
Y007715D01*
X024117Y007748D01*
X024051D01*
X024018Y007715D01*
X023851Y007748D02*
Y007548D01*
X023951Y007648D01*
X023818D01*
X023718Y004931D02*
X023751Y004898D01*
X023817D01*
X023851Y004931D01*
Y005065D01*
X023817Y005098D01*
X023751D01*
X023718Y005065D01*
X023651Y004931D02*
X023618Y004898D01*
X023551D01*
X023518Y004931D01*
Y004965D01*
X023551Y004998D01*
X023584D01*
X023551D01*
X023518Y005031D01*
Y005065D01*
X023551Y005098D01*
X023618D01*
X023651Y005065D01*
X023517Y006131D02*
X023551Y006098D01*
X023617D01*
X023651Y006131D01*
Y006265D01*
X023617Y006298D01*
X023551D01*
X023517Y006265D01*
X023318Y006298D02*
X023451D01*
X023318Y006165D01*
Y006131D01*
X023351Y006098D01*
X023418D01*
X023451Y006131D01*
X028134Y004281D02*
X028168Y004248D01*
X028234D01*
X028267Y004281D01*
Y004415D01*
X028234Y004448D01*
X028168D01*
X028134Y004415D01*
X028068Y004448D02*
X028001D01*
X028034D01*
Y004248D01*
X028068Y004281D01*
X015377Y020437D02*
X015343Y02047D01*
X015277D01*
X015243Y020437D01*
Y020303D01*
X015277Y02027D01*
X015343D01*
X015377Y020303D01*
X015443Y02047D02*
X015577D01*
Y020437D01*
X015443Y020303D01*
Y02027D01*
X014627Y015637D02*
X014593Y01567D01*
X014527D01*
X014493Y015637D01*
Y015503D01*
X014527Y01547D01*
X014593D01*
X014627Y015503D01*
X014693D02*
X014727Y01547D01*
X014793D01*
X014827Y015503D01*
Y015637D01*
X014793Y01567D01*
X014727D01*
X014693Y015637D01*
Y015603D01*
X014727Y01557D01*
X014827D01*
X01401Y020437D02*
X013977Y02047D01*
X01391D01*
X013877Y020437D01*
Y020303D01*
X01391Y02027D01*
X013977D01*
X01401Y020303D01*
X014077Y02027D02*
X014143D01*
X01411D01*
Y02047D01*
X014077Y020437D01*
X01641Y01952D02*
X016277D01*
Y01942D01*
X016343D01*
X016277D01*
Y01932D01*
X016477Y01952D02*
Y01932D01*
X01661D01*
X016677D02*
X016743D01*
X01671D01*
Y01952D01*
X016677Y019487D01*
X006393Y01712D02*
Y01732D01*
X006493D01*
X006527Y017287D01*
Y01722D01*
X006493Y017187D01*
X006393D01*
X00646D02*
X006527Y01712D01*
X006593Y017287D02*
X006627Y01732D01*
X006693D01*
X006727Y017287D01*
Y017253D01*
X006693Y01722D01*
X006727Y017187D01*
Y017153D01*
X006693Y01712D01*
X006627D01*
X006593Y017153D01*
Y017187D01*
X006627Y01722D01*
X006593Y017253D01*
Y017287D01*
X006627Y01722D02*
X006693D01*
X007943Y01532D02*
Y01552D01*
X008043D01*
X008077Y015487D01*
Y01542D01*
X008043Y015387D01*
X007943D01*
X00801D02*
X008077Y01532D01*
X008143Y01552D02*
X008277D01*
Y015487D01*
X008143Y015353D01*
Y01532D01*
X007443D02*
Y01552D01*
X007543D01*
X007577Y015487D01*
Y01542D01*
X007543Y015387D01*
X007443D01*
X00751D02*
X007577Y01532D01*
X007777Y01552D02*
X00771Y015487D01*
X007643Y01542D01*
Y015353D01*
X007677Y01532D01*
X007743D01*
X007777Y015353D01*
Y015387D01*
X007743Y01542D01*
X007643D01*
X01285Y02065D02*
Y02085D01*
X01295D01*
X012983Y020817D01*
Y02075D01*
X01295Y020717D01*
X01285D01*
X012917D02*
X012983Y02065D01*
X01315D02*
Y02085D01*
X01305Y02075D01*
X013183D01*
X016143Y02037D02*
Y02057D01*
X016243D01*
X016277Y020537D01*
Y02047D01*
X016243Y020437D01*
X016143D01*
X01621D02*
X016277Y02037D01*
X016343Y020537D02*
X016377Y02057D01*
X016443D01*
X016477Y020537D01*
Y020503D01*
X016443Y02047D01*
X01641D01*
X016443D01*
X016477Y020437D01*
Y020403D01*
X016443Y02037D01*
X016377D01*
X016343Y020403D01*
X014027Y01532D02*
Y01552D01*
X014127D01*
X01416Y015487D01*
Y01542D01*
X014127Y015387D01*
X014027D01*
X014093D02*
X01416Y01532D01*
X014227D02*
X014293D01*
X01426D01*
Y01552D01*
X014227Y015487D01*
X00631Y016803D02*
Y016937D01*
X006277Y01697D01*
X00621D01*
X006177Y016937D01*
Y016803D01*
X00621Y01677D01*
X006277D01*
X006243Y016837D02*
X00631Y01677D01*
X006277D02*
X00631Y016803D01*
X006377Y01677D02*
X006443D01*
X00641D01*
Y01697D01*
X006377Y016937D01*
X008893Y015487D02*
X00886Y01552D01*
X008793D01*
X00876Y015487D01*
Y015353D01*
X008793Y01532D01*
X00886D01*
X008893Y015353D01*
X00896Y01532D02*
X009027D01*
X008993D01*
Y01552D01*
X00896Y015487D01*
X009227Y01532D02*
Y01552D01*
X009127Y01542D01*
X00926D01*
X004873Y020907D02*
X00484Y02094D01*
X004773D01*
X00474Y020907D01*
Y020773D01*
X004773Y02074D01*
X00484D01*
X004873Y020773D01*
X00494Y02074D02*
X005006D01*
X004973D01*
Y02094D01*
X00494Y020907D01*
X005106D02*
X00514Y02094D01*
X005206D01*
X00524Y020907D01*
Y020873D01*
X005206Y02084D01*
X005173D01*
X005206D01*
X00524Y020807D01*
Y020773D01*
X005206Y02074D01*
X00514D01*
X005106Y020773D01*
X009027Y016287D02*
X008993Y01632D01*
X008927D01*
X008893Y016287D01*
Y016153D01*
X008927Y01612D01*
X008993D01*
X009027Y016153D01*
X009093Y01612D02*
X00916D01*
X009127D01*
Y01632D01*
X009093Y016287D01*
X00926Y01612D02*
X009327D01*
X009293D01*
Y01632D01*
X00926Y016287D01*
X014243Y016737D02*
X01421Y01677D01*
X014143D01*
X01411Y016737D01*
Y016603D01*
X014143Y01657D01*
X01421D01*
X014243Y016603D01*
X01431Y01657D02*
X014377D01*
X014343D01*
Y01677D01*
X01431Y016737D01*
X014477D02*
X01451Y01677D01*
X014577D01*
X01461Y016737D01*
Y016603D01*
X014577Y01657D01*
X01451D01*
X014477Y016603D01*
Y016737D01*
X011343Y020757D02*
X01131Y02079D01*
X011243D01*
X01121Y020757D01*
Y020623D01*
X011243Y02059D01*
X01131D01*
X011343Y020623D01*
X01141Y020757D02*
X011443Y02079D01*
X01151D01*
X011543Y020757D01*
Y020723D01*
X01151Y02069D01*
X011543Y020657D01*
Y020623D01*
X01151Y02059D01*
X011443D01*
X01141Y020623D01*
Y020657D01*
X011443Y02069D01*
X01141Y020723D01*
Y020757D01*
X011443Y02069D02*
X01151D01*
X005877Y019087D02*
X005843Y01912D01*
X005777D01*
X005743Y019087D01*
Y018953D01*
X005777Y01892D01*
X005843D01*
X005877Y018953D01*
X006077Y01912D02*
X00601Y019087D01*
X005943Y01902D01*
Y018953D01*
X005977Y01892D01*
X006043D01*
X006077Y018953D01*
Y018987D01*
X006043Y01902D01*
X005943D01*
X015977Y016287D02*
X015943Y01632D01*
X015877D01*
X015843Y016287D01*
Y016153D01*
X015877Y01612D01*
X015943D01*
X015977Y016153D01*
X016177Y01632D02*
X016043D01*
Y01622D01*
X01611Y016253D01*
X016143D01*
X016177Y01622D01*
Y016153D01*
X016143Y01612D01*
X016077D01*
X016043Y016153D01*
X016427Y016537D02*
X016393Y01657D01*
X016327D01*
X016293Y016537D01*
Y016403D01*
X016327Y01637D01*
X016393D01*
X016427Y016403D01*
X016593Y01637D02*
Y01657D01*
X016493Y01647D01*
X016627D01*
X016143Y018087D02*
X01611Y018053D01*
Y017987D01*
X016143Y017953D01*
X016277D01*
X01631Y017987D01*
Y018053D01*
X016277Y018087D01*
X016143Y018153D02*
X01611Y018187D01*
Y018253D01*
X016143Y018287D01*
X016177D01*
X01621Y018253D01*
Y01822D01*
Y018253D01*
X016243Y018287D01*
X016277D01*
X01631Y018253D01*
Y018187D01*
X016277Y018153D01*
X017043Y017337D02*
X01701Y017303D01*
Y017237D01*
X017043Y017203D01*
X017177D01*
X01721Y017237D01*
Y017303D01*
X017177Y017337D01*
X01721Y017537D02*
Y017403D01*
X017077Y017537D01*
X017043D01*
X01701Y017503D01*
Y017437D01*
X017043Y017403D01*
X026867Y010902D02*
X026901Y010869D01*
X026967D01*
X027001Y010902D01*
Y011035D01*
X026967Y011068D01*
X026901D01*
X026867Y011035D01*
X026801Y010869D02*
X026668D01*
Y010902D01*
X026801Y011035D01*
Y011068D01*
X027617Y015702D02*
X027651Y015669D01*
X027717D01*
X027751Y015702D01*
Y015835D01*
X027717Y015868D01*
X027651D01*
X027617Y015835D01*
X027551D02*
X027518Y015868D01*
X027451D01*
X027418Y015835D01*
Y015702D01*
X027451Y015669D01*
X027518D01*
X027551Y015702D01*
Y015735D01*
X027518Y015769D01*
X027418D01*
X028234Y010902D02*
X028268Y010869D01*
X028334D01*
X028367Y010902D01*
Y011035D01*
X028334Y011068D01*
X028268D01*
X028234Y011035D01*
X028168Y011068D02*
X028101D01*
X028134D01*
Y010869D01*
X028168Y010902D01*
X025834Y011819D02*
X025967D01*
Y011919D01*
X025901D01*
X025967D01*
Y012018D01*
X025768Y011819D02*
Y012018D01*
X025634D01*
X025568D02*
X025501D01*
X025534D01*
Y011819D01*
X025568Y011852D01*
X035851Y014218D02*
Y014019D01*
X035751D01*
X035717Y014052D01*
Y014119D01*
X035751Y014152D01*
X035851D01*
X035784D02*
X035717Y014218D01*
X035651Y014052D02*
X035618Y014019D01*
X035551D01*
X035518Y014052D01*
Y014085D01*
X035551Y014119D01*
X035518Y014152D01*
Y014185D01*
X035551Y014218D01*
X035618D01*
X035651Y014185D01*
Y014152D01*
X035618Y014119D01*
X035651Y014085D01*
Y014052D01*
X035618Y014119D02*
X035551D01*
X034301Y016018D02*
Y015819D01*
X034201D01*
X034167Y015852D01*
Y015919D01*
X034201Y015952D01*
X034301D01*
X034234D02*
X034167Y016018D01*
X034101Y015819D02*
X033968D01*
Y015852D01*
X034101Y015985D01*
Y016018D01*
X034801D02*
Y015819D01*
X034701D01*
X034667Y015852D01*
Y015919D01*
X034701Y015952D01*
X034801D01*
X034734D02*
X034667Y016018D01*
X034468Y015819D02*
X034534Y015852D01*
X034601Y015919D01*
Y015985D01*
X034568Y016018D01*
X034501D01*
X034468Y015985D01*
Y015952D01*
X034501Y015919D01*
X034601D01*
X029394Y010689D02*
Y010489D01*
X029294D01*
X029261Y010522D01*
Y010589D01*
X029294Y010622D01*
X029394D01*
X029328D02*
X029261Y010689D01*
X029094D02*
Y010489D01*
X029194Y010589D01*
X029061D01*
X026101Y010968D02*
Y010769D01*
X026001D01*
X025968Y010802D01*
Y010869D01*
X026001Y010902D01*
X026101D01*
X026034D02*
X025968Y010968D01*
X025901Y010802D02*
X025868Y010769D01*
X025801D01*
X025768Y010802D01*
Y010835D01*
X025801Y010869D01*
X025834D01*
X025801D01*
X025768Y010902D01*
Y010935D01*
X025801Y010968D01*
X025868D01*
X025901Y010935D01*
X028217Y016018D02*
Y015819D01*
X028117D01*
X028084Y015852D01*
Y015919D01*
X028117Y015952D01*
X028217D01*
X028151D02*
X028084Y016018D01*
X028018D02*
X027951D01*
X027984D01*
Y015819D01*
X028018Y015852D01*
X035934Y014535D02*
Y014402D01*
X035968Y014369D01*
X036034D01*
X036067Y014402D01*
Y014535D01*
X036034Y014568D01*
X035968D01*
X036001Y014502D02*
X035934Y014568D01*
X035968D02*
X035934Y014535D01*
X035868Y014568D02*
X035801D01*
X035834D01*
Y014369D01*
X035868Y014402D01*
X033351Y015852D02*
X033384Y015819D01*
X033451D01*
X033484Y015852D01*
Y015985D01*
X033451Y016018D01*
X033384D01*
X033351Y015985D01*
X033284Y016018D02*
X033218D01*
X033251D01*
Y015819D01*
X033284Y015852D01*
X033018Y016018D02*
Y015819D01*
X033118Y015919D01*
X032984D01*
X037371Y010432D02*
X037404Y010399D01*
X037471D01*
X037504Y010432D01*
Y010565D01*
X037471Y010599D01*
X037404D01*
X037371Y010565D01*
X037304Y010599D02*
X037238D01*
X037271D01*
Y010399D01*
X037304Y010432D01*
X037138D02*
X037104Y010399D01*
X037038D01*
X037004Y010432D01*
Y010465D01*
X037038Y010499D01*
X037071D01*
X037038D01*
X037004Y010532D01*
Y010565D01*
X037038Y010599D01*
X037104D01*
X037138Y010565D01*
X033217Y015052D02*
X033251Y015019D01*
X033317D01*
X033351Y015052D01*
Y015185D01*
X033317Y015218D01*
X033251D01*
X033217Y015185D01*
X033151Y015218D02*
X033084D01*
X033118D01*
Y015019D01*
X033151Y015052D01*
X032984Y015218D02*
X032918D01*
X032951D01*
Y015019D01*
X032984Y015052D01*
X028001Y014602D02*
X028034Y014569D01*
X028101D01*
X028134Y014602D01*
Y014735D01*
X028101Y014768D01*
X028034D01*
X028001Y014735D01*
X027934Y014768D02*
X027868D01*
X027901D01*
Y014569D01*
X027934Y014602D01*
X027768D02*
X027734Y014569D01*
X027668D01*
X027634Y014602D01*
Y014735D01*
X027668Y014768D01*
X027734D01*
X027768Y014735D01*
Y014602D01*
X030901Y010582D02*
X030934Y010549D01*
X031001D01*
X031034Y010582D01*
Y010715D01*
X031001Y010749D01*
X030934D01*
X030901Y010715D01*
X030834Y010582D02*
X030801Y010549D01*
X030734D01*
X030701Y010582D01*
Y010615D01*
X030734Y010649D01*
X030701Y010682D01*
Y010715D01*
X030734Y010749D01*
X030801D01*
X030834Y010715D01*
Y010682D01*
X030801Y010649D01*
X030834Y010615D01*
Y010582D01*
X030801Y010649D02*
X030734D01*
X036367Y012252D02*
X036401Y012219D01*
X036467D01*
X036501Y012252D01*
Y012385D01*
X036467Y012418D01*
X036401D01*
X036367Y012385D01*
X036168Y012219D02*
X036234Y012252D01*
X036301Y012319D01*
Y012385D01*
X036268Y012418D01*
X036201D01*
X036168Y012385D01*
Y012352D01*
X036201Y012319D01*
X036301D01*
X026267Y015052D02*
X026301Y015019D01*
X026367D01*
X026401Y015052D01*
Y015185D01*
X026367Y015218D01*
X026301D01*
X026267Y015185D01*
X026068Y015019D02*
X026201D01*
Y015119D01*
X026134Y015085D01*
X026101D01*
X026068Y015119D01*
Y015185D01*
X026101Y015218D01*
X026168D01*
X026201Y015185D01*
X025817Y014802D02*
X025851Y014769D01*
X025917D01*
X025951Y014802D01*
Y014935D01*
X025917Y014968D01*
X025851D01*
X025817Y014935D01*
X025651Y014968D02*
Y014769D01*
X025751Y014869D01*
X025618D01*
X026101Y013252D02*
X026134Y013285D01*
Y013352D01*
X026101Y013385D01*
X025968D01*
X025934Y013352D01*
Y013285D01*
X025968Y013252D01*
X026101Y013185D02*
X026134Y013152D01*
Y013085D01*
X026101Y013052D01*
X026068D01*
X026034Y013085D01*
Y013119D01*
Y013085D01*
X026001Y013052D01*
X025968D01*
X025934Y013085D01*
Y013152D01*
X025968Y013185D01*
X025201Y014002D02*
X025234Y014035D01*
Y014102D01*
X025201Y014135D01*
X025068D01*
X025034Y014102D01*
Y014035D01*
X025068Y014002D01*
X025034Y013802D02*
Y013935D01*
X025168Y013802D01*
X025201D01*
X025234Y013835D01*
Y013902D01*
X025201Y013935D01*
D78*
X023166Y026379D02*
D03*
D79*
X022704Y026372D02*
D03*
D80*
X006513Y013938D02*
D03*
D81*
X006051Y013931D02*
D03*
D82*
X016926Y019353D02*
G03*
X016926Y019353I-00002J0D01*
G01*
X025318Y011985D02*
G03*
X025318Y011985I00002J0D01*
G01*
M02*
