G04*
G04 #@! TF.GenerationSoftware,Altium Limited,Altium Designer,22.10.1 (41)*
G04*
G04 Layer_Color=16711935*
%FSTAX24Y24*%
%MOIN*%
G70*
G04*
G04 #@! TF.SameCoordinates,A34DC46A-7450-461F-AC4F-9E147ECCBACE*
G04*
G04*
G04 #@! TF.FilePolarity,Positive*
G04*
G01*
G75*
%ADD85C,0.0004*%
D85*
X002548Y002659D02*
X03995D01*
X002548Y02825D02*
X03995D01*
Y002659D02*
Y02825D01*
X002548Y002659D02*
Y02825D01*
X020591Y016378D02*
X038307D01*
X020591Y027402D02*
X038307D01*
Y016378D02*
Y027402D01*
X020591Y016378D02*
Y027402D01*
X003937Y003937D02*
X021654D01*
X003937Y014961D02*
X021654D01*
Y003937D02*
Y014961D01*
X003937Y003937D02*
Y014961D01*
X020472Y021299D02*
Y027402D01*
X003937Y021299D02*
X020472D01*
X003937D02*
Y027402D01*
X020472D01*
X021772Y010039D02*
Y003937D01*
X038307Y010039D02*
X021772D01*
X038307D02*
Y003937D01*
X021772D01*
X003937Y021181D02*
X020472D01*
Y015079D02*
Y021181D01*
X003937Y015079D02*
X020472D01*
X003937D02*
Y021181D01*
X038307Y010157D02*
X021772D01*
Y01626D02*
Y010157D01*
X038307Y01626D02*
X021772D01*
X038307D02*
Y010157D01*
M02*
