G04*
G04 #@! TF.GenerationSoftware,Altium Limited,Altium Designer,22.10.1 (41)*
G04*
G04 Layer_Color=128*
%FSTAX24Y24*%
%MOIN*%
G70*
G04*
G04 #@! TF.SameCoordinates,68DEA821-BA8F-46B5-960C-AC53CEFB18E0*
G04*
G04*
G04 #@! TF.FilePolarity,Positive*
G04*
G01*
G75*
%ADD86C,0.0020*%
D86*
X02106Y010301D02*
X021808D01*
X021434Y009927D02*
Y010675D01*
X02106Y008529D02*
X021808D01*
X021434Y008155D02*
Y008903D01*
X025994Y011887D02*
X026387D01*
X026191Y01169D02*
Y012084D01*
X025994Y012887D02*
X026387D01*
X026191Y01269D02*
Y013084D01*
X026994Y011887D02*
X027387D01*
X027191Y01169D02*
Y012084D01*
X026994Y012887D02*
X027387D01*
X027191Y01269D02*
Y013084D01*
X021731Y009437D02*
X021851D01*
X021791Y009377D02*
Y009497D01*
X022081Y007387D02*
X022201D01*
X022141Y007327D02*
Y007447D01*
X021481Y007387D02*
X021601D01*
X021541Y007327D02*
Y007447D01*
X033431Y013887D02*
X033551D01*
X033491Y013827D02*
Y013947D01*
X033431Y012927D02*
X033551D01*
X033491Y012867D02*
Y012987D01*
X033431Y011967D02*
X033551D01*
X033491Y011907D02*
Y012027D01*
X033431Y007167D02*
X033551D01*
X033491Y007107D02*
Y007227D01*
X033431Y006207D02*
X033551D01*
X033491Y006147D02*
Y006267D01*
X033431Y005247D02*
X033551D01*
X033491Y005187D02*
Y005307D01*
X033431Y004287D02*
X033551D01*
X033491Y004227D02*
Y004347D01*
X032951Y013887D02*
X033071D01*
X033011Y013827D02*
Y013947D01*
X033191Y013407D02*
X033311D01*
X033251Y013347D02*
Y013467D01*
X032951Y012927D02*
X033071D01*
X033011Y012867D02*
Y012987D01*
X033191Y012447D02*
X033311D01*
X033251Y012387D02*
Y012507D01*
X032951Y011967D02*
X033071D01*
X033011Y011907D02*
Y012027D01*
X033191Y007647D02*
X033311D01*
X033251Y007587D02*
Y007707D01*
X032951Y007167D02*
X033071D01*
X033011Y007107D02*
Y007227D01*
X033191Y006687D02*
X033311D01*
X033251Y006627D02*
Y006747D01*
X032951Y006207D02*
X033071D01*
X033011Y006147D02*
Y006267D01*
X033191Y005727D02*
X033311D01*
X033251Y005667D02*
Y005787D01*
X032951Y005247D02*
X033071D01*
X033011Y005187D02*
Y005307D01*
X033191Y004767D02*
X033311D01*
X033251Y004707D02*
Y004827D01*
X032951Y004287D02*
X033071D01*
X033011Y004227D02*
Y004347D01*
X032471Y013887D02*
X032591D01*
X032531Y013827D02*
Y013947D01*
X032711Y013407D02*
X032831D01*
X032771Y013347D02*
Y013467D01*
X032471Y012927D02*
X032591D01*
X032531Y012867D02*
Y012987D01*
X032711Y012447D02*
X032831D01*
X032771Y012387D02*
Y012507D01*
X032471Y011967D02*
X032591D01*
X032531Y011907D02*
Y012027D01*
X032471Y007167D02*
X032591D01*
X032531Y007107D02*
Y007227D01*
X032711Y006687D02*
X032831D01*
X032771Y006627D02*
Y006747D01*
X032471Y006207D02*
X032591D01*
X032531Y006147D02*
Y006267D01*
X032711Y005727D02*
X032831D01*
X032771Y005667D02*
Y005787D01*
X032471Y005247D02*
X032591D01*
X032531Y005187D02*
Y005307D01*
X032711Y004767D02*
X032831D01*
X032771Y004707D02*
Y004827D01*
X032471Y004287D02*
X032591D01*
X032531Y004227D02*
Y004347D01*
X031991Y013887D02*
X032111D01*
X032051Y013827D02*
Y013947D01*
X032231Y013407D02*
X032351D01*
X032291Y013347D02*
Y013467D01*
X031991Y012927D02*
X032111D01*
X032051Y012867D02*
Y012987D01*
X032231Y012447D02*
X032351D01*
X032291Y012387D02*
Y012507D01*
X032231Y011487D02*
X032351D01*
X032291Y011427D02*
Y011547D01*
X032231Y006687D02*
X032351D01*
X032291Y006627D02*
Y006747D01*
X031991Y006207D02*
X032111D01*
X032051Y006147D02*
Y006267D01*
X032231Y005727D02*
X032351D01*
X032291Y005667D02*
Y005787D01*
X031991Y005247D02*
X032111D01*
X032051Y005187D02*
Y005307D01*
X032231Y004767D02*
X032351D01*
X032291Y004707D02*
Y004827D01*
X031991Y004287D02*
X032111D01*
X032051Y004227D02*
Y004347D01*
X031511Y013887D02*
X031631D01*
X031571Y013827D02*
Y013947D01*
X031751Y013407D02*
X031871D01*
X031811Y013347D02*
Y013467D01*
X031511Y012927D02*
X031631D01*
X031571Y012867D02*
Y012987D01*
X031751Y006687D02*
X031871D01*
X031811Y006627D02*
Y006747D01*
X031511Y006207D02*
X031631D01*
X031571Y006147D02*
Y006267D01*
X031751Y005727D02*
X031871D01*
X031811Y005667D02*
Y005787D01*
X031511Y005247D02*
X031631D01*
X031571Y005187D02*
Y005307D01*
X031751Y004767D02*
X031871D01*
X031811Y004707D02*
Y004827D01*
X031511Y004287D02*
X031631D01*
X031571Y004227D02*
Y004347D01*
X031031Y013887D02*
X031151D01*
X031091Y013827D02*
Y013947D01*
X031271Y013407D02*
X031391D01*
X031331Y013347D02*
Y013467D01*
X031031Y012927D02*
X031151D01*
X031091Y012867D02*
Y012987D01*
X031031Y006207D02*
X031151D01*
X031091Y006147D02*
Y006267D01*
X031271Y005727D02*
X031391D01*
X031331Y005667D02*
Y005787D01*
X031031Y005247D02*
X031151D01*
X031091Y005187D02*
Y005307D01*
X031271Y004767D02*
X031391D01*
X031331Y004707D02*
Y004827D01*
X031031Y004287D02*
X031151D01*
X031091Y004227D02*
Y004347D01*
X030551Y013887D02*
X030671D01*
X030611Y013827D02*
Y013947D01*
X030791Y013407D02*
X030911D01*
X030851Y013347D02*
Y013467D01*
X030551Y012927D02*
X030671D01*
X030611Y012867D02*
Y012987D01*
X030791Y005727D02*
X030911D01*
X030851Y005667D02*
Y005787D01*
X030551Y005247D02*
X030671D01*
X030611Y005187D02*
Y005307D01*
X030791Y004767D02*
X030911D01*
X030851Y004707D02*
Y004827D01*
X030551Y004287D02*
X030671D01*
X030611Y004227D02*
Y004347D01*
X030071Y013887D02*
X030191D01*
X030131Y013827D02*
Y013947D01*
X030311Y013407D02*
X030431D01*
X030371Y013347D02*
Y013467D01*
X030071Y012927D02*
X030191D01*
X030131Y012867D02*
Y012987D01*
X030311Y005727D02*
X030431D01*
X030371Y005667D02*
Y005787D01*
X030071Y005247D02*
X030191D01*
X030131Y005187D02*
Y005307D01*
X030311Y004767D02*
X030431D01*
X030371Y004707D02*
Y004827D01*
X030071Y004287D02*
X030191D01*
X030131Y004227D02*
Y004347D01*
X029591Y013887D02*
X029711D01*
X029651Y013827D02*
Y013947D01*
X029831Y013407D02*
X029951D01*
X029891Y013347D02*
Y013467D01*
X029591Y012927D02*
X029711D01*
X029651Y012867D02*
Y012987D01*
X029591Y005247D02*
X029711D01*
X029651Y005187D02*
Y005307D01*
X029831Y004767D02*
X029951D01*
X029891Y004707D02*
Y004827D01*
X029591Y004287D02*
X029711D01*
X029651Y004227D02*
Y004347D01*
X029111Y013887D02*
X029231D01*
X029171Y013827D02*
Y013947D01*
X029351Y013407D02*
X029471D01*
X029411Y013347D02*
Y013467D01*
X029111Y012927D02*
X029231D01*
X029171Y012867D02*
Y012987D01*
X029351Y004767D02*
X029471D01*
X029411Y004707D02*
Y004827D01*
X029111Y004287D02*
X029231D01*
X029171Y004227D02*
Y004347D01*
X028631Y013887D02*
X028751D01*
X028691Y013827D02*
Y013947D01*
X028871Y013407D02*
X028991D01*
X028931Y013347D02*
Y013467D01*
X028631Y012927D02*
X028751D01*
X028691Y012867D02*
Y012987D01*
X028631Y004287D02*
X028751D01*
X028691Y004227D02*
Y004347D01*
X028151Y013887D02*
X028271D01*
X028211Y013827D02*
Y013947D01*
X028391Y013407D02*
X028511D01*
X028451Y013347D02*
Y013467D01*
X028391Y004767D02*
X028511D01*
X028451Y004707D02*
Y004827D01*
X028151Y004287D02*
X028271D01*
X028211Y004227D02*
Y004347D01*
X027671Y005247D02*
X027791D01*
X027731Y005187D02*
Y005307D01*
X027911Y004767D02*
X028031D01*
X027971Y004707D02*
Y004827D01*
X027671Y004287D02*
X027791D01*
X027731Y004227D02*
Y004347D01*
X027431Y008607D02*
X027551D01*
X027491Y008547D02*
Y008667D01*
X027431Y004767D02*
X027551D01*
X027491Y004707D02*
Y004827D01*
X027191Y004287D02*
X027311D01*
X027251Y004227D02*
Y004347D01*
X026951Y008607D02*
X027071D01*
X027011Y008547D02*
Y008667D01*
X026711Y004287D02*
X026831D01*
X026771Y004227D02*
Y004347D01*
X026231Y013887D02*
X026351D01*
X026291Y013827D02*
Y013947D01*
X026471Y008607D02*
X026591D01*
X026531Y008547D02*
Y008667D01*
X026231Y004287D02*
X026351D01*
X026291Y004227D02*
Y004347D01*
X025751Y013887D02*
X025871D01*
X025811Y013827D02*
Y013947D01*
X025991Y007647D02*
X026111D01*
X026051Y007587D02*
Y007707D01*
X025751Y004287D02*
X025871D01*
X025811Y004227D02*
Y004347D01*
X025271Y013887D02*
X025391D01*
X025331Y013827D02*
Y013947D01*
X025511Y007647D02*
X025631D01*
X025571Y007587D02*
Y007707D01*
X025271Y004287D02*
X025391D01*
X025331Y004227D02*
Y004347D01*
X024791Y004287D02*
X024911D01*
X024851Y004227D02*
Y004347D01*
X024551Y004767D02*
X024671D01*
X024611Y004707D02*
Y004827D01*
X024311Y004287D02*
X024431D01*
X024371Y004227D02*
Y004347D01*
X023831Y004287D02*
X023951D01*
X023891Y004227D02*
Y004347D01*
X023351Y013887D02*
X023471D01*
X023411Y013827D02*
Y013947D01*
X023351Y004287D02*
X023471D01*
X023411Y004227D02*
Y004347D01*
X022871Y004287D02*
X022991D01*
X022931Y004227D02*
Y004347D01*
X022391Y005247D02*
X022511D01*
X022451Y005187D02*
Y005307D01*
X022631Y004767D02*
X022751D01*
X022691Y004707D02*
Y004827D01*
X022391Y004287D02*
X022511D01*
X022451Y004227D02*
Y004347D01*
X022151Y005727D02*
X022271D01*
X022211Y005667D02*
Y005787D01*
X021911Y005247D02*
X022031D01*
X021971Y005187D02*
Y005307D01*
X022151Y004767D02*
X022271D01*
X022211Y004707D02*
Y004827D01*
X021911Y004287D02*
X022031D01*
X021971Y004227D02*
Y004347D01*
X021671Y011487D02*
X021791D01*
X021731Y011427D02*
Y011547D01*
X021431Y006207D02*
X021551D01*
X021491Y006147D02*
Y006267D01*
X021671Y005727D02*
X021791D01*
X021731Y005667D02*
Y005787D01*
X021431Y005247D02*
X021551D01*
X021491Y005187D02*
Y005307D01*
X021671Y004767D02*
X021791D01*
X021731Y004707D02*
Y004827D01*
X021431Y004287D02*
X021551D01*
X021491Y004227D02*
Y004347D01*
X020951Y012927D02*
X021071D01*
X021011Y012867D02*
Y012987D01*
X021191Y012447D02*
X021311D01*
X021251Y012387D02*
Y012507D01*
X020951Y006207D02*
X021071D01*
X021011Y006147D02*
Y006267D01*
X021191Y005727D02*
X021311D01*
X021251Y005667D02*
Y005787D01*
X020951Y005247D02*
X021071D01*
X021011Y005187D02*
Y005307D01*
X021191Y004767D02*
X021311D01*
X021251Y004707D02*
Y004827D01*
X020951Y004287D02*
X021071D01*
X021011Y004227D02*
Y004347D01*
X033631Y008287D02*
X033751D01*
X033691Y008227D02*
Y008347D01*
X023331Y011587D02*
X023451D01*
X023391Y011527D02*
Y011647D01*
X029131Y010887D02*
X029251D01*
X029191Y010827D02*
Y010947D01*
X029681Y007137D02*
X029801D01*
X029741Y007077D02*
Y007197D01*
X025031Y014587D02*
X025151D01*
X025091Y014527D02*
Y014647D01*
X025781Y014587D02*
X025901D01*
X025841Y014527D02*
Y014647D01*
X033631Y007637D02*
X033751D01*
X033691Y007577D02*
Y007697D01*
X033631Y004787D02*
X033751D01*
X033691Y004727D02*
Y004847D01*
X033631Y005737D02*
X033751D01*
X033691Y005677D02*
Y005797D01*
X033631Y006687D02*
X033751D01*
X033691Y006627D02*
Y006747D01*
X024731Y009787D02*
X024851D01*
X024791Y009727D02*
Y009847D01*
X024531Y009087D02*
X024651D01*
X024591Y009027D02*
Y009147D01*
X024331Y009787D02*
X024451D01*
X024391Y009727D02*
Y009847D01*
X025031Y009637D02*
X025151D01*
X025091Y009577D02*
Y009697D01*
X032931Y008287D02*
X033051D01*
X032991Y008227D02*
Y008347D01*
X033631Y008937D02*
X033751D01*
X033691Y008877D02*
Y008997D01*
X033631Y009587D02*
X033751D01*
X033691Y009527D02*
Y009647D01*
X024881Y010787D02*
X025001D01*
X024941Y010727D02*
Y010847D01*
X023231Y004987D02*
X023351D01*
X023291Y004927D02*
Y005047D01*
X023731Y004587D02*
X023851D01*
X023791Y004527D02*
Y004647D01*
X021281Y009437D02*
X021401D01*
X021341Y009377D02*
Y009497D01*
X020831Y013537D02*
X020951D01*
X020891Y013477D02*
Y013597D01*
X020831Y014037D02*
X020951D01*
X020891Y013977D02*
Y014097D01*
X020831Y014587D02*
X020951D01*
X020891Y014527D02*
Y014647D01*
X021381Y014687D02*
X021501D01*
X021441Y014627D02*
Y014747D01*
X022131Y014687D02*
X022251D01*
X022191Y014627D02*
Y014747D01*
X023381Y014687D02*
X023501D01*
X023441Y014627D02*
Y014747D01*
X024081Y014687D02*
X024201D01*
X024141Y014627D02*
Y014747D01*
X026431Y014587D02*
X026551D01*
X026491Y014527D02*
Y014647D01*
X027031Y014587D02*
X027151D01*
X027091Y014527D02*
Y014647D01*
X027031Y013887D02*
X027151D01*
X027091Y013827D02*
Y013947D01*
X027581Y013887D02*
X027701D01*
X027641Y013827D02*
Y013947D01*
X027831Y014587D02*
X027951D01*
X027891Y014527D02*
Y014647D01*
X028531Y014587D02*
X028651D01*
X028591Y014527D02*
Y014647D01*
X029431Y014587D02*
X029551D01*
X029491Y014527D02*
Y014647D01*
X030331Y014587D02*
X030451D01*
X030391Y014527D02*
Y014647D01*
X031181Y014587D02*
X031301D01*
X031241Y014527D02*
Y014647D01*
X032031Y014587D02*
X032151D01*
X032091Y014527D02*
Y014647D01*
X032781Y014587D02*
X032901D01*
X032841Y014527D02*
Y014647D01*
X033431Y014587D02*
X033551D01*
X033491Y014527D02*
Y014647D01*
X032231Y008287D02*
X032351D01*
X032291Y008227D02*
Y008347D01*
X032331Y007637D02*
X032451D01*
X032391Y007577D02*
Y007697D01*
X031881Y007187D02*
X032001D01*
X031941Y007127D02*
Y007247D01*
X028881Y004787D02*
X029001D01*
X028941Y004727D02*
Y004847D01*
X028981Y005287D02*
X029101D01*
X029041Y005227D02*
Y005347D01*
X029431Y005737D02*
X029551D01*
X029491Y005677D02*
Y005797D01*
X030481Y006737D02*
X030601D01*
X030541Y006677D02*
Y006797D01*
X031081Y006687D02*
X031201D01*
X031141Y006627D02*
Y006747D01*
X031731Y010987D02*
X031851D01*
X031791Y010927D02*
Y011047D01*
X032231Y010987D02*
X032351D01*
X032291Y010927D02*
Y011047D01*
X033481Y010987D02*
X033601D01*
X033541Y010927D02*
Y011047D01*
X033431Y011437D02*
X033551D01*
X033491Y011377D02*
Y011497D01*
X031681Y011537D02*
X031801D01*
X031741Y011477D02*
Y011597D01*
X031681Y012437D02*
X031801D01*
X031741Y012377D02*
Y012497D01*
X031831Y011987D02*
X031951D01*
X031891Y011927D02*
Y012047D01*
X033095Y009705D02*
X033215D01*
X033155Y009645D02*
Y009765D01*
X033389Y009766D02*
X033509D01*
X033449Y009706D02*
Y009826D01*
X033381Y010437D02*
X033501D01*
X033441Y010377D02*
Y010497D01*
X032831Y011587D02*
X032951D01*
X032891Y011527D02*
Y011647D01*
X028131Y006286D02*
X028251D01*
X028191Y006226D02*
Y006346D01*
X02858Y010037D02*
X0287D01*
X02864Y009977D02*
Y010097D01*
X031381Y008837D02*
X031501D01*
X031441Y008777D02*
Y008897D01*
X031481Y009337D02*
X031601D01*
X031541Y009277D02*
Y009397D01*
X031281Y010937D02*
X031401D01*
X031341Y010877D02*
Y010997D01*
X031031Y010937D02*
X031151D01*
X031091Y010877D02*
Y010997D01*
X030031Y011637D02*
X030151D01*
X030091Y011577D02*
Y011697D01*
X030031Y011387D02*
X030151D01*
X030091Y011327D02*
Y011447D01*
X028881Y008237D02*
X029001D01*
X028941Y008177D02*
Y008297D01*
X028831Y007887D02*
X028951D01*
X028891Y007827D02*
Y007947D01*
X028681Y008087D02*
X028801D01*
X028741Y008027D02*
Y008147D01*
X027831Y011037D02*
X027951D01*
X027891Y010977D02*
Y011097D01*
X027531Y011037D02*
X027651D01*
X027591Y010977D02*
Y011097D01*
X027581Y010287D02*
X027701D01*
X027641Y010227D02*
Y010347D01*
X030531Y008787D02*
X030651D01*
X030591Y008727D02*
Y008847D01*
X028731Y009137D02*
X028851D01*
X028791Y009077D02*
Y009197D01*
X027431Y007387D02*
X027551D01*
X027491Y007327D02*
Y007447D01*
X024481Y006887D02*
X024601D01*
X024541Y006827D02*
Y006947D01*
X023881Y008637D02*
X024001D01*
X023941Y008577D02*
Y008697D01*
X026681Y005287D02*
X026801D01*
X026741Y005227D02*
Y005347D01*
X026831Y005462D02*
X026951D01*
X026891Y005402D02*
Y005522D01*
X024981Y006787D02*
X025101D01*
X025041Y006727D02*
Y006847D01*
X022331Y009037D02*
X022451D01*
X022391Y008977D02*
Y009097D01*
X022294Y009824D02*
X022414D01*
X022354Y009764D02*
Y009884D01*
X022131Y008137D02*
X022251D01*
X022191Y008077D02*
Y008197D01*
X024581Y005787D02*
X024701D01*
X024641Y005727D02*
Y005847D01*
X024531Y006287D02*
X024651D01*
X024591Y006227D02*
Y006347D01*
X022481Y008137D02*
X022601D01*
X022541Y008077D02*
Y008197D01*
X025181Y008087D02*
X025301D01*
X025241Y008027D02*
Y008147D01*
X024131Y014087D02*
X024251D01*
X024191Y014027D02*
Y014147D01*
X024381Y014087D02*
X024501D01*
X024441Y014027D02*
Y014147D01*
X022031Y012737D02*
X022151D01*
X022091Y012677D02*
Y012797D01*
X024131Y008387D02*
X024251D01*
X024191Y008327D02*
Y008447D01*
X024131Y008637D02*
X024251D01*
X024191Y008577D02*
Y008697D01*
X023881Y008387D02*
X024001D01*
X023941Y008327D02*
Y008447D01*
X024381Y013837D02*
X024501D01*
X024441Y013777D02*
Y013897D01*
X024131Y01382D02*
X024251D01*
X024191Y01376D02*
Y01388D01*
X022131Y007887D02*
X022251D01*
X022191Y007827D02*
Y007947D01*
X022481Y007887D02*
X022601D01*
X022541Y007827D02*
Y007947D01*
X022481Y010887D02*
X022601D01*
X022541Y010827D02*
Y010947D01*
X022131Y010637D02*
X022251D01*
X022191Y010577D02*
Y010697D01*
X022481Y010637D02*
X022601D01*
X022541Y010577D02*
Y010697D01*
X022131Y010887D02*
X022251D01*
X022191Y010827D02*
Y010947D01*
X025731Y008637D02*
X025851D01*
X025791Y008577D02*
Y008697D01*
X028881Y010037D02*
X029001D01*
X028941Y009977D02*
Y010097D01*
X028981Y009337D02*
X029101D01*
X029041Y009277D02*
Y009397D01*
X004407Y010301D02*
X005155D01*
X004781Y009927D02*
Y010675D01*
X004407Y008529D02*
X005155D01*
X004781Y008155D02*
Y008903D01*
X00934Y011887D02*
X009734D01*
X009537Y01169D02*
Y012084D01*
X00934Y012887D02*
X009734D01*
X009537Y01269D02*
Y013084D01*
X01034Y011887D02*
X010734D01*
X010537Y01169D02*
Y012084D01*
X01034Y012887D02*
X010734D01*
X010537Y01269D02*
Y013084D01*
X005077Y009437D02*
X005197D01*
X005137Y009377D02*
Y009497D01*
X005427Y007387D02*
X005547D01*
X005487Y007327D02*
Y007447D01*
X004827Y007387D02*
X004947D01*
X004887Y007327D02*
Y007447D01*
X016777Y013887D02*
X016897D01*
X016837Y013827D02*
Y013947D01*
X016777Y012927D02*
X016897D01*
X016837Y012867D02*
Y012987D01*
X016777Y011967D02*
X016897D01*
X016837Y011907D02*
Y012027D01*
X016777Y007167D02*
X016897D01*
X016837Y007107D02*
Y007227D01*
X016777Y006207D02*
X016897D01*
X016837Y006147D02*
Y006267D01*
X016777Y005247D02*
X016897D01*
X016837Y005187D02*
Y005307D01*
X016777Y004287D02*
X016897D01*
X016837Y004227D02*
Y004347D01*
X016297Y013887D02*
X016417D01*
X016357Y013827D02*
Y013947D01*
X016537Y013407D02*
X016657D01*
X016597Y013347D02*
Y013467D01*
X016297Y012927D02*
X016417D01*
X016357Y012867D02*
Y012987D01*
X016537Y012447D02*
X016657D01*
X016597Y012387D02*
Y012507D01*
X016297Y011967D02*
X016417D01*
X016357Y011907D02*
Y012027D01*
X016537Y007647D02*
X016657D01*
X016597Y007587D02*
Y007707D01*
X016297Y007167D02*
X016417D01*
X016357Y007107D02*
Y007227D01*
X016537Y006687D02*
X016657D01*
X016597Y006627D02*
Y006747D01*
X016297Y006207D02*
X016417D01*
X016357Y006147D02*
Y006267D01*
X016537Y005727D02*
X016657D01*
X016597Y005667D02*
Y005787D01*
X016297Y005247D02*
X016417D01*
X016357Y005187D02*
Y005307D01*
X016537Y004767D02*
X016657D01*
X016597Y004707D02*
Y004827D01*
X016297Y004287D02*
X016417D01*
X016357Y004227D02*
Y004347D01*
X015817Y013887D02*
X015937D01*
X015877Y013827D02*
Y013947D01*
X016057Y013407D02*
X016177D01*
X016117Y013347D02*
Y013467D01*
X015817Y012927D02*
X015937D01*
X015877Y012867D02*
Y012987D01*
X016057Y012447D02*
X016177D01*
X016117Y012387D02*
Y012507D01*
X015817Y011967D02*
X015937D01*
X015877Y011907D02*
Y012027D01*
X015817Y007167D02*
X015937D01*
X015877Y007107D02*
Y007227D01*
X016057Y006687D02*
X016177D01*
X016117Y006627D02*
Y006747D01*
X015817Y006207D02*
X015937D01*
X015877Y006147D02*
Y006267D01*
X016057Y005727D02*
X016177D01*
X016117Y005667D02*
Y005787D01*
X015817Y005247D02*
X015937D01*
X015877Y005187D02*
Y005307D01*
X016057Y004767D02*
X016177D01*
X016117Y004707D02*
Y004827D01*
X015817Y004287D02*
X015937D01*
X015877Y004227D02*
Y004347D01*
X015337Y013887D02*
X015457D01*
X015397Y013827D02*
Y013947D01*
X015577Y013407D02*
X015697D01*
X015637Y013347D02*
Y013467D01*
X015337Y012927D02*
X015457D01*
X015397Y012867D02*
Y012987D01*
X015577Y012447D02*
X015697D01*
X015637Y012387D02*
Y012507D01*
X015577Y011487D02*
X015697D01*
X015637Y011427D02*
Y011547D01*
X015577Y006687D02*
X015697D01*
X015637Y006627D02*
Y006747D01*
X015337Y006207D02*
X015457D01*
X015397Y006147D02*
Y006267D01*
X015577Y005727D02*
X015697D01*
X015637Y005667D02*
Y005787D01*
X015337Y005247D02*
X015457D01*
X015397Y005187D02*
Y005307D01*
X015577Y004767D02*
X015697D01*
X015637Y004707D02*
Y004827D01*
X015337Y004287D02*
X015457D01*
X015397Y004227D02*
Y004347D01*
X014857Y013887D02*
X014977D01*
X014917Y013827D02*
Y013947D01*
X015097Y013407D02*
X015217D01*
X015157Y013347D02*
Y013467D01*
X014857Y012927D02*
X014977D01*
X014917Y012867D02*
Y012987D01*
X015097Y006687D02*
X015217D01*
X015157Y006627D02*
Y006747D01*
X014857Y006207D02*
X014977D01*
X014917Y006147D02*
Y006267D01*
X015097Y005727D02*
X015217D01*
X015157Y005667D02*
Y005787D01*
X014857Y005247D02*
X014977D01*
X014917Y005187D02*
Y005307D01*
X015097Y004767D02*
X015217D01*
X015157Y004707D02*
Y004827D01*
X014857Y004287D02*
X014977D01*
X014917Y004227D02*
Y004347D01*
X014377Y013887D02*
X014497D01*
X014437Y013827D02*
Y013947D01*
X014617Y013407D02*
X014737D01*
X014677Y013347D02*
Y013467D01*
X014377Y012927D02*
X014497D01*
X014437Y012867D02*
Y012987D01*
X014377Y006207D02*
X014497D01*
X014437Y006147D02*
Y006267D01*
X014617Y005727D02*
X014737D01*
X014677Y005667D02*
Y005787D01*
X014377Y005247D02*
X014497D01*
X014437Y005187D02*
Y005307D01*
X014617Y004767D02*
X014737D01*
X014677Y004707D02*
Y004827D01*
X014377Y004287D02*
X014497D01*
X014437Y004227D02*
Y004347D01*
X013897Y013887D02*
X014017D01*
X013957Y013827D02*
Y013947D01*
X014137Y013407D02*
X014257D01*
X014197Y013347D02*
Y013467D01*
X013897Y012927D02*
X014017D01*
X013957Y012867D02*
Y012987D01*
X014137Y005727D02*
X014257D01*
X014197Y005667D02*
Y005787D01*
X013897Y005247D02*
X014017D01*
X013957Y005187D02*
Y005307D01*
X014137Y004767D02*
X014257D01*
X014197Y004707D02*
Y004827D01*
X013897Y004287D02*
X014017D01*
X013957Y004227D02*
Y004347D01*
X013417Y013887D02*
X013537D01*
X013477Y013827D02*
Y013947D01*
X013657Y013407D02*
X013777D01*
X013717Y013347D02*
Y013467D01*
X013417Y012927D02*
X013537D01*
X013477Y012867D02*
Y012987D01*
X013657Y005727D02*
X013777D01*
X013717Y005667D02*
Y005787D01*
X013417Y005247D02*
X013537D01*
X013477Y005187D02*
Y005307D01*
X013657Y004767D02*
X013777D01*
X013717Y004707D02*
Y004827D01*
X013417Y004287D02*
X013537D01*
X013477Y004227D02*
Y004347D01*
X012937Y013887D02*
X013057D01*
X012997Y013827D02*
Y013947D01*
X013177Y013407D02*
X013297D01*
X013237Y013347D02*
Y013467D01*
X012937Y012927D02*
X013057D01*
X012997Y012867D02*
Y012987D01*
X012937Y005247D02*
X013057D01*
X012997Y005187D02*
Y005307D01*
X013177Y004767D02*
X013297D01*
X013237Y004707D02*
Y004827D01*
X012937Y004287D02*
X013057D01*
X012997Y004227D02*
Y004347D01*
X012457Y013887D02*
X012577D01*
X012517Y013827D02*
Y013947D01*
X012697Y013407D02*
X012817D01*
X012757Y013347D02*
Y013467D01*
X012457Y012927D02*
X012577D01*
X012517Y012867D02*
Y012987D01*
X012697Y004767D02*
X012817D01*
X012757Y004707D02*
Y004827D01*
X012457Y004287D02*
X012577D01*
X012517Y004227D02*
Y004347D01*
X011977Y013887D02*
X012097D01*
X012037Y013827D02*
Y013947D01*
X012217Y013407D02*
X012337D01*
X012277Y013347D02*
Y013467D01*
X011977Y012927D02*
X012097D01*
X012037Y012867D02*
Y012987D01*
X011977Y004287D02*
X012097D01*
X012037Y004227D02*
Y004347D01*
X011497Y013887D02*
X011617D01*
X011557Y013827D02*
Y013947D01*
X011737Y013407D02*
X011857D01*
X011797Y013347D02*
Y013467D01*
X011737Y004767D02*
X011857D01*
X011797Y004707D02*
Y004827D01*
X011497Y004287D02*
X011617D01*
X011557Y004227D02*
Y004347D01*
X011017Y005247D02*
X011137D01*
X011077Y005187D02*
Y005307D01*
X011257Y004767D02*
X011377D01*
X011317Y004707D02*
Y004827D01*
X011017Y004287D02*
X011137D01*
X011077Y004227D02*
Y004347D01*
X010777Y008607D02*
X010897D01*
X010837Y008547D02*
Y008667D01*
X010777Y004767D02*
X010897D01*
X010837Y004707D02*
Y004827D01*
X010537Y004287D02*
X010657D01*
X010597Y004227D02*
Y004347D01*
X010297Y008607D02*
X010417D01*
X010357Y008547D02*
Y008667D01*
X010057Y004287D02*
X010177D01*
X010117Y004227D02*
Y004347D01*
X009577Y013887D02*
X009697D01*
X009637Y013827D02*
Y013947D01*
X009817Y008607D02*
X009937D01*
X009877Y008547D02*
Y008667D01*
X009577Y004287D02*
X009697D01*
X009637Y004227D02*
Y004347D01*
X009097Y013887D02*
X009217D01*
X009157Y013827D02*
Y013947D01*
X009337Y007647D02*
X009457D01*
X009397Y007587D02*
Y007707D01*
X009097Y004287D02*
X009217D01*
X009157Y004227D02*
Y004347D01*
X008617Y013887D02*
X008737D01*
X008677Y013827D02*
Y013947D01*
X008857Y007647D02*
X008977D01*
X008917Y007587D02*
Y007707D01*
X008617Y004287D02*
X008737D01*
X008677Y004227D02*
Y004347D01*
X008137Y004287D02*
X008257D01*
X008197Y004227D02*
Y004347D01*
X007897Y004767D02*
X008017D01*
X007957Y004707D02*
Y004827D01*
X007657Y004287D02*
X007777D01*
X007717Y004227D02*
Y004347D01*
X007177Y004287D02*
X007297D01*
X007237Y004227D02*
Y004347D01*
X006697Y013887D02*
X006817D01*
X006757Y013827D02*
Y013947D01*
X006697Y004287D02*
X006817D01*
X006757Y004227D02*
Y004347D01*
X006217Y004287D02*
X006337D01*
X006277Y004227D02*
Y004347D01*
X005737Y005247D02*
X005857D01*
X005797Y005187D02*
Y005307D01*
X005977Y004767D02*
X006097D01*
X006037Y004707D02*
Y004827D01*
X005737Y004287D02*
X005857D01*
X005797Y004227D02*
Y004347D01*
X005497Y005727D02*
X005617D01*
X005557Y005667D02*
Y005787D01*
X005257Y005247D02*
X005377D01*
X005317Y005187D02*
Y005307D01*
X005497Y004767D02*
X005617D01*
X005557Y004707D02*
Y004827D01*
X005257Y004287D02*
X005377D01*
X005317Y004227D02*
Y004347D01*
X005017Y011487D02*
X005137D01*
X005077Y011427D02*
Y011547D01*
X004777Y006207D02*
X004897D01*
X004837Y006147D02*
Y006267D01*
X005017Y005727D02*
X005137D01*
X005077Y005667D02*
Y005787D01*
X004777Y005247D02*
X004897D01*
X004837Y005187D02*
Y005307D01*
X005017Y004767D02*
X005137D01*
X005077Y004707D02*
Y004827D01*
X004777Y004287D02*
X004897D01*
X004837Y004227D02*
Y004347D01*
X004297Y012927D02*
X004417D01*
X004357Y012867D02*
Y012987D01*
X004537Y012447D02*
X004657D01*
X004597Y012387D02*
Y012507D01*
X004297Y006207D02*
X004417D01*
X004357Y006147D02*
Y006267D01*
X004537Y005727D02*
X004657D01*
X004597Y005667D02*
Y005787D01*
X004297Y005247D02*
X004417D01*
X004357Y005187D02*
Y005307D01*
X004537Y004767D02*
X004657D01*
X004597Y004707D02*
Y004827D01*
X004297Y004287D02*
X004417D01*
X004357Y004227D02*
Y004347D01*
X016977Y008287D02*
X017097D01*
X017037Y008227D02*
Y008347D01*
X006677Y011587D02*
X006797D01*
X006737Y011527D02*
Y011647D01*
X012477Y010887D02*
X012597D01*
X012537Y010827D02*
Y010947D01*
X013027Y007137D02*
X013147D01*
X013087Y007077D02*
Y007197D01*
X008377Y014587D02*
X008497D01*
X008437Y014527D02*
Y014647D01*
X009127Y014587D02*
X009247D01*
X009187Y014527D02*
Y014647D01*
X016977Y007637D02*
X017097D01*
X017037Y007577D02*
Y007697D01*
X016977Y004787D02*
X017097D01*
X017037Y004727D02*
Y004847D01*
X016977Y005737D02*
X017097D01*
X017037Y005677D02*
Y005797D01*
X016977Y006687D02*
X017097D01*
X017037Y006627D02*
Y006747D01*
X008077Y009787D02*
X008197D01*
X008137Y009727D02*
Y009847D01*
X007877Y009087D02*
X007997D01*
X007937Y009027D02*
Y009147D01*
X007677Y009787D02*
X007797D01*
X007737Y009727D02*
Y009847D01*
X008377Y009637D02*
X008497D01*
X008437Y009577D02*
Y009697D01*
X016277Y008287D02*
X016397D01*
X016337Y008227D02*
Y008347D01*
X016977Y008937D02*
X017097D01*
X017037Y008877D02*
Y008997D01*
X016977Y009587D02*
X017097D01*
X017037Y009527D02*
Y009647D01*
X008227Y010787D02*
X008347D01*
X008287Y010727D02*
Y010847D01*
X006577Y004987D02*
X006697D01*
X006637Y004927D02*
Y005047D01*
X007077Y004587D02*
X007197D01*
X007137Y004527D02*
Y004647D01*
X004627Y009437D02*
X004747D01*
X004687Y009377D02*
Y009497D01*
X004177Y013537D02*
X004297D01*
X004237Y013477D02*
Y013597D01*
X004177Y014037D02*
X004297D01*
X004237Y013977D02*
Y014097D01*
X004177Y014587D02*
X004297D01*
X004237Y014527D02*
Y014647D01*
X004727Y014687D02*
X004847D01*
X004787Y014627D02*
Y014747D01*
X005477Y014687D02*
X005597D01*
X005537Y014627D02*
Y014747D01*
X006727Y014687D02*
X006847D01*
X006787Y014627D02*
Y014747D01*
X007427Y014687D02*
X007547D01*
X007487Y014627D02*
Y014747D01*
X009777Y014587D02*
X009897D01*
X009837Y014527D02*
Y014647D01*
X010377Y014587D02*
X010497D01*
X010437Y014527D02*
Y014647D01*
X010377Y013887D02*
X010497D01*
X010437Y013827D02*
Y013947D01*
X010927Y013887D02*
X011047D01*
X010987Y013827D02*
Y013947D01*
X011177Y014587D02*
X011297D01*
X011237Y014527D02*
Y014647D01*
X011877Y014587D02*
X011997D01*
X011937Y014527D02*
Y014647D01*
X012777Y014587D02*
X012897D01*
X012837Y014527D02*
Y014647D01*
X013677Y014587D02*
X013797D01*
X013737Y014527D02*
Y014647D01*
X014527Y014587D02*
X014647D01*
X014587Y014527D02*
Y014647D01*
X015377Y014587D02*
X015497D01*
X015437Y014527D02*
Y014647D01*
X016127Y014587D02*
X016247D01*
X016187Y014527D02*
Y014647D01*
X016777Y014587D02*
X016897D01*
X016837Y014527D02*
Y014647D01*
X015577Y008287D02*
X015697D01*
X015637Y008227D02*
Y008347D01*
X015677Y007637D02*
X015797D01*
X015737Y007577D02*
Y007697D01*
X015227Y007187D02*
X015347D01*
X015287Y007127D02*
Y007247D01*
X012227Y004787D02*
X012347D01*
X012287Y004727D02*
Y004847D01*
X012327Y005287D02*
X012447D01*
X012387Y005227D02*
Y005347D01*
X012777Y005737D02*
X012897D01*
X012837Y005677D02*
Y005797D01*
X013827Y006737D02*
X013947D01*
X013887Y006677D02*
Y006797D01*
X014427Y006687D02*
X014547D01*
X014487Y006627D02*
Y006747D01*
X015077Y010987D02*
X015197D01*
X015137Y010927D02*
Y011047D01*
X015577Y010987D02*
X015697D01*
X015637Y010927D02*
Y011047D01*
X016827Y010987D02*
X016947D01*
X016887Y010927D02*
Y011047D01*
X016777Y011437D02*
X016897D01*
X016837Y011377D02*
Y011497D01*
X015027Y011537D02*
X015147D01*
X015087Y011477D02*
Y011597D01*
X015027Y012437D02*
X015147D01*
X015087Y012377D02*
Y012497D01*
X015177Y011987D02*
X015297D01*
X015237Y011927D02*
Y012047D01*
X016441Y009705D02*
X016561D01*
X016501Y009645D02*
Y009765D01*
X016735Y009766D02*
X016855D01*
X016795Y009706D02*
Y009826D01*
X016727Y010437D02*
X016847D01*
X016787Y010377D02*
Y010497D01*
X016177Y011587D02*
X016297D01*
X016237Y011527D02*
Y011647D01*
X011477Y006286D02*
X011597D01*
X011537Y006226D02*
Y006346D01*
X011927Y010037D02*
X012047D01*
X011987Y009977D02*
Y010097D01*
X014727Y008837D02*
X014847D01*
X014787Y008777D02*
Y008897D01*
X014827Y009337D02*
X014947D01*
X014887Y009277D02*
Y009397D01*
X014627Y010937D02*
X014747D01*
X014687Y010877D02*
Y010997D01*
X014377Y010937D02*
X014497D01*
X014437Y010877D02*
Y010997D01*
X013377Y011637D02*
X013497D01*
X013437Y011577D02*
Y011697D01*
X013377Y011387D02*
X013497D01*
X013437Y011327D02*
Y011447D01*
X012227Y008237D02*
X012347D01*
X012287Y008177D02*
Y008297D01*
X012177Y007887D02*
X012297D01*
X012237Y007827D02*
Y007947D01*
X012027Y008087D02*
X012147D01*
X012087Y008027D02*
Y008147D01*
X011177Y011037D02*
X011297D01*
X011237Y010977D02*
Y011097D01*
X010877Y011037D02*
X010997D01*
X010937Y010977D02*
Y011097D01*
X010927Y010287D02*
X011047D01*
X010987Y010227D02*
Y010347D01*
X013877Y008787D02*
X013997D01*
X013937Y008727D02*
Y008847D01*
X012077Y009137D02*
X012197D01*
X012137Y009077D02*
Y009197D01*
X010777Y007387D02*
X010897D01*
X010837Y007327D02*
Y007447D01*
X007827Y006887D02*
X007947D01*
X007887Y006827D02*
Y006947D01*
X007227Y008637D02*
X007347D01*
X007287Y008577D02*
Y008697D01*
X010027Y005287D02*
X010147D01*
X010087Y005227D02*
Y005347D01*
X010177Y005462D02*
X010297D01*
X010237Y005402D02*
Y005522D01*
X008327Y006787D02*
X008447D01*
X008387Y006727D02*
Y006847D01*
X005677Y009037D02*
X005797D01*
X005737Y008977D02*
Y009097D01*
X00564Y009824D02*
X00576D01*
X0057Y009764D02*
Y009884D01*
X005477Y008137D02*
X005597D01*
X005537Y008077D02*
Y008197D01*
X007927Y005787D02*
X008047D01*
X007987Y005727D02*
Y005847D01*
X007877Y006287D02*
X007997D01*
X007937Y006227D02*
Y006347D01*
X005827Y008137D02*
X005947D01*
X005887Y008077D02*
Y008197D01*
X008527Y008087D02*
X008647D01*
X008587Y008027D02*
Y008147D01*
X007477Y014087D02*
X007597D01*
X007537Y014027D02*
Y014147D01*
X007727Y014087D02*
X007847D01*
X007787Y014027D02*
Y014147D01*
X005377Y012737D02*
X005497D01*
X005437Y012677D02*
Y012797D01*
X007477Y008387D02*
X007597D01*
X007537Y008327D02*
Y008447D01*
X007477Y008637D02*
X007597D01*
X007537Y008577D02*
Y008697D01*
X007227Y008387D02*
X007347D01*
X007287Y008327D02*
Y008447D01*
X007727Y013837D02*
X007847D01*
X007787Y013777D02*
Y013897D01*
X007477Y01382D02*
X007597D01*
X007537Y01376D02*
Y01388D01*
X005477Y007887D02*
X005597D01*
X005537Y007827D02*
Y007947D01*
X005827Y007887D02*
X005947D01*
X005887Y007827D02*
Y007947D01*
X005827Y010887D02*
X005947D01*
X005887Y010827D02*
Y010947D01*
X005477Y010637D02*
X005597D01*
X005537Y010577D02*
Y010697D01*
X005827Y010637D02*
X005947D01*
X005887Y010577D02*
Y010697D01*
X005477Y010887D02*
X005597D01*
X005537Y010827D02*
Y010947D01*
X009077Y008637D02*
X009197D01*
X009137Y008577D02*
Y008697D01*
X012227Y010037D02*
X012347D01*
X012287Y009977D02*
Y010097D01*
X012327Y009337D02*
X012447D01*
X012387Y009277D02*
Y009397D01*
X008963Y026841D02*
X009357D01*
X00916Y026644D02*
Y027037D01*
X009963Y026841D02*
X010357D01*
X01016Y026644D02*
Y027037D01*
X009963Y025841D02*
X010357D01*
X01016Y025644D02*
Y026037D01*
X008963Y025841D02*
X009357D01*
X00916Y025644D02*
Y026037D01*
X00443Y025176D02*
X005178D01*
X004804Y024802D02*
Y02555D01*
X00443Y023405D02*
X005178D01*
X004804Y023031D02*
Y023779D01*
X0202Y023941D02*
X02032D01*
X02026Y023881D02*
Y024001D01*
X0149Y021991D02*
X01502D01*
X01496Y021931D02*
Y022051D01*
X0149Y022541D02*
X01502D01*
X01496Y022481D02*
Y022601D01*
X0153Y022291D02*
X01542D01*
X01536Y022231D02*
Y022351D01*
X0153Y021891D02*
X01542D01*
X01536Y021831D02*
Y021951D01*
X0158Y021891D02*
X01592D01*
X01586Y021831D02*
Y021951D01*
X0158Y022291D02*
X01592D01*
X01586Y022231D02*
Y022351D01*
X0165Y022341D02*
X01662D01*
X01656Y022281D02*
Y022401D01*
X0165Y021841D02*
X01662D01*
X01656Y021781D02*
Y021901D01*
X0138Y026441D02*
X01392D01*
X01386Y026381D02*
Y026501D01*
X01375Y027191D02*
X01387D01*
X01381Y027131D02*
Y027251D01*
X00555Y022091D02*
X00567D01*
X00561Y022031D02*
Y022151D01*
X00485Y022091D02*
X00497D01*
X00491Y022031D02*
Y022151D01*
X00415Y022141D02*
X00427D01*
X00421Y022081D02*
Y022201D01*
X01785Y023791D02*
X01797D01*
X01791Y023731D02*
Y023851D01*
X01685Y024379D02*
X01697D01*
X01691Y024319D02*
Y024439D01*
X01635Y02454D02*
X01647D01*
X01641Y02448D02*
Y0246D01*
X01635Y024841D02*
X01647D01*
X01641Y024781D02*
Y024901D01*
X016434Y02413D02*
X016554D01*
X016494Y02407D02*
Y02419D01*
X01855Y024591D02*
X01867D01*
X01861Y024531D02*
Y024651D01*
X01855Y024141D02*
X01867D01*
X01861Y024081D02*
Y024201D01*
X0092Y025191D02*
X00932D01*
X00926Y025131D02*
Y025251D01*
X0109Y024041D02*
X01102D01*
X01096Y023981D02*
Y024101D01*
X00985Y023441D02*
X00997D01*
X00991Y023381D02*
Y023501D01*
X01065Y023841D02*
X01077D01*
X01071Y023781D02*
Y023901D01*
X00995Y025191D02*
X01007D01*
X01001Y025131D02*
Y025251D01*
X0186Y024891D02*
X01872D01*
X01866Y024831D02*
Y024951D01*
X01815Y026291D02*
X01827D01*
X01821Y026231D02*
Y026351D01*
X00875Y021541D02*
X00887D01*
X00881Y021481D02*
Y021601D01*
X0078Y021541D02*
X00792D01*
X00786Y021481D02*
Y021601D01*
X0068Y021541D02*
X00692D01*
X00686Y021481D02*
Y021601D01*
X00585Y021541D02*
X00597D01*
X00591Y021481D02*
Y021601D01*
X0049Y021541D02*
X00502D01*
X00496Y021481D02*
Y021601D01*
X0041Y021541D02*
X00422D01*
X00416Y021481D02*
Y021601D01*
X01195Y026741D02*
X01207D01*
X01201Y026681D02*
Y026801D01*
X01115Y027191D02*
X01127D01*
X01121Y027131D02*
Y027251D01*
X01195Y027191D02*
X01207D01*
X01201Y027131D02*
Y027251D01*
X0148Y021491D02*
X01492D01*
X01486Y021431D02*
Y021551D01*
X0153Y021491D02*
X01542D01*
X01536Y021431D02*
Y021551D01*
X01585Y021491D02*
X01597D01*
X01591Y021431D02*
Y021551D01*
X0165Y021491D02*
X01662D01*
X01656Y021431D02*
Y021551D01*
X01715Y021491D02*
X01727D01*
X01721Y021431D02*
Y021551D01*
X02015Y027191D02*
X02027D01*
X02021Y027131D02*
Y027251D01*
X0195Y027191D02*
X01962D01*
X01956Y027131D02*
Y027251D01*
X0188Y027191D02*
X01892D01*
X01886Y027131D02*
Y027251D01*
X01815Y027191D02*
X01827D01*
X01821Y027131D02*
Y027251D01*
X0175Y027191D02*
X01762D01*
X01756Y027131D02*
Y027251D01*
X0202Y023391D02*
X02032D01*
X02026Y023331D02*
Y023451D01*
X0202Y022791D02*
X02032D01*
X02026Y022731D02*
Y022851D01*
X0202Y022241D02*
X02032D01*
X02026Y022181D02*
Y022301D01*
X0202Y021691D02*
X02032D01*
X02026Y021631D02*
Y021751D01*
X01975Y021491D02*
X01987D01*
X01981Y021431D02*
Y021551D01*
X01905Y021491D02*
X01917D01*
X01911Y021431D02*
Y021551D01*
X01845Y021491D02*
X01857D01*
X01851Y021431D02*
Y021551D01*
X0177Y021491D02*
X01782D01*
X01776Y021431D02*
Y021551D01*
X01715Y021791D02*
X01727D01*
X01721Y021731D02*
Y021851D01*
X01715Y022391D02*
X01727D01*
X01721Y022331D02*
Y022451D01*
X01715Y023091D02*
X01727D01*
X01721Y023031D02*
Y023151D01*
X01715Y023741D02*
X01727D01*
X01721Y023681D02*
Y023801D01*
X01685Y025991D02*
X01697D01*
X01691Y025931D02*
Y026051D01*
X01685Y026591D02*
X01697D01*
X01691Y026531D02*
Y026651D01*
X01685Y027191D02*
X01697D01*
X01691Y027131D02*
Y027251D01*
X01635Y026141D02*
X01647D01*
X01641Y026081D02*
Y026201D01*
X0148Y026741D02*
X01492D01*
X01486Y026681D02*
Y026801D01*
X0128Y025741D02*
X01292D01*
X01286Y025681D02*
Y025801D01*
X01575Y024191D02*
X01587D01*
X01581Y024131D02*
Y024251D01*
X01485Y022891D02*
X01497D01*
X01491Y022831D02*
Y022951D01*
X014518Y022904D02*
X014638D01*
X014578Y022844D02*
Y022964D01*
X0093Y022891D02*
X00942D01*
X00936Y022831D02*
Y022951D01*
X01405Y023791D02*
X01417D01*
X01411Y023731D02*
Y023851D01*
X01405Y023391D02*
X01417D01*
X01411Y023331D02*
Y023451D01*
X01425Y023591D02*
X01437D01*
X01431Y023531D02*
Y023651D01*
X01385Y023591D02*
X01397D01*
X01391Y023531D02*
Y023651D01*
X0119Y024891D02*
X01202D01*
X01196Y024831D02*
Y024951D01*
X0129Y023241D02*
X01302D01*
X01296Y023181D02*
Y023301D01*
X01385Y024541D02*
X01397D01*
X01391Y024481D02*
Y024601D01*
X01415Y024491D02*
X01427D01*
X01421Y024431D02*
Y024551D01*
X008Y023841D02*
X00812D01*
X00806Y023781D02*
Y023901D01*
X00805Y023291D02*
X00817D01*
X00811Y023231D02*
Y023351D01*
X014062Y025478D02*
X014182D01*
X014122Y025418D02*
Y025538D01*
X01375Y025441D02*
X01387D01*
X01381Y025381D02*
Y025501D01*
X01185Y026491D02*
X01197D01*
X01191Y026431D02*
Y026551D01*
X0116Y026741D02*
X01172D01*
X01166Y026681D02*
Y026801D01*
X01065Y023241D02*
X01077D01*
X01071Y023181D02*
Y023301D01*
X00845Y026641D02*
X00857D01*
X00851Y026581D02*
Y026701D01*
X00845Y026291D02*
X00857D01*
X00851Y026231D02*
Y026351D01*
X00845Y025841D02*
X00857D01*
X00851Y025781D02*
Y025901D01*
X00845Y025441D02*
X00857D01*
X00851Y025381D02*
Y025501D01*
X00585Y022341D02*
X00597D01*
X00591Y022281D02*
Y022401D01*
X00965Y022541D02*
X00977D01*
X00971Y022481D02*
Y022601D01*
X0145Y021691D02*
X01462D01*
X01456Y021631D02*
Y021751D01*
X0118Y021491D02*
X01192D01*
X01186Y021431D02*
Y021551D01*
X01175Y022241D02*
X01187D01*
X01181Y022181D02*
Y022301D01*
X01115Y023091D02*
X01127D01*
X01121Y023031D02*
Y023151D01*
X01155Y023491D02*
X01167D01*
X01161Y023431D02*
Y023551D01*
X0101Y022241D02*
X01022D01*
X01016Y022181D02*
Y022301D01*
X00905Y022241D02*
X00917D01*
X00911Y022181D02*
Y022301D01*
X01205Y023891D02*
X01217D01*
X01211Y023831D02*
Y023951D01*
X01235Y022691D02*
X01247D01*
X01241Y022631D02*
Y022751D01*
X0121Y022441D02*
X01222D01*
X01216Y022381D02*
Y022501D01*
X01265Y022941D02*
X01277D01*
X01271Y022881D02*
Y023001D01*
X00685Y024041D02*
X00697D01*
X00691Y023981D02*
Y024101D01*
X00765Y025091D02*
X00777D01*
X00771Y025031D02*
Y025151D01*
X00565Y023891D02*
X00577D01*
X00571Y023831D02*
Y023951D01*
X00565Y024691D02*
X00577D01*
X00571Y024631D02*
Y024751D01*
X0055Y022791D02*
X00562D01*
X00556Y022731D02*
Y022851D01*
X0055Y023041D02*
X00562D01*
X00556Y022981D02*
Y023101D01*
X00585Y022791D02*
X00597D01*
X00591Y022731D02*
Y022851D01*
X00585Y023041D02*
X00597D01*
X00591Y022981D02*
Y023101D01*
X0048Y026491D02*
X00492D01*
X00486Y026431D02*
Y026551D01*
X0055Y025791D02*
X00562D01*
X00556Y025731D02*
Y025851D01*
X0055Y025541D02*
X00562D01*
X00556Y025481D02*
Y025601D01*
X0068Y026691D02*
X00692D01*
X00686Y026631D02*
Y026751D01*
X00585Y025541D02*
X00597D01*
X00591Y025481D02*
Y025601D01*
X00585Y025791D02*
X00597D01*
X00591Y025731D02*
Y025851D01*
X004234Y027041D02*
X004354D01*
X004294Y026981D02*
Y027101D01*
X025617Y026841D02*
X02601D01*
X025813Y026644D02*
Y027037D01*
X026617Y026841D02*
X02701D01*
X026813Y026644D02*
Y027037D01*
X026617Y025841D02*
X02701D01*
X026813Y025644D02*
Y026037D01*
X025617Y025841D02*
X02601D01*
X025813Y025644D02*
Y026037D01*
X021083Y025176D02*
X021831D01*
X021457Y024802D02*
Y02555D01*
X021083Y023405D02*
X021831D01*
X021457Y023031D02*
Y023779D01*
X036853Y023941D02*
X036973D01*
X036913Y023881D02*
Y024001D01*
X031553Y021991D02*
X031673D01*
X031613Y021931D02*
Y022051D01*
X031553Y022541D02*
X031673D01*
X031613Y022481D02*
Y022601D01*
X031953Y022291D02*
X032073D01*
X032013Y022231D02*
Y022351D01*
X031953Y021891D02*
X032073D01*
X032013Y021831D02*
Y021951D01*
X032453Y021891D02*
X032573D01*
X032513Y021831D02*
Y021951D01*
X032453Y022291D02*
X032573D01*
X032513Y022231D02*
Y022351D01*
X033153Y022341D02*
X033273D01*
X033213Y022281D02*
Y022401D01*
X033153Y021841D02*
X033273D01*
X033213Y021781D02*
Y021901D01*
X030453Y026441D02*
X030573D01*
X030513Y026381D02*
Y026501D01*
X030403Y027191D02*
X030523D01*
X030463Y027131D02*
Y027251D01*
X022203Y022091D02*
X022323D01*
X022263Y022031D02*
Y022151D01*
X021503Y022091D02*
X021623D01*
X021563Y022031D02*
Y022151D01*
X020803Y022141D02*
X020923D01*
X020863Y022081D02*
Y022201D01*
X034503Y023791D02*
X034623D01*
X034563Y023731D02*
Y023851D01*
X033503Y024379D02*
X033623D01*
X033563Y024319D02*
Y024439D01*
X033003Y02454D02*
X033123D01*
X033063Y02448D02*
Y0246D01*
X033003Y024841D02*
X033123D01*
X033063Y024781D02*
Y024901D01*
X033087Y02413D02*
X033207D01*
X033147Y02407D02*
Y02419D01*
X035203Y024591D02*
X035323D01*
X035263Y024531D02*
Y024651D01*
X035203Y024141D02*
X035323D01*
X035263Y024081D02*
Y024201D01*
X025853Y025191D02*
X025973D01*
X025913Y025131D02*
Y025251D01*
X027553Y024041D02*
X027673D01*
X027613Y023981D02*
Y024101D01*
X026503Y023441D02*
X026623D01*
X026563Y023381D02*
Y023501D01*
X027303Y023841D02*
X027423D01*
X027363Y023781D02*
Y023901D01*
X026603Y025191D02*
X026723D01*
X026663Y025131D02*
Y025251D01*
X035253Y024891D02*
X035373D01*
X035313Y024831D02*
Y024951D01*
X034803Y026291D02*
X034923D01*
X034863Y026231D02*
Y026351D01*
X025403Y021541D02*
X025523D01*
X025463Y021481D02*
Y021601D01*
X024453Y021541D02*
X024573D01*
X024513Y021481D02*
Y021601D01*
X023453Y021541D02*
X023573D01*
X023513Y021481D02*
Y021601D01*
X022503Y021541D02*
X022623D01*
X022563Y021481D02*
Y021601D01*
X021553Y021541D02*
X021673D01*
X021613Y021481D02*
Y021601D01*
X020753Y021541D02*
X020873D01*
X020813Y021481D02*
Y021601D01*
X028603Y026741D02*
X028723D01*
X028663Y026681D02*
Y026801D01*
X027803Y027191D02*
X027923D01*
X027863Y027131D02*
Y027251D01*
X028603Y027191D02*
X028723D01*
X028663Y027131D02*
Y027251D01*
X031453Y021491D02*
X031573D01*
X031513Y021431D02*
Y021551D01*
X031953Y021491D02*
X032073D01*
X032013Y021431D02*
Y021551D01*
X032503Y021491D02*
X032623D01*
X032563Y021431D02*
Y021551D01*
X033153Y021491D02*
X033273D01*
X033213Y021431D02*
Y021551D01*
X033803Y021491D02*
X033923D01*
X033863Y021431D02*
Y021551D01*
X036803Y027191D02*
X036923D01*
X036863Y027131D02*
Y027251D01*
X036153Y027191D02*
X036273D01*
X036213Y027131D02*
Y027251D01*
X035453Y027191D02*
X035573D01*
X035513Y027131D02*
Y027251D01*
X034803Y027191D02*
X034923D01*
X034863Y027131D02*
Y027251D01*
X034153Y027191D02*
X034273D01*
X034213Y027131D02*
Y027251D01*
X036853Y023391D02*
X036973D01*
X036913Y023331D02*
Y023451D01*
X036853Y022791D02*
X036973D01*
X036913Y022731D02*
Y022851D01*
X036853Y022241D02*
X036973D01*
X036913Y022181D02*
Y022301D01*
X036853Y021691D02*
X036973D01*
X036913Y021631D02*
Y021751D01*
X036403Y021491D02*
X036523D01*
X036463Y021431D02*
Y021551D01*
X035703Y021491D02*
X035823D01*
X035763Y021431D02*
Y021551D01*
X035103Y021491D02*
X035223D01*
X035163Y021431D02*
Y021551D01*
X034353Y021491D02*
X034473D01*
X034413Y021431D02*
Y021551D01*
X033803Y021791D02*
X033923D01*
X033863Y021731D02*
Y021851D01*
X033803Y022391D02*
X033923D01*
X033863Y022331D02*
Y022451D01*
X033803Y023091D02*
X033923D01*
X033863Y023031D02*
Y023151D01*
X033803Y023741D02*
X033923D01*
X033863Y023681D02*
Y023801D01*
X033503Y025991D02*
X033623D01*
X033563Y025931D02*
Y026051D01*
X033503Y026591D02*
X033623D01*
X033563Y026531D02*
Y026651D01*
X033503Y027191D02*
X033623D01*
X033563Y027131D02*
Y027251D01*
X033003Y026141D02*
X033123D01*
X033063Y026081D02*
Y026201D01*
X031453Y026741D02*
X031573D01*
X031513Y026681D02*
Y026801D01*
X029453Y025741D02*
X029573D01*
X029513Y025681D02*
Y025801D01*
X032403Y024191D02*
X032523D01*
X032463Y024131D02*
Y024251D01*
X031503Y022891D02*
X031623D01*
X031563Y022831D02*
Y022951D01*
X031172Y022904D02*
X031292D01*
X031232Y022844D02*
Y022964D01*
X025953Y022891D02*
X026073D01*
X026013Y022831D02*
Y022951D01*
X030703Y023791D02*
X030823D01*
X030763Y023731D02*
Y023851D01*
X030703Y023391D02*
X030823D01*
X030763Y023331D02*
Y023451D01*
X030903Y023591D02*
X031023D01*
X030963Y023531D02*
Y023651D01*
X030503Y023591D02*
X030623D01*
X030563Y023531D02*
Y023651D01*
X028553Y024891D02*
X028673D01*
X028613Y024831D02*
Y024951D01*
X029553Y023241D02*
X029673D01*
X029613Y023181D02*
Y023301D01*
X030503Y024541D02*
X030623D01*
X030563Y024481D02*
Y024601D01*
X030803Y024491D02*
X030923D01*
X030863Y024431D02*
Y024551D01*
X024653Y023841D02*
X024773D01*
X024713Y023781D02*
Y023901D01*
X024703Y023291D02*
X024823D01*
X024763Y023231D02*
Y023351D01*
X030716Y025478D02*
X030836D01*
X030776Y025418D02*
Y025538D01*
X030403Y025441D02*
X030523D01*
X030463Y025381D02*
Y025501D01*
X028503Y026491D02*
X028623D01*
X028563Y026431D02*
Y026551D01*
X028253Y026741D02*
X028373D01*
X028313Y026681D02*
Y026801D01*
X027303Y023241D02*
X027423D01*
X027363Y023181D02*
Y023301D01*
X025103Y026641D02*
X025223D01*
X025163Y026581D02*
Y026701D01*
X025103Y026291D02*
X025223D01*
X025163Y026231D02*
Y026351D01*
X025103Y025841D02*
X025223D01*
X025163Y025781D02*
Y025901D01*
X025103Y025441D02*
X025223D01*
X025163Y025381D02*
Y025501D01*
X022503Y022341D02*
X022623D01*
X022563Y022281D02*
Y022401D01*
X026303Y022541D02*
X026423D01*
X026363Y022481D02*
Y022601D01*
X031153Y021691D02*
X031273D01*
X031213Y021631D02*
Y021751D01*
X028453Y021491D02*
X028573D01*
X028513Y021431D02*
Y021551D01*
X028403Y022241D02*
X028523D01*
X028463Y022181D02*
Y022301D01*
X027803Y023091D02*
X027923D01*
X027863Y023031D02*
Y023151D01*
X028203Y023491D02*
X028323D01*
X028263Y023431D02*
Y023551D01*
X026753Y022241D02*
X026873D01*
X026813Y022181D02*
Y022301D01*
X025703Y022241D02*
X025823D01*
X025763Y022181D02*
Y022301D01*
X028703Y023891D02*
X028823D01*
X028763Y023831D02*
Y023951D01*
X029003Y022691D02*
X029123D01*
X029063Y022631D02*
Y022751D01*
X028753Y022441D02*
X028873D01*
X028813Y022381D02*
Y022501D01*
X029303Y022941D02*
X029423D01*
X029363Y022881D02*
Y023001D01*
X023503Y024041D02*
X023623D01*
X023563Y023981D02*
Y024101D01*
X024303Y025091D02*
X024423D01*
X024363Y025031D02*
Y025151D01*
X022303Y023891D02*
X022423D01*
X022363Y023831D02*
Y023951D01*
X022303Y024691D02*
X022423D01*
X022363Y024631D02*
Y024751D01*
X022153Y022791D02*
X022273D01*
X022213Y022731D02*
Y022851D01*
X022153Y023041D02*
X022273D01*
X022213Y022981D02*
Y023101D01*
X022503Y022791D02*
X022623D01*
X022563Y022731D02*
Y022851D01*
X022503Y023041D02*
X022623D01*
X022563Y022981D02*
Y023101D01*
X021453Y026491D02*
X021573D01*
X021513Y026431D02*
Y026551D01*
X022153Y025791D02*
X022273D01*
X022213Y025731D02*
Y025851D01*
X022153Y025541D02*
X022273D01*
X022213Y025481D02*
Y025601D01*
X023453Y026691D02*
X023573D01*
X023513Y026631D02*
Y026751D01*
X022503Y025541D02*
X022623D01*
X022563Y025481D02*
Y025601D01*
X022503Y025791D02*
X022623D01*
X022563Y025731D02*
Y025851D01*
X020888Y027041D02*
X021008D01*
X020948Y026981D02*
Y027101D01*
X017541Y020104D02*
X01821D01*
X017876Y01977D02*
Y020439D01*
X01951Y020104D02*
X020179D01*
X019844Y01977D02*
Y020439D01*
X01951Y018136D02*
X020179D01*
X019844Y017801D02*
Y01847D01*
X017541Y018136D02*
X01821D01*
X017876Y017801D02*
Y01847D01*
X018565Y01912D02*
X019155D01*
X01886Y018825D02*
Y019415D01*
X00443Y017184D02*
X005178D01*
X004804Y01681D02*
Y017558D01*
X00443Y018956D02*
X005178D01*
X004804Y018582D02*
Y01933D01*
X008913Y01962D02*
X009307D01*
X00911Y019423D02*
Y019817D01*
X008913Y02062D02*
X009307D01*
X00911Y020423D02*
Y020817D01*
X009913Y01962D02*
X010307D01*
X01011Y019423D02*
Y019817D01*
X009913Y02062D02*
X010307D01*
X01011Y020423D02*
Y020817D01*
X007923Y016993D02*
X008043D01*
X007983Y016933D02*
Y017053D01*
X0199Y01907D02*
X02002D01*
X01996Y01901D02*
Y01913D01*
X0162Y01857D02*
X01632D01*
X01626Y01851D02*
Y01863D01*
X0141Y01837D02*
X01422D01*
X01416Y01831D02*
Y01843D01*
X017869Y019353D02*
X017989D01*
X017929Y019294D02*
Y019413D01*
X017218Y01884D02*
X017338D01*
X017278Y01878D02*
Y0189D01*
X018047Y018798D02*
X018167D01*
X018107Y018738D02*
Y018858D01*
X018818Y018492D02*
X018938D01*
X018878Y018432D02*
Y018552D01*
X019424Y019059D02*
X019544D01*
X019484Y018999D02*
Y019119D01*
X01894Y019734D02*
X01906D01*
X019Y019674D02*
Y019794D01*
X01655Y01617D02*
X01667D01*
X01661Y01611D02*
Y01623D01*
X01715Y01672D02*
X01727D01*
X01721Y01666D02*
Y01678D01*
X01745Y01722D02*
X01757D01*
X01751Y01716D02*
Y01728D01*
X015251Y020769D02*
X015371D01*
X015311Y020709D02*
Y020829D01*
X01705Y01992D02*
X01717D01*
X01711Y01986D02*
Y01998D01*
X0172Y02047D02*
X01732D01*
X01726Y02041D02*
Y02053D01*
X0166Y01992D02*
X01672D01*
X01666Y01986D02*
Y01998D01*
X0166Y02047D02*
X01672D01*
X01666Y02041D02*
Y02053D01*
X0166Y02097D02*
X01672D01*
X01666Y02091D02*
Y02103D01*
X01585Y02002D02*
X01597D01*
X01591Y01996D02*
Y02008D01*
X0124Y01807D02*
X01252D01*
X01246Y01801D02*
Y01813D01*
X0127Y01777D02*
X01282D01*
X01276Y01771D02*
Y01783D01*
X013Y01747D02*
X01312D01*
X01306Y01741D02*
Y01753D01*
X0138Y01722D02*
X01392D01*
X01386Y01716D02*
Y01728D01*
X0138Y01752D02*
X01392D01*
X01386Y01746D02*
Y01758D01*
X013735Y018408D02*
X013855D01*
X013795Y018348D02*
Y018468D01*
X0139Y01907D02*
X01402D01*
X01396Y01901D02*
Y01913D01*
X01375Y01937D02*
X01387D01*
X01381Y01931D02*
Y01943D01*
X015281Y017651D02*
X015401D01*
X015341Y017591D02*
Y017711D01*
X01375Y02017D02*
X01387D01*
X01381Y02011D02*
Y02023D01*
X0117Y02097D02*
X01182D01*
X01176Y02091D02*
Y02103D01*
X0108Y02097D02*
X01092D01*
X01086Y02091D02*
Y02103D01*
X0137Y020999D02*
X01382D01*
X01376Y020939D02*
Y021059D01*
X0196Y01717D02*
X01972D01*
X01966Y01711D02*
Y01723D01*
X0189Y01722D02*
X01902D01*
X01896Y01716D02*
Y01728D01*
X0181Y01722D02*
X01822D01*
X01816Y01716D02*
Y01728D01*
X0196Y01672D02*
X01972D01*
X01966Y01666D02*
Y01678D01*
X0189Y01667D02*
X01902D01*
X01896Y01661D02*
Y01673D01*
X01785Y01672D02*
X01797D01*
X01791Y01666D02*
Y01678D01*
X01955Y01617D02*
X01967D01*
X01961Y01611D02*
Y01623D01*
X0189Y01617D02*
X01902D01*
X01896Y01611D02*
Y01623D01*
X018Y01617D02*
X01812D01*
X01806Y01611D02*
Y01623D01*
X01955Y01567D02*
X01967D01*
X01961Y01561D02*
Y01573D01*
X0185Y01567D02*
X01862D01*
X01856Y01561D02*
Y01573D01*
X01715Y01617D02*
X01727D01*
X01721Y01611D02*
Y01623D01*
X0177Y01562D02*
X01782D01*
X01776Y01556D02*
Y01568D01*
X01685Y01567D02*
X01697D01*
X01691Y01561D02*
Y01573D01*
X01595Y01567D02*
X01607D01*
X01601Y01561D02*
Y01573D01*
X0151Y01567D02*
X01522D01*
X01516Y01561D02*
Y01573D01*
X0119Y020262D02*
X01202D01*
X01196Y020202D02*
Y020322D01*
X0195Y02097D02*
X01962D01*
X01956Y02091D02*
Y02103D01*
X015209Y015261D02*
X015329D01*
X015269Y015201D02*
Y015321D01*
X01445Y01527D02*
X01457D01*
X01451Y01521D02*
Y01533D01*
X016Y01527D02*
X01612D01*
X01606Y01521D02*
Y01533D01*
X01665Y01527D02*
X01677D01*
X01671Y01521D02*
Y01533D01*
X0174Y01527D02*
X01752D01*
X01746Y01521D02*
Y01533D01*
X0182Y01527D02*
X01832D01*
X01826Y01521D02*
Y01533D01*
X0189Y01527D02*
X01902D01*
X01896Y01521D02*
Y01533D01*
X00415Y01602D02*
X00427D01*
X00421Y01596D02*
Y01608D01*
X0084Y01527D02*
X00852D01*
X00846Y01521D02*
Y01533D01*
X00685Y01527D02*
X00697D01*
X00691Y01521D02*
Y01533D01*
X00595Y01527D02*
X00607D01*
X00601Y01521D02*
Y01533D01*
X005Y01527D02*
X00512D01*
X00506Y01521D02*
Y01533D01*
X0042Y01527D02*
X00432D01*
X00426Y01521D02*
Y01533D01*
X0196Y01527D02*
X01972D01*
X01966Y01521D02*
Y01533D01*
X0202Y01527D02*
X02032D01*
X02026Y01521D02*
Y01533D01*
X0202Y01567D02*
X02032D01*
X02026Y01561D02*
Y01573D01*
X0202Y01622D02*
X02032D01*
X02026Y01616D02*
Y01628D01*
X0202Y01672D02*
X02032D01*
X02026Y01666D02*
Y01678D01*
X0202Y01722D02*
X02032D01*
X02026Y01716D02*
Y01728D01*
X0202Y02097D02*
X02032D01*
X02026Y02091D02*
Y02103D01*
X01875Y02097D02*
X01887D01*
X01881Y02091D02*
Y02103D01*
X01805Y02097D02*
X01817D01*
X01811Y02091D02*
Y02103D01*
X01735Y02097D02*
X01747D01*
X01741Y02091D02*
Y02103D01*
X0128Y01927D02*
X01292D01*
X01286Y01921D02*
Y01933D01*
X0119Y02002D02*
X01202D01*
X01196Y01996D02*
Y02008D01*
X01025Y01897D02*
X01037D01*
X01031Y01891D02*
Y01903D01*
X01205Y01827D02*
X01217D01*
X01211Y01821D02*
Y01833D01*
X00905Y01897D02*
X00917D01*
X00911Y01891D02*
Y01903D01*
X0135Y01602D02*
X01362D01*
X01356Y01596D02*
Y01608D01*
X0135Y01622D02*
X01362D01*
X01356Y01616D02*
Y01628D01*
X0084Y020495D02*
X00852D01*
X00846Y020435D02*
Y020555D01*
X0084Y02017D02*
X00852D01*
X00846Y02011D02*
Y02023D01*
X00865Y01667D02*
X00877D01*
X00871Y01661D02*
Y01673D01*
X0097Y01637D02*
X00982D01*
X00976Y01631D02*
Y01643D01*
X0084Y01707D02*
X00852D01*
X00846Y01701D02*
Y01713D01*
X00865Y01707D02*
X00877D01*
X00871Y01701D02*
Y01713D01*
X00865Y01732D02*
X00877D01*
X00871Y01726D02*
Y01738D01*
X0084Y01732D02*
X00852D01*
X00846Y01726D02*
Y01738D01*
X0084Y01942D02*
X00852D01*
X00846Y01936D02*
Y01948D01*
X0084Y01977D02*
X00852D01*
X00846Y01971D02*
Y01983D01*
X00855Y01597D02*
X00867D01*
X00861Y01591D02*
Y01603D01*
X00545Y01607D02*
X00557D01*
X00551Y01601D02*
Y01613D01*
X00975Y01597D02*
X00987D01*
X00981Y01591D02*
Y01603D01*
X009465Y01597D02*
X009585D01*
X009525Y01591D02*
Y01603D01*
X0105Y01752D02*
X01062D01*
X01056Y01746D02*
Y01758D01*
X0097Y01722D02*
X00982D01*
X00976Y01716D02*
Y01728D01*
X01075Y01682D02*
X01087D01*
X01081Y01676D02*
Y01688D01*
X011136Y016759D02*
X011256D01*
X011196Y016699D02*
Y016819D01*
X00445Y02002D02*
X00457D01*
X00451Y01996D02*
Y02008D01*
X00665Y01772D02*
X00677D01*
X00671Y01766D02*
Y01778D01*
X00595Y02037D02*
X00607D01*
X00601Y02031D02*
Y02043D01*
X00745Y01887D02*
X00757D01*
X00751Y01881D02*
Y01893D01*
X01155Y01607D02*
X01167D01*
X01161Y01601D02*
Y01613D01*
X01155Y01722D02*
X01167D01*
X01161Y01716D02*
Y01728D01*
X0122Y01762D02*
X01232D01*
X01226Y01756D02*
Y01768D01*
X01275Y01712D02*
X01287D01*
X01281Y01706D02*
Y01718D01*
X012512Y016682D02*
X012632D01*
X012572Y016622D02*
Y016742D01*
X0123Y01647D02*
X01242D01*
X01236Y01641D02*
Y01653D01*
X012088Y016258D02*
X012208D01*
X012148Y016198D02*
Y016318D01*
X0055Y01932D02*
X00562D01*
X00556Y01926D02*
Y01938D01*
X00585Y01932D02*
X00597D01*
X00591Y01926D02*
Y01938D01*
X00585Y01957D02*
X00597D01*
X00591Y01951D02*
Y01963D01*
X0055Y01957D02*
X00562D01*
X00556Y01951D02*
Y01963D01*
X0055Y01657D02*
X00562D01*
X00556Y01651D02*
Y01663D01*
X00585Y01657D02*
X00597D01*
X00591Y01651D02*
Y01663D01*
X00585Y01682D02*
X00597D01*
X00591Y01676D02*
Y01688D01*
X0055Y01682D02*
X00562D01*
X00556Y01676D02*
Y01688D01*
X0057Y01767D02*
X00582D01*
X00576Y01761D02*
Y01773D01*
X0057Y01842D02*
X00582D01*
X00576Y01836D02*
Y01848D01*
X034195Y020104D02*
X034864D01*
X034529Y01977D02*
Y020439D01*
X036163Y020104D02*
X036832D01*
X036498Y01977D02*
Y020439D01*
X036163Y018136D02*
X036832D01*
X036498Y017801D02*
Y01847D01*
X034195Y018136D02*
X034864D01*
X034529Y017801D02*
Y01847D01*
X035218Y01912D02*
X035809D01*
X035513Y018825D02*
Y019415D01*
X021083Y017184D02*
X021831D01*
X021457Y01681D02*
Y017558D01*
X021083Y018956D02*
X021831D01*
X021457Y018582D02*
Y01933D01*
X025567Y01962D02*
X02596D01*
X025763Y019423D02*
Y019817D01*
X025567Y02062D02*
X02596D01*
X025763Y020423D02*
Y020817D01*
X026567Y01962D02*
X02696D01*
X026763Y019423D02*
Y019817D01*
X026567Y02062D02*
X02696D01*
X026763Y020423D02*
Y020817D01*
X024577Y016993D02*
X024697D01*
X024637Y016933D02*
Y017053D01*
X036553Y01907D02*
X036673D01*
X036613Y01901D02*
Y01913D01*
X032853Y01857D02*
X032973D01*
X032913Y01851D02*
Y01863D01*
X030753Y01837D02*
X030873D01*
X030813Y01831D02*
Y01843D01*
X034523Y019353D02*
X034643D01*
X034583Y019294D02*
Y019413D01*
X033871Y01884D02*
X033991D01*
X033931Y01878D02*
Y0189D01*
X0347Y018798D02*
X03482D01*
X03476Y018738D02*
Y018858D01*
X035472Y018492D02*
X035592D01*
X035532Y018432D02*
Y018552D01*
X036077Y019059D02*
X036197D01*
X036137Y018999D02*
Y019119D01*
X035593Y019734D02*
X035713D01*
X035653Y019674D02*
Y019794D01*
X033203Y01617D02*
X033323D01*
X033263Y01611D02*
Y01623D01*
X033803Y01672D02*
X033923D01*
X033863Y01666D02*
Y01678D01*
X034103Y01722D02*
X034223D01*
X034163Y01716D02*
Y01728D01*
X031905Y020769D02*
X032025D01*
X031965Y020709D02*
Y020829D01*
X033703Y01992D02*
X033823D01*
X033763Y01986D02*
Y01998D01*
X033853Y02047D02*
X033973D01*
X033913Y02041D02*
Y02053D01*
X033253Y01992D02*
X033373D01*
X033313Y01986D02*
Y01998D01*
X033253Y02047D02*
X033373D01*
X033313Y02041D02*
Y02053D01*
X033253Y02097D02*
X033373D01*
X033313Y02091D02*
Y02103D01*
X032503Y02002D02*
X032623D01*
X032563Y01996D02*
Y02008D01*
X029053Y01807D02*
X029173D01*
X029113Y01801D02*
Y01813D01*
X029353Y01777D02*
X029473D01*
X029413Y01771D02*
Y01783D01*
X029653Y01747D02*
X029773D01*
X029713Y01741D02*
Y01753D01*
X030453Y01722D02*
X030573D01*
X030513Y01716D02*
Y01728D01*
X030453Y01752D02*
X030573D01*
X030513Y01746D02*
Y01758D01*
X030389Y018408D02*
X030509D01*
X030449Y018348D02*
Y018468D01*
X030553Y01907D02*
X030673D01*
X030613Y01901D02*
Y01913D01*
X030403Y01937D02*
X030523D01*
X030463Y01931D02*
Y01943D01*
X031935Y017651D02*
X032055D01*
X031995Y017591D02*
Y017711D01*
X030403Y02017D02*
X030523D01*
X030463Y02011D02*
Y02023D01*
X028353Y02097D02*
X028473D01*
X028413Y02091D02*
Y02103D01*
X027453Y02097D02*
X027573D01*
X027513Y02091D02*
Y02103D01*
X030353Y020999D02*
X030473D01*
X030413Y020939D02*
Y021059D01*
X036253Y01717D02*
X036373D01*
X036313Y01711D02*
Y01723D01*
X035553Y01722D02*
X035673D01*
X035613Y01716D02*
Y01728D01*
X034753Y01722D02*
X034873D01*
X034813Y01716D02*
Y01728D01*
X036253Y01672D02*
X036373D01*
X036313Y01666D02*
Y01678D01*
X035553Y01667D02*
X035673D01*
X035613Y01661D02*
Y01673D01*
X034503Y01672D02*
X034623D01*
X034563Y01666D02*
Y01678D01*
X036203Y01617D02*
X036323D01*
X036263Y01611D02*
Y01623D01*
X035553Y01617D02*
X035673D01*
X035613Y01611D02*
Y01623D01*
X034653Y01617D02*
X034773D01*
X034713Y01611D02*
Y01623D01*
X036203Y01567D02*
X036323D01*
X036263Y01561D02*
Y01573D01*
X035153Y01567D02*
X035273D01*
X035213Y01561D02*
Y01573D01*
X033803Y01617D02*
X033923D01*
X033863Y01611D02*
Y01623D01*
X034353Y01562D02*
X034473D01*
X034413Y01556D02*
Y01568D01*
X033503Y01567D02*
X033623D01*
X033563Y01561D02*
Y01573D01*
X032603Y01567D02*
X032723D01*
X032663Y01561D02*
Y01573D01*
X031753Y01567D02*
X031873D01*
X031813Y01561D02*
Y01573D01*
X028553Y020262D02*
X028673D01*
X028613Y020202D02*
Y020322D01*
X036153Y02097D02*
X036273D01*
X036213Y02091D02*
Y02103D01*
X031863Y015261D02*
X031983D01*
X031923Y015201D02*
Y015321D01*
X031103Y01527D02*
X031223D01*
X031163Y01521D02*
Y01533D01*
X032653Y01527D02*
X032773D01*
X032713Y01521D02*
Y01533D01*
X033303Y01527D02*
X033423D01*
X033363Y01521D02*
Y01533D01*
X034053Y01527D02*
X034173D01*
X034113Y01521D02*
Y01533D01*
X034853Y01527D02*
X034973D01*
X034913Y01521D02*
Y01533D01*
X035553Y01527D02*
X035673D01*
X035613Y01521D02*
Y01533D01*
X020803Y01602D02*
X020923D01*
X020863Y01596D02*
Y01608D01*
X025053Y01527D02*
X025173D01*
X025113Y01521D02*
Y01533D01*
X023503Y01527D02*
X023623D01*
X023563Y01521D02*
Y01533D01*
X022603Y01527D02*
X022723D01*
X022663Y01521D02*
Y01533D01*
X021653Y01527D02*
X021773D01*
X021713Y01521D02*
Y01533D01*
X020853Y01527D02*
X020973D01*
X020913Y01521D02*
Y01533D01*
X036253Y01527D02*
X036373D01*
X036313Y01521D02*
Y01533D01*
X036853Y01527D02*
X036973D01*
X036913Y01521D02*
Y01533D01*
X036853Y01567D02*
X036973D01*
X036913Y01561D02*
Y01573D01*
X036853Y01622D02*
X036973D01*
X036913Y01616D02*
Y01628D01*
X036853Y01672D02*
X036973D01*
X036913Y01666D02*
Y01678D01*
X036853Y01722D02*
X036973D01*
X036913Y01716D02*
Y01728D01*
X036853Y02097D02*
X036973D01*
X036913Y02091D02*
Y02103D01*
X035403Y02097D02*
X035523D01*
X035463Y02091D02*
Y02103D01*
X034703Y02097D02*
X034823D01*
X034763Y02091D02*
Y02103D01*
X034003Y02097D02*
X034123D01*
X034063Y02091D02*
Y02103D01*
X029453Y01927D02*
X029573D01*
X029513Y01921D02*
Y01933D01*
X028553Y02002D02*
X028673D01*
X028613Y01996D02*
Y02008D01*
X026903Y01897D02*
X027023D01*
X026963Y01891D02*
Y01903D01*
X028703Y01827D02*
X028823D01*
X028763Y01821D02*
Y01833D01*
X025703Y01897D02*
X025823D01*
X025763Y01891D02*
Y01903D01*
X030153Y01602D02*
X030273D01*
X030213Y01596D02*
Y01608D01*
X030153Y01622D02*
X030273D01*
X030213Y01616D02*
Y01628D01*
X025053Y020495D02*
X025173D01*
X025113Y020435D02*
Y020555D01*
X025053Y02017D02*
X025173D01*
X025113Y02011D02*
Y02023D01*
X025303Y01667D02*
X025423D01*
X025363Y01661D02*
Y01673D01*
X026353Y01637D02*
X026473D01*
X026413Y01631D02*
Y01643D01*
X025053Y01707D02*
X025173D01*
X025113Y01701D02*
Y01713D01*
X025303Y01707D02*
X025423D01*
X025363Y01701D02*
Y01713D01*
X025303Y01732D02*
X025423D01*
X025363Y01726D02*
Y01738D01*
X025053Y01732D02*
X025173D01*
X025113Y01726D02*
Y01738D01*
X025053Y01942D02*
X025173D01*
X025113Y01936D02*
Y01948D01*
X025053Y01977D02*
X025173D01*
X025113Y01971D02*
Y01983D01*
X025203Y01597D02*
X025323D01*
X025263Y01591D02*
Y01603D01*
X022103Y01607D02*
X022223D01*
X022163Y01601D02*
Y01613D01*
X026403Y01597D02*
X026523D01*
X026463Y01591D02*
Y01603D01*
X026119Y01597D02*
X026239D01*
X026179Y01591D02*
Y01603D01*
X027153Y01752D02*
X027273D01*
X027213Y01746D02*
Y01758D01*
X026353Y01722D02*
X026473D01*
X026413Y01716D02*
Y01728D01*
X027403Y01682D02*
X027523D01*
X027463Y01676D02*
Y01688D01*
X02779Y016759D02*
X02791D01*
X02785Y016699D02*
Y016819D01*
X021103Y02002D02*
X021223D01*
X021163Y01996D02*
Y02008D01*
X023303Y01772D02*
X023423D01*
X023363Y01766D02*
Y01778D01*
X022603Y02037D02*
X022723D01*
X022663Y02031D02*
Y02043D01*
X024103Y01887D02*
X024223D01*
X024163Y01881D02*
Y01893D01*
X028203Y01607D02*
X028323D01*
X028263Y01601D02*
Y01613D01*
X028203Y01722D02*
X028323D01*
X028263Y01716D02*
Y01728D01*
X028853Y01762D02*
X028973D01*
X028913Y01756D02*
Y01768D01*
X029403Y01712D02*
X029523D01*
X029463Y01706D02*
Y01718D01*
X029166Y016682D02*
X029286D01*
X029226Y016622D02*
Y016742D01*
X028953Y01647D02*
X029073D01*
X029013Y01641D02*
Y01653D01*
X028741Y016258D02*
X028861D01*
X028801Y016198D02*
Y016318D01*
X022153Y01932D02*
X022273D01*
X022213Y01926D02*
Y01938D01*
X022503Y01932D02*
X022623D01*
X022563Y01926D02*
Y01938D01*
X022503Y01957D02*
X022623D01*
X022563Y01951D02*
Y01963D01*
X022153Y01957D02*
X022273D01*
X022213Y01951D02*
Y01963D01*
X022153Y01657D02*
X022273D01*
X022213Y01651D02*
Y01663D01*
X022503Y01657D02*
X022623D01*
X022563Y01651D02*
Y01663D01*
X022503Y01682D02*
X022623D01*
X022563Y01676D02*
Y01688D01*
X022153Y01682D02*
X022273D01*
X022213Y01676D02*
Y01688D01*
X022353Y01767D02*
X022473D01*
X022413Y01761D02*
Y01773D01*
X022353Y01842D02*
X022473D01*
X022413Y01836D02*
Y01848D01*
M02*
