G04*
G04 #@! TF.GenerationSoftware,Altium Limited,Altium Designer,22.10.1 (41)*
G04*
G04 Layer_Color=8388736*
%FSTAX24Y24*%
%MOIN*%
G70*
G04*
G04 #@! TF.SameCoordinates,3ABB2080-4673-4E4B-9202-AF62ACB4AD27*
G04*
G04*
G04 #@! TF.FilePolarity,Positive*
G04*
G01*
G75*
%ADD92C,0.0118*%
D92*
X050798Y044434D02*
G03*
X050739Y044493I-000059J0D01*
G01*
X05074Y038273D02*
G03*
X050798Y038332I-000001J000059D01*
G01*
Y038214D02*
G03*
X05074Y038273I-000059J0D01*
G01*
X050798Y044434D02*
G03*
X050739Y044493I-000059J0D01*
G01*
X05074Y038273D02*
G03*
X050798Y038332I-000001J000059D01*
G01*
Y038214D02*
G03*
X05074Y038273I-000059J0D01*
G01*
X050798Y031993D02*
G03*
X05074Y032052I-000059J0D01*
G01*
D02*
G03*
X050798Y032111I-000001J000059D01*
G01*
X05074Y032052D02*
G03*
X050798Y032111I-000001J000059D01*
G01*
Y031993D02*
G03*
X05074Y032052I-000059J0D01*
G01*
X034204Y044493D02*
G03*
X034144Y044435I0J-000059D01*
G01*
X034204Y044493D02*
G03*
X034144Y044435I0J-000059D01*
G01*
Y038331D02*
G03*
X034202Y038273I000059J000001D01*
G01*
D02*
G03*
X034144Y038215I000001J-000059D01*
G01*
Y038331D02*
G03*
X034202Y038273I000059J000001D01*
G01*
X034144Y03211D02*
G03*
X034202Y032052I000059J000001D01*
G01*
D02*
G03*
X034144Y031994I000001J-000059D01*
G01*
X034202Y032052D02*
G03*
X034144Y031994I000001J-000059D01*
G01*
X05074Y025832D02*
G03*
X050798Y025891I-000001J000059D01*
G01*
Y025773D02*
G03*
X05074Y025832I-000059J0D01*
G01*
D02*
G03*
X050798Y025891I-000001J000059D01*
G01*
Y025773D02*
G03*
X05074Y025832I-000059J0D01*
G01*
Y019611D02*
G03*
X050798Y01967I-000001J000059D01*
G01*
Y019552D02*
G03*
X05074Y019611I-000059J0D01*
G01*
X050798Y019552D02*
G03*
X05074Y019611I-000059J0D01*
G01*
X050739Y013391D02*
G03*
X050798Y01345I0J000059D01*
G01*
X05074Y019611D02*
G03*
X050798Y01967I-000001J000059D01*
G01*
X050739Y013391D02*
G03*
X050798Y01345I0J000059D01*
G01*
X034144Y02589D02*
G03*
X034202Y025832I000059J000001D01*
G01*
X034144Y02589D02*
G03*
X034202Y025832I000059J000001D01*
G01*
D02*
G03*
X034144Y025774I000001J-000059D01*
G01*
X034202Y025832D02*
G03*
X034144Y025774I000001J-000059D01*
G01*
Y019669D02*
G03*
X034202Y019611I000059J000001D01*
G01*
D02*
G03*
X034144Y019553I000001J-000059D01*
G01*
X034202Y019611D02*
G03*
X034144Y019553I000001J-000059D01*
G01*
Y013449D02*
G03*
X034204Y013391I000059J000001D01*
G01*
X034144Y044435D02*
G03*
X034085Y044493I-000059J-000001D01*
G01*
X034087Y038273D02*
G03*
X034144Y038331I-000001J000059D01*
G01*
X034202Y038273D02*
G03*
X034144Y038215I000001J-000059D01*
G01*
D02*
G03*
X034087Y038273I-000059J-000001D01*
G01*
X034144Y044435D02*
G03*
X034085Y044493I-000059J-000001D01*
G01*
X034087Y038273D02*
G03*
X034144Y038331I-000001J000059D01*
G01*
Y038215D02*
G03*
X034087Y038273I-000059J-000001D01*
G01*
Y032052D02*
G03*
X034144Y03211I-000001J000059D01*
G01*
D02*
G03*
X034202Y032052I000059J000001D01*
G01*
X034144Y031994D02*
G03*
X034087Y032052I-000059J-000001D01*
G01*
X034144Y031994D02*
G03*
X034087Y032052I-000059J-000001D01*
G01*
D02*
G03*
X034144Y03211I-000001J000059D01*
G01*
X01755Y044493D02*
G03*
X017491Y044434I0J-000059D01*
G01*
X01755Y044493D02*
G03*
X017491Y044434I0J-000059D01*
G01*
Y038332D02*
G03*
X017549Y038273I000059J0D01*
G01*
D02*
G03*
X017491Y038214I000001J-000059D01*
G01*
Y038332D02*
G03*
X017549Y038273I000059J0D01*
G01*
D02*
G03*
X017491Y038214I000001J-000059D01*
G01*
Y032111D02*
G03*
X017549Y032052I000059J0D01*
G01*
D02*
G03*
X017491Y031993I000001J-000059D01*
G01*
Y032111D02*
G03*
X017549Y032052I000059J0D01*
G01*
D02*
G03*
X017491Y031993I000001J-000059D01*
G01*
X034087Y025832D02*
G03*
X034144Y02589I-000001J000059D01*
G01*
Y025774D02*
G03*
X034087Y025832I-000059J-000001D01*
G01*
X034144Y019669D02*
G03*
X034202Y019611I000059J000001D01*
G01*
X034087Y025832D02*
G03*
X034144Y02589I-000001J000059D01*
G01*
Y025774D02*
G03*
X034087Y025832I-000059J-000001D01*
G01*
Y019611D02*
G03*
X034144Y019669I-000001J000059D01*
G01*
Y019553D02*
G03*
X034087Y019611I-000059J-000001D01*
G01*
D02*
G03*
X034144Y019669I-000001J000059D01*
G01*
X034085Y013391D02*
G03*
X034144Y013449I0J000059D01*
G01*
D02*
G03*
X034204Y013391I000059J000001D01*
G01*
X034144Y019553D02*
G03*
X034087Y019611I-000059J-000001D01*
G01*
X034085Y013391D02*
G03*
X034144Y013449I0J000059D01*
G01*
X017491Y025891D02*
G03*
X017549Y025832I000059J0D01*
G01*
X017491Y025891D02*
G03*
X017549Y025832I000059J0D01*
G01*
D02*
G03*
X017491Y025773I000001J-000059D01*
G01*
X017549Y025832D02*
G03*
X017491Y025773I000001J-000059D01*
G01*
Y01967D02*
G03*
X017549Y019611I000059J0D01*
G01*
X017491Y01967D02*
G03*
X017549Y019611I000059J0D01*
G01*
D02*
G03*
X017491Y019552I000001J-000059D01*
G01*
X017549Y019611D02*
G03*
X017491Y019552I000001J-000059D01*
G01*
Y01345D02*
G03*
X01755Y013391I000059J0D01*
G01*
X017491Y01345D02*
G03*
X01755Y013391I000059J0D01*
G01*
X0151Y019611D02*
X0525Y019611D01*
X0151Y025832D02*
X0525Y025832D01*
X0151Y032052D02*
X0525Y032052D01*
X0151Y038273D02*
X0525Y038273D01*
X034144Y0456D02*
X034144Y01215D01*
X050798Y038332D02*
Y0456D01*
Y032111D02*
Y038214D01*
X034204Y044493D02*
X0525D01*
X050798Y025891D02*
Y031993D01*
Y01967D02*
Y025773D01*
Y01215D02*
Y019552D01*
X034204Y013391D02*
X0525D01*
X0151Y044493D02*
X034085Y044493D01*
X017491Y038332D02*
Y0456D01*
Y032111D02*
Y038214D01*
X0151Y013391D02*
X034085Y013391D01*
X017491Y025891D02*
Y031993D01*
Y01967D02*
Y025773D01*
Y01215D02*
Y019552D01*
M02*
