G04*
G04 #@! TF.GenerationSoftware,Altium Limited,Altium Designer,22.10.1 (41)*
G04*
G04 Layer_Color=128*
%FSTAX24Y24*%
%MOIN*%
G70*
G04*
G04 #@! TF.SameCoordinates,45835C21-10AE-4195-8F6B-2C948669ADBA*
G04*
G04*
G04 #@! TF.FilePolarity,Positive*
G04*
G01*
G75*
%ADD97C,0.0020*%
D97*
X022112Y018328D02*
X022447D01*
X022279Y01816D02*
Y018495D01*
X022112Y019115D02*
X022447D01*
X022279Y018948D02*
Y019282D01*
X022899Y018328D02*
X023234D01*
X023067Y01816D02*
Y018495D01*
X022899Y019115D02*
X023234D01*
X023067Y018948D02*
Y019282D01*
X01807Y017371D02*
X018818D01*
X018444Y016997D02*
Y017745D01*
X01807Y0156D02*
X018818D01*
X018444Y015226D02*
Y015974D01*
X024813Y017871D02*
X024933D01*
X024873Y017811D02*
Y017931D01*
X018713Y018171D02*
X018833D01*
X018773Y018111D02*
Y018231D01*
X017863Y019171D02*
X017983D01*
X017923Y019111D02*
Y019231D01*
X018413Y016471D02*
X018533D01*
X018473Y016411D02*
Y016531D01*
X020213Y016471D02*
X020333D01*
X020273Y016411D02*
Y016531D01*
X031413Y015671D02*
X031533D01*
X031473Y015611D02*
Y015731D01*
X033213Y018371D02*
X033333D01*
X033273Y018311D02*
Y018431D01*
X033213Y014771D02*
X033333D01*
X033273Y014711D02*
Y014831D01*
X033213Y013871D02*
X033333D01*
X033273Y013811D02*
Y013931D01*
X032313Y018371D02*
X032433D01*
X032373Y018311D02*
Y018431D01*
X032313Y015671D02*
X032433D01*
X032373Y015611D02*
Y015731D01*
X032313Y014771D02*
X032433D01*
X032373Y014711D02*
Y014831D01*
X032313Y013871D02*
X032433D01*
X032373Y013811D02*
Y013931D01*
X031413Y018371D02*
X031533D01*
X031473Y018311D02*
Y018431D01*
X031413Y016571D02*
X031533D01*
X031473Y016511D02*
Y016631D01*
X031413Y014771D02*
X031533D01*
X031473Y014711D02*
Y014831D01*
X031413Y013871D02*
X031533D01*
X031473Y013811D02*
Y013931D01*
X030513Y016571D02*
X030633D01*
X030573Y016511D02*
Y016631D01*
X030513Y015671D02*
X030633D01*
X030573Y015611D02*
Y015731D01*
X030513Y014771D02*
X030633D01*
X030573Y014711D02*
Y014831D01*
X030513Y013871D02*
X030633D01*
X030573Y013811D02*
Y013931D01*
X029613Y014771D02*
X029733D01*
X029673Y014711D02*
Y014831D01*
X029613Y013871D02*
X029733D01*
X029673Y013811D02*
Y013931D01*
X028713Y013871D02*
X028833D01*
X028773Y013811D02*
Y013931D01*
X027813Y013871D02*
X027933D01*
X027873Y013811D02*
Y013931D01*
X026913Y013871D02*
X027033D01*
X026973Y013811D02*
Y013931D01*
X018813Y013871D02*
X018933D01*
X018873Y013811D02*
Y013931D01*
X017913Y013871D02*
X018033D01*
X017973Y013811D02*
Y013931D01*
X028313Y015921D02*
X028433D01*
X028373Y015861D02*
Y015981D01*
X028613Y015521D02*
X028733D01*
X028673Y015461D02*
Y015581D01*
X028613Y014971D02*
X028733D01*
X028673Y014911D02*
Y015031D01*
X026913Y015521D02*
X027033D01*
X026973Y015461D02*
Y015581D01*
X026913Y014971D02*
X027033D01*
X026973Y014911D02*
Y015031D01*
X027263Y014671D02*
X027383D01*
X027323Y014611D02*
Y014731D01*
X031413Y019221D02*
X031533D01*
X031473Y019161D02*
Y019281D01*
X032263Y019221D02*
X032383D01*
X032323Y019161D02*
Y019281D01*
X033163Y019221D02*
X033283D01*
X033223Y019161D02*
Y019281D01*
X029913Y017921D02*
X030033D01*
X029973Y017861D02*
Y017981D01*
X031219Y017304D02*
X031339D01*
X031279Y017244D02*
Y017364D01*
X031874Y016794D02*
X031994D01*
X031934Y016734D02*
Y016854D01*
X031867Y017633D02*
X031987D01*
X031927Y017573D02*
Y017693D01*
X033813Y016046D02*
X033933D01*
X033873Y015986D02*
Y016106D01*
X033213Y016046D02*
X033333D01*
X033273Y015986D02*
Y016106D01*
X032613Y016046D02*
X032733D01*
X032673Y015986D02*
Y016106D01*
X032613Y016997D02*
X032733D01*
X032673Y016937D02*
Y017057D01*
X033213Y016997D02*
X033333D01*
X033273Y016937D02*
Y017057D01*
X033813Y016997D02*
X033933D01*
X033873Y016937D02*
Y017057D01*
X031263Y017921D02*
X031383D01*
X031323Y017861D02*
Y017981D01*
X022863Y015421D02*
X022983D01*
X022923Y015361D02*
Y015481D01*
X028163Y016371D02*
X028283D01*
X028223Y016311D02*
Y016431D01*
X028763Y016371D02*
X028883D01*
X028823Y016311D02*
Y016431D01*
X029313Y017921D02*
X029433D01*
X029373Y017861D02*
Y017981D01*
X030513Y017921D02*
X030633D01*
X030573Y017861D02*
Y017981D01*
X030013Y017221D02*
X030133D01*
X030073Y017161D02*
Y017281D01*
X030613Y017221D02*
X030733D01*
X030673Y017161D02*
Y017281D01*
X020313Y017271D02*
X020433D01*
X020373Y017211D02*
Y017331D01*
X020713Y017271D02*
X020833D01*
X020773Y017211D02*
Y017331D01*
X026363Y016771D02*
X026483D01*
X026423Y016711D02*
Y016831D01*
X026313Y017521D02*
X026433D01*
X026373Y017461D02*
Y017581D01*
X025966Y016632D02*
X026086D01*
X026026Y016572D02*
Y016692D01*
X025163Y015871D02*
X025283D01*
X025223Y015811D02*
Y015931D01*
X024413Y016671D02*
X024533D01*
X024473Y016611D02*
Y016731D01*
X026013Y015771D02*
X026133D01*
X026073Y015711D02*
Y015831D01*
X023063Y016271D02*
X023183D01*
X023123Y016211D02*
Y016331D01*
X022513Y015721D02*
X022633D01*
X022573Y015661D02*
Y015781D01*
X026363Y018371D02*
X026483D01*
X026423Y018311D02*
Y018431D01*
X029363Y015871D02*
X029483D01*
X029423Y015811D02*
Y015931D01*
X029363Y016371D02*
X029483D01*
X029423Y016311D02*
Y016431D01*
X019563Y018721D02*
X019683D01*
X019623Y018661D02*
Y018781D01*
X025263Y019171D02*
X025383D01*
X025323Y019111D02*
Y019231D01*
X023863Y019171D02*
X023983D01*
X023923Y019111D02*
Y019231D01*
X029563Y018571D02*
X029683D01*
X029623Y018511D02*
Y018631D01*
X021563Y016021D02*
X021683D01*
X021623Y015961D02*
Y016081D01*
X022263Y017521D02*
X022383D01*
X022323Y017461D02*
Y017581D01*
X027363Y016121D02*
X027483D01*
X027423Y016061D02*
Y016181D01*
X028263Y014671D02*
X028383D01*
X028323Y014611D02*
Y014731D01*
X027763Y014671D02*
X027883D01*
X027823Y014611D02*
Y014731D01*
X024313Y014621D02*
X024433D01*
X024373Y014561D02*
Y014681D01*
X024463Y016071D02*
X024583D01*
X024523Y016011D02*
Y016131D01*
X024113Y016171D02*
X024233D01*
X024173Y016111D02*
Y016231D01*
X024813Y015071D02*
X024933D01*
X024873Y015011D02*
Y015131D01*
X023813Y014421D02*
X023933D01*
X023873Y014361D02*
Y014481D01*
X023563Y014671D02*
X023683D01*
X023623Y014611D02*
Y014731D01*
X023313Y014921D02*
X023433D01*
X023373Y014861D02*
Y014981D01*
X023213Y015271D02*
X023333D01*
X023273Y015211D02*
Y015331D01*
X023513Y015571D02*
X023633D01*
X023573Y015511D02*
Y015631D01*
X023813Y015871D02*
X023933D01*
X023873Y015811D02*
Y015931D01*
X024763Y015821D02*
X024883D01*
X024823Y015761D02*
Y015881D01*
X024963Y015571D02*
X025083D01*
X025023Y015511D02*
Y015631D01*
X028813Y018921D02*
X028933D01*
X028873Y018861D02*
Y018981D01*
X026263Y019021D02*
X026383D01*
X026323Y018961D02*
Y019081D01*
X027413Y019071D02*
X027533D01*
X027473Y019011D02*
Y019131D01*
X020713Y015671D02*
X020833D01*
X020773Y015611D02*
Y015731D01*
X020663Y015221D02*
X020783D01*
X020723Y015161D02*
Y015281D01*
X021563Y018821D02*
X021683D01*
X021623Y018761D02*
Y018881D01*
X020763Y019171D02*
X020883D01*
X020823Y019111D02*
Y019231D01*
X024163Y018621D02*
X024283D01*
X024223Y018561D02*
Y018681D01*
X019463Y015221D02*
X019583D01*
X019523Y015161D02*
Y015281D01*
X023913Y016921D02*
X024033D01*
X023973Y016861D02*
Y016981D01*
X025713Y014271D02*
X025833D01*
X025773Y014211D02*
Y014331D01*
X023963Y013721D02*
X024083D01*
X024023Y013661D02*
Y013781D01*
X020813Y014521D02*
X020933D01*
X020873Y014461D02*
Y014581D01*
X018463Y014571D02*
X018583D01*
X018523Y014511D02*
Y014631D01*
X019163Y015221D02*
X019283D01*
X019223Y015161D02*
Y015281D01*
X019163Y014971D02*
X019283D01*
X019223Y014911D02*
Y015031D01*
X019463Y014971D02*
X019583D01*
X019523Y014911D02*
Y015031D01*
X020463Y018221D02*
X020583D01*
X020523Y018161D02*
Y018281D01*
X019337Y016858D02*
X019457D01*
X019397Y016798D02*
Y016918D01*
X019309Y016092D02*
X019429D01*
X019369Y016032D02*
Y016152D01*
X026113Y014271D02*
X026233D01*
X026173Y014211D02*
Y014331D01*
X038765Y018328D02*
X0391D01*
X038933Y01816D02*
Y018495D01*
X038765Y019115D02*
X0391D01*
X038933Y018948D02*
Y019282D01*
X039553Y018328D02*
X039887D01*
X03972Y01816D02*
Y018495D01*
X039553Y019115D02*
X039887D01*
X03972Y018948D02*
Y019282D01*
X034723Y017371D02*
X035471D01*
X035097Y016997D02*
Y017745D01*
X034723Y0156D02*
X035471D01*
X035097Y015226D02*
Y015974D01*
X041466Y017871D02*
X041586D01*
X041526Y017811D02*
Y017931D01*
X035366Y018171D02*
X035486D01*
X035426Y018111D02*
Y018231D01*
X034516Y019171D02*
X034636D01*
X034576Y019111D02*
Y019231D01*
X035066Y016471D02*
X035186D01*
X035126Y016411D02*
Y016531D01*
X036866Y016471D02*
X036986D01*
X036926Y016411D02*
Y016531D01*
X048066Y015671D02*
X048186D01*
X048126Y015611D02*
Y015731D01*
X049866Y018371D02*
X049986D01*
X049926Y018311D02*
Y018431D01*
X049866Y014771D02*
X049986D01*
X049926Y014711D02*
Y014831D01*
X049866Y013871D02*
X049986D01*
X049926Y013811D02*
Y013931D01*
X048966Y018371D02*
X049086D01*
X049026Y018311D02*
Y018431D01*
X048966Y015671D02*
X049086D01*
X049026Y015611D02*
Y015731D01*
X048966Y014771D02*
X049086D01*
X049026Y014711D02*
Y014831D01*
X048966Y013871D02*
X049086D01*
X049026Y013811D02*
Y013931D01*
X048066Y018371D02*
X048186D01*
X048126Y018311D02*
Y018431D01*
X048066Y016571D02*
X048186D01*
X048126Y016511D02*
Y016631D01*
X048066Y014771D02*
X048186D01*
X048126Y014711D02*
Y014831D01*
X048066Y013871D02*
X048186D01*
X048126Y013811D02*
Y013931D01*
X047166Y016571D02*
X047286D01*
X047226Y016511D02*
Y016631D01*
X047166Y015671D02*
X047286D01*
X047226Y015611D02*
Y015731D01*
X047166Y014771D02*
X047286D01*
X047226Y014711D02*
Y014831D01*
X047166Y013871D02*
X047286D01*
X047226Y013811D02*
Y013931D01*
X046266Y014771D02*
X046386D01*
X046326Y014711D02*
Y014831D01*
X046266Y013871D02*
X046386D01*
X046326Y013811D02*
Y013931D01*
X045366Y013871D02*
X045486D01*
X045426Y013811D02*
Y013931D01*
X044466Y013871D02*
X044586D01*
X044526Y013811D02*
Y013931D01*
X043566Y013871D02*
X043686D01*
X043626Y013811D02*
Y013931D01*
X035466Y013871D02*
X035586D01*
X035526Y013811D02*
Y013931D01*
X034566Y013871D02*
X034686D01*
X034626Y013811D02*
Y013931D01*
X044966Y015921D02*
X045086D01*
X045026Y015861D02*
Y015981D01*
X045266Y015521D02*
X045386D01*
X045326Y015461D02*
Y015581D01*
X045266Y014971D02*
X045386D01*
X045326Y014911D02*
Y015031D01*
X043566Y015521D02*
X043686D01*
X043626Y015461D02*
Y015581D01*
X043566Y014971D02*
X043686D01*
X043626Y014911D02*
Y015031D01*
X043916Y014671D02*
X044036D01*
X043976Y014611D02*
Y014731D01*
X048066Y019221D02*
X048186D01*
X048126Y019161D02*
Y019281D01*
X048916Y019221D02*
X049036D01*
X048976Y019161D02*
Y019281D01*
X049816Y019221D02*
X049936D01*
X049876Y019161D02*
Y019281D01*
X046566Y017921D02*
X046686D01*
X046626Y017861D02*
Y017981D01*
X047873Y017304D02*
X047993D01*
X047933Y017244D02*
Y017364D01*
X048528Y016794D02*
X048648D01*
X048588Y016734D02*
Y016854D01*
X04852Y017633D02*
X04864D01*
X04858Y017573D02*
Y017693D01*
X050466Y016046D02*
X050586D01*
X050526Y015986D02*
Y016106D01*
X049866Y016046D02*
X049986D01*
X049926Y015986D02*
Y016106D01*
X049266Y016046D02*
X049386D01*
X049326Y015986D02*
Y016106D01*
X049266Y016997D02*
X049386D01*
X049326Y016937D02*
Y017057D01*
X049866Y016997D02*
X049986D01*
X049926Y016937D02*
Y017057D01*
X050466Y016997D02*
X050586D01*
X050526Y016937D02*
Y017057D01*
X047916Y017921D02*
X048036D01*
X047976Y017861D02*
Y017981D01*
X039516Y015421D02*
X039636D01*
X039576Y015361D02*
Y015481D01*
X044816Y016371D02*
X044936D01*
X044876Y016311D02*
Y016431D01*
X045416Y016371D02*
X045536D01*
X045476Y016311D02*
Y016431D01*
X045966Y017921D02*
X046086D01*
X046026Y017861D02*
Y017981D01*
X047166Y017921D02*
X047286D01*
X047226Y017861D02*
Y017981D01*
X046666Y017221D02*
X046786D01*
X046726Y017161D02*
Y017281D01*
X047266Y017221D02*
X047386D01*
X047326Y017161D02*
Y017281D01*
X036966Y017271D02*
X037086D01*
X037026Y017211D02*
Y017331D01*
X037366Y017271D02*
X037486D01*
X037426Y017211D02*
Y017331D01*
X043016Y016771D02*
X043136D01*
X043076Y016711D02*
Y016831D01*
X042966Y017521D02*
X043086D01*
X043026Y017461D02*
Y017581D01*
X04262Y016632D02*
X04274D01*
X04268Y016572D02*
Y016692D01*
X041816Y015871D02*
X041936D01*
X041876Y015811D02*
Y015931D01*
X041066Y016671D02*
X041186D01*
X041126Y016611D02*
Y016731D01*
X042666Y015771D02*
X042786D01*
X042726Y015711D02*
Y015831D01*
X039716Y016271D02*
X039836D01*
X039776Y016211D02*
Y016331D01*
X039166Y015721D02*
X039286D01*
X039226Y015661D02*
Y015781D01*
X043016Y018371D02*
X043136D01*
X043076Y018311D02*
Y018431D01*
X046016Y015871D02*
X046136D01*
X046076Y015811D02*
Y015931D01*
X046016Y016371D02*
X046136D01*
X046076Y016311D02*
Y016431D01*
X036216Y018721D02*
X036336D01*
X036276Y018661D02*
Y018781D01*
X041916Y019171D02*
X042036D01*
X041976Y019111D02*
Y019231D01*
X040516Y019171D02*
X040636D01*
X040576Y019111D02*
Y019231D01*
X046216Y018571D02*
X046336D01*
X046276Y018511D02*
Y018631D01*
X038216Y016021D02*
X038336D01*
X038276Y015961D02*
Y016081D01*
X038916Y017521D02*
X039036D01*
X038976Y017461D02*
Y017581D01*
X044016Y016121D02*
X044136D01*
X044076Y016061D02*
Y016181D01*
X044916Y014671D02*
X045036D01*
X044976Y014611D02*
Y014731D01*
X044416Y014671D02*
X044536D01*
X044476Y014611D02*
Y014731D01*
X040966Y014621D02*
X041086D01*
X041026Y014561D02*
Y014681D01*
X041116Y016071D02*
X041236D01*
X041176Y016011D02*
Y016131D01*
X040766Y016171D02*
X040886D01*
X040826Y016111D02*
Y016231D01*
X041466Y015071D02*
X041586D01*
X041526Y015011D02*
Y015131D01*
X040466Y014421D02*
X040586D01*
X040526Y014361D02*
Y014481D01*
X040216Y014671D02*
X040336D01*
X040276Y014611D02*
Y014731D01*
X039966Y014921D02*
X040086D01*
X040026Y014861D02*
Y014981D01*
X039866Y015271D02*
X039986D01*
X039926Y015211D02*
Y015331D01*
X040166Y015571D02*
X040286D01*
X040226Y015511D02*
Y015631D01*
X040466Y015871D02*
X040586D01*
X040526Y015811D02*
Y015931D01*
X041416Y015821D02*
X041536D01*
X041476Y015761D02*
Y015881D01*
X041616Y015571D02*
X041736D01*
X041676Y015511D02*
Y015631D01*
X045466Y018921D02*
X045586D01*
X045526Y018861D02*
Y018981D01*
X042916Y019021D02*
X043036D01*
X042976Y018961D02*
Y019081D01*
X044066Y019071D02*
X044186D01*
X044126Y019011D02*
Y019131D01*
X037366Y015671D02*
X037486D01*
X037426Y015611D02*
Y015731D01*
X037316Y015221D02*
X037436D01*
X037376Y015161D02*
Y015281D01*
X038216Y018821D02*
X038336D01*
X038276Y018761D02*
Y018881D01*
X037416Y019171D02*
X037536D01*
X037476Y019111D02*
Y019231D01*
X040816Y018621D02*
X040936D01*
X040876Y018561D02*
Y018681D01*
X036116Y015221D02*
X036236D01*
X036176Y015161D02*
Y015281D01*
X040566Y016921D02*
X040686D01*
X040626Y016861D02*
Y016981D01*
X042366Y014271D02*
X042486D01*
X042426Y014211D02*
Y014331D01*
X040616Y013721D02*
X040736D01*
X040676Y013661D02*
Y013781D01*
X037466Y014521D02*
X037586D01*
X037526Y014461D02*
Y014581D01*
X035116Y014571D02*
X035236D01*
X035176Y014511D02*
Y014631D01*
X035816Y015221D02*
X035936D01*
X035876Y015161D02*
Y015281D01*
X035816Y014971D02*
X035936D01*
X035876Y014911D02*
Y015031D01*
X036116Y014971D02*
X036236D01*
X036176Y014911D02*
Y015031D01*
X037116Y018221D02*
X037236D01*
X037176Y018161D02*
Y018281D01*
X03599Y016858D02*
X03611D01*
X03605Y016798D02*
Y016918D01*
X035963Y016092D02*
X036083D01*
X036023Y016032D02*
Y016152D01*
X042766Y014271D02*
X042886D01*
X042826Y014211D02*
Y014331D01*
X022112Y024548D02*
X022447D01*
X022279Y024381D02*
Y024715D01*
X022112Y025336D02*
X022447D01*
X022279Y025168D02*
Y025503D01*
X022899Y024548D02*
X023234D01*
X023067Y024381D02*
Y024715D01*
X022899Y025336D02*
X023234D01*
X023067Y025168D02*
Y025503D01*
X01807Y023592D02*
X018818D01*
X018444Y023218D02*
Y023966D01*
X01807Y02182D02*
X018818D01*
X018444Y021446D02*
Y022194D01*
X024813Y024092D02*
X024933D01*
X024873Y024032D02*
Y024152D01*
X018713Y024392D02*
X018833D01*
X018773Y024332D02*
Y024452D01*
X017863Y025392D02*
X017983D01*
X017923Y025332D02*
Y025452D01*
X018413Y022692D02*
X018533D01*
X018473Y022632D02*
Y022752D01*
X020213Y022692D02*
X020333D01*
X020273Y022632D02*
Y022752D01*
X031413Y021892D02*
X031533D01*
X031473Y021832D02*
Y021952D01*
X033213Y024592D02*
X033333D01*
X033273Y024532D02*
Y024652D01*
X033213Y020992D02*
X033333D01*
X033273Y020932D02*
Y021052D01*
X033213Y020092D02*
X033333D01*
X033273Y020032D02*
Y020152D01*
X032313Y024592D02*
X032433D01*
X032373Y024532D02*
Y024652D01*
X032313Y021892D02*
X032433D01*
X032373Y021832D02*
Y021952D01*
X032313Y020992D02*
X032433D01*
X032373Y020932D02*
Y021052D01*
X032313Y020092D02*
X032433D01*
X032373Y020032D02*
Y020152D01*
X031413Y024592D02*
X031533D01*
X031473Y024532D02*
Y024652D01*
X031413Y022792D02*
X031533D01*
X031473Y022732D02*
Y022852D01*
X031413Y020992D02*
X031533D01*
X031473Y020932D02*
Y021052D01*
X031413Y020092D02*
X031533D01*
X031473Y020032D02*
Y020152D01*
X030513Y022792D02*
X030633D01*
X030573Y022732D02*
Y022852D01*
X030513Y021892D02*
X030633D01*
X030573Y021832D02*
Y021952D01*
X030513Y020992D02*
X030633D01*
X030573Y020932D02*
Y021052D01*
X030513Y020092D02*
X030633D01*
X030573Y020032D02*
Y020152D01*
X029613Y020992D02*
X029733D01*
X029673Y020932D02*
Y021052D01*
X029613Y020092D02*
X029733D01*
X029673Y020032D02*
Y020152D01*
X028713Y020092D02*
X028833D01*
X028773Y020032D02*
Y020152D01*
X027813Y020092D02*
X027933D01*
X027873Y020032D02*
Y020152D01*
X026913Y020092D02*
X027033D01*
X026973Y020032D02*
Y020152D01*
X018813Y020092D02*
X018933D01*
X018873Y020032D02*
Y020152D01*
X017913Y020092D02*
X018033D01*
X017973Y020032D02*
Y020152D01*
X028313Y022142D02*
X028433D01*
X028373Y022082D02*
Y022202D01*
X028613Y021742D02*
X028733D01*
X028673Y021682D02*
Y021802D01*
X028613Y021192D02*
X028733D01*
X028673Y021132D02*
Y021252D01*
X026913Y021742D02*
X027033D01*
X026973Y021682D02*
Y021802D01*
X026913Y021192D02*
X027033D01*
X026973Y021132D02*
Y021252D01*
X027263Y020892D02*
X027383D01*
X027323Y020832D02*
Y020952D01*
X031413Y025442D02*
X031533D01*
X031473Y025382D02*
Y025502D01*
X032263Y025442D02*
X032383D01*
X032323Y025382D02*
Y025502D01*
X033163Y025442D02*
X033283D01*
X033223Y025382D02*
Y025502D01*
X029913Y024142D02*
X030033D01*
X029973Y024082D02*
Y024202D01*
X031219Y023525D02*
X031339D01*
X031279Y023465D02*
Y023585D01*
X031874Y023015D02*
X031994D01*
X031934Y022955D02*
Y023075D01*
X031867Y023854D02*
X031987D01*
X031927Y023794D02*
Y023914D01*
X033813Y022266D02*
X033933D01*
X033873Y022206D02*
Y022326D01*
X033213Y022266D02*
X033333D01*
X033273Y022206D02*
Y022326D01*
X032613Y022266D02*
X032733D01*
X032673Y022206D02*
Y022326D01*
X032613Y023217D02*
X032733D01*
X032673Y023157D02*
Y023277D01*
X033213Y023217D02*
X033333D01*
X033273Y023157D02*
Y023277D01*
X033813Y023217D02*
X033933D01*
X033873Y023157D02*
Y023277D01*
X031263Y024142D02*
X031383D01*
X031323Y024082D02*
Y024202D01*
X022863Y021642D02*
X022983D01*
X022923Y021582D02*
Y021702D01*
X028163Y022592D02*
X028283D01*
X028223Y022532D02*
Y022652D01*
X028763Y022592D02*
X028883D01*
X028823Y022532D02*
Y022652D01*
X029313Y024142D02*
X029433D01*
X029373Y024082D02*
Y024202D01*
X030513Y024142D02*
X030633D01*
X030573Y024082D02*
Y024202D01*
X030013Y023442D02*
X030133D01*
X030073Y023382D02*
Y023502D01*
X030613Y023442D02*
X030733D01*
X030673Y023382D02*
Y023502D01*
X020313Y023492D02*
X020433D01*
X020373Y023432D02*
Y023552D01*
X020713Y023492D02*
X020833D01*
X020773Y023432D02*
Y023552D01*
X026363Y022992D02*
X026483D01*
X026423Y022932D02*
Y023052D01*
X026313Y023742D02*
X026433D01*
X026373Y023682D02*
Y023802D01*
X025966Y022853D02*
X026086D01*
X026026Y022793D02*
Y022913D01*
X025163Y022092D02*
X025283D01*
X025223Y022032D02*
Y022152D01*
X024413Y022892D02*
X024533D01*
X024473Y022832D02*
Y022952D01*
X026013Y021992D02*
X026133D01*
X026073Y021932D02*
Y022052D01*
X023063Y022492D02*
X023183D01*
X023123Y022432D02*
Y022552D01*
X022513Y021942D02*
X022633D01*
X022573Y021882D02*
Y022002D01*
X026363Y024592D02*
X026483D01*
X026423Y024532D02*
Y024652D01*
X029363Y022092D02*
X029483D01*
X029423Y022032D02*
Y022152D01*
X029363Y022592D02*
X029483D01*
X029423Y022532D02*
Y022652D01*
X019563Y024942D02*
X019683D01*
X019623Y024882D02*
Y025002D01*
X025263Y025392D02*
X025383D01*
X025323Y025332D02*
Y025452D01*
X023863Y025392D02*
X023983D01*
X023923Y025332D02*
Y025452D01*
X029563Y024792D02*
X029683D01*
X029623Y024732D02*
Y024852D01*
X021563Y022242D02*
X021683D01*
X021623Y022182D02*
Y022302D01*
X022263Y023742D02*
X022383D01*
X022323Y023682D02*
Y023802D01*
X027363Y022342D02*
X027483D01*
X027423Y022282D02*
Y022402D01*
X028263Y020892D02*
X028383D01*
X028323Y020832D02*
Y020952D01*
X027763Y020892D02*
X027883D01*
X027823Y020832D02*
Y020952D01*
X024313Y020842D02*
X024433D01*
X024373Y020782D02*
Y020902D01*
X024463Y022292D02*
X024583D01*
X024523Y022232D02*
Y022352D01*
X024113Y022392D02*
X024233D01*
X024173Y022332D02*
Y022452D01*
X024813Y021292D02*
X024933D01*
X024873Y021232D02*
Y021352D01*
X023813Y020642D02*
X023933D01*
X023873Y020582D02*
Y020702D01*
X023563Y020892D02*
X023683D01*
X023623Y020832D02*
Y020952D01*
X023313Y021142D02*
X023433D01*
X023373Y021082D02*
Y021202D01*
X023213Y021492D02*
X023333D01*
X023273Y021432D02*
Y021552D01*
X023513Y021792D02*
X023633D01*
X023573Y021732D02*
Y021852D01*
X023813Y022092D02*
X023933D01*
X023873Y022032D02*
Y022152D01*
X024763Y022042D02*
X024883D01*
X024823Y021982D02*
Y022102D01*
X024963Y021792D02*
X025083D01*
X025023Y021732D02*
Y021852D01*
X028813Y025142D02*
X028933D01*
X028873Y025082D02*
Y025202D01*
X026263Y025242D02*
X026383D01*
X026323Y025182D02*
Y025302D01*
X027413Y025292D02*
X027533D01*
X027473Y025232D02*
Y025352D01*
X020713Y021892D02*
X020833D01*
X020773Y021832D02*
Y021952D01*
X020663Y021442D02*
X020783D01*
X020723Y021382D02*
Y021502D01*
X021563Y025042D02*
X021683D01*
X021623Y024982D02*
Y025102D01*
X020763Y025392D02*
X020883D01*
X020823Y025332D02*
Y025452D01*
X024163Y024842D02*
X024283D01*
X024223Y024782D02*
Y024902D01*
X019463Y021442D02*
X019583D01*
X019523Y021382D02*
Y021502D01*
X023913Y023142D02*
X024033D01*
X023973Y023082D02*
Y023202D01*
X025713Y020492D02*
X025833D01*
X025773Y020432D02*
Y020552D01*
X023963Y019942D02*
X024083D01*
X024023Y019882D02*
Y020002D01*
X020813Y020742D02*
X020933D01*
X020873Y020682D02*
Y020802D01*
X018463Y020792D02*
X018583D01*
X018523Y020732D02*
Y020852D01*
X019163Y021442D02*
X019283D01*
X019223Y021382D02*
Y021502D01*
X019163Y021192D02*
X019283D01*
X019223Y021132D02*
Y021252D01*
X019463Y021192D02*
X019583D01*
X019523Y021132D02*
Y021252D01*
X020463Y024442D02*
X020583D01*
X020523Y024382D02*
Y024502D01*
X019337Y023079D02*
X019457D01*
X019397Y023019D02*
Y023139D01*
X019309Y022312D02*
X019429D01*
X019369Y022252D02*
Y022372D01*
X026113Y020492D02*
X026233D01*
X026173Y020432D02*
Y020552D01*
X038765Y024548D02*
X0391D01*
X038933Y024381D02*
Y024715D01*
X038765Y025336D02*
X0391D01*
X038933Y025168D02*
Y025503D01*
X039553Y024548D02*
X039887D01*
X03972Y024381D02*
Y024715D01*
X039553Y025336D02*
X039887D01*
X03972Y025168D02*
Y025503D01*
X034723Y023592D02*
X035471D01*
X035097Y023218D02*
Y023966D01*
X034723Y02182D02*
X035471D01*
X035097Y021446D02*
Y022194D01*
X041466Y024092D02*
X041586D01*
X041526Y024032D02*
Y024152D01*
X035366Y024392D02*
X035486D01*
X035426Y024332D02*
Y024452D01*
X034516Y025392D02*
X034636D01*
X034576Y025332D02*
Y025452D01*
X035066Y022692D02*
X035186D01*
X035126Y022632D02*
Y022752D01*
X036866Y022692D02*
X036986D01*
X036926Y022632D02*
Y022752D01*
X048066Y021892D02*
X048186D01*
X048126Y021832D02*
Y021952D01*
X049866Y024592D02*
X049986D01*
X049926Y024532D02*
Y024652D01*
X049866Y020992D02*
X049986D01*
X049926Y020932D02*
Y021052D01*
X049866Y020092D02*
X049986D01*
X049926Y020032D02*
Y020152D01*
X048966Y024592D02*
X049086D01*
X049026Y024532D02*
Y024652D01*
X048966Y021892D02*
X049086D01*
X049026Y021832D02*
Y021952D01*
X048966Y020992D02*
X049086D01*
X049026Y020932D02*
Y021052D01*
X048966Y020092D02*
X049086D01*
X049026Y020032D02*
Y020152D01*
X048066Y024592D02*
X048186D01*
X048126Y024532D02*
Y024652D01*
X048066Y022792D02*
X048186D01*
X048126Y022732D02*
Y022852D01*
X048066Y020992D02*
X048186D01*
X048126Y020932D02*
Y021052D01*
X048066Y020092D02*
X048186D01*
X048126Y020032D02*
Y020152D01*
X047166Y022792D02*
X047286D01*
X047226Y022732D02*
Y022852D01*
X047166Y021892D02*
X047286D01*
X047226Y021832D02*
Y021952D01*
X047166Y020992D02*
X047286D01*
X047226Y020932D02*
Y021052D01*
X047166Y020092D02*
X047286D01*
X047226Y020032D02*
Y020152D01*
X046266Y020992D02*
X046386D01*
X046326Y020932D02*
Y021052D01*
X046266Y020092D02*
X046386D01*
X046326Y020032D02*
Y020152D01*
X045366Y020092D02*
X045486D01*
X045426Y020032D02*
Y020152D01*
X044466Y020092D02*
X044586D01*
X044526Y020032D02*
Y020152D01*
X043566Y020092D02*
X043686D01*
X043626Y020032D02*
Y020152D01*
X035466Y020092D02*
X035586D01*
X035526Y020032D02*
Y020152D01*
X034566Y020092D02*
X034686D01*
X034626Y020032D02*
Y020152D01*
X044966Y022142D02*
X045086D01*
X045026Y022082D02*
Y022202D01*
X045266Y021742D02*
X045386D01*
X045326Y021682D02*
Y021802D01*
X045266Y021192D02*
X045386D01*
X045326Y021132D02*
Y021252D01*
X043566Y021742D02*
X043686D01*
X043626Y021682D02*
Y021802D01*
X043566Y021192D02*
X043686D01*
X043626Y021132D02*
Y021252D01*
X043916Y020892D02*
X044036D01*
X043976Y020832D02*
Y020952D01*
X048066Y025442D02*
X048186D01*
X048126Y025382D02*
Y025502D01*
X048916Y025442D02*
X049036D01*
X048976Y025382D02*
Y025502D01*
X049816Y025442D02*
X049936D01*
X049876Y025382D02*
Y025502D01*
X046566Y024142D02*
X046686D01*
X046626Y024082D02*
Y024202D01*
X047873Y023525D02*
X047993D01*
X047933Y023465D02*
Y023585D01*
X048528Y023015D02*
X048648D01*
X048588Y022955D02*
Y023075D01*
X04852Y023854D02*
X04864D01*
X04858Y023794D02*
Y023914D01*
X050466Y022266D02*
X050586D01*
X050526Y022206D02*
Y022326D01*
X049866Y022266D02*
X049986D01*
X049926Y022206D02*
Y022326D01*
X049266Y022266D02*
X049386D01*
X049326Y022206D02*
Y022326D01*
X049266Y023217D02*
X049386D01*
X049326Y023157D02*
Y023277D01*
X049866Y023217D02*
X049986D01*
X049926Y023157D02*
Y023277D01*
X050466Y023217D02*
X050586D01*
X050526Y023157D02*
Y023277D01*
X047916Y024142D02*
X048036D01*
X047976Y024082D02*
Y024202D01*
X039516Y021642D02*
X039636D01*
X039576Y021582D02*
Y021702D01*
X044816Y022592D02*
X044936D01*
X044876Y022532D02*
Y022652D01*
X045416Y022592D02*
X045536D01*
X045476Y022532D02*
Y022652D01*
X045966Y024142D02*
X046086D01*
X046026Y024082D02*
Y024202D01*
X047166Y024142D02*
X047286D01*
X047226Y024082D02*
Y024202D01*
X046666Y023442D02*
X046786D01*
X046726Y023382D02*
Y023502D01*
X047266Y023442D02*
X047386D01*
X047326Y023382D02*
Y023502D01*
X036966Y023492D02*
X037086D01*
X037026Y023432D02*
Y023552D01*
X037366Y023492D02*
X037486D01*
X037426Y023432D02*
Y023552D01*
X043016Y022992D02*
X043136D01*
X043076Y022932D02*
Y023052D01*
X042966Y023742D02*
X043086D01*
X043026Y023682D02*
Y023802D01*
X04262Y022853D02*
X04274D01*
X04268Y022793D02*
Y022913D01*
X041816Y022092D02*
X041936D01*
X041876Y022032D02*
Y022152D01*
X041066Y022892D02*
X041186D01*
X041126Y022832D02*
Y022952D01*
X042666Y021992D02*
X042786D01*
X042726Y021932D02*
Y022052D01*
X039716Y022492D02*
X039836D01*
X039776Y022432D02*
Y022552D01*
X039166Y021942D02*
X039286D01*
X039226Y021882D02*
Y022002D01*
X043016Y024592D02*
X043136D01*
X043076Y024532D02*
Y024652D01*
X046016Y022092D02*
X046136D01*
X046076Y022032D02*
Y022152D01*
X046016Y022592D02*
X046136D01*
X046076Y022532D02*
Y022652D01*
X036216Y024942D02*
X036336D01*
X036276Y024882D02*
Y025002D01*
X041916Y025392D02*
X042036D01*
X041976Y025332D02*
Y025452D01*
X040516Y025392D02*
X040636D01*
X040576Y025332D02*
Y025452D01*
X046216Y024792D02*
X046336D01*
X046276Y024732D02*
Y024852D01*
X038216Y022242D02*
X038336D01*
X038276Y022182D02*
Y022302D01*
X038916Y023742D02*
X039036D01*
X038976Y023682D02*
Y023802D01*
X044016Y022342D02*
X044136D01*
X044076Y022282D02*
Y022402D01*
X044916Y020892D02*
X045036D01*
X044976Y020832D02*
Y020952D01*
X044416Y020892D02*
X044536D01*
X044476Y020832D02*
Y020952D01*
X040966Y020842D02*
X041086D01*
X041026Y020782D02*
Y020902D01*
X041116Y022292D02*
X041236D01*
X041176Y022232D02*
Y022352D01*
X040766Y022392D02*
X040886D01*
X040826Y022332D02*
Y022452D01*
X041466Y021292D02*
X041586D01*
X041526Y021232D02*
Y021352D01*
X040466Y020642D02*
X040586D01*
X040526Y020582D02*
Y020702D01*
X040216Y020892D02*
X040336D01*
X040276Y020832D02*
Y020952D01*
X039966Y021142D02*
X040086D01*
X040026Y021082D02*
Y021202D01*
X039866Y021492D02*
X039986D01*
X039926Y021432D02*
Y021552D01*
X040166Y021792D02*
X040286D01*
X040226Y021732D02*
Y021852D01*
X040466Y022092D02*
X040586D01*
X040526Y022032D02*
Y022152D01*
X041416Y022042D02*
X041536D01*
X041476Y021982D02*
Y022102D01*
X041616Y021792D02*
X041736D01*
X041676Y021732D02*
Y021852D01*
X045466Y025142D02*
X045586D01*
X045526Y025082D02*
Y025202D01*
X042916Y025242D02*
X043036D01*
X042976Y025182D02*
Y025302D01*
X044066Y025292D02*
X044186D01*
X044126Y025232D02*
Y025352D01*
X037366Y021892D02*
X037486D01*
X037426Y021832D02*
Y021952D01*
X037316Y021442D02*
X037436D01*
X037376Y021382D02*
Y021502D01*
X038216Y025042D02*
X038336D01*
X038276Y024982D02*
Y025102D01*
X037416Y025392D02*
X037536D01*
X037476Y025332D02*
Y025452D01*
X040816Y024842D02*
X040936D01*
X040876Y024782D02*
Y024902D01*
X036116Y021442D02*
X036236D01*
X036176Y021382D02*
Y021502D01*
X040566Y023142D02*
X040686D01*
X040626Y023082D02*
Y023202D01*
X042366Y020492D02*
X042486D01*
X042426Y020432D02*
Y020552D01*
X040616Y019942D02*
X040736D01*
X040676Y019882D02*
Y020002D01*
X037466Y020742D02*
X037586D01*
X037526Y020682D02*
Y020802D01*
X035116Y020792D02*
X035236D01*
X035176Y020732D02*
Y020852D01*
X035816Y021442D02*
X035936D01*
X035876Y021382D02*
Y021502D01*
X035816Y021192D02*
X035936D01*
X035876Y021132D02*
Y021252D01*
X036116Y021192D02*
X036236D01*
X036176Y021132D02*
Y021252D01*
X037116Y024442D02*
X037236D01*
X037176Y024382D02*
Y024502D01*
X03599Y023079D02*
X03611D01*
X03605Y023019D02*
Y023139D01*
X035963Y022312D02*
X036083D01*
X036023Y022252D02*
Y022372D01*
X042766Y020492D02*
X042886D01*
X042826Y020432D02*
Y020552D01*
X022112Y030769D02*
X022447D01*
X022279Y030601D02*
Y030936D01*
X022112Y031556D02*
X022447D01*
X022279Y031389D02*
Y031723D01*
X022899Y030769D02*
X023234D01*
X023067Y030601D02*
Y030936D01*
X022899Y031556D02*
X023234D01*
X023067Y031389D02*
Y031723D01*
X01807Y029812D02*
X018818D01*
X018444Y029438D02*
Y030186D01*
X01807Y028041D02*
X018818D01*
X018444Y027667D02*
Y028415D01*
X024813Y030312D02*
X024933D01*
X024873Y030252D02*
Y030372D01*
X018713Y030612D02*
X018833D01*
X018773Y030552D02*
Y030672D01*
X017863Y031612D02*
X017983D01*
X017923Y031552D02*
Y031672D01*
X018413Y028912D02*
X018533D01*
X018473Y028852D02*
Y028972D01*
X020213Y028912D02*
X020333D01*
X020273Y028852D02*
Y028972D01*
X031413Y028112D02*
X031533D01*
X031473Y028052D02*
Y028172D01*
X033213Y030812D02*
X033333D01*
X033273Y030752D02*
Y030872D01*
X033213Y027212D02*
X033333D01*
X033273Y027152D02*
Y027272D01*
X033213Y026312D02*
X033333D01*
X033273Y026252D02*
Y026372D01*
X032313Y030812D02*
X032433D01*
X032373Y030752D02*
Y030872D01*
X032313Y028112D02*
X032433D01*
X032373Y028052D02*
Y028172D01*
X032313Y027212D02*
X032433D01*
X032373Y027152D02*
Y027272D01*
X032313Y026312D02*
X032433D01*
X032373Y026252D02*
Y026372D01*
X031413Y030812D02*
X031533D01*
X031473Y030752D02*
Y030872D01*
X031413Y029012D02*
X031533D01*
X031473Y028952D02*
Y029072D01*
X031413Y027212D02*
X031533D01*
X031473Y027152D02*
Y027272D01*
X031413Y026312D02*
X031533D01*
X031473Y026252D02*
Y026372D01*
X030513Y029012D02*
X030633D01*
X030573Y028952D02*
Y029072D01*
X030513Y028112D02*
X030633D01*
X030573Y028052D02*
Y028172D01*
X030513Y027212D02*
X030633D01*
X030573Y027152D02*
Y027272D01*
X030513Y026312D02*
X030633D01*
X030573Y026252D02*
Y026372D01*
X029613Y027212D02*
X029733D01*
X029673Y027152D02*
Y027272D01*
X029613Y026312D02*
X029733D01*
X029673Y026252D02*
Y026372D01*
X028713Y026312D02*
X028833D01*
X028773Y026252D02*
Y026372D01*
X027813Y026312D02*
X027933D01*
X027873Y026252D02*
Y026372D01*
X026913Y026312D02*
X027033D01*
X026973Y026252D02*
Y026372D01*
X018813Y026312D02*
X018933D01*
X018873Y026252D02*
Y026372D01*
X017913Y026312D02*
X018033D01*
X017973Y026252D02*
Y026372D01*
X028313Y028362D02*
X028433D01*
X028373Y028302D02*
Y028422D01*
X028613Y027962D02*
X028733D01*
X028673Y027902D02*
Y028022D01*
X028613Y027412D02*
X028733D01*
X028673Y027352D02*
Y027472D01*
X026913Y027962D02*
X027033D01*
X026973Y027902D02*
Y028022D01*
X026913Y027412D02*
X027033D01*
X026973Y027352D02*
Y027472D01*
X027263Y027112D02*
X027383D01*
X027323Y027052D02*
Y027172D01*
X031413Y031662D02*
X031533D01*
X031473Y031602D02*
Y031722D01*
X032263Y031662D02*
X032383D01*
X032323Y031602D02*
Y031722D01*
X033163Y031662D02*
X033283D01*
X033223Y031602D02*
Y031722D01*
X029913Y030362D02*
X030033D01*
X029973Y030302D02*
Y030422D01*
X031219Y029745D02*
X031339D01*
X031279Y029685D02*
Y029805D01*
X031874Y029235D02*
X031994D01*
X031934Y029175D02*
Y029295D01*
X031867Y030074D02*
X031987D01*
X031927Y030014D02*
Y030134D01*
X033813Y028487D02*
X033933D01*
X033873Y028427D02*
Y028547D01*
X033213Y028487D02*
X033333D01*
X033273Y028427D02*
Y028547D01*
X032613Y028487D02*
X032733D01*
X032673Y028427D02*
Y028547D01*
X032613Y029438D02*
X032733D01*
X032673Y029378D02*
Y029498D01*
X033213Y029438D02*
X033333D01*
X033273Y029378D02*
Y029498D01*
X033813Y029438D02*
X033933D01*
X033873Y029378D02*
Y029498D01*
X031263Y030362D02*
X031383D01*
X031323Y030302D02*
Y030422D01*
X022863Y027862D02*
X022983D01*
X022923Y027802D02*
Y027922D01*
X028163Y028812D02*
X028283D01*
X028223Y028752D02*
Y028872D01*
X028763Y028812D02*
X028883D01*
X028823Y028752D02*
Y028872D01*
X029313Y030362D02*
X029433D01*
X029373Y030302D02*
Y030422D01*
X030513Y030362D02*
X030633D01*
X030573Y030302D02*
Y030422D01*
X030013Y029662D02*
X030133D01*
X030073Y029602D02*
Y029722D01*
X030613Y029662D02*
X030733D01*
X030673Y029602D02*
Y029722D01*
X020313Y029712D02*
X020433D01*
X020373Y029652D02*
Y029772D01*
X020713Y029712D02*
X020833D01*
X020773Y029652D02*
Y029772D01*
X026363Y029212D02*
X026483D01*
X026423Y029152D02*
Y029272D01*
X026313Y029962D02*
X026433D01*
X026373Y029902D02*
Y030022D01*
X025966Y029073D02*
X026086D01*
X026026Y029013D02*
Y029133D01*
X025163Y028312D02*
X025283D01*
X025223Y028252D02*
Y028372D01*
X024413Y029112D02*
X024533D01*
X024473Y029052D02*
Y029172D01*
X026013Y028212D02*
X026133D01*
X026073Y028152D02*
Y028272D01*
X023063Y028712D02*
X023183D01*
X023123Y028652D02*
Y028772D01*
X022513Y028162D02*
X022633D01*
X022573Y028102D02*
Y028222D01*
X026363Y030812D02*
X026483D01*
X026423Y030752D02*
Y030872D01*
X029363Y028312D02*
X029483D01*
X029423Y028252D02*
Y028372D01*
X029363Y028812D02*
X029483D01*
X029423Y028752D02*
Y028872D01*
X019563Y031162D02*
X019683D01*
X019623Y031102D02*
Y031222D01*
X025263Y031612D02*
X025383D01*
X025323Y031552D02*
Y031672D01*
X023863Y031612D02*
X023983D01*
X023923Y031552D02*
Y031672D01*
X029563Y031012D02*
X029683D01*
X029623Y030952D02*
Y031072D01*
X021563Y028462D02*
X021683D01*
X021623Y028402D02*
Y028522D01*
X022263Y029962D02*
X022383D01*
X022323Y029902D02*
Y030022D01*
X027363Y028562D02*
X027483D01*
X027423Y028502D02*
Y028622D01*
X028263Y027112D02*
X028383D01*
X028323Y027052D02*
Y027172D01*
X027763Y027112D02*
X027883D01*
X027823Y027052D02*
Y027172D01*
X024313Y027062D02*
X024433D01*
X024373Y027002D02*
Y027122D01*
X024463Y028512D02*
X024583D01*
X024523Y028452D02*
Y028572D01*
X024113Y028612D02*
X024233D01*
X024173Y028552D02*
Y028672D01*
X024813Y027512D02*
X024933D01*
X024873Y027452D02*
Y027572D01*
X023813Y026862D02*
X023933D01*
X023873Y026802D02*
Y026922D01*
X023563Y027112D02*
X023683D01*
X023623Y027052D02*
Y027172D01*
X023313Y027362D02*
X023433D01*
X023373Y027302D02*
Y027422D01*
X023213Y027712D02*
X023333D01*
X023273Y027652D02*
Y027772D01*
X023513Y028012D02*
X023633D01*
X023573Y027952D02*
Y028072D01*
X023813Y028312D02*
X023933D01*
X023873Y028252D02*
Y028372D01*
X024763Y028262D02*
X024883D01*
X024823Y028202D02*
Y028322D01*
X024963Y028012D02*
X025083D01*
X025023Y027952D02*
Y028072D01*
X028813Y031362D02*
X028933D01*
X028873Y031302D02*
Y031422D01*
X026263Y031462D02*
X026383D01*
X026323Y031402D02*
Y031522D01*
X027413Y031512D02*
X027533D01*
X027473Y031452D02*
Y031572D01*
X020713Y028112D02*
X020833D01*
X020773Y028052D02*
Y028172D01*
X020663Y027662D02*
X020783D01*
X020723Y027602D02*
Y027722D01*
X021563Y031262D02*
X021683D01*
X021623Y031202D02*
Y031322D01*
X020763Y031612D02*
X020883D01*
X020823Y031552D02*
Y031672D01*
X024163Y031062D02*
X024283D01*
X024223Y031002D02*
Y031122D01*
X019463Y027662D02*
X019583D01*
X019523Y027602D02*
Y027722D01*
X023913Y029362D02*
X024033D01*
X023973Y029302D02*
Y029422D01*
X025713Y026712D02*
X025833D01*
X025773Y026652D02*
Y026772D01*
X023963Y026162D02*
X024083D01*
X024023Y026102D02*
Y026222D01*
X020813Y026962D02*
X020933D01*
X020873Y026902D02*
Y027022D01*
X018463Y027012D02*
X018583D01*
X018523Y026952D02*
Y027072D01*
X019163Y027662D02*
X019283D01*
X019223Y027602D02*
Y027722D01*
X019163Y027412D02*
X019283D01*
X019223Y027352D02*
Y027472D01*
X019463Y027412D02*
X019583D01*
X019523Y027352D02*
Y027472D01*
X020463Y030662D02*
X020583D01*
X020523Y030602D02*
Y030722D01*
X019337Y029299D02*
X019457D01*
X019397Y029239D02*
Y029359D01*
X019309Y028533D02*
X019429D01*
X019369Y028473D02*
Y028593D01*
X026113Y026712D02*
X026233D01*
X026173Y026652D02*
Y026772D01*
X038765Y030769D02*
X0391D01*
X038933Y030601D02*
Y030936D01*
X038765Y031556D02*
X0391D01*
X038933Y031389D02*
Y031723D01*
X039553Y030769D02*
X039887D01*
X03972Y030601D02*
Y030936D01*
X039553Y031556D02*
X039887D01*
X03972Y031389D02*
Y031723D01*
X034723Y029812D02*
X035471D01*
X035097Y029438D02*
Y030186D01*
X034723Y028041D02*
X035471D01*
X035097Y027667D02*
Y028415D01*
X041466Y030312D02*
X041586D01*
X041526Y030252D02*
Y030372D01*
X035366Y030612D02*
X035486D01*
X035426Y030552D02*
Y030672D01*
X034516Y031612D02*
X034636D01*
X034576Y031552D02*
Y031672D01*
X035066Y028912D02*
X035186D01*
X035126Y028852D02*
Y028972D01*
X036866Y028912D02*
X036986D01*
X036926Y028852D02*
Y028972D01*
X048066Y028112D02*
X048186D01*
X048126Y028052D02*
Y028172D01*
X049866Y030812D02*
X049986D01*
X049926Y030752D02*
Y030872D01*
X049866Y027212D02*
X049986D01*
X049926Y027152D02*
Y027272D01*
X049866Y026312D02*
X049986D01*
X049926Y026252D02*
Y026372D01*
X048966Y030812D02*
X049086D01*
X049026Y030752D02*
Y030872D01*
X048966Y028112D02*
X049086D01*
X049026Y028052D02*
Y028172D01*
X048966Y027212D02*
X049086D01*
X049026Y027152D02*
Y027272D01*
X048966Y026312D02*
X049086D01*
X049026Y026252D02*
Y026372D01*
X048066Y030812D02*
X048186D01*
X048126Y030752D02*
Y030872D01*
X048066Y029012D02*
X048186D01*
X048126Y028952D02*
Y029072D01*
X048066Y027212D02*
X048186D01*
X048126Y027152D02*
Y027272D01*
X048066Y026312D02*
X048186D01*
X048126Y026252D02*
Y026372D01*
X047166Y029012D02*
X047286D01*
X047226Y028952D02*
Y029072D01*
X047166Y028112D02*
X047286D01*
X047226Y028052D02*
Y028172D01*
X047166Y027212D02*
X047286D01*
X047226Y027152D02*
Y027272D01*
X047166Y026312D02*
X047286D01*
X047226Y026252D02*
Y026372D01*
X046266Y027212D02*
X046386D01*
X046326Y027152D02*
Y027272D01*
X046266Y026312D02*
X046386D01*
X046326Y026252D02*
Y026372D01*
X045366Y026312D02*
X045486D01*
X045426Y026252D02*
Y026372D01*
X044466Y026312D02*
X044586D01*
X044526Y026252D02*
Y026372D01*
X043566Y026312D02*
X043686D01*
X043626Y026252D02*
Y026372D01*
X035466Y026312D02*
X035586D01*
X035526Y026252D02*
Y026372D01*
X034566Y026312D02*
X034686D01*
X034626Y026252D02*
Y026372D01*
X044966Y028362D02*
X045086D01*
X045026Y028302D02*
Y028422D01*
X045266Y027962D02*
X045386D01*
X045326Y027902D02*
Y028022D01*
X045266Y027412D02*
X045386D01*
X045326Y027352D02*
Y027472D01*
X043566Y027962D02*
X043686D01*
X043626Y027902D02*
Y028022D01*
X043566Y027412D02*
X043686D01*
X043626Y027352D02*
Y027472D01*
X043916Y027112D02*
X044036D01*
X043976Y027052D02*
Y027172D01*
X048066Y031662D02*
X048186D01*
X048126Y031602D02*
Y031722D01*
X048916Y031662D02*
X049036D01*
X048976Y031602D02*
Y031722D01*
X049816Y031662D02*
X049936D01*
X049876Y031602D02*
Y031722D01*
X046566Y030362D02*
X046686D01*
X046626Y030302D02*
Y030422D01*
X047873Y029745D02*
X047993D01*
X047933Y029685D02*
Y029805D01*
X048528Y029235D02*
X048648D01*
X048588Y029175D02*
Y029295D01*
X04852Y030074D02*
X04864D01*
X04858Y030014D02*
Y030134D01*
X050466Y028487D02*
X050586D01*
X050526Y028427D02*
Y028547D01*
X049866Y028487D02*
X049986D01*
X049926Y028427D02*
Y028547D01*
X049266Y028487D02*
X049386D01*
X049326Y028427D02*
Y028547D01*
X049266Y029438D02*
X049386D01*
X049326Y029378D02*
Y029498D01*
X049866Y029438D02*
X049986D01*
X049926Y029378D02*
Y029498D01*
X050466Y029438D02*
X050586D01*
X050526Y029378D02*
Y029498D01*
X047916Y030362D02*
X048036D01*
X047976Y030302D02*
Y030422D01*
X039516Y027862D02*
X039636D01*
X039576Y027802D02*
Y027922D01*
X044816Y028812D02*
X044936D01*
X044876Y028752D02*
Y028872D01*
X045416Y028812D02*
X045536D01*
X045476Y028752D02*
Y028872D01*
X045966Y030362D02*
X046086D01*
X046026Y030302D02*
Y030422D01*
X047166Y030362D02*
X047286D01*
X047226Y030302D02*
Y030422D01*
X046666Y029662D02*
X046786D01*
X046726Y029602D02*
Y029722D01*
X047266Y029662D02*
X047386D01*
X047326Y029602D02*
Y029722D01*
X036966Y029712D02*
X037086D01*
X037026Y029652D02*
Y029772D01*
X037366Y029712D02*
X037486D01*
X037426Y029652D02*
Y029772D01*
X043016Y029212D02*
X043136D01*
X043076Y029152D02*
Y029272D01*
X042966Y029962D02*
X043086D01*
X043026Y029902D02*
Y030022D01*
X04262Y029073D02*
X04274D01*
X04268Y029013D02*
Y029133D01*
X041816Y028312D02*
X041936D01*
X041876Y028252D02*
Y028372D01*
X041066Y029112D02*
X041186D01*
X041126Y029052D02*
Y029172D01*
X042666Y028212D02*
X042786D01*
X042726Y028152D02*
Y028272D01*
X039716Y028712D02*
X039836D01*
X039776Y028652D02*
Y028772D01*
X039166Y028162D02*
X039286D01*
X039226Y028102D02*
Y028222D01*
X043016Y030812D02*
X043136D01*
X043076Y030752D02*
Y030872D01*
X046016Y028312D02*
X046136D01*
X046076Y028252D02*
Y028372D01*
X046016Y028812D02*
X046136D01*
X046076Y028752D02*
Y028872D01*
X036216Y031162D02*
X036336D01*
X036276Y031102D02*
Y031222D01*
X041916Y031612D02*
X042036D01*
X041976Y031552D02*
Y031672D01*
X040516Y031612D02*
X040636D01*
X040576Y031552D02*
Y031672D01*
X046216Y031012D02*
X046336D01*
X046276Y030952D02*
Y031072D01*
X038216Y028462D02*
X038336D01*
X038276Y028402D02*
Y028522D01*
X038916Y029962D02*
X039036D01*
X038976Y029902D02*
Y030022D01*
X044016Y028562D02*
X044136D01*
X044076Y028502D02*
Y028622D01*
X044916Y027112D02*
X045036D01*
X044976Y027052D02*
Y027172D01*
X044416Y027112D02*
X044536D01*
X044476Y027052D02*
Y027172D01*
X040966Y027062D02*
X041086D01*
X041026Y027002D02*
Y027122D01*
X041116Y028512D02*
X041236D01*
X041176Y028452D02*
Y028572D01*
X040766Y028612D02*
X040886D01*
X040826Y028552D02*
Y028672D01*
X041466Y027512D02*
X041586D01*
X041526Y027452D02*
Y027572D01*
X040466Y026862D02*
X040586D01*
X040526Y026802D02*
Y026922D01*
X040216Y027112D02*
X040336D01*
X040276Y027052D02*
Y027172D01*
X039966Y027362D02*
X040086D01*
X040026Y027302D02*
Y027422D01*
X039866Y027712D02*
X039986D01*
X039926Y027652D02*
Y027772D01*
X040166Y028012D02*
X040286D01*
X040226Y027952D02*
Y028072D01*
X040466Y028312D02*
X040586D01*
X040526Y028252D02*
Y028372D01*
X041416Y028262D02*
X041536D01*
X041476Y028202D02*
Y028322D01*
X041616Y028012D02*
X041736D01*
X041676Y027952D02*
Y028072D01*
X045466Y031362D02*
X045586D01*
X045526Y031302D02*
Y031422D01*
X042916Y031462D02*
X043036D01*
X042976Y031402D02*
Y031522D01*
X044066Y031512D02*
X044186D01*
X044126Y031452D02*
Y031572D01*
X037366Y028112D02*
X037486D01*
X037426Y028052D02*
Y028172D01*
X037316Y027662D02*
X037436D01*
X037376Y027602D02*
Y027722D01*
X038216Y031262D02*
X038336D01*
X038276Y031202D02*
Y031322D01*
X037416Y031612D02*
X037536D01*
X037476Y031552D02*
Y031672D01*
X040816Y031062D02*
X040936D01*
X040876Y031002D02*
Y031122D01*
X036116Y027662D02*
X036236D01*
X036176Y027602D02*
Y027722D01*
X040566Y029362D02*
X040686D01*
X040626Y029302D02*
Y029422D01*
X042366Y026712D02*
X042486D01*
X042426Y026652D02*
Y026772D01*
X040616Y026162D02*
X040736D01*
X040676Y026102D02*
Y026222D01*
X037466Y026962D02*
X037586D01*
X037526Y026902D02*
Y027022D01*
X035116Y027012D02*
X035236D01*
X035176Y026952D02*
Y027072D01*
X035816Y027662D02*
X035936D01*
X035876Y027602D02*
Y027722D01*
X035816Y027412D02*
X035936D01*
X035876Y027352D02*
Y027472D01*
X036116Y027412D02*
X036236D01*
X036176Y027352D02*
Y027472D01*
X037116Y030662D02*
X037236D01*
X037176Y030602D02*
Y030722D01*
X03599Y029299D02*
X03611D01*
X03605Y029239D02*
Y029359D01*
X035963Y028533D02*
X036083D01*
X036023Y028473D02*
Y028593D01*
X042766Y026712D02*
X042886D01*
X042826Y026652D02*
Y026772D01*
X022112Y036989D02*
X022447D01*
X022279Y036822D02*
Y037156D01*
X022112Y037776D02*
X022447D01*
X022279Y037609D02*
Y037944D01*
X022899Y036989D02*
X023234D01*
X023067Y036822D02*
Y037156D01*
X022899Y037776D02*
X023234D01*
X023067Y037609D02*
Y037944D01*
X01807Y036033D02*
X018818D01*
X018444Y035659D02*
Y036407D01*
X01807Y034261D02*
X018818D01*
X018444Y033887D02*
Y034635D01*
X024813Y036533D02*
X024933D01*
X024873Y036473D02*
Y036593D01*
X018713Y036833D02*
X018833D01*
X018773Y036773D02*
Y036893D01*
X017863Y037833D02*
X017983D01*
X017923Y037773D02*
Y037893D01*
X018413Y035133D02*
X018533D01*
X018473Y035073D02*
Y035193D01*
X020213Y035133D02*
X020333D01*
X020273Y035073D02*
Y035193D01*
X031413Y034333D02*
X031533D01*
X031473Y034273D02*
Y034393D01*
X033213Y037033D02*
X033333D01*
X033273Y036973D02*
Y037093D01*
X033213Y033433D02*
X033333D01*
X033273Y033373D02*
Y033493D01*
X033213Y032533D02*
X033333D01*
X033273Y032473D02*
Y032593D01*
X032313Y037033D02*
X032433D01*
X032373Y036973D02*
Y037093D01*
X032313Y034333D02*
X032433D01*
X032373Y034273D02*
Y034393D01*
X032313Y033433D02*
X032433D01*
X032373Y033373D02*
Y033493D01*
X032313Y032533D02*
X032433D01*
X032373Y032473D02*
Y032593D01*
X031413Y037033D02*
X031533D01*
X031473Y036973D02*
Y037093D01*
X031413Y035233D02*
X031533D01*
X031473Y035173D02*
Y035293D01*
X031413Y033433D02*
X031533D01*
X031473Y033373D02*
Y033493D01*
X031413Y032533D02*
X031533D01*
X031473Y032473D02*
Y032593D01*
X030513Y035233D02*
X030633D01*
X030573Y035173D02*
Y035293D01*
X030513Y034333D02*
X030633D01*
X030573Y034273D02*
Y034393D01*
X030513Y033433D02*
X030633D01*
X030573Y033373D02*
Y033493D01*
X030513Y032533D02*
X030633D01*
X030573Y032473D02*
Y032593D01*
X029613Y033433D02*
X029733D01*
X029673Y033373D02*
Y033493D01*
X029613Y032533D02*
X029733D01*
X029673Y032473D02*
Y032593D01*
X028713Y032533D02*
X028833D01*
X028773Y032473D02*
Y032593D01*
X027813Y032533D02*
X027933D01*
X027873Y032473D02*
Y032593D01*
X026913Y032533D02*
X027033D01*
X026973Y032473D02*
Y032593D01*
X018813Y032533D02*
X018933D01*
X018873Y032473D02*
Y032593D01*
X017913Y032533D02*
X018033D01*
X017973Y032473D02*
Y032593D01*
X028313Y034583D02*
X028433D01*
X028373Y034523D02*
Y034643D01*
X028613Y034183D02*
X028733D01*
X028673Y034123D02*
Y034243D01*
X028613Y033633D02*
X028733D01*
X028673Y033573D02*
Y033693D01*
X026913Y034183D02*
X027033D01*
X026973Y034123D02*
Y034243D01*
X026913Y033633D02*
X027033D01*
X026973Y033573D02*
Y033693D01*
X027263Y033333D02*
X027383D01*
X027323Y033273D02*
Y033393D01*
X031413Y037883D02*
X031533D01*
X031473Y037823D02*
Y037943D01*
X032263Y037883D02*
X032383D01*
X032323Y037823D02*
Y037943D01*
X033163Y037883D02*
X033283D01*
X033223Y037823D02*
Y037943D01*
X029913Y036583D02*
X030033D01*
X029973Y036523D02*
Y036643D01*
X031219Y035966D02*
X031339D01*
X031279Y035906D02*
Y036026D01*
X031874Y035456D02*
X031994D01*
X031934Y035396D02*
Y035516D01*
X031867Y036295D02*
X031987D01*
X031927Y036235D02*
Y036355D01*
X033813Y034707D02*
X033933D01*
X033873Y034647D02*
Y034767D01*
X033213Y034707D02*
X033333D01*
X033273Y034647D02*
Y034767D01*
X032613Y034707D02*
X032733D01*
X032673Y034647D02*
Y034767D01*
X032613Y035658D02*
X032733D01*
X032673Y035598D02*
Y035718D01*
X033213Y035658D02*
X033333D01*
X033273Y035598D02*
Y035718D01*
X033813Y035658D02*
X033933D01*
X033873Y035598D02*
Y035718D01*
X031263Y036583D02*
X031383D01*
X031323Y036523D02*
Y036643D01*
X022863Y034083D02*
X022983D01*
X022923Y034023D02*
Y034143D01*
X028163Y035033D02*
X028283D01*
X028223Y034973D02*
Y035093D01*
X028763Y035033D02*
X028883D01*
X028823Y034973D02*
Y035093D01*
X029313Y036583D02*
X029433D01*
X029373Y036523D02*
Y036643D01*
X030513Y036583D02*
X030633D01*
X030573Y036523D02*
Y036643D01*
X030013Y035883D02*
X030133D01*
X030073Y035823D02*
Y035943D01*
X030613Y035883D02*
X030733D01*
X030673Y035823D02*
Y035943D01*
X020313Y035933D02*
X020433D01*
X020373Y035873D02*
Y035993D01*
X020713Y035933D02*
X020833D01*
X020773Y035873D02*
Y035993D01*
X026363Y035433D02*
X026483D01*
X026423Y035373D02*
Y035493D01*
X026313Y036183D02*
X026433D01*
X026373Y036123D02*
Y036243D01*
X025966Y035294D02*
X026086D01*
X026026Y035234D02*
Y035354D01*
X025163Y034533D02*
X025283D01*
X025223Y034473D02*
Y034593D01*
X024413Y035333D02*
X024533D01*
X024473Y035273D02*
Y035393D01*
X026013Y034433D02*
X026133D01*
X026073Y034373D02*
Y034493D01*
X023063Y034933D02*
X023183D01*
X023123Y034873D02*
Y034993D01*
X022513Y034383D02*
X022633D01*
X022573Y034323D02*
Y034443D01*
X026363Y037033D02*
X026483D01*
X026423Y036973D02*
Y037093D01*
X029363Y034533D02*
X029483D01*
X029423Y034473D02*
Y034593D01*
X029363Y035033D02*
X029483D01*
X029423Y034973D02*
Y035093D01*
X019563Y037383D02*
X019683D01*
X019623Y037323D02*
Y037443D01*
X025263Y037833D02*
X025383D01*
X025323Y037773D02*
Y037893D01*
X023863Y037833D02*
X023983D01*
X023923Y037773D02*
Y037893D01*
X029563Y037233D02*
X029683D01*
X029623Y037173D02*
Y037293D01*
X021563Y034683D02*
X021683D01*
X021623Y034623D02*
Y034743D01*
X022263Y036183D02*
X022383D01*
X022323Y036123D02*
Y036243D01*
X027363Y034783D02*
X027483D01*
X027423Y034723D02*
Y034843D01*
X028263Y033333D02*
X028383D01*
X028323Y033273D02*
Y033393D01*
X027763Y033333D02*
X027883D01*
X027823Y033273D02*
Y033393D01*
X024313Y033283D02*
X024433D01*
X024373Y033223D02*
Y033343D01*
X024463Y034733D02*
X024583D01*
X024523Y034673D02*
Y034793D01*
X024113Y034833D02*
X024233D01*
X024173Y034773D02*
Y034893D01*
X024813Y033733D02*
X024933D01*
X024873Y033673D02*
Y033793D01*
X023813Y033083D02*
X023933D01*
X023873Y033023D02*
Y033143D01*
X023563Y033333D02*
X023683D01*
X023623Y033273D02*
Y033393D01*
X023313Y033583D02*
X023433D01*
X023373Y033523D02*
Y033643D01*
X023213Y033933D02*
X023333D01*
X023273Y033873D02*
Y033993D01*
X023513Y034233D02*
X023633D01*
X023573Y034173D02*
Y034293D01*
X023813Y034533D02*
X023933D01*
X023873Y034473D02*
Y034593D01*
X024763Y034483D02*
X024883D01*
X024823Y034423D02*
Y034543D01*
X024963Y034233D02*
X025083D01*
X025023Y034173D02*
Y034293D01*
X028813Y037583D02*
X028933D01*
X028873Y037523D02*
Y037643D01*
X026263Y037683D02*
X026383D01*
X026323Y037623D02*
Y037743D01*
X027413Y037733D02*
X027533D01*
X027473Y037673D02*
Y037793D01*
X020713Y034333D02*
X020833D01*
X020773Y034273D02*
Y034393D01*
X020663Y033883D02*
X020783D01*
X020723Y033823D02*
Y033943D01*
X021563Y037483D02*
X021683D01*
X021623Y037423D02*
Y037543D01*
X020763Y037833D02*
X020883D01*
X020823Y037773D02*
Y037893D01*
X024163Y037283D02*
X024283D01*
X024223Y037223D02*
Y037343D01*
X019463Y033883D02*
X019583D01*
X019523Y033823D02*
Y033943D01*
X023913Y035583D02*
X024033D01*
X023973Y035523D02*
Y035643D01*
X025713Y032933D02*
X025833D01*
X025773Y032873D02*
Y032993D01*
X023963Y032383D02*
X024083D01*
X024023Y032323D02*
Y032443D01*
X020813Y033183D02*
X020933D01*
X020873Y033123D02*
Y033243D01*
X018463Y033233D02*
X018583D01*
X018523Y033173D02*
Y033293D01*
X019163Y033883D02*
X019283D01*
X019223Y033823D02*
Y033943D01*
X019163Y033633D02*
X019283D01*
X019223Y033573D02*
Y033693D01*
X019463Y033633D02*
X019583D01*
X019523Y033573D02*
Y033693D01*
X020463Y036883D02*
X020583D01*
X020523Y036823D02*
Y036943D01*
X019337Y03552D02*
X019457D01*
X019397Y03546D02*
Y03558D01*
X019309Y034753D02*
X019429D01*
X019369Y034693D02*
Y034813D01*
X026113Y032933D02*
X026233D01*
X026173Y032873D02*
Y032993D01*
X038765Y036989D02*
X0391D01*
X038933Y036822D02*
Y037156D01*
X038765Y037776D02*
X0391D01*
X038933Y037609D02*
Y037944D01*
X039553Y036989D02*
X039887D01*
X03972Y036822D02*
Y037156D01*
X039553Y037776D02*
X039887D01*
X03972Y037609D02*
Y037944D01*
X034723Y036033D02*
X035471D01*
X035097Y035659D02*
Y036407D01*
X034723Y034261D02*
X035471D01*
X035097Y033887D02*
Y034635D01*
X041466Y036533D02*
X041586D01*
X041526Y036473D02*
Y036593D01*
X035366Y036833D02*
X035486D01*
X035426Y036773D02*
Y036893D01*
X034516Y037833D02*
X034636D01*
X034576Y037773D02*
Y037893D01*
X035066Y035133D02*
X035186D01*
X035126Y035073D02*
Y035193D01*
X036866Y035133D02*
X036986D01*
X036926Y035073D02*
Y035193D01*
X048066Y034333D02*
X048186D01*
X048126Y034273D02*
Y034393D01*
X049866Y037033D02*
X049986D01*
X049926Y036973D02*
Y037093D01*
X049866Y033433D02*
X049986D01*
X049926Y033373D02*
Y033493D01*
X049866Y032533D02*
X049986D01*
X049926Y032473D02*
Y032593D01*
X048966Y037033D02*
X049086D01*
X049026Y036973D02*
Y037093D01*
X048966Y034333D02*
X049086D01*
X049026Y034273D02*
Y034393D01*
X048966Y033433D02*
X049086D01*
X049026Y033373D02*
Y033493D01*
X048966Y032533D02*
X049086D01*
X049026Y032473D02*
Y032593D01*
X048066Y037033D02*
X048186D01*
X048126Y036973D02*
Y037093D01*
X048066Y035233D02*
X048186D01*
X048126Y035173D02*
Y035293D01*
X048066Y033433D02*
X048186D01*
X048126Y033373D02*
Y033493D01*
X048066Y032533D02*
X048186D01*
X048126Y032473D02*
Y032593D01*
X047166Y035233D02*
X047286D01*
X047226Y035173D02*
Y035293D01*
X047166Y034333D02*
X047286D01*
X047226Y034273D02*
Y034393D01*
X047166Y033433D02*
X047286D01*
X047226Y033373D02*
Y033493D01*
X047166Y032533D02*
X047286D01*
X047226Y032473D02*
Y032593D01*
X046266Y033433D02*
X046386D01*
X046326Y033373D02*
Y033493D01*
X046266Y032533D02*
X046386D01*
X046326Y032473D02*
Y032593D01*
X045366Y032533D02*
X045486D01*
X045426Y032473D02*
Y032593D01*
X044466Y032533D02*
X044586D01*
X044526Y032473D02*
Y032593D01*
X043566Y032533D02*
X043686D01*
X043626Y032473D02*
Y032593D01*
X035466Y032533D02*
X035586D01*
X035526Y032473D02*
Y032593D01*
X034566Y032533D02*
X034686D01*
X034626Y032473D02*
Y032593D01*
X044966Y034583D02*
X045086D01*
X045026Y034523D02*
Y034643D01*
X045266Y034183D02*
X045386D01*
X045326Y034123D02*
Y034243D01*
X045266Y033633D02*
X045386D01*
X045326Y033573D02*
Y033693D01*
X043566Y034183D02*
X043686D01*
X043626Y034123D02*
Y034243D01*
X043566Y033633D02*
X043686D01*
X043626Y033573D02*
Y033693D01*
X043916Y033333D02*
X044036D01*
X043976Y033273D02*
Y033393D01*
X048066Y037883D02*
X048186D01*
X048126Y037823D02*
Y037943D01*
X048916Y037883D02*
X049036D01*
X048976Y037823D02*
Y037943D01*
X049816Y037883D02*
X049936D01*
X049876Y037823D02*
Y037943D01*
X046566Y036583D02*
X046686D01*
X046626Y036523D02*
Y036643D01*
X047873Y035966D02*
X047993D01*
X047933Y035906D02*
Y036026D01*
X048528Y035456D02*
X048648D01*
X048588Y035396D02*
Y035516D01*
X04852Y036295D02*
X04864D01*
X04858Y036235D02*
Y036355D01*
X050466Y034707D02*
X050586D01*
X050526Y034647D02*
Y034767D01*
X049866Y034707D02*
X049986D01*
X049926Y034647D02*
Y034767D01*
X049266Y034707D02*
X049386D01*
X049326Y034647D02*
Y034767D01*
X049266Y035658D02*
X049386D01*
X049326Y035598D02*
Y035718D01*
X049866Y035658D02*
X049986D01*
X049926Y035598D02*
Y035718D01*
X050466Y035658D02*
X050586D01*
X050526Y035598D02*
Y035718D01*
X047916Y036583D02*
X048036D01*
X047976Y036523D02*
Y036643D01*
X039516Y034083D02*
X039636D01*
X039576Y034023D02*
Y034143D01*
X044816Y035033D02*
X044936D01*
X044876Y034973D02*
Y035093D01*
X045416Y035033D02*
X045536D01*
X045476Y034973D02*
Y035093D01*
X045966Y036583D02*
X046086D01*
X046026Y036523D02*
Y036643D01*
X047166Y036583D02*
X047286D01*
X047226Y036523D02*
Y036643D01*
X046666Y035883D02*
X046786D01*
X046726Y035823D02*
Y035943D01*
X047266Y035883D02*
X047386D01*
X047326Y035823D02*
Y035943D01*
X036966Y035933D02*
X037086D01*
X037026Y035873D02*
Y035993D01*
X037366Y035933D02*
X037486D01*
X037426Y035873D02*
Y035993D01*
X043016Y035433D02*
X043136D01*
X043076Y035373D02*
Y035493D01*
X042966Y036183D02*
X043086D01*
X043026Y036123D02*
Y036243D01*
X04262Y035294D02*
X04274D01*
X04268Y035234D02*
Y035354D01*
X041816Y034533D02*
X041936D01*
X041876Y034473D02*
Y034593D01*
X041066Y035333D02*
X041186D01*
X041126Y035273D02*
Y035393D01*
X042666Y034433D02*
X042786D01*
X042726Y034373D02*
Y034493D01*
X039716Y034933D02*
X039836D01*
X039776Y034873D02*
Y034993D01*
X039166Y034383D02*
X039286D01*
X039226Y034323D02*
Y034443D01*
X043016Y037033D02*
X043136D01*
X043076Y036973D02*
Y037093D01*
X046016Y034533D02*
X046136D01*
X046076Y034473D02*
Y034593D01*
X046016Y035033D02*
X046136D01*
X046076Y034973D02*
Y035093D01*
X036216Y037383D02*
X036336D01*
X036276Y037323D02*
Y037443D01*
X041916Y037833D02*
X042036D01*
X041976Y037773D02*
Y037893D01*
X040516Y037833D02*
X040636D01*
X040576Y037773D02*
Y037893D01*
X046216Y037233D02*
X046336D01*
X046276Y037173D02*
Y037293D01*
X038216Y034683D02*
X038336D01*
X038276Y034623D02*
Y034743D01*
X038916Y036183D02*
X039036D01*
X038976Y036123D02*
Y036243D01*
X044016Y034783D02*
X044136D01*
X044076Y034723D02*
Y034843D01*
X044916Y033333D02*
X045036D01*
X044976Y033273D02*
Y033393D01*
X044416Y033333D02*
X044536D01*
X044476Y033273D02*
Y033393D01*
X040966Y033283D02*
X041086D01*
X041026Y033223D02*
Y033343D01*
X041116Y034733D02*
X041236D01*
X041176Y034673D02*
Y034793D01*
X040766Y034833D02*
X040886D01*
X040826Y034773D02*
Y034893D01*
X041466Y033733D02*
X041586D01*
X041526Y033673D02*
Y033793D01*
X040466Y033083D02*
X040586D01*
X040526Y033023D02*
Y033143D01*
X040216Y033333D02*
X040336D01*
X040276Y033273D02*
Y033393D01*
X039966Y033583D02*
X040086D01*
X040026Y033523D02*
Y033643D01*
X039866Y033933D02*
X039986D01*
X039926Y033873D02*
Y033993D01*
X040166Y034233D02*
X040286D01*
X040226Y034173D02*
Y034293D01*
X040466Y034533D02*
X040586D01*
X040526Y034473D02*
Y034593D01*
X041416Y034483D02*
X041536D01*
X041476Y034423D02*
Y034543D01*
X041616Y034233D02*
X041736D01*
X041676Y034173D02*
Y034293D01*
X045466Y037583D02*
X045586D01*
X045526Y037523D02*
Y037643D01*
X042916Y037683D02*
X043036D01*
X042976Y037623D02*
Y037743D01*
X044066Y037733D02*
X044186D01*
X044126Y037673D02*
Y037793D01*
X037366Y034333D02*
X037486D01*
X037426Y034273D02*
Y034393D01*
X037316Y033883D02*
X037436D01*
X037376Y033823D02*
Y033943D01*
X038216Y037483D02*
X038336D01*
X038276Y037423D02*
Y037543D01*
X037416Y037833D02*
X037536D01*
X037476Y037773D02*
Y037893D01*
X040816Y037283D02*
X040936D01*
X040876Y037223D02*
Y037343D01*
X036116Y033883D02*
X036236D01*
X036176Y033823D02*
Y033943D01*
X040566Y035583D02*
X040686D01*
X040626Y035523D02*
Y035643D01*
X042366Y032933D02*
X042486D01*
X042426Y032873D02*
Y032993D01*
X040616Y032383D02*
X040736D01*
X040676Y032323D02*
Y032443D01*
X037466Y033183D02*
X037586D01*
X037526Y033123D02*
Y033243D01*
X035116Y033233D02*
X035236D01*
X035176Y033173D02*
Y033293D01*
X035816Y033883D02*
X035936D01*
X035876Y033823D02*
Y033943D01*
X035816Y033633D02*
X035936D01*
X035876Y033573D02*
Y033693D01*
X036116Y033633D02*
X036236D01*
X036176Y033573D02*
Y033693D01*
X037116Y036883D02*
X037236D01*
X037176Y036823D02*
Y036943D01*
X03599Y03552D02*
X03611D01*
X03605Y03546D02*
Y03558D01*
X035963Y034753D02*
X036083D01*
X036023Y034693D02*
Y034813D01*
X042766Y032933D02*
X042886D01*
X042826Y032873D02*
Y032993D01*
X022112Y04321D02*
X022447D01*
X022279Y043042D02*
Y043377D01*
X022112Y043997D02*
X022447D01*
X022279Y04383D02*
Y044164D01*
X022899Y04321D02*
X023234D01*
X023067Y043042D02*
Y043377D01*
X022899Y043997D02*
X023234D01*
X023067Y04383D02*
Y044164D01*
X01807Y042253D02*
X018818D01*
X018444Y041879D02*
Y042627D01*
X01807Y040482D02*
X018818D01*
X018444Y040108D02*
Y040856D01*
X024813Y042753D02*
X024933D01*
X024873Y042693D02*
Y042813D01*
X018713Y043053D02*
X018833D01*
X018773Y042993D02*
Y043113D01*
X017863Y044053D02*
X017983D01*
X017923Y043993D02*
Y044113D01*
X018413Y041353D02*
X018533D01*
X018473Y041293D02*
Y041413D01*
X020213Y041353D02*
X020333D01*
X020273Y041293D02*
Y041413D01*
X031413Y040553D02*
X031533D01*
X031473Y040493D02*
Y040613D01*
X033213Y043253D02*
X033333D01*
X033273Y043193D02*
Y043313D01*
X033213Y039653D02*
X033333D01*
X033273Y039593D02*
Y039713D01*
X033213Y038753D02*
X033333D01*
X033273Y038693D02*
Y038813D01*
X032313Y043253D02*
X032433D01*
X032373Y043193D02*
Y043313D01*
X032313Y040553D02*
X032433D01*
X032373Y040493D02*
Y040613D01*
X032313Y039653D02*
X032433D01*
X032373Y039593D02*
Y039713D01*
X032313Y038753D02*
X032433D01*
X032373Y038693D02*
Y038813D01*
X031413Y043253D02*
X031533D01*
X031473Y043193D02*
Y043313D01*
X031413Y041453D02*
X031533D01*
X031473Y041393D02*
Y041513D01*
X031413Y039653D02*
X031533D01*
X031473Y039593D02*
Y039713D01*
X031413Y038753D02*
X031533D01*
X031473Y038693D02*
Y038813D01*
X030513Y041453D02*
X030633D01*
X030573Y041393D02*
Y041513D01*
X030513Y040553D02*
X030633D01*
X030573Y040493D02*
Y040613D01*
X030513Y039653D02*
X030633D01*
X030573Y039593D02*
Y039713D01*
X030513Y038753D02*
X030633D01*
X030573Y038693D02*
Y038813D01*
X029613Y039653D02*
X029733D01*
X029673Y039593D02*
Y039713D01*
X029613Y038753D02*
X029733D01*
X029673Y038693D02*
Y038813D01*
X028713Y038753D02*
X028833D01*
X028773Y038693D02*
Y038813D01*
X027813Y038753D02*
X027933D01*
X027873Y038693D02*
Y038813D01*
X026913Y038753D02*
X027033D01*
X026973Y038693D02*
Y038813D01*
X018813Y038753D02*
X018933D01*
X018873Y038693D02*
Y038813D01*
X017913Y038753D02*
X018033D01*
X017973Y038693D02*
Y038813D01*
X028313Y040803D02*
X028433D01*
X028373Y040743D02*
Y040863D01*
X028613Y040403D02*
X028733D01*
X028673Y040343D02*
Y040463D01*
X028613Y039853D02*
X028733D01*
X028673Y039793D02*
Y039913D01*
X026913Y040403D02*
X027033D01*
X026973Y040343D02*
Y040463D01*
X026913Y039853D02*
X027033D01*
X026973Y039793D02*
Y039913D01*
X027263Y039553D02*
X027383D01*
X027323Y039493D02*
Y039613D01*
X031413Y044103D02*
X031533D01*
X031473Y044043D02*
Y044163D01*
X032263Y044103D02*
X032383D01*
X032323Y044043D02*
Y044163D01*
X033163Y044103D02*
X033283D01*
X033223Y044043D02*
Y044163D01*
X029913Y042803D02*
X030033D01*
X029973Y042743D02*
Y042863D01*
X031219Y042186D02*
X031339D01*
X031279Y042126D02*
Y042246D01*
X031874Y041676D02*
X031994D01*
X031934Y041616D02*
Y041736D01*
X031867Y042515D02*
X031987D01*
X031927Y042455D02*
Y042575D01*
X033813Y040928D02*
X033933D01*
X033873Y040868D02*
Y040988D01*
X033213Y040928D02*
X033333D01*
X033273Y040868D02*
Y040988D01*
X032613Y040928D02*
X032733D01*
X032673Y040868D02*
Y040988D01*
X032613Y041879D02*
X032733D01*
X032673Y041819D02*
Y041939D01*
X033213Y041879D02*
X033333D01*
X033273Y041819D02*
Y041939D01*
X033813Y041879D02*
X033933D01*
X033873Y041819D02*
Y041939D01*
X031263Y042803D02*
X031383D01*
X031323Y042743D02*
Y042863D01*
X022863Y040303D02*
X022983D01*
X022923Y040243D02*
Y040363D01*
X028163Y041253D02*
X028283D01*
X028223Y041193D02*
Y041313D01*
X028763Y041253D02*
X028883D01*
X028823Y041193D02*
Y041313D01*
X029313Y042803D02*
X029433D01*
X029373Y042743D02*
Y042863D01*
X030513Y042803D02*
X030633D01*
X030573Y042743D02*
Y042863D01*
X030013Y042103D02*
X030133D01*
X030073Y042043D02*
Y042163D01*
X030613Y042103D02*
X030733D01*
X030673Y042043D02*
Y042163D01*
X020313Y042153D02*
X020433D01*
X020373Y042093D02*
Y042213D01*
X020713Y042153D02*
X020833D01*
X020773Y042093D02*
Y042213D01*
X026363Y041653D02*
X026483D01*
X026423Y041593D02*
Y041713D01*
X026313Y042403D02*
X026433D01*
X026373Y042343D02*
Y042463D01*
X025966Y041514D02*
X026086D01*
X026026Y041454D02*
Y041574D01*
X025163Y040753D02*
X025283D01*
X025223Y040693D02*
Y040813D01*
X024413Y041553D02*
X024533D01*
X024473Y041493D02*
Y041613D01*
X026013Y040653D02*
X026133D01*
X026073Y040593D02*
Y040713D01*
X023063Y041153D02*
X023183D01*
X023123Y041093D02*
Y041213D01*
X022513Y040603D02*
X022633D01*
X022573Y040543D02*
Y040663D01*
X026363Y043253D02*
X026483D01*
X026423Y043193D02*
Y043313D01*
X029363Y040753D02*
X029483D01*
X029423Y040693D02*
Y040813D01*
X029363Y041253D02*
X029483D01*
X029423Y041193D02*
Y041313D01*
X019563Y043603D02*
X019683D01*
X019623Y043543D02*
Y043663D01*
X025263Y044053D02*
X025383D01*
X025323Y043993D02*
Y044113D01*
X023863Y044053D02*
X023983D01*
X023923Y043993D02*
Y044113D01*
X029563Y043453D02*
X029683D01*
X029623Y043393D02*
Y043513D01*
X021563Y040903D02*
X021683D01*
X021623Y040843D02*
Y040963D01*
X022263Y042403D02*
X022383D01*
X022323Y042343D02*
Y042463D01*
X027363Y041003D02*
X027483D01*
X027423Y040943D02*
Y041063D01*
X028263Y039553D02*
X028383D01*
X028323Y039493D02*
Y039613D01*
X027763Y039553D02*
X027883D01*
X027823Y039493D02*
Y039613D01*
X024313Y039503D02*
X024433D01*
X024373Y039443D02*
Y039563D01*
X024463Y040953D02*
X024583D01*
X024523Y040893D02*
Y041013D01*
X024113Y041053D02*
X024233D01*
X024173Y040993D02*
Y041113D01*
X024813Y039953D02*
X024933D01*
X024873Y039893D02*
Y040013D01*
X023813Y039303D02*
X023933D01*
X023873Y039243D02*
Y039363D01*
X023563Y039553D02*
X023683D01*
X023623Y039493D02*
Y039613D01*
X023313Y039803D02*
X023433D01*
X023373Y039743D02*
Y039863D01*
X023213Y040153D02*
X023333D01*
X023273Y040093D02*
Y040213D01*
X023513Y040453D02*
X023633D01*
X023573Y040393D02*
Y040513D01*
X023813Y040753D02*
X023933D01*
X023873Y040693D02*
Y040813D01*
X024763Y040703D02*
X024883D01*
X024823Y040643D02*
Y040763D01*
X024963Y040453D02*
X025083D01*
X025023Y040393D02*
Y040513D01*
X028813Y043803D02*
X028933D01*
X028873Y043743D02*
Y043863D01*
X026263Y043903D02*
X026383D01*
X026323Y043843D02*
Y043963D01*
X027413Y043953D02*
X027533D01*
X027473Y043893D02*
Y044013D01*
X020713Y040553D02*
X020833D01*
X020773Y040493D02*
Y040613D01*
X020663Y040103D02*
X020783D01*
X020723Y040043D02*
Y040163D01*
X021563Y043703D02*
X021683D01*
X021623Y043643D02*
Y043763D01*
X020763Y044053D02*
X020883D01*
X020823Y043993D02*
Y044113D01*
X024163Y043503D02*
X024283D01*
X024223Y043443D02*
Y043563D01*
X019463Y040103D02*
X019583D01*
X019523Y040043D02*
Y040163D01*
X023913Y041803D02*
X024033D01*
X023973Y041743D02*
Y041863D01*
X025713Y039153D02*
X025833D01*
X025773Y039093D02*
Y039213D01*
X023963Y038603D02*
X024083D01*
X024023Y038543D02*
Y038663D01*
X020813Y039403D02*
X020933D01*
X020873Y039343D02*
Y039463D01*
X018463Y039453D02*
X018583D01*
X018523Y039393D02*
Y039513D01*
X019163Y040103D02*
X019283D01*
X019223Y040043D02*
Y040163D01*
X019163Y039853D02*
X019283D01*
X019223Y039793D02*
Y039913D01*
X019463Y039853D02*
X019583D01*
X019523Y039793D02*
Y039913D01*
X020463Y043103D02*
X020583D01*
X020523Y043043D02*
Y043163D01*
X019337Y04174D02*
X019457D01*
X019397Y04168D02*
Y0418D01*
X019309Y040974D02*
X019429D01*
X019369Y040914D02*
Y041034D01*
X026113Y039153D02*
X026233D01*
X026173Y039093D02*
Y039213D01*
X038765Y04321D02*
X0391D01*
X038933Y043042D02*
Y043377D01*
X038765Y043997D02*
X0391D01*
X038933Y04383D02*
Y044164D01*
X039553Y04321D02*
X039887D01*
X03972Y043042D02*
Y043377D01*
X039553Y043997D02*
X039887D01*
X03972Y04383D02*
Y044164D01*
X034723Y042253D02*
X035471D01*
X035097Y041879D02*
Y042627D01*
X034723Y040482D02*
X035471D01*
X035097Y040108D02*
Y040856D01*
X041466Y042753D02*
X041586D01*
X041526Y042693D02*
Y042813D01*
X035366Y043053D02*
X035486D01*
X035426Y042993D02*
Y043113D01*
X034516Y044053D02*
X034636D01*
X034576Y043993D02*
Y044113D01*
X035066Y041353D02*
X035186D01*
X035126Y041293D02*
Y041413D01*
X036866Y041353D02*
X036986D01*
X036926Y041293D02*
Y041413D01*
X048066Y040553D02*
X048186D01*
X048126Y040493D02*
Y040613D01*
X049866Y043253D02*
X049986D01*
X049926Y043193D02*
Y043313D01*
X049866Y039653D02*
X049986D01*
X049926Y039593D02*
Y039713D01*
X049866Y038753D02*
X049986D01*
X049926Y038693D02*
Y038813D01*
X048966Y043253D02*
X049086D01*
X049026Y043193D02*
Y043313D01*
X048966Y040553D02*
X049086D01*
X049026Y040493D02*
Y040613D01*
X048966Y039653D02*
X049086D01*
X049026Y039593D02*
Y039713D01*
X048966Y038753D02*
X049086D01*
X049026Y038693D02*
Y038813D01*
X048066Y043253D02*
X048186D01*
X048126Y043193D02*
Y043313D01*
X048066Y041453D02*
X048186D01*
X048126Y041393D02*
Y041513D01*
X048066Y039653D02*
X048186D01*
X048126Y039593D02*
Y039713D01*
X048066Y038753D02*
X048186D01*
X048126Y038693D02*
Y038813D01*
X047166Y041453D02*
X047286D01*
X047226Y041393D02*
Y041513D01*
X047166Y040553D02*
X047286D01*
X047226Y040493D02*
Y040613D01*
X047166Y039653D02*
X047286D01*
X047226Y039593D02*
Y039713D01*
X047166Y038753D02*
X047286D01*
X047226Y038693D02*
Y038813D01*
X046266Y039653D02*
X046386D01*
X046326Y039593D02*
Y039713D01*
X046266Y038753D02*
X046386D01*
X046326Y038693D02*
Y038813D01*
X045366Y038753D02*
X045486D01*
X045426Y038693D02*
Y038813D01*
X044466Y038753D02*
X044586D01*
X044526Y038693D02*
Y038813D01*
X043566Y038753D02*
X043686D01*
X043626Y038693D02*
Y038813D01*
X035466Y038753D02*
X035586D01*
X035526Y038693D02*
Y038813D01*
X034566Y038753D02*
X034686D01*
X034626Y038693D02*
Y038813D01*
X044966Y040803D02*
X045086D01*
X045026Y040743D02*
Y040863D01*
X045266Y040403D02*
X045386D01*
X045326Y040343D02*
Y040463D01*
X045266Y039853D02*
X045386D01*
X045326Y039793D02*
Y039913D01*
X043566Y040403D02*
X043686D01*
X043626Y040343D02*
Y040463D01*
X043566Y039853D02*
X043686D01*
X043626Y039793D02*
Y039913D01*
X043916Y039553D02*
X044036D01*
X043976Y039493D02*
Y039613D01*
X048066Y044103D02*
X048186D01*
X048126Y044043D02*
Y044163D01*
X048916Y044103D02*
X049036D01*
X048976Y044043D02*
Y044163D01*
X049816Y044103D02*
X049936D01*
X049876Y044043D02*
Y044163D01*
X046566Y042803D02*
X046686D01*
X046626Y042743D02*
Y042863D01*
X047873Y042186D02*
X047993D01*
X047933Y042126D02*
Y042246D01*
X048528Y041676D02*
X048648D01*
X048588Y041616D02*
Y041736D01*
X04852Y042515D02*
X04864D01*
X04858Y042455D02*
Y042575D01*
X050466Y040928D02*
X050586D01*
X050526Y040868D02*
Y040988D01*
X049866Y040928D02*
X049986D01*
X049926Y040868D02*
Y040988D01*
X049266Y040928D02*
X049386D01*
X049326Y040868D02*
Y040988D01*
X049266Y041879D02*
X049386D01*
X049326Y041819D02*
Y041939D01*
X049866Y041879D02*
X049986D01*
X049926Y041819D02*
Y041939D01*
X050466Y041879D02*
X050586D01*
X050526Y041819D02*
Y041939D01*
X047916Y042803D02*
X048036D01*
X047976Y042743D02*
Y042863D01*
X039516Y040303D02*
X039636D01*
X039576Y040243D02*
Y040363D01*
X044816Y041253D02*
X044936D01*
X044876Y041193D02*
Y041313D01*
X045416Y041253D02*
X045536D01*
X045476Y041193D02*
Y041313D01*
X045966Y042803D02*
X046086D01*
X046026Y042743D02*
Y042863D01*
X047166Y042803D02*
X047286D01*
X047226Y042743D02*
Y042863D01*
X046666Y042103D02*
X046786D01*
X046726Y042043D02*
Y042163D01*
X047266Y042103D02*
X047386D01*
X047326Y042043D02*
Y042163D01*
X036966Y042153D02*
X037086D01*
X037026Y042093D02*
Y042213D01*
X037366Y042153D02*
X037486D01*
X037426Y042093D02*
Y042213D01*
X043016Y041653D02*
X043136D01*
X043076Y041593D02*
Y041713D01*
X042966Y042403D02*
X043086D01*
X043026Y042343D02*
Y042463D01*
X04262Y041514D02*
X04274D01*
X04268Y041454D02*
Y041574D01*
X041816Y040753D02*
X041936D01*
X041876Y040693D02*
Y040813D01*
X041066Y041553D02*
X041186D01*
X041126Y041493D02*
Y041613D01*
X042666Y040653D02*
X042786D01*
X042726Y040593D02*
Y040713D01*
X039716Y041153D02*
X039836D01*
X039776Y041093D02*
Y041213D01*
X039166Y040603D02*
X039286D01*
X039226Y040543D02*
Y040663D01*
X043016Y043253D02*
X043136D01*
X043076Y043193D02*
Y043313D01*
X046016Y040753D02*
X046136D01*
X046076Y040693D02*
Y040813D01*
X046016Y041253D02*
X046136D01*
X046076Y041193D02*
Y041313D01*
X036216Y043603D02*
X036336D01*
X036276Y043543D02*
Y043663D01*
X041916Y044053D02*
X042036D01*
X041976Y043993D02*
Y044113D01*
X040516Y044053D02*
X040636D01*
X040576Y043993D02*
Y044113D01*
X046216Y043453D02*
X046336D01*
X046276Y043393D02*
Y043513D01*
X038216Y040903D02*
X038336D01*
X038276Y040843D02*
Y040963D01*
X038916Y042403D02*
X039036D01*
X038976Y042343D02*
Y042463D01*
X044016Y041003D02*
X044136D01*
X044076Y040943D02*
Y041063D01*
X044916Y039553D02*
X045036D01*
X044976Y039493D02*
Y039613D01*
X044416Y039553D02*
X044536D01*
X044476Y039493D02*
Y039613D01*
X040966Y039503D02*
X041086D01*
X041026Y039443D02*
Y039563D01*
X041116Y040953D02*
X041236D01*
X041176Y040893D02*
Y041013D01*
X040766Y041053D02*
X040886D01*
X040826Y040993D02*
Y041113D01*
X041466Y039953D02*
X041586D01*
X041526Y039893D02*
Y040013D01*
X040466Y039303D02*
X040586D01*
X040526Y039243D02*
Y039363D01*
X040216Y039553D02*
X040336D01*
X040276Y039493D02*
Y039613D01*
X039966Y039803D02*
X040086D01*
X040026Y039743D02*
Y039863D01*
X039866Y040153D02*
X039986D01*
X039926Y040093D02*
Y040213D01*
X040166Y040453D02*
X040286D01*
X040226Y040393D02*
Y040513D01*
X040466Y040753D02*
X040586D01*
X040526Y040693D02*
Y040813D01*
X041416Y040703D02*
X041536D01*
X041476Y040643D02*
Y040763D01*
X041616Y040453D02*
X041736D01*
X041676Y040393D02*
Y040513D01*
X045466Y043803D02*
X045586D01*
X045526Y043743D02*
Y043863D01*
X042916Y043903D02*
X043036D01*
X042976Y043843D02*
Y043963D01*
X044066Y043953D02*
X044186D01*
X044126Y043893D02*
Y044013D01*
X037366Y040553D02*
X037486D01*
X037426Y040493D02*
Y040613D01*
X037316Y040103D02*
X037436D01*
X037376Y040043D02*
Y040163D01*
X038216Y043703D02*
X038336D01*
X038276Y043643D02*
Y043763D01*
X037416Y044053D02*
X037536D01*
X037476Y043993D02*
Y044113D01*
X040816Y043503D02*
X040936D01*
X040876Y043443D02*
Y043563D01*
X036116Y040103D02*
X036236D01*
X036176Y040043D02*
Y040163D01*
X040566Y041803D02*
X040686D01*
X040626Y041743D02*
Y041863D01*
X042366Y039153D02*
X042486D01*
X042426Y039093D02*
Y039213D01*
X040616Y038603D02*
X040736D01*
X040676Y038543D02*
Y038663D01*
X037466Y039403D02*
X037586D01*
X037526Y039343D02*
Y039463D01*
X035116Y039453D02*
X035236D01*
X035176Y039393D02*
Y039513D01*
X035816Y040103D02*
X035936D01*
X035876Y040043D02*
Y040163D01*
X035816Y039853D02*
X035936D01*
X035876Y039793D02*
Y039913D01*
X036116Y039853D02*
X036236D01*
X036176Y039793D02*
Y039913D01*
X037116Y043103D02*
X037236D01*
X037176Y043043D02*
Y043163D01*
X03599Y04174D02*
X03611D01*
X03605Y04168D02*
Y0418D01*
X035963Y040974D02*
X036083D01*
X036023Y040914D02*
Y041034D01*
X042766Y039153D02*
X042886D01*
X042826Y039093D02*
Y039213D01*
M02*
