G04*
G04 #@! TF.GenerationSoftware,Altium Limited,Altium Designer,22.10.1 (41)*
G04*
G04 Layer_Color=2752767*
%FSTAX24Y24*%
%MOIN*%
G70*
G04*
G04 #@! TF.SameCoordinates,87BD3A09-32BE-4FA1-A735-6A54E07DCED2*
G04*
G04*
G04 #@! TF.FilePolarity,Positive*
G04*
G01*
G75*
%ADD59C,0.0020*%
%ADD60C,0.0027*%
D59*
X020416Y010204D02*
X020336Y010364D01*
X020496D01*
X020416Y010204D01*
X022384D02*
X022304Y010364D01*
X022464D01*
X022384Y010204D01*
Y008236D02*
X022304Y008396D01*
X022464D01*
X022384Y008236D01*
X020416D02*
X020336Y008396D01*
X020496D01*
X020416Y008236D01*
X0214Y00922D02*
X02144Y00926D01*
X02148D01*
X02144Y0093D01*
X02148Y00934D01*
X02144D01*
X0214Y00938D01*
X02136Y00934D01*
X02132D01*
X02136Y0093D01*
X02132Y00926D01*
X02136D01*
X0214Y00922D01*
X007264Y007284D02*
Y007444D01*
X007424D01*
Y007284D01*
X007264D01*
X007264Y009056D02*
Y009216D01*
X007424D01*
Y009056D01*
X007264D01*
X010443Y007093D02*
X010483Y007173D01*
X010443Y007253D01*
X010523Y007213D01*
X010603Y007253D01*
X010563Y007173D01*
X010603Y007093D01*
X010523Y007133D01*
X010443Y007093D01*
X02246Y00921D02*
Y00917D01*
X02254D01*
Y00921D01*
X02258D01*
Y00929D01*
X02254D01*
Y00933D01*
X02246D01*
Y00929D01*
X02242D01*
Y00921D01*
X02246D01*
X01872Y00867D02*
X01876Y00875D01*
X01872Y00883D01*
X0188Y00879D01*
X01888Y00883D01*
X01884Y00875D01*
X01888Y00867D01*
X0188Y00871D01*
X01872Y00867D01*
X01662Y00847D02*
X01666Y00855D01*
X01662Y00863D01*
X0167Y00859D01*
X01678Y00863D01*
X01674Y00855D01*
X01678Y00847D01*
X0167Y00851D01*
X01662Y00847D01*
X02039Y009533D02*
X02047Y009613D01*
X02055Y009533D01*
X02047Y009453D01*
X02039Y009533D01*
X019738Y00902D02*
X019818Y0091D01*
X019898Y00902D01*
X019818Y00894D01*
X019738Y00902D01*
X020567Y008978D02*
X020647Y009058D01*
X020727Y008978D01*
X020647Y008898D01*
X020567Y008978D01*
X021338Y008672D02*
X021418Y008752D01*
X021498Y008672D01*
X021418Y008592D01*
X021338Y008672D01*
X021944Y009239D02*
X022024Y009319D01*
X022104Y009239D01*
X022024Y009159D01*
X021944Y009239D01*
X02146Y009914D02*
X02154Y009994D01*
X02162Y009914D01*
X02154Y009834D01*
X02146Y009914D01*
X01907Y00627D02*
X01911Y00635D01*
X01907Y00643D01*
X01915Y00639D01*
X01923Y00643D01*
X01919Y00635D01*
X01923Y00627D01*
X01915Y00631D01*
X01907Y00627D01*
X01967Y00682D02*
X01971Y0069D01*
X01967Y00698D01*
X01975Y00694D01*
X01983Y00698D01*
X01979Y0069D01*
X01983Y00682D01*
X01975Y00686D01*
X01967Y00682D01*
X01997Y00732D02*
X02001Y0074D01*
X01997Y00748D01*
X02005Y00744D01*
X02013Y00748D01*
X02009Y0074D01*
X02013Y00732D01*
X02005Y00736D01*
X01997Y00732D01*
X017771Y010869D02*
X017811Y010949D01*
X017771Y011029D01*
X017851Y010989D01*
X017931Y011029D01*
X017891Y010949D01*
X017931Y010869D01*
X017851Y010909D01*
X017771Y010869D01*
X01957Y01002D02*
X01961Y0101D01*
X01957Y01018D01*
X01965Y01014D01*
X01973Y01018D01*
X01969Y0101D01*
X01973Y01002D01*
X01965Y01006D01*
X01957Y01002D01*
X01972Y01057D02*
X01976Y01065D01*
X01972Y01073D01*
X0198Y01069D01*
X01988Y01073D01*
X01984Y01065D01*
X01988Y01057D01*
X0198Y01061D01*
X01972Y01057D01*
X01912Y01002D02*
X01916Y0101D01*
X01912Y01018D01*
X0192Y01014D01*
X01928Y01018D01*
X01924Y0101D01*
X01928Y01002D01*
X0192Y01006D01*
X01912Y01002D01*
Y01057D02*
X01916Y01065D01*
X01912Y01073D01*
X0192Y01069D01*
X01928Y01073D01*
X01924Y01065D01*
X01928Y01057D01*
X0192Y01061D01*
X01912Y01057D01*
Y01107D02*
X01916Y01115D01*
X01912Y01123D01*
X0192Y01119D01*
X01928Y01123D01*
X01924Y01115D01*
X01928Y01107D01*
X0192Y01111D01*
X01912Y01107D01*
X01837Y01012D02*
X01841Y0102D01*
X01837Y01028D01*
X01845Y01024D01*
X01853Y01028D01*
X01849Y0102D01*
X01853Y01012D01*
X01845Y01016D01*
X01837Y01012D01*
X01492Y00817D02*
X01496Y00825D01*
X01492Y00833D01*
X015Y00829D01*
X01508Y00833D01*
X01504Y00825D01*
X01508Y00817D01*
X015Y00821D01*
X01492Y00817D01*
X01522Y00787D02*
X01526Y00795D01*
X01522Y00803D01*
X0153Y00799D01*
X01538Y00803D01*
X01534Y00795D01*
X01538Y00787D01*
X0153Y00791D01*
X01522Y00787D01*
X01552Y00757D02*
X01556Y00765D01*
X01552Y00773D01*
X0156Y00769D01*
X01568Y00773D01*
X01564Y00765D01*
X01568Y00757D01*
X0156Y00761D01*
X01552Y00757D01*
X01632Y00732D02*
X01636Y0074D01*
X01632Y00748D01*
X0164Y00744D01*
X01648Y00748D01*
X01644Y0074D01*
X01648Y00732D01*
X0164Y00736D01*
X01632Y00732D01*
Y00762D02*
X01636Y0077D01*
X01632Y00778D01*
X0164Y00774D01*
X01648Y00778D01*
X01644Y0077D01*
X01648Y00762D01*
X0164Y00766D01*
X01632Y00762D01*
X016255Y008508D02*
X016295Y008588D01*
X016255Y008668D01*
X016335Y008628D01*
X016415Y008668D01*
X016375Y008588D01*
X016415Y008508D01*
X016335Y008548D01*
X016255Y008508D01*
X01642Y00917D02*
X01646Y00925D01*
X01642Y00933D01*
X0165Y00929D01*
X01658Y00933D01*
X01654Y00925D01*
X01658Y00917D01*
X0165Y00921D01*
X01642Y00917D01*
X01627Y00947D02*
X01631Y00955D01*
X01627Y00963D01*
X01635Y00959D01*
X01643Y00963D01*
X01639Y00955D01*
X01643Y00947D01*
X01635Y00951D01*
X01627Y00947D01*
X017801Y007751D02*
X017841Y007831D01*
X017801Y007911D01*
X017881Y007871D01*
X017961Y007911D01*
X017921Y007831D01*
X017961Y007751D01*
X017881Y007791D01*
X017801Y007751D01*
X01627Y01027D02*
X01631Y01035D01*
X01627Y01043D01*
X01635Y01039D01*
X01643Y01043D01*
X01639Y01035D01*
X01643Y01027D01*
X01635Y01031D01*
X01627Y01027D01*
X01422Y01107D02*
X01426Y01115D01*
X01422Y01123D01*
X0143Y01119D01*
X01438Y01123D01*
X01434Y01115D01*
X01438Y01107D01*
X0143Y01111D01*
X01422Y01107D01*
X01332D02*
X01336Y01115D01*
X01332Y01123D01*
X0134Y01119D01*
X01348Y01123D01*
X01344Y01115D01*
X01348Y01107D01*
X0134Y01111D01*
X01332Y01107D01*
X01622Y011099D02*
X01626Y011179D01*
X01622Y011259D01*
X0163Y011219D01*
X01638Y011259D01*
X01634Y011179D01*
X01638Y011099D01*
X0163Y011139D01*
X01622Y011099D01*
X02212Y00727D02*
X02216Y00735D01*
X02212Y00743D01*
X0222Y00739D01*
X02228Y00743D01*
X02224Y00735D01*
X02228Y00727D01*
X0222Y00731D01*
X02212Y00727D01*
X02142Y00732D02*
X02146Y0074D01*
X02142Y00748D01*
X0215Y00744D01*
X02158Y00748D01*
X02154Y0074D01*
X02158Y00732D01*
X0215Y00736D01*
X02142Y00732D01*
X02062D02*
X02066Y0074D01*
X02062Y00748D01*
X0207Y00744D01*
X02078Y00748D01*
X02074Y0074D01*
X02078Y00732D01*
X0207Y00736D01*
X02062Y00732D01*
X02212Y00682D02*
X02216Y0069D01*
X02212Y00698D01*
X0222Y00694D01*
X02228Y00698D01*
X02224Y0069D01*
X02228Y00682D01*
X0222Y00686D01*
X02212Y00682D01*
X02142Y00677D02*
X02146Y00685D01*
X02142Y00693D01*
X0215Y00689D01*
X02158Y00693D01*
X02154Y00685D01*
X02158Y00677D01*
X0215Y00681D01*
X02142Y00677D01*
X02037Y00682D02*
X02041Y0069D01*
X02037Y00698D01*
X02045Y00694D01*
X02053Y00698D01*
X02049Y0069D01*
X02053Y00682D01*
X02045Y00686D01*
X02037Y00682D01*
X02207Y00627D02*
X02211Y00635D01*
X02207Y00643D01*
X02215Y00639D01*
X02223Y00643D01*
X02219Y00635D01*
X02223Y00627D01*
X02215Y00631D01*
X02207Y00627D01*
X02142D02*
X02146Y00635D01*
X02142Y00643D01*
X0215Y00639D01*
X02158Y00643D01*
X02154Y00635D01*
X02158Y00627D01*
X0215Y00631D01*
X02142Y00627D01*
X02052D02*
X02056Y00635D01*
X02052Y00643D01*
X0206Y00639D01*
X02068Y00643D01*
X02064Y00635D01*
X02068Y00627D01*
X0206Y00631D01*
X02052Y00627D01*
X02207Y00577D02*
X02211Y00585D01*
X02207Y00593D01*
X02215Y00589D01*
X02223Y00593D01*
X02219Y00585D01*
X02223Y00577D01*
X02215Y00581D01*
X02207Y00577D01*
X02102D02*
X02106Y00585D01*
X02102Y00593D01*
X0211Y00589D01*
X02118Y00593D01*
X02114Y00585D01*
X02118Y00577D01*
X0211Y00581D01*
X02102Y00577D01*
X01967Y00627D02*
X01971Y00635D01*
X01967Y00643D01*
X01975Y00639D01*
X01983Y00643D01*
X01979Y00635D01*
X01983Y00627D01*
X01975Y00631D01*
X01967Y00627D01*
X02022Y00572D02*
X02026Y0058D01*
X02022Y00588D01*
X0203Y00584D01*
X02038Y00588D01*
X02034Y0058D01*
X02038Y00572D01*
X0203Y00576D01*
X02022Y00572D01*
X01937Y00577D02*
X01941Y00585D01*
X01937Y00593D01*
X01945Y00589D01*
X01953Y00593D01*
X01949Y00585D01*
X01953Y00577D01*
X01945Y00581D01*
X01937Y00577D01*
X01847D02*
X01851Y00585D01*
X01847Y00593D01*
X01855Y00589D01*
X01863Y00593D01*
X01859Y00585D01*
X01863Y00577D01*
X01855Y00581D01*
X01847Y00577D01*
X01762D02*
X01766Y00585D01*
X01762Y00593D01*
X0177Y00589D01*
X01778Y00593D01*
X01774Y00585D01*
X01778Y00577D01*
X0177Y00581D01*
X01762Y00577D01*
X01442Y010362D02*
X01446Y010442D01*
X01442Y010522D01*
X0145Y010482D01*
X01458Y010522D01*
X01454Y010442D01*
X01458Y010362D01*
X0145Y010402D01*
X01442Y010362D01*
X02202Y01107D02*
X02206Y01115D01*
X02202Y01123D01*
X0221Y01119D01*
X02218Y01123D01*
X02214Y01115D01*
X02218Y01107D01*
X0221Y01111D01*
X02202Y01107D01*
X017729Y005361D02*
X017769Y005441D01*
X017729Y005521D01*
X017809Y005481D01*
X017889Y005521D01*
X017849Y005441D01*
X017889Y005361D01*
X017809Y005401D01*
X017729Y005361D01*
X01697Y00537D02*
X01701Y00545D01*
X01697Y00553D01*
X01705Y00549D01*
X01713Y00553D01*
X01709Y00545D01*
X01713Y00537D01*
X01705Y00541D01*
X01697Y00537D01*
X01852D02*
X01856Y00545D01*
X01852Y00553D01*
X0186Y00549D01*
X01868Y00553D01*
X01864Y00545D01*
X01868Y00537D01*
X0186Y00541D01*
X01852Y00537D01*
X01917D02*
X01921Y00545D01*
X01917Y00553D01*
X01925Y00549D01*
X01933Y00553D01*
X01929Y00545D01*
X01933Y00537D01*
X01925Y00541D01*
X01917Y00537D01*
X01992D02*
X01996Y00545D01*
X01992Y00553D01*
X02Y00549D01*
X02008Y00553D01*
X02004Y00545D01*
X02008Y00537D01*
X02Y00541D01*
X01992Y00537D01*
X02072D02*
X02076Y00545D01*
X02072Y00553D01*
X0208Y00549D01*
X02088Y00553D01*
X02084Y00545D01*
X02088Y00537D01*
X0208Y00541D01*
X02072Y00537D01*
X02142D02*
X02146Y00545D01*
X02142Y00553D01*
X0215Y00549D01*
X02158Y00553D01*
X02154Y00545D01*
X02158Y00537D01*
X0215Y00541D01*
X02142Y00537D01*
X00667Y00612D02*
X00671Y0062D01*
X00667Y00628D01*
X00675Y00624D01*
X00683Y00628D01*
X00679Y0062D01*
X00683Y00612D01*
X00675Y00616D01*
X00667Y00612D01*
X01092Y00537D02*
X01096Y00545D01*
X01092Y00553D01*
X011Y00549D01*
X01108Y00553D01*
X01104Y00545D01*
X01108Y00537D01*
X011Y00541D01*
X01092Y00537D01*
X00937D02*
X00941Y00545D01*
X00937Y00553D01*
X00945Y00549D01*
X00953Y00553D01*
X00949Y00545D01*
X00953Y00537D01*
X00945Y00541D01*
X00937Y00537D01*
X00847D02*
X00851Y00545D01*
X00847Y00553D01*
X00855Y00549D01*
X00863Y00553D01*
X00859Y00545D01*
X00863Y00537D01*
X00855Y00541D01*
X00847Y00537D01*
X00752D02*
X00756Y00545D01*
X00752Y00553D01*
X0076Y00549D01*
X00768Y00553D01*
X00764Y00545D01*
X00768Y00537D01*
X0076Y00541D01*
X00752Y00537D01*
X00672D02*
X00676Y00545D01*
X00672Y00553D01*
X0068Y00549D01*
X00688Y00553D01*
X00684Y00545D01*
X00688Y00537D01*
X0068Y00541D01*
X00672Y00537D01*
X02212D02*
X02216Y00545D01*
X02212Y00553D01*
X0222Y00549D01*
X02228Y00553D01*
X02224Y00545D01*
X02228Y00537D01*
X0222Y00541D01*
X02212Y00537D01*
X02272D02*
X02276Y00545D01*
X02272Y00553D01*
X0228Y00549D01*
X02288Y00553D01*
X02284Y00545D01*
X02288Y00537D01*
X0228Y00541D01*
X02272Y00537D01*
Y00577D02*
X02276Y00585D01*
X02272Y00593D01*
X0228Y00589D01*
X02288Y00593D01*
X02284Y00585D01*
X02288Y00577D01*
X0228Y00581D01*
X02272Y00577D01*
Y00632D02*
X02276Y0064D01*
X02272Y00648D01*
X0228Y00644D01*
X02288Y00648D01*
X02284Y0064D01*
X02288Y00632D01*
X0228Y00636D01*
X02272Y00632D01*
Y00682D02*
X02276Y0069D01*
X02272Y00698D01*
X0228Y00694D01*
X02288Y00698D01*
X02284Y0069D01*
X02288Y00682D01*
X0228Y00686D01*
X02272Y00682D01*
Y00732D02*
X02276Y0074D01*
X02272Y00748D01*
X0228Y00744D01*
X02288Y00748D01*
X02284Y0074D01*
X02288Y00732D01*
X0228Y00736D01*
X02272Y00732D01*
Y01107D02*
X02276Y01115D01*
X02272Y01123D01*
X0228Y01119D01*
X02288Y01123D01*
X02284Y01115D01*
X02288Y01107D01*
X0228Y01111D01*
X02272Y01107D01*
X02127D02*
X02131Y01115D01*
X02127Y01123D01*
X02135Y01119D01*
X02143Y01123D01*
X02139Y01115D01*
X02143Y01107D01*
X02135Y01111D01*
X02127Y01107D01*
X02057D02*
X02061Y01115D01*
X02057Y01123D01*
X02065Y01119D01*
X02073Y01123D01*
X02069Y01115D01*
X02073Y01107D01*
X02065Y01111D01*
X02057Y01107D01*
X01987D02*
X01991Y01115D01*
X01987Y01123D01*
X01995Y01119D01*
X02003Y01123D01*
X01999Y01115D01*
X02003Y01107D01*
X01995Y01111D01*
X01987Y01107D01*
X01532Y00937D02*
X01536Y00945D01*
X01532Y00953D01*
X0154Y00949D01*
X01548Y00953D01*
X01544Y00945D01*
X01548Y00937D01*
X0154Y00941D01*
X01532Y00937D01*
X01442Y01012D02*
X01446Y0102D01*
X01442Y01028D01*
X0145Y01024D01*
X01458Y01028D01*
X01454Y0102D01*
X01458Y01012D01*
X0145Y01016D01*
X01442Y01012D01*
X01277Y00907D02*
X01281Y00915D01*
X01277Y00923D01*
X01285Y00919D01*
X01293Y00923D01*
X01289Y00915D01*
X01293Y00907D01*
X01285Y00911D01*
X01277Y00907D01*
X01457Y00837D02*
X01461Y00845D01*
X01457Y00853D01*
X01465Y00849D01*
X01473Y00853D01*
X01469Y00845D01*
X01473Y00837D01*
X01465Y00841D01*
X01457Y00837D01*
X01157Y00907D02*
X01161Y00915D01*
X01157Y00923D01*
X01165Y00919D01*
X01173Y00923D01*
X01169Y00915D01*
X01173Y00907D01*
X01165Y00911D01*
X01157Y00907D01*
X01602Y00612D02*
X01606Y0062D01*
X01602Y00628D01*
X0161Y00624D01*
X01618Y00628D01*
X01614Y0062D01*
X01618Y00612D01*
X0161Y00616D01*
X01602Y00612D01*
Y00632D02*
X01606Y0064D01*
X01602Y00648D01*
X0161Y00644D01*
X01618Y00648D01*
X01614Y0064D01*
X01618Y00632D01*
X0161Y00636D01*
X01602Y00632D01*
X01092Y010595D02*
X01096Y010675D01*
X01092Y010755D01*
X011Y010715D01*
X01108Y010755D01*
X01104Y010675D01*
X01108Y010595D01*
X011Y010635D01*
X01092Y010595D01*
Y01027D02*
X01096Y01035D01*
X01092Y01043D01*
X011Y01039D01*
X01108Y01043D01*
X01104Y01035D01*
X01108Y01027D01*
X011Y01031D01*
X01092Y01027D01*
X01117Y00677D02*
X01121Y00685D01*
X01117Y00693D01*
X01125Y00689D01*
X01133Y00693D01*
X01129Y00685D01*
X01133Y00677D01*
X01125Y00681D01*
X01117Y00677D01*
X01222Y00647D02*
X01226Y00655D01*
X01222Y00663D01*
X0123Y00659D01*
X01238Y00663D01*
X01234Y00655D01*
X01238Y00647D01*
X0123Y00651D01*
X01222Y00647D01*
X01092Y00717D02*
X01096Y00725D01*
X01092Y00733D01*
X011Y00729D01*
X01108Y00733D01*
X01104Y00725D01*
X01108Y00717D01*
X011Y00721D01*
X01092Y00717D01*
X01117D02*
X01121Y00725D01*
X01117Y00733D01*
X01125Y00729D01*
X01133Y00733D01*
X01129Y00725D01*
X01133Y00717D01*
X01125Y00721D01*
X01117Y00717D01*
Y00742D02*
X01121Y0075D01*
X01117Y00758D01*
X01125Y00754D01*
X01133Y00758D01*
X01129Y0075D01*
X01133Y00742D01*
X01125Y00746D01*
X01117Y00742D01*
X01092D02*
X01096Y0075D01*
X01092Y00758D01*
X011Y00754D01*
X01108Y00758D01*
X01104Y0075D01*
X01108Y00742D01*
X011Y00746D01*
X01092Y00742D01*
Y00952D02*
X01096Y0096D01*
X01092Y00968D01*
X011Y00964D01*
X01108Y00968D01*
X01104Y0096D01*
X01108Y00952D01*
X011Y00956D01*
X01092Y00952D01*
Y00987D02*
X01096Y00995D01*
X01092Y01003D01*
X011Y00999D01*
X01108Y01003D01*
X01104Y00995D01*
X01108Y00987D01*
X011Y00991D01*
X01092Y00987D01*
X01107Y00607D02*
X01111Y00615D01*
X01107Y00623D01*
X01115Y00619D01*
X01123Y00623D01*
X01119Y00615D01*
X01123Y00607D01*
X01115Y00611D01*
X01107Y00607D01*
X00797Y00617D02*
X00801Y00625D01*
X00797Y00633D01*
X00805Y00629D01*
X00813Y00633D01*
X00809Y00625D01*
X00813Y00617D01*
X00805Y00621D01*
X00797Y00617D01*
X01227Y00607D02*
X01231Y00615D01*
X01227Y00623D01*
X01235Y00619D01*
X01243Y00623D01*
X01239Y00615D01*
X01243Y00607D01*
X01235Y00611D01*
X01227Y00607D01*
X011985D02*
X012025Y00615D01*
X011985Y00623D01*
X012065Y00619D01*
X012145Y00623D01*
X012105Y00615D01*
X012145Y00607D01*
X012065Y00611D01*
X011985Y00607D01*
X01302Y00762D02*
X01306Y0077D01*
X01302Y00778D01*
X0131Y00774D01*
X01318Y00778D01*
X01314Y0077D01*
X01318Y00762D01*
X0131Y00766D01*
X01302Y00762D01*
X01222Y00732D02*
X01226Y0074D01*
X01222Y00748D01*
X0123Y00744D01*
X01238Y00748D01*
X01234Y0074D01*
X01238Y00732D01*
X0123Y00736D01*
X01222Y00732D01*
X01327Y00692D02*
X01331Y007D01*
X01327Y00708D01*
X01335Y00704D01*
X01343Y00708D01*
X01339Y007D01*
X01343Y00692D01*
X01335Y00696D01*
X01327Y00692D01*
X013657Y006859D02*
X013697Y006939D01*
X013657Y007019D01*
X013736Y006979D01*
X013816Y007019D01*
X013777Y006939D01*
X013816Y006859D01*
X013736Y006899D01*
X013657Y006859D01*
X00697Y01012D02*
X00701Y0102D01*
X00697Y01028D01*
X00705Y01024D01*
X00713Y01028D01*
X00709Y0102D01*
X00713Y01012D01*
X00705Y01016D01*
X00697Y01012D01*
X00917Y00782D02*
X00921Y0079D01*
X00917Y00798D01*
X00925Y00794D01*
X00933Y00798D01*
X00929Y0079D01*
X00933Y00782D01*
X00925Y00786D01*
X00917Y00782D01*
X00847Y01047D02*
X00851Y01055D01*
X00847Y01063D01*
X00855Y01059D01*
X00863Y01063D01*
X00859Y01055D01*
X00863Y01047D01*
X00855Y01051D01*
X00847Y01047D01*
X00997Y00897D02*
X01001Y00905D01*
X00997Y00913D01*
X01005Y00909D01*
X01013Y00913D01*
X01009Y00905D01*
X01013Y00897D01*
X01005Y00901D01*
X00997Y00897D01*
X01407Y00617D02*
X01411Y00625D01*
X01407Y00633D01*
X01415Y00629D01*
X01423Y00633D01*
X01419Y00625D01*
X01423Y00617D01*
X01415Y00621D01*
X01407Y00617D01*
Y00732D02*
X01411Y0074D01*
X01407Y00748D01*
X01415Y00744D01*
X01423Y00748D01*
X01419Y0074D01*
X01423Y00732D01*
X01415Y00736D01*
X01407Y00732D01*
X01472Y00772D02*
X01476Y0078D01*
X01472Y00788D01*
X0148Y00784D01*
X01488Y00788D01*
X01484Y0078D01*
X01488Y00772D01*
X0148Y00776D01*
X01472Y00772D01*
X01527Y00722D02*
X01531Y0073D01*
X01527Y00738D01*
X01535Y00734D01*
X01543Y00738D01*
X01539Y0073D01*
X01543Y00722D01*
X01535Y00726D01*
X01527Y00722D01*
X015032Y006782D02*
X015072Y006862D01*
X015032Y006942D01*
X015112Y006902D01*
X015192Y006942D01*
X015152Y006862D01*
X015192Y006782D01*
X015112Y006822D01*
X015032Y006782D01*
X01482Y00657D02*
X01486Y00665D01*
X01482Y00673D01*
X0149Y00669D01*
X01498Y00673D01*
X01494Y00665D01*
X01498Y00657D01*
X0149Y00661D01*
X01482Y00657D01*
X014608Y006358D02*
X014648Y006438D01*
X014608Y006518D01*
X014688Y006478D01*
X014768Y006518D01*
X014728Y006438D01*
X014768Y006358D01*
X014688Y006398D01*
X014608Y006358D01*
X00802Y00942D02*
X00806Y0095D01*
X00802Y00958D01*
X0081Y00954D01*
X00818Y00958D01*
X00814Y0095D01*
X00818Y00942D01*
X0081Y00946D01*
X00802Y00942D01*
X00837D02*
X00841Y0095D01*
X00837Y00958D01*
X00845Y00954D01*
X00853Y00958D01*
X00849Y0095D01*
X00853Y00942D01*
X00845Y00946D01*
X00837Y00942D01*
Y00967D02*
X00841Y00975D01*
X00837Y00983D01*
X00845Y00979D01*
X00853Y00983D01*
X00849Y00975D01*
X00853Y00967D01*
X00845Y00971D01*
X00837Y00967D01*
X00802D02*
X00806Y00975D01*
X00802Y00983D01*
X0081Y00979D01*
X00818Y00983D01*
X00814Y00975D01*
X00818Y00967D01*
X0081Y00971D01*
X00802Y00967D01*
Y00667D02*
X00806Y00675D01*
X00802Y00683D01*
X0081Y00679D01*
X00818Y00683D01*
X00814Y00675D01*
X00818Y00667D01*
X0081Y00671D01*
X00802Y00667D01*
X00837D02*
X00841Y00675D01*
X00837Y00683D01*
X00845Y00679D01*
X00853Y00683D01*
X00849Y00675D01*
X00853Y00667D01*
X00845Y00671D01*
X00837Y00667D01*
Y00692D02*
X00841Y007D01*
X00837Y00708D01*
X00845Y00704D01*
X00853Y00708D01*
X00849Y007D01*
X00853Y00692D01*
X00845Y00696D01*
X00837Y00692D01*
X00802D02*
X00806Y007D01*
X00802Y00708D01*
X0081Y00704D01*
X00818Y00708D01*
X00814Y007D01*
X00818Y00692D01*
X0081Y00696D01*
X00802Y00692D01*
X00822Y00777D02*
X00826Y00785D01*
X00822Y00793D01*
X0083Y00789D01*
X00838Y00793D01*
X00834Y00785D01*
X00838Y00777D01*
X0083Y00781D01*
X00822Y00777D01*
Y00852D02*
X00826Y0086D01*
X00822Y00868D01*
X0083Y00864D01*
X00838Y00868D01*
X00834Y0086D01*
X00838Y00852D01*
X0083Y00856D01*
X00822Y00852D01*
D60*
X01173Y0098D02*
G03*
X01173Y0098I-00008J0D01*
G01*
Y0108D02*
G03*
X01173Y0108I-00008J0D01*
G01*
X01273Y0098D02*
G03*
X01273Y0098I-00008J0D01*
G01*
Y0108D02*
G03*
X01273Y0108I-00008J0D01*
G01*
M02*
