M48
;Layer_Color=9474304
;FILE_FORMAT=2:4
INCH,LZ
;TYPE=PLATED
T1F00S00C0.0120
T2F00S00C0.0120
T3F00S00C0.0335
T4F00S00C0.0748
%
T01
X047933Y017304
X04858Y017633
X048588Y016794
Y023015
X04858Y023854
X047933Y023525
Y029745
X04858Y030074
X048588Y029235
X031934
X031927Y030074
X031279Y029745
Y023525
X031927Y023854
X031934Y023015
X031927Y017633
X031934Y016794
X031279Y017304
Y035966
X031927Y036295
X031934Y035456
Y041676
X031927Y042515
X031279Y042186
X047933
X04858Y042515
X048588Y041676
X04858Y036295
X048588Y035456
X047933Y035966
T02
X017973Y013871
X018873
X018523Y014571
X019223Y014971
Y015221
X019523
Y014971
X020723Y015221
X020873Y014521
X023623Y014671
X023873Y014421
X024373Y014621
X024873Y015071
X025023Y015571
X023573
X023273Y015271
X023373Y014921
X022923Y015421
X024023Y013721
X025773Y014271
X026173
X026973Y013871
X027873
X027823Y014671
X027323
X026973Y014971
Y015521
X028673
Y014971
X028323Y014671
X028773Y013871
X029673
X030573
Y014771
X029673
X031473
X032373
X033273
Y013871
X032373
X031473
X034626
X035526
X035176Y014571
X035876Y014971
Y015221
X036176
Y014971
X037376Y015221
X037526Y014521
X040276Y014671
X040526Y014421
X041026Y014621
X041526Y015071
X041676Y015571
X040226
X039926Y015271
X040026Y014921
X039576Y015421
X040676Y013721
X042426Y014271
X042826
X043626Y013871
X044526
X044476Y014671
X043976
X043626Y014971
Y015521
X045326
Y014971
X044976Y014671
X045426Y013871
X046326
Y014771
X047226
X048126
X049026
X049926
Y013871
X049026
X048126
X047226
Y015671
X048126
X049026
X049326Y016046
X049926
X050526
Y016997
X049926
X049326
X048126Y016571
X047226
X047326Y017221
X047226Y017921
X047976
X048126Y018371
Y019221
X048976
X049026Y018371
X049926
X049876Y019221
X049926Y020092
Y020992
X049026
Y021892
X049326Y022266
X049926
X050526
Y023217
X049926
X049326
X048126Y022792
Y021892
Y020992
Y020092
X049026
X047226
Y020992
Y021892
Y022792
X047326Y023442
X047226Y024142
X047976
X048126Y024592
Y025442
X048976
X049026Y024592
X049926
X049876Y025442
X049926Y026312
Y027212
X049026
Y028112
X049326Y028487
X049926
X050526
Y029438
X049926
X049326
X048126Y029012
Y028112
Y027212
Y026312
X049026
X047226
Y027212
Y028112
Y029012
X047326Y029662
X047226Y030362
X047976
X048126Y030812
X049026
X049926
X046626Y030362
X046026
X046276Y031012
X046726Y029662
X046076Y028812
Y028312
X045026Y028362
X044876Y028812
X045476
X045326Y027962
Y027412
X044976Y027112
X044476
X043976
X043626Y027412
Y027962
X044076Y028562
X043076Y029212
X04268Y029073
X042726Y028212
X041876Y028312
X041476Y028262
X041676Y028012
X041526Y027512
X041026Y027062
X040526Y026862
X040276Y027112
X040026Y027362
X039926Y027712
X039576Y027862
X039226Y028162
X039776Y028712
X040826Y028612
X041176Y028512
X041126Y029112
X040626Y029362
X040526Y028312
X040226Y028012
X040676Y026162
X040576Y025392
X040876Y024842
X041526Y024092
X041126Y022892
X041176Y022292
X040826Y022392
X040526Y022092
X040226Y021792
X039926Y021492
X040026Y021142
X040276Y020892
X040526Y020642
X041026Y020842
X041526Y021292
X041676Y021792
X041476Y022042
X041876Y022092
X042726Y021992
X04268Y022853
X043076Y022992
X043026Y023742
X043076Y024592
X042976Y025242
X041976Y025392
X042426Y026712
X042826
X043626Y026312
X044526
X045426
X046326
Y027212
X046276Y024792
X046026Y024142
X046626
X046726Y023442
X046076Y022592
Y022092
X045026Y022142
X044876Y022592
X045476
X045326Y021742
Y021192
X044976Y020892
X044476
X043976
X043626Y021192
Y021742
X044076Y022342
X044526Y020092
X045426
X046326
Y020992
X046276Y018571
X046026Y017921
X046626
X046726Y017221
X046076Y016371
Y015871
X045026Y015921
X044876Y016371
X045476
X044076Y016121
X043076Y016771
X04268Y016632
X042726Y015771
X041876Y015871
X041476Y015821
X041176Y016071
X040826Y016171
X040526Y015871
X039776Y016271
X039226Y015721
X038276Y016021
X037426Y015671
X036926Y016471
X037026Y017271
X037426
X037176Y018221
X037476Y019171
X038276Y018821
X038976Y017521
X040626Y016921
X041126Y016671
X041526Y017871
X040876Y018621
X040576Y019171
X040676Y019942
X041976Y019171
X042976Y019021
X043076Y018371
X043026Y017521
X044126Y019071
X043626Y020092
X042826Y020492
X042426
X039576Y021642
X039226Y021942
X039776Y022492
X040626Y023142
X038976Y023742
X037426Y023492
X037026
X036926Y022692
X03605Y023079
X036023Y022312
X035876Y021442
Y021192
X036176
Y021442
X037376
X037426Y021892
X038276Y022242
X037526Y020742
X035176Y020792
X035526Y020092
X034626
X034576Y019171
X033223Y019221
X033273Y018371
X032373
X031473
X031323Y017921
X031473Y019221
X032323
X032373Y020092
X033273
Y020992
X032373
Y021892
X032673Y022266
X033273
X033873
Y023217
X033273
X032673
X031473Y022792
Y021892
Y020992
Y020092
Y016571
Y015671
X032373
X032673Y016046
X033273
X033873
Y016997
X033273
X032673
X035126Y016471
X036023Y016092
X03605Y016858
X035426Y018171
X036276Y018721
X035126Y022692
X035426Y024392
X036276Y024942
X037176Y024442
X037476Y025392
X038276Y025042
X037526Y026962
X037376Y027662
X037426Y028112
X038276Y028462
X036926Y028912
X037026Y029712
X037426
X037176Y030662
X036276Y031162
X035426Y030612
X03605Y029299
X036023Y028533
X035876Y027662
Y027412
X036176
Y027662
X035176Y027012
X035526Y026312
X034626
X034576Y025392
X033223Y025442
X033273Y024592
X032373
X031473
X031323Y024142
X031473Y025442
X032323
X032373Y026312
X033273
Y027212
X032373
Y028112
X032673Y028487
X033273
X033873
Y029438
X033273
X032673
X031473Y029012
Y028112
Y027212
Y026312
X031323Y030362
X031473Y030812
X032373
X033273
X035126Y028912
X038976Y029962
X041526Y030312
X040876Y031062
X043076Y030812
X043026Y029962
X044126Y025292
X045526Y025142
Y018921
X030573Y017921
X029973
X029373
X029623Y018571
X028873Y018921
X028773Y020092
X029673
X030573
Y020992
Y021892
Y022792
X030673Y023442
X030073
X029973Y024142
X029373
X029623Y024792
X028873Y025142
X028773Y026312
X029673
X030573
Y027212
Y028112
Y029012
X030673Y029662
X030073
X029973Y030362
X029373
X029623Y031012
X030573Y030362
X029423Y028812
Y028312
X028373Y028362
X028223Y028812
X028823
X028673Y027962
Y027412
X028323Y027112
X027823
X027323
X026973Y027412
Y027962
X027423Y028562
X026423Y029212
X026026Y029073
X026073Y028212
X025223Y028312
X024823Y028262
X025023Y028012
X024873Y027512
X024373Y027062
X023873Y026862
X023623Y027112
X023373Y027362
X023273Y027712
X022923Y027862
X022573Y028162
X023123Y028712
X024173Y028612
X024523Y028512
X024473Y029112
X023973Y029362
X023873Y028312
X023573Y028012
X024023Y026162
X023923Y025392
X024223Y024842
X024873Y024092
X024473Y022892
X024523Y022292
X024173Y022392
X023873Y022092
X023573Y021792
X023273Y021492
X023373Y021142
X023623Y020892
X023873Y020642
X024373Y020842
X024873Y021292
X025023Y021792
X024823Y022042
X025223Y022092
X026073Y021992
X026026Y022853
X026423Y022992
X026373Y023742
X026423Y024592
X026323Y025242
X025323Y025392
X025773Y026712
X026173
X026973Y026312
X027873
X027473Y025292
X027423Y022342
X026973Y021742
Y021192
X027323Y020892
X027823
X028323
X028673Y021192
Y021742
X028373Y022142
X028223Y022592
X028823
X029423
Y022092
X029673Y020992
X027873Y020092
X026973
X026173Y020492
X025773
X025323Y019171
X026323Y019021
X026423Y018371
X026373Y017521
X026423Y016771
X026026Y016632
X026073Y015771
X025223Y015871
X024823Y015821
X024523Y016071
X024173Y016171
X023873Y015871
X023123Y016271
X022573Y015721
X021623Y016021
X020773Y015671
X020273Y016471
X020373Y017271
X020773
X020523Y018221
X020823Y019171
X021623Y018821
X022323Y017521
X023973Y016921
X024473Y016671
X024873Y017871
X024223Y018621
X023923Y019171
X024023Y019942
X022923Y021642
X022573Y021942
X023123Y022492
X023973Y023142
X022323Y023742
X020773Y023492
X020373
X020273Y022692
X019397Y023079
X019369Y022312
X019223Y021442
Y021192
X019523
Y021442
X020723
X020773Y021892
X021623Y022242
X020873Y020742
X018523Y020792
X018873Y020092
X017973
X017923Y019171
X018773Y018171
X019623Y018721
X019397Y016858
X019369Y016092
X018473Y016471
Y022692
X018773Y024392
X019623Y024942
X020523Y024442
X020823Y025392
X021623Y025042
X020873Y026962
X020723Y027662
X020773Y028112
X021623Y028462
X020273Y028912
X020373Y029712
X020773
X020523Y030662
X019623Y031162
X018773Y030612
X019397Y029299
X019369Y028533
X019223Y027662
Y027412
X019523
Y027662
X018523Y027012
X018873Y026312
X017973
X017923Y025392
X018473Y028912
X022323Y029962
X024873Y030312
X024223Y031062
X026423Y030812
X026373Y029962
X029673Y027212
X030573Y024142
X030673Y017221
X030073
X030573Y016571
Y015671
X029423Y015871
Y016371
X028823
X028223
X028373Y015921
X027423Y016121
X027473Y019071
Y031512
X026323Y031462
X025323Y031612
X023923
X024023Y032383
X023873Y033083
X023623Y033333
X023373Y033583
X023273Y033933
X022923Y034083
X022573Y034383
X023123Y034933
X024173Y034833
X024523Y034733
X024823Y034483
X025223Y034533
X025023Y034233
X024873Y033733
X024373Y033283
X023573Y034233
X023873Y034533
X023973Y035583
X024473Y035333
X026026Y035294
X026423Y035433
X026373Y036183
X026423Y037033
X026323Y037683
X025323Y037833
X023923
X024223Y037283
X024873Y036533
X022323Y036183
X020773Y035933
X020373
X020273Y035133
X019397Y03552
X019369Y034753
X019223Y033883
Y033633
X019523
Y033883
X020723
X020773Y034333
X021623Y034683
X020873Y033183
X020823Y031612
X021623Y031262
X018873Y032533
X017973
X017923Y031612
X018523Y033233
X018473Y035133
X018773Y036833
X019623Y037383
X020523Y036883
X020823Y037833
X021623Y037483
X020873Y039403
X020723Y040103
X020773Y040553
X021623Y040903
X022573Y040603
X022923Y040303
X023273Y040153
X023373Y039803
X023623Y039553
X023873Y039303
X024373Y039503
X024873Y039953
X025023Y040453
X024823Y040703
X025223Y040753
X024523Y040953
X024173Y041053
X023873Y040753
X023573Y040453
X023123Y041153
X023973Y041803
X024473Y041553
X026026Y041514
X026423Y041653
X026373Y042403
X026423Y043253
X026323Y043903
X025323Y044053
X023923
X024223Y043503
X024873Y042753
X022323Y042403
X020773Y042153
X020373
X020273Y041353
X019397Y04174
X019369Y040974
X019223Y040103
Y039853
X019523
Y040103
X018523Y039453
X018873Y038753
X017973
X017923Y037833
X018473Y041353
X018773Y043053
X019623Y043603
X020523Y043103
X020823Y044053
X021623Y043703
X017923Y044053
X027473Y043953
X028873Y043803
X029623Y043453
X029373Y042803
X029973
X030573
X030673Y042103
X030073
X030573Y041453
Y040553
Y039653
Y038753
X029673
Y039653
X028673Y039853
Y040403
X028373Y040803
X028223Y041253
X028823
X029423
Y040753
X027423Y041003
X026973Y040403
Y039853
X027323Y039553
X027823
X028323
X028773Y038753
X027873
X026973
X026173Y039153
X025773
X026073Y040653
X024023Y038603
X027473Y037733
X028873Y037583
X029623Y037233
X029373Y036583
X029973
X030573
X030673Y035883
X030073
X030573Y035233
Y034333
Y033433
Y032533
X029673
Y033433
X028673Y033633
Y034183
X028373Y034583
X028223Y035033
X028823
X029423
Y034533
X027423Y034783
X026973Y034183
Y033633
X027323Y033333
X027823
X028323
X028773Y032533
X027873
X026973
X026173Y032933
X025773
X026073Y034433
X028873Y031362
X031473Y031662
X032323
X033223
X033273Y032533
Y033433
X032373
Y034333
X032673Y034707
X033273
X033873
Y035658
X033273
X032673
X031473Y035233
Y034333
Y033433
Y032533
X032373
X034626
X035526
X035176Y033233
X035876Y033633
Y033883
X036176
Y033633
X036023Y034753
X03605Y03552
X036926Y035133
X037026Y035933
X037426
X037176Y036883
X037476Y037833
X038276Y037483
X038976Y036183
X039776Y034933
X039576Y034083
X039926Y033933
X040026Y033583
X040276Y033333
X040526Y033083
X041026Y033283
X041526Y033733
X041676Y034233
X041476Y034483
X041876Y034533
X041176Y034733
X040826Y034833
X040526Y034533
X040226Y034233
X039226Y034383
X038276Y034683
X037426Y034333
X037376Y033883
X037526Y033183
X037476Y031612
X038276Y031262
X040576Y031612
X040676Y032383
X041976Y031612
X042976Y031462
X044126Y031512
X044526Y032533
X044476Y033333
X043976
X043626Y033633
Y034183
X044076Y034783
X044876Y035033
X045026Y034583
X045326Y034183
Y033633
X044976Y033333
X045426Y032533
X046326
Y033433
X046076Y034533
Y035033
X045476
X046026Y036583
X046626
X046726Y035883
X046276Y037233
X045526Y037583
X045426Y038753
X046326
Y039653
X045326Y039853
Y040403
X045026Y040803
X044876Y041253
X045476
X046076
Y040753
X046726Y042103
X046626Y042803
X046026
X046276Y043453
X045526Y043803
X044126Y043953
X042976Y043903
X043076Y043253
X043026Y042403
X043076Y041653
X04268Y041514
X042726Y040653
X041876Y040753
X041476Y040703
X041676Y040453
X041526Y039953
X041026Y039503
X040526Y039303
X040276Y039553
X040026Y039803
X039926Y040153
X039576Y040303
X039226Y040603
X039776Y041153
X040826Y041053
X041176Y040953
X041126Y041553
X040626Y041803
X040526Y040753
X040226Y040453
X040676Y038603
X040576Y037833
X040876Y037283
X041526Y036533
X041126Y035333
X040626Y035583
X04268Y035294
X043076Y035433
X043026Y036183
X043076Y037033
X042976Y037683
X041976Y037833
X042426Y039153
X042826
X043626Y038753
X044526
X044476Y039553
X043976
X043626Y039853
Y040403
X044076Y041003
X044976Y039553
X044126Y037733
X042726Y034433
X042826Y032933
X042426
X043626Y032533
X045526Y031362
X034576Y031612
X035126Y035133
X035426Y036833
X036276Y037383
X035526Y038753
X034626
X034576Y037833
X033223Y037883
X033273Y037033
X032373
X031473
X031323Y036583
X031473Y037883
X032323
X032373Y038753
X033273
Y039653
X032373
Y040553
X032673Y040928
X033273
X033873
Y041879
X033273
X032673
X031473Y041453
Y040553
Y039653
Y038753
X031323Y042803
X031473Y043253
Y044103
X032323
X032373Y043253
X033273
X033223Y044103
X034576Y044053
X035426Y043053
X036276Y043603
X037176Y043103
X037026Y042153
X037426
X036926Y041353
X03605Y04174
X036023Y040974
X035876Y040103
Y039853
X036176
Y040103
X037376
X037426Y040553
X038276Y040903
X038976Y042403
X038276Y043703
X037476Y044053
X040576
X040876Y043503
X041526Y042753
X041976Y044053
X037526Y039403
X035176Y039453
X035126Y041353
X047226Y041453
X047326Y042103
X047226Y042803
X047976
X048126Y043253
Y044103
X048976
X049026Y043253
X049926
X049876Y044103
X049926Y041879
X049326
Y040928
X049926
X050526
Y041879
X049926Y039653
Y038753
X049026
Y039653
Y040553
X048126
Y041453
Y039653
Y038753
Y037883
Y037033
X047976Y036583
X047226
X047326Y035883
X047226Y035233
X048126
Y034333
X049026
X049326Y034707
X049926
X050526
Y035658
X049926
X049326
X049026Y037033
X049926
X049876Y037883
X048976
X047226Y038753
Y039653
Y040553
Y034333
Y033433
X048126
X049026
X049926
Y032533
X049026
X048126
Y031662
X048976
X049876
X047226Y032533
T03
X038933Y018328
Y019115
X03972
Y018328
Y024548
X038933
Y025336
X03972
Y030769
X038933
X023067
X022279
Y025336
Y024548
X023067
Y025336
Y019115
X022279
Y018328
X023067
Y031556
X022279
Y036989
Y037776
X023067
Y036989
Y04321
X022279
Y043997
X023067
X038933
Y04321
X03972
Y043997
Y037776
X038933
Y036989
X03972
Y031556
X038933
T04
X018444Y0156
X035097
X035097Y017371
X035097Y02182
X035097Y023592
X035097Y028041
X035097Y029812
X018444
X018444Y028041
X018444Y023592
X018444Y02182
X018444Y017371
X018444Y034261
X018444Y036033
X018444Y040482
X018444Y042253
X035097
X035097Y040482
X035097Y036033
X035097Y034261
M30
