M48
;Layer_Color=9474304
;FILE_FORMAT=2:4
INCH,LZ
;TYPE=PLATED
T1F00S00C0.0120
T2F00S00C0.0120
T3F00S00C0.0394
T4F00S00C0.0591
T5F00S00C0.0669
T6F00S00C0.0748
%
T01
X004357Y004287
X004837
X005317
X005797
X006277
X006757
X007237
X007717
X008197
X008677
X009157
X009637
X010117
X010597
X011077
X011557
X012037
X012517
X012997
X013477
X013957
X014437
X014917
X015397
X015157Y004767
X014677
X014197
X013717
X013237
X012757
X012997Y005247
X013477
X013957
X014437
X014917
X015397
X015157Y005727
X014677
X014197
X013717
X014437Y006207
X014917
X015397
X015157Y006687
X011797Y004767
X011317
X010837
X011077Y005247
X010837Y008607
X010357
X009877
X009397Y007647
X008917
X007957Y004767
X006037
X005557
X005077
X004597
X004837Y005247
X005317
X005797
X005557Y005727
X005077
X004597
X004837Y006207
X004357
Y005247
X005077Y011487
X004597Y012447
X004357Y012927
X006757Y013887
X008677
X009157
X009637
X011557
X012037
X012517
X012997
X013477
X013957
X014437
X014917
X015397
X015157Y013407
X014677
X014197
X013717
X013237
X012757
X012277
X011797
X012037Y012927
X012517
X012997
X013477
X013957
X014437
X014917
X015397
X015877
X016357
X016837
X016597Y013407
X016117
X015637
X015877Y013887
X016357
X016837
X016597Y012447
X016117
X015637
X015877Y011967
X016357
X016837
X016237Y011587
X015637Y011487
X016787Y010437
X016795Y009766
X016501Y009705
X016597Y007647
X016837Y007167
X016357
X015877
X016117Y006687
X016597
X016837Y006207
X016357
X015877
X016117Y005727
X016597
X016837Y005247
X016357
X015877
X016117Y004767
X016597
X016837Y004287
X016357
X015877
X015637Y004767
Y005727
Y006687
X021011Y006207
X021491
X021731Y005727
X022211
X022451Y005247
X021971
X021491
X021011
X021251Y005727
Y004767
X021731
X022211
X022691
X022931Y004287
X023411
X023891
X024371
X024851
X025331
X025811
X026291
X026771
X027251
X027731
X028211
X028691
X029171
X029651
X030131
X030611
X031091
X030851Y004767
X030371
X029891
X029411
X029651Y005247
X030131
X030611
X031091
X030851Y005727
X030371
X031091Y006207
X028451Y004767
X027971
X027491
X027731Y005247
X027491Y008607
X027011
X026531
X026051Y007647
X025571
X024611Y004767
X022451Y004287
X021971
X021491
X021011
X021731Y011487
X021251Y012447
X021011Y012927
X023411Y013887
X025331
X025811
X026291
X028211
X028691
X029171
X029651
X030131
X030611
X031091
X030851Y013407
X030371
X029891
X029411
X028931
X028451
X028691Y012927
X029171
X029651
X030131
X030611
X031091
X031571
X032051
X032531
X033011
X033491
X033251Y013407
X032771
X032291
X031811
X031331
X031571Y013887
X032051
X032531
X033011
X033491
X033251Y012447
X032771
X032291
X032531Y011967
X033011
X033491
X032891Y011587
X032291Y011487
X033441Y010437
X033449Y009766
X033155Y009705
X033251Y007647
X033491Y007167
X033011
X032531
X032771Y006687
X033251
X033491Y006207
X033011
X032531
X032051
X031571
X031811Y006687
X032291
Y005727
X032771
X033251
X033491Y005247
X033011
X032531
X032051
X031571
X031811Y005727
X031331
Y004767
X031811
X032291
X032771
X033251
X033491Y004287
X033011
X032531
X032051
X031571
X033931Y01884
X03476Y018798
X034583Y019353
X035653Y019734
X036137Y019059
X035532Y018492
X019484Y019059
X019Y019734
X018878Y018492
X018107Y018798
X017929Y019353
X017278Y01884
T02
X006637Y004987
X007137Y004587
X007987Y005787
X007937Y006287
X007887Y006887
X008387Y006787
X008587Y008087
X009137Y008637
X007537
X007287
Y008387
X007537
X007937Y009087
X008137Y009787
X007737
X008437Y009637
X008287Y010787
X006737Y011587
X005887Y010887
Y010637
X005537
Y010887
X0057Y009824
X005737Y009037
X005137Y009437
X004687
X005537Y008137
Y007887
X005887
Y008137
X005487Y007387
X004887
X005437Y012737
X004237Y013537
Y014037
Y014587
X004787Y014687
X005537
X00601Y01527
X00691
X006787Y014687
X007487
X007537Y014087
X007787
Y013837
X007537Y01382
X008437Y014587
X00846Y01527
X009187Y014587
X009837
X010437
Y013887
X010987
X011237Y014587
X011937
X012837
X013737
X014587
X01451Y01527
X015269Y015261
X015437Y014587
X015087Y012437
X015237Y011987
X015087Y011537
X015137Y010987
X014687Y010937
X014437
X013437Y011387
Y011637
X012537Y010887
X012287Y010037
X011987
X012137Y009137
X012387Y009337
X012287Y008237
X012087Y008087
X012237Y007887
X013087Y007137
X013887Y006737
X014487Y006687
X015287Y007187
X014787Y008837
X014887Y009337
X013937Y008787
X012837Y005737
X012387Y005287
X012287Y004787
X011537Y006286
X010837Y007387
X010237Y005462
X010087Y005287
X010987Y010287
X010937Y011037
X011237
X00506Y01527
X00426
X01606
X01671
X01746
X01776Y01562
X01826Y01527
X01896
X01966
X02026
X020913
X020891Y014587
Y014037
Y013537
X021441Y014687
X022191
X022663Y01527
X023563
X023441Y014687
X024141
X024191Y014087
X024441
Y013837
X024191Y01382
X025091Y014587
X025113Y01527
X025841Y014587
X026491
X027091
Y013887
X027641
X027891Y014587
X028591
X029491
X030391
X031241
X031163Y01527
X031091Y010937
X030091Y011387
Y011637
X029191Y010887
X028941Y010037
X02864
X028791Y009137
X029041Y009337
X028941Y008237
X028741Y008087
X028891Y007887
X029741Y007137
X030541Y006737
X031141Y006687
X029491Y005737
X029041Y005287
X028941Y004787
X028191Y006286
X027491Y007387
X026891Y005462
X026741Y005287
X024641Y005787
X024591Y006287
X024541Y006887
X025041Y006787
X025241Y008087
X025791Y008637
X024191
X023941
Y008387
X024191
X024591Y009087
X024791Y009787
X024391
X025091Y009637
X024941Y010787
X023391Y011587
X022541Y010887
Y010637
X022191
Y010887
X022354Y009824
X022391Y009037
X021791Y009437
X021341
X022191Y008137
Y007887
X022541
Y008137
X022141Y007387
X021541
X023291Y004987
X023791Y004587
X017037Y004787
Y005737
Y006687
Y007637
Y008287
Y008937
Y009587
X016887Y010987
X016837Y011437
X015637Y010987
Y008287
X016337
X015737Y007637
X016187Y014587
X016837
X021713Y01527
X022091Y012737
X027591Y011037
X027891
X027641Y010287
X030591Y008787
X031441Y008837
X031541Y009337
X032291Y008287
X032991
X033691
Y007637
Y006687
Y005737
Y004787
Y008937
Y009587
X033541Y010987
X033491Y011437
X032291Y010987
X031791
X031341Y010937
X031741Y011537
X031891Y011987
X031741Y012437
X032091Y014587
X032841
X033491
X033363Y01527
X032713
X031923Y015261
X034113Y01527
X034413Y01562
X034913Y01527
X035613
X036313
X036913
X032391Y007637
X031941Y007187
X031813Y01567
X032663
X033563
X033263Y01617
X033863
Y01672
X034563
X034713Y01617
X035613
Y01667
Y01722
X036313Y01717
Y01672
X036263Y01617
Y01567
X036913
Y01622
Y01672
Y01722
X034813
X034163
X031995Y017651
X032913Y01857
X033313Y01992
X033763
X033913Y02047
X033313
Y02097
X033213Y021491
Y021841
Y022341
X033863Y022391
Y021791
Y021491
X034413
X035163
X035763
X036463
X036913Y021691
Y022241
Y022791
Y023391
Y023941
X035263Y024141
Y024591
X035313Y024891
X034563Y023791
X033863Y023741
Y023091
X033563Y024379
X033063Y02454
Y024841
X033147Y02413
X032463Y024191
X032513Y022291
Y021891
X032563Y021491
X032013
Y021891
Y022291
X031613Y022541
X031563Y022891
X031613Y021991
X031513Y021491
X031965Y020769
X032563Y02002
X034063Y02097
X034763
X035463
X036213
X036913
X036613Y01907
X035213Y01567
X034863Y026291
Y027191
X035513
X036213
X036863
X034213
X033563
Y026591
Y025991
X033063Y026141
X031513Y026741
X030513Y026441
X030463Y027191
Y025441
X030776Y025478
X030863Y024491
X030563Y024541
X030763Y023791
Y023391
X030963Y023591
X030563
X029613Y023241
X029363Y022941
X029063Y022691
X028813Y022441
X028463Y022241
X028513Y021491
X028413Y02097
X027513
X028613Y020262
Y02002
X029513Y01927
X030463Y01937
X030613Y01907
X030449Y018408
X030813Y01837
X030513Y01752
Y01722
X029713Y01747
X029413Y01777
X029113Y01807
X028763Y01827
X028913Y01762
X028263Y01722
X02785Y016759
X027463Y01682
X027213Y01752
X026413Y01722
Y01637
X026463Y01597
X026179
X025263
X025363Y01667
Y01707
X025113
Y01732
X025363
X024637Y016993
X023363Y01772
X022413Y01767
Y01842
X022563Y01932
Y01957
X022213
Y01932
X022663Y02037
X022563Y021541
Y022341
Y022791
Y023041
X022213
Y022791
X022263Y022091
X021563
X021613Y021541
X020813
X020863Y022141
X02026Y022241
Y022791
Y023391
Y023941
X01861Y024141
Y024591
X01866Y024891
X01791Y023791
X01721Y023741
Y023091
Y022391
Y021791
Y021491
X01776
X01851
X01911
X01981
X02026Y021691
Y02097
X01956
X01881
X01811
X01741
X01726Y02047
X01666
Y02097
X01656Y021491
Y021841
Y022341
X01586Y022291
Y021891
X01591Y021491
Y02002
X01666Y01992
X01711
X01626Y01857
X01751Y01722
X01816
X01791Y01672
X01721
Y01617
X01661
X01691Y01567
X01601
X01806Y01617
X01896
Y01667
Y01722
X01966Y01717
Y01672
X01961Y01617
Y01567
X02026
Y01622
Y01672
Y01722
X020863Y01602
X022163Y01607
X022213Y01657
Y01682
X022563
Y01657
X024163Y01887
X025113Y01942
Y01977
Y02017
Y020495
X025463Y021541
X024513
X023513
X023563Y024041
X024713Y023841
X024763Y023291
X026013Y022891
X026363Y022541
X026813Y022241
X025763
X026563Y023441
X027363Y023241
Y023841
X027613Y024041
X027863Y023091
X028263Y023491
X028763Y023891
X028613Y024891
X028563Y026491
X028663Y026741
X028313
X028663Y027191
X027863
X029513Y025741
X026663Y025191
X025913
X025163Y025441
Y025841
Y026291
Y026641
X023513Y026691
X022563Y025791
Y025541
X022213
Y025791
X022363Y024691
Y023891
X024363Y025091
X021513Y026491
X020948Y027041
X02021Y027191
X01956
X01886
X01821
X01756
X01691
Y026591
Y025991
X01641Y026141
Y024841
Y02454
X016494Y02413
X01691Y024379
X01581Y024191
X01821Y026291
X01996Y01907
X021163Y02002
X025763Y01897
X026963
X028263Y01607
X028801Y016258
X029013Y01647
X029226Y016682
X029463Y01712
X030213Y01622
Y01602
X030463Y02017
X030413Y020999
X031213Y021691
X031232Y022904
X01856Y01567
X01516
X01356Y01602
Y01622
X01386Y01722
Y01752
X01306Y01747
X01276Y01777
X01246Y01807
X01211Y01827
X01226Y01762
X01161Y01722
X011196Y016759
X01081Y01682
X01056Y01752
X00976Y01722
Y01637
X00981Y01597
X009525
X00861
X00871Y01667
Y01707
X00846
Y01732
X00871
X007983Y016993
X00671Y01772
X00576Y01767
Y01842
X00591Y01932
Y01957
X00556
Y01932
X00601Y02037
X00591Y021541
Y022341
Y022791
Y023041
X00556
Y022791
X00561Y022091
X00491
X00496Y021541
X00416
X00421Y022141
X00451Y02002
X00686Y021541
X00786
X00881
X00911Y022241
X00936Y022891
X00971Y022541
X01016Y022241
X00991Y023441
X01071Y023241
Y023841
X01096Y024041
X01121Y023091
X01161Y023491
X01211Y023891
X01196Y024891
X01191Y026491
X01201Y026741
X01166
X01201Y027191
X01121
X01381
X01386Y026441
X01381Y025441
X014122Y025478
X01421Y024491
X01391Y024541
X01411Y023791
Y023391
X01431Y023591
X01391
X01296Y023241
X01271Y022941
X01241Y022691
X01216Y022441
X01181Y022241
X01186Y021491
X01176Y02097
X01086
X01196Y020262
Y02002
X01286Y01927
X01381Y01937
X01396Y01907
X013795Y018408
X01416Y01837
X015341Y017651
X01281Y01712
X012572Y016682
X01236Y01647
X012148Y016258
X01161Y01607
X01031Y01897
X00911
X00846Y01942
Y01977
Y02017
Y020495
X00751Y01887
X00591Y01682
Y01657
X00556
Y01682
X00551Y01607
X00421Y01602
X00571Y023891
Y024691
X00556Y025541
Y025791
X00591
Y025541
X00486Y026491
X004294Y027041
X00686Y026691
X00851Y026641
Y026291
Y025841
Y025441
X00926Y025191
X01001
X00771Y025091
X00806Y023841
X00811Y023291
X00691Y024041
X01286Y025741
X01486Y026741
X01491Y022891
X014578Y022904
X01496Y022541
Y021991
X01536Y021891
Y022291
Y021491
X01486
X01456Y021691
X01376Y020999
X01381Y02017
X015311Y020769
T03
X009537Y011887
Y012887
X010537
Y011887
X026191
Y012887
X027191
Y011887
X026763Y01962
X025763
Y02062
X026763
X026813Y025841
Y026841
X025813
Y025841
X01016
Y026841
X00916
Y025841
X00911Y02062
Y01962
X01011
Y02062
T04
X035513Y01912
X01886
T05
X034529Y018136
Y020104
X036498
Y018136
X019844
Y020104
X017876
Y018136
T06
X004781Y008529
X004781Y010301
X021434
X021434Y008529
X021457Y017184
X021457Y018956
X021457Y023405
X021457Y025176
X004804
X004804Y023405
X004804Y018956
X004804Y017184
M30
