G04*
G04 #@! TF.GenerationSoftware,Altium Limited,Altium Designer,22.10.1 (41)*
G04*
G04 Layer_Physical_Order=4*
G04 Layer_Color=16711680*
%FSTAX24Y24*%
%MOIN*%
G70*
G04*
G04 #@! TF.SameCoordinates,66E382E7-BC4A-4C08-8AB3-1FD61AD418E8*
G04*
G04*
G04 #@! TF.FilePolarity,Positive*
G04*
G01*
G75*
G04:AMPARAMS|DCode=21|XSize=23.6mil|YSize=74.8mil|CornerRadius=0mil|HoleSize=0mil|Usage=FLASHONLY|Rotation=45.000|XOffset=0mil|YOffset=0mil|HoleType=Round|Shape=Rectangle|*
%AMROTATEDRECTD21*
4,1,4,0.0181,-0.0348,-0.0348,0.0181,-0.0181,0.0348,0.0348,-0.0181,0.0181,-0.0348,0.0*
%
%ADD21ROTATEDRECTD21*%

G04:AMPARAMS|DCode=22|XSize=15.7mil|YSize=74.8mil|CornerRadius=0mil|HoleSize=0mil|Usage=FLASHONLY|Rotation=45.000|XOffset=0mil|YOffset=0mil|HoleType=Round|Shape=Rectangle|*
%AMROTATEDRECTD22*
4,1,4,0.0209,-0.0320,-0.0320,0.0209,-0.0209,0.0320,0.0320,-0.0209,0.0209,-0.0320,0.0*
%
%ADD22ROTATEDRECTD22*%

%ADD25R,0.0374X0.0335*%
%ADD34R,0.0236X0.0520*%
%ADD35R,0.0484X0.0709*%
%ADD36C,0.0300*%
%ADD37C,0.0150*%
%ADD38C,0.0200*%
%ADD39C,0.0100*%
%ADD48R,0.0335X0.0374*%
%ADD50C,0.0119*%
%ADD52C,0.0118*%
G04:AMPARAMS|DCode=61|XSize=23.6mil|YSize=29.5mil|CornerRadius=0mil|HoleSize=0mil|Usage=FLASHONLY|Rotation=315.000|XOffset=0mil|YOffset=0mil|HoleType=Round|Shape=Rectangle|*
%AMROTATEDRECTD61*
4,1,4,-0.0188,-0.0021,0.0021,0.0188,0.0188,0.0021,-0.0021,-0.0188,-0.0188,-0.0021,0.0*
%
%ADD61ROTATEDRECTD61*%

%ADD63C,0.1102*%
%ADD64R,0.0594X0.0594*%
%ADD65C,0.0594*%
%ADD66C,0.0240*%
%ADD67C,0.1004*%
%ADD68C,0.0886*%
G04:AMPARAMS|DCode=69|XSize=37.4mil|YSize=33.5mil|CornerRadius=0mil|HoleSize=0mil|Usage=FLASHONLY|Rotation=45.000|XOffset=0mil|YOffset=0mil|HoleType=Round|Shape=Rectangle|*
%AMROTATEDRECTD69*
4,1,4,-0.0014,-0.0251,-0.0251,-0.0014,0.0014,0.0251,0.0251,0.0014,-0.0014,-0.0251,0.0*
%
%ADD69ROTATEDRECTD69*%

%ADD70R,0.0315X0.0315*%
%ADD71R,0.0315X0.0315*%
%ADD72R,0.0669X0.0512*%
%ADD73R,0.0315X0.0315*%
G36*
X037063Y021362D02*
X03111D01*
X031094Y021407D01*
X031094Y021412D01*
X031192Y02151D01*
X031249D01*
X031315Y021538D01*
X031366Y021589D01*
X031394Y021655D01*
Y021726D01*
X031366Y021793D01*
X031315Y021843D01*
X031249Y021871D01*
X031178D01*
X031111Y021843D01*
X031061Y021793D01*
X031033Y021726D01*
Y021669D01*
X030967Y021603D01*
X028656D01*
X028615Y021643D01*
X028549Y021671D01*
X028478D01*
X028411Y021643D01*
X028361Y021593D01*
X028333Y021526D01*
Y021455D01*
X028351Y021412D01*
X028322Y021362D01*
X020654D01*
Y027338D01*
X037063D01*
Y021362D01*
D02*
G37*
G36*
X020409D02*
X014456D01*
X014441Y021407D01*
X01444Y021412D01*
X014538Y02151D01*
X014596D01*
X014662Y021538D01*
X014713Y021589D01*
X01474Y021655D01*
Y021726D01*
X014713Y021793D01*
X014662Y021843D01*
X014596Y021871D01*
X014524D01*
X014458Y021843D01*
X014407Y021793D01*
X01438Y021726D01*
Y021669D01*
X014313Y021603D01*
X012002D01*
X011962Y021643D01*
X011896Y021671D01*
X011824D01*
X011758Y021643D01*
X011707Y021593D01*
X01168Y021526D01*
Y021455D01*
X011697Y021412D01*
X011668Y021362D01*
X004D01*
Y027338D01*
X020409D01*
Y021362D01*
D02*
G37*
G36*
X037063Y015142D02*
X020654D01*
Y021118D01*
X022697D01*
X022716Y021072D01*
X022682Y021038D01*
X022441D01*
Y020603D01*
X022836D01*
X022869Y020553D01*
X022865Y020543D01*
X022748D01*
X022748Y020543D01*
X022727Y020539D01*
X022699Y02055D01*
X022628D01*
X022561Y020523D01*
X022511Y020472D01*
X022483Y020406D01*
Y020334D01*
X022511Y020268D01*
X022561Y020217D01*
X022628Y02019D01*
X022699D01*
X022765Y020217D01*
X022816Y020268D01*
X02283Y020301D01*
X02303D01*
X02303Y020301D01*
X023042Y020303D01*
X023268D01*
Y020886D01*
X02358D01*
X023657Y020809D01*
Y020719D01*
X02364Y020693D01*
X023623Y020611D01*
X02364Y020529D01*
X023659Y0205D01*
Y020303D01*
X024016D01*
Y020365D01*
X024261D01*
Y020121D01*
X024563D01*
X024899Y019785D01*
Y01942D01*
X024916Y019338D01*
X024962Y019269D01*
X025032Y019222D01*
X025113Y019206D01*
X025195Y019222D01*
X025265Y019269D01*
X025311Y019338D01*
X025328Y01942D01*
Y019874D01*
Y020495D01*
X025311Y020577D01*
X025265Y020646D01*
X025195Y020693D01*
X025113Y020709D01*
X025032Y020693D01*
X024962Y020646D01*
X024916Y020577D01*
X024916Y020576D01*
X024866Y020581D01*
Y02095D01*
X024261D01*
Y020793D01*
X024016D01*
Y020943D01*
X023906D01*
X023892Y020963D01*
X023783Y021072D01*
X023803Y021118D01*
X037063D01*
Y015142D01*
D02*
G37*
G36*
X020409D02*
X004D01*
Y021118D01*
X006043D01*
X006062Y021072D01*
X006028Y021038D01*
X005788D01*
Y020603D01*
X006182D01*
X006215Y020553D01*
X006211Y020543D01*
X006095D01*
X006095Y020543D01*
X006073Y020539D01*
X006046Y02055D01*
X005974D01*
X005908Y020523D01*
X005857Y020472D01*
X00583Y020406D01*
Y020334D01*
X005857Y020268D01*
X005908Y020217D01*
X005974Y02019D01*
X006046D01*
X006112Y020217D01*
X006163Y020268D01*
X006176Y020301D01*
X006377D01*
X006377Y020301D01*
X006388Y020303D01*
X006614D01*
Y020886D01*
X006927D01*
X007003Y020809D01*
Y020719D01*
X006986Y020693D01*
X00697Y020611D01*
X006986Y020529D01*
X007006Y0205D01*
Y020303D01*
X007362D01*
Y020365D01*
X007608D01*
Y020121D01*
X007909D01*
X008246Y019785D01*
Y01942D01*
X008262Y019338D01*
X008309Y019269D01*
X008378Y019222D01*
X00846Y019206D01*
X008542Y019222D01*
X008611Y019269D01*
X008658Y019338D01*
X008674Y01942D01*
Y019874D01*
Y020495D01*
X008658Y020577D01*
X008611Y020646D01*
X008542Y020693D01*
X00846Y020709D01*
X008378Y020693D01*
X008309Y020646D01*
X008262Y020577D01*
X008262Y020576D01*
X008212Y020581D01*
Y02095D01*
X007608D01*
Y020793D01*
X007362D01*
Y020943D01*
X007252D01*
X007238Y020963D01*
X00713Y021072D01*
X007149Y021118D01*
X020409D01*
Y015142D01*
D02*
G37*
G36*
X033841Y004D02*
X020654D01*
Y014897D01*
X033841D01*
Y004D01*
D02*
G37*
G36*
X017187D02*
X004D01*
Y014897D01*
X017187D01*
Y004D01*
D02*
G37*
%LPC*%
G36*
X029431Y027203D02*
X028996D01*
Y026768D01*
X029431D01*
Y026874D01*
X029616D01*
Y026719D01*
X03011D01*
Y027174D01*
X029616D01*
Y027098D01*
X029431D01*
Y027203D01*
D02*
G37*
G36*
X031549Y026921D02*
X031478D01*
X031411Y026893D01*
X031361Y026843D01*
X031333Y026776D01*
Y026705D01*
X031361Y026639D01*
X031411Y026588D01*
X031478Y02656D01*
X031549D01*
X031615Y026588D01*
X031666Y026639D01*
X031694Y026705D01*
Y026776D01*
X031666Y026843D01*
X031615Y026893D01*
X031549Y026921D01*
D02*
G37*
G36*
X02586Y027197D02*
X025766D01*
X025676Y027173D01*
X025594Y027126D01*
X025528Y02706D01*
X025481Y026978D01*
X025457Y026888D01*
Y026794D01*
X025481Y026703D01*
X025528Y026621D01*
X025594Y026555D01*
X025676Y026508D01*
X025766Y026484D01*
X02586D01*
X025951Y026508D01*
X026033Y026555D01*
X026099Y026621D01*
X026146Y026703D01*
X02617Y026794D01*
Y026888D01*
X026146Y026978D01*
X026099Y02706D01*
X026033Y027126D01*
X025951Y027173D01*
X02586Y027197D01*
D02*
G37*
G36*
X033099Y026321D02*
X033028D01*
X032961Y026293D01*
X032911Y026243D01*
X032883Y026176D01*
Y026105D01*
X032911Y026039D01*
X032961Y025988D01*
X033028Y02596D01*
X033099D01*
X033165Y025988D01*
X033216Y026039D01*
X033244Y026105D01*
Y026176D01*
X033216Y026243D01*
X033165Y026293D01*
X033099Y026321D01*
D02*
G37*
G36*
X028663Y026955D02*
X028313D01*
X028232Y026938D01*
X028162Y026892D01*
X028116Y026822D01*
X028099Y026741D01*
X028116Y026659D01*
X028162Y026589D01*
X028412Y026339D01*
X028412Y026339D01*
X028507Y026244D01*
X028577Y026197D01*
X028659Y026181D01*
X028996D01*
Y026178D01*
X029379D01*
X029406Y026139D01*
X029409Y026128D01*
X029401Y026091D01*
X029401Y026091D01*
Y025883D01*
X029361Y025843D01*
X029333Y025776D01*
Y025705D01*
X029361Y025639D01*
X029411Y025588D01*
X029478Y02556D01*
X029549D01*
X029615Y025588D01*
X029666Y025639D01*
X029694Y025705D01*
Y025776D01*
X029666Y025843D01*
X029626Y025883D01*
Y026044D01*
X029789Y026207D01*
X03011D01*
Y026662D01*
X029616D01*
Y026352D01*
X029481Y026217D01*
X029431Y026237D01*
Y026613D01*
X028996D01*
Y026609D01*
X028878D01*
Y026741D01*
X028861Y026822D01*
X028815Y026892D01*
X028745Y026938D01*
X028663Y026955D01*
D02*
G37*
G36*
X024116Y026008D02*
X023759D01*
Y025685D01*
X023756Y02567D01*
Y025375D01*
X023735Y025354D01*
X023392D01*
X023371Y025375D01*
Y02567D01*
X023368Y025685D01*
Y026008D01*
X023011D01*
Y025851D01*
X022777D01*
Y025984D01*
X021988D01*
Y025569D01*
X02194Y025554D01*
X021932Y025566D01*
X021847Y025651D01*
X021747Y025718D01*
X021635Y025764D01*
X021517Y025788D01*
X021397D01*
X021279Y025764D01*
X021168Y025718D01*
X021068Y025651D01*
X020982Y025566D01*
X020916Y025466D01*
X020869Y025355D01*
X020846Y025237D01*
Y025116D01*
X020869Y024998D01*
X020916Y024887D01*
X020982Y024787D01*
X021068Y024702D01*
X021168Y024635D01*
X021279Y024589D01*
X021397Y024565D01*
X021517D01*
X021635Y024589D01*
X021747Y024635D01*
X021847Y024702D01*
X021932Y024787D01*
X02194Y024799D01*
X021988Y024784D01*
Y024368D01*
X022777D01*
Y025D01*
X022085D01*
X022053Y025039D01*
X022068Y025116D01*
Y025237D01*
X022053Y025314D01*
X022085Y025353D01*
X022777D01*
Y025525D01*
X023011D01*
Y025368D01*
X023044D01*
Y025308D01*
X023057Y025245D01*
X023077Y025215D01*
Y023765D01*
X023077Y023765D01*
X023086Y023722D01*
X02311Y023685D01*
X023434Y023361D01*
X023434Y023361D01*
X023471Y023337D01*
X023513Y023328D01*
X024529D01*
X024583Y023274D01*
Y023255D01*
X024611Y023189D01*
X024661Y023138D01*
X024728Y02311D01*
X024799D01*
X024865Y023138D01*
X024916Y023189D01*
X024944Y023255D01*
Y023326D01*
X024916Y023393D01*
X024865Y023443D01*
X024799Y023471D01*
X024728D01*
X024711Y023464D01*
X024655Y02352D01*
X024618Y023544D01*
X024576Y023553D01*
X024576Y023553D01*
X02356D01*
X023302Y023811D01*
Y025008D01*
X023325Y025027D01*
X023802D01*
X023865Y02504D01*
X023918Y025075D01*
X024035Y025192D01*
X02407Y025245D01*
X024083Y025308D01*
Y025368D01*
X024116D01*
Y026008D01*
D02*
G37*
G36*
X021647Y027288D02*
X021192D01*
Y026794D01*
X021647D01*
Y026877D01*
X021851D01*
Y026823D01*
X022145D01*
X022164Y026777D01*
X022041Y026654D01*
X02159D01*
X021549Y026671D01*
X021478D01*
X021411Y026643D01*
X021361Y026593D01*
X021333Y026526D01*
Y026455D01*
X021361Y026389D01*
X021411Y026338D01*
X021478Y02631D01*
X021549D01*
X02159Y026327D01*
X022109D01*
X022171Y02634D01*
X022224Y026375D01*
X022672Y026823D01*
X022876D01*
Y026927D01*
X022967D01*
X023011Y026913D01*
X023011Y026877D01*
Y026273D01*
X023368D01*
Y026511D01*
X023391Y026525D01*
X023418Y026535D01*
X023478Y02651D01*
X023549D01*
X023615Y026538D01*
X023666Y026589D01*
X023694Y026655D01*
Y026726D01*
X023666Y026793D01*
X023615Y026843D01*
X023549Y026871D01*
X023478D01*
X023418Y026846D01*
X023391Y026856D01*
X023374Y026866D01*
X023375Y026916D01*
X023412Y026927D01*
X023735D01*
X023756Y026906D01*
Y026682D01*
X023759Y026666D01*
Y026273D01*
X024116D01*
Y026477D01*
X024361D01*
Y026376D01*
X02479D01*
X024806Y026373D01*
X0249D01*
X024983Y02629D01*
Y026255D01*
X025Y026214D01*
Y025917D01*
X024983Y025876D01*
Y025805D01*
X025Y025764D01*
Y025517D01*
X024983Y025476D01*
Y025405D01*
X025011Y025339D01*
X025013Y025328D01*
X025048Y025275D01*
X025101Y02524D01*
X025163Y025227D01*
X025226Y02524D01*
X025279Y025275D01*
X025314Y025328D01*
X025316Y025339D01*
X025344Y025405D01*
Y025476D01*
X025327Y025517D01*
Y025764D01*
X025344Y025805D01*
Y025876D01*
X025327Y025917D01*
Y026214D01*
X025344Y026255D01*
Y026326D01*
X025327Y026367D01*
Y026564D01*
X025344Y026605D01*
Y026676D01*
X025316Y026743D01*
X025265Y026793D01*
X025199Y026821D01*
X025128D01*
X025087Y026804D01*
X024966D01*
Y027205D01*
X024361D01*
Y026804D01*
X024116D01*
Y026913D01*
X024083D01*
Y026973D01*
X02407Y027036D01*
X024035Y027089D01*
X023918Y027206D01*
X023865Y027241D01*
X023802Y027254D01*
X022876D01*
Y027258D01*
X022441D01*
Y027054D01*
X022332Y026944D01*
X022286Y026964D01*
Y027258D01*
X021851D01*
Y027204D01*
X021647D01*
Y027288D01*
D02*
G37*
G36*
X030812Y025658D02*
X03074D01*
X030674Y025631D01*
X030623Y02558D01*
X030596Y025514D01*
Y025442D01*
X030623Y025376D01*
X030664Y025336D01*
Y025152D01*
X03066Y025146D01*
X030651Y025103D01*
X030651Y025103D01*
Y024787D01*
X030585Y024721D01*
X030528D01*
X030461Y024693D01*
X030411Y024643D01*
X030383Y024576D01*
Y024505D01*
X030411Y024439D01*
X030461Y024388D01*
X030528Y02436D01*
X030599D01*
X030665Y024388D01*
X030716Y024439D01*
X030744Y024505D01*
Y024562D01*
X030843Y024661D01*
X030843Y024661D01*
X030867Y024698D01*
X030876Y024741D01*
X030876Y024741D01*
Y025067D01*
X030879Y025073D01*
X030888Y025116D01*
X030888Y025116D01*
Y025336D01*
X030928Y025376D01*
X030956Y025442D01*
Y025514D01*
X030928Y02558D01*
X030878Y025631D01*
X030812Y025658D01*
D02*
G37*
G36*
X022777Y024213D02*
X021988D01*
Y023797D01*
X02194Y023782D01*
X021932Y023794D01*
X021847Y023879D01*
X021747Y023946D01*
X021635Y023992D01*
X021517Y024016D01*
X021397D01*
X021279Y023992D01*
X021168Y023946D01*
X021068Y023879D01*
X020982Y023794D01*
X020916Y023694D01*
X020869Y023583D01*
X020846Y023465D01*
Y023345D01*
X020869Y023226D01*
X020916Y023115D01*
X020982Y023015D01*
X021068Y02293D01*
X021168Y022863D01*
X021279Y022817D01*
X021397Y022794D01*
X021517D01*
X021635Y022817D01*
X021747Y022863D01*
X021847Y02293D01*
X021932Y023015D01*
X021999Y023115D01*
X022045Y023226D01*
X022068Y023345D01*
Y023465D01*
X022053Y023542D01*
X022085Y023581D01*
X022777D01*
Y024213D01*
D02*
G37*
G36*
X028124Y024253D02*
X027831Y02396D01*
X027877Y023913D01*
X027385Y023421D01*
X027328D01*
X027261Y023393D01*
X027211Y023343D01*
X027183Y023276D01*
Y023205D01*
X027211Y023139D01*
X027261Y023088D01*
X027328Y02306D01*
X027399D01*
X027465Y023088D01*
X027516Y023139D01*
X027544Y023205D01*
Y023262D01*
X028036Y023754D01*
X028083Y023708D01*
X028376Y024001D01*
X028124Y024253D01*
D02*
G37*
G36*
X02686Y026197D02*
X026766D01*
X026676Y026173D01*
X026594Y026126D01*
X026528Y02606D01*
X026481Y025978D01*
X026457Y025888D01*
Y025794D01*
X026481Y025703D01*
X026528Y025621D01*
X026594Y025555D01*
X026676Y025508D01*
X026766Y025484D01*
X026812D01*
X027251Y025044D01*
Y023983D01*
X027211Y023943D01*
X027183Y023876D01*
Y023805D01*
X027211Y023739D01*
X027261Y023688D01*
X027328Y02366D01*
X027399D01*
X027465Y023688D01*
X027516Y023739D01*
X027544Y023805D01*
Y023876D01*
X027516Y023943D01*
X027476Y023983D01*
Y025091D01*
X027467Y025133D01*
X027443Y02517D01*
X027443Y02517D01*
X027045Y025568D01*
X027099Y025621D01*
X027146Y025703D01*
X02717Y025794D01*
Y025888D01*
X027146Y025978D01*
X027099Y02606D01*
X027033Y026126D01*
X026951Y026173D01*
X02686Y026197D01*
D02*
G37*
G36*
X033099Y025021D02*
X033028D01*
X032961Y024993D01*
X032911Y024943D01*
X032883Y024876D01*
Y024805D01*
X032911Y024739D01*
X032961Y024688D01*
X033028Y02466D01*
X033099D01*
X03315Y024682D01*
X033277Y024555D01*
X033317Y024528D01*
X033363Y024519D01*
X033663D01*
X034383Y023799D01*
Y023755D01*
X034411Y023689D01*
X034461Y023638D01*
X034528Y02361D01*
X034599D01*
X034665Y023638D01*
X034716Y023689D01*
X034744Y023755D01*
Y023826D01*
X034716Y023893D01*
X034665Y023943D01*
X034599Y023971D01*
X034555D01*
X033799Y024727D01*
X03376Y024753D01*
X033713Y024762D01*
X033414D01*
X033273Y024903D01*
X033233Y02493D01*
X03322Y024932D01*
X033216Y024943D01*
X033165Y024993D01*
X033099Y025021D01*
D02*
G37*
G36*
X02617Y026197D02*
X025457D01*
Y025484D01*
X025869D01*
X025898Y025444D01*
X025907Y025401D01*
X025931Y025364D01*
X026485Y024811D01*
Y023625D01*
X02648Y023601D01*
X026461Y023593D01*
X026411Y023543D01*
X026383Y023476D01*
Y023405D01*
X026411Y023339D01*
X026461Y023288D01*
X026528Y02326D01*
X026599D01*
X026665Y023288D01*
X026716Y023339D01*
X026744Y023405D01*
Y023476D01*
X026716Y023543D01*
X026702Y023556D01*
Y023565D01*
X026709Y023599D01*
Y024857D01*
X0267Y0249D01*
X026676Y024936D01*
X026676Y024936D01*
X026158Y025454D01*
X02617Y025484D01*
X02617D01*
Y026197D01*
D02*
G37*
G36*
X030799Y023971D02*
X030728D01*
X030661Y023943D01*
X030611Y023893D01*
X030583Y023826D01*
Y023771D01*
X030528D01*
X030461Y023743D01*
X030411Y023693D01*
X030383Y023626D01*
Y023555D01*
X030411Y023489D01*
X030461Y023438D01*
X030528Y02341D01*
X030583D01*
Y023355D01*
X030611Y023289D01*
X030661Y023238D01*
X030728Y02321D01*
X030799D01*
X030865Y023238D01*
X030916Y023289D01*
X030944Y023355D01*
Y02341D01*
X030999D01*
X031065Y023438D01*
X031116Y023489D01*
X031144Y023555D01*
Y023626D01*
X031116Y023693D01*
X031065Y023743D01*
X030999Y023771D01*
X030944D01*
Y023826D01*
X030916Y023893D01*
X030865Y023943D01*
X030799Y023971D01*
D02*
G37*
G36*
X028797Y023738D02*
X028545Y023486D01*
X029159Y022872D01*
X029159D01*
X0292Y022864D01*
X029211Y022839D01*
X029261Y022788D01*
X029328Y02276D01*
X029399D01*
X029465Y022788D01*
X029516Y022839D01*
X029544Y022905D01*
Y022976D01*
X029516Y023043D01*
X029465Y023093D01*
X029413Y023115D01*
X029411Y023124D01*
Y023124D01*
X028797Y023738D01*
D02*
G37*
G36*
X026049Y023071D02*
X025978D01*
X025911Y023043D01*
X025861Y022993D01*
X025833Y022926D01*
Y022855D01*
X025861Y022789D01*
X025897Y022753D01*
X025876Y022703D01*
X024463D01*
X024421Y022694D01*
X024384Y02267D01*
X024384Y02267D01*
X024167Y022453D01*
X022706D01*
X022665Y022493D01*
X022599Y022521D01*
X022528D01*
X022461Y022493D01*
X022411Y022443D01*
X022383Y022376D01*
Y022305D01*
X022411Y022239D01*
X022461Y022188D01*
X022528Y02216D01*
X022599D01*
X022665Y022188D01*
X022706Y022228D01*
X024213D01*
X024213Y022228D01*
X024256Y022237D01*
X024293Y022261D01*
X02451Y022478D01*
X026193D01*
X026195Y022477D01*
X026211Y022439D01*
X026247Y022403D01*
X026226Y022353D01*
X025906D01*
X025865Y022393D01*
X025799Y022421D01*
X025728D01*
X025661Y022393D01*
X025611Y022343D01*
X025583Y022276D01*
Y022205D01*
X025611Y022139D01*
X025661Y022088D01*
X025728Y02206D01*
X025799D01*
X025865Y022088D01*
X025906Y022128D01*
X026671D01*
X026711Y022088D01*
X026778Y02206D01*
X026849D01*
X026915Y022088D01*
X026966Y022139D01*
X026994Y022205D01*
Y022276D01*
X026966Y022343D01*
X026915Y022393D01*
X026849Y022421D01*
X026778D01*
X026711Y022393D01*
X026671Y022353D01*
X026501D01*
X02648Y022403D01*
X026516Y022439D01*
X026544Y022505D01*
Y022576D01*
X026516Y022643D01*
X026465Y022693D01*
X026399Y022721D01*
X026328D01*
X026268Y022696D01*
X026235Y022703D01*
X026235Y022703D01*
X026151D01*
X02613Y022753D01*
X026166Y022789D01*
X026194Y022855D01*
Y022926D01*
X026166Y022993D01*
X026115Y023043D01*
X026049Y023071D01*
D02*
G37*
G36*
X028268Y023209D02*
X028016Y022957D01*
X02863Y022343D01*
X028631Y022344D01*
X028661Y022339D01*
X028711Y022288D01*
X028778Y02226D01*
X028849D01*
X028915Y022288D01*
X028966Y022339D01*
X028994Y022405D01*
Y022476D01*
X028966Y022543D01*
X028915Y022593D01*
X028861Y022616D01*
X028268Y023209D01*
D02*
G37*
G36*
X012777Y027203D02*
X012342D01*
Y026768D01*
X012777D01*
Y026874D01*
X012963D01*
Y026719D01*
X013457D01*
Y027174D01*
X012963D01*
Y027098D01*
X012777D01*
Y027203D01*
D02*
G37*
G36*
X014896Y026921D02*
X014824D01*
X014758Y026893D01*
X014707Y026843D01*
X01468Y026776D01*
Y026705D01*
X014707Y026639D01*
X014758Y026588D01*
X014824Y02656D01*
X014896D01*
X014962Y026588D01*
X015013Y026639D01*
X01504Y026705D01*
Y026776D01*
X015013Y026843D01*
X014962Y026893D01*
X014896Y026921D01*
D02*
G37*
G36*
X009207Y027197D02*
X009113D01*
X009022Y027173D01*
X008941Y027126D01*
X008874Y02706D01*
X008827Y026978D01*
X008803Y026888D01*
Y026794D01*
X008827Y026703D01*
X008874Y026621D01*
X008941Y026555D01*
X009022Y026508D01*
X009113Y026484D01*
X009207D01*
X009298Y026508D01*
X009379Y026555D01*
X009445Y026621D01*
X009492Y026703D01*
X009517Y026794D01*
Y026888D01*
X009492Y026978D01*
X009445Y02706D01*
X009379Y027126D01*
X009298Y027173D01*
X009207Y027197D01*
D02*
G37*
G36*
X016446Y026321D02*
X016374D01*
X016308Y026293D01*
X016257Y026243D01*
X01623Y026176D01*
Y026105D01*
X016257Y026039D01*
X016308Y025988D01*
X016374Y02596D01*
X016446D01*
X016512Y025988D01*
X016563Y026039D01*
X01659Y026105D01*
Y026176D01*
X016563Y026243D01*
X016512Y026293D01*
X016446Y026321D01*
D02*
G37*
G36*
X01201Y026955D02*
X01166D01*
X011578Y026938D01*
X011509Y026892D01*
X011462Y026822D01*
X011446Y026741D01*
X011462Y026659D01*
X011509Y026589D01*
X011759Y026339D01*
X011759Y026339D01*
X011854Y026244D01*
X011923Y026197D01*
X012005Y026181D01*
X012342D01*
Y026178D01*
X012726D01*
X012752Y026139D01*
X012755Y026128D01*
X012748Y026091D01*
X012748Y026091D01*
Y025883D01*
X012707Y025843D01*
X01268Y025776D01*
Y025705D01*
X012707Y025639D01*
X012758Y025588D01*
X012824Y02556D01*
X012896D01*
X012962Y025588D01*
X013013Y025639D01*
X01304Y025705D01*
Y025776D01*
X013013Y025843D01*
X012972Y025883D01*
Y026044D01*
X013135Y026207D01*
X013457D01*
Y026662D01*
X012963D01*
Y026352D01*
X012827Y026217D01*
X012777Y026237D01*
Y026613D01*
X012342D01*
Y026609D01*
X012224D01*
Y026741D01*
X012208Y026822D01*
X012161Y026892D01*
X012092Y026938D01*
X01201Y026955D01*
D02*
G37*
G36*
X007462Y026008D02*
X007106D01*
Y025685D01*
X007103Y02567D01*
Y025375D01*
X007081Y025354D01*
X006739D01*
X006717Y025375D01*
Y02567D01*
X006714Y025685D01*
Y026008D01*
X006358D01*
Y025851D01*
X006123D01*
Y025984D01*
X005334D01*
Y025569D01*
X005286Y025554D01*
X005278Y025566D01*
X005193Y025651D01*
X005093Y025718D01*
X004982Y025764D01*
X004864Y025788D01*
X004743D01*
X004625Y025764D01*
X004514Y025718D01*
X004414Y025651D01*
X004329Y025566D01*
X004262Y025466D01*
X004216Y025355D01*
X004192Y025237D01*
Y025116D01*
X004216Y024998D01*
X004262Y024887D01*
X004329Y024787D01*
X004414Y024702D01*
X004514Y024635D01*
X004625Y024589D01*
X004743Y024565D01*
X004864D01*
X004982Y024589D01*
X005093Y024635D01*
X005193Y024702D01*
X005278Y024787D01*
X005286Y024799D01*
X005334Y024784D01*
Y024368D01*
X006123D01*
Y025D01*
X005431D01*
X005399Y025039D01*
X005415Y025116D01*
Y025237D01*
X005399Y025314D01*
X005431Y025353D01*
X006123D01*
Y025525D01*
X006358D01*
Y025368D01*
X006391D01*
Y025308D01*
X006403Y025245D01*
X006424Y025215D01*
Y023765D01*
X006424Y023765D01*
X006432Y023722D01*
X006457Y023685D01*
X006781Y023361D01*
X006781Y023361D01*
X006817Y023337D01*
X00686Y023328D01*
X007876D01*
X00793Y023274D01*
Y023255D01*
X007957Y023189D01*
X008008Y023138D01*
X008074Y02311D01*
X008146D01*
X008212Y023138D01*
X008263Y023189D01*
X00829Y023255D01*
Y023326D01*
X008263Y023393D01*
X008212Y023443D01*
X008146Y023471D01*
X008074D01*
X008057Y023464D01*
X008001Y02352D01*
X007965Y023544D01*
X007922Y023553D01*
X007922Y023553D01*
X006906D01*
X006648Y023811D01*
Y025008D01*
X006671Y025027D01*
X007149D01*
X007211Y02504D01*
X007264Y025075D01*
X007381Y025192D01*
X007417Y025245D01*
X007429Y025308D01*
Y025368D01*
X007462D01*
Y026008D01*
D02*
G37*
G36*
X004993Y027288D02*
X004539D01*
Y026794D01*
X004993D01*
Y026877D01*
X005197D01*
Y026823D01*
X005492D01*
X005511Y026777D01*
X005388Y026654D01*
X004937D01*
X004896Y026671D01*
X004824D01*
X004758Y026643D01*
X004707Y026593D01*
X00468Y026526D01*
Y026455D01*
X004707Y026389D01*
X004758Y026338D01*
X004824Y02631D01*
X004896D01*
X004937Y026327D01*
X005455D01*
X005518Y02634D01*
X005571Y026375D01*
X006018Y026823D01*
X006223D01*
Y026927D01*
X006314D01*
X006358Y026913D01*
X006358Y026877D01*
Y026273D01*
X006714D01*
Y026511D01*
X006737Y026525D01*
X006764Y026535D01*
X006824Y02651D01*
X006896D01*
X006962Y026538D01*
X007013Y026589D01*
X00704Y026655D01*
Y026726D01*
X007013Y026793D01*
X006962Y026843D01*
X006896Y026871D01*
X006824D01*
X006764Y026846D01*
X006737Y026856D01*
X00672Y026866D01*
X006722Y026916D01*
X006758Y026927D01*
X007081D01*
X007103Y026906D01*
Y026682D01*
X007106Y026666D01*
Y026273D01*
X007462D01*
Y026477D01*
X007708D01*
Y026376D01*
X008136D01*
X008152Y026373D01*
X008247D01*
X00833Y02629D01*
Y026255D01*
X008347Y026214D01*
Y025917D01*
X00833Y025876D01*
Y025805D01*
X008347Y025764D01*
Y025517D01*
X00833Y025476D01*
Y025405D01*
X008357Y025339D01*
X008359Y025328D01*
X008395Y025275D01*
X008447Y02524D01*
X00851Y025227D01*
X008572Y02524D01*
X008625Y025275D01*
X008661Y025328D01*
X008663Y025339D01*
X00869Y025405D01*
Y025476D01*
X008673Y025517D01*
Y025764D01*
X00869Y025805D01*
Y025876D01*
X008673Y025917D01*
Y026214D01*
X00869Y026255D01*
Y026326D01*
X008673Y026367D01*
Y026564D01*
X00869Y026605D01*
Y026676D01*
X008663Y026743D01*
X008612Y026793D01*
X008546Y026821D01*
X008474D01*
X008433Y026804D01*
X008312D01*
Y027205D01*
X007708D01*
Y026804D01*
X007462D01*
Y026913D01*
X007429D01*
Y026973D01*
X007417Y027036D01*
X007381Y027089D01*
X007264Y027206D01*
X007211Y027241D01*
X007149Y027254D01*
X006223D01*
Y027258D01*
X005788D01*
Y027054D01*
X005678Y026944D01*
X005632Y026964D01*
Y027258D01*
X005197D01*
Y027204D01*
X004993D01*
Y027288D01*
D02*
G37*
G36*
X014158Y025658D02*
X014086D01*
X01402Y025631D01*
X01397Y02558D01*
X013942Y025514D01*
Y025442D01*
X01397Y025376D01*
X01401Y025336D01*
Y025152D01*
X014006Y025146D01*
X013998Y025103D01*
X013998Y025103D01*
Y024787D01*
X013931Y024721D01*
X013874D01*
X013808Y024693D01*
X013757Y024643D01*
X01373Y024576D01*
Y024505D01*
X013757Y024439D01*
X013808Y024388D01*
X013874Y02436D01*
X013946D01*
X014012Y024388D01*
X014063Y024439D01*
X01409Y024505D01*
Y024562D01*
X014189Y024661D01*
X014189Y024661D01*
X014214Y024698D01*
X014222Y024741D01*
X014222Y024741D01*
Y025067D01*
X014226Y025073D01*
X014234Y025116D01*
X014234Y025116D01*
Y025336D01*
X014275Y025376D01*
X014302Y025442D01*
Y025514D01*
X014275Y02558D01*
X014224Y025631D01*
X014158Y025658D01*
D02*
G37*
G36*
X006123Y024213D02*
X005334D01*
Y023797D01*
X005286Y023782D01*
X005278Y023794D01*
X005193Y023879D01*
X005093Y023946D01*
X004982Y023992D01*
X004864Y024016D01*
X004743D01*
X004625Y023992D01*
X004514Y023946D01*
X004414Y023879D01*
X004329Y023794D01*
X004262Y023694D01*
X004216Y023583D01*
X004192Y023465D01*
Y023345D01*
X004216Y023226D01*
X004262Y023115D01*
X004329Y023015D01*
X004414Y02293D01*
X004514Y022863D01*
X004625Y022817D01*
X004743Y022794D01*
X004864D01*
X004982Y022817D01*
X005093Y022863D01*
X005193Y02293D01*
X005278Y023015D01*
X005345Y023115D01*
X005391Y023226D01*
X005415Y023345D01*
Y023465D01*
X005399Y023542D01*
X005431Y023581D01*
X006123D01*
Y024213D01*
D02*
G37*
G36*
X011471Y024253D02*
X011177Y02396D01*
X011224Y023913D01*
X010731Y023421D01*
X010674D01*
X010608Y023393D01*
X010557Y023343D01*
X01053Y023276D01*
Y023205D01*
X010557Y023139D01*
X010608Y023088D01*
X010674Y02306D01*
X010746D01*
X010812Y023088D01*
X010863Y023139D01*
X01089Y023205D01*
Y023262D01*
X011382Y023754D01*
X011429Y023708D01*
X011723Y024001D01*
X011471Y024253D01*
D02*
G37*
G36*
X010207Y026197D02*
X010113D01*
X010022Y026173D01*
X009941Y026126D01*
X009874Y02606D01*
X009827Y025978D01*
X009803Y025888D01*
Y025794D01*
X009827Y025703D01*
X009874Y025621D01*
X009941Y025555D01*
X010022Y025508D01*
X010113Y025484D01*
X010158D01*
X010598Y025044D01*
Y023983D01*
X010557Y023943D01*
X01053Y023876D01*
Y023805D01*
X010557Y023739D01*
X010608Y023688D01*
X010674Y02366D01*
X010746D01*
X010812Y023688D01*
X010863Y023739D01*
X01089Y023805D01*
Y023876D01*
X010863Y023943D01*
X010822Y023983D01*
Y025091D01*
X010814Y025133D01*
X010789Y02517D01*
X010789Y02517D01*
X010392Y025568D01*
X010445Y025621D01*
X010492Y025703D01*
X010517Y025794D01*
Y025888D01*
X010492Y025978D01*
X010445Y02606D01*
X010379Y026126D01*
X010298Y026173D01*
X010207Y026197D01*
D02*
G37*
G36*
X016446Y025021D02*
X016374D01*
X016308Y024993D01*
X016257Y024943D01*
X01623Y024876D01*
Y024805D01*
X016257Y024739D01*
X016308Y024688D01*
X016374Y02466D01*
X016446D01*
X016497Y024682D01*
X016624Y024555D01*
X016663Y024528D01*
X01671Y024519D01*
X01701D01*
X01773Y023799D01*
Y023755D01*
X017757Y023689D01*
X017808Y023638D01*
X017874Y02361D01*
X017946D01*
X018012Y023638D01*
X018063Y023689D01*
X01809Y023755D01*
Y023826D01*
X018063Y023893D01*
X018012Y023943D01*
X017946Y023971D01*
X017902D01*
X017146Y024727D01*
X017106Y024753D01*
X01706Y024762D01*
X01676D01*
X016619Y024903D01*
X01658Y02493D01*
X016567Y024932D01*
X016563Y024943D01*
X016512Y024993D01*
X016446Y025021D01*
D02*
G37*
G36*
X009517Y026197D02*
X008803D01*
Y025484D01*
X009216D01*
X009245Y025444D01*
X009253Y025401D01*
X009277Y025364D01*
X009831Y024811D01*
Y023625D01*
X009826Y023601D01*
X009808Y023593D01*
X009757Y023543D01*
X00973Y023476D01*
Y023405D01*
X009757Y023339D01*
X009808Y023288D01*
X009874Y02326D01*
X009946D01*
X010012Y023288D01*
X010063Y023339D01*
X01009Y023405D01*
Y023476D01*
X010063Y023543D01*
X010049Y023556D01*
Y023565D01*
X010055Y023599D01*
Y024857D01*
X010047Y0249D01*
X010023Y024936D01*
X010023Y024936D01*
X009505Y025454D01*
X009517Y025484D01*
X009517D01*
Y026197D01*
D02*
G37*
G36*
X014146Y023971D02*
X014074D01*
X014008Y023943D01*
X013957Y023893D01*
X01393Y023826D01*
Y023771D01*
X013874D01*
X013808Y023743D01*
X013757Y023693D01*
X01373Y023626D01*
Y023555D01*
X013757Y023489D01*
X013808Y023438D01*
X013874Y02341D01*
X01393D01*
Y023355D01*
X013957Y023289D01*
X014008Y023238D01*
X014074Y02321D01*
X014146D01*
X014212Y023238D01*
X014263Y023289D01*
X01429Y023355D01*
Y02341D01*
X014346D01*
X014412Y023438D01*
X014463Y023489D01*
X01449Y023555D01*
Y023626D01*
X014463Y023693D01*
X014412Y023743D01*
X014346Y023771D01*
X01429D01*
Y023826D01*
X014263Y023893D01*
X014212Y023943D01*
X014146Y023971D01*
D02*
G37*
G36*
X012143Y023738D02*
X011892Y023486D01*
X012505Y022872D01*
X012505D01*
X012547Y022864D01*
X012557Y022839D01*
X012608Y022788D01*
X012674Y02276D01*
X012746D01*
X012812Y022788D01*
X012863Y022839D01*
X01289Y022905D01*
Y022976D01*
X012863Y023043D01*
X012812Y023093D01*
X012759Y023115D01*
X012757Y023124D01*
Y023124D01*
X012143Y023738D01*
D02*
G37*
G36*
X009396Y023071D02*
X009324D01*
X009258Y023043D01*
X009207Y022993D01*
X00918Y022926D01*
Y022855D01*
X009207Y022789D01*
X009243Y022753D01*
X009222Y022703D01*
X00781D01*
X007767Y022694D01*
X007731Y02267D01*
X007731Y02267D01*
X007513Y022453D01*
X006052D01*
X006012Y022493D01*
X005946Y022521D01*
X005874D01*
X005808Y022493D01*
X005757Y022443D01*
X00573Y022376D01*
Y022305D01*
X005757Y022239D01*
X005808Y022188D01*
X005874Y02216D01*
X005946D01*
X006012Y022188D01*
X006052Y022228D01*
X00756D01*
X00756Y022228D01*
X007603Y022237D01*
X007639Y022261D01*
X007856Y022478D01*
X00954D01*
X009541Y022477D01*
X009557Y022439D01*
X009593Y022403D01*
X009572Y022353D01*
X009252D01*
X009212Y022393D01*
X009146Y022421D01*
X009074D01*
X009008Y022393D01*
X008957Y022343D01*
X00893Y022276D01*
Y022205D01*
X008957Y022139D01*
X009008Y022088D01*
X009074Y02206D01*
X009146D01*
X009212Y022088D01*
X009252Y022128D01*
X010017D01*
X010058Y022088D01*
X010124Y02206D01*
X010196D01*
X010262Y022088D01*
X010313Y022139D01*
X01034Y022205D01*
Y022276D01*
X010313Y022343D01*
X010262Y022393D01*
X010196Y022421D01*
X010124D01*
X010058Y022393D01*
X010017Y022353D01*
X009847D01*
X009827Y022403D01*
X009863Y022439D01*
X00989Y022505D01*
Y022576D01*
X009863Y022643D01*
X009812Y022693D01*
X009746Y022721D01*
X009674D01*
X009615Y022696D01*
X009581Y022703D01*
X009581Y022703D01*
X009497D01*
X009477Y022753D01*
X009513Y022789D01*
X00954Y022855D01*
Y022926D01*
X009513Y022993D01*
X009462Y023043D01*
X009396Y023071D01*
D02*
G37*
G36*
X011615Y023209D02*
X011363Y022957D01*
X011976Y022343D01*
X011978Y022344D01*
X012007Y022339D01*
X012058Y022288D01*
X012124Y02226D01*
X012196D01*
X012262Y022288D01*
X012313Y022339D01*
X01234Y022405D01*
Y022476D01*
X012313Y022543D01*
X012262Y022593D01*
X012208Y022616D01*
X011615Y023209D01*
D02*
G37*
G36*
X02996Y020953D02*
X029466D01*
Y020838D01*
X029281D01*
Y020933D01*
X028846D01*
Y020498D01*
X029281D01*
Y020614D01*
X029466D01*
Y020499D01*
X02996D01*
Y020953D01*
D02*
G37*
G36*
X021647Y021067D02*
X021192D01*
Y020573D01*
X021647D01*
Y020657D01*
X021851D01*
Y020603D01*
X022286D01*
Y021038D01*
X021851D01*
Y020983D01*
X021647D01*
Y021067D01*
D02*
G37*
G36*
X032Y020949D02*
X031929D01*
X031863Y020922D01*
X031812Y020871D01*
X031784Y020805D01*
Y020733D01*
X031812Y020667D01*
X031863Y020616D01*
X031929Y020589D01*
X032D01*
X032067Y020616D01*
X032117Y020667D01*
X032145Y020733D01*
Y020805D01*
X032117Y020871D01*
X032067Y020922D01*
X032Y020949D01*
D02*
G37*
G36*
X02581Y020977D02*
X025716D01*
X025626Y020953D01*
X025544Y020906D01*
X025478Y020839D01*
X025431Y020758D01*
X025407Y020667D01*
Y020573D01*
X025431Y020482D01*
X025478Y020401D01*
X025544Y020335D01*
X025626Y020288D01*
X025716Y020263D01*
X02581D01*
X025901Y020288D01*
X025983Y020335D01*
X026049Y020401D01*
X026096Y020482D01*
X02612Y020573D01*
Y020667D01*
X026096Y020758D01*
X026049Y020839D01*
X025983Y020906D01*
X025901Y020953D01*
X02581Y020977D01*
D02*
G37*
G36*
X032599Y0202D02*
X032528D01*
X032461Y020173D01*
X032411Y020122D01*
X032383Y020056D01*
Y019984D01*
X032411Y019918D01*
X032461Y019867D01*
X032528Y01984D01*
X032599D01*
X032665Y019867D01*
X032716Y019918D01*
X032744Y019984D01*
Y020056D01*
X032716Y020122D01*
X032665Y020173D01*
X032599Y0202D01*
D02*
G37*
G36*
X028649Y020442D02*
X028578D01*
X028511Y020414D01*
X028461Y020364D01*
X028433Y020297D01*
Y020226D01*
X02845Y020185D01*
Y020097D01*
X028433Y020056D01*
Y019984D01*
X028461Y019918D01*
X028511Y019867D01*
X028578Y01984D01*
X028649D01*
X028715Y019867D01*
X028752Y019904D01*
X029006D01*
X029022Y019907D01*
X029281D01*
Y020342D01*
X028846D01*
Y02023D01*
X028794D01*
Y020297D01*
X028766Y020364D01*
X028715Y020414D01*
X028649Y020442D01*
D02*
G37*
G36*
X024016Y020037D02*
X023659D01*
Y019715D01*
X023656Y019699D01*
Y019444D01*
X023596Y019383D01*
X023292D01*
X023271Y019405D01*
Y019699D01*
X023268Y019715D01*
Y020037D01*
X022911D01*
Y019684D01*
X022777D01*
Y019764D01*
X021988D01*
Y019348D01*
X02194Y019334D01*
X021932Y019346D01*
X021847Y019431D01*
X021747Y019498D01*
X021635Y019544D01*
X021517Y019567D01*
X021397D01*
X021279Y019544D01*
X021168Y019498D01*
X021068Y019431D01*
X020982Y019346D01*
X020916Y019245D01*
X020869Y019134D01*
X020846Y019016D01*
Y018896D01*
X020869Y018778D01*
X020916Y018666D01*
X020982Y018566D01*
X021068Y018481D01*
X021168Y018414D01*
X021279Y018368D01*
X021397Y018345D01*
X021517D01*
X021635Y018368D01*
X021747Y018414D01*
X021847Y018481D01*
X021932Y018566D01*
X02194Y018578D01*
X021988Y018564D01*
Y018148D01*
X022777D01*
Y01878D01*
X022085D01*
X022053Y018818D01*
X022068Y018896D01*
Y019016D01*
X022053Y019093D01*
X022085Y019132D01*
X022777D01*
Y019256D01*
X022963D01*
X022969Y019257D01*
X022992Y019222D01*
X023109Y019105D01*
X023162Y019069D01*
X023225Y019057D01*
X023663D01*
X023726Y019069D01*
X023779Y019105D01*
X023935Y019261D01*
X02397Y019314D01*
X023983Y019376D01*
Y019397D01*
X024016D01*
Y020037D01*
D02*
G37*
G36*
X02996Y020441D02*
X029466D01*
Y020126D01*
X029434Y020093D01*
X02941Y020057D01*
X029401Y020014D01*
X029401Y020014D01*
Y019413D01*
X029361Y019372D01*
X029333Y019306D01*
Y019234D01*
X029361Y019168D01*
X029411Y019117D01*
X029478Y01909D01*
X029549D01*
X029615Y019117D01*
X029666Y019168D01*
X029694Y019234D01*
Y019306D01*
X029666Y019372D01*
X029626Y019413D01*
Y019968D01*
X029645Y019987D01*
X02996D01*
Y020441D01*
D02*
G37*
G36*
X03558Y019623D02*
X035447D01*
X035319Y019589D01*
X035205Y019522D01*
X035111Y019429D01*
X035045Y019314D01*
X035011Y019186D01*
Y019054D01*
X035045Y018926D01*
X035111Y018811D01*
X035205Y018718D01*
X035319Y018651D01*
X035447Y018617D01*
X03558D01*
X035708Y018651D01*
X035822Y018718D01*
X035916Y018811D01*
X035982Y018926D01*
X036016Y019054D01*
Y019186D01*
X035982Y019314D01*
X035916Y019429D01*
X035822Y019522D01*
X035708Y019589D01*
X03558Y019623D01*
D02*
G37*
G36*
X030649Y01925D02*
X030578D01*
X030511Y019223D01*
X030461Y019172D01*
X030433Y019106D01*
Y019034D01*
X030461Y018968D01*
X030501Y018928D01*
Y018657D01*
X030432Y018588D01*
X030413D01*
X030347Y018561D01*
X030296Y01851D01*
X030269Y018444D01*
Y018372D01*
X030296Y018306D01*
X030347Y018255D01*
X030413Y018228D01*
X030484D01*
X030551Y018255D01*
X030601Y018306D01*
X030629Y018372D01*
Y018444D01*
X030622Y018461D01*
X030693Y018532D01*
X030717Y018568D01*
X030726Y018611D01*
X030726Y018611D01*
Y018928D01*
X030766Y018968D01*
X030794Y019034D01*
Y019106D01*
X030766Y019172D01*
X030715Y019223D01*
X030649Y01925D01*
D02*
G37*
G36*
X022777Y017992D02*
X021988D01*
Y017576D01*
X02194Y017562D01*
X021932Y017574D01*
X021847Y017659D01*
X021747Y017726D01*
X021635Y017772D01*
X021517Y017795D01*
X021397D01*
X021279Y017772D01*
X021168Y017726D01*
X021068Y017659D01*
X020982Y017574D01*
X020916Y017474D01*
X020869Y017363D01*
X020846Y017244D01*
Y017124D01*
X020869Y017006D01*
X020916Y016895D01*
X020982Y016795D01*
X021068Y01671D01*
X021168Y016643D01*
X021279Y016597D01*
X021397Y016573D01*
X021517D01*
X021635Y016597D01*
X021747Y016643D01*
X021847Y01671D01*
X021932Y016795D01*
X021999Y016895D01*
X022045Y017006D01*
X022068Y017124D01*
Y017244D01*
X022053Y017322D01*
X022085Y01736D01*
X022777D01*
Y017992D01*
D02*
G37*
G36*
X025399Y0175D02*
X025328D01*
X025261Y017473D01*
X025238Y01745D01*
X025215Y017473D01*
X025149Y0175D01*
X025078D01*
X025011Y017473D01*
X024961Y017422D01*
X024933Y017356D01*
Y017284D01*
X024961Y017218D01*
X024984Y017195D01*
X024961Y017172D01*
X024933Y017106D01*
Y017034D01*
X024961Y016968D01*
X025011Y016917D01*
X025078Y01689D01*
X025149D01*
X025215Y016917D01*
X025238Y01694D01*
X025261Y016917D01*
X025328Y01689D01*
X025399D01*
X025465Y016917D01*
X025516Y016968D01*
X025544Y017034D01*
Y017106D01*
X025516Y017172D01*
X025493Y017195D01*
X025516Y017218D01*
X025544Y017284D01*
Y017356D01*
X025516Y017422D01*
X025465Y017473D01*
X025399Y0175D01*
D02*
G37*
G36*
X028224Y017933D02*
X027931Y017639D01*
X027977Y017592D01*
X027411Y017026D01*
X027387Y01699D01*
X027385Y016983D01*
X027361Y016973D01*
X027311Y016922D01*
X027283Y016856D01*
Y016784D01*
X027311Y016718D01*
X027361Y016667D01*
X027428Y01664D01*
X027499D01*
X027565Y016667D01*
X027616Y016718D01*
X027644Y016784D01*
Y016856D01*
X027618Y016916D01*
X028136Y017434D01*
X028183Y017387D01*
X028476Y017681D01*
X028224Y017933D01*
D02*
G37*
G36*
X02681Y019977D02*
X026716D01*
X026626Y019953D01*
X026544Y019906D01*
X026478Y019839D01*
X026431Y019758D01*
X026407Y019667D01*
Y019573D01*
X026431Y019482D01*
X026478Y019401D01*
X026544Y019335D01*
X026626Y019288D01*
X026716Y019263D01*
X02681D01*
X026901Y019288D01*
X026924Y019301D01*
X027101Y019124D01*
Y017663D01*
X027061Y017622D01*
X027033Y017556D01*
Y017484D01*
X027061Y017418D01*
X027111Y017367D01*
X027178Y01734D01*
X027249D01*
X027315Y017367D01*
X027366Y017418D01*
X027394Y017484D01*
Y017556D01*
X027366Y017622D01*
X027326Y017663D01*
Y01917D01*
X027326Y01917D01*
X027317Y019213D01*
X027293Y019249D01*
X027293Y019249D01*
X027083Y019459D01*
X027096Y019482D01*
X02712Y019573D01*
Y019667D01*
X027096Y019758D01*
X027049Y019839D01*
X026983Y019906D01*
X026901Y019953D01*
X02681Y019977D01*
D02*
G37*
G36*
X030549Y0177D02*
X030478D01*
X030411Y017673D01*
X030361Y017622D01*
X030333Y017556D01*
Y017484D01*
X030361Y017418D01*
X030409Y01737D01*
X030361Y017322D01*
X030333Y017256D01*
Y017184D01*
X030361Y017118D01*
X030411Y017067D01*
X030478Y01704D01*
X030549D01*
X030615Y017067D01*
X030666Y017118D01*
X030694Y017184D01*
Y017256D01*
X030666Y017322D01*
X030618Y01737D01*
X030666Y017418D01*
X030694Y017484D01*
Y017556D01*
X030666Y017622D01*
X030615Y017673D01*
X030549Y0177D01*
D02*
G37*
G36*
X02612Y019977D02*
X025407D01*
Y019263D01*
X025962D01*
X026301Y018924D01*
Y017363D01*
X026261Y017322D01*
X026233Y017256D01*
Y017184D01*
X026261Y017118D01*
X026311Y017067D01*
X026378Y01704D01*
X026449D01*
X026515Y017067D01*
X026566Y017118D01*
X026594Y017184D01*
Y017256D01*
X026566Y017322D01*
X026526Y017363D01*
Y01897D01*
X026526Y01897D01*
X026517Y019013D01*
X026493Y019049D01*
X026493Y019049D01*
X02612Y019422D01*
Y019977D01*
D02*
G37*
G36*
X024672Y017173D02*
X024601D01*
X024535Y017146D01*
X024484Y017095D01*
X024457Y017029D01*
Y016957D01*
X024484Y016891D01*
X024535Y016841D01*
X024601Y016813D01*
X024672D01*
X024739Y016841D01*
X024789Y016891D01*
X024817Y016957D01*
Y017029D01*
X024789Y017095D01*
X024739Y017146D01*
X024672Y017173D01*
D02*
G37*
G36*
X028747Y017517D02*
X028495Y017265D01*
X029046Y016715D01*
Y016646D01*
X029073Y01658D01*
X029124Y01653D01*
X02919Y016502D01*
X029262D01*
X029328Y01653D01*
X029378Y01658D01*
X029406Y016646D01*
Y016718D01*
X029378Y016784D01*
X029345Y016817D01*
X029338Y016881D01*
X029361Y016904D01*
X028747Y017517D01*
D02*
G37*
G36*
X028218Y016988D02*
X027966Y016737D01*
X02858Y016123D01*
X028619Y016162D01*
X028649Y016156D01*
X028699Y016105D01*
X028765Y016078D01*
X028837D01*
X028903Y016105D01*
X028954Y016156D01*
X028981Y016222D01*
Y016294D01*
X028954Y01636D01*
X028903Y01641D01*
X028837Y016438D01*
X028769D01*
X028218Y016988D01*
D02*
G37*
G36*
X030249Y0164D02*
X030178D01*
X030111Y016373D01*
X030061Y016322D01*
X030033Y016256D01*
Y016184D01*
X03006Y01612D01*
X030033Y016056D01*
Y015984D01*
X030061Y015918D01*
X030111Y015867D01*
X030178Y01584D01*
X030249D01*
X030315Y015867D01*
X030366Y015918D01*
X030394Y015984D01*
Y016056D01*
X030367Y01612D01*
X030394Y016184D01*
Y016256D01*
X030366Y016322D01*
X030315Y016373D01*
X030249Y0164D01*
D02*
G37*
G36*
X026449Y01655D02*
X026378D01*
X026311Y016523D01*
X026271Y016482D01*
X025663D01*
X025621Y016474D01*
X025584Y016449D01*
X025584Y016449D01*
X025285Y01615D01*
X025228D01*
X025161Y016123D01*
X025111Y016072D01*
X025083Y016006D01*
Y015934D01*
X025111Y015868D01*
X025147Y015832D01*
X025126Y015782D01*
X02486D01*
X024493Y016149D01*
X024456Y016174D01*
X024413Y016182D01*
X024413Y016182D01*
X022306D01*
X022265Y016223D01*
X022199Y01625D01*
X022128D01*
X022061Y016223D01*
X022011Y016172D01*
X021983Y016106D01*
Y016034D01*
X022011Y015968D01*
X022061Y015917D01*
X022128Y01589D01*
X022199D01*
X022265Y015917D01*
X022306Y015958D01*
X024367D01*
X024734Y015591D01*
X024734Y015591D01*
X024771Y015566D01*
X024813Y015558D01*
X025879D01*
X025879Y015558D01*
X025922Y015566D01*
X025958Y015591D01*
X026157Y01579D01*
X026215D01*
X026281Y015817D01*
X026321Y015858D01*
X026361Y015817D01*
X026428Y01579D01*
X026499D01*
X026565Y015817D01*
X026616Y015868D01*
X026644Y015934D01*
Y016006D01*
X026616Y016072D01*
X026565Y016123D01*
X026499Y01615D01*
X026484D01*
X026474Y0162D01*
X026515Y016217D01*
X026566Y016268D01*
X026594Y016334D01*
Y016406D01*
X026566Y016472D01*
X026515Y016523D01*
X026449Y01655D01*
D02*
G37*
G36*
X013307Y020953D02*
X012813D01*
Y020838D01*
X012627D01*
Y020933D01*
X012192D01*
Y020498D01*
X012627D01*
Y020614D01*
X012813D01*
Y020499D01*
X013307D01*
Y020953D01*
D02*
G37*
G36*
X004993Y021067D02*
X004539D01*
Y020573D01*
X004993D01*
Y020657D01*
X005197D01*
Y020603D01*
X005632D01*
Y021038D01*
X005197D01*
Y020983D01*
X004993D01*
Y021067D01*
D02*
G37*
G36*
X015347Y020949D02*
X015275D01*
X015209Y020922D01*
X015158Y020871D01*
X015131Y020805D01*
Y020733D01*
X015158Y020667D01*
X015209Y020616D01*
X015275Y020589D01*
X015347D01*
X015413Y020616D01*
X015464Y020667D01*
X015491Y020733D01*
Y020805D01*
X015464Y020871D01*
X015413Y020922D01*
X015347Y020949D01*
D02*
G37*
G36*
X009157Y020977D02*
X009063D01*
X008972Y020953D01*
X008891Y020906D01*
X008824Y020839D01*
X008777Y020758D01*
X008753Y020667D01*
Y020573D01*
X008777Y020482D01*
X008824Y020401D01*
X008891Y020335D01*
X008972Y020288D01*
X009063Y020263D01*
X009157D01*
X009248Y020288D01*
X009329Y020335D01*
X009395Y020401D01*
X009442Y020482D01*
X009467Y020573D01*
Y020667D01*
X009442Y020758D01*
X009395Y020839D01*
X009329Y020906D01*
X009248Y020953D01*
X009157Y020977D01*
D02*
G37*
G36*
X015946Y0202D02*
X015874D01*
X015808Y020173D01*
X015757Y020122D01*
X01573Y020056D01*
Y019984D01*
X015757Y019918D01*
X015808Y019867D01*
X015874Y01984D01*
X015946D01*
X016012Y019867D01*
X016063Y019918D01*
X01609Y019984D01*
Y020056D01*
X016063Y020122D01*
X016012Y020173D01*
X015946Y0202D01*
D02*
G37*
G36*
X011996Y020442D02*
X011924D01*
X011858Y020414D01*
X011807Y020364D01*
X01178Y020297D01*
Y020226D01*
X011797Y020185D01*
Y020097D01*
X01178Y020056D01*
Y019984D01*
X011807Y019918D01*
X011858Y019867D01*
X011924Y01984D01*
X011996D01*
X012062Y019867D01*
X012099Y019904D01*
X012352D01*
X012368Y019907D01*
X012627D01*
Y020342D01*
X012192D01*
Y02023D01*
X01214D01*
Y020297D01*
X012113Y020364D01*
X012062Y020414D01*
X011996Y020442D01*
D02*
G37*
G36*
X007362Y020037D02*
X007006D01*
Y019715D01*
X007003Y019699D01*
Y019444D01*
X006942Y019383D01*
X006639D01*
X006617Y019405D01*
Y019699D01*
X006614Y019715D01*
Y020037D01*
X006258D01*
Y019684D01*
X006123D01*
Y019764D01*
X005334D01*
Y019348D01*
X005286Y019334D01*
X005278Y019346D01*
X005193Y019431D01*
X005093Y019498D01*
X004982Y019544D01*
X004864Y019567D01*
X004743D01*
X004625Y019544D01*
X004514Y019498D01*
X004414Y019431D01*
X004329Y019346D01*
X004262Y019245D01*
X004216Y019134D01*
X004192Y019016D01*
Y018896D01*
X004216Y018778D01*
X004262Y018666D01*
X004329Y018566D01*
X004414Y018481D01*
X004514Y018414D01*
X004625Y018368D01*
X004743Y018345D01*
X004864D01*
X004982Y018368D01*
X005093Y018414D01*
X005193Y018481D01*
X005278Y018566D01*
X005286Y018578D01*
X005334Y018564D01*
Y018148D01*
X006123D01*
Y01878D01*
X005431D01*
X005399Y018818D01*
X005415Y018896D01*
Y019016D01*
X005399Y019093D01*
X005431Y019132D01*
X006123D01*
Y019256D01*
X00631D01*
X006315Y019257D01*
X006339Y019222D01*
X006456Y019105D01*
X006509Y019069D01*
X006571Y019057D01*
X00701D01*
X007072Y019069D01*
X007125Y019105D01*
X007281Y019261D01*
X007317Y019314D01*
X007329Y019376D01*
Y019397D01*
X007362D01*
Y020037D01*
D02*
G37*
G36*
X013307Y020441D02*
X012813D01*
Y020126D01*
X012781Y020093D01*
X012756Y020057D01*
X012748Y020014D01*
X012748Y020014D01*
Y019413D01*
X012707Y019372D01*
X01268Y019306D01*
Y019234D01*
X012707Y019168D01*
X012758Y019117D01*
X012824Y01909D01*
X012896D01*
X012962Y019117D01*
X013013Y019168D01*
X01304Y019234D01*
Y019306D01*
X013013Y019372D01*
X012972Y019413D01*
Y019968D01*
X012991Y019987D01*
X013307D01*
Y020441D01*
D02*
G37*
G36*
X018926Y019623D02*
X018794D01*
X018666Y019589D01*
X018551Y019522D01*
X018457Y019429D01*
X018391Y019314D01*
X018357Y019186D01*
Y019054D01*
X018391Y018926D01*
X018457Y018811D01*
X018551Y018718D01*
X018666Y018651D01*
X018794Y018617D01*
X018926D01*
X019054Y018651D01*
X019169Y018718D01*
X019262Y018811D01*
X019329Y018926D01*
X019363Y019054D01*
Y019186D01*
X019329Y019314D01*
X019262Y019429D01*
X019169Y019522D01*
X019054Y019589D01*
X018926Y019623D01*
D02*
G37*
G36*
X013996Y01925D02*
X013924D01*
X013858Y019223D01*
X013807Y019172D01*
X01378Y019106D01*
Y019034D01*
X013807Y018968D01*
X013848Y018928D01*
Y018657D01*
X013779Y018588D01*
X013759D01*
X013693Y018561D01*
X013642Y01851D01*
X013615Y018444D01*
Y018372D01*
X013642Y018306D01*
X013693Y018255D01*
X013759Y018228D01*
X013831D01*
X013897Y018255D01*
X013948Y018306D01*
X013975Y018372D01*
Y018444D01*
X013968Y018461D01*
X014039Y018532D01*
X014064Y018568D01*
X014072Y018611D01*
X014072Y018611D01*
Y018928D01*
X014113Y018968D01*
X01414Y019034D01*
Y019106D01*
X014113Y019172D01*
X014062Y019223D01*
X013996Y01925D01*
D02*
G37*
G36*
X006123Y017992D02*
X005334D01*
Y017576D01*
X005286Y017562D01*
X005278Y017574D01*
X005193Y017659D01*
X005093Y017726D01*
X004982Y017772D01*
X004864Y017795D01*
X004743D01*
X004625Y017772D01*
X004514Y017726D01*
X004414Y017659D01*
X004329Y017574D01*
X004262Y017474D01*
X004216Y017363D01*
X004192Y017244D01*
Y017124D01*
X004216Y017006D01*
X004262Y016895D01*
X004329Y016795D01*
X004414Y01671D01*
X004514Y016643D01*
X004625Y016597D01*
X004743Y016573D01*
X004864D01*
X004982Y016597D01*
X005093Y016643D01*
X005193Y01671D01*
X005278Y016795D01*
X005345Y016895D01*
X005391Y017006D01*
X005415Y017124D01*
Y017244D01*
X005399Y017322D01*
X005431Y01736D01*
X006123D01*
Y017992D01*
D02*
G37*
G36*
X008746Y0175D02*
X008674D01*
X008608Y017473D01*
X008585Y01745D01*
X008562Y017473D01*
X008496Y0175D01*
X008424D01*
X008358Y017473D01*
X008307Y017422D01*
X00828Y017356D01*
Y017284D01*
X008307Y017218D01*
X00833Y017195D01*
X008307Y017172D01*
X00828Y017106D01*
Y017034D01*
X008307Y016968D01*
X008358Y016917D01*
X008424Y01689D01*
X008496D01*
X008562Y016917D01*
X008585Y01694D01*
X008608Y016917D01*
X008674Y01689D01*
X008746D01*
X008812Y016917D01*
X008863Y016968D01*
X00889Y017034D01*
Y017106D01*
X008863Y017172D01*
X00884Y017195D01*
X008863Y017218D01*
X00889Y017284D01*
Y017356D01*
X008863Y017422D01*
X008812Y017473D01*
X008746Y0175D01*
D02*
G37*
G36*
X011571Y017933D02*
X011277Y017639D01*
X011324Y017592D01*
X010757Y017026D01*
X010733Y01699D01*
X010732Y016983D01*
X010708Y016973D01*
X010657Y016922D01*
X01063Y016856D01*
Y016784D01*
X010657Y016718D01*
X010708Y016667D01*
X010774Y01664D01*
X010846D01*
X010912Y016667D01*
X010963Y016718D01*
X01099Y016784D01*
Y016856D01*
X010965Y016916D01*
X011482Y017434D01*
X011529Y017387D01*
X011823Y017681D01*
X011571Y017933D01*
D02*
G37*
G36*
X010157Y019977D02*
X010063D01*
X009972Y019953D01*
X009891Y019906D01*
X009824Y019839D01*
X009777Y019758D01*
X009753Y019667D01*
Y019573D01*
X009777Y019482D01*
X009824Y019401D01*
X009891Y019335D01*
X009972Y019288D01*
X010063Y019263D01*
X010157D01*
X010248Y019288D01*
X010271Y019301D01*
X010448Y019124D01*
Y017663D01*
X010407Y017622D01*
X01038Y017556D01*
Y017484D01*
X010407Y017418D01*
X010458Y017367D01*
X010524Y01734D01*
X010596D01*
X010662Y017367D01*
X010713Y017418D01*
X01074Y017484D01*
Y017556D01*
X010713Y017622D01*
X010672Y017663D01*
Y01917D01*
X010672Y01917D01*
X010664Y019213D01*
X010639Y019249D01*
X010639Y019249D01*
X010429Y019459D01*
X010442Y019482D01*
X010467Y019573D01*
Y019667D01*
X010442Y019758D01*
X010395Y019839D01*
X010329Y019906D01*
X010248Y019953D01*
X010157Y019977D01*
D02*
G37*
G36*
X013896Y0177D02*
X013824D01*
X013758Y017673D01*
X013707Y017622D01*
X01368Y017556D01*
Y017484D01*
X013707Y017418D01*
X013755Y01737D01*
X013707Y017322D01*
X01368Y017256D01*
Y017184D01*
X013707Y017118D01*
X013758Y017067D01*
X013824Y01704D01*
X013896D01*
X013962Y017067D01*
X014013Y017118D01*
X01404Y017184D01*
Y017256D01*
X014013Y017322D01*
X013965Y01737D01*
X014013Y017418D01*
X01404Y017484D01*
Y017556D01*
X014013Y017622D01*
X013962Y017673D01*
X013896Y0177D01*
D02*
G37*
G36*
X009467Y019977D02*
X008753D01*
Y019263D01*
X009308D01*
X009648Y018924D01*
Y017363D01*
X009607Y017322D01*
X00958Y017256D01*
Y017184D01*
X009607Y017118D01*
X009658Y017067D01*
X009724Y01704D01*
X009796D01*
X009862Y017067D01*
X009913Y017118D01*
X00994Y017184D01*
Y017256D01*
X009913Y017322D01*
X009872Y017363D01*
Y01897D01*
X009872Y01897D01*
X009864Y019013D01*
X009839Y019049D01*
X009839Y019049D01*
X009467Y019422D01*
Y019977D01*
D02*
G37*
G36*
X008019Y017173D02*
X007947D01*
X007881Y017146D01*
X00783Y017095D01*
X007803Y017029D01*
Y016957D01*
X00783Y016891D01*
X007881Y016841D01*
X007947Y016813D01*
X008019D01*
X008085Y016841D01*
X008136Y016891D01*
X008163Y016957D01*
Y017029D01*
X008136Y017095D01*
X008085Y017146D01*
X008019Y017173D01*
D02*
G37*
G36*
X012093Y017517D02*
X011842Y017265D01*
X012392Y016715D01*
Y016646D01*
X01242Y01658D01*
X01247Y01653D01*
X012536Y016502D01*
X012608D01*
X012674Y01653D01*
X012725Y01658D01*
X012752Y016646D01*
Y016718D01*
X012725Y016784D01*
X012692Y016817D01*
X012684Y016881D01*
X012707Y016904D01*
X012093Y017517D01*
D02*
G37*
G36*
X011565Y016988D02*
X011313Y016737D01*
X011926Y016123D01*
X011965Y016162D01*
X011995Y016156D01*
X012046Y016105D01*
X012112Y016078D01*
X012183D01*
X01225Y016105D01*
X0123Y016156D01*
X012328Y016222D01*
Y016294D01*
X0123Y01636D01*
X01225Y01641D01*
X012183Y016438D01*
X012115D01*
X011565Y016988D01*
D02*
G37*
G36*
X013596Y0164D02*
X013524D01*
X013458Y016373D01*
X013407Y016322D01*
X01338Y016256D01*
Y016184D01*
X013406Y01612D01*
X01338Y016056D01*
Y015984D01*
X013407Y015918D01*
X013458Y015867D01*
X013524Y01584D01*
X013596D01*
X013662Y015867D01*
X013713Y015918D01*
X01374Y015984D01*
Y016056D01*
X013713Y01612D01*
X01374Y016184D01*
Y016256D01*
X013713Y016322D01*
X013662Y016373D01*
X013596Y0164D01*
D02*
G37*
G36*
X009796Y01655D02*
X009724D01*
X009658Y016523D01*
X009617Y016482D01*
X00901D01*
X008967Y016474D01*
X008931Y016449D01*
X008931Y016449D01*
X008631Y01615D01*
X008574D01*
X008508Y016123D01*
X008457Y016072D01*
X00843Y016006D01*
Y015934D01*
X008457Y015868D01*
X008493Y015832D01*
X008472Y015782D01*
X008206D01*
X007839Y016149D01*
X007803Y016174D01*
X00776Y016182D01*
X00776Y016182D01*
X005652D01*
X005612Y016223D01*
X005546Y01625D01*
X005474D01*
X005408Y016223D01*
X005357Y016172D01*
X00533Y016106D01*
Y016034D01*
X005357Y015968D01*
X005408Y015917D01*
X005474Y01589D01*
X005546D01*
X005612Y015917D01*
X005652Y015958D01*
X007713D01*
X008081Y015591D01*
X008081Y015591D01*
X008117Y015566D01*
X00816Y015558D01*
X009225D01*
X009225Y015558D01*
X009268Y015566D01*
X009305Y015591D01*
X009504Y01579D01*
X009561D01*
X009627Y015817D01*
X009668Y015858D01*
X009708Y015817D01*
X009774Y01579D01*
X009846D01*
X009912Y015817D01*
X009963Y015868D01*
X00999Y015934D01*
Y016006D01*
X009963Y016072D01*
X009912Y016123D01*
X009846Y01615D01*
X00983D01*
X00982Y0162D01*
X009862Y016217D01*
X009913Y016268D01*
X00994Y016334D01*
Y016406D01*
X009913Y016472D01*
X009862Y016523D01*
X009796Y01655D01*
D02*
G37*
G36*
X024476Y014267D02*
X024405D01*
X024339Y01424D01*
X024316Y014217D01*
X024293Y01424D01*
X024226Y014267D01*
X024155D01*
X024089Y01424D01*
X024038Y014189D01*
X02401Y014123D01*
Y014051D01*
X024038Y013985D01*
X02407Y013953D01*
X024038Y013922D01*
X02401Y013855D01*
Y013784D01*
X024038Y013718D01*
X024089Y013667D01*
X024155Y01364D01*
X024226D01*
X024293Y013667D01*
X024324Y013699D01*
X024339Y013684D01*
X024405Y013657D01*
X024476D01*
X024543Y013684D01*
X024593Y013735D01*
X024621Y013801D01*
Y013873D01*
X024593Y013939D01*
X02457Y013962D01*
X024593Y013985D01*
X024621Y014051D01*
Y014123D01*
X024593Y014189D01*
X024543Y01424D01*
X024476Y014267D01*
D02*
G37*
G36*
X021762Y014112D02*
X021307D01*
Y013618D01*
X021352D01*
Y013432D01*
X021278D01*
Y012997D01*
X021713D01*
Y013432D01*
X021678D01*
Y013618D01*
X021762D01*
Y014112D01*
D02*
G37*
G36*
X022303Y013432D02*
X021868D01*
Y012997D01*
X021927D01*
Y012814D01*
X02191Y012773D01*
Y012701D01*
X021938Y012635D01*
X021989Y012584D01*
X022055Y012557D01*
X022126D01*
X022193Y012584D01*
X022243Y012635D01*
X022271Y012701D01*
Y012773D01*
X022254Y012814D01*
Y012997D01*
X022303D01*
Y013432D01*
D02*
G37*
G36*
X026238Y013244D02*
X026144D01*
X026053Y01322D01*
X025971Y013173D01*
X025905Y013106D01*
X025858Y013025D01*
X025834Y012934D01*
Y01284D01*
X025858Y012749D01*
X025905Y012668D01*
X025971Y012601D01*
X026053Y012554D01*
X026144Y01253D01*
X026238D01*
X026328Y012554D01*
X02641Y012601D01*
X026476Y012668D01*
X026523Y012749D01*
X026547Y01284D01*
Y012934D01*
X026523Y013025D01*
X026476Y013106D01*
X02641Y013173D01*
X026328Y01322D01*
X026238Y013244D01*
D02*
G37*
G36*
X028408Y0124D02*
X027973D01*
Y011965D01*
X028408D01*
Y01207D01*
X028644D01*
Y011916D01*
X029138D01*
Y01237D01*
X028644D01*
Y012294D01*
X028408D01*
Y0124D01*
D02*
G37*
G36*
X030126Y011817D02*
X030055D01*
X029989Y01179D01*
X029938Y011739D01*
X02991Y011673D01*
Y011601D01*
X029938Y011535D01*
X029961Y011512D01*
X029938Y011489D01*
X02991Y011423D01*
Y011351D01*
X029938Y011285D01*
X029989Y011234D01*
X030055Y011207D01*
X030126D01*
X030193Y011234D01*
X030243Y011285D01*
X030271Y011351D01*
Y011423D01*
X030243Y011489D01*
X03022Y011512D01*
X030243Y011535D01*
X030271Y011601D01*
Y011673D01*
X030243Y011739D01*
X030193Y01179D01*
X030126Y011817D01*
D02*
G37*
G36*
X031376Y011117D02*
X031305D01*
X031239Y01109D01*
X031216Y011067D01*
X031193Y01109D01*
X031126Y011117D01*
X031055D01*
X030989Y01109D01*
X030938Y011039D01*
X03091Y010973D01*
Y010901D01*
X030938Y010835D01*
X030989Y010784D01*
X031055Y010757D01*
X031126D01*
X031193Y010784D01*
X031216Y010807D01*
X031239Y010784D01*
X031305Y010757D01*
X031376D01*
X031443Y010784D01*
X031493Y010835D01*
X031521Y010901D01*
Y010973D01*
X031493Y011039D01*
X031443Y01109D01*
X031376Y011117D01*
D02*
G37*
G36*
X029138Y011858D02*
X028644D01*
Y011449D01*
X028132Y010937D01*
X028131Y010937D01*
X028091Y010966D01*
X028105Y011037D01*
X028088Y011119D01*
X028061Y01116D01*
X028276Y011374D01*
X028408D01*
Y011809D01*
X027973D01*
Y011677D01*
X027536Y01124D01*
X027509Y011235D01*
X027439Y011188D01*
X027393Y011119D01*
X027376Y011037D01*
X027393Y010955D01*
X027439Y010886D01*
X027509Y010839D01*
X027591Y010823D01*
X027891D01*
X027961Y010837D01*
X02799Y010797D01*
X027991Y010796D01*
X027662Y010467D01*
X027605D01*
X027539Y01044D01*
X027488Y010389D01*
X02746Y010323D01*
Y010251D01*
X027488Y010185D01*
X027539Y010134D01*
X027605Y010107D01*
X027676D01*
X027743Y010134D01*
X027793Y010185D01*
X027821Y010251D01*
Y010308D01*
X028916Y011404D01*
X029138D01*
Y011858D01*
D02*
G37*
G36*
X022754Y011109D02*
X021965D01*
Y010693D01*
X021917Y010678D01*
X021909Y01069D01*
X021824Y010775D01*
X021724Y010842D01*
X021613Y010888D01*
X021494Y010912D01*
X021374D01*
X021256Y010888D01*
X021145Y010842D01*
X021045Y010775D01*
X02096Y01069D01*
X020893Y01059D01*
X020847Y010479D01*
X020823Y010361D01*
Y010241D01*
X020847Y010122D01*
X020893Y010011D01*
X02096Y009911D01*
X021045Y009826D01*
X021145Y009759D01*
X021256Y009713D01*
X021374Y00969D01*
X021494D01*
X021613Y009713D01*
X021724Y009759D01*
X021824Y009826D01*
X021909Y009911D01*
X021917Y009923D01*
X021965Y009909D01*
Y009493D01*
X022754D01*
Y010124D01*
X022062D01*
X02203Y010163D01*
X022045Y010241D01*
Y010361D01*
X02203Y010438D01*
X022062Y010477D01*
X022106D01*
X022155Y010457D01*
X022226D01*
X022275Y010477D01*
X022456D01*
X022505Y010457D01*
X022576D01*
X022625Y010477D01*
X022754D01*
Y011109D01*
D02*
G37*
G36*
X028976Y010217D02*
X028905D01*
X028839Y01019D01*
X028788Y010139D01*
X02876Y010073D01*
Y010001D01*
X028767Y009985D01*
X028711Y009928D01*
X028687Y009892D01*
X028678Y009849D01*
X028678Y009849D01*
Y00928D01*
X028638Y009239D01*
X02861Y009173D01*
Y009101D01*
X028638Y009035D01*
X028689Y008984D01*
X028755Y008957D01*
X028826D01*
X028893Y008984D01*
X028943Y009035D01*
X028971Y009101D01*
Y009173D01*
X028943Y009239D01*
X028903Y00928D01*
Y009803D01*
X028957Y009857D01*
X028976D01*
X029043Y009884D01*
X029093Y009935D01*
X029121Y010001D01*
Y010073D01*
X029093Y010139D01*
X029043Y01019D01*
X028976Y010217D01*
D02*
G37*
G36*
X022754Y009337D02*
X021965D01*
Y008921D01*
X021917Y008907D01*
X021909Y008919D01*
X021824Y009004D01*
X021724Y009071D01*
X021613Y009117D01*
X021494Y00914D01*
X021374D01*
X021256Y009117D01*
X021145Y009071D01*
X021045Y009004D01*
X02096Y008919D01*
X020893Y008819D01*
X020847Y008707D01*
X020823Y008589D01*
Y008469D01*
X020847Y008351D01*
X020893Y00824D01*
X02096Y008139D01*
X021045Y008054D01*
X021145Y007987D01*
X021256Y007941D01*
X021374Y007918D01*
X021494D01*
X021613Y007941D01*
X021724Y007987D01*
X021824Y008054D01*
X021909Y008139D01*
X021976Y00824D01*
X022022Y008351D01*
X022045Y008469D01*
Y008589D01*
X02203Y008667D01*
X022062Y008705D01*
X022754D01*
Y009337D01*
D02*
G37*
G36*
X024226Y008817D02*
X024155D01*
X024089Y00879D01*
X024066Y008767D01*
X024043Y00879D01*
X023976Y008817D01*
X023905D01*
X023839Y00879D01*
X023788Y008739D01*
X02376Y008673D01*
Y008601D01*
X023788Y008535D01*
X023811Y008512D01*
X023788Y008489D01*
X02376Y008423D01*
Y008351D01*
X023788Y008285D01*
X023839Y008234D01*
X023905Y008207D01*
X023976D01*
X024043Y008234D01*
X024066Y008257D01*
X024089Y008234D01*
X024155Y008207D01*
X024226D01*
X024293Y008234D01*
X024343Y008285D01*
X024371Y008351D01*
Y008423D01*
X024343Y008489D01*
X02432Y008512D01*
X024343Y008535D01*
X024371Y008601D01*
Y008673D01*
X024343Y008739D01*
X024293Y00879D01*
X024226Y008817D01*
D02*
G37*
G36*
X027238Y012244D02*
X027144D01*
X027053Y01222D01*
X026971Y012173D01*
X026905Y012106D01*
X026858Y012025D01*
X026834Y011934D01*
Y01184D01*
X026858Y011749D01*
X026905Y011668D01*
X026971Y011601D01*
X027053Y011554D01*
X027078Y011548D01*
Y010083D01*
X025812Y008817D01*
X025755D01*
X025689Y00879D01*
X025638Y008739D01*
X02561Y008673D01*
Y008601D01*
X025638Y008535D01*
X025689Y008484D01*
X025755Y008457D01*
X025826D01*
X025893Y008484D01*
X025943Y008535D01*
X025971Y008601D01*
Y008658D01*
X02727Y009958D01*
X027294Y009994D01*
X027303Y010037D01*
X027303Y010037D01*
Y011548D01*
X027328Y011554D01*
X02741Y011601D01*
X027476Y011668D01*
X027523Y011749D01*
X027547Y01184D01*
Y011934D01*
X027523Y012025D01*
X027476Y012106D01*
X02741Y012173D01*
X027328Y01222D01*
X027238Y012244D01*
D02*
G37*
G36*
X028976Y008417D02*
X028905D01*
X028839Y00839D01*
X028788Y008339D01*
X02876Y008273D01*
Y008267D01*
X028705D01*
X028639Y00824D01*
X028593Y008194D01*
X026983D01*
X026774Y008403D01*
X026424Y008054D01*
X026746Y007733D01*
X026956Y007942D01*
X026964Y007941D01*
X02698Y007886D01*
X026786Y007692D01*
X027108Y007371D01*
X027228Y007491D01*
X02731Y007408D01*
Y007351D01*
X027338Y007285D01*
X027389Y007234D01*
X027455Y007207D01*
X027526D01*
X027593Y007234D01*
X027643Y007285D01*
X027671Y007351D01*
Y007423D01*
X027643Y007489D01*
X027593Y00754D01*
X027526Y007567D01*
X027469D01*
X027387Y00765D01*
X027457Y00772D01*
X027253Y007924D01*
X027272Y00797D01*
X028603D01*
X028639Y007934D01*
X028705Y007907D01*
X02871D01*
Y007851D01*
X028738Y007785D01*
X028789Y007734D01*
X028855Y007707D01*
X028926D01*
X028993Y007734D01*
X029043Y007785D01*
X029071Y007851D01*
Y007923D01*
X029043Y007989D01*
X029014Y008018D01*
X029024Y008077D01*
X029043Y008084D01*
X029093Y008135D01*
X029121Y008201D01*
Y008273D01*
X029093Y008339D01*
X029043Y00839D01*
X028976Y008417D01*
D02*
G37*
G36*
X026547Y012244D02*
X025834D01*
Y01153D01*
X026078D01*
Y010379D01*
X025161Y009462D01*
X025137Y009425D01*
X025128Y009383D01*
X025128Y009383D01*
Y00823D01*
X025088Y008189D01*
X02506Y008123D01*
Y008051D01*
X025088Y007985D01*
X025139Y007934D01*
X025205Y007907D01*
X025276D01*
X025343Y007934D01*
X025393Y007985D01*
X025421Y008051D01*
Y008123D01*
X025393Y008189D01*
X025353Y00823D01*
Y009336D01*
X02627Y010253D01*
X02627Y010253D01*
X026294Y01029D01*
X026303Y010333D01*
X026303Y010333D01*
Y01153D01*
X026547D01*
Y012244D01*
D02*
G37*
G36*
X025076Y006967D02*
X025005D01*
X024939Y00694D01*
X024888Y006889D01*
X02486Y006823D01*
Y006751D01*
X024864Y006744D01*
X024587Y006467D01*
X024555D01*
X024489Y00644D01*
X024438Y006389D01*
X02441Y006323D01*
Y006251D01*
X024438Y006185D01*
X024489Y006134D01*
X024555Y006107D01*
X024626D01*
X024693Y006134D01*
X024743Y006185D01*
X024771Y006251D01*
Y006323D01*
X024768Y00633D01*
X025044Y006607D01*
X025076D01*
X025143Y006634D01*
X025193Y006685D01*
X025221Y006751D01*
Y006823D01*
X025193Y006889D01*
X025143Y00694D01*
X025076Y006967D01*
D02*
G37*
G36*
X024676Y005967D02*
X024605D01*
X024539Y00594D01*
X024488Y005889D01*
X02446Y005823D01*
Y005751D01*
X024488Y005685D01*
X024539Y005634D01*
X024605Y005607D01*
X024676D01*
X024743Y005634D01*
X024793Y005685D01*
X024821Y005751D01*
Y005823D01*
X024793Y005889D01*
X024743Y00594D01*
X024676Y005967D01*
D02*
G37*
G36*
X026926Y005642D02*
X026855D01*
X026789Y005615D01*
X026738Y005564D01*
X02671Y005498D01*
Y005467D01*
X026705D01*
X026639Y00544D01*
X026588Y005389D01*
X02656Y005323D01*
Y005251D01*
X026588Y005185D01*
X026639Y005134D01*
X026705Y005107D01*
X026776D01*
X026843Y005134D01*
X026893Y005185D01*
X026921Y005251D01*
Y005282D01*
X026926D01*
X026993Y005309D01*
X027043Y00536D01*
X027071Y005426D01*
Y005498D01*
X027043Y005564D01*
X026993Y005615D01*
X026926Y005642D01*
D02*
G37*
G36*
X007823Y014267D02*
X007751D01*
X007685Y01424D01*
X007662Y014217D01*
X007639Y01424D01*
X007573Y014267D01*
X007501D01*
X007435Y01424D01*
X007384Y014189D01*
X007357Y014123D01*
Y014051D01*
X007384Y013985D01*
X007416Y013953D01*
X007384Y013922D01*
X007357Y013855D01*
Y013784D01*
X007384Y013718D01*
X007435Y013667D01*
X007501Y01364D01*
X007573D01*
X007639Y013667D01*
X007671Y013699D01*
X007685Y013684D01*
X007751Y013657D01*
X007823D01*
X007889Y013684D01*
X00794Y013735D01*
X007967Y013801D01*
Y013873D01*
X00794Y013939D01*
X007917Y013962D01*
X00794Y013985D01*
X007967Y014051D01*
Y014123D01*
X00794Y014189D01*
X007889Y01424D01*
X007823Y014267D01*
D02*
G37*
G36*
X005108Y014112D02*
X004654D01*
Y013618D01*
X004698D01*
Y013432D01*
X004624D01*
Y012997D01*
X005059D01*
Y013432D01*
X005025D01*
Y013618D01*
X005108D01*
Y014112D01*
D02*
G37*
G36*
X00565Y013432D02*
X005215D01*
Y012997D01*
X005274D01*
Y012814D01*
X005257Y012773D01*
Y012701D01*
X005284Y012635D01*
X005335Y012584D01*
X005401Y012557D01*
X005473D01*
X005539Y012584D01*
X00559Y012635D01*
X005617Y012701D01*
Y012773D01*
X0056Y012814D01*
Y012997D01*
X00565D01*
Y013432D01*
D02*
G37*
G36*
X009584Y013244D02*
X00949D01*
X009399Y01322D01*
X009318Y013173D01*
X009251Y013106D01*
X009204Y013025D01*
X00918Y012934D01*
Y01284D01*
X009204Y012749D01*
X009251Y012668D01*
X009318Y012601D01*
X009399Y012554D01*
X00949Y01253D01*
X009584D01*
X009675Y012554D01*
X009756Y012601D01*
X009823Y012668D01*
X00987Y012749D01*
X009894Y01284D01*
Y012934D01*
X00987Y013025D01*
X009823Y013106D01*
X009756Y013173D01*
X009675Y01322D01*
X009584Y013244D01*
D02*
G37*
G36*
X011754Y0124D02*
X01132D01*
Y011965D01*
X011754D01*
Y01207D01*
X01199D01*
Y011916D01*
X012484D01*
Y01237D01*
X01199D01*
Y012294D01*
X011754D01*
Y0124D01*
D02*
G37*
G36*
X013473Y011817D02*
X013401D01*
X013335Y01179D01*
X013284Y011739D01*
X013257Y011673D01*
Y011601D01*
X013284Y011535D01*
X013307Y011512D01*
X013284Y011489D01*
X013257Y011423D01*
Y011351D01*
X013284Y011285D01*
X013335Y011234D01*
X013401Y011207D01*
X013473D01*
X013539Y011234D01*
X01359Y011285D01*
X013617Y011351D01*
Y011423D01*
X01359Y011489D01*
X013567Y011512D01*
X01359Y011535D01*
X013617Y011601D01*
Y011673D01*
X01359Y011739D01*
X013539Y01179D01*
X013473Y011817D01*
D02*
G37*
G36*
X014723Y011117D02*
X014651D01*
X014585Y01109D01*
X014562Y011067D01*
X014539Y01109D01*
X014473Y011117D01*
X014401D01*
X014335Y01109D01*
X014284Y011039D01*
X014257Y010973D01*
Y010901D01*
X014284Y010835D01*
X014335Y010784D01*
X014401Y010757D01*
X014473D01*
X014539Y010784D01*
X014562Y010807D01*
X014585Y010784D01*
X014651Y010757D01*
X014723D01*
X014789Y010784D01*
X01484Y010835D01*
X014867Y010901D01*
Y010973D01*
X01484Y011039D01*
X014789Y01109D01*
X014723Y011117D01*
D02*
G37*
G36*
X012484Y011858D02*
X01199D01*
Y011449D01*
X011478Y010937D01*
X011477Y010937D01*
X011437Y010966D01*
X011451Y011037D01*
X011435Y011119D01*
X011408Y01116D01*
X011622Y011374D01*
X011754D01*
Y011809D01*
X01132D01*
Y011677D01*
X010883Y01124D01*
X010855Y011235D01*
X010786Y011188D01*
X010739Y011119D01*
X010723Y011037D01*
X010739Y010955D01*
X010786Y010886D01*
X010855Y010839D01*
X010937Y010823D01*
X011237D01*
X011308Y010837D01*
X011337Y010797D01*
X011337Y010796D01*
X011008Y010467D01*
X010951D01*
X010885Y01044D01*
X010834Y010389D01*
X010807Y010323D01*
Y010251D01*
X010834Y010185D01*
X010885Y010134D01*
X010951Y010107D01*
X011023D01*
X011089Y010134D01*
X01114Y010185D01*
X011167Y010251D01*
Y010308D01*
X012262Y011404D01*
X012484D01*
Y011858D01*
D02*
G37*
G36*
X006101Y011109D02*
X005311D01*
Y010693D01*
X005263Y010678D01*
X005255Y01069D01*
X00517Y010775D01*
X00507Y010842D01*
X004959Y010888D01*
X004841Y010912D01*
X004721D01*
X004602Y010888D01*
X004491Y010842D01*
X004391Y010775D01*
X004306Y01069D01*
X004239Y01059D01*
X004193Y010479D01*
X00417Y010361D01*
Y010241D01*
X004193Y010122D01*
X004239Y010011D01*
X004306Y009911D01*
X004391Y009826D01*
X004491Y009759D01*
X004602Y009713D01*
X004721Y00969D01*
X004841D01*
X004959Y009713D01*
X00507Y009759D01*
X00517Y009826D01*
X005255Y009911D01*
X005263Y009923D01*
X005311Y009909D01*
Y009493D01*
X006101D01*
Y010124D01*
X005408D01*
X005377Y010163D01*
X005392Y010241D01*
Y010361D01*
X005377Y010438D01*
X005408Y010477D01*
X005453D01*
X005501Y010457D01*
X005573D01*
X005621Y010477D01*
X005803D01*
X005851Y010457D01*
X005923D01*
X005971Y010477D01*
X006101D01*
Y011109D01*
D02*
G37*
G36*
X012323Y010217D02*
X012251D01*
X012185Y01019D01*
X012134Y010139D01*
X012107Y010073D01*
Y010001D01*
X012114Y009985D01*
X012058Y009928D01*
X012033Y009892D01*
X012025Y009849D01*
X012025Y009849D01*
Y00928D01*
X011984Y009239D01*
X011957Y009173D01*
Y009101D01*
X011984Y009035D01*
X012035Y008984D01*
X012101Y008957D01*
X012173D01*
X012239Y008984D01*
X01229Y009035D01*
X012317Y009101D01*
Y009173D01*
X01229Y009239D01*
X012249Y00928D01*
Y009803D01*
X012303Y009857D01*
X012323D01*
X012389Y009884D01*
X01244Y009935D01*
X012467Y010001D01*
Y010073D01*
X01244Y010139D01*
X012389Y01019D01*
X012323Y010217D01*
D02*
G37*
G36*
X006101Y009337D02*
X005311D01*
Y008921D01*
X005263Y008907D01*
X005255Y008919D01*
X00517Y009004D01*
X00507Y009071D01*
X004959Y009117D01*
X004841Y00914D01*
X004721D01*
X004602Y009117D01*
X004491Y009071D01*
X004391Y009004D01*
X004306Y008919D01*
X004239Y008819D01*
X004193Y008707D01*
X00417Y008589D01*
Y008469D01*
X004193Y008351D01*
X004239Y00824D01*
X004306Y008139D01*
X004391Y008054D01*
X004491Y007987D01*
X004602Y007941D01*
X004721Y007918D01*
X004841D01*
X004959Y007941D01*
X00507Y007987D01*
X00517Y008054D01*
X005255Y008139D01*
X005322Y00824D01*
X005368Y008351D01*
X005392Y008469D01*
Y008589D01*
X005377Y008667D01*
X005408Y008705D01*
X006101D01*
Y009337D01*
D02*
G37*
G36*
X007573Y008817D02*
X007501D01*
X007435Y00879D01*
X007412Y008767D01*
X007389Y00879D01*
X007323Y008817D01*
X007251D01*
X007185Y00879D01*
X007134Y008739D01*
X007107Y008673D01*
Y008601D01*
X007134Y008535D01*
X007157Y008512D01*
X007134Y008489D01*
X007107Y008423D01*
Y008351D01*
X007134Y008285D01*
X007185Y008234D01*
X007251Y008207D01*
X007323D01*
X007389Y008234D01*
X007412Y008257D01*
X007435Y008234D01*
X007501Y008207D01*
X007573D01*
X007639Y008234D01*
X00769Y008285D01*
X007717Y008351D01*
Y008423D01*
X00769Y008489D01*
X007667Y008512D01*
X00769Y008535D01*
X007717Y008601D01*
Y008673D01*
X00769Y008739D01*
X007639Y00879D01*
X007573Y008817D01*
D02*
G37*
G36*
X010584Y012244D02*
X01049D01*
X010399Y01222D01*
X010318Y012173D01*
X010251Y012106D01*
X010204Y012025D01*
X01018Y011934D01*
Y01184D01*
X010204Y011749D01*
X010251Y011668D01*
X010318Y011601D01*
X010399Y011554D01*
X010425Y011548D01*
Y010083D01*
X009158Y008817D01*
X009101D01*
X009035Y00879D01*
X008984Y008739D01*
X008957Y008673D01*
Y008601D01*
X008984Y008535D01*
X009035Y008484D01*
X009101Y008457D01*
X009173D01*
X009239Y008484D01*
X00929Y008535D01*
X009317Y008601D01*
Y008658D01*
X010616Y009958D01*
X010641Y009994D01*
X010649Y010037D01*
X010649Y010037D01*
Y011548D01*
X010675Y011554D01*
X010756Y011601D01*
X010823Y011668D01*
X01087Y011749D01*
X010894Y01184D01*
Y011934D01*
X01087Y012025D01*
X010823Y012106D01*
X010756Y012173D01*
X010675Y01222D01*
X010584Y012244D01*
D02*
G37*
G36*
X012323Y008417D02*
X012251D01*
X012185Y00839D01*
X012134Y008339D01*
X012107Y008273D01*
Y008267D01*
X012051D01*
X011985Y00824D01*
X011939Y008194D01*
X010329D01*
X01012Y008403D01*
X009771Y008054D01*
X010092Y007733D01*
X010302Y007942D01*
X01031Y007941D01*
X010327Y007886D01*
X010133Y007692D01*
X010454Y007371D01*
X010574Y007491D01*
X010657Y007408D01*
Y007351D01*
X010684Y007285D01*
X010735Y007234D01*
X010801Y007207D01*
X010873D01*
X010939Y007234D01*
X01099Y007285D01*
X011017Y007351D01*
Y007423D01*
X01099Y007489D01*
X010939Y00754D01*
X010873Y007567D01*
X010816D01*
X010733Y00765D01*
X010803Y00772D01*
X0106Y007924D01*
X010619Y00797D01*
X01195D01*
X011985Y007934D01*
X012051Y007907D01*
X012057D01*
Y007851D01*
X012084Y007785D01*
X012135Y007734D01*
X012201Y007707D01*
X012273D01*
X012339Y007734D01*
X01239Y007785D01*
X012417Y007851D01*
Y007923D01*
X01239Y007989D01*
X01236Y008018D01*
X01237Y008077D01*
X012389Y008084D01*
X01244Y008135D01*
X012467Y008201D01*
Y008273D01*
X01244Y008339D01*
X012389Y00839D01*
X012323Y008417D01*
D02*
G37*
G36*
X009894Y012244D02*
X00918D01*
Y01153D01*
X009425D01*
Y010379D01*
X008508Y009462D01*
X008483Y009425D01*
X008475Y009383D01*
X008475Y009383D01*
Y00823D01*
X008434Y008189D01*
X008407Y008123D01*
Y008051D01*
X008434Y007985D01*
X008485Y007934D01*
X008551Y007907D01*
X008623D01*
X008689Y007934D01*
X00874Y007985D01*
X008767Y008051D01*
Y008123D01*
X00874Y008189D01*
X008699Y00823D01*
Y009336D01*
X009616Y010253D01*
X009616Y010253D01*
X009641Y01029D01*
X009649Y010333D01*
X009649Y010333D01*
Y01153D01*
X009894D01*
Y012244D01*
D02*
G37*
G36*
X008423Y006967D02*
X008351D01*
X008285Y00694D01*
X008234Y006889D01*
X008207Y006823D01*
Y006751D01*
X00821Y006744D01*
X007933Y006467D01*
X007901D01*
X007835Y00644D01*
X007784Y006389D01*
X007757Y006323D01*
Y006251D01*
X007784Y006185D01*
X007835Y006134D01*
X007901Y006107D01*
X007973D01*
X008039Y006134D01*
X00809Y006185D01*
X008117Y006251D01*
Y006323D01*
X008114Y00633D01*
X008391Y006607D01*
X008423D01*
X008489Y006634D01*
X00854Y006685D01*
X008567Y006751D01*
Y006823D01*
X00854Y006889D01*
X008489Y00694D01*
X008423Y006967D01*
D02*
G37*
G36*
X008023Y005967D02*
X007951D01*
X007885Y00594D01*
X007834Y005889D01*
X007807Y005823D01*
Y005751D01*
X007834Y005685D01*
X007885Y005634D01*
X007951Y005607D01*
X008023D01*
X008089Y005634D01*
X00814Y005685D01*
X008167Y005751D01*
Y005823D01*
X00814Y005889D01*
X008089Y00594D01*
X008023Y005967D01*
D02*
G37*
G36*
X010273Y005642D02*
X010201D01*
X010135Y005615D01*
X010084Y005564D01*
X010057Y005498D01*
Y005467D01*
X010051D01*
X009985Y00544D01*
X009934Y005389D01*
X009907Y005323D01*
Y005251D01*
X009934Y005185D01*
X009985Y005134D01*
X010051Y005107D01*
X010123D01*
X010189Y005134D01*
X01024Y005185D01*
X010267Y005251D01*
Y005282D01*
X010273D01*
X010339Y005309D01*
X01039Y00536D01*
X010417Y005426D01*
Y005498D01*
X01039Y005564D01*
X010339Y005615D01*
X010273Y005642D01*
D02*
G37*
%LPD*%
D21*
X012324Y023305D02*
D03*
X011795Y022776D02*
D03*
X028978Y023305D02*
D03*
X028449Y022776D02*
D03*
X012274Y017085D02*
D03*
X011745Y016556D02*
D03*
X028928Y017085D02*
D03*
X028399Y016556D02*
D03*
D22*
X01206Y023041D02*
D03*
X028713D02*
D03*
X01201Y01682D02*
D03*
X028663D02*
D03*
D25*
X028891Y012143D02*
D03*
Y011631D02*
D03*
X012237Y012143D02*
D03*
Y011631D02*
D03*
X01321Y026946D02*
D03*
Y026435D02*
D03*
X029863Y026946D02*
D03*
Y026435D02*
D03*
X01306Y020726D02*
D03*
Y020214D02*
D03*
X029713Y020726D02*
D03*
Y020214D02*
D03*
D34*
X007284Y026593D02*
D03*
X006536D02*
D03*
Y025688D02*
D03*
X00691D02*
D03*
X007284D02*
D03*
X023937Y026593D02*
D03*
X023189D02*
D03*
Y025688D02*
D03*
X023563D02*
D03*
X023937D02*
D03*
X007184Y020623D02*
D03*
X006436D02*
D03*
Y019717D02*
D03*
X00681D02*
D03*
X007184D02*
D03*
X023837Y020623D02*
D03*
X023089D02*
D03*
Y019717D02*
D03*
X023463D02*
D03*
X023837D02*
D03*
D35*
X00801Y026791D02*
D03*
Y025725D02*
D03*
X024663Y026791D02*
D03*
Y025725D02*
D03*
X00791Y020536D02*
D03*
Y019504D02*
D03*
X024563Y020536D02*
D03*
Y019504D02*
D03*
D36*
X023841Y014537D02*
X024141D01*
X024191Y014587D01*
X025091D01*
X025191Y014487D01*
X025391D01*
X023168Y013865D02*
X023841Y014537D01*
X026316Y013912D02*
X027044Y013184D01*
X025741Y014487D02*
X025841Y014587D01*
X026316Y014112D01*
Y013912D02*
Y014112D01*
X027636Y011037D02*
X028191Y011592D01*
X027636Y011037D02*
X027891D01*
X027591D02*
X027636D01*
X022541Y007887D02*
X023541Y006887D01*
X024541D01*
X025391Y014487D02*
X025741D01*
X027044Y013113D02*
X027191Y012966D01*
Y012887D02*
Y012966D01*
X027044Y013113D02*
Y013184D01*
X022046Y013865D02*
X023168D01*
X007187Y014537D02*
X007487D01*
X007537Y014587D01*
X008437D01*
X008537Y014487D01*
X008737D01*
X006515Y013865D02*
X007187Y014537D01*
X009662Y013912D02*
X01039Y013184D01*
X009087Y014487D02*
X009187Y014587D01*
X009662Y014112D01*
Y013912D02*
Y014112D01*
X010982Y011037D02*
X011537Y011592D01*
X010982Y011037D02*
X011237D01*
X010937D02*
X010982D01*
X005887Y007887D02*
X006887Y006887D01*
X007887D01*
X008737Y014487D02*
X009087D01*
X01039Y013113D02*
X010537Y012966D01*
Y012887D02*
Y012966D01*
X01039Y013113D02*
Y013184D01*
X005393Y013865D02*
X006515D01*
X01191Y026491D02*
X01201Y026591D01*
X01166Y026741D02*
X01201D01*
Y026591D02*
Y026741D01*
X01166D02*
X01191Y026491D01*
X012503Y026395D02*
X01256D01*
X012005D02*
X012503D01*
X01191Y026491D02*
X012005Y026395D01*
X028563Y026491D02*
X028663Y026591D01*
X028313Y026741D02*
X028663D01*
Y026591D02*
Y026741D01*
X028313D02*
X028563Y026491D01*
X029156Y026395D02*
X029213D01*
X028659D02*
X029156D01*
X028563Y026491D02*
X028659Y026395D01*
X00846Y019874D02*
Y020495D01*
X00791Y020424D02*
X00846Y019874D01*
Y01977D02*
Y019874D01*
X007866Y020579D02*
X00791Y020536D01*
X00846Y01942D02*
Y01977D01*
X00791Y020424D02*
Y020536D01*
X005751Y01947D02*
X00631D01*
X005729Y019448D02*
X005751Y01947D01*
X007184Y020611D02*
X007216Y020579D01*
X007866D01*
X025113Y019874D02*
Y020495D01*
X024563Y020424D02*
X025113Y019874D01*
Y01977D02*
Y019874D01*
X02452Y020579D02*
X024563Y020536D01*
X025113Y01942D02*
Y01977D01*
X024563Y020424D02*
Y020536D01*
X022404Y01947D02*
X022963D01*
X022382Y019448D02*
X022404Y01947D01*
X023837Y020611D02*
X023869Y020579D01*
X02452D01*
D37*
X006208Y021023D02*
X006984D01*
X006005Y02082D02*
X006208Y021023D01*
X006984D02*
X007141Y020866D01*
Y020666D02*
Y020866D01*
Y020666D02*
X007184Y020623D01*
X004117Y016763D02*
X00441Y01647D01*
X005428D02*
X005528Y01657D01*
X00556D01*
X00441Y01647D02*
X005428D01*
X004117Y016763D02*
Y02013D01*
X004254Y020267D01*
X007743Y019103D02*
Y019337D01*
X00791Y019504D01*
X00751Y01887D02*
X007743Y019103D01*
X00451Y02002D02*
X00606D01*
X00621Y02017D01*
X006944D01*
X006853Y01976D02*
Y019987D01*
X006856Y01999D01*
Y020082D01*
X00681Y019717D02*
X006853Y01976D01*
X006856Y020082D02*
X006944Y02017D01*
X00741D01*
X007743Y019837D01*
Y019671D02*
X00791Y019504D01*
X007743Y019671D02*
Y019837D01*
X004254Y020267D02*
Y02082D01*
Y020267D02*
X004501Y02002D01*
X00451D01*
X022862Y021023D02*
X023637D01*
X022659Y02082D02*
X022862Y021023D01*
X023637D02*
X023794Y020866D01*
Y020666D02*
Y020866D01*
Y020666D02*
X023837Y020623D01*
X020771Y016763D02*
X021063Y01647D01*
X022082D02*
X022182Y01657D01*
X022213D01*
X021063Y01647D02*
X022082D01*
X020771Y016763D02*
Y02013D01*
X020908Y020267D01*
X024396Y019103D02*
Y019337D01*
X024563Y019504D01*
X024163Y01887D02*
X024396Y019103D01*
X021163Y02002D02*
X022713D01*
X022863Y02017D01*
X023597D01*
X023507Y01976D02*
Y019987D01*
X023509Y01999D01*
Y020082D01*
X023463Y019717D02*
X023507Y01976D01*
X023509Y020082D02*
X023597Y02017D01*
X024063D01*
X024396Y019837D01*
Y019671D02*
X024563Y019504D01*
X024396Y019671D02*
Y019837D01*
X020908Y020267D02*
Y02082D01*
Y020267D02*
X021154Y02002D01*
X021163D01*
D38*
X021495Y013215D02*
X021515Y013235D01*
Y013845D02*
X021535Y013865D01*
X021515Y013235D02*
Y013845D01*
X022091Y012737D02*
Y01321D01*
X022086Y013215D02*
X022091Y01321D01*
X004842Y013215D02*
X004861Y013235D01*
Y013845D02*
X004881Y013865D01*
X004861Y013235D02*
Y013845D01*
X005437Y012737D02*
Y01321D01*
X005432Y013215D02*
X005437Y01321D01*
X008079Y026641D02*
X00851D01*
X008048D02*
X008079D01*
Y026672D01*
Y026609D02*
Y026641D01*
X007337D02*
X007868D01*
X007302D02*
X007337D01*
X008314Y026536D02*
X008502Y026348D01*
X006003Y027038D02*
X006008D01*
X008152Y026536D02*
X008314D01*
X008502Y026298D02*
X00851Y026291D01*
X008502Y026298D02*
Y026348D01*
X00801Y026783D02*
Y026791D01*
X007868Y026641D02*
X00801Y026783D01*
X008079Y026609D02*
X008152Y026536D01*
X00851Y026291D02*
Y026641D01*
Y025841D02*
Y026291D01*
X00801Y026678D02*
X008048Y026641D01*
X00851Y025441D02*
Y025841D01*
Y025391D02*
Y025441D01*
X007149Y025191D02*
X007266Y025308D01*
Y02567D01*
X006536Y025688D02*
X006554Y02567D01*
X006671Y025191D02*
X007149D01*
X006554Y025308D02*
X006671Y025191D01*
X006554Y025308D02*
Y02567D01*
X007284Y026593D02*
Y026664D01*
Y026493D02*
Y026593D01*
X005455Y026491D02*
X006003Y027038D01*
X00486Y026491D02*
X005455D01*
X006005Y027041D02*
X006055Y027091D01*
X007266Y02567D02*
X007284Y025688D01*
X00591Y025782D02*
Y025791D01*
X006005Y025688D02*
X006536D01*
X00591Y025782D02*
X006005Y025688D01*
X007266Y026682D02*
Y026973D01*
Y026682D02*
X007284Y026664D01*
X006055Y027091D02*
X007149D01*
X007266Y026973D01*
X004766Y027041D02*
X005415D01*
X024732Y026641D02*
X025163D01*
X024701D02*
X024732D01*
Y026672D01*
Y026609D02*
Y026641D01*
X02399D02*
X024521D01*
X023956D02*
X02399D01*
X024968Y026536D02*
X025156Y026348D01*
X022656Y027038D02*
X022661D01*
X024806Y026536D02*
X024968D01*
X025156Y026298D02*
X025163Y026291D01*
X025156Y026298D02*
Y026348D01*
X024663Y026783D02*
Y026791D01*
X024521Y026641D02*
X024663Y026783D01*
X024732Y026609D02*
X024806Y026536D01*
X025163Y026291D02*
Y026641D01*
Y025841D02*
Y026291D01*
X024663Y026678D02*
X024701Y026641D01*
X025163Y025441D02*
Y025841D01*
Y025391D02*
Y025441D01*
X023802Y025191D02*
X023919Y025308D01*
Y02567D01*
X023189Y025688D02*
X023208Y02567D01*
X023325Y025191D02*
X023802D01*
X023208Y025308D02*
X023325Y025191D01*
X023208Y025308D02*
Y02567D01*
X023937Y026593D02*
Y026664D01*
Y026493D02*
Y026593D01*
X022109Y026491D02*
X022656Y027038D01*
X021513Y026491D02*
X022109D01*
X022659Y027041D02*
X022709Y027091D01*
X023919Y02567D02*
X023937Y025688D01*
X022563Y025782D02*
Y025791D01*
X022658Y025688D02*
X023189D01*
X022563Y025782D02*
X022658Y025688D01*
X023919Y026682D02*
Y026973D01*
Y026682D02*
X023937Y026664D01*
X022709Y027091D02*
X023802D01*
X023919Y026973D01*
X021419Y027041D02*
X022068D01*
X01196Y02002D02*
Y020262D01*
X011971Y02002D02*
X012018Y020067D01*
X01196Y02002D02*
X011971D01*
X012352Y020067D02*
X01241Y020125D01*
X012018Y020067D02*
X012352D01*
X007166Y019376D02*
Y019699D01*
X007184Y019717D01*
X00701Y01922D02*
X007166Y019376D01*
X006571Y01922D02*
X00701D01*
X006454Y019337D02*
Y019699D01*
Y019337D02*
X006571Y01922D01*
X006436Y019717D02*
X006454Y019699D01*
X004766Y02082D02*
X005415D01*
X028613Y02002D02*
Y020262D01*
X028624Y02002D02*
X028672Y020067D01*
X028613Y02002D02*
X028624D01*
X029006Y020067D02*
X029063Y020125D01*
X028672Y020067D02*
X029006D01*
X023819Y019376D02*
Y019699D01*
X023837Y019717D01*
X023663Y01922D02*
X023819Y019376D01*
X023225Y01922D02*
X023663D01*
X023108Y019337D02*
Y019699D01*
Y019337D02*
X023225Y01922D01*
X023089Y019717D02*
X023108Y019699D01*
X021419Y02082D02*
X022068D01*
D39*
X024791Y009787D02*
X02482D01*
X024996Y009963D01*
X025117D01*
X024391Y009323D02*
Y009787D01*
X024591Y009087D02*
Y009123D01*
X024391Y009323D02*
X024591Y009123D01*
X025391Y010237D02*
Y013887D01*
X025117Y009963D02*
X025391Y010237D01*
Y013887D02*
Y014487D01*
X026941Y009287D02*
X02789D01*
X02864Y010037D01*
X030628Y008787D02*
X030678Y008837D01*
X030591Y008787D02*
X030628D01*
X030678Y008837D02*
X031441D01*
Y008875D01*
X031541Y008975D02*
Y009337D01*
X031441Y008875D02*
X031541Y008975D01*
X029061Y009317D02*
X029591Y008787D01*
X030591D01*
X026774Y008082D02*
X028735D01*
X02676Y008068D02*
X026774Y008082D01*
X028735D02*
X028741Y008087D01*
X026541Y008887D02*
X026941Y009287D01*
X024541Y006887D02*
X026541Y008887D01*
X028881D02*
X029061Y009067D01*
X026541Y008887D02*
X028881D01*
X029041Y009337D02*
X029061Y009317D01*
Y009067D02*
Y009317D01*
X028191Y012182D02*
X028851D01*
X028891Y012143D01*
X027641Y010287D02*
X028891Y011537D01*
X028791Y009137D02*
Y009849D01*
X028941Y009999D01*
Y010037D01*
X027171Y007706D02*
X027491Y007387D01*
X027122Y007706D02*
X027171D01*
X025041Y006762D02*
Y006787D01*
X024591Y006287D02*
Y006312D01*
X025041Y006762D01*
X025241Y008087D02*
Y009383D01*
X026191Y010333D01*
Y011887D01*
X027191Y010037D02*
Y011887D01*
X025791Y008637D02*
X027191Y010037D01*
X008137Y009787D02*
X008166D01*
X008343Y009963D01*
X008463D01*
X007737Y009323D02*
Y009787D01*
X007937Y009087D02*
Y009123D01*
X007737Y009323D02*
X007937Y009123D01*
X008737Y010237D02*
Y013887D01*
X008463Y009963D02*
X008737Y010237D01*
Y013887D02*
Y014487D01*
X010287Y009287D02*
X011237D01*
X011987Y010037D01*
X013975Y008787D02*
X014025Y008837D01*
X013937Y008787D02*
X013975D01*
X014025Y008837D02*
X014787D01*
Y008875D01*
X014887Y008975D02*
Y009337D01*
X014787Y008875D02*
X014887Y008975D01*
X012407Y009317D02*
X012937Y008787D01*
X013937D01*
X01012Y008082D02*
X012082D01*
X010106Y008068D02*
X01012Y008082D01*
X012082D02*
X012087Y008087D01*
X009887Y008887D02*
X010287Y009287D01*
X007887Y006887D02*
X009887Y008887D01*
X012227D02*
X012407Y009067D01*
X009887Y008887D02*
X012227D01*
X012387Y009337D02*
X012407Y009317D01*
Y009067D02*
Y009317D01*
X011537Y012182D02*
X012198D01*
X012237Y012143D01*
X010987Y010287D02*
X012237Y011537D01*
X012137Y009137D02*
Y009849D01*
X012287Y009999D01*
Y010037D01*
X010518Y007706D02*
X010837Y007387D01*
X010468Y007706D02*
X010518D01*
X008387Y006762D02*
Y006787D01*
X007937Y006287D02*
Y006312D01*
X008387Y006762D01*
X008587Y008087D02*
Y009383D01*
X009537Y010333D01*
Y011887D01*
X010537Y010037D02*
Y011887D01*
X009137Y008637D02*
X010537Y010037D01*
X01861Y024141D02*
Y024591D01*
X018635Y024866D02*
X01866Y024891D01*
X01861Y024591D02*
X018635Y024616D01*
Y024866D01*
X01861Y024141D02*
X01951D01*
X00911Y025791D02*
X009357Y025544D01*
Y025444D02*
X009943Y024857D01*
X009357Y025444D02*
Y025544D01*
X009937Y023467D02*
Y023592D01*
X009943Y023599D02*
Y024857D01*
X00991Y023441D02*
X009937Y023467D01*
Y023592D02*
X009943Y023599D01*
X01001Y022941D02*
X01101D01*
X00961Y023341D02*
X01001Y022941D01*
X00946Y023341D02*
X00961D01*
X01071Y023841D02*
Y025091D01*
X01821Y026291D02*
Y027191D01*
X01951Y024141D02*
X02026Y023391D01*
X01286Y025741D02*
Y026091D01*
X013073Y026304D01*
Y026317D01*
X01491Y022891D02*
Y023291D01*
X01581Y024191D01*
X01296Y023241D02*
X013296Y022904D01*
X014578D01*
X01361Y023891D02*
X01421Y024491D01*
X01211Y023891D02*
X01361D01*
X012235Y025166D02*
X013535D01*
X01196Y024891D02*
X012235Y025166D01*
X013535D02*
X01381Y025441D01*
X010254Y026634D02*
X01196Y024928D01*
X010254Y026634D02*
Y026746D01*
X01196Y024641D02*
X01211Y024491D01*
X01016Y026841D02*
X010254Y026746D01*
X01196Y024585D02*
Y024641D01*
Y024891D01*
X01211Y023891D02*
Y024491D01*
X01177Y024395D02*
X01196Y024585D01*
Y024891D02*
Y024928D01*
X01177Y024301D02*
Y024395D01*
X01391Y024541D02*
X01411Y024741D01*
Y025103D01*
X014122Y025116D01*
Y025478D01*
X00771Y025091D02*
X00946Y023341D01*
X00686Y023441D02*
X007922D01*
X008072Y023291D02*
X00811D01*
X007922Y023441D02*
X008072Y023291D01*
X013171Y026986D02*
X01321Y026946D01*
X01256Y026986D02*
X013171D01*
X013073Y026317D02*
X01319Y026435D01*
X01321D01*
X012503Y026395D02*
X01251Y026403D01*
X012452Y026345D02*
X012503Y026395D01*
X01071Y023241D02*
X01145Y02398D01*
X011106Y023025D02*
X011172Y023091D01*
X01101Y022941D02*
X011094Y023025D01*
X011106D01*
X011172Y023091D02*
X01121D01*
X009683Y022567D02*
X00971Y022541D01*
X009581Y022591D02*
X009604Y022567D01*
X00756Y022341D02*
X00781Y022591D01*
X009604Y022567D02*
X009683D01*
X00781Y022591D02*
X009581D01*
X00591Y022341D02*
X00756D01*
X01186Y021491D02*
X01436D01*
X01456Y021691D01*
X01161Y023491D02*
X01206Y023041D01*
X006536Y023765D02*
X00686Y023441D01*
X006536Y023765D02*
Y025688D01*
X00911Y022241D02*
X01016D01*
X005528Y022791D02*
X00556D01*
X005444Y022699D02*
Y022707D01*
X00451Y022641D02*
X005386D01*
X005444Y022707D02*
X005528Y022791D01*
X005386Y022641D02*
X005444Y022699D01*
X00411Y023041D02*
X00451Y022641D01*
X00411Y023041D02*
Y025691D01*
X00456Y026141D02*
X005994D01*
X00411Y025691D02*
X00456Y026141D01*
X01001Y025791D02*
X01071Y025091D01*
X01206Y023041D02*
X01241Y022691D01*
X012324Y023305D02*
X012324D01*
X012689Y022941D01*
X01271D01*
X011824Y022776D02*
X01216Y022441D01*
X011795Y022776D02*
X011824D01*
X004371Y026479D02*
X00461Y026241D01*
X004254Y027041D02*
X004371Y026923D01*
X005894Y026241D02*
X005994Y026141D01*
X004371Y026479D02*
Y026923D01*
X00461Y026241D02*
X005894D01*
X005994Y026141D02*
X006979D01*
X035263Y024141D02*
Y024591D01*
X035288Y024866D02*
X035313Y024891D01*
X035263Y024591D02*
X035288Y024616D01*
Y024866D01*
X035263Y024141D02*
X036163D01*
X025763Y025791D02*
X02601Y025544D01*
Y025444D02*
X026597Y024857D01*
X02601Y025444D02*
Y025544D01*
X02659Y023467D02*
Y023592D01*
X026597Y023599D02*
Y024857D01*
X026563Y023441D02*
X02659Y023467D01*
Y023592D02*
X026597Y023599D01*
X026663Y022941D02*
X027663D01*
X026263Y023341D02*
X026663Y022941D01*
X026113Y023341D02*
X026263D01*
X027363Y023841D02*
Y025091D01*
X034863Y026291D02*
Y027191D01*
X036163Y024141D02*
X036913Y023391D01*
X029513Y025741D02*
Y026091D01*
X029726Y026304D01*
Y026317D01*
X031563Y022891D02*
Y023291D01*
X032463Y024191D01*
X029613Y023241D02*
X02995Y022904D01*
X031232D01*
X030263Y023891D02*
X030863Y024491D01*
X028763Y023891D02*
X030263D01*
X028888Y025166D02*
X030188D01*
X028613Y024891D02*
X028888Y025166D01*
X030188D02*
X030463Y025441D01*
X026908Y026634D02*
X028613Y024928D01*
X026908Y026634D02*
Y026746D01*
X028613Y024641D02*
X028763Y024491D01*
X026813Y026841D02*
X026908Y026746D01*
X028613Y024585D02*
Y024641D01*
Y024891D01*
X028763Y023891D02*
Y024491D01*
X028424Y024395D02*
X028613Y024585D01*
Y024891D02*
Y024928D01*
X028424Y024301D02*
Y024395D01*
X030563Y024541D02*
X030763Y024741D01*
Y025103D01*
X030776Y025116D01*
Y025478D01*
X024363Y025091D02*
X026113Y023341D01*
X023513Y023441D02*
X024576D01*
X024726Y023291D02*
X024763D01*
X024576Y023441D02*
X024726Y023291D01*
X029824Y026986D02*
X029863Y026946D01*
X029213Y026986D02*
X029824D01*
X029726Y026317D02*
X029844Y026435D01*
X029863D01*
X029156Y026395D02*
X029163Y026403D01*
X029106Y026345D02*
X029156Y026395D01*
X027363Y023241D02*
X028103Y02398D01*
X02776Y023025D02*
X027826Y023091D01*
X027663Y022941D02*
X027747Y023025D01*
X02776D01*
X027826Y023091D02*
X027863D01*
X026337Y022567D02*
X026363Y022541D01*
X026235Y022591D02*
X026258Y022567D01*
X024213Y022341D02*
X024463Y022591D01*
X026258Y022567D02*
X026337D01*
X024463Y022591D02*
X026235D01*
X022563Y022341D02*
X024213D01*
X028513Y021491D02*
X031013D01*
X031213Y021691D01*
X028263Y023491D02*
X028713Y023041D01*
X023189Y023765D02*
X023513Y023441D01*
X023189Y023765D02*
Y025688D01*
X025763Y022241D02*
X026813D01*
X022182Y022791D02*
X022213D01*
X022098Y022699D02*
Y022707D01*
X021163Y022641D02*
X022039D01*
X022098Y022707D02*
X022182Y022791D01*
X022039Y022641D02*
X022098Y022699D01*
X020763Y023041D02*
X021163Y022641D01*
X020763Y023041D02*
Y025691D01*
X021213Y026141D02*
X022648D01*
X020763Y025691D02*
X021213Y026141D01*
X026663Y025791D02*
X027363Y025091D01*
X028713Y023041D02*
X029063Y022691D01*
X028978Y023305D02*
X028978D01*
X029342Y022941D01*
X029363D01*
X028478Y022776D02*
X028813Y022441D01*
X028449Y022776D02*
X028478D01*
X021025Y026479D02*
X021263Y026241D01*
X020908Y027041D02*
X021025Y026923D01*
X022548Y026241D02*
X022648Y026141D01*
X021025Y026479D02*
Y026923D01*
X021263Y026241D02*
X022548D01*
X022648Y026141D02*
X023632D01*
X01626Y01857D02*
Y01857D01*
X015341Y017651D02*
X01626Y01857D01*
X015341Y017632D02*
Y017651D01*
X013997Y018157D02*
Y018169D01*
X01416Y018332D02*
Y01837D01*
X013997Y018169D02*
X01416Y018332D01*
X013939Y018099D02*
X013997Y018157D01*
X01281Y01712D02*
X01311Y01742D01*
X013789Y018099D02*
X013939D01*
X01311Y01742D02*
X013789Y018099D01*
X017903Y01938D02*
X017929Y019353D01*
X017876Y020104D02*
X017903Y020077D01*
Y01938D02*
Y020077D01*
X01516Y01567D02*
Y01745D01*
X015341Y017632D01*
X01211Y01827D02*
X012883Y017497D01*
X013033D02*
X01306Y01747D01*
X012883Y017497D02*
X013033D01*
X01326Y01712D02*
X01471Y01567D01*
X01516D01*
X01281Y01712D02*
X01326D01*
X013795Y018408D02*
Y018446D01*
X01396Y018611D02*
Y01907D01*
X013795Y018446D02*
X01396Y018611D01*
X01381Y01937D02*
Y02017D01*
X012421Y020726D02*
X01306D01*
X01241Y020715D02*
X012421Y020726D01*
X012923Y020097D02*
X01304Y020214D01*
X012923Y020077D02*
Y020097D01*
X01286Y01927D02*
Y020014D01*
X01304Y020214D02*
X01306D01*
X01286Y020014D02*
X012923Y020077D01*
X01011Y01962D02*
X01056Y01917D01*
Y01752D02*
Y01917D01*
X01187Y018005D02*
X01211Y018245D01*
X01187Y01798D02*
Y018005D01*
X01211Y018245D02*
Y01827D01*
X01011Y02062D02*
X01111Y01962D01*
Y01874D02*
Y01962D01*
Y01874D02*
X01187Y01798D01*
X008372Y01672D02*
X008422Y01667D01*
X009404D01*
X00901Y01637D02*
X00976D01*
X006013Y01672D02*
X008372D01*
X00861Y01597D02*
X00901Y01637D01*
X00816Y01567D02*
X009225D01*
X00776Y01607D02*
X00816Y01567D01*
X00551Y01607D02*
X00776D01*
X009225Y01567D02*
X009525Y01597D01*
X00591Y01657D02*
Y016616D01*
X006013Y01672D01*
X009454D02*
X01011D01*
X009404Y01667D02*
X009454Y01672D01*
X01011D02*
X01076Y01607D01*
X01161D01*
X00911Y01962D02*
X00976Y01897D01*
Y01722D02*
Y01897D01*
X01081Y01682D02*
X010837Y016847D01*
Y016947D01*
X01155Y01766D01*
X012274Y016994D02*
X012299D01*
X012572Y01672D01*
Y016682D02*
Y01672D01*
X01211Y016258D02*
X012148D01*
X011836Y016531D02*
X01211Y016258D01*
X011836Y016531D02*
Y016556D01*
X012274Y016994D02*
Y017085D01*
X011745Y016556D02*
X011836D01*
X032913Y01857D02*
Y01857D01*
X031995Y017651D02*
X032913Y01857D01*
X031995Y017632D02*
Y017651D01*
X030651Y018157D02*
Y018169D01*
X030813Y018332D02*
Y01837D01*
X030651Y018169D02*
X030813Y018332D01*
X030592Y018099D02*
X030651Y018157D01*
X029463Y01712D02*
X029763Y01742D01*
X030442Y018099D02*
X030592D01*
X029763Y01742D02*
X030442Y018099D01*
X034556Y01938D02*
X034583Y019353D01*
X034529Y020104D02*
X034556Y020077D01*
Y01938D02*
Y020077D01*
X031813Y01567D02*
Y01745D01*
X031995Y017632D01*
X028763Y01827D02*
X029537Y017497D01*
X029687D02*
X029713Y01747D01*
X029537Y017497D02*
X029687D01*
X029913Y01712D02*
X031363Y01567D01*
X031813D01*
X029463Y01712D02*
X029913D01*
X030449Y018408D02*
Y018446D01*
X030613Y018611D02*
Y01907D01*
X030449Y018446D02*
X030613Y018611D01*
X030463Y01937D02*
Y02017D01*
X029074Y020726D02*
X029713D01*
X029063Y020715D02*
X029074Y020726D01*
X029576Y020097D02*
X029694Y020214D01*
X029576Y020077D02*
Y020097D01*
X029513Y01927D02*
Y020014D01*
X029694Y020214D02*
X029713D01*
X029513Y020014D02*
X029576Y020077D01*
X026763Y01962D02*
X027213Y01917D01*
Y01752D02*
Y01917D01*
X028524Y018005D02*
X028763Y018245D01*
X028524Y01798D02*
Y018005D01*
X028763Y018245D02*
Y01827D01*
X026763Y02062D02*
X027763Y01962D01*
Y01874D02*
Y01962D01*
Y01874D02*
X028524Y01798D01*
X025026Y01672D02*
X025076Y01667D01*
X026057D01*
X025663Y01637D02*
X026413D01*
X022667Y01672D02*
X025026D01*
X025263Y01597D02*
X025663Y01637D01*
X024813Y01567D02*
X025879D01*
X024413Y01607D02*
X024813Y01567D01*
X022163Y01607D02*
X024413D01*
X025879Y01567D02*
X026179Y01597D01*
X022563Y01657D02*
Y016616D01*
X022667Y01672D01*
X026107D02*
X026763D01*
X026057Y01667D02*
X026107Y01672D01*
X026763D02*
X027413Y01607D01*
X028263D01*
X025763Y01962D02*
X026413Y01897D01*
Y01722D02*
Y01897D01*
X027463Y01682D02*
X02749Y016847D01*
Y016947D01*
X028203Y01766D01*
X028928Y016994D02*
X028952D01*
X029226Y01672D01*
Y016682D02*
Y01672D01*
X028763Y016258D02*
X028801D01*
X02849Y016531D02*
X028763Y016258D01*
X02849Y016531D02*
Y016556D01*
X028928Y016994D02*
Y017085D01*
X028399Y016556D02*
X02849D01*
D48*
X021535Y013865D02*
D03*
X022046D02*
D03*
X004881D02*
D03*
X005393D02*
D03*
X004766Y027041D02*
D03*
X004254D02*
D03*
X021419D02*
D03*
X020908D02*
D03*
X004254Y02082D02*
D03*
X004766D02*
D03*
X020908D02*
D03*
X021419D02*
D03*
D50*
X01641Y024841D02*
X016433Y024817D01*
X016533D01*
X01671Y024641D01*
X01706D01*
X01791Y023791D01*
X033063Y024841D02*
X033087Y024817D01*
X033187D01*
X033363Y024641D01*
X033713D01*
X034563Y023791D01*
D52*
X007337Y026641D02*
Y026664D01*
Y026546D02*
Y026641D01*
X007284Y026493D02*
X007337Y026546D01*
X00771Y024191D02*
X00806Y023841D01*
X00771Y024191D02*
Y025091D01*
X007889Y02527D02*
Y025604D01*
X00771Y025091D02*
X007889Y02527D01*
Y025604D02*
X00801Y025725D01*
X00771Y025091D02*
Y025091D01*
X00751Y025091D02*
X00771D01*
X006933Y024514D02*
X00751Y025091D01*
X006933Y024064D02*
Y024514D01*
X00691Y024041D02*
X006933Y024064D01*
X006979Y026141D02*
X007706D01*
X00801Y025837D01*
X00691Y025688D02*
Y026072D01*
X006979Y026141D01*
X00801Y025725D02*
Y025837D01*
X006595Y026691D02*
X00686D01*
X006536Y026593D02*
Y026631D01*
X006595Y026691D01*
X006005Y027041D02*
X006008Y027038D01*
X02399Y026641D02*
Y026664D01*
Y026546D02*
Y026641D01*
X023937Y026493D02*
X02399Y026546D01*
X024363Y024191D02*
X024713Y023841D01*
X024363Y024191D02*
Y025091D01*
X024542Y02527D02*
Y025604D01*
X024363Y025091D02*
X024542Y02527D01*
Y025604D02*
X024663Y025725D01*
X024363Y025091D02*
Y025091D01*
X024163Y025091D02*
X024363D01*
X023587Y024514D02*
X024163Y025091D01*
X023587Y024064D02*
Y024514D01*
X023563Y024041D02*
X023587Y024064D01*
X023632Y026141D02*
X02436D01*
X024663Y025837D01*
X023563Y025688D02*
Y026072D01*
X023632Y026141D01*
X024663Y025725D02*
Y025837D01*
X023249Y026691D02*
X023513D01*
X023189Y026593D02*
Y026631D01*
X023249Y026691D01*
X022659Y027041D02*
X022661Y027038D01*
X006043Y02037D02*
X006095Y020422D01*
X006377D01*
X00601Y02037D02*
X006043D01*
X01201Y01682D02*
X01236Y01647D01*
X01161Y01722D02*
X01201Y01682D01*
X006436Y020481D02*
Y020623D01*
X006377Y020422D02*
X006436Y020481D01*
X022697Y02037D02*
X022748Y020422D01*
X02303D01*
X022663Y02037D02*
X022697D01*
X028663Y01682D02*
X029013Y01647D01*
X028263Y01722D02*
X028663Y01682D01*
X023089Y020481D02*
Y020623D01*
X02303Y020422D02*
X023089Y020481D01*
D61*
X01177Y024301D02*
D03*
X01145Y02398D02*
D03*
X028424Y024301D02*
D03*
X028103Y02398D02*
D03*
X01155Y01766D02*
D03*
X01187Y01798D02*
D03*
X028203Y01766D02*
D03*
X028524Y01798D02*
D03*
D63*
X021434Y010301D02*
D03*
X021434Y008529D02*
D03*
X004781Y010301D02*
D03*
X004781Y008529D02*
D03*
X004804Y025176D02*
D03*
X004804Y023405D02*
D03*
X021457Y025176D02*
D03*
X021457Y023405D02*
D03*
X004804Y017184D02*
D03*
X004804Y018956D02*
D03*
X021457Y017184D02*
D03*
X021457Y018956D02*
D03*
D64*
X026191Y011887D02*
D03*
X009537D02*
D03*
X00916Y025841D02*
D03*
X025813D02*
D03*
X00911Y01962D02*
D03*
X025763D02*
D03*
D65*
X026191Y012887D02*
D03*
X027191Y011887D02*
D03*
Y012887D02*
D03*
X009537D02*
D03*
X010537Y011887D02*
D03*
Y012887D02*
D03*
X00916Y026841D02*
D03*
X01016D02*
D03*
Y025841D02*
D03*
X025813Y026841D02*
D03*
X026813D02*
D03*
Y025841D02*
D03*
X00911Y02062D02*
D03*
X01011Y01962D02*
D03*
Y02062D02*
D03*
X025763D02*
D03*
X026763Y01962D02*
D03*
Y02062D02*
D03*
D66*
X021791Y009437D02*
D03*
X022141Y007387D02*
D03*
X021541D02*
D03*
X033491Y013887D02*
D03*
Y012927D02*
D03*
Y011967D02*
D03*
Y007167D02*
D03*
Y006207D02*
D03*
Y005247D02*
D03*
Y004287D02*
D03*
X033011Y013887D02*
D03*
X033251Y013407D02*
D03*
X033011Y012927D02*
D03*
X033251Y012447D02*
D03*
X033011Y011967D02*
D03*
X033251Y007647D02*
D03*
X033011Y007167D02*
D03*
X033251Y006687D02*
D03*
X033011Y006207D02*
D03*
X033251Y005727D02*
D03*
X033011Y005247D02*
D03*
X033251Y004767D02*
D03*
X033011Y004287D02*
D03*
X032531Y013887D02*
D03*
X032771Y013407D02*
D03*
X032531Y012927D02*
D03*
X032771Y012447D02*
D03*
X032531Y011967D02*
D03*
Y007167D02*
D03*
X032771Y006687D02*
D03*
X032531Y006207D02*
D03*
X032771Y005727D02*
D03*
X032531Y005247D02*
D03*
X032771Y004767D02*
D03*
X032531Y004287D02*
D03*
X032051Y013887D02*
D03*
X032291Y013407D02*
D03*
X032051Y012927D02*
D03*
X032291Y012447D02*
D03*
Y011487D02*
D03*
Y006687D02*
D03*
X032051Y006207D02*
D03*
X032291Y005727D02*
D03*
X032051Y005247D02*
D03*
X032291Y004767D02*
D03*
X032051Y004287D02*
D03*
X031571Y013887D02*
D03*
X031811Y013407D02*
D03*
X031571Y012927D02*
D03*
X031811Y006687D02*
D03*
X031571Y006207D02*
D03*
X031811Y005727D02*
D03*
X031571Y005247D02*
D03*
X031811Y004767D02*
D03*
X031571Y004287D02*
D03*
X031091Y013887D02*
D03*
X031331Y013407D02*
D03*
X031091Y012927D02*
D03*
Y006207D02*
D03*
X031331Y005727D02*
D03*
X031091Y005247D02*
D03*
X031331Y004767D02*
D03*
X031091Y004287D02*
D03*
X030611Y013887D02*
D03*
X030851Y013407D02*
D03*
X030611Y012927D02*
D03*
X030851Y005727D02*
D03*
X030611Y005247D02*
D03*
X030851Y004767D02*
D03*
X030611Y004287D02*
D03*
X030131Y013887D02*
D03*
X030371Y013407D02*
D03*
X030131Y012927D02*
D03*
X030371Y005727D02*
D03*
X030131Y005247D02*
D03*
X030371Y004767D02*
D03*
X030131Y004287D02*
D03*
X029651Y013887D02*
D03*
X029891Y013407D02*
D03*
X029651Y012927D02*
D03*
Y005247D02*
D03*
X029891Y004767D02*
D03*
X029651Y004287D02*
D03*
X029171Y013887D02*
D03*
X029411Y013407D02*
D03*
X029171Y012927D02*
D03*
X029411Y004767D02*
D03*
X029171Y004287D02*
D03*
X028691Y013887D02*
D03*
X028931Y013407D02*
D03*
X028691Y012927D02*
D03*
Y004287D02*
D03*
X028211Y013887D02*
D03*
X028451Y013407D02*
D03*
Y004767D02*
D03*
X028211Y004287D02*
D03*
X027731Y005247D02*
D03*
X027971Y004767D02*
D03*
X027731Y004287D02*
D03*
X027491Y008607D02*
D03*
Y004767D02*
D03*
X027251Y004287D02*
D03*
X027011Y008607D02*
D03*
X026771Y004287D02*
D03*
X026291Y013887D02*
D03*
X026531Y008607D02*
D03*
X026291Y004287D02*
D03*
X025811Y013887D02*
D03*
X026051Y007647D02*
D03*
X025811Y004287D02*
D03*
X025331Y013887D02*
D03*
X025571Y007647D02*
D03*
X025331Y004287D02*
D03*
X024851D02*
D03*
X024611Y004767D02*
D03*
X024371Y004287D02*
D03*
X023891D02*
D03*
X023411Y013887D02*
D03*
Y004287D02*
D03*
X022931D02*
D03*
X022451Y005247D02*
D03*
X022691Y004767D02*
D03*
X022451Y004287D02*
D03*
X022211Y005727D02*
D03*
X021971Y005247D02*
D03*
X022211Y004767D02*
D03*
X021971Y004287D02*
D03*
X021731Y011487D02*
D03*
X021491Y006207D02*
D03*
X021731Y005727D02*
D03*
X021491Y005247D02*
D03*
X021731Y004767D02*
D03*
X021491Y004287D02*
D03*
X021011Y012927D02*
D03*
X021251Y012447D02*
D03*
X021011Y006207D02*
D03*
X021251Y005727D02*
D03*
X021011Y005247D02*
D03*
X021251Y004767D02*
D03*
X021011Y004287D02*
D03*
X033691Y008287D02*
D03*
X023391Y011587D02*
D03*
X029191Y010887D02*
D03*
X029741Y007137D02*
D03*
X025091Y014587D02*
D03*
X025841D02*
D03*
X033691Y007637D02*
D03*
Y004787D02*
D03*
Y005737D02*
D03*
Y006687D02*
D03*
X024791Y009787D02*
D03*
X024591Y009087D02*
D03*
X024391Y009787D02*
D03*
X025091Y009637D02*
D03*
X032991Y008287D02*
D03*
X033691Y008937D02*
D03*
Y009587D02*
D03*
X024941Y010787D02*
D03*
X023291Y004987D02*
D03*
X023791Y004587D02*
D03*
X021341Y009437D02*
D03*
X020891Y013537D02*
D03*
Y014037D02*
D03*
Y014587D02*
D03*
X021441Y014687D02*
D03*
X022191D02*
D03*
X023441D02*
D03*
X024141D02*
D03*
X026491Y014587D02*
D03*
X027091D02*
D03*
Y013887D02*
D03*
X027641D02*
D03*
X027891Y014587D02*
D03*
X028591D02*
D03*
X029491D02*
D03*
X030391D02*
D03*
X031241D02*
D03*
X032091D02*
D03*
X032841D02*
D03*
X033491D02*
D03*
X032291Y008287D02*
D03*
X032391Y007637D02*
D03*
X031941Y007187D02*
D03*
X028941Y004787D02*
D03*
X029041Y005287D02*
D03*
X029491Y005737D02*
D03*
X030541Y006737D02*
D03*
X031141Y006687D02*
D03*
X031791Y010987D02*
D03*
X032291D02*
D03*
X033541D02*
D03*
X033491Y011437D02*
D03*
X031741Y011537D02*
D03*
Y012437D02*
D03*
X031891Y011987D02*
D03*
X033155Y009705D02*
D03*
X033449Y009766D02*
D03*
X033441Y010437D02*
D03*
X032891Y011587D02*
D03*
X028191Y006286D02*
D03*
X02864Y010037D02*
D03*
X031441Y008837D02*
D03*
X031541Y009337D02*
D03*
X031341Y010937D02*
D03*
X031091D02*
D03*
X030091Y011637D02*
D03*
Y011387D02*
D03*
X028941Y008237D02*
D03*
X028891Y007887D02*
D03*
X028741Y008087D02*
D03*
X027891Y011037D02*
D03*
X027591D02*
D03*
X027641Y010287D02*
D03*
X030591Y008787D02*
D03*
X028791Y009137D02*
D03*
X027491Y007387D02*
D03*
X024541Y006887D02*
D03*
X023941Y008637D02*
D03*
X026741Y005287D02*
D03*
X026891Y005462D02*
D03*
X025041Y006787D02*
D03*
X022391Y009037D02*
D03*
X022354Y009824D02*
D03*
X022191Y008137D02*
D03*
X024641Y005787D02*
D03*
X024591Y006287D02*
D03*
X022541Y008137D02*
D03*
X025241Y008087D02*
D03*
X024191Y014087D02*
D03*
X024441D02*
D03*
X022091Y012737D02*
D03*
X024191Y008387D02*
D03*
Y008637D02*
D03*
X023941Y008387D02*
D03*
X024441Y013837D02*
D03*
X024191Y01382D02*
D03*
X022191Y007887D02*
D03*
X022541D02*
D03*
Y010887D02*
D03*
X022191Y010637D02*
D03*
X022541D02*
D03*
X022191Y010887D02*
D03*
X025791Y008637D02*
D03*
X028941Y010037D02*
D03*
X029041Y009337D02*
D03*
X005137Y009437D02*
D03*
X005487Y007387D02*
D03*
X004887D02*
D03*
X016837Y013887D02*
D03*
Y012927D02*
D03*
Y011967D02*
D03*
Y007167D02*
D03*
Y006207D02*
D03*
Y005247D02*
D03*
Y004287D02*
D03*
X016357Y013887D02*
D03*
X016597Y013407D02*
D03*
X016357Y012927D02*
D03*
X016597Y012447D02*
D03*
X016357Y011967D02*
D03*
X016597Y007647D02*
D03*
X016357Y007167D02*
D03*
X016597Y006687D02*
D03*
X016357Y006207D02*
D03*
X016597Y005727D02*
D03*
X016357Y005247D02*
D03*
X016597Y004767D02*
D03*
X016357Y004287D02*
D03*
X015877Y013887D02*
D03*
X016117Y013407D02*
D03*
X015877Y012927D02*
D03*
X016117Y012447D02*
D03*
X015877Y011967D02*
D03*
Y007167D02*
D03*
X016117Y006687D02*
D03*
X015877Y006207D02*
D03*
X016117Y005727D02*
D03*
X015877Y005247D02*
D03*
X016117Y004767D02*
D03*
X015877Y004287D02*
D03*
X015397Y013887D02*
D03*
X015637Y013407D02*
D03*
X015397Y012927D02*
D03*
X015637Y012447D02*
D03*
Y011487D02*
D03*
Y006687D02*
D03*
X015397Y006207D02*
D03*
X015637Y005727D02*
D03*
X015397Y005247D02*
D03*
X015637Y004767D02*
D03*
X015397Y004287D02*
D03*
X014917Y013887D02*
D03*
X015157Y013407D02*
D03*
X014917Y012927D02*
D03*
X015157Y006687D02*
D03*
X014917Y006207D02*
D03*
X015157Y005727D02*
D03*
X014917Y005247D02*
D03*
X015157Y004767D02*
D03*
X014917Y004287D02*
D03*
X014437Y013887D02*
D03*
X014677Y013407D02*
D03*
X014437Y012927D02*
D03*
Y006207D02*
D03*
X014677Y005727D02*
D03*
X014437Y005247D02*
D03*
X014677Y004767D02*
D03*
X014437Y004287D02*
D03*
X013957Y013887D02*
D03*
X014197Y013407D02*
D03*
X013957Y012927D02*
D03*
X014197Y005727D02*
D03*
X013957Y005247D02*
D03*
X014197Y004767D02*
D03*
X013957Y004287D02*
D03*
X013477Y013887D02*
D03*
X013717Y013407D02*
D03*
X013477Y012927D02*
D03*
X013717Y005727D02*
D03*
X013477Y005247D02*
D03*
X013717Y004767D02*
D03*
X013477Y004287D02*
D03*
X012997Y013887D02*
D03*
X013237Y013407D02*
D03*
X012997Y012927D02*
D03*
Y005247D02*
D03*
X013237Y004767D02*
D03*
X012997Y004287D02*
D03*
X012517Y013887D02*
D03*
X012757Y013407D02*
D03*
X012517Y012927D02*
D03*
X012757Y004767D02*
D03*
X012517Y004287D02*
D03*
X012037Y013887D02*
D03*
X012277Y013407D02*
D03*
X012037Y012927D02*
D03*
Y004287D02*
D03*
X011557Y013887D02*
D03*
X011797Y013407D02*
D03*
Y004767D02*
D03*
X011557Y004287D02*
D03*
X011077Y005247D02*
D03*
X011317Y004767D02*
D03*
X011077Y004287D02*
D03*
X010837Y008607D02*
D03*
Y004767D02*
D03*
X010597Y004287D02*
D03*
X010357Y008607D02*
D03*
X010117Y004287D02*
D03*
X009637Y013887D02*
D03*
X009877Y008607D02*
D03*
X009637Y004287D02*
D03*
X009157Y013887D02*
D03*
X009397Y007647D02*
D03*
X009157Y004287D02*
D03*
X008677Y013887D02*
D03*
X008917Y007647D02*
D03*
X008677Y004287D02*
D03*
X008197D02*
D03*
X007957Y004767D02*
D03*
X007717Y004287D02*
D03*
X007237D02*
D03*
X006757Y013887D02*
D03*
Y004287D02*
D03*
X006277D02*
D03*
X005797Y005247D02*
D03*
X006037Y004767D02*
D03*
X005797Y004287D02*
D03*
X005557Y005727D02*
D03*
X005317Y005247D02*
D03*
X005557Y004767D02*
D03*
X005317Y004287D02*
D03*
X005077Y011487D02*
D03*
X004837Y006207D02*
D03*
X005077Y005727D02*
D03*
X004837Y005247D02*
D03*
X005077Y004767D02*
D03*
X004837Y004287D02*
D03*
X004357Y012927D02*
D03*
X004597Y012447D02*
D03*
X004357Y006207D02*
D03*
X004597Y005727D02*
D03*
X004357Y005247D02*
D03*
X004597Y004767D02*
D03*
X004357Y004287D02*
D03*
X017037Y008287D02*
D03*
X006737Y011587D02*
D03*
X012537Y010887D02*
D03*
X013087Y007137D02*
D03*
X008437Y014587D02*
D03*
X009187D02*
D03*
X017037Y007637D02*
D03*
Y004787D02*
D03*
Y005737D02*
D03*
Y006687D02*
D03*
X008137Y009787D02*
D03*
X007937Y009087D02*
D03*
X007737Y009787D02*
D03*
X008437Y009637D02*
D03*
X016337Y008287D02*
D03*
X017037Y008937D02*
D03*
Y009587D02*
D03*
X008287Y010787D02*
D03*
X006637Y004987D02*
D03*
X007137Y004587D02*
D03*
X004687Y009437D02*
D03*
X004237Y013537D02*
D03*
Y014037D02*
D03*
Y014587D02*
D03*
X004787Y014687D02*
D03*
X005537D02*
D03*
X006787D02*
D03*
X007487D02*
D03*
X009837Y014587D02*
D03*
X010437D02*
D03*
Y013887D02*
D03*
X010987D02*
D03*
X011237Y014587D02*
D03*
X011937D02*
D03*
X012837D02*
D03*
X013737D02*
D03*
X014587D02*
D03*
X015437D02*
D03*
X016187D02*
D03*
X016837D02*
D03*
X015637Y008287D02*
D03*
X015737Y007637D02*
D03*
X015287Y007187D02*
D03*
X012287Y004787D02*
D03*
X012387Y005287D02*
D03*
X012837Y005737D02*
D03*
X013887Y006737D02*
D03*
X014487Y006687D02*
D03*
X015137Y010987D02*
D03*
X015637D02*
D03*
X016887D02*
D03*
X016837Y011437D02*
D03*
X015087Y011537D02*
D03*
Y012437D02*
D03*
X015237Y011987D02*
D03*
X016501Y009705D02*
D03*
X016795Y009766D02*
D03*
X016787Y010437D02*
D03*
X016237Y011587D02*
D03*
X011537Y006286D02*
D03*
X011987Y010037D02*
D03*
X014787Y008837D02*
D03*
X014887Y009337D02*
D03*
X014687Y010937D02*
D03*
X014437D02*
D03*
X013437Y011637D02*
D03*
Y011387D02*
D03*
X012287Y008237D02*
D03*
X012237Y007887D02*
D03*
X012087Y008087D02*
D03*
X011237Y011037D02*
D03*
X010937D02*
D03*
X010987Y010287D02*
D03*
X013937Y008787D02*
D03*
X012137Y009137D02*
D03*
X010837Y007387D02*
D03*
X007887Y006887D02*
D03*
X007287Y008637D02*
D03*
X010087Y005287D02*
D03*
X010237Y005462D02*
D03*
X008387Y006787D02*
D03*
X005737Y009037D02*
D03*
X0057Y009824D02*
D03*
X005537Y008137D02*
D03*
X007987Y005787D02*
D03*
X007937Y006287D02*
D03*
X005887Y008137D02*
D03*
X008587Y008087D02*
D03*
X007537Y014087D02*
D03*
X007787D02*
D03*
X005437Y012737D02*
D03*
X007537Y008387D02*
D03*
Y008637D02*
D03*
X007287Y008387D02*
D03*
X007787Y013837D02*
D03*
X007537Y01382D02*
D03*
X005537Y007887D02*
D03*
X005887D02*
D03*
Y010887D02*
D03*
X005537Y010637D02*
D03*
X005887D02*
D03*
X005537Y010887D02*
D03*
X009137Y008637D02*
D03*
X012287Y010037D02*
D03*
X012387Y009337D02*
D03*
X02026Y023941D02*
D03*
X01496Y021991D02*
D03*
Y022541D02*
D03*
X01536Y022291D02*
D03*
Y021891D02*
D03*
X01586D02*
D03*
Y022291D02*
D03*
X01656Y022341D02*
D03*
Y021841D02*
D03*
X01386Y026441D02*
D03*
X01381Y027191D02*
D03*
X00561Y022091D02*
D03*
X00491D02*
D03*
X00421Y022141D02*
D03*
X01791Y023791D02*
D03*
X01691Y024379D02*
D03*
X01641Y02454D02*
D03*
Y024841D02*
D03*
X016494Y02413D02*
D03*
X01861Y024591D02*
D03*
Y024141D02*
D03*
X00926Y025191D02*
D03*
X01096Y024041D02*
D03*
X00991Y023441D02*
D03*
X01071Y023841D02*
D03*
X01001Y025191D02*
D03*
X01866Y024891D02*
D03*
X01821Y026291D02*
D03*
X00881Y021541D02*
D03*
X00786D02*
D03*
X00686D02*
D03*
X00591D02*
D03*
X00496D02*
D03*
X00416D02*
D03*
X01201Y026741D02*
D03*
X01121Y027191D02*
D03*
X01201D02*
D03*
X01486Y021491D02*
D03*
X01536D02*
D03*
X01591D02*
D03*
X01656D02*
D03*
X01721D02*
D03*
X02021Y027191D02*
D03*
X01956D02*
D03*
X01886D02*
D03*
X01821D02*
D03*
X01756D02*
D03*
X02026Y023391D02*
D03*
Y022791D02*
D03*
Y022241D02*
D03*
Y021691D02*
D03*
X01981Y021491D02*
D03*
X01911D02*
D03*
X01851D02*
D03*
X01776D02*
D03*
X01721Y021791D02*
D03*
Y022391D02*
D03*
Y023091D02*
D03*
Y023741D02*
D03*
X01691Y025991D02*
D03*
Y026591D02*
D03*
Y027191D02*
D03*
X01641Y026141D02*
D03*
X01486Y026741D02*
D03*
X01286Y025741D02*
D03*
X01581Y024191D02*
D03*
X01491Y022891D02*
D03*
X014578Y022904D02*
D03*
X00936Y022891D02*
D03*
X01411Y023791D02*
D03*
Y023391D02*
D03*
X01431Y023591D02*
D03*
X01391D02*
D03*
X01196Y024891D02*
D03*
X01296Y023241D02*
D03*
X01391Y024541D02*
D03*
X01421Y024491D02*
D03*
X00806Y023841D02*
D03*
X00811Y023291D02*
D03*
X014122Y025478D02*
D03*
X01381Y025441D02*
D03*
X01191Y026491D02*
D03*
X01166Y026741D02*
D03*
X01071Y023241D02*
D03*
X00851Y026641D02*
D03*
Y026291D02*
D03*
Y025841D02*
D03*
Y025441D02*
D03*
X00591Y022341D02*
D03*
X00971Y022541D02*
D03*
X01456Y021691D02*
D03*
X01186Y021491D02*
D03*
X01181Y022241D02*
D03*
X01121Y023091D02*
D03*
X01161Y023491D02*
D03*
X01016Y022241D02*
D03*
X00911D02*
D03*
X01211Y023891D02*
D03*
X01241Y022691D02*
D03*
X01216Y022441D02*
D03*
X01271Y022941D02*
D03*
X00691Y024041D02*
D03*
X00771Y025091D02*
D03*
X00571Y023891D02*
D03*
Y024691D02*
D03*
X00556Y022791D02*
D03*
Y023041D02*
D03*
X00591Y022791D02*
D03*
Y023041D02*
D03*
X00486Y026491D02*
D03*
X00556Y025791D02*
D03*
Y025541D02*
D03*
X00686Y026691D02*
D03*
X00591Y025541D02*
D03*
Y025791D02*
D03*
X004294Y027041D02*
D03*
X036913Y023941D02*
D03*
X031613Y021991D02*
D03*
Y022541D02*
D03*
X032013Y022291D02*
D03*
Y021891D02*
D03*
X032513D02*
D03*
Y022291D02*
D03*
X033213Y022341D02*
D03*
Y021841D02*
D03*
X030513Y026441D02*
D03*
X030463Y027191D02*
D03*
X022263Y022091D02*
D03*
X021563D02*
D03*
X020863Y022141D02*
D03*
X034563Y023791D02*
D03*
X033563Y024379D02*
D03*
X033063Y02454D02*
D03*
Y024841D02*
D03*
X033147Y02413D02*
D03*
X035263Y024591D02*
D03*
Y024141D02*
D03*
X025913Y025191D02*
D03*
X027613Y024041D02*
D03*
X026563Y023441D02*
D03*
X027363Y023841D02*
D03*
X026663Y025191D02*
D03*
X035313Y024891D02*
D03*
X034863Y026291D02*
D03*
X025463Y021541D02*
D03*
X024513D02*
D03*
X023513D02*
D03*
X022563D02*
D03*
X021613D02*
D03*
X020813D02*
D03*
X028663Y026741D02*
D03*
X027863Y027191D02*
D03*
X028663D02*
D03*
X031513Y021491D02*
D03*
X032013D02*
D03*
X032563D02*
D03*
X033213D02*
D03*
X033863D02*
D03*
X036863Y027191D02*
D03*
X036213D02*
D03*
X035513D02*
D03*
X034863D02*
D03*
X034213D02*
D03*
X036913Y023391D02*
D03*
Y022791D02*
D03*
Y022241D02*
D03*
Y021691D02*
D03*
X036463Y021491D02*
D03*
X035763D02*
D03*
X035163D02*
D03*
X034413D02*
D03*
X033863Y021791D02*
D03*
Y022391D02*
D03*
Y023091D02*
D03*
Y023741D02*
D03*
X033563Y025991D02*
D03*
Y026591D02*
D03*
Y027191D02*
D03*
X033063Y026141D02*
D03*
X031513Y026741D02*
D03*
X029513Y025741D02*
D03*
X032463Y024191D02*
D03*
X031563Y022891D02*
D03*
X031232Y022904D02*
D03*
X026013Y022891D02*
D03*
X030763Y023791D02*
D03*
Y023391D02*
D03*
X030963Y023591D02*
D03*
X030563D02*
D03*
X028613Y024891D02*
D03*
X029613Y023241D02*
D03*
X030563Y024541D02*
D03*
X030863Y024491D02*
D03*
X024713Y023841D02*
D03*
X024763Y023291D02*
D03*
X030776Y025478D02*
D03*
X030463Y025441D02*
D03*
X028563Y026491D02*
D03*
X028313Y026741D02*
D03*
X027363Y023241D02*
D03*
X025163Y026641D02*
D03*
Y026291D02*
D03*
Y025841D02*
D03*
Y025441D02*
D03*
X022563Y022341D02*
D03*
X026363Y022541D02*
D03*
X031213Y021691D02*
D03*
X028513Y021491D02*
D03*
X028463Y022241D02*
D03*
X027863Y023091D02*
D03*
X028263Y023491D02*
D03*
X026813Y022241D02*
D03*
X025763D02*
D03*
X028763Y023891D02*
D03*
X029063Y022691D02*
D03*
X028813Y022441D02*
D03*
X029363Y022941D02*
D03*
X023563Y024041D02*
D03*
X024363Y025091D02*
D03*
X022363Y023891D02*
D03*
Y024691D02*
D03*
X022213Y022791D02*
D03*
Y023041D02*
D03*
X022563Y022791D02*
D03*
Y023041D02*
D03*
X021513Y026491D02*
D03*
X022213Y025791D02*
D03*
Y025541D02*
D03*
X023513Y026691D02*
D03*
X022563Y025541D02*
D03*
Y025791D02*
D03*
X020948Y027041D02*
D03*
X007983Y016993D02*
D03*
X01996Y01907D02*
D03*
X01626Y01857D02*
D03*
X01416Y01837D02*
D03*
X017929Y019353D02*
D03*
X017278Y01884D02*
D03*
X018107Y018798D02*
D03*
X018878Y018492D02*
D03*
X019484Y019059D02*
D03*
X019Y019734D02*
D03*
X01661Y01617D02*
D03*
X01721Y01672D02*
D03*
X01751Y01722D02*
D03*
X015311Y020769D02*
D03*
X01711Y01992D02*
D03*
X01726Y02047D02*
D03*
X01666Y01992D02*
D03*
Y02047D02*
D03*
Y02097D02*
D03*
X01591Y02002D02*
D03*
X01246Y01807D02*
D03*
X01276Y01777D02*
D03*
X01306Y01747D02*
D03*
X01386Y01722D02*
D03*
Y01752D02*
D03*
X013795Y018408D02*
D03*
X01396Y01907D02*
D03*
X01381Y01937D02*
D03*
X015341Y017651D02*
D03*
X01381Y02017D02*
D03*
X01176Y02097D02*
D03*
X01086D02*
D03*
X01376Y020999D02*
D03*
X01966Y01717D02*
D03*
X01896Y01722D02*
D03*
X01816D02*
D03*
X01966Y01672D02*
D03*
X01896Y01667D02*
D03*
X01791Y01672D02*
D03*
X01961Y01617D02*
D03*
X01896D02*
D03*
X01806D02*
D03*
X01961Y01567D02*
D03*
X01856D02*
D03*
X01721Y01617D02*
D03*
X01776Y01562D02*
D03*
X01691Y01567D02*
D03*
X01601D02*
D03*
X01516D02*
D03*
X01196Y020262D02*
D03*
X01956Y02097D02*
D03*
X015269Y015261D02*
D03*
X01451Y01527D02*
D03*
X01606D02*
D03*
X01671D02*
D03*
X01746D02*
D03*
X01826D02*
D03*
X01896D02*
D03*
X00421Y01602D02*
D03*
X00846Y01527D02*
D03*
X00691D02*
D03*
X00601D02*
D03*
X00506D02*
D03*
X00426D02*
D03*
X01966D02*
D03*
X02026D02*
D03*
Y01567D02*
D03*
Y01622D02*
D03*
Y01672D02*
D03*
Y01722D02*
D03*
Y02097D02*
D03*
X01881D02*
D03*
X01811D02*
D03*
X01741D02*
D03*
X01286Y01927D02*
D03*
X01196Y02002D02*
D03*
X01031Y01897D02*
D03*
X01211Y01827D02*
D03*
X00911Y01897D02*
D03*
X01356Y01602D02*
D03*
Y01622D02*
D03*
X00846Y020495D02*
D03*
Y02017D02*
D03*
X00871Y01667D02*
D03*
X00976Y01637D02*
D03*
X00846Y01707D02*
D03*
X00871D02*
D03*
Y01732D02*
D03*
X00846D02*
D03*
Y01942D02*
D03*
Y01977D02*
D03*
X00861Y01597D02*
D03*
X00551Y01607D02*
D03*
X00981Y01597D02*
D03*
X009525D02*
D03*
X01056Y01752D02*
D03*
X00976Y01722D02*
D03*
X01081Y01682D02*
D03*
X011196Y016759D02*
D03*
X00451Y02002D02*
D03*
X00671Y01772D02*
D03*
X00601Y02037D02*
D03*
X00751Y01887D02*
D03*
X01161Y01607D02*
D03*
Y01722D02*
D03*
X01226Y01762D02*
D03*
X01281Y01712D02*
D03*
X012572Y016682D02*
D03*
X01236Y01647D02*
D03*
X012148Y016258D02*
D03*
X00556Y01932D02*
D03*
X00591D02*
D03*
Y01957D02*
D03*
X00556D02*
D03*
Y01657D02*
D03*
X00591D02*
D03*
Y01682D02*
D03*
X00556D02*
D03*
X00576Y01767D02*
D03*
Y01842D02*
D03*
X024637Y016993D02*
D03*
X036613Y01907D02*
D03*
X032913Y01857D02*
D03*
X030813Y01837D02*
D03*
X034583Y019353D02*
D03*
X033931Y01884D02*
D03*
X03476Y018798D02*
D03*
X035532Y018492D02*
D03*
X036137Y019059D02*
D03*
X035653Y019734D02*
D03*
X033263Y01617D02*
D03*
X033863Y01672D02*
D03*
X034163Y01722D02*
D03*
X031965Y020769D02*
D03*
X033763Y01992D02*
D03*
X033913Y02047D02*
D03*
X033313Y01992D02*
D03*
Y02047D02*
D03*
Y02097D02*
D03*
X032563Y02002D02*
D03*
X029113Y01807D02*
D03*
X029413Y01777D02*
D03*
X029713Y01747D02*
D03*
X030513Y01722D02*
D03*
Y01752D02*
D03*
X030449Y018408D02*
D03*
X030613Y01907D02*
D03*
X030463Y01937D02*
D03*
X031995Y017651D02*
D03*
X030463Y02017D02*
D03*
X028413Y02097D02*
D03*
X027513D02*
D03*
X030413Y020999D02*
D03*
X036313Y01717D02*
D03*
X035613Y01722D02*
D03*
X034813D02*
D03*
X036313Y01672D02*
D03*
X035613Y01667D02*
D03*
X034563Y01672D02*
D03*
X036263Y01617D02*
D03*
X035613D02*
D03*
X034713D02*
D03*
X036263Y01567D02*
D03*
X035213D02*
D03*
X033863Y01617D02*
D03*
X034413Y01562D02*
D03*
X033563Y01567D02*
D03*
X032663D02*
D03*
X031813D02*
D03*
X028613Y020262D02*
D03*
X036213Y02097D02*
D03*
X031923Y015261D02*
D03*
X031163Y01527D02*
D03*
X032713D02*
D03*
X033363D02*
D03*
X034113D02*
D03*
X034913D02*
D03*
X035613D02*
D03*
X020863Y01602D02*
D03*
X025113Y01527D02*
D03*
X023563D02*
D03*
X022663D02*
D03*
X021713D02*
D03*
X020913D02*
D03*
X036313D02*
D03*
X036913D02*
D03*
Y01567D02*
D03*
Y01622D02*
D03*
Y01672D02*
D03*
Y01722D02*
D03*
Y02097D02*
D03*
X035463D02*
D03*
X034763D02*
D03*
X034063D02*
D03*
X029513Y01927D02*
D03*
X028613Y02002D02*
D03*
X026963Y01897D02*
D03*
X028763Y01827D02*
D03*
X025763Y01897D02*
D03*
X030213Y01602D02*
D03*
Y01622D02*
D03*
X025113Y020495D02*
D03*
Y02017D02*
D03*
X025363Y01667D02*
D03*
X026413Y01637D02*
D03*
X025113Y01707D02*
D03*
X025363D02*
D03*
Y01732D02*
D03*
X025113D02*
D03*
Y01942D02*
D03*
Y01977D02*
D03*
X025263Y01597D02*
D03*
X022163Y01607D02*
D03*
X026463Y01597D02*
D03*
X026179D02*
D03*
X027213Y01752D02*
D03*
X026413Y01722D02*
D03*
X027463Y01682D02*
D03*
X02785Y016759D02*
D03*
X021163Y02002D02*
D03*
X023363Y01772D02*
D03*
X022663Y02037D02*
D03*
X024163Y01887D02*
D03*
X028263Y01607D02*
D03*
Y01722D02*
D03*
X028913Y01762D02*
D03*
X029463Y01712D02*
D03*
X029226Y016682D02*
D03*
X029013Y01647D02*
D03*
X028801Y016258D02*
D03*
X022213Y01932D02*
D03*
X022563D02*
D03*
Y01957D02*
D03*
X022213D02*
D03*
Y01657D02*
D03*
X022563D02*
D03*
Y01682D02*
D03*
X022213D02*
D03*
X022413Y01767D02*
D03*
Y01842D02*
D03*
D67*
X017876Y020104D02*
D03*
X019844D02*
D03*
Y018136D02*
D03*
X017876D02*
D03*
X034529Y020104D02*
D03*
X036498D02*
D03*
Y018136D02*
D03*
X034529D02*
D03*
D68*
X01886Y01912D02*
D03*
X035513D02*
D03*
D69*
X02676Y008068D02*
D03*
X027122Y007706D02*
D03*
X010106Y008068D02*
D03*
X010468Y007706D02*
D03*
D70*
X021495Y013215D02*
D03*
X022086D02*
D03*
X004842D02*
D03*
X005432D02*
D03*
X005415Y027041D02*
D03*
X006005D02*
D03*
X022068D02*
D03*
X022659D02*
D03*
X006005Y02082D02*
D03*
X005415D02*
D03*
X022659D02*
D03*
X022068D02*
D03*
D71*
X028191Y012182D02*
D03*
Y011592D02*
D03*
X011537Y012182D02*
D03*
Y011592D02*
D03*
X01256Y026395D02*
D03*
Y026986D02*
D03*
X01241Y020125D02*
D03*
Y020715D02*
D03*
D72*
X022359Y010793D02*
D03*
Y008037D02*
D03*
Y009809D02*
D03*
Y009021D02*
D03*
X005706Y010793D02*
D03*
Y008037D02*
D03*
Y009809D02*
D03*
Y009021D02*
D03*
X005729Y025668D02*
D03*
Y022913D02*
D03*
Y024684D02*
D03*
Y023897D02*
D03*
X022382Y025668D02*
D03*
Y022913D02*
D03*
Y024684D02*
D03*
Y023897D02*
D03*
X005729Y017676D02*
D03*
Y018464D02*
D03*
Y016692D02*
D03*
Y019448D02*
D03*
X022382Y017676D02*
D03*
Y018464D02*
D03*
Y016692D02*
D03*
Y019448D02*
D03*
D73*
X029213Y026395D02*
D03*
Y026986D02*
D03*
X029063Y020125D02*
D03*
Y020715D02*
D03*
M02*
