G04*
G04 #@! TF.GenerationSoftware,Altium Limited,Altium Designer,22.10.1 (41)*
G04*
G04 Layer_Color=32768*
%FSTAX24Y24*%
%MOIN*%
G70*
G04*
G04 #@! TF.SameCoordinates,3ABB2080-4673-4E4B-9202-AF62ACB4AD27*
G04*
G04*
G04 #@! TF.FilePolarity,Positive*
G04*
G01*
G75*
%ADD87C,0.0039*%
%ADD94C,0.0020*%
D87*
X026851Y016144D02*
X026995Y015999D01*
X026851Y015999D02*
X026995Y016144D01*
X029323Y016846D02*
Y01705D01*
X029221Y016948D02*
X029425D01*
X029371Y017571D02*
X029575D01*
X029473Y017469D02*
Y017674D01*
X029973Y016669D02*
Y016874D01*
X029871Y016771D02*
X030075D01*
X029973Y016219D02*
Y016424D01*
X029871Y016321D02*
X030075D01*
X028823Y017296D02*
Y0175D01*
X028721Y017398D02*
X028925D01*
X030221Y017571D02*
X030425D01*
X030323Y017469D02*
Y017674D01*
X030973Y017669D02*
Y017874D01*
X030871Y017771D02*
X031075D01*
X028523Y018919D02*
Y019124D01*
X028421Y019021D02*
X028625D01*
X027915D02*
X028131D01*
X028023Y018913D02*
Y01913D01*
X027806Y018539D02*
Y019504D01*
X028239Y018539D02*
Y019504D01*
X027806Y018539D02*
X028239Y018539D01*
X027806Y019504D02*
X028239D01*
X026801Y018799D02*
X026945Y018944D01*
X026801Y018944D02*
X026945Y018799D01*
X025706Y019404D02*
X026139Y019404D01*
X025706Y018439D02*
X026139Y018439D01*
Y019404D01*
X025706Y018439D02*
Y019404D01*
X025923Y018813D02*
Y01903D01*
X025815Y018921D02*
X026031Y018921D01*
X025323Y018684D02*
Y019058D01*
X025136Y018871D02*
X02551D01*
X025323Y018689D02*
Y019063D01*
X025136Y018876D02*
X02551D01*
X021323Y014984D02*
Y015358D01*
X021136Y015171D02*
X02151D01*
X020352Y018721D02*
X020726D01*
X020539Y018534D02*
Y018908D01*
X024486Y018921D02*
X02486D01*
X024673Y018734D02*
Y019108D01*
X021923Y014263D02*
X021923Y01448D01*
X021815Y014371D02*
X022031D01*
X021441Y014155D02*
X022405D01*
X021441Y014588D02*
X022405D01*
X022405Y014155D02*
X022405Y014588D01*
X021441Y014155D02*
Y014588D01*
X025873Y013634D02*
Y014008D01*
X025686Y013821D02*
X02606D01*
X023884Y015861D02*
X024162Y015582D01*
X023884D02*
X024162Y015861D01*
X021136Y015221D02*
X02151D01*
X021323Y015034D02*
Y015408D01*
X021376Y018371D02*
X02177D01*
X021573Y018174D02*
Y018568D01*
X01852Y018721D02*
X018894D01*
X018707Y018534D02*
Y018908D01*
X020473Y013934D02*
X020473Y014308D01*
X020286Y014121D02*
X02066Y014121D01*
X019636Y014121D02*
X02001D01*
X019823Y013934D02*
Y014308D01*
X021736Y013821D02*
X02211D01*
X021923Y013634D02*
Y014008D01*
X043504Y016144D02*
X043649Y015999D01*
X043504Y015999D02*
X043649Y016144D01*
X045976Y016846D02*
Y01705D01*
X045874Y016948D02*
X046079D01*
X046024Y017571D02*
X046229D01*
X046126Y017469D02*
Y017674D01*
X046626Y016669D02*
Y016874D01*
X046524Y016771D02*
X046729D01*
X046626Y016219D02*
Y016424D01*
X046524Y016321D02*
X046729D01*
X045476Y017296D02*
Y0175D01*
X045374Y017398D02*
X045579D01*
X046874Y017571D02*
X047079D01*
X046976Y017469D02*
Y017674D01*
X047626Y017669D02*
Y017874D01*
X047524Y017771D02*
X047729D01*
X045176Y018919D02*
Y019124D01*
X045074Y019021D02*
X045279D01*
X044568D02*
X044785D01*
X044676Y018913D02*
Y01913D01*
X04446Y018539D02*
Y019504D01*
X044893Y018539D02*
Y019504D01*
X04446Y018539D02*
X044893Y018539D01*
X04446Y019504D02*
X044893D01*
X043454Y018799D02*
X043599Y018944D01*
X043454Y018944D02*
X043599Y018799D01*
X04236Y019404D02*
X042793Y019404D01*
X04236Y018439D02*
X042793Y018439D01*
Y019404D01*
X04236Y018439D02*
Y019404D01*
X042576Y018813D02*
Y01903D01*
X042468Y018921D02*
X042685Y018921D01*
X041976Y018684D02*
Y019058D01*
X041789Y018871D02*
X042163D01*
X041976Y018689D02*
Y019063D01*
X041789Y018876D02*
X042163D01*
X037976Y014984D02*
Y015358D01*
X037789Y015171D02*
X038163D01*
X037005Y018721D02*
X037379D01*
X037192Y018534D02*
Y018908D01*
X041139Y018921D02*
X041513D01*
X041326Y018734D02*
Y019108D01*
X038576Y014263D02*
X038576Y01448D01*
X038468Y014371D02*
X038685D01*
X038094Y014155D02*
X039059D01*
X038094Y014588D02*
X039059D01*
X039059Y014155D02*
X039059Y014588D01*
X038094Y014155D02*
Y014588D01*
X042526Y013634D02*
Y014008D01*
X042339Y013821D02*
X042713D01*
X040537Y015861D02*
X040816Y015582D01*
X040537D02*
X040816Y015861D01*
X037789Y015221D02*
X038163D01*
X037976Y015034D02*
Y015408D01*
X03803Y018371D02*
X038423D01*
X038226Y018174D02*
Y018568D01*
X035174Y018721D02*
X035548D01*
X035361Y018534D02*
Y018908D01*
X037126Y013934D02*
X037126Y014308D01*
X036939Y014121D02*
X037313Y014121D01*
X036289Y014121D02*
X036663D01*
X036476Y013934D02*
Y014308D01*
X038389Y013821D02*
X038763D01*
X038576Y013634D02*
Y014008D01*
X026851Y022364D02*
X026995Y022219D01*
X026851Y022219D02*
X026995Y022364D01*
X029323Y023066D02*
Y023271D01*
X029221Y023169D02*
X029425D01*
X029371Y023792D02*
X029575D01*
X029473Y023689D02*
Y023894D01*
X029973Y022889D02*
Y023094D01*
X029871Y022992D02*
X030075D01*
X029973Y022439D02*
Y022644D01*
X029871Y022542D02*
X030075D01*
X028823Y023516D02*
Y023721D01*
X028721Y023619D02*
X028925D01*
X030221Y023792D02*
X030425D01*
X030323Y023689D02*
Y023894D01*
X030973Y023889D02*
Y024094D01*
X030871Y023992D02*
X031075D01*
X028523Y025139D02*
Y025344D01*
X028421Y025242D02*
X028625D01*
X027915D02*
X028131D01*
X028023Y025134D02*
Y02535D01*
X027806Y02476D02*
Y025724D01*
X028239Y02476D02*
Y025724D01*
X027806Y02476D02*
X028239Y02476D01*
X027806Y025724D02*
X028239D01*
X026801Y025019D02*
X026945Y025164D01*
X026801Y025164D02*
X026945Y025019D01*
X025706Y025624D02*
X026139Y025624D01*
X025706Y02466D02*
X026139Y02466D01*
Y025624D01*
X025706Y02466D02*
Y025624D01*
X025923Y025034D02*
Y02525D01*
X025815Y025142D02*
X026031Y025142D01*
X025323Y024905D02*
Y025279D01*
X025136Y025092D02*
X02551D01*
X025323Y02491D02*
Y025284D01*
X025136Y025097D02*
X02551D01*
X021323Y021205D02*
Y021579D01*
X021136Y021392D02*
X02151D01*
X020352Y024942D02*
X020726D01*
X020539Y024755D02*
Y025129D01*
X024486Y025142D02*
X02486D01*
X024673Y024955D02*
Y025329D01*
X021923Y020484D02*
X021923Y0207D01*
X021815Y020592D02*
X022031D01*
X021441Y020375D02*
X022405D01*
X021441Y020808D02*
X022405D01*
X022405Y020375D02*
X022405Y020808D01*
X021441Y020375D02*
Y020808D01*
X025873Y019855D02*
Y020229D01*
X025686Y020042D02*
X02606D01*
X023884Y022081D02*
X024162Y021803D01*
X023884D02*
X024162Y022081D01*
X021136Y021442D02*
X02151D01*
X021323Y021255D02*
Y021629D01*
X021376Y024592D02*
X02177D01*
X021573Y024395D02*
Y024789D01*
X01852Y024942D02*
X018894D01*
X018707Y024755D02*
Y025129D01*
X020473Y020155D02*
X020473Y020529D01*
X020286Y020342D02*
X02066Y020342D01*
X019636Y020342D02*
X02001D01*
X019823Y020155D02*
Y020529D01*
X021736Y020042D02*
X02211D01*
X021923Y019855D02*
Y020229D01*
X043504Y022364D02*
X043649Y022219D01*
X043504Y022219D02*
X043649Y022364D01*
X045976Y023066D02*
Y023271D01*
X045874Y023169D02*
X046079D01*
X046024Y023792D02*
X046229D01*
X046126Y023689D02*
Y023894D01*
X046626Y022889D02*
Y023094D01*
X046524Y022992D02*
X046729D01*
X046626Y022439D02*
Y022644D01*
X046524Y022542D02*
X046729D01*
X045476Y023516D02*
Y023721D01*
X045374Y023619D02*
X045579D01*
X046874Y023792D02*
X047079D01*
X046976Y023689D02*
Y023894D01*
X047626Y023889D02*
Y024094D01*
X047524Y023992D02*
X047729D01*
X045176Y025139D02*
Y025344D01*
X045074Y025242D02*
X045279D01*
X044568D02*
X044785D01*
X044676Y025134D02*
Y02535D01*
X04446Y02476D02*
Y025724D01*
X044893Y02476D02*
Y025724D01*
X04446Y02476D02*
X044893Y02476D01*
X04446Y025724D02*
X044893D01*
X043454Y025019D02*
X043599Y025164D01*
X043454Y025164D02*
X043599Y025019D01*
X04236Y025624D02*
X042793Y025624D01*
X04236Y02466D02*
X042793Y02466D01*
Y025624D01*
X04236Y02466D02*
Y025624D01*
X042576Y025034D02*
Y02525D01*
X042468Y025142D02*
X042685Y025142D01*
X041976Y024905D02*
Y025279D01*
X041789Y025092D02*
X042163D01*
X041976Y02491D02*
Y025284D01*
X041789Y025097D02*
X042163D01*
X037976Y021205D02*
Y021579D01*
X037789Y021392D02*
X038163D01*
X037005Y024942D02*
X037379D01*
X037192Y024755D02*
Y025129D01*
X041139Y025142D02*
X041513D01*
X041326Y024955D02*
Y025329D01*
X038576Y020484D02*
X038576Y0207D01*
X038468Y020592D02*
X038685D01*
X038094Y020375D02*
X039059D01*
X038094Y020808D02*
X039059D01*
X039059Y020375D02*
X039059Y020808D01*
X038094Y020375D02*
Y020808D01*
X042526Y019855D02*
Y020229D01*
X042339Y020042D02*
X042713D01*
X040537Y022081D02*
X040816Y021803D01*
X040537D02*
X040816Y022081D01*
X037789Y021442D02*
X038163D01*
X037976Y021255D02*
Y021629D01*
X03803Y024592D02*
X038423D01*
X038226Y024395D02*
Y024789D01*
X035174Y024942D02*
X035548D01*
X035361Y024755D02*
Y025129D01*
X037126Y020155D02*
X037126Y020529D01*
X036939Y020342D02*
X037313Y020342D01*
X036289Y020342D02*
X036663D01*
X036476Y020155D02*
Y020529D01*
X038389Y020042D02*
X038763D01*
X038576Y019855D02*
Y020229D01*
X026851Y028585D02*
X026995Y02844D01*
X026851Y02844D02*
X026995Y028585D01*
X029323Y029287D02*
Y029491D01*
X029221Y029389D02*
X029425D01*
X029371Y030012D02*
X029575D01*
X029473Y02991D02*
Y030115D01*
X029973Y02911D02*
Y029315D01*
X029871Y029212D02*
X030075D01*
X029973Y02866D02*
Y028865D01*
X029871Y028762D02*
X030075D01*
X028823Y029737D02*
Y029941D01*
X028721Y029839D02*
X028925D01*
X030221Y030012D02*
X030425D01*
X030323Y02991D02*
Y030115D01*
X030973Y03011D02*
Y030315D01*
X030871Y030212D02*
X031075D01*
X028523Y03136D02*
Y031565D01*
X028421Y031462D02*
X028625D01*
X027915D02*
X028131D01*
X028023Y031354D02*
Y031571D01*
X027806Y03098D02*
Y031945D01*
X028239Y03098D02*
Y031945D01*
X027806Y03098D02*
X028239Y03098D01*
X027806Y031945D02*
X028239D01*
X026801Y03124D02*
X026945Y031385D01*
X026801Y031385D02*
X026945Y03124D01*
X025706Y031845D02*
X026139Y031845D01*
X025706Y03088D02*
X026139Y03088D01*
Y031845D01*
X025706Y03088D02*
Y031845D01*
X025923Y031254D02*
Y031471D01*
X025815Y031362D02*
X026031Y031362D01*
X025323Y031125D02*
Y031499D01*
X025136Y031312D02*
X02551D01*
X025323Y03113D02*
Y031504D01*
X025136Y031317D02*
X02551D01*
X021323Y027425D02*
Y027799D01*
X021136Y027612D02*
X02151D01*
X020352Y031162D02*
X020726D01*
X020539Y030975D02*
Y031349D01*
X024486Y031362D02*
X02486D01*
X024673Y031175D02*
Y031549D01*
X021923Y026704D02*
X021923Y026921D01*
X021815Y026812D02*
X022031D01*
X021441Y026596D02*
X022405D01*
X021441Y027029D02*
X022405D01*
X022405Y026596D02*
X022405Y027029D01*
X021441Y026596D02*
Y027029D01*
X025873Y026075D02*
Y026449D01*
X025686Y026262D02*
X02606D01*
X023884Y028301D02*
X024162Y028023D01*
X023884D02*
X024162Y028301D01*
X021136Y027662D02*
X02151D01*
X021323Y027475D02*
Y027849D01*
X021376Y030812D02*
X02177D01*
X021573Y030615D02*
Y031009D01*
X01852Y031162D02*
X018894D01*
X018707Y030975D02*
Y031349D01*
X020473Y026375D02*
X020473Y026749D01*
X020286Y026562D02*
X02066Y026562D01*
X019636Y026562D02*
X02001D01*
X019823Y026375D02*
Y026749D01*
X021736Y026262D02*
X02211D01*
X021923Y026075D02*
Y026449D01*
X043504Y028585D02*
X043649Y02844D01*
X043504Y02844D02*
X043649Y028585D01*
X045976Y029287D02*
Y029491D01*
X045874Y029389D02*
X046079D01*
X046024Y030012D02*
X046229D01*
X046126Y02991D02*
Y030115D01*
X046626Y02911D02*
Y029315D01*
X046524Y029212D02*
X046729D01*
X046626Y02866D02*
Y028865D01*
X046524Y028762D02*
X046729D01*
X045476Y029737D02*
Y029941D01*
X045374Y029839D02*
X045579D01*
X046874Y030012D02*
X047079D01*
X046976Y02991D02*
Y030115D01*
X047626Y03011D02*
Y030315D01*
X047524Y030212D02*
X047729D01*
X045176Y03136D02*
Y031565D01*
X045074Y031462D02*
X045279D01*
X044568D02*
X044785D01*
X044676Y031354D02*
Y031571D01*
X04446Y03098D02*
Y031945D01*
X044893Y03098D02*
Y031945D01*
X04446Y03098D02*
X044893Y03098D01*
X04446Y031945D02*
X044893D01*
X043454Y03124D02*
X043599Y031385D01*
X043454Y031385D02*
X043599Y03124D01*
X04236Y031845D02*
X042793Y031845D01*
X04236Y03088D02*
X042793Y03088D01*
Y031845D01*
X04236Y03088D02*
Y031845D01*
X042576Y031254D02*
Y031471D01*
X042468Y031362D02*
X042685Y031362D01*
X041976Y031125D02*
Y031499D01*
X041789Y031312D02*
X042163D01*
X041976Y03113D02*
Y031504D01*
X041789Y031317D02*
X042163D01*
X037976Y027425D02*
Y027799D01*
X037789Y027612D02*
X038163D01*
X037005Y031162D02*
X037379D01*
X037192Y030975D02*
Y031349D01*
X041139Y031362D02*
X041513D01*
X041326Y031175D02*
Y031549D01*
X038576Y026704D02*
X038576Y026921D01*
X038468Y026812D02*
X038685D01*
X038094Y026596D02*
X039059D01*
X038094Y027029D02*
X039059D01*
X039059Y026596D02*
X039059Y027029D01*
X038094Y026596D02*
Y027029D01*
X042526Y026075D02*
Y026449D01*
X042339Y026262D02*
X042713D01*
X040537Y028301D02*
X040816Y028023D01*
X040537D02*
X040816Y028301D01*
X037789Y027662D02*
X038163D01*
X037976Y027475D02*
Y027849D01*
X03803Y030812D02*
X038423D01*
X038226Y030615D02*
Y031009D01*
X035174Y031162D02*
X035548D01*
X035361Y030975D02*
Y031349D01*
X037126Y026375D02*
X037126Y026749D01*
X036939Y026562D02*
X037313Y026562D01*
X036289Y026562D02*
X036663D01*
X036476Y026375D02*
Y026749D01*
X038389Y026262D02*
X038763D01*
X038576Y026075D02*
Y026449D01*
X026851Y034805D02*
X026995Y03466D01*
X026851Y03466D02*
X026995Y034805D01*
X029323Y035507D02*
Y035712D01*
X029221Y03561D02*
X029425D01*
X029371Y036233D02*
X029575D01*
X029473Y03613D02*
Y036335D01*
X029973Y03533D02*
Y035535D01*
X029871Y035433D02*
X030075D01*
X029973Y03488D02*
Y035085D01*
X029871Y034983D02*
X030075D01*
X028823Y035957D02*
Y036162D01*
X028721Y03606D02*
X028925D01*
X030221Y036233D02*
X030425D01*
X030323Y03613D02*
Y036335D01*
X030973Y03633D02*
Y036535D01*
X030871Y036433D02*
X031075D01*
X028523Y03758D02*
Y037785D01*
X028421Y037683D02*
X028625D01*
X027915D02*
X028131D01*
X028023Y037574D02*
Y037791D01*
X027806Y0372D02*
Y038165D01*
X028239Y0372D02*
Y038165D01*
X027806Y0372D02*
X028239Y0372D01*
X027806Y038165D02*
X028239D01*
X026801Y03746D02*
X026945Y037605D01*
X026801Y037605D02*
X026945Y03746D01*
X025706Y038065D02*
X026139Y038065D01*
X025706Y0371D02*
X026139Y0371D01*
Y038065D01*
X025706Y0371D02*
Y038065D01*
X025923Y037474D02*
Y037691D01*
X025815Y037583D02*
X026031Y037583D01*
X025323Y037346D02*
Y03772D01*
X025136Y037533D02*
X02551D01*
X025323Y03735D02*
Y037724D01*
X025136Y037537D02*
X02551D01*
X021323Y033646D02*
Y03402D01*
X021136Y033833D02*
X02151D01*
X020352Y037383D02*
X020726D01*
X020539Y037196D02*
Y03757D01*
X024486Y037583D02*
X02486D01*
X024673Y037396D02*
Y03777D01*
X021923Y032924D02*
X021923Y033141D01*
X021815Y033033D02*
X022031D01*
X021441Y032816D02*
X022405D01*
X021441Y033249D02*
X022405D01*
X022405Y032816D02*
X022405Y033249D01*
X021441Y032816D02*
Y033249D01*
X025873Y032296D02*
Y03267D01*
X025686Y032483D02*
X02606D01*
X023884Y034522D02*
X024162Y034244D01*
X023884D02*
X024162Y034522D01*
X021136Y033883D02*
X02151D01*
X021323Y033696D02*
Y03407D01*
X021376Y037033D02*
X02177D01*
X021573Y036836D02*
Y03723D01*
X01852Y037383D02*
X018894D01*
X018707Y037196D02*
Y03757D01*
X020473Y032596D02*
X020473Y03297D01*
X020286Y032783D02*
X02066Y032783D01*
X019636Y032783D02*
X02001D01*
X019823Y032596D02*
Y03297D01*
X021736Y032483D02*
X02211D01*
X021923Y032296D02*
Y03267D01*
X043504Y034805D02*
X043649Y03466D01*
X043504Y03466D02*
X043649Y034805D01*
X045976Y035507D02*
Y035712D01*
X045874Y03561D02*
X046079D01*
X046024Y036233D02*
X046229D01*
X046126Y03613D02*
Y036335D01*
X046626Y03533D02*
Y035535D01*
X046524Y035433D02*
X046729D01*
X046626Y03488D02*
Y035085D01*
X046524Y034983D02*
X046729D01*
X045476Y035957D02*
Y036162D01*
X045374Y03606D02*
X045579D01*
X046874Y036233D02*
X047079D01*
X046976Y03613D02*
Y036335D01*
X047626Y03633D02*
Y036535D01*
X047524Y036433D02*
X047729D01*
X045176Y03758D02*
Y037785D01*
X045074Y037683D02*
X045279D01*
X044568D02*
X044785D01*
X044676Y037574D02*
Y037791D01*
X04446Y0372D02*
Y038165D01*
X044893Y0372D02*
Y038165D01*
X04446Y0372D02*
X044893Y0372D01*
X04446Y038165D02*
X044893D01*
X043454Y03746D02*
X043599Y037605D01*
X043454Y037605D02*
X043599Y03746D01*
X04236Y038065D02*
X042793Y038065D01*
X04236Y0371D02*
X042793Y0371D01*
Y038065D01*
X04236Y0371D02*
Y038065D01*
X042576Y037474D02*
Y037691D01*
X042468Y037583D02*
X042685Y037583D01*
X041976Y037346D02*
Y03772D01*
X041789Y037533D02*
X042163D01*
X041976Y03735D02*
Y037724D01*
X041789Y037537D02*
X042163D01*
X037976Y033646D02*
Y03402D01*
X037789Y033833D02*
X038163D01*
X037005Y037383D02*
X037379D01*
X037192Y037196D02*
Y03757D01*
X041139Y037583D02*
X041513D01*
X041326Y037396D02*
Y03777D01*
X038576Y032924D02*
X038576Y033141D01*
X038468Y033033D02*
X038685D01*
X038094Y032816D02*
X039059D01*
X038094Y033249D02*
X039059D01*
X039059Y032816D02*
X039059Y033249D01*
X038094Y032816D02*
Y033249D01*
X042526Y032296D02*
Y03267D01*
X042339Y032483D02*
X042713D01*
X040537Y034522D02*
X040816Y034244D01*
X040537D02*
X040816Y034522D01*
X037789Y033883D02*
X038163D01*
X037976Y033696D02*
Y03407D01*
X03803Y037033D02*
X038423D01*
X038226Y036836D02*
Y03723D01*
X035174Y037383D02*
X035548D01*
X035361Y037196D02*
Y03757D01*
X037126Y032596D02*
X037126Y03297D01*
X036939Y032783D02*
X037313Y032783D01*
X036289Y032783D02*
X036663D01*
X036476Y032596D02*
Y03297D01*
X038389Y032483D02*
X038763D01*
X038576Y032296D02*
Y03267D01*
X026851Y041026D02*
X026995Y040881D01*
X026851Y040881D02*
X026995Y041026D01*
X029323Y041728D02*
Y041932D01*
X029221Y04183D02*
X029425D01*
X029371Y042453D02*
X029575D01*
X029473Y042351D02*
Y042556D01*
X029973Y041551D02*
Y041756D01*
X029871Y041653D02*
X030075D01*
X029973Y041101D02*
Y041306D01*
X029871Y041203D02*
X030075D01*
X028823Y042178D02*
Y042382D01*
X028721Y04228D02*
X028925D01*
X030221Y042453D02*
X030425D01*
X030323Y042351D02*
Y042556D01*
X030973Y042551D02*
Y042756D01*
X030871Y042653D02*
X031075D01*
X028523Y043801D02*
Y044006D01*
X028421Y043903D02*
X028625D01*
X027915D02*
X028131D01*
X028023Y043795D02*
Y044011D01*
X027806Y043421D02*
Y044385D01*
X028239Y043421D02*
Y044385D01*
X027806Y043421D02*
X028239Y043421D01*
X027806Y044385D02*
X028239D01*
X026801Y043681D02*
X026945Y043826D01*
X026801Y043826D02*
X026945Y043681D01*
X025706Y044285D02*
X026139Y044285D01*
X025706Y043321D02*
X026139Y043321D01*
Y044285D01*
X025706Y043321D02*
Y044285D01*
X025923Y043695D02*
Y043911D01*
X025815Y043803D02*
X026031Y043803D01*
X025323Y043566D02*
Y04394D01*
X025136Y043753D02*
X02551D01*
X025323Y043571D02*
Y043945D01*
X025136Y043758D02*
X02551D01*
X021323Y039866D02*
Y04024D01*
X021136Y040053D02*
X02151D01*
X020352Y043603D02*
X020726D01*
X020539Y043416D02*
Y04379D01*
X024486Y043803D02*
X02486D01*
X024673Y043616D02*
Y04399D01*
X021923Y039145D02*
X021923Y039361D01*
X021815Y039253D02*
X022031D01*
X021441Y039037D02*
X022405D01*
X021441Y03947D02*
X022405D01*
X022405Y039037D02*
X022405Y03947D01*
X021441Y039037D02*
Y03947D01*
X025873Y038516D02*
Y03889D01*
X025686Y038703D02*
X02606D01*
X023884Y040742D02*
X024162Y040464D01*
X023884D02*
X024162Y040742D01*
X021136Y040103D02*
X02151D01*
X021323Y039916D02*
Y04029D01*
X021376Y043253D02*
X02177D01*
X021573Y043056D02*
Y04345D01*
X01852Y043603D02*
X018894D01*
X018707Y043416D02*
Y04379D01*
X020473Y038816D02*
X020473Y03919D01*
X020286Y039003D02*
X02066Y039003D01*
X019636Y039003D02*
X02001D01*
X019823Y038816D02*
Y03919D01*
X021736Y038703D02*
X02211D01*
X021923Y038516D02*
Y03889D01*
X043504Y041026D02*
X043649Y040881D01*
X043504Y040881D02*
X043649Y041026D01*
X045976Y041728D02*
Y041932D01*
X045874Y04183D02*
X046079D01*
X046024Y042453D02*
X046229D01*
X046126Y042351D02*
Y042556D01*
X046626Y041551D02*
Y041756D01*
X046524Y041653D02*
X046729D01*
X046626Y041101D02*
Y041306D01*
X046524Y041203D02*
X046729D01*
X045476Y042178D02*
Y042382D01*
X045374Y04228D02*
X045579D01*
X046874Y042453D02*
X047079D01*
X046976Y042351D02*
Y042556D01*
X047626Y042551D02*
Y042756D01*
X047524Y042653D02*
X047729D01*
X045176Y043801D02*
Y044006D01*
X045074Y043903D02*
X045279D01*
X044568D02*
X044785D01*
X044676Y043795D02*
Y044011D01*
X04446Y043421D02*
Y044385D01*
X044893Y043421D02*
Y044385D01*
X04446Y043421D02*
X044893Y043421D01*
X04446Y044385D02*
X044893D01*
X043454Y043681D02*
X043599Y043826D01*
X043454Y043826D02*
X043599Y043681D01*
X04236Y044285D02*
X042793Y044285D01*
X04236Y043321D02*
X042793Y043321D01*
Y044285D01*
X04236Y043321D02*
Y044285D01*
X042576Y043695D02*
Y043911D01*
X042468Y043803D02*
X042685Y043803D01*
X041976Y043566D02*
Y04394D01*
X041789Y043753D02*
X042163D01*
X041976Y043571D02*
Y043945D01*
X041789Y043758D02*
X042163D01*
X037976Y039866D02*
Y04024D01*
X037789Y040053D02*
X038163D01*
X037005Y043603D02*
X037379D01*
X037192Y043416D02*
Y04379D01*
X041139Y043803D02*
X041513D01*
X041326Y043616D02*
Y04399D01*
X038576Y039145D02*
X038576Y039361D01*
X038468Y039253D02*
X038685D01*
X038094Y039037D02*
X039059D01*
X038094Y03947D02*
X039059D01*
X039059Y039037D02*
X039059Y03947D01*
X038094Y039037D02*
Y03947D01*
X042526Y038516D02*
Y03889D01*
X042339Y038703D02*
X042713D01*
X040537Y040742D02*
X040816Y040464D01*
X040537D02*
X040816Y040742D01*
X037789Y040103D02*
X038163D01*
X037976Y039916D02*
Y04029D01*
X03803Y043253D02*
X038423D01*
X038226Y043056D02*
Y04345D01*
X035174Y043603D02*
X035548D01*
X035361Y043416D02*
Y04379D01*
X037126Y038816D02*
X037126Y03919D01*
X036939Y039003D02*
X037313Y039003D01*
X036289Y039003D02*
X036663D01*
X036476Y038816D02*
Y03919D01*
X038389Y038703D02*
X038763D01*
X038576Y038516D02*
Y03889D01*
D94*
X037858Y015065D02*
Y017978D01*
X032413D02*
X037858D01*
X032413Y015065D02*
Y017978D01*
Y015065D02*
X037858D01*
X027048Y015668D02*
X027327Y015946D01*
X026519Y016197D02*
X026798Y016475D01*
X026519Y016197D02*
X027048Y015668D01*
X026798Y016475D02*
X027327Y015946D01*
X029126Y016574D02*
X02952Y016574D01*
X029126Y017322D02*
X02952D01*
X029126Y016574D02*
Y017322D01*
X02952Y016574D02*
Y017322D01*
X029099Y017374D02*
Y017768D01*
X029847Y017374D02*
Y017768D01*
X029099D02*
X029847D01*
X029099Y017374D02*
X029847D01*
X027095Y014849D02*
X028551D01*
X027095D02*
Y015794D01*
X028551D01*
Y014849D02*
Y015794D01*
X029599Y016968D02*
X030347D01*
X029599Y016574D02*
X030347D01*
X029599D02*
Y016968D01*
X030347D02*
X030347Y016574D01*
X029599Y016518D02*
X030347D01*
X029599Y016124D02*
X030347D01*
X029599D02*
Y016518D01*
X030347D02*
X030347Y016124D01*
X028626Y017024D02*
X02902Y017024D01*
X028626Y017772D02*
X02902D01*
X028626Y017024D02*
Y017772D01*
X02902Y017024D02*
Y017772D01*
X030697Y017374D02*
Y017768D01*
X029949D02*
X029949Y017374D01*
X030697D01*
X029949Y017768D02*
X030697D01*
X030776Y017397D02*
X03117Y017397D01*
X030776Y018145D02*
X03117Y018145D01*
X030776Y017397D02*
Y018145D01*
X03117Y017397D02*
Y018145D01*
X028326Y019395D02*
X02872Y019395D01*
X028326Y018647D02*
X02872D01*
Y019395D01*
X028326Y018647D02*
Y019395D01*
X026469Y018746D02*
X026748Y018468D01*
X026998Y019275D02*
X027277Y018997D01*
X026469Y018746D02*
X026998Y019275D01*
X026748Y018468D02*
X027277Y018997D01*
X025028Y019403D02*
X025618D01*
X025028Y01834D02*
X025618Y01834D01*
Y019403D01*
X025028Y01834D02*
Y019403D01*
Y018326D02*
X025618Y018326D01*
X025028Y019426D02*
X025618Y019426D01*
Y018326D02*
Y019426D01*
X025028Y018326D02*
Y019426D01*
X021028Y01464D02*
X021618Y01464D01*
X021028Y015703D02*
X021618Y015703D01*
Y01464D02*
Y015703D01*
X021028Y01464D02*
Y015703D01*
X02107Y018426D02*
X02107Y019017D01*
X020007D02*
X020007Y018426D01*
X02107D01*
X020007Y019017D02*
X02107D01*
X021787Y017836D02*
X023559D01*
Y019607D01*
X021787D02*
X023559D01*
X021787Y017836D02*
Y019607D01*
X028592Y016428D02*
Y018479D01*
X026541Y016428D02*
Y018479D01*
X028592D01*
X026541Y016428D02*
X028592D01*
X024968Y01839D02*
Y019453D01*
X024378Y01839D02*
Y019453D01*
X024968Y019453D01*
X024378Y01839D02*
X024968Y01839D01*
X025341Y013526D02*
X026404D01*
X025341Y014117D02*
X026404D01*
X026404Y013526D02*
X026404Y014117D01*
X025341D02*
X025341Y013526D01*
X024023Y012826D02*
X026918Y015721D01*
X021128D02*
X024023Y018617D01*
X021128Y015721D02*
X024023Y012826D01*
Y018617D02*
X026918Y015721D01*
X021028Y01469D02*
Y015753D01*
X021618Y01469D02*
Y015753D01*
X021028Y01469D02*
X021618Y01469D01*
X021028Y015753D02*
X021618Y015753D01*
X02114Y01934D02*
X022023D01*
Y017403D02*
Y01934D01*
X02114Y017403D02*
Y01934D01*
Y017403D02*
X022023D01*
X019239Y018426D02*
X019239Y019017D01*
X018176D02*
X018176Y018426D01*
X019239D01*
X018176Y019017D02*
X019239D01*
X019854Y01741D02*
X021192D01*
X019854D02*
Y019032D01*
X021192D01*
Y01741D02*
Y019032D01*
X020178Y014671D02*
X020768Y014671D01*
X020178Y013571D02*
X020768Y013571D01*
X020178Y013571D02*
Y014671D01*
X020768Y013571D02*
Y014671D01*
X019528Y01359D02*
Y014653D01*
X020118Y01359D02*
Y014653D01*
X019528Y014653D02*
X020118Y014653D01*
X019528Y01359D02*
X020118D01*
X015412Y016485D02*
X015688D01*
X01555Y016348D02*
Y016623D01*
X019692Y015797D02*
Y017146D01*
Y015797D02*
X021354D01*
Y017146D01*
X019692D02*
X021354D01*
X022454Y013526D02*
X022454Y014117D01*
X021391D02*
X021391Y013526D01*
X022454D01*
X021391Y014117D02*
X022454D01*
X023992Y014422D02*
X025022Y015452D01*
X024354Y01612D02*
X025022Y015452D01*
X023324Y01509D02*
X024354Y01612D01*
X023324Y01509D02*
X023992Y014422D01*
X054512Y015065D02*
Y017978D01*
X049067D02*
X054512D01*
X049067Y015065D02*
Y017978D01*
Y015065D02*
X054512D01*
X043702Y015668D02*
X04398Y015946D01*
X043173Y016197D02*
X043451Y016475D01*
X043173Y016197D02*
X043702Y015668D01*
X043451Y016475D02*
X04398Y015946D01*
X04578Y016574D02*
X046173Y016574D01*
X04578Y017322D02*
X046173D01*
X04578Y016574D02*
Y017322D01*
X046173Y016574D02*
Y017322D01*
X045752Y017374D02*
Y017768D01*
X0465Y017374D02*
Y017768D01*
X045752D02*
X0465D01*
X045752Y017374D02*
X0465D01*
X043748Y014849D02*
X045205D01*
X043748D02*
Y015794D01*
X045205D01*
Y014849D02*
Y015794D01*
X046252Y016968D02*
X047D01*
X046252Y016574D02*
X047D01*
X046252D02*
Y016968D01*
X047D02*
X047Y016574D01*
X046252Y016518D02*
X047D01*
X046252Y016124D02*
X047D01*
X046252D02*
Y016518D01*
X047D02*
X047Y016124D01*
X04528Y017024D02*
X045673Y017024D01*
X04528Y017772D02*
X045673D01*
X04528Y017024D02*
Y017772D01*
X045673Y017024D02*
Y017772D01*
X04735Y017374D02*
Y017768D01*
X046602D02*
X046602Y017374D01*
X04735D01*
X046602Y017768D02*
X04735D01*
X04743Y017397D02*
X047823Y017397D01*
X04743Y018145D02*
X047823Y018145D01*
X04743Y017397D02*
Y018145D01*
X047823Y017397D02*
Y018145D01*
X04498Y019395D02*
X045373Y019395D01*
X04498Y018647D02*
X045373D01*
Y019395D01*
X04498Y018647D02*
Y019395D01*
X043123Y018746D02*
X043401Y018468D01*
X043652Y019275D02*
X04393Y018997D01*
X043123Y018746D02*
X043652Y019275D01*
X043401Y018468D02*
X04393Y018997D01*
X041681Y019403D02*
X042272D01*
X041681Y01834D02*
X042272Y01834D01*
Y019403D01*
X041681Y01834D02*
Y019403D01*
Y018326D02*
X042272Y018326D01*
X041681Y019426D02*
X042272Y019426D01*
Y018326D02*
Y019426D01*
X041681Y018326D02*
Y019426D01*
X037681Y01464D02*
X038272Y01464D01*
X037681Y015703D02*
X038272Y015703D01*
Y01464D02*
Y015703D01*
X037681Y01464D02*
Y015703D01*
X037724Y018426D02*
X037724Y019017D01*
X036661D02*
X036661Y018426D01*
X037724D01*
X036661Y019017D02*
X037724D01*
X038441Y017836D02*
X040212D01*
Y019607D01*
X038441D02*
X040212D01*
X038441Y017836D02*
Y019607D01*
X045246Y016428D02*
Y018479D01*
X043195Y016428D02*
Y018479D01*
X045246D01*
X043195Y016428D02*
X045246D01*
X041622Y01839D02*
Y019453D01*
X041031Y01839D02*
Y019453D01*
X041622Y019453D01*
X041031Y01839D02*
X041622Y01839D01*
X041995Y013526D02*
X043058D01*
X041995Y014117D02*
X043058D01*
X043058Y013526D02*
X043058Y014117D01*
X041995D02*
X041995Y013526D01*
X040676Y012826D02*
X043572Y015721D01*
X037781D02*
X040676Y018617D01*
X037781Y015721D02*
X040676Y012826D01*
Y018617D02*
X043572Y015721D01*
X037681Y01469D02*
Y015753D01*
X038272Y01469D02*
Y015753D01*
X037681Y01469D02*
X038272Y01469D01*
X037681Y015753D02*
X038272Y015753D01*
X037793Y01934D02*
X038676D01*
Y017403D02*
Y01934D01*
X037793Y017403D02*
Y01934D01*
Y017403D02*
X038676D01*
X035892Y018426D02*
X035892Y019017D01*
X034829D02*
X034829Y018426D01*
X035892D01*
X034829Y019017D02*
X035892D01*
X036507Y01741D02*
X037846D01*
X036507D02*
Y019032D01*
X037846D01*
Y01741D02*
Y019032D01*
X036831Y014671D02*
X037422Y014671D01*
X036831Y013571D02*
X037422Y013571D01*
X036831Y013571D02*
Y014671D01*
X037422Y013571D02*
Y014671D01*
X036181Y01359D02*
Y014653D01*
X036772Y01359D02*
Y014653D01*
X036181Y014653D02*
X036772Y014653D01*
X036181Y01359D02*
X036772D01*
X032066Y016485D02*
X032341D01*
X032204Y016348D02*
Y016623D01*
X036346Y015797D02*
Y017146D01*
Y015797D02*
X038007D01*
Y017146D01*
X036346D02*
X038007D01*
X039108Y013526D02*
X039108Y014117D01*
X038045D02*
X038045Y013526D01*
X039108D01*
X038045Y014117D02*
X039108D01*
X040645Y014422D02*
X041676Y015452D01*
X041007Y01612D02*
X041676Y015452D01*
X039977Y01509D02*
X041007Y01612D01*
X039977Y01509D02*
X040645Y014422D01*
X037858Y021285D02*
Y024198D01*
X032413D02*
X037858D01*
X032413Y021285D02*
Y024198D01*
Y021285D02*
X037858D01*
X027048Y021888D02*
X027327Y022167D01*
X026519Y022417D02*
X026798Y022695D01*
X026519Y022417D02*
X027048Y021888D01*
X026798Y022695D02*
X027327Y022167D01*
X029126Y022795D02*
X02952Y022795D01*
X029126Y023543D02*
X02952D01*
X029126Y022795D02*
Y023543D01*
X02952Y022795D02*
Y023543D01*
X029099Y023595D02*
Y023989D01*
X029847Y023595D02*
Y023989D01*
X029099D02*
X029847D01*
X029099Y023595D02*
X029847D01*
X027095Y021069D02*
X028551D01*
X027095D02*
Y022014D01*
X028551D01*
Y021069D02*
Y022014D01*
X029599Y023189D02*
X030347D01*
X029599Y022795D02*
X030347D01*
X029599D02*
Y023189D01*
X030347D02*
X030347Y022795D01*
X029599Y022739D02*
X030347D01*
X029599Y022345D02*
X030347D01*
X029599D02*
Y022739D01*
X030347D02*
X030347Y022345D01*
X028626Y023245D02*
X02902Y023245D01*
X028626Y023993D02*
X02902D01*
X028626Y023245D02*
Y023993D01*
X02902Y023245D02*
Y023993D01*
X030697Y023595D02*
Y023989D01*
X029949D02*
X029949Y023595D01*
X030697D01*
X029949Y023989D02*
X030697D01*
X030776Y023618D02*
X03117Y023618D01*
X030776Y024366D02*
X03117Y024366D01*
X030776Y023618D02*
Y024366D01*
X03117Y023618D02*
Y024366D01*
X028326Y025616D02*
X02872Y025616D01*
X028326Y024868D02*
X02872D01*
Y025616D01*
X028326Y024868D02*
Y025616D01*
X026469Y024967D02*
X026748Y024688D01*
X026998Y025495D02*
X027277Y025217D01*
X026469Y024967D02*
X026998Y025495D01*
X026748Y024688D02*
X027277Y025217D01*
X025028Y025623D02*
X025618D01*
X025028Y02456D02*
X025618Y02456D01*
Y025623D01*
X025028Y02456D02*
Y025623D01*
Y024547D02*
X025618Y024547D01*
X025028Y025647D02*
X025618Y025647D01*
Y024547D02*
Y025647D01*
X025028Y024547D02*
Y025647D01*
X021028Y02086D02*
X021618Y02086D01*
X021028Y021923D02*
X021618Y021923D01*
Y02086D02*
Y021923D01*
X021028Y02086D02*
Y021923D01*
X02107Y024647D02*
X02107Y025237D01*
X020007D02*
X020007Y024647D01*
X02107D01*
X020007Y025237D02*
X02107D01*
X021787Y024056D02*
X023559D01*
Y025828D01*
X021787D02*
X023559D01*
X021787Y024056D02*
Y025828D01*
X028592Y022648D02*
Y0247D01*
X026541Y022648D02*
Y0247D01*
X028592D01*
X026541Y022648D02*
X028592D01*
X024968Y02461D02*
Y025673D01*
X024378Y02461D02*
Y025673D01*
X024968Y025673D01*
X024378Y02461D02*
X024968Y02461D01*
X025341Y019747D02*
X026404D01*
X025341Y020337D02*
X026404D01*
X026404Y019747D02*
X026404Y020337D01*
X025341D02*
X025341Y019747D01*
X024023Y019047D02*
X026918Y021942D01*
X021128D02*
X024023Y024837D01*
X021128Y021942D02*
X024023Y019047D01*
Y024837D02*
X026918Y021942D01*
X021028Y02091D02*
Y021973D01*
X021618Y02091D02*
Y021973D01*
X021028Y02091D02*
X021618Y02091D01*
X021028Y021973D02*
X021618Y021973D01*
X02114Y02556D02*
X022023D01*
Y023623D02*
Y02556D01*
X02114Y023623D02*
Y02556D01*
Y023623D02*
X022023D01*
X019239Y024647D02*
X019239Y025237D01*
X018176D02*
X018176Y024647D01*
X019239D01*
X018176Y025237D02*
X019239D01*
X019854Y023631D02*
X021192D01*
X019854D02*
Y025253D01*
X021192D01*
Y023631D02*
Y025253D01*
X020178Y020892D02*
X020768Y020892D01*
X020178Y019792D02*
X020768Y019792D01*
X020178Y019792D02*
Y020892D01*
X020768Y019792D02*
Y020892D01*
X019528Y01981D02*
Y020873D01*
X020118Y01981D02*
Y020873D01*
X019528Y020873D02*
X020118Y020873D01*
X019528Y01981D02*
X020118D01*
X015412Y022706D02*
X015688D01*
X01555Y022568D02*
Y022844D01*
X019692Y022018D02*
Y023366D01*
Y022018D02*
X021354D01*
Y023366D01*
X019692D02*
X021354D01*
X022454Y019747D02*
X022454Y020337D01*
X021391D02*
X021391Y019747D01*
X022454D01*
X021391Y020337D02*
X022454D01*
X023992Y020643D02*
X025022Y021673D01*
X024354Y022341D02*
X025022Y021673D01*
X023324Y021311D02*
X024354Y022341D01*
X023324Y021311D02*
X023992Y020643D01*
X054512Y021285D02*
Y024198D01*
X049067D02*
X054512D01*
X049067Y021285D02*
Y024198D01*
Y021285D02*
X054512D01*
X043702Y021888D02*
X04398Y022167D01*
X043173Y022417D02*
X043451Y022695D01*
X043173Y022417D02*
X043702Y021888D01*
X043451Y022695D02*
X04398Y022167D01*
X04578Y022795D02*
X046173Y022795D01*
X04578Y023543D02*
X046173D01*
X04578Y022795D02*
Y023543D01*
X046173Y022795D02*
Y023543D01*
X045752Y023595D02*
Y023989D01*
X0465Y023595D02*
Y023989D01*
X045752D02*
X0465D01*
X045752Y023595D02*
X0465D01*
X043748Y021069D02*
X045205D01*
X043748D02*
Y022014D01*
X045205D01*
Y021069D02*
Y022014D01*
X046252Y023189D02*
X047D01*
X046252Y022795D02*
X047D01*
X046252D02*
Y023189D01*
X047D02*
X047Y022795D01*
X046252Y022739D02*
X047D01*
X046252Y022345D02*
X047D01*
X046252D02*
Y022739D01*
X047D02*
X047Y022345D01*
X04528Y023245D02*
X045673Y023245D01*
X04528Y023993D02*
X045673D01*
X04528Y023245D02*
Y023993D01*
X045673Y023245D02*
Y023993D01*
X04735Y023595D02*
Y023989D01*
X046602D02*
X046602Y023595D01*
X04735D01*
X046602Y023989D02*
X04735D01*
X04743Y023618D02*
X047823Y023618D01*
X04743Y024366D02*
X047823Y024366D01*
X04743Y023618D02*
Y024366D01*
X047823Y023618D02*
Y024366D01*
X04498Y025616D02*
X045373Y025616D01*
X04498Y024868D02*
X045373D01*
Y025616D01*
X04498Y024868D02*
Y025616D01*
X043123Y024967D02*
X043401Y024688D01*
X043652Y025495D02*
X04393Y025217D01*
X043123Y024967D02*
X043652Y025495D01*
X043401Y024688D02*
X04393Y025217D01*
X041681Y025623D02*
X042272D01*
X041681Y02456D02*
X042272Y02456D01*
Y025623D01*
X041681Y02456D02*
Y025623D01*
Y024547D02*
X042272Y024547D01*
X041681Y025647D02*
X042272Y025647D01*
Y024547D02*
Y025647D01*
X041681Y024547D02*
Y025647D01*
X037681Y02086D02*
X038272Y02086D01*
X037681Y021923D02*
X038272Y021923D01*
Y02086D02*
Y021923D01*
X037681Y02086D02*
Y021923D01*
X037724Y024647D02*
X037724Y025237D01*
X036661D02*
X036661Y024647D01*
X037724D01*
X036661Y025237D02*
X037724D01*
X038441Y024056D02*
X040212D01*
Y025828D01*
X038441D02*
X040212D01*
X038441Y024056D02*
Y025828D01*
X045246Y022648D02*
Y0247D01*
X043195Y022648D02*
Y0247D01*
X045246D01*
X043195Y022648D02*
X045246D01*
X041622Y02461D02*
Y025673D01*
X041031Y02461D02*
Y025673D01*
X041622Y025673D01*
X041031Y02461D02*
X041622Y02461D01*
X041995Y019747D02*
X043058D01*
X041995Y020337D02*
X043058D01*
X043058Y019747D02*
X043058Y020337D01*
X041995D02*
X041995Y019747D01*
X040676Y019047D02*
X043572Y021942D01*
X037781D02*
X040676Y024837D01*
X037781Y021942D02*
X040676Y019047D01*
Y024837D02*
X043572Y021942D01*
X037681Y02091D02*
Y021973D01*
X038272Y02091D02*
Y021973D01*
X037681Y02091D02*
X038272Y02091D01*
X037681Y021973D02*
X038272Y021973D01*
X037793Y02556D02*
X038676D01*
Y023623D02*
Y02556D01*
X037793Y023623D02*
Y02556D01*
Y023623D02*
X038676D01*
X035892Y024647D02*
X035892Y025237D01*
X034829D02*
X034829Y024647D01*
X035892D01*
X034829Y025237D02*
X035892D01*
X036507Y023631D02*
X037846D01*
X036507D02*
Y025253D01*
X037846D01*
Y023631D02*
Y025253D01*
X036831Y020892D02*
X037422Y020892D01*
X036831Y019792D02*
X037422Y019792D01*
X036831Y019792D02*
Y020892D01*
X037422Y019792D02*
Y020892D01*
X036181Y01981D02*
Y020873D01*
X036772Y01981D02*
Y020873D01*
X036181Y020873D02*
X036772Y020873D01*
X036181Y01981D02*
X036772D01*
X032066Y022706D02*
X032341D01*
X032204Y022568D02*
Y022844D01*
X036346Y022018D02*
Y023366D01*
Y022018D02*
X038007D01*
Y023366D01*
X036346D02*
X038007D01*
X039108Y019747D02*
X039108Y020337D01*
X038045D02*
X038045Y019747D01*
X039108D01*
X038045Y020337D02*
X039108D01*
X040645Y020643D02*
X041676Y021673D01*
X041007Y022341D02*
X041676Y021673D01*
X039977Y021311D02*
X041007Y022341D01*
X039977Y021311D02*
X040645Y020643D01*
X037858Y027506D02*
Y030419D01*
X032413D02*
X037858D01*
X032413Y027506D02*
Y030419D01*
Y027506D02*
X037858D01*
X027048Y028109D02*
X027327Y028387D01*
X026519Y028638D02*
X026798Y028916D01*
X026519Y028638D02*
X027048Y028109D01*
X026798Y028916D02*
X027327Y028387D01*
X029126Y029015D02*
X02952Y029015D01*
X029126Y029763D02*
X02952D01*
X029126Y029015D02*
Y029763D01*
X02952Y029015D02*
Y029763D01*
X029099Y029815D02*
Y030209D01*
X029847Y029815D02*
Y030209D01*
X029099D02*
X029847D01*
X029099Y029815D02*
X029847D01*
X027095Y02729D02*
X028551D01*
X027095D02*
Y028235D01*
X028551D01*
Y02729D02*
Y028235D01*
X029599Y029409D02*
X030347D01*
X029599Y029015D02*
X030347D01*
X029599D02*
Y029409D01*
X030347D02*
X030347Y029015D01*
X029599Y028959D02*
X030347D01*
X029599Y028565D02*
X030347D01*
X029599D02*
Y028959D01*
X030347D02*
X030347Y028565D01*
X028626Y029465D02*
X02902Y029465D01*
X028626Y030213D02*
X02902D01*
X028626Y029465D02*
Y030213D01*
X02902Y029465D02*
Y030213D01*
X030697Y029815D02*
Y030209D01*
X029949D02*
X029949Y029815D01*
X030697D01*
X029949Y030209D02*
X030697D01*
X030776Y029838D02*
X03117Y029838D01*
X030776Y030586D02*
X03117Y030586D01*
X030776Y029838D02*
Y030586D01*
X03117Y029838D02*
Y030586D01*
X028326Y031836D02*
X02872Y031836D01*
X028326Y031088D02*
X02872D01*
Y031836D01*
X028326Y031088D02*
Y031836D01*
X026469Y031187D02*
X026748Y030909D01*
X026998Y031716D02*
X027277Y031438D01*
X026469Y031187D02*
X026998Y031716D01*
X026748Y030909D02*
X027277Y031438D01*
X025028Y031844D02*
X025618D01*
X025028Y030781D02*
X025618Y030781D01*
Y031844D01*
X025028Y030781D02*
Y031844D01*
Y030767D02*
X025618Y030767D01*
X025028Y031867D02*
X025618Y031867D01*
Y030767D02*
Y031867D01*
X025028Y030767D02*
Y031867D01*
X021028Y027081D02*
X021618Y027081D01*
X021028Y028144D02*
X021618Y028144D01*
Y027081D02*
Y028144D01*
X021028Y027081D02*
Y028144D01*
X02107Y030867D02*
X02107Y031458D01*
X020007D02*
X020007Y030867D01*
X02107D01*
X020007Y031458D02*
X02107D01*
X021787Y030276D02*
X023559D01*
Y032048D01*
X021787D02*
X023559D01*
X021787Y030276D02*
Y032048D01*
X028592Y028869D02*
Y03092D01*
X026541Y028869D02*
Y03092D01*
X028592D01*
X026541Y028869D02*
X028592D01*
X024968Y030831D02*
Y031894D01*
X024378Y030831D02*
Y031894D01*
X024968Y031894D01*
X024378Y030831D02*
X024968Y030831D01*
X025341Y025967D02*
X026404D01*
X025341Y026558D02*
X026404D01*
X026404Y025967D02*
X026404Y026558D01*
X025341D02*
X025341Y025967D01*
X024023Y025267D02*
X026918Y028162D01*
X021128D02*
X024023Y031058D01*
X021128Y028162D02*
X024023Y025267D01*
Y031058D02*
X026918Y028162D01*
X021028Y027131D02*
Y028194D01*
X021618Y027131D02*
Y028194D01*
X021028Y027131D02*
X021618Y027131D01*
X021028Y028194D02*
X021618Y028194D01*
X02114Y031781D02*
X022023D01*
Y029844D02*
Y031781D01*
X02114Y029844D02*
Y031781D01*
Y029844D02*
X022023D01*
X019239Y030867D02*
X019239Y031458D01*
X018176D02*
X018176Y030867D01*
X019239D01*
X018176Y031458D02*
X019239D01*
X019854Y029851D02*
X021192D01*
X019854D02*
Y031473D01*
X021192D01*
Y029851D02*
Y031473D01*
X020178Y027112D02*
X020768Y027112D01*
X020178Y026012D02*
X020768Y026012D01*
X020178Y026012D02*
Y027112D01*
X020768Y026012D02*
Y027112D01*
X019528Y026031D02*
Y027094D01*
X020118Y026031D02*
Y027094D01*
X019528Y027094D02*
X020118Y027094D01*
X019528Y026031D02*
X020118D01*
X015412Y028926D02*
X015688D01*
X01555Y028789D02*
Y029064D01*
X019692Y028238D02*
Y029586D01*
Y028238D02*
X021354D01*
Y029586D01*
X019692D02*
X021354D01*
X022454Y025967D02*
X022454Y026558D01*
X021391D02*
X021391Y025967D01*
X022454D01*
X021391Y026558D02*
X022454D01*
X023992Y026863D02*
X025022Y027893D01*
X024354Y028561D02*
X025022Y027893D01*
X023324Y027531D02*
X024354Y028561D01*
X023324Y027531D02*
X023992Y026863D01*
X054512Y027506D02*
Y030419D01*
X049067D02*
X054512D01*
X049067Y027506D02*
Y030419D01*
Y027506D02*
X054512D01*
X043702Y028109D02*
X04398Y028387D01*
X043173Y028638D02*
X043451Y028916D01*
X043173Y028638D02*
X043702Y028109D01*
X043451Y028916D02*
X04398Y028387D01*
X04578Y029015D02*
X046173Y029015D01*
X04578Y029763D02*
X046173D01*
X04578Y029015D02*
Y029763D01*
X046173Y029015D02*
Y029763D01*
X045752Y029815D02*
Y030209D01*
X0465Y029815D02*
Y030209D01*
X045752D02*
X0465D01*
X045752Y029815D02*
X0465D01*
X043748Y02729D02*
X045205D01*
X043748D02*
Y028235D01*
X045205D01*
Y02729D02*
Y028235D01*
X046252Y029409D02*
X047D01*
X046252Y029015D02*
X047D01*
X046252D02*
Y029409D01*
X047D02*
X047Y029015D01*
X046252Y028959D02*
X047D01*
X046252Y028565D02*
X047D01*
X046252D02*
Y028959D01*
X047D02*
X047Y028565D01*
X04528Y029465D02*
X045673Y029465D01*
X04528Y030213D02*
X045673D01*
X04528Y029465D02*
Y030213D01*
X045673Y029465D02*
Y030213D01*
X04735Y029815D02*
Y030209D01*
X046602D02*
X046602Y029815D01*
X04735D01*
X046602Y030209D02*
X04735D01*
X04743Y029838D02*
X047823Y029838D01*
X04743Y030586D02*
X047823Y030586D01*
X04743Y029838D02*
Y030586D01*
X047823Y029838D02*
Y030586D01*
X04498Y031836D02*
X045373Y031836D01*
X04498Y031088D02*
X045373D01*
Y031836D01*
X04498Y031088D02*
Y031836D01*
X043123Y031187D02*
X043401Y030909D01*
X043652Y031716D02*
X04393Y031438D01*
X043123Y031187D02*
X043652Y031716D01*
X043401Y030909D02*
X04393Y031438D01*
X041681Y031844D02*
X042272D01*
X041681Y030781D02*
X042272Y030781D01*
Y031844D01*
X041681Y030781D02*
Y031844D01*
Y030767D02*
X042272Y030767D01*
X041681Y031867D02*
X042272Y031867D01*
Y030767D02*
Y031867D01*
X041681Y030767D02*
Y031867D01*
X037681Y027081D02*
X038272Y027081D01*
X037681Y028144D02*
X038272Y028144D01*
Y027081D02*
Y028144D01*
X037681Y027081D02*
Y028144D01*
X037724Y030867D02*
X037724Y031458D01*
X036661D02*
X036661Y030867D01*
X037724D01*
X036661Y031458D02*
X037724D01*
X038441Y030276D02*
X040212D01*
Y032048D01*
X038441D02*
X040212D01*
X038441Y030276D02*
Y032048D01*
X045246Y028869D02*
Y03092D01*
X043195Y028869D02*
Y03092D01*
X045246D01*
X043195Y028869D02*
X045246D01*
X041622Y030831D02*
Y031894D01*
X041031Y030831D02*
Y031894D01*
X041622Y031894D01*
X041031Y030831D02*
X041622Y030831D01*
X041995Y025967D02*
X043058D01*
X041995Y026558D02*
X043058D01*
X043058Y025967D02*
X043058Y026558D01*
X041995D02*
X041995Y025967D01*
X040676Y025267D02*
X043572Y028162D01*
X037781D02*
X040676Y031058D01*
X037781Y028162D02*
X040676Y025267D01*
Y031058D02*
X043572Y028162D01*
X037681Y027131D02*
Y028194D01*
X038272Y027131D02*
Y028194D01*
X037681Y027131D02*
X038272Y027131D01*
X037681Y028194D02*
X038272Y028194D01*
X037793Y031781D02*
X038676D01*
Y029844D02*
Y031781D01*
X037793Y029844D02*
Y031781D01*
Y029844D02*
X038676D01*
X035892Y030867D02*
X035892Y031458D01*
X034829D02*
X034829Y030867D01*
X035892D01*
X034829Y031458D02*
X035892D01*
X036507Y029851D02*
X037846D01*
X036507D02*
Y031473D01*
X037846D01*
Y029851D02*
Y031473D01*
X036831Y027112D02*
X037422Y027112D01*
X036831Y026012D02*
X037422Y026012D01*
X036831Y026012D02*
Y027112D01*
X037422Y026012D02*
Y027112D01*
X036181Y026031D02*
Y027094D01*
X036772Y026031D02*
Y027094D01*
X036181Y027094D02*
X036772Y027094D01*
X036181Y026031D02*
X036772D01*
X032066Y028926D02*
X032341D01*
X032204Y028789D02*
Y029064D01*
X036346Y028238D02*
Y029586D01*
Y028238D02*
X038007D01*
Y029586D01*
X036346D02*
X038007D01*
X039108Y025967D02*
X039108Y026558D01*
X038045D02*
X038045Y025967D01*
X039108D01*
X038045Y026558D02*
X039108D01*
X040645Y026863D02*
X041676Y027893D01*
X041007Y028561D02*
X041676Y027893D01*
X039977Y027531D02*
X041007Y028561D01*
X039977Y027531D02*
X040645Y026863D01*
X037858Y033726D02*
Y036639D01*
X032413D02*
X037858D01*
X032413Y033726D02*
Y036639D01*
Y033726D02*
X037858D01*
X027048Y034329D02*
X027327Y034607D01*
X026519Y034858D02*
X026798Y035136D01*
X026519Y034858D02*
X027048Y034329D01*
X026798Y035136D02*
X027327Y034607D01*
X029126Y035235D02*
X02952Y035236D01*
X029126Y035984D02*
X02952D01*
X029126Y035235D02*
Y035984D01*
X02952Y035236D02*
Y035984D01*
X029099Y036036D02*
Y03643D01*
X029847Y036036D02*
Y03643D01*
X029099D02*
X029847D01*
X029099Y036036D02*
X029847D01*
X027095Y03351D02*
X028551D01*
X027095D02*
Y034455D01*
X028551D01*
Y03351D02*
Y034455D01*
X029599Y03563D02*
X030347D01*
X029599Y035236D02*
X030347D01*
X029599D02*
Y03563D01*
X030347D02*
X030347Y035236D01*
X029599Y03518D02*
X030347D01*
X029599Y034786D02*
X030347D01*
X029599D02*
Y03518D01*
X030347D02*
X030347Y034786D01*
X028626Y035685D02*
X02902Y035686D01*
X028626Y036434D02*
X02902D01*
X028626Y035685D02*
Y036434D01*
X02902Y035686D02*
Y036434D01*
X030697Y036036D02*
Y03643D01*
X029949D02*
X029949Y036036D01*
X030697D01*
X029949Y03643D02*
X030697D01*
X030776Y036059D02*
X03117Y036059D01*
X030776Y036807D02*
X03117Y036807D01*
X030776Y036059D02*
Y036807D01*
X03117Y036059D02*
Y036807D01*
X028326Y038057D02*
X02872Y038057D01*
X028326Y037309D02*
X02872D01*
Y038057D01*
X028326Y037309D02*
Y038057D01*
X026469Y037407D02*
X026748Y037129D01*
X026998Y037936D02*
X027277Y037658D01*
X026469Y037407D02*
X026998Y037936D01*
X026748Y037129D02*
X027277Y037658D01*
X025028Y038064D02*
X025618D01*
X025028Y037001D02*
X025618Y037001D01*
Y038064D01*
X025028Y037001D02*
Y038064D01*
Y036987D02*
X025618Y036987D01*
X025028Y038087D02*
X025618Y038087D01*
Y036987D02*
Y038087D01*
X025028Y036987D02*
Y038087D01*
X021028Y033301D02*
X021618Y033301D01*
X021028Y034364D02*
X021618Y034364D01*
Y033301D02*
Y034364D01*
X021028Y033301D02*
Y034364D01*
X02107Y037087D02*
X02107Y037678D01*
X020007D02*
X020007Y037087D01*
X02107D01*
X020007Y037678D02*
X02107D01*
X021787Y036497D02*
X023559D01*
Y038269D01*
X021787D02*
X023559D01*
X021787Y036497D02*
Y038269D01*
X028592Y035089D02*
Y037141D01*
X026541Y035089D02*
Y037141D01*
X028592D01*
X026541Y035089D02*
X028592D01*
X024968Y037051D02*
Y038114D01*
X024378Y037051D02*
Y038114D01*
X024968Y038114D01*
X024378Y037051D02*
X024968Y037051D01*
X025341Y032187D02*
X026404D01*
X025341Y032778D02*
X026404D01*
X026404Y032187D02*
X026404Y032778D01*
X025341D02*
X025341Y032187D01*
X024023Y031488D02*
X026918Y034383D01*
X021128D02*
X024023Y037278D01*
X021128Y034383D02*
X024023Y031488D01*
Y037278D02*
X026918Y034383D01*
X021028Y033351D02*
Y034414D01*
X021618Y033351D02*
Y034414D01*
X021028Y033351D02*
X021618Y033351D01*
X021028Y034414D02*
X021618Y034414D01*
X02114Y038001D02*
X022023D01*
Y036064D02*
Y038001D01*
X02114Y036064D02*
Y038001D01*
Y036064D02*
X022023D01*
X019239Y037087D02*
X019239Y037678D01*
X018176D02*
X018176Y037087D01*
X019239D01*
X018176Y037678D02*
X019239D01*
X019854Y036072D02*
X021192D01*
X019854D02*
Y037694D01*
X021192D01*
Y036072D02*
Y037694D01*
X020178Y033333D02*
X020768Y033333D01*
X020178Y032233D02*
X020768Y032233D01*
X020178Y032233D02*
Y033333D01*
X020768Y032233D02*
Y033333D01*
X019528Y032251D02*
Y033314D01*
X020118Y032251D02*
Y033314D01*
X019528Y033314D02*
X020118Y033314D01*
X019528Y032251D02*
X020118D01*
X015412Y035147D02*
X015688D01*
X01555Y035009D02*
Y035285D01*
X019692Y034459D02*
Y035807D01*
Y034459D02*
X021354D01*
Y035807D01*
X019692D02*
X021354D01*
X022454Y032187D02*
X022454Y032778D01*
X021391D02*
X021391Y032187D01*
X022454D01*
X021391Y032778D02*
X022454D01*
X023992Y033084D02*
X025022Y034114D01*
X024354Y034782D02*
X025022Y034114D01*
X023324Y033752D02*
X024354Y034782D01*
X023324Y033752D02*
X023992Y033084D01*
X054512Y033726D02*
Y036639D01*
X049067D02*
X054512D01*
X049067Y033726D02*
Y036639D01*
Y033726D02*
X054512D01*
X043702Y034329D02*
X04398Y034607D01*
X043173Y034858D02*
X043451Y035136D01*
X043173Y034858D02*
X043702Y034329D01*
X043451Y035136D02*
X04398Y034607D01*
X04578Y035235D02*
X046173Y035236D01*
X04578Y035984D02*
X046173D01*
X04578Y035235D02*
Y035984D01*
X046173Y035236D02*
Y035984D01*
X045752Y036036D02*
Y03643D01*
X0465Y036036D02*
Y03643D01*
X045752D02*
X0465D01*
X045752Y036036D02*
X0465D01*
X043748Y03351D02*
X045205D01*
X043748D02*
Y034455D01*
X045205D01*
Y03351D02*
Y034455D01*
X046252Y03563D02*
X047D01*
X046252Y035236D02*
X047D01*
X046252D02*
Y03563D01*
X047D02*
X047Y035236D01*
X046252Y03518D02*
X047D01*
X046252Y034786D02*
X047D01*
X046252D02*
Y03518D01*
X047D02*
X047Y034786D01*
X04528Y035685D02*
X045673Y035686D01*
X04528Y036434D02*
X045673D01*
X04528Y035685D02*
Y036434D01*
X045673Y035686D02*
Y036434D01*
X04735Y036036D02*
Y03643D01*
X046602D02*
X046602Y036036D01*
X04735D01*
X046602Y03643D02*
X04735D01*
X04743Y036059D02*
X047823Y036059D01*
X04743Y036807D02*
X047823Y036807D01*
X04743Y036059D02*
Y036807D01*
X047823Y036059D02*
Y036807D01*
X04498Y038057D02*
X045373Y038057D01*
X04498Y037309D02*
X045373D01*
Y038057D01*
X04498Y037309D02*
Y038057D01*
X043123Y037407D02*
X043401Y037129D01*
X043652Y037936D02*
X04393Y037658D01*
X043123Y037407D02*
X043652Y037936D01*
X043401Y037129D02*
X04393Y037658D01*
X041681Y038064D02*
X042272D01*
X041681Y037001D02*
X042272Y037001D01*
Y038064D01*
X041681Y037001D02*
Y038064D01*
Y036987D02*
X042272Y036987D01*
X041681Y038087D02*
X042272Y038087D01*
Y036987D02*
Y038087D01*
X041681Y036987D02*
Y038087D01*
X037681Y033301D02*
X038272Y033301D01*
X037681Y034364D02*
X038272Y034364D01*
Y033301D02*
Y034364D01*
X037681Y033301D02*
Y034364D01*
X037724Y037087D02*
X037724Y037678D01*
X036661D02*
X036661Y037087D01*
X037724D01*
X036661Y037678D02*
X037724D01*
X038441Y036497D02*
X040212D01*
Y038269D01*
X038441D02*
X040212D01*
X038441Y036497D02*
Y038269D01*
X045246Y035089D02*
Y037141D01*
X043195Y035089D02*
Y037141D01*
X045246D01*
X043195Y035089D02*
X045246D01*
X041622Y037051D02*
Y038114D01*
X041031Y037051D02*
Y038114D01*
X041622Y038114D01*
X041031Y037051D02*
X041622Y037051D01*
X041995Y032187D02*
X043058D01*
X041995Y032778D02*
X043058D01*
X043058Y032187D02*
X043058Y032778D01*
X041995D02*
X041995Y032187D01*
X040676Y031488D02*
X043572Y034383D01*
X037781D02*
X040676Y037278D01*
X037781Y034383D02*
X040676Y031488D01*
Y037278D02*
X043572Y034383D01*
X037681Y033351D02*
Y034414D01*
X038272Y033351D02*
Y034414D01*
X037681Y033351D02*
X038272Y033351D01*
X037681Y034414D02*
X038272Y034414D01*
X037793Y038001D02*
X038676D01*
Y036064D02*
Y038001D01*
X037793Y036064D02*
Y038001D01*
Y036064D02*
X038676D01*
X035892Y037087D02*
X035892Y037678D01*
X034829D02*
X034829Y037087D01*
X035892D01*
X034829Y037678D02*
X035892D01*
X036507Y036072D02*
X037846D01*
X036507D02*
Y037694D01*
X037846D01*
Y036072D02*
Y037694D01*
X036831Y033333D02*
X037422Y033333D01*
X036831Y032233D02*
X037422Y032233D01*
X036831Y032233D02*
Y033333D01*
X037422Y032233D02*
Y033333D01*
X036181Y032251D02*
Y033314D01*
X036772Y032251D02*
Y033314D01*
X036181Y033314D02*
X036772Y033314D01*
X036181Y032251D02*
X036772D01*
X032066Y035147D02*
X032341D01*
X032204Y035009D02*
Y035285D01*
X036346Y034459D02*
Y035807D01*
Y034459D02*
X038007D01*
Y035807D01*
X036346D02*
X038007D01*
X039108Y032187D02*
X039108Y032778D01*
X038045D02*
X038045Y032187D01*
X039108D01*
X038045Y032778D02*
X039108D01*
X040645Y033084D02*
X041676Y034114D01*
X041007Y034782D02*
X041676Y034114D01*
X039977Y033752D02*
X041007Y034782D01*
X039977Y033752D02*
X040645Y033084D01*
X037858Y039947D02*
Y04286D01*
X032413D02*
X037858D01*
X032413Y039947D02*
Y04286D01*
Y039947D02*
X037858D01*
X027048Y04055D02*
X027327Y040828D01*
X026519Y041078D02*
X026798Y041357D01*
X026519Y041078D02*
X027048Y04055D01*
X026798Y041357D02*
X027327Y040828D01*
X029126Y041456D02*
X02952Y041456D01*
X029126Y042204D02*
X02952D01*
X029126Y041456D02*
Y042204D01*
X02952Y041456D02*
Y042204D01*
X029099Y042256D02*
Y04265D01*
X029847Y042256D02*
Y04265D01*
X029099D02*
X029847D01*
X029099Y042256D02*
X029847D01*
X027095Y039731D02*
X028551D01*
X027095D02*
Y040676D01*
X028551D01*
Y039731D02*
Y040676D01*
X029599Y04185D02*
X030347D01*
X029599Y041456D02*
X030347D01*
X029599D02*
Y04185D01*
X030347D02*
X030347Y041456D01*
X029599Y0414D02*
X030347D01*
X029599Y041006D02*
X030347D01*
X029599D02*
Y0414D01*
X030347D02*
X030347Y041006D01*
X028626Y041906D02*
X02902Y041906D01*
X028626Y042654D02*
X02902D01*
X028626Y041906D02*
Y042654D01*
X02902Y041906D02*
Y042654D01*
X030697Y042256D02*
Y04265D01*
X029949D02*
X029949Y042256D01*
X030697D01*
X029949Y04265D02*
X030697D01*
X030776Y042279D02*
X03117Y042279D01*
X030776Y043027D02*
X03117Y043027D01*
X030776Y042279D02*
Y043027D01*
X03117Y042279D02*
Y043027D01*
X028326Y044277D02*
X02872Y044277D01*
X028326Y043529D02*
X02872D01*
Y044277D01*
X028326Y043529D02*
Y044277D01*
X026469Y043628D02*
X026748Y04335D01*
X026998Y044157D02*
X027277Y043878D01*
X026469Y043628D02*
X026998Y044157D01*
X026748Y04335D02*
X027277Y043878D01*
X025028Y044285D02*
X025618D01*
X025028Y043222D02*
X025618Y043222D01*
Y044285D01*
X025028Y043222D02*
Y044285D01*
Y043208D02*
X025618Y043208D01*
X025028Y044308D02*
X025618Y044308D01*
Y043208D02*
Y044308D01*
X025028Y043208D02*
Y044308D01*
X021028Y039522D02*
X021618Y039522D01*
X021028Y040585D02*
X021618Y040585D01*
Y039522D02*
Y040585D01*
X021028Y039522D02*
Y040585D01*
X02107Y043308D02*
X02107Y043898D01*
X020007D02*
X020007Y043308D01*
X02107D01*
X020007Y043898D02*
X02107D01*
X021787Y042717D02*
X023559D01*
Y044489D01*
X021787D02*
X023559D01*
X021787Y042717D02*
Y044489D01*
X028592Y04131D02*
Y043361D01*
X026541Y04131D02*
Y043361D01*
X028592D01*
X026541Y04131D02*
X028592D01*
X024968Y043272D02*
Y044335D01*
X024378Y043272D02*
Y044335D01*
X024968Y044335D01*
X024378Y043272D02*
X024968Y043272D01*
X025341Y038408D02*
X026404D01*
X025341Y038998D02*
X026404D01*
X026404Y038408D02*
X026404Y038998D01*
X025341D02*
X025341Y038408D01*
X024023Y037708D02*
X026918Y040603D01*
X021128D02*
X024023Y043498D01*
X021128Y040603D02*
X024023Y037708D01*
Y043498D02*
X026918Y040603D01*
X021028Y039572D02*
Y040635D01*
X021618Y039572D02*
Y040635D01*
X021028Y039572D02*
X021618Y039572D01*
X021028Y040635D02*
X021618Y040635D01*
X02114Y044222D02*
X022023D01*
Y042285D02*
Y044222D01*
X02114Y042285D02*
Y044222D01*
Y042285D02*
X022023D01*
X019239Y043308D02*
X019239Y043898D01*
X018176D02*
X018176Y043308D01*
X019239D01*
X018176Y043898D02*
X019239D01*
X019854Y042292D02*
X021192D01*
X019854D02*
Y043914D01*
X021192D01*
Y042292D02*
Y043914D01*
X020178Y039553D02*
X020768Y039553D01*
X020178Y038453D02*
X020768Y038453D01*
X020178Y038453D02*
Y039553D01*
X020768Y038453D02*
Y039553D01*
X019528Y038472D02*
Y039535D01*
X020118Y038472D02*
Y039535D01*
X019528Y039535D02*
X020118Y039535D01*
X019528Y038472D02*
X020118D01*
X015412Y041367D02*
X015688D01*
X01555Y04123D02*
Y041505D01*
X019692Y040679D02*
Y042027D01*
Y040679D02*
X021354D01*
Y042027D01*
X019692D02*
X021354D01*
X022454Y038408D02*
X022454Y038998D01*
X021391D02*
X021391Y038408D01*
X022454D01*
X021391Y038998D02*
X022454D01*
X023992Y039304D02*
X025022Y040334D01*
X024354Y041002D02*
X025022Y040334D01*
X023324Y039972D02*
X024354Y041002D01*
X023324Y039972D02*
X023992Y039304D01*
X054512Y039947D02*
Y04286D01*
X049067D02*
X054512D01*
X049067Y039947D02*
Y04286D01*
Y039947D02*
X054512D01*
X043702Y04055D02*
X04398Y040828D01*
X043173Y041078D02*
X043451Y041357D01*
X043173Y041078D02*
X043702Y04055D01*
X043451Y041357D02*
X04398Y040828D01*
X04578Y041456D02*
X046173Y041456D01*
X04578Y042204D02*
X046173D01*
X04578Y041456D02*
Y042204D01*
X046173Y041456D02*
Y042204D01*
X045752Y042256D02*
Y04265D01*
X0465Y042256D02*
Y04265D01*
X045752D02*
X0465D01*
X045752Y042256D02*
X0465D01*
X043748Y039731D02*
X045205D01*
X043748D02*
Y040676D01*
X045205D01*
Y039731D02*
Y040676D01*
X046252Y04185D02*
X047D01*
X046252Y041456D02*
X047D01*
X046252D02*
Y04185D01*
X047D02*
X047Y041456D01*
X046252Y0414D02*
X047D01*
X046252Y041006D02*
X047D01*
X046252D02*
Y0414D01*
X047D02*
X047Y041006D01*
X04528Y041906D02*
X045673Y041906D01*
X04528Y042654D02*
X045673D01*
X04528Y041906D02*
Y042654D01*
X045673Y041906D02*
Y042654D01*
X04735Y042256D02*
Y04265D01*
X046602D02*
X046602Y042256D01*
X04735D01*
X046602Y04265D02*
X04735D01*
X04743Y042279D02*
X047823Y042279D01*
X04743Y043027D02*
X047823Y043027D01*
X04743Y042279D02*
Y043027D01*
X047823Y042279D02*
Y043027D01*
X04498Y044277D02*
X045373Y044277D01*
X04498Y043529D02*
X045373D01*
Y044277D01*
X04498Y043529D02*
Y044277D01*
X043123Y043628D02*
X043401Y04335D01*
X043652Y044157D02*
X04393Y043878D01*
X043123Y043628D02*
X043652Y044157D01*
X043401Y04335D02*
X04393Y043878D01*
X041681Y044285D02*
X042272D01*
X041681Y043222D02*
X042272Y043222D01*
Y044285D01*
X041681Y043222D02*
Y044285D01*
Y043208D02*
X042272Y043208D01*
X041681Y044308D02*
X042272Y044308D01*
Y043208D02*
Y044308D01*
X041681Y043208D02*
Y044308D01*
X037681Y039522D02*
X038272Y039522D01*
X037681Y040585D02*
X038272Y040585D01*
Y039522D02*
Y040585D01*
X037681Y039522D02*
Y040585D01*
X037724Y043308D02*
X037724Y043898D01*
X036661D02*
X036661Y043308D01*
X037724D01*
X036661Y043898D02*
X037724D01*
X038441Y042717D02*
X040212D01*
Y044489D01*
X038441D02*
X040212D01*
X038441Y042717D02*
Y044489D01*
X045246Y04131D02*
Y043361D01*
X043195Y04131D02*
Y043361D01*
X045246D01*
X043195Y04131D02*
X045246D01*
X041622Y043272D02*
Y044335D01*
X041031Y043272D02*
Y044335D01*
X041622Y044335D01*
X041031Y043272D02*
X041622Y043272D01*
X041995Y038408D02*
X043058D01*
X041995Y038998D02*
X043058D01*
X043058Y038408D02*
X043058Y038998D01*
X041995D02*
X041995Y038408D01*
X040676Y037708D02*
X043572Y040603D01*
X037781D02*
X040676Y043498D01*
X037781Y040603D02*
X040676Y037708D01*
Y043498D02*
X043572Y040603D01*
X037681Y039572D02*
Y040635D01*
X038272Y039572D02*
Y040635D01*
X037681Y039572D02*
X038272Y039572D01*
X037681Y040635D02*
X038272Y040635D01*
X037793Y044222D02*
X038676D01*
Y042285D02*
Y044222D01*
X037793Y042285D02*
Y044222D01*
Y042285D02*
X038676D01*
X035892Y043308D02*
X035892Y043898D01*
X034829D02*
X034829Y043308D01*
X035892D01*
X034829Y043898D02*
X035892D01*
X036507Y042292D02*
X037846D01*
X036507D02*
Y043914D01*
X037846D01*
Y042292D02*
Y043914D01*
X036831Y039553D02*
X037422Y039553D01*
X036831Y038453D02*
X037422Y038453D01*
X036831Y038453D02*
Y039553D01*
X037422Y038453D02*
Y039553D01*
X036181Y038472D02*
Y039535D01*
X036772Y038472D02*
Y039535D01*
X036181Y039535D02*
X036772Y039535D01*
X036181Y038472D02*
X036772D01*
X032066Y041367D02*
X032341D01*
X032204Y04123D02*
Y041505D01*
X036346Y040679D02*
Y042027D01*
Y040679D02*
X038007D01*
Y042027D01*
X036346D02*
X038007D01*
X039108Y038408D02*
X039108Y038998D01*
X038045D02*
X038045Y038408D01*
X039108D01*
X038045Y038998D02*
X039108D01*
X040645Y039304D02*
X041676Y040334D01*
X041007Y041002D02*
X041676Y040334D01*
X039977Y039972D02*
X041007Y041002D01*
X039977Y039972D02*
X040645Y039304D01*
M02*
