G04*
G04 #@! TF.GenerationSoftware,Altium Limited,Altium Designer,22.10.1 (41)*
G04*
G04 Layer_Color=32896*
%FSTAX24Y24*%
%MOIN*%
G70*
G04*
G04 #@! TF.SameCoordinates,A34DC46A-7450-461F-AC4F-9E147ECCBACE*
G04*
G04*
G04 #@! TF.FilePolarity,Positive*
G04*
G01*
G75*
%ADD72C,0.0098*%
%ADD73C,0.0079*%
%ADD75C,0.0059*%
%ADD76C,0.0050*%
%ADD77C,0.0060*%
%ADD78R,0.0236X0.0059*%
%ADD79R,0.0236X0.0059*%
%ADD80R,0.0236X0.0059*%
%ADD81R,0.0236X0.0059*%
%ADD82C,0.0039*%
D72*
X008609Y027041D02*
G03*
X008609Y027041I-000049J0D01*
G01*
X033635Y004298D02*
G03*
X033635Y004298I000049J0D01*
G01*
X007409Y02102D02*
G03*
X007409Y02102I-000049J0D01*
G01*
X034835Y010319D02*
G03*
X034835Y010319I000049J0D01*
G01*
D73*
X007343Y025156D02*
G03*
X007343Y025156I-000039J0D01*
G01*
X011487Y022428D02*
G03*
X011487Y022428I-000039J0D01*
G01*
X007666Y027231D02*
X007902D01*
Y02731D01*
X007666Y025263D02*
X007784D01*
X007666Y02731D02*
X007902D01*
X007666Y025263D02*
Y02731D01*
X008128Y027225D02*
X008364D01*
X008128D02*
Y027304D01*
X008246Y025256D02*
X008364D01*
X008128Y027304D02*
X008364D01*
Y025256D02*
Y027304D01*
X034901Y006182D02*
G03*
X034901Y006182I000039J0D01*
G01*
X030757Y00891D02*
G03*
X030757Y00891I000039J0D01*
G01*
X034578Y004107D02*
X034342D01*
Y004029D01*
X034578Y006076D02*
X03446D01*
X034578Y004029D02*
X034342D01*
X034578Y006076D02*
Y004029D01*
X034116Y004114D02*
X03388D01*
X034116D02*
Y004035D01*
X033998Y006082D02*
X03388D01*
X034116Y004035D02*
X03388D01*
Y006082D02*
Y004035D01*
X011437Y016208D02*
G03*
X011437Y016208I-000039J0D01*
G01*
X007243Y019186D02*
G03*
X007243Y019186I-000039J0D01*
G01*
X007566Y021011D02*
X007802D01*
Y02109D01*
X007566Y019042D02*
X007684D01*
X007566Y02109D02*
X007802D01*
X007566Y019042D02*
Y02109D01*
X008028Y021004D02*
X008264D01*
X008028D02*
Y021083D01*
X008146Y019036D02*
X008264D01*
X008028Y021083D02*
X008264D01*
Y019036D02*
Y021083D01*
X030807Y015131D02*
G03*
X030807Y015131I000039J0D01*
G01*
X035001Y012153D02*
G03*
X035001Y012153I000039J0D01*
G01*
X034678Y010328D02*
X034442D01*
Y010249D01*
X034678Y012296D02*
X03456D01*
X034678Y010249D02*
X034442D01*
X034678Y012296D02*
Y010249D01*
X034216Y010334D02*
X03398D01*
X034216D02*
Y010256D01*
X034098Y012303D02*
X03398D01*
X034216Y010256D02*
X03398D01*
Y012303D02*
Y010256D01*
D75*
X021841Y026163D02*
Y026715D01*
X021341Y026163D02*
Y026239D01*
Y026163D02*
X022341D01*
Y026239D01*
Y026639D02*
Y026715D01*
X021341D02*
X022341D01*
X021341Y026639D02*
Y026715D01*
X021841Y025927D02*
Y026065D01*
Y025513D02*
Y025651D01*
X022441Y025513D02*
Y025589D01*
X02125Y025513D02*
X022441D01*
X021291D02*
Y025689D01*
Y025889D02*
Y026065D01*
X02125D02*
X022441Y026065D01*
Y025989D02*
Y026065D01*
X021241Y025513D02*
X021291Y025513D01*
X021241Y025513D02*
X021241Y025689D01*
X021291D01*
X021241Y026065D02*
X021291Y026065D01*
X021241Y025889D02*
Y026065D01*
Y025889D02*
X021291D01*
X028515Y023344D02*
X029066D01*
X028515Y023844D02*
X028591D01*
X028515Y022844D02*
Y023844D01*
Y022844D02*
X028591D01*
X028991D02*
X029066D01*
Y023844D01*
X028991D02*
X029066D01*
X029578Y023339D02*
X029716D01*
X029165D02*
X029303D01*
X029165Y022739D02*
X029241D01*
X029165D02*
Y02393D01*
Y023889D02*
X029341D01*
X029541D02*
X029716D01*
Y022739D02*
Y02393D01*
X029641Y022739D02*
X029716D01*
X029165Y023889D02*
Y023939D01*
X029341D01*
Y023889D02*
Y023939D01*
X029716Y023889D02*
Y023939D01*
X029541D02*
X029716D01*
X029541Y023889D02*
Y023939D01*
X022488Y023702D02*
Y024351D01*
Y022717D02*
Y023032D01*
Y02193D02*
Y022048D01*
Y020946D02*
Y021261D01*
Y019627D02*
Y020276D01*
X014693Y019627D02*
X022488Y019627D01*
X014693Y024351D02*
X022488D01*
X014693Y019627D02*
X014693Y024351D01*
X005187Y013722D02*
Y014274D01*
X004687Y013722D02*
Y013798D01*
Y013722D02*
X005687D01*
Y013798D01*
Y014198D02*
Y014274D01*
X004687D02*
X005687D01*
X004687Y014198D02*
Y014274D01*
X005187Y013486D02*
Y013624D01*
Y013072D02*
Y01321D01*
X005787Y013072D02*
Y013148D01*
X004596Y013072D02*
X005787D01*
X004637D02*
Y013248D01*
Y013448D02*
Y013624D01*
X004596D02*
X005787Y013624D01*
Y013548D02*
Y013624D01*
X004587Y013072D02*
X004637Y013072D01*
X004587Y013072D02*
X004587Y013248D01*
X004637D01*
X004587Y013624D02*
X004637Y013624D01*
X004587Y013448D02*
Y013624D01*
Y013448D02*
X004637D01*
X011861Y010903D02*
X012413D01*
X011861Y011403D02*
X011937D01*
X011861Y010403D02*
Y011403D01*
Y010403D02*
X011937D01*
X012337D02*
X012413D01*
Y011403D01*
X012337D02*
X012413D01*
X012925Y010898D02*
X013063D01*
X012511D02*
X012649D01*
X012511Y010298D02*
X012587D01*
X012511D02*
Y011489D01*
Y011448D02*
X012687D01*
X012887D02*
X013063D01*
Y010298D02*
Y011489D01*
X012987Y010298D02*
X013063D01*
X012511Y011448D02*
Y011498D01*
X012687D01*
Y011448D02*
Y011498D01*
X013063Y011448D02*
Y011498D01*
X012887D02*
X013063D01*
X012887Y011448D02*
Y011498D01*
X005835Y011261D02*
Y01191D01*
Y010276D02*
Y010591D01*
Y009489D02*
Y009607D01*
Y008505D02*
Y00882D01*
Y007186D02*
Y007835D01*
X-001961Y007186D02*
X005835Y007186D01*
X-001961Y01191D02*
X005835D01*
X-001961Y007186D02*
X-001961Y01191D01*
X012034Y024353D02*
X01207Y024317D01*
X011433Y023681D02*
X01207Y024317D01*
X011398Y023716D02*
X011433Y023681D01*
X01115Y023964D02*
X011186Y023928D01*
X01115Y023964D02*
X011787Y0246D01*
X011822Y024565D01*
X011468Y024282D02*
X011751Y023999D01*
X00451Y026765D02*
Y027316D01*
X00501Y027241D02*
Y027316D01*
X00401D02*
X00501D01*
X00401Y027241D02*
Y027316D01*
Y026765D02*
Y026841D01*
Y026765D02*
X00501D01*
Y026841D01*
X00571Y027178D02*
Y027316D01*
Y026765D02*
Y026903D01*
X00631Y026765D02*
Y026841D01*
X005119Y026765D02*
X00631D01*
X00516D02*
Y026941D01*
Y027141D02*
Y027316D01*
X005119D02*
X00631D01*
Y027241D02*
Y027316D01*
X00511Y026765D02*
X00516D01*
X00511D02*
Y026941D01*
X00516D01*
X00511Y027316D02*
X00516D01*
X00511Y027141D02*
Y027316D01*
Y027141D02*
X00516D01*
X012934Y026691D02*
X013486D01*
X012934Y027191D02*
X01301D01*
X012934Y026191D02*
Y027191D01*
Y026191D02*
X01301D01*
X01341D02*
X013486D01*
Y027191D01*
X01341D02*
X013486D01*
X012698Y026691D02*
X012836D01*
X012284D02*
X012422D01*
X012284Y026091D02*
X01236D01*
X012284D02*
Y027281D01*
Y027241D02*
X01246D01*
X01266D02*
X012836D01*
Y026091D02*
Y027281D01*
X01276Y026091D02*
X012836D01*
X012284Y027241D02*
Y027291D01*
X01246D01*
Y027241D02*
Y027291D01*
X012836Y027241D02*
Y027291D01*
X01266D02*
X012836D01*
X01266Y027241D02*
Y027291D01*
X005808Y026003D02*
Y026653D01*
Y025019D02*
Y025334D01*
Y024231D02*
Y02435D01*
Y023247D02*
Y023562D01*
Y021928D02*
Y022578D01*
X-001988Y021928D02*
X005808Y021928D01*
X-001988Y026653D02*
X005808D01*
X-001988Y021928D02*
X-001988Y026653D01*
X03021Y006986D02*
X030175Y007021D01*
X030811Y007658D02*
X030175Y007021D01*
X030846Y007622D02*
X030811Y007658D01*
X031094Y007375D02*
X031058Y00741D01*
X031094Y007375D02*
X030457Y006738D01*
X030422Y006774D01*
X030776Y007057D02*
X030493Y007339D01*
X037734Y004574D02*
Y004022D01*
X037234Y004098D02*
Y004022D01*
X038234D02*
X037234D01*
X038234Y004098D02*
Y004022D01*
Y004574D02*
Y004498D01*
Y004574D02*
X037234D01*
Y004498D01*
X036534Y00416D02*
Y004022D01*
Y004574D02*
Y004436D01*
X035934Y004574D02*
Y004498D01*
X037125Y004574D02*
X035934D01*
X037084D02*
Y004398D01*
Y004198D02*
Y004022D01*
X037125D02*
X035934D01*
Y004098D02*
Y004022D01*
X037134Y004574D02*
X037084D01*
X037134D02*
Y004398D01*
X037084D01*
X037134Y004022D02*
X037084D01*
X037134Y004198D02*
Y004022D01*
Y004198D02*
X037084D01*
X02931Y004648D02*
X028759D01*
X02931Y004148D02*
X029234D01*
X02931Y005148D02*
Y004148D01*
Y005148D02*
X029234D01*
X028834D02*
X028759D01*
Y004148D01*
X028834D02*
X028759D01*
X029546Y004648D02*
X029409D01*
X02996D02*
X029822D01*
X02996Y005248D02*
X029884D01*
X02996D02*
Y004058D01*
Y004098D02*
X029784D01*
X029584D02*
X029409D01*
Y005248D02*
Y004058D01*
X029484Y005248D02*
X029409D01*
X02996Y004098D02*
Y004048D01*
X029784D01*
Y004098D02*
Y004048D01*
X029409Y004098D02*
Y004048D01*
X029584D02*
X029409D01*
X029584Y004098D02*
Y004048D01*
X036437Y005335D02*
Y004686D01*
Y00632D02*
Y006005D01*
Y007107D02*
Y006989D01*
Y008091D02*
Y007776D01*
Y00941D02*
Y008761D01*
X044232Y00941D02*
X036437Y00941D01*
X044232Y004686D02*
X036437D01*
X044232Y00941D02*
X044232Y004686D01*
X012784Y02047D02*
X013336D01*
X012784Y02097D02*
X01286D01*
X012784Y01997D02*
Y02097D01*
Y01997D02*
X01286D01*
X01326D02*
X013336D01*
Y02097D01*
X01326D02*
X013336D01*
X00511Y02092D02*
X00516D01*
X00511D02*
Y021096D01*
X00516D01*
X00511Y02072D02*
X00516D01*
X00511Y020544D02*
Y02072D01*
Y020544D02*
X00516D01*
X00631Y02102D02*
X00631Y021096D01*
X005119D02*
X00631D01*
X00516Y02092D02*
Y021096D01*
Y020544D02*
Y02072D01*
X005119Y020544D02*
X00631D01*
X00631Y02062D02*
X00631Y020544D01*
X00571D02*
Y020682D01*
Y020958D02*
Y021096D01*
X00501Y020544D02*
Y02062D01*
X00401Y020544D02*
X00501D01*
X00401D02*
Y02062D01*
Y02102D02*
Y021096D01*
X00501D01*
Y02102D02*
Y021096D01*
X00451Y020544D02*
Y021096D01*
X011568Y017961D02*
X011851Y017679D01*
X011887Y01828D02*
X011922Y018244D01*
X01125Y017643D02*
X011887Y01828D01*
X01125Y017643D02*
X011286Y017608D01*
X011498Y017396D02*
X011533Y01736D01*
X01217Y017997D01*
X012134Y018032D02*
X01217Y017997D01*
X01251Y02102D02*
X01251Y02097D01*
X01251Y02102D02*
X012686D01*
X012686Y02097D01*
X01231Y02102D02*
X01231Y02097D01*
X012134Y02102D02*
X01231Y02102D01*
X012134Y02097D02*
X012134Y02102D01*
X01261Y01982D02*
X012686D01*
X012686Y021011D01*
X01251Y02097D02*
X012686D01*
X012134D02*
X01231D01*
X012134Y021011D02*
X012134Y01982D01*
X01221Y01982D01*
X012134Y02042D02*
X012272D01*
X012548D02*
X012686D01*
X-001988Y015708D02*
X-001988Y020432D01*
X005808D01*
X-001988Y015708D02*
X005808Y015708D01*
X005808Y015708D02*
Y016357D01*
Y017027D02*
Y017342D01*
Y018011D02*
Y018129D01*
Y018798D02*
Y019113D01*
Y019783D02*
Y020432D01*
X02946Y010869D02*
X028909D01*
X02946Y010369D02*
X029384D01*
X02946Y011369D02*
Y010369D01*
Y011369D02*
X029384D01*
X028984D02*
X028909D01*
Y010369D01*
X028984D02*
X028909D01*
X037134Y010419D02*
X037084D01*
X037134D02*
Y010243D01*
X037084D01*
X037134Y010619D02*
X037084D01*
X037134Y010794D02*
Y010619D01*
Y010794D02*
X037084D01*
X035934Y010319D02*
X035934Y010243D01*
X037125D02*
X035934D01*
X037084Y010419D02*
Y010243D01*
Y010794D02*
Y010619D01*
X037125Y010794D02*
X035934D01*
X035934Y010719D02*
X035934Y010794D01*
X036534D02*
Y010656D01*
Y010381D02*
Y010243D01*
X037234Y010794D02*
Y010719D01*
X038234Y010794D02*
X037234D01*
X038234D02*
Y010719D01*
Y010319D02*
Y010243D01*
X037234D01*
Y010319D02*
Y010243D01*
X037734Y010794D02*
Y010243D01*
X030676Y013377D02*
X030393Y01366D01*
X030357Y013059D02*
X030322Y013094D01*
X030994Y013695D02*
X030357Y013059D01*
X030994Y013695D02*
X030958Y013731D01*
X030746Y013943D02*
X030711Y013978D01*
X030075Y013342D01*
X03011Y013306D02*
X030075Y013342D01*
X029734Y010319D02*
X029734Y010369D01*
X029734Y010319D02*
X029559D01*
X029559Y010369D01*
X029934Y010319D02*
X029934Y010369D01*
X03011Y010319D02*
X029934Y010319D01*
X03011Y010369D02*
X03011Y010319D01*
X029634Y011519D02*
X029559D01*
X029559Y010328D01*
X029734Y010369D02*
X029559D01*
X03011D02*
X029934D01*
X03011Y010328D02*
X03011Y011519D01*
X030034Y011519D01*
X03011Y010919D02*
X029972D01*
X029696D02*
X029559D01*
X044232Y015631D02*
X044232Y010906D01*
X036437D01*
X044232Y015631D02*
X036437Y015631D01*
X036437Y015631D02*
Y014981D01*
Y014312D02*
Y013997D01*
Y013328D02*
Y013209D01*
Y01254D02*
Y012225D01*
Y011556D02*
Y010906D01*
D76*
X006294Y025826D02*
Y026456D01*
X007525Y025826D02*
Y026456D01*
X012324Y023667D02*
X012686Y023305D01*
X011434Y022776D02*
X011795Y022414D01*
X03595Y005513D02*
Y004883D01*
X034719Y005513D02*
Y004883D01*
X02992Y007672D02*
X029558Y008034D01*
X030811Y008563D02*
X030449Y008924D01*
X012274Y017446D02*
X012636Y017085D01*
X011384Y016556D02*
X011745Y016194D01*
X006194Y019855D02*
Y020485D01*
X007425Y019855D02*
Y020485D01*
X02997Y013892D02*
X029608Y014254D01*
X030861Y014783D02*
X030499Y015145D01*
X03605Y011483D02*
Y010854D01*
X034819Y011483D02*
Y010854D01*
D77*
X022541Y026389D02*
Y026689D01*
X022691D01*
X022741Y026639D01*
Y026539D01*
X022691Y026489D01*
X022541D01*
X022641D02*
X022741Y026389D01*
X022841Y026439D02*
X022891Y026389D01*
X02299D01*
X02304Y026439D01*
Y026639D01*
X02299Y026689D01*
X022891D01*
X022841Y026639D01*
Y026589D01*
X022891Y026539D01*
X02304D01*
X028541Y022389D02*
Y022689D01*
X028691D01*
X028741Y022639D01*
Y022539D01*
X028691Y022489D01*
X028541D01*
X028641D02*
X028741Y022389D01*
X02904Y022689D02*
X028841D01*
Y022539D01*
X02894Y022589D01*
X02899D01*
X02904Y022539D01*
Y022439D01*
X02899Y022389D01*
X028891D01*
X028841Y022439D01*
X021436Y025389D02*
Y025089D01*
X021585D01*
X021635Y025139D01*
Y025339D01*
X021585Y025389D01*
X021436D01*
X021935Y025089D02*
X021735D01*
X021935Y025289D01*
Y025339D01*
X021885Y025389D01*
X021785D01*
X021735Y025339D01*
X029241Y022639D02*
Y022339D01*
X029391D01*
X029441Y022389D01*
Y022589D01*
X029391Y022639D01*
X029241D01*
X029541Y022339D02*
X02964D01*
X02959D01*
Y022639D01*
X029541Y022589D01*
X005887Y013948D02*
Y014248D01*
X006037D01*
X006087Y014198D01*
Y014098D01*
X006037Y014048D01*
X005887D01*
X005987D02*
X006087Y013948D01*
X006187Y013998D02*
X006237Y013948D01*
X006337D01*
X006387Y013998D01*
Y014198D01*
X006337Y014248D01*
X006237D01*
X006187Y014198D01*
Y014148D01*
X006237Y014098D01*
X006387D01*
X011887Y009948D02*
Y010248D01*
X012037D01*
X012087Y010198D01*
Y010098D01*
X012037Y010048D01*
X011887D01*
X011987D02*
X012087Y009948D01*
X012387Y010248D02*
X012187D01*
Y010098D01*
X012287Y010148D01*
X012337D01*
X012387Y010098D01*
Y009998D01*
X012337Y009948D01*
X012237D01*
X012187Y009998D01*
X004782Y012948D02*
Y012648D01*
X004932D01*
X004982Y012698D01*
Y012898D01*
X004932Y012948D01*
X004782D01*
X005282Y012648D02*
X005082D01*
X005282Y012848D01*
Y012898D01*
X005232Y012948D01*
X005132D01*
X005082Y012898D01*
X012587Y010198D02*
Y009898D01*
X012737D01*
X012787Y009948D01*
Y010148D01*
X012737Y010198D01*
X012587D01*
X012887Y009898D02*
X012987D01*
X012937D01*
Y010198D01*
X012887Y010148D01*
X01286Y02436D02*
Y024327D01*
X012793Y02426D01*
X012727Y024327D01*
Y02436D01*
X012793Y02426D02*
Y024161D01*
X01266D02*
X012593D01*
X012627D01*
Y02436D01*
X01266Y024327D01*
X004527Y026441D02*
Y026641D01*
X004427D01*
X004393Y026607D01*
Y026541D01*
X004427Y026507D01*
X004527D01*
X00446D02*
X004393Y026441D01*
X004327Y026474D02*
X004293Y026441D01*
X004227D01*
X004193Y026474D01*
Y026607D01*
X004227Y026641D01*
X004293D01*
X004327Y026607D01*
Y026574D01*
X004293Y026541D01*
X004193D01*
X013377Y027541D02*
Y02774D01*
X013277D01*
X013243Y027707D01*
Y02764D01*
X013277Y027607D01*
X013377D01*
X01331D02*
X013243Y027541D01*
X013043Y02774D02*
X013177D01*
Y02764D01*
X01311Y027674D01*
X013077D01*
X013043Y02764D01*
Y027574D01*
X013077Y027541D01*
X013143D01*
X013177Y027574D01*
X011498Y024488D02*
X011357Y024629D01*
X011286Y024558D01*
Y024511D01*
X011333Y024464D01*
X011381Y024464D01*
X011451Y024535D01*
X011404Y024488D02*
Y024393D01*
X011263Y024252D02*
X011357Y024346D01*
X011169D01*
X011145Y02437D01*
Y024417D01*
X011192Y024464D01*
X011239Y024464D01*
X005907Y02714D02*
X005973D01*
X00594D01*
Y026974D01*
X005973Y026941D01*
X006007D01*
X00604Y026974D01*
X005707Y026941D02*
X00584D01*
X005707Y027074D01*
Y027107D01*
X00574Y02714D01*
X005807D01*
X00584Y027107D01*
X006827Y027241D02*
Y027041D01*
X006727D01*
X006693Y027074D01*
Y027207D01*
X006727Y027241D01*
X006827D01*
X006493Y027041D02*
X006627D01*
X006493Y027174D01*
Y027207D01*
X006527Y027241D01*
X006593D01*
X006627Y027207D01*
X01281Y02778D02*
Y027581D01*
X01271D01*
X012677Y027614D01*
Y027747D01*
X01271Y02778D01*
X01281D01*
X01261Y027581D02*
X012543D01*
X012577D01*
Y02778D01*
X01261Y027747D01*
X008277Y025107D02*
X00831Y025141D01*
X008377D01*
X00841Y025107D01*
Y024974D01*
X008377Y024941D01*
X00831D01*
X008277Y024974D01*
X00821Y024941D02*
X008143D01*
X008177D01*
Y025141D01*
X00821Y025107D01*
X00791Y025141D02*
X008043D01*
Y025041D01*
X007977Y025074D01*
X007943D01*
X00791Y025041D01*
Y024974D01*
X007943Y024941D01*
X00801D01*
X008043Y024974D01*
X029384Y006978D02*
Y007011D01*
X029451Y007078D01*
X029517Y007011D01*
Y006978D01*
X029451Y007078D02*
Y007178D01*
X029584D02*
X029651D01*
X029617D01*
Y006978D01*
X029584Y007011D01*
X037718Y004898D02*
Y004698D01*
X037818D01*
X037851Y004731D01*
Y004798D01*
X037818Y004831D01*
X037718D01*
X037784D02*
X037851Y004898D01*
X037917Y004865D02*
X037951Y004898D01*
X038017D01*
X038051Y004865D01*
Y004731D01*
X038017Y004698D01*
X037951D01*
X037917Y004731D01*
Y004765D01*
X037951Y004798D01*
X038051D01*
X028867Y003798D02*
Y003598D01*
X028967D01*
X029001Y003631D01*
Y003698D01*
X028967Y003731D01*
X028867D01*
X028934D02*
X029001Y003798D01*
X029201Y003598D02*
X029067D01*
Y003698D01*
X029134Y003665D01*
X029167D01*
X029201Y003698D01*
Y003765D01*
X029167Y003798D01*
X029101D01*
X029067Y003765D01*
X030746Y006851D02*
X030887Y00671D01*
X030958Y00678D01*
Y006827D01*
X030911Y006874D01*
X030863Y006874D01*
X030793Y006804D01*
X03084Y006851D02*
Y006945D01*
X030981Y007087D02*
X030887Y006992D01*
X031076D01*
X031099Y006969D01*
Y006922D01*
X031052Y006874D01*
X031005Y006874D01*
X036337Y004198D02*
X036271D01*
X036304D01*
Y004365D01*
X036271Y004398D01*
X036237D01*
X036204Y004365D01*
X036537Y004398D02*
X036404D01*
X036537Y004265D01*
Y004231D01*
X036504Y004198D01*
X036437D01*
X036404Y004231D01*
X035418Y004098D02*
Y004298D01*
X035518D01*
X035551Y004265D01*
Y004131D01*
X035518Y004098D01*
X035418D01*
X035751Y004298D02*
X035617D01*
X035751Y004165D01*
Y004131D01*
X035717Y004098D01*
X035651D01*
X035617Y004131D01*
X029434Y003558D02*
Y003758D01*
X029534D01*
X029567Y003725D01*
Y003591D01*
X029534Y003558D01*
X029434D01*
X029634Y003758D02*
X029701D01*
X029667D01*
Y003558D01*
X029634Y003591D01*
X033968Y006231D02*
X033934Y006198D01*
X033868D01*
X033834Y006231D01*
Y006365D01*
X033868Y006398D01*
X033934D01*
X033968Y006365D01*
X034034Y006398D02*
X034101D01*
X034068D01*
Y006198D01*
X034034Y006231D01*
X034334Y006198D02*
X034201D01*
Y006298D01*
X034267Y006265D01*
X034301D01*
X034334Y006298D01*
Y006365D01*
X034301Y006398D01*
X034234D01*
X034201Y006365D01*
X004677Y02017D02*
Y02037D01*
X004577D01*
X004543Y020337D01*
Y02027D01*
X004577Y020237D01*
X004677D01*
X00461D02*
X004543Y02017D01*
X004477Y020203D02*
X004443Y02017D01*
X004377D01*
X004343Y020203D01*
Y020337D01*
X004377Y02037D01*
X004443D01*
X004477Y020337D01*
Y020303D01*
X004443Y02027D01*
X004343D01*
X013827Y02052D02*
Y02072D01*
X013727D01*
X013693Y020687D01*
Y02062D01*
X013727Y020587D01*
X013827D01*
X01376D02*
X013693Y02052D01*
X013493Y02072D02*
X013627D01*
Y02062D01*
X01356Y020653D01*
X013527D01*
X013493Y02062D01*
Y020553D01*
X013527Y02052D01*
X013593D01*
X013627Y020553D01*
X01217Y0186D02*
Y0188D01*
X01207D01*
X012037Y018767D01*
Y0187D01*
X01207Y018667D01*
X01217D01*
X012103D02*
X012037Y0186D01*
X011837D02*
X01197D01*
X011837Y018733D01*
Y018767D01*
X01187Y0188D01*
X011937D01*
X01197Y018767D01*
X005727Y02037D02*
Y02017D01*
X005627D01*
X005593Y020203D01*
Y020337D01*
X005627Y02037D01*
X005727D01*
X005393Y02017D02*
X005527D01*
X005393Y020303D01*
Y020337D01*
X005427Y02037D01*
X005493D01*
X005527Y020337D01*
X011993Y02077D02*
Y02057D01*
X011893D01*
X01186Y020603D01*
Y020737D01*
X011893Y02077D01*
X011993D01*
X011793Y02057D02*
X011727D01*
X01176D01*
Y02077D01*
X011793Y020737D01*
X008127Y018887D02*
X00816Y01892D01*
X008227D01*
X00826Y018887D01*
Y018753D01*
X008227Y01872D01*
X00816D01*
X008127Y018753D01*
X00806Y01872D02*
X007993D01*
X008027D01*
Y01892D01*
X00806Y018887D01*
X00776Y01872D02*
X007893D01*
X00776Y018853D01*
Y018887D01*
X007793Y01892D01*
X00786D01*
X007893Y018887D01*
X037568Y011168D02*
Y010969D01*
X037668D01*
X037701Y011002D01*
Y011069D01*
X037668Y011102D01*
X037568D01*
X037634D02*
X037701Y011168D01*
X037768Y011135D02*
X037801Y011168D01*
X037867D01*
X037901Y011135D01*
Y011002D01*
X037867Y010969D01*
X037801D01*
X037768Y011002D01*
Y011035D01*
X037801Y011069D01*
X037901D01*
X028418Y010818D02*
Y010619D01*
X028518D01*
X028551Y010652D01*
Y010719D01*
X028518Y010752D01*
X028418D01*
X028484D02*
X028551Y010818D01*
X028751Y010619D02*
X028617D01*
Y010719D01*
X028684Y010685D01*
X028717D01*
X028751Y010719D01*
Y010785D01*
X028717Y010818D01*
X028651D01*
X028617Y010785D01*
X030074Y012739D02*
Y012539D01*
X030174D01*
X030207Y012572D01*
Y012639D01*
X030174Y012672D01*
X030074D01*
X030141D02*
X030207Y012739D01*
X030407D02*
X030274D01*
X030407Y012605D01*
Y012572D01*
X030374Y012539D01*
X030307D01*
X030274Y012572D01*
X036518Y010969D02*
Y011168D01*
X036618D01*
X036651Y011135D01*
Y011002D01*
X036618Y010969D01*
X036518D01*
X036851Y011168D02*
X036718D01*
X036851Y011035D01*
Y011002D01*
X036817Y010969D01*
X036751D01*
X036718Y011002D01*
X030251Y010569D02*
Y010768D01*
X030351D01*
X030384Y010735D01*
Y010602D01*
X030351Y010569D01*
X030251D01*
X030451Y010768D02*
X030517D01*
X030484D01*
Y010569D01*
X030451Y010602D01*
X034118Y012452D02*
X034084Y012419D01*
X034018D01*
X033984Y012452D01*
Y012585D01*
X034018Y012618D01*
X034084D01*
X034118Y012585D01*
X034184Y012618D02*
X034251D01*
X034218D01*
Y012419D01*
X034184Y012452D01*
X034484Y012618D02*
X034351D01*
X034484Y012485D01*
Y012452D01*
X034451Y012419D01*
X034384D01*
X034351Y012452D01*
D78*
X033998Y004065D02*
D03*
X03456Y010279D02*
D03*
D79*
X03446Y004058D02*
D03*
X034098Y010285D02*
D03*
D80*
X008246Y027274D02*
D03*
X007684Y02106D02*
D03*
D81*
X007784Y027281D02*
D03*
X008146Y021054D02*
D03*
D82*
X021772Y025789D02*
X021909Y025691D01*
Y025789D01*
X021772Y0257D02*
Y025789D01*
Y025878D01*
X021909Y025789D02*
Y025887D01*
X021772Y025789D02*
X021909Y025887D01*
X029342Y02327D02*
X029441Y023408D01*
X029342Y02327D02*
X029441D01*
X029352Y023408D02*
X029441D01*
X029529D01*
X029441Y02327D02*
X029539D01*
X029441Y023408D02*
X029539Y02327D01*
X005118Y013348D02*
X005256Y01325D01*
Y013348D01*
X005118Y013259D02*
Y013348D01*
Y013437D01*
X005256Y013348D02*
Y013446D01*
X005118Y013348D02*
X005256Y013446D01*
X012689Y010829D02*
X012787Y010967D01*
X012689Y010829D02*
X012787D01*
X012698Y010967D02*
X012787D01*
X012876D01*
X012787Y010829D02*
X012885D01*
X012787Y010967D02*
X012885Y010829D01*
X005641Y027041D02*
X005779Y026942D01*
Y027041D01*
X005641Y026952D02*
Y027041D01*
Y027129D01*
X005779Y027041D02*
Y027139D01*
X005641Y027041D02*
X005779Y027139D01*
X012461Y026622D02*
X01256Y026759D01*
X012461Y026622D02*
X01256D01*
X012471Y026759D02*
X01256D01*
X012649D01*
X01256Y026622D02*
X012658D01*
X01256Y026759D02*
X012658Y026622D01*
X036603Y004298D02*
X036465Y004396D01*
Y004298D01*
X036603Y004387D02*
Y004298D01*
Y004209D01*
X036465Y004298D02*
Y0042D01*
X036603Y004298D02*
X036465Y0042D01*
X029783Y004717D02*
X029684Y004579D01*
X029783Y004717D02*
X029684D01*
X029773Y004579D02*
X029684D01*
X029596D01*
X029684Y004717D02*
X029586D01*
X029684Y004579D02*
X029586Y004717D01*
X005641Y02082D02*
X005779Y020918D01*
Y02082D02*
Y020918D01*
X005641Y020909D02*
X005641Y02082D01*
X005641Y020731D02*
X005641Y02082D01*
X005779Y020722D02*
Y02082D01*
X005641D02*
X005779Y020722D01*
X01241Y020489D02*
X012508Y020351D01*
X01241D02*
X012508D01*
X01241Y020489D02*
X012499D01*
X012321D02*
X01241D01*
X012311Y020351D02*
X01241D01*
X012311D02*
X01241Y020489D01*
X036603Y010519D02*
X036465Y01042D01*
Y010519D02*
Y01042D01*
X036603Y01043D02*
X036603Y010519D01*
X036603Y010607D02*
X036603Y010519D01*
X036465Y010617D02*
Y010519D01*
X036603D02*
X036465Y010617D01*
X029834Y01085D02*
X029736Y010987D01*
X029834D02*
X029736D01*
X029834Y01085D02*
X029746D01*
X029923D02*
X029834D01*
X029933Y010987D02*
X029834D01*
X029933D02*
X029834Y01085D01*
M02*
