G04*
G04 #@! TF.GenerationSoftware,Altium Limited,Altium Designer,22.10.1 (41)*
G04*
G04 Layer_Physical_Order=2*
G04 Layer_Color=36540*
%FSTAX24Y24*%
%MOIN*%
G70*
G04*
G04 #@! TF.SameCoordinates,68DEA821-BA8F-46B5-960C-AC53CEFB18E0*
G04*
G04*
G04 #@! TF.FilePolarity,Positive*
G04*
G01*
G75*
%ADD65C,0.0594*%
%ADD66C,0.0240*%
%ADD67C,0.1004*%
G36*
X037063Y021362D02*
X028705D01*
X028676Y021412D01*
X028694Y021455D01*
Y021526D01*
X028666Y021593D01*
X028615Y021643D01*
X028549Y021671D01*
X028478D01*
X028411Y021643D01*
X028361Y021593D01*
X028333Y021526D01*
Y021455D01*
X028351Y021412D01*
X028322Y021362D01*
X020654D01*
Y027338D01*
X037063D01*
Y021362D01*
D02*
G37*
G36*
X020409D02*
X012052D01*
X012022Y021412D01*
X01204Y021455D01*
Y021526D01*
X012013Y021593D01*
X011962Y021643D01*
X011896Y021671D01*
X011824D01*
X011758Y021643D01*
X011707Y021593D01*
X01168Y021526D01*
Y021455D01*
X011697Y021412D01*
X011668Y021362D01*
X004D01*
Y027338D01*
X020409D01*
Y021362D01*
D02*
G37*
G36*
X037063Y015142D02*
X020654D01*
Y021118D01*
X037063D01*
Y015142D01*
D02*
G37*
G36*
X020409D02*
X004D01*
Y021118D01*
X020409D01*
Y015142D01*
D02*
G37*
G36*
X033841Y004D02*
X020654D01*
Y014897D01*
X033841D01*
Y004D01*
D02*
G37*
G36*
X017187D02*
X004D01*
Y014897D01*
X017187D01*
Y004D01*
D02*
G37*
%LPC*%
G36*
X028699Y026921D02*
X028628D01*
X028561Y026893D01*
X028517Y026849D01*
X028488Y026845D01*
X028459Y026849D01*
X028415Y026893D01*
X028349Y026921D01*
X028278D01*
X028211Y026893D01*
X028161Y026843D01*
X028133Y026776D01*
Y026705D01*
X028161Y026639D01*
X028211Y026588D01*
X028278Y02656D01*
X028343D01*
X028365Y026542D01*
X028383Y02652D01*
Y026455D01*
X028411Y026389D01*
X028461Y026338D01*
X028528Y02631D01*
X028599D01*
X028665Y026338D01*
X028716Y026389D01*
X028744Y026455D01*
Y026526D01*
X028725Y026571D01*
X028765Y026588D01*
X028816Y026639D01*
X028844Y026705D01*
Y026776D01*
X028816Y026843D01*
X028765Y026893D01*
X028699Y026921D01*
D02*
G37*
G36*
X031549D02*
X031478D01*
X031411Y026893D01*
X031361Y026843D01*
X031333Y026776D01*
Y026705D01*
X031361Y026639D01*
X031411Y026588D01*
X031478Y02656D01*
X031549D01*
X031615Y026588D01*
X031666Y026639D01*
X031694Y026705D01*
Y026776D01*
X031666Y026843D01*
X031615Y026893D01*
X031549Y026921D01*
D02*
G37*
G36*
X023549Y026871D02*
X023478D01*
X023411Y026843D01*
X023361Y026793D01*
X023333Y026726D01*
Y026655D01*
X023361Y026589D01*
X023411Y026538D01*
X023478Y02651D01*
X023549D01*
X023615Y026538D01*
X023666Y026589D01*
X023694Y026655D01*
Y026726D01*
X023666Y026793D01*
X023615Y026843D01*
X023549Y026871D01*
D02*
G37*
G36*
X02586Y027197D02*
X025766D01*
X025676Y027173D01*
X025594Y027126D01*
X025528Y02706D01*
X025481Y026978D01*
X025457Y026888D01*
Y026794D01*
X025481Y026703D01*
X025528Y026621D01*
X025594Y026555D01*
X025676Y026508D01*
X025766Y026484D01*
X02586D01*
X025951Y026508D01*
X026033Y026555D01*
X026099Y026621D01*
X026146Y026703D01*
X02617Y026794D01*
Y026888D01*
X026146Y026978D01*
X026099Y02706D01*
X026033Y027126D01*
X025951Y027173D01*
X02586Y027197D01*
D02*
G37*
G36*
X021549Y026671D02*
X021478D01*
X021411Y026643D01*
X021361Y026593D01*
X021333Y026526D01*
Y026455D01*
X021361Y026389D01*
X021411Y026338D01*
X021478Y02631D01*
X021549D01*
X021615Y026338D01*
X021666Y026389D01*
X021694Y026455D01*
Y026526D01*
X021666Y026593D01*
X021615Y026643D01*
X021549Y026671D01*
D02*
G37*
G36*
X025199Y026821D02*
X025128D01*
X025061Y026793D01*
X025011Y026743D01*
X024983Y026676D01*
Y026605D01*
X025011Y026539D01*
X025055Y026495D01*
X025059Y026466D01*
X025055Y026437D01*
X025011Y026393D01*
X024983Y026326D01*
Y026255D01*
X025011Y026189D01*
X025061Y026138D01*
X025128Y02611D01*
X025199D01*
X025265Y026138D01*
X025316Y026189D01*
X025344Y026255D01*
Y026326D01*
X025316Y026393D01*
X025272Y026437D01*
X025268Y026466D01*
X025272Y026495D01*
X025316Y026539D01*
X025344Y026605D01*
Y026676D01*
X025316Y026743D01*
X025265Y026793D01*
X025199Y026821D01*
D02*
G37*
G36*
X033099Y026321D02*
X033028D01*
X032961Y026293D01*
X032911Y026243D01*
X032883Y026176D01*
Y026105D01*
X032911Y026039D01*
X032961Y025988D01*
X033028Y02596D01*
X033099D01*
X033165Y025988D01*
X033216Y026039D01*
X033244Y026105D01*
Y026176D01*
X033216Y026243D01*
X033165Y026293D01*
X033099Y026321D01*
D02*
G37*
G36*
X022599Y025971D02*
X022528D01*
X022461Y025943D01*
X022417Y025899D01*
X022388Y025895D01*
X022359Y025899D01*
X022315Y025943D01*
X022249Y025971D01*
X022178D01*
X022111Y025943D01*
X022061Y025893D01*
X022033Y025826D01*
Y025755D01*
X022061Y025689D01*
X022084Y025666D01*
X022061Y025643D01*
X022033Y025576D01*
Y025505D01*
X022034Y025503D01*
X02199Y025479D01*
X021932Y025566D01*
X021847Y025651D01*
X021747Y025718D01*
X021635Y025764D01*
X021517Y025788D01*
X021397D01*
X021279Y025764D01*
X021168Y025718D01*
X021068Y025651D01*
X020982Y025566D01*
X020916Y025466D01*
X020869Y025355D01*
X020846Y025237D01*
Y025116D01*
X020869Y024998D01*
X020916Y024887D01*
X020982Y024787D01*
X021068Y024702D01*
X021168Y024635D01*
X021279Y024589D01*
X021397Y024565D01*
X021517D01*
X021635Y024589D01*
X021747Y024635D01*
X021847Y024702D01*
X021932Y024787D01*
X021999Y024887D01*
X022045Y024998D01*
X022068Y025116D01*
Y025237D01*
X022045Y025355D01*
X02202Y025413D01*
X022061Y025439D01*
X022111Y025388D01*
X022178Y02536D01*
X022249D01*
X022315Y025388D01*
X022359Y025432D01*
X022388Y025436D01*
X022417Y025432D01*
X022461Y025388D01*
X022528Y02536D01*
X022599D01*
X022665Y025388D01*
X022716Y025439D01*
X022744Y025505D01*
Y025576D01*
X022716Y025643D01*
X022693Y025666D01*
X022716Y025689D01*
X022744Y025755D01*
Y025826D01*
X022716Y025893D01*
X022665Y025943D01*
X022599Y025971D01*
D02*
G37*
G36*
X029549Y025921D02*
X029478D01*
X029411Y025893D01*
X029361Y025843D01*
X029333Y025776D01*
Y025705D01*
X029361Y025639D01*
X029411Y025588D01*
X029478Y02556D01*
X029549D01*
X029615Y025588D01*
X029666Y025639D01*
X029694Y025705D01*
Y025776D01*
X029666Y025843D01*
X029615Y025893D01*
X029549Y025921D01*
D02*
G37*
G36*
X02686Y026197D02*
X026766D01*
X026676Y026173D01*
X026594Y026126D01*
X026528Y02606D01*
X026481Y025978D01*
X026457Y025888D01*
Y025794D01*
X026481Y025703D01*
X026528Y025621D01*
X026594Y025555D01*
X026676Y025508D01*
X026766Y025484D01*
X02686D01*
X026951Y025508D01*
X027033Y025555D01*
X027099Y025621D01*
X027146Y025703D01*
X02717Y025794D01*
Y025888D01*
X027146Y025978D01*
X027099Y02606D01*
X027033Y026126D01*
X026951Y026173D01*
X02686Y026197D01*
D02*
G37*
G36*
X02617D02*
X025457D01*
Y025484D01*
X02617D01*
Y026197D01*
D02*
G37*
G36*
X030812Y025658D02*
X03074D01*
X030674Y025631D01*
X030623Y02558D01*
X030596Y025514D01*
Y025442D01*
X030623Y025376D01*
X030674Y025326D01*
X03074Y025298D01*
X030812D01*
X030878Y025326D01*
X030928Y025376D01*
X030956Y025442D01*
Y025514D01*
X030928Y02558D01*
X030878Y025631D01*
X030812Y025658D01*
D02*
G37*
G36*
X025199Y026021D02*
X025128D01*
X025061Y025993D01*
X025011Y025943D01*
X024983Y025876D01*
Y025805D01*
X025011Y025739D01*
X025061Y025688D01*
X025112Y025667D01*
Y025614D01*
X025061Y025593D01*
X025011Y025543D01*
X024983Y025476D01*
Y025405D01*
X025011Y025339D01*
X025061Y025288D01*
X025128Y02526D01*
X025199D01*
X025265Y025288D01*
X025316Y025339D01*
X025344Y025405D01*
Y025476D01*
X025316Y025543D01*
X025265Y025593D01*
X025215Y025614D01*
Y025667D01*
X025265Y025688D01*
X025316Y025739D01*
X025344Y025805D01*
Y025876D01*
X025316Y025943D01*
X025265Y025993D01*
X025199Y026021D01*
D02*
G37*
G36*
X033099Y025021D02*
X033028D01*
X032961Y024993D01*
X032911Y024943D01*
X032883Y024876D01*
Y024805D01*
X032911Y024739D01*
X032961Y024688D01*
X033028Y02466D01*
X033099D01*
X033165Y024688D01*
X033216Y024739D01*
X033244Y024805D01*
Y024876D01*
X033216Y024943D01*
X033165Y024993D01*
X033099Y025021D01*
D02*
G37*
G36*
X022399Y024871D02*
X022328D01*
X022261Y024843D01*
X022211Y024793D01*
X022183Y024726D01*
Y024655D01*
X022211Y024589D01*
X022261Y024538D01*
X022328Y02451D01*
X022399D01*
X022465Y024538D01*
X022516Y024589D01*
X022544Y024655D01*
Y024726D01*
X022516Y024793D01*
X022465Y024843D01*
X022399Y024871D01*
D02*
G37*
G36*
X030599Y024721D02*
X030528D01*
X030461Y024693D01*
X030411Y024643D01*
X030383Y024576D01*
Y024505D01*
X030411Y024439D01*
X030461Y024388D01*
X030528Y02436D01*
X030599D01*
X030665Y024388D01*
X030716Y024439D01*
X030744Y024505D01*
Y024576D01*
X030716Y024643D01*
X030665Y024693D01*
X030599Y024721D01*
D02*
G37*
G36*
X022399Y024071D02*
X022328D01*
X022261Y024043D01*
X022211Y023993D01*
X022183Y023926D01*
Y023855D01*
X022211Y023789D01*
X022261Y023738D01*
X022328Y02371D01*
X022399D01*
X022465Y023738D01*
X022516Y023789D01*
X022544Y023855D01*
Y023926D01*
X022516Y023993D01*
X022465Y024043D01*
X022399Y024071D01*
D02*
G37*
G36*
X027399Y024021D02*
X027328D01*
X027261Y023993D01*
X027211Y023943D01*
X027183Y023876D01*
Y023805D01*
X027211Y023739D01*
X027261Y023688D01*
X027328Y02366D01*
X027399D01*
X027465Y023688D01*
X027516Y023739D01*
X027544Y023805D01*
Y023876D01*
X027516Y023943D01*
X027465Y023993D01*
X027399Y024021D01*
D02*
G37*
G36*
X034599Y023971D02*
X034528D01*
X034461Y023943D01*
X034411Y023893D01*
X034383Y023826D01*
Y023755D01*
X034411Y023689D01*
X034461Y023638D01*
X034528Y02361D01*
X034599D01*
X034665Y023638D01*
X034716Y023689D01*
X034744Y023755D01*
Y023826D01*
X034716Y023893D01*
X034665Y023943D01*
X034599Y023971D01*
D02*
G37*
G36*
X026599Y023621D02*
X026528D01*
X026461Y023593D01*
X026411Y023543D01*
X026383Y023476D01*
Y023405D01*
X026411Y023339D01*
X026461Y023288D01*
X026528Y02326D01*
X026599D01*
X026665Y023288D01*
X026716Y023339D01*
X026744Y023405D01*
Y023476D01*
X026716Y023543D01*
X026665Y023593D01*
X026599Y023621D01*
D02*
G37*
G36*
X030799Y023971D02*
X030728D01*
X030661Y023943D01*
X030611Y023893D01*
X030583Y023826D01*
Y023771D01*
X030528D01*
X030461Y023743D01*
X030411Y023693D01*
X030383Y023626D01*
Y023555D01*
X030411Y023489D01*
X030461Y023438D01*
X030528Y02341D01*
X030583D01*
Y023355D01*
X030611Y023289D01*
X030661Y023238D01*
X030728Y02321D01*
X030799D01*
X030865Y023238D01*
X030916Y023289D01*
X030944Y023355D01*
Y02341D01*
X030999D01*
X031065Y023438D01*
X031116Y023489D01*
X031144Y023555D01*
Y023626D01*
X031116Y023693D01*
X031065Y023743D01*
X030999Y023771D01*
X030944D01*
Y023826D01*
X030916Y023893D01*
X030865Y023943D01*
X030799Y023971D01*
D02*
G37*
G36*
X024799Y023471D02*
X024728D01*
X024661Y023443D01*
X024611Y023393D01*
X024583Y023326D01*
Y023255D01*
X024611Y023189D01*
X024661Y023138D01*
X024728Y02311D01*
X024799D01*
X024865Y023138D01*
X024916Y023189D01*
X024944Y023255D01*
Y023326D01*
X024916Y023393D01*
X024865Y023443D01*
X024799Y023471D01*
D02*
G37*
G36*
X027399Y023421D02*
X027328D01*
X027261Y023393D01*
X027211Y023343D01*
X027183Y023276D01*
Y023205D01*
X027211Y023139D01*
X027261Y023088D01*
X027328Y02306D01*
X027399D01*
X027465Y023088D01*
X027516Y023139D01*
X027544Y023205D01*
Y023276D01*
X027516Y023343D01*
X027465Y023393D01*
X027399Y023421D01*
D02*
G37*
G36*
X021517Y024016D02*
X021397D01*
X021279Y023992D01*
X021168Y023946D01*
X021068Y023879D01*
X020982Y023794D01*
X020916Y023694D01*
X020869Y023583D01*
X020846Y023465D01*
Y023345D01*
X020869Y023226D01*
X020916Y023115D01*
X020982Y023015D01*
X021068Y02293D01*
X021168Y022863D01*
X021279Y022817D01*
X021397Y022794D01*
X021517D01*
X021635Y022817D01*
X021747Y022863D01*
X021847Y02293D01*
X021932Y023015D01*
X021999Y023115D01*
X022045Y023226D01*
X022068Y023345D01*
Y023465D01*
X022045Y023583D01*
X021999Y023694D01*
X021932Y023794D01*
X021847Y023879D01*
X021747Y023946D01*
X021635Y023992D01*
X021517Y024016D01*
D02*
G37*
G36*
X029399Y023121D02*
X029328D01*
X029261Y023093D01*
X029211Y023043D01*
X029183Y022976D01*
Y022905D01*
X029211Y022839D01*
X029261Y022788D01*
X029328Y02276D01*
X029399D01*
X029465Y022788D01*
X029516Y022839D01*
X029544Y022905D01*
Y022976D01*
X029516Y023043D01*
X029465Y023093D01*
X029399Y023121D01*
D02*
G37*
G36*
X026049Y023071D02*
X025978D01*
X025911Y023043D01*
X025861Y022993D01*
X025833Y022926D01*
Y022855D01*
X025861Y022789D01*
X025911Y022738D01*
X025978Y02271D01*
X026049D01*
X026115Y022738D01*
X026166Y022789D01*
X026194Y022855D01*
Y022926D01*
X026166Y022993D01*
X026115Y023043D01*
X026049Y023071D01*
D02*
G37*
G36*
X026399Y022721D02*
X026328D01*
X026261Y022693D01*
X026211Y022643D01*
X026183Y022576D01*
Y022505D01*
X026211Y022439D01*
X026261Y022388D01*
X026328Y02236D01*
X026399D01*
X026465Y022388D01*
X026516Y022439D01*
X026544Y022505D01*
Y022576D01*
X026516Y022643D01*
X026465Y022693D01*
X026399Y022721D01*
D02*
G37*
G36*
X028849Y022621D02*
X028778D01*
X028711Y022593D01*
X028661Y022543D01*
X028633Y022476D01*
Y022405D01*
X028661Y022339D01*
X028711Y022288D01*
X028778Y02226D01*
X028849D01*
X028915Y022288D01*
X028966Y022339D01*
X028994Y022405D01*
Y022476D01*
X028966Y022543D01*
X028915Y022593D01*
X028849Y022621D01*
D02*
G37*
G36*
X022599Y022521D02*
X022528D01*
X022461Y022493D01*
X022411Y022443D01*
X022383Y022376D01*
Y022305D01*
X022411Y022239D01*
X022461Y022188D01*
X022528Y02216D01*
X022599D01*
X022665Y022188D01*
X022716Y022239D01*
X022744Y022305D01*
Y022376D01*
X022716Y022443D01*
X022665Y022493D01*
X022599Y022521D01*
D02*
G37*
G36*
X026849Y022421D02*
X026778D01*
X026711Y022393D01*
X026661Y022343D01*
X026633Y022276D01*
Y022205D01*
X026661Y022139D01*
X026711Y022088D01*
X026778Y02206D01*
X026849D01*
X026915Y022088D01*
X026966Y022139D01*
X026994Y022205D01*
Y022276D01*
X026966Y022343D01*
X026915Y022393D01*
X026849Y022421D01*
D02*
G37*
G36*
X025799D02*
X025728D01*
X025661Y022393D01*
X025611Y022343D01*
X025583Y022276D01*
Y022205D01*
X025611Y022139D01*
X025661Y022088D01*
X025728Y02206D01*
X025799D01*
X025865Y022088D01*
X025916Y022139D01*
X025944Y022205D01*
Y022276D01*
X025916Y022343D01*
X025865Y022393D01*
X025799Y022421D01*
D02*
G37*
G36*
X031249Y021871D02*
X031178D01*
X031111Y021843D01*
X031061Y021793D01*
X031033Y021726D01*
Y021655D01*
X031061Y021589D01*
X031111Y021538D01*
X031178Y02151D01*
X031249D01*
X031315Y021538D01*
X031366Y021589D01*
X031394Y021655D01*
Y021726D01*
X031366Y021793D01*
X031315Y021843D01*
X031249Y021871D01*
D02*
G37*
G36*
X012046Y026921D02*
X011974D01*
X011908Y026893D01*
X011864Y026849D01*
X011835Y026845D01*
X011806Y026849D01*
X011762Y026893D01*
X011696Y026921D01*
X011624D01*
X011558Y026893D01*
X011507Y026843D01*
X01148Y026776D01*
Y026705D01*
X011507Y026639D01*
X011558Y026588D01*
X011624Y02656D01*
X01169D01*
X011711Y026542D01*
X01173Y02652D01*
Y026455D01*
X011757Y026389D01*
X011808Y026338D01*
X011874Y02631D01*
X011946D01*
X012012Y026338D01*
X012063Y026389D01*
X01209Y026455D01*
Y026526D01*
X012071Y026571D01*
X012112Y026588D01*
X012163Y026639D01*
X01219Y026705D01*
Y026776D01*
X012163Y026843D01*
X012112Y026893D01*
X012046Y026921D01*
D02*
G37*
G36*
X014896D02*
X014824D01*
X014758Y026893D01*
X014707Y026843D01*
X01468Y026776D01*
Y026705D01*
X014707Y026639D01*
X014758Y026588D01*
X014824Y02656D01*
X014896D01*
X014962Y026588D01*
X015013Y026639D01*
X01504Y026705D01*
Y026776D01*
X015013Y026843D01*
X014962Y026893D01*
X014896Y026921D01*
D02*
G37*
G36*
X006896Y026871D02*
X006824D01*
X006758Y026843D01*
X006707Y026793D01*
X00668Y026726D01*
Y026655D01*
X006707Y026589D01*
X006758Y026538D01*
X006824Y02651D01*
X006896D01*
X006962Y026538D01*
X007013Y026589D01*
X00704Y026655D01*
Y026726D01*
X007013Y026793D01*
X006962Y026843D01*
X006896Y026871D01*
D02*
G37*
G36*
X009207Y027197D02*
X009113D01*
X009022Y027173D01*
X008941Y027126D01*
X008874Y02706D01*
X008827Y026978D01*
X008803Y026888D01*
Y026794D01*
X008827Y026703D01*
X008874Y026621D01*
X008941Y026555D01*
X009022Y026508D01*
X009113Y026484D01*
X009207D01*
X009298Y026508D01*
X009379Y026555D01*
X009445Y026621D01*
X009492Y026703D01*
X009517Y026794D01*
Y026888D01*
X009492Y026978D01*
X009445Y02706D01*
X009379Y027126D01*
X009298Y027173D01*
X009207Y027197D01*
D02*
G37*
G36*
X004896Y026671D02*
X004824D01*
X004758Y026643D01*
X004707Y026593D01*
X00468Y026526D01*
Y026455D01*
X004707Y026389D01*
X004758Y026338D01*
X004824Y02631D01*
X004896D01*
X004962Y026338D01*
X005013Y026389D01*
X00504Y026455D01*
Y026526D01*
X005013Y026593D01*
X004962Y026643D01*
X004896Y026671D01*
D02*
G37*
G36*
X008546Y026821D02*
X008474D01*
X008408Y026793D01*
X008357Y026743D01*
X00833Y026676D01*
Y026605D01*
X008357Y026539D01*
X008401Y026495D01*
X008405Y026466D01*
X008401Y026437D01*
X008357Y026393D01*
X00833Y026326D01*
Y026255D01*
X008357Y026189D01*
X008408Y026138D01*
X008474Y02611D01*
X008546D01*
X008612Y026138D01*
X008663Y026189D01*
X00869Y026255D01*
Y026326D01*
X008663Y026393D01*
X008619Y026437D01*
X008615Y026466D01*
X008619Y026495D01*
X008663Y026539D01*
X00869Y026605D01*
Y026676D01*
X008663Y026743D01*
X008612Y026793D01*
X008546Y026821D01*
D02*
G37*
G36*
X016446Y026321D02*
X016374D01*
X016308Y026293D01*
X016257Y026243D01*
X01623Y026176D01*
Y026105D01*
X016257Y026039D01*
X016308Y025988D01*
X016374Y02596D01*
X016446D01*
X016512Y025988D01*
X016563Y026039D01*
X01659Y026105D01*
Y026176D01*
X016563Y026243D01*
X016512Y026293D01*
X016446Y026321D01*
D02*
G37*
G36*
X005946Y025971D02*
X005874D01*
X005808Y025943D01*
X005764Y025899D01*
X005735Y025895D01*
X005706Y025899D01*
X005662Y025943D01*
X005596Y025971D01*
X005524D01*
X005458Y025943D01*
X005407Y025893D01*
X00538Y025826D01*
Y025755D01*
X005407Y025689D01*
X00543Y025666D01*
X005407Y025643D01*
X00538Y025576D01*
Y025505D01*
X00538Y025503D01*
X005336Y025479D01*
X005278Y025566D01*
X005193Y025651D01*
X005093Y025718D01*
X004982Y025764D01*
X004864Y025788D01*
X004743D01*
X004625Y025764D01*
X004514Y025718D01*
X004414Y025651D01*
X004329Y025566D01*
X004262Y025466D01*
X004216Y025355D01*
X004192Y025237D01*
Y025116D01*
X004216Y024998D01*
X004262Y024887D01*
X004329Y024787D01*
X004414Y024702D01*
X004514Y024635D01*
X004625Y024589D01*
X004743Y024565D01*
X004864D01*
X004982Y024589D01*
X005093Y024635D01*
X005193Y024702D01*
X005278Y024787D01*
X005345Y024887D01*
X005391Y024998D01*
X005415Y025116D01*
Y025237D01*
X005391Y025355D01*
X005367Y025413D01*
X005407Y025439D01*
X005458Y025388D01*
X005524Y02536D01*
X005596D01*
X005662Y025388D01*
X005706Y025432D01*
X005735Y025436D01*
X005764Y025432D01*
X005808Y025388D01*
X005874Y02536D01*
X005946D01*
X006012Y025388D01*
X006063Y025439D01*
X00609Y025505D01*
Y025576D01*
X006063Y025643D01*
X00604Y025666D01*
X006063Y025689D01*
X00609Y025755D01*
Y025826D01*
X006063Y025893D01*
X006012Y025943D01*
X005946Y025971D01*
D02*
G37*
G36*
X012896Y025921D02*
X012824D01*
X012758Y025893D01*
X012707Y025843D01*
X01268Y025776D01*
Y025705D01*
X012707Y025639D01*
X012758Y025588D01*
X012824Y02556D01*
X012896D01*
X012962Y025588D01*
X013013Y025639D01*
X01304Y025705D01*
Y025776D01*
X013013Y025843D01*
X012962Y025893D01*
X012896Y025921D01*
D02*
G37*
G36*
X010207Y026197D02*
X010113D01*
X010022Y026173D01*
X009941Y026126D01*
X009874Y02606D01*
X009827Y025978D01*
X009803Y025888D01*
Y025794D01*
X009827Y025703D01*
X009874Y025621D01*
X009941Y025555D01*
X010022Y025508D01*
X010113Y025484D01*
X010207D01*
X010298Y025508D01*
X010379Y025555D01*
X010445Y025621D01*
X010492Y025703D01*
X010517Y025794D01*
Y025888D01*
X010492Y025978D01*
X010445Y02606D01*
X010379Y026126D01*
X010298Y026173D01*
X010207Y026197D01*
D02*
G37*
G36*
X009517D02*
X008803D01*
Y025484D01*
X009517D01*
Y026197D01*
D02*
G37*
G36*
X014158Y025658D02*
X014086D01*
X01402Y025631D01*
X01397Y02558D01*
X013942Y025514D01*
Y025442D01*
X01397Y025376D01*
X01402Y025326D01*
X014086Y025298D01*
X014158D01*
X014224Y025326D01*
X014275Y025376D01*
X014302Y025442D01*
Y025514D01*
X014275Y02558D01*
X014224Y025631D01*
X014158Y025658D01*
D02*
G37*
G36*
X008546Y026021D02*
X008474D01*
X008408Y025993D01*
X008357Y025943D01*
X00833Y025876D01*
Y025805D01*
X008357Y025739D01*
X008408Y025688D01*
X008459Y025667D01*
Y025614D01*
X008408Y025593D01*
X008357Y025543D01*
X00833Y025476D01*
Y025405D01*
X008357Y025339D01*
X008408Y025288D01*
X008474Y02526D01*
X008546D01*
X008612Y025288D01*
X008663Y025339D01*
X00869Y025405D01*
Y025476D01*
X008663Y025543D01*
X008612Y025593D01*
X008561Y025614D01*
Y025667D01*
X008612Y025688D01*
X008663Y025739D01*
X00869Y025805D01*
Y025876D01*
X008663Y025943D01*
X008612Y025993D01*
X008546Y026021D01*
D02*
G37*
G36*
X016446Y025021D02*
X016374D01*
X016308Y024993D01*
X016257Y024943D01*
X01623Y024876D01*
Y024805D01*
X016257Y024739D01*
X016308Y024688D01*
X016374Y02466D01*
X016446D01*
X016512Y024688D01*
X016563Y024739D01*
X01659Y024805D01*
Y024876D01*
X016563Y024943D01*
X016512Y024993D01*
X016446Y025021D01*
D02*
G37*
G36*
X005746Y024871D02*
X005674D01*
X005608Y024843D01*
X005557Y024793D01*
X00553Y024726D01*
Y024655D01*
X005557Y024589D01*
X005608Y024538D01*
X005674Y02451D01*
X005746D01*
X005812Y024538D01*
X005863Y024589D01*
X00589Y024655D01*
Y024726D01*
X005863Y024793D01*
X005812Y024843D01*
X005746Y024871D01*
D02*
G37*
G36*
X013946Y024721D02*
X013874D01*
X013808Y024693D01*
X013757Y024643D01*
X01373Y024576D01*
Y024505D01*
X013757Y024439D01*
X013808Y024388D01*
X013874Y02436D01*
X013946D01*
X014012Y024388D01*
X014063Y024439D01*
X01409Y024505D01*
Y024576D01*
X014063Y024643D01*
X014012Y024693D01*
X013946Y024721D01*
D02*
G37*
G36*
X005746Y024071D02*
X005674D01*
X005608Y024043D01*
X005557Y023993D01*
X00553Y023926D01*
Y023855D01*
X005557Y023789D01*
X005608Y023738D01*
X005674Y02371D01*
X005746D01*
X005812Y023738D01*
X005863Y023789D01*
X00589Y023855D01*
Y023926D01*
X005863Y023993D01*
X005812Y024043D01*
X005746Y024071D01*
D02*
G37*
G36*
X010746Y024021D02*
X010674D01*
X010608Y023993D01*
X010557Y023943D01*
X01053Y023876D01*
Y023805D01*
X010557Y023739D01*
X010608Y023688D01*
X010674Y02366D01*
X010746D01*
X010812Y023688D01*
X010863Y023739D01*
X01089Y023805D01*
Y023876D01*
X010863Y023943D01*
X010812Y023993D01*
X010746Y024021D01*
D02*
G37*
G36*
X017946Y023971D02*
X017874D01*
X017808Y023943D01*
X017757Y023893D01*
X01773Y023826D01*
Y023755D01*
X017757Y023689D01*
X017808Y023638D01*
X017874Y02361D01*
X017946D01*
X018012Y023638D01*
X018063Y023689D01*
X01809Y023755D01*
Y023826D01*
X018063Y023893D01*
X018012Y023943D01*
X017946Y023971D01*
D02*
G37*
G36*
X009946Y023621D02*
X009874D01*
X009808Y023593D01*
X009757Y023543D01*
X00973Y023476D01*
Y023405D01*
X009757Y023339D01*
X009808Y023288D01*
X009874Y02326D01*
X009946D01*
X010012Y023288D01*
X010063Y023339D01*
X01009Y023405D01*
Y023476D01*
X010063Y023543D01*
X010012Y023593D01*
X009946Y023621D01*
D02*
G37*
G36*
X014146Y023971D02*
X014074D01*
X014008Y023943D01*
X013957Y023893D01*
X01393Y023826D01*
Y023771D01*
X013874D01*
X013808Y023743D01*
X013757Y023693D01*
X01373Y023626D01*
Y023555D01*
X013757Y023489D01*
X013808Y023438D01*
X013874Y02341D01*
X01393D01*
Y023355D01*
X013957Y023289D01*
X014008Y023238D01*
X014074Y02321D01*
X014146D01*
X014212Y023238D01*
X014263Y023289D01*
X01429Y023355D01*
Y02341D01*
X014346D01*
X014412Y023438D01*
X014463Y023489D01*
X01449Y023555D01*
Y023626D01*
X014463Y023693D01*
X014412Y023743D01*
X014346Y023771D01*
X01429D01*
Y023826D01*
X014263Y023893D01*
X014212Y023943D01*
X014146Y023971D01*
D02*
G37*
G36*
X008146Y023471D02*
X008074D01*
X008008Y023443D01*
X007957Y023393D01*
X00793Y023326D01*
Y023255D01*
X007957Y023189D01*
X008008Y023138D01*
X008074Y02311D01*
X008146D01*
X008212Y023138D01*
X008263Y023189D01*
X00829Y023255D01*
Y023326D01*
X008263Y023393D01*
X008212Y023443D01*
X008146Y023471D01*
D02*
G37*
G36*
X010746Y023421D02*
X010674D01*
X010608Y023393D01*
X010557Y023343D01*
X01053Y023276D01*
Y023205D01*
X010557Y023139D01*
X010608Y023088D01*
X010674Y02306D01*
X010746D01*
X010812Y023088D01*
X010863Y023139D01*
X01089Y023205D01*
Y023276D01*
X010863Y023343D01*
X010812Y023393D01*
X010746Y023421D01*
D02*
G37*
G36*
X004864Y024016D02*
X004743D01*
X004625Y023992D01*
X004514Y023946D01*
X004414Y023879D01*
X004329Y023794D01*
X004262Y023694D01*
X004216Y023583D01*
X004192Y023465D01*
Y023345D01*
X004216Y023226D01*
X004262Y023115D01*
X004329Y023015D01*
X004414Y02293D01*
X004514Y022863D01*
X004625Y022817D01*
X004743Y022794D01*
X004864D01*
X004982Y022817D01*
X005093Y022863D01*
X005193Y02293D01*
X005278Y023015D01*
X005345Y023115D01*
X005391Y023226D01*
X005415Y023345D01*
Y023465D01*
X005391Y023583D01*
X005345Y023694D01*
X005278Y023794D01*
X005193Y023879D01*
X005093Y023946D01*
X004982Y023992D01*
X004864Y024016D01*
D02*
G37*
G36*
X012746Y023121D02*
X012674D01*
X012608Y023093D01*
X012557Y023043D01*
X01253Y022976D01*
Y022905D01*
X012557Y022839D01*
X012608Y022788D01*
X012674Y02276D01*
X012746D01*
X012812Y022788D01*
X012863Y022839D01*
X01289Y022905D01*
Y022976D01*
X012863Y023043D01*
X012812Y023093D01*
X012746Y023121D01*
D02*
G37*
G36*
X009396Y023071D02*
X009324D01*
X009258Y023043D01*
X009207Y022993D01*
X00918Y022926D01*
Y022855D01*
X009207Y022789D01*
X009258Y022738D01*
X009324Y02271D01*
X009396D01*
X009462Y022738D01*
X009513Y022789D01*
X00954Y022855D01*
Y022926D01*
X009513Y022993D01*
X009462Y023043D01*
X009396Y023071D01*
D02*
G37*
G36*
X009746Y022721D02*
X009674D01*
X009608Y022693D01*
X009557Y022643D01*
X00953Y022576D01*
Y022505D01*
X009557Y022439D01*
X009608Y022388D01*
X009674Y02236D01*
X009746D01*
X009812Y022388D01*
X009863Y022439D01*
X00989Y022505D01*
Y022576D01*
X009863Y022643D01*
X009812Y022693D01*
X009746Y022721D01*
D02*
G37*
G36*
X012196Y022621D02*
X012124D01*
X012058Y022593D01*
X012007Y022543D01*
X01198Y022476D01*
Y022405D01*
X012007Y022339D01*
X012058Y022288D01*
X012124Y02226D01*
X012196D01*
X012262Y022288D01*
X012313Y022339D01*
X01234Y022405D01*
Y022476D01*
X012313Y022543D01*
X012262Y022593D01*
X012196Y022621D01*
D02*
G37*
G36*
X005946Y022521D02*
X005874D01*
X005808Y022493D01*
X005757Y022443D01*
X00573Y022376D01*
Y022305D01*
X005757Y022239D01*
X005808Y022188D01*
X005874Y02216D01*
X005946D01*
X006012Y022188D01*
X006063Y022239D01*
X00609Y022305D01*
Y022376D01*
X006063Y022443D01*
X006012Y022493D01*
X005946Y022521D01*
D02*
G37*
G36*
X010196Y022421D02*
X010124D01*
X010058Y022393D01*
X010007Y022343D01*
X00998Y022276D01*
Y022205D01*
X010007Y022139D01*
X010058Y022088D01*
X010124Y02206D01*
X010196D01*
X010262Y022088D01*
X010313Y022139D01*
X01034Y022205D01*
Y022276D01*
X010313Y022343D01*
X010262Y022393D01*
X010196Y022421D01*
D02*
G37*
G36*
X009146D02*
X009074D01*
X009008Y022393D01*
X008957Y022343D01*
X00893Y022276D01*
Y022205D01*
X008957Y022139D01*
X009008Y022088D01*
X009074Y02206D01*
X009146D01*
X009212Y022088D01*
X009263Y022139D01*
X00929Y022205D01*
Y022276D01*
X009263Y022343D01*
X009212Y022393D01*
X009146Y022421D01*
D02*
G37*
G36*
X014596Y021871D02*
X014524D01*
X014458Y021843D01*
X014407Y021793D01*
X01438Y021726D01*
Y021655D01*
X014407Y021589D01*
X014458Y021538D01*
X014524Y02151D01*
X014596D01*
X014662Y021538D01*
X014713Y021589D01*
X01474Y021655D01*
Y021726D01*
X014713Y021793D01*
X014662Y021843D01*
X014596Y021871D01*
D02*
G37*
G36*
X032Y020949D02*
X031929D01*
X031863Y020922D01*
X031812Y020871D01*
X031784Y020805D01*
Y020733D01*
X031812Y020667D01*
X031863Y020616D01*
X031929Y020589D01*
X032D01*
X032067Y020616D01*
X032117Y020667D01*
X032145Y020733D01*
Y020805D01*
X032117Y020871D01*
X032067Y020922D01*
X032Y020949D01*
D02*
G37*
G36*
X02581Y020977D02*
X025716D01*
X025626Y020953D01*
X025544Y020906D01*
X025478Y020839D01*
X025431Y020758D01*
X025407Y020667D01*
Y020573D01*
X025431Y020482D01*
X025478Y020401D01*
X025544Y020335D01*
X025626Y020288D01*
X025716Y020263D01*
X02581D01*
X025901Y020288D01*
X025983Y020335D01*
X026049Y020401D01*
X026096Y020482D01*
X02612Y020573D01*
Y020667D01*
X026096Y020758D01*
X026049Y020839D01*
X025983Y020906D01*
X025901Y020953D01*
X02581Y020977D01*
D02*
G37*
G36*
X022699Y02055D02*
X022628D01*
X022561Y020523D01*
X022511Y020472D01*
X022483Y020406D01*
Y020334D01*
X022511Y020268D01*
X022561Y020217D01*
X022628Y02019D01*
X022699D01*
X022765Y020217D01*
X022816Y020268D01*
X022844Y020334D01*
Y020406D01*
X022816Y020472D01*
X022765Y020523D01*
X022699Y02055D01*
D02*
G37*
G36*
X025149Y020675D02*
X025078D01*
X025011Y020647D01*
X024961Y020597D01*
X024933Y020531D01*
Y020459D01*
X024961Y020393D01*
X025011Y020342D01*
X025035Y020332D01*
X025011Y020323D01*
X024961Y020272D01*
X024933Y020206D01*
Y020134D01*
X024961Y020068D01*
X025011Y020017D01*
X025078Y01999D01*
X025149D01*
X025215Y020017D01*
X025266Y020068D01*
X025294Y020134D01*
Y020206D01*
X025266Y020272D01*
X025215Y020323D01*
X025192Y020332D01*
X025215Y020342D01*
X025266Y020393D01*
X025294Y020459D01*
Y020531D01*
X025266Y020597D01*
X025215Y020647D01*
X025149Y020675D01*
D02*
G37*
G36*
X032599Y0202D02*
X032528D01*
X032461Y020173D01*
X032411Y020122D01*
X032383Y020056D01*
Y019984D01*
X032411Y019918D01*
X032461Y019867D01*
X032528Y01984D01*
X032599D01*
X032665Y019867D01*
X032716Y019918D01*
X032744Y019984D01*
Y020056D01*
X032716Y020122D01*
X032665Y020173D01*
X032599Y0202D01*
D02*
G37*
G36*
X028649Y020442D02*
X028578D01*
X028511Y020414D01*
X028461Y020364D01*
X028433Y020297D01*
Y020226D01*
X028461Y02016D01*
X02848Y020141D01*
X028461Y020122D01*
X028433Y020056D01*
Y019984D01*
X028461Y019918D01*
X028511Y019867D01*
X028578Y01984D01*
X028649D01*
X028715Y019867D01*
X028766Y019918D01*
X028794Y019984D01*
Y020056D01*
X028766Y020122D01*
X028747Y020141D01*
X028766Y02016D01*
X028794Y020226D01*
Y020297D01*
X028766Y020364D01*
X028715Y020414D01*
X028649Y020442D01*
D02*
G37*
G36*
X022599Y01975D02*
X022528D01*
X022461Y019723D01*
X022411Y019672D01*
X022388Y019618D01*
X022366Y019672D01*
X022315Y019723D01*
X022249Y01975D01*
X022178D01*
X022111Y019723D01*
X022061Y019672D01*
X022033Y019606D01*
Y019534D01*
X022061Y019468D01*
X022084Y019445D01*
X022061Y019422D01*
X022033Y019356D01*
Y019284D01*
X022061Y019218D01*
X022111Y019167D01*
X022178Y01914D01*
X022249D01*
X022315Y019167D01*
X022366Y019218D01*
X022388Y019272D01*
X022411Y019218D01*
X022461Y019167D01*
X022528Y01914D01*
X022599D01*
X022665Y019167D01*
X022716Y019218D01*
X022744Y019284D01*
Y019356D01*
X022716Y019422D01*
X022693Y019445D01*
X022716Y019468D01*
X022744Y019534D01*
Y019606D01*
X022716Y019672D01*
X022665Y019723D01*
X022599Y01975D01*
D02*
G37*
G36*
X02681Y019977D02*
X026716D01*
X026626Y019953D01*
X026544Y019906D01*
X026478Y019839D01*
X026431Y019758D01*
X026407Y019667D01*
Y019573D01*
X026431Y019482D01*
X026478Y019401D01*
X026544Y019335D01*
X026626Y019288D01*
X026716Y019263D01*
X02681D01*
X026901Y019288D01*
X026983Y019335D01*
X027049Y019401D01*
X027096Y019482D01*
X02712Y019573D01*
Y019667D01*
X027096Y019758D01*
X027049Y019839D01*
X026983Y019906D01*
X026901Y019953D01*
X02681Y019977D01*
D02*
G37*
G36*
X02612D02*
X025407D01*
Y019263D01*
X02612D01*
Y019977D01*
D02*
G37*
G36*
X025149Y01995D02*
X025078D01*
X025011Y019923D01*
X024961Y019872D01*
X024933Y019806D01*
Y019734D01*
X024961Y019668D01*
X025011Y019617D01*
X025065Y019595D01*
X025011Y019573D01*
X024961Y019522D01*
X024933Y019456D01*
Y019384D01*
X024961Y019318D01*
X025011Y019267D01*
X025078Y01924D01*
X025149D01*
X025215Y019267D01*
X025266Y019318D01*
X025294Y019384D01*
Y019456D01*
X025266Y019522D01*
X025215Y019573D01*
X025162Y019595D01*
X025215Y019617D01*
X025266Y019668D01*
X025294Y019734D01*
Y019806D01*
X025266Y019872D01*
X025215Y019923D01*
X025149Y01995D01*
D02*
G37*
G36*
X029549Y01945D02*
X029478D01*
X029411Y019423D01*
X029361Y019372D01*
X029333Y019306D01*
Y019234D01*
X029361Y019168D01*
X029411Y019117D01*
X029478Y01909D01*
X029549D01*
X029615Y019117D01*
X029666Y019168D01*
X029694Y019234D01*
Y019306D01*
X029666Y019372D01*
X029615Y019423D01*
X029549Y01945D01*
D02*
G37*
G36*
X030649Y01925D02*
X030578D01*
X030511Y019223D01*
X030461Y019172D01*
X030433Y019106D01*
Y019034D01*
X030461Y018968D01*
X030511Y018917D01*
X030578Y01889D01*
X030649D01*
X030715Y018917D01*
X030766Y018968D01*
X030794Y019034D01*
Y019106D01*
X030766Y019172D01*
X030715Y019223D01*
X030649Y01925D01*
D02*
G37*
G36*
X03558Y019623D02*
X035447D01*
X035319Y019589D01*
X035205Y019522D01*
X035111Y019429D01*
X035045Y019314D01*
X035011Y019186D01*
Y019054D01*
X035045Y018926D01*
X035111Y018811D01*
X035205Y018718D01*
X035319Y018651D01*
X035447Y018617D01*
X03558D01*
X035708Y018651D01*
X035822Y018718D01*
X035916Y018811D01*
X035982Y018926D01*
X036016Y019054D01*
Y019186D01*
X035982Y019314D01*
X035916Y019429D01*
X035822Y019522D01*
X035708Y019589D01*
X03558Y019623D01*
D02*
G37*
G36*
X021517Y019567D02*
X021397D01*
X021279Y019544D01*
X021168Y019498D01*
X021068Y019431D01*
X020982Y019346D01*
X020916Y019245D01*
X020869Y019134D01*
X020846Y019016D01*
Y018896D01*
X020869Y018778D01*
X020916Y018666D01*
X020982Y018566D01*
X021068Y018481D01*
X021168Y018414D01*
X021279Y018368D01*
X021397Y018345D01*
X021517D01*
X021635Y018368D01*
X021747Y018414D01*
X021847Y018481D01*
X021932Y018566D01*
X021999Y018666D01*
X022045Y018778D01*
X022068Y018896D01*
Y019016D01*
X022045Y019134D01*
X021999Y019245D01*
X021932Y019346D01*
X021847Y019431D01*
X021747Y019498D01*
X021635Y019544D01*
X021517Y019567D01*
D02*
G37*
G36*
X022449Y0186D02*
X022378D01*
X022311Y018573D01*
X022261Y018522D01*
X022233Y018456D01*
Y018384D01*
X022261Y018318D01*
X022311Y018267D01*
X022378Y01824D01*
X022449D01*
X022515Y018267D01*
X022566Y018318D01*
X022594Y018384D01*
Y018456D01*
X022566Y018522D01*
X022515Y018573D01*
X022449Y0186D01*
D02*
G37*
G36*
X030484Y018588D02*
X030413D01*
X030347Y018561D01*
X030296Y01851D01*
X030269Y018444D01*
Y018372D01*
X030296Y018306D01*
X030347Y018255D01*
X030413Y018228D01*
X030484D01*
X030551Y018255D01*
X030601Y018306D01*
X030629Y018372D01*
Y018444D01*
X030601Y01851D01*
X030551Y018561D01*
X030484Y018588D01*
D02*
G37*
G36*
X022449Y01785D02*
X022378D01*
X022311Y017823D01*
X022261Y017772D01*
X022233Y017706D01*
Y017634D01*
X022261Y017568D01*
X022311Y017517D01*
X022378Y01749D01*
X022449D01*
X022515Y017517D01*
X022566Y017568D01*
X022594Y017634D01*
Y017706D01*
X022566Y017772D01*
X022515Y017823D01*
X022449Y01785D01*
D02*
G37*
G36*
X025399Y0175D02*
X025328D01*
X025261Y017473D01*
X025238Y01745D01*
X025215Y017473D01*
X025149Y0175D01*
X025078D01*
X025011Y017473D01*
X024961Y017422D01*
X024933Y017356D01*
Y017284D01*
X024961Y017218D01*
X024984Y017195D01*
X024961Y017172D01*
X024933Y017106D01*
Y017034D01*
X024961Y016968D01*
X025011Y016917D01*
X025078Y01689D01*
X025149D01*
X025215Y016917D01*
X025238Y01694D01*
X025261Y016917D01*
X025328Y01689D01*
X025399D01*
X025465Y016917D01*
X025516Y016968D01*
X025544Y017034D01*
Y017106D01*
X025516Y017172D01*
X025493Y017195D01*
X025516Y017218D01*
X025544Y017284D01*
Y017356D01*
X025516Y017422D01*
X025465Y017473D01*
X025399Y0175D01*
D02*
G37*
G36*
X027249Y0177D02*
X027178D01*
X027111Y017673D01*
X027061Y017622D01*
X027033Y017556D01*
Y017484D01*
X027061Y017418D01*
X027111Y017367D01*
X027178Y01734D01*
X027249D01*
X027315Y017367D01*
X027366Y017418D01*
X027394Y017484D01*
Y017556D01*
X027366Y017622D01*
X027315Y017673D01*
X027249Y0177D01*
D02*
G37*
G36*
X030549D02*
X030478D01*
X030411Y017673D01*
X030361Y017622D01*
X030333Y017556D01*
Y017484D01*
X030361Y017418D01*
X030409Y01737D01*
X030361Y017322D01*
X030333Y017256D01*
Y017184D01*
X030361Y017118D01*
X030411Y017067D01*
X030478Y01704D01*
X030549D01*
X030615Y017067D01*
X030666Y017118D01*
X030694Y017184D01*
Y017256D01*
X030666Y017322D01*
X030618Y01737D01*
X030666Y017418D01*
X030694Y017484D01*
Y017556D01*
X030666Y017622D01*
X030615Y017673D01*
X030549Y0177D01*
D02*
G37*
G36*
X026449Y0174D02*
X026378D01*
X026311Y017373D01*
X026261Y017322D01*
X026233Y017256D01*
Y017184D01*
X026261Y017118D01*
X026311Y017067D01*
X026378Y01704D01*
X026449D01*
X026515Y017067D01*
X026566Y017118D01*
X026594Y017184D01*
Y017256D01*
X026566Y017322D01*
X026515Y017373D01*
X026449Y0174D01*
D02*
G37*
G36*
X024672Y017173D02*
X024601D01*
X024535Y017146D01*
X024484Y017095D01*
X024457Y017029D01*
Y016957D01*
X024484Y016891D01*
X024535Y016841D01*
X024601Y016813D01*
X024672D01*
X024739Y016841D01*
X024789Y016891D01*
X024817Y016957D01*
Y017029D01*
X024789Y017095D01*
X024739Y017146D01*
X024672Y017173D01*
D02*
G37*
G36*
X027499Y017D02*
X027428D01*
X027361Y016973D01*
X027311Y016922D01*
X027283Y016856D01*
Y016784D01*
X027311Y016718D01*
X027361Y016667D01*
X027428Y01664D01*
X027499D01*
X027565Y016667D01*
X027616Y016718D01*
X027644Y016784D01*
Y016856D01*
X027616Y016922D01*
X027565Y016973D01*
X027499Y017D01*
D02*
G37*
G36*
X021517Y017795D02*
X021397D01*
X021279Y017772D01*
X021168Y017726D01*
X021068Y017659D01*
X020982Y017574D01*
X020916Y017474D01*
X020869Y017363D01*
X020846Y017244D01*
Y017124D01*
X020869Y017006D01*
X020916Y016895D01*
X020982Y016795D01*
X021068Y01671D01*
X021168Y016643D01*
X021279Y016597D01*
X021397Y016573D01*
X021517D01*
X021635Y016597D01*
X021747Y016643D01*
X021847Y01671D01*
X021932Y016795D01*
X021999Y016895D01*
X022045Y017006D01*
X022068Y017124D01*
Y017244D01*
X022045Y017363D01*
X021999Y017474D01*
X021932Y017574D01*
X021847Y017659D01*
X021747Y017726D01*
X021635Y017772D01*
X021517Y017795D01*
D02*
G37*
G36*
X029262Y016862D02*
X02919D01*
X029124Y016835D01*
X029073Y016784D01*
X029046Y016718D01*
Y016646D01*
X029073Y01658D01*
X029124Y01653D01*
X02919Y016502D01*
X029262D01*
X029328Y01653D01*
X029378Y01658D01*
X029406Y016646D01*
Y016718D01*
X029378Y016784D01*
X029328Y016835D01*
X029262Y016862D01*
D02*
G37*
G36*
X026449Y01655D02*
X026378D01*
X026311Y016523D01*
X026261Y016472D01*
X026233Y016406D01*
Y016334D01*
X026261Y016268D01*
X026311Y016217D01*
X026378Y01619D01*
X026449D01*
X026515Y016217D01*
X026566Y016268D01*
X026594Y016334D01*
Y016406D01*
X026566Y016472D01*
X026515Y016523D01*
X026449Y01655D01*
D02*
G37*
G36*
X026499Y01615D02*
X026428D01*
X026361Y016123D01*
X026321Y016082D01*
X026281Y016123D01*
X026215Y01615D01*
X026143D01*
X026077Y016123D01*
X026026Y016072D01*
X025999Y016006D01*
Y015934D01*
X026026Y015868D01*
X026077Y015817D01*
X026143Y01579D01*
X026215D01*
X026281Y015817D01*
X026321Y015858D01*
X026361Y015817D01*
X026428Y01579D01*
X026499D01*
X026565Y015817D01*
X026616Y015868D01*
X026644Y015934D01*
Y016006D01*
X026616Y016072D01*
X026565Y016123D01*
X026499Y01615D01*
D02*
G37*
G36*
X028837Y016438D02*
X028765D01*
X028699Y01641D01*
X028649Y01636D01*
X028621Y016294D01*
Y016222D01*
X028649Y016156D01*
X028699Y016105D01*
X028765Y016078D01*
X028837D01*
X028903Y016105D01*
X028954Y016156D01*
X028981Y016222D01*
Y016294D01*
X028954Y01636D01*
X028903Y01641D01*
X028837Y016438D01*
D02*
G37*
G36*
X022199Y01625D02*
X022128D01*
X022061Y016223D01*
X022011Y016172D01*
X021983Y016106D01*
Y016034D01*
X022011Y015968D01*
X022061Y015917D01*
X022128Y01589D01*
X022199D01*
X022265Y015917D01*
X022316Y015968D01*
X022344Y016034D01*
Y016106D01*
X022316Y016172D01*
X022265Y016223D01*
X022199Y01625D01*
D02*
G37*
G36*
X030249Y0164D02*
X030178D01*
X030111Y016373D01*
X030061Y016322D01*
X030033Y016256D01*
Y016184D01*
X03006Y01612D01*
X030033Y016056D01*
Y015984D01*
X030061Y015918D01*
X030111Y015867D01*
X030178Y01584D01*
X030249D01*
X030315Y015867D01*
X030366Y015918D01*
X030394Y015984D01*
Y016056D01*
X030367Y01612D01*
X030394Y016184D01*
Y016256D01*
X030366Y016322D01*
X030315Y016373D01*
X030249Y0164D01*
D02*
G37*
G36*
X025299Y01615D02*
X025228D01*
X025161Y016123D01*
X025111Y016072D01*
X025083Y016006D01*
Y015934D01*
X025111Y015868D01*
X025161Y015817D01*
X025228Y01579D01*
X025299D01*
X025365Y015817D01*
X025416Y015868D01*
X025444Y015934D01*
Y016006D01*
X025416Y016072D01*
X025365Y016123D01*
X025299Y01615D01*
D02*
G37*
G36*
X015347Y020949D02*
X015275D01*
X015209Y020922D01*
X015158Y020871D01*
X015131Y020805D01*
Y020733D01*
X015158Y020667D01*
X015209Y020616D01*
X015275Y020589D01*
X015347D01*
X015413Y020616D01*
X015464Y020667D01*
X015491Y020733D01*
Y020805D01*
X015464Y020871D01*
X015413Y020922D01*
X015347Y020949D01*
D02*
G37*
G36*
X009157Y020977D02*
X009063D01*
X008972Y020953D01*
X008891Y020906D01*
X008824Y020839D01*
X008777Y020758D01*
X008753Y020667D01*
Y020573D01*
X008777Y020482D01*
X008824Y020401D01*
X008891Y020335D01*
X008972Y020288D01*
X009063Y020263D01*
X009157D01*
X009248Y020288D01*
X009329Y020335D01*
X009395Y020401D01*
X009442Y020482D01*
X009467Y020573D01*
Y020667D01*
X009442Y020758D01*
X009395Y020839D01*
X009329Y020906D01*
X009248Y020953D01*
X009157Y020977D01*
D02*
G37*
G36*
X006046Y02055D02*
X005974D01*
X005908Y020523D01*
X005857Y020472D01*
X00583Y020406D01*
Y020334D01*
X005857Y020268D01*
X005908Y020217D01*
X005974Y02019D01*
X006046D01*
X006112Y020217D01*
X006163Y020268D01*
X00619Y020334D01*
Y020406D01*
X006163Y020472D01*
X006112Y020523D01*
X006046Y02055D01*
D02*
G37*
G36*
X008496Y020675D02*
X008424D01*
X008358Y020647D01*
X008307Y020597D01*
X00828Y020531D01*
Y020459D01*
X008307Y020393D01*
X008358Y020342D01*
X008381Y020332D01*
X008358Y020323D01*
X008307Y020272D01*
X00828Y020206D01*
Y020134D01*
X008307Y020068D01*
X008358Y020017D01*
X008424Y01999D01*
X008496D01*
X008562Y020017D01*
X008613Y020068D01*
X00864Y020134D01*
Y020206D01*
X008613Y020272D01*
X008562Y020323D01*
X008539Y020332D01*
X008562Y020342D01*
X008613Y020393D01*
X00864Y020459D01*
Y020531D01*
X008613Y020597D01*
X008562Y020647D01*
X008496Y020675D01*
D02*
G37*
G36*
X015946Y0202D02*
X015874D01*
X015808Y020173D01*
X015757Y020122D01*
X01573Y020056D01*
Y019984D01*
X015757Y019918D01*
X015808Y019867D01*
X015874Y01984D01*
X015946D01*
X016012Y019867D01*
X016063Y019918D01*
X01609Y019984D01*
Y020056D01*
X016063Y020122D01*
X016012Y020173D01*
X015946Y0202D01*
D02*
G37*
G36*
X011996Y020442D02*
X011924D01*
X011858Y020414D01*
X011807Y020364D01*
X01178Y020297D01*
Y020226D01*
X011807Y02016D01*
X011826Y020141D01*
X011807Y020122D01*
X01178Y020056D01*
Y019984D01*
X011807Y019918D01*
X011858Y019867D01*
X011924Y01984D01*
X011996D01*
X012062Y019867D01*
X012113Y019918D01*
X01214Y019984D01*
Y020056D01*
X012113Y020122D01*
X012094Y020141D01*
X012113Y02016D01*
X01214Y020226D01*
Y020297D01*
X012113Y020364D01*
X012062Y020414D01*
X011996Y020442D01*
D02*
G37*
G36*
X005946Y01975D02*
X005874D01*
X005808Y019723D01*
X005757Y019672D01*
X005735Y019618D01*
X005713Y019672D01*
X005662Y019723D01*
X005596Y01975D01*
X005524D01*
X005458Y019723D01*
X005407Y019672D01*
X00538Y019606D01*
Y019534D01*
X005407Y019468D01*
X00543Y019445D01*
X005407Y019422D01*
X00538Y019356D01*
Y019284D01*
X005407Y019218D01*
X005458Y019167D01*
X005524Y01914D01*
X005596D01*
X005662Y019167D01*
X005713Y019218D01*
X005735Y019272D01*
X005757Y019218D01*
X005808Y019167D01*
X005874Y01914D01*
X005946D01*
X006012Y019167D01*
X006063Y019218D01*
X00609Y019284D01*
Y019356D01*
X006063Y019422D01*
X00604Y019445D01*
X006063Y019468D01*
X00609Y019534D01*
Y019606D01*
X006063Y019672D01*
X006012Y019723D01*
X005946Y01975D01*
D02*
G37*
G36*
X010157Y019977D02*
X010063D01*
X009972Y019953D01*
X009891Y019906D01*
X009824Y019839D01*
X009777Y019758D01*
X009753Y019667D01*
Y019573D01*
X009777Y019482D01*
X009824Y019401D01*
X009891Y019335D01*
X009972Y019288D01*
X010063Y019263D01*
X010157D01*
X010248Y019288D01*
X010329Y019335D01*
X010395Y019401D01*
X010442Y019482D01*
X010467Y019573D01*
Y019667D01*
X010442Y019758D01*
X010395Y019839D01*
X010329Y019906D01*
X010248Y019953D01*
X010157Y019977D01*
D02*
G37*
G36*
X009467D02*
X008753D01*
Y019263D01*
X009467D01*
Y019977D01*
D02*
G37*
G36*
X008496Y01995D02*
X008424D01*
X008358Y019923D01*
X008307Y019872D01*
X00828Y019806D01*
Y019734D01*
X008307Y019668D01*
X008358Y019617D01*
X008412Y019595D01*
X008358Y019573D01*
X008307Y019522D01*
X00828Y019456D01*
Y019384D01*
X008307Y019318D01*
X008358Y019267D01*
X008424Y01924D01*
X008496D01*
X008562Y019267D01*
X008613Y019318D01*
X00864Y019384D01*
Y019456D01*
X008613Y019522D01*
X008562Y019573D01*
X008508Y019595D01*
X008562Y019617D01*
X008613Y019668D01*
X00864Y019734D01*
Y019806D01*
X008613Y019872D01*
X008562Y019923D01*
X008496Y01995D01*
D02*
G37*
G36*
X012896Y01945D02*
X012824D01*
X012758Y019423D01*
X012707Y019372D01*
X01268Y019306D01*
Y019234D01*
X012707Y019168D01*
X012758Y019117D01*
X012824Y01909D01*
X012896D01*
X012962Y019117D01*
X013013Y019168D01*
X01304Y019234D01*
Y019306D01*
X013013Y019372D01*
X012962Y019423D01*
X012896Y01945D01*
D02*
G37*
G36*
X013996Y01925D02*
X013924D01*
X013858Y019223D01*
X013807Y019172D01*
X01378Y019106D01*
Y019034D01*
X013807Y018968D01*
X013858Y018917D01*
X013924Y01889D01*
X013996D01*
X014062Y018917D01*
X014113Y018968D01*
X01414Y019034D01*
Y019106D01*
X014113Y019172D01*
X014062Y019223D01*
X013996Y01925D01*
D02*
G37*
G36*
X018926Y019623D02*
X018794D01*
X018666Y019589D01*
X018551Y019522D01*
X018457Y019429D01*
X018391Y019314D01*
X018357Y019186D01*
Y019054D01*
X018391Y018926D01*
X018457Y018811D01*
X018551Y018718D01*
X018666Y018651D01*
X018794Y018617D01*
X018926D01*
X019054Y018651D01*
X019169Y018718D01*
X019262Y018811D01*
X019329Y018926D01*
X019363Y019054D01*
Y019186D01*
X019329Y019314D01*
X019262Y019429D01*
X019169Y019522D01*
X019054Y019589D01*
X018926Y019623D01*
D02*
G37*
G36*
X004864Y019567D02*
X004743D01*
X004625Y019544D01*
X004514Y019498D01*
X004414Y019431D01*
X004329Y019346D01*
X004262Y019245D01*
X004216Y019134D01*
X004192Y019016D01*
Y018896D01*
X004216Y018778D01*
X004262Y018666D01*
X004329Y018566D01*
X004414Y018481D01*
X004514Y018414D01*
X004625Y018368D01*
X004743Y018345D01*
X004864D01*
X004982Y018368D01*
X005093Y018414D01*
X005193Y018481D01*
X005278Y018566D01*
X005345Y018666D01*
X005391Y018778D01*
X005415Y018896D01*
Y019016D01*
X005391Y019134D01*
X005345Y019245D01*
X005278Y019346D01*
X005193Y019431D01*
X005093Y019498D01*
X004982Y019544D01*
X004864Y019567D01*
D02*
G37*
G36*
X005796Y0186D02*
X005724D01*
X005658Y018573D01*
X005607Y018522D01*
X00558Y018456D01*
Y018384D01*
X005607Y018318D01*
X005658Y018267D01*
X005724Y01824D01*
X005796D01*
X005862Y018267D01*
X005913Y018318D01*
X00594Y018384D01*
Y018456D01*
X005913Y018522D01*
X005862Y018573D01*
X005796Y0186D01*
D02*
G37*
G36*
X013831Y018588D02*
X013759D01*
X013693Y018561D01*
X013642Y01851D01*
X013615Y018444D01*
Y018372D01*
X013642Y018306D01*
X013693Y018255D01*
X013759Y018228D01*
X013831D01*
X013897Y018255D01*
X013948Y018306D01*
X013975Y018372D01*
Y018444D01*
X013948Y01851D01*
X013897Y018561D01*
X013831Y018588D01*
D02*
G37*
G36*
X005796Y01785D02*
X005724D01*
X005658Y017823D01*
X005607Y017772D01*
X00558Y017706D01*
Y017634D01*
X005607Y017568D01*
X005658Y017517D01*
X005724Y01749D01*
X005796D01*
X005862Y017517D01*
X005913Y017568D01*
X00594Y017634D01*
Y017706D01*
X005913Y017772D01*
X005862Y017823D01*
X005796Y01785D01*
D02*
G37*
G36*
X008746Y0175D02*
X008674D01*
X008608Y017473D01*
X008585Y01745D01*
X008562Y017473D01*
X008496Y0175D01*
X008424D01*
X008358Y017473D01*
X008307Y017422D01*
X00828Y017356D01*
Y017284D01*
X008307Y017218D01*
X00833Y017195D01*
X008307Y017172D01*
X00828Y017106D01*
Y017034D01*
X008307Y016968D01*
X008358Y016917D01*
X008424Y01689D01*
X008496D01*
X008562Y016917D01*
X008585Y01694D01*
X008608Y016917D01*
X008674Y01689D01*
X008746D01*
X008812Y016917D01*
X008863Y016968D01*
X00889Y017034D01*
Y017106D01*
X008863Y017172D01*
X00884Y017195D01*
X008863Y017218D01*
X00889Y017284D01*
Y017356D01*
X008863Y017422D01*
X008812Y017473D01*
X008746Y0175D01*
D02*
G37*
G36*
X010596Y0177D02*
X010524D01*
X010458Y017673D01*
X010407Y017622D01*
X01038Y017556D01*
Y017484D01*
X010407Y017418D01*
X010458Y017367D01*
X010524Y01734D01*
X010596D01*
X010662Y017367D01*
X010713Y017418D01*
X01074Y017484D01*
Y017556D01*
X010713Y017622D01*
X010662Y017673D01*
X010596Y0177D01*
D02*
G37*
G36*
X013896D02*
X013824D01*
X013758Y017673D01*
X013707Y017622D01*
X01368Y017556D01*
Y017484D01*
X013707Y017418D01*
X013755Y01737D01*
X013707Y017322D01*
X01368Y017256D01*
Y017184D01*
X013707Y017118D01*
X013758Y017067D01*
X013824Y01704D01*
X013896D01*
X013962Y017067D01*
X014013Y017118D01*
X01404Y017184D01*
Y017256D01*
X014013Y017322D01*
X013965Y01737D01*
X014013Y017418D01*
X01404Y017484D01*
Y017556D01*
X014013Y017622D01*
X013962Y017673D01*
X013896Y0177D01*
D02*
G37*
G36*
X009796Y0174D02*
X009724D01*
X009658Y017373D01*
X009607Y017322D01*
X00958Y017256D01*
Y017184D01*
X009607Y017118D01*
X009658Y017067D01*
X009724Y01704D01*
X009796D01*
X009862Y017067D01*
X009913Y017118D01*
X00994Y017184D01*
Y017256D01*
X009913Y017322D01*
X009862Y017373D01*
X009796Y0174D01*
D02*
G37*
G36*
X008019Y017173D02*
X007947D01*
X007881Y017146D01*
X00783Y017095D01*
X007803Y017029D01*
Y016957D01*
X00783Y016891D01*
X007881Y016841D01*
X007947Y016813D01*
X008019D01*
X008085Y016841D01*
X008136Y016891D01*
X008163Y016957D01*
Y017029D01*
X008136Y017095D01*
X008085Y017146D01*
X008019Y017173D01*
D02*
G37*
G36*
X010846Y017D02*
X010774D01*
X010708Y016973D01*
X010657Y016922D01*
X01063Y016856D01*
Y016784D01*
X010657Y016718D01*
X010708Y016667D01*
X010774Y01664D01*
X010846D01*
X010912Y016667D01*
X010963Y016718D01*
X01099Y016784D01*
Y016856D01*
X010963Y016922D01*
X010912Y016973D01*
X010846Y017D01*
D02*
G37*
G36*
X004864Y017795D02*
X004743D01*
X004625Y017772D01*
X004514Y017726D01*
X004414Y017659D01*
X004329Y017574D01*
X004262Y017474D01*
X004216Y017363D01*
X004192Y017244D01*
Y017124D01*
X004216Y017006D01*
X004262Y016895D01*
X004329Y016795D01*
X004414Y01671D01*
X004514Y016643D01*
X004625Y016597D01*
X004743Y016573D01*
X004864D01*
X004982Y016597D01*
X005093Y016643D01*
X005193Y01671D01*
X005278Y016795D01*
X005345Y016895D01*
X005391Y017006D01*
X005415Y017124D01*
Y017244D01*
X005391Y017363D01*
X005345Y017474D01*
X005278Y017574D01*
X005193Y017659D01*
X005093Y017726D01*
X004982Y017772D01*
X004864Y017795D01*
D02*
G37*
G36*
X012608Y016862D02*
X012536D01*
X01247Y016835D01*
X01242Y016784D01*
X012392Y016718D01*
Y016646D01*
X01242Y01658D01*
X01247Y01653D01*
X012536Y016502D01*
X012608D01*
X012674Y01653D01*
X012725Y01658D01*
X012752Y016646D01*
Y016718D01*
X012725Y016784D01*
X012674Y016835D01*
X012608Y016862D01*
D02*
G37*
G36*
X009796Y01655D02*
X009724D01*
X009658Y016523D01*
X009607Y016472D01*
X00958Y016406D01*
Y016334D01*
X009607Y016268D01*
X009658Y016217D01*
X009724Y01619D01*
X009796D01*
X009862Y016217D01*
X009913Y016268D01*
X00994Y016334D01*
Y016406D01*
X009913Y016472D01*
X009862Y016523D01*
X009796Y01655D01*
D02*
G37*
G36*
X009846Y01615D02*
X009774D01*
X009708Y016123D01*
X009668Y016082D01*
X009627Y016123D01*
X009561Y01615D01*
X00949D01*
X009423Y016123D01*
X009373Y016072D01*
X009345Y016006D01*
Y015934D01*
X009373Y015868D01*
X009423Y015817D01*
X00949Y01579D01*
X009561D01*
X009627Y015817D01*
X009668Y015858D01*
X009708Y015817D01*
X009774Y01579D01*
X009846D01*
X009912Y015817D01*
X009963Y015868D01*
X00999Y015934D01*
Y016006D01*
X009963Y016072D01*
X009912Y016123D01*
X009846Y01615D01*
D02*
G37*
G36*
X012183Y016438D02*
X012112D01*
X012046Y01641D01*
X011995Y01636D01*
X011968Y016294D01*
Y016222D01*
X011995Y016156D01*
X012046Y016105D01*
X012112Y016078D01*
X012183D01*
X01225Y016105D01*
X0123Y016156D01*
X012328Y016222D01*
Y016294D01*
X0123Y01636D01*
X01225Y01641D01*
X012183Y016438D01*
D02*
G37*
G36*
X005546Y01625D02*
X005474D01*
X005408Y016223D01*
X005357Y016172D01*
X00533Y016106D01*
Y016034D01*
X005357Y015968D01*
X005408Y015917D01*
X005474Y01589D01*
X005546D01*
X005612Y015917D01*
X005663Y015968D01*
X00569Y016034D01*
Y016106D01*
X005663Y016172D01*
X005612Y016223D01*
X005546Y01625D01*
D02*
G37*
G36*
X013596Y0164D02*
X013524D01*
X013458Y016373D01*
X013407Y016322D01*
X01338Y016256D01*
Y016184D01*
X013406Y01612D01*
X01338Y016056D01*
Y015984D01*
X013407Y015918D01*
X013458Y015867D01*
X013524Y01584D01*
X013596D01*
X013662Y015867D01*
X013713Y015918D01*
X01374Y015984D01*
Y016056D01*
X013713Y01612D01*
X01374Y016184D01*
Y016256D01*
X013713Y016322D01*
X013662Y016373D01*
X013596Y0164D01*
D02*
G37*
G36*
X008646Y01615D02*
X008574D01*
X008508Y016123D01*
X008457Y016072D01*
X00843Y016006D01*
Y015934D01*
X008457Y015868D01*
X008508Y015817D01*
X008574Y01579D01*
X008646D01*
X008712Y015817D01*
X008763Y015868D01*
X00879Y015934D01*
Y016006D01*
X008763Y016072D01*
X008712Y016123D01*
X008646Y01615D01*
D02*
G37*
G36*
X024476Y014267D02*
X024405D01*
X024339Y01424D01*
X024316Y014217D01*
X024293Y01424D01*
X024226Y014267D01*
X024155D01*
X024089Y01424D01*
X024038Y014189D01*
X02401Y014123D01*
Y014051D01*
X024038Y013985D01*
X02407Y013953D01*
X024038Y013922D01*
X02401Y013855D01*
Y013784D01*
X024038Y013718D01*
X024089Y013667D01*
X024155Y01364D01*
X024226D01*
X024293Y013667D01*
X024324Y013699D01*
X024339Y013684D01*
X024405Y013657D01*
X024476D01*
X024543Y013684D01*
X024593Y013735D01*
X024621Y013801D01*
Y013873D01*
X024593Y013939D01*
X02457Y013962D01*
X024593Y013985D01*
X024621Y014051D01*
Y014123D01*
X024593Y014189D01*
X024543Y01424D01*
X024476Y014267D01*
D02*
G37*
G36*
X022126Y012917D02*
X022055D01*
X021989Y01289D01*
X021938Y012839D01*
X02191Y012773D01*
Y012701D01*
X021938Y012635D01*
X021989Y012584D01*
X022055Y012557D01*
X022126D01*
X022193Y012584D01*
X022243Y012635D01*
X022271Y012701D01*
Y012773D01*
X022243Y012839D01*
X022193Y01289D01*
X022126Y012917D01*
D02*
G37*
G36*
X026238Y013244D02*
X026144D01*
X026053Y01322D01*
X025971Y013173D01*
X025905Y013106D01*
X025858Y013025D01*
X025834Y012934D01*
Y01284D01*
X025858Y012749D01*
X025905Y012668D01*
X025971Y012601D01*
X026053Y012554D01*
X026144Y01253D01*
X026238D01*
X026328Y012554D01*
X02641Y012601D01*
X026476Y012668D01*
X026523Y012749D01*
X026547Y01284D01*
Y012934D01*
X026523Y013025D01*
X026476Y013106D01*
X02641Y013173D01*
X026328Y01322D01*
X026238Y013244D01*
D02*
G37*
G36*
X027238Y012244D02*
X027144D01*
X027053Y01222D01*
X026971Y012173D01*
X026905Y012106D01*
X026858Y012025D01*
X026834Y011934D01*
Y01184D01*
X026858Y011749D01*
X026905Y011668D01*
X026971Y011601D01*
X027053Y011554D01*
X027144Y01153D01*
X027238D01*
X027328Y011554D01*
X02741Y011601D01*
X027476Y011668D01*
X027523Y011749D01*
X027547Y01184D01*
Y011934D01*
X027523Y012025D01*
X027476Y012106D01*
X02741Y012173D01*
X027328Y01222D01*
X027238Y012244D01*
D02*
G37*
G36*
X026547D02*
X025834D01*
Y01153D01*
X026547D01*
Y012244D01*
D02*
G37*
G36*
X030126Y011817D02*
X030055D01*
X029989Y01179D01*
X029938Y011739D01*
X02991Y011673D01*
Y011601D01*
X029938Y011535D01*
X029961Y011512D01*
X029938Y011489D01*
X02991Y011423D01*
Y011351D01*
X029938Y011285D01*
X029989Y011234D01*
X030055Y011207D01*
X030126D01*
X030193Y011234D01*
X030243Y011285D01*
X030271Y011351D01*
Y011423D01*
X030243Y011489D01*
X03022Y011512D01*
X030243Y011535D01*
X030271Y011601D01*
Y011673D01*
X030243Y011739D01*
X030193Y01179D01*
X030126Y011817D01*
D02*
G37*
G36*
X027926Y011217D02*
X027855D01*
X027789Y01119D01*
X027741Y011142D01*
X027693Y01119D01*
X027626Y011217D01*
X027555D01*
X027489Y01119D01*
X027438Y011139D01*
X02741Y011073D01*
Y011001D01*
X027438Y010935D01*
X027489Y010884D01*
X027555Y010857D01*
X027626D01*
X027693Y010884D01*
X027741Y010932D01*
X027789Y010884D01*
X027855Y010857D01*
X027926D01*
X027993Y010884D01*
X028043Y010935D01*
X028071Y011001D01*
Y011073D01*
X028043Y011139D01*
X027993Y01119D01*
X027926Y011217D01*
D02*
G37*
G36*
X031376Y011117D02*
X031305D01*
X031239Y01109D01*
X031216Y011067D01*
X031193Y01109D01*
X031126Y011117D01*
X031055D01*
X030989Y01109D01*
X030938Y011039D01*
X03091Y010973D01*
Y010901D01*
X030938Y010835D01*
X030989Y010784D01*
X031055Y010757D01*
X031126D01*
X031193Y010784D01*
X031216Y010807D01*
X031239Y010784D01*
X031305Y010757D01*
X031376D01*
X031443Y010784D01*
X031493Y010835D01*
X031521Y010901D01*
Y010973D01*
X031493Y011039D01*
X031443Y01109D01*
X031376Y011117D01*
D02*
G37*
G36*
X022576Y011067D02*
X022505D01*
X022439Y01104D01*
X022395Y010996D01*
X022366Y010992D01*
X022337Y010996D01*
X022293Y01104D01*
X022226Y011067D01*
X022155D01*
X022089Y01104D01*
X022038Y010989D01*
X02201Y010923D01*
Y010851D01*
X022038Y010785D01*
X022061Y010762D01*
X022038Y010739D01*
X02201Y010673D01*
Y010628D01*
X02196Y010613D01*
X021909Y01069D01*
X021824Y010775D01*
X021724Y010842D01*
X021613Y010888D01*
X021494Y010912D01*
X021374D01*
X021256Y010888D01*
X021145Y010842D01*
X021045Y010775D01*
X02096Y01069D01*
X020893Y01059D01*
X020847Y010479D01*
X020823Y010361D01*
Y010241D01*
X020847Y010122D01*
X020893Y010011D01*
X02096Y009911D01*
X021045Y009826D01*
X021145Y009759D01*
X021256Y009713D01*
X021374Y00969D01*
X021494D01*
X021613Y009713D01*
X021724Y009759D01*
X021824Y009826D01*
X021909Y009911D01*
X021976Y010011D01*
X022022Y010122D01*
X022045Y010241D01*
Y010361D01*
X022022Y010479D01*
X022021Y010481D01*
X022063Y010509D01*
X022089Y010484D01*
X022155Y010457D01*
X022226D01*
X022293Y010484D01*
X022337Y010528D01*
X022366Y010532D01*
X022395Y010528D01*
X022439Y010484D01*
X022505Y010457D01*
X022576D01*
X022643Y010484D01*
X022693Y010535D01*
X022721Y010601D01*
Y010673D01*
X022693Y010739D01*
X02267Y010762D01*
X022693Y010785D01*
X022721Y010851D01*
Y010923D01*
X022693Y010989D01*
X022643Y01104D01*
X022576Y011067D01*
D02*
G37*
G36*
X027676Y010467D02*
X027605D01*
X027539Y01044D01*
X027488Y010389D01*
X02746Y010323D01*
Y010251D01*
X027488Y010185D01*
X027539Y010134D01*
X027605Y010107D01*
X027676D01*
X027743Y010134D01*
X027793Y010185D01*
X027821Y010251D01*
Y010323D01*
X027793Y010389D01*
X027743Y01044D01*
X027676Y010467D01*
D02*
G37*
G36*
X028976Y010217D02*
X028905D01*
X028839Y01019D01*
X028788Y010139D01*
X02876Y010073D01*
Y010001D01*
X028788Y009935D01*
X028839Y009884D01*
X028905Y009857D01*
X028976D01*
X029043Y009884D01*
X029093Y009935D01*
X029121Y010001D01*
Y010073D01*
X029093Y010139D01*
X029043Y01019D01*
X028976Y010217D01*
D02*
G37*
G36*
X022389Y010004D02*
X022318D01*
X022252Y009977D01*
X022201Y009926D01*
X022173Y00986D01*
Y009788D01*
X022201Y009722D01*
X022252Y009671D01*
X022318Y009644D01*
X022389D01*
X022456Y009671D01*
X022506Y009722D01*
X022534Y009788D01*
Y00986D01*
X022506Y009926D01*
X022456Y009977D01*
X022389Y010004D01*
D02*
G37*
G36*
X028826Y009317D02*
X028755D01*
X028689Y00929D01*
X028638Y009239D01*
X02861Y009173D01*
Y009101D01*
X028638Y009035D01*
X028689Y008984D01*
X028755Y008957D01*
X028826D01*
X028893Y008984D01*
X028943Y009035D01*
X028971Y009101D01*
Y009173D01*
X028943Y009239D01*
X028893Y00929D01*
X028826Y009317D01*
D02*
G37*
G36*
X022426Y009217D02*
X022355D01*
X022289Y00919D01*
X022238Y009139D01*
X02221Y009073D01*
Y009001D01*
X022238Y008935D01*
X022289Y008884D01*
X022355Y008857D01*
X022426D01*
X022493Y008884D01*
X022543Y008935D01*
X022571Y009001D01*
Y009073D01*
X022543Y009139D01*
X022493Y00919D01*
X022426Y009217D01*
D02*
G37*
G36*
X024226Y008817D02*
X024155D01*
X024089Y00879D01*
X024066Y008767D01*
X024043Y00879D01*
X023976Y008817D01*
X023905D01*
X023839Y00879D01*
X023788Y008739D01*
X02376Y008673D01*
Y008601D01*
X023788Y008535D01*
X023811Y008512D01*
X023788Y008489D01*
X02376Y008423D01*
Y008351D01*
X023788Y008285D01*
X023839Y008234D01*
X023905Y008207D01*
X023976D01*
X024043Y008234D01*
X024066Y008257D01*
X024089Y008234D01*
X024155Y008207D01*
X024226D01*
X024293Y008234D01*
X024343Y008285D01*
X024371Y008351D01*
Y008423D01*
X024343Y008489D01*
X02432Y008512D01*
X024343Y008535D01*
X024371Y008601D01*
Y008673D01*
X024343Y008739D01*
X024293Y00879D01*
X024226Y008817D01*
D02*
G37*
G36*
X025826D02*
X025755D01*
X025689Y00879D01*
X025638Y008739D01*
X02561Y008673D01*
Y008601D01*
X025638Y008535D01*
X025689Y008484D01*
X025755Y008457D01*
X025826D01*
X025893Y008484D01*
X025943Y008535D01*
X025971Y008601D01*
Y008673D01*
X025943Y008739D01*
X025893Y00879D01*
X025826Y008817D01*
D02*
G37*
G36*
X021494Y00914D02*
X021374D01*
X021256Y009117D01*
X021145Y009071D01*
X021045Y009004D01*
X02096Y008919D01*
X020893Y008819D01*
X020847Y008707D01*
X020823Y008589D01*
Y008469D01*
X020847Y008351D01*
X020893Y00824D01*
X02096Y008139D01*
X021045Y008054D01*
X021145Y007987D01*
X021256Y007941D01*
X021374Y007918D01*
X021494D01*
X021613Y007941D01*
X021724Y007987D01*
X021824Y008054D01*
X021909Y008139D01*
X021976Y00824D01*
X022022Y008351D01*
X022045Y008469D01*
Y008589D01*
X022022Y008707D01*
X021976Y008819D01*
X021909Y008919D01*
X021824Y009004D01*
X021724Y009071D01*
X021613Y009117D01*
X021494Y00914D01*
D02*
G37*
G36*
X025276Y008267D02*
X025205D01*
X025139Y00824D01*
X025088Y008189D01*
X02506Y008123D01*
Y008051D01*
X025088Y007985D01*
X025139Y007934D01*
X025205Y007907D01*
X025276D01*
X025343Y007934D01*
X025393Y007985D01*
X025421Y008051D01*
Y008123D01*
X025393Y008189D01*
X025343Y00824D01*
X025276Y008267D01*
D02*
G37*
G36*
X028976Y008417D02*
X028905D01*
X028839Y00839D01*
X028788Y008339D01*
X02876Y008273D01*
Y008267D01*
X028705D01*
X028639Y00824D01*
X028588Y008189D01*
X02856Y008123D01*
Y008051D01*
X028588Y007985D01*
X028639Y007934D01*
X028705Y007907D01*
X02871D01*
Y007851D01*
X028738Y007785D01*
X028789Y007734D01*
X028855Y007707D01*
X028926D01*
X028993Y007734D01*
X029043Y007785D01*
X029071Y007851D01*
Y007923D01*
X029043Y007989D01*
X029014Y008018D01*
X029024Y008077D01*
X029043Y008084D01*
X029093Y008135D01*
X029121Y008201D01*
Y008273D01*
X029093Y008339D01*
X029043Y00839D01*
X028976Y008417D01*
D02*
G37*
G36*
X027526Y007567D02*
X027455D01*
X027389Y00754D01*
X027338Y007489D01*
X02731Y007423D01*
Y007351D01*
X027338Y007285D01*
X027389Y007234D01*
X027455Y007207D01*
X027526D01*
X027593Y007234D01*
X027643Y007285D01*
X027671Y007351D01*
Y007423D01*
X027643Y007489D01*
X027593Y00754D01*
X027526Y007567D01*
D02*
G37*
G36*
X025076Y006967D02*
X025005D01*
X024939Y00694D01*
X024888Y006889D01*
X02486Y006823D01*
Y006751D01*
X024888Y006685D01*
X024939Y006634D01*
X025005Y006607D01*
X025076D01*
X025143Y006634D01*
X025193Y006685D01*
X025221Y006751D01*
Y006823D01*
X025193Y006889D01*
X025143Y00694D01*
X025076Y006967D01*
D02*
G37*
G36*
X024626Y006467D02*
X024555D01*
X024489Y00644D01*
X024438Y006389D01*
X02441Y006323D01*
Y006251D01*
X024438Y006185D01*
X024489Y006134D01*
X024555Y006107D01*
X024626D01*
X024693Y006134D01*
X024743Y006185D01*
X024771Y006251D01*
Y006323D01*
X024743Y006389D01*
X024693Y00644D01*
X024626Y006467D01*
D02*
G37*
G36*
X024676Y005967D02*
X024605D01*
X024539Y00594D01*
X024488Y005889D01*
X02446Y005823D01*
Y005751D01*
X024488Y005685D01*
X024539Y005634D01*
X024605Y005607D01*
X024676D01*
X024743Y005634D01*
X024793Y005685D01*
X024821Y005751D01*
Y005823D01*
X024793Y005889D01*
X024743Y00594D01*
X024676Y005967D01*
D02*
G37*
G36*
X026926Y005642D02*
X026855D01*
X026789Y005615D01*
X026738Y005564D01*
X02671Y005498D01*
Y005467D01*
X026705D01*
X026639Y00544D01*
X026588Y005389D01*
X02656Y005323D01*
Y005251D01*
X026588Y005185D01*
X026639Y005134D01*
X026705Y005107D01*
X026776D01*
X026843Y005134D01*
X026893Y005185D01*
X026921Y005251D01*
Y005282D01*
X026926D01*
X026993Y005309D01*
X027043Y00536D01*
X027071Y005426D01*
Y005498D01*
X027043Y005564D01*
X026993Y005615D01*
X026926Y005642D01*
D02*
G37*
G36*
X007823Y014267D02*
X007751D01*
X007685Y01424D01*
X007662Y014217D01*
X007639Y01424D01*
X007573Y014267D01*
X007501D01*
X007435Y01424D01*
X007384Y014189D01*
X007357Y014123D01*
Y014051D01*
X007384Y013985D01*
X007416Y013953D01*
X007384Y013922D01*
X007357Y013855D01*
Y013784D01*
X007384Y013718D01*
X007435Y013667D01*
X007501Y01364D01*
X007573D01*
X007639Y013667D01*
X007671Y013699D01*
X007685Y013684D01*
X007751Y013657D01*
X007823D01*
X007889Y013684D01*
X00794Y013735D01*
X007967Y013801D01*
Y013873D01*
X00794Y013939D01*
X007917Y013962D01*
X00794Y013985D01*
X007967Y014051D01*
Y014123D01*
X00794Y014189D01*
X007889Y01424D01*
X007823Y014267D01*
D02*
G37*
G36*
X005473Y012917D02*
X005401D01*
X005335Y01289D01*
X005284Y012839D01*
X005257Y012773D01*
Y012701D01*
X005284Y012635D01*
X005335Y012584D01*
X005401Y012557D01*
X005473D01*
X005539Y012584D01*
X00559Y012635D01*
X005617Y012701D01*
Y012773D01*
X00559Y012839D01*
X005539Y01289D01*
X005473Y012917D01*
D02*
G37*
G36*
X009584Y013244D02*
X00949D01*
X009399Y01322D01*
X009318Y013173D01*
X009251Y013106D01*
X009204Y013025D01*
X00918Y012934D01*
Y01284D01*
X009204Y012749D01*
X009251Y012668D01*
X009318Y012601D01*
X009399Y012554D01*
X00949Y01253D01*
X009584D01*
X009675Y012554D01*
X009756Y012601D01*
X009823Y012668D01*
X00987Y012749D01*
X009894Y01284D01*
Y012934D01*
X00987Y013025D01*
X009823Y013106D01*
X009756Y013173D01*
X009675Y01322D01*
X009584Y013244D01*
D02*
G37*
G36*
X010584Y012244D02*
X01049D01*
X010399Y01222D01*
X010318Y012173D01*
X010251Y012106D01*
X010204Y012025D01*
X01018Y011934D01*
Y01184D01*
X010204Y011749D01*
X010251Y011668D01*
X010318Y011601D01*
X010399Y011554D01*
X01049Y01153D01*
X010584D01*
X010675Y011554D01*
X010756Y011601D01*
X010823Y011668D01*
X01087Y011749D01*
X010894Y01184D01*
Y011934D01*
X01087Y012025D01*
X010823Y012106D01*
X010756Y012173D01*
X010675Y01222D01*
X010584Y012244D01*
D02*
G37*
G36*
X009894D02*
X00918D01*
Y01153D01*
X009894D01*
Y012244D01*
D02*
G37*
G36*
X013473Y011817D02*
X013401D01*
X013335Y01179D01*
X013284Y011739D01*
X013257Y011673D01*
Y011601D01*
X013284Y011535D01*
X013307Y011512D01*
X013284Y011489D01*
X013257Y011423D01*
Y011351D01*
X013284Y011285D01*
X013335Y011234D01*
X013401Y011207D01*
X013473D01*
X013539Y011234D01*
X01359Y011285D01*
X013617Y011351D01*
Y011423D01*
X01359Y011489D01*
X013567Y011512D01*
X01359Y011535D01*
X013617Y011601D01*
Y011673D01*
X01359Y011739D01*
X013539Y01179D01*
X013473Y011817D01*
D02*
G37*
G36*
X011273Y011217D02*
X011201D01*
X011135Y01119D01*
X011087Y011142D01*
X011039Y01119D01*
X010973Y011217D01*
X010901D01*
X010835Y01119D01*
X010784Y011139D01*
X010757Y011073D01*
Y011001D01*
X010784Y010935D01*
X010835Y010884D01*
X010901Y010857D01*
X010973D01*
X011039Y010884D01*
X011087Y010932D01*
X011135Y010884D01*
X011201Y010857D01*
X011273D01*
X011339Y010884D01*
X01139Y010935D01*
X011417Y011001D01*
Y011073D01*
X01139Y011139D01*
X011339Y01119D01*
X011273Y011217D01*
D02*
G37*
G36*
X014723Y011117D02*
X014651D01*
X014585Y01109D01*
X014562Y011067D01*
X014539Y01109D01*
X014473Y011117D01*
X014401D01*
X014335Y01109D01*
X014284Y011039D01*
X014257Y010973D01*
Y010901D01*
X014284Y010835D01*
X014335Y010784D01*
X014401Y010757D01*
X014473D01*
X014539Y010784D01*
X014562Y010807D01*
X014585Y010784D01*
X014651Y010757D01*
X014723D01*
X014789Y010784D01*
X01484Y010835D01*
X014867Y010901D01*
Y010973D01*
X01484Y011039D01*
X014789Y01109D01*
X014723Y011117D01*
D02*
G37*
G36*
X005923Y011067D02*
X005851D01*
X005785Y01104D01*
X005741Y010996D01*
X005712Y010992D01*
X005683Y010996D01*
X005639Y01104D01*
X005573Y011067D01*
X005501D01*
X005435Y01104D01*
X005384Y010989D01*
X005357Y010923D01*
Y010851D01*
X005384Y010785D01*
X005407Y010762D01*
X005384Y010739D01*
X005357Y010673D01*
Y010628D01*
X005307Y010613D01*
X005255Y01069D01*
X00517Y010775D01*
X00507Y010842D01*
X004959Y010888D01*
X004841Y010912D01*
X004721D01*
X004602Y010888D01*
X004491Y010842D01*
X004391Y010775D01*
X004306Y01069D01*
X004239Y01059D01*
X004193Y010479D01*
X00417Y010361D01*
Y010241D01*
X004193Y010122D01*
X004239Y010011D01*
X004306Y009911D01*
X004391Y009826D01*
X004491Y009759D01*
X004602Y009713D01*
X004721Y00969D01*
X004841D01*
X004959Y009713D01*
X00507Y009759D01*
X00517Y009826D01*
X005255Y009911D01*
X005322Y010011D01*
X005368Y010122D01*
X005392Y010241D01*
Y010361D01*
X005368Y010479D01*
X005368Y010481D01*
X00541Y010509D01*
X005435Y010484D01*
X005501Y010457D01*
X005573D01*
X005639Y010484D01*
X005683Y010528D01*
X005712Y010532D01*
X005741Y010528D01*
X005785Y010484D01*
X005851Y010457D01*
X005923D01*
X005989Y010484D01*
X00604Y010535D01*
X006067Y010601D01*
Y010673D01*
X00604Y010739D01*
X006017Y010762D01*
X00604Y010785D01*
X006067Y010851D01*
Y010923D01*
X00604Y010989D01*
X005989Y01104D01*
X005923Y011067D01*
D02*
G37*
G36*
X011023Y010467D02*
X010951D01*
X010885Y01044D01*
X010834Y010389D01*
X010807Y010323D01*
Y010251D01*
X010834Y010185D01*
X010885Y010134D01*
X010951Y010107D01*
X011023D01*
X011089Y010134D01*
X01114Y010185D01*
X011167Y010251D01*
Y010323D01*
X01114Y010389D01*
X011089Y01044D01*
X011023Y010467D01*
D02*
G37*
G36*
X012323Y010217D02*
X012251D01*
X012185Y01019D01*
X012134Y010139D01*
X012107Y010073D01*
Y010001D01*
X012134Y009935D01*
X012185Y009884D01*
X012251Y009857D01*
X012323D01*
X012389Y009884D01*
X01244Y009935D01*
X012467Y010001D01*
Y010073D01*
X01244Y010139D01*
X012389Y01019D01*
X012323Y010217D01*
D02*
G37*
G36*
X005736Y010004D02*
X005664D01*
X005598Y009977D01*
X005547Y009926D01*
X00552Y00986D01*
Y009788D01*
X005547Y009722D01*
X005598Y009671D01*
X005664Y009644D01*
X005736D01*
X005802Y009671D01*
X005853Y009722D01*
X00588Y009788D01*
Y00986D01*
X005853Y009926D01*
X005802Y009977D01*
X005736Y010004D01*
D02*
G37*
G36*
X012173Y009317D02*
X012101D01*
X012035Y00929D01*
X011984Y009239D01*
X011957Y009173D01*
Y009101D01*
X011984Y009035D01*
X012035Y008984D01*
X012101Y008957D01*
X012173D01*
X012239Y008984D01*
X01229Y009035D01*
X012317Y009101D01*
Y009173D01*
X01229Y009239D01*
X012239Y00929D01*
X012173Y009317D01*
D02*
G37*
G36*
X005773Y009217D02*
X005701D01*
X005635Y00919D01*
X005584Y009139D01*
X005557Y009073D01*
Y009001D01*
X005584Y008935D01*
X005635Y008884D01*
X005701Y008857D01*
X005773D01*
X005839Y008884D01*
X00589Y008935D01*
X005917Y009001D01*
Y009073D01*
X00589Y009139D01*
X005839Y00919D01*
X005773Y009217D01*
D02*
G37*
G36*
X007573Y008817D02*
X007501D01*
X007435Y00879D01*
X007412Y008767D01*
X007389Y00879D01*
X007323Y008817D01*
X007251D01*
X007185Y00879D01*
X007134Y008739D01*
X007107Y008673D01*
Y008601D01*
X007134Y008535D01*
X007157Y008512D01*
X007134Y008489D01*
X007107Y008423D01*
Y008351D01*
X007134Y008285D01*
X007185Y008234D01*
X007251Y008207D01*
X007323D01*
X007389Y008234D01*
X007412Y008257D01*
X007435Y008234D01*
X007501Y008207D01*
X007573D01*
X007639Y008234D01*
X00769Y008285D01*
X007717Y008351D01*
Y008423D01*
X00769Y008489D01*
X007667Y008512D01*
X00769Y008535D01*
X007717Y008601D01*
Y008673D01*
X00769Y008739D01*
X007639Y00879D01*
X007573Y008817D01*
D02*
G37*
G36*
X009173D02*
X009101D01*
X009035Y00879D01*
X008984Y008739D01*
X008957Y008673D01*
Y008601D01*
X008984Y008535D01*
X009035Y008484D01*
X009101Y008457D01*
X009173D01*
X009239Y008484D01*
X00929Y008535D01*
X009317Y008601D01*
Y008673D01*
X00929Y008739D01*
X009239Y00879D01*
X009173Y008817D01*
D02*
G37*
G36*
X004841Y00914D02*
X004721D01*
X004602Y009117D01*
X004491Y009071D01*
X004391Y009004D01*
X004306Y008919D01*
X004239Y008819D01*
X004193Y008707D01*
X00417Y008589D01*
Y008469D01*
X004193Y008351D01*
X004239Y00824D01*
X004306Y008139D01*
X004391Y008054D01*
X004491Y007987D01*
X004602Y007941D01*
X004721Y007918D01*
X004841D01*
X004959Y007941D01*
X00507Y007987D01*
X00517Y008054D01*
X005255Y008139D01*
X005322Y00824D01*
X005368Y008351D01*
X005392Y008469D01*
Y008589D01*
X005368Y008707D01*
X005322Y008819D01*
X005255Y008919D01*
X00517Y009004D01*
X00507Y009071D01*
X004959Y009117D01*
X004841Y00914D01*
D02*
G37*
G36*
X008623Y008267D02*
X008551D01*
X008485Y00824D01*
X008434Y008189D01*
X008407Y008123D01*
Y008051D01*
X008434Y007985D01*
X008485Y007934D01*
X008551Y007907D01*
X008623D01*
X008689Y007934D01*
X00874Y007985D01*
X008767Y008051D01*
Y008123D01*
X00874Y008189D01*
X008689Y00824D01*
X008623Y008267D01*
D02*
G37*
G36*
X012323Y008417D02*
X012251D01*
X012185Y00839D01*
X012134Y008339D01*
X012107Y008273D01*
Y008267D01*
X012051D01*
X011985Y00824D01*
X011934Y008189D01*
X011907Y008123D01*
Y008051D01*
X011934Y007985D01*
X011985Y007934D01*
X012051Y007907D01*
X012057D01*
Y007851D01*
X012084Y007785D01*
X012135Y007734D01*
X012201Y007707D01*
X012273D01*
X012339Y007734D01*
X01239Y007785D01*
X012417Y007851D01*
Y007923D01*
X01239Y007989D01*
X01236Y008018D01*
X01237Y008077D01*
X012389Y008084D01*
X01244Y008135D01*
X012467Y008201D01*
Y008273D01*
X01244Y008339D01*
X012389Y00839D01*
X012323Y008417D01*
D02*
G37*
G36*
X010873Y007567D02*
X010801D01*
X010735Y00754D01*
X010684Y007489D01*
X010657Y007423D01*
Y007351D01*
X010684Y007285D01*
X010735Y007234D01*
X010801Y007207D01*
X010873D01*
X010939Y007234D01*
X01099Y007285D01*
X011017Y007351D01*
Y007423D01*
X01099Y007489D01*
X010939Y00754D01*
X010873Y007567D01*
D02*
G37*
G36*
X008423Y006967D02*
X008351D01*
X008285Y00694D01*
X008234Y006889D01*
X008207Y006823D01*
Y006751D01*
X008234Y006685D01*
X008285Y006634D01*
X008351Y006607D01*
X008423D01*
X008489Y006634D01*
X00854Y006685D01*
X008567Y006751D01*
Y006823D01*
X00854Y006889D01*
X008489Y00694D01*
X008423Y006967D01*
D02*
G37*
G36*
X007973Y006467D02*
X007901D01*
X007835Y00644D01*
X007784Y006389D01*
X007757Y006323D01*
Y006251D01*
X007784Y006185D01*
X007835Y006134D01*
X007901Y006107D01*
X007973D01*
X008039Y006134D01*
X00809Y006185D01*
X008117Y006251D01*
Y006323D01*
X00809Y006389D01*
X008039Y00644D01*
X007973Y006467D01*
D02*
G37*
G36*
X008023Y005967D02*
X007951D01*
X007885Y00594D01*
X007834Y005889D01*
X007807Y005823D01*
Y005751D01*
X007834Y005685D01*
X007885Y005634D01*
X007951Y005607D01*
X008023D01*
X008089Y005634D01*
X00814Y005685D01*
X008167Y005751D01*
Y005823D01*
X00814Y005889D01*
X008089Y00594D01*
X008023Y005967D01*
D02*
G37*
G36*
X010273Y005642D02*
X010201D01*
X010135Y005615D01*
X010084Y005564D01*
X010057Y005498D01*
Y005467D01*
X010051D01*
X009985Y00544D01*
X009934Y005389D01*
X009907Y005323D01*
Y005251D01*
X009934Y005185D01*
X009985Y005134D01*
X010051Y005107D01*
X010123D01*
X010189Y005134D01*
X01024Y005185D01*
X010267Y005251D01*
Y005282D01*
X010273D01*
X010339Y005309D01*
X01039Y00536D01*
X010417Y005426D01*
Y005498D01*
X01039Y005564D01*
X010339Y005615D01*
X010273Y005642D01*
D02*
G37*
%LPD*%
D65*
X027191Y012887D02*
D03*
X010537D02*
D03*
X01016Y026841D02*
D03*
X026813D02*
D03*
X01011Y02062D02*
D03*
X026763D02*
D03*
D66*
X021791Y009437D02*
D03*
X022141Y007387D02*
D03*
X021541D02*
D03*
X033491Y013887D02*
D03*
Y012927D02*
D03*
Y011967D02*
D03*
Y007167D02*
D03*
Y006207D02*
D03*
Y005247D02*
D03*
Y004287D02*
D03*
X033011Y013887D02*
D03*
X033251Y013407D02*
D03*
X033011Y012927D02*
D03*
X033251Y012447D02*
D03*
X033011Y011967D02*
D03*
X033251Y007647D02*
D03*
X033011Y007167D02*
D03*
X033251Y006687D02*
D03*
X033011Y006207D02*
D03*
X033251Y005727D02*
D03*
X033011Y005247D02*
D03*
X033251Y004767D02*
D03*
X033011Y004287D02*
D03*
X032531Y013887D02*
D03*
X032771Y013407D02*
D03*
X032531Y012927D02*
D03*
X032771Y012447D02*
D03*
X032531Y011967D02*
D03*
Y007167D02*
D03*
X032771Y006687D02*
D03*
X032531Y006207D02*
D03*
X032771Y005727D02*
D03*
X032531Y005247D02*
D03*
X032771Y004767D02*
D03*
X032531Y004287D02*
D03*
X032051Y013887D02*
D03*
X032291Y013407D02*
D03*
X032051Y012927D02*
D03*
X032291Y012447D02*
D03*
Y011487D02*
D03*
Y006687D02*
D03*
X032051Y006207D02*
D03*
X032291Y005727D02*
D03*
X032051Y005247D02*
D03*
X032291Y004767D02*
D03*
X032051Y004287D02*
D03*
X031571Y013887D02*
D03*
X031811Y013407D02*
D03*
X031571Y012927D02*
D03*
X031811Y006687D02*
D03*
X031571Y006207D02*
D03*
X031811Y005727D02*
D03*
X031571Y005247D02*
D03*
X031811Y004767D02*
D03*
X031571Y004287D02*
D03*
X031091Y013887D02*
D03*
X031331Y013407D02*
D03*
X031091Y012927D02*
D03*
Y006207D02*
D03*
X031331Y005727D02*
D03*
X031091Y005247D02*
D03*
X031331Y004767D02*
D03*
X031091Y004287D02*
D03*
X030611Y013887D02*
D03*
X030851Y013407D02*
D03*
X030611Y012927D02*
D03*
X030851Y005727D02*
D03*
X030611Y005247D02*
D03*
X030851Y004767D02*
D03*
X030611Y004287D02*
D03*
X030131Y013887D02*
D03*
X030371Y013407D02*
D03*
X030131Y012927D02*
D03*
X030371Y005727D02*
D03*
X030131Y005247D02*
D03*
X030371Y004767D02*
D03*
X030131Y004287D02*
D03*
X029651Y013887D02*
D03*
X029891Y013407D02*
D03*
X029651Y012927D02*
D03*
Y005247D02*
D03*
X029891Y004767D02*
D03*
X029651Y004287D02*
D03*
X029171Y013887D02*
D03*
X029411Y013407D02*
D03*
X029171Y012927D02*
D03*
X029411Y004767D02*
D03*
X029171Y004287D02*
D03*
X028691Y013887D02*
D03*
X028931Y013407D02*
D03*
X028691Y012927D02*
D03*
Y004287D02*
D03*
X028211Y013887D02*
D03*
X028451Y013407D02*
D03*
Y004767D02*
D03*
X028211Y004287D02*
D03*
X027731Y005247D02*
D03*
X027971Y004767D02*
D03*
X027731Y004287D02*
D03*
X027491Y008607D02*
D03*
Y004767D02*
D03*
X027251Y004287D02*
D03*
X027011Y008607D02*
D03*
X026771Y004287D02*
D03*
X026291Y013887D02*
D03*
X026531Y008607D02*
D03*
X026291Y004287D02*
D03*
X025811Y013887D02*
D03*
X026051Y007647D02*
D03*
X025811Y004287D02*
D03*
X025331Y013887D02*
D03*
X025571Y007647D02*
D03*
X025331Y004287D02*
D03*
X024851D02*
D03*
X024611Y004767D02*
D03*
X024371Y004287D02*
D03*
X023891D02*
D03*
X023411Y013887D02*
D03*
Y004287D02*
D03*
X022931D02*
D03*
X022451Y005247D02*
D03*
X022691Y004767D02*
D03*
X022451Y004287D02*
D03*
X022211Y005727D02*
D03*
X021971Y005247D02*
D03*
X022211Y004767D02*
D03*
X021971Y004287D02*
D03*
X021731Y011487D02*
D03*
X021491Y006207D02*
D03*
X021731Y005727D02*
D03*
X021491Y005247D02*
D03*
X021731Y004767D02*
D03*
X021491Y004287D02*
D03*
X021011Y012927D02*
D03*
X021251Y012447D02*
D03*
X021011Y006207D02*
D03*
X021251Y005727D02*
D03*
X021011Y005247D02*
D03*
X021251Y004767D02*
D03*
X021011Y004287D02*
D03*
X033691Y008287D02*
D03*
X023391Y011587D02*
D03*
X029191Y010887D02*
D03*
X029741Y007137D02*
D03*
X025091Y014587D02*
D03*
X025841D02*
D03*
X033691Y007637D02*
D03*
Y004787D02*
D03*
Y005737D02*
D03*
Y006687D02*
D03*
X024791Y009787D02*
D03*
X024591Y009087D02*
D03*
X024391Y009787D02*
D03*
X025091Y009637D02*
D03*
X032991Y008287D02*
D03*
X033691Y008937D02*
D03*
Y009587D02*
D03*
X024941Y010787D02*
D03*
X023291Y004987D02*
D03*
X023791Y004587D02*
D03*
X021341Y009437D02*
D03*
X020891Y013537D02*
D03*
Y014037D02*
D03*
Y014587D02*
D03*
X021441Y014687D02*
D03*
X022191D02*
D03*
X023441D02*
D03*
X024141D02*
D03*
X026491Y014587D02*
D03*
X027091D02*
D03*
Y013887D02*
D03*
X027641D02*
D03*
X027891Y014587D02*
D03*
X028591D02*
D03*
X029491D02*
D03*
X030391D02*
D03*
X031241D02*
D03*
X032091D02*
D03*
X032841D02*
D03*
X033491D02*
D03*
X032291Y008287D02*
D03*
X032391Y007637D02*
D03*
X031941Y007187D02*
D03*
X028941Y004787D02*
D03*
X029041Y005287D02*
D03*
X029491Y005737D02*
D03*
X030541Y006737D02*
D03*
X031141Y006687D02*
D03*
X031791Y010987D02*
D03*
X032291D02*
D03*
X033541D02*
D03*
X033491Y011437D02*
D03*
X031741Y011537D02*
D03*
Y012437D02*
D03*
X031891Y011987D02*
D03*
X033155Y009705D02*
D03*
X033449Y009766D02*
D03*
X033441Y010437D02*
D03*
X032891Y011587D02*
D03*
X028191Y006286D02*
D03*
X02864Y010037D02*
D03*
X031441Y008837D02*
D03*
X031541Y009337D02*
D03*
X030591Y008787D02*
D03*
X024541Y006887D02*
D03*
X022191Y008137D02*
D03*
X022541D02*
D03*
X022191Y007887D02*
D03*
X022541D02*
D03*
X029041Y009337D02*
D03*
X005137Y009437D02*
D03*
X005487Y007387D02*
D03*
X004887D02*
D03*
X016837Y013887D02*
D03*
Y012927D02*
D03*
Y011967D02*
D03*
Y007167D02*
D03*
Y006207D02*
D03*
Y005247D02*
D03*
Y004287D02*
D03*
X016357Y013887D02*
D03*
X016597Y013407D02*
D03*
X016357Y012927D02*
D03*
X016597Y012447D02*
D03*
X016357Y011967D02*
D03*
X016597Y007647D02*
D03*
X016357Y007167D02*
D03*
X016597Y006687D02*
D03*
X016357Y006207D02*
D03*
X016597Y005727D02*
D03*
X016357Y005247D02*
D03*
X016597Y004767D02*
D03*
X016357Y004287D02*
D03*
X015877Y013887D02*
D03*
X016117Y013407D02*
D03*
X015877Y012927D02*
D03*
X016117Y012447D02*
D03*
X015877Y011967D02*
D03*
Y007167D02*
D03*
X016117Y006687D02*
D03*
X015877Y006207D02*
D03*
X016117Y005727D02*
D03*
X015877Y005247D02*
D03*
X016117Y004767D02*
D03*
X015877Y004287D02*
D03*
X015397Y013887D02*
D03*
X015637Y013407D02*
D03*
X015397Y012927D02*
D03*
X015637Y012447D02*
D03*
Y011487D02*
D03*
Y006687D02*
D03*
X015397Y006207D02*
D03*
X015637Y005727D02*
D03*
X015397Y005247D02*
D03*
X015637Y004767D02*
D03*
X015397Y004287D02*
D03*
X014917Y013887D02*
D03*
X015157Y013407D02*
D03*
X014917Y012927D02*
D03*
X015157Y006687D02*
D03*
X014917Y006207D02*
D03*
X015157Y005727D02*
D03*
X014917Y005247D02*
D03*
X015157Y004767D02*
D03*
X014917Y004287D02*
D03*
X014437Y013887D02*
D03*
X014677Y013407D02*
D03*
X014437Y012927D02*
D03*
Y006207D02*
D03*
X014677Y005727D02*
D03*
X014437Y005247D02*
D03*
X014677Y004767D02*
D03*
X014437Y004287D02*
D03*
X013957Y013887D02*
D03*
X014197Y013407D02*
D03*
X013957Y012927D02*
D03*
X014197Y005727D02*
D03*
X013957Y005247D02*
D03*
X014197Y004767D02*
D03*
X013957Y004287D02*
D03*
X013477Y013887D02*
D03*
X013717Y013407D02*
D03*
X013477Y012927D02*
D03*
X013717Y005727D02*
D03*
X013477Y005247D02*
D03*
X013717Y004767D02*
D03*
X013477Y004287D02*
D03*
X012997Y013887D02*
D03*
X013237Y013407D02*
D03*
X012997Y012927D02*
D03*
Y005247D02*
D03*
X013237Y004767D02*
D03*
X012997Y004287D02*
D03*
X012517Y013887D02*
D03*
X012757Y013407D02*
D03*
X012517Y012927D02*
D03*
X012757Y004767D02*
D03*
X012517Y004287D02*
D03*
X012037Y013887D02*
D03*
X012277Y013407D02*
D03*
X012037Y012927D02*
D03*
Y004287D02*
D03*
X011557Y013887D02*
D03*
X011797Y013407D02*
D03*
Y004767D02*
D03*
X011557Y004287D02*
D03*
X011077Y005247D02*
D03*
X011317Y004767D02*
D03*
X011077Y004287D02*
D03*
X010837Y008607D02*
D03*
Y004767D02*
D03*
X010597Y004287D02*
D03*
X010357Y008607D02*
D03*
X010117Y004287D02*
D03*
X009637Y013887D02*
D03*
X009877Y008607D02*
D03*
X009637Y004287D02*
D03*
X009157Y013887D02*
D03*
X009397Y007647D02*
D03*
X009157Y004287D02*
D03*
X008677Y013887D02*
D03*
X008917Y007647D02*
D03*
X008677Y004287D02*
D03*
X008197D02*
D03*
X007957Y004767D02*
D03*
X007717Y004287D02*
D03*
X007237D02*
D03*
X006757Y013887D02*
D03*
Y004287D02*
D03*
X006277D02*
D03*
X005797Y005247D02*
D03*
X006037Y004767D02*
D03*
X005797Y004287D02*
D03*
X005557Y005727D02*
D03*
X005317Y005247D02*
D03*
X005557Y004767D02*
D03*
X005317Y004287D02*
D03*
X005077Y011487D02*
D03*
X004837Y006207D02*
D03*
X005077Y005727D02*
D03*
X004837Y005247D02*
D03*
X005077Y004767D02*
D03*
X004837Y004287D02*
D03*
X004357Y012927D02*
D03*
X004597Y012447D02*
D03*
X004357Y006207D02*
D03*
X004597Y005727D02*
D03*
X004357Y005247D02*
D03*
X004597Y004767D02*
D03*
X004357Y004287D02*
D03*
X017037Y008287D02*
D03*
X006737Y011587D02*
D03*
X012537Y010887D02*
D03*
X013087Y007137D02*
D03*
X008437Y014587D02*
D03*
X009187D02*
D03*
X017037Y007637D02*
D03*
Y004787D02*
D03*
Y005737D02*
D03*
Y006687D02*
D03*
X008137Y009787D02*
D03*
X007937Y009087D02*
D03*
X007737Y009787D02*
D03*
X008437Y009637D02*
D03*
X016337Y008287D02*
D03*
X017037Y008937D02*
D03*
Y009587D02*
D03*
X008287Y010787D02*
D03*
X006637Y004987D02*
D03*
X007137Y004587D02*
D03*
X004687Y009437D02*
D03*
X004237Y013537D02*
D03*
Y014037D02*
D03*
Y014587D02*
D03*
X004787Y014687D02*
D03*
X005537D02*
D03*
X006787D02*
D03*
X007487D02*
D03*
X009837Y014587D02*
D03*
X010437D02*
D03*
Y013887D02*
D03*
X010987D02*
D03*
X011237Y014587D02*
D03*
X011937D02*
D03*
X012837D02*
D03*
X013737D02*
D03*
X014587D02*
D03*
X015437D02*
D03*
X016187D02*
D03*
X016837D02*
D03*
X015637Y008287D02*
D03*
X015737Y007637D02*
D03*
X015287Y007187D02*
D03*
X012287Y004787D02*
D03*
X012387Y005287D02*
D03*
X012837Y005737D02*
D03*
X013887Y006737D02*
D03*
X014487Y006687D02*
D03*
X015137Y010987D02*
D03*
X015637D02*
D03*
X016887D02*
D03*
X016837Y011437D02*
D03*
X015087Y011537D02*
D03*
Y012437D02*
D03*
X015237Y011987D02*
D03*
X016501Y009705D02*
D03*
X016795Y009766D02*
D03*
X016787Y010437D02*
D03*
X016237Y011587D02*
D03*
X011537Y006286D02*
D03*
X011987Y010037D02*
D03*
X014787Y008837D02*
D03*
X014887Y009337D02*
D03*
X013937Y008787D02*
D03*
X007887Y006887D02*
D03*
X005537Y008137D02*
D03*
X005887D02*
D03*
X005537Y007887D02*
D03*
X005887D02*
D03*
X012387Y009337D02*
D03*
X02026Y023941D02*
D03*
X01496Y021991D02*
D03*
Y022541D02*
D03*
X01536Y022291D02*
D03*
Y021891D02*
D03*
X01586D02*
D03*
Y022291D02*
D03*
X01656Y022341D02*
D03*
Y021841D02*
D03*
X01386Y026441D02*
D03*
X01381Y027191D02*
D03*
X00561Y022091D02*
D03*
X00491D02*
D03*
X00421Y022141D02*
D03*
X01691Y024379D02*
D03*
X01641Y02454D02*
D03*
X016494Y02413D02*
D03*
X01861Y024591D02*
D03*
Y024141D02*
D03*
X00926Y025191D02*
D03*
X01096Y024041D02*
D03*
X01001Y025191D02*
D03*
X01866Y024891D02*
D03*
X01821Y026291D02*
D03*
X00881Y021541D02*
D03*
X00786D02*
D03*
X00686D02*
D03*
X00591D02*
D03*
X00496D02*
D03*
X00416D02*
D03*
X01121Y027191D02*
D03*
X01201D02*
D03*
X01486Y021491D02*
D03*
X01536D02*
D03*
X01591D02*
D03*
X01656D02*
D03*
X01721D02*
D03*
X02021Y027191D02*
D03*
X01956D02*
D03*
X01886D02*
D03*
X01821D02*
D03*
X01756D02*
D03*
X02026Y023391D02*
D03*
Y022791D02*
D03*
Y022241D02*
D03*
Y021691D02*
D03*
X01981Y021491D02*
D03*
X01911D02*
D03*
X01851D02*
D03*
X01776D02*
D03*
X01721Y021791D02*
D03*
Y022391D02*
D03*
Y023091D02*
D03*
Y023741D02*
D03*
X01691Y025991D02*
D03*
Y026591D02*
D03*
Y027191D02*
D03*
X01581Y024191D02*
D03*
X01491Y022891D02*
D03*
X014578Y022904D02*
D03*
X01196Y024891D02*
D03*
X01296Y023241D02*
D03*
X01421Y024491D02*
D03*
X00806Y023841D02*
D03*
X01381Y025441D02*
D03*
X01181Y022241D02*
D03*
X01121Y023091D02*
D03*
X01161Y023491D02*
D03*
X01211Y023891D02*
D03*
X01241Y022691D02*
D03*
X00691Y024041D02*
D03*
X00771Y025091D02*
D03*
X00556Y022791D02*
D03*
Y023041D02*
D03*
X00591Y022791D02*
D03*
Y023041D02*
D03*
X004294Y027041D02*
D03*
X036913Y023941D02*
D03*
X031613Y021991D02*
D03*
Y022541D02*
D03*
X032013Y022291D02*
D03*
Y021891D02*
D03*
X032513D02*
D03*
Y022291D02*
D03*
X033213Y022341D02*
D03*
Y021841D02*
D03*
X030513Y026441D02*
D03*
X030463Y027191D02*
D03*
X022263Y022091D02*
D03*
X021563D02*
D03*
X020863Y022141D02*
D03*
X033563Y024379D02*
D03*
X033063Y02454D02*
D03*
X033147Y02413D02*
D03*
X035263Y024591D02*
D03*
Y024141D02*
D03*
X025913Y025191D02*
D03*
X027613Y024041D02*
D03*
X026663Y025191D02*
D03*
X035313Y024891D02*
D03*
X034863Y026291D02*
D03*
X025463Y021541D02*
D03*
X024513D02*
D03*
X023513D02*
D03*
X022563D02*
D03*
X021613D02*
D03*
X020813D02*
D03*
X027863Y027191D02*
D03*
X028663D02*
D03*
X031513Y021491D02*
D03*
X032013D02*
D03*
X032563D02*
D03*
X033213D02*
D03*
X033863D02*
D03*
X036863Y027191D02*
D03*
X036213D02*
D03*
X035513D02*
D03*
X034863D02*
D03*
X034213D02*
D03*
X036913Y023391D02*
D03*
Y022791D02*
D03*
Y022241D02*
D03*
Y021691D02*
D03*
X036463Y021491D02*
D03*
X035763D02*
D03*
X035163D02*
D03*
X034413D02*
D03*
X033863Y021791D02*
D03*
Y022391D02*
D03*
Y023091D02*
D03*
Y023741D02*
D03*
X033563Y025991D02*
D03*
Y026591D02*
D03*
Y027191D02*
D03*
X032463Y024191D02*
D03*
X031563Y022891D02*
D03*
X031232Y022904D02*
D03*
X028613Y024891D02*
D03*
X029613Y023241D02*
D03*
X030863Y024491D02*
D03*
X024713Y023841D02*
D03*
X030463Y025441D02*
D03*
X028463Y022241D02*
D03*
X027863Y023091D02*
D03*
X028263Y023491D02*
D03*
X028763Y023891D02*
D03*
X029063Y022691D02*
D03*
X023563Y024041D02*
D03*
X024363Y025091D02*
D03*
X022213Y022791D02*
D03*
Y023041D02*
D03*
X022563Y022791D02*
D03*
Y023041D02*
D03*
X020948Y027041D02*
D03*
X01996Y01907D02*
D03*
X01626Y01857D02*
D03*
X01416Y01837D02*
D03*
X017929Y019353D02*
D03*
X017278Y01884D02*
D03*
X018107Y018798D02*
D03*
X018878Y018492D02*
D03*
X019484Y019059D02*
D03*
X019Y019734D02*
D03*
X01661Y01617D02*
D03*
X01721Y01672D02*
D03*
X01751Y01722D02*
D03*
X01711Y01992D02*
D03*
X01726Y02047D02*
D03*
X01666Y01992D02*
D03*
Y02047D02*
D03*
Y02097D02*
D03*
X01246Y01807D02*
D03*
X01276Y01777D02*
D03*
X01306Y01747D02*
D03*
X01381Y01937D02*
D03*
X015341Y017651D02*
D03*
X01381Y02017D02*
D03*
X01176Y02097D02*
D03*
X01086D02*
D03*
X01376Y020999D02*
D03*
X01966Y01717D02*
D03*
X01896Y01722D02*
D03*
X01816D02*
D03*
X01966Y01672D02*
D03*
X01896Y01667D02*
D03*
X01791Y01672D02*
D03*
X01961Y01617D02*
D03*
X01896D02*
D03*
X01806D02*
D03*
X01961Y01567D02*
D03*
X01856D02*
D03*
X01721Y01617D02*
D03*
X01776Y01562D02*
D03*
X01691Y01567D02*
D03*
X01601D02*
D03*
X01516D02*
D03*
X01956Y02097D02*
D03*
X015269Y015261D02*
D03*
X01451Y01527D02*
D03*
X01606D02*
D03*
X01671D02*
D03*
X01746D02*
D03*
X01826D02*
D03*
X01896D02*
D03*
X00421Y01602D02*
D03*
X00846Y01527D02*
D03*
X00691D02*
D03*
X00601D02*
D03*
X00506D02*
D03*
X00426D02*
D03*
X01966D02*
D03*
X02026D02*
D03*
Y01567D02*
D03*
Y01622D02*
D03*
Y01672D02*
D03*
Y01722D02*
D03*
Y02097D02*
D03*
X01881D02*
D03*
X01811D02*
D03*
X01741D02*
D03*
X01031Y01897D02*
D03*
X01211Y01827D02*
D03*
X00911Y01897D02*
D03*
X00871Y01667D02*
D03*
X011196Y016759D02*
D03*
X00451Y02002D02*
D03*
X00671Y01772D02*
D03*
X00751Y01887D02*
D03*
X01161Y01607D02*
D03*
Y01722D02*
D03*
X01226Y01762D02*
D03*
X01281Y01712D02*
D03*
X01236Y01647D02*
D03*
X00556Y01657D02*
D03*
X00591D02*
D03*
Y01682D02*
D03*
X00556D02*
D03*
X036613Y01907D02*
D03*
X032913Y01857D02*
D03*
X030813Y01837D02*
D03*
X034583Y019353D02*
D03*
X033931Y01884D02*
D03*
X03476Y018798D02*
D03*
X035532Y018492D02*
D03*
X036137Y019059D02*
D03*
X035653Y019734D02*
D03*
X033263Y01617D02*
D03*
X033863Y01672D02*
D03*
X034163Y01722D02*
D03*
X033763Y01992D02*
D03*
X033913Y02047D02*
D03*
X033313Y01992D02*
D03*
Y02047D02*
D03*
Y02097D02*
D03*
X029113Y01807D02*
D03*
X029413Y01777D02*
D03*
X029713Y01747D02*
D03*
X030463Y01937D02*
D03*
X031995Y017651D02*
D03*
X030463Y02017D02*
D03*
X028413Y02097D02*
D03*
X027513D02*
D03*
X030413Y020999D02*
D03*
X036313Y01717D02*
D03*
X035613Y01722D02*
D03*
X034813D02*
D03*
X036313Y01672D02*
D03*
X035613Y01667D02*
D03*
X034563Y01672D02*
D03*
X036263Y01617D02*
D03*
X035613D02*
D03*
X034713D02*
D03*
X036263Y01567D02*
D03*
X035213D02*
D03*
X033863Y01617D02*
D03*
X034413Y01562D02*
D03*
X033563Y01567D02*
D03*
X032663D02*
D03*
X031813D02*
D03*
X036213Y02097D02*
D03*
X031923Y015261D02*
D03*
X031163Y01527D02*
D03*
X032713D02*
D03*
X033363D02*
D03*
X034113D02*
D03*
X034913D02*
D03*
X035613D02*
D03*
X020863Y01602D02*
D03*
X025113Y01527D02*
D03*
X023563D02*
D03*
X022663D02*
D03*
X021713D02*
D03*
X020913D02*
D03*
X036313D02*
D03*
X036913D02*
D03*
Y01567D02*
D03*
Y01622D02*
D03*
Y01672D02*
D03*
Y01722D02*
D03*
Y02097D02*
D03*
X035463D02*
D03*
X034763D02*
D03*
X034063D02*
D03*
X026963Y01897D02*
D03*
X028763Y01827D02*
D03*
X025763Y01897D02*
D03*
X025363Y01667D02*
D03*
X02785Y016759D02*
D03*
X021163Y02002D02*
D03*
X023363Y01772D02*
D03*
X024163Y01887D02*
D03*
X028263Y01607D02*
D03*
Y01722D02*
D03*
X028913Y01762D02*
D03*
X029463Y01712D02*
D03*
X029013Y01647D02*
D03*
X022213Y01657D02*
D03*
X022563D02*
D03*
Y01682D02*
D03*
X022213D02*
D03*
D67*
X017876Y020104D02*
D03*
X019844D02*
D03*
Y018136D02*
D03*
X017876D02*
D03*
X034529Y020104D02*
D03*
X036498D02*
D03*
Y018136D02*
D03*
X034529D02*
D03*
M02*
