G04*
G04 #@! TF.GenerationSoftware,Altium Limited,Altium Designer,22.10.1 (41)*
G04*
G04 Layer_Color=14186556*
%FSTAX24Y24*%
%MOIN*%
G70*
G04*
G04 #@! TF.SameCoordinates,3ABB2080-4673-4E4B-9202-AF62ACB4AD27*
G04*
G04*
G04 #@! TF.FilePolarity,Negative*
G04*
G01*
G75*
%ADD57R,0.1458X0.0671*%
%ADD69R,0.0454X0.0415*%
%ADD78C,0.0615*%
%ADD79R,0.0615X0.0615*%
%ADD80C,0.1182*%
%ADD81R,0.0564X0.0789*%
%ADD82R,0.0395X0.0395*%
%ADD83R,0.0316X0.0600*%
G04:AMPARAMS|DCode=84|XSize=23.7mil|YSize=82.8mil|CornerRadius=0mil|HoleSize=0mil|Usage=FLASHONLY|Rotation=45.000|XOffset=0mil|YOffset=0mil|HoleType=Round|Shape=Rectangle|*
%AMROTATEDRECTD84*
4,1,4,0.0209,-0.0377,-0.0377,0.0209,-0.0209,0.0377,0.0377,-0.0209,0.0209,-0.0377,0.0*
%
%ADD84ROTATEDRECTD84*%

G04:AMPARAMS|DCode=85|XSize=31.6mil|YSize=82.8mil|CornerRadius=0mil|HoleSize=0mil|Usage=FLASHONLY|Rotation=45.000|XOffset=0mil|YOffset=0mil|HoleType=Round|Shape=Rectangle|*
%AMROTATEDRECTD85*
4,1,4,0.0181,-0.0405,-0.0405,0.0181,-0.0181,0.0405,0.0405,-0.0181,0.0181,-0.0405,0.0*
%
%ADD85ROTATEDRECTD85*%

%ADD86R,0.0749X0.0592*%
D57*
X033323Y017584D02*
D03*
Y015458D02*
D03*
X049976Y017584D02*
D03*
Y015458D02*
D03*
X033323Y023805D02*
D03*
Y021679D02*
D03*
X049976Y023805D02*
D03*
Y021679D02*
D03*
X033323Y030025D02*
D03*
Y027899D02*
D03*
X049976Y030025D02*
D03*
Y027899D02*
D03*
X033323Y036246D02*
D03*
Y03412D02*
D03*
X049976Y036246D02*
D03*
Y03412D02*
D03*
X033323Y042466D02*
D03*
Y04034D02*
D03*
X049976Y042466D02*
D03*
Y04034D02*
D03*
D69*
X021323Y014915D02*
D03*
Y015427D02*
D03*
X019823Y014377D02*
D03*
X019823Y013865D02*
D03*
X037976Y014915D02*
D03*
Y015427D02*
D03*
X036476Y014377D02*
D03*
X036476Y013865D02*
D03*
X021323Y021136D02*
D03*
Y021648D02*
D03*
X019823Y020598D02*
D03*
X019823Y020086D02*
D03*
X037976Y021136D02*
D03*
Y021648D02*
D03*
X036476Y020598D02*
D03*
X036476Y020086D02*
D03*
X021323Y027356D02*
D03*
Y027868D02*
D03*
X019823Y026818D02*
D03*
X019823Y026306D02*
D03*
X037976Y027356D02*
D03*
Y027868D02*
D03*
X036476Y026818D02*
D03*
X036476Y026306D02*
D03*
X021323Y033577D02*
D03*
Y034089D02*
D03*
X019823Y033039D02*
D03*
X019823Y032527D02*
D03*
X037976Y033577D02*
D03*
Y034089D02*
D03*
X036476Y033039D02*
D03*
X036476Y032527D02*
D03*
X021323Y039797D02*
D03*
Y040309D02*
D03*
X019823Y039259D02*
D03*
X019823Y038747D02*
D03*
X037976Y039797D02*
D03*
Y040309D02*
D03*
X036476Y039259D02*
D03*
X036476Y038747D02*
D03*
D78*
X022279Y018328D02*
D03*
Y019115D02*
D03*
X023067Y018328D02*
D03*
X038933D02*
D03*
Y019115D02*
D03*
X03972Y018328D02*
D03*
X022279Y024548D02*
D03*
Y025336D02*
D03*
X023067Y024548D02*
D03*
X038933D02*
D03*
Y025336D02*
D03*
X03972Y024548D02*
D03*
X022279Y030769D02*
D03*
Y031556D02*
D03*
X023067Y030769D02*
D03*
X038933D02*
D03*
Y031556D02*
D03*
X03972Y030769D02*
D03*
X022279Y036989D02*
D03*
Y037776D02*
D03*
X023067Y036989D02*
D03*
X038933D02*
D03*
Y037776D02*
D03*
X03972Y036989D02*
D03*
X022279Y04321D02*
D03*
Y043997D02*
D03*
X023067Y04321D02*
D03*
X038933D02*
D03*
Y043997D02*
D03*
X03972Y04321D02*
D03*
D79*
X023067Y019115D02*
D03*
X03972D02*
D03*
X023067Y025336D02*
D03*
X03972D02*
D03*
X023067Y031556D02*
D03*
X03972D02*
D03*
X023067Y037776D02*
D03*
X03972D02*
D03*
X023067Y043997D02*
D03*
X03972D02*
D03*
D80*
X018444Y017371D02*
D03*
X018444Y0156D02*
D03*
X035097Y017371D02*
D03*
X035097Y0156D02*
D03*
X018444Y023592D02*
D03*
X018444Y02182D02*
D03*
X035097Y023592D02*
D03*
X035097Y02182D02*
D03*
X018444Y029812D02*
D03*
X018444Y028041D02*
D03*
X035097Y029812D02*
D03*
X035097Y028041D02*
D03*
X018444Y036033D02*
D03*
X018444Y034261D02*
D03*
X035097Y036033D02*
D03*
X035097Y034261D02*
D03*
X018444Y042253D02*
D03*
X018444Y040482D02*
D03*
X035097Y042253D02*
D03*
X035097Y040482D02*
D03*
D81*
X021573Y017856D02*
D03*
Y018887D02*
D03*
X038226Y017856D02*
D03*
Y018887D02*
D03*
X021573Y024076D02*
D03*
Y025108D02*
D03*
X038226Y024076D02*
D03*
Y025108D02*
D03*
X021573Y030297D02*
D03*
Y031328D02*
D03*
X038226Y030297D02*
D03*
Y031328D02*
D03*
X021573Y036517D02*
D03*
Y037548D02*
D03*
X038226Y036517D02*
D03*
Y037548D02*
D03*
X021573Y042737D02*
D03*
Y043769D02*
D03*
X038226Y042737D02*
D03*
Y043769D02*
D03*
D82*
X025323Y018581D02*
D03*
Y019171D02*
D03*
X020473Y014417D02*
D03*
X020473Y013826D02*
D03*
X041976Y018581D02*
D03*
Y019171D02*
D03*
X037126Y014417D02*
D03*
X037126Y013826D02*
D03*
X025323Y024801D02*
D03*
Y025392D02*
D03*
X020473Y020637D02*
D03*
X020473Y020047D02*
D03*
X041976Y024801D02*
D03*
Y025392D02*
D03*
X037126Y020637D02*
D03*
X037126Y020047D02*
D03*
X025323Y031022D02*
D03*
Y031612D02*
D03*
X020473Y026858D02*
D03*
X020473Y026267D02*
D03*
X041976Y031022D02*
D03*
Y031612D02*
D03*
X037126Y026858D02*
D03*
X037126Y026267D02*
D03*
X025323Y037242D02*
D03*
Y037833D02*
D03*
X020473Y033078D02*
D03*
X020473Y032487D02*
D03*
X041976Y037242D02*
D03*
Y037833D02*
D03*
X037126Y033078D02*
D03*
X037126Y032487D02*
D03*
X025323Y043463D02*
D03*
Y044053D02*
D03*
X020473Y039298D02*
D03*
X020473Y038708D02*
D03*
X041976Y043463D02*
D03*
Y044053D02*
D03*
X037126Y039298D02*
D03*
X037126Y038708D02*
D03*
D83*
X020523Y017769D02*
D03*
X020897D02*
D03*
X020149D02*
D03*
Y018674D02*
D03*
X020897D02*
D03*
X037176Y017769D02*
D03*
X03755D02*
D03*
X036802D02*
D03*
Y018674D02*
D03*
X03755D02*
D03*
X020523Y023989D02*
D03*
X020897D02*
D03*
X020149D02*
D03*
Y024895D02*
D03*
X020897D02*
D03*
X037176Y023989D02*
D03*
X03755D02*
D03*
X036802D02*
D03*
Y024895D02*
D03*
X03755D02*
D03*
X020523Y03021D02*
D03*
X020897D02*
D03*
X020149D02*
D03*
Y031115D02*
D03*
X020897D02*
D03*
X037176Y03021D02*
D03*
X03755D02*
D03*
X036802D02*
D03*
Y031115D02*
D03*
X03755D02*
D03*
X020523Y03643D02*
D03*
X020897D02*
D03*
X020149D02*
D03*
Y037335D02*
D03*
X020897D02*
D03*
X037176Y03643D02*
D03*
X03755D02*
D03*
X036802D02*
D03*
Y037335D02*
D03*
X03755D02*
D03*
X020523Y04265D02*
D03*
X020897D02*
D03*
X020149D02*
D03*
Y043556D02*
D03*
X020897D02*
D03*
X037176Y04265D02*
D03*
X03755D02*
D03*
X036802D02*
D03*
Y043556D02*
D03*
X03755D02*
D03*
D84*
X024173Y015271D02*
D03*
X040826D02*
D03*
X024173Y021492D02*
D03*
X040826D02*
D03*
X024173Y027712D02*
D03*
X040826D02*
D03*
X024173Y033933D02*
D03*
X040826D02*
D03*
X024173Y040153D02*
D03*
X040826D02*
D03*
D85*
X023908Y015007D02*
D03*
X024437Y015536D02*
D03*
X040562Y015007D02*
D03*
X041091Y015536D02*
D03*
X023908Y021227D02*
D03*
X024437Y021756D02*
D03*
X040562Y021227D02*
D03*
X041091Y021756D02*
D03*
X023908Y027448D02*
D03*
X024437Y027977D02*
D03*
X040562Y027448D02*
D03*
X041091Y027977D02*
D03*
X023908Y033668D02*
D03*
X024437Y034197D02*
D03*
X040562Y033668D02*
D03*
X041091Y034197D02*
D03*
X023908Y039889D02*
D03*
X024437Y040418D02*
D03*
X040562Y039889D02*
D03*
X041091Y040418D02*
D03*
D86*
X019369Y017863D02*
D03*
Y015108D02*
D03*
Y016879D02*
D03*
Y016092D02*
D03*
X036023Y017863D02*
D03*
Y015108D02*
D03*
Y016879D02*
D03*
Y016092D02*
D03*
X019369Y024084D02*
D03*
Y021328D02*
D03*
Y0231D02*
D03*
Y022312D02*
D03*
X036023Y024084D02*
D03*
Y021328D02*
D03*
Y0231D02*
D03*
Y022312D02*
D03*
X019369Y030304D02*
D03*
Y027548D02*
D03*
Y02932D02*
D03*
Y028533D02*
D03*
X036023Y030304D02*
D03*
Y027548D02*
D03*
Y02932D02*
D03*
Y028533D02*
D03*
X019369Y036525D02*
D03*
Y033769D02*
D03*
Y035541D02*
D03*
Y034753D02*
D03*
X036023Y036525D02*
D03*
Y033769D02*
D03*
Y035541D02*
D03*
Y034753D02*
D03*
X019369Y042745D02*
D03*
Y039989D02*
D03*
Y041761D02*
D03*
Y040974D02*
D03*
X036023Y042745D02*
D03*
Y039989D02*
D03*
Y041761D02*
D03*
Y040974D02*
D03*
M02*
