G04*
G04 #@! TF.GenerationSoftware,Altium Limited,Altium Designer,22.10.1 (41)*
G04*
G04 Layer_Color=255*
%FSTAX24Y24*%
%MOIN*%
G70*
G04*
G04 #@! TF.SameCoordinates,A34DC46A-7450-461F-AC4F-9E147ECCBACE*
G04*
G04*
G04 #@! TF.FilePolarity,Positive*
G04*
G01*
G75*
G04:AMPARAMS|DCode=20|XSize=23.6mil|YSize=74.8mil|CornerRadius=0mil|HoleSize=0mil|Usage=FLASHONLY|Rotation=45.000|XOffset=0mil|YOffset=0mil|HoleType=Round|Shape=Rectangle|*
%AMROTATEDRECTD20*
4,1,4,0.0181,-0.0348,-0.0348,0.0181,-0.0181,0.0348,0.0348,-0.0181,0.0181,-0.0348,0.0*
%
%ADD20ROTATEDRECTD20*%

G04:AMPARAMS|DCode=21|XSize=15.7mil|YSize=74.8mil|CornerRadius=0mil|HoleSize=0mil|Usage=FLASHONLY|Rotation=45.000|XOffset=0mil|YOffset=0mil|HoleType=Round|Shape=Rectangle|*
%AMROTATEDRECTD21*
4,1,4,0.0209,-0.0320,-0.0320,0.0209,-0.0209,0.0320,0.0320,-0.0209,0.0209,-0.0320,0.0*
%
%ADD21ROTATEDRECTD21*%

G04:AMPARAMS|DCode=22|XSize=23.6mil|YSize=29.5mil|CornerRadius=0mil|HoleSize=0mil|Usage=FLASHONLY|Rotation=135.000|XOffset=0mil|YOffset=0mil|HoleType=Round|Shape=Rectangle|*
%AMROTATEDRECTD22*
4,1,4,0.0188,0.0021,-0.0021,-0.0188,-0.0188,-0.0021,0.0021,0.0188,0.0188,0.0021,0.0*
%
%ADD22ROTATEDRECTD22*%

%ADD27R,0.0374X0.0335*%
%ADD37R,0.0236X0.0520*%
%ADD38R,0.0484X0.0709*%
%ADD54R,0.0335X0.0374*%
%ADD62C,0.1102*%
%ADD63R,0.0594X0.0594*%
%ADD64C,0.0594*%
%ADD66C,0.1004*%
%ADD67C,0.0886*%
%ADD68R,0.0315X0.0315*%
%ADD69R,0.0315X0.0315*%
%ADD70R,0.0669X0.0512*%
%ADD71R,0.0315X0.0315*%
D20*
X012324Y023305D02*
D03*
X011795Y022776D02*
D03*
X02992Y008034D02*
D03*
X030449Y008563D02*
D03*
X012274Y017085D02*
D03*
X011745Y016556D02*
D03*
X02997Y014254D02*
D03*
X030499Y014783D02*
D03*
D21*
X01206Y023041D02*
D03*
X030184Y008298D02*
D03*
X01201Y01682D02*
D03*
X030234Y014519D02*
D03*
D22*
X01177Y024301D02*
D03*
X01145Y02398D02*
D03*
X030474Y007038D02*
D03*
X030794Y007358D02*
D03*
X01155Y01766D02*
D03*
X01187Y01798D02*
D03*
X030694Y013679D02*
D03*
X030374Y013358D02*
D03*
D27*
X028791Y0236D02*
D03*
Y023088D02*
D03*
X012137Y011159D02*
D03*
Y010647D02*
D03*
X01321Y026946D02*
D03*
Y026435D02*
D03*
X029034Y004392D02*
D03*
Y004904D02*
D03*
X01306Y020726D02*
D03*
Y020214D02*
D03*
X029184Y010613D02*
D03*
Y011124D02*
D03*
D37*
X007284Y026593D02*
D03*
X006536D02*
D03*
Y025688D02*
D03*
X00691D02*
D03*
X007284D02*
D03*
X03496Y004745D02*
D03*
X035708D02*
D03*
Y005651D02*
D03*
X035334D02*
D03*
X03496D02*
D03*
X007184Y020623D02*
D03*
X006436D02*
D03*
Y019717D02*
D03*
X00681D02*
D03*
X007184D02*
D03*
X03506Y010716D02*
D03*
X035808D02*
D03*
Y011621D02*
D03*
X035434D02*
D03*
X03506D02*
D03*
D38*
X00801Y026791D02*
D03*
Y025725D02*
D03*
X034234Y004548D02*
D03*
Y005614D02*
D03*
X00791Y020536D02*
D03*
Y019504D02*
D03*
X034334Y010803D02*
D03*
Y011834D02*
D03*
D54*
X021585Y026439D02*
D03*
X022096D02*
D03*
X004931Y013998D02*
D03*
X005443D02*
D03*
X004766Y027041D02*
D03*
X004254D02*
D03*
X037478Y004298D02*
D03*
X03799D02*
D03*
X004254Y02082D02*
D03*
X004766D02*
D03*
X03799Y010519D02*
D03*
X037478D02*
D03*
D62*
X021484Y022875D02*
D03*
X021484Y021103D02*
D03*
X004831Y010434D02*
D03*
X004831Y008662D02*
D03*
X004804Y025176D02*
D03*
X004804Y023405D02*
D03*
X03744Y006162D02*
D03*
X03744Y007934D02*
D03*
X004804Y017184D02*
D03*
X004804Y018956D02*
D03*
X03744Y014154D02*
D03*
X03744Y012383D02*
D03*
D63*
X026441Y023689D02*
D03*
X009787Y011248D02*
D03*
X00916Y025841D02*
D03*
X033084Y005498D02*
D03*
X00911Y01962D02*
D03*
X033134Y011719D02*
D03*
D64*
X026441Y024689D02*
D03*
X027441Y023689D02*
D03*
Y024689D02*
D03*
X009787Y012248D02*
D03*
X010787Y011248D02*
D03*
Y012248D02*
D03*
X00916Y026841D02*
D03*
X01016D02*
D03*
Y025841D02*
D03*
X033084Y004498D02*
D03*
X032084D02*
D03*
Y005498D02*
D03*
X00911Y02062D02*
D03*
X01011Y01962D02*
D03*
Y02062D02*
D03*
X033134Y010719D02*
D03*
X032134Y011719D02*
D03*
Y010719D02*
D03*
D66*
X017876Y020104D02*
D03*
X019844D02*
D03*
Y018136D02*
D03*
X017876D02*
D03*
X024368Y011234D02*
D03*
X0224D02*
D03*
Y013203D02*
D03*
X024368D02*
D03*
D67*
X01886Y01912D02*
D03*
X023384Y012219D02*
D03*
D68*
X021545Y025789D02*
D03*
X022136D02*
D03*
X004892Y013348D02*
D03*
X005482D02*
D03*
X005415Y027041D02*
D03*
X006005D02*
D03*
X036829Y004298D02*
D03*
X036239D02*
D03*
X006005Y02082D02*
D03*
X005415D02*
D03*
X036239Y010519D02*
D03*
X036829D02*
D03*
D69*
X029441Y023634D02*
D03*
Y023044D02*
D03*
X029684Y004353D02*
D03*
Y004943D02*
D03*
X029834Y011214D02*
D03*
Y010623D02*
D03*
D70*
X022409Y023367D02*
D03*
Y020611D02*
D03*
Y022383D02*
D03*
Y021595D02*
D03*
X005756Y010926D02*
D03*
Y00817D02*
D03*
Y009942D02*
D03*
Y009154D02*
D03*
X005729Y025668D02*
D03*
Y022913D02*
D03*
Y024684D02*
D03*
Y023897D02*
D03*
X036515Y00567D02*
D03*
Y008426D02*
D03*
Y006654D02*
D03*
Y007442D02*
D03*
X005729Y017676D02*
D03*
Y018464D02*
D03*
Y016692D02*
D03*
Y019448D02*
D03*
X036515Y013662D02*
D03*
Y012875D02*
D03*
Y014646D02*
D03*
Y011891D02*
D03*
D71*
X012787Y011193D02*
D03*
Y010603D02*
D03*
X01256Y026986D02*
D03*
Y026395D02*
D03*
X01241Y020125D02*
D03*
Y020715D02*
D03*
M02*
