G04*
G04 #@! TF.GenerationSoftware,Altium Limited,Altium Designer,22.10.1 (41)*
G04*
G04 Layer_Physical_Order=3*
G04 Layer_Color=16440176*
%FSTAX24Y24*%
%MOIN*%
G70*
G04*
G04 #@! TF.SameCoordinates,87BD3A09-32BE-4FA1-A735-6A54E07DCED2*
G04*
G04*
G04 #@! TF.FilePolarity,Positive*
G04*
G01*
G75*
%ADD36C,0.1004*%
%ADD40C,0.0594*%
%ADD41C,0.0100*%
%ADD46C,0.0300*%
%ADD48C,0.0240*%
G36*
X022949Y005322D02*
X00654D01*
Y011298D01*
X022949D01*
Y005322D01*
D02*
G37*
%LPC*%
G36*
X011351Y011162D02*
X011351Y011162D01*
X01075D01*
X01075Y011162D01*
X010707Y011154D01*
X010671Y011129D01*
X010671Y011129D01*
X010444Y010902D01*
X01042Y010866D01*
X010411Y010823D01*
X010411Y010823D01*
Y007316D01*
X010371Y007275D01*
X010343Y007209D01*
Y007137D01*
X010371Y007071D01*
X010421Y007021D01*
X010487Y006993D01*
X010559D01*
X010625Y007021D01*
X010676Y007071D01*
X010703Y007137D01*
Y007209D01*
X010676Y007275D01*
X010635Y007316D01*
Y010777D01*
X010796Y010938D01*
X011266D01*
X011304Y010888D01*
X011293Y010847D01*
Y010753D01*
X011317Y010662D01*
X011364Y010581D01*
X011431Y010514D01*
X011512Y010467D01*
X011603Y010443D01*
X011697D01*
X011788Y010467D01*
X011869Y010514D01*
X011936Y010581D01*
X011983Y010662D01*
X012007Y010753D01*
Y010847D01*
X011983Y010938D01*
X011936Y011019D01*
X011869Y011086D01*
X011788Y011133D01*
X011697Y011157D01*
X011603D01*
X011512Y011133D01*
X011458Y011101D01*
X01143Y011129D01*
X011394Y011154D01*
X011351Y011162D01*
D02*
G37*
G36*
X008586Y01073D02*
X008514D01*
X008448Y010703D01*
X008397Y010652D01*
X00837Y010586D01*
Y010514D01*
X008397Y010448D01*
X008448Y010397D01*
X008514Y01037D01*
X008586D01*
X008652Y010397D01*
X008703Y010448D01*
X00873Y010514D01*
Y010586D01*
X008703Y010652D01*
X008652Y010703D01*
X008586Y01073D01*
D02*
G37*
G36*
X008486Y00993D02*
X008414D01*
X008348Y009903D01*
X008304Y009859D01*
X008275Y009855D01*
X008246Y009859D01*
X008202Y009903D01*
X008136Y00993D01*
X008064D01*
X007998Y009903D01*
X007947Y009852D01*
X00792Y009786D01*
Y009714D01*
X007947Y009648D01*
X00797Y009625D01*
X007947Y009602D01*
X00792Y009536D01*
Y009464D01*
X007921Y009463D01*
X007876Y009439D01*
X007818Y009525D01*
X007733Y009611D01*
X007633Y009677D01*
X007522Y009724D01*
X007404Y009747D01*
X007284D01*
X007165Y009724D01*
X007054Y009677D01*
X006954Y009611D01*
X006869Y009525D01*
X006802Y009425D01*
X006756Y009314D01*
X006733Y009196D01*
Y009076D01*
X006756Y008958D01*
X006802Y008846D01*
X006869Y008746D01*
X006954Y008661D01*
X007054Y008594D01*
X007165Y008548D01*
X007284Y008525D01*
X007404D01*
X007522Y008548D01*
X007633Y008594D01*
X007733Y008661D01*
X007818Y008746D01*
X007885Y008846D01*
X007931Y008958D01*
X007955Y009076D01*
Y009196D01*
X007931Y009314D01*
X007907Y009373D01*
X007947Y009398D01*
X007998Y009347D01*
X008064Y00932D01*
X008136D01*
X008202Y009347D01*
X008246Y009391D01*
X008275Y009395D01*
X008304Y009391D01*
X008348Y009347D01*
X008414Y00932D01*
X008486D01*
X008552Y009347D01*
X008603Y009398D01*
X00863Y009464D01*
Y009536D01*
X008603Y009602D01*
X00858Y009625D01*
X008603Y009648D01*
X00863Y009714D01*
Y009786D01*
X008603Y009852D01*
X008552Y009903D01*
X008486Y00993D01*
D02*
G37*
G36*
X012697Y010157D02*
X012603D01*
X012512Y010133D01*
X012431Y010086D01*
X012364Y010019D01*
X012317Y009938D01*
X012293Y009847D01*
Y009753D01*
X012317Y009662D01*
X012364Y009581D01*
X012431Y009514D01*
X012512Y009467D01*
X012603Y009443D01*
X012697D01*
X012788Y009467D01*
X012869Y009514D01*
X012936Y009581D01*
X012983Y009662D01*
X013007Y009753D01*
Y009847D01*
X012983Y009938D01*
X012936Y010019D01*
X012869Y010086D01*
X012788Y010133D01*
X012697Y010157D01*
D02*
G37*
G36*
X012007D02*
X011293D01*
Y009443D01*
X012007D01*
Y010157D01*
D02*
G37*
G36*
X015436Y00963D02*
X015364D01*
X015298Y009603D01*
X015247Y009552D01*
X01522Y009486D01*
Y009414D01*
X015247Y009348D01*
X015298Y009297D01*
X015364Y00927D01*
X015436D01*
X015502Y009297D01*
X015553Y009348D01*
X01558Y009414D01*
Y009486D01*
X015553Y009552D01*
X015502Y009603D01*
X015436Y00963D01*
D02*
G37*
G36*
X016536Y00943D02*
X016464D01*
X016398Y009403D01*
X016347Y009352D01*
X01632Y009286D01*
Y009214D01*
X016347Y009148D01*
X016398Y009097D01*
X016464Y00907D01*
X016536D01*
X016602Y009097D01*
X016653Y009148D01*
X01668Y009214D01*
Y009286D01*
X016653Y009352D01*
X016602Y009403D01*
X016536Y00943D01*
D02*
G37*
G36*
X017851Y011163D02*
X017849D01*
X017767Y011147D01*
X017698Y0111D01*
X017511Y010914D01*
X01475D01*
X014668Y010898D01*
X014599Y010851D01*
X014349Y010601D01*
X014302Y010532D01*
X014286Y01045D01*
Y010039D01*
X013211Y008964D01*
X01125D01*
X011214Y008994D01*
Y0096D01*
Y00995D01*
Y010675D01*
X011198Y010757D01*
X011151Y010826D01*
X011082Y010872D01*
X011Y010889D01*
X010918Y010872D01*
X010849Y010826D01*
X010802Y010757D01*
X010786Y010675D01*
Y00995D01*
Y0096D01*
Y0085D01*
Y0075D01*
Y00725D01*
X010802Y007168D01*
X010849Y007099D01*
X010918Y007052D01*
X011Y007036D01*
X01125D01*
X011332Y007052D01*
X01137Y007077D01*
X011444Y007004D01*
Y006558D01*
X01146Y006476D01*
X011506Y006406D01*
X011914Y005999D01*
X011983Y005952D01*
X012065Y005936D01*
X013211D01*
X013449Y005699D01*
X013518Y005652D01*
X0136Y005636D01*
X01575D01*
X015832Y005652D01*
X015901Y005699D01*
X016251Y006049D01*
X016298Y006118D01*
X016314Y0062D01*
Y006311D01*
X016551Y006549D01*
X016598Y006618D01*
X016614Y0067D01*
Y0074D01*
Y0077D01*
X016598Y007782D01*
X016551Y007851D01*
X016482Y007898D01*
X0164Y007914D01*
X016318Y007898D01*
X016249Y007851D01*
X016202Y007782D01*
X016186Y0077D01*
Y0074D01*
Y006789D01*
X015949Y006551D01*
X015902Y006482D01*
X015886Y0064D01*
Y006289D01*
X015661Y006064D01*
X013689D01*
X013451Y006301D01*
X013382Y006348D01*
X0133Y006364D01*
X01244D01*
X012419Y006414D01*
X012453Y006448D01*
X01248Y006514D01*
Y006586D01*
X012453Y006652D01*
X012402Y006703D01*
X012336Y00673D01*
X012264D01*
X012198Y006703D01*
X012147Y006652D01*
X01212Y006586D01*
Y006514D01*
X012145Y006454D01*
X012144Y00644D01*
X012126Y006399D01*
X01212Y006398D01*
X011872Y006646D01*
Y007092D01*
X011856Y007174D01*
X011809Y007244D01*
X011401Y007651D01*
X011332Y007698D01*
X01125Y007714D01*
X011214D01*
Y008411D01*
X011339Y008536D01*
X0133D01*
X013382Y008552D01*
X013451Y008599D01*
X014651Y009799D01*
X014698Y009868D01*
X014714Y00995D01*
Y010361D01*
X014839Y010486D01*
X017511D01*
X017699Y010299D01*
X017768Y010252D01*
X01785Y010236D01*
X018111D01*
X018299Y010049D01*
X018368Y010002D01*
X01845Y009986D01*
X018532Y010002D01*
X018601Y010049D01*
X018648Y010118D01*
X018664Y0102D01*
X018648Y010282D01*
X018601Y010351D01*
X018351Y010601D01*
X018282Y010648D01*
X0182Y010664D01*
X017939D01*
X017903Y0107D01*
X017996Y010793D01*
X018002Y010798D01*
X018049Y010867D01*
X018065Y010949D01*
X018049Y011031D01*
X018002Y0111D01*
X017933Y011147D01*
X017851Y011163D01*
D02*
G37*
G36*
X021466Y009803D02*
X021334D01*
X021206Y009769D01*
X021091Y009702D01*
X020998Y009609D01*
X020931Y009494D01*
X020897Y009366D01*
Y009234D01*
X020931Y009106D01*
X020998Y008991D01*
X021091Y008898D01*
X021206Y008831D01*
X021334Y008797D01*
X021466D01*
X021594Y008831D01*
X021709Y008898D01*
X021802Y008991D01*
X021869Y009106D01*
X021903Y009234D01*
Y009366D01*
X021869Y009494D01*
X021802Y009609D01*
X021709Y009702D01*
X021594Y009769D01*
X021466Y009803D01*
D02*
G37*
G36*
X008336Y00878D02*
X008264D01*
X008198Y008753D01*
X008147Y008702D01*
X00812Y008636D01*
Y008564D01*
X008147Y008498D01*
X008198Y008447D01*
X008264Y00842D01*
X008336D01*
X008402Y008447D01*
X008453Y008498D01*
X00848Y008564D01*
Y008636D01*
X008453Y008702D01*
X008402Y008753D01*
X008336Y00878D01*
D02*
G37*
G36*
X016371Y008768D02*
X016299D01*
X016233Y008741D01*
X016183Y00869D01*
X016155Y008624D01*
Y008552D01*
X016183Y008486D01*
X016233Y008435D01*
X016299Y008408D01*
X016371D01*
X016437Y008435D01*
X016488Y008486D01*
X016515Y008552D01*
Y008624D01*
X016488Y00869D01*
X016437Y008741D01*
X016371Y008768D01*
D02*
G37*
G36*
X008336Y00803D02*
X008264D01*
X008198Y008003D01*
X008147Y007952D01*
X00812Y007886D01*
Y007814D01*
X008147Y007748D01*
X008198Y007697D01*
X008264Y00767D01*
X008336D01*
X008402Y007697D01*
X008453Y007748D01*
X00848Y007814D01*
Y007886D01*
X008453Y007952D01*
X008402Y008003D01*
X008336Y00803D01*
D02*
G37*
G36*
X013136Y00788D02*
X013064D01*
X012998Y007853D01*
X012947Y007802D01*
X01292Y007736D01*
Y007664D01*
X012947Y007598D01*
X012998Y007547D01*
X013064Y00752D01*
X013136D01*
X013202Y007547D01*
X013253Y007598D01*
X01328Y007664D01*
Y007736D01*
X013253Y007802D01*
X013202Y007853D01*
X013136Y00788D01*
D02*
G37*
G36*
X012336Y00758D02*
X012264D01*
X012198Y007553D01*
X012147Y007502D01*
X01212Y007436D01*
Y007364D01*
X012147Y007298D01*
X012198Y007247D01*
X012264Y00722D01*
X012336D01*
X012402Y007247D01*
X012453Y007298D01*
X01248Y007364D01*
Y007436D01*
X012453Y007502D01*
X012402Y007553D01*
X012336Y00758D01*
D02*
G37*
G36*
X013386Y00718D02*
X013314D01*
X013248Y007153D01*
X013197Y007102D01*
X01317Y007036D01*
Y006964D01*
X013197Y006898D01*
X013248Y006847D01*
X013314Y00682D01*
X013386D01*
X013452Y006847D01*
X013503Y006898D01*
X01353Y006964D01*
Y007036D01*
X013503Y007102D01*
X013452Y007153D01*
X013386Y00718D01*
D02*
G37*
G36*
X007404Y007975D02*
X007284D01*
X007165Y007952D01*
X007054Y007906D01*
X006954Y007839D01*
X006869Y007754D01*
X006802Y007654D01*
X006756Y007542D01*
X006733Y007424D01*
Y007304D01*
X006756Y007186D01*
X006802Y007075D01*
X006869Y006975D01*
X006954Y006889D01*
X007054Y006823D01*
X007165Y006776D01*
X007284Y006753D01*
X007404D01*
X007522Y006776D01*
X007633Y006823D01*
X007733Y006889D01*
X007818Y006975D01*
X007885Y007075D01*
X007931Y007186D01*
X007955Y007304D01*
Y007424D01*
X007931Y007542D01*
X007885Y007654D01*
X007818Y007754D01*
X007733Y007839D01*
X007633Y007906D01*
X007522Y007952D01*
X007404Y007975D01*
D02*
G37*
G36*
X015148Y007042D02*
X015076D01*
X01501Y007015D01*
X01496Y006964D01*
X014932Y006898D01*
Y006826D01*
X01496Y00676D01*
X01501Y00671D01*
X015076Y006682D01*
X015148D01*
X015214Y00671D01*
X015265Y00676D01*
X015292Y006826D01*
Y006898D01*
X015265Y006964D01*
X015214Y007015D01*
X015148Y007042D01*
D02*
G37*
G36*
X014724Y006618D02*
X014652D01*
X014586Y00659D01*
X014535Y00654D01*
X014508Y006474D01*
Y006402D01*
X014535Y006336D01*
X014586Y006285D01*
X014652Y006258D01*
X014724D01*
X01479Y006285D01*
X01484Y006336D01*
X014868Y006402D01*
Y006474D01*
X01484Y00654D01*
X01479Y00659D01*
X014724Y006618D01*
D02*
G37*
G36*
X008086Y00643D02*
X008014D01*
X007948Y006403D01*
X007897Y006352D01*
X00787Y006286D01*
Y006214D01*
X007897Y006148D01*
X007948Y006097D01*
X008014Y00607D01*
X008086D01*
X008152Y006097D01*
X008203Y006148D01*
X00823Y006214D01*
Y006286D01*
X008203Y006352D01*
X008152Y006403D01*
X008086Y00643D01*
D02*
G37*
G36*
X011186Y00633D02*
X011114D01*
X011048Y006303D01*
X010997Y006252D01*
X01097Y006186D01*
Y006114D01*
X010997Y006048D01*
X011048Y005997D01*
X011114Y00597D01*
X011186D01*
X011252Y005997D01*
X011303Y006048D01*
X01133Y006114D01*
Y006186D01*
X011303Y006252D01*
X011252Y006303D01*
X011186Y00633D01*
D02*
G37*
%LPD*%
D36*
X020416Y010284D02*
D03*
X022384D02*
D03*
Y008316D02*
D03*
X020416D02*
D03*
D40*
X01165Y0108D02*
D03*
X01265D02*
D03*
D41*
X010523Y010823D02*
X01075Y01105D01*
X010523Y007173D02*
Y010823D01*
X011351Y01105D02*
X011601Y0108D01*
X01165D01*
X01075Y01105D02*
X011351D01*
D46*
X017849Y010949D02*
X017851D01*
X0176Y0107D02*
X017849Y010949D01*
X0182Y01045D02*
X01845Y0102D01*
X01785Y01045D02*
X0182D01*
X0176Y0107D02*
X01785Y01045D01*
X0145Y010442D02*
Y01045D01*
Y0102D02*
Y010442D01*
X01475Y0107D02*
X0176D01*
X0164Y0074D02*
Y0077D01*
Y0067D02*
Y0074D01*
X0161Y0064D02*
X0164Y0067D01*
X0145Y01045D02*
X01475Y0107D01*
X0145Y00995D02*
Y0102D01*
X0133Y00875D02*
X0145Y00995D01*
X01125Y00875D02*
X0133D01*
X011Y0075D02*
Y0085D01*
X01125Y00875D01*
X011Y0085D02*
Y0096D01*
X0161Y0062D02*
Y0064D01*
X0136Y00585D02*
X01575D01*
X0161Y0062D01*
X0133Y00615D02*
X0136Y00585D01*
X01235Y00615D02*
X0133D01*
X011Y00995D02*
Y010675D01*
X011658Y006558D02*
Y007092D01*
X01125Y0075D02*
X011658Y007092D01*
X012065Y00615D02*
X01235D01*
X011Y0075D02*
X01125D01*
X011Y00725D02*
X01125D01*
X011D02*
Y0075D01*
X011658Y006558D02*
X012065Y00615D01*
X011Y0096D02*
Y00995D01*
D48*
X010523Y007173D02*
D03*
X0225Y00925D02*
D03*
X0188Y00875D02*
D03*
X0167Y00855D02*
D03*
X02047Y009533D02*
D03*
X019818Y00902D02*
D03*
X020647Y008978D02*
D03*
X021418Y008672D02*
D03*
X022024Y009239D02*
D03*
X02154Y009914D02*
D03*
X01915Y00635D02*
D03*
X01975Y0069D02*
D03*
X02005Y0074D02*
D03*
X017851Y010949D02*
D03*
X01965Y0101D02*
D03*
X0198Y01065D02*
D03*
X0192Y0101D02*
D03*
Y01065D02*
D03*
Y01115D02*
D03*
X01845Y0102D02*
D03*
X015Y00825D02*
D03*
X0153Y00795D02*
D03*
X0156Y00765D02*
D03*
X0164Y0074D02*
D03*
Y0077D02*
D03*
X01635Y00955D02*
D03*
X017881Y007831D02*
D03*
X01635Y01035D02*
D03*
X0143Y01115D02*
D03*
X0134D02*
D03*
X0163Y011179D02*
D03*
X0222Y00735D02*
D03*
X0215Y0074D02*
D03*
X0207D02*
D03*
X0222Y0069D02*
D03*
X0215Y00685D02*
D03*
X02045Y0069D02*
D03*
X02215Y00635D02*
D03*
X0215D02*
D03*
X0206D02*
D03*
X02215Y00585D02*
D03*
X0211D02*
D03*
X01975Y00635D02*
D03*
X0203Y0058D02*
D03*
X01945Y00585D02*
D03*
X01855D02*
D03*
X0177D02*
D03*
X0145Y010442D02*
D03*
X0221Y01115D02*
D03*
X017809Y005441D02*
D03*
X01705Y00545D02*
D03*
X0186D02*
D03*
X01925D02*
D03*
X02D02*
D03*
X0208D02*
D03*
X0215D02*
D03*
X00675Y0062D02*
D03*
X011Y00545D02*
D03*
X00945D02*
D03*
X00855D02*
D03*
X0076D02*
D03*
X0068D02*
D03*
X0222D02*
D03*
X0228D02*
D03*
Y00585D02*
D03*
Y0064D02*
D03*
Y0069D02*
D03*
Y0074D02*
D03*
Y01115D02*
D03*
X02135D02*
D03*
X02065D02*
D03*
X01995D02*
D03*
X0145Y0102D02*
D03*
X01285Y00915D02*
D03*
X01465Y00845D02*
D03*
X01165Y00915D02*
D03*
X0161Y0062D02*
D03*
Y0064D02*
D03*
X011Y010675D02*
D03*
Y01035D02*
D03*
X01125Y00685D02*
D03*
X011Y00725D02*
D03*
X01125D02*
D03*
Y0075D02*
D03*
X011D02*
D03*
Y0096D02*
D03*
Y00995D02*
D03*
X01235Y00615D02*
D03*
X012065D02*
D03*
X013736Y006939D02*
D03*
X00705Y0102D02*
D03*
X00925Y0079D02*
D03*
X01005Y00905D02*
D03*
X01415Y00625D02*
D03*
Y0074D02*
D03*
X0148Y0078D02*
D03*
X01535Y0073D02*
D03*
X0149Y00665D02*
D03*
X0081Y00675D02*
D03*
X00845D02*
D03*
Y007D02*
D03*
X0081D02*
D03*
M02*
