G04*
G04 #@! TF.GenerationSoftware,Altium Limited,Altium Designer,22.10.1 (41)*
G04*
G04 Layer_Color=65535*
%FSTAX24Y24*%
%MOIN*%
G70*
G04*
G04 #@! TF.SameCoordinates,3ABB2080-4673-4E4B-9202-AF62ACB4AD27*
G04*
G04*
G04 #@! TF.FilePolarity,Positive*
G04*
G01*
G75*
%ADD52C,0.0079*%
%ADD53C,0.0098*%
%ADD54C,0.0059*%
%ADD55C,0.0050*%
%ADD56C,0.0060*%
G36*
X04076Y039128D02*
X040843Y039044D01*
X040676Y038877D01*
X040509Y039044D01*
X040593Y039128D01*
X04076Y039128D01*
D02*
G37*
G36*
X024106D02*
X02419Y039044D01*
X024023Y038877D01*
X023856Y039044D01*
X023939Y039128D01*
X024106Y039128D01*
D02*
G37*
G36*
X04076Y032907D02*
X040843Y032824D01*
X040676Y032657D01*
X040509Y032824D01*
X040593Y032907D01*
X04076Y032907D01*
D02*
G37*
G36*
X024106D02*
X02419Y032824D01*
X024023Y032657D01*
X023856Y032824D01*
X023939Y032907D01*
X024106Y032907D01*
D02*
G37*
G36*
X04076Y026687D02*
X040843Y026603D01*
X040676Y026436D01*
X040509Y026603D01*
X040593Y026687D01*
X04076Y026687D01*
D02*
G37*
G36*
X024106D02*
X02419Y026603D01*
X024023Y026436D01*
X023856Y026603D01*
X023939Y026687D01*
X024106Y026687D01*
D02*
G37*
G36*
X04076Y020466D02*
X040843Y020383D01*
X040676Y020216D01*
X040509Y020383D01*
X040593Y020466D01*
X04076Y020466D01*
D02*
G37*
G36*
X024106D02*
X02419Y020383D01*
X024023Y020216D01*
X023856Y020383D01*
X023939Y020466D01*
X024106Y020466D01*
D02*
G37*
G36*
X04076Y014246D02*
X040843Y014162D01*
X040676Y013995D01*
X040509Y014162D01*
X040593Y014246D01*
X04076Y014246D01*
D02*
G37*
G36*
X024106D02*
X02419Y014162D01*
X024023Y013995D01*
X023856Y014162D01*
X023939Y014246D01*
X024106Y014246D01*
D02*
G37*
D52*
X032417Y016521D02*
G03*
X032417Y016521I-000039J0D01*
G01*
X028512Y014921D02*
G03*
X028512Y014921I-000039J0D01*
G01*
X023662Y019321D02*
G03*
X023662Y019321I-000039J0D01*
G01*
X026519Y01795D02*
G03*
X026519Y01795I-000039J0D01*
G01*
X02419Y014162D02*
G03*
X023856Y014162I-000167J-000167D01*
G01*
X019968Y017245D02*
G03*
X019968Y017245I-000039J0D01*
G01*
X024023Y013995D02*
X025749Y015721D01*
X022297D02*
X024023Y017447D01*
X022297Y015721D02*
X024023Y013995D01*
Y017447D02*
X025749Y015721D01*
X049071Y016521D02*
G03*
X049071Y016521I-000039J0D01*
G01*
X045166Y014921D02*
G03*
X045166Y014921I-000039J0D01*
G01*
X040316Y019321D02*
G03*
X040316Y019321I-000039J0D01*
G01*
X043173Y01795D02*
G03*
X043173Y01795I-000039J0D01*
G01*
X040843Y014162D02*
G03*
X040509Y014162I-000167J-000167D01*
G01*
X036622Y017245D02*
G03*
X036622Y017245I-000039J0D01*
G01*
X040676Y013995D02*
X042402Y015721D01*
X03895D02*
X040676Y017447D01*
X03895Y015721D02*
X040676Y013995D01*
Y017447D02*
X042402Y015721D01*
X032417Y022742D02*
G03*
X032417Y022742I-000039J0D01*
G01*
X028512Y021142D02*
G03*
X028512Y021142I-000039J0D01*
G01*
X023662Y025542D02*
G03*
X023662Y025542I-000039J0D01*
G01*
X026519Y02417D02*
G03*
X026519Y02417I-000039J0D01*
G01*
X02419Y020383D02*
G03*
X023856Y020383I-000167J-000167D01*
G01*
X019968Y023466D02*
G03*
X019968Y023466I-000039J0D01*
G01*
X024023Y020216D02*
X025749Y021942D01*
X022297D02*
X024023Y023668D01*
X022297Y021942D02*
X024023Y020216D01*
Y023668D02*
X025749Y021942D01*
X049071Y022742D02*
G03*
X049071Y022742I-000039J0D01*
G01*
X045166Y021142D02*
G03*
X045166Y021142I-000039J0D01*
G01*
X040316Y025542D02*
G03*
X040316Y025542I-000039J0D01*
G01*
X043173Y02417D02*
G03*
X043173Y02417I-000039J0D01*
G01*
X040843Y020383D02*
G03*
X040509Y020383I-000167J-000167D01*
G01*
X036622Y023466D02*
G03*
X036622Y023466I-000039J0D01*
G01*
X040676Y020216D02*
X042402Y021942D01*
X03895D02*
X040676Y023668D01*
X03895Y021942D02*
X040676Y020216D01*
Y023668D02*
X042402Y021942D01*
X032417Y028962D02*
G03*
X032417Y028962I-000039J0D01*
G01*
X028512Y027362D02*
G03*
X028512Y027362I-000039J0D01*
G01*
X023662Y031762D02*
G03*
X023662Y031762I-000039J0D01*
G01*
X026519Y030391D02*
G03*
X026519Y030391I-000039J0D01*
G01*
X02419Y026603D02*
G03*
X023856Y026603I-000167J-000167D01*
G01*
X019968Y029686D02*
G03*
X019968Y029686I-000039J0D01*
G01*
X024023Y026436D02*
X025749Y028162D01*
X022297D02*
X024023Y029888D01*
X022297Y028162D02*
X024023Y026436D01*
Y029888D02*
X025749Y028162D01*
X049071Y028962D02*
G03*
X049071Y028962I-000039J0D01*
G01*
X045166Y027362D02*
G03*
X045166Y027362I-000039J0D01*
G01*
X040316Y031762D02*
G03*
X040316Y031762I-000039J0D01*
G01*
X043173Y030391D02*
G03*
X043173Y030391I-000039J0D01*
G01*
X040843Y026603D02*
G03*
X040509Y026603I-000167J-000167D01*
G01*
X036622Y029686D02*
G03*
X036622Y029686I-000039J0D01*
G01*
X040676Y026436D02*
X042402Y028162D01*
X03895D02*
X040676Y029888D01*
X03895Y028162D02*
X040676Y026436D01*
Y029888D02*
X042402Y028162D01*
X032417Y035183D02*
G03*
X032417Y035183I-000039J0D01*
G01*
X028512Y033583D02*
G03*
X028512Y033583I-000039J0D01*
G01*
X023662Y037983D02*
G03*
X023662Y037983I-000039J0D01*
G01*
X026519Y036611D02*
G03*
X026519Y036611I-000039J0D01*
G01*
X02419Y032824D02*
G03*
X023856Y032824I-000167J-000167D01*
G01*
X019968Y035907D02*
G03*
X019968Y035907I-000039J0D01*
G01*
X024023Y032657D02*
X025749Y034383D01*
X022297D02*
X024023Y036109D01*
X022297Y034383D02*
X024023Y032657D01*
Y036109D02*
X025749Y034383D01*
X049071Y035183D02*
G03*
X049071Y035183I-000039J0D01*
G01*
X045166Y033583D02*
G03*
X045166Y033583I-000039J0D01*
G01*
X040316Y037983D02*
G03*
X040316Y037983I-000039J0D01*
G01*
X043173Y036611D02*
G03*
X043173Y036611I-000039J0D01*
G01*
X040843Y032824D02*
G03*
X040509Y032824I-000167J-000167D01*
G01*
X036622Y035907D02*
G03*
X036622Y035907I-000039J0D01*
G01*
X040676Y032657D02*
X042402Y034383D01*
X03895D02*
X040676Y036109D01*
X03895Y034383D02*
X040676Y032657D01*
Y036109D02*
X042402Y034383D01*
X032417Y041403D02*
G03*
X032417Y041403I-000039J0D01*
G01*
X028512Y039803D02*
G03*
X028512Y039803I-000039J0D01*
G01*
X023662Y044203D02*
G03*
X023662Y044203I-000039J0D01*
G01*
X026519Y042832D02*
G03*
X026519Y042832I-000039J0D01*
G01*
X02419Y039044D02*
G03*
X023856Y039044I-000167J-000167D01*
G01*
X019968Y042127D02*
G03*
X019968Y042127I-000039J0D01*
G01*
X024023Y038877D02*
X025749Y040603D01*
X022297D02*
X024023Y042329D01*
X022297Y040603D02*
X024023Y038877D01*
Y042329D02*
X025749Y040603D01*
X049071Y041403D02*
G03*
X049071Y041403I-000039J0D01*
G01*
X045166Y039803D02*
G03*
X045166Y039803I-000039J0D01*
G01*
X040316Y044203D02*
G03*
X040316Y044203I-000039J0D01*
G01*
X043173Y042832D02*
G03*
X043173Y042832I-000039J0D01*
G01*
X040843Y039044D02*
G03*
X040509Y039044I-000167J-000167D01*
G01*
X036622Y042127D02*
G03*
X036622Y042127I-000039J0D01*
G01*
X040676Y038877D02*
X042402Y040603D01*
X03895D02*
X040676Y042329D01*
X03895Y040603D02*
X040676Y038877D01*
Y042329D02*
X042402Y040603D01*
D53*
X024972Y013571D02*
G03*
X024972Y013571I-000049J0D01*
G01*
X041626D02*
G03*
X041626Y013571I-000049J0D01*
G01*
X024972Y019792D02*
G03*
X024972Y019792I-000049J0D01*
G01*
X041626D02*
G03*
X041626Y019792I-000049J0D01*
G01*
X024972Y026012D02*
G03*
X024972Y026012I-000049J0D01*
G01*
X041626D02*
G03*
X041626Y026012I-000049J0D01*
G01*
X024972Y032233D02*
G03*
X024972Y032233I-000049J0D01*
G01*
X041626D02*
G03*
X041626Y032233I-000049J0D01*
G01*
X024972Y038453D02*
G03*
X024972Y038453I-000049J0D01*
G01*
X041626D02*
G03*
X041626Y038453I-000049J0D01*
G01*
D54*
X027062Y015654D02*
X027118Y015709D01*
X026505Y016211D02*
X027062Y015654D01*
X026505Y016211D02*
X026561Y016266D01*
X026728Y016433D02*
X026784Y016489D01*
X02734Y015932D01*
X027285Y015876D02*
X02734Y015932D01*
X029126Y016594D02*
X029205D01*
X029126D02*
Y017302D01*
X029205D01*
X029441D02*
X02952D01*
Y016594D02*
Y017302D01*
X029441Y016594D02*
X02952D01*
X029119Y017689D02*
Y017768D01*
X029827D01*
Y017689D02*
Y017768D01*
Y017374D02*
Y017453D01*
X029119Y017374D02*
X029827D01*
X029119D02*
Y017453D01*
X030367Y016889D02*
Y016968D01*
X029579D02*
X030367D01*
X029579Y016889D02*
Y016968D01*
Y016574D02*
Y016653D01*
Y016574D02*
X030367D01*
Y016653D01*
Y016439D02*
Y016518D01*
X029579D02*
X030367D01*
X029579Y016439D02*
Y016518D01*
Y016124D02*
Y016203D01*
Y016124D02*
X030367D01*
Y016203D01*
X028626Y017044D02*
X028705D01*
X028626D02*
Y017752D01*
X028705D01*
X028941D02*
X02902D01*
Y017044D02*
Y017752D01*
X028941Y017044D02*
X02902D01*
X030717Y017453D02*
X030717Y017374D01*
X029929D02*
X030717D01*
X029929D02*
Y017453D01*
Y017689D02*
Y017768D01*
X030717D01*
X030717Y017689D02*
X030717Y017768D01*
X030776Y017378D02*
X030855D01*
X030776D02*
Y018165D01*
X030855Y018165D01*
X031091D02*
X03117Y018165D01*
Y017378D02*
Y018165D01*
X031091Y017378D02*
X03117D01*
X028641Y019415D02*
X02872D01*
Y018628D02*
Y019415D01*
X028641Y018628D02*
X02872D01*
X028326D02*
X028405D01*
X028326D02*
Y019415D01*
X028405D01*
X027823Y019021D02*
X028223D01*
X028173Y019471D02*
X028223D01*
Y018571D02*
Y019471D01*
X028173Y018571D02*
X028223D01*
X027823D02*
X027873D01*
X027823D02*
Y019471D01*
X027873D01*
X026455Y018732D02*
X026511Y018676D01*
X026455Y018732D02*
X027012Y019289D01*
X027068Y019233D01*
X027235Y019066D02*
X02729Y019011D01*
X026734Y018454D02*
X02729Y019011D01*
X026678Y018509D02*
X026734Y018454D01*
X025723Y019371D02*
X025773Y019371D01*
X025723Y018471D02*
Y019371D01*
Y018471D02*
X025773Y018471D01*
X026073D02*
X026123Y018471D01*
Y019371D01*
X026073Y019371D02*
X026123Y019371D01*
X025723Y018921D02*
X026123D01*
X025047Y018871D02*
X025598D01*
X025523Y019371D02*
X025598D01*
Y018371D02*
Y019371D01*
X025523Y018371D02*
X025598D01*
X025047D02*
X025123D01*
X025047D02*
Y019371D01*
X025123D01*
X02109Y018879D02*
Y018997D01*
X019987D02*
X02109D01*
X019987Y018879D02*
Y018997D01*
Y018446D02*
Y018564D01*
Y018446D02*
X02109D01*
Y018564D01*
X020539Y018446D02*
Y018997D01*
X024397Y018921D02*
X024948D01*
X024397Y01837D02*
X024515D01*
X024397D02*
Y019473D01*
X024515D01*
X02483D02*
X024948D01*
Y01837D02*
Y019473D01*
X02483Y01837D02*
X024948D01*
X021923Y014171D02*
Y014571D01*
X021473Y014521D02*
X021473Y014571D01*
X022373D01*
X022373Y014521D02*
X022373Y014571D01*
X022373Y014221D02*
X022373Y014171D01*
X021473D02*
X022373D01*
X021473Y014221D02*
X021473Y014171D01*
X025373Y013546D02*
Y013621D01*
Y013546D02*
X026373D01*
X026373Y013621D01*
X026373Y014097D02*
X026373Y014021D01*
X025373Y014097D02*
X026373D01*
X025373Y014021D02*
Y014097D01*
X025873Y013546D02*
Y014097D01*
X021047Y015221D02*
X021598D01*
X02148Y015773D02*
X021598D01*
Y01467D02*
Y015773D01*
X02148Y01467D02*
X021598D01*
X021047D02*
X021165D01*
X021047D02*
Y015773D01*
X021165D01*
X019258Y018879D02*
Y018997D01*
X018156D02*
X019258D01*
X018156Y018879D02*
Y018997D01*
Y018446D02*
Y018564D01*
Y018446D02*
X019258D01*
Y018564D01*
X018707Y018446D02*
Y018997D01*
X022474Y013979D02*
Y014097D01*
X021372D02*
X022474D01*
X021372Y013979D02*
Y014097D01*
Y013546D02*
Y013664D01*
Y013546D02*
X022474D01*
Y013664D01*
X021923Y013546D02*
Y014097D01*
X043716Y015654D02*
X043771Y015709D01*
X043159Y016211D02*
X043716Y015654D01*
X043159Y016211D02*
X043215Y016266D01*
X043382Y016433D02*
X043437Y016489D01*
X043994Y015932D01*
X043938Y015876D02*
X043994Y015932D01*
X04578Y016594D02*
X045858D01*
X04578D02*
Y017302D01*
X045858D01*
X046095D02*
X046173D01*
Y016594D02*
Y017302D01*
X046095Y016594D02*
X046173D01*
X045772Y017689D02*
Y017768D01*
X046481D01*
Y017689D02*
Y017768D01*
Y017374D02*
Y017453D01*
X045772Y017374D02*
X046481D01*
X045772D02*
Y017453D01*
X04702Y016889D02*
Y016968D01*
X046233D02*
X04702D01*
X046233Y016889D02*
Y016968D01*
Y016574D02*
Y016653D01*
Y016574D02*
X04702D01*
Y016653D01*
Y016439D02*
Y016518D01*
X046233D02*
X04702D01*
X046233Y016439D02*
Y016518D01*
Y016124D02*
Y016203D01*
Y016124D02*
X04702D01*
Y016203D01*
X04528Y017044D02*
X045358D01*
X04528D02*
Y017752D01*
X045358D01*
X045595D02*
X045673D01*
Y017044D02*
Y017752D01*
X045595Y017044D02*
X045673D01*
X04737Y017453D02*
X04737Y017374D01*
X046583D02*
X04737D01*
X046583D02*
Y017453D01*
Y017689D02*
Y017768D01*
X04737D01*
X04737Y017689D02*
X04737Y017768D01*
X04743Y017378D02*
X047508D01*
X04743D02*
Y018165D01*
X047508Y018165D01*
X047745D02*
X047823Y018165D01*
Y017378D02*
Y018165D01*
X047745Y017378D02*
X047823D01*
X045295Y019415D02*
X045373D01*
Y018628D02*
Y019415D01*
X045295Y018628D02*
X045373D01*
X04498D02*
X045058D01*
X04498D02*
Y019415D01*
X045058D01*
X044476Y019021D02*
X044876D01*
X044826Y019471D02*
X044876D01*
Y018571D02*
Y019471D01*
X044826Y018571D02*
X044876D01*
X044476D02*
X044526D01*
X044476D02*
Y019471D01*
X044526D01*
X043109Y018732D02*
X043165Y018676D01*
X043109Y018732D02*
X043666Y019289D01*
X043721Y019233D01*
X043888Y019066D02*
X043944Y019011D01*
X043387Y018454D02*
X043944Y019011D01*
X043332Y018509D02*
X043387Y018454D01*
X042376Y019371D02*
X042426Y019371D01*
X042376Y018471D02*
Y019371D01*
Y018471D02*
X042426Y018471D01*
X042726D02*
X042776Y018471D01*
Y019371D01*
X042726Y019371D02*
X042776Y019371D01*
X042376Y018921D02*
X042776D01*
X041701Y018871D02*
X042252D01*
X042176Y019371D02*
X042252D01*
Y018371D02*
Y019371D01*
X042176Y018371D02*
X042252D01*
X041701D02*
X041776D01*
X041701D02*
Y019371D01*
X041776D01*
X037743Y018879D02*
Y018997D01*
X036641D02*
X037743D01*
X036641Y018879D02*
Y018997D01*
Y018446D02*
Y018564D01*
Y018446D02*
X037743D01*
Y018564D01*
X037192Y018446D02*
Y018997D01*
X041051Y018921D02*
X041602D01*
X041051Y01837D02*
X041169D01*
X041051D02*
Y019473D01*
X041169D01*
X041484D02*
X041602D01*
Y01837D02*
Y019473D01*
X041484Y01837D02*
X041602D01*
X038576Y014171D02*
Y014571D01*
X038126Y014521D02*
X038126Y014571D01*
X039026D01*
X039026Y014521D02*
X039026Y014571D01*
X039026Y014221D02*
X039026Y014171D01*
X038126D02*
X039026D01*
X038126Y014221D02*
X038126Y014171D01*
X042026Y013546D02*
Y013621D01*
Y013546D02*
X043026D01*
X043026Y013621D01*
X043026Y014097D02*
X043026Y014021D01*
X042026Y014097D02*
X043026D01*
X042026Y014021D02*
Y014097D01*
X042526Y013546D02*
Y014097D01*
X037701Y015221D02*
X038252D01*
X038134Y015773D02*
X038252D01*
Y01467D02*
Y015773D01*
X038134Y01467D02*
X038252D01*
X037701D02*
X037819D01*
X037701D02*
Y015773D01*
X037819D01*
X035912Y018879D02*
Y018997D01*
X03481D02*
X035912D01*
X03481Y018879D02*
Y018997D01*
Y018446D02*
Y018564D01*
Y018446D02*
X035912D01*
Y018564D01*
X035361Y018446D02*
Y018997D01*
X039128Y013979D02*
Y014097D01*
X038025D02*
X039128D01*
X038025Y013979D02*
Y014097D01*
Y013546D02*
Y013664D01*
Y013546D02*
X039128D01*
Y013664D01*
X038576Y013546D02*
Y014097D01*
X027062Y021874D02*
X027118Y02193D01*
X026505Y022431D02*
X027062Y021874D01*
X026505Y022431D02*
X026561Y022487D01*
X026728Y022654D02*
X026784Y022709D01*
X02734Y022153D01*
X027285Y022097D02*
X02734Y022153D01*
X029126Y022814D02*
X029205D01*
X029126D02*
Y023523D01*
X029205D01*
X029441D02*
X02952D01*
Y022814D02*
Y023523D01*
X029441Y022814D02*
X02952D01*
X029119Y02391D02*
Y023989D01*
X029827D01*
Y02391D02*
Y023989D01*
Y023595D02*
Y023674D01*
X029119Y023595D02*
X029827D01*
X029119D02*
Y023674D01*
X030367Y02311D02*
Y023189D01*
X029579D02*
X030367D01*
X029579Y02311D02*
Y023189D01*
Y022795D02*
Y022874D01*
Y022795D02*
X030367D01*
Y022874D01*
Y02266D02*
Y022739D01*
X029579D02*
X030367D01*
X029579Y02266D02*
Y022739D01*
Y022345D02*
Y022424D01*
Y022345D02*
X030367D01*
Y022424D01*
X028626Y023264D02*
X028705D01*
X028626D02*
Y023973D01*
X028705D01*
X028941D02*
X02902D01*
Y023264D02*
Y023973D01*
X028941Y023264D02*
X02902D01*
X030717Y023674D02*
X030717Y023595D01*
X029929D02*
X030717D01*
X029929D02*
Y023674D01*
Y02391D02*
Y023989D01*
X030717D01*
X030717Y02391D02*
X030717Y023989D01*
X030776Y023598D02*
X030855D01*
X030776D02*
Y024385D01*
X030855Y024385D01*
X031091D02*
X03117Y024385D01*
Y023598D02*
Y024385D01*
X031091Y023598D02*
X03117D01*
X028641Y025635D02*
X02872D01*
Y024848D02*
Y025635D01*
X028641Y024848D02*
X02872D01*
X028326D02*
X028405D01*
X028326D02*
Y025635D01*
X028405D01*
X027823Y025242D02*
X028223D01*
X028173Y025692D02*
X028223D01*
Y024792D02*
Y025692D01*
X028173Y024792D02*
X028223D01*
X027823D02*
X027873D01*
X027823D02*
Y025692D01*
X027873D01*
X026455Y024953D02*
X026511Y024897D01*
X026455Y024953D02*
X027012Y025509D01*
X027068Y025454D01*
X027235Y025287D02*
X02729Y025231D01*
X026734Y024674D02*
X02729Y025231D01*
X026678Y02473D02*
X026734Y024674D01*
X025723Y025592D02*
X025773Y025592D01*
X025723Y024692D02*
Y025592D01*
Y024692D02*
X025773Y024692D01*
X026073D02*
X026123Y024692D01*
Y025592D01*
X026073Y025592D02*
X026123Y025592D01*
X025723Y025142D02*
X026123D01*
X025047Y025092D02*
X025598D01*
X025523Y025592D02*
X025598D01*
Y024592D02*
Y025592D01*
X025523Y024592D02*
X025598D01*
X025047D02*
X025123D01*
X025047D02*
Y025592D01*
X025123D01*
X02109Y025099D02*
Y025217D01*
X019987D02*
X02109D01*
X019987Y025099D02*
Y025217D01*
Y024666D02*
Y024784D01*
Y024666D02*
X02109D01*
Y024784D01*
X020539Y024666D02*
Y025217D01*
X024397Y025142D02*
X024948D01*
X024397Y024591D02*
X024515D01*
X024397D02*
Y025693D01*
X024515D01*
X02483D02*
X024948D01*
Y024591D02*
Y025693D01*
X02483Y024591D02*
X024948D01*
X021923Y020392D02*
Y020792D01*
X021473Y020742D02*
X021473Y020792D01*
X022373D01*
X022373Y020742D02*
X022373Y020792D01*
X022373Y020442D02*
X022373Y020392D01*
X021473D02*
X022373D01*
X021473Y020442D02*
X021473Y020392D01*
X025373Y019766D02*
Y019842D01*
Y019766D02*
X026373D01*
X026373Y019842D01*
X026373Y020317D02*
X026373Y020242D01*
X025373Y020317D02*
X026373D01*
X025373Y020242D02*
Y020317D01*
X025873Y019766D02*
Y020317D01*
X021047Y021442D02*
X021598D01*
X02148Y021993D02*
X021598D01*
Y020891D02*
Y021993D01*
X02148Y020891D02*
X021598D01*
X021047D02*
X021165D01*
X021047D02*
Y021993D01*
X021165D01*
X019258Y025099D02*
Y025217D01*
X018156D02*
X019258D01*
X018156Y025099D02*
Y025217D01*
Y024666D02*
Y024784D01*
Y024666D02*
X019258D01*
Y024784D01*
X018707Y024666D02*
Y025217D01*
X022474Y020199D02*
Y020317D01*
X021372D02*
X022474D01*
X021372Y020199D02*
Y020317D01*
Y019766D02*
Y019884D01*
Y019766D02*
X022474D01*
Y019884D01*
X021923Y019766D02*
Y020317D01*
X043716Y021874D02*
X043771Y02193D01*
X043159Y022431D02*
X043716Y021874D01*
X043159Y022431D02*
X043215Y022487D01*
X043382Y022654D02*
X043437Y022709D01*
X043994Y022153D01*
X043938Y022097D02*
X043994Y022153D01*
X04578Y022814D02*
X045858D01*
X04578D02*
Y023523D01*
X045858D01*
X046095D02*
X046173D01*
Y022814D02*
Y023523D01*
X046095Y022814D02*
X046173D01*
X045772Y02391D02*
Y023989D01*
X046481D01*
Y02391D02*
Y023989D01*
Y023595D02*
Y023674D01*
X045772Y023595D02*
X046481D01*
X045772D02*
Y023674D01*
X04702Y02311D02*
Y023189D01*
X046233D02*
X04702D01*
X046233Y02311D02*
Y023189D01*
Y022795D02*
Y022874D01*
Y022795D02*
X04702D01*
Y022874D01*
Y02266D02*
Y022739D01*
X046233D02*
X04702D01*
X046233Y02266D02*
Y022739D01*
Y022345D02*
Y022424D01*
Y022345D02*
X04702D01*
Y022424D01*
X04528Y023264D02*
X045358D01*
X04528D02*
Y023973D01*
X045358D01*
X045595D02*
X045673D01*
Y023264D02*
Y023973D01*
X045595Y023264D02*
X045673D01*
X04737Y023674D02*
X04737Y023595D01*
X046583D02*
X04737D01*
X046583D02*
Y023674D01*
Y02391D02*
Y023989D01*
X04737D01*
X04737Y02391D02*
X04737Y023989D01*
X04743Y023598D02*
X047508D01*
X04743D02*
Y024385D01*
X047508Y024385D01*
X047745D02*
X047823Y024385D01*
Y023598D02*
Y024385D01*
X047745Y023598D02*
X047823D01*
X045295Y025635D02*
X045373D01*
Y024848D02*
Y025635D01*
X045295Y024848D02*
X045373D01*
X04498D02*
X045058D01*
X04498D02*
Y025635D01*
X045058D01*
X044476Y025242D02*
X044876D01*
X044826Y025692D02*
X044876D01*
Y024792D02*
Y025692D01*
X044826Y024792D02*
X044876D01*
X044476D02*
X044526D01*
X044476D02*
Y025692D01*
X044526D01*
X043109Y024953D02*
X043165Y024897D01*
X043109Y024953D02*
X043666Y025509D01*
X043721Y025454D01*
X043888Y025287D02*
X043944Y025231D01*
X043387Y024674D02*
X043944Y025231D01*
X043332Y02473D02*
X043387Y024674D01*
X042376Y025592D02*
X042426Y025592D01*
X042376Y024692D02*
Y025592D01*
Y024692D02*
X042426Y024692D01*
X042726D02*
X042776Y024692D01*
Y025592D01*
X042726Y025592D02*
X042776Y025592D01*
X042376Y025142D02*
X042776D01*
X041701Y025092D02*
X042252D01*
X042176Y025592D02*
X042252D01*
Y024592D02*
Y025592D01*
X042176Y024592D02*
X042252D01*
X041701D02*
X041776D01*
X041701D02*
Y025592D01*
X041776D01*
X037743Y025099D02*
Y025217D01*
X036641D02*
X037743D01*
X036641Y025099D02*
Y025217D01*
Y024666D02*
Y024784D01*
Y024666D02*
X037743D01*
Y024784D01*
X037192Y024666D02*
Y025217D01*
X041051Y025142D02*
X041602D01*
X041051Y024591D02*
X041169D01*
X041051D02*
Y025693D01*
X041169D01*
X041484D02*
X041602D01*
Y024591D02*
Y025693D01*
X041484Y024591D02*
X041602D01*
X038576Y020392D02*
Y020792D01*
X038126Y020742D02*
X038126Y020792D01*
X039026D01*
X039026Y020742D02*
X039026Y020792D01*
X039026Y020442D02*
X039026Y020392D01*
X038126D02*
X039026D01*
X038126Y020442D02*
X038126Y020392D01*
X042026Y019766D02*
Y019842D01*
Y019766D02*
X043026D01*
X043026Y019842D01*
X043026Y020317D02*
X043026Y020242D01*
X042026Y020317D02*
X043026D01*
X042026Y020242D02*
Y020317D01*
X042526Y019766D02*
Y020317D01*
X037701Y021442D02*
X038252D01*
X038134Y021993D02*
X038252D01*
Y020891D02*
Y021993D01*
X038134Y020891D02*
X038252D01*
X037701D02*
X037819D01*
X037701D02*
Y021993D01*
X037819D01*
X035912Y025099D02*
Y025217D01*
X03481D02*
X035912D01*
X03481Y025099D02*
Y025217D01*
Y024666D02*
Y024784D01*
Y024666D02*
X035912D01*
Y024784D01*
X035361Y024666D02*
Y025217D01*
X039128Y020199D02*
Y020317D01*
X038025D02*
X039128D01*
X038025Y020199D02*
Y020317D01*
Y019766D02*
Y019884D01*
Y019766D02*
X039128D01*
Y019884D01*
X038576Y019766D02*
Y020317D01*
X027062Y028095D02*
X027118Y02815D01*
X026505Y028651D02*
X027062Y028095D01*
X026505Y028651D02*
X026561Y028707D01*
X026728Y028874D02*
X026784Y02893D01*
X02734Y028373D01*
X027285Y028317D02*
X02734Y028373D01*
X029126Y029035D02*
X029205D01*
X029126D02*
Y029743D01*
X029205D01*
X029441D02*
X02952D01*
Y029035D02*
Y029743D01*
X029441Y029035D02*
X02952D01*
X029119Y03013D02*
Y030209D01*
X029827D01*
Y03013D02*
Y030209D01*
Y029815D02*
Y029894D01*
X029119Y029815D02*
X029827D01*
X029119D02*
Y029894D01*
X030367Y02933D02*
Y029409D01*
X029579D02*
X030367D01*
X029579Y02933D02*
Y029409D01*
Y029015D02*
Y029094D01*
Y029015D02*
X030367D01*
Y029094D01*
Y02888D02*
Y028959D01*
X029579D02*
X030367D01*
X029579Y02888D02*
Y028959D01*
Y028565D02*
Y028644D01*
Y028565D02*
X030367D01*
Y028644D01*
X028626Y029485D02*
X028705D01*
X028626D02*
Y030193D01*
X028705D01*
X028941D02*
X02902D01*
Y029485D02*
Y030193D01*
X028941Y029485D02*
X02902D01*
X030717Y029894D02*
X030717Y029815D01*
X029929D02*
X030717D01*
X029929D02*
Y029894D01*
Y03013D02*
Y030209D01*
X030717D01*
X030717Y03013D02*
X030717Y030209D01*
X030776Y029819D02*
X030855D01*
X030776D02*
Y030606D01*
X030855Y030606D01*
X031091D02*
X03117Y030606D01*
Y029819D02*
Y030606D01*
X031091Y029819D02*
X03117D01*
X028641Y031856D02*
X02872D01*
Y031069D02*
Y031856D01*
X028641Y031069D02*
X02872D01*
X028326D02*
X028405D01*
X028326D02*
Y031856D01*
X028405D01*
X027823Y031462D02*
X028223D01*
X028173Y031912D02*
X028223D01*
Y031012D02*
Y031912D01*
X028173Y031012D02*
X028223D01*
X027823D02*
X027873D01*
X027823D02*
Y031912D01*
X027873D01*
X026455Y031173D02*
X026511Y031117D01*
X026455Y031173D02*
X027012Y03173D01*
X027068Y031674D01*
X027235Y031507D02*
X02729Y031451D01*
X026734Y030895D02*
X02729Y031451D01*
X026678Y03095D02*
X026734Y030895D01*
X025723Y031812D02*
X025773Y031812D01*
X025723Y030912D02*
Y031812D01*
Y030912D02*
X025773Y030912D01*
X026073D02*
X026123Y030912D01*
Y031812D01*
X026073Y031812D02*
X026123Y031812D01*
X025723Y031362D02*
X026123D01*
X025047Y031312D02*
X025598D01*
X025523Y031812D02*
X025598D01*
Y030812D02*
Y031812D01*
X025523Y030812D02*
X025598D01*
X025047D02*
X025123D01*
X025047D02*
Y031812D01*
X025123D01*
X02109Y03132D02*
Y031438D01*
X019987D02*
X02109D01*
X019987Y03132D02*
Y031438D01*
Y030887D02*
Y031005D01*
Y030887D02*
X02109D01*
Y031005D01*
X020539Y030887D02*
Y031438D01*
X024397Y031362D02*
X024948D01*
X024397Y030811D02*
X024515D01*
X024397D02*
Y031913D01*
X024515D01*
X02483D02*
X024948D01*
Y030811D02*
Y031913D01*
X02483Y030811D02*
X024948D01*
X021923Y026612D02*
Y027012D01*
X021473Y026962D02*
X021473Y027012D01*
X022373D01*
X022373Y026962D02*
X022373Y027012D01*
X022373Y026662D02*
X022373Y026612D01*
X021473D02*
X022373D01*
X021473Y026662D02*
X021473Y026612D01*
X025373Y025987D02*
Y026062D01*
Y025987D02*
X026373D01*
X026373Y026062D01*
X026373Y026538D02*
X026373Y026462D01*
X025373Y026538D02*
X026373D01*
X025373Y026462D02*
Y026538D01*
X025873Y025987D02*
Y026538D01*
X021047Y027662D02*
X021598D01*
X02148Y028213D02*
X021598D01*
Y027111D02*
Y028213D01*
X02148Y027111D02*
X021598D01*
X021047D02*
X021165D01*
X021047D02*
Y028213D01*
X021165D01*
X019258Y03132D02*
Y031438D01*
X018156D02*
X019258D01*
X018156Y03132D02*
Y031438D01*
Y030887D02*
Y031005D01*
Y030887D02*
X019258D01*
Y031005D01*
X018707Y030887D02*
Y031438D01*
X022474Y02642D02*
Y026538D01*
X021372D02*
X022474D01*
X021372Y02642D02*
Y026538D01*
Y025987D02*
Y026105D01*
Y025987D02*
X022474D01*
Y026105D01*
X021923Y025987D02*
Y026538D01*
X043716Y028095D02*
X043771Y02815D01*
X043159Y028651D02*
X043716Y028095D01*
X043159Y028651D02*
X043215Y028707D01*
X043382Y028874D02*
X043437Y02893D01*
X043994Y028373D01*
X043938Y028317D02*
X043994Y028373D01*
X04578Y029035D02*
X045858D01*
X04578D02*
Y029743D01*
X045858D01*
X046095D02*
X046173D01*
Y029035D02*
Y029743D01*
X046095Y029035D02*
X046173D01*
X045772Y03013D02*
Y030209D01*
X046481D01*
Y03013D02*
Y030209D01*
Y029815D02*
Y029894D01*
X045772Y029815D02*
X046481D01*
X045772D02*
Y029894D01*
X04702Y02933D02*
Y029409D01*
X046233D02*
X04702D01*
X046233Y02933D02*
Y029409D01*
Y029015D02*
Y029094D01*
Y029015D02*
X04702D01*
Y029094D01*
Y02888D02*
Y028959D01*
X046233D02*
X04702D01*
X046233Y02888D02*
Y028959D01*
Y028565D02*
Y028644D01*
Y028565D02*
X04702D01*
Y028644D01*
X04528Y029485D02*
X045358D01*
X04528D02*
Y030193D01*
X045358D01*
X045595D02*
X045673D01*
Y029485D02*
Y030193D01*
X045595Y029485D02*
X045673D01*
X04737Y029894D02*
X04737Y029815D01*
X046583D02*
X04737D01*
X046583D02*
Y029894D01*
Y03013D02*
Y030209D01*
X04737D01*
X04737Y03013D02*
X04737Y030209D01*
X04743Y029819D02*
X047508D01*
X04743D02*
Y030606D01*
X047508Y030606D01*
X047745D02*
X047823Y030606D01*
Y029819D02*
Y030606D01*
X047745Y029819D02*
X047823D01*
X045295Y031856D02*
X045373D01*
Y031069D02*
Y031856D01*
X045295Y031069D02*
X045373D01*
X04498D02*
X045058D01*
X04498D02*
Y031856D01*
X045058D01*
X044476Y031462D02*
X044876D01*
X044826Y031912D02*
X044876D01*
Y031012D02*
Y031912D01*
X044826Y031012D02*
X044876D01*
X044476D02*
X044526D01*
X044476D02*
Y031912D01*
X044526D01*
X043109Y031173D02*
X043165Y031117D01*
X043109Y031173D02*
X043666Y03173D01*
X043721Y031674D01*
X043888Y031507D02*
X043944Y031451D01*
X043387Y030895D02*
X043944Y031451D01*
X043332Y03095D02*
X043387Y030895D01*
X042376Y031812D02*
X042426Y031812D01*
X042376Y030912D02*
Y031812D01*
Y030912D02*
X042426Y030912D01*
X042726D02*
X042776Y030912D01*
Y031812D01*
X042726Y031812D02*
X042776Y031812D01*
X042376Y031362D02*
X042776D01*
X041701Y031312D02*
X042252D01*
X042176Y031812D02*
X042252D01*
Y030812D02*
Y031812D01*
X042176Y030812D02*
X042252D01*
X041701D02*
X041776D01*
X041701D02*
Y031812D01*
X041776D01*
X037743Y03132D02*
Y031438D01*
X036641D02*
X037743D01*
X036641Y03132D02*
Y031438D01*
Y030887D02*
Y031005D01*
Y030887D02*
X037743D01*
Y031005D01*
X037192Y030887D02*
Y031438D01*
X041051Y031362D02*
X041602D01*
X041051Y030811D02*
X041169D01*
X041051D02*
Y031913D01*
X041169D01*
X041484D02*
X041602D01*
Y030811D02*
Y031913D01*
X041484Y030811D02*
X041602D01*
X038576Y026612D02*
Y027012D01*
X038126Y026962D02*
X038126Y027012D01*
X039026D01*
X039026Y026962D02*
X039026Y027012D01*
X039026Y026662D02*
X039026Y026612D01*
X038126D02*
X039026D01*
X038126Y026662D02*
X038126Y026612D01*
X042026Y025987D02*
Y026062D01*
Y025987D02*
X043026D01*
X043026Y026062D01*
X043026Y026538D02*
X043026Y026462D01*
X042026Y026538D02*
X043026D01*
X042026Y026462D02*
Y026538D01*
X042526Y025987D02*
Y026538D01*
X037701Y027662D02*
X038252D01*
X038134Y028213D02*
X038252D01*
Y027111D02*
Y028213D01*
X038134Y027111D02*
X038252D01*
X037701D02*
X037819D01*
X037701D02*
Y028213D01*
X037819D01*
X035912Y03132D02*
Y031438D01*
X03481D02*
X035912D01*
X03481Y03132D02*
Y031438D01*
Y030887D02*
Y031005D01*
Y030887D02*
X035912D01*
Y031005D01*
X035361Y030887D02*
Y031438D01*
X039128Y02642D02*
Y026538D01*
X038025D02*
X039128D01*
X038025Y02642D02*
Y026538D01*
Y025987D02*
Y026105D01*
Y025987D02*
X039128D01*
Y026105D01*
X038576Y025987D02*
Y026538D01*
X027062Y034315D02*
X027118Y034371D01*
X026505Y034872D02*
X027062Y034315D01*
X026505Y034872D02*
X026561Y034928D01*
X026728Y035095D02*
X026784Y03515D01*
X02734Y034594D01*
X027285Y034538D02*
X02734Y034594D01*
X029126Y035255D02*
X029205D01*
X029126D02*
Y035964D01*
X029205D01*
X029441D02*
X02952D01*
Y035255D02*
Y035964D01*
X029441Y035255D02*
X02952D01*
X029119Y036351D02*
Y03643D01*
X029827D01*
Y036351D02*
Y03643D01*
Y036036D02*
Y036115D01*
X029119Y036036D02*
X029827D01*
X029119D02*
Y036115D01*
X030367Y035551D02*
Y03563D01*
X029579D02*
X030367D01*
X029579Y035551D02*
Y03563D01*
Y035236D02*
Y035315D01*
Y035236D02*
X030367D01*
Y035315D01*
Y035101D02*
Y03518D01*
X029579D02*
X030367D01*
X029579Y035101D02*
Y03518D01*
Y034786D02*
Y034865D01*
Y034786D02*
X030367D01*
Y034865D01*
X028626Y035705D02*
X028705D01*
X028626D02*
Y036414D01*
X028705D01*
X028941D02*
X02902D01*
Y035705D02*
Y036414D01*
X028941Y035705D02*
X02902D01*
X030717Y036115D02*
X030717Y036036D01*
X029929D02*
X030717D01*
X029929D02*
Y036115D01*
Y036351D02*
Y03643D01*
X030717D01*
X030717Y036351D02*
X030717Y03643D01*
X030776Y036039D02*
X030855D01*
X030776D02*
Y036826D01*
X030855Y036826D01*
X031091D02*
X03117Y036826D01*
Y036039D02*
Y036826D01*
X031091Y036039D02*
X03117D01*
X028641Y038076D02*
X02872D01*
Y037289D02*
Y038076D01*
X028641Y037289D02*
X02872D01*
X028326D02*
X028405D01*
X028326D02*
Y038076D01*
X028405D01*
X027823Y037683D02*
X028223D01*
X028173Y038133D02*
X028223D01*
Y037233D02*
Y038133D01*
X028173Y037233D02*
X028223D01*
X027823D02*
X027873D01*
X027823D02*
Y038133D01*
X027873D01*
X026455Y037394D02*
X026511Y037338D01*
X026455Y037394D02*
X027012Y03795D01*
X027068Y037895D01*
X027235Y037728D02*
X02729Y037672D01*
X026734Y037115D02*
X02729Y037672D01*
X026678Y037171D02*
X026734Y037115D01*
X025723Y038033D02*
X025773Y038033D01*
X025723Y037133D02*
Y038033D01*
Y037133D02*
X025773Y037133D01*
X026073D02*
X026123Y037133D01*
Y038033D01*
X026073Y038033D02*
X026123Y038033D01*
X025723Y037583D02*
X026123D01*
X025047Y037533D02*
X025598D01*
X025523Y038033D02*
X025598D01*
Y037033D02*
Y038033D01*
X025523Y037033D02*
X025598D01*
X025047D02*
X025123D01*
X025047D02*
Y038033D01*
X025123D01*
X02109Y03754D02*
Y037658D01*
X019987D02*
X02109D01*
X019987Y03754D02*
Y037658D01*
Y037107D02*
Y037225D01*
Y037107D02*
X02109D01*
Y037225D01*
X020539Y037107D02*
Y037658D01*
X024397Y037583D02*
X024948D01*
X024397Y037032D02*
X024515D01*
X024397D02*
Y038134D01*
X024515D01*
X02483D02*
X024948D01*
Y037032D02*
Y038134D01*
X02483Y037032D02*
X024948D01*
X021923Y032833D02*
Y033233D01*
X021473Y033183D02*
X021473Y033233D01*
X022373D01*
X022373Y033183D02*
X022373Y033233D01*
X022373Y032883D02*
X022373Y032833D01*
X021473D02*
X022373D01*
X021473Y032883D02*
X021473Y032833D01*
X025373Y032207D02*
Y032283D01*
Y032207D02*
X026373D01*
X026373Y032283D01*
X026373Y032758D02*
X026373Y032683D01*
X025373Y032758D02*
X026373D01*
X025373Y032683D02*
Y032758D01*
X025873Y032207D02*
Y032758D01*
X021047Y033883D02*
X021598D01*
X02148Y034434D02*
X021598D01*
Y033332D02*
Y034434D01*
X02148Y033332D02*
X021598D01*
X021047D02*
X021165D01*
X021047D02*
Y034434D01*
X021165D01*
X019258Y03754D02*
Y037658D01*
X018156D02*
X019258D01*
X018156Y03754D02*
Y037658D01*
Y037107D02*
Y037225D01*
Y037107D02*
X019258D01*
Y037225D01*
X018707Y037107D02*
Y037658D01*
X022474Y03264D02*
Y032758D01*
X021372D02*
X022474D01*
X021372Y03264D02*
Y032758D01*
Y032207D02*
Y032325D01*
Y032207D02*
X022474D01*
Y032325D01*
X021923Y032207D02*
Y032758D01*
X043716Y034315D02*
X043771Y034371D01*
X043159Y034872D02*
X043716Y034315D01*
X043159Y034872D02*
X043215Y034928D01*
X043382Y035095D02*
X043437Y03515D01*
X043994Y034594D01*
X043938Y034538D02*
X043994Y034594D01*
X04578Y035255D02*
X045858D01*
X04578D02*
Y035964D01*
X045858D01*
X046095D02*
X046173D01*
Y035255D02*
Y035964D01*
X046095Y035255D02*
X046173D01*
X045772Y036351D02*
Y03643D01*
X046481D01*
Y036351D02*
Y03643D01*
Y036036D02*
Y036115D01*
X045772Y036036D02*
X046481D01*
X045772D02*
Y036115D01*
X04702Y035551D02*
Y03563D01*
X046233D02*
X04702D01*
X046233Y035551D02*
Y03563D01*
Y035236D02*
Y035315D01*
Y035236D02*
X04702D01*
Y035315D01*
Y035101D02*
Y03518D01*
X046233D02*
X04702D01*
X046233Y035101D02*
Y03518D01*
Y034786D02*
Y034865D01*
Y034786D02*
X04702D01*
Y034865D01*
X04528Y035705D02*
X045358D01*
X04528D02*
Y036414D01*
X045358D01*
X045595D02*
X045673D01*
Y035705D02*
Y036414D01*
X045595Y035705D02*
X045673D01*
X04737Y036115D02*
X04737Y036036D01*
X046583D02*
X04737D01*
X046583D02*
Y036115D01*
Y036351D02*
Y03643D01*
X04737D01*
X04737Y036351D02*
X04737Y03643D01*
X04743Y036039D02*
X047508D01*
X04743D02*
Y036826D01*
X047508Y036826D01*
X047745D02*
X047823Y036826D01*
Y036039D02*
Y036826D01*
X047745Y036039D02*
X047823D01*
X045295Y038076D02*
X045373D01*
Y037289D02*
Y038076D01*
X045295Y037289D02*
X045373D01*
X04498D02*
X045058D01*
X04498D02*
Y038076D01*
X045058D01*
X044476Y037683D02*
X044876D01*
X044826Y038133D02*
X044876D01*
Y037233D02*
Y038133D01*
X044826Y037233D02*
X044876D01*
X044476D02*
X044526D01*
X044476D02*
Y038133D01*
X044526D01*
X043109Y037394D02*
X043165Y037338D01*
X043109Y037394D02*
X043666Y03795D01*
X043721Y037895D01*
X043888Y037728D02*
X043944Y037672D01*
X043387Y037115D02*
X043944Y037672D01*
X043332Y037171D02*
X043387Y037115D01*
X042376Y038033D02*
X042426Y038033D01*
X042376Y037133D02*
Y038033D01*
Y037133D02*
X042426Y037133D01*
X042726D02*
X042776Y037133D01*
Y038033D01*
X042726Y038033D02*
X042776Y038033D01*
X042376Y037583D02*
X042776D01*
X041701Y037533D02*
X042252D01*
X042176Y038033D02*
X042252D01*
Y037033D02*
Y038033D01*
X042176Y037033D02*
X042252D01*
X041701D02*
X041776D01*
X041701D02*
Y038033D01*
X041776D01*
X037743Y03754D02*
Y037658D01*
X036641D02*
X037743D01*
X036641Y03754D02*
Y037658D01*
Y037107D02*
Y037225D01*
Y037107D02*
X037743D01*
Y037225D01*
X037192Y037107D02*
Y037658D01*
X041051Y037583D02*
X041602D01*
X041051Y037032D02*
X041169D01*
X041051D02*
Y038134D01*
X041169D01*
X041484D02*
X041602D01*
Y037032D02*
Y038134D01*
X041484Y037032D02*
X041602D01*
X038576Y032833D02*
Y033233D01*
X038126Y033183D02*
X038126Y033233D01*
X039026D01*
X039026Y033183D02*
X039026Y033233D01*
X039026Y032883D02*
X039026Y032833D01*
X038126D02*
X039026D01*
X038126Y032883D02*
X038126Y032833D01*
X042026Y032207D02*
Y032283D01*
Y032207D02*
X043026D01*
X043026Y032283D01*
X043026Y032758D02*
X043026Y032683D01*
X042026Y032758D02*
X043026D01*
X042026Y032683D02*
Y032758D01*
X042526Y032207D02*
Y032758D01*
X037701Y033883D02*
X038252D01*
X038134Y034434D02*
X038252D01*
Y033332D02*
Y034434D01*
X038134Y033332D02*
X038252D01*
X037701D02*
X037819D01*
X037701D02*
Y034434D01*
X037819D01*
X035912Y03754D02*
Y037658D01*
X03481D02*
X035912D01*
X03481Y03754D02*
Y037658D01*
Y037107D02*
Y037225D01*
Y037107D02*
X035912D01*
Y037225D01*
X035361Y037107D02*
Y037658D01*
X039128Y03264D02*
Y032758D01*
X038025D02*
X039128D01*
X038025Y03264D02*
Y032758D01*
Y032207D02*
Y032325D01*
Y032207D02*
X039128D01*
Y032325D01*
X038576Y032207D02*
Y032758D01*
X027062Y040536D02*
X027118Y040591D01*
X026505Y041092D02*
X027062Y040536D01*
X026505Y041092D02*
X026561Y041148D01*
X026728Y041315D02*
X026784Y041371D01*
X02734Y040814D01*
X027285Y040758D02*
X02734Y040814D01*
X029126Y041476D02*
X029205D01*
X029126D02*
Y042184D01*
X029205D01*
X029441D02*
X02952D01*
Y041476D02*
Y042184D01*
X029441Y041476D02*
X02952D01*
X029119Y042571D02*
Y04265D01*
X029827D01*
Y042571D02*
Y04265D01*
Y042256D02*
Y042335D01*
X029119Y042256D02*
X029827D01*
X029119D02*
Y042335D01*
X030367Y041771D02*
Y04185D01*
X029579D02*
X030367D01*
X029579Y041771D02*
Y04185D01*
Y041456D02*
Y041535D01*
Y041456D02*
X030367D01*
Y041535D01*
Y041321D02*
Y0414D01*
X029579D02*
X030367D01*
X029579Y041321D02*
Y0414D01*
Y041006D02*
Y041085D01*
Y041006D02*
X030367D01*
Y041085D01*
X028626Y041926D02*
X028705D01*
X028626D02*
Y042634D01*
X028705D01*
X028941D02*
X02902D01*
Y041926D02*
Y042634D01*
X028941Y041926D02*
X02902D01*
X030717Y042335D02*
X030717Y042256D01*
X029929D02*
X030717D01*
X029929D02*
Y042335D01*
Y042571D02*
Y04265D01*
X030717D01*
X030717Y042571D02*
X030717Y04265D01*
X030776Y04226D02*
X030855D01*
X030776D02*
Y043047D01*
X030855Y043047D01*
X031091D02*
X03117Y043047D01*
Y04226D02*
Y043047D01*
X031091Y04226D02*
X03117D01*
X028641Y044297D02*
X02872D01*
Y04351D02*
Y044297D01*
X028641Y04351D02*
X02872D01*
X028326D02*
X028405D01*
X028326D02*
Y044297D01*
X028405D01*
X027823Y043903D02*
X028223D01*
X028173Y044353D02*
X028223D01*
Y043453D02*
Y044353D01*
X028173Y043453D02*
X028223D01*
X027823D02*
X027873D01*
X027823D02*
Y044353D01*
X027873D01*
X026455Y043614D02*
X026511Y043558D01*
X026455Y043614D02*
X027012Y044171D01*
X027068Y044115D01*
X027235Y043948D02*
X02729Y043892D01*
X026734Y043336D02*
X02729Y043892D01*
X026678Y043391D02*
X026734Y043336D01*
X025723Y044253D02*
X025773Y044253D01*
X025723Y043353D02*
Y044253D01*
Y043353D02*
X025773Y043353D01*
X026073D02*
X026123Y043353D01*
Y044253D01*
X026073Y044253D02*
X026123Y044253D01*
X025723Y043803D02*
X026123D01*
X025047Y043753D02*
X025598D01*
X025523Y044253D02*
X025598D01*
Y043253D02*
Y044253D01*
X025523Y043253D02*
X025598D01*
X025047D02*
X025123D01*
X025047D02*
Y044253D01*
X025123D01*
X02109Y043761D02*
Y043879D01*
X019987D02*
X02109D01*
X019987Y043761D02*
Y043879D01*
Y043328D02*
Y043446D01*
Y043328D02*
X02109D01*
Y043446D01*
X020539Y043328D02*
Y043879D01*
X024397Y043803D02*
X024948D01*
X024397Y043252D02*
X024515D01*
X024397D02*
Y044354D01*
X024515D01*
X02483D02*
X024948D01*
Y043252D02*
Y044354D01*
X02483Y043252D02*
X024948D01*
X021923Y039053D02*
Y039453D01*
X021473Y039403D02*
X021473Y039453D01*
X022373D01*
X022373Y039403D02*
X022373Y039453D01*
X022373Y039103D02*
X022373Y039053D01*
X021473D02*
X022373D01*
X021473Y039103D02*
X021473Y039053D01*
X025373Y038428D02*
Y038503D01*
Y038428D02*
X026373D01*
X026373Y038503D01*
X026373Y038979D02*
X026373Y038903D01*
X025373Y038979D02*
X026373D01*
X025373Y038903D02*
Y038979D01*
X025873Y038428D02*
Y038979D01*
X021047Y040103D02*
X021598D01*
X02148Y040654D02*
X021598D01*
Y039552D02*
Y040654D01*
X02148Y039552D02*
X021598D01*
X021047D02*
X021165D01*
X021047D02*
Y040654D01*
X021165D01*
X019258Y043761D02*
Y043879D01*
X018156D02*
X019258D01*
X018156Y043761D02*
Y043879D01*
Y043328D02*
Y043446D01*
Y043328D02*
X019258D01*
Y043446D01*
X018707Y043328D02*
Y043879D01*
X022474Y038861D02*
Y038979D01*
X021372D02*
X022474D01*
X021372Y038861D02*
Y038979D01*
Y038428D02*
Y038546D01*
Y038428D02*
X022474D01*
Y038546D01*
X021923Y038428D02*
Y038979D01*
X043716Y040536D02*
X043771Y040591D01*
X043159Y041092D02*
X043716Y040536D01*
X043159Y041092D02*
X043215Y041148D01*
X043382Y041315D02*
X043437Y041371D01*
X043994Y040814D01*
X043938Y040758D02*
X043994Y040814D01*
X04578Y041476D02*
X045858D01*
X04578D02*
Y042184D01*
X045858D01*
X046095D02*
X046173D01*
Y041476D02*
Y042184D01*
X046095Y041476D02*
X046173D01*
X045772Y042571D02*
Y04265D01*
X046481D01*
Y042571D02*
Y04265D01*
Y042256D02*
Y042335D01*
X045772Y042256D02*
X046481D01*
X045772D02*
Y042335D01*
X04702Y041771D02*
Y04185D01*
X046233D02*
X04702D01*
X046233Y041771D02*
Y04185D01*
Y041456D02*
Y041535D01*
Y041456D02*
X04702D01*
Y041535D01*
Y041321D02*
Y0414D01*
X046233D02*
X04702D01*
X046233Y041321D02*
Y0414D01*
Y041006D02*
Y041085D01*
Y041006D02*
X04702D01*
Y041085D01*
X04528Y041926D02*
X045358D01*
X04528D02*
Y042634D01*
X045358D01*
X045595D02*
X045673D01*
Y041926D02*
Y042634D01*
X045595Y041926D02*
X045673D01*
X04737Y042335D02*
X04737Y042256D01*
X046583D02*
X04737D01*
X046583D02*
Y042335D01*
Y042571D02*
Y04265D01*
X04737D01*
X04737Y042571D02*
X04737Y04265D01*
X04743Y04226D02*
X047508D01*
X04743D02*
Y043047D01*
X047508Y043047D01*
X047745D02*
X047823Y043047D01*
Y04226D02*
Y043047D01*
X047745Y04226D02*
X047823D01*
X045295Y044297D02*
X045373D01*
Y04351D02*
Y044297D01*
X045295Y04351D02*
X045373D01*
X04498D02*
X045058D01*
X04498D02*
Y044297D01*
X045058D01*
X044476Y043903D02*
X044876D01*
X044826Y044353D02*
X044876D01*
Y043453D02*
Y044353D01*
X044826Y043453D02*
X044876D01*
X044476D02*
X044526D01*
X044476D02*
Y044353D01*
X044526D01*
X043109Y043614D02*
X043165Y043558D01*
X043109Y043614D02*
X043666Y044171D01*
X043721Y044115D01*
X043888Y043948D02*
X043944Y043892D01*
X043387Y043336D02*
X043944Y043892D01*
X043332Y043391D02*
X043387Y043336D01*
X042376Y044253D02*
X042426Y044253D01*
X042376Y043353D02*
Y044253D01*
Y043353D02*
X042426Y043353D01*
X042726D02*
X042776Y043353D01*
Y044253D01*
X042726Y044253D02*
X042776Y044253D01*
X042376Y043803D02*
X042776D01*
X041701Y043753D02*
X042252D01*
X042176Y044253D02*
X042252D01*
Y043253D02*
Y044253D01*
X042176Y043253D02*
X042252D01*
X041701D02*
X041776D01*
X041701D02*
Y044253D01*
X041776D01*
X037743Y043761D02*
Y043879D01*
X036641D02*
X037743D01*
X036641Y043761D02*
Y043879D01*
Y043328D02*
Y043446D01*
Y043328D02*
X037743D01*
Y043446D01*
X037192Y043328D02*
Y043879D01*
X041051Y043803D02*
X041602D01*
X041051Y043252D02*
X041169D01*
X041051D02*
Y044354D01*
X041169D01*
X041484D02*
X041602D01*
Y043252D02*
Y044354D01*
X041484Y043252D02*
X041602D01*
X038576Y039053D02*
Y039453D01*
X038126Y039403D02*
X038126Y039453D01*
X039026D01*
X039026Y039403D02*
X039026Y039453D01*
X039026Y039103D02*
X039026Y039053D01*
X038126D02*
X039026D01*
X038126Y039103D02*
X038126Y039053D01*
X042026Y038428D02*
Y038503D01*
Y038428D02*
X043026D01*
X043026Y038503D01*
X043026Y038979D02*
X043026Y038903D01*
X042026Y038979D02*
X043026D01*
X042026Y038903D02*
Y038979D01*
X042526Y038428D02*
Y038979D01*
X037701Y040103D02*
X038252D01*
X038134Y040654D02*
X038252D01*
Y039552D02*
Y040654D01*
X038134Y039552D02*
X038252D01*
X037701D02*
X037819D01*
X037701D02*
Y040654D01*
X037819D01*
X035912Y043761D02*
Y043879D01*
X03481D02*
X035912D01*
X03481Y043761D02*
Y043879D01*
Y043328D02*
Y043446D01*
Y043328D02*
X035912D01*
Y043446D01*
X035361Y043328D02*
Y043879D01*
X039128Y038861D02*
Y038979D01*
X038025D02*
X039128D01*
X038025Y038861D02*
Y038979D01*
Y038428D02*
Y038546D01*
Y038428D02*
X039128D01*
Y038546D01*
X038576Y038428D02*
Y038979D01*
D55*
X028453Y015065D02*
Y015577D01*
X027193Y015065D02*
Y015577D01*
X021886Y017934D02*
X02346D01*
X021886Y019509D02*
X02346D01*
Y017934D02*
Y019509D01*
X021886Y017934D02*
Y019509D01*
X026779Y018103D02*
Y018241D01*
Y016666D02*
Y016804D01*
X028354Y018103D02*
Y018241D01*
Y016666D02*
Y016804D01*
X026779Y018241D02*
X026917D01*
X026779Y016666D02*
X026917D01*
X028216Y018241D02*
X028354D01*
X028216Y016666D02*
X028354D01*
X020203Y017087D02*
X020843D01*
X020203Y015855D02*
X020843D01*
X045106Y015065D02*
Y015577D01*
X043847Y015065D02*
Y015577D01*
X038539Y017934D02*
X040114D01*
X038539Y019509D02*
X040114D01*
Y017934D02*
Y019509D01*
X038539Y017934D02*
Y019509D01*
X043433Y018103D02*
Y018241D01*
Y016666D02*
Y016804D01*
X045008Y018103D02*
Y018241D01*
Y016666D02*
Y016804D01*
X043433Y018241D02*
X043571D01*
X043433Y016666D02*
X043571D01*
X04487Y018241D02*
X045008D01*
X04487Y016666D02*
X045008D01*
X036857Y017087D02*
X037496D01*
X036857Y015855D02*
X037496D01*
X028453Y021286D02*
Y021798D01*
X027193Y021286D02*
Y021798D01*
X021886Y024154D02*
X02346D01*
X021886Y025729D02*
X02346D01*
Y024154D02*
Y025729D01*
X021886Y024154D02*
Y025729D01*
X026779Y024324D02*
Y024461D01*
Y022887D02*
Y023024D01*
X028354Y024324D02*
Y024461D01*
Y022887D02*
Y023024D01*
X026779Y024461D02*
X026917D01*
X026779Y022887D02*
X026917D01*
X028216Y024461D02*
X028354D01*
X028216Y022887D02*
X028354D01*
X020203Y023308D02*
X020843D01*
X020203Y022076D02*
X020843D01*
X045106Y021286D02*
Y021798D01*
X043847Y021286D02*
Y021798D01*
X038539Y024154D02*
X040114D01*
X038539Y025729D02*
X040114D01*
Y024154D02*
Y025729D01*
X038539Y024154D02*
Y025729D01*
X043433Y024324D02*
Y024461D01*
Y022887D02*
Y023024D01*
X045008Y024324D02*
Y024461D01*
Y022887D02*
Y023024D01*
X043433Y024461D02*
X043571D01*
X043433Y022887D02*
X043571D01*
X04487Y024461D02*
X045008D01*
X04487Y022887D02*
X045008D01*
X036857Y023308D02*
X037496D01*
X036857Y022076D02*
X037496D01*
X028453Y027506D02*
Y028018D01*
X027193Y027506D02*
Y028018D01*
X021886Y030375D02*
X02346D01*
X021886Y03195D02*
X02346D01*
Y030375D02*
Y03195D01*
X021886Y030375D02*
Y03195D01*
X026779Y030544D02*
Y030682D01*
Y029107D02*
Y029245D01*
X028354Y030544D02*
Y030682D01*
Y029107D02*
Y029245D01*
X026779Y030682D02*
X026917D01*
X026779Y029107D02*
X026917D01*
X028216Y030682D02*
X028354D01*
X028216Y029107D02*
X028354D01*
X020203Y029528D02*
X020843D01*
X020203Y028296D02*
X020843D01*
X045106Y027506D02*
Y028018D01*
X043847Y027506D02*
Y028018D01*
X038539Y030375D02*
X040114D01*
X038539Y03195D02*
X040114D01*
Y030375D02*
Y03195D01*
X038539Y030375D02*
Y03195D01*
X043433Y030544D02*
Y030682D01*
Y029107D02*
Y029245D01*
X045008Y030544D02*
Y030682D01*
Y029107D02*
Y029245D01*
X043433Y030682D02*
X043571D01*
X043433Y029107D02*
X043571D01*
X04487Y030682D02*
X045008D01*
X04487Y029107D02*
X045008D01*
X036857Y029528D02*
X037496D01*
X036857Y028296D02*
X037496D01*
X028453Y033727D02*
Y034239D01*
X027193Y033727D02*
Y034239D01*
X021886Y036595D02*
X02346D01*
X021886Y03817D02*
X02346D01*
Y036595D02*
Y03817D01*
X021886Y036595D02*
Y03817D01*
X026779Y036765D02*
Y036902D01*
Y035328D02*
Y035465D01*
X028354Y036765D02*
Y036902D01*
Y035328D02*
Y035465D01*
X026779Y036902D02*
X026917D01*
X026779Y035328D02*
X026917D01*
X028216Y036902D02*
X028354D01*
X028216Y035328D02*
X028354D01*
X020203Y035749D02*
X020843D01*
X020203Y034517D02*
X020843D01*
X045106Y033727D02*
Y034239D01*
X043847Y033727D02*
Y034239D01*
X038539Y036595D02*
X040114D01*
X038539Y03817D02*
X040114D01*
Y036595D02*
Y03817D01*
X038539Y036595D02*
Y03817D01*
X043433Y036765D02*
Y036902D01*
Y035328D02*
Y035465D01*
X045008Y036765D02*
Y036902D01*
Y035328D02*
Y035465D01*
X043433Y036902D02*
X043571D01*
X043433Y035328D02*
X043571D01*
X04487Y036902D02*
X045008D01*
X04487Y035328D02*
X045008D01*
X036857Y035749D02*
X037496D01*
X036857Y034517D02*
X037496D01*
X028453Y039947D02*
Y040459D01*
X027193Y039947D02*
Y040459D01*
X021886Y042816D02*
X02346D01*
X021886Y044391D02*
X02346D01*
Y042816D02*
Y044391D01*
X021886Y042816D02*
Y044391D01*
X026779Y042985D02*
Y043123D01*
Y041548D02*
Y041686D01*
X028354Y042985D02*
Y043123D01*
Y041548D02*
Y041686D01*
X026779Y043123D02*
X026917D01*
X026779Y041548D02*
X026917D01*
X028216Y043123D02*
X028354D01*
X028216Y041548D02*
X028354D01*
X020203Y041969D02*
X020843D01*
X020203Y040737D02*
X020843D01*
X045106Y039947D02*
Y040459D01*
X043847Y039947D02*
Y040459D01*
X038539Y042816D02*
X040114D01*
X038539Y044391D02*
X040114D01*
Y042816D02*
Y044391D01*
X038539Y042816D02*
Y044391D01*
X043433Y042985D02*
Y043123D01*
Y041548D02*
Y041686D01*
X045008Y042985D02*
Y043123D01*
Y041548D02*
Y041686D01*
X043433Y043123D02*
X043571D01*
X043433Y041548D02*
X043571D01*
X04487Y043123D02*
X045008D01*
X04487Y041548D02*
X045008D01*
X036857Y041969D02*
X037496D01*
X036857Y040737D02*
X037496D01*
D56*
X023731Y018946D02*
X023648D01*
X02369D01*
Y018738D01*
X023648Y018696D01*
X023606D01*
X023565Y018738D01*
X023815Y018905D02*
X023856Y018946D01*
X02394D01*
X023981Y018905D01*
Y018863D01*
X02394Y018821D01*
X023898D01*
X02394D01*
X023981Y01878D01*
Y018738D01*
X02394Y018696D01*
X023856D01*
X023815Y018738D01*
X032373Y017946D02*
X03229D01*
X032331D01*
Y017738D01*
X03229Y017696D01*
X032248D01*
X032206Y017738D01*
X032456Y017696D02*
X03254D01*
X032498D01*
Y017946D01*
X032456Y017905D01*
X025165Y017946D02*
Y018196D01*
X02529D01*
X025331Y018155D01*
Y018071D01*
X02529Y01803D01*
X025165D01*
X025248D02*
X025331Y017946D01*
X025581Y018196D02*
X025415D01*
Y018071D01*
X025498Y018113D01*
X02554D01*
X025581Y018071D01*
Y017988D01*
X02554Y017946D01*
X025456D01*
X025415Y017988D01*
X020981Y013905D02*
X02094Y013946D01*
X020856D01*
X020815Y013905D01*
Y013738D01*
X020856Y013696D01*
X02094D01*
X020981Y013738D01*
X021065Y013905D02*
X021106Y013946D01*
X02119D01*
X021231Y013905D01*
Y013863D01*
X02119Y013821D01*
X021231Y01378D01*
Y013738D01*
X02119Y013696D01*
X021106D01*
X021065Y013738D01*
Y01378D01*
X021106Y013821D01*
X021065Y013863D01*
Y013905D01*
X021106Y013821D02*
X02119D01*
X024581Y018155D02*
X02454Y018196D01*
X024456D01*
X024415Y018155D01*
Y017988D01*
X024456Y017946D01*
X02454D01*
X024581Y017988D01*
X024665Y018196D02*
X024831D01*
Y018155D01*
X024665Y017988D01*
Y017946D01*
X020681Y014955D02*
X02064Y014996D01*
X020556D01*
X020515Y014955D01*
Y014788D01*
X020556Y014746D01*
X02064D01*
X020681Y014788D01*
X020931Y014996D02*
X020848Y014955D01*
X020765Y014871D01*
Y014788D01*
X020806Y014746D01*
X02089D01*
X020931Y014788D01*
Y01483D01*
X02089Y014871D01*
X020765D01*
X027665Y016096D02*
Y016055D01*
X027748Y015971D01*
X027831Y016055D01*
Y016096D01*
X027748Y015971D02*
Y015846D01*
X028081D02*
X027915D01*
X028081Y016013D01*
Y016055D01*
X02804Y016096D01*
X027956D01*
X027915Y016055D01*
X027706Y016446D02*
Y016238D01*
X027748Y016196D01*
X027831D01*
X027873Y016238D01*
Y016446D01*
X027956Y016196D02*
X02804D01*
X027998D01*
Y016446D01*
X027956Y016405D01*
X027265Y018596D02*
Y018846D01*
X02739D01*
X027431Y018805D01*
Y018721D01*
X02739Y01868D01*
X027265D01*
X027348D02*
X027431Y018596D01*
X027515Y018805D02*
X027556Y018846D01*
X02764D01*
X027681Y018805D01*
Y018763D01*
X02764Y018721D01*
X027598D01*
X02764D01*
X027681Y01868D01*
Y018638D01*
X02764Y018596D01*
X027556D01*
X027515Y018638D01*
X029165Y018446D02*
Y018196D01*
X029331D01*
X029415Y018405D02*
X029456Y018446D01*
X02954D01*
X029581Y018405D01*
Y018363D01*
X02954Y018321D01*
X029498D01*
X02954D01*
X029581Y01828D01*
Y018238D01*
X02954Y018196D01*
X029456D01*
X029415Y018238D01*
X028615Y018446D02*
Y018196D01*
X028781D01*
X029031D02*
X028865D01*
X029031Y018363D01*
Y018405D01*
X02899Y018446D01*
X028906D01*
X028865Y018405D01*
X028656Y016896D02*
Y016646D01*
X028823D01*
X028906D02*
X02899D01*
X028948D01*
Y016896D01*
X028906Y016855D01*
X028977Y019305D02*
X028935Y019346D01*
X028852D01*
X028811Y019305D01*
Y019138D01*
X028852Y019096D01*
X028935D01*
X028977Y019138D01*
X02906Y019096D02*
X029144D01*
X029102D01*
Y019346D01*
X02906Y019305D01*
X029435Y019096D02*
X029269D01*
X029435Y019263D01*
Y019305D01*
X029394Y019346D01*
X02931D01*
X029269Y019305D01*
X026369Y015605D02*
X026327Y015646D01*
X026244D01*
X026202Y015605D01*
Y015438D01*
X026244Y015396D01*
X026327D01*
X026369Y015438D01*
X026452Y015396D02*
X026535D01*
X026494D01*
Y015646D01*
X026452Y015605D01*
X02666Y015396D02*
X026744D01*
X026702D01*
Y015646D01*
X02666Y015605D01*
X030931Y018505D02*
X03089Y018546D01*
X030806D01*
X030765Y018505D01*
Y018338D01*
X030806Y018296D01*
X03089D01*
X030931Y018338D01*
X031181Y018546D02*
X031015D01*
Y018421D01*
X031098Y018463D01*
X03114D01*
X031181Y018421D01*
Y018338D01*
X03114Y018296D01*
X031056D01*
X031015Y018338D01*
X030231Y018405D02*
X03019Y018446D01*
X030106D01*
X030065Y018405D01*
Y018238D01*
X030106Y018196D01*
X03019D01*
X030231Y018238D01*
X03044Y018196D02*
Y018446D01*
X030315Y018321D01*
X030481D01*
X030631Y016955D02*
X03059Y016996D01*
X030506D01*
X030465Y016955D01*
Y016788D01*
X030506Y016746D01*
X03059D01*
X030631Y016788D01*
X030715Y016955D02*
X030756Y016996D01*
X03084D01*
X030881Y016955D01*
Y016913D01*
X03084Y016871D01*
X030798D01*
X03084D01*
X030881Y01683D01*
Y016788D01*
X03084Y016746D01*
X030756D01*
X030715Y016788D01*
X030631Y016355D02*
X03059Y016396D01*
X030506D01*
X030465Y016355D01*
Y016188D01*
X030506Y016146D01*
X03059D01*
X030631Y016188D01*
X030881Y016146D02*
X030715D01*
X030881Y016313D01*
Y016355D01*
X03084Y016396D01*
X030756D01*
X030715Y016355D01*
X026573Y019405D02*
X026531Y019446D01*
X026448D01*
X026406Y019405D01*
Y019238D01*
X026448Y019196D01*
X026531D01*
X026573Y019238D01*
X026656Y019196D02*
X02674D01*
X026698D01*
Y019446D01*
X026656Y019405D01*
X019815Y015696D02*
Y015488D01*
X019856Y015446D01*
X01994D01*
X019981Y015488D01*
Y015696D01*
X020231Y015446D02*
X020065D01*
X020231Y015613D01*
Y015655D01*
X02019Y015696D01*
X020106D01*
X020065Y015655D01*
X025715Y017946D02*
Y018196D01*
X02584D01*
X025881Y018155D01*
Y018071D01*
X02584Y01803D01*
X025715D01*
X025798D02*
X025881Y017946D01*
X02609D02*
Y018196D01*
X025965Y018071D01*
X026131D01*
X023702Y018196D02*
X023785D01*
X023744D01*
Y017946D01*
X023702D01*
X023785D01*
X024077Y018155D02*
X024035Y018196D01*
X023952D01*
X02391Y018155D01*
Y017988D01*
X023952Y017946D01*
X024035D01*
X024077Y017988D01*
X02416Y017946D02*
X024244D01*
X024202D01*
Y018196D01*
X02416Y018155D01*
X026606Y013696D02*
Y013946D01*
X026731D01*
X026773Y013905D01*
Y013821D01*
X026731Y01378D01*
X026606D01*
X02669D02*
X026773Y013696D01*
X026856D02*
X02694D01*
X026898D01*
Y013946D01*
X026856Y013905D01*
X020815Y014146D02*
Y014396D01*
X02094D01*
X020981Y014355D01*
Y014271D01*
X02094Y01423D01*
X020815D01*
X020898D02*
X020981Y014146D01*
X021231D02*
X021065D01*
X021231Y014313D01*
Y014355D01*
X02119Y014396D01*
X021106D01*
X021065Y014355D01*
X020331Y019355D02*
X02029Y019396D01*
X020206D01*
X020165Y019355D01*
Y019188D01*
X020206Y019146D01*
X02029D01*
X020331Y019188D01*
X020415D02*
X020456Y019146D01*
X02054D01*
X020581Y019188D01*
Y019355D01*
X02054Y019396D01*
X020456D01*
X020415Y019355D01*
Y019313D01*
X020456Y019271D01*
X020581D01*
X018627Y019355D02*
X018585Y019396D01*
X018502D01*
X018461Y019355D01*
Y019188D01*
X018502Y019146D01*
X018585D01*
X018627Y019188D01*
X01871Y019146D02*
X018794D01*
X018752D01*
Y019396D01*
X01871Y019355D01*
X019044Y019146D02*
Y019396D01*
X018919Y019271D01*
X019085D01*
X040385Y018946D02*
X040301D01*
X040343D01*
Y018738D01*
X040301Y018696D01*
X04026D01*
X040218Y018738D01*
X040468Y018905D02*
X04051Y018946D01*
X040593D01*
X040635Y018905D01*
Y018863D01*
X040593Y018821D01*
X040551D01*
X040593D01*
X040635Y01878D01*
Y018738D01*
X040593Y018696D01*
X04051D01*
X040468Y018738D01*
X049026Y017946D02*
X048943D01*
X048985D01*
Y017738D01*
X048943Y017696D01*
X048901D01*
X04886Y017738D01*
X04911Y017696D02*
X049193D01*
X049151D01*
Y017946D01*
X04911Y017905D01*
X041818Y017946D02*
Y018196D01*
X041943D01*
X041985Y018155D01*
Y018071D01*
X041943Y01803D01*
X041818D01*
X041901D02*
X041985Y017946D01*
X042235Y018196D02*
X042068D01*
Y018071D01*
X042151Y018113D01*
X042193D01*
X042235Y018071D01*
Y017988D01*
X042193Y017946D01*
X04211D01*
X042068Y017988D01*
X037635Y013905D02*
X037593Y013946D01*
X03751D01*
X037468Y013905D01*
Y013738D01*
X03751Y013696D01*
X037593D01*
X037635Y013738D01*
X037718Y013905D02*
X03776Y013946D01*
X037843D01*
X037885Y013905D01*
Y013863D01*
X037843Y013821D01*
X037885Y01378D01*
Y013738D01*
X037843Y013696D01*
X03776D01*
X037718Y013738D01*
Y01378D01*
X03776Y013821D01*
X037718Y013863D01*
Y013905D01*
X03776Y013821D02*
X037843D01*
X041235Y018155D02*
X041193Y018196D01*
X04111D01*
X041068Y018155D01*
Y017988D01*
X04111Y017946D01*
X041193D01*
X041235Y017988D01*
X041318Y018196D02*
X041485D01*
Y018155D01*
X041318Y017988D01*
Y017946D01*
X037335Y014955D02*
X037293Y014996D01*
X03721D01*
X037168Y014955D01*
Y014788D01*
X03721Y014746D01*
X037293D01*
X037335Y014788D01*
X037585Y014996D02*
X037501Y014955D01*
X037418Y014871D01*
Y014788D01*
X03746Y014746D01*
X037543D01*
X037585Y014788D01*
Y01483D01*
X037543Y014871D01*
X037418D01*
X044318Y016096D02*
Y016055D01*
X044401Y015971D01*
X044485Y016055D01*
Y016096D01*
X044401Y015971D02*
Y015846D01*
X044735D02*
X044568D01*
X044735Y016013D01*
Y016055D01*
X044693Y016096D01*
X04461D01*
X044568Y016055D01*
X04436Y016446D02*
Y016238D01*
X044401Y016196D01*
X044485D01*
X044526Y016238D01*
Y016446D01*
X04461Y016196D02*
X044693D01*
X044651D01*
Y016446D01*
X04461Y016405D01*
X043918Y018596D02*
Y018846D01*
X044043D01*
X044085Y018805D01*
Y018721D01*
X044043Y01868D01*
X043918D01*
X044001D02*
X044085Y018596D01*
X044168Y018805D02*
X04421Y018846D01*
X044293D01*
X044335Y018805D01*
Y018763D01*
X044293Y018721D01*
X044251D01*
X044293D01*
X044335Y01868D01*
Y018638D01*
X044293Y018596D01*
X04421D01*
X044168Y018638D01*
X045818Y018446D02*
Y018196D01*
X045985D01*
X046068Y018405D02*
X04611Y018446D01*
X046193D01*
X046235Y018405D01*
Y018363D01*
X046193Y018321D01*
X046151D01*
X046193D01*
X046235Y01828D01*
Y018238D01*
X046193Y018196D01*
X04611D01*
X046068Y018238D01*
X045268Y018446D02*
Y018196D01*
X045435D01*
X045685D02*
X045518D01*
X045685Y018363D01*
Y018405D01*
X045643Y018446D01*
X04556D01*
X045518Y018405D01*
X04531Y016896D02*
Y016646D01*
X045476D01*
X04556D02*
X045643D01*
X045601D01*
Y016896D01*
X04556Y016855D01*
X045631Y019305D02*
X045589Y019346D01*
X045506D01*
X045464Y019305D01*
Y019138D01*
X045506Y019096D01*
X045589D01*
X045631Y019138D01*
X045714Y019096D02*
X045797D01*
X045756D01*
Y019346D01*
X045714Y019305D01*
X046089Y019096D02*
X045922D01*
X046089Y019263D01*
Y019305D01*
X046047Y019346D01*
X045964D01*
X045922Y019305D01*
X043022Y015605D02*
X042981Y015646D01*
X042897D01*
X042856Y015605D01*
Y015438D01*
X042897Y015396D01*
X042981D01*
X043022Y015438D01*
X043106Y015396D02*
X043189D01*
X043147D01*
Y015646D01*
X043106Y015605D01*
X043314Y015396D02*
X043397D01*
X043356D01*
Y015646D01*
X043314Y015605D01*
X047585Y018505D02*
X047543Y018546D01*
X04746D01*
X047418Y018505D01*
Y018338D01*
X04746Y018296D01*
X047543D01*
X047585Y018338D01*
X047835Y018546D02*
X047668D01*
Y018421D01*
X047751Y018463D01*
X047793D01*
X047835Y018421D01*
Y018338D01*
X047793Y018296D01*
X04771D01*
X047668Y018338D01*
X046885Y018405D02*
X046843Y018446D01*
X04676D01*
X046718Y018405D01*
Y018238D01*
X04676Y018196D01*
X046843D01*
X046885Y018238D01*
X047093Y018196D02*
Y018446D01*
X046968Y018321D01*
X047135D01*
X047285Y016955D02*
X047243Y016996D01*
X04716D01*
X047118Y016955D01*
Y016788D01*
X04716Y016746D01*
X047243D01*
X047285Y016788D01*
X047368Y016955D02*
X04741Y016996D01*
X047493D01*
X047535Y016955D01*
Y016913D01*
X047493Y016871D01*
X047451D01*
X047493D01*
X047535Y01683D01*
Y016788D01*
X047493Y016746D01*
X04741D01*
X047368Y016788D01*
X047285Y016355D02*
X047243Y016396D01*
X04716D01*
X047118Y016355D01*
Y016188D01*
X04716Y016146D01*
X047243D01*
X047285Y016188D01*
X047535Y016146D02*
X047368D01*
X047535Y016313D01*
Y016355D01*
X047493Y016396D01*
X04741D01*
X047368Y016355D01*
X043226Y019405D02*
X043185Y019446D01*
X043101D01*
X04306Y019405D01*
Y019238D01*
X043101Y019196D01*
X043185D01*
X043226Y019238D01*
X04331Y019196D02*
X043393D01*
X043351D01*
Y019446D01*
X04331Y019405D01*
X036468Y015696D02*
Y015488D01*
X03651Y015446D01*
X036593D01*
X036635Y015488D01*
Y015696D01*
X036885Y015446D02*
X036718D01*
X036885Y015613D01*
Y015655D01*
X036843Y015696D01*
X03676D01*
X036718Y015655D01*
X042368Y017946D02*
Y018196D01*
X042493D01*
X042535Y018155D01*
Y018071D01*
X042493Y01803D01*
X042368D01*
X042451D02*
X042535Y017946D01*
X042743D02*
Y018196D01*
X042618Y018071D01*
X042785D01*
X040356Y018196D02*
X040439D01*
X040397D01*
Y017946D01*
X040356D01*
X040439D01*
X040731Y018155D02*
X040689Y018196D01*
X040606D01*
X040564Y018155D01*
Y017988D01*
X040606Y017946D01*
X040689D01*
X040731Y017988D01*
X040814Y017946D02*
X040897D01*
X040856D01*
Y018196D01*
X040814Y018155D01*
X04326Y013696D02*
Y013946D01*
X043385D01*
X043426Y013905D01*
Y013821D01*
X043385Y01378D01*
X04326D01*
X043343D02*
X043426Y013696D01*
X04351D02*
X043593D01*
X043551D01*
Y013946D01*
X04351Y013905D01*
X037468Y014146D02*
Y014396D01*
X037593D01*
X037635Y014355D01*
Y014271D01*
X037593Y01423D01*
X037468D01*
X037551D02*
X037635Y014146D01*
X037885D02*
X037718D01*
X037885Y014313D01*
Y014355D01*
X037843Y014396D01*
X03776D01*
X037718Y014355D01*
X036985Y019355D02*
X036943Y019396D01*
X03686D01*
X036818Y019355D01*
Y019188D01*
X03686Y019146D01*
X036943D01*
X036985Y019188D01*
X037068D02*
X03711Y019146D01*
X037193D01*
X037235Y019188D01*
Y019355D01*
X037193Y019396D01*
X03711D01*
X037068Y019355D01*
Y019313D01*
X03711Y019271D01*
X037235D01*
X035281Y019355D02*
X035239Y019396D01*
X035156D01*
X035114Y019355D01*
Y019188D01*
X035156Y019146D01*
X035239D01*
X035281Y019188D01*
X035364Y019146D02*
X035447D01*
X035406D01*
Y019396D01*
X035364Y019355D01*
X035697Y019146D02*
Y019396D01*
X035572Y019271D01*
X035739D01*
X023731Y025167D02*
X023648D01*
X02369D01*
Y024958D01*
X023648Y024917D01*
X023606D01*
X023565Y024958D01*
X023815Y025125D02*
X023856Y025167D01*
X02394D01*
X023981Y025125D01*
Y025083D01*
X02394Y025042D01*
X023898D01*
X02394D01*
X023981Y025D01*
Y024958D01*
X02394Y024917D01*
X023856D01*
X023815Y024958D01*
X032373Y024167D02*
X03229D01*
X032331D01*
Y023958D01*
X03229Y023917D01*
X032248D01*
X032206Y023958D01*
X032456Y023917D02*
X03254D01*
X032498D01*
Y024167D01*
X032456Y024125D01*
X025165Y024167D02*
Y024417D01*
X02529D01*
X025331Y024375D01*
Y024292D01*
X02529Y02425D01*
X025165D01*
X025248D02*
X025331Y024167D01*
X025581Y024417D02*
X025415D01*
Y024292D01*
X025498Y024333D01*
X02554D01*
X025581Y024292D01*
Y024208D01*
X02554Y024167D01*
X025456D01*
X025415Y024208D01*
X020981Y020125D02*
X02094Y020167D01*
X020856D01*
X020815Y020125D01*
Y019958D01*
X020856Y019917D01*
X02094D01*
X020981Y019958D01*
X021065Y020125D02*
X021106Y020167D01*
X02119D01*
X021231Y020125D01*
Y020083D01*
X02119Y020042D01*
X021231Y02D01*
Y019958D01*
X02119Y019917D01*
X021106D01*
X021065Y019958D01*
Y02D01*
X021106Y020042D01*
X021065Y020083D01*
Y020125D01*
X021106Y020042D02*
X02119D01*
X024581Y024375D02*
X02454Y024417D01*
X024456D01*
X024415Y024375D01*
Y024208D01*
X024456Y024167D01*
X02454D01*
X024581Y024208D01*
X024665Y024417D02*
X024831D01*
Y024375D01*
X024665Y024208D01*
Y024167D01*
X020681Y021175D02*
X02064Y021217D01*
X020556D01*
X020515Y021175D01*
Y021008D01*
X020556Y020967D01*
X02064D01*
X020681Y021008D01*
X020931Y021217D02*
X020848Y021175D01*
X020765Y021092D01*
Y021008D01*
X020806Y020967D01*
X02089D01*
X020931Y021008D01*
Y02105D01*
X02089Y021092D01*
X020765D01*
X027665Y022317D02*
Y022275D01*
X027748Y022192D01*
X027831Y022275D01*
Y022317D01*
X027748Y022192D02*
Y022067D01*
X028081D02*
X027915D01*
X028081Y022233D01*
Y022275D01*
X02804Y022317D01*
X027956D01*
X027915Y022275D01*
X027706Y022667D02*
Y022458D01*
X027748Y022417D01*
X027831D01*
X027873Y022458D01*
Y022667D01*
X027956Y022417D02*
X02804D01*
X027998D01*
Y022667D01*
X027956Y022625D01*
X027265Y024817D02*
Y025067D01*
X02739D01*
X027431Y025025D01*
Y024942D01*
X02739Y0249D01*
X027265D01*
X027348D02*
X027431Y024817D01*
X027515Y025025D02*
X027556Y025067D01*
X02764D01*
X027681Y025025D01*
Y024983D01*
X02764Y024942D01*
X027598D01*
X02764D01*
X027681Y0249D01*
Y024858D01*
X02764Y024817D01*
X027556D01*
X027515Y024858D01*
X029165Y024667D02*
Y024417D01*
X029331D01*
X029415Y024625D02*
X029456Y024667D01*
X02954D01*
X029581Y024625D01*
Y024583D01*
X02954Y024542D01*
X029498D01*
X02954D01*
X029581Y0245D01*
Y024458D01*
X02954Y024417D01*
X029456D01*
X029415Y024458D01*
X028615Y024667D02*
Y024417D01*
X028781D01*
X029031D02*
X028865D01*
X029031Y024583D01*
Y024625D01*
X02899Y024667D01*
X028906D01*
X028865Y024625D01*
X028656Y023117D02*
Y022867D01*
X028823D01*
X028906D02*
X02899D01*
X028948D01*
Y023117D01*
X028906Y023075D01*
X028977Y025525D02*
X028935Y025567D01*
X028852D01*
X028811Y025525D01*
Y025358D01*
X028852Y025317D01*
X028935D01*
X028977Y025358D01*
X02906Y025317D02*
X029144D01*
X029102D01*
Y025567D01*
X02906Y025525D01*
X029435Y025317D02*
X029269D01*
X029435Y025483D01*
Y025525D01*
X029394Y025567D01*
X02931D01*
X029269Y025525D01*
X026369Y021825D02*
X026327Y021867D01*
X026244D01*
X026202Y021825D01*
Y021658D01*
X026244Y021617D01*
X026327D01*
X026369Y021658D01*
X026452Y021617D02*
X026535D01*
X026494D01*
Y021867D01*
X026452Y021825D01*
X02666Y021617D02*
X026744D01*
X026702D01*
Y021867D01*
X02666Y021825D01*
X030931Y024725D02*
X03089Y024767D01*
X030806D01*
X030765Y024725D01*
Y024558D01*
X030806Y024517D01*
X03089D01*
X030931Y024558D01*
X031181Y024767D02*
X031015D01*
Y024642D01*
X031098Y024683D01*
X03114D01*
X031181Y024642D01*
Y024558D01*
X03114Y024517D01*
X031056D01*
X031015Y024558D01*
X030231Y024625D02*
X03019Y024667D01*
X030106D01*
X030065Y024625D01*
Y024458D01*
X030106Y024417D01*
X03019D01*
X030231Y024458D01*
X03044Y024417D02*
Y024667D01*
X030315Y024542D01*
X030481D01*
X030631Y023175D02*
X03059Y023217D01*
X030506D01*
X030465Y023175D01*
Y023008D01*
X030506Y022967D01*
X03059D01*
X030631Y023008D01*
X030715Y023175D02*
X030756Y023217D01*
X03084D01*
X030881Y023175D01*
Y023133D01*
X03084Y023092D01*
X030798D01*
X03084D01*
X030881Y02305D01*
Y023008D01*
X03084Y022967D01*
X030756D01*
X030715Y023008D01*
X030631Y022575D02*
X03059Y022617D01*
X030506D01*
X030465Y022575D01*
Y022408D01*
X030506Y022367D01*
X03059D01*
X030631Y022408D01*
X030881Y022367D02*
X030715D01*
X030881Y022533D01*
Y022575D01*
X03084Y022617D01*
X030756D01*
X030715Y022575D01*
X026573Y025625D02*
X026531Y025667D01*
X026448D01*
X026406Y025625D01*
Y025458D01*
X026448Y025417D01*
X026531D01*
X026573Y025458D01*
X026656Y025417D02*
X02674D01*
X026698D01*
Y025667D01*
X026656Y025625D01*
X019815Y021917D02*
Y021708D01*
X019856Y021667D01*
X01994D01*
X019981Y021708D01*
Y021917D01*
X020231Y021667D02*
X020065D01*
X020231Y021833D01*
Y021875D01*
X02019Y021917D01*
X020106D01*
X020065Y021875D01*
X025715Y024167D02*
Y024417D01*
X02584D01*
X025881Y024375D01*
Y024292D01*
X02584Y02425D01*
X025715D01*
X025798D02*
X025881Y024167D01*
X02609D02*
Y024417D01*
X025965Y024292D01*
X026131D01*
X023702Y024417D02*
X023785D01*
X023744D01*
Y024167D01*
X023702D01*
X023785D01*
X024077Y024375D02*
X024035Y024417D01*
X023952D01*
X02391Y024375D01*
Y024208D01*
X023952Y024167D01*
X024035D01*
X024077Y024208D01*
X02416Y024167D02*
X024244D01*
X024202D01*
Y024417D01*
X02416Y024375D01*
X026606Y019917D02*
Y020167D01*
X026731D01*
X026773Y020125D01*
Y020042D01*
X026731Y02D01*
X026606D01*
X02669D02*
X026773Y019917D01*
X026856D02*
X02694D01*
X026898D01*
Y020167D01*
X026856Y020125D01*
X020815Y020367D02*
Y020617D01*
X02094D01*
X020981Y020575D01*
Y020492D01*
X02094Y02045D01*
X020815D01*
X020898D02*
X020981Y020367D01*
X021231D02*
X021065D01*
X021231Y020533D01*
Y020575D01*
X02119Y020617D01*
X021106D01*
X021065Y020575D01*
X020331Y025575D02*
X02029Y025617D01*
X020206D01*
X020165Y025575D01*
Y025408D01*
X020206Y025367D01*
X02029D01*
X020331Y025408D01*
X020415D02*
X020456Y025367D01*
X02054D01*
X020581Y025408D01*
Y025575D01*
X02054Y025617D01*
X020456D01*
X020415Y025575D01*
Y025533D01*
X020456Y025492D01*
X020581D01*
X018627Y025575D02*
X018585Y025617D01*
X018502D01*
X018461Y025575D01*
Y025408D01*
X018502Y025367D01*
X018585D01*
X018627Y025408D01*
X01871Y025367D02*
X018794D01*
X018752D01*
Y025617D01*
X01871Y025575D01*
X019044Y025367D02*
Y025617D01*
X018919Y025492D01*
X019085D01*
X040385Y025167D02*
X040301D01*
X040343D01*
Y024958D01*
X040301Y024917D01*
X04026D01*
X040218Y024958D01*
X040468Y025125D02*
X04051Y025167D01*
X040593D01*
X040635Y025125D01*
Y025083D01*
X040593Y025042D01*
X040551D01*
X040593D01*
X040635Y025D01*
Y024958D01*
X040593Y024917D01*
X04051D01*
X040468Y024958D01*
X049026Y024167D02*
X048943D01*
X048985D01*
Y023958D01*
X048943Y023917D01*
X048901D01*
X04886Y023958D01*
X04911Y023917D02*
X049193D01*
X049151D01*
Y024167D01*
X04911Y024125D01*
X041818Y024167D02*
Y024417D01*
X041943D01*
X041985Y024375D01*
Y024292D01*
X041943Y02425D01*
X041818D01*
X041901D02*
X041985Y024167D01*
X042235Y024417D02*
X042068D01*
Y024292D01*
X042151Y024333D01*
X042193D01*
X042235Y024292D01*
Y024208D01*
X042193Y024167D01*
X04211D01*
X042068Y024208D01*
X037635Y020125D02*
X037593Y020167D01*
X03751D01*
X037468Y020125D01*
Y019958D01*
X03751Y019917D01*
X037593D01*
X037635Y019958D01*
X037718Y020125D02*
X03776Y020167D01*
X037843D01*
X037885Y020125D01*
Y020083D01*
X037843Y020042D01*
X037885Y02D01*
Y019958D01*
X037843Y019917D01*
X03776D01*
X037718Y019958D01*
Y02D01*
X03776Y020042D01*
X037718Y020083D01*
Y020125D01*
X03776Y020042D02*
X037843D01*
X041235Y024375D02*
X041193Y024417D01*
X04111D01*
X041068Y024375D01*
Y024208D01*
X04111Y024167D01*
X041193D01*
X041235Y024208D01*
X041318Y024417D02*
X041485D01*
Y024375D01*
X041318Y024208D01*
Y024167D01*
X037335Y021175D02*
X037293Y021217D01*
X03721D01*
X037168Y021175D01*
Y021008D01*
X03721Y020967D01*
X037293D01*
X037335Y021008D01*
X037585Y021217D02*
X037501Y021175D01*
X037418Y021092D01*
Y021008D01*
X03746Y020967D01*
X037543D01*
X037585Y021008D01*
Y02105D01*
X037543Y021092D01*
X037418D01*
X044318Y022317D02*
Y022275D01*
X044401Y022192D01*
X044485Y022275D01*
Y022317D01*
X044401Y022192D02*
Y022067D01*
X044735D02*
X044568D01*
X044735Y022233D01*
Y022275D01*
X044693Y022317D01*
X04461D01*
X044568Y022275D01*
X04436Y022667D02*
Y022458D01*
X044401Y022417D01*
X044485D01*
X044526Y022458D01*
Y022667D01*
X04461Y022417D02*
X044693D01*
X044651D01*
Y022667D01*
X04461Y022625D01*
X043918Y024817D02*
Y025067D01*
X044043D01*
X044085Y025025D01*
Y024942D01*
X044043Y0249D01*
X043918D01*
X044001D02*
X044085Y024817D01*
X044168Y025025D02*
X04421Y025067D01*
X044293D01*
X044335Y025025D01*
Y024983D01*
X044293Y024942D01*
X044251D01*
X044293D01*
X044335Y0249D01*
Y024858D01*
X044293Y024817D01*
X04421D01*
X044168Y024858D01*
X045818Y024667D02*
Y024417D01*
X045985D01*
X046068Y024625D02*
X04611Y024667D01*
X046193D01*
X046235Y024625D01*
Y024583D01*
X046193Y024542D01*
X046151D01*
X046193D01*
X046235Y0245D01*
Y024458D01*
X046193Y024417D01*
X04611D01*
X046068Y024458D01*
X045268Y024667D02*
Y024417D01*
X045435D01*
X045685D02*
X045518D01*
X045685Y024583D01*
Y024625D01*
X045643Y024667D01*
X04556D01*
X045518Y024625D01*
X04531Y023117D02*
Y022867D01*
X045476D01*
X04556D02*
X045643D01*
X045601D01*
Y023117D01*
X04556Y023075D01*
X045631Y025525D02*
X045589Y025567D01*
X045506D01*
X045464Y025525D01*
Y025358D01*
X045506Y025317D01*
X045589D01*
X045631Y025358D01*
X045714Y025317D02*
X045797D01*
X045756D01*
Y025567D01*
X045714Y025525D01*
X046089Y025317D02*
X045922D01*
X046089Y025483D01*
Y025525D01*
X046047Y025567D01*
X045964D01*
X045922Y025525D01*
X043022Y021825D02*
X042981Y021867D01*
X042897D01*
X042856Y021825D01*
Y021658D01*
X042897Y021617D01*
X042981D01*
X043022Y021658D01*
X043106Y021617D02*
X043189D01*
X043147D01*
Y021867D01*
X043106Y021825D01*
X043314Y021617D02*
X043397D01*
X043356D01*
Y021867D01*
X043314Y021825D01*
X047585Y024725D02*
X047543Y024767D01*
X04746D01*
X047418Y024725D01*
Y024558D01*
X04746Y024517D01*
X047543D01*
X047585Y024558D01*
X047835Y024767D02*
X047668D01*
Y024642D01*
X047751Y024683D01*
X047793D01*
X047835Y024642D01*
Y024558D01*
X047793Y024517D01*
X04771D01*
X047668Y024558D01*
X046885Y024625D02*
X046843Y024667D01*
X04676D01*
X046718Y024625D01*
Y024458D01*
X04676Y024417D01*
X046843D01*
X046885Y024458D01*
X047093Y024417D02*
Y024667D01*
X046968Y024542D01*
X047135D01*
X047285Y023175D02*
X047243Y023217D01*
X04716D01*
X047118Y023175D01*
Y023008D01*
X04716Y022967D01*
X047243D01*
X047285Y023008D01*
X047368Y023175D02*
X04741Y023217D01*
X047493D01*
X047535Y023175D01*
Y023133D01*
X047493Y023092D01*
X047451D01*
X047493D01*
X047535Y02305D01*
Y023008D01*
X047493Y022967D01*
X04741D01*
X047368Y023008D01*
X047285Y022575D02*
X047243Y022617D01*
X04716D01*
X047118Y022575D01*
Y022408D01*
X04716Y022367D01*
X047243D01*
X047285Y022408D01*
X047535Y022367D02*
X047368D01*
X047535Y022533D01*
Y022575D01*
X047493Y022617D01*
X04741D01*
X047368Y022575D01*
X043226Y025625D02*
X043185Y025667D01*
X043101D01*
X04306Y025625D01*
Y025458D01*
X043101Y025417D01*
X043185D01*
X043226Y025458D01*
X04331Y025417D02*
X043393D01*
X043351D01*
Y025667D01*
X04331Y025625D01*
X036468Y021917D02*
Y021708D01*
X03651Y021667D01*
X036593D01*
X036635Y021708D01*
Y021917D01*
X036885Y021667D02*
X036718D01*
X036885Y021833D01*
Y021875D01*
X036843Y021917D01*
X03676D01*
X036718Y021875D01*
X042368Y024167D02*
Y024417D01*
X042493D01*
X042535Y024375D01*
Y024292D01*
X042493Y02425D01*
X042368D01*
X042451D02*
X042535Y024167D01*
X042743D02*
Y024417D01*
X042618Y024292D01*
X042785D01*
X040356Y024417D02*
X040439D01*
X040397D01*
Y024167D01*
X040356D01*
X040439D01*
X040731Y024375D02*
X040689Y024417D01*
X040606D01*
X040564Y024375D01*
Y024208D01*
X040606Y024167D01*
X040689D01*
X040731Y024208D01*
X040814Y024167D02*
X040897D01*
X040856D01*
Y024417D01*
X040814Y024375D01*
X04326Y019917D02*
Y020167D01*
X043385D01*
X043426Y020125D01*
Y020042D01*
X043385Y02D01*
X04326D01*
X043343D02*
X043426Y019917D01*
X04351D02*
X043593D01*
X043551D01*
Y020167D01*
X04351Y020125D01*
X037468Y020367D02*
Y020617D01*
X037593D01*
X037635Y020575D01*
Y020492D01*
X037593Y02045D01*
X037468D01*
X037551D02*
X037635Y020367D01*
X037885D02*
X037718D01*
X037885Y020533D01*
Y020575D01*
X037843Y020617D01*
X03776D01*
X037718Y020575D01*
X036985Y025575D02*
X036943Y025617D01*
X03686D01*
X036818Y025575D01*
Y025408D01*
X03686Y025367D01*
X036943D01*
X036985Y025408D01*
X037068D02*
X03711Y025367D01*
X037193D01*
X037235Y025408D01*
Y025575D01*
X037193Y025617D01*
X03711D01*
X037068Y025575D01*
Y025533D01*
X03711Y025492D01*
X037235D01*
X035281Y025575D02*
X035239Y025617D01*
X035156D01*
X035114Y025575D01*
Y025408D01*
X035156Y025367D01*
X035239D01*
X035281Y025408D01*
X035364Y025367D02*
X035447D01*
X035406D01*
Y025617D01*
X035364Y025575D01*
X035697Y025367D02*
Y025617D01*
X035572Y025492D01*
X035739D01*
X023731Y031387D02*
X023648D01*
X02369D01*
Y031179D01*
X023648Y031137D01*
X023606D01*
X023565Y031179D01*
X023815Y031346D02*
X023856Y031387D01*
X02394D01*
X023981Y031346D01*
Y031304D01*
X02394Y031262D01*
X023898D01*
X02394D01*
X023981Y031221D01*
Y031179D01*
X02394Y031137D01*
X023856D01*
X023815Y031179D01*
X032373Y030387D02*
X03229D01*
X032331D01*
Y030179D01*
X03229Y030137D01*
X032248D01*
X032206Y030179D01*
X032456Y030137D02*
X03254D01*
X032498D01*
Y030387D01*
X032456Y030346D01*
X025165Y030387D02*
Y030637D01*
X02529D01*
X025331Y030596D01*
Y030512D01*
X02529Y030471D01*
X025165D01*
X025248D02*
X025331Y030387D01*
X025581Y030637D02*
X025415D01*
Y030512D01*
X025498Y030554D01*
X02554D01*
X025581Y030512D01*
Y030429D01*
X02554Y030387D01*
X025456D01*
X025415Y030429D01*
X020981Y026346D02*
X02094Y026387D01*
X020856D01*
X020815Y026346D01*
Y026179D01*
X020856Y026137D01*
X02094D01*
X020981Y026179D01*
X021065Y026346D02*
X021106Y026387D01*
X02119D01*
X021231Y026346D01*
Y026304D01*
X02119Y026262D01*
X021231Y026221D01*
Y026179D01*
X02119Y026137D01*
X021106D01*
X021065Y026179D01*
Y026221D01*
X021106Y026262D01*
X021065Y026304D01*
Y026346D01*
X021106Y026262D02*
X02119D01*
X024581Y030596D02*
X02454Y030637D01*
X024456D01*
X024415Y030596D01*
Y030429D01*
X024456Y030387D01*
X02454D01*
X024581Y030429D01*
X024665Y030637D02*
X024831D01*
Y030596D01*
X024665Y030429D01*
Y030387D01*
X020681Y027396D02*
X02064Y027437D01*
X020556D01*
X020515Y027396D01*
Y027229D01*
X020556Y027187D01*
X02064D01*
X020681Y027229D01*
X020931Y027437D02*
X020848Y027396D01*
X020765Y027312D01*
Y027229D01*
X020806Y027187D01*
X02089D01*
X020931Y027229D01*
Y027271D01*
X02089Y027312D01*
X020765D01*
X027665Y028537D02*
Y028496D01*
X027748Y028412D01*
X027831Y028496D01*
Y028537D01*
X027748Y028412D02*
Y028287D01*
X028081D02*
X027915D01*
X028081Y028454D01*
Y028496D01*
X02804Y028537D01*
X027956D01*
X027915Y028496D01*
X027706Y028887D02*
Y028679D01*
X027748Y028637D01*
X027831D01*
X027873Y028679D01*
Y028887D01*
X027956Y028637D02*
X02804D01*
X027998D01*
Y028887D01*
X027956Y028846D01*
X027265Y031037D02*
Y031287D01*
X02739D01*
X027431Y031246D01*
Y031162D01*
X02739Y031121D01*
X027265D01*
X027348D02*
X027431Y031037D01*
X027515Y031246D02*
X027556Y031287D01*
X02764D01*
X027681Y031246D01*
Y031204D01*
X02764Y031162D01*
X027598D01*
X02764D01*
X027681Y031121D01*
Y031079D01*
X02764Y031037D01*
X027556D01*
X027515Y031079D01*
X029165Y030887D02*
Y030637D01*
X029331D01*
X029415Y030846D02*
X029456Y030887D01*
X02954D01*
X029581Y030846D01*
Y030804D01*
X02954Y030762D01*
X029498D01*
X02954D01*
X029581Y030721D01*
Y030679D01*
X02954Y030637D01*
X029456D01*
X029415Y030679D01*
X028615Y030887D02*
Y030637D01*
X028781D01*
X029031D02*
X028865D01*
X029031Y030804D01*
Y030846D01*
X02899Y030887D01*
X028906D01*
X028865Y030846D01*
X028656Y029337D02*
Y029087D01*
X028823D01*
X028906D02*
X02899D01*
X028948D01*
Y029337D01*
X028906Y029296D01*
X028977Y031746D02*
X028935Y031787D01*
X028852D01*
X028811Y031746D01*
Y031579D01*
X028852Y031537D01*
X028935D01*
X028977Y031579D01*
X02906Y031537D02*
X029144D01*
X029102D01*
Y031787D01*
X02906Y031746D01*
X029435Y031537D02*
X029269D01*
X029435Y031704D01*
Y031746D01*
X029394Y031787D01*
X02931D01*
X029269Y031746D01*
X026369Y028046D02*
X026327Y028087D01*
X026244D01*
X026202Y028046D01*
Y027879D01*
X026244Y027837D01*
X026327D01*
X026369Y027879D01*
X026452Y027837D02*
X026535D01*
X026494D01*
Y028087D01*
X026452Y028046D01*
X02666Y027837D02*
X026744D01*
X026702D01*
Y028087D01*
X02666Y028046D01*
X030931Y030946D02*
X03089Y030987D01*
X030806D01*
X030765Y030946D01*
Y030779D01*
X030806Y030737D01*
X03089D01*
X030931Y030779D01*
X031181Y030987D02*
X031015D01*
Y030862D01*
X031098Y030904D01*
X03114D01*
X031181Y030862D01*
Y030779D01*
X03114Y030737D01*
X031056D01*
X031015Y030779D01*
X030231Y030846D02*
X03019Y030887D01*
X030106D01*
X030065Y030846D01*
Y030679D01*
X030106Y030637D01*
X03019D01*
X030231Y030679D01*
X03044Y030637D02*
Y030887D01*
X030315Y030762D01*
X030481D01*
X030631Y029396D02*
X03059Y029437D01*
X030506D01*
X030465Y029396D01*
Y029229D01*
X030506Y029187D01*
X03059D01*
X030631Y029229D01*
X030715Y029396D02*
X030756Y029437D01*
X03084D01*
X030881Y029396D01*
Y029354D01*
X03084Y029312D01*
X030798D01*
X03084D01*
X030881Y029271D01*
Y029229D01*
X03084Y029187D01*
X030756D01*
X030715Y029229D01*
X030631Y028796D02*
X03059Y028837D01*
X030506D01*
X030465Y028796D01*
Y028629D01*
X030506Y028587D01*
X03059D01*
X030631Y028629D01*
X030881Y028587D02*
X030715D01*
X030881Y028754D01*
Y028796D01*
X03084Y028837D01*
X030756D01*
X030715Y028796D01*
X026573Y031846D02*
X026531Y031887D01*
X026448D01*
X026406Y031846D01*
Y031679D01*
X026448Y031637D01*
X026531D01*
X026573Y031679D01*
X026656Y031637D02*
X02674D01*
X026698D01*
Y031887D01*
X026656Y031846D01*
X019815Y028137D02*
Y027929D01*
X019856Y027887D01*
X01994D01*
X019981Y027929D01*
Y028137D01*
X020231Y027887D02*
X020065D01*
X020231Y028054D01*
Y028096D01*
X02019Y028137D01*
X020106D01*
X020065Y028096D01*
X025715Y030387D02*
Y030637D01*
X02584D01*
X025881Y030596D01*
Y030512D01*
X02584Y030471D01*
X025715D01*
X025798D02*
X025881Y030387D01*
X02609D02*
Y030637D01*
X025965Y030512D01*
X026131D01*
X023702Y030637D02*
X023785D01*
X023744D01*
Y030387D01*
X023702D01*
X023785D01*
X024077Y030596D02*
X024035Y030637D01*
X023952D01*
X02391Y030596D01*
Y030429D01*
X023952Y030387D01*
X024035D01*
X024077Y030429D01*
X02416Y030387D02*
X024244D01*
X024202D01*
Y030637D01*
X02416Y030596D01*
X026606Y026137D02*
Y026387D01*
X026731D01*
X026773Y026346D01*
Y026262D01*
X026731Y026221D01*
X026606D01*
X02669D02*
X026773Y026137D01*
X026856D02*
X02694D01*
X026898D01*
Y026387D01*
X026856Y026346D01*
X020815Y026587D02*
Y026837D01*
X02094D01*
X020981Y026796D01*
Y026712D01*
X02094Y026671D01*
X020815D01*
X020898D02*
X020981Y026587D01*
X021231D02*
X021065D01*
X021231Y026754D01*
Y026796D01*
X02119Y026837D01*
X021106D01*
X021065Y026796D01*
X020331Y031796D02*
X02029Y031837D01*
X020206D01*
X020165Y031796D01*
Y031629D01*
X020206Y031587D01*
X02029D01*
X020331Y031629D01*
X020415D02*
X020456Y031587D01*
X02054D01*
X020581Y031629D01*
Y031796D01*
X02054Y031837D01*
X020456D01*
X020415Y031796D01*
Y031754D01*
X020456Y031712D01*
X020581D01*
X018627Y031796D02*
X018585Y031837D01*
X018502D01*
X018461Y031796D01*
Y031629D01*
X018502Y031587D01*
X018585D01*
X018627Y031629D01*
X01871Y031587D02*
X018794D01*
X018752D01*
Y031837D01*
X01871Y031796D01*
X019044Y031587D02*
Y031837D01*
X018919Y031712D01*
X019085D01*
X040385Y031387D02*
X040301D01*
X040343D01*
Y031179D01*
X040301Y031137D01*
X04026D01*
X040218Y031179D01*
X040468Y031346D02*
X04051Y031387D01*
X040593D01*
X040635Y031346D01*
Y031304D01*
X040593Y031262D01*
X040551D01*
X040593D01*
X040635Y031221D01*
Y031179D01*
X040593Y031137D01*
X04051D01*
X040468Y031179D01*
X049026Y030387D02*
X048943D01*
X048985D01*
Y030179D01*
X048943Y030137D01*
X048901D01*
X04886Y030179D01*
X04911Y030137D02*
X049193D01*
X049151D01*
Y030387D01*
X04911Y030346D01*
X041818Y030387D02*
Y030637D01*
X041943D01*
X041985Y030596D01*
Y030512D01*
X041943Y030471D01*
X041818D01*
X041901D02*
X041985Y030387D01*
X042235Y030637D02*
X042068D01*
Y030512D01*
X042151Y030554D01*
X042193D01*
X042235Y030512D01*
Y030429D01*
X042193Y030387D01*
X04211D01*
X042068Y030429D01*
X037635Y026346D02*
X037593Y026387D01*
X03751D01*
X037468Y026346D01*
Y026179D01*
X03751Y026137D01*
X037593D01*
X037635Y026179D01*
X037718Y026346D02*
X03776Y026387D01*
X037843D01*
X037885Y026346D01*
Y026304D01*
X037843Y026262D01*
X037885Y026221D01*
Y026179D01*
X037843Y026137D01*
X03776D01*
X037718Y026179D01*
Y026221D01*
X03776Y026262D01*
X037718Y026304D01*
Y026346D01*
X03776Y026262D02*
X037843D01*
X041235Y030596D02*
X041193Y030637D01*
X04111D01*
X041068Y030596D01*
Y030429D01*
X04111Y030387D01*
X041193D01*
X041235Y030429D01*
X041318Y030637D02*
X041485D01*
Y030596D01*
X041318Y030429D01*
Y030387D01*
X037335Y027396D02*
X037293Y027437D01*
X03721D01*
X037168Y027396D01*
Y027229D01*
X03721Y027187D01*
X037293D01*
X037335Y027229D01*
X037585Y027437D02*
X037501Y027396D01*
X037418Y027312D01*
Y027229D01*
X03746Y027187D01*
X037543D01*
X037585Y027229D01*
Y027271D01*
X037543Y027312D01*
X037418D01*
X044318Y028537D02*
Y028496D01*
X044401Y028412D01*
X044485Y028496D01*
Y028537D01*
X044401Y028412D02*
Y028287D01*
X044735D02*
X044568D01*
X044735Y028454D01*
Y028496D01*
X044693Y028537D01*
X04461D01*
X044568Y028496D01*
X04436Y028887D02*
Y028679D01*
X044401Y028637D01*
X044485D01*
X044526Y028679D01*
Y028887D01*
X04461Y028637D02*
X044693D01*
X044651D01*
Y028887D01*
X04461Y028846D01*
X043918Y031037D02*
Y031287D01*
X044043D01*
X044085Y031246D01*
Y031162D01*
X044043Y031121D01*
X043918D01*
X044001D02*
X044085Y031037D01*
X044168Y031246D02*
X04421Y031287D01*
X044293D01*
X044335Y031246D01*
Y031204D01*
X044293Y031162D01*
X044251D01*
X044293D01*
X044335Y031121D01*
Y031079D01*
X044293Y031037D01*
X04421D01*
X044168Y031079D01*
X045818Y030887D02*
Y030637D01*
X045985D01*
X046068Y030846D02*
X04611Y030887D01*
X046193D01*
X046235Y030846D01*
Y030804D01*
X046193Y030762D01*
X046151D01*
X046193D01*
X046235Y030721D01*
Y030679D01*
X046193Y030637D01*
X04611D01*
X046068Y030679D01*
X045268Y030887D02*
Y030637D01*
X045435D01*
X045685D02*
X045518D01*
X045685Y030804D01*
Y030846D01*
X045643Y030887D01*
X04556D01*
X045518Y030846D01*
X04531Y029337D02*
Y029087D01*
X045476D01*
X04556D02*
X045643D01*
X045601D01*
Y029337D01*
X04556Y029296D01*
X045631Y031746D02*
X045589Y031787D01*
X045506D01*
X045464Y031746D01*
Y031579D01*
X045506Y031537D01*
X045589D01*
X045631Y031579D01*
X045714Y031537D02*
X045797D01*
X045756D01*
Y031787D01*
X045714Y031746D01*
X046089Y031537D02*
X045922D01*
X046089Y031704D01*
Y031746D01*
X046047Y031787D01*
X045964D01*
X045922Y031746D01*
X043022Y028046D02*
X042981Y028087D01*
X042897D01*
X042856Y028046D01*
Y027879D01*
X042897Y027837D01*
X042981D01*
X043022Y027879D01*
X043106Y027837D02*
X043189D01*
X043147D01*
Y028087D01*
X043106Y028046D01*
X043314Y027837D02*
X043397D01*
X043356D01*
Y028087D01*
X043314Y028046D01*
X047585Y030946D02*
X047543Y030987D01*
X04746D01*
X047418Y030946D01*
Y030779D01*
X04746Y030737D01*
X047543D01*
X047585Y030779D01*
X047835Y030987D02*
X047668D01*
Y030862D01*
X047751Y030904D01*
X047793D01*
X047835Y030862D01*
Y030779D01*
X047793Y030737D01*
X04771D01*
X047668Y030779D01*
X046885Y030846D02*
X046843Y030887D01*
X04676D01*
X046718Y030846D01*
Y030679D01*
X04676Y030637D01*
X046843D01*
X046885Y030679D01*
X047093Y030637D02*
Y030887D01*
X046968Y030762D01*
X047135D01*
X047285Y029396D02*
X047243Y029437D01*
X04716D01*
X047118Y029396D01*
Y029229D01*
X04716Y029187D01*
X047243D01*
X047285Y029229D01*
X047368Y029396D02*
X04741Y029437D01*
X047493D01*
X047535Y029396D01*
Y029354D01*
X047493Y029312D01*
X047451D01*
X047493D01*
X047535Y029271D01*
Y029229D01*
X047493Y029187D01*
X04741D01*
X047368Y029229D01*
X047285Y028796D02*
X047243Y028837D01*
X04716D01*
X047118Y028796D01*
Y028629D01*
X04716Y028587D01*
X047243D01*
X047285Y028629D01*
X047535Y028587D02*
X047368D01*
X047535Y028754D01*
Y028796D01*
X047493Y028837D01*
X04741D01*
X047368Y028796D01*
X043226Y031846D02*
X043185Y031887D01*
X043101D01*
X04306Y031846D01*
Y031679D01*
X043101Y031637D01*
X043185D01*
X043226Y031679D01*
X04331Y031637D02*
X043393D01*
X043351D01*
Y031887D01*
X04331Y031846D01*
X036468Y028137D02*
Y027929D01*
X03651Y027887D01*
X036593D01*
X036635Y027929D01*
Y028137D01*
X036885Y027887D02*
X036718D01*
X036885Y028054D01*
Y028096D01*
X036843Y028137D01*
X03676D01*
X036718Y028096D01*
X042368Y030387D02*
Y030637D01*
X042493D01*
X042535Y030596D01*
Y030512D01*
X042493Y030471D01*
X042368D01*
X042451D02*
X042535Y030387D01*
X042743D02*
Y030637D01*
X042618Y030512D01*
X042785D01*
X040356Y030637D02*
X040439D01*
X040397D01*
Y030387D01*
X040356D01*
X040439D01*
X040731Y030596D02*
X040689Y030637D01*
X040606D01*
X040564Y030596D01*
Y030429D01*
X040606Y030387D01*
X040689D01*
X040731Y030429D01*
X040814Y030387D02*
X040897D01*
X040856D01*
Y030637D01*
X040814Y030596D01*
X04326Y026137D02*
Y026387D01*
X043385D01*
X043426Y026346D01*
Y026262D01*
X043385Y026221D01*
X04326D01*
X043343D02*
X043426Y026137D01*
X04351D02*
X043593D01*
X043551D01*
Y026387D01*
X04351Y026346D01*
X037468Y026587D02*
Y026837D01*
X037593D01*
X037635Y026796D01*
Y026712D01*
X037593Y026671D01*
X037468D01*
X037551D02*
X037635Y026587D01*
X037885D02*
X037718D01*
X037885Y026754D01*
Y026796D01*
X037843Y026837D01*
X03776D01*
X037718Y026796D01*
X036985Y031796D02*
X036943Y031837D01*
X03686D01*
X036818Y031796D01*
Y031629D01*
X03686Y031587D01*
X036943D01*
X036985Y031629D01*
X037068D02*
X03711Y031587D01*
X037193D01*
X037235Y031629D01*
Y031796D01*
X037193Y031837D01*
X03711D01*
X037068Y031796D01*
Y031754D01*
X03711Y031712D01*
X037235D01*
X035281Y031796D02*
X035239Y031837D01*
X035156D01*
X035114Y031796D01*
Y031629D01*
X035156Y031587D01*
X035239D01*
X035281Y031629D01*
X035364Y031587D02*
X035447D01*
X035406D01*
Y031837D01*
X035364Y031796D01*
X035697Y031587D02*
Y031837D01*
X035572Y031712D01*
X035739D01*
X023731Y037608D02*
X023648D01*
X02369D01*
Y037399D01*
X023648Y037358D01*
X023606D01*
X023565Y037399D01*
X023815Y037566D02*
X023856Y037608D01*
X02394D01*
X023981Y037566D01*
Y037524D01*
X02394Y037483D01*
X023898D01*
X02394D01*
X023981Y037441D01*
Y037399D01*
X02394Y037358D01*
X023856D01*
X023815Y037399D01*
X032373Y036608D02*
X03229D01*
X032331D01*
Y036399D01*
X03229Y036358D01*
X032248D01*
X032206Y036399D01*
X032456Y036358D02*
X03254D01*
X032498D01*
Y036608D01*
X032456Y036566D01*
X025165Y036608D02*
Y036858D01*
X02529D01*
X025331Y036816D01*
Y036733D01*
X02529Y036691D01*
X025165D01*
X025248D02*
X025331Y036608D01*
X025581Y036858D02*
X025415D01*
Y036733D01*
X025498Y036774D01*
X02554D01*
X025581Y036733D01*
Y036649D01*
X02554Y036608D01*
X025456D01*
X025415Y036649D01*
X020981Y032566D02*
X02094Y032608D01*
X020856D01*
X020815Y032566D01*
Y032399D01*
X020856Y032358D01*
X02094D01*
X020981Y032399D01*
X021065Y032566D02*
X021106Y032608D01*
X02119D01*
X021231Y032566D01*
Y032524D01*
X02119Y032483D01*
X021231Y032441D01*
Y032399D01*
X02119Y032358D01*
X021106D01*
X021065Y032399D01*
Y032441D01*
X021106Y032483D01*
X021065Y032524D01*
Y032566D01*
X021106Y032483D02*
X02119D01*
X024581Y036816D02*
X02454Y036858D01*
X024456D01*
X024415Y036816D01*
Y036649D01*
X024456Y036608D01*
X02454D01*
X024581Y036649D01*
X024665Y036858D02*
X024831D01*
Y036816D01*
X024665Y036649D01*
Y036608D01*
X020681Y033616D02*
X02064Y033658D01*
X020556D01*
X020515Y033616D01*
Y033449D01*
X020556Y033408D01*
X02064D01*
X020681Y033449D01*
X020931Y033658D02*
X020848Y033616D01*
X020765Y033533D01*
Y033449D01*
X020806Y033408D01*
X02089D01*
X020931Y033449D01*
Y033491D01*
X02089Y033533D01*
X020765D01*
X027665Y034758D02*
Y034716D01*
X027748Y034633D01*
X027831Y034716D01*
Y034758D01*
X027748Y034633D02*
Y034508D01*
X028081D02*
X027915D01*
X028081Y034674D01*
Y034716D01*
X02804Y034758D01*
X027956D01*
X027915Y034716D01*
X027706Y035108D02*
Y034899D01*
X027748Y034858D01*
X027831D01*
X027873Y034899D01*
Y035108D01*
X027956Y034858D02*
X02804D01*
X027998D01*
Y035108D01*
X027956Y035066D01*
X027265Y037258D02*
Y037508D01*
X02739D01*
X027431Y037466D01*
Y037383D01*
X02739Y037341D01*
X027265D01*
X027348D02*
X027431Y037258D01*
X027515Y037466D02*
X027556Y037508D01*
X02764D01*
X027681Y037466D01*
Y037424D01*
X02764Y037383D01*
X027598D01*
X02764D01*
X027681Y037341D01*
Y037299D01*
X02764Y037258D01*
X027556D01*
X027515Y037299D01*
X029165Y037108D02*
Y036858D01*
X029331D01*
X029415Y037066D02*
X029456Y037108D01*
X02954D01*
X029581Y037066D01*
Y037024D01*
X02954Y036983D01*
X029498D01*
X02954D01*
X029581Y036941D01*
Y036899D01*
X02954Y036858D01*
X029456D01*
X029415Y036899D01*
X028615Y037108D02*
Y036858D01*
X028781D01*
X029031D02*
X028865D01*
X029031Y037024D01*
Y037066D01*
X02899Y037108D01*
X028906D01*
X028865Y037066D01*
X028656Y035558D02*
Y035308D01*
X028823D01*
X028906D02*
X02899D01*
X028948D01*
Y035558D01*
X028906Y035516D01*
X028977Y037966D02*
X028935Y038008D01*
X028852D01*
X028811Y037966D01*
Y037799D01*
X028852Y037758D01*
X028935D01*
X028977Y037799D01*
X02906Y037758D02*
X029144D01*
X029102D01*
Y038008D01*
X02906Y037966D01*
X029435Y037758D02*
X029269D01*
X029435Y037924D01*
Y037966D01*
X029394Y038008D01*
X02931D01*
X029269Y037966D01*
X026369Y034266D02*
X026327Y034308D01*
X026244D01*
X026202Y034266D01*
Y034099D01*
X026244Y034058D01*
X026327D01*
X026369Y034099D01*
X026452Y034058D02*
X026535D01*
X026494D01*
Y034308D01*
X026452Y034266D01*
X02666Y034058D02*
X026744D01*
X026702D01*
Y034308D01*
X02666Y034266D01*
X030931Y037166D02*
X03089Y037208D01*
X030806D01*
X030765Y037166D01*
Y036999D01*
X030806Y036958D01*
X03089D01*
X030931Y036999D01*
X031181Y037208D02*
X031015D01*
Y037083D01*
X031098Y037124D01*
X03114D01*
X031181Y037083D01*
Y036999D01*
X03114Y036958D01*
X031056D01*
X031015Y036999D01*
X030231Y037066D02*
X03019Y037108D01*
X030106D01*
X030065Y037066D01*
Y036899D01*
X030106Y036858D01*
X03019D01*
X030231Y036899D01*
X03044Y036858D02*
Y037108D01*
X030315Y036983D01*
X030481D01*
X030631Y035616D02*
X03059Y035658D01*
X030506D01*
X030465Y035616D01*
Y035449D01*
X030506Y035408D01*
X03059D01*
X030631Y035449D01*
X030715Y035616D02*
X030756Y035658D01*
X03084D01*
X030881Y035616D01*
Y035574D01*
X03084Y035533D01*
X030798D01*
X03084D01*
X030881Y035491D01*
Y035449D01*
X03084Y035408D01*
X030756D01*
X030715Y035449D01*
X030631Y035016D02*
X03059Y035058D01*
X030506D01*
X030465Y035016D01*
Y034849D01*
X030506Y034808D01*
X03059D01*
X030631Y034849D01*
X030881Y034808D02*
X030715D01*
X030881Y034974D01*
Y035016D01*
X03084Y035058D01*
X030756D01*
X030715Y035016D01*
X026573Y038066D02*
X026531Y038108D01*
X026448D01*
X026406Y038066D01*
Y037899D01*
X026448Y037858D01*
X026531D01*
X026573Y037899D01*
X026656Y037858D02*
X02674D01*
X026698D01*
Y038108D01*
X026656Y038066D01*
X019815Y034358D02*
Y034149D01*
X019856Y034108D01*
X01994D01*
X019981Y034149D01*
Y034358D01*
X020231Y034108D02*
X020065D01*
X020231Y034274D01*
Y034316D01*
X02019Y034358D01*
X020106D01*
X020065Y034316D01*
X025715Y036608D02*
Y036858D01*
X02584D01*
X025881Y036816D01*
Y036733D01*
X02584Y036691D01*
X025715D01*
X025798D02*
X025881Y036608D01*
X02609D02*
Y036858D01*
X025965Y036733D01*
X026131D01*
X023702Y036858D02*
X023785D01*
X023744D01*
Y036608D01*
X023702D01*
X023785D01*
X024077Y036816D02*
X024035Y036858D01*
X023952D01*
X02391Y036816D01*
Y036649D01*
X023952Y036608D01*
X024035D01*
X024077Y036649D01*
X02416Y036608D02*
X024244D01*
X024202D01*
Y036858D01*
X02416Y036816D01*
X026606Y032358D02*
Y032608D01*
X026731D01*
X026773Y032566D01*
Y032483D01*
X026731Y032441D01*
X026606D01*
X02669D02*
X026773Y032358D01*
X026856D02*
X02694D01*
X026898D01*
Y032608D01*
X026856Y032566D01*
X020815Y032808D02*
Y033058D01*
X02094D01*
X020981Y033016D01*
Y032933D01*
X02094Y032891D01*
X020815D01*
X020898D02*
X020981Y032808D01*
X021231D02*
X021065D01*
X021231Y032974D01*
Y033016D01*
X02119Y033058D01*
X021106D01*
X021065Y033016D01*
X020331Y038016D02*
X02029Y038058D01*
X020206D01*
X020165Y038016D01*
Y037849D01*
X020206Y037808D01*
X02029D01*
X020331Y037849D01*
X020415D02*
X020456Y037808D01*
X02054D01*
X020581Y037849D01*
Y038016D01*
X02054Y038058D01*
X020456D01*
X020415Y038016D01*
Y037974D01*
X020456Y037933D01*
X020581D01*
X018627Y038016D02*
X018585Y038058D01*
X018502D01*
X018461Y038016D01*
Y037849D01*
X018502Y037808D01*
X018585D01*
X018627Y037849D01*
X01871Y037808D02*
X018794D01*
X018752D01*
Y038058D01*
X01871Y038016D01*
X019044Y037808D02*
Y038058D01*
X018919Y037933D01*
X019085D01*
X040385Y037608D02*
X040301D01*
X040343D01*
Y037399D01*
X040301Y037358D01*
X04026D01*
X040218Y037399D01*
X040468Y037566D02*
X04051Y037608D01*
X040593D01*
X040635Y037566D01*
Y037524D01*
X040593Y037483D01*
X040551D01*
X040593D01*
X040635Y037441D01*
Y037399D01*
X040593Y037358D01*
X04051D01*
X040468Y037399D01*
X049026Y036608D02*
X048943D01*
X048985D01*
Y036399D01*
X048943Y036358D01*
X048901D01*
X04886Y036399D01*
X04911Y036358D02*
X049193D01*
X049151D01*
Y036608D01*
X04911Y036566D01*
X041818Y036608D02*
Y036858D01*
X041943D01*
X041985Y036816D01*
Y036733D01*
X041943Y036691D01*
X041818D01*
X041901D02*
X041985Y036608D01*
X042235Y036858D02*
X042068D01*
Y036733D01*
X042151Y036774D01*
X042193D01*
X042235Y036733D01*
Y036649D01*
X042193Y036608D01*
X04211D01*
X042068Y036649D01*
X037635Y032566D02*
X037593Y032608D01*
X03751D01*
X037468Y032566D01*
Y032399D01*
X03751Y032358D01*
X037593D01*
X037635Y032399D01*
X037718Y032566D02*
X03776Y032608D01*
X037843D01*
X037885Y032566D01*
Y032524D01*
X037843Y032483D01*
X037885Y032441D01*
Y032399D01*
X037843Y032358D01*
X03776D01*
X037718Y032399D01*
Y032441D01*
X03776Y032483D01*
X037718Y032524D01*
Y032566D01*
X03776Y032483D02*
X037843D01*
X041235Y036816D02*
X041193Y036858D01*
X04111D01*
X041068Y036816D01*
Y036649D01*
X04111Y036608D01*
X041193D01*
X041235Y036649D01*
X041318Y036858D02*
X041485D01*
Y036816D01*
X041318Y036649D01*
Y036608D01*
X037335Y033616D02*
X037293Y033658D01*
X03721D01*
X037168Y033616D01*
Y033449D01*
X03721Y033408D01*
X037293D01*
X037335Y033449D01*
X037585Y033658D02*
X037501Y033616D01*
X037418Y033533D01*
Y033449D01*
X03746Y033408D01*
X037543D01*
X037585Y033449D01*
Y033491D01*
X037543Y033533D01*
X037418D01*
X044318Y034758D02*
Y034716D01*
X044401Y034633D01*
X044485Y034716D01*
Y034758D01*
X044401Y034633D02*
Y034508D01*
X044735D02*
X044568D01*
X044735Y034674D01*
Y034716D01*
X044693Y034758D01*
X04461D01*
X044568Y034716D01*
X04436Y035108D02*
Y034899D01*
X044401Y034858D01*
X044485D01*
X044526Y034899D01*
Y035108D01*
X04461Y034858D02*
X044693D01*
X044651D01*
Y035108D01*
X04461Y035066D01*
X043918Y037258D02*
Y037508D01*
X044043D01*
X044085Y037466D01*
Y037383D01*
X044043Y037341D01*
X043918D01*
X044001D02*
X044085Y037258D01*
X044168Y037466D02*
X04421Y037508D01*
X044293D01*
X044335Y037466D01*
Y037424D01*
X044293Y037383D01*
X044251D01*
X044293D01*
X044335Y037341D01*
Y037299D01*
X044293Y037258D01*
X04421D01*
X044168Y037299D01*
X045818Y037108D02*
Y036858D01*
X045985D01*
X046068Y037066D02*
X04611Y037108D01*
X046193D01*
X046235Y037066D01*
Y037024D01*
X046193Y036983D01*
X046151D01*
X046193D01*
X046235Y036941D01*
Y036899D01*
X046193Y036858D01*
X04611D01*
X046068Y036899D01*
X045268Y037108D02*
Y036858D01*
X045435D01*
X045685D02*
X045518D01*
X045685Y037024D01*
Y037066D01*
X045643Y037108D01*
X04556D01*
X045518Y037066D01*
X04531Y035558D02*
Y035308D01*
X045476D01*
X04556D02*
X045643D01*
X045601D01*
Y035558D01*
X04556Y035516D01*
X045631Y037966D02*
X045589Y038008D01*
X045506D01*
X045464Y037966D01*
Y037799D01*
X045506Y037758D01*
X045589D01*
X045631Y037799D01*
X045714Y037758D02*
X045797D01*
X045756D01*
Y038008D01*
X045714Y037966D01*
X046089Y037758D02*
X045922D01*
X046089Y037924D01*
Y037966D01*
X046047Y038008D01*
X045964D01*
X045922Y037966D01*
X043022Y034266D02*
X042981Y034308D01*
X042897D01*
X042856Y034266D01*
Y034099D01*
X042897Y034058D01*
X042981D01*
X043022Y034099D01*
X043106Y034058D02*
X043189D01*
X043147D01*
Y034308D01*
X043106Y034266D01*
X043314Y034058D02*
X043397D01*
X043356D01*
Y034308D01*
X043314Y034266D01*
X047585Y037166D02*
X047543Y037208D01*
X04746D01*
X047418Y037166D01*
Y036999D01*
X04746Y036958D01*
X047543D01*
X047585Y036999D01*
X047835Y037208D02*
X047668D01*
Y037083D01*
X047751Y037124D01*
X047793D01*
X047835Y037083D01*
Y036999D01*
X047793Y036958D01*
X04771D01*
X047668Y036999D01*
X046885Y037066D02*
X046843Y037108D01*
X04676D01*
X046718Y037066D01*
Y036899D01*
X04676Y036858D01*
X046843D01*
X046885Y036899D01*
X047093Y036858D02*
Y037108D01*
X046968Y036983D01*
X047135D01*
X047285Y035616D02*
X047243Y035658D01*
X04716D01*
X047118Y035616D01*
Y035449D01*
X04716Y035408D01*
X047243D01*
X047285Y035449D01*
X047368Y035616D02*
X04741Y035658D01*
X047493D01*
X047535Y035616D01*
Y035574D01*
X047493Y035533D01*
X047451D01*
X047493D01*
X047535Y035491D01*
Y035449D01*
X047493Y035408D01*
X04741D01*
X047368Y035449D01*
X047285Y035016D02*
X047243Y035058D01*
X04716D01*
X047118Y035016D01*
Y034849D01*
X04716Y034808D01*
X047243D01*
X047285Y034849D01*
X047535Y034808D02*
X047368D01*
X047535Y034974D01*
Y035016D01*
X047493Y035058D01*
X04741D01*
X047368Y035016D01*
X043226Y038066D02*
X043185Y038108D01*
X043101D01*
X04306Y038066D01*
Y037899D01*
X043101Y037858D01*
X043185D01*
X043226Y037899D01*
X04331Y037858D02*
X043393D01*
X043351D01*
Y038108D01*
X04331Y038066D01*
X036468Y034358D02*
Y034149D01*
X03651Y034108D01*
X036593D01*
X036635Y034149D01*
Y034358D01*
X036885Y034108D02*
X036718D01*
X036885Y034274D01*
Y034316D01*
X036843Y034358D01*
X03676D01*
X036718Y034316D01*
X042368Y036608D02*
Y036858D01*
X042493D01*
X042535Y036816D01*
Y036733D01*
X042493Y036691D01*
X042368D01*
X042451D02*
X042535Y036608D01*
X042743D02*
Y036858D01*
X042618Y036733D01*
X042785D01*
X040356Y036858D02*
X040439D01*
X040397D01*
Y036608D01*
X040356D01*
X040439D01*
X040731Y036816D02*
X040689Y036858D01*
X040606D01*
X040564Y036816D01*
Y036649D01*
X040606Y036608D01*
X040689D01*
X040731Y036649D01*
X040814Y036608D02*
X040897D01*
X040856D01*
Y036858D01*
X040814Y036816D01*
X04326Y032358D02*
Y032608D01*
X043385D01*
X043426Y032566D01*
Y032483D01*
X043385Y032441D01*
X04326D01*
X043343D02*
X043426Y032358D01*
X04351D02*
X043593D01*
X043551D01*
Y032608D01*
X04351Y032566D01*
X037468Y032808D02*
Y033058D01*
X037593D01*
X037635Y033016D01*
Y032933D01*
X037593Y032891D01*
X037468D01*
X037551D02*
X037635Y032808D01*
X037885D02*
X037718D01*
X037885Y032974D01*
Y033016D01*
X037843Y033058D01*
X03776D01*
X037718Y033016D01*
X036985Y038016D02*
X036943Y038058D01*
X03686D01*
X036818Y038016D01*
Y037849D01*
X03686Y037808D01*
X036943D01*
X036985Y037849D01*
X037068D02*
X03711Y037808D01*
X037193D01*
X037235Y037849D01*
Y038016D01*
X037193Y038058D01*
X03711D01*
X037068Y038016D01*
Y037974D01*
X03711Y037933D01*
X037235D01*
X035281Y038016D02*
X035239Y038058D01*
X035156D01*
X035114Y038016D01*
Y037849D01*
X035156Y037808D01*
X035239D01*
X035281Y037849D01*
X035364Y037808D02*
X035447D01*
X035406D01*
Y038058D01*
X035364Y038016D01*
X035697Y037808D02*
Y038058D01*
X035572Y037933D01*
X035739D01*
X023731Y043828D02*
X023648D01*
X02369D01*
Y04362D01*
X023648Y043578D01*
X023606D01*
X023565Y04362D01*
X023815Y043787D02*
X023856Y043828D01*
X02394D01*
X023981Y043787D01*
Y043745D01*
X02394Y043703D01*
X023898D01*
X02394D01*
X023981Y043662D01*
Y04362D01*
X02394Y043578D01*
X023856D01*
X023815Y04362D01*
X032373Y042828D02*
X03229D01*
X032331D01*
Y04262D01*
X03229Y042578D01*
X032248D01*
X032206Y04262D01*
X032456Y042578D02*
X03254D01*
X032498D01*
Y042828D01*
X032456Y042787D01*
X025165Y042828D02*
Y043078D01*
X02529D01*
X025331Y043037D01*
Y042953D01*
X02529Y042912D01*
X025165D01*
X025248D02*
X025331Y042828D01*
X025581Y043078D02*
X025415D01*
Y042953D01*
X025498Y042995D01*
X02554D01*
X025581Y042953D01*
Y04287D01*
X02554Y042828D01*
X025456D01*
X025415Y04287D01*
X020981Y038787D02*
X02094Y038828D01*
X020856D01*
X020815Y038787D01*
Y03862D01*
X020856Y038578D01*
X02094D01*
X020981Y03862D01*
X021065Y038787D02*
X021106Y038828D01*
X02119D01*
X021231Y038787D01*
Y038745D01*
X02119Y038703D01*
X021231Y038662D01*
Y03862D01*
X02119Y038578D01*
X021106D01*
X021065Y03862D01*
Y038662D01*
X021106Y038703D01*
X021065Y038745D01*
Y038787D01*
X021106Y038703D02*
X02119D01*
X024581Y043037D02*
X02454Y043078D01*
X024456D01*
X024415Y043037D01*
Y04287D01*
X024456Y042828D01*
X02454D01*
X024581Y04287D01*
X024665Y043078D02*
X024831D01*
Y043037D01*
X024665Y04287D01*
Y042828D01*
X020681Y039837D02*
X02064Y039878D01*
X020556D01*
X020515Y039837D01*
Y03967D01*
X020556Y039628D01*
X02064D01*
X020681Y03967D01*
X020931Y039878D02*
X020848Y039837D01*
X020765Y039753D01*
Y03967D01*
X020806Y039628D01*
X02089D01*
X020931Y03967D01*
Y039712D01*
X02089Y039753D01*
X020765D01*
X027665Y040978D02*
Y040937D01*
X027748Y040853D01*
X027831Y040937D01*
Y040978D01*
X027748Y040853D02*
Y040728D01*
X028081D02*
X027915D01*
X028081Y040895D01*
Y040937D01*
X02804Y040978D01*
X027956D01*
X027915Y040937D01*
X027706Y041328D02*
Y04112D01*
X027748Y041078D01*
X027831D01*
X027873Y04112D01*
Y041328D01*
X027956Y041078D02*
X02804D01*
X027998D01*
Y041328D01*
X027956Y041287D01*
X027265Y043478D02*
Y043728D01*
X02739D01*
X027431Y043687D01*
Y043603D01*
X02739Y043562D01*
X027265D01*
X027348D02*
X027431Y043478D01*
X027515Y043687D02*
X027556Y043728D01*
X02764D01*
X027681Y043687D01*
Y043645D01*
X02764Y043603D01*
X027598D01*
X02764D01*
X027681Y043562D01*
Y04352D01*
X02764Y043478D01*
X027556D01*
X027515Y04352D01*
X029165Y043328D02*
Y043078D01*
X029331D01*
X029415Y043287D02*
X029456Y043328D01*
X02954D01*
X029581Y043287D01*
Y043245D01*
X02954Y043203D01*
X029498D01*
X02954D01*
X029581Y043162D01*
Y04312D01*
X02954Y043078D01*
X029456D01*
X029415Y04312D01*
X028615Y043328D02*
Y043078D01*
X028781D01*
X029031D02*
X028865D01*
X029031Y043245D01*
Y043287D01*
X02899Y043328D01*
X028906D01*
X028865Y043287D01*
X028656Y041778D02*
Y041528D01*
X028823D01*
X028906D02*
X02899D01*
X028948D01*
Y041778D01*
X028906Y041737D01*
X028977Y044187D02*
X028935Y044228D01*
X028852D01*
X028811Y044187D01*
Y04402D01*
X028852Y043978D01*
X028935D01*
X028977Y04402D01*
X02906Y043978D02*
X029144D01*
X029102D01*
Y044228D01*
X02906Y044187D01*
X029435Y043978D02*
X029269D01*
X029435Y044145D01*
Y044187D01*
X029394Y044228D01*
X02931D01*
X029269Y044187D01*
X026369Y040487D02*
X026327Y040528D01*
X026244D01*
X026202Y040487D01*
Y04032D01*
X026244Y040278D01*
X026327D01*
X026369Y04032D01*
X026452Y040278D02*
X026535D01*
X026494D01*
Y040528D01*
X026452Y040487D01*
X02666Y040278D02*
X026744D01*
X026702D01*
Y040528D01*
X02666Y040487D01*
X030931Y043387D02*
X03089Y043428D01*
X030806D01*
X030765Y043387D01*
Y04322D01*
X030806Y043178D01*
X03089D01*
X030931Y04322D01*
X031181Y043428D02*
X031015D01*
Y043303D01*
X031098Y043345D01*
X03114D01*
X031181Y043303D01*
Y04322D01*
X03114Y043178D01*
X031056D01*
X031015Y04322D01*
X030231Y043287D02*
X03019Y043328D01*
X030106D01*
X030065Y043287D01*
Y04312D01*
X030106Y043078D01*
X03019D01*
X030231Y04312D01*
X03044Y043078D02*
Y043328D01*
X030315Y043203D01*
X030481D01*
X030631Y041837D02*
X03059Y041878D01*
X030506D01*
X030465Y041837D01*
Y04167D01*
X030506Y041628D01*
X03059D01*
X030631Y04167D01*
X030715Y041837D02*
X030756Y041878D01*
X03084D01*
X030881Y041837D01*
Y041795D01*
X03084Y041753D01*
X030798D01*
X03084D01*
X030881Y041712D01*
Y04167D01*
X03084Y041628D01*
X030756D01*
X030715Y04167D01*
X030631Y041237D02*
X03059Y041278D01*
X030506D01*
X030465Y041237D01*
Y04107D01*
X030506Y041028D01*
X03059D01*
X030631Y04107D01*
X030881Y041028D02*
X030715D01*
X030881Y041195D01*
Y041237D01*
X03084Y041278D01*
X030756D01*
X030715Y041237D01*
X026573Y044287D02*
X026531Y044328D01*
X026448D01*
X026406Y044287D01*
Y04412D01*
X026448Y044078D01*
X026531D01*
X026573Y04412D01*
X026656Y044078D02*
X02674D01*
X026698D01*
Y044328D01*
X026656Y044287D01*
X019815Y040578D02*
Y04037D01*
X019856Y040328D01*
X01994D01*
X019981Y04037D01*
Y040578D01*
X020231Y040328D02*
X020065D01*
X020231Y040495D01*
Y040537D01*
X02019Y040578D01*
X020106D01*
X020065Y040537D01*
X025715Y042828D02*
Y043078D01*
X02584D01*
X025881Y043037D01*
Y042953D01*
X02584Y042912D01*
X025715D01*
X025798D02*
X025881Y042828D01*
X02609D02*
Y043078D01*
X025965Y042953D01*
X026131D01*
X023702Y043078D02*
X023785D01*
X023744D01*
Y042828D01*
X023702D01*
X023785D01*
X024077Y043037D02*
X024035Y043078D01*
X023952D01*
X02391Y043037D01*
Y04287D01*
X023952Y042828D01*
X024035D01*
X024077Y04287D01*
X02416Y042828D02*
X024244D01*
X024202D01*
Y043078D01*
X02416Y043037D01*
X026606Y038578D02*
Y038828D01*
X026731D01*
X026773Y038787D01*
Y038703D01*
X026731Y038662D01*
X026606D01*
X02669D02*
X026773Y038578D01*
X026856D02*
X02694D01*
X026898D01*
Y038828D01*
X026856Y038787D01*
X020815Y039028D02*
Y039278D01*
X02094D01*
X020981Y039237D01*
Y039153D01*
X02094Y039112D01*
X020815D01*
X020898D02*
X020981Y039028D01*
X021231D02*
X021065D01*
X021231Y039195D01*
Y039237D01*
X02119Y039278D01*
X021106D01*
X021065Y039237D01*
X020331Y044237D02*
X02029Y044278D01*
X020206D01*
X020165Y044237D01*
Y04407D01*
X020206Y044028D01*
X02029D01*
X020331Y04407D01*
X020415D02*
X020456Y044028D01*
X02054D01*
X020581Y04407D01*
Y044237D01*
X02054Y044278D01*
X020456D01*
X020415Y044237D01*
Y044195D01*
X020456Y044153D01*
X020581D01*
X018627Y044237D02*
X018585Y044278D01*
X018502D01*
X018461Y044237D01*
Y04407D01*
X018502Y044028D01*
X018585D01*
X018627Y04407D01*
X01871Y044028D02*
X018794D01*
X018752D01*
Y044278D01*
X01871Y044237D01*
X019044Y044028D02*
Y044278D01*
X018919Y044153D01*
X019085D01*
X040385Y043828D02*
X040301D01*
X040343D01*
Y04362D01*
X040301Y043578D01*
X04026D01*
X040218Y04362D01*
X040468Y043787D02*
X04051Y043828D01*
X040593D01*
X040635Y043787D01*
Y043745D01*
X040593Y043703D01*
X040551D01*
X040593D01*
X040635Y043662D01*
Y04362D01*
X040593Y043578D01*
X04051D01*
X040468Y04362D01*
X049026Y042828D02*
X048943D01*
X048985D01*
Y04262D01*
X048943Y042578D01*
X048901D01*
X04886Y04262D01*
X04911Y042578D02*
X049193D01*
X049151D01*
Y042828D01*
X04911Y042787D01*
X041818Y042828D02*
Y043078D01*
X041943D01*
X041985Y043037D01*
Y042953D01*
X041943Y042912D01*
X041818D01*
X041901D02*
X041985Y042828D01*
X042235Y043078D02*
X042068D01*
Y042953D01*
X042151Y042995D01*
X042193D01*
X042235Y042953D01*
Y04287D01*
X042193Y042828D01*
X04211D01*
X042068Y04287D01*
X037635Y038787D02*
X037593Y038828D01*
X03751D01*
X037468Y038787D01*
Y03862D01*
X03751Y038578D01*
X037593D01*
X037635Y03862D01*
X037718Y038787D02*
X03776Y038828D01*
X037843D01*
X037885Y038787D01*
Y038745D01*
X037843Y038703D01*
X037885Y038662D01*
Y03862D01*
X037843Y038578D01*
X03776D01*
X037718Y03862D01*
Y038662D01*
X03776Y038703D01*
X037718Y038745D01*
Y038787D01*
X03776Y038703D02*
X037843D01*
X041235Y043037D02*
X041193Y043078D01*
X04111D01*
X041068Y043037D01*
Y04287D01*
X04111Y042828D01*
X041193D01*
X041235Y04287D01*
X041318Y043078D02*
X041485D01*
Y043037D01*
X041318Y04287D01*
Y042828D01*
X037335Y039837D02*
X037293Y039878D01*
X03721D01*
X037168Y039837D01*
Y03967D01*
X03721Y039628D01*
X037293D01*
X037335Y03967D01*
X037585Y039878D02*
X037501Y039837D01*
X037418Y039753D01*
Y03967D01*
X03746Y039628D01*
X037543D01*
X037585Y03967D01*
Y039712D01*
X037543Y039753D01*
X037418D01*
X044318Y040978D02*
Y040937D01*
X044401Y040853D01*
X044485Y040937D01*
Y040978D01*
X044401Y040853D02*
Y040728D01*
X044735D02*
X044568D01*
X044735Y040895D01*
Y040937D01*
X044693Y040978D01*
X04461D01*
X044568Y040937D01*
X04436Y041328D02*
Y04112D01*
X044401Y041078D01*
X044485D01*
X044526Y04112D01*
Y041328D01*
X04461Y041078D02*
X044693D01*
X044651D01*
Y041328D01*
X04461Y041287D01*
X043918Y043478D02*
Y043728D01*
X044043D01*
X044085Y043687D01*
Y043603D01*
X044043Y043562D01*
X043918D01*
X044001D02*
X044085Y043478D01*
X044168Y043687D02*
X04421Y043728D01*
X044293D01*
X044335Y043687D01*
Y043645D01*
X044293Y043603D01*
X044251D01*
X044293D01*
X044335Y043562D01*
Y04352D01*
X044293Y043478D01*
X04421D01*
X044168Y04352D01*
X045818Y043328D02*
Y043078D01*
X045985D01*
X046068Y043287D02*
X04611Y043328D01*
X046193D01*
X046235Y043287D01*
Y043245D01*
X046193Y043203D01*
X046151D01*
X046193D01*
X046235Y043162D01*
Y04312D01*
X046193Y043078D01*
X04611D01*
X046068Y04312D01*
X045268Y043328D02*
Y043078D01*
X045435D01*
X045685D02*
X045518D01*
X045685Y043245D01*
Y043287D01*
X045643Y043328D01*
X04556D01*
X045518Y043287D01*
X04531Y041778D02*
Y041528D01*
X045476D01*
X04556D02*
X045643D01*
X045601D01*
Y041778D01*
X04556Y041737D01*
X045631Y044187D02*
X045589Y044228D01*
X045506D01*
X045464Y044187D01*
Y04402D01*
X045506Y043978D01*
X045589D01*
X045631Y04402D01*
X045714Y043978D02*
X045797D01*
X045756D01*
Y044228D01*
X045714Y044187D01*
X046089Y043978D02*
X045922D01*
X046089Y044145D01*
Y044187D01*
X046047Y044228D01*
X045964D01*
X045922Y044187D01*
X043022Y040487D02*
X042981Y040528D01*
X042897D01*
X042856Y040487D01*
Y04032D01*
X042897Y040278D01*
X042981D01*
X043022Y04032D01*
X043106Y040278D02*
X043189D01*
X043147D01*
Y040528D01*
X043106Y040487D01*
X043314Y040278D02*
X043397D01*
X043356D01*
Y040528D01*
X043314Y040487D01*
X047585Y043387D02*
X047543Y043428D01*
X04746D01*
X047418Y043387D01*
Y04322D01*
X04746Y043178D01*
X047543D01*
X047585Y04322D01*
X047835Y043428D02*
X047668D01*
Y043303D01*
X047751Y043345D01*
X047793D01*
X047835Y043303D01*
Y04322D01*
X047793Y043178D01*
X04771D01*
X047668Y04322D01*
X046885Y043287D02*
X046843Y043328D01*
X04676D01*
X046718Y043287D01*
Y04312D01*
X04676Y043078D01*
X046843D01*
X046885Y04312D01*
X047093Y043078D02*
Y043328D01*
X046968Y043203D01*
X047135D01*
X047285Y041837D02*
X047243Y041878D01*
X04716D01*
X047118Y041837D01*
Y04167D01*
X04716Y041628D01*
X047243D01*
X047285Y04167D01*
X047368Y041837D02*
X04741Y041878D01*
X047493D01*
X047535Y041837D01*
Y041795D01*
X047493Y041753D01*
X047451D01*
X047493D01*
X047535Y041712D01*
Y04167D01*
X047493Y041628D01*
X04741D01*
X047368Y04167D01*
X047285Y041237D02*
X047243Y041278D01*
X04716D01*
X047118Y041237D01*
Y04107D01*
X04716Y041028D01*
X047243D01*
X047285Y04107D01*
X047535Y041028D02*
X047368D01*
X047535Y041195D01*
Y041237D01*
X047493Y041278D01*
X04741D01*
X047368Y041237D01*
X043226Y044287D02*
X043185Y044328D01*
X043101D01*
X04306Y044287D01*
Y04412D01*
X043101Y044078D01*
X043185D01*
X043226Y04412D01*
X04331Y044078D02*
X043393D01*
X043351D01*
Y044328D01*
X04331Y044287D01*
X036468Y040578D02*
Y04037D01*
X03651Y040328D01*
X036593D01*
X036635Y04037D01*
Y040578D01*
X036885Y040328D02*
X036718D01*
X036885Y040495D01*
Y040537D01*
X036843Y040578D01*
X03676D01*
X036718Y040537D01*
X042368Y042828D02*
Y043078D01*
X042493D01*
X042535Y043037D01*
Y042953D01*
X042493Y042912D01*
X042368D01*
X042451D02*
X042535Y042828D01*
X042743D02*
Y043078D01*
X042618Y042953D01*
X042785D01*
X040356Y043078D02*
X040439D01*
X040397D01*
Y042828D01*
X040356D01*
X040439D01*
X040731Y043037D02*
X040689Y043078D01*
X040606D01*
X040564Y043037D01*
Y04287D01*
X040606Y042828D01*
X040689D01*
X040731Y04287D01*
X040814Y042828D02*
X040897D01*
X040856D01*
Y043078D01*
X040814Y043037D01*
X04326Y038578D02*
Y038828D01*
X043385D01*
X043426Y038787D01*
Y038703D01*
X043385Y038662D01*
X04326D01*
X043343D02*
X043426Y038578D01*
X04351D02*
X043593D01*
X043551D01*
Y038828D01*
X04351Y038787D01*
X037468Y039028D02*
Y039278D01*
X037593D01*
X037635Y039237D01*
Y039153D01*
X037593Y039112D01*
X037468D01*
X037551D02*
X037635Y039028D01*
X037885D02*
X037718D01*
X037885Y039195D01*
Y039237D01*
X037843Y039278D01*
X03776D01*
X037718Y039237D01*
X036985Y044237D02*
X036943Y044278D01*
X03686D01*
X036818Y044237D01*
Y04407D01*
X03686Y044028D01*
X036943D01*
X036985Y04407D01*
X037068D02*
X03711Y044028D01*
X037193D01*
X037235Y04407D01*
Y044237D01*
X037193Y044278D01*
X03711D01*
X037068Y044237D01*
Y044195D01*
X03711Y044153D01*
X037235D01*
X035281Y044237D02*
X035239Y044278D01*
X035156D01*
X035114Y044237D01*
Y04407D01*
X035156Y044028D01*
X035239D01*
X035281Y04407D01*
X035364Y044028D02*
X035447D01*
X035406D01*
Y044278D01*
X035364Y044237D01*
X035697Y044028D02*
Y044278D01*
X035572Y044153D01*
X035739D01*
M02*
