G04*
G04 #@! TF.GenerationSoftware,Altium Limited,Altium Designer,22.10.1 (41)*
G04*
G04 Layer_Physical_Order=3*
G04 Layer_Color=16440176*
%FSTAX24Y24*%
%MOIN*%
G70*
G04*
G04 #@! TF.SameCoordinates,66E382E7-BC4A-4C08-8AB3-1FD61AD418E8*
G04*
G04*
G04 #@! TF.FilePolarity,Positive*
G04*
G01*
G75*
%ADD36C,0.0300*%
%ADD38C,0.0200*%
%ADD39C,0.0100*%
%ADD65C,0.0594*%
%ADD66C,0.0240*%
%ADD67C,0.1004*%
G36*
X037063Y021362D02*
X028705D01*
X028676Y021412D01*
X028694Y021455D01*
Y021526D01*
X028666Y021593D01*
X028615Y021643D01*
X028549Y021671D01*
X028478D01*
X028411Y021643D01*
X028361Y021593D01*
X028333Y021526D01*
Y021455D01*
X028351Y021412D01*
X028322Y021362D01*
X020654D01*
Y027338D01*
X037063D01*
Y021362D01*
D02*
G37*
G36*
X020409D02*
X012052D01*
X012022Y021412D01*
X01204Y021455D01*
Y021526D01*
X012013Y021593D01*
X011962Y021643D01*
X011896Y021671D01*
X011824D01*
X011758Y021643D01*
X011707Y021593D01*
X01168Y021526D01*
Y021455D01*
X011697Y021412D01*
X011668Y021362D01*
X004D01*
Y027338D01*
X020409D01*
Y021362D01*
D02*
G37*
G36*
X037063Y015142D02*
X020654D01*
Y021118D01*
X037063D01*
Y015142D01*
D02*
G37*
G36*
X020409D02*
X004D01*
Y021118D01*
X020409D01*
Y015142D01*
D02*
G37*
G36*
X033841Y004D02*
X020654D01*
Y014898D01*
X033841D01*
Y004D01*
D02*
G37*
G36*
X017187D02*
X004D01*
Y014898D01*
X017187D01*
Y004D01*
D02*
G37*
%LPC*%
G36*
X023549Y026871D02*
X023478D01*
X023411Y026843D01*
X023361Y026793D01*
X023333Y026726D01*
Y026655D01*
X023361Y026589D01*
X023411Y026538D01*
X023478Y02651D01*
X023549D01*
X023615Y026538D01*
X023666Y026589D01*
X023694Y026655D01*
Y026726D01*
X023666Y026793D01*
X023615Y026843D01*
X023549Y026871D01*
D02*
G37*
G36*
X02586Y027197D02*
X025766D01*
X025676Y027173D01*
X025594Y027126D01*
X025528Y02706D01*
X025481Y026978D01*
X025457Y026888D01*
Y026794D01*
X025481Y026703D01*
X025528Y026621D01*
X025594Y026555D01*
X025676Y026508D01*
X025766Y026484D01*
X02586D01*
X025951Y026508D01*
X026033Y026555D01*
X026099Y026621D01*
X026146Y026703D01*
X02617Y026794D01*
Y026888D01*
X026146Y026978D01*
X026099Y02706D01*
X026033Y027126D01*
X025951Y027173D01*
X02586Y027197D01*
D02*
G37*
G36*
X021549Y026671D02*
X021478D01*
X021411Y026643D01*
X021361Y026593D01*
X021333Y026526D01*
Y026455D01*
X021361Y026389D01*
X021411Y026338D01*
X021478Y02631D01*
X021549D01*
X021615Y026338D01*
X021666Y026389D01*
X021694Y026455D01*
Y026526D01*
X021666Y026593D01*
X021615Y026643D01*
X021549Y026671D01*
D02*
G37*
G36*
X022599Y025971D02*
X022528D01*
X022461Y025943D01*
X022417Y025899D01*
X022388Y025895D01*
X022359Y025899D01*
X022315Y025943D01*
X022249Y025971D01*
X022178D01*
X022111Y025943D01*
X022061Y025893D01*
X022033Y025826D01*
Y025755D01*
X022061Y025689D01*
X022084Y025666D01*
X022061Y025643D01*
X022033Y025576D01*
Y025505D01*
X022034Y025503D01*
X02199Y025479D01*
X021932Y025566D01*
X021847Y025651D01*
X021747Y025718D01*
X021635Y025764D01*
X021517Y025788D01*
X021397D01*
X021279Y025764D01*
X021168Y025718D01*
X021068Y025651D01*
X020982Y025566D01*
X020916Y025466D01*
X020869Y025355D01*
X020846Y025237D01*
Y025116D01*
X020869Y024998D01*
X020916Y024887D01*
X020982Y024787D01*
X021068Y024702D01*
X021168Y024635D01*
X021279Y024589D01*
X021397Y024565D01*
X021517D01*
X021635Y024589D01*
X021747Y024635D01*
X021847Y024702D01*
X021932Y024787D01*
X021999Y024887D01*
X022045Y024998D01*
X022068Y025116D01*
Y025237D01*
X022045Y025355D01*
X02202Y025413D01*
X022061Y025439D01*
X022111Y025388D01*
X022178Y02536D01*
X022249D01*
X022315Y025388D01*
X022359Y025432D01*
X022388Y025436D01*
X022417Y025432D01*
X022461Y025388D01*
X022528Y02536D01*
X022599D01*
X022665Y025388D01*
X022716Y025439D01*
X022744Y025505D01*
Y025576D01*
X022716Y025643D01*
X022693Y025666D01*
X022716Y025689D01*
X022744Y025755D01*
Y025826D01*
X022716Y025893D01*
X022665Y025943D01*
X022599Y025971D01*
D02*
G37*
G36*
X029549Y025921D02*
X029478D01*
X029411Y025893D01*
X029361Y025843D01*
X029333Y025776D01*
Y025705D01*
X029361Y025639D01*
X029411Y025588D01*
X029478Y02556D01*
X029549D01*
X029615Y025588D01*
X029666Y025639D01*
X029694Y025705D01*
Y025776D01*
X029666Y025843D01*
X029615Y025893D01*
X029549Y025921D01*
D02*
G37*
G36*
X02686Y026197D02*
X026766D01*
X026676Y026173D01*
X026594Y026126D01*
X026528Y02606D01*
X026481Y025978D01*
X026457Y025888D01*
Y025794D01*
X026481Y025703D01*
X026528Y025621D01*
X026594Y025555D01*
X026676Y025508D01*
X026766Y025484D01*
X02686D01*
X026951Y025508D01*
X027033Y025555D01*
X027099Y025621D01*
X027146Y025703D01*
X02717Y025794D01*
Y025888D01*
X027146Y025978D01*
X027099Y02606D01*
X027033Y026126D01*
X026951Y026173D01*
X02686Y026197D01*
D02*
G37*
G36*
X02617D02*
X025457D01*
Y025484D01*
X02617D01*
Y026197D01*
D02*
G37*
G36*
X030812Y025658D02*
X03074D01*
X030674Y025631D01*
X030623Y02558D01*
X030596Y025514D01*
Y025442D01*
X030623Y025376D01*
X030674Y025326D01*
X03074Y025298D01*
X030812D01*
X030878Y025326D01*
X030928Y025376D01*
X030956Y025442D01*
Y025514D01*
X030928Y02558D01*
X030878Y025631D01*
X030812Y025658D01*
D02*
G37*
G36*
X028663Y026955D02*
X028313D01*
X028232Y026938D01*
X028162Y026892D01*
X027662Y026392D01*
X027616Y026322D01*
X027599Y026241D01*
Y025679D01*
X027062Y025142D01*
X027016Y025072D01*
X027012Y025055D01*
X025551D01*
X025378Y025229D01*
Y025289D01*
X025378Y025291D01*
Y026741D01*
X025359Y026786D01*
X025313Y026805D01*
X025236D01*
X025199Y026821D01*
X025128D01*
X025091Y026805D01*
X024963D01*
X024918Y026786D01*
X024899Y026741D01*
Y025291D01*
X024918Y025245D01*
X024949Y025231D01*
Y024991D01*
Y024441D01*
X024966Y024359D01*
X025012Y024289D01*
X025599Y023702D01*
Y023091D01*
X025616Y023009D01*
X025662Y022939D01*
X026212Y022389D01*
X026282Y022343D01*
X026363Y022326D01*
X026445Y022343D01*
X026515Y022389D01*
X026561Y022459D01*
X026578Y022541D01*
X026561Y022622D01*
X026515Y022692D01*
X026028Y023179D01*
Y023791D01*
X026011Y023872D01*
X025965Y023942D01*
X025727Y02418D01*
X025746Y024226D01*
X028013D01*
X028013Y024226D01*
X029625D01*
X030412Y023439D01*
X030412Y023439D01*
X030612Y023239D01*
X030682Y023193D01*
X030763Y023176D01*
X030845Y023193D01*
X030915Y023239D01*
X030915Y023239D01*
X031115Y023439D01*
X031115Y023439D01*
X031161Y023509D01*
X031178Y023591D01*
X031161Y023672D01*
X031115Y023742D01*
X031115Y023742D01*
X030915Y023942D01*
X030915Y023942D01*
X030845Y023988D01*
X030763Y024005D01*
X030682Y023988D01*
X030612Y023942D01*
X030563Y023893D01*
X029865Y024592D01*
X029795Y024638D01*
X029713Y024655D01*
X028102D01*
X027765Y024992D01*
X027641Y025116D01*
X027965Y025439D01*
X028011Y025509D01*
X028028Y025591D01*
Y026152D01*
X028313Y026438D01*
X028412Y026339D01*
X028482Y026293D01*
X028563Y026276D01*
X028645Y026293D01*
X028715Y026339D01*
X028815Y026439D01*
X028861Y026509D01*
X028875Y026577D01*
X031437D01*
X031478Y02656D01*
X031549D01*
X03159Y026577D01*
X032196D01*
X032748Y026025D01*
X032801Y02599D01*
X032863Y025977D01*
X032987D01*
X033028Y02596D01*
X033099D01*
X033165Y025988D01*
X033216Y026039D01*
X033244Y026105D01*
Y026176D01*
X033216Y026243D01*
X033165Y026293D01*
X033099Y026321D01*
X033028D01*
X032987Y026304D01*
X032931D01*
X032379Y026856D01*
X032326Y026891D01*
X032263Y026904D01*
X03159D01*
X031549Y026921D01*
X031478D01*
X031437Y026904D01*
X028797D01*
X028745Y026938D01*
X028663Y026955D01*
D02*
G37*
G36*
X033099Y025021D02*
X033028D01*
X032961Y024993D01*
X032911Y024943D01*
X032883Y024876D01*
Y024805D01*
X032911Y024739D01*
X032961Y024688D01*
X033028Y02466D01*
X033099D01*
X033165Y024688D01*
X033216Y024739D01*
X033244Y024805D01*
Y024876D01*
X033216Y024943D01*
X033165Y024993D01*
X033099Y025021D01*
D02*
G37*
G36*
X022399Y024871D02*
X022328D01*
X022261Y024843D01*
X022211Y024793D01*
X022183Y024726D01*
Y024655D01*
X022211Y024589D01*
X022261Y024538D01*
X022328Y02451D01*
X022399D01*
X022465Y024538D01*
X022516Y024589D01*
X022544Y024655D01*
Y024726D01*
X022516Y024793D01*
X022465Y024843D01*
X022399Y024871D01*
D02*
G37*
G36*
X030599Y024721D02*
X030528D01*
X030461Y024693D01*
X030411Y024643D01*
X030383Y024576D01*
Y024505D01*
X030411Y024439D01*
X030461Y024388D01*
X030528Y02436D01*
X030599D01*
X030665Y024388D01*
X030716Y024439D01*
X030744Y024505D01*
Y024576D01*
X030716Y024643D01*
X030665Y024693D01*
X030599Y024721D01*
D02*
G37*
G36*
X022399Y024071D02*
X022328D01*
X022261Y024043D01*
X022211Y023993D01*
X022183Y023926D01*
Y023855D01*
X022211Y023789D01*
X022261Y023738D01*
X022328Y02371D01*
X022399D01*
X022465Y023738D01*
X022516Y023789D01*
X022544Y023855D01*
Y023926D01*
X022516Y023993D01*
X022465Y024043D01*
X022399Y024071D01*
D02*
G37*
G36*
X027399Y024021D02*
X027328D01*
X027261Y023993D01*
X027211Y023943D01*
X027183Y023876D01*
Y023805D01*
X027211Y023739D01*
X027261Y023688D01*
X027328Y02366D01*
X027399D01*
X027465Y023688D01*
X027516Y023739D01*
X027544Y023805D01*
Y023876D01*
X027516Y023943D01*
X027465Y023993D01*
X027399Y024021D01*
D02*
G37*
G36*
X034599Y023971D02*
X034528D01*
X034461Y023943D01*
X034411Y023893D01*
X034383Y023826D01*
Y023755D01*
X034411Y023689D01*
X034461Y023638D01*
X034528Y02361D01*
X034599D01*
X034665Y023638D01*
X034716Y023689D01*
X034744Y023755D01*
Y023826D01*
X034716Y023893D01*
X034665Y023943D01*
X034599Y023971D01*
D02*
G37*
G36*
X026599Y023621D02*
X026528D01*
X026461Y023593D01*
X026411Y023543D01*
X026383Y023476D01*
Y023405D01*
X026411Y023339D01*
X026461Y023288D01*
X026528Y02326D01*
X026599D01*
X026665Y023288D01*
X026716Y023339D01*
X026744Y023405D01*
Y023476D01*
X026716Y023543D01*
X026665Y023593D01*
X026599Y023621D01*
D02*
G37*
G36*
X024799Y023471D02*
X024728D01*
X024661Y023443D01*
X024611Y023393D01*
X024583Y023326D01*
Y023255D01*
X024611Y023189D01*
X024661Y023138D01*
X024728Y02311D01*
X024799D01*
X024865Y023138D01*
X024916Y023189D01*
X024944Y023255D01*
Y023326D01*
X024916Y023393D01*
X024865Y023443D01*
X024799Y023471D01*
D02*
G37*
G36*
X027399Y023421D02*
X027328D01*
X027261Y023393D01*
X027211Y023343D01*
X027183Y023276D01*
Y023205D01*
X027211Y023139D01*
X027261Y023088D01*
X027328Y02306D01*
X027399D01*
X027465Y023088D01*
X027516Y023139D01*
X027544Y023205D01*
Y023276D01*
X027516Y023343D01*
X027465Y023393D01*
X027399Y023421D01*
D02*
G37*
G36*
X021517Y024016D02*
X021397D01*
X021279Y023992D01*
X021168Y023946D01*
X021068Y023879D01*
X020982Y023794D01*
X020916Y023694D01*
X020869Y023583D01*
X020846Y023465D01*
Y023345D01*
X020869Y023226D01*
X020916Y023115D01*
X020982Y023015D01*
X021068Y02293D01*
X021168Y022863D01*
X021279Y022817D01*
X021397Y022794D01*
X021517D01*
X021635Y022817D01*
X021747Y022863D01*
X021847Y02293D01*
X021932Y023015D01*
X021999Y023115D01*
X022045Y023226D01*
X022068Y023345D01*
Y023465D01*
X022045Y023583D01*
X021999Y023694D01*
X021932Y023794D01*
X021847Y023879D01*
X021747Y023946D01*
X021635Y023992D01*
X021517Y024016D01*
D02*
G37*
G36*
X029399Y023121D02*
X029328D01*
X029261Y023093D01*
X029211Y023043D01*
X029183Y022976D01*
Y022905D01*
X029211Y022839D01*
X029261Y022788D01*
X029328Y02276D01*
X029399D01*
X029465Y022788D01*
X029516Y022839D01*
X029544Y022905D01*
Y022976D01*
X029516Y023043D01*
X029465Y023093D01*
X029399Y023121D01*
D02*
G37*
G36*
X028849Y022621D02*
X028778D01*
X028711Y022593D01*
X028661Y022543D01*
X028633Y022476D01*
Y022405D01*
X028661Y022339D01*
X028711Y022288D01*
X028778Y02226D01*
X028849D01*
X028915Y022288D01*
X028966Y022339D01*
X028994Y022405D01*
Y022476D01*
X028966Y022543D01*
X028915Y022593D01*
X028849Y022621D01*
D02*
G37*
G36*
X022599Y022521D02*
X022528D01*
X022461Y022493D01*
X022411Y022443D01*
X022383Y022376D01*
Y022305D01*
X022411Y022239D01*
X022461Y022188D01*
X022528Y02216D01*
X022599D01*
X022665Y022188D01*
X022716Y022239D01*
X022744Y022305D01*
Y022376D01*
X022716Y022443D01*
X022665Y022493D01*
X022599Y022521D01*
D02*
G37*
G36*
X026849Y022421D02*
X026778D01*
X026711Y022393D01*
X026661Y022343D01*
X026633Y022276D01*
Y022205D01*
X026661Y022139D01*
X026711Y022088D01*
X026778Y02206D01*
X026849D01*
X026915Y022088D01*
X026966Y022139D01*
X026994Y022205D01*
Y022276D01*
X026966Y022343D01*
X026915Y022393D01*
X026849Y022421D01*
D02*
G37*
G36*
X025799D02*
X025728D01*
X025661Y022393D01*
X025611Y022343D01*
X025583Y022276D01*
Y022205D01*
X025611Y022139D01*
X025661Y022088D01*
X025728Y02206D01*
X025799D01*
X025865Y022088D01*
X025916Y022139D01*
X025944Y022205D01*
Y022276D01*
X025916Y022343D01*
X025865Y022393D01*
X025799Y022421D01*
D02*
G37*
G36*
X031249Y021871D02*
X031178D01*
X031111Y021843D01*
X031061Y021793D01*
X031033Y021726D01*
Y021655D01*
X031061Y021589D01*
X031111Y021538D01*
X031178Y02151D01*
X031249D01*
X031315Y021538D01*
X031366Y021589D01*
X031394Y021655D01*
Y021726D01*
X031366Y021793D01*
X031315Y021843D01*
X031249Y021871D01*
D02*
G37*
%LPD*%
G36*
X025313Y025291D02*
X024963D01*
Y026741D01*
X025313D01*
Y025291D01*
D02*
G37*
G36*
X027463Y024891D02*
X027767Y024587D01*
X027748Y024541D01*
X025263D01*
Y024991D01*
X027463D01*
Y024891D01*
D02*
G37*
%LPC*%
G36*
X006896Y026871D02*
X006824D01*
X006758Y026843D01*
X006707Y026793D01*
X00668Y026726D01*
Y026655D01*
X006707Y026589D01*
X006758Y026538D01*
X006824Y02651D01*
X006896D01*
X006962Y026538D01*
X007013Y026589D01*
X00704Y026655D01*
Y026726D01*
X007013Y026793D01*
X006962Y026843D01*
X006896Y026871D01*
D02*
G37*
G36*
X009207Y027197D02*
X009113D01*
X009022Y027173D01*
X008941Y027126D01*
X008874Y02706D01*
X008827Y026978D01*
X008803Y026888D01*
Y026794D01*
X008827Y026703D01*
X008874Y026621D01*
X008941Y026555D01*
X009022Y026508D01*
X009113Y026484D01*
X009207D01*
X009298Y026508D01*
X009379Y026555D01*
X009445Y026621D01*
X009492Y026703D01*
X009517Y026794D01*
Y026888D01*
X009492Y026978D01*
X009445Y02706D01*
X009379Y027126D01*
X009298Y027173D01*
X009207Y027197D01*
D02*
G37*
G36*
X004896Y026671D02*
X004824D01*
X004758Y026643D01*
X004707Y026593D01*
X00468Y026526D01*
Y026455D01*
X004707Y026389D01*
X004758Y026338D01*
X004824Y02631D01*
X004896D01*
X004962Y026338D01*
X005013Y026389D01*
X00504Y026455D01*
Y026526D01*
X005013Y026593D01*
X004962Y026643D01*
X004896Y026671D01*
D02*
G37*
G36*
X005946Y025971D02*
X005874D01*
X005808Y025943D01*
X005764Y025899D01*
X005735Y025895D01*
X005706Y025899D01*
X005662Y025943D01*
X005596Y025971D01*
X005524D01*
X005458Y025943D01*
X005407Y025893D01*
X00538Y025826D01*
Y025755D01*
X005407Y025689D01*
X00543Y025666D01*
X005407Y025643D01*
X00538Y025576D01*
Y025505D01*
X00538Y025503D01*
X005336Y025479D01*
X005278Y025566D01*
X005193Y025651D01*
X005093Y025718D01*
X004982Y025764D01*
X004864Y025788D01*
X004743D01*
X004625Y025764D01*
X004514Y025718D01*
X004414Y025651D01*
X004329Y025566D01*
X004262Y025466D01*
X004216Y025355D01*
X004192Y025237D01*
Y025116D01*
X004216Y024998D01*
X004262Y024887D01*
X004329Y024787D01*
X004414Y024702D01*
X004514Y024635D01*
X004625Y024589D01*
X004743Y024565D01*
X004864D01*
X004982Y024589D01*
X005093Y024635D01*
X005193Y024702D01*
X005278Y024787D01*
X005345Y024887D01*
X005391Y024998D01*
X005415Y025116D01*
Y025237D01*
X005391Y025355D01*
X005367Y025413D01*
X005407Y025439D01*
X005458Y025388D01*
X005524Y02536D01*
X005596D01*
X005662Y025388D01*
X005706Y025432D01*
X005735Y025436D01*
X005764Y025432D01*
X005808Y025388D01*
X005874Y02536D01*
X005946D01*
X006012Y025388D01*
X006063Y025439D01*
X00609Y025505D01*
Y025576D01*
X006063Y025643D01*
X00604Y025666D01*
X006063Y025689D01*
X00609Y025755D01*
Y025826D01*
X006063Y025893D01*
X006012Y025943D01*
X005946Y025971D01*
D02*
G37*
G36*
X012896Y025921D02*
X012824D01*
X012758Y025893D01*
X012707Y025843D01*
X01268Y025776D01*
Y025705D01*
X012707Y025639D01*
X012758Y025588D01*
X012824Y02556D01*
X012896D01*
X012962Y025588D01*
X013013Y025639D01*
X01304Y025705D01*
Y025776D01*
X013013Y025843D01*
X012962Y025893D01*
X012896Y025921D01*
D02*
G37*
G36*
X010207Y026197D02*
X010113D01*
X010022Y026173D01*
X009941Y026126D01*
X009874Y02606D01*
X009827Y025978D01*
X009803Y025888D01*
Y025794D01*
X009827Y025703D01*
X009874Y025621D01*
X009941Y025555D01*
X010022Y025508D01*
X010113Y025484D01*
X010207D01*
X010298Y025508D01*
X010379Y025555D01*
X010445Y025621D01*
X010492Y025703D01*
X010517Y025794D01*
Y025888D01*
X010492Y025978D01*
X010445Y02606D01*
X010379Y026126D01*
X010298Y026173D01*
X010207Y026197D01*
D02*
G37*
G36*
X009517D02*
X008803D01*
Y025484D01*
X009517D01*
Y026197D01*
D02*
G37*
G36*
X014158Y025658D02*
X014086D01*
X01402Y025631D01*
X01397Y02558D01*
X013942Y025514D01*
Y025442D01*
X01397Y025376D01*
X01402Y025326D01*
X014086Y025298D01*
X014158D01*
X014224Y025326D01*
X014275Y025376D01*
X014302Y025442D01*
Y025514D01*
X014275Y02558D01*
X014224Y025631D01*
X014158Y025658D01*
D02*
G37*
G36*
X01201Y026955D02*
X01166D01*
X011578Y026938D01*
X011509Y026892D01*
X011009Y026392D01*
X010962Y026322D01*
X010946Y026241D01*
Y025679D01*
X010409Y025142D01*
X010362Y025072D01*
X010359Y025055D01*
X008898D01*
X008724Y025229D01*
Y025289D01*
X008725Y025291D01*
Y026741D01*
X008706Y026786D01*
X00866Y026805D01*
X008582D01*
X008546Y026821D01*
X008474D01*
X008438Y026805D01*
X00831D01*
X008264Y026786D01*
X008245Y026741D01*
Y025291D01*
X008264Y025245D01*
X008296Y025231D01*
Y024991D01*
Y024441D01*
X008312Y024359D01*
X008359Y024289D01*
X008946Y023702D01*
Y023091D01*
X008962Y023009D01*
X009009Y022939D01*
X009559Y022389D01*
X009628Y022343D01*
X00971Y022326D01*
X009792Y022343D01*
X009861Y022389D01*
X009908Y022459D01*
X009924Y022541D01*
X009908Y022622D01*
X009861Y022692D01*
X009374Y023179D01*
Y023791D01*
X009358Y023872D01*
X009311Y023942D01*
X009073Y02418D01*
X009092Y024226D01*
X01136D01*
X01136Y024226D01*
X012971D01*
X013759Y023439D01*
X013759Y023439D01*
X013959Y023239D01*
X014028Y023193D01*
X01411Y023176D01*
X014192Y023193D01*
X014261Y023239D01*
X014261Y023239D01*
X014461Y023439D01*
X014461Y023439D01*
X014508Y023509D01*
X014524Y023591D01*
X014508Y023672D01*
X014461Y023742D01*
X014461Y023742D01*
X014261Y023942D01*
X014261Y023942D01*
X014192Y023988D01*
X01411Y024005D01*
X014028Y023988D01*
X013959Y023942D01*
X01391Y023893D01*
X013211Y024592D01*
X013142Y024638D01*
X01306Y024655D01*
X011449D01*
X011111Y024992D01*
X010988Y025116D01*
X011311Y025439D01*
X011358Y025509D01*
X011374Y025591D01*
Y026152D01*
X01166Y026438D01*
X011759Y026339D01*
X011828Y026293D01*
X01191Y026276D01*
X011992Y026293D01*
X012061Y026339D01*
X012161Y026439D01*
X012208Y026509D01*
X012221Y026577D01*
X014783D01*
X014824Y02656D01*
X014896D01*
X014937Y026577D01*
X015542D01*
X016095Y026025D01*
X016147Y02599D01*
X01621Y025977D01*
X016333D01*
X016374Y02596D01*
X016446D01*
X016512Y025988D01*
X016563Y026039D01*
X01659Y026105D01*
Y026176D01*
X016563Y026243D01*
X016512Y026293D01*
X016446Y026321D01*
X016374D01*
X016333Y026304D01*
X016277D01*
X015725Y026856D01*
X015672Y026891D01*
X01561Y026904D01*
X014937D01*
X014896Y026921D01*
X014824D01*
X014783Y026904D01*
X012144D01*
X012092Y026938D01*
X01201Y026955D01*
D02*
G37*
G36*
X016446Y025021D02*
X016374D01*
X016308Y024993D01*
X016257Y024943D01*
X01623Y024876D01*
Y024805D01*
X016257Y024739D01*
X016308Y024688D01*
X016374Y02466D01*
X016446D01*
X016512Y024688D01*
X016563Y024739D01*
X01659Y024805D01*
Y024876D01*
X016563Y024943D01*
X016512Y024993D01*
X016446Y025021D01*
D02*
G37*
G36*
X005746Y024871D02*
X005674D01*
X005608Y024843D01*
X005557Y024793D01*
X00553Y024726D01*
Y024655D01*
X005557Y024589D01*
X005608Y024538D01*
X005674Y02451D01*
X005746D01*
X005812Y024538D01*
X005863Y024589D01*
X00589Y024655D01*
Y024726D01*
X005863Y024793D01*
X005812Y024843D01*
X005746Y024871D01*
D02*
G37*
G36*
X013946Y024721D02*
X013874D01*
X013808Y024693D01*
X013757Y024643D01*
X01373Y024576D01*
Y024505D01*
X013757Y024439D01*
X013808Y024388D01*
X013874Y02436D01*
X013946D01*
X014012Y024388D01*
X014063Y024439D01*
X01409Y024505D01*
Y024576D01*
X014063Y024643D01*
X014012Y024693D01*
X013946Y024721D01*
D02*
G37*
G36*
X005746Y024071D02*
X005674D01*
X005608Y024043D01*
X005557Y023993D01*
X00553Y023926D01*
Y023855D01*
X005557Y023789D01*
X005608Y023738D01*
X005674Y02371D01*
X005746D01*
X005812Y023738D01*
X005863Y023789D01*
X00589Y023855D01*
Y023926D01*
X005863Y023993D01*
X005812Y024043D01*
X005746Y024071D01*
D02*
G37*
G36*
X010746Y024021D02*
X010674D01*
X010608Y023993D01*
X010557Y023943D01*
X01053Y023876D01*
Y023805D01*
X010557Y023739D01*
X010608Y023688D01*
X010674Y02366D01*
X010746D01*
X010812Y023688D01*
X010863Y023739D01*
X01089Y023805D01*
Y023876D01*
X010863Y023943D01*
X010812Y023993D01*
X010746Y024021D01*
D02*
G37*
G36*
X017946Y023971D02*
X017874D01*
X017808Y023943D01*
X017757Y023893D01*
X01773Y023826D01*
Y023755D01*
X017757Y023689D01*
X017808Y023638D01*
X017874Y02361D01*
X017946D01*
X018012Y023638D01*
X018063Y023689D01*
X01809Y023755D01*
Y023826D01*
X018063Y023893D01*
X018012Y023943D01*
X017946Y023971D01*
D02*
G37*
G36*
X009946Y023621D02*
X009874D01*
X009808Y023593D01*
X009757Y023543D01*
X00973Y023476D01*
Y023405D01*
X009757Y023339D01*
X009808Y023288D01*
X009874Y02326D01*
X009946D01*
X010012Y023288D01*
X010063Y023339D01*
X01009Y023405D01*
Y023476D01*
X010063Y023543D01*
X010012Y023593D01*
X009946Y023621D01*
D02*
G37*
G36*
X008146Y023471D02*
X008074D01*
X008008Y023443D01*
X007957Y023393D01*
X00793Y023326D01*
Y023255D01*
X007957Y023189D01*
X008008Y023138D01*
X008074Y02311D01*
X008146D01*
X008212Y023138D01*
X008263Y023189D01*
X00829Y023255D01*
Y023326D01*
X008263Y023393D01*
X008212Y023443D01*
X008146Y023471D01*
D02*
G37*
G36*
X010746Y023421D02*
X010674D01*
X010608Y023393D01*
X010557Y023343D01*
X01053Y023276D01*
Y023205D01*
X010557Y023139D01*
X010608Y023088D01*
X010674Y02306D01*
X010746D01*
X010812Y023088D01*
X010863Y023139D01*
X01089Y023205D01*
Y023276D01*
X010863Y023343D01*
X010812Y023393D01*
X010746Y023421D01*
D02*
G37*
G36*
X004864Y024016D02*
X004743D01*
X004625Y023992D01*
X004514Y023946D01*
X004414Y023879D01*
X004329Y023794D01*
X004262Y023694D01*
X004216Y023583D01*
X004192Y023465D01*
Y023345D01*
X004216Y023226D01*
X004262Y023115D01*
X004329Y023015D01*
X004414Y02293D01*
X004514Y022863D01*
X004625Y022817D01*
X004743Y022794D01*
X004864D01*
X004982Y022817D01*
X005093Y022863D01*
X005193Y02293D01*
X005278Y023015D01*
X005345Y023115D01*
X005391Y023226D01*
X005415Y023345D01*
Y023465D01*
X005391Y023583D01*
X005345Y023694D01*
X005278Y023794D01*
X005193Y023879D01*
X005093Y023946D01*
X004982Y023992D01*
X004864Y024016D01*
D02*
G37*
G36*
X012746Y023121D02*
X012674D01*
X012608Y023093D01*
X012557Y023043D01*
X01253Y022976D01*
Y022905D01*
X012557Y022839D01*
X012608Y022788D01*
X012674Y02276D01*
X012746D01*
X012812Y022788D01*
X012863Y022839D01*
X01289Y022905D01*
Y022976D01*
X012863Y023043D01*
X012812Y023093D01*
X012746Y023121D01*
D02*
G37*
G36*
X012196Y022621D02*
X012124D01*
X012058Y022593D01*
X012007Y022543D01*
X01198Y022476D01*
Y022405D01*
X012007Y022339D01*
X012058Y022288D01*
X012124Y02226D01*
X012196D01*
X012262Y022288D01*
X012313Y022339D01*
X01234Y022405D01*
Y022476D01*
X012313Y022543D01*
X012262Y022593D01*
X012196Y022621D01*
D02*
G37*
G36*
X005946Y022521D02*
X005874D01*
X005808Y022493D01*
X005757Y022443D01*
X00573Y022376D01*
Y022305D01*
X005757Y022239D01*
X005808Y022188D01*
X005874Y02216D01*
X005946D01*
X006012Y022188D01*
X006063Y022239D01*
X00609Y022305D01*
Y022376D01*
X006063Y022443D01*
X006012Y022493D01*
X005946Y022521D01*
D02*
G37*
G36*
X010196Y022421D02*
X010124D01*
X010058Y022393D01*
X010007Y022343D01*
X00998Y022276D01*
Y022205D01*
X010007Y022139D01*
X010058Y022088D01*
X010124Y02206D01*
X010196D01*
X010262Y022088D01*
X010313Y022139D01*
X01034Y022205D01*
Y022276D01*
X010313Y022343D01*
X010262Y022393D01*
X010196Y022421D01*
D02*
G37*
G36*
X009146D02*
X009074D01*
X009008Y022393D01*
X008957Y022343D01*
X00893Y022276D01*
Y022205D01*
X008957Y022139D01*
X009008Y022088D01*
X009074Y02206D01*
X009146D01*
X009212Y022088D01*
X009263Y022139D01*
X00929Y022205D01*
Y022276D01*
X009263Y022343D01*
X009212Y022393D01*
X009146Y022421D01*
D02*
G37*
G36*
X014596Y021871D02*
X014524D01*
X014458Y021843D01*
X014407Y021793D01*
X01438Y021726D01*
Y021655D01*
X014407Y021589D01*
X014458Y021538D01*
X014524Y02151D01*
X014596D01*
X014662Y021538D01*
X014713Y021589D01*
X01474Y021655D01*
Y021726D01*
X014713Y021793D01*
X014662Y021843D01*
X014596Y021871D01*
D02*
G37*
%LPD*%
G36*
X00866Y025291D02*
X00831D01*
Y026741D01*
X00866D01*
Y025291D01*
D02*
G37*
G36*
X01081Y024891D02*
X011114Y024587D01*
X011095Y024541D01*
X00861D01*
Y024991D01*
X01081D01*
Y024891D01*
D02*
G37*
%LPC*%
G36*
X025464Y020982D02*
X025464Y020982D01*
X024863D01*
X024863Y020982D01*
X024821Y020974D01*
X024784Y020949D01*
X024784Y020949D01*
X024557Y020723D01*
X024533Y020686D01*
X024524Y020643D01*
X024524Y020643D01*
Y017136D01*
X024484Y017095D01*
X024457Y017029D01*
Y016957D01*
X024484Y016891D01*
X024535Y016841D01*
X024601Y016813D01*
X024672D01*
X024739Y016841D01*
X024789Y016891D01*
X024817Y016957D01*
Y017029D01*
X024789Y017095D01*
X024749Y017136D01*
Y020597D01*
X02491Y020758D01*
X025379D01*
X025418Y020708D01*
X025407Y020667D01*
Y020573D01*
X025431Y020482D01*
X025478Y020401D01*
X025544Y020335D01*
X025626Y020288D01*
X025716Y020263D01*
X02581D01*
X025901Y020288D01*
X025983Y020335D01*
X026049Y020401D01*
X026096Y020482D01*
X02612Y020573D01*
Y020667D01*
X026096Y020758D01*
X026049Y020839D01*
X025983Y020906D01*
X025901Y020953D01*
X02581Y020977D01*
X025716D01*
X025626Y020953D01*
X025572Y020921D01*
X025544Y020949D01*
X025507Y020974D01*
X025464Y020982D01*
D02*
G37*
G36*
X022699Y02055D02*
X022628D01*
X022561Y020523D01*
X022511Y020472D01*
X022483Y020406D01*
Y020334D01*
X022511Y020268D01*
X022561Y020217D01*
X022628Y02019D01*
X022699D01*
X022765Y020217D01*
X022816Y020268D01*
X022844Y020334D01*
Y020406D01*
X022816Y020472D01*
X022765Y020523D01*
X022699Y02055D01*
D02*
G37*
G36*
X022599Y01975D02*
X022528D01*
X022461Y019723D01*
X022417Y019679D01*
X022388Y019675D01*
X022359Y019679D01*
X022315Y019723D01*
X022249Y01975D01*
X022178D01*
X022111Y019723D01*
X022061Y019672D01*
X022033Y019606D01*
Y019534D01*
X022061Y019468D01*
X022084Y019445D01*
X022061Y019422D01*
X022033Y019356D01*
Y019284D01*
X022034Y019283D01*
X02199Y019259D01*
X021932Y019346D01*
X021847Y019431D01*
X021747Y019498D01*
X021635Y019544D01*
X021517Y019567D01*
X021397D01*
X021279Y019544D01*
X021168Y019498D01*
X021068Y019431D01*
X020982Y019346D01*
X020916Y019245D01*
X020869Y019134D01*
X020846Y019016D01*
Y018896D01*
X020869Y018778D01*
X020916Y018666D01*
X020982Y018566D01*
X021068Y018481D01*
X021168Y018414D01*
X021279Y018368D01*
X021397Y018345D01*
X021517D01*
X021635Y018368D01*
X021747Y018414D01*
X021847Y018481D01*
X021932Y018566D01*
X021999Y018666D01*
X022045Y018778D01*
X022068Y018896D01*
Y019016D01*
X022045Y019134D01*
X02202Y019193D01*
X022061Y019218D01*
X022111Y019167D01*
X022178Y01914D01*
X022249D01*
X022315Y019167D01*
X022359Y019211D01*
X022388Y019215D01*
X022417Y019211D01*
X022461Y019167D01*
X022528Y01914D01*
X022599D01*
X022665Y019167D01*
X022716Y019218D01*
X022744Y019284D01*
Y019356D01*
X022716Y019422D01*
X022693Y019445D01*
X022716Y019468D01*
X022744Y019534D01*
Y019606D01*
X022716Y019672D01*
X022665Y019723D01*
X022599Y01975D01*
D02*
G37*
G36*
X02681Y019977D02*
X026716D01*
X026626Y019953D01*
X026544Y019906D01*
X026478Y019839D01*
X026431Y019758D01*
X026407Y019667D01*
Y019573D01*
X026431Y019482D01*
X026478Y019401D01*
X026544Y019335D01*
X026626Y019288D01*
X026716Y019263D01*
X02681D01*
X026901Y019288D01*
X026983Y019335D01*
X027049Y019401D01*
X027096Y019482D01*
X02712Y019573D01*
Y019667D01*
X027096Y019758D01*
X027049Y019839D01*
X026983Y019906D01*
X026901Y019953D01*
X02681Y019977D01*
D02*
G37*
G36*
X02612D02*
X025407D01*
Y019263D01*
X02612D01*
Y019977D01*
D02*
G37*
G36*
X029549Y01945D02*
X029478D01*
X029411Y019423D01*
X029361Y019372D01*
X029333Y019306D01*
Y019234D01*
X029361Y019168D01*
X029411Y019117D01*
X029478Y01909D01*
X029549D01*
X029615Y019117D01*
X029666Y019168D01*
X029694Y019234D01*
Y019306D01*
X029666Y019372D01*
X029615Y019423D01*
X029549Y01945D01*
D02*
G37*
G36*
X030649Y01925D02*
X030578D01*
X030511Y019223D01*
X030461Y019172D01*
X030433Y019106D01*
Y019034D01*
X030461Y018968D01*
X030511Y018917D01*
X030578Y01889D01*
X030649D01*
X030715Y018917D01*
X030766Y018968D01*
X030794Y019034D01*
Y019106D01*
X030766Y019172D01*
X030715Y019223D01*
X030649Y01925D01*
D02*
G37*
G36*
X031965Y020983D02*
X031962D01*
X03188Y020967D01*
X031811Y02092D01*
X031625Y020734D01*
X028863D01*
X028782Y020718D01*
X028712Y020671D01*
X028462Y020421D01*
X028416Y020352D01*
X028399Y02027D01*
Y019859D01*
X027325Y018784D01*
X025363D01*
X025328Y018814D01*
Y01942D01*
Y01977D01*
Y020495D01*
X025311Y020577D01*
X025265Y020646D01*
X025195Y020693D01*
X025113Y020709D01*
X025032Y020693D01*
X024962Y020646D01*
X024916Y020577D01*
X024899Y020495D01*
Y01977D01*
Y01942D01*
Y01832D01*
Y01732D01*
Y01707D01*
X024916Y016988D01*
X024962Y016919D01*
X025032Y016872D01*
X025113Y016856D01*
X025363D01*
X025445Y016872D01*
X025483Y016898D01*
X025557Y016824D01*
Y016378D01*
X025573Y016296D01*
X02562Y016226D01*
X026027Y015819D01*
X026097Y015772D01*
X026179Y015756D01*
X027325D01*
X027562Y015519D01*
X027632Y015472D01*
X027713Y015456D01*
X029863D01*
X029945Y015472D01*
X030015Y015519D01*
X030365Y015869D01*
X030411Y015938D01*
X030428Y01602D01*
Y016131D01*
X030665Y016369D01*
X030711Y016438D01*
X030728Y01652D01*
Y01722D01*
Y01752D01*
X030711Y017602D01*
X030665Y017671D01*
X030595Y017718D01*
X030513Y017734D01*
X030432Y017718D01*
X030362Y017671D01*
X030316Y017602D01*
X030299Y01752D01*
Y01722D01*
Y016609D01*
X030062Y016371D01*
X030016Y016302D01*
X029999Y01622D01*
Y016109D01*
X029775Y015884D01*
X027802D01*
X027565Y016121D01*
X027495Y016168D01*
X027413Y016184D01*
X026553D01*
X026532Y016234D01*
X026566Y016268D01*
X026594Y016334D01*
Y016406D01*
X026566Y016472D01*
X026515Y016523D01*
X026449Y01655D01*
X026378D01*
X026311Y016523D01*
X026261Y016472D01*
X026233Y016406D01*
Y016334D01*
X026258Y016274D01*
X026257Y01626D01*
X026239Y016219D01*
X026234Y016218D01*
X025985Y016466D01*
Y016912D01*
X025969Y016994D01*
X025923Y017064D01*
X025515Y017471D01*
X025445Y017518D01*
X025363Y017534D01*
X025328D01*
Y018231D01*
X025452Y018356D01*
X027413D01*
X027495Y018372D01*
X027565Y018419D01*
X028765Y019619D01*
X028811Y019688D01*
X028828Y01977D01*
Y020181D01*
X028952Y020306D01*
X031625D01*
X031812Y020119D01*
X031882Y020072D01*
X031963Y020056D01*
X032225D01*
X032412Y019869D01*
X032482Y019822D01*
X032563Y019806D01*
X032645Y019822D01*
X032715Y019869D01*
X032761Y019938D01*
X032778Y02002D01*
X032761Y020102D01*
X032715Y020171D01*
X032465Y020421D01*
X032395Y020468D01*
X032313Y020484D01*
X032052D01*
X032016Y02052D01*
X032109Y020613D01*
X032116Y020618D01*
X032162Y020687D01*
X032179Y020769D01*
X032162Y020851D01*
X032116Y02092D01*
X032046Y020967D01*
X031965Y020983D01*
D02*
G37*
G36*
X03558Y019623D02*
X035447D01*
X035319Y019589D01*
X035205Y019522D01*
X035111Y019429D01*
X035045Y019314D01*
X035011Y019186D01*
Y019054D01*
X035045Y018926D01*
X035111Y018811D01*
X035205Y018718D01*
X035319Y018651D01*
X035447Y018617D01*
X03558D01*
X035708Y018651D01*
X035822Y018718D01*
X035916Y018811D01*
X035982Y018926D01*
X036016Y019054D01*
Y019186D01*
X035982Y019314D01*
X035916Y019429D01*
X035822Y019522D01*
X035708Y019589D01*
X03558Y019623D01*
D02*
G37*
G36*
X022449Y0186D02*
X022378D01*
X022311Y018573D01*
X022261Y018522D01*
X022233Y018456D01*
Y018384D01*
X022261Y018318D01*
X022311Y018267D01*
X022378Y01824D01*
X022449D01*
X022515Y018267D01*
X022566Y018318D01*
X022594Y018384D01*
Y018456D01*
X022566Y018522D01*
X022515Y018573D01*
X022449Y0186D01*
D02*
G37*
G36*
X030484Y018588D02*
X030413D01*
X030347Y018561D01*
X030296Y01851D01*
X030269Y018444D01*
Y018372D01*
X030296Y018306D01*
X030347Y018255D01*
X030413Y018228D01*
X030484D01*
X030551Y018255D01*
X030601Y018306D01*
X030629Y018372D01*
Y018444D01*
X030601Y01851D01*
X030551Y018561D01*
X030484Y018588D01*
D02*
G37*
G36*
X022449Y01785D02*
X022378D01*
X022311Y017823D01*
X022261Y017772D01*
X022233Y017706D01*
Y017634D01*
X022261Y017568D01*
X022311Y017517D01*
X022378Y01749D01*
X022449D01*
X022515Y017517D01*
X022566Y017568D01*
X022594Y017634D01*
Y017706D01*
X022566Y017772D01*
X022515Y017823D01*
X022449Y01785D01*
D02*
G37*
G36*
X027249Y0177D02*
X027178D01*
X027111Y017673D01*
X027061Y017622D01*
X027033Y017556D01*
Y017484D01*
X027061Y017418D01*
X027111Y017367D01*
X027178Y01734D01*
X027249D01*
X027315Y017367D01*
X027366Y017418D01*
X027394Y017484D01*
Y017556D01*
X027366Y017622D01*
X027315Y017673D01*
X027249Y0177D01*
D02*
G37*
G36*
X026449Y0174D02*
X026378D01*
X026311Y017373D01*
X026261Y017322D01*
X026233Y017256D01*
Y017184D01*
X026261Y017118D01*
X026311Y017067D01*
X026378Y01704D01*
X026449D01*
X026515Y017067D01*
X026566Y017118D01*
X026594Y017184D01*
Y017256D01*
X026566Y017322D01*
X026515Y017373D01*
X026449Y0174D01*
D02*
G37*
G36*
X027499Y017D02*
X027428D01*
X027361Y016973D01*
X027311Y016922D01*
X027283Y016856D01*
Y016784D01*
X027311Y016718D01*
X027361Y016667D01*
X027428Y01664D01*
X027499D01*
X027565Y016667D01*
X027616Y016718D01*
X027644Y016784D01*
Y016856D01*
X027616Y016922D01*
X027565Y016973D01*
X027499Y017D01*
D02*
G37*
G36*
X021517Y017795D02*
X021397D01*
X021279Y017772D01*
X021168Y017726D01*
X021068Y017659D01*
X020982Y017574D01*
X020916Y017474D01*
X020869Y017363D01*
X020846Y017244D01*
Y017124D01*
X020869Y017006D01*
X020916Y016895D01*
X020982Y016795D01*
X021068Y01671D01*
X021168Y016643D01*
X021279Y016597D01*
X021397Y016573D01*
X021517D01*
X021635Y016597D01*
X021747Y016643D01*
X021847Y01671D01*
X021932Y016795D01*
X021999Y016895D01*
X022045Y017006D01*
X022068Y017124D01*
Y017244D01*
X022045Y017363D01*
X021999Y017474D01*
X021932Y017574D01*
X021847Y017659D01*
X021747Y017726D01*
X021635Y017772D01*
X021517Y017795D01*
D02*
G37*
G36*
X029262Y016862D02*
X02919D01*
X029124Y016835D01*
X029073Y016784D01*
X029046Y016718D01*
Y016646D01*
X029073Y01658D01*
X029124Y01653D01*
X02919Y016502D01*
X029262D01*
X029328Y01653D01*
X029378Y01658D01*
X029406Y016646D01*
Y016718D01*
X029378Y016784D01*
X029328Y016835D01*
X029262Y016862D01*
D02*
G37*
G36*
X028837Y016438D02*
X028765D01*
X028699Y01641D01*
X028649Y01636D01*
X028621Y016294D01*
Y016222D01*
X028649Y016156D01*
X028699Y016105D01*
X028765Y016078D01*
X028837D01*
X028903Y016105D01*
X028954Y016156D01*
X028981Y016222D01*
Y016294D01*
X028954Y01636D01*
X028903Y01641D01*
X028837Y016438D01*
D02*
G37*
G36*
X022199Y01625D02*
X022128D01*
X022061Y016223D01*
X022011Y016172D01*
X021983Y016106D01*
Y016034D01*
X022011Y015968D01*
X022061Y015917D01*
X022128Y01589D01*
X022199D01*
X022265Y015917D01*
X022316Y015968D01*
X022344Y016034D01*
Y016106D01*
X022316Y016172D01*
X022265Y016223D01*
X022199Y01625D01*
D02*
G37*
G36*
X025299Y01615D02*
X025228D01*
X025161Y016123D01*
X025111Y016072D01*
X025083Y016006D01*
Y015934D01*
X025111Y015868D01*
X025161Y015817D01*
X025228Y01579D01*
X025299D01*
X025365Y015817D01*
X025416Y015868D01*
X025444Y015934D01*
Y016006D01*
X025416Y016072D01*
X025365Y016123D01*
X025299Y01615D01*
D02*
G37*
G36*
X008811Y020982D02*
X008811Y020982D01*
X00821D01*
X00821Y020982D01*
X008167Y020974D01*
X008131Y020949D01*
X008131Y020949D01*
X007904Y020723D01*
X007879Y020686D01*
X007871Y020643D01*
X007871Y020643D01*
Y017136D01*
X00783Y017095D01*
X007803Y017029D01*
Y016957D01*
X00783Y016891D01*
X007881Y016841D01*
X007947Y016813D01*
X008019D01*
X008085Y016841D01*
X008136Y016891D01*
X008163Y016957D01*
Y017029D01*
X008136Y017095D01*
X008095Y017136D01*
Y020597D01*
X008256Y020758D01*
X008726D01*
X008764Y020708D01*
X008753Y020667D01*
Y020573D01*
X008777Y020482D01*
X008824Y020401D01*
X008891Y020335D01*
X008972Y020288D01*
X009063Y020263D01*
X009157D01*
X009248Y020288D01*
X009329Y020335D01*
X009395Y020401D01*
X009442Y020482D01*
X009467Y020573D01*
Y020667D01*
X009442Y020758D01*
X009395Y020839D01*
X009329Y020906D01*
X009248Y020953D01*
X009157Y020977D01*
X009063D01*
X008972Y020953D01*
X008918Y020921D01*
X00889Y020949D01*
X008854Y020974D01*
X008811Y020982D01*
D02*
G37*
G36*
X006046Y02055D02*
X005974D01*
X005908Y020523D01*
X005857Y020472D01*
X00583Y020406D01*
Y020334D01*
X005857Y020268D01*
X005908Y020217D01*
X005974Y02019D01*
X006046D01*
X006112Y020217D01*
X006163Y020268D01*
X00619Y020334D01*
Y020406D01*
X006163Y020472D01*
X006112Y020523D01*
X006046Y02055D01*
D02*
G37*
G36*
X005946Y01975D02*
X005874D01*
X005808Y019723D01*
X005764Y019679D01*
X005735Y019675D01*
X005706Y019679D01*
X005662Y019723D01*
X005596Y01975D01*
X005524D01*
X005458Y019723D01*
X005407Y019672D01*
X00538Y019606D01*
Y019534D01*
X005407Y019468D01*
X00543Y019445D01*
X005407Y019422D01*
X00538Y019356D01*
Y019284D01*
X00538Y019283D01*
X005336Y019259D01*
X005278Y019346D01*
X005193Y019431D01*
X005093Y019498D01*
X004982Y019544D01*
X004864Y019567D01*
X004743D01*
X004625Y019544D01*
X004514Y019498D01*
X004414Y019431D01*
X004329Y019346D01*
X004262Y019245D01*
X004216Y019134D01*
X004192Y019016D01*
Y018896D01*
X004216Y018778D01*
X004262Y018666D01*
X004329Y018566D01*
X004414Y018481D01*
X004514Y018414D01*
X004625Y018368D01*
X004743Y018345D01*
X004864D01*
X004982Y018368D01*
X005093Y018414D01*
X005193Y018481D01*
X005278Y018566D01*
X005345Y018666D01*
X005391Y018778D01*
X005415Y018896D01*
Y019016D01*
X005391Y019134D01*
X005367Y019193D01*
X005407Y019218D01*
X005458Y019167D01*
X005524Y01914D01*
X005596D01*
X005662Y019167D01*
X005706Y019211D01*
X005735Y019215D01*
X005764Y019211D01*
X005808Y019167D01*
X005874Y01914D01*
X005946D01*
X006012Y019167D01*
X006063Y019218D01*
X00609Y019284D01*
Y019356D01*
X006063Y019422D01*
X00604Y019445D01*
X006063Y019468D01*
X00609Y019534D01*
Y019606D01*
X006063Y019672D01*
X006012Y019723D01*
X005946Y01975D01*
D02*
G37*
G36*
X010157Y019977D02*
X010063D01*
X009972Y019953D01*
X009891Y019906D01*
X009824Y019839D01*
X009777Y019758D01*
X009753Y019667D01*
Y019573D01*
X009777Y019482D01*
X009824Y019401D01*
X009891Y019335D01*
X009972Y019288D01*
X010063Y019263D01*
X010157D01*
X010248Y019288D01*
X010329Y019335D01*
X010395Y019401D01*
X010442Y019482D01*
X010467Y019573D01*
Y019667D01*
X010442Y019758D01*
X010395Y019839D01*
X010329Y019906D01*
X010248Y019953D01*
X010157Y019977D01*
D02*
G37*
G36*
X009467D02*
X008753D01*
Y019263D01*
X009467D01*
Y019977D01*
D02*
G37*
G36*
X012896Y01945D02*
X012824D01*
X012758Y019423D01*
X012707Y019372D01*
X01268Y019306D01*
Y019234D01*
X012707Y019168D01*
X012758Y019117D01*
X012824Y01909D01*
X012896D01*
X012962Y019117D01*
X013013Y019168D01*
X01304Y019234D01*
Y019306D01*
X013013Y019372D01*
X012962Y019423D01*
X012896Y01945D01*
D02*
G37*
G36*
X013996Y01925D02*
X013924D01*
X013858Y019223D01*
X013807Y019172D01*
X01378Y019106D01*
Y019034D01*
X013807Y018968D01*
X013858Y018917D01*
X013924Y01889D01*
X013996D01*
X014062Y018917D01*
X014113Y018968D01*
X01414Y019034D01*
Y019106D01*
X014113Y019172D01*
X014062Y019223D01*
X013996Y01925D01*
D02*
G37*
G36*
X015311Y020983D02*
X015309D01*
X015227Y020967D01*
X015157Y02092D01*
X014971Y020734D01*
X01221D01*
X012128Y020718D01*
X012059Y020671D01*
X011809Y020421D01*
X011762Y020352D01*
X011746Y02027D01*
Y019859D01*
X010671Y018784D01*
X00871D01*
X008674Y018814D01*
Y01942D01*
Y01977D01*
Y020495D01*
X008658Y020577D01*
X008611Y020646D01*
X008542Y020693D01*
X00846Y020709D01*
X008378Y020693D01*
X008309Y020646D01*
X008262Y020577D01*
X008246Y020495D01*
Y01977D01*
Y01942D01*
Y01832D01*
Y01732D01*
Y01707D01*
X008262Y016988D01*
X008309Y016919D01*
X008378Y016872D01*
X00846Y016856D01*
X00871D01*
X008792Y016872D01*
X00883Y016898D01*
X008904Y016824D01*
Y016378D01*
X00892Y016296D01*
X008966Y016226D01*
X009374Y015819D01*
X009443Y015772D01*
X009525Y015756D01*
X010671D01*
X010909Y015519D01*
X010978Y015472D01*
X01106Y015456D01*
X01321D01*
X013292Y015472D01*
X013361Y015519D01*
X013711Y015869D01*
X013758Y015938D01*
X013774Y01602D01*
Y016131D01*
X014011Y016369D01*
X014058Y016438D01*
X014074Y01652D01*
Y01722D01*
Y01752D01*
X014058Y017602D01*
X014011Y017671D01*
X013942Y017718D01*
X01386Y017734D01*
X013778Y017718D01*
X013709Y017671D01*
X013662Y017602D01*
X013646Y01752D01*
Y01722D01*
Y016609D01*
X013409Y016371D01*
X013362Y016302D01*
X013346Y01622D01*
Y016109D01*
X013121Y015884D01*
X011149D01*
X010911Y016121D01*
X010842Y016168D01*
X01076Y016184D01*
X009899D01*
X009879Y016234D01*
X009913Y016268D01*
X00994Y016334D01*
Y016406D01*
X009913Y016472D01*
X009862Y016523D01*
X009796Y01655D01*
X009724D01*
X009658Y016523D01*
X009607Y016472D01*
X00958Y016406D01*
Y016334D01*
X009605Y016274D01*
X009604Y01626D01*
X009586Y016219D01*
X00958Y016218D01*
X009332Y016466D01*
Y016912D01*
X009315Y016994D01*
X009269Y017064D01*
X008861Y017471D01*
X008792Y017518D01*
X00871Y017534D01*
X008674D01*
Y018231D01*
X008799Y018356D01*
X01076D01*
X010842Y018372D01*
X010911Y018419D01*
X012111Y019619D01*
X012158Y019688D01*
X012174Y01977D01*
Y020181D01*
X012299Y020306D01*
X014971D01*
X015159Y020119D01*
X015228Y020072D01*
X01531Y020056D01*
X015571D01*
X015759Y019869D01*
X015828Y019822D01*
X01591Y019806D01*
X015992Y019822D01*
X016061Y019869D01*
X016108Y019938D01*
X016124Y02002D01*
X016108Y020102D01*
X016061Y020171D01*
X015811Y020421D01*
X015742Y020468D01*
X01566Y020484D01*
X015399D01*
X015363Y02052D01*
X015456Y020613D01*
X015462Y020618D01*
X015509Y020687D01*
X015525Y020769D01*
X015509Y020851D01*
X015462Y02092D01*
X015393Y020967D01*
X015311Y020983D01*
D02*
G37*
G36*
X018926Y019623D02*
X018794D01*
X018666Y019589D01*
X018551Y019522D01*
X018457Y019429D01*
X018391Y019314D01*
X018357Y019186D01*
Y019054D01*
X018391Y018926D01*
X018457Y018811D01*
X018551Y018718D01*
X018666Y018651D01*
X018794Y018617D01*
X018926D01*
X019054Y018651D01*
X019169Y018718D01*
X019262Y018811D01*
X019329Y018926D01*
X019363Y019054D01*
Y019186D01*
X019329Y019314D01*
X019262Y019429D01*
X019169Y019522D01*
X019054Y019589D01*
X018926Y019623D01*
D02*
G37*
G36*
X005796Y0186D02*
X005724D01*
X005658Y018573D01*
X005607Y018522D01*
X00558Y018456D01*
Y018384D01*
X005607Y018318D01*
X005658Y018267D01*
X005724Y01824D01*
X005796D01*
X005862Y018267D01*
X005913Y018318D01*
X00594Y018384D01*
Y018456D01*
X005913Y018522D01*
X005862Y018573D01*
X005796Y0186D01*
D02*
G37*
G36*
X013831Y018588D02*
X013759D01*
X013693Y018561D01*
X013642Y01851D01*
X013615Y018444D01*
Y018372D01*
X013642Y018306D01*
X013693Y018255D01*
X013759Y018228D01*
X013831D01*
X013897Y018255D01*
X013948Y018306D01*
X013975Y018372D01*
Y018444D01*
X013948Y01851D01*
X013897Y018561D01*
X013831Y018588D01*
D02*
G37*
G36*
X005796Y01785D02*
X005724D01*
X005658Y017823D01*
X005607Y017772D01*
X00558Y017706D01*
Y017634D01*
X005607Y017568D01*
X005658Y017517D01*
X005724Y01749D01*
X005796D01*
X005862Y017517D01*
X005913Y017568D01*
X00594Y017634D01*
Y017706D01*
X005913Y017772D01*
X005862Y017823D01*
X005796Y01785D01*
D02*
G37*
G36*
X010596Y0177D02*
X010524D01*
X010458Y017673D01*
X010407Y017622D01*
X01038Y017556D01*
Y017484D01*
X010407Y017418D01*
X010458Y017367D01*
X010524Y01734D01*
X010596D01*
X010662Y017367D01*
X010713Y017418D01*
X01074Y017484D01*
Y017556D01*
X010713Y017622D01*
X010662Y017673D01*
X010596Y0177D01*
D02*
G37*
G36*
X009796Y0174D02*
X009724D01*
X009658Y017373D01*
X009607Y017322D01*
X00958Y017256D01*
Y017184D01*
X009607Y017118D01*
X009658Y017067D01*
X009724Y01704D01*
X009796D01*
X009862Y017067D01*
X009913Y017118D01*
X00994Y017184D01*
Y017256D01*
X009913Y017322D01*
X009862Y017373D01*
X009796Y0174D01*
D02*
G37*
G36*
X010846Y017D02*
X010774D01*
X010708Y016973D01*
X010657Y016922D01*
X01063Y016856D01*
Y016784D01*
X010657Y016718D01*
X010708Y016667D01*
X010774Y01664D01*
X010846D01*
X010912Y016667D01*
X010963Y016718D01*
X01099Y016784D01*
Y016856D01*
X010963Y016922D01*
X010912Y016973D01*
X010846Y017D01*
D02*
G37*
G36*
X004864Y017795D02*
X004743D01*
X004625Y017772D01*
X004514Y017726D01*
X004414Y017659D01*
X004329Y017574D01*
X004262Y017474D01*
X004216Y017363D01*
X004192Y017244D01*
Y017124D01*
X004216Y017006D01*
X004262Y016895D01*
X004329Y016795D01*
X004414Y01671D01*
X004514Y016643D01*
X004625Y016597D01*
X004743Y016573D01*
X004864D01*
X004982Y016597D01*
X005093Y016643D01*
X005193Y01671D01*
X005278Y016795D01*
X005345Y016895D01*
X005391Y017006D01*
X005415Y017124D01*
Y017244D01*
X005391Y017363D01*
X005345Y017474D01*
X005278Y017574D01*
X005193Y017659D01*
X005093Y017726D01*
X004982Y017772D01*
X004864Y017795D01*
D02*
G37*
G36*
X012608Y016862D02*
X012536D01*
X01247Y016835D01*
X01242Y016784D01*
X012392Y016718D01*
Y016646D01*
X01242Y01658D01*
X01247Y01653D01*
X012536Y016502D01*
X012608D01*
X012674Y01653D01*
X012725Y01658D01*
X012752Y016646D01*
Y016718D01*
X012725Y016784D01*
X012674Y016835D01*
X012608Y016862D01*
D02*
G37*
G36*
X012183Y016438D02*
X012112D01*
X012046Y01641D01*
X011995Y01636D01*
X011968Y016294D01*
Y016222D01*
X011995Y016156D01*
X012046Y016105D01*
X012112Y016078D01*
X012183D01*
X01225Y016105D01*
X0123Y016156D01*
X012328Y016222D01*
Y016294D01*
X0123Y01636D01*
X01225Y01641D01*
X012183Y016438D01*
D02*
G37*
G36*
X005546Y01625D02*
X005474D01*
X005408Y016223D01*
X005357Y016172D01*
X00533Y016106D01*
Y016034D01*
X005357Y015968D01*
X005408Y015917D01*
X005474Y01589D01*
X005546D01*
X005612Y015917D01*
X005663Y015968D01*
X00569Y016034D01*
Y016106D01*
X005663Y016172D01*
X005612Y016223D01*
X005546Y01625D01*
D02*
G37*
G36*
X008646Y01615D02*
X008574D01*
X008508Y016123D01*
X008457Y016072D01*
X00843Y016006D01*
Y015934D01*
X008457Y015868D01*
X008508Y015817D01*
X008574Y01579D01*
X008646D01*
X008712Y015817D01*
X008763Y015868D01*
X00879Y015934D01*
Y016006D01*
X008763Y016072D01*
X008712Y016123D01*
X008646Y01615D01*
D02*
G37*
G36*
X022126Y012917D02*
X022055D01*
X021989Y01289D01*
X021938Y012839D01*
X02191Y012773D01*
Y012701D01*
X021938Y012635D01*
X021989Y012584D01*
X022055Y012557D01*
X022126D01*
X022193Y012584D01*
X022243Y012635D01*
X022271Y012701D01*
Y012773D01*
X022243Y012839D01*
X022193Y01289D01*
X022126Y012917D01*
D02*
G37*
G36*
X026238Y013244D02*
X026144D01*
X026053Y01322D01*
X025971Y013173D01*
X025905Y013106D01*
X025858Y013025D01*
X025834Y012934D01*
Y01284D01*
X025858Y012749D01*
X025905Y012668D01*
X025971Y012601D01*
X026053Y012554D01*
X026144Y01253D01*
X026238D01*
X026328Y012554D01*
X02641Y012601D01*
X026476Y012668D01*
X026523Y012749D01*
X026547Y01284D01*
Y012934D01*
X026523Y013025D01*
X026476Y013106D01*
X02641Y013173D01*
X026328Y01322D01*
X026238Y013244D01*
D02*
G37*
G36*
X027238Y012244D02*
X027144D01*
X027053Y01222D01*
X026971Y012173D01*
X026905Y012106D01*
X026858Y012025D01*
X026834Y011934D01*
Y01184D01*
X026858Y011749D01*
X026905Y011668D01*
X026971Y011601D01*
X027053Y011554D01*
X027144Y01153D01*
X027238D01*
X027328Y011554D01*
X02741Y011601D01*
X027476Y011668D01*
X027523Y011749D01*
X027547Y01184D01*
Y011934D01*
X027523Y012025D01*
X027476Y012106D01*
X02741Y012173D01*
X027328Y01222D01*
X027238Y012244D01*
D02*
G37*
G36*
X026547D02*
X025834D01*
Y01153D01*
X026547D01*
Y012244D01*
D02*
G37*
G36*
X022576Y011067D02*
X022505D01*
X022439Y01104D01*
X022395Y010996D01*
X022366Y010992D01*
X022337Y010996D01*
X022293Y01104D01*
X022226Y011067D01*
X022155D01*
X022089Y01104D01*
X022038Y010989D01*
X02201Y010923D01*
Y010851D01*
X022038Y010785D01*
X022061Y010762D01*
X022038Y010739D01*
X02201Y010673D01*
Y010628D01*
X02196Y010613D01*
X021909Y01069D01*
X021824Y010775D01*
X021724Y010842D01*
X021613Y010888D01*
X021494Y010912D01*
X021374D01*
X021256Y010888D01*
X021145Y010842D01*
X021045Y010775D01*
X02096Y01069D01*
X020893Y01059D01*
X020847Y010479D01*
X020823Y010361D01*
Y010241D01*
X020847Y010122D01*
X020893Y010011D01*
X02096Y009911D01*
X021045Y009826D01*
X021145Y009759D01*
X021256Y009713D01*
X021374Y00969D01*
X021494D01*
X021613Y009713D01*
X021724Y009759D01*
X021824Y009826D01*
X021909Y009911D01*
X021976Y010011D01*
X022022Y010122D01*
X022045Y010241D01*
Y010361D01*
X022022Y010479D01*
X022021Y010481D01*
X022063Y010509D01*
X022089Y010484D01*
X022155Y010457D01*
X022226D01*
X022293Y010484D01*
X022337Y010528D01*
X022366Y010532D01*
X022395Y010528D01*
X022439Y010484D01*
X022505Y010457D01*
X022562D01*
X022828Y010191D01*
Y008062D01*
X022828Y008062D01*
X022837Y008019D01*
X022861Y007983D01*
X023442Y007403D01*
Y006574D01*
X023442Y006574D01*
X02345Y006531D01*
X023475Y006494D01*
X024261Y005708D01*
X024261Y005708D01*
X024298Y005683D01*
X024341Y005675D01*
X024341Y005675D01*
X024498D01*
X024539Y005634D01*
X024605Y005607D01*
X024676D01*
X024743Y005634D01*
X024793Y005685D01*
X024821Y005751D01*
Y005823D01*
X024793Y005889D01*
X024743Y00594D01*
X024676Y005967D01*
X024605D01*
X024539Y00594D01*
X024498Y005899D01*
X024387D01*
X023666Y00662D01*
Y007449D01*
X023666Y007449D01*
X023658Y007492D01*
X023633Y007528D01*
X023633Y007528D01*
X023053Y008109D01*
Y010237D01*
X023044Y01028D01*
X02302Y010316D01*
X02302Y010316D01*
X022721Y010616D01*
Y010673D01*
X022693Y010739D01*
X02267Y010762D01*
X022693Y010785D01*
X022721Y010851D01*
Y010923D01*
X022693Y010989D01*
X022643Y01104D01*
X022576Y011067D01*
D02*
G37*
G36*
X024441Y014301D02*
X024191D01*
X024109Y014285D01*
X024039Y014238D01*
X023993Y014169D01*
X023976Y014087D01*
Y01382D01*
Y011228D01*
Y010276D01*
X023909Y010208D01*
X023863Y010139D01*
X023846Y010057D01*
Y009345D01*
X023863Y009263D01*
X023909Y009194D01*
X023976Y009127D01*
Y008851D01*
X023941D01*
X023859Y008835D01*
X023789Y008788D01*
X023743Y008719D01*
X023726Y008637D01*
Y008387D01*
X023743Y008305D01*
X023789Y008236D01*
X023859Y008189D01*
X023941Y008173D01*
X024174D01*
X026727Y005619D01*
Y005539D01*
X026711Y005499D01*
X026661Y005449D01*
X026639Y00544D01*
X026588Y005389D01*
X02656Y005323D01*
Y005251D01*
X026588Y005185D01*
X026639Y005134D01*
X026705Y005107D01*
X026776D01*
X026843Y005134D01*
X026893Y005185D01*
X026918Y005244D01*
X026976Y005302D01*
X026993Y005309D01*
X027043Y00536D01*
X027071Y005426D01*
Y005498D01*
X027054Y005539D01*
Y005687D01*
X027041Y005749D01*
X027006Y005802D01*
X024401Y008408D01*
X024388Y008469D01*
X02436Y008512D01*
X024388Y008555D01*
X024405Y008637D01*
Y009215D01*
X024388Y009297D01*
X024342Y009367D01*
X024275Y009434D01*
Y009968D01*
X024279Y009973D01*
X026552D01*
X028589Y007936D01*
X028589Y007936D01*
X028686Y007839D01*
X028693Y007805D01*
X028739Y007736D01*
X028809Y007689D01*
X028891Y007673D01*
X028972Y007689D01*
X029042Y007736D01*
X029088Y007805D01*
X029105Y007887D01*
Y008105D01*
X029138Y008155D01*
X029155Y008237D01*
X029138Y008319D01*
X029092Y008388D01*
X029022Y008435D01*
X028941Y008451D01*
X028859Y008435D01*
X028789Y008388D01*
X028742D01*
X026792Y010338D01*
X026722Y010385D01*
X026641Y010401D01*
X024405D01*
Y011014D01*
X027381D01*
X027393Y010955D01*
X027439Y010886D01*
X027509Y010839D01*
X027591Y010823D01*
X027891D01*
X027972Y010839D01*
X028042Y010886D01*
X028088Y010955D01*
X0281Y011014D01*
X030811D01*
X030876Y010948D01*
Y010937D01*
X030893Y010855D01*
X030939Y010786D01*
X031009Y010739D01*
X031091Y010723D01*
X031141Y010733D01*
X031191Y010723D01*
X031341D01*
X031422Y010739D01*
X031492Y010786D01*
X031538Y010855D01*
X031555Y010937D01*
X031538Y011019D01*
X031492Y011088D01*
X031422Y011135D01*
X031341Y011151D01*
X031279D01*
X031242Y011188D01*
X031242Y011188D01*
X031051Y01138D01*
X030981Y011426D01*
X030899Y011442D01*
X030305D01*
Y011637D01*
X030288Y011719D01*
X030242Y011788D01*
X030172Y011835D01*
X030091Y011851D01*
X030009Y011835D01*
X029939Y011788D01*
X029893Y011719D01*
X029876Y011637D01*
Y011476D01*
X029843Y011442D01*
X027699D01*
X027645Y011432D01*
X027591Y011442D01*
X024405D01*
Y013623D01*
X024441D01*
X024522Y013639D01*
X024592Y013686D01*
X024638Y013755D01*
X024655Y013837D01*
X024638Y013919D01*
X02461Y013962D01*
X024638Y014005D01*
X024655Y014087D01*
X024638Y014169D01*
X024592Y014238D01*
X024522Y014285D01*
X024441Y014301D01*
D02*
G37*
G36*
X027676Y010467D02*
X027605D01*
X027539Y01044D01*
X027488Y010389D01*
X02746Y010323D01*
Y010251D01*
X027488Y010185D01*
X027539Y010134D01*
X027605Y010107D01*
X027676D01*
X027743Y010134D01*
X027793Y010185D01*
X027821Y010251D01*
Y010323D01*
X027793Y010389D01*
X027743Y01044D01*
X027676Y010467D01*
D02*
G37*
G36*
X028976Y010217D02*
X028905D01*
X028839Y01019D01*
X028788Y010139D01*
X02876Y010073D01*
Y010001D01*
X028788Y009935D01*
X028839Y009884D01*
X028905Y009857D01*
X028976D01*
X029043Y009884D01*
X029093Y009935D01*
X029121Y010001D01*
Y010073D01*
X029093Y010139D01*
X029043Y01019D01*
X028976Y010217D01*
D02*
G37*
G36*
X022389Y010004D02*
X022318D01*
X022252Y009977D01*
X022201Y009926D01*
X022173Y00986D01*
Y009788D01*
X022201Y009722D01*
X022252Y009671D01*
X022318Y009644D01*
X022389D01*
X022456Y009671D01*
X022506Y009722D01*
X022534Y009788D01*
Y00986D01*
X022506Y009926D01*
X022456Y009977D01*
X022389Y010004D01*
D02*
G37*
G36*
X028826Y009317D02*
X028755D01*
X028689Y00929D01*
X028638Y009239D01*
X02861Y009173D01*
Y009101D01*
X028638Y009035D01*
X028689Y008984D01*
X028755Y008957D01*
X028826D01*
X028893Y008984D01*
X028943Y009035D01*
X028971Y009101D01*
Y009173D01*
X028943Y009239D01*
X028893Y00929D01*
X028826Y009317D01*
D02*
G37*
G36*
X022426Y009217D02*
X022355D01*
X022289Y00919D01*
X022238Y009139D01*
X02221Y009073D01*
Y009001D01*
X022238Y008935D01*
X022289Y008884D01*
X022355Y008857D01*
X022426D01*
X022493Y008884D01*
X022543Y008935D01*
X022571Y009001D01*
Y009073D01*
X022543Y009139D01*
X022493Y00919D01*
X022426Y009217D01*
D02*
G37*
G36*
X025826Y008817D02*
X025755D01*
X025689Y00879D01*
X025638Y008739D01*
X02561Y008673D01*
Y008601D01*
X025638Y008535D01*
X025689Y008484D01*
X025755Y008457D01*
X025826D01*
X025893Y008484D01*
X025943Y008535D01*
X025971Y008601D01*
Y008673D01*
X025943Y008739D01*
X025893Y00879D01*
X025826Y008817D01*
D02*
G37*
G36*
X021494Y00914D02*
X021374D01*
X021256Y009117D01*
X021145Y009071D01*
X021045Y009004D01*
X02096Y008919D01*
X020893Y008819D01*
X020847Y008707D01*
X020823Y008589D01*
Y008469D01*
X020847Y008351D01*
X020893Y00824D01*
X02096Y008139D01*
X021045Y008054D01*
X021145Y007987D01*
X021256Y007941D01*
X021374Y007918D01*
X021494D01*
X021613Y007941D01*
X021724Y007987D01*
X021824Y008054D01*
X021909Y008139D01*
X021976Y00824D01*
X022022Y008351D01*
X022045Y008469D01*
Y008589D01*
X022022Y008707D01*
X021976Y008819D01*
X021909Y008919D01*
X021824Y009004D01*
X021724Y009071D01*
X021613Y009117D01*
X021494Y00914D01*
D02*
G37*
G36*
X025276Y008267D02*
X025205D01*
X025139Y00824D01*
X025088Y008189D01*
X02506Y008123D01*
Y008051D01*
X025088Y007985D01*
X025139Y007934D01*
X025205Y007907D01*
X025276D01*
X025343Y007934D01*
X025393Y007985D01*
X025421Y008051D01*
Y008123D01*
X025393Y008189D01*
X025343Y00824D01*
X025276Y008267D01*
D02*
G37*
G36*
X027526Y007567D02*
X027455D01*
X027389Y00754D01*
X027338Y007489D01*
X02731Y007423D01*
Y007351D01*
X027338Y007285D01*
X027389Y007234D01*
X027455Y007207D01*
X027526D01*
X027593Y007234D01*
X027643Y007285D01*
X027671Y007351D01*
Y007423D01*
X027643Y007489D01*
X027593Y00754D01*
X027526Y007567D01*
D02*
G37*
G36*
X025076Y006967D02*
X025005D01*
X024939Y00694D01*
X024888Y006889D01*
X02486Y006823D01*
Y006751D01*
X024888Y006685D01*
X024939Y006634D01*
X025005Y006607D01*
X025076D01*
X025143Y006634D01*
X025193Y006685D01*
X025221Y006751D01*
Y006823D01*
X025193Y006889D01*
X025143Y00694D01*
X025076Y006967D01*
D02*
G37*
G36*
X024626Y006467D02*
X024555D01*
X024489Y00644D01*
X024438Y006389D01*
X02441Y006323D01*
Y006251D01*
X024438Y006185D01*
X024489Y006134D01*
X024555Y006107D01*
X024626D01*
X024693Y006134D01*
X024743Y006185D01*
X024771Y006251D01*
Y006323D01*
X024743Y006389D01*
X024693Y00644D01*
X024626Y006467D01*
D02*
G37*
G36*
X005473Y012917D02*
X005401D01*
X005335Y01289D01*
X005284Y012839D01*
X005257Y012773D01*
Y012701D01*
X005284Y012635D01*
X005335Y012584D01*
X005401Y012557D01*
X005473D01*
X005539Y012584D01*
X00559Y012635D01*
X005617Y012701D01*
Y012773D01*
X00559Y012839D01*
X005539Y01289D01*
X005473Y012917D01*
D02*
G37*
G36*
X009584Y013244D02*
X00949D01*
X009399Y01322D01*
X009318Y013173D01*
X009251Y013106D01*
X009204Y013025D01*
X00918Y012934D01*
Y01284D01*
X009204Y012749D01*
X009251Y012668D01*
X009318Y012601D01*
X009399Y012554D01*
X00949Y01253D01*
X009584D01*
X009675Y012554D01*
X009756Y012601D01*
X009823Y012668D01*
X00987Y012749D01*
X009894Y01284D01*
Y012934D01*
X00987Y013025D01*
X009823Y013106D01*
X009756Y013173D01*
X009675Y01322D01*
X009584Y013244D01*
D02*
G37*
G36*
X010584Y012244D02*
X01049D01*
X010399Y01222D01*
X010318Y012173D01*
X010251Y012106D01*
X010204Y012025D01*
X01018Y011934D01*
Y01184D01*
X010204Y011749D01*
X010251Y011668D01*
X010318Y011601D01*
X010399Y011554D01*
X01049Y01153D01*
X010584D01*
X010675Y011554D01*
X010756Y011601D01*
X010823Y011668D01*
X01087Y011749D01*
X010894Y01184D01*
Y011934D01*
X01087Y012025D01*
X010823Y012106D01*
X010756Y012173D01*
X010675Y01222D01*
X010584Y012244D01*
D02*
G37*
G36*
X009894D02*
X00918D01*
Y01153D01*
X009894D01*
Y012244D01*
D02*
G37*
G36*
X005923Y011067D02*
X005851D01*
X005785Y01104D01*
X005741Y010996D01*
X005712Y010992D01*
X005683Y010996D01*
X005639Y01104D01*
X005573Y011067D01*
X005501D01*
X005435Y01104D01*
X005384Y010989D01*
X005357Y010923D01*
Y010851D01*
X005384Y010785D01*
X005407Y010762D01*
X005384Y010739D01*
X005357Y010673D01*
Y010628D01*
X005307Y010613D01*
X005255Y01069D01*
X00517Y010775D01*
X00507Y010842D01*
X004959Y010888D01*
X004841Y010912D01*
X004721D01*
X004602Y010888D01*
X004491Y010842D01*
X004391Y010775D01*
X004306Y01069D01*
X004239Y01059D01*
X004193Y010479D01*
X00417Y010361D01*
Y010241D01*
X004193Y010122D01*
X004239Y010011D01*
X004306Y009911D01*
X004391Y009826D01*
X004491Y009759D01*
X004602Y009713D01*
X004721Y00969D01*
X004841D01*
X004959Y009713D01*
X00507Y009759D01*
X00517Y009826D01*
X005255Y009911D01*
X005322Y010011D01*
X005368Y010122D01*
X005392Y010241D01*
Y010361D01*
X005368Y010479D01*
X005368Y010481D01*
X00541Y010509D01*
X005435Y010484D01*
X005501Y010457D01*
X005573D01*
X005639Y010484D01*
X005683Y010528D01*
X005712Y010532D01*
X005741Y010528D01*
X005785Y010484D01*
X005851Y010457D01*
X005908D01*
X006175Y010191D01*
Y008062D01*
X006175Y008062D01*
X006183Y008019D01*
X006208Y007983D01*
X006788Y007403D01*
Y006574D01*
X006788Y006574D01*
X006797Y006531D01*
X006821Y006494D01*
X007608Y005708D01*
X007608Y005708D01*
X007644Y005683D01*
X007687Y005675D01*
X007687Y005675D01*
X007844D01*
X007885Y005634D01*
X007951Y005607D01*
X008023D01*
X008089Y005634D01*
X00814Y005685D01*
X008167Y005751D01*
Y005823D01*
X00814Y005889D01*
X008089Y00594D01*
X008023Y005967D01*
X007951D01*
X007885Y00594D01*
X007844Y005899D01*
X007733D01*
X007013Y00662D01*
Y007449D01*
X007013Y007449D01*
X007004Y007492D01*
X00698Y007528D01*
X00698Y007528D01*
X006399Y008109D01*
Y010237D01*
X006391Y01028D01*
X006366Y010316D01*
X006366Y010316D01*
X006067Y010616D01*
Y010673D01*
X00604Y010739D01*
X006017Y010762D01*
X00604Y010785D01*
X006067Y010851D01*
Y010923D01*
X00604Y010989D01*
X005989Y01104D01*
X005923Y011067D01*
D02*
G37*
G36*
X007787Y014301D02*
X007537D01*
X007455Y014285D01*
X007386Y014238D01*
X007339Y014169D01*
X007323Y014087D01*
Y01382D01*
Y011228D01*
Y010276D01*
X007256Y010208D01*
X007209Y010139D01*
X007193Y010057D01*
Y009345D01*
X007209Y009263D01*
X007256Y009194D01*
X007323Y009127D01*
Y008851D01*
X007287D01*
X007205Y008835D01*
X007136Y008788D01*
X007089Y008719D01*
X007073Y008637D01*
Y008387D01*
X007089Y008305D01*
X007136Y008236D01*
X007205Y008189D01*
X007287Y008173D01*
X00752D01*
X010074Y005619D01*
Y005539D01*
X010057Y005499D01*
X010007Y005449D01*
X009985Y00544D01*
X009934Y005389D01*
X009907Y005323D01*
Y005251D01*
X009934Y005185D01*
X009985Y005134D01*
X010051Y005107D01*
X010123D01*
X010189Y005134D01*
X01024Y005185D01*
X010264Y005244D01*
X010322Y005302D01*
X010339Y005309D01*
X01039Y00536D01*
X010417Y005426D01*
Y005498D01*
X0104Y005539D01*
Y005687D01*
X010388Y005749D01*
X010352Y005802D01*
X007747Y008408D01*
X007735Y008469D01*
X007706Y008512D01*
X007735Y008555D01*
X007751Y008637D01*
Y009215D01*
X007735Y009297D01*
X007688Y009367D01*
X007621Y009434D01*
Y009968D01*
X007626Y009973D01*
X009898D01*
X011936Y007936D01*
X011936Y007936D01*
X012033Y007839D01*
X012039Y007805D01*
X012086Y007736D01*
X012155Y007689D01*
X012237Y007673D01*
X012319Y007689D01*
X012388Y007736D01*
X012435Y007805D01*
X012451Y007887D01*
Y008105D01*
X012485Y008155D01*
X012501Y008237D01*
X012485Y008319D01*
X012438Y008388D01*
X012369Y008435D01*
X012287Y008451D01*
X012205Y008435D01*
X012136Y008388D01*
X012088D01*
X010138Y010338D01*
X010069Y010385D01*
X009987Y010401D01*
X007751D01*
Y011014D01*
X010727D01*
X010739Y010955D01*
X010786Y010886D01*
X010855Y010839D01*
X010937Y010823D01*
X011237D01*
X011319Y010839D01*
X011388Y010886D01*
X011435Y010955D01*
X011447Y011014D01*
X014157D01*
X014223Y010948D01*
Y010937D01*
X014239Y010855D01*
X014286Y010786D01*
X014355Y010739D01*
X014437Y010723D01*
X014487Y010733D01*
X014537Y010723D01*
X014687D01*
X014769Y010739D01*
X014838Y010786D01*
X014885Y010855D01*
X014901Y010937D01*
X014885Y011019D01*
X014838Y011088D01*
X014769Y011135D01*
X014687Y011151D01*
X014626D01*
X014588Y011188D01*
X014588Y011188D01*
X014397Y01138D01*
X014328Y011426D01*
X014246Y011442D01*
X013651D01*
Y011637D01*
X013635Y011719D01*
X013588Y011788D01*
X013519Y011835D01*
X013437Y011851D01*
X013355Y011835D01*
X013286Y011788D01*
X013239Y011719D01*
X013223Y011637D01*
Y011476D01*
X01319Y011442D01*
X011046D01*
X010991Y011432D01*
X010937Y011442D01*
X007751D01*
Y013623D01*
X007787D01*
X007869Y013639D01*
X007938Y013686D01*
X007985Y013755D01*
X008001Y013837D01*
X007985Y013919D01*
X007956Y013962D01*
X007985Y014005D01*
X008001Y014087D01*
X007985Y014169D01*
X007938Y014238D01*
X007869Y014285D01*
X007787Y014301D01*
D02*
G37*
G36*
X011023Y010467D02*
X010951D01*
X010885Y01044D01*
X010834Y010389D01*
X010807Y010323D01*
Y010251D01*
X010834Y010185D01*
X010885Y010134D01*
X010951Y010107D01*
X011023D01*
X011089Y010134D01*
X01114Y010185D01*
X011167Y010251D01*
Y010323D01*
X01114Y010389D01*
X011089Y01044D01*
X011023Y010467D01*
D02*
G37*
G36*
X012323Y010217D02*
X012251D01*
X012185Y01019D01*
X012134Y010139D01*
X012107Y010073D01*
Y010001D01*
X012134Y009935D01*
X012185Y009884D01*
X012251Y009857D01*
X012323D01*
X012389Y009884D01*
X01244Y009935D01*
X012467Y010001D01*
Y010073D01*
X01244Y010139D01*
X012389Y01019D01*
X012323Y010217D01*
D02*
G37*
G36*
X005736Y010004D02*
X005664D01*
X005598Y009977D01*
X005547Y009926D01*
X00552Y00986D01*
Y009788D01*
X005547Y009722D01*
X005598Y009671D01*
X005664Y009644D01*
X005736D01*
X005802Y009671D01*
X005853Y009722D01*
X00588Y009788D01*
Y00986D01*
X005853Y009926D01*
X005802Y009977D01*
X005736Y010004D01*
D02*
G37*
G36*
X012173Y009317D02*
X012101D01*
X012035Y00929D01*
X011984Y009239D01*
X011957Y009173D01*
Y009101D01*
X011984Y009035D01*
X012035Y008984D01*
X012101Y008957D01*
X012173D01*
X012239Y008984D01*
X01229Y009035D01*
X012317Y009101D01*
Y009173D01*
X01229Y009239D01*
X012239Y00929D01*
X012173Y009317D01*
D02*
G37*
G36*
X005773Y009217D02*
X005701D01*
X005635Y00919D01*
X005584Y009139D01*
X005557Y009073D01*
Y009001D01*
X005584Y008935D01*
X005635Y008884D01*
X005701Y008857D01*
X005773D01*
X005839Y008884D01*
X00589Y008935D01*
X005917Y009001D01*
Y009073D01*
X00589Y009139D01*
X005839Y00919D01*
X005773Y009217D01*
D02*
G37*
G36*
X009173Y008817D02*
X009101D01*
X009035Y00879D01*
X008984Y008739D01*
X008957Y008673D01*
Y008601D01*
X008984Y008535D01*
X009035Y008484D01*
X009101Y008457D01*
X009173D01*
X009239Y008484D01*
X00929Y008535D01*
X009317Y008601D01*
Y008673D01*
X00929Y008739D01*
X009239Y00879D01*
X009173Y008817D01*
D02*
G37*
G36*
X004841Y00914D02*
X004721D01*
X004602Y009117D01*
X004491Y009071D01*
X004391Y009004D01*
X004306Y008919D01*
X004239Y008819D01*
X004193Y008707D01*
X00417Y008589D01*
Y008469D01*
X004193Y008351D01*
X004239Y00824D01*
X004306Y008139D01*
X004391Y008054D01*
X004491Y007987D01*
X004602Y007941D01*
X004721Y007918D01*
X004841D01*
X004959Y007941D01*
X00507Y007987D01*
X00517Y008054D01*
X005255Y008139D01*
X005322Y00824D01*
X005368Y008351D01*
X005392Y008469D01*
Y008589D01*
X005368Y008707D01*
X005322Y008819D01*
X005255Y008919D01*
X00517Y009004D01*
X00507Y009071D01*
X004959Y009117D01*
X004841Y00914D01*
D02*
G37*
G36*
X008623Y008267D02*
X008551D01*
X008485Y00824D01*
X008434Y008189D01*
X008407Y008123D01*
Y008051D01*
X008434Y007985D01*
X008485Y007934D01*
X008551Y007907D01*
X008623D01*
X008689Y007934D01*
X00874Y007985D01*
X008767Y008051D01*
Y008123D01*
X00874Y008189D01*
X008689Y00824D01*
X008623Y008267D01*
D02*
G37*
G36*
X010873Y007567D02*
X010801D01*
X010735Y00754D01*
X010684Y007489D01*
X010657Y007423D01*
Y007351D01*
X010684Y007285D01*
X010735Y007234D01*
X010801Y007207D01*
X010873D01*
X010939Y007234D01*
X01099Y007285D01*
X011017Y007351D01*
Y007423D01*
X01099Y007489D01*
X010939Y00754D01*
X010873Y007567D01*
D02*
G37*
G36*
X008423Y006967D02*
X008351D01*
X008285Y00694D01*
X008234Y006889D01*
X008207Y006823D01*
Y006751D01*
X008234Y006685D01*
X008285Y006634D01*
X008351Y006607D01*
X008423D01*
X008489Y006634D01*
X00854Y006685D01*
X008567Y006751D01*
Y006823D01*
X00854Y006889D01*
X008489Y00694D01*
X008423Y006967D01*
D02*
G37*
G36*
X007973Y006467D02*
X007901D01*
X007835Y00644D01*
X007784Y006389D01*
X007757Y006323D01*
Y006251D01*
X007784Y006185D01*
X007835Y006134D01*
X007901Y006107D01*
X007973D01*
X008039Y006134D01*
X00809Y006185D01*
X008117Y006251D01*
Y006323D01*
X00809Y006389D01*
X008039Y00644D01*
X007973Y006467D01*
D02*
G37*
%LPD*%
D36*
X024191Y011228D02*
X027591D01*
Y011037D02*
Y011228D01*
X02406Y009345D02*
X024191Y009215D01*
X028891Y007937D02*
Y008087D01*
X024191Y008637D02*
Y009215D01*
X02406Y009345D02*
Y010057D01*
X024191Y010187D01*
X028891Y008087D02*
Y008187D01*
X031091Y011037D02*
X031191Y010937D01*
X031091D02*
Y011037D01*
X029932Y011228D02*
X030899D01*
X031191Y010937D02*
X031341D01*
X030899Y011228D02*
X031091Y011037D01*
X027699Y011228D02*
X029682D01*
X029932D01*
X030091Y011387D01*
Y011637D01*
X027699Y011228D02*
X027891Y011037D01*
X028741Y008087D02*
X028891Y007937D01*
Y007887D02*
Y007937D01*
Y008187D02*
X028941Y008237D01*
X024191Y010187D02*
Y011228D01*
Y010187D02*
X026641D01*
X028741Y008087D01*
X027591Y011037D02*
X027891D01*
X024191Y011228D02*
Y01382D01*
X023941Y008387D02*
Y008637D01*
X024191Y014087D02*
X024441D01*
X023941Y008637D02*
X024191D01*
X023941Y008387D02*
X024191D01*
Y01382D02*
Y014087D01*
X024208Y013837D02*
X024441D01*
X024191Y01382D02*
X024208Y013837D01*
X007537Y011228D02*
X010937D01*
Y011037D02*
Y011228D01*
X007407Y009345D02*
X007537Y009215D01*
X012237Y007937D02*
Y008087D01*
X007537Y008637D02*
Y009215D01*
X007407Y009345D02*
Y010057D01*
X007537Y010187D01*
X012237Y008087D02*
Y008187D01*
X014437Y011037D02*
X014537Y010937D01*
X014437D02*
Y011037D01*
X013278Y011228D02*
X014246D01*
X014537Y010937D02*
X014687D01*
X014246Y011228D02*
X014437Y011037D01*
X011046Y011228D02*
X013028D01*
X013278D01*
X013437Y011387D01*
Y011637D01*
X011046Y011228D02*
X011237Y011037D01*
X012087Y008087D02*
X012237Y007937D01*
Y007887D02*
Y007937D01*
Y008187D02*
X012287Y008237D01*
X007537Y010187D02*
Y011228D01*
Y010187D02*
X009987D01*
X012087Y008087D01*
X010937Y011037D02*
X011237D01*
X007537Y011228D02*
Y01382D01*
X007287Y008387D02*
Y008637D01*
X007537Y014087D02*
X007787D01*
X007287Y008637D02*
X007537D01*
X007287Y008387D02*
X007537D01*
Y01382D02*
Y014087D01*
X007554Y013837D02*
X007787D01*
X007537Y01382D02*
X007554Y013837D01*
X00851Y024441D02*
X00916Y023791D01*
Y023091D02*
Y023791D01*
Y023091D02*
X00971Y022541D01*
X00881Y024841D02*
X01096D01*
X00851Y024441D02*
Y024991D01*
Y025141D02*
X00881Y024841D01*
X00851Y024991D02*
Y025141D01*
X01096Y024841D02*
X01136Y024441D01*
X01081Y024991D02*
X01096Y024841D01*
X01056Y024991D02*
X01081D01*
X00851Y024441D02*
X01136D01*
X01191Y026491D02*
X01201Y026591D01*
Y026741D01*
X01166D02*
X01201D01*
X01411Y023391D02*
X01431Y023591D01*
X01136Y024441D02*
X01136Y024441D01*
X01166Y026741D02*
X01191Y026491D01*
X01391Y023591D02*
X01411Y023391D01*
Y023791D02*
X01431Y023591D01*
X01391D02*
X01411Y023791D01*
X01136Y024441D02*
X01306D01*
X01391Y023591D01*
X00851Y025141D02*
Y025441D01*
X01116Y025591D02*
Y026241D01*
X01166Y026741D01*
X01056Y024991D02*
X01116Y025591D01*
X025163Y024441D02*
X025813Y023791D01*
Y023091D02*
Y023791D01*
Y023091D02*
X026363Y022541D01*
X025463Y024841D02*
X027613D01*
X025163Y024441D02*
Y024991D01*
Y025141D02*
X025463Y024841D01*
X025163Y024991D02*
Y025141D01*
X027613Y024841D02*
X028013Y024441D01*
X027463Y024991D02*
X027613Y024841D01*
X027213Y024991D02*
X027463D01*
X025163Y024441D02*
X028013D01*
X028563Y026491D02*
X028663Y026591D01*
Y026741D01*
X028313D02*
X028663D01*
X030763Y023391D02*
X030963Y023591D01*
X028013Y024441D02*
X028013Y024441D01*
X028313Y026741D02*
X028563Y026491D01*
X030563Y023591D02*
X030763Y023391D01*
Y023791D02*
X030963Y023591D01*
X030563D02*
X030763Y023791D01*
X028013Y024441D02*
X029713D01*
X030563Y023591D01*
X025163Y025141D02*
Y025441D01*
X027813Y025591D02*
Y026241D01*
X028313Y026741D01*
X027213Y024991D02*
X027813Y025591D01*
X015309Y020769D02*
X015311D01*
X01506Y02052D02*
X015309Y020769D01*
X01566Y02027D02*
X01591Y02002D01*
X01531Y02027D02*
X01566D01*
X01506Y02052D02*
X01531Y02027D01*
X01196Y020262D02*
Y02027D01*
Y02002D02*
Y020262D01*
X01221Y02052D02*
X01506D01*
X01386Y01722D02*
Y01752D01*
Y01652D02*
Y01722D01*
X01356Y01622D02*
X01386Y01652D01*
X01196Y02027D02*
X01221Y02052D01*
X01196Y01977D02*
Y02002D01*
X01076Y01857D02*
X01196Y01977D01*
X00871Y01857D02*
X01076D01*
X00846Y01732D02*
Y01832D01*
X00871Y01857D01*
X00846Y01832D02*
Y01942D01*
X01356Y01602D02*
Y01622D01*
X01106Y01567D02*
X01321D01*
X01356Y01602D01*
X01076Y01597D02*
X01106Y01567D01*
X00981Y01597D02*
X01076D01*
X00846Y01977D02*
Y020495D01*
X009118Y016378D02*
Y016912D01*
X00871Y01732D02*
X009118Y016912D01*
X009525Y01597D02*
X00981D01*
X00846Y01732D02*
X00871D01*
X00846Y01707D02*
X00871D01*
X00846D02*
Y01732D01*
X009118Y016378D02*
X009525Y01597D01*
X00846Y01942D02*
Y01977D01*
X031962Y020769D02*
X031965D01*
X031713Y02052D02*
X031962Y020769D01*
X032313Y02027D02*
X032563Y02002D01*
X031963Y02027D02*
X032313D01*
X031713Y02052D02*
X031963Y02027D01*
X028613Y020262D02*
Y02027D01*
Y02002D02*
Y020262D01*
X028863Y02052D02*
X031713D01*
X030513Y01722D02*
Y01752D01*
Y01652D02*
Y01722D01*
X030213Y01622D02*
X030513Y01652D01*
X028613Y02027D02*
X028863Y02052D01*
X028613Y01977D02*
Y02002D01*
X027413Y01857D02*
X028613Y01977D01*
X025363Y01857D02*
X027413D01*
X025113Y01732D02*
Y01832D01*
X025363Y01857D01*
X025113Y01832D02*
Y01942D01*
X030213Y01602D02*
Y01622D01*
X027713Y01567D02*
X029863D01*
X030213Y01602D01*
X027413Y01597D02*
X027713Y01567D01*
X026463Y01597D02*
X027413D01*
X025113Y01977D02*
Y020495D01*
X025771Y016378D02*
Y016912D01*
X025363Y01732D02*
X025771Y016912D01*
X026179Y01597D02*
X026463D01*
X025113Y01732D02*
X025363D01*
X025113Y01707D02*
X025363D01*
X025113D02*
Y01732D01*
X025771Y016378D02*
X026179Y01597D01*
X025113Y01942D02*
Y01977D01*
D38*
X026741Y005298D02*
X026883Y00544D01*
Y005454D02*
X026891Y005462D01*
Y005687D01*
X026741Y005287D02*
Y005298D01*
X026883Y00544D02*
Y005454D01*
X024191Y008387D02*
X026891Y005687D01*
X010087Y005298D02*
X010229Y00544D01*
Y005454D02*
X010237Y005462D01*
Y005687D01*
X010087Y005287D02*
Y005298D01*
X010229Y00544D02*
Y005454D01*
X007537Y008387D02*
X010237Y005687D01*
X01201Y026741D02*
X01486D01*
X01621Y026141D02*
X01641D01*
X01486Y026741D02*
X01561D01*
X01621Y026141D01*
X00851Y025441D02*
Y025841D01*
Y026291D01*
X028663Y026741D02*
X031513D01*
X032863Y026141D02*
X033063D01*
X031513Y026741D02*
X032263D01*
X032863Y026141D01*
X025163Y025441D02*
Y025841D01*
Y026291D01*
D39*
X022541Y010637D02*
Y010887D01*
Y010637D02*
X022941Y010237D01*
Y008062D02*
Y010237D01*
Y008062D02*
X023554Y007449D01*
X024341Y005787D02*
X024641D01*
X023554Y006574D02*
X024341Y005787D01*
X023554Y006574D02*
Y007449D01*
X005887Y010637D02*
Y010887D01*
Y010637D02*
X006287Y010237D01*
Y008062D02*
Y010237D01*
Y008062D02*
X0069Y007449D01*
X007687Y005787D02*
X007987D01*
X0069Y006574D02*
X007687Y005787D01*
X0069Y006574D02*
Y007449D01*
X007983Y020643D02*
X00821Y02087D01*
X007983Y016993D02*
Y020643D01*
X008811Y02087D02*
X009061Y02062D01*
X00911D01*
X00821Y02087D02*
X008811D01*
X024637Y020643D02*
X024863Y02087D01*
X024637Y016993D02*
Y020643D01*
X025464Y02087D02*
X025714Y02062D01*
X025763D01*
X024863Y02087D02*
X025464D01*
D65*
X027191Y012887D02*
D03*
X010537D02*
D03*
X01016Y026841D02*
D03*
X026813D02*
D03*
X00911Y02062D02*
D03*
X01011D02*
D03*
X025763D02*
D03*
X026763D02*
D03*
D66*
X021791Y009437D02*
D03*
X022141Y007387D02*
D03*
X021541D02*
D03*
X033491Y013887D02*
D03*
Y012927D02*
D03*
Y011967D02*
D03*
Y007167D02*
D03*
Y006207D02*
D03*
Y005247D02*
D03*
Y004287D02*
D03*
X033011Y013887D02*
D03*
X033251Y013407D02*
D03*
X033011Y012927D02*
D03*
X033251Y012447D02*
D03*
X033011Y011967D02*
D03*
X033251Y007647D02*
D03*
X033011Y007167D02*
D03*
X033251Y006687D02*
D03*
X033011Y006207D02*
D03*
X033251Y005727D02*
D03*
X033011Y005247D02*
D03*
X033251Y004767D02*
D03*
X033011Y004287D02*
D03*
X032531Y013887D02*
D03*
X032771Y013407D02*
D03*
X032531Y012927D02*
D03*
X032771Y012447D02*
D03*
X032531Y011967D02*
D03*
Y007167D02*
D03*
X032771Y006687D02*
D03*
X032531Y006207D02*
D03*
X032771Y005727D02*
D03*
X032531Y005247D02*
D03*
X032771Y004767D02*
D03*
X032531Y004287D02*
D03*
X032051Y013887D02*
D03*
X032291Y013407D02*
D03*
X032051Y012927D02*
D03*
X032291Y012447D02*
D03*
Y011487D02*
D03*
Y006687D02*
D03*
X032051Y006207D02*
D03*
X032291Y005727D02*
D03*
X032051Y005247D02*
D03*
X032291Y004767D02*
D03*
X032051Y004287D02*
D03*
X031571Y013887D02*
D03*
X031811Y013407D02*
D03*
X031571Y012927D02*
D03*
X031811Y006687D02*
D03*
X031571Y006207D02*
D03*
X031811Y005727D02*
D03*
X031571Y005247D02*
D03*
X031811Y004767D02*
D03*
X031571Y004287D02*
D03*
X031091Y013887D02*
D03*
X031331Y013407D02*
D03*
X031091Y012927D02*
D03*
Y006207D02*
D03*
X031331Y005727D02*
D03*
X031091Y005247D02*
D03*
X031331Y004767D02*
D03*
X031091Y004287D02*
D03*
X030611Y013887D02*
D03*
X030851Y013407D02*
D03*
X030611Y012927D02*
D03*
X030851Y005727D02*
D03*
X030611Y005247D02*
D03*
X030851Y004767D02*
D03*
X030611Y004287D02*
D03*
X030131Y013887D02*
D03*
X030371Y013407D02*
D03*
X030131Y012927D02*
D03*
X030371Y005727D02*
D03*
X030131Y005247D02*
D03*
X030371Y004767D02*
D03*
X030131Y004287D02*
D03*
X029651Y013887D02*
D03*
X029891Y013407D02*
D03*
X029651Y012927D02*
D03*
Y005247D02*
D03*
X029891Y004767D02*
D03*
X029651Y004287D02*
D03*
X029171Y013887D02*
D03*
X029411Y013407D02*
D03*
X029171Y012927D02*
D03*
X029411Y004767D02*
D03*
X029171Y004287D02*
D03*
X028691Y013887D02*
D03*
X028931Y013407D02*
D03*
X028691Y012927D02*
D03*
Y004287D02*
D03*
X028211Y013887D02*
D03*
X028451Y013407D02*
D03*
Y004767D02*
D03*
X028211Y004287D02*
D03*
X027731Y005247D02*
D03*
X027971Y004767D02*
D03*
X027731Y004287D02*
D03*
X027491Y008607D02*
D03*
Y004767D02*
D03*
X027251Y004287D02*
D03*
X027011Y008607D02*
D03*
X026771Y004287D02*
D03*
X026291Y013887D02*
D03*
X026531Y008607D02*
D03*
X026291Y004287D02*
D03*
X025811Y013887D02*
D03*
X026051Y007647D02*
D03*
X025811Y004287D02*
D03*
X025331Y013887D02*
D03*
X025571Y007647D02*
D03*
X025331Y004287D02*
D03*
X024851D02*
D03*
X024611Y004767D02*
D03*
X024371Y004287D02*
D03*
X023891D02*
D03*
X023411Y013887D02*
D03*
Y004287D02*
D03*
X022931D02*
D03*
X022451Y005247D02*
D03*
X022691Y004767D02*
D03*
X022451Y004287D02*
D03*
X022211Y005727D02*
D03*
X021971Y005247D02*
D03*
X022211Y004767D02*
D03*
X021971Y004287D02*
D03*
X021731Y011487D02*
D03*
X021491Y006207D02*
D03*
X021731Y005727D02*
D03*
X021491Y005247D02*
D03*
X021731Y004767D02*
D03*
X021491Y004287D02*
D03*
X021011Y012927D02*
D03*
X021251Y012447D02*
D03*
X021011Y006207D02*
D03*
X021251Y005727D02*
D03*
X021011Y005247D02*
D03*
X021251Y004767D02*
D03*
X021011Y004287D02*
D03*
X033691Y008287D02*
D03*
X023391Y011587D02*
D03*
X029191Y010887D02*
D03*
X029741Y007137D02*
D03*
X025091Y014587D02*
D03*
X025841D02*
D03*
X033691Y007637D02*
D03*
Y004787D02*
D03*
Y005737D02*
D03*
Y006687D02*
D03*
X024791Y009787D02*
D03*
X024591Y009087D02*
D03*
X024391Y009787D02*
D03*
X025091Y009637D02*
D03*
X032991Y008287D02*
D03*
X033691Y008937D02*
D03*
Y009587D02*
D03*
X024941Y010787D02*
D03*
X023291Y004987D02*
D03*
X023791Y004587D02*
D03*
X021341Y009437D02*
D03*
X020891Y013537D02*
D03*
Y014037D02*
D03*
Y014587D02*
D03*
X021441Y014687D02*
D03*
X022191D02*
D03*
X023441D02*
D03*
X024141D02*
D03*
X026491Y014587D02*
D03*
X027091D02*
D03*
Y013887D02*
D03*
X027641D02*
D03*
X027891Y014587D02*
D03*
X028591D02*
D03*
X029491D02*
D03*
X030391D02*
D03*
X031241D02*
D03*
X032091D02*
D03*
X032841D02*
D03*
X033491D02*
D03*
X032291Y008287D02*
D03*
X032391Y007637D02*
D03*
X031941Y007187D02*
D03*
X028941Y004787D02*
D03*
X029041Y005287D02*
D03*
X029491Y005737D02*
D03*
X030541Y006737D02*
D03*
X031141Y006687D02*
D03*
X031791Y010987D02*
D03*
X032291D02*
D03*
X033541D02*
D03*
X033491Y011437D02*
D03*
X031741Y011537D02*
D03*
Y012437D02*
D03*
X031891Y011987D02*
D03*
X033155Y009705D02*
D03*
X033449Y009766D02*
D03*
X033441Y010437D02*
D03*
X032891Y011587D02*
D03*
X028191Y006286D02*
D03*
X02864Y010037D02*
D03*
X031441Y008837D02*
D03*
X031541Y009337D02*
D03*
X031341Y010937D02*
D03*
X031091D02*
D03*
X030091Y011637D02*
D03*
Y011387D02*
D03*
X028941Y008237D02*
D03*
X028891Y007887D02*
D03*
X028741Y008087D02*
D03*
X027891Y011037D02*
D03*
X027591D02*
D03*
X030591Y008787D02*
D03*
X024541Y006887D02*
D03*
X023941Y008637D02*
D03*
X026741Y005287D02*
D03*
X026891Y005462D02*
D03*
X022191Y008137D02*
D03*
X024641Y005787D02*
D03*
X022541Y008137D02*
D03*
X024191Y014087D02*
D03*
X024441D02*
D03*
X024191Y008387D02*
D03*
Y008637D02*
D03*
X023941Y008387D02*
D03*
X024441Y013837D02*
D03*
X024191Y01382D02*
D03*
X022191Y007887D02*
D03*
X022541D02*
D03*
Y010887D02*
D03*
Y010637D02*
D03*
X029041Y009337D02*
D03*
X005137Y009437D02*
D03*
X005487Y007387D02*
D03*
X004887D02*
D03*
X016837Y013887D02*
D03*
Y012927D02*
D03*
Y011967D02*
D03*
Y007167D02*
D03*
Y006207D02*
D03*
Y005247D02*
D03*
Y004287D02*
D03*
X016357Y013887D02*
D03*
X016597Y013407D02*
D03*
X016357Y012927D02*
D03*
X016597Y012447D02*
D03*
X016357Y011967D02*
D03*
X016597Y007647D02*
D03*
X016357Y007167D02*
D03*
X016597Y006687D02*
D03*
X016357Y006207D02*
D03*
X016597Y005727D02*
D03*
X016357Y005247D02*
D03*
X016597Y004767D02*
D03*
X016357Y004287D02*
D03*
X015877Y013887D02*
D03*
X016117Y013407D02*
D03*
X015877Y012927D02*
D03*
X016117Y012447D02*
D03*
X015877Y011967D02*
D03*
Y007167D02*
D03*
X016117Y006687D02*
D03*
X015877Y006207D02*
D03*
X016117Y005727D02*
D03*
X015877Y005247D02*
D03*
X016117Y004767D02*
D03*
X015877Y004287D02*
D03*
X015397Y013887D02*
D03*
X015637Y013407D02*
D03*
X015397Y012927D02*
D03*
X015637Y012447D02*
D03*
Y011487D02*
D03*
Y006687D02*
D03*
X015397Y006207D02*
D03*
X015637Y005727D02*
D03*
X015397Y005247D02*
D03*
X015637Y004767D02*
D03*
X015397Y004287D02*
D03*
X014917Y013887D02*
D03*
X015157Y013407D02*
D03*
X014917Y012927D02*
D03*
X015157Y006687D02*
D03*
X014917Y006207D02*
D03*
X015157Y005727D02*
D03*
X014917Y005247D02*
D03*
X015157Y004767D02*
D03*
X014917Y004287D02*
D03*
X014437Y013887D02*
D03*
X014677Y013407D02*
D03*
X014437Y012927D02*
D03*
Y006207D02*
D03*
X014677Y005727D02*
D03*
X014437Y005247D02*
D03*
X014677Y004767D02*
D03*
X014437Y004287D02*
D03*
X013957Y013887D02*
D03*
X014197Y013407D02*
D03*
X013957Y012927D02*
D03*
X014197Y005727D02*
D03*
X013957Y005247D02*
D03*
X014197Y004767D02*
D03*
X013957Y004287D02*
D03*
X013477Y013887D02*
D03*
X013717Y013407D02*
D03*
X013477Y012927D02*
D03*
X013717Y005727D02*
D03*
X013477Y005247D02*
D03*
X013717Y004767D02*
D03*
X013477Y004287D02*
D03*
X012997Y013887D02*
D03*
X013237Y013407D02*
D03*
X012997Y012927D02*
D03*
Y005247D02*
D03*
X013237Y004767D02*
D03*
X012997Y004287D02*
D03*
X012517Y013887D02*
D03*
X012757Y013407D02*
D03*
X012517Y012927D02*
D03*
X012757Y004767D02*
D03*
X012517Y004287D02*
D03*
X012037Y013887D02*
D03*
X012277Y013407D02*
D03*
X012037Y012927D02*
D03*
Y004287D02*
D03*
X011557Y013887D02*
D03*
X011797Y013407D02*
D03*
Y004767D02*
D03*
X011557Y004287D02*
D03*
X011077Y005247D02*
D03*
X011317Y004767D02*
D03*
X011077Y004287D02*
D03*
X010837Y008607D02*
D03*
Y004767D02*
D03*
X010597Y004287D02*
D03*
X010357Y008607D02*
D03*
X010117Y004287D02*
D03*
X009637Y013887D02*
D03*
X009877Y008607D02*
D03*
X009637Y004287D02*
D03*
X009157Y013887D02*
D03*
X009397Y007647D02*
D03*
X009157Y004287D02*
D03*
X008677Y013887D02*
D03*
X008917Y007647D02*
D03*
X008677Y004287D02*
D03*
X008197D02*
D03*
X007957Y004767D02*
D03*
X007717Y004287D02*
D03*
X007237D02*
D03*
X006757Y013887D02*
D03*
Y004287D02*
D03*
X006277D02*
D03*
X005797Y005247D02*
D03*
X006037Y004767D02*
D03*
X005797Y004287D02*
D03*
X005557Y005727D02*
D03*
X005317Y005247D02*
D03*
X005557Y004767D02*
D03*
X005317Y004287D02*
D03*
X005077Y011487D02*
D03*
X004837Y006207D02*
D03*
X005077Y005727D02*
D03*
X004837Y005247D02*
D03*
X005077Y004767D02*
D03*
X004837Y004287D02*
D03*
X004357Y012927D02*
D03*
X004597Y012447D02*
D03*
X004357Y006207D02*
D03*
X004597Y005727D02*
D03*
X004357Y005247D02*
D03*
X004597Y004767D02*
D03*
X004357Y004287D02*
D03*
X017037Y008287D02*
D03*
X006737Y011587D02*
D03*
X012537Y010887D02*
D03*
X013087Y007137D02*
D03*
X008437Y014587D02*
D03*
X009187D02*
D03*
X017037Y007637D02*
D03*
Y004787D02*
D03*
Y005737D02*
D03*
Y006687D02*
D03*
X008137Y009787D02*
D03*
X007937Y009087D02*
D03*
X007737Y009787D02*
D03*
X008437Y009637D02*
D03*
X016337Y008287D02*
D03*
X017037Y008937D02*
D03*
Y009587D02*
D03*
X008287Y010787D02*
D03*
X006637Y004987D02*
D03*
X007137Y004587D02*
D03*
X004687Y009437D02*
D03*
X004237Y013537D02*
D03*
Y014037D02*
D03*
Y014587D02*
D03*
X004787Y014687D02*
D03*
X005537D02*
D03*
X006787D02*
D03*
X007487D02*
D03*
X009837Y014587D02*
D03*
X010437D02*
D03*
Y013887D02*
D03*
X010987D02*
D03*
X011237Y014587D02*
D03*
X011937D02*
D03*
X012837D02*
D03*
X013737D02*
D03*
X014587D02*
D03*
X015437D02*
D03*
X016187D02*
D03*
X016837D02*
D03*
X015637Y008287D02*
D03*
X015737Y007637D02*
D03*
X015287Y007187D02*
D03*
X012287Y004787D02*
D03*
X012387Y005287D02*
D03*
X012837Y005737D02*
D03*
X013887Y006737D02*
D03*
X014487Y006687D02*
D03*
X015137Y010987D02*
D03*
X015637D02*
D03*
X016887D02*
D03*
X016837Y011437D02*
D03*
X015087Y011537D02*
D03*
Y012437D02*
D03*
X015237Y011987D02*
D03*
X016501Y009705D02*
D03*
X016795Y009766D02*
D03*
X016787Y010437D02*
D03*
X016237Y011587D02*
D03*
X011537Y006286D02*
D03*
X011987Y010037D02*
D03*
X014787Y008837D02*
D03*
X014887Y009337D02*
D03*
X014687Y010937D02*
D03*
X014437D02*
D03*
X013437Y011637D02*
D03*
Y011387D02*
D03*
X012287Y008237D02*
D03*
X012237Y007887D02*
D03*
X012087Y008087D02*
D03*
X011237Y011037D02*
D03*
X010937D02*
D03*
X013937Y008787D02*
D03*
X007887Y006887D02*
D03*
X007287Y008637D02*
D03*
X010087Y005287D02*
D03*
X010237Y005462D02*
D03*
X005537Y008137D02*
D03*
X007987Y005787D02*
D03*
X005887Y008137D02*
D03*
X007537Y014087D02*
D03*
X007787D02*
D03*
X007537Y008387D02*
D03*
Y008637D02*
D03*
X007287Y008387D02*
D03*
X007787Y013837D02*
D03*
X007537Y01382D02*
D03*
X005537Y007887D02*
D03*
X005887D02*
D03*
Y010887D02*
D03*
Y010637D02*
D03*
X012387Y009337D02*
D03*
X02026Y023941D02*
D03*
X01496Y021991D02*
D03*
Y022541D02*
D03*
X01536Y022291D02*
D03*
Y021891D02*
D03*
X01586D02*
D03*
Y022291D02*
D03*
X01656Y022341D02*
D03*
Y021841D02*
D03*
X01386Y026441D02*
D03*
X01381Y027191D02*
D03*
X00561Y022091D02*
D03*
X00491D02*
D03*
X00421Y022141D02*
D03*
X01691Y024379D02*
D03*
X01641Y02454D02*
D03*
X016494Y02413D02*
D03*
X01861Y024591D02*
D03*
Y024141D02*
D03*
X00926Y025191D02*
D03*
X01096Y024041D02*
D03*
X01001Y025191D02*
D03*
X01866Y024891D02*
D03*
X01821Y026291D02*
D03*
X00881Y021541D02*
D03*
X00786D02*
D03*
X00686D02*
D03*
X00591D02*
D03*
X00496D02*
D03*
X00416D02*
D03*
X01201Y026741D02*
D03*
X01121Y027191D02*
D03*
X01201D02*
D03*
X01486Y021491D02*
D03*
X01536D02*
D03*
X01591D02*
D03*
X01656D02*
D03*
X01721D02*
D03*
X02021Y027191D02*
D03*
X01956D02*
D03*
X01886D02*
D03*
X01821D02*
D03*
X01756D02*
D03*
X02026Y023391D02*
D03*
Y022791D02*
D03*
Y022241D02*
D03*
Y021691D02*
D03*
X01981Y021491D02*
D03*
X01911D02*
D03*
X01851D02*
D03*
X01776D02*
D03*
X01721Y021791D02*
D03*
Y022391D02*
D03*
Y023091D02*
D03*
Y023741D02*
D03*
X01691Y025991D02*
D03*
Y026591D02*
D03*
Y027191D02*
D03*
X01641Y026141D02*
D03*
X01486Y026741D02*
D03*
X01581Y024191D02*
D03*
X01491Y022891D02*
D03*
X014578Y022904D02*
D03*
X00936Y022891D02*
D03*
X01411Y023791D02*
D03*
Y023391D02*
D03*
X01431Y023591D02*
D03*
X01391D02*
D03*
X01196Y024891D02*
D03*
X01296Y023241D02*
D03*
X01421Y024491D02*
D03*
X00806Y023841D02*
D03*
X01381Y025441D02*
D03*
X01191Y026491D02*
D03*
X01166Y026741D02*
D03*
X00851Y026641D02*
D03*
Y026291D02*
D03*
Y025841D02*
D03*
Y025441D02*
D03*
X00971Y022541D02*
D03*
X01181Y022241D02*
D03*
X01121Y023091D02*
D03*
X01161Y023491D02*
D03*
X01211Y023891D02*
D03*
X01241Y022691D02*
D03*
X00691Y024041D02*
D03*
X00771Y025091D02*
D03*
X00556Y022791D02*
D03*
Y023041D02*
D03*
X00591Y022791D02*
D03*
Y023041D02*
D03*
X004294Y027041D02*
D03*
X036913Y023941D02*
D03*
X031613Y021991D02*
D03*
Y022541D02*
D03*
X032013Y022291D02*
D03*
Y021891D02*
D03*
X032513D02*
D03*
Y022291D02*
D03*
X033213Y022341D02*
D03*
Y021841D02*
D03*
X030513Y026441D02*
D03*
X030463Y027191D02*
D03*
X022263Y022091D02*
D03*
X021563D02*
D03*
X020863Y022141D02*
D03*
X033563Y024379D02*
D03*
X033063Y02454D02*
D03*
X033147Y02413D02*
D03*
X035263Y024591D02*
D03*
Y024141D02*
D03*
X025913Y025191D02*
D03*
X027613Y024041D02*
D03*
X026663Y025191D02*
D03*
X035313Y024891D02*
D03*
X034863Y026291D02*
D03*
X025463Y021541D02*
D03*
X024513D02*
D03*
X023513D02*
D03*
X022563D02*
D03*
X021613D02*
D03*
X020813D02*
D03*
X028663Y026741D02*
D03*
X027863Y027191D02*
D03*
X028663D02*
D03*
X031513Y021491D02*
D03*
X032013D02*
D03*
X032563D02*
D03*
X033213D02*
D03*
X033863D02*
D03*
X036863Y027191D02*
D03*
X036213D02*
D03*
X035513D02*
D03*
X034863D02*
D03*
X034213D02*
D03*
X036913Y023391D02*
D03*
Y022791D02*
D03*
Y022241D02*
D03*
Y021691D02*
D03*
X036463Y021491D02*
D03*
X035763D02*
D03*
X035163D02*
D03*
X034413D02*
D03*
X033863Y021791D02*
D03*
Y022391D02*
D03*
Y023091D02*
D03*
Y023741D02*
D03*
X033563Y025991D02*
D03*
Y026591D02*
D03*
Y027191D02*
D03*
X033063Y026141D02*
D03*
X031513Y026741D02*
D03*
X032463Y024191D02*
D03*
X031563Y022891D02*
D03*
X031232Y022904D02*
D03*
X026013Y022891D02*
D03*
X030763Y023791D02*
D03*
Y023391D02*
D03*
X030963Y023591D02*
D03*
X030563D02*
D03*
X028613Y024891D02*
D03*
X029613Y023241D02*
D03*
X030863Y024491D02*
D03*
X024713Y023841D02*
D03*
X030463Y025441D02*
D03*
X028563Y026491D02*
D03*
X028313Y026741D02*
D03*
X025163Y026641D02*
D03*
Y026291D02*
D03*
Y025841D02*
D03*
Y025441D02*
D03*
X026363Y022541D02*
D03*
X028463Y022241D02*
D03*
X027863Y023091D02*
D03*
X028263Y023491D02*
D03*
X028763Y023891D02*
D03*
X029063Y022691D02*
D03*
X023563Y024041D02*
D03*
X024363Y025091D02*
D03*
X022213Y022791D02*
D03*
Y023041D02*
D03*
X022563Y022791D02*
D03*
Y023041D02*
D03*
X020948Y027041D02*
D03*
X007983Y016993D02*
D03*
X01996Y01907D02*
D03*
X01626Y01857D02*
D03*
X01416Y01837D02*
D03*
X017929Y019353D02*
D03*
X017278Y01884D02*
D03*
X018107Y018798D02*
D03*
X018878Y018492D02*
D03*
X019484Y019059D02*
D03*
X019Y019734D02*
D03*
X01661Y01617D02*
D03*
X01721Y01672D02*
D03*
X01751Y01722D02*
D03*
X015311Y020769D02*
D03*
X01711Y01992D02*
D03*
X01726Y02047D02*
D03*
X01666Y01992D02*
D03*
Y02047D02*
D03*
Y02097D02*
D03*
X01591Y02002D02*
D03*
X01246Y01807D02*
D03*
X01276Y01777D02*
D03*
X01306Y01747D02*
D03*
X01386Y01722D02*
D03*
Y01752D02*
D03*
X01381Y01937D02*
D03*
X015341Y017651D02*
D03*
X01381Y02017D02*
D03*
X01176Y02097D02*
D03*
X01086D02*
D03*
X01376Y020999D02*
D03*
X01966Y01717D02*
D03*
X01896Y01722D02*
D03*
X01816D02*
D03*
X01966Y01672D02*
D03*
X01896Y01667D02*
D03*
X01791Y01672D02*
D03*
X01961Y01617D02*
D03*
X01896D02*
D03*
X01806D02*
D03*
X01961Y01567D02*
D03*
X01856D02*
D03*
X01721Y01617D02*
D03*
X01776Y01562D02*
D03*
X01691Y01567D02*
D03*
X01601D02*
D03*
X01516D02*
D03*
X01196Y020262D02*
D03*
X01956Y02097D02*
D03*
X015269Y015261D02*
D03*
X01451Y01527D02*
D03*
X01606D02*
D03*
X01671D02*
D03*
X01746D02*
D03*
X01826D02*
D03*
X01896D02*
D03*
X00421Y01602D02*
D03*
X00846Y01527D02*
D03*
X00691D02*
D03*
X00601D02*
D03*
X00506D02*
D03*
X00426D02*
D03*
X01966D02*
D03*
X02026D02*
D03*
Y01567D02*
D03*
Y01622D02*
D03*
Y01672D02*
D03*
Y01722D02*
D03*
Y02097D02*
D03*
X01881D02*
D03*
X01811D02*
D03*
X01741D02*
D03*
X01196Y02002D02*
D03*
X01031Y01897D02*
D03*
X01211Y01827D02*
D03*
X00911Y01897D02*
D03*
X01356Y01602D02*
D03*
Y01622D02*
D03*
X00846Y020495D02*
D03*
Y02017D02*
D03*
X00871Y01667D02*
D03*
X00846Y01707D02*
D03*
X00871D02*
D03*
Y01732D02*
D03*
X00846D02*
D03*
Y01942D02*
D03*
Y01977D02*
D03*
X00981Y01597D02*
D03*
X009525D02*
D03*
X011196Y016759D02*
D03*
X00451Y02002D02*
D03*
X00671Y01772D02*
D03*
X00751Y01887D02*
D03*
X01161Y01607D02*
D03*
Y01722D02*
D03*
X01226Y01762D02*
D03*
X01281Y01712D02*
D03*
X01236Y01647D02*
D03*
X00556Y01657D02*
D03*
X00591D02*
D03*
Y01682D02*
D03*
X00556D02*
D03*
X024637Y016993D02*
D03*
X036613Y01907D02*
D03*
X032913Y01857D02*
D03*
X030813Y01837D02*
D03*
X034583Y019353D02*
D03*
X033931Y01884D02*
D03*
X03476Y018798D02*
D03*
X035532Y018492D02*
D03*
X036137Y019059D02*
D03*
X035653Y019734D02*
D03*
X033263Y01617D02*
D03*
X033863Y01672D02*
D03*
X034163Y01722D02*
D03*
X031965Y020769D02*
D03*
X033763Y01992D02*
D03*
X033913Y02047D02*
D03*
X033313Y01992D02*
D03*
Y02047D02*
D03*
Y02097D02*
D03*
X032563Y02002D02*
D03*
X029113Y01807D02*
D03*
X029413Y01777D02*
D03*
X029713Y01747D02*
D03*
X030513Y01722D02*
D03*
Y01752D02*
D03*
X030463Y01937D02*
D03*
X031995Y017651D02*
D03*
X030463Y02017D02*
D03*
X028413Y02097D02*
D03*
X027513D02*
D03*
X030413Y020999D02*
D03*
X036313Y01717D02*
D03*
X035613Y01722D02*
D03*
X034813D02*
D03*
X036313Y01672D02*
D03*
X035613Y01667D02*
D03*
X034563Y01672D02*
D03*
X036263Y01617D02*
D03*
X035613D02*
D03*
X034713D02*
D03*
X036263Y01567D02*
D03*
X035213D02*
D03*
X033863Y01617D02*
D03*
X034413Y01562D02*
D03*
X033563Y01567D02*
D03*
X032663D02*
D03*
X031813D02*
D03*
X028613Y020262D02*
D03*
X036213Y02097D02*
D03*
X031923Y015261D02*
D03*
X031163Y01527D02*
D03*
X032713D02*
D03*
X033363D02*
D03*
X034113D02*
D03*
X034913D02*
D03*
X035613D02*
D03*
X020863Y01602D02*
D03*
X025113Y01527D02*
D03*
X023563D02*
D03*
X022663D02*
D03*
X021713D02*
D03*
X020913D02*
D03*
X036313D02*
D03*
X036913D02*
D03*
Y01567D02*
D03*
Y01622D02*
D03*
Y01672D02*
D03*
Y01722D02*
D03*
Y02097D02*
D03*
X035463D02*
D03*
X034763D02*
D03*
X034063D02*
D03*
X028613Y02002D02*
D03*
X026963Y01897D02*
D03*
X028763Y01827D02*
D03*
X025763Y01897D02*
D03*
X030213Y01602D02*
D03*
Y01622D02*
D03*
X025113Y020495D02*
D03*
Y02017D02*
D03*
X025363Y01667D02*
D03*
X025113Y01707D02*
D03*
X025363D02*
D03*
Y01732D02*
D03*
X025113D02*
D03*
Y01942D02*
D03*
Y01977D02*
D03*
X026463Y01597D02*
D03*
X026179D02*
D03*
X02785Y016759D02*
D03*
X021163Y02002D02*
D03*
X023363Y01772D02*
D03*
X024163Y01887D02*
D03*
X028263Y01607D02*
D03*
Y01722D02*
D03*
X028913Y01762D02*
D03*
X029463Y01712D02*
D03*
X029013Y01647D02*
D03*
X022213Y01657D02*
D03*
X022563D02*
D03*
Y01682D02*
D03*
X022213D02*
D03*
D67*
X017876Y020104D02*
D03*
X019844D02*
D03*
Y018136D02*
D03*
X017876D02*
D03*
X034529Y020104D02*
D03*
X036498D02*
D03*
Y018136D02*
D03*
X034529D02*
D03*
M02*
