G04*
G04 #@! TF.GenerationSoftware,Altium Limited,Altium Designer,22.10.1 (41)*
G04*
G04 Layer_Physical_Order=2*
G04 Layer_Color=36540*
%FSTAX24Y24*%
%MOIN*%
G70*
G04*
G04 #@! TF.SameCoordinates,A34DC46A-7450-461F-AC4F-9E147ECCBACE*
G04*
G04*
G04 #@! TF.FilePolarity,Positive*
G04*
G01*
G75*
%ADD64C,0.0594*%
%ADD65C,0.0240*%
%ADD66C,0.1004*%
G36*
X020409Y021362D02*
X012052D01*
X012022Y021412D01*
X01204Y021455D01*
Y021526D01*
X012013Y021593D01*
X011962Y021643D01*
X011896Y021671D01*
X011824D01*
X011758Y021643D01*
X011707Y021593D01*
X01168Y021526D01*
Y021455D01*
X011697Y021412D01*
X011668Y021362D01*
X004D01*
Y027338D01*
X020409D01*
Y021362D01*
D02*
G37*
G36*
X035391Y016441D02*
X020654D01*
Y027338D01*
X035391D01*
Y016441D01*
D02*
G37*
G36*
X020409Y015142D02*
X004D01*
Y021118D01*
X020409D01*
Y015142D01*
D02*
G37*
G36*
X038244Y010221D02*
X021835D01*
Y016197D01*
X038244D01*
Y010221D01*
D02*
G37*
G36*
Y004D02*
X021835D01*
Y009976D01*
X030192D01*
X030222Y009926D01*
X030204Y009884D01*
Y009812D01*
X030232Y009746D01*
X030282Y009695D01*
X030348Y009668D01*
X03042D01*
X030486Y009695D01*
X030537Y009746D01*
X030564Y009812D01*
Y009884D01*
X030547Y009926D01*
X030576Y009976D01*
X038244D01*
Y004D01*
D02*
G37*
G36*
X018737D02*
X004D01*
Y014897D01*
X018737D01*
Y004D01*
D02*
G37*
%LPC*%
G36*
X012046Y026921D02*
X011974D01*
X011908Y026893D01*
X011864Y026849D01*
X011835Y026845D01*
X011806Y026849D01*
X011762Y026893D01*
X011696Y026921D01*
X011624D01*
X011558Y026893D01*
X011507Y026843D01*
X01148Y026776D01*
Y026705D01*
X011507Y026639D01*
X011558Y026588D01*
X011624Y02656D01*
X01169D01*
X011711Y026542D01*
X01173Y02652D01*
Y026455D01*
X011757Y026389D01*
X011808Y026338D01*
X011874Y02631D01*
X011946D01*
X012012Y026338D01*
X012063Y026389D01*
X01209Y026455D01*
Y026526D01*
X012071Y026571D01*
X012112Y026588D01*
X012163Y026639D01*
X01219Y026705D01*
Y026776D01*
X012163Y026843D01*
X012112Y026893D01*
X012046Y026921D01*
D02*
G37*
G36*
X014896D02*
X014824D01*
X014758Y026893D01*
X014707Y026843D01*
X01468Y026776D01*
Y026705D01*
X014707Y026639D01*
X014758Y026588D01*
X014824Y02656D01*
X014896D01*
X014962Y026588D01*
X015013Y026639D01*
X01504Y026705D01*
Y026776D01*
X015013Y026843D01*
X014962Y026893D01*
X014896Y026921D01*
D02*
G37*
G36*
X006896Y026871D02*
X006824D01*
X006758Y026843D01*
X006707Y026793D01*
X00668Y026726D01*
Y026655D01*
X006707Y026589D01*
X006758Y026538D01*
X006824Y02651D01*
X006896D01*
X006962Y026538D01*
X007013Y026589D01*
X00704Y026655D01*
Y026726D01*
X007013Y026793D01*
X006962Y026843D01*
X006896Y026871D01*
D02*
G37*
G36*
X009207Y027197D02*
X009113D01*
X009022Y027173D01*
X008941Y027126D01*
X008874Y02706D01*
X008827Y026978D01*
X008803Y026888D01*
Y026794D01*
X008827Y026703D01*
X008874Y026621D01*
X008941Y026555D01*
X009022Y026508D01*
X009113Y026484D01*
X009207D01*
X009298Y026508D01*
X009379Y026555D01*
X009445Y026621D01*
X009492Y026703D01*
X009517Y026794D01*
Y026888D01*
X009492Y026978D01*
X009445Y02706D01*
X009379Y027126D01*
X009298Y027173D01*
X009207Y027197D01*
D02*
G37*
G36*
X004896Y026671D02*
X004824D01*
X004758Y026643D01*
X004707Y026593D01*
X00468Y026526D01*
Y026455D01*
X004707Y026389D01*
X004758Y026338D01*
X004824Y02631D01*
X004896D01*
X004962Y026338D01*
X005013Y026389D01*
X00504Y026455D01*
Y026526D01*
X005013Y026593D01*
X004962Y026643D01*
X004896Y026671D01*
D02*
G37*
G36*
X008546Y026821D02*
X008474D01*
X008408Y026793D01*
X008357Y026743D01*
X00833Y026676D01*
Y026605D01*
X008357Y026539D01*
X008401Y026495D01*
X008405Y026466D01*
X008401Y026437D01*
X008357Y026393D01*
X00833Y026326D01*
Y026255D01*
X008357Y026189D01*
X008408Y026138D01*
X008474Y02611D01*
X008546D01*
X008612Y026138D01*
X008663Y026189D01*
X00869Y026255D01*
Y026326D01*
X008663Y026393D01*
X008619Y026437D01*
X008615Y026466D01*
X008619Y026495D01*
X008663Y026539D01*
X00869Y026605D01*
Y026676D01*
X008663Y026743D01*
X008612Y026793D01*
X008546Y026821D01*
D02*
G37*
G36*
X016446Y026321D02*
X016374D01*
X016308Y026293D01*
X016257Y026243D01*
X01623Y026176D01*
Y026105D01*
X016257Y026039D01*
X016308Y025988D01*
X016374Y02596D01*
X016446D01*
X016512Y025988D01*
X016563Y026039D01*
X01659Y026105D01*
Y026176D01*
X016563Y026243D01*
X016512Y026293D01*
X016446Y026321D01*
D02*
G37*
G36*
X005946Y025971D02*
X005874D01*
X005808Y025943D01*
X005764Y025899D01*
X005735Y025895D01*
X005706Y025899D01*
X005662Y025943D01*
X005596Y025971D01*
X005524D01*
X005458Y025943D01*
X005407Y025893D01*
X00538Y025826D01*
Y025755D01*
X005407Y025689D01*
X00543Y025666D01*
X005407Y025643D01*
X00538Y025576D01*
Y025505D01*
X00538Y025503D01*
X005336Y025479D01*
X005278Y025566D01*
X005193Y025651D01*
X005093Y025718D01*
X004982Y025764D01*
X004864Y025788D01*
X004743D01*
X004625Y025764D01*
X004514Y025718D01*
X004414Y025651D01*
X004329Y025566D01*
X004262Y025466D01*
X004216Y025355D01*
X004192Y025237D01*
Y025116D01*
X004216Y024998D01*
X004262Y024887D01*
X004329Y024787D01*
X004414Y024702D01*
X004514Y024635D01*
X004625Y024589D01*
X004743Y024565D01*
X004864D01*
X004982Y024589D01*
X005093Y024635D01*
X005193Y024702D01*
X005278Y024787D01*
X005345Y024887D01*
X005391Y024998D01*
X005415Y025116D01*
Y025237D01*
X005391Y025355D01*
X005367Y025413D01*
X005407Y025439D01*
X005458Y025388D01*
X005524Y02536D01*
X005596D01*
X005662Y025388D01*
X005706Y025432D01*
X005735Y025436D01*
X005764Y025432D01*
X005808Y025388D01*
X005874Y02536D01*
X005946D01*
X006012Y025388D01*
X006063Y025439D01*
X00609Y025505D01*
Y025576D01*
X006063Y025643D01*
X00604Y025666D01*
X006063Y025689D01*
X00609Y025755D01*
Y025826D01*
X006063Y025893D01*
X006012Y025943D01*
X005946Y025971D01*
D02*
G37*
G36*
X012896Y025921D02*
X012824D01*
X012758Y025893D01*
X012707Y025843D01*
X01268Y025776D01*
Y025705D01*
X012707Y025639D01*
X012758Y025588D01*
X012824Y02556D01*
X012896D01*
X012962Y025588D01*
X013013Y025639D01*
X01304Y025705D01*
Y025776D01*
X013013Y025843D01*
X012962Y025893D01*
X012896Y025921D01*
D02*
G37*
G36*
X010207Y026197D02*
X010113D01*
X010022Y026173D01*
X009941Y026126D01*
X009874Y02606D01*
X009827Y025978D01*
X009803Y025888D01*
Y025794D01*
X009827Y025703D01*
X009874Y025621D01*
X009941Y025555D01*
X010022Y025508D01*
X010113Y025484D01*
X010207D01*
X010298Y025508D01*
X010379Y025555D01*
X010445Y025621D01*
X010492Y025703D01*
X010517Y025794D01*
Y025888D01*
X010492Y025978D01*
X010445Y02606D01*
X010379Y026126D01*
X010298Y026173D01*
X010207Y026197D01*
D02*
G37*
G36*
X009517D02*
X008803D01*
Y025484D01*
X009517D01*
Y026197D01*
D02*
G37*
G36*
X014158Y025658D02*
X014086D01*
X01402Y025631D01*
X01397Y02558D01*
X013942Y025514D01*
Y025442D01*
X01397Y025376D01*
X01402Y025326D01*
X014086Y025298D01*
X014158D01*
X014224Y025326D01*
X014275Y025376D01*
X014302Y025442D01*
Y025514D01*
X014275Y02558D01*
X014224Y025631D01*
X014158Y025658D01*
D02*
G37*
G36*
X008546Y026021D02*
X008474D01*
X008408Y025993D01*
X008357Y025943D01*
X00833Y025876D01*
Y025805D01*
X008357Y025739D01*
X008408Y025688D01*
X008459Y025667D01*
Y025614D01*
X008408Y025593D01*
X008357Y025543D01*
X00833Y025476D01*
Y025405D01*
X008357Y025339D01*
X008408Y025288D01*
X008474Y02526D01*
X008546D01*
X008612Y025288D01*
X008663Y025339D01*
X00869Y025405D01*
Y025476D01*
X008663Y025543D01*
X008612Y025593D01*
X008561Y025614D01*
Y025667D01*
X008612Y025688D01*
X008663Y025739D01*
X00869Y025805D01*
Y025876D01*
X008663Y025943D01*
X008612Y025993D01*
X008546Y026021D01*
D02*
G37*
G36*
X016446Y025021D02*
X016374D01*
X016308Y024993D01*
X016257Y024943D01*
X01623Y024876D01*
Y024805D01*
X016257Y024739D01*
X016308Y024688D01*
X016374Y02466D01*
X016446D01*
X016512Y024688D01*
X016563Y024739D01*
X01659Y024805D01*
Y024876D01*
X016563Y024943D01*
X016512Y024993D01*
X016446Y025021D01*
D02*
G37*
G36*
X005746Y024871D02*
X005674D01*
X005608Y024843D01*
X005557Y024793D01*
X00553Y024726D01*
Y024655D01*
X005557Y024589D01*
X005608Y024538D01*
X005674Y02451D01*
X005746D01*
X005812Y024538D01*
X005863Y024589D01*
X00589Y024655D01*
Y024726D01*
X005863Y024793D01*
X005812Y024843D01*
X005746Y024871D01*
D02*
G37*
G36*
X013946Y024721D02*
X013874D01*
X013808Y024693D01*
X013757Y024643D01*
X01373Y024576D01*
Y024505D01*
X013757Y024439D01*
X013808Y024388D01*
X013874Y02436D01*
X013946D01*
X014012Y024388D01*
X014063Y024439D01*
X01409Y024505D01*
Y024576D01*
X014063Y024643D01*
X014012Y024693D01*
X013946Y024721D01*
D02*
G37*
G36*
X005746Y024071D02*
X005674D01*
X005608Y024043D01*
X005557Y023993D01*
X00553Y023926D01*
Y023855D01*
X005557Y023789D01*
X005608Y023738D01*
X005674Y02371D01*
X005746D01*
X005812Y023738D01*
X005863Y023789D01*
X00589Y023855D01*
Y023926D01*
X005863Y023993D01*
X005812Y024043D01*
X005746Y024071D01*
D02*
G37*
G36*
X010746Y024021D02*
X010674D01*
X010608Y023993D01*
X010557Y023943D01*
X01053Y023876D01*
Y023805D01*
X010557Y023739D01*
X010608Y023688D01*
X010674Y02366D01*
X010746D01*
X010812Y023688D01*
X010863Y023739D01*
X01089Y023805D01*
Y023876D01*
X010863Y023943D01*
X010812Y023993D01*
X010746Y024021D01*
D02*
G37*
G36*
X017946Y023971D02*
X017874D01*
X017808Y023943D01*
X017757Y023893D01*
X01773Y023826D01*
Y023755D01*
X017757Y023689D01*
X017808Y023638D01*
X017874Y02361D01*
X017946D01*
X018012Y023638D01*
X018063Y023689D01*
X01809Y023755D01*
Y023826D01*
X018063Y023893D01*
X018012Y023943D01*
X017946Y023971D01*
D02*
G37*
G36*
X009946Y023621D02*
X009874D01*
X009808Y023593D01*
X009757Y023543D01*
X00973Y023476D01*
Y023405D01*
X009757Y023339D01*
X009808Y023288D01*
X009874Y02326D01*
X009946D01*
X010012Y023288D01*
X010063Y023339D01*
X01009Y023405D01*
Y023476D01*
X010063Y023543D01*
X010012Y023593D01*
X009946Y023621D01*
D02*
G37*
G36*
X014146Y023971D02*
X014074D01*
X014008Y023943D01*
X013957Y023893D01*
X01393Y023826D01*
Y023771D01*
X013874D01*
X013808Y023743D01*
X013757Y023693D01*
X01373Y023626D01*
Y023555D01*
X013757Y023489D01*
X013808Y023438D01*
X013874Y02341D01*
X01393D01*
Y023355D01*
X013957Y023289D01*
X014008Y023238D01*
X014074Y02321D01*
X014146D01*
X014212Y023238D01*
X014263Y023289D01*
X01429Y023355D01*
Y02341D01*
X014346D01*
X014412Y023438D01*
X014463Y023489D01*
X01449Y023555D01*
Y023626D01*
X014463Y023693D01*
X014412Y023743D01*
X014346Y023771D01*
X01429D01*
Y023826D01*
X014263Y023893D01*
X014212Y023943D01*
X014146Y023971D01*
D02*
G37*
G36*
X008146Y023471D02*
X008074D01*
X008008Y023443D01*
X007957Y023393D01*
X00793Y023326D01*
Y023255D01*
X007957Y023189D01*
X008008Y023138D01*
X008074Y02311D01*
X008146D01*
X008212Y023138D01*
X008263Y023189D01*
X00829Y023255D01*
Y023326D01*
X008263Y023393D01*
X008212Y023443D01*
X008146Y023471D01*
D02*
G37*
G36*
X010746Y023421D02*
X010674D01*
X010608Y023393D01*
X010557Y023343D01*
X01053Y023276D01*
Y023205D01*
X010557Y023139D01*
X010608Y023088D01*
X010674Y02306D01*
X010746D01*
X010812Y023088D01*
X010863Y023139D01*
X01089Y023205D01*
Y023276D01*
X010863Y023343D01*
X010812Y023393D01*
X010746Y023421D01*
D02*
G37*
G36*
X004864Y024016D02*
X004743D01*
X004625Y023992D01*
X004514Y023946D01*
X004414Y023879D01*
X004329Y023794D01*
X004262Y023694D01*
X004216Y023583D01*
X004192Y023465D01*
Y023345D01*
X004216Y023226D01*
X004262Y023115D01*
X004329Y023015D01*
X004414Y02293D01*
X004514Y022863D01*
X004625Y022817D01*
X004743Y022794D01*
X004864D01*
X004982Y022817D01*
X005093Y022863D01*
X005193Y02293D01*
X005278Y023015D01*
X005345Y023115D01*
X005391Y023226D01*
X005415Y023345D01*
Y023465D01*
X005391Y023583D01*
X005345Y023694D01*
X005278Y023794D01*
X005193Y023879D01*
X005093Y023946D01*
X004982Y023992D01*
X004864Y024016D01*
D02*
G37*
G36*
X012746Y023121D02*
X012674D01*
X012608Y023093D01*
X012557Y023043D01*
X01253Y022976D01*
Y022905D01*
X012557Y022839D01*
X012608Y022788D01*
X012674Y02276D01*
X012746D01*
X012812Y022788D01*
X012863Y022839D01*
X01289Y022905D01*
Y022976D01*
X012863Y023043D01*
X012812Y023093D01*
X012746Y023121D01*
D02*
G37*
G36*
X009396Y023071D02*
X009324D01*
X009258Y023043D01*
X009207Y022993D01*
X00918Y022926D01*
Y022855D01*
X009207Y022789D01*
X009258Y022738D01*
X009324Y02271D01*
X009396D01*
X009462Y022738D01*
X009513Y022789D01*
X00954Y022855D01*
Y022926D01*
X009513Y022993D01*
X009462Y023043D01*
X009396Y023071D01*
D02*
G37*
G36*
X009746Y022721D02*
X009674D01*
X009608Y022693D01*
X009557Y022643D01*
X00953Y022576D01*
Y022505D01*
X009557Y022439D01*
X009608Y022388D01*
X009674Y02236D01*
X009746D01*
X009812Y022388D01*
X009863Y022439D01*
X00989Y022505D01*
Y022576D01*
X009863Y022643D01*
X009812Y022693D01*
X009746Y022721D01*
D02*
G37*
G36*
X012196Y022621D02*
X012124D01*
X012058Y022593D01*
X012007Y022543D01*
X01198Y022476D01*
Y022405D01*
X012007Y022339D01*
X012058Y022288D01*
X012124Y02226D01*
X012196D01*
X012262Y022288D01*
X012313Y022339D01*
X01234Y022405D01*
Y022476D01*
X012313Y022543D01*
X012262Y022593D01*
X012196Y022621D01*
D02*
G37*
G36*
X005946Y022521D02*
X005874D01*
X005808Y022493D01*
X005757Y022443D01*
X00573Y022376D01*
Y022305D01*
X005757Y022239D01*
X005808Y022188D01*
X005874Y02216D01*
X005946D01*
X006012Y022188D01*
X006063Y022239D01*
X00609Y022305D01*
Y022376D01*
X006063Y022443D01*
X006012Y022493D01*
X005946Y022521D01*
D02*
G37*
G36*
X010196Y022421D02*
X010124D01*
X010058Y022393D01*
X010007Y022343D01*
X00998Y022276D01*
Y022205D01*
X010007Y022139D01*
X010058Y022088D01*
X010124Y02206D01*
X010196D01*
X010262Y022088D01*
X010313Y022139D01*
X01034Y022205D01*
Y022276D01*
X010313Y022343D01*
X010262Y022393D01*
X010196Y022421D01*
D02*
G37*
G36*
X009146D02*
X009074D01*
X009008Y022393D01*
X008957Y022343D01*
X00893Y022276D01*
Y022205D01*
X008957Y022139D01*
X009008Y022088D01*
X009074Y02206D01*
X009146D01*
X009212Y022088D01*
X009263Y022139D01*
X00929Y022205D01*
Y022276D01*
X009263Y022343D01*
X009212Y022393D01*
X009146Y022421D01*
D02*
G37*
G36*
X014596Y021871D02*
X014524D01*
X014458Y021843D01*
X014407Y021793D01*
X01438Y021726D01*
Y021655D01*
X014407Y021589D01*
X014458Y021538D01*
X014524Y02151D01*
X014596D01*
X014662Y021538D01*
X014713Y021589D01*
X01474Y021655D01*
Y021726D01*
X014713Y021793D01*
X014662Y021843D01*
X014596Y021871D01*
D02*
G37*
G36*
X024076Y026769D02*
X024005D01*
X023939Y026742D01*
X023916Y026719D01*
X023893Y026742D01*
X023826Y026769D01*
X023755D01*
X023689Y026742D01*
X023638Y026691D01*
X02361Y026625D01*
Y026553D01*
X023638Y026487D01*
X023661Y026464D01*
X023638Y026441D01*
X02361Y026375D01*
Y026303D01*
X023638Y026237D01*
X023689Y026186D01*
X023755Y026159D01*
X023826D01*
X023893Y026186D01*
X023916Y026209D01*
X023939Y026186D01*
X024005Y026159D01*
X024076D01*
X024143Y026186D01*
X024193Y026237D01*
X024221Y026303D01*
Y026375D01*
X024193Y026441D01*
X02417Y026464D01*
X024193Y026487D01*
X024221Y026553D01*
Y026625D01*
X024193Y026691D01*
X024143Y026742D01*
X024076Y026769D01*
D02*
G37*
G36*
X026488Y025046D02*
X026394D01*
X026303Y025022D01*
X026221Y024975D01*
X026155Y024908D01*
X026108Y024827D01*
X026084Y024736D01*
Y024642D01*
X026108Y024551D01*
X026155Y02447D01*
X026221Y024403D01*
X026303Y024356D01*
X026394Y024332D01*
X026488D01*
X026578Y024356D01*
X02666Y024403D01*
X026726Y02447D01*
X026773Y024551D01*
X026797Y024642D01*
Y024736D01*
X026773Y024827D01*
X026726Y024908D01*
X02666Y024975D01*
X026578Y025022D01*
X026488Y025046D01*
D02*
G37*
G36*
X022626Y023669D02*
X022555D01*
X022489Y023642D01*
X022445Y023598D01*
X022416Y023594D01*
X022387Y023598D01*
X022343Y023642D01*
X022276Y023669D01*
X022205D01*
X022139Y023642D01*
X022088Y023591D01*
X02206Y023525D01*
Y023453D01*
X022088Y023387D01*
X022111Y023364D01*
X022088Y023341D01*
X02206Y023275D01*
Y023203D01*
X022061Y023202D01*
X022017Y023178D01*
X021959Y023264D01*
X021874Y02335D01*
X021774Y023416D01*
X021663Y023463D01*
X021544Y023486D01*
X021424D01*
X021306Y023463D01*
X021195Y023416D01*
X021095Y02335D01*
X02101Y023264D01*
X020943Y023164D01*
X020897Y023053D01*
X020873Y022935D01*
Y022815D01*
X020897Y022697D01*
X020943Y022585D01*
X02101Y022485D01*
X021095Y0224D01*
X021195Y022333D01*
X021306Y022287D01*
X021424Y022264D01*
X021544D01*
X021663Y022287D01*
X021774Y022333D01*
X021874Y0224D01*
X021959Y022485D01*
X022026Y022585D01*
X022072Y022697D01*
X022095Y022815D01*
Y022935D01*
X022072Y023053D01*
X022048Y023112D01*
X022088Y023137D01*
X022139Y023086D01*
X022205Y023059D01*
X022276D01*
X022343Y023086D01*
X022387Y02313D01*
X022416Y023134D01*
X022445Y02313D01*
X022489Y023086D01*
X022555Y023059D01*
X022626D01*
X022693Y023086D01*
X022743Y023137D01*
X022771Y023203D01*
Y023275D01*
X022743Y023341D01*
X02272Y023364D01*
X022743Y023387D01*
X022771Y023453D01*
Y023525D01*
X022743Y023591D01*
X022693Y023642D01*
X022626Y023669D01*
D02*
G37*
G36*
X031176Y023869D02*
X031105D01*
X031039Y023842D01*
X030988Y023791D01*
X03096Y023725D01*
Y023653D01*
X030988Y023587D01*
X031039Y023536D01*
X031105Y023509D01*
X031176D01*
X031243Y023536D01*
X031293Y023587D01*
X031321Y023653D01*
Y023725D01*
X031293Y023791D01*
X031243Y023842D01*
X031176Y023869D01*
D02*
G37*
G36*
X032726Y023519D02*
X032655D01*
X032589Y023492D01*
X032566Y023469D01*
X032543Y023492D01*
X032476Y023519D01*
X032405D01*
X032339Y023492D01*
X032288Y023441D01*
X03226Y023375D01*
Y023303D01*
X032288Y023237D01*
X032339Y023186D01*
X032405Y023159D01*
X032476D01*
X032543Y023186D01*
X032566Y023209D01*
X032589Y023186D01*
X032655Y023159D01*
X032726D01*
X032793Y023186D01*
X032843Y023237D01*
X032871Y023303D01*
Y023375D01*
X032843Y023441D01*
X032793Y023492D01*
X032726Y023519D01*
D02*
G37*
G36*
X027488Y024046D02*
X027394D01*
X027303Y024022D01*
X027221Y023975D01*
X027155Y023908D01*
X027108Y023827D01*
X027084Y023736D01*
Y023642D01*
X027108Y023551D01*
X027155Y02347D01*
X027221Y023403D01*
X027303Y023356D01*
X027394Y023332D01*
X027488D01*
X027578Y023356D01*
X02766Y023403D01*
X027726Y02347D01*
X027773Y023551D01*
X027797Y023642D01*
Y023736D01*
X027773Y023827D01*
X027726Y023908D01*
X02766Y023975D01*
X027578Y024022D01*
X027488Y024046D01*
D02*
G37*
G36*
X026797D02*
X026084D01*
Y023332D01*
X026797D01*
Y024046D01*
D02*
G37*
G36*
X027876Y023019D02*
X027805D01*
X027739Y022992D01*
X027716Y022969D01*
X027693Y022992D01*
X027626Y023019D01*
X027555D01*
X027489Y022992D01*
X027438Y022941D01*
X02741Y022875D01*
Y022803D01*
X027438Y022737D01*
X027461Y022714D01*
X027438Y022691D01*
X02741Y022625D01*
Y022553D01*
X027438Y022487D01*
X027489Y022436D01*
X027555Y022409D01*
X027626D01*
X027693Y022436D01*
X027716Y022459D01*
X027739Y022436D01*
X027805Y022409D01*
X027876D01*
X027943Y022436D01*
X027993Y022487D01*
X028021Y022553D01*
Y022625D01*
X027993Y022691D01*
X02797Y022714D01*
X027993Y022737D01*
X028021Y022803D01*
Y022875D01*
X027993Y022941D01*
X027943Y022992D01*
X027876Y023019D01*
D02*
G37*
G36*
X030426Y022569D02*
X030355D01*
X030289Y022542D01*
X030238Y022491D01*
X03021Y022425D01*
Y022353D01*
X030238Y022287D01*
X030289Y022236D01*
X030355Y022209D01*
X030426D01*
X030493Y022236D01*
X030543Y022287D01*
X030571Y022353D01*
Y022425D01*
X030543Y022491D01*
X030493Y022542D01*
X030426Y022569D01*
D02*
G37*
G36*
X0225Y022543D02*
X022429D01*
X022363Y022516D01*
X022312Y022465D01*
X022284Y022399D01*
Y022327D01*
X022312Y022261D01*
X022363Y02221D01*
X022429Y022183D01*
X0225D01*
X022567Y02221D01*
X022617Y022261D01*
X022645Y022327D01*
Y022399D01*
X022617Y022465D01*
X022567Y022516D01*
X0225Y022543D01*
D02*
G37*
G36*
X028926Y022169D02*
X028855D01*
X028789Y022142D01*
X028738Y022091D01*
X02871Y022025D01*
Y021953D01*
X028738Y021887D01*
X028789Y021836D01*
X028855Y021809D01*
X028926D01*
X028993Y021836D01*
X029043Y021887D01*
X029071Y021953D01*
Y022025D01*
X029043Y022091D01*
X028993Y022142D01*
X028926Y022169D01*
D02*
G37*
G36*
X022476Y021769D02*
X022405D01*
X022339Y021742D01*
X022288Y021691D01*
X02226Y021625D01*
Y021553D01*
X022288Y021487D01*
X022339Y021436D01*
X022405Y021409D01*
X022476D01*
X022543Y021436D01*
X022593Y021487D01*
X022621Y021553D01*
Y021625D01*
X022593Y021691D01*
X022543Y021742D01*
X022476Y021769D01*
D02*
G37*
G36*
X030126Y021419D02*
X030055D01*
X029989Y021392D01*
X029938Y021341D01*
X02991Y021275D01*
Y021203D01*
X029938Y021137D01*
X029989Y021086D01*
X030055Y021059D01*
X030126D01*
X030193Y021086D01*
X030243Y021137D01*
X030271Y021203D01*
Y021275D01*
X030243Y021341D01*
X030193Y021392D01*
X030126Y021419D01*
D02*
G37*
G36*
X021544Y021714D02*
X021424D01*
X021306Y021691D01*
X021195Y021645D01*
X021095Y021578D01*
X02101Y021493D01*
X020943Y021393D01*
X020897Y021281D01*
X020873Y021163D01*
Y021043D01*
X020897Y020925D01*
X020943Y020814D01*
X02101Y020714D01*
X021095Y020628D01*
X021195Y020562D01*
X021306Y020515D01*
X021424Y020492D01*
X021544D01*
X021663Y020515D01*
X021774Y020562D01*
X021874Y020628D01*
X021959Y020714D01*
X022026Y020814D01*
X022072Y020925D01*
X022095Y021043D01*
Y021163D01*
X022072Y021281D01*
X022026Y021393D01*
X021959Y021493D01*
X021874Y021578D01*
X021774Y021645D01*
X021663Y021691D01*
X021544Y021714D01*
D02*
G37*
G36*
X026876Y020719D02*
X026805D01*
X026739Y020692D01*
X026688Y020641D01*
X02666Y020575D01*
Y020503D01*
X026688Y020437D01*
X026739Y020386D01*
X026805Y020359D01*
X026876D01*
X026943Y020386D01*
X026993Y020437D01*
X027021Y020503D01*
Y020575D01*
X026993Y020641D01*
X026943Y020692D01*
X026876Y020719D01*
D02*
G37*
G36*
X021926Y020319D02*
X021855D01*
X021789Y020292D01*
X021781Y020284D01*
X021773Y020292D01*
X021706Y020319D01*
X021635D01*
X021569Y020292D01*
X021518Y020241D01*
X021491Y020175D01*
Y020103D01*
X021518Y020037D01*
X021541Y020014D01*
X021518Y019991D01*
X021491Y019925D01*
Y019853D01*
X021518Y019787D01*
X021569Y019736D01*
X021635Y019709D01*
X021706D01*
X021773Y019736D01*
X021781Y019744D01*
X021789Y019736D01*
X021855Y019709D01*
X021926D01*
X021993Y019736D01*
X022043Y019787D01*
X022071Y019853D01*
Y019925D01*
X022043Y019991D01*
X02202Y020014D01*
X022043Y020037D01*
X022071Y020103D01*
Y020175D01*
X022043Y020241D01*
X021993Y020292D01*
X021926Y020319D01*
D02*
G37*
G36*
X024626Y020069D02*
X024555D01*
X024489Y020042D01*
X024441Y019994D01*
X024393Y020042D01*
X024326Y020069D01*
X024255D01*
X024189Y020042D01*
X024138Y019991D01*
X02411Y019925D01*
Y019853D01*
X024138Y019787D01*
X024189Y019736D01*
X024255Y019709D01*
X024326D01*
X024393Y019736D01*
X024441Y019784D01*
X024489Y019736D01*
X024555Y019709D01*
X024626D01*
X024693Y019736D01*
X024743Y019787D01*
X024771Y019853D01*
Y019925D01*
X024743Y019991D01*
X024693Y020042D01*
X024626Y020069D01*
D02*
G37*
G36*
X030276Y020469D02*
X030205D01*
X030139Y020442D01*
X030088Y020391D01*
X03006Y020325D01*
Y020319D01*
X030005D01*
X029939Y020292D01*
X029888Y020241D01*
X02986Y020175D01*
Y020103D01*
X029888Y020037D01*
X029939Y019986D01*
X030005Y019959D01*
X030076D01*
X030121Y019977D01*
X030138Y019937D01*
X030189Y019886D01*
X030255Y019859D01*
X030326D01*
X030393Y019886D01*
X030443Y019937D01*
X030471Y020003D01*
Y020075D01*
X030443Y020141D01*
X030394Y02019D01*
X030421Y020253D01*
Y020325D01*
X030393Y020391D01*
X030343Y020442D01*
X030276Y020469D01*
D02*
G37*
G36*
X026376Y020189D02*
X026305D01*
X026239Y020161D01*
X026188Y020111D01*
X02616Y020044D01*
Y019973D01*
X026188Y019907D01*
X026239Y019856D01*
X026305Y019828D01*
X026376D01*
X026443Y019856D01*
X026493Y019907D01*
X026521Y019973D01*
Y020044D01*
X026493Y020111D01*
X026443Y020161D01*
X026376Y020189D01*
D02*
G37*
G36*
X023876Y019669D02*
X023805D01*
X023739Y019642D01*
X023688Y019591D01*
X02366Y019525D01*
Y019453D01*
X023688Y019387D01*
X023739Y019336D01*
X023805Y019309D01*
X023876D01*
X023943Y019336D01*
X023993Y019387D01*
X024021Y019453D01*
Y019525D01*
X023993Y019591D01*
X023943Y019642D01*
X023876Y019669D01*
D02*
G37*
G36*
X021176Y019269D02*
X021105D01*
X021039Y019242D01*
X020988Y019191D01*
X02096Y019125D01*
Y019053D01*
X020988Y018987D01*
X021039Y018936D01*
X021105Y018909D01*
X021176D01*
X021243Y018936D01*
X021293Y018987D01*
X021321Y019053D01*
Y019125D01*
X021293Y019191D01*
X021243Y019242D01*
X021176Y019269D01*
D02*
G37*
G36*
X025076Y018769D02*
X025005D01*
X024939Y018742D01*
X024888Y018691D01*
X02486Y018625D01*
Y018553D01*
X024888Y018487D01*
X024939Y018436D01*
X025005Y018409D01*
X025076D01*
X025143Y018436D01*
X025193Y018487D01*
X025221Y018553D01*
Y018625D01*
X025193Y018691D01*
X025143Y018742D01*
X025076Y018769D01*
D02*
G37*
G36*
X026003Y018763D02*
X025931D01*
X025865Y018736D01*
X025814Y018685D01*
X025787Y018619D01*
Y018547D01*
X025814Y018481D01*
X025865Y01843D01*
X025931Y018403D01*
X026003D01*
X026069Y01843D01*
X02612Y018481D01*
X026147Y018547D01*
Y018619D01*
X02612Y018685D01*
X026069Y018736D01*
X026003Y018763D01*
D02*
G37*
G36*
X015347Y020949D02*
X015275D01*
X015209Y020922D01*
X015158Y020871D01*
X015131Y020805D01*
Y020733D01*
X015158Y020667D01*
X015209Y020616D01*
X015275Y020589D01*
X015347D01*
X015413Y020616D01*
X015464Y020667D01*
X015491Y020733D01*
Y020805D01*
X015464Y020871D01*
X015413Y020922D01*
X015347Y020949D01*
D02*
G37*
G36*
X009157Y020977D02*
X009063D01*
X008972Y020953D01*
X008891Y020906D01*
X008824Y020839D01*
X008777Y020758D01*
X008753Y020667D01*
Y020573D01*
X008777Y020482D01*
X008824Y020401D01*
X008891Y020335D01*
X008972Y020288D01*
X009063Y020263D01*
X009157D01*
X009248Y020288D01*
X009329Y020335D01*
X009395Y020401D01*
X009442Y020482D01*
X009467Y020573D01*
Y020667D01*
X009442Y020758D01*
X009395Y020839D01*
X009329Y020906D01*
X009248Y020953D01*
X009157Y020977D01*
D02*
G37*
G36*
X006046Y02055D02*
X005974D01*
X005908Y020523D01*
X005857Y020472D01*
X00583Y020406D01*
Y020334D01*
X005857Y020268D01*
X005908Y020217D01*
X005974Y02019D01*
X006046D01*
X006112Y020217D01*
X006163Y020268D01*
X00619Y020334D01*
Y020406D01*
X006163Y020472D01*
X006112Y020523D01*
X006046Y02055D01*
D02*
G37*
G36*
X008496Y020675D02*
X008424D01*
X008358Y020647D01*
X008307Y020597D01*
X00828Y020531D01*
Y020459D01*
X008307Y020393D01*
X008358Y020342D01*
X008381Y020332D01*
X008358Y020323D01*
X008307Y020272D01*
X00828Y020206D01*
Y020134D01*
X008307Y020068D01*
X008358Y020017D01*
X008424Y01999D01*
X008496D01*
X008562Y020017D01*
X008613Y020068D01*
X00864Y020134D01*
Y020206D01*
X008613Y020272D01*
X008562Y020323D01*
X008539Y020332D01*
X008562Y020342D01*
X008613Y020393D01*
X00864Y020459D01*
Y020531D01*
X008613Y020597D01*
X008562Y020647D01*
X008496Y020675D01*
D02*
G37*
G36*
X015946Y0202D02*
X015874D01*
X015808Y020173D01*
X015757Y020122D01*
X01573Y020056D01*
Y019984D01*
X015757Y019918D01*
X015808Y019867D01*
X015874Y01984D01*
X015946D01*
X016012Y019867D01*
X016063Y019918D01*
X01609Y019984D01*
Y020056D01*
X016063Y020122D01*
X016012Y020173D01*
X015946Y0202D01*
D02*
G37*
G36*
X011996Y020442D02*
X011924D01*
X011858Y020414D01*
X011807Y020364D01*
X01178Y020297D01*
Y020226D01*
X011807Y02016D01*
X011826Y020141D01*
X011807Y020122D01*
X01178Y020056D01*
Y019984D01*
X011807Y019918D01*
X011858Y019867D01*
X011924Y01984D01*
X011996D01*
X012062Y019867D01*
X012113Y019918D01*
X01214Y019984D01*
Y020056D01*
X012113Y020122D01*
X012094Y020141D01*
X012113Y02016D01*
X01214Y020226D01*
Y020297D01*
X012113Y020364D01*
X012062Y020414D01*
X011996Y020442D01*
D02*
G37*
G36*
X005946Y01975D02*
X005874D01*
X005808Y019723D01*
X005757Y019672D01*
X005735Y019618D01*
X005713Y019672D01*
X005662Y019723D01*
X005596Y01975D01*
X005524D01*
X005458Y019723D01*
X005407Y019672D01*
X00538Y019606D01*
Y019534D01*
X005407Y019468D01*
X00543Y019445D01*
X005407Y019422D01*
X00538Y019356D01*
Y019284D01*
X005407Y019218D01*
X005458Y019167D01*
X005524Y01914D01*
X005596D01*
X005662Y019167D01*
X005713Y019218D01*
X005735Y019272D01*
X005757Y019218D01*
X005808Y019167D01*
X005874Y01914D01*
X005946D01*
X006012Y019167D01*
X006063Y019218D01*
X00609Y019284D01*
Y019356D01*
X006063Y019422D01*
X00604Y019445D01*
X006063Y019468D01*
X00609Y019534D01*
Y019606D01*
X006063Y019672D01*
X006012Y019723D01*
X005946Y01975D01*
D02*
G37*
G36*
X010157Y019977D02*
X010063D01*
X009972Y019953D01*
X009891Y019906D01*
X009824Y019839D01*
X009777Y019758D01*
X009753Y019667D01*
Y019573D01*
X009777Y019482D01*
X009824Y019401D01*
X009891Y019335D01*
X009972Y019288D01*
X010063Y019263D01*
X010157D01*
X010248Y019288D01*
X010329Y019335D01*
X010395Y019401D01*
X010442Y019482D01*
X010467Y019573D01*
Y019667D01*
X010442Y019758D01*
X010395Y019839D01*
X010329Y019906D01*
X010248Y019953D01*
X010157Y019977D01*
D02*
G37*
G36*
X009467D02*
X008753D01*
Y019263D01*
X009467D01*
Y019977D01*
D02*
G37*
G36*
X008496Y01995D02*
X008424D01*
X008358Y019923D01*
X008307Y019872D01*
X00828Y019806D01*
Y019734D01*
X008307Y019668D01*
X008358Y019617D01*
X008412Y019595D01*
X008358Y019573D01*
X008307Y019522D01*
X00828Y019456D01*
Y019384D01*
X008307Y019318D01*
X008358Y019267D01*
X008424Y01924D01*
X008496D01*
X008562Y019267D01*
X008613Y019318D01*
X00864Y019384D01*
Y019456D01*
X008613Y019522D01*
X008562Y019573D01*
X008508Y019595D01*
X008562Y019617D01*
X008613Y019668D01*
X00864Y019734D01*
Y019806D01*
X008613Y019872D01*
X008562Y019923D01*
X008496Y01995D01*
D02*
G37*
G36*
X012896Y01945D02*
X012824D01*
X012758Y019423D01*
X012707Y019372D01*
X01268Y019306D01*
Y019234D01*
X012707Y019168D01*
X012758Y019117D01*
X012824Y01909D01*
X012896D01*
X012962Y019117D01*
X013013Y019168D01*
X01304Y019234D01*
Y019306D01*
X013013Y019372D01*
X012962Y019423D01*
X012896Y01945D01*
D02*
G37*
G36*
X013996Y01925D02*
X013924D01*
X013858Y019223D01*
X013807Y019172D01*
X01378Y019106D01*
Y019034D01*
X013807Y018968D01*
X013858Y018917D01*
X013924Y01889D01*
X013996D01*
X014062Y018917D01*
X014113Y018968D01*
X01414Y019034D01*
Y019106D01*
X014113Y019172D01*
X014062Y019223D01*
X013996Y01925D01*
D02*
G37*
G36*
X018926Y019623D02*
X018794D01*
X018666Y019589D01*
X018551Y019522D01*
X018457Y019429D01*
X018391Y019314D01*
X018357Y019186D01*
Y019054D01*
X018391Y018926D01*
X018457Y018811D01*
X018551Y018718D01*
X018666Y018651D01*
X018794Y018617D01*
X018926D01*
X019054Y018651D01*
X019169Y018718D01*
X019262Y018811D01*
X019329Y018926D01*
X019363Y019054D01*
Y019186D01*
X019329Y019314D01*
X019262Y019429D01*
X019169Y019522D01*
X019054Y019589D01*
X018926Y019623D01*
D02*
G37*
G36*
X004864Y019567D02*
X004743D01*
X004625Y019544D01*
X004514Y019498D01*
X004414Y019431D01*
X004329Y019346D01*
X004262Y019245D01*
X004216Y019134D01*
X004192Y019016D01*
Y018896D01*
X004216Y018778D01*
X004262Y018666D01*
X004329Y018566D01*
X004414Y018481D01*
X004514Y018414D01*
X004625Y018368D01*
X004743Y018345D01*
X004864D01*
X004982Y018368D01*
X005093Y018414D01*
X005193Y018481D01*
X005278Y018566D01*
X005345Y018666D01*
X005391Y018778D01*
X005415Y018896D01*
Y019016D01*
X005391Y019134D01*
X005345Y019245D01*
X005278Y019346D01*
X005193Y019431D01*
X005093Y019498D01*
X004982Y019544D01*
X004864Y019567D01*
D02*
G37*
G36*
X005796Y0186D02*
X005724D01*
X005658Y018573D01*
X005607Y018522D01*
X00558Y018456D01*
Y018384D01*
X005607Y018318D01*
X005658Y018267D01*
X005724Y01824D01*
X005796D01*
X005862Y018267D01*
X005913Y018318D01*
X00594Y018384D01*
Y018456D01*
X005913Y018522D01*
X005862Y018573D01*
X005796Y0186D01*
D02*
G37*
G36*
X013831Y018588D02*
X013759D01*
X013693Y018561D01*
X013642Y01851D01*
X013615Y018444D01*
Y018372D01*
X013642Y018306D01*
X013693Y018255D01*
X013759Y018228D01*
X013831D01*
X013897Y018255D01*
X013948Y018306D01*
X013975Y018372D01*
Y018444D01*
X013948Y01851D01*
X013897Y018561D01*
X013831Y018588D01*
D02*
G37*
G36*
X005796Y01785D02*
X005724D01*
X005658Y017823D01*
X005607Y017772D01*
X00558Y017706D01*
Y017634D01*
X005607Y017568D01*
X005658Y017517D01*
X005724Y01749D01*
X005796D01*
X005862Y017517D01*
X005913Y017568D01*
X00594Y017634D01*
Y017706D01*
X005913Y017772D01*
X005862Y017823D01*
X005796Y01785D01*
D02*
G37*
G36*
X008746Y0175D02*
X008674D01*
X008608Y017473D01*
X008585Y01745D01*
X008562Y017473D01*
X008496Y0175D01*
X008424D01*
X008358Y017473D01*
X008307Y017422D01*
X00828Y017356D01*
Y017284D01*
X008307Y017218D01*
X00833Y017195D01*
X008307Y017172D01*
X00828Y017106D01*
Y017034D01*
X008307Y016968D01*
X008358Y016917D01*
X008424Y01689D01*
X008496D01*
X008562Y016917D01*
X008585Y01694D01*
X008608Y016917D01*
X008674Y01689D01*
X008746D01*
X008812Y016917D01*
X008863Y016968D01*
X00889Y017034D01*
Y017106D01*
X008863Y017172D01*
X00884Y017195D01*
X008863Y017218D01*
X00889Y017284D01*
Y017356D01*
X008863Y017422D01*
X008812Y017473D01*
X008746Y0175D01*
D02*
G37*
G36*
X010596Y0177D02*
X010524D01*
X010458Y017673D01*
X010407Y017622D01*
X01038Y017556D01*
Y017484D01*
X010407Y017418D01*
X010458Y017367D01*
X010524Y01734D01*
X010596D01*
X010662Y017367D01*
X010713Y017418D01*
X01074Y017484D01*
Y017556D01*
X010713Y017622D01*
X010662Y017673D01*
X010596Y0177D01*
D02*
G37*
G36*
X013896D02*
X013824D01*
X013758Y017673D01*
X013707Y017622D01*
X01368Y017556D01*
Y017484D01*
X013707Y017418D01*
X013755Y01737D01*
X013707Y017322D01*
X01368Y017256D01*
Y017184D01*
X013707Y017118D01*
X013758Y017067D01*
X013824Y01704D01*
X013896D01*
X013962Y017067D01*
X014013Y017118D01*
X01404Y017184D01*
Y017256D01*
X014013Y017322D01*
X013965Y01737D01*
X014013Y017418D01*
X01404Y017484D01*
Y017556D01*
X014013Y017622D01*
X013962Y017673D01*
X013896Y0177D01*
D02*
G37*
G36*
X009796Y0174D02*
X009724D01*
X009658Y017373D01*
X009607Y017322D01*
X00958Y017256D01*
Y017184D01*
X009607Y017118D01*
X009658Y017067D01*
X009724Y01704D01*
X009796D01*
X009862Y017067D01*
X009913Y017118D01*
X00994Y017184D01*
Y017256D01*
X009913Y017322D01*
X009862Y017373D01*
X009796Y0174D01*
D02*
G37*
G36*
X008019Y017173D02*
X007947D01*
X007881Y017146D01*
X00783Y017095D01*
X007803Y017029D01*
Y016957D01*
X00783Y016891D01*
X007881Y016841D01*
X007947Y016813D01*
X008019D01*
X008085Y016841D01*
X008136Y016891D01*
X008163Y016957D01*
Y017029D01*
X008136Y017095D01*
X008085Y017146D01*
X008019Y017173D01*
D02*
G37*
G36*
X010846Y017D02*
X010774D01*
X010708Y016973D01*
X010657Y016922D01*
X01063Y016856D01*
Y016784D01*
X010657Y016718D01*
X010708Y016667D01*
X010774Y01664D01*
X010846D01*
X010912Y016667D01*
X010963Y016718D01*
X01099Y016784D01*
Y016856D01*
X010963Y016922D01*
X010912Y016973D01*
X010846Y017D01*
D02*
G37*
G36*
X004864Y017795D02*
X004743D01*
X004625Y017772D01*
X004514Y017726D01*
X004414Y017659D01*
X004329Y017574D01*
X004262Y017474D01*
X004216Y017363D01*
X004192Y017244D01*
Y017124D01*
X004216Y017006D01*
X004262Y016895D01*
X004329Y016795D01*
X004414Y01671D01*
X004514Y016643D01*
X004625Y016597D01*
X004743Y016573D01*
X004864D01*
X004982Y016597D01*
X005093Y016643D01*
X005193Y01671D01*
X005278Y016795D01*
X005345Y016895D01*
X005391Y017006D01*
X005415Y017124D01*
Y017244D01*
X005391Y017363D01*
X005345Y017474D01*
X005278Y017574D01*
X005193Y017659D01*
X005093Y017726D01*
X004982Y017772D01*
X004864Y017795D01*
D02*
G37*
G36*
X012608Y016862D02*
X012536D01*
X01247Y016835D01*
X01242Y016784D01*
X012392Y016718D01*
Y016646D01*
X01242Y01658D01*
X01247Y01653D01*
X012536Y016502D01*
X012608D01*
X012674Y01653D01*
X012725Y01658D01*
X012752Y016646D01*
Y016718D01*
X012725Y016784D01*
X012674Y016835D01*
X012608Y016862D01*
D02*
G37*
G36*
X009796Y01655D02*
X009724D01*
X009658Y016523D01*
X009607Y016472D01*
X00958Y016406D01*
Y016334D01*
X009607Y016268D01*
X009658Y016217D01*
X009724Y01619D01*
X009796D01*
X009862Y016217D01*
X009913Y016268D01*
X00994Y016334D01*
Y016406D01*
X009913Y016472D01*
X009862Y016523D01*
X009796Y01655D01*
D02*
G37*
G36*
X009846Y01615D02*
X009774D01*
X009708Y016123D01*
X009668Y016082D01*
X009627Y016123D01*
X009561Y01615D01*
X00949D01*
X009423Y016123D01*
X009373Y016072D01*
X009345Y016006D01*
Y015934D01*
X009373Y015868D01*
X009423Y015817D01*
X00949Y01579D01*
X009561D01*
X009627Y015817D01*
X009668Y015858D01*
X009708Y015817D01*
X009774Y01579D01*
X009846D01*
X009912Y015817D01*
X009963Y015868D01*
X00999Y015934D01*
Y016006D01*
X009963Y016072D01*
X009912Y016123D01*
X009846Y01615D01*
D02*
G37*
G36*
X012183Y016438D02*
X012112D01*
X012046Y01641D01*
X011995Y01636D01*
X011968Y016294D01*
Y016222D01*
X011995Y016156D01*
X012046Y016105D01*
X012112Y016078D01*
X012183D01*
X01225Y016105D01*
X0123Y016156D01*
X012328Y016222D01*
Y016294D01*
X0123Y01636D01*
X01225Y01641D01*
X012183Y016438D01*
D02*
G37*
G36*
X005546Y01625D02*
X005474D01*
X005408Y016223D01*
X005357Y016172D01*
X00533Y016106D01*
Y016034D01*
X005357Y015968D01*
X005408Y015917D01*
X005474Y01589D01*
X005546D01*
X005612Y015917D01*
X005663Y015968D01*
X00569Y016034D01*
Y016106D01*
X005663Y016172D01*
X005612Y016223D01*
X005546Y01625D01*
D02*
G37*
G36*
X013596Y0164D02*
X013524D01*
X013458Y016373D01*
X013407Y016322D01*
X01338Y016256D01*
Y016184D01*
X013406Y01612D01*
X01338Y016056D01*
Y015984D01*
X013407Y015918D01*
X013458Y015867D01*
X013524Y01584D01*
X013596D01*
X013662Y015867D01*
X013713Y015918D01*
X01374Y015984D01*
Y016056D01*
X013713Y01612D01*
X01374Y016184D01*
Y016256D01*
X013713Y016322D01*
X013662Y016373D01*
X013596Y0164D01*
D02*
G37*
G36*
X008646Y01615D02*
X008574D01*
X008508Y016123D01*
X008457Y016072D01*
X00843Y016006D01*
Y015934D01*
X008457Y015868D01*
X008508Y015817D01*
X008574Y01579D01*
X008646D01*
X008712Y015817D01*
X008763Y015868D01*
X00879Y015934D01*
Y016006D01*
X008763Y016072D01*
X008712Y016123D01*
X008646Y01615D01*
D02*
G37*
G36*
X032755Y015549D02*
X032683D01*
X032617Y015521D01*
X032576Y015481D01*
X032536Y015521D01*
X03247Y015549D01*
X032398D01*
X032332Y015521D01*
X032282Y015471D01*
X032254Y015404D01*
Y015333D01*
X032282Y015267D01*
X032332Y015216D01*
X032398Y015188D01*
X03247D01*
X032536Y015216D01*
X032576Y015256D01*
X032617Y015216D01*
X032683Y015188D01*
X032755D01*
X032821Y015216D01*
X032871Y015267D01*
X032899Y015333D01*
Y015404D01*
X032871Y015471D01*
X032821Y015521D01*
X032755Y015549D01*
D02*
G37*
G36*
X03367D02*
X033598D01*
X033532Y015521D01*
X033482Y015471D01*
X033454Y015404D01*
Y015333D01*
X033482Y015267D01*
X033532Y015216D01*
X033598Y015188D01*
X03367D01*
X033736Y015216D01*
X033787Y015267D01*
X033814Y015333D01*
Y015404D01*
X033787Y015471D01*
X033736Y015521D01*
X03367Y015549D01*
D02*
G37*
G36*
X03677Y015449D02*
X036698D01*
X036632Y015421D01*
X036582Y015371D01*
X036554Y015304D01*
Y015233D01*
X036582Y015167D01*
X036632Y015116D01*
X036698Y015088D01*
X03677D01*
X036836Y015116D01*
X036887Y015167D01*
X036914Y015233D01*
Y015304D01*
X036887Y015371D01*
X036836Y015421D01*
X03677Y015449D01*
D02*
G37*
G36*
X02872Y015499D02*
X028648D01*
X028582Y015471D01*
X028532Y015421D01*
X028504Y015354D01*
Y015283D01*
X028531Y015219D01*
X028504Y015154D01*
Y015083D01*
X028532Y015017D01*
X028582Y014966D01*
X028648Y014938D01*
X02872D01*
X028786Y014966D01*
X028837Y015017D01*
X028864Y015083D01*
Y015154D01*
X028838Y015219D01*
X028864Y015283D01*
Y015354D01*
X028837Y015421D01*
X028786Y015471D01*
X02872Y015499D01*
D02*
G37*
G36*
X030132Y015261D02*
X030061D01*
X029994Y015233D01*
X029944Y015183D01*
X029916Y015117D01*
Y015045D01*
X029944Y014979D01*
X029994Y014928D01*
X030061Y014901D01*
X030132D01*
X030198Y014928D01*
X030249Y014979D01*
X030277Y015045D01*
Y015117D01*
X030249Y015183D01*
X030198Y015233D01*
X030132Y015261D01*
D02*
G37*
G36*
X03252Y015149D02*
X032448D01*
X032382Y015121D01*
X032332Y015071D01*
X032304Y015004D01*
Y014933D01*
X032332Y014867D01*
X032382Y014816D01*
X032448Y014788D01*
X03252D01*
X032586Y014816D01*
X032637Y014867D01*
X032664Y014933D01*
Y015004D01*
X032637Y015071D01*
X032586Y015121D01*
X03252Y015149D01*
D02*
G37*
G36*
X029708Y014836D02*
X029636D01*
X02957Y014809D01*
X029519Y014758D01*
X029492Y014692D01*
Y01462D01*
X029519Y014554D01*
X02957Y014504D01*
X029636Y014476D01*
X029708D01*
X029774Y014504D01*
X029825Y014554D01*
X029852Y01462D01*
Y014692D01*
X029825Y014758D01*
X029774Y014809D01*
X029708Y014836D01*
D02*
G37*
G36*
X03382Y014449D02*
X033748D01*
X033682Y014421D01*
X033659Y014398D01*
X033636Y014421D01*
X03357Y014449D01*
X033498D01*
X033432Y014421D01*
X033382Y014371D01*
X033354Y014304D01*
Y014233D01*
X033382Y014167D01*
X033405Y014144D01*
X033382Y014121D01*
X033354Y014054D01*
Y013983D01*
X033382Y013917D01*
X033432Y013866D01*
X033498Y013838D01*
X03357D01*
X033636Y013866D01*
X033659Y013889D01*
X033682Y013866D01*
X033748Y013838D01*
X03382D01*
X033886Y013866D01*
X033937Y013917D01*
X033964Y013983D01*
Y014054D01*
X033937Y014121D01*
X033914Y014144D01*
X033937Y014167D01*
X033964Y014233D01*
Y014304D01*
X033937Y014371D01*
X033886Y014421D01*
X03382Y014449D01*
D02*
G37*
G36*
X03147Y014699D02*
X031398D01*
X031332Y014671D01*
X031282Y014621D01*
X031254Y014554D01*
Y014483D01*
X031282Y014417D01*
X031332Y014366D01*
X031398Y014338D01*
X03147D01*
X031536Y014366D01*
X031587Y014417D01*
X031614Y014483D01*
Y014554D01*
X031587Y014621D01*
X031536Y014671D01*
X03147Y014699D01*
D02*
G37*
G36*
X034297Y014525D02*
X034225D01*
X034159Y014498D01*
X034108Y014447D01*
X034081Y014381D01*
Y01431D01*
X034108Y014243D01*
X034159Y014193D01*
X034225Y014165D01*
X034297D01*
X034363Y014193D01*
X034414Y014243D01*
X034441Y01431D01*
Y014381D01*
X034414Y014447D01*
X034363Y014498D01*
X034297Y014525D01*
D02*
G37*
G36*
X03252Y014299D02*
X032448D01*
X032382Y014271D01*
X032332Y014221D01*
X032304Y014154D01*
Y014083D01*
X032332Y014017D01*
X032382Y013966D01*
X032448Y013938D01*
X03252D01*
X032586Y013966D01*
X032637Y014017D01*
X032664Y014083D01*
Y014154D01*
X032637Y014221D01*
X032586Y014271D01*
X03252Y014299D01*
D02*
G37*
G36*
X03172Y013999D02*
X031648D01*
X031582Y013971D01*
X031532Y013921D01*
X031504Y013854D01*
Y013783D01*
X031532Y013717D01*
X031582Y013666D01*
X031648Y013638D01*
X03172D01*
X031786Y013666D01*
X031837Y013717D01*
X031864Y013783D01*
Y013854D01*
X031837Y013921D01*
X031786Y013971D01*
X03172Y013999D01*
D02*
G37*
G36*
X02842Y014299D02*
X028348D01*
X028282Y014271D01*
X028232Y014221D01*
X028204Y014154D01*
Y014083D01*
X028232Y014017D01*
X02828Y013969D01*
X028232Y013921D01*
X028204Y013854D01*
Y013783D01*
X028232Y013717D01*
X028282Y013666D01*
X028348Y013638D01*
X02842D01*
X028486Y013666D01*
X028537Y013717D01*
X028564Y013783D01*
Y013854D01*
X028537Y013921D01*
X028489Y013969D01*
X028537Y014017D01*
X028564Y014083D01*
Y014154D01*
X028537Y014221D01*
X028486Y014271D01*
X02842Y014299D01*
D02*
G37*
G36*
X037501Y014766D02*
X03738D01*
X037262Y014742D01*
X037151Y014696D01*
X037051Y014629D01*
X036966Y014544D01*
X036899Y014444D01*
X036853Y014333D01*
X036829Y014215D01*
Y014094D01*
X036853Y013976D01*
X036899Y013865D01*
X036966Y013765D01*
X037051Y01368D01*
X037151Y013613D01*
X037262Y013567D01*
X03738Y013543D01*
X037501D01*
X037619Y013567D01*
X03773Y013613D01*
X03783Y01368D01*
X037915Y013765D01*
X037982Y013865D01*
X038028Y013976D01*
X038052Y014094D01*
Y014215D01*
X038028Y014333D01*
X037982Y014444D01*
X037915Y014544D01*
X03783Y014629D01*
X03773Y014696D01*
X037619Y014742D01*
X037501Y014766D01*
D02*
G37*
G36*
X03652Y013849D02*
X036448D01*
X036382Y013821D01*
X036332Y013771D01*
X036304Y013704D01*
Y013633D01*
X036332Y013567D01*
X036382Y013516D01*
X036448Y013488D01*
X03652D01*
X036586Y013516D01*
X036637Y013567D01*
X036664Y013633D01*
Y013704D01*
X036637Y013771D01*
X036586Y013821D01*
X03652Y013849D01*
D02*
G37*
G36*
X028485Y013111D02*
X028413D01*
X028347Y013083D01*
X028296Y013033D01*
X028269Y012966D01*
Y012895D01*
X028296Y012829D01*
X028347Y012778D01*
X028413Y01275D01*
X028485D01*
X028551Y012778D01*
X028602Y012829D01*
X028629Y012895D01*
Y012966D01*
X028602Y013033D01*
X028551Y013083D01*
X028485Y013111D01*
D02*
G37*
G36*
X03652Y013099D02*
X036448D01*
X036382Y013071D01*
X036332Y013021D01*
X036304Y012954D01*
Y012883D01*
X036332Y012817D01*
X036382Y012766D01*
X036448Y012738D01*
X03652D01*
X036586Y012766D01*
X036637Y012817D01*
X036664Y012883D01*
Y012954D01*
X036637Y013021D01*
X036586Y013071D01*
X03652Y013099D01*
D02*
G37*
G36*
X02832Y012449D02*
X028248D01*
X028182Y012421D01*
X028132Y012371D01*
X028104Y012304D01*
Y012233D01*
X028132Y012167D01*
X028182Y012116D01*
X028248Y012088D01*
X02832D01*
X028386Y012116D01*
X028437Y012167D01*
X028464Y012233D01*
Y012304D01*
X028437Y012371D01*
X028386Y012421D01*
X02832Y012449D01*
D02*
G37*
G36*
X03672Y012199D02*
X036648D01*
X036582Y012171D01*
X036532Y012121D01*
X036509Y012067D01*
X036487Y012121D01*
X036436Y012171D01*
X03637Y012199D01*
X036298D01*
X036232Y012171D01*
X036182Y012121D01*
X036154Y012054D01*
Y011983D01*
X036182Y011917D01*
X036205Y011894D01*
X036182Y011871D01*
X036154Y011804D01*
Y011733D01*
X036182Y011667D01*
X036232Y011616D01*
X036298Y011588D01*
X03637D01*
X036436Y011616D01*
X036487Y011667D01*
X036509Y01172D01*
X036532Y011667D01*
X036582Y011616D01*
X036648Y011588D01*
X03672D01*
X036786Y011616D01*
X036837Y011667D01*
X036864Y011733D01*
Y011804D01*
X036837Y011871D01*
X036814Y011894D01*
X036837Y011917D01*
X036864Y011983D01*
Y012054D01*
X036837Y012121D01*
X036786Y012171D01*
X03672Y012199D01*
D02*
G37*
G36*
X02942Y012249D02*
X029348D01*
X029282Y012221D01*
X029232Y012171D01*
X029204Y012104D01*
Y012033D01*
X029232Y011967D01*
X029282Y011916D01*
X029348Y011888D01*
X02942D01*
X029486Y011916D01*
X029537Y011967D01*
X029564Y012033D01*
Y012104D01*
X029537Y012171D01*
X029486Y012221D01*
X02942Y012249D01*
D02*
G37*
G36*
X037501Y012994D02*
X03738D01*
X037262Y01297D01*
X037151Y012924D01*
X037051Y012857D01*
X036966Y012772D01*
X036899Y012672D01*
X036853Y012561D01*
X036829Y012443D01*
Y012322D01*
X036853Y012204D01*
X036899Y012093D01*
X036966Y011993D01*
X037051Y011908D01*
X037151Y011841D01*
X037262Y011795D01*
X03738Y011772D01*
X037501D01*
X037619Y011795D01*
X03773Y011841D01*
X03783Y011908D01*
X037915Y011993D01*
X037982Y012093D01*
X038028Y012204D01*
X038052Y012322D01*
Y012443D01*
X038028Y012561D01*
X037982Y012672D01*
X037915Y012772D01*
X03783Y012857D01*
X03773Y012924D01*
X037619Y01297D01*
X037501Y012994D01*
D02*
G37*
G36*
X02345Y012721D02*
X023318D01*
X02319Y012687D01*
X023075Y012621D01*
X022982Y012527D01*
X022916Y012413D01*
X022881Y012285D01*
Y012152D01*
X022916Y012024D01*
X022982Y01191D01*
X023075Y011816D01*
X02319Y01175D01*
X023318Y011716D01*
X02345D01*
X023578Y01175D01*
X023693Y011816D01*
X023787Y01191D01*
X023853Y012024D01*
X023887Y012152D01*
Y012285D01*
X023853Y012413D01*
X023787Y012527D01*
X023693Y012621D01*
X023578Y012687D01*
X02345Y012721D01*
D02*
G37*
G36*
X03382Y012099D02*
X033748D01*
X033682Y012071D01*
X033632Y012021D01*
X033604Y011954D01*
Y011883D01*
X033632Y011817D01*
X033682Y011766D01*
X033736Y011744D01*
X033682Y011721D01*
X033632Y011671D01*
X033604Y011604D01*
Y011533D01*
X033632Y011467D01*
X033682Y011416D01*
X033748Y011388D01*
X03382D01*
X033886Y011416D01*
X033937Y011467D01*
X033964Y011533D01*
Y011604D01*
X033937Y011671D01*
X033886Y011721D01*
X033832Y011744D01*
X033886Y011766D01*
X033937Y011817D01*
X033964Y011883D01*
Y011954D01*
X033937Y012021D01*
X033886Y012071D01*
X03382Y012099D01*
D02*
G37*
G36*
X033491Y012075D02*
X032777D01*
Y011362D01*
X033491D01*
Y012075D01*
D02*
G37*
G36*
X032181D02*
X032087D01*
X031996Y012051D01*
X031915Y012004D01*
X031849Y011938D01*
X031802Y011856D01*
X031777Y011766D01*
Y011672D01*
X031802Y011581D01*
X031849Y011499D01*
X031915Y011433D01*
X031996Y011386D01*
X032087Y011362D01*
X032181D01*
X032272Y011386D01*
X032353Y011433D01*
X03242Y011499D01*
X032467Y011581D01*
X032491Y011672D01*
Y011766D01*
X032467Y011856D01*
X03242Y011938D01*
X032353Y012004D01*
X032272Y012051D01*
X032181Y012075D01*
D02*
G37*
G36*
X02637Y011499D02*
X026298D01*
X026232Y011471D01*
X026182Y011421D01*
X026154Y011354D01*
Y011283D01*
X026182Y011217D01*
X026232Y011166D01*
X026298Y011138D01*
X02637D01*
X026436Y011166D01*
X026487Y011217D01*
X026514Y011283D01*
Y011354D01*
X026487Y011421D01*
X026436Y011471D01*
X02637Y011499D01*
D02*
G37*
G36*
X03032D02*
X030248D01*
X030182Y011471D01*
X030132Y011421D01*
X030104Y011354D01*
Y011283D01*
X030132Y011217D01*
X03015Y011198D01*
X030132Y011179D01*
X030104Y011113D01*
Y011041D01*
X030132Y010975D01*
X030182Y010924D01*
X030248Y010897D01*
X03032D01*
X030386Y010924D01*
X030437Y010975D01*
X030464Y011041D01*
Y011113D01*
X030437Y011179D01*
X030418Y011198D01*
X030437Y011217D01*
X030464Y011283D01*
Y011354D01*
X030437Y011421D01*
X030386Y011471D01*
X03032Y011499D01*
D02*
G37*
G36*
X03627Y011149D02*
X036198D01*
X036132Y011121D01*
X036082Y011071D01*
X036054Y011004D01*
Y010933D01*
X036082Y010867D01*
X036132Y010816D01*
X036198Y010788D01*
X03627D01*
X036336Y010816D01*
X036387Y010867D01*
X036414Y010933D01*
Y011004D01*
X036387Y011071D01*
X036336Y011121D01*
X03627Y011149D01*
D02*
G37*
G36*
X03382Y011349D02*
X033748D01*
X033682Y011321D01*
X033632Y011271D01*
X033604Y011204D01*
Y011133D01*
X033632Y011067D01*
X033682Y011016D01*
X033705Y011006D01*
X033682Y010997D01*
X033632Y010946D01*
X033604Y01088D01*
Y010808D01*
X033632Y010742D01*
X033682Y010691D01*
X033748Y010664D01*
X03382D01*
X033886Y010691D01*
X033937Y010742D01*
X033964Y010808D01*
Y01088D01*
X033937Y010946D01*
X033886Y010997D01*
X033863Y011006D01*
X033886Y011016D01*
X033937Y011067D01*
X033964Y011133D01*
Y011204D01*
X033937Y011271D01*
X033886Y011321D01*
X03382Y011349D01*
D02*
G37*
G36*
X026969Y01075D02*
X026897D01*
X026831Y010722D01*
X02678Y010672D01*
X026753Y010605D01*
Y010534D01*
X02678Y010468D01*
X026831Y010417D01*
X026897Y01039D01*
X026969D01*
X027035Y010417D01*
X027086Y010468D01*
X027113Y010534D01*
Y010605D01*
X027086Y010672D01*
X027035Y010722D01*
X026969Y01075D01*
D02*
G37*
G36*
X033181Y011075D02*
X033087D01*
X032996Y011051D01*
X032915Y011004D01*
X032849Y010938D01*
X032802Y010856D01*
X032777Y010766D01*
Y010672D01*
X032802Y010581D01*
X032849Y010499D01*
X032915Y010433D01*
X032996Y010386D01*
X033087Y010362D01*
X033181D01*
X033272Y010386D01*
X033353Y010433D01*
X03342Y010499D01*
X033467Y010581D01*
X033491Y010672D01*
Y010766D01*
X033467Y010856D01*
X03342Y010938D01*
X033353Y011004D01*
X033272Y011051D01*
X033181Y011075D01*
D02*
G37*
G36*
X02772Y009828D02*
X027648D01*
X027582Y009801D01*
X027532Y00975D01*
X027504Y009684D01*
Y009612D01*
X027532Y009546D01*
X027582Y009495D01*
X027648Y009468D01*
X02772D01*
X027786Y009495D01*
X027837Y009546D01*
X027864Y009612D01*
Y009684D01*
X027837Y00975D01*
X027786Y009801D01*
X02772Y009828D01*
D02*
G37*
G36*
X03317Y009278D02*
X033098D01*
X033032Y009251D01*
X032982Y0092D01*
X032954Y009134D01*
Y009062D01*
X032982Y008996D01*
X033032Y008945D01*
X033098Y008918D01*
X03317D01*
X033236Y008945D01*
X033287Y008996D01*
X033314Y009062D01*
Y009134D01*
X033287Y0092D01*
X033236Y009251D01*
X03317Y009278D01*
D02*
G37*
G36*
X03212D02*
X032048D01*
X031982Y009251D01*
X031932Y0092D01*
X031904Y009134D01*
Y009062D01*
X031932Y008996D01*
X031982Y008945D01*
X032048Y008918D01*
X03212D01*
X032186Y008945D01*
X032237Y008996D01*
X032264Y009062D01*
Y009134D01*
X032237Y0092D01*
X032186Y009251D01*
X03212Y009278D01*
D02*
G37*
G36*
X03637Y009178D02*
X036298D01*
X036232Y009151D01*
X036182Y0091D01*
X036154Y009034D01*
Y008962D01*
X036182Y008896D01*
X036232Y008845D01*
X036298Y008818D01*
X03637D01*
X036436Y008845D01*
X036487Y008896D01*
X036514Y008962D01*
Y009034D01*
X036487Y0091D01*
X036436Y009151D01*
X03637Y009178D01*
D02*
G37*
G36*
X03012Y009078D02*
X030048D01*
X029982Y009051D01*
X029932Y009D01*
X029904Y008934D01*
Y008862D01*
X029932Y008796D01*
X029982Y008745D01*
X030048Y008718D01*
X03012D01*
X030186Y008745D01*
X030237Y008796D01*
X030264Y008862D01*
Y008934D01*
X030237Y009D01*
X030186Y009051D01*
X03012Y009078D01*
D02*
G37*
G36*
X03257Y008978D02*
X032498D01*
X032432Y008951D01*
X032382Y0089D01*
X032354Y008834D01*
Y008762D01*
X032382Y008696D01*
X032432Y008645D01*
X032498Y008618D01*
X03257D01*
X032636Y008645D01*
X032687Y008696D01*
X032714Y008762D01*
Y008834D01*
X032687Y0089D01*
X032636Y008951D01*
X03257Y008978D01*
D02*
G37*
G36*
X03292Y008628D02*
X032848D01*
X032782Y008601D01*
X032732Y00855D01*
X032704Y008484D01*
Y008412D01*
X032732Y008346D01*
X032782Y008295D01*
X032848Y008268D01*
X03292D01*
X032986Y008295D01*
X033037Y008346D01*
X033064Y008412D01*
Y008484D01*
X033037Y00855D01*
X032986Y008601D01*
X03292Y008628D01*
D02*
G37*
G36*
X02957Y008578D02*
X029498D01*
X029432Y008551D01*
X029382Y0085D01*
X029354Y008434D01*
Y008362D01*
X029382Y008296D01*
X029432Y008245D01*
X029498Y008218D01*
X02957D01*
X029636Y008245D01*
X029687Y008296D01*
X029714Y008362D01*
Y008434D01*
X029687Y0085D01*
X029636Y008551D01*
X02957Y008578D01*
D02*
G37*
G36*
X03157Y008278D02*
X031498D01*
X031432Y008251D01*
X031382Y0082D01*
X031354Y008134D01*
Y008062D01*
X031382Y007996D01*
X031432Y007945D01*
X031498Y007918D01*
X03157D01*
X031636Y007945D01*
X031687Y007996D01*
X031714Y008062D01*
Y008134D01*
X031687Y0082D01*
X031636Y008251D01*
X03157Y008278D01*
D02*
G37*
G36*
X03417Y008228D02*
X034098D01*
X034032Y008201D01*
X033982Y00815D01*
X033954Y008084D01*
Y008012D01*
X033982Y007946D01*
X034032Y007895D01*
X034098Y007868D01*
X03417D01*
X034236Y007895D01*
X034287Y007946D01*
X034314Y008012D01*
Y008084D01*
X034287Y00815D01*
X034236Y008201D01*
X03417Y008228D01*
D02*
G37*
G36*
X03237Y008078D02*
X032298D01*
X032232Y008051D01*
X032182Y008D01*
X032154Y007934D01*
Y007862D01*
X032182Y007796D01*
X032232Y007745D01*
X032298Y007718D01*
X03237D01*
X032436Y007745D01*
X032487Y007796D01*
X032514Y007862D01*
Y007934D01*
X032487Y008D01*
X032436Y008051D01*
X03237Y008078D01*
D02*
G37*
G36*
X02817Y008128D02*
X028098D01*
X028032Y008101D01*
X027982Y00805D01*
X027954Y007984D01*
Y007928D01*
X027898D01*
X027832Y007901D01*
X027782Y00785D01*
X027754Y007784D01*
Y007712D01*
X027782Y007646D01*
X027832Y007595D01*
X027898Y007568D01*
X027954D01*
Y007512D01*
X027982Y007446D01*
X028032Y007395D01*
X028098Y007368D01*
X02817D01*
X028236Y007395D01*
X028287Y007446D01*
X028314Y007512D01*
Y007568D01*
X02837D01*
X028436Y007595D01*
X028487Y007646D01*
X028514Y007712D01*
Y007784D01*
X028487Y00785D01*
X028436Y007901D01*
X02837Y007928D01*
X028314D01*
Y007984D01*
X028287Y00805D01*
X028236Y008101D01*
X02817Y008128D01*
D02*
G37*
G36*
X02437Y007728D02*
X024298D01*
X024232Y007701D01*
X024182Y00765D01*
X024154Y007584D01*
Y007512D01*
X024182Y007446D01*
X024232Y007395D01*
X024298Y007368D01*
X02437D01*
X024436Y007395D01*
X024487Y007446D01*
X024514Y007512D01*
Y007584D01*
X024487Y00765D01*
X024436Y007701D01*
X02437Y007728D01*
D02*
G37*
G36*
X037501Y008545D02*
X03738D01*
X037262Y008522D01*
X037151Y008475D01*
X037051Y008409D01*
X036966Y008323D01*
X036899Y008223D01*
X036853Y008112D01*
X036829Y007994D01*
Y007874D01*
X036853Y007756D01*
X036899Y007644D01*
X036966Y007544D01*
X037051Y007459D01*
X037151Y007392D01*
X037262Y007346D01*
X03738Y007323D01*
X037501D01*
X037619Y007346D01*
X03773Y007392D01*
X03783Y007459D01*
X037915Y007544D01*
X037982Y007644D01*
X038028Y007756D01*
X038052Y007874D01*
Y007994D01*
X038028Y008112D01*
X037982Y008223D01*
X037915Y008323D01*
X03783Y008409D01*
X03773Y008475D01*
X037619Y008522D01*
X037501Y008545D01*
D02*
G37*
G36*
X03157Y007678D02*
X031498D01*
X031432Y007651D01*
X031382Y0076D01*
X031354Y007534D01*
Y007462D01*
X031382Y007396D01*
X031432Y007345D01*
X031498Y007318D01*
X03157D01*
X031636Y007345D01*
X031687Y007396D01*
X031714Y007462D01*
Y007534D01*
X031687Y0076D01*
X031636Y007651D01*
X03157Y007678D01*
D02*
G37*
G36*
X03657Y007628D02*
X036498D01*
X036432Y007601D01*
X036382Y00755D01*
X036354Y007484D01*
Y007412D01*
X036382Y007346D01*
X036432Y007295D01*
X036498Y007268D01*
X03657D01*
X036636Y007295D01*
X036687Y007346D01*
X036714Y007412D01*
Y007484D01*
X036687Y00755D01*
X036636Y007601D01*
X03657Y007628D01*
D02*
G37*
G36*
X02837Y006978D02*
X028298D01*
X028232Y006951D01*
X028182Y0069D01*
X028154Y006834D01*
Y006762D01*
X028182Y006696D01*
X028232Y006645D01*
X028298Y006618D01*
X02837D01*
X028436Y006645D01*
X028487Y006696D01*
X028514Y006762D01*
Y006834D01*
X028487Y0069D01*
X028436Y006951D01*
X02837Y006978D01*
D02*
G37*
G36*
X03657Y006828D02*
X036498D01*
X036432Y006801D01*
X036382Y00675D01*
X036354Y006684D01*
Y006612D01*
X036382Y006546D01*
X036432Y006495D01*
X036498Y006468D01*
X03657D01*
X036636Y006495D01*
X036687Y006546D01*
X036714Y006612D01*
Y006684D01*
X036687Y00675D01*
X036636Y006801D01*
X03657Y006828D01*
D02*
G37*
G36*
X02587Y006678D02*
X025798D01*
X025732Y006651D01*
X025682Y0066D01*
X025654Y006534D01*
Y006462D01*
X025682Y006396D01*
X025732Y006345D01*
X025798Y006318D01*
X02587D01*
X025936Y006345D01*
X025987Y006396D01*
X026014Y006462D01*
Y006534D01*
X025987Y0066D01*
X025936Y006651D01*
X02587Y006678D01*
D02*
G37*
G36*
X037501Y006773D02*
X03738D01*
X037262Y00675D01*
X037151Y006704D01*
X037051Y006637D01*
X036966Y006552D01*
X036899Y006452D01*
X036853Y00634D01*
X036829Y006222D01*
Y006102D01*
X036853Y005984D01*
X036877Y005925D01*
X036837Y0059D01*
X036786Y005951D01*
X03672Y005978D01*
X036648D01*
X036582Y005951D01*
X036538Y005907D01*
X036509Y005903D01*
X03648Y005907D01*
X036436Y005951D01*
X03637Y005978D01*
X036298D01*
X036232Y005951D01*
X036182Y0059D01*
X036154Y005834D01*
Y005762D01*
X036182Y005696D01*
X036205Y005673D01*
X036182Y00565D01*
X036154Y005584D01*
Y005512D01*
X036182Y005446D01*
X036232Y005395D01*
X036298Y005368D01*
X03637D01*
X036436Y005395D01*
X03648Y005439D01*
X036509Y005443D01*
X036538Y005439D01*
X036582Y005395D01*
X036648Y005368D01*
X03672D01*
X036786Y005395D01*
X036837Y005446D01*
X036864Y005512D01*
Y005584D01*
X036837Y00565D01*
X036814Y005673D01*
X036837Y005696D01*
X036864Y005762D01*
Y005834D01*
X036864Y005835D01*
X036908Y005859D01*
X036966Y005773D01*
X037051Y005687D01*
X037151Y005621D01*
X037262Y005575D01*
X03738Y005551D01*
X037501D01*
X037619Y005575D01*
X03773Y005621D01*
X03783Y005687D01*
X037915Y005773D01*
X037982Y005873D01*
X038028Y005984D01*
X038052Y006102D01*
Y006222D01*
X038028Y00634D01*
X037982Y006452D01*
X037915Y006552D01*
X03783Y006637D01*
X03773Y006704D01*
X037619Y00675D01*
X037501Y006773D01*
D02*
G37*
G36*
X028158Y00604D02*
X028086D01*
X02802Y006013D01*
X027969Y005962D01*
X027942Y005896D01*
Y005824D01*
X027969Y005758D01*
X02802Y005708D01*
X028086Y00568D01*
X028158D01*
X028224Y005708D01*
X028275Y005758D01*
X028302Y005824D01*
Y005896D01*
X028275Y005962D01*
X028224Y006013D01*
X028158Y00604D01*
D02*
G37*
G36*
X02942Y005778D02*
X029348D01*
X029282Y005751D01*
X029232Y0057D01*
X029204Y005634D01*
Y005562D01*
X029232Y005496D01*
X029282Y005445D01*
X029348Y005418D01*
X02942D01*
X029486Y005445D01*
X029537Y005496D01*
X029564Y005562D01*
Y005634D01*
X029537Y0057D01*
X029486Y005751D01*
X02942Y005778D01*
D02*
G37*
G36*
X03377Y006078D02*
X033698D01*
X033632Y006051D01*
X033582Y006D01*
X033554Y005934D01*
Y005862D01*
X033582Y005796D01*
X033632Y005745D01*
X033683Y005724D01*
Y005672D01*
X033632Y005651D01*
X033582Y0056D01*
X033554Y005534D01*
Y005462D01*
X033582Y005396D01*
X033632Y005345D01*
X033698Y005318D01*
X03377D01*
X033836Y005345D01*
X033887Y005396D01*
X033914Y005462D01*
Y005534D01*
X033887Y0056D01*
X033836Y005651D01*
X033785Y005672D01*
Y005724D01*
X033836Y005745D01*
X033887Y005796D01*
X033914Y005862D01*
Y005934D01*
X033887Y006D01*
X033836Y006051D01*
X03377Y006078D01*
D02*
G37*
G36*
X033441Y005855D02*
X032727D01*
Y005141D01*
X033441D01*
Y005855D01*
D02*
G37*
G36*
X032131D02*
X032037D01*
X031946Y005831D01*
X031865Y005784D01*
X031799Y005717D01*
X031752Y005636D01*
X031727Y005545D01*
Y005451D01*
X031752Y00536D01*
X031799Y005279D01*
X031865Y005213D01*
X031946Y005166D01*
X032037Y005141D01*
X032131D01*
X032222Y005166D01*
X032303Y005213D01*
X03237Y005279D01*
X032417Y00536D01*
X032441Y005451D01*
Y005545D01*
X032417Y005636D01*
X03237Y005717D01*
X032303Y005784D01*
X032222Y005831D01*
X032131Y005855D01*
D02*
G37*
G36*
X02587Y005378D02*
X025798D01*
X025732Y005351D01*
X025682Y0053D01*
X025654Y005234D01*
Y005162D01*
X025682Y005096D01*
X025732Y005045D01*
X025798Y005018D01*
X02587D01*
X025936Y005045D01*
X025987Y005096D01*
X026014Y005162D01*
Y005234D01*
X025987Y0053D01*
X025936Y005351D01*
X02587Y005378D01*
D02*
G37*
G36*
X03742Y005028D02*
X037348D01*
X037282Y005001D01*
X037232Y00495D01*
X037204Y004884D01*
Y004812D01*
X037232Y004746D01*
X037282Y004695D01*
X037348Y004668D01*
X03742D01*
X037486Y004695D01*
X037537Y004746D01*
X037564Y004812D01*
Y004884D01*
X037537Y00495D01*
X037486Y005001D01*
X03742Y005028D01*
D02*
G37*
G36*
X03377Y005228D02*
X033698D01*
X033632Y005201D01*
X033582Y00515D01*
X033554Y005084D01*
Y005012D01*
X033582Y004946D01*
X033625Y004902D01*
X033629Y004873D01*
X033625Y004844D01*
X033582Y0048D01*
X033554Y004734D01*
Y004662D01*
X033582Y004596D01*
X033632Y004545D01*
X033698Y004518D01*
X03377D01*
X033836Y004545D01*
X033887Y004596D01*
X033914Y004662D01*
Y004734D01*
X033887Y0048D01*
X033843Y004844D01*
X033839Y004873D01*
X033843Y004902D01*
X033887Y004946D01*
X033914Y005012D01*
Y005084D01*
X033887Y00515D01*
X033836Y005201D01*
X03377Y005228D01*
D02*
G37*
G36*
X03542Y004828D02*
X035348D01*
X035282Y004801D01*
X035232Y00475D01*
X035204Y004684D01*
Y004612D01*
X035232Y004546D01*
X035282Y004495D01*
X035348Y004468D01*
X03542D01*
X035486Y004495D01*
X035537Y004546D01*
X035564Y004612D01*
Y004684D01*
X035537Y00475D01*
X035486Y004801D01*
X03542Y004828D01*
D02*
G37*
G36*
X03037Y005028D02*
X030298D01*
X030232Y005001D01*
X030182Y00495D01*
X030154Y004884D01*
Y004812D01*
X030173Y004767D01*
X030132Y004751D01*
X030082Y0047D01*
X030054Y004634D01*
Y004562D01*
X030082Y004496D01*
X030132Y004445D01*
X030198Y004418D01*
X03027D01*
X030336Y004445D01*
X03038Y004489D01*
X030409Y004493D01*
X030438Y004489D01*
X030482Y004445D01*
X030548Y004418D01*
X03062D01*
X030686Y004445D01*
X030737Y004496D01*
X030764Y004562D01*
Y004634D01*
X030737Y0047D01*
X030686Y004751D01*
X03062Y004778D01*
X030554D01*
X030533Y004797D01*
X030514Y004818D01*
Y004884D01*
X030487Y00495D01*
X030436Y005001D01*
X03037Y005028D01*
D02*
G37*
G36*
X02742Y004778D02*
X027348D01*
X027282Y004751D01*
X027232Y0047D01*
X027204Y004634D01*
Y004562D01*
X027232Y004496D01*
X027282Y004445D01*
X027348Y004418D01*
X02742D01*
X027486Y004445D01*
X027537Y004496D01*
X027564Y004562D01*
Y004634D01*
X027537Y0047D01*
X027486Y004751D01*
X02742Y004778D01*
D02*
G37*
G36*
X033131Y004855D02*
X033037D01*
X032946Y004831D01*
X032865Y004784D01*
X032799Y004717D01*
X032752Y004636D01*
X032727Y004545D01*
Y004451D01*
X032752Y00436D01*
X032799Y004279D01*
X032865Y004212D01*
X032946Y004166D01*
X033037Y004141D01*
X033131D01*
X033222Y004166D01*
X033303Y004212D01*
X03337Y004279D01*
X033417Y00436D01*
X033441Y004451D01*
Y004545D01*
X033417Y004636D01*
X03337Y004717D01*
X033303Y004784D01*
X033222Y004831D01*
X033131Y004855D01*
D02*
G37*
G36*
X007423Y014328D02*
X007351D01*
X007285Y014301D01*
X007262Y014278D01*
X007239Y014301D01*
X007173Y014328D01*
X007101D01*
X007035Y014301D01*
X006984Y01425D01*
X006957Y014184D01*
Y014112D01*
X006984Y014046D01*
X007007Y014023D01*
X006984Y014D01*
X006957Y013934D01*
Y013862D01*
X006984Y013796D01*
X007035Y013745D01*
X007101Y013718D01*
X007173D01*
X007239Y013745D01*
X007262Y013768D01*
X007285Y013745D01*
X007351Y013718D01*
X007423D01*
X007489Y013745D01*
X00754Y013796D01*
X007567Y013862D01*
Y013934D01*
X00754Y014D01*
X007517Y014023D01*
X00754Y014046D01*
X007567Y014112D01*
Y014184D01*
X00754Y01425D01*
X007489Y014301D01*
X007423Y014328D01*
D02*
G37*
G36*
X009834Y012605D02*
X00974D01*
X009649Y012581D01*
X009568Y012534D01*
X009501Y012467D01*
X009454Y012386D01*
X00943Y012295D01*
Y012201D01*
X009454Y01211D01*
X009501Y012029D01*
X009568Y011962D01*
X009649Y011916D01*
X00974Y011891D01*
X009834D01*
X009925Y011916D01*
X010006Y011962D01*
X010073Y012029D01*
X01012Y01211D01*
X010144Y012201D01*
Y012295D01*
X01012Y012386D01*
X010073Y012467D01*
X010006Y012534D01*
X009925Y012581D01*
X009834Y012605D01*
D02*
G37*
G36*
X005973Y011228D02*
X005901D01*
X005835Y011201D01*
X005791Y011157D01*
X005762Y011153D01*
X005733Y011157D01*
X005689Y011201D01*
X005623Y011228D01*
X005551D01*
X005485Y011201D01*
X005434Y01115D01*
X005407Y011084D01*
Y011012D01*
X005434Y010946D01*
X005457Y010923D01*
X005434Y0109D01*
X005407Y010834D01*
Y010762D01*
X005408Y010761D01*
X005363Y010737D01*
X005305Y010823D01*
X00522Y010909D01*
X00512Y010975D01*
X005009Y011022D01*
X004891Y011045D01*
X004771D01*
X004652Y011022D01*
X004541Y010975D01*
X004441Y010909D01*
X004356Y010823D01*
X004289Y010723D01*
X004243Y010612D01*
X00422Y010494D01*
Y010374D01*
X004243Y010256D01*
X004289Y010144D01*
X004356Y010044D01*
X004441Y009959D01*
X004541Y009892D01*
X004652Y009846D01*
X004771Y009823D01*
X004891D01*
X005009Y009846D01*
X00512Y009892D01*
X00522Y009959D01*
X005305Y010044D01*
X005372Y010144D01*
X005418Y010256D01*
X005442Y010374D01*
Y010494D01*
X005418Y010612D01*
X005394Y010671D01*
X005434Y010696D01*
X005485Y010645D01*
X005551Y010618D01*
X005623D01*
X005689Y010645D01*
X005733Y010689D01*
X005762Y010693D01*
X005791Y010689D01*
X005835Y010645D01*
X005901Y010618D01*
X005973D01*
X006039Y010645D01*
X00609Y010696D01*
X006117Y010762D01*
Y010834D01*
X00609Y0109D01*
X006067Y010923D01*
X00609Y010946D01*
X006117Y011012D01*
Y011084D01*
X00609Y01115D01*
X006039Y011201D01*
X005973Y011228D01*
D02*
G37*
G36*
X014523Y011428D02*
X014451D01*
X014385Y011401D01*
X014334Y01135D01*
X014307Y011284D01*
Y011212D01*
X014334Y011146D01*
X014385Y011095D01*
X014451Y011068D01*
X014523D01*
X014589Y011095D01*
X01464Y011146D01*
X014667Y011212D01*
Y011284D01*
X01464Y01135D01*
X014589Y011401D01*
X014523Y011428D01*
D02*
G37*
G36*
X016073Y011078D02*
X016001D01*
X015935Y011051D01*
X015912Y011028D01*
X015889Y011051D01*
X015823Y011078D01*
X015751D01*
X015685Y011051D01*
X015634Y011D01*
X015607Y010934D01*
Y010862D01*
X015634Y010796D01*
X015685Y010745D01*
X015751Y010718D01*
X015823D01*
X015889Y010745D01*
X015912Y010768D01*
X015935Y010745D01*
X016001Y010718D01*
X016073D01*
X016139Y010745D01*
X01619Y010796D01*
X016217Y010862D01*
Y010934D01*
X01619Y011D01*
X016139Y011051D01*
X016073Y011078D01*
D02*
G37*
G36*
X010834Y011605D02*
X01074D01*
X010649Y011581D01*
X010568Y011534D01*
X010501Y011467D01*
X010454Y011386D01*
X01043Y011295D01*
Y011201D01*
X010454Y01111D01*
X010501Y011029D01*
X010568Y010962D01*
X010649Y010915D01*
X01074Y010891D01*
X010834D01*
X010925Y010915D01*
X011006Y010962D01*
X011073Y011029D01*
X01112Y01111D01*
X011144Y011201D01*
Y011295D01*
X01112Y011386D01*
X011073Y011467D01*
X011006Y011534D01*
X010925Y011581D01*
X010834Y011605D01*
D02*
G37*
G36*
X010144D02*
X00943D01*
Y010891D01*
X010144D01*
Y011605D01*
D02*
G37*
G36*
X011223Y010578D02*
X011151D01*
X011085Y010551D01*
X011062Y010528D01*
X011039Y010551D01*
X010973Y010578D01*
X010901D01*
X010835Y010551D01*
X010784Y0105D01*
X010757Y010434D01*
Y010362D01*
X010784Y010296D01*
X010807Y010273D01*
X010784Y01025D01*
X010757Y010184D01*
Y010112D01*
X010784Y010046D01*
X010835Y009995D01*
X010901Y009968D01*
X010973D01*
X011039Y009995D01*
X011062Y010018D01*
X011085Y009995D01*
X011151Y009968D01*
X011223D01*
X011289Y009995D01*
X01134Y010046D01*
X011367Y010112D01*
Y010184D01*
X01134Y01025D01*
X011317Y010273D01*
X01134Y010296D01*
X011367Y010362D01*
Y010434D01*
X01134Y0105D01*
X011289Y010551D01*
X011223Y010578D01*
D02*
G37*
G36*
X013773Y010128D02*
X013701D01*
X013635Y010101D01*
X013584Y01005D01*
X013557Y009984D01*
Y009912D01*
X013584Y009846D01*
X013635Y009795D01*
X013701Y009768D01*
X013773D01*
X013839Y009795D01*
X01389Y009846D01*
X013917Y009912D01*
Y009984D01*
X01389Y01005D01*
X013839Y010101D01*
X013773Y010128D01*
D02*
G37*
G36*
X005847Y010102D02*
X005775D01*
X005709Y010075D01*
X005658Y010024D01*
X005631Y009958D01*
Y009886D01*
X005658Y00982D01*
X005709Y009769D01*
X005775Y009742D01*
X005847D01*
X005913Y009769D01*
X005964Y00982D01*
X005991Y009886D01*
Y009958D01*
X005964Y010024D01*
X005913Y010075D01*
X005847Y010102D01*
D02*
G37*
G36*
X012273Y009728D02*
X012201D01*
X012135Y009701D01*
X012084Y00965D01*
X012057Y009584D01*
Y009512D01*
X012084Y009446D01*
X012135Y009395D01*
X012201Y009368D01*
X012273D01*
X012339Y009395D01*
X01239Y009446D01*
X012417Y009512D01*
Y009584D01*
X01239Y00965D01*
X012339Y009701D01*
X012273Y009728D01*
D02*
G37*
G36*
X005823Y009328D02*
X005751D01*
X005685Y009301D01*
X005634Y00925D01*
X005607Y009184D01*
Y009112D01*
X005634Y009046D01*
X005685Y008995D01*
X005751Y008968D01*
X005823D01*
X005889Y008995D01*
X00594Y009046D01*
X005967Y009112D01*
Y009184D01*
X00594Y00925D01*
X005889Y009301D01*
X005823Y009328D01*
D02*
G37*
G36*
X013473Y008978D02*
X013401D01*
X013335Y008951D01*
X013284Y0089D01*
X013257Y008834D01*
Y008762D01*
X013284Y008696D01*
X013335Y008645D01*
X013401Y008618D01*
X013473D01*
X013539Y008645D01*
X01359Y008696D01*
X013617Y008762D01*
Y008834D01*
X01359Y0089D01*
X013539Y008951D01*
X013473Y008978D01*
D02*
G37*
G36*
X004891Y009273D02*
X004771D01*
X004652Y00925D01*
X004541Y009204D01*
X004441Y009137D01*
X004356Y009052D01*
X004289Y008952D01*
X004243Y00884D01*
X00422Y008722D01*
Y008602D01*
X004243Y008484D01*
X004289Y008373D01*
X004356Y008273D01*
X004441Y008187D01*
X004541Y008121D01*
X004652Y008075D01*
X004771Y008051D01*
X004891D01*
X005009Y008075D01*
X00512Y008121D01*
X00522Y008187D01*
X005305Y008273D01*
X005372Y008373D01*
X005418Y008484D01*
X005442Y008602D01*
Y008722D01*
X005418Y00884D01*
X005372Y008952D01*
X005305Y009052D01*
X00522Y009137D01*
X00512Y009204D01*
X005009Y00925D01*
X004891Y009273D01*
D02*
G37*
G36*
X010223Y008278D02*
X010151D01*
X010085Y008251D01*
X010034Y0082D01*
X010007Y008134D01*
Y008062D01*
X010034Y007996D01*
X010085Y007945D01*
X010151Y007918D01*
X010223D01*
X010289Y007945D01*
X01034Y007996D01*
X010367Y008062D01*
Y008134D01*
X01034Y0082D01*
X010289Y008251D01*
X010223Y008278D01*
D02*
G37*
G36*
X005273Y007878D02*
X005201D01*
X005135Y007851D01*
X005127Y007843D01*
X005119Y007851D01*
X005053Y007878D01*
X004981D01*
X004915Y007851D01*
X004864Y0078D01*
X004837Y007734D01*
Y007662D01*
X004864Y007596D01*
X004887Y007573D01*
X004864Y00755D01*
X004837Y007484D01*
Y007412D01*
X004864Y007346D01*
X004915Y007295D01*
X004981Y007268D01*
X005053D01*
X005119Y007295D01*
X005127Y007303D01*
X005135Y007295D01*
X005201Y007268D01*
X005273D01*
X005339Y007295D01*
X00539Y007346D01*
X005417Y007412D01*
Y007484D01*
X00539Y00755D01*
X005367Y007573D01*
X00539Y007596D01*
X005417Y007662D01*
Y007734D01*
X00539Y0078D01*
X005339Y007851D01*
X005273Y007878D01*
D02*
G37*
G36*
X007973Y007628D02*
X007901D01*
X007835Y007601D01*
X007787Y007553D01*
X007739Y007601D01*
X007673Y007628D01*
X007601D01*
X007535Y007601D01*
X007484Y00755D01*
X007457Y007484D01*
Y007412D01*
X007484Y007346D01*
X007535Y007295D01*
X007601Y007268D01*
X007673D01*
X007739Y007295D01*
X007787Y007343D01*
X007835Y007295D01*
X007901Y007268D01*
X007973D01*
X008039Y007295D01*
X00809Y007346D01*
X008117Y007412D01*
Y007484D01*
X00809Y00755D01*
X008039Y007601D01*
X007973Y007628D01*
D02*
G37*
G36*
X013623Y008028D02*
X013551D01*
X013485Y008001D01*
X013434Y00795D01*
X013407Y007884D01*
Y007878D01*
X013351D01*
X013285Y007851D01*
X013234Y0078D01*
X013207Y007734D01*
Y007662D01*
X013234Y007596D01*
X013285Y007545D01*
X013351Y007518D01*
X013423D01*
X013468Y007536D01*
X013484Y007496D01*
X013535Y007445D01*
X013601Y007418D01*
X013673D01*
X013739Y007445D01*
X01379Y007496D01*
X013817Y007562D01*
Y007634D01*
X01379Y0077D01*
X013741Y007749D01*
X013767Y007812D01*
Y007884D01*
X01374Y00795D01*
X013689Y008001D01*
X013623Y008028D01*
D02*
G37*
G36*
X009723Y007748D02*
X009651D01*
X009585Y00772D01*
X009534Y00767D01*
X009507Y007603D01*
Y007532D01*
X009534Y007466D01*
X009585Y007415D01*
X009651Y007388D01*
X009723D01*
X009789Y007415D01*
X00984Y007466D01*
X009867Y007532D01*
Y007603D01*
X00984Y00767D01*
X009789Y00772D01*
X009723Y007748D01*
D02*
G37*
G36*
X007223Y007228D02*
X007151D01*
X007085Y007201D01*
X007034Y00715D01*
X007007Y007084D01*
Y007012D01*
X007034Y006946D01*
X007085Y006895D01*
X007151Y006868D01*
X007223D01*
X007289Y006895D01*
X00734Y006946D01*
X007367Y007012D01*
Y007084D01*
X00734Y00715D01*
X007289Y007201D01*
X007223Y007228D01*
D02*
G37*
G36*
X004523Y006828D02*
X004451D01*
X004385Y006801D01*
X004334Y00675D01*
X004307Y006684D01*
Y006612D01*
X004334Y006546D01*
X004385Y006495D01*
X004451Y006468D01*
X004523D01*
X004589Y006495D01*
X00464Y006546D01*
X004667Y006612D01*
Y006684D01*
X00464Y00675D01*
X004589Y006801D01*
X004523Y006828D01*
D02*
G37*
G36*
X008423Y006328D02*
X008351D01*
X008285Y006301D01*
X008234Y00625D01*
X008207Y006184D01*
Y006112D01*
X008234Y006046D01*
X008285Y005995D01*
X008351Y005968D01*
X008423D01*
X008489Y005995D01*
X00854Y006046D01*
X008567Y006112D01*
Y006184D01*
X00854Y00625D01*
X008489Y006301D01*
X008423Y006328D01*
D02*
G37*
G36*
X009349Y006322D02*
X009278D01*
X009212Y006295D01*
X009161Y006244D01*
X009133Y006178D01*
Y006106D01*
X009161Y00604D01*
X009212Y005989D01*
X009278Y005962D01*
X009349D01*
X009416Y005989D01*
X009466Y00604D01*
X009494Y006106D01*
Y006178D01*
X009466Y006244D01*
X009416Y006295D01*
X009349Y006322D01*
D02*
G37*
%LPD*%
D64*
X027441Y024689D02*
D03*
X010787Y012248D02*
D03*
X01016Y026841D02*
D03*
X032084Y004498D02*
D03*
X01011Y02062D02*
D03*
X032134Y010719D02*
D03*
D65*
X035291Y025189D02*
D03*
X020991Y018689D02*
D03*
X021541Y027089D02*
D03*
X028291Y017489D02*
D03*
X031391Y017739D02*
D03*
X030741Y017189D02*
D03*
X028641Y017039D02*
D03*
X030541Y016689D02*
D03*
X027141Y022289D02*
D03*
X026041D02*
D03*
X027691Y017489D02*
D03*
X033841Y020189D02*
D03*
Y020639D02*
D03*
X034391D02*
D03*
X035091D02*
D03*
X035141Y023339D02*
D03*
Y023839D02*
D03*
X035241Y022039D02*
D03*
X034391Y020189D02*
D03*
X035091D02*
D03*
X033891Y019689D02*
D03*
X031841Y018689D02*
D03*
X032541Y018739D02*
D03*
X028291Y025139D02*
D03*
X027241Y025639D02*
D03*
X028041D02*
D03*
X026491Y026589D02*
D03*
X026391Y027089D02*
D03*
X027191Y027139D02*
D03*
X027291Y026639D02*
D03*
X027841Y027139D02*
D03*
X028091Y026689D02*
D03*
X028791D02*
D03*
X028541Y027089D02*
D03*
X029391Y027239D02*
D03*
X029541Y026739D02*
D03*
X030441D02*
D03*
X030041Y027189D02*
D03*
X030991Y027139D02*
D03*
Y026689D02*
D03*
X031741D02*
D03*
X031641Y027139D02*
D03*
X020841Y027089D02*
D03*
Y026439D02*
D03*
Y025939D02*
D03*
Y025239D02*
D03*
X025341Y017989D02*
D03*
X026741Y016639D02*
D03*
X025741Y016589D02*
D03*
X024691D02*
D03*
X023941D02*
D03*
X032891Y024539D02*
D03*
X033641Y023739D02*
D03*
X033291Y023389D02*
D03*
X032741Y023889D02*
D03*
X032441Y025139D02*
D03*
X031891D02*
D03*
X032341Y027189D02*
D03*
Y026639D02*
D03*
X032941D02*
D03*
X032991Y027139D02*
D03*
X033541D02*
D03*
Y026639D02*
D03*
X034141D02*
D03*
Y027139D02*
D03*
X034691Y026639D02*
D03*
X035141D02*
D03*
X034641Y027139D02*
D03*
X035141D02*
D03*
X034841Y026189D02*
D03*
X035091Y025689D02*
D03*
X034841Y025189D02*
D03*
X035091Y024689D02*
D03*
X034841Y024189D02*
D03*
X035091Y019689D02*
D03*
X034841Y019189D02*
D03*
X035091Y018689D02*
D03*
X034841Y018189D02*
D03*
X035091Y017689D02*
D03*
X034841Y017189D02*
D03*
X035091Y016689D02*
D03*
X034341Y026189D02*
D03*
X034591Y025689D02*
D03*
X034341Y025189D02*
D03*
X034591Y024689D02*
D03*
X034341Y024189D02*
D03*
X034591Y019689D02*
D03*
X034341Y019189D02*
D03*
X034591Y018689D02*
D03*
X034341Y018189D02*
D03*
X034591Y017689D02*
D03*
X034341Y017189D02*
D03*
X034591Y016689D02*
D03*
X033841Y026189D02*
D03*
X034091Y025689D02*
D03*
X033841Y025189D02*
D03*
X034091Y024689D02*
D03*
X033841Y024189D02*
D03*
Y019189D02*
D03*
X034091Y018689D02*
D03*
X033841Y018189D02*
D03*
X034091Y017689D02*
D03*
X033841Y017189D02*
D03*
X034091Y016689D02*
D03*
X033341Y026189D02*
D03*
X033591Y025689D02*
D03*
X033341Y025189D02*
D03*
X033591Y024689D02*
D03*
X033341Y024189D02*
D03*
Y019189D02*
D03*
X033591Y018689D02*
D03*
X033341Y018189D02*
D03*
X033591Y017689D02*
D03*
X033341Y017189D02*
D03*
X033591Y016689D02*
D03*
X032841Y026189D02*
D03*
X033091Y025689D02*
D03*
X032841Y025189D02*
D03*
X033091Y018689D02*
D03*
X032841Y018189D02*
D03*
X033091Y017689D02*
D03*
X032841Y017189D02*
D03*
X033091Y016689D02*
D03*
X032341Y026189D02*
D03*
X032591Y025689D02*
D03*
X032341Y018189D02*
D03*
X032591Y017689D02*
D03*
X032341Y017189D02*
D03*
X032591Y016689D02*
D03*
X031841Y026189D02*
D03*
X032091Y025689D02*
D03*
Y017689D02*
D03*
X031841Y017189D02*
D03*
X032091Y016689D02*
D03*
X031341Y026189D02*
D03*
X031591Y025689D02*
D03*
X031341Y025189D02*
D03*
Y017189D02*
D03*
X031591Y016689D02*
D03*
X030841Y026189D02*
D03*
X031091Y025689D02*
D03*
X030841Y025189D02*
D03*
X031091Y016689D02*
D03*
X030341Y026189D02*
D03*
X030591Y025689D02*
D03*
X030341Y025189D02*
D03*
X030591Y024689D02*
D03*
X029841Y026189D02*
D03*
X030091Y025689D02*
D03*
X029841Y025189D02*
D03*
X030091Y024689D02*
D03*
X029341Y026189D02*
D03*
X029591Y025689D02*
D03*
X029341Y025189D02*
D03*
X029591Y024689D02*
D03*
X028841Y026189D02*
D03*
X029091Y025689D02*
D03*
X028841Y025189D02*
D03*
X029091Y024689D02*
D03*
X028341Y026189D02*
D03*
X028591Y025689D02*
D03*
X027841Y026189D02*
D03*
Y019189D02*
D03*
X027341Y026189D02*
D03*
X026841D02*
D03*
X024591Y017689D02*
D03*
X024091D02*
D03*
X023591D02*
D03*
X022841Y017189D02*
D03*
X023091Y016689D02*
D03*
X022341Y017189D02*
D03*
X022591Y016689D02*
D03*
X021841Y018189D02*
D03*
X022091Y017689D02*
D03*
X021841Y017189D02*
D03*
X022091Y016689D02*
D03*
X021591Y018689D02*
D03*
X021341Y018189D02*
D03*
X021591Y017689D02*
D03*
X021341Y017189D02*
D03*
X021591Y016689D02*
D03*
X021091Y017689D02*
D03*
Y016689D02*
D03*
X033941Y023139D02*
D03*
X034693Y022079D02*
D03*
X035006Y022213D02*
D03*
X034915Y022814D02*
D03*
X034802Y023135D02*
D03*
X033569Y02269D02*
D03*
X033229Y02268D02*
D03*
X033091Y021689D02*
D03*
X030441Y021289D02*
D03*
X030091Y022439D02*
D03*
X031141Y018589D02*
D03*
X032057Y021089D02*
D03*
X027741Y020339D02*
D03*
X025091Y018989D02*
D03*
X029541Y016889D02*
D03*
X030041Y017339D02*
D03*
X029121Y018188D02*
D03*
X028141Y017039D02*
D03*
X024391Y024089D02*
D03*
Y023839D02*
D03*
X025641Y022189D02*
D03*
X025391Y021039D02*
D03*
X025041Y021339D02*
D03*
X024591Y021489D02*
D03*
X025991Y021839D02*
D03*
X025091Y022389D02*
D03*
X024591D02*
D03*
X024241Y021089D02*
D03*
Y020789D02*
D03*
X022591Y020739D02*
D03*
Y020489D02*
D03*
X022191Y024939D02*
D03*
Y024589D02*
D03*
X022241Y020489D02*
D03*
Y020739D02*
D03*
X018637Y012748D02*
D03*
X004337Y006248D02*
D03*
X004887Y014648D02*
D03*
X011637Y005048D02*
D03*
X014737Y005298D02*
D03*
X014087Y004748D02*
D03*
X011987Y004598D02*
D03*
X013887Y004248D02*
D03*
X010487Y009848D02*
D03*
X009387D02*
D03*
X011037Y005048D02*
D03*
X017187Y007748D02*
D03*
Y008198D02*
D03*
X017737D02*
D03*
X018437D02*
D03*
X018487Y010898D02*
D03*
Y011398D02*
D03*
X018587Y009598D02*
D03*
X017737Y007748D02*
D03*
X018437D02*
D03*
X017237Y007248D02*
D03*
X015187Y006248D02*
D03*
X015887Y006298D02*
D03*
X011637Y012698D02*
D03*
X010587Y013198D02*
D03*
X011387D02*
D03*
X009837Y014148D02*
D03*
X009737Y014648D02*
D03*
X010537Y014698D02*
D03*
X010637Y014198D02*
D03*
X011187Y014698D02*
D03*
X011437Y014248D02*
D03*
X012137D02*
D03*
X011887Y014648D02*
D03*
X012737Y014798D02*
D03*
X012887Y014298D02*
D03*
X013787D02*
D03*
X013387Y014748D02*
D03*
X014337Y014698D02*
D03*
Y014248D02*
D03*
X015087D02*
D03*
X014987Y014698D02*
D03*
X004187Y014648D02*
D03*
Y013998D02*
D03*
Y013498D02*
D03*
Y012798D02*
D03*
X008687Y005548D02*
D03*
X010087Y004198D02*
D03*
X009087Y004148D02*
D03*
X008037D02*
D03*
X007287D02*
D03*
X016237Y012098D02*
D03*
X016987Y011298D02*
D03*
X016637Y010948D02*
D03*
X016087Y011448D02*
D03*
X015787Y012698D02*
D03*
X015237D02*
D03*
X015687Y014748D02*
D03*
Y014198D02*
D03*
X016287D02*
D03*
X016337Y014698D02*
D03*
X016887D02*
D03*
Y014198D02*
D03*
X017487D02*
D03*
Y014698D02*
D03*
X018037Y014198D02*
D03*
X018487D02*
D03*
X017987Y014698D02*
D03*
X018487D02*
D03*
X018187Y013748D02*
D03*
X018437Y013248D02*
D03*
X018187Y012748D02*
D03*
X018437Y012248D02*
D03*
X018187Y011748D02*
D03*
X018437Y007248D02*
D03*
X018187Y006748D02*
D03*
X018437Y006248D02*
D03*
X018187Y005748D02*
D03*
X018437Y005248D02*
D03*
X018187Y004748D02*
D03*
X018437Y004248D02*
D03*
X017687Y013748D02*
D03*
X017937Y013248D02*
D03*
X017687Y012748D02*
D03*
X017937Y012248D02*
D03*
X017687Y011748D02*
D03*
X017937Y007248D02*
D03*
X017687Y006748D02*
D03*
X017937Y006248D02*
D03*
X017687Y005748D02*
D03*
X017937Y005248D02*
D03*
X017687Y004748D02*
D03*
X017937Y004248D02*
D03*
X017187Y013748D02*
D03*
X017437Y013248D02*
D03*
X017187Y012748D02*
D03*
X017437Y012248D02*
D03*
X017187Y011748D02*
D03*
Y006748D02*
D03*
X017437Y006248D02*
D03*
X017187Y005748D02*
D03*
X017437Y005248D02*
D03*
X017187Y004748D02*
D03*
X017437Y004248D02*
D03*
X016687Y013748D02*
D03*
X016937Y013248D02*
D03*
X016687Y012748D02*
D03*
X016937Y012248D02*
D03*
X016687Y011748D02*
D03*
Y006748D02*
D03*
X016937Y006248D02*
D03*
X016687Y005748D02*
D03*
X016937Y005248D02*
D03*
X016687Y004748D02*
D03*
X016937Y004248D02*
D03*
X016187Y013748D02*
D03*
X016437Y013248D02*
D03*
X016187Y012748D02*
D03*
X016437Y006248D02*
D03*
X016187Y005748D02*
D03*
X016437Y005248D02*
D03*
X016187Y004748D02*
D03*
X016437Y004248D02*
D03*
X015687Y013748D02*
D03*
X015937Y013248D02*
D03*
X015687Y005748D02*
D03*
X015937Y005248D02*
D03*
X015687Y004748D02*
D03*
X015937Y004248D02*
D03*
X015187Y013748D02*
D03*
X015437Y013248D02*
D03*
Y005248D02*
D03*
X015187Y004748D02*
D03*
X015437Y004248D02*
D03*
X014687Y013748D02*
D03*
X014937Y013248D02*
D03*
X014687Y012748D02*
D03*
Y004748D02*
D03*
X014937Y004248D02*
D03*
X014187Y013748D02*
D03*
X014437Y013248D02*
D03*
X014187Y012748D02*
D03*
X014437Y004248D02*
D03*
X013687Y013748D02*
D03*
X013937Y013248D02*
D03*
X013687Y012748D02*
D03*
X013937Y012248D02*
D03*
X013187Y013748D02*
D03*
X013437Y013248D02*
D03*
X013187Y012748D02*
D03*
X013437Y012248D02*
D03*
X012687Y013748D02*
D03*
X012937Y013248D02*
D03*
X012687Y012748D02*
D03*
X012937Y012248D02*
D03*
X012187Y013748D02*
D03*
X012437Y013248D02*
D03*
X012187Y012748D02*
D03*
X012437Y012248D02*
D03*
X011687Y013748D02*
D03*
X011937Y013248D02*
D03*
X011187Y013748D02*
D03*
Y006748D02*
D03*
X010687Y013748D02*
D03*
X010187D02*
D03*
X007937Y005248D02*
D03*
X007437D02*
D03*
X006937D02*
D03*
X006187Y004748D02*
D03*
X006437Y004248D02*
D03*
X005687Y004748D02*
D03*
X005937Y004248D02*
D03*
X005187Y005748D02*
D03*
X005437Y005248D02*
D03*
X005187Y004748D02*
D03*
X005437Y004248D02*
D03*
X004937Y006248D02*
D03*
X004687Y005748D02*
D03*
X004937Y005248D02*
D03*
X004687Y004748D02*
D03*
X004937Y004248D02*
D03*
X004437Y005248D02*
D03*
Y004248D02*
D03*
X017287Y010698D02*
D03*
X018039Y009638D02*
D03*
X018352Y009772D02*
D03*
X018262Y010373D02*
D03*
X018149Y010694D02*
D03*
X016915Y010249D02*
D03*
X016575Y010239D02*
D03*
X016437Y009248D02*
D03*
X013787Y008848D02*
D03*
X013437Y009998D02*
D03*
X014487Y006148D02*
D03*
X015404Y008648D02*
D03*
X011087Y007898D02*
D03*
X008437Y006548D02*
D03*
X012887Y004448D02*
D03*
X013387Y004898D02*
D03*
X012467Y005747D02*
D03*
X011487Y004598D02*
D03*
X007737Y011648D02*
D03*
Y011398D02*
D03*
X008987Y009748D02*
D03*
X008737Y008598D02*
D03*
X008387Y008898D02*
D03*
X007937Y009048D02*
D03*
X009337Y009398D02*
D03*
X008437Y009948D02*
D03*
X007937D02*
D03*
X007587Y008648D02*
D03*
Y008348D02*
D03*
X005937Y008298D02*
D03*
Y008048D02*
D03*
X005537Y012498D02*
D03*
Y012148D02*
D03*
X005587Y008048D02*
D03*
Y008298D02*
D03*
X02026Y023941D02*
D03*
X01496Y021991D02*
D03*
Y022541D02*
D03*
X01536Y022291D02*
D03*
Y021891D02*
D03*
X01586D02*
D03*
Y022291D02*
D03*
X01656Y022341D02*
D03*
Y021841D02*
D03*
X01386Y026441D02*
D03*
X01381Y027191D02*
D03*
X00561Y022091D02*
D03*
X00491D02*
D03*
X00421Y022141D02*
D03*
X01691Y024379D02*
D03*
X01641Y02454D02*
D03*
X016494Y02413D02*
D03*
X01861Y024591D02*
D03*
Y024141D02*
D03*
X00926Y025191D02*
D03*
X01096Y024041D02*
D03*
X01001Y025191D02*
D03*
X01866Y024891D02*
D03*
X01821Y026291D02*
D03*
X00881Y021541D02*
D03*
X00786D02*
D03*
X00686D02*
D03*
X00591D02*
D03*
X00496D02*
D03*
X00416D02*
D03*
X01121Y027191D02*
D03*
X01201D02*
D03*
X01486Y021491D02*
D03*
X01536D02*
D03*
X01591D02*
D03*
X01656D02*
D03*
X01721D02*
D03*
X02021Y027191D02*
D03*
X01956D02*
D03*
X01886D02*
D03*
X01821D02*
D03*
X01756D02*
D03*
X02026Y023391D02*
D03*
Y022791D02*
D03*
Y022241D02*
D03*
Y021691D02*
D03*
X01981Y021491D02*
D03*
X01911D02*
D03*
X01851D02*
D03*
X01776D02*
D03*
X01721Y021791D02*
D03*
Y022391D02*
D03*
Y023091D02*
D03*
Y023741D02*
D03*
X01691Y025991D02*
D03*
Y026591D02*
D03*
Y027191D02*
D03*
X01581Y024191D02*
D03*
X01491Y022891D02*
D03*
X014578Y022904D02*
D03*
X01196Y024891D02*
D03*
X01296Y023241D02*
D03*
X01421Y024491D02*
D03*
X00806Y023841D02*
D03*
X01381Y025441D02*
D03*
X01181Y022241D02*
D03*
X01121Y023091D02*
D03*
X01161Y023491D02*
D03*
X01211Y023891D02*
D03*
X01241Y022691D02*
D03*
X00691Y024041D02*
D03*
X00771Y025091D02*
D03*
X00556Y022791D02*
D03*
Y023041D02*
D03*
X00591Y022791D02*
D03*
Y023041D02*
D03*
X004294Y027041D02*
D03*
X021984Y007398D02*
D03*
X027284Y009348D02*
D03*
Y008798D02*
D03*
X026884Y009048D02*
D03*
Y009448D02*
D03*
X026384D02*
D03*
Y009048D02*
D03*
X025684Y008998D02*
D03*
Y009498D02*
D03*
X028384Y004898D02*
D03*
X028434Y004148D02*
D03*
X036634Y009248D02*
D03*
X037334D02*
D03*
X038034Y009198D02*
D03*
X025334Y00696D02*
D03*
X025834Y006798D02*
D03*
X02575Y007208D02*
D03*
X023634Y006748D02*
D03*
Y007198D02*
D03*
X032984Y006148D02*
D03*
X031284Y007298D02*
D03*
X032234Y006148D02*
D03*
X023584Y006448D02*
D03*
X024034Y005048D02*
D03*
X033434Y009798D02*
D03*
X034384D02*
D03*
X035384D02*
D03*
X036334D02*
D03*
X037284D02*
D03*
X038084D02*
D03*
X031034Y004148D02*
D03*
X030234D02*
D03*
X027384Y009848D02*
D03*
X026884D02*
D03*
X026334D02*
D03*
X025684D02*
D03*
X025034D02*
D03*
X022034Y004148D02*
D03*
X022684D02*
D03*
X023384D02*
D03*
X024034D02*
D03*
X024684D02*
D03*
X021984Y007948D02*
D03*
Y008548D02*
D03*
Y009098D02*
D03*
Y009648D02*
D03*
X022434Y009848D02*
D03*
X023134D02*
D03*
X023734D02*
D03*
X024484D02*
D03*
X025034Y009548D02*
D03*
Y008948D02*
D03*
Y008248D02*
D03*
Y007598D02*
D03*
X025334Y005348D02*
D03*
Y004748D02*
D03*
Y004148D02*
D03*
X026434Y007148D02*
D03*
X027334Y008448D02*
D03*
X027666Y008434D02*
D03*
X030284Y006448D02*
D03*
X029284Y008098D02*
D03*
X028034Y006848D02*
D03*
X034184Y007498D02*
D03*
X028434Y005898D02*
D03*
X030434Y009098D02*
D03*
X031034Y008248D02*
D03*
X030634Y007848D02*
D03*
X030134Y007448D02*
D03*
X029834Y008648D02*
D03*
X035334Y007298D02*
D03*
X034534Y006248D02*
D03*
X036684Y008548D02*
D03*
Y008298D02*
D03*
X036334Y008548D02*
D03*
Y008298D02*
D03*
X03795Y004298D02*
D03*
X01996Y01907D02*
D03*
X01626Y01857D02*
D03*
X01416Y01837D02*
D03*
X017929Y019353D02*
D03*
X017278Y01884D02*
D03*
X018107Y018798D02*
D03*
X018878Y018492D02*
D03*
X019484Y019059D02*
D03*
X019Y019734D02*
D03*
X01661Y01617D02*
D03*
X01721Y01672D02*
D03*
X01751Y01722D02*
D03*
X01711Y01992D02*
D03*
X01726Y02047D02*
D03*
X01666Y01992D02*
D03*
Y02047D02*
D03*
Y02097D02*
D03*
X01246Y01807D02*
D03*
X01276Y01777D02*
D03*
X01306Y01747D02*
D03*
X01381Y01937D02*
D03*
X015341Y017651D02*
D03*
X01381Y02017D02*
D03*
X01176Y02097D02*
D03*
X01086D02*
D03*
X01376Y020999D02*
D03*
X01966Y01717D02*
D03*
X01896Y01722D02*
D03*
X01816D02*
D03*
X01966Y01672D02*
D03*
X01896Y01667D02*
D03*
X01791Y01672D02*
D03*
X01961Y01617D02*
D03*
X01896D02*
D03*
X01806D02*
D03*
X01961Y01567D02*
D03*
X01856D02*
D03*
X01721Y01617D02*
D03*
X01776Y01562D02*
D03*
X01691Y01567D02*
D03*
X01601D02*
D03*
X01516D02*
D03*
X01956Y02097D02*
D03*
X015269Y015261D02*
D03*
X01451Y01527D02*
D03*
X01606D02*
D03*
X01671D02*
D03*
X01746D02*
D03*
X01826D02*
D03*
X01896D02*
D03*
X00421Y01602D02*
D03*
X00846Y01527D02*
D03*
X00691D02*
D03*
X00601D02*
D03*
X00506D02*
D03*
X00426D02*
D03*
X01966D02*
D03*
X02026D02*
D03*
Y01567D02*
D03*
Y01622D02*
D03*
Y01672D02*
D03*
Y01722D02*
D03*
Y02097D02*
D03*
X01881D02*
D03*
X01811D02*
D03*
X01741D02*
D03*
X01031Y01897D02*
D03*
X01211Y01827D02*
D03*
X00911Y01897D02*
D03*
X00871Y01667D02*
D03*
X011196Y016759D02*
D03*
X00451Y02002D02*
D03*
X00671Y01772D02*
D03*
X00751Y01887D02*
D03*
X01161Y01607D02*
D03*
Y01722D02*
D03*
X01226Y01762D02*
D03*
X01281Y01712D02*
D03*
X01236Y01647D02*
D03*
X00556Y01657D02*
D03*
X00591D02*
D03*
Y01682D02*
D03*
X00556D02*
D03*
X022284Y012269D02*
D03*
X025984Y012769D02*
D03*
X028084Y012969D02*
D03*
X024315Y011985D02*
D03*
X024967Y012499D02*
D03*
X024137Y01254D02*
D03*
X023366Y012847D02*
D03*
X02276Y012279D02*
D03*
X023245Y011605D02*
D03*
X025634Y015169D02*
D03*
X025034Y014619D02*
D03*
X024734Y014119D02*
D03*
X025134Y011419D02*
D03*
X024984Y010869D02*
D03*
X025584Y011419D02*
D03*
Y010869D02*
D03*
Y010369D02*
D03*
X029784Y013269D02*
D03*
X029484Y013569D02*
D03*
X029184Y013869D02*
D03*
X028434Y011969D02*
D03*
X026903Y013688D02*
D03*
X028434Y011169D02*
D03*
X030484Y010369D02*
D03*
X031384D02*
D03*
X028484Y01034D02*
D03*
X022584Y014169D02*
D03*
X023284Y014119D02*
D03*
X024084D02*
D03*
X022584Y014619D02*
D03*
X023284Y014669D02*
D03*
X024334Y014619D02*
D03*
X022634Y015169D02*
D03*
X023284D02*
D03*
X024184D02*
D03*
X022634Y015669D02*
D03*
X023684D02*
D03*
X025034Y015169D02*
D03*
X024484Y015719D02*
D03*
X025334Y015669D02*
D03*
X026234D02*
D03*
X027084D02*
D03*
X022684Y010369D02*
D03*
X026975Y016078D02*
D03*
X027734Y016069D02*
D03*
X026184D02*
D03*
X025534D02*
D03*
X024784D02*
D03*
X023984D02*
D03*
X023284D02*
D03*
X038034Y015319D02*
D03*
X033784Y016069D02*
D03*
X035334D02*
D03*
X036234D02*
D03*
X037184D02*
D03*
X037984D02*
D03*
X022584D02*
D03*
X021984D02*
D03*
Y015669D02*
D03*
Y015119D02*
D03*
Y014619D02*
D03*
Y014119D02*
D03*
Y010369D02*
D03*
X023434D02*
D03*
X024134D02*
D03*
X024834D02*
D03*
X031934Y012369D02*
D03*
X030134Y013069D02*
D03*
X033134Y012369D02*
D03*
X033534Y014669D02*
D03*
X031048Y01458D02*
D03*
X037734Y011319D02*
D03*
X035534Y013619D02*
D03*
X034734Y012469D02*
D03*
X030634Y015269D02*
D03*
Y014119D02*
D03*
X029984Y013719D02*
D03*
X029434Y014219D02*
D03*
X029884Y014869D02*
D03*
X036684Y014769D02*
D03*
X036334D02*
D03*
Y014519D02*
D03*
X036684D02*
D03*
D66*
X017876Y020104D02*
D03*
X019844D02*
D03*
Y018136D02*
D03*
X017876D02*
D03*
X024368Y011234D02*
D03*
X0224D02*
D03*
Y013203D02*
D03*
X024368D02*
D03*
M02*
