M48
;Layer_Color=9474304
;FILE_FORMAT=2:4
INCH,LZ
;TYPE=PLATED
T1F00S00C0.0120
T2F00S00C0.0120
T3F00S00C0.0394
T4F00S00C0.0591
T5F00S00C0.0669
T6F00S00C0.0748
%
T01
X004437Y004248
X004937
X005437
X005937
X006437
X006187Y004748
X005687
X005187
X004687
X004937Y005248
X005437
X005187Y005748
X004687
X004937Y006248
X004437Y005248
X006937
X007437
X007937
X011187Y006748
X014687Y004748
X015187
X015437Y005248
Y004248
X014937
X014437
X013937Y012248
X013437
X012937
X012437
X012687Y012748
X013187
X013687
X014187
X014687
X014937Y013248
X015437
X015187Y013748
X014687
X014187
X013687
X013187
X012687
X012187
X011687
X011187
X010687
X010187
X011937Y013248
X012437
X012937
X013437
X013937
X014437
X012187Y012748
X016187
X016687
X017187
X017687
X018187
X018437Y013248
X017937
X017437
X016937
X016437
X015937
X016187Y013748
X016687
X017187
X017687
X018187
X018437Y012248
X017937
X017437
X016937
X017187Y011748
X017687
X018187
X018149Y010694
X018262Y010373
X018352Y009772
X018039Y009638
X016915Y010249
X016575Y010239
X016687Y011748
X015687Y013748
X016687Y006748
X017187
X017687
X018187
X018437Y007248
X017937
Y006248
X018437
X018187Y005748
X017687
X017187
X016687
X016187
X015687
X015937Y005248
X016437
X016937
X017437
X017937
X018437
X018187Y004748
X017687
X017187
X016687
X016187
X015687
X015937Y004248
X016437
X016937
X017437
X017937
X018437
X017437Y006248
X016937
X016437
X023245Y011605
X02276Y012279
X023366Y012847
X024137Y01254
X024315Y011985
X024967Y012499
X031591Y016689
X032091
X032591
X033091
X033591
X034091
X034591
X035091
X034841Y017189
X034341
X033841
X033341
X032841
X032341
X031841
X031341
X032091Y017689
X032591
X033091
X033591
X034091
X034591
X035091
X034841Y018189
X034341
X033841
X033341
X032841
X032341
X033091Y018689
X033591
X034091
X034591
X035091
X034841Y019189
X034341
X033841
X033341
X034591Y019689
X035091
X035006Y022213
X034693Y022079
X034915Y022814
X034802Y023135
X034841Y024189
X034341
X033841
X033341
X033591Y024689
X034091
X034591
X035091
X034841Y025189
X034341
X033841
X033341
X032841
X033091Y025689
X033591
X034091
X034591
X035091
X034841Y026189
X034341
X033841
X033341
X032841
X032341
X031841
X031341
X031591Y025689
X032091
X032591
X031341Y025189
X033229Y02268
X033569Y02269
X030591Y024689
X030091
X029591
X029091
X029341Y025189
X029841
X030341
X030841
X031091Y025689
X030591
X030091
X029591
X029091
X028591
X028841Y026189
X029341
X029841
X030341
X030841
X028341
X027841
X027341
X026841
X028841Y025189
X027841Y019189
X024591Y017689
X024091
X023591
X022841Y017189
X022341
X021841
X021341
X021591Y017689
X022091
X021841Y018189
X021341
X021591Y018689
X021091Y017689
Y016689
X021591
X022091
X022591
X023091
X019484Y019059
X019Y019734
X018878Y018492
X018107Y018798
X017929Y019353
X017278Y01884
X031091Y016689
T02
X004337Y006248
X004487Y006648
X005017Y007448
X005237
Y007698
X005017
X005587Y008048
Y008298
X005937
Y008048
X005787Y009148
X005811Y009922
X005937Y010798
Y011048
X005587
Y010798
X005537Y012148
Y012498
X004187Y012798
Y013498
Y013998
Y014648
X00426Y01527
X00506
X004887Y014648
X00601Y01527
X00691
X007137Y014148
X007387
Y013898
X007137
X00846Y01527
X009737Y014648
X009837Y014148
X010637Y014198
X010537Y014698
X011187
X011437Y014248
X012137
X011887Y014648
X012737Y014798
X012887Y014298
X013787
X014337Y014248
Y014698
X014987
X015087Y014248
X015269Y015261
X01451Y01527
X013387Y014748
X011387Y013198
X011637Y012698
X010587Y013198
X010937Y010398
X011187
Y010148
X010937
X010487Y009848
X009387
X008987Y009748
X009337Y009398
X008737Y008598
X008387Y008898
X007937Y009048
X007587Y008648
Y008348
X007637Y007448
X007937
X007187Y007048
X008437Y006548
X008387Y006148
X008687Y005548
X009314Y006142
X009687Y007568
X010187Y008098
X011087Y007898
X013387Y007698
X013587Y007848
X013637Y007598
X013787Y008848
X013437Y008798
Y009998
X013737Y009948
X012237Y009548
X014487Y011248
X015237Y012698
X015404Y008648
X015187Y006248
X014487Y006148
X014737Y005298
X014087Y004748
X013887Y004248
X013387Y004898
X012887Y004448
X011987Y004598
X011487
X011637Y005048
X011037
X010087Y004198
X009087Y004148
X008037
X007287
X007937Y009948
X008437
X007737Y011398
Y011648
X012467Y005747
X015887Y006298
X017237Y007248
X017187Y007748
Y008198
X017737
Y007748
X018437
Y008198
X018587Y009598
X018487Y010898
Y011398
X018637Y012748
X018487Y014198
X018037
X017487
Y014698
X017987
X018487
X01826Y01527
X01896
X01966
X02026
X021984Y015119
Y014619
Y014119
X022584Y014169
Y014619
X022634Y015169
X023284
Y014669
Y014119
X024084
X024734
X025034Y014619
Y015169
X025634
X024184
X024334Y014619
X026903Y013688
X028384Y013819
Y014119
X029184Y013869
X029484Y013569
X029784Y013269
X030134Y013069
X029984Y013719
X030634Y014119
X031048Y01458
X030634Y015269
X030096Y015081
X029884Y014869
X029672Y014656
X029434Y014219
X028684Y015119
Y015319
X028449Y012931
X028084Y012969
X028284Y012269
X028434Y011969
Y011169
X028484Y01034
X027684Y009648
X027384Y009848
X026884
Y009448
Y009048
X026384
Y009448
X026334Y009848
X025684
Y009498
Y008998
X025034Y008948
Y009548
Y009848
X024484
X023734
X023134
X022434
X021984Y009648
Y009098
Y008548
Y007948
Y007398
X023634Y007198
Y006748
X023584Y006448
X024334Y007548
X025034Y007598
Y008248
X025334Y00696
X025834Y006798
Y006498
X02575Y007208
X026434Y007148
X028034Y006848
X028334Y006798
X028134Y007548
Y007948
X027934Y007748
X028334
X029284Y008098
X029534Y008398
X029834Y008648
X030084Y008898
X030434Y009098
X030384Y009848
X030484Y010369
X030284Y011077
Y011319
X029384Y012069
X026334Y011319
X025584Y011419
X025134
X024984Y010869
X025584
Y010369
X024834
X024134
X023434
X022684
X021984
X022284Y012269
X025984Y012769
X026933Y01057
X027284Y009348
Y008798
X027334Y008448
X027666Y008434
X028122Y00586
X028434Y005898
X028384Y004898
X028434Y004148
X027384Y004598
X025834Y005198
X025334Y005348
Y004748
Y004148
X024684
X024034
X023384
X022684
X022034
X024034Y005048
X029384Y005598
X030334Y004848
X030234Y004598
X030584
X030234Y004148
X031034
X030284Y006448
X030134Y007448
X030634Y007848
X031034Y008248
X016437Y009248
X016637Y010948
X016037Y010898
X015787
X016087Y011448
X016237Y012098
X015787Y012698
X015687Y014198
Y014748
X016337Y014698
X016287Y014198
X016887
Y014698
X01671Y01527
X01606
X01746
X01776Y01562
X016987Y011298
X017287Y010698
X031384Y010369
X032084Y009098
X032534Y008798
X032884Y008448
X033134Y009098
X033434Y009798
X034384
X035384
X036334
Y008998
Y008548
Y008298
X036684
Y008548
X036634Y009248
X037334
X037284Y009798
X038084
X038034Y009198
X037734Y011319
X036684Y011769
Y012019
X036334
Y011769
X036234Y010969
X036484Y012919
Y013669
X035534Y013619
X036334Y014519
Y014769
X036684
Y014519
X036734Y015269
X038034Y015319
X033634Y015369
X033534Y014669
Y014269
X033784
Y014019
X033534
X034261Y014345
X032484Y014119
Y014969
X032434Y015369
X032719
X031434Y014519
X031684Y013819
X031934Y012369
X033134
X033784Y011919
Y011569
Y011169
Y010844
X034734Y012469
X034134Y008048
X034184Y007498
X035334Y007298
X036534Y007448
Y006648
X036684Y005798
Y005548
X036334
Y005798
X037384Y004848
X03795Y004298
X035384Y004648
X033734Y004698
Y005048
Y005498
Y005898
X032984Y006148
X032234
X032334Y007898
X031534Y008098
Y007498
X031284Y007298
X034534Y006248
X033784Y016069
X035334
X036234
X037184
X037984
X035091Y020189
Y020639
X034391
Y020189
X033841
Y020639
X033891Y019689
X032541Y018739
X031841Y018689
X031391Y017739
X032057Y021089
X033091Y021689
X033291Y023389
X032691Y023339
X032441
X032741Y023889
X032891Y024539
X032441Y025139
X031891
X031741Y026689
X031641Y027139
X032341Y027189
Y026639
X032941
X032991Y027139
X033541
Y026639
X034141
Y027139
X034641
X035141
Y026639
X034691
X035291Y025189
X035141Y023839
Y023339
X035241Y022039
X033941Y023139
X033641Y023739
X031141Y023689
X030391Y022389
X030091Y022439
Y021239
X030441Y021289
X030241Y020289
X030291Y020039
X030041Y020139
X027741Y020339
X026841Y020539
X026341Y020009
X025967Y018583
X025041Y018589
X025091Y018989
X025341Y017989
X025741Y016589
X025534Y016069
X025334Y015669
X024484Y015719
X024784Y016069
X024691Y016589
X023941
X023984Y016069
X023684Y015669
X023284Y016069
X022584
X022634Y015669
X021984
Y016069
X02026Y01622
Y01672
Y01722
X01966Y01717
Y01672
X01961Y01617
Y01567
X02026
X01856
X01896Y01617
Y01667
Y01722
X01816
X01751
X01721Y01672
Y01617
X01661
X01691Y01567
X01601
X01806Y01617
X01791Y01672
X01626Y01857
X01666Y01992
X01711
X01726Y02047
X01666
Y02097
X01656Y021491
Y021841
Y022341
X01721Y022391
Y021791
Y021491
X01776
X01851
X01911
X01981
X02026Y021691
Y022241
Y022791
Y023391
Y023941
X01861Y024141
Y024591
X01866Y024891
X01791Y023791
X01721Y023741
Y023091
X01691Y024379
X01641Y02454
Y024841
X016494Y02413
X01581Y024191
X01586Y022291
Y021891
X01591Y021491
Y02002
X01741Y02097
X01811
X01881
X01956
X02026
X01996Y01907
X021141Y019089
X020991Y018689
X021671Y019889
X021891
Y020139
X021671
X022241Y020489
Y020739
X022591
Y020489
X022441Y021589
X022465Y022363
X022591Y023239
Y023489
X022241
Y023239
X022191Y024589
Y024939
X020841Y025239
Y025939
Y026439
Y027089
X021541
X02021Y027191
X01956
X01886
X01821
X01756
X01691
Y026591
Y025991
X01641Y026141
X01821Y026291
X023791Y026339
Y026589
X024041
Y026339
X024391Y024089
Y023839
X024591Y022389
X025091
X025641Y022189
X026041Y022289
X025991Y021839
X025391Y021039
X025041Y021339
X024591Y021489
X024241Y021089
Y020789
X024291Y019889
X024591
X023841Y019489
X026741Y016639
X026975Y016078
X027084Y015669
X026234
X026184Y016069
X027734
X028141Y017039
X028641
X028291Y017489
X027691
X029121Y018188
X029541Y016889
X030041Y017339
X030741Y017189
X030541Y016689
X031141Y018589
X028891Y021989
X027841Y022589
Y022839
X027591
Y022589
X027141Y022289
X027241Y025639
X028041
X028291Y025139
X028091Y026689
X027841Y027139
X027191
X027291Y026639
X026491Y026589
X026391Y027089
X028541
X028791Y026689
X029541Y026739
X029391Y027239
X030041Y027189
X030441Y026739
X030991Y026689
Y027139
X01486Y026741
X01386Y026441
X01381Y027191
Y025441
X014122Y025478
X01421Y024491
X01391Y024541
X01411Y023791
Y023391
X01431Y023591
X01391
X01296Y023241
X01271Y022941
X01241Y022691
X01216Y022441
X01181Y022241
X01186Y021491
X01176Y02097
X01086
X01196Y020262
Y02002
X01286Y01927
X01381Y01937
X01396Y01907
X013795Y018408
X01416Y01837
X01386Y01752
Y01722
X01306Y01747
X01276Y01777
X01246Y01807
X01211Y01827
X01226Y01762
X01161Y01722
X011196Y016759
X01081Y01682
X01056Y01752
X00976Y01722
Y01637
X00981Y01597
X009525
X00861
X00871Y01667
Y01707
X00846
Y01732
X00871
X007983Y016993
X00671Y01772
X00576Y01767
Y01842
X00591Y01932
Y01957
X00556
Y01932
X00601Y02037
X00591Y021541
Y022341
Y022791
Y023041
X00556
Y022791
X00561Y022091
X00491
X00496Y021541
X00416
X00421Y022141
X00451Y02002
X00686Y021541
X00786
X00881
X00911Y022241
X00936Y022891
X00971Y022541
X01016Y022241
X00991Y023441
X01071Y023241
Y023841
X01096Y024041
X01121Y023091
X01161Y023491
X01211Y023891
X01196Y024891
X01191Y026491
X01201Y026741
X01166
X01201Y027191
X01121
X01286Y025741
X01001Y025191
X00926
X00851Y025441
Y025841
Y026291
Y026641
X00686Y026691
X00591Y025791
Y025541
X00556
Y025791
X00571Y024691
Y023891
X00691Y024041
X00806Y023841
X00811Y023291
X00771Y025091
X00486Y026491
X004294Y027041
X00846Y020495
Y02017
Y01977
Y01942
X00911Y01897
X01031
X00751Y01887
X00591Y01682
Y01657
X00556
Y01682
X00551Y01607
X00421Y01602
X01161Y01607
X012148Y016258
X01236Y01647
X012572Y016682
X01281Y01712
X01356Y01622
Y01602
X01516Y01567
X015341Y017651
X015311Y020769
X01536Y021491
Y021891
Y022291
X01496Y022541
X01491Y022891
X014578Y022904
X01456Y021691
X01486Y021491
X01496Y021991
X01376Y020999
X01381Y02017
T03
X009787Y011248
Y012248
X010787
Y011248
X032134Y011719
X033134
Y010719
X032134
X032084Y005498
Y004498
X033084
Y005498
X027441Y023689
X026441
Y024689
X027441
X01016Y025841
Y026841
X00916
Y025841
X00911Y02062
Y01962
X01011
Y02062
T04
X023384Y012219
X01886Y01912
T05
X0224Y011234
X024368
Y013203
X0224
X019844Y018136
Y020104
X017876
Y018136
T06
X004831Y008662
X004831Y010434
X03744Y012383
X03744Y014154
Y007934
X03744Y006162
X021484Y021103
X021484Y022875
X004804Y023405
X004804Y025176
Y018956
X004804Y017184
M30
