G04*
G04 #@! TF.GenerationSoftware,Altium Limited,Altium Designer,22.10.1 (41)*
G04*
G04 Layer_Color=128*
%FSTAX24Y24*%
%MOIN*%
G70*
G04*
G04 #@! TF.SameCoordinates,C4D65E7B-EEE1-4A75-A0B3-CD900F305789*
G04*
G04*
G04 #@! TF.FilePolarity,Positive*
G04*
G01*
G75*
%ADD69C,0.0020*%
D69*
X022893Y019827D02*
X023641D01*
X023267Y019453D02*
Y020201D01*
X022893Y018055D02*
X023641D01*
X023267Y017681D02*
Y01843D01*
X028149Y021335D02*
X028484D01*
X028317Y021168D02*
Y021502D01*
X028149Y020548D02*
X028484D01*
X028317Y02038D02*
Y020715D01*
X027362Y021335D02*
X027697D01*
X027529Y021168D02*
Y021502D01*
X027362Y020548D02*
X027697D01*
X027529Y02038D02*
Y020715D01*
X032195Y019017D02*
X032315D01*
X032255Y018957D02*
Y019077D01*
X035413Y021791D02*
X035533D01*
X035473Y021731D02*
Y021851D01*
X038113Y021791D02*
X038233D01*
X038173Y021731D02*
Y021851D01*
X037413Y021791D02*
X037533D01*
X037473Y021731D02*
Y021851D01*
X036763Y021791D02*
X036883D01*
X036823Y021731D02*
Y021851D01*
X036113Y021791D02*
X036233D01*
X036173Y021731D02*
Y021851D01*
X034013Y016491D02*
X034133D01*
X034073Y016431D02*
Y016551D01*
X027263Y019241D02*
X027383D01*
X027323Y019181D02*
Y019301D01*
X026713Y018791D02*
X026833D01*
X026773Y018731D02*
Y018851D01*
X038213Y017691D02*
X038333D01*
X038273Y017631D02*
Y017751D01*
X038513Y017091D02*
X038633D01*
X038573Y017031D02*
Y017151D01*
X037913Y018291D02*
X038033D01*
X037973Y018231D02*
Y018351D01*
X037613Y016491D02*
X037733D01*
X037673Y016431D02*
Y016551D01*
X037013Y017691D02*
X037133D01*
X037073Y017631D02*
Y017751D01*
X037313Y017091D02*
X037433D01*
X037373Y017031D02*
Y017151D01*
X036413Y021291D02*
X036533D01*
X036473Y021231D02*
Y021351D01*
X036713Y019491D02*
X036833D01*
X036773Y019431D02*
Y019551D01*
X036413Y018891D02*
X036533D01*
X036473Y018831D02*
Y018951D01*
X036713Y018291D02*
X036833D01*
X036773Y018231D02*
Y018351D01*
X036413Y016491D02*
X036533D01*
X036473Y016431D02*
Y016551D01*
X035813Y021291D02*
X035933D01*
X035873Y021231D02*
Y021351D01*
X036113Y020691D02*
X036233D01*
X036173Y020631D02*
Y020751D01*
X035813Y017691D02*
X035933D01*
X035873Y017631D02*
Y017751D01*
X036113Y017091D02*
X036233D01*
X036173Y017031D02*
Y017151D01*
X035513Y020691D02*
X035633D01*
X035573Y020631D02*
Y020751D01*
X035513Y019491D02*
X035633D01*
X035573Y019431D02*
Y019551D01*
X035513Y018291D02*
X035633D01*
X035573Y018231D02*
Y018351D01*
X035213Y016491D02*
X035333D01*
X035273Y016431D02*
Y016551D01*
X034613Y018891D02*
X034733D01*
X034673Y018831D02*
Y018951D01*
X034613Y017691D02*
X034733D01*
X034673Y017631D02*
Y017751D01*
X034913Y017091D02*
X035033D01*
X034973Y017031D02*
Y017151D01*
X034313Y018291D02*
X034433D01*
X034373Y018231D02*
Y018351D01*
X033713Y017091D02*
X033833D01*
X033773Y017031D02*
Y017151D01*
X032813Y016491D02*
X032933D01*
X032873Y016431D02*
Y016551D01*
X032213Y021291D02*
X032333D01*
X032273Y021231D02*
Y021351D01*
X031913Y018291D02*
X032033D01*
X031973Y018231D02*
Y018351D01*
X031313Y018291D02*
X031433D01*
X031373Y018231D02*
Y018351D01*
X029813Y020091D02*
X029933D01*
X029873Y020031D02*
Y020151D01*
X028913Y020691D02*
X029033D01*
X028973Y020631D02*
Y020751D01*
X027413Y018891D02*
X027533D01*
X027473Y018831D02*
Y018951D01*
X027713Y018291D02*
X027833D01*
X027773Y018231D02*
Y018351D01*
X026513Y018291D02*
X026633D01*
X026573Y018231D02*
Y018351D01*
X023813Y016491D02*
X023933D01*
X023873Y016431D02*
Y016551D01*
X023213Y021291D02*
X023333D01*
X023273Y021231D02*
Y021351D01*
X023513Y020691D02*
X023633D01*
X023573Y020631D02*
Y020751D01*
X023213Y018891D02*
X023333D01*
X023273Y018831D02*
Y018951D01*
X023213Y016491D02*
X023333D01*
X023273Y016431D02*
Y016551D01*
X022613Y016491D02*
X022733D01*
X022673Y016431D02*
Y016551D01*
X024563Y016191D02*
X024683D01*
X024623Y016131D02*
Y016251D01*
X026113Y018591D02*
X026233D01*
X026173Y018531D02*
Y018651D01*
X026563Y019641D02*
X026683D01*
X026623Y019581D02*
Y019701D01*
X026163Y019291D02*
X026283D01*
X026223Y019231D02*
Y019351D01*
X028313Y019991D02*
X028433D01*
X028373Y019931D02*
Y020051D01*
X028913Y018791D02*
X029033D01*
X028973Y018731D02*
Y018851D01*
X028613Y018241D02*
X028733D01*
X028673Y018181D02*
Y018301D01*
X024413Y018041D02*
X024533D01*
X024473Y017981D02*
Y018101D01*
X023563Y018741D02*
X023683D01*
X023623Y018681D02*
Y018801D01*
X023563Y019141D02*
X023683D01*
X023623Y019081D02*
Y019201D01*
X024413Y019841D02*
X024533D01*
X024473Y019781D02*
Y019901D01*
X024013Y019841D02*
X024133D01*
X024073Y019781D02*
Y019901D01*
X032713Y017391D02*
X032833D01*
X032773Y017331D02*
Y017451D01*
X031663Y020091D02*
X031783D01*
X031723Y020031D02*
Y020151D01*
X032013Y020091D02*
X032133D01*
X032073Y020031D02*
Y020151D01*
X035063Y021141D02*
X035183D01*
X035123Y021081D02*
Y021201D01*
X031913Y019241D02*
X032033D01*
X031973Y019181D02*
Y019301D01*
X03264Y021541D02*
X03276D01*
X0327Y021481D02*
Y021601D01*
X034463Y021518D02*
X034583D01*
X034523Y021458D02*
Y021578D01*
X031913Y021841D02*
X032033D01*
X031973Y021781D02*
Y021901D01*
X030813Y021591D02*
X030933D01*
X030873Y021531D02*
Y021651D01*
X031213Y021115D02*
X031333D01*
X031273Y021055D02*
Y021175D01*
X029063Y017441D02*
X029183D01*
X029123Y017381D02*
Y017501D01*
X029113Y017941D02*
X029233D01*
X029173Y017881D02*
Y018001D01*
X028263Y018191D02*
X028383D01*
X028323Y018131D02*
Y018251D01*
X028863Y018441D02*
X028983D01*
X028923Y018381D02*
Y018501D01*
X029954Y01928D02*
X030074D01*
X030014Y01922D02*
Y01934D01*
X030413Y018691D02*
X030533D01*
X030473Y018631D02*
Y018751D01*
X029813Y019691D02*
X029933D01*
X029873Y019631D02*
Y019751D01*
X030763Y021041D02*
X030883D01*
X030823Y020981D02*
Y021101D01*
X027563Y017941D02*
X027683D01*
X027623Y017881D02*
Y018001D01*
X029747Y021091D02*
X029867D01*
X029807Y021031D02*
Y021151D01*
X026963Y019991D02*
X027083D01*
X027023Y019931D02*
Y020051D01*
X029913Y016891D02*
X030033D01*
X029973Y016831D02*
Y016951D01*
X030863Y017841D02*
X030983D01*
X030923Y017781D02*
Y017901D01*
X030763Y018341D02*
X030883D01*
X030823Y018281D02*
Y018401D01*
X029913Y018741D02*
X030033D01*
X029973Y018681D02*
Y018801D01*
X029463Y017041D02*
X029583D01*
X029523Y016981D02*
Y017101D01*
X029513Y018341D02*
X029633D01*
X029573Y018281D02*
Y018401D01*
X030213Y017191D02*
X030333D01*
X030273Y017131D02*
Y017251D01*
X030563Y017541D02*
X030683D01*
X030623Y017481D02*
Y017601D01*
X032513Y016291D02*
X032633D01*
X032573Y016231D02*
Y016351D01*
X029763Y016241D02*
X029883D01*
X029823Y016181D02*
Y016301D01*
X027713Y017091D02*
X027833D01*
X027773Y017031D02*
Y017151D01*
X027397Y016591D02*
X027517D01*
X027457Y016531D02*
Y016651D01*
X026863Y017426D02*
X026983D01*
X026923Y017366D02*
Y017486D01*
X025113Y018541D02*
X025233D01*
X025173Y018481D02*
Y018601D01*
X022813Y021091D02*
X022933D01*
X022873Y021031D02*
Y021151D01*
X023863Y017041D02*
X023983D01*
X023923Y016981D02*
Y017101D01*
X025746Y016617D02*
X025866D01*
X025806Y016557D02*
Y016677D01*
X024132Y019335D02*
X024252D01*
X024192Y019275D02*
Y019395D01*
X024313Y020191D02*
X024433D01*
X024373Y020131D02*
Y020251D01*
X024313Y020441D02*
X024433D01*
X024373Y020381D02*
Y020501D01*
X024413Y021191D02*
X024533D01*
X024473Y021131D02*
Y021251D01*
X025579Y019991D02*
X025699D01*
X025639Y019931D02*
Y020051D01*
X023963Y017441D02*
X024083D01*
X024023Y017381D02*
Y017501D01*
X024313Y017441D02*
X024433D01*
X024373Y017381D02*
Y017501D01*
X024313Y017691D02*
X024433D01*
X024373Y017631D02*
Y017751D01*
X023963Y017691D02*
X024083D01*
X024023Y017631D02*
Y017751D01*
X023963Y020191D02*
X024083D01*
X024023Y020131D02*
Y020251D01*
X023963Y020441D02*
X024083D01*
X024023Y020381D02*
Y020501D01*
X024132Y018598D02*
X024252D01*
X024192Y018538D02*
Y018658D01*
X039546Y019827D02*
X040294D01*
X03992Y019453D02*
Y020201D01*
X039546Y018055D02*
X040294D01*
X03992Y017681D02*
Y01843D01*
X044803Y021335D02*
X045137D01*
X04497Y021168D02*
Y021502D01*
X044803Y020548D02*
X045137D01*
X04497Y02038D02*
Y020715D01*
X044015Y021335D02*
X04435D01*
X044183Y021168D02*
Y021502D01*
X044015Y020548D02*
X04435D01*
X044183Y02038D02*
Y020715D01*
X048849Y019017D02*
X048969D01*
X048909Y018957D02*
Y019077D01*
X052066Y021791D02*
X052186D01*
X052126Y021731D02*
Y021851D01*
X054766Y021791D02*
X054886D01*
X054826Y021731D02*
Y021851D01*
X054066Y021791D02*
X054186D01*
X054126Y021731D02*
Y021851D01*
X053416Y021791D02*
X053536D01*
X053476Y021731D02*
Y021851D01*
X052766Y021791D02*
X052886D01*
X052826Y021731D02*
Y021851D01*
X050666Y016491D02*
X050786D01*
X050726Y016431D02*
Y016551D01*
X043916Y019241D02*
X044036D01*
X043976Y019181D02*
Y019301D01*
X043366Y018791D02*
X043486D01*
X043426Y018731D02*
Y018851D01*
X054866Y017691D02*
X054986D01*
X054926Y017631D02*
Y017751D01*
X055166Y017091D02*
X055286D01*
X055226Y017031D02*
Y017151D01*
X054566Y018291D02*
X054686D01*
X054626Y018231D02*
Y018351D01*
X054266Y016491D02*
X054386D01*
X054326Y016431D02*
Y016551D01*
X053666Y017691D02*
X053786D01*
X053726Y017631D02*
Y017751D01*
X053966Y017091D02*
X054086D01*
X054026Y017031D02*
Y017151D01*
X053066Y021291D02*
X053186D01*
X053126Y021231D02*
Y021351D01*
X053366Y019491D02*
X053486D01*
X053426Y019431D02*
Y019551D01*
X053066Y018891D02*
X053186D01*
X053126Y018831D02*
Y018951D01*
X053366Y018291D02*
X053486D01*
X053426Y018231D02*
Y018351D01*
X053066Y016491D02*
X053186D01*
X053126Y016431D02*
Y016551D01*
X052466Y021291D02*
X052586D01*
X052526Y021231D02*
Y021351D01*
X052766Y020691D02*
X052886D01*
X052826Y020631D02*
Y020751D01*
X052466Y017691D02*
X052586D01*
X052526Y017631D02*
Y017751D01*
X052766Y017091D02*
X052886D01*
X052826Y017031D02*
Y017151D01*
X052166Y020691D02*
X052286D01*
X052226Y020631D02*
Y020751D01*
X052166Y019491D02*
X052286D01*
X052226Y019431D02*
Y019551D01*
X052166Y018291D02*
X052286D01*
X052226Y018231D02*
Y018351D01*
X051866Y016491D02*
X051986D01*
X051926Y016431D02*
Y016551D01*
X051266Y018891D02*
X051386D01*
X051326Y018831D02*
Y018951D01*
X051266Y017691D02*
X051386D01*
X051326Y017631D02*
Y017751D01*
X051566Y017091D02*
X051686D01*
X051626Y017031D02*
Y017151D01*
X050966Y018291D02*
X051086D01*
X051026Y018231D02*
Y018351D01*
X050366Y017091D02*
X050486D01*
X050426Y017031D02*
Y017151D01*
X049466Y016491D02*
X049586D01*
X049526Y016431D02*
Y016551D01*
X048866Y021291D02*
X048986D01*
X048926Y021231D02*
Y021351D01*
X048566Y018291D02*
X048686D01*
X048626Y018231D02*
Y018351D01*
X047966Y018291D02*
X048086D01*
X048026Y018231D02*
Y018351D01*
X046466Y020091D02*
X046586D01*
X046526Y020031D02*
Y020151D01*
X045566Y020691D02*
X045686D01*
X045626Y020631D02*
Y020751D01*
X044066Y018891D02*
X044186D01*
X044126Y018831D02*
Y018951D01*
X044366Y018291D02*
X044486D01*
X044426Y018231D02*
Y018351D01*
X043166Y018291D02*
X043286D01*
X043226Y018231D02*
Y018351D01*
X040466Y016491D02*
X040586D01*
X040526Y016431D02*
Y016551D01*
X039866Y021291D02*
X039986D01*
X039926Y021231D02*
Y021351D01*
X040166Y020691D02*
X040286D01*
X040226Y020631D02*
Y020751D01*
X039866Y018891D02*
X039986D01*
X039926Y018831D02*
Y018951D01*
X039866Y016491D02*
X039986D01*
X039926Y016431D02*
Y016551D01*
X039266Y016491D02*
X039386D01*
X039326Y016431D02*
Y016551D01*
X041216Y016191D02*
X041336D01*
X041276Y016131D02*
Y016251D01*
X042766Y018591D02*
X042886D01*
X042826Y018531D02*
Y018651D01*
X043216Y019641D02*
X043336D01*
X043276Y019581D02*
Y019701D01*
X042816Y019291D02*
X042936D01*
X042876Y019231D02*
Y019351D01*
X044966Y019991D02*
X045086D01*
X045026Y019931D02*
Y020051D01*
X045566Y018791D02*
X045686D01*
X045626Y018731D02*
Y018851D01*
X045266Y018241D02*
X045386D01*
X045326Y018181D02*
Y018301D01*
X041066Y018041D02*
X041186D01*
X041126Y017981D02*
Y018101D01*
X040216Y018741D02*
X040336D01*
X040276Y018681D02*
Y018801D01*
X040216Y019141D02*
X040336D01*
X040276Y019081D02*
Y019201D01*
X041066Y019841D02*
X041186D01*
X041126Y019781D02*
Y019901D01*
X040666Y019841D02*
X040786D01*
X040726Y019781D02*
Y019901D01*
X049366Y017391D02*
X049486D01*
X049426Y017331D02*
Y017451D01*
X048316Y020091D02*
X048436D01*
X048376Y020031D02*
Y020151D01*
X048666Y020091D02*
X048786D01*
X048726Y020031D02*
Y020151D01*
X051716Y021141D02*
X051836D01*
X051776Y021081D02*
Y021201D01*
X048566Y019241D02*
X048686D01*
X048626Y019181D02*
Y019301D01*
X049293Y021541D02*
X049413D01*
X049353Y021481D02*
Y021601D01*
X051116Y021518D02*
X051236D01*
X051176Y021458D02*
Y021578D01*
X048566Y021841D02*
X048686D01*
X048626Y021781D02*
Y021901D01*
X047466Y021591D02*
X047586D01*
X047526Y021531D02*
Y021651D01*
X047866Y021115D02*
X047986D01*
X047926Y021055D02*
Y021175D01*
X045716Y017441D02*
X045836D01*
X045776Y017381D02*
Y017501D01*
X045766Y017941D02*
X045886D01*
X045826Y017881D02*
Y018001D01*
X044916Y018191D02*
X045036D01*
X044976Y018131D02*
Y018251D01*
X045516Y018441D02*
X045636D01*
X045576Y018381D02*
Y018501D01*
X046608Y01928D02*
X046728D01*
X046668Y01922D02*
Y01934D01*
X047066Y018691D02*
X047186D01*
X047126Y018631D02*
Y018751D01*
X046466Y019691D02*
X046586D01*
X046526Y019631D02*
Y019751D01*
X047416Y021041D02*
X047536D01*
X047476Y020981D02*
Y021101D01*
X044216Y017941D02*
X044336D01*
X044276Y017881D02*
Y018001D01*
X046401Y021091D02*
X046521D01*
X046461Y021031D02*
Y021151D01*
X043616Y019991D02*
X043736D01*
X043676Y019931D02*
Y020051D01*
X046566Y016891D02*
X046686D01*
X046626Y016831D02*
Y016951D01*
X047516Y017841D02*
X047636D01*
X047576Y017781D02*
Y017901D01*
X047416Y018341D02*
X047536D01*
X047476Y018281D02*
Y018401D01*
X046566Y018741D02*
X046686D01*
X046626Y018681D02*
Y018801D01*
X046116Y017041D02*
X046236D01*
X046176Y016981D02*
Y017101D01*
X046166Y018341D02*
X046286D01*
X046226Y018281D02*
Y018401D01*
X046866Y017191D02*
X046986D01*
X046926Y017131D02*
Y017251D01*
X047216Y017541D02*
X047336D01*
X047276Y017481D02*
Y017601D01*
X049166Y016291D02*
X049286D01*
X049226Y016231D02*
Y016351D01*
X046416Y016241D02*
X046536D01*
X046476Y016181D02*
Y016301D01*
X044366Y017091D02*
X044486D01*
X044426Y017031D02*
Y017151D01*
X044051Y016591D02*
X044171D01*
X044111Y016531D02*
Y016651D01*
X043516Y017426D02*
X043636D01*
X043576Y017366D02*
Y017486D01*
X041766Y018541D02*
X041886D01*
X041826Y018481D02*
Y018601D01*
X039466Y021091D02*
X039586D01*
X039526Y021031D02*
Y021151D01*
X040516Y017041D02*
X040636D01*
X040576Y016981D02*
Y017101D01*
X0424Y016617D02*
X04252D01*
X04246Y016557D02*
Y016677D01*
X040785Y019335D02*
X040905D01*
X040845Y019275D02*
Y019395D01*
X040966Y020191D02*
X041086D01*
X041026Y020131D02*
Y020251D01*
X040966Y020441D02*
X041086D01*
X041026Y020381D02*
Y020501D01*
X041066Y021191D02*
X041186D01*
X041126Y021131D02*
Y021251D01*
X042232Y019991D02*
X042352D01*
X042292Y019931D02*
Y020051D01*
X040616Y017441D02*
X040736D01*
X040676Y017381D02*
Y017501D01*
X040966Y017441D02*
X041086D01*
X041026Y017381D02*
Y017501D01*
X040966Y017691D02*
X041086D01*
X041026Y017631D02*
Y017751D01*
X040616Y017691D02*
X040736D01*
X040676Y017631D02*
Y017751D01*
X040616Y020191D02*
X040736D01*
X040676Y020131D02*
Y020251D01*
X040616Y020441D02*
X040736D01*
X040676Y020381D02*
Y020501D01*
X040785Y018598D02*
X040905D01*
X040845Y018538D02*
Y018658D01*
X022893Y026048D02*
X023641D01*
X023267Y025674D02*
Y026422D01*
X022893Y024276D02*
X023641D01*
X023267Y023902D02*
Y02465D01*
X028149Y027555D02*
X028484D01*
X028317Y027388D02*
Y027723D01*
X028149Y026768D02*
X028484D01*
X028317Y026601D02*
Y026935D01*
X027362Y027555D02*
X027697D01*
X027529Y027388D02*
Y027723D01*
X027362Y026768D02*
X027697D01*
X027529Y026601D02*
Y026935D01*
X032195Y025238D02*
X032315D01*
X032255Y025178D02*
Y025298D01*
X035413Y028012D02*
X035533D01*
X035473Y027952D02*
Y028072D01*
X038113Y028012D02*
X038233D01*
X038173Y027952D02*
Y028072D01*
X037413Y028012D02*
X037533D01*
X037473Y027952D02*
Y028072D01*
X036763Y028012D02*
X036883D01*
X036823Y027952D02*
Y028072D01*
X036113Y028012D02*
X036233D01*
X036173Y027952D02*
Y028072D01*
X034013Y022712D02*
X034133D01*
X034073Y022652D02*
Y022772D01*
X027263Y025462D02*
X027383D01*
X027323Y025402D02*
Y025522D01*
X026713Y025012D02*
X026833D01*
X026773Y024952D02*
Y025072D01*
X038213Y023912D02*
X038333D01*
X038273Y023852D02*
Y023972D01*
X038513Y023312D02*
X038633D01*
X038573Y023252D02*
Y023372D01*
X037913Y024512D02*
X038033D01*
X037973Y024452D02*
Y024572D01*
X037613Y022712D02*
X037733D01*
X037673Y022652D02*
Y022772D01*
X037013Y023912D02*
X037133D01*
X037073Y023852D02*
Y023972D01*
X037313Y023312D02*
X037433D01*
X037373Y023252D02*
Y023372D01*
X036413Y027512D02*
X036533D01*
X036473Y027452D02*
Y027572D01*
X036713Y025712D02*
X036833D01*
X036773Y025652D02*
Y025772D01*
X036413Y025112D02*
X036533D01*
X036473Y025052D02*
Y025172D01*
X036713Y024512D02*
X036833D01*
X036773Y024452D02*
Y024572D01*
X036413Y022712D02*
X036533D01*
X036473Y022652D02*
Y022772D01*
X035813Y027512D02*
X035933D01*
X035873Y027452D02*
Y027572D01*
X036113Y026912D02*
X036233D01*
X036173Y026852D02*
Y026972D01*
X035813Y023912D02*
X035933D01*
X035873Y023852D02*
Y023972D01*
X036113Y023312D02*
X036233D01*
X036173Y023252D02*
Y023372D01*
X035513Y026912D02*
X035633D01*
X035573Y026852D02*
Y026972D01*
X035513Y025712D02*
X035633D01*
X035573Y025652D02*
Y025772D01*
X035513Y024512D02*
X035633D01*
X035573Y024452D02*
Y024572D01*
X035213Y022712D02*
X035333D01*
X035273Y022652D02*
Y022772D01*
X034613Y025112D02*
X034733D01*
X034673Y025052D02*
Y025172D01*
X034613Y023912D02*
X034733D01*
X034673Y023852D02*
Y023972D01*
X034913Y023312D02*
X035033D01*
X034973Y023252D02*
Y023372D01*
X034313Y024512D02*
X034433D01*
X034373Y024452D02*
Y024572D01*
X033713Y023312D02*
X033833D01*
X033773Y023252D02*
Y023372D01*
X032813Y022712D02*
X032933D01*
X032873Y022652D02*
Y022772D01*
X032213Y027512D02*
X032333D01*
X032273Y027452D02*
Y027572D01*
X031913Y024512D02*
X032033D01*
X031973Y024452D02*
Y024572D01*
X031313Y024512D02*
X031433D01*
X031373Y024452D02*
Y024572D01*
X029813Y026312D02*
X029933D01*
X029873Y026252D02*
Y026372D01*
X028913Y026912D02*
X029033D01*
X028973Y026852D02*
Y026972D01*
X027413Y025112D02*
X027533D01*
X027473Y025052D02*
Y025172D01*
X027713Y024512D02*
X027833D01*
X027773Y024452D02*
Y024572D01*
X026513Y024512D02*
X026633D01*
X026573Y024452D02*
Y024572D01*
X023813Y022712D02*
X023933D01*
X023873Y022652D02*
Y022772D01*
X023213Y027512D02*
X023333D01*
X023273Y027452D02*
Y027572D01*
X023513Y026912D02*
X023633D01*
X023573Y026852D02*
Y026972D01*
X023213Y025112D02*
X023333D01*
X023273Y025052D02*
Y025172D01*
X023213Y022712D02*
X023333D01*
X023273Y022652D02*
Y022772D01*
X022613Y022712D02*
X022733D01*
X022673Y022652D02*
Y022772D01*
X024563Y022412D02*
X024683D01*
X024623Y022352D02*
Y022472D01*
X026113Y024812D02*
X026233D01*
X026173Y024752D02*
Y024872D01*
X026563Y025862D02*
X026683D01*
X026623Y025802D02*
Y025922D01*
X026163Y025512D02*
X026283D01*
X026223Y025452D02*
Y025572D01*
X028313Y026212D02*
X028433D01*
X028373Y026152D02*
Y026272D01*
X028913Y025012D02*
X029033D01*
X028973Y024952D02*
Y025072D01*
X028613Y024462D02*
X028733D01*
X028673Y024402D02*
Y024522D01*
X024413Y024262D02*
X024533D01*
X024473Y024202D02*
Y024322D01*
X023563Y024962D02*
X023683D01*
X023623Y024902D02*
Y025022D01*
X023563Y025362D02*
X023683D01*
X023623Y025302D02*
Y025422D01*
X024413Y026062D02*
X024533D01*
X024473Y026002D02*
Y026122D01*
X024013Y026062D02*
X024133D01*
X024073Y026002D02*
Y026122D01*
X032713Y023612D02*
X032833D01*
X032773Y023552D02*
Y023672D01*
X031663Y026312D02*
X031783D01*
X031723Y026252D02*
Y026372D01*
X032013Y026312D02*
X032133D01*
X032073Y026252D02*
Y026372D01*
X035063Y027362D02*
X035183D01*
X035123Y027302D02*
Y027422D01*
X031913Y025462D02*
X032033D01*
X031973Y025402D02*
Y025522D01*
X03264Y027762D02*
X03276D01*
X0327Y027702D02*
Y027822D01*
X034463Y027738D02*
X034583D01*
X034523Y027678D02*
Y027798D01*
X031913Y028062D02*
X032033D01*
X031973Y028002D02*
Y028122D01*
X030813Y027812D02*
X030933D01*
X030873Y027752D02*
Y027872D01*
X031213Y027335D02*
X031333D01*
X031273Y027275D02*
Y027395D01*
X029063Y023662D02*
X029183D01*
X029123Y023602D02*
Y023722D01*
X029113Y024162D02*
X029233D01*
X029173Y024102D02*
Y024222D01*
X028263Y024412D02*
X028383D01*
X028323Y024352D02*
Y024472D01*
X028863Y024662D02*
X028983D01*
X028923Y024602D02*
Y024722D01*
X029954Y0255D02*
X030074D01*
X030014Y02544D02*
Y02556D01*
X030413Y024912D02*
X030533D01*
X030473Y024852D02*
Y024972D01*
X029813Y025912D02*
X029933D01*
X029873Y025852D02*
Y025972D01*
X030763Y027262D02*
X030883D01*
X030823Y027202D02*
Y027322D01*
X027563Y024162D02*
X027683D01*
X027623Y024102D02*
Y024222D01*
X029747Y027312D02*
X029867D01*
X029807Y027252D02*
Y027372D01*
X026963Y026212D02*
X027083D01*
X027023Y026152D02*
Y026272D01*
X029913Y023112D02*
X030033D01*
X029973Y023052D02*
Y023172D01*
X030863Y024062D02*
X030983D01*
X030923Y024002D02*
Y024122D01*
X030763Y024562D02*
X030883D01*
X030823Y024502D02*
Y024622D01*
X029913Y024962D02*
X030033D01*
X029973Y024902D02*
Y025022D01*
X029463Y023262D02*
X029583D01*
X029523Y023202D02*
Y023322D01*
X029513Y024562D02*
X029633D01*
X029573Y024502D02*
Y024622D01*
X030213Y023412D02*
X030333D01*
X030273Y023352D02*
Y023472D01*
X030563Y023762D02*
X030683D01*
X030623Y023702D02*
Y023822D01*
X032513Y022512D02*
X032633D01*
X032573Y022452D02*
Y022572D01*
X029763Y022462D02*
X029883D01*
X029823Y022402D02*
Y022522D01*
X027713Y023312D02*
X027833D01*
X027773Y023252D02*
Y023372D01*
X027397Y022812D02*
X027517D01*
X027457Y022752D02*
Y022872D01*
X026863Y023646D02*
X026983D01*
X026923Y023586D02*
Y023706D01*
X025113Y024762D02*
X025233D01*
X025173Y024702D02*
Y024822D01*
X022813Y027312D02*
X022933D01*
X022873Y027252D02*
Y027372D01*
X023863Y023262D02*
X023983D01*
X023923Y023202D02*
Y023322D01*
X025746Y022838D02*
X025866D01*
X025806Y022778D02*
Y022898D01*
X024132Y025556D02*
X024252D01*
X024192Y025496D02*
Y025615D01*
X024313Y026412D02*
X024433D01*
X024373Y026352D02*
Y026472D01*
X024313Y026662D02*
X024433D01*
X024373Y026602D02*
Y026722D01*
X024413Y027412D02*
X024533D01*
X024473Y027352D02*
Y027472D01*
X025579Y026212D02*
X025699D01*
X025639Y026152D02*
Y026272D01*
X023963Y023662D02*
X024083D01*
X024023Y023602D02*
Y023722D01*
X024313Y023662D02*
X024433D01*
X024373Y023602D02*
Y023722D01*
X024313Y023912D02*
X024433D01*
X024373Y023852D02*
Y023972D01*
X023963Y023912D02*
X024083D01*
X024023Y023852D02*
Y023972D01*
X023963Y026412D02*
X024083D01*
X024023Y026352D02*
Y026472D01*
X023963Y026662D02*
X024083D01*
X024023Y026602D02*
Y026722D01*
X024132Y024818D02*
X024252D01*
X024192Y024758D02*
Y024878D01*
X039546Y026048D02*
X040294D01*
X03992Y025674D02*
Y026422D01*
X039546Y024276D02*
X040294D01*
X03992Y023902D02*
Y02465D01*
X044803Y027555D02*
X045137D01*
X04497Y027388D02*
Y027723D01*
X044803Y026768D02*
X045137D01*
X04497Y026601D02*
Y026935D01*
X044015Y027555D02*
X04435D01*
X044183Y027388D02*
Y027723D01*
X044015Y026768D02*
X04435D01*
X044183Y026601D02*
Y026935D01*
X048849Y025238D02*
X048969D01*
X048909Y025178D02*
Y025298D01*
X052066Y028012D02*
X052186D01*
X052126Y027952D02*
Y028072D01*
X054766Y028012D02*
X054886D01*
X054826Y027952D02*
Y028072D01*
X054066Y028012D02*
X054186D01*
X054126Y027952D02*
Y028072D01*
X053416Y028012D02*
X053536D01*
X053476Y027952D02*
Y028072D01*
X052766Y028012D02*
X052886D01*
X052826Y027952D02*
Y028072D01*
X050666Y022712D02*
X050786D01*
X050726Y022652D02*
Y022772D01*
X043916Y025462D02*
X044036D01*
X043976Y025402D02*
Y025522D01*
X043366Y025012D02*
X043486D01*
X043426Y024952D02*
Y025072D01*
X054866Y023912D02*
X054986D01*
X054926Y023852D02*
Y023972D01*
X055166Y023312D02*
X055286D01*
X055226Y023252D02*
Y023372D01*
X054566Y024512D02*
X054686D01*
X054626Y024452D02*
Y024572D01*
X054266Y022712D02*
X054386D01*
X054326Y022652D02*
Y022772D01*
X053666Y023912D02*
X053786D01*
X053726Y023852D02*
Y023972D01*
X053966Y023312D02*
X054086D01*
X054026Y023252D02*
Y023372D01*
X053066Y027512D02*
X053186D01*
X053126Y027452D02*
Y027572D01*
X053366Y025712D02*
X053486D01*
X053426Y025652D02*
Y025772D01*
X053066Y025112D02*
X053186D01*
X053126Y025052D02*
Y025172D01*
X053366Y024512D02*
X053486D01*
X053426Y024452D02*
Y024572D01*
X053066Y022712D02*
X053186D01*
X053126Y022652D02*
Y022772D01*
X052466Y027512D02*
X052586D01*
X052526Y027452D02*
Y027572D01*
X052766Y026912D02*
X052886D01*
X052826Y026852D02*
Y026972D01*
X052466Y023912D02*
X052586D01*
X052526Y023852D02*
Y023972D01*
X052766Y023312D02*
X052886D01*
X052826Y023252D02*
Y023372D01*
X052166Y026912D02*
X052286D01*
X052226Y026852D02*
Y026972D01*
X052166Y025712D02*
X052286D01*
X052226Y025652D02*
Y025772D01*
X052166Y024512D02*
X052286D01*
X052226Y024452D02*
Y024572D01*
X051866Y022712D02*
X051986D01*
X051926Y022652D02*
Y022772D01*
X051266Y025112D02*
X051386D01*
X051326Y025052D02*
Y025172D01*
X051266Y023912D02*
X051386D01*
X051326Y023852D02*
Y023972D01*
X051566Y023312D02*
X051686D01*
X051626Y023252D02*
Y023372D01*
X050966Y024512D02*
X051086D01*
X051026Y024452D02*
Y024572D01*
X050366Y023312D02*
X050486D01*
X050426Y023252D02*
Y023372D01*
X049466Y022712D02*
X049586D01*
X049526Y022652D02*
Y022772D01*
X048866Y027512D02*
X048986D01*
X048926Y027452D02*
Y027572D01*
X048566Y024512D02*
X048686D01*
X048626Y024452D02*
Y024572D01*
X047966Y024512D02*
X048086D01*
X048026Y024452D02*
Y024572D01*
X046466Y026312D02*
X046586D01*
X046526Y026252D02*
Y026372D01*
X045566Y026912D02*
X045686D01*
X045626Y026852D02*
Y026972D01*
X044066Y025112D02*
X044186D01*
X044126Y025052D02*
Y025172D01*
X044366Y024512D02*
X044486D01*
X044426Y024452D02*
Y024572D01*
X043166Y024512D02*
X043286D01*
X043226Y024452D02*
Y024572D01*
X040466Y022712D02*
X040586D01*
X040526Y022652D02*
Y022772D01*
X039866Y027512D02*
X039986D01*
X039926Y027452D02*
Y027572D01*
X040166Y026912D02*
X040286D01*
X040226Y026852D02*
Y026972D01*
X039866Y025112D02*
X039986D01*
X039926Y025052D02*
Y025172D01*
X039866Y022712D02*
X039986D01*
X039926Y022652D02*
Y022772D01*
X039266Y022712D02*
X039386D01*
X039326Y022652D02*
Y022772D01*
X041216Y022412D02*
X041336D01*
X041276Y022352D02*
Y022472D01*
X042766Y024812D02*
X042886D01*
X042826Y024752D02*
Y024872D01*
X043216Y025862D02*
X043336D01*
X043276Y025802D02*
Y025922D01*
X042816Y025512D02*
X042936D01*
X042876Y025452D02*
Y025572D01*
X044966Y026212D02*
X045086D01*
X045026Y026152D02*
Y026272D01*
X045566Y025012D02*
X045686D01*
X045626Y024952D02*
Y025072D01*
X045266Y024462D02*
X045386D01*
X045326Y024402D02*
Y024522D01*
X041066Y024262D02*
X041186D01*
X041126Y024202D02*
Y024322D01*
X040216Y024962D02*
X040336D01*
X040276Y024902D02*
Y025022D01*
X040216Y025362D02*
X040336D01*
X040276Y025302D02*
Y025422D01*
X041066Y026062D02*
X041186D01*
X041126Y026002D02*
Y026122D01*
X040666Y026062D02*
X040786D01*
X040726Y026002D02*
Y026122D01*
X049366Y023612D02*
X049486D01*
X049426Y023552D02*
Y023672D01*
X048316Y026312D02*
X048436D01*
X048376Y026252D02*
Y026372D01*
X048666Y026312D02*
X048786D01*
X048726Y026252D02*
Y026372D01*
X051716Y027362D02*
X051836D01*
X051776Y027302D02*
Y027422D01*
X048566Y025462D02*
X048686D01*
X048626Y025402D02*
Y025522D01*
X049293Y027762D02*
X049413D01*
X049353Y027702D02*
Y027822D01*
X051116Y027738D02*
X051236D01*
X051176Y027678D02*
Y027798D01*
X048566Y028062D02*
X048686D01*
X048626Y028002D02*
Y028122D01*
X047466Y027812D02*
X047586D01*
X047526Y027752D02*
Y027872D01*
X047866Y027335D02*
X047986D01*
X047926Y027275D02*
Y027395D01*
X045716Y023662D02*
X045836D01*
X045776Y023602D02*
Y023722D01*
X045766Y024162D02*
X045886D01*
X045826Y024102D02*
Y024222D01*
X044916Y024412D02*
X045036D01*
X044976Y024352D02*
Y024472D01*
X045516Y024662D02*
X045636D01*
X045576Y024602D02*
Y024722D01*
X046608Y0255D02*
X046728D01*
X046668Y02544D02*
Y02556D01*
X047066Y024912D02*
X047186D01*
X047126Y024852D02*
Y024972D01*
X046466Y025912D02*
X046586D01*
X046526Y025852D02*
Y025972D01*
X047416Y027262D02*
X047536D01*
X047476Y027202D02*
Y027322D01*
X044216Y024162D02*
X044336D01*
X044276Y024102D02*
Y024222D01*
X046401Y027312D02*
X046521D01*
X046461Y027252D02*
Y027372D01*
X043616Y026212D02*
X043736D01*
X043676Y026152D02*
Y026272D01*
X046566Y023112D02*
X046686D01*
X046626Y023052D02*
Y023172D01*
X047516Y024062D02*
X047636D01*
X047576Y024002D02*
Y024122D01*
X047416Y024562D02*
X047536D01*
X047476Y024502D02*
Y024622D01*
X046566Y024962D02*
X046686D01*
X046626Y024902D02*
Y025022D01*
X046116Y023262D02*
X046236D01*
X046176Y023202D02*
Y023322D01*
X046166Y024562D02*
X046286D01*
X046226Y024502D02*
Y024622D01*
X046866Y023412D02*
X046986D01*
X046926Y023352D02*
Y023472D01*
X047216Y023762D02*
X047336D01*
X047276Y023702D02*
Y023822D01*
X049166Y022512D02*
X049286D01*
X049226Y022452D02*
Y022572D01*
X046416Y022462D02*
X046536D01*
X046476Y022402D02*
Y022522D01*
X044366Y023312D02*
X044486D01*
X044426Y023252D02*
Y023372D01*
X044051Y022812D02*
X044171D01*
X044111Y022752D02*
Y022872D01*
X043516Y023646D02*
X043636D01*
X043576Y023586D02*
Y023706D01*
X041766Y024762D02*
X041886D01*
X041826Y024702D02*
Y024822D01*
X039466Y027312D02*
X039586D01*
X039526Y027252D02*
Y027372D01*
X040516Y023262D02*
X040636D01*
X040576Y023202D02*
Y023322D01*
X0424Y022838D02*
X04252D01*
X04246Y022778D02*
Y022898D01*
X040785Y025556D02*
X040905D01*
X040845Y025496D02*
Y025615D01*
X040966Y026412D02*
X041086D01*
X041026Y026352D02*
Y026472D01*
X040966Y026662D02*
X041086D01*
X041026Y026602D02*
Y026722D01*
X041066Y027412D02*
X041186D01*
X041126Y027352D02*
Y027472D01*
X042232Y026212D02*
X042352D01*
X042292Y026152D02*
Y026272D01*
X040616Y023662D02*
X040736D01*
X040676Y023602D02*
Y023722D01*
X040966Y023662D02*
X041086D01*
X041026Y023602D02*
Y023722D01*
X040966Y023912D02*
X041086D01*
X041026Y023852D02*
Y023972D01*
X040616Y023912D02*
X040736D01*
X040676Y023852D02*
Y023972D01*
X040616Y026412D02*
X040736D01*
X040676Y026352D02*
Y026472D01*
X040616Y026662D02*
X040736D01*
X040676Y026602D02*
Y026722D01*
X040785Y024818D02*
X040905D01*
X040845Y024758D02*
Y024878D01*
X022893Y032268D02*
X023641D01*
X023267Y031894D02*
Y032642D01*
X022893Y030496D02*
X023641D01*
X023267Y030122D02*
Y03087D01*
X028149Y033776D02*
X028484D01*
X028317Y033609D02*
Y033943D01*
X028149Y032989D02*
X028484D01*
X028317Y032821D02*
Y033156D01*
X027362Y033776D02*
X027697D01*
X027529Y033609D02*
Y033943D01*
X027362Y032989D02*
X027697D01*
X027529Y032821D02*
Y033156D01*
X032195Y031458D02*
X032315D01*
X032255Y031398D02*
Y031518D01*
X035413Y034232D02*
X035533D01*
X035473Y034172D02*
Y034292D01*
X038113Y034232D02*
X038233D01*
X038173Y034172D02*
Y034292D01*
X037413Y034232D02*
X037533D01*
X037473Y034172D02*
Y034292D01*
X036763Y034232D02*
X036883D01*
X036823Y034172D02*
Y034292D01*
X036113Y034232D02*
X036233D01*
X036173Y034172D02*
Y034292D01*
X034013Y028932D02*
X034133D01*
X034073Y028872D02*
Y028992D01*
X027263Y031682D02*
X027383D01*
X027323Y031622D02*
Y031742D01*
X026713Y031232D02*
X026833D01*
X026773Y031172D02*
Y031292D01*
X038213Y030132D02*
X038333D01*
X038273Y030072D02*
Y030192D01*
X038513Y029532D02*
X038633D01*
X038573Y029472D02*
Y029592D01*
X037913Y030732D02*
X038033D01*
X037973Y030672D02*
Y030792D01*
X037613Y028932D02*
X037733D01*
X037673Y028872D02*
Y028992D01*
X037013Y030132D02*
X037133D01*
X037073Y030072D02*
Y030192D01*
X037313Y029532D02*
X037433D01*
X037373Y029472D02*
Y029592D01*
X036413Y033732D02*
X036533D01*
X036473Y033672D02*
Y033792D01*
X036713Y031932D02*
X036833D01*
X036773Y031872D02*
Y031992D01*
X036413Y031332D02*
X036533D01*
X036473Y031272D02*
Y031392D01*
X036713Y030732D02*
X036833D01*
X036773Y030672D02*
Y030792D01*
X036413Y028932D02*
X036533D01*
X036473Y028872D02*
Y028992D01*
X035813Y033732D02*
X035933D01*
X035873Y033672D02*
Y033792D01*
X036113Y033132D02*
X036233D01*
X036173Y033072D02*
Y033192D01*
X035813Y030132D02*
X035933D01*
X035873Y030072D02*
Y030192D01*
X036113Y029532D02*
X036233D01*
X036173Y029472D02*
Y029592D01*
X035513Y033132D02*
X035633D01*
X035573Y033072D02*
Y033192D01*
X035513Y031932D02*
X035633D01*
X035573Y031872D02*
Y031992D01*
X035513Y030732D02*
X035633D01*
X035573Y030672D02*
Y030792D01*
X035213Y028932D02*
X035333D01*
X035273Y028872D02*
Y028992D01*
X034613Y031332D02*
X034733D01*
X034673Y031272D02*
Y031392D01*
X034613Y030132D02*
X034733D01*
X034673Y030072D02*
Y030192D01*
X034913Y029532D02*
X035033D01*
X034973Y029472D02*
Y029592D01*
X034313Y030732D02*
X034433D01*
X034373Y030672D02*
Y030792D01*
X033713Y029532D02*
X033833D01*
X033773Y029472D02*
Y029592D01*
X032813Y028932D02*
X032933D01*
X032873Y028872D02*
Y028992D01*
X032213Y033732D02*
X032333D01*
X032273Y033672D02*
Y033792D01*
X031913Y030732D02*
X032033D01*
X031973Y030672D02*
Y030792D01*
X031313Y030732D02*
X031433D01*
X031373Y030672D02*
Y030792D01*
X029813Y032532D02*
X029933D01*
X029873Y032472D02*
Y032592D01*
X028913Y033132D02*
X029033D01*
X028973Y033072D02*
Y033192D01*
X027413Y031332D02*
X027533D01*
X027473Y031272D02*
Y031392D01*
X027713Y030732D02*
X027833D01*
X027773Y030672D02*
Y030792D01*
X026513Y030732D02*
X026633D01*
X026573Y030672D02*
Y030792D01*
X023813Y028932D02*
X023933D01*
X023873Y028872D02*
Y028992D01*
X023213Y033732D02*
X023333D01*
X023273Y033672D02*
Y033792D01*
X023513Y033132D02*
X023633D01*
X023573Y033072D02*
Y033192D01*
X023213Y031332D02*
X023333D01*
X023273Y031272D02*
Y031392D01*
X023213Y028932D02*
X023333D01*
X023273Y028872D02*
Y028992D01*
X022613Y028932D02*
X022733D01*
X022673Y028872D02*
Y028992D01*
X024563Y028632D02*
X024683D01*
X024623Y028572D02*
Y028692D01*
X026113Y031032D02*
X026233D01*
X026173Y030972D02*
Y031092D01*
X026563Y032082D02*
X026683D01*
X026623Y032022D02*
Y032142D01*
X026163Y031732D02*
X026283D01*
X026223Y031672D02*
Y031792D01*
X028313Y032432D02*
X028433D01*
X028373Y032372D02*
Y032492D01*
X028913Y031232D02*
X029033D01*
X028973Y031172D02*
Y031292D01*
X028613Y030682D02*
X028733D01*
X028673Y030622D02*
Y030742D01*
X024413Y030482D02*
X024533D01*
X024473Y030422D02*
Y030542D01*
X023563Y031182D02*
X023683D01*
X023623Y031122D02*
Y031242D01*
X023563Y031582D02*
X023683D01*
X023623Y031522D02*
Y031642D01*
X024413Y032282D02*
X024533D01*
X024473Y032222D02*
Y032342D01*
X024013Y032282D02*
X024133D01*
X024073Y032222D02*
Y032342D01*
X032713Y029832D02*
X032833D01*
X032773Y029772D02*
Y029892D01*
X031663Y032532D02*
X031783D01*
X031723Y032472D02*
Y032592D01*
X032013Y032532D02*
X032133D01*
X032073Y032472D02*
Y032592D01*
X035063Y033582D02*
X035183D01*
X035123Y033522D02*
Y033642D01*
X031913Y031682D02*
X032033D01*
X031973Y031622D02*
Y031742D01*
X03264Y033982D02*
X03276D01*
X0327Y033922D02*
Y034042D01*
X034463Y033959D02*
X034583D01*
X034523Y033899D02*
Y034019D01*
X031913Y034282D02*
X032033D01*
X031973Y034222D02*
Y034342D01*
X030813Y034032D02*
X030933D01*
X030873Y033972D02*
Y034092D01*
X031213Y033556D02*
X031333D01*
X031273Y033496D02*
Y033616D01*
X029063Y029882D02*
X029183D01*
X029123Y029822D02*
Y029942D01*
X029113Y030382D02*
X029233D01*
X029173Y030322D02*
Y030442D01*
X028263Y030632D02*
X028383D01*
X028323Y030572D02*
Y030692D01*
X028863Y030882D02*
X028983D01*
X028923Y030822D02*
Y030942D01*
X029954Y031721D02*
X030074D01*
X030014Y031661D02*
Y031781D01*
X030413Y031132D02*
X030533D01*
X030473Y031072D02*
Y031192D01*
X029813Y032132D02*
X029933D01*
X029873Y032072D02*
Y032192D01*
X030763Y033482D02*
X030883D01*
X030823Y033422D02*
Y033542D01*
X027563Y030382D02*
X027683D01*
X027623Y030322D02*
Y030442D01*
X029747Y033532D02*
X029867D01*
X029807Y033472D02*
Y033592D01*
X026963Y032432D02*
X027083D01*
X027023Y032372D02*
Y032492D01*
X029913Y029332D02*
X030033D01*
X029973Y029272D02*
Y029392D01*
X030863Y030282D02*
X030983D01*
X030923Y030222D02*
Y030342D01*
X030763Y030782D02*
X030883D01*
X030823Y030722D02*
Y030842D01*
X029913Y031182D02*
X030033D01*
X029973Y031122D02*
Y031242D01*
X029463Y029482D02*
X029583D01*
X029523Y029422D02*
Y029542D01*
X029513Y030782D02*
X029633D01*
X029573Y030722D02*
Y030842D01*
X030213Y029632D02*
X030333D01*
X030273Y029572D02*
Y029692D01*
X030563Y029982D02*
X030683D01*
X030623Y029922D02*
Y030042D01*
X032513Y028732D02*
X032633D01*
X032573Y028672D02*
Y028792D01*
X029763Y028682D02*
X029883D01*
X029823Y028622D02*
Y028742D01*
X027713Y029532D02*
X027833D01*
X027773Y029472D02*
Y029592D01*
X027397Y029032D02*
X027517D01*
X027457Y028972D02*
Y029092D01*
X026863Y029867D02*
X026983D01*
X026923Y029807D02*
Y029927D01*
X025113Y030982D02*
X025233D01*
X025173Y030922D02*
Y031042D01*
X022813Y033532D02*
X022933D01*
X022873Y033472D02*
Y033592D01*
X023863Y029482D02*
X023983D01*
X023923Y029422D02*
Y029542D01*
X025746Y029058D02*
X025866D01*
X025806Y028998D02*
Y029118D01*
X024132Y031776D02*
X024252D01*
X024192Y031716D02*
Y031836D01*
X024313Y032632D02*
X024433D01*
X024373Y032572D02*
Y032692D01*
X024313Y032882D02*
X024433D01*
X024373Y032822D02*
Y032942D01*
X024413Y033632D02*
X024533D01*
X024473Y033572D02*
Y033692D01*
X025579Y032432D02*
X025699D01*
X025639Y032372D02*
Y032492D01*
X023963Y029882D02*
X024083D01*
X024023Y029822D02*
Y029942D01*
X024313Y029882D02*
X024433D01*
X024373Y029822D02*
Y029942D01*
X024313Y030132D02*
X024433D01*
X024373Y030072D02*
Y030192D01*
X023963Y030132D02*
X024083D01*
X024023Y030072D02*
Y030192D01*
X023963Y032632D02*
X024083D01*
X024023Y032572D02*
Y032692D01*
X023963Y032882D02*
X024083D01*
X024023Y032822D02*
Y032942D01*
X024132Y031039D02*
X024252D01*
X024192Y030979D02*
Y031099D01*
X039546Y032268D02*
X040294D01*
X03992Y031894D02*
Y032642D01*
X039546Y030496D02*
X040294D01*
X03992Y030122D02*
Y03087D01*
X044803Y033776D02*
X045137D01*
X04497Y033609D02*
Y033943D01*
X044803Y032989D02*
X045137D01*
X04497Y032821D02*
Y033156D01*
X044015Y033776D02*
X04435D01*
X044183Y033609D02*
Y033943D01*
X044015Y032989D02*
X04435D01*
X044183Y032821D02*
Y033156D01*
X048849Y031458D02*
X048969D01*
X048909Y031398D02*
Y031518D01*
X052066Y034232D02*
X052186D01*
X052126Y034172D02*
Y034292D01*
X054766Y034232D02*
X054886D01*
X054826Y034172D02*
Y034292D01*
X054066Y034232D02*
X054186D01*
X054126Y034172D02*
Y034292D01*
X053416Y034232D02*
X053536D01*
X053476Y034172D02*
Y034292D01*
X052766Y034232D02*
X052886D01*
X052826Y034172D02*
Y034292D01*
X050666Y028932D02*
X050786D01*
X050726Y028872D02*
Y028992D01*
X043916Y031682D02*
X044036D01*
X043976Y031622D02*
Y031742D01*
X043366Y031232D02*
X043486D01*
X043426Y031172D02*
Y031292D01*
X054866Y030132D02*
X054986D01*
X054926Y030072D02*
Y030192D01*
X055166Y029532D02*
X055286D01*
X055226Y029472D02*
Y029592D01*
X054566Y030732D02*
X054686D01*
X054626Y030672D02*
Y030792D01*
X054266Y028932D02*
X054386D01*
X054326Y028872D02*
Y028992D01*
X053666Y030132D02*
X053786D01*
X053726Y030072D02*
Y030192D01*
X053966Y029532D02*
X054086D01*
X054026Y029472D02*
Y029592D01*
X053066Y033732D02*
X053186D01*
X053126Y033672D02*
Y033792D01*
X053366Y031932D02*
X053486D01*
X053426Y031872D02*
Y031992D01*
X053066Y031332D02*
X053186D01*
X053126Y031272D02*
Y031392D01*
X053366Y030732D02*
X053486D01*
X053426Y030672D02*
Y030792D01*
X053066Y028932D02*
X053186D01*
X053126Y028872D02*
Y028992D01*
X052466Y033732D02*
X052586D01*
X052526Y033672D02*
Y033792D01*
X052766Y033132D02*
X052886D01*
X052826Y033072D02*
Y033192D01*
X052466Y030132D02*
X052586D01*
X052526Y030072D02*
Y030192D01*
X052766Y029532D02*
X052886D01*
X052826Y029472D02*
Y029592D01*
X052166Y033132D02*
X052286D01*
X052226Y033072D02*
Y033192D01*
X052166Y031932D02*
X052286D01*
X052226Y031872D02*
Y031992D01*
X052166Y030732D02*
X052286D01*
X052226Y030672D02*
Y030792D01*
X051866Y028932D02*
X051986D01*
X051926Y028872D02*
Y028992D01*
X051266Y031332D02*
X051386D01*
X051326Y031272D02*
Y031392D01*
X051266Y030132D02*
X051386D01*
X051326Y030072D02*
Y030192D01*
X051566Y029532D02*
X051686D01*
X051626Y029472D02*
Y029592D01*
X050966Y030732D02*
X051086D01*
X051026Y030672D02*
Y030792D01*
X050366Y029532D02*
X050486D01*
X050426Y029472D02*
Y029592D01*
X049466Y028932D02*
X049586D01*
X049526Y028872D02*
Y028992D01*
X048866Y033732D02*
X048986D01*
X048926Y033672D02*
Y033792D01*
X048566Y030732D02*
X048686D01*
X048626Y030672D02*
Y030792D01*
X047966Y030732D02*
X048086D01*
X048026Y030672D02*
Y030792D01*
X046466Y032532D02*
X046586D01*
X046526Y032472D02*
Y032592D01*
X045566Y033132D02*
X045686D01*
X045626Y033072D02*
Y033192D01*
X044066Y031332D02*
X044186D01*
X044126Y031272D02*
Y031392D01*
X044366Y030732D02*
X044486D01*
X044426Y030672D02*
Y030792D01*
X043166Y030732D02*
X043286D01*
X043226Y030672D02*
Y030792D01*
X040466Y028932D02*
X040586D01*
X040526Y028872D02*
Y028992D01*
X039866Y033732D02*
X039986D01*
X039926Y033672D02*
Y033792D01*
X040166Y033132D02*
X040286D01*
X040226Y033072D02*
Y033192D01*
X039866Y031332D02*
X039986D01*
X039926Y031272D02*
Y031392D01*
X039866Y028932D02*
X039986D01*
X039926Y028872D02*
Y028992D01*
X039266Y028932D02*
X039386D01*
X039326Y028872D02*
Y028992D01*
X041216Y028632D02*
X041336D01*
X041276Y028572D02*
Y028692D01*
X042766Y031032D02*
X042886D01*
X042826Y030972D02*
Y031092D01*
X043216Y032082D02*
X043336D01*
X043276Y032022D02*
Y032142D01*
X042816Y031732D02*
X042936D01*
X042876Y031672D02*
Y031792D01*
X044966Y032432D02*
X045086D01*
X045026Y032372D02*
Y032492D01*
X045566Y031232D02*
X045686D01*
X045626Y031172D02*
Y031292D01*
X045266Y030682D02*
X045386D01*
X045326Y030622D02*
Y030742D01*
X041066Y030482D02*
X041186D01*
X041126Y030422D02*
Y030542D01*
X040216Y031182D02*
X040336D01*
X040276Y031122D02*
Y031242D01*
X040216Y031582D02*
X040336D01*
X040276Y031522D02*
Y031642D01*
X041066Y032282D02*
X041186D01*
X041126Y032222D02*
Y032342D01*
X040666Y032282D02*
X040786D01*
X040726Y032222D02*
Y032342D01*
X049366Y029832D02*
X049486D01*
X049426Y029772D02*
Y029892D01*
X048316Y032532D02*
X048436D01*
X048376Y032472D02*
Y032592D01*
X048666Y032532D02*
X048786D01*
X048726Y032472D02*
Y032592D01*
X051716Y033582D02*
X051836D01*
X051776Y033522D02*
Y033642D01*
X048566Y031682D02*
X048686D01*
X048626Y031622D02*
Y031742D01*
X049293Y033982D02*
X049413D01*
X049353Y033922D02*
Y034042D01*
X051116Y033959D02*
X051236D01*
X051176Y033899D02*
Y034019D01*
X048566Y034282D02*
X048686D01*
X048626Y034222D02*
Y034342D01*
X047466Y034032D02*
X047586D01*
X047526Y033972D02*
Y034092D01*
X047866Y033556D02*
X047986D01*
X047926Y033496D02*
Y033616D01*
X045716Y029882D02*
X045836D01*
X045776Y029822D02*
Y029942D01*
X045766Y030382D02*
X045886D01*
X045826Y030322D02*
Y030442D01*
X044916Y030632D02*
X045036D01*
X044976Y030572D02*
Y030692D01*
X045516Y030882D02*
X045636D01*
X045576Y030822D02*
Y030942D01*
X046608Y031721D02*
X046728D01*
X046668Y031661D02*
Y031781D01*
X047066Y031132D02*
X047186D01*
X047126Y031072D02*
Y031192D01*
X046466Y032132D02*
X046586D01*
X046526Y032072D02*
Y032192D01*
X047416Y033482D02*
X047536D01*
X047476Y033422D02*
Y033542D01*
X044216Y030382D02*
X044336D01*
X044276Y030322D02*
Y030442D01*
X046401Y033532D02*
X046521D01*
X046461Y033472D02*
Y033592D01*
X043616Y032432D02*
X043736D01*
X043676Y032372D02*
Y032492D01*
X046566Y029332D02*
X046686D01*
X046626Y029272D02*
Y029392D01*
X047516Y030282D02*
X047636D01*
X047576Y030222D02*
Y030342D01*
X047416Y030782D02*
X047536D01*
X047476Y030722D02*
Y030842D01*
X046566Y031182D02*
X046686D01*
X046626Y031122D02*
Y031242D01*
X046116Y029482D02*
X046236D01*
X046176Y029422D02*
Y029542D01*
X046166Y030782D02*
X046286D01*
X046226Y030722D02*
Y030842D01*
X046866Y029632D02*
X046986D01*
X046926Y029572D02*
Y029692D01*
X047216Y029982D02*
X047336D01*
X047276Y029922D02*
Y030042D01*
X049166Y028732D02*
X049286D01*
X049226Y028672D02*
Y028792D01*
X046416Y028682D02*
X046536D01*
X046476Y028622D02*
Y028742D01*
X044366Y029532D02*
X044486D01*
X044426Y029472D02*
Y029592D01*
X044051Y029032D02*
X044171D01*
X044111Y028972D02*
Y029092D01*
X043516Y029867D02*
X043636D01*
X043576Y029807D02*
Y029927D01*
X041766Y030982D02*
X041886D01*
X041826Y030922D02*
Y031042D01*
X039466Y033532D02*
X039586D01*
X039526Y033472D02*
Y033592D01*
X040516Y029482D02*
X040636D01*
X040576Y029422D02*
Y029542D01*
X0424Y029058D02*
X04252D01*
X04246Y028998D02*
Y029118D01*
X040785Y031776D02*
X040905D01*
X040845Y031716D02*
Y031836D01*
X040966Y032632D02*
X041086D01*
X041026Y032572D02*
Y032692D01*
X040966Y032882D02*
X041086D01*
X041026Y032822D02*
Y032942D01*
X041066Y033632D02*
X041186D01*
X041126Y033572D02*
Y033692D01*
X042232Y032432D02*
X042352D01*
X042292Y032372D02*
Y032492D01*
X040616Y029882D02*
X040736D01*
X040676Y029822D02*
Y029942D01*
X040966Y029882D02*
X041086D01*
X041026Y029822D02*
Y029942D01*
X040966Y030132D02*
X041086D01*
X041026Y030072D02*
Y030192D01*
X040616Y030132D02*
X040736D01*
X040676Y030072D02*
Y030192D01*
X040616Y032632D02*
X040736D01*
X040676Y032572D02*
Y032692D01*
X040616Y032882D02*
X040736D01*
X040676Y032822D02*
Y032942D01*
X040785Y031039D02*
X040905D01*
X040845Y030979D02*
Y031099D01*
X022893Y038489D02*
X023641D01*
X023267Y038115D02*
Y038863D01*
X022893Y036717D02*
X023641D01*
X023267Y036343D02*
Y037091D01*
X028149Y039996D02*
X028484D01*
X028317Y039829D02*
Y040164D01*
X028149Y039209D02*
X028484D01*
X028317Y039042D02*
Y039376D01*
X027362Y039996D02*
X027697D01*
X027529Y039829D02*
Y040164D01*
X027362Y039209D02*
X027697D01*
X027529Y039042D02*
Y039376D01*
X032195Y037679D02*
X032315D01*
X032255Y037619D02*
Y037739D01*
X035413Y040453D02*
X035533D01*
X035473Y040393D02*
Y040513D01*
X038113Y040453D02*
X038233D01*
X038173Y040393D02*
Y040513D01*
X037413Y040453D02*
X037533D01*
X037473Y040393D02*
Y040513D01*
X036763Y040453D02*
X036883D01*
X036823Y040393D02*
Y040513D01*
X036113Y040453D02*
X036233D01*
X036173Y040393D02*
Y040513D01*
X034013Y035153D02*
X034133D01*
X034073Y035093D02*
Y035213D01*
X027263Y037903D02*
X027383D01*
X027323Y037843D02*
Y037963D01*
X026713Y037453D02*
X026833D01*
X026773Y037393D02*
Y037513D01*
X038213Y036353D02*
X038333D01*
X038273Y036293D02*
Y036413D01*
X038513Y035753D02*
X038633D01*
X038573Y035693D02*
Y035813D01*
X037913Y036953D02*
X038033D01*
X037973Y036893D02*
Y037013D01*
X037613Y035153D02*
X037733D01*
X037673Y035093D02*
Y035213D01*
X037013Y036353D02*
X037133D01*
X037073Y036293D02*
Y036413D01*
X037313Y035753D02*
X037433D01*
X037373Y035693D02*
Y035813D01*
X036413Y039953D02*
X036533D01*
X036473Y039893D02*
Y040013D01*
X036713Y038153D02*
X036833D01*
X036773Y038093D02*
Y038213D01*
X036413Y037553D02*
X036533D01*
X036473Y037493D02*
Y037613D01*
X036713Y036953D02*
X036833D01*
X036773Y036893D02*
Y037013D01*
X036413Y035153D02*
X036533D01*
X036473Y035093D02*
Y035213D01*
X035813Y039953D02*
X035933D01*
X035873Y039893D02*
Y040013D01*
X036113Y039353D02*
X036233D01*
X036173Y039293D02*
Y039413D01*
X035813Y036353D02*
X035933D01*
X035873Y036293D02*
Y036413D01*
X036113Y035753D02*
X036233D01*
X036173Y035693D02*
Y035813D01*
X035513Y039353D02*
X035633D01*
X035573Y039293D02*
Y039413D01*
X035513Y038153D02*
X035633D01*
X035573Y038093D02*
Y038213D01*
X035513Y036953D02*
X035633D01*
X035573Y036893D02*
Y037013D01*
X035213Y035153D02*
X035333D01*
X035273Y035093D02*
Y035213D01*
X034613Y037553D02*
X034733D01*
X034673Y037493D02*
Y037613D01*
X034613Y036353D02*
X034733D01*
X034673Y036293D02*
Y036413D01*
X034913Y035753D02*
X035033D01*
X034973Y035693D02*
Y035813D01*
X034313Y036953D02*
X034433D01*
X034373Y036893D02*
Y037013D01*
X033713Y035753D02*
X033833D01*
X033773Y035693D02*
Y035813D01*
X032813Y035153D02*
X032933D01*
X032873Y035093D02*
Y035213D01*
X032213Y039953D02*
X032333D01*
X032273Y039893D02*
Y040013D01*
X031913Y036953D02*
X032033D01*
X031973Y036893D02*
Y037013D01*
X031313Y036953D02*
X031433D01*
X031373Y036893D02*
Y037013D01*
X029813Y038753D02*
X029933D01*
X029873Y038693D02*
Y038813D01*
X028913Y039353D02*
X029033D01*
X028973Y039293D02*
Y039413D01*
X027413Y037553D02*
X027533D01*
X027473Y037493D02*
Y037613D01*
X027713Y036953D02*
X027833D01*
X027773Y036893D02*
Y037013D01*
X026513Y036953D02*
X026633D01*
X026573Y036893D02*
Y037013D01*
X023813Y035153D02*
X023933D01*
X023873Y035093D02*
Y035213D01*
X023213Y039953D02*
X023333D01*
X023273Y039893D02*
Y040013D01*
X023513Y039353D02*
X023633D01*
X023573Y039293D02*
Y039413D01*
X023213Y037553D02*
X023333D01*
X023273Y037493D02*
Y037613D01*
X023213Y035153D02*
X023333D01*
X023273Y035093D02*
Y035213D01*
X022613Y035153D02*
X022733D01*
X022673Y035093D02*
Y035213D01*
X024563Y034853D02*
X024683D01*
X024623Y034793D02*
Y034913D01*
X026113Y037253D02*
X026233D01*
X026173Y037193D02*
Y037313D01*
X026563Y038303D02*
X026683D01*
X026623Y038243D02*
Y038363D01*
X026163Y037953D02*
X026283D01*
X026223Y037893D02*
Y038013D01*
X028313Y038653D02*
X028433D01*
X028373Y038593D02*
Y038713D01*
X028913Y037453D02*
X029033D01*
X028973Y037393D02*
Y037513D01*
X028613Y036903D02*
X028733D01*
X028673Y036843D02*
Y036963D01*
X024413Y036703D02*
X024533D01*
X024473Y036643D02*
Y036763D01*
X023563Y037403D02*
X023683D01*
X023623Y037343D02*
Y037463D01*
X023563Y037803D02*
X023683D01*
X023623Y037743D02*
Y037863D01*
X024413Y038503D02*
X024533D01*
X024473Y038443D02*
Y038563D01*
X024013Y038503D02*
X024133D01*
X024073Y038443D02*
Y038563D01*
X032713Y036053D02*
X032833D01*
X032773Y035993D02*
Y036113D01*
X031663Y038753D02*
X031783D01*
X031723Y038693D02*
Y038813D01*
X032013Y038753D02*
X032133D01*
X032073Y038693D02*
Y038813D01*
X035063Y039803D02*
X035183D01*
X035123Y039743D02*
Y039863D01*
X031913Y037903D02*
X032033D01*
X031973Y037843D02*
Y037963D01*
X03264Y040203D02*
X03276D01*
X0327Y040143D02*
Y040263D01*
X034463Y040179D02*
X034583D01*
X034523Y040119D02*
Y040239D01*
X031913Y040503D02*
X032033D01*
X031973Y040443D02*
Y040563D01*
X030813Y040253D02*
X030933D01*
X030873Y040193D02*
Y040313D01*
X031213Y039776D02*
X031333D01*
X031273Y039716D02*
Y039836D01*
X029063Y036103D02*
X029183D01*
X029123Y036043D02*
Y036163D01*
X029113Y036603D02*
X029233D01*
X029173Y036543D02*
Y036663D01*
X028263Y036853D02*
X028383D01*
X028323Y036793D02*
Y036913D01*
X028863Y037103D02*
X028983D01*
X028923Y037043D02*
Y037163D01*
X029954Y037941D02*
X030074D01*
X030014Y037881D02*
Y038001D01*
X030413Y037353D02*
X030533D01*
X030473Y037293D02*
Y037413D01*
X029813Y038353D02*
X029933D01*
X029873Y038293D02*
Y038413D01*
X030763Y039703D02*
X030883D01*
X030823Y039643D02*
Y039763D01*
X027563Y036603D02*
X027683D01*
X027623Y036543D02*
Y036663D01*
X029747Y039753D02*
X029867D01*
X029807Y039693D02*
Y039813D01*
X026963Y038653D02*
X027083D01*
X027023Y038593D02*
Y038713D01*
X029913Y035553D02*
X030033D01*
X029973Y035493D02*
Y035613D01*
X030863Y036503D02*
X030983D01*
X030923Y036443D02*
Y036563D01*
X030763Y037003D02*
X030883D01*
X030823Y036943D02*
Y037063D01*
X029913Y037403D02*
X030033D01*
X029973Y037343D02*
Y037463D01*
X029463Y035703D02*
X029583D01*
X029523Y035643D02*
Y035763D01*
X029513Y037003D02*
X029633D01*
X029573Y036943D02*
Y037063D01*
X030213Y035853D02*
X030333D01*
X030273Y035793D02*
Y035913D01*
X030563Y036203D02*
X030683D01*
X030623Y036143D02*
Y036263D01*
X032513Y034953D02*
X032633D01*
X032573Y034893D02*
Y035013D01*
X029763Y034903D02*
X029883D01*
X029823Y034843D02*
Y034963D01*
X027713Y035753D02*
X027833D01*
X027773Y035693D02*
Y035813D01*
X027397Y035253D02*
X027517D01*
X027457Y035193D02*
Y035313D01*
X026863Y036087D02*
X026983D01*
X026923Y036027D02*
Y036147D01*
X025113Y037203D02*
X025233D01*
X025173Y037143D02*
Y037263D01*
X022813Y039753D02*
X022933D01*
X022873Y039693D02*
Y039813D01*
X023863Y035703D02*
X023983D01*
X023923Y035643D02*
Y035763D01*
X025746Y035279D02*
X025866D01*
X025806Y035219D02*
Y035339D01*
X024132Y037996D02*
X024252D01*
X024192Y037936D02*
Y038056D01*
X024313Y038853D02*
X024433D01*
X024373Y038793D02*
Y038913D01*
X024313Y039103D02*
X024433D01*
X024373Y039043D02*
Y039163D01*
X024413Y039853D02*
X024533D01*
X024473Y039793D02*
Y039913D01*
X025579Y038653D02*
X025699D01*
X025639Y038593D02*
Y038713D01*
X023963Y036103D02*
X024083D01*
X024023Y036043D02*
Y036163D01*
X024313Y036103D02*
X024433D01*
X024373Y036043D02*
Y036163D01*
X024313Y036353D02*
X024433D01*
X024373Y036293D02*
Y036413D01*
X023963Y036353D02*
X024083D01*
X024023Y036293D02*
Y036413D01*
X023963Y038853D02*
X024083D01*
X024023Y038793D02*
Y038913D01*
X023963Y039103D02*
X024083D01*
X024023Y039043D02*
Y039163D01*
X024132Y037259D02*
X024252D01*
X024192Y037199D02*
Y037319D01*
X039546Y038489D02*
X040294D01*
X03992Y038115D02*
Y038863D01*
X039546Y036717D02*
X040294D01*
X03992Y036343D02*
Y037091D01*
X044803Y039996D02*
X045137D01*
X04497Y039829D02*
Y040164D01*
X044803Y039209D02*
X045137D01*
X04497Y039042D02*
Y039376D01*
X044015Y039996D02*
X04435D01*
X044183Y039829D02*
Y040164D01*
X044015Y039209D02*
X04435D01*
X044183Y039042D02*
Y039376D01*
X048849Y037679D02*
X048969D01*
X048909Y037619D02*
Y037739D01*
X052066Y040453D02*
X052186D01*
X052126Y040393D02*
Y040513D01*
X054766Y040453D02*
X054886D01*
X054826Y040393D02*
Y040513D01*
X054066Y040453D02*
X054186D01*
X054126Y040393D02*
Y040513D01*
X053416Y040453D02*
X053536D01*
X053476Y040393D02*
Y040513D01*
X052766Y040453D02*
X052886D01*
X052826Y040393D02*
Y040513D01*
X050666Y035153D02*
X050786D01*
X050726Y035093D02*
Y035213D01*
X043916Y037903D02*
X044036D01*
X043976Y037843D02*
Y037963D01*
X043366Y037453D02*
X043486D01*
X043426Y037393D02*
Y037513D01*
X054866Y036353D02*
X054986D01*
X054926Y036293D02*
Y036413D01*
X055166Y035753D02*
X055286D01*
X055226Y035693D02*
Y035813D01*
X054566Y036953D02*
X054686D01*
X054626Y036893D02*
Y037013D01*
X054266Y035153D02*
X054386D01*
X054326Y035093D02*
Y035213D01*
X053666Y036353D02*
X053786D01*
X053726Y036293D02*
Y036413D01*
X053966Y035753D02*
X054086D01*
X054026Y035693D02*
Y035813D01*
X053066Y039953D02*
X053186D01*
X053126Y039893D02*
Y040013D01*
X053366Y038153D02*
X053486D01*
X053426Y038093D02*
Y038213D01*
X053066Y037553D02*
X053186D01*
X053126Y037493D02*
Y037613D01*
X053366Y036953D02*
X053486D01*
X053426Y036893D02*
Y037013D01*
X053066Y035153D02*
X053186D01*
X053126Y035093D02*
Y035213D01*
X052466Y039953D02*
X052586D01*
X052526Y039893D02*
Y040013D01*
X052766Y039353D02*
X052886D01*
X052826Y039293D02*
Y039413D01*
X052466Y036353D02*
X052586D01*
X052526Y036293D02*
Y036413D01*
X052766Y035753D02*
X052886D01*
X052826Y035693D02*
Y035813D01*
X052166Y039353D02*
X052286D01*
X052226Y039293D02*
Y039413D01*
X052166Y038153D02*
X052286D01*
X052226Y038093D02*
Y038213D01*
X052166Y036953D02*
X052286D01*
X052226Y036893D02*
Y037013D01*
X051866Y035153D02*
X051986D01*
X051926Y035093D02*
Y035213D01*
X051266Y037553D02*
X051386D01*
X051326Y037493D02*
Y037613D01*
X051266Y036353D02*
X051386D01*
X051326Y036293D02*
Y036413D01*
X051566Y035753D02*
X051686D01*
X051626Y035693D02*
Y035813D01*
X050966Y036953D02*
X051086D01*
X051026Y036893D02*
Y037013D01*
X050366Y035753D02*
X050486D01*
X050426Y035693D02*
Y035813D01*
X049466Y035153D02*
X049586D01*
X049526Y035093D02*
Y035213D01*
X048866Y039953D02*
X048986D01*
X048926Y039893D02*
Y040013D01*
X048566Y036953D02*
X048686D01*
X048626Y036893D02*
Y037013D01*
X047966Y036953D02*
X048086D01*
X048026Y036893D02*
Y037013D01*
X046466Y038753D02*
X046586D01*
X046526Y038693D02*
Y038813D01*
X045566Y039353D02*
X045686D01*
X045626Y039293D02*
Y039413D01*
X044066Y037553D02*
X044186D01*
X044126Y037493D02*
Y037613D01*
X044366Y036953D02*
X044486D01*
X044426Y036893D02*
Y037013D01*
X043166Y036953D02*
X043286D01*
X043226Y036893D02*
Y037013D01*
X040466Y035153D02*
X040586D01*
X040526Y035093D02*
Y035213D01*
X039866Y039953D02*
X039986D01*
X039926Y039893D02*
Y040013D01*
X040166Y039353D02*
X040286D01*
X040226Y039293D02*
Y039413D01*
X039866Y037553D02*
X039986D01*
X039926Y037493D02*
Y037613D01*
X039866Y035153D02*
X039986D01*
X039926Y035093D02*
Y035213D01*
X039266Y035153D02*
X039386D01*
X039326Y035093D02*
Y035213D01*
X041216Y034853D02*
X041336D01*
X041276Y034793D02*
Y034913D01*
X042766Y037253D02*
X042886D01*
X042826Y037193D02*
Y037313D01*
X043216Y038303D02*
X043336D01*
X043276Y038243D02*
Y038363D01*
X042816Y037953D02*
X042936D01*
X042876Y037893D02*
Y038013D01*
X044966Y038653D02*
X045086D01*
X045026Y038593D02*
Y038713D01*
X045566Y037453D02*
X045686D01*
X045626Y037393D02*
Y037513D01*
X045266Y036903D02*
X045386D01*
X045326Y036843D02*
Y036963D01*
X041066Y036703D02*
X041186D01*
X041126Y036643D02*
Y036763D01*
X040216Y037403D02*
X040336D01*
X040276Y037343D02*
Y037463D01*
X040216Y037803D02*
X040336D01*
X040276Y037743D02*
Y037863D01*
X041066Y038503D02*
X041186D01*
X041126Y038443D02*
Y038563D01*
X040666Y038503D02*
X040786D01*
X040726Y038443D02*
Y038563D01*
X049366Y036053D02*
X049486D01*
X049426Y035993D02*
Y036113D01*
X048316Y038753D02*
X048436D01*
X048376Y038693D02*
Y038813D01*
X048666Y038753D02*
X048786D01*
X048726Y038693D02*
Y038813D01*
X051716Y039803D02*
X051836D01*
X051776Y039743D02*
Y039863D01*
X048566Y037903D02*
X048686D01*
X048626Y037843D02*
Y037963D01*
X049293Y040203D02*
X049413D01*
X049353Y040143D02*
Y040263D01*
X051116Y040179D02*
X051236D01*
X051176Y040119D02*
Y040239D01*
X048566Y040503D02*
X048686D01*
X048626Y040443D02*
Y040563D01*
X047466Y040253D02*
X047586D01*
X047526Y040193D02*
Y040313D01*
X047866Y039776D02*
X047986D01*
X047926Y039716D02*
Y039836D01*
X045716Y036103D02*
X045836D01*
X045776Y036043D02*
Y036163D01*
X045766Y036603D02*
X045886D01*
X045826Y036543D02*
Y036663D01*
X044916Y036853D02*
X045036D01*
X044976Y036793D02*
Y036913D01*
X045516Y037103D02*
X045636D01*
X045576Y037043D02*
Y037163D01*
X046608Y037941D02*
X046728D01*
X046668Y037881D02*
Y038001D01*
X047066Y037353D02*
X047186D01*
X047126Y037293D02*
Y037413D01*
X046466Y038353D02*
X046586D01*
X046526Y038293D02*
Y038413D01*
X047416Y039703D02*
X047536D01*
X047476Y039643D02*
Y039763D01*
X044216Y036603D02*
X044336D01*
X044276Y036543D02*
Y036663D01*
X046401Y039753D02*
X046521D01*
X046461Y039693D02*
Y039813D01*
X043616Y038653D02*
X043736D01*
X043676Y038593D02*
Y038713D01*
X046566Y035553D02*
X046686D01*
X046626Y035493D02*
Y035613D01*
X047516Y036503D02*
X047636D01*
X047576Y036443D02*
Y036563D01*
X047416Y037003D02*
X047536D01*
X047476Y036943D02*
Y037063D01*
X046566Y037403D02*
X046686D01*
X046626Y037343D02*
Y037463D01*
X046116Y035703D02*
X046236D01*
X046176Y035643D02*
Y035763D01*
X046166Y037003D02*
X046286D01*
X046226Y036943D02*
Y037063D01*
X046866Y035853D02*
X046986D01*
X046926Y035793D02*
Y035913D01*
X047216Y036203D02*
X047336D01*
X047276Y036143D02*
Y036263D01*
X049166Y034953D02*
X049286D01*
X049226Y034893D02*
Y035013D01*
X046416Y034903D02*
X046536D01*
X046476Y034843D02*
Y034963D01*
X044366Y035753D02*
X044486D01*
X044426Y035693D02*
Y035813D01*
X044051Y035253D02*
X044171D01*
X044111Y035193D02*
Y035313D01*
X043516Y036087D02*
X043636D01*
X043576Y036027D02*
Y036147D01*
X041766Y037203D02*
X041886D01*
X041826Y037143D02*
Y037263D01*
X039466Y039753D02*
X039586D01*
X039526Y039693D02*
Y039813D01*
X040516Y035703D02*
X040636D01*
X040576Y035643D02*
Y035763D01*
X0424Y035279D02*
X04252D01*
X04246Y035219D02*
Y035339D01*
X040785Y037996D02*
X040905D01*
X040845Y037936D02*
Y038056D01*
X040966Y038853D02*
X041086D01*
X041026Y038793D02*
Y038913D01*
X040966Y039103D02*
X041086D01*
X041026Y039043D02*
Y039163D01*
X041066Y039853D02*
X041186D01*
X041126Y039793D02*
Y039913D01*
X042232Y038653D02*
X042352D01*
X042292Y038593D02*
Y038713D01*
X040616Y036103D02*
X040736D01*
X040676Y036043D02*
Y036163D01*
X040966Y036103D02*
X041086D01*
X041026Y036043D02*
Y036163D01*
X040966Y036353D02*
X041086D01*
X041026Y036293D02*
Y036413D01*
X040616Y036353D02*
X040736D01*
X040676Y036293D02*
Y036413D01*
X040616Y038853D02*
X040736D01*
X040676Y038793D02*
Y038913D01*
X040616Y039103D02*
X040736D01*
X040676Y039043D02*
Y039163D01*
X040785Y037259D02*
X040905D01*
X040845Y037199D02*
Y037319D01*
X022893Y044709D02*
X023641D01*
X023267Y044335D02*
Y045083D01*
X022893Y042937D02*
X023641D01*
X023267Y042563D02*
Y043311D01*
X028149Y046217D02*
X028484D01*
X028317Y04605D02*
Y046384D01*
X028149Y04543D02*
X028484D01*
X028317Y045262D02*
Y045597D01*
X027362Y046217D02*
X027697D01*
X027529Y04605D02*
Y046384D01*
X027362Y04543D02*
X027697D01*
X027529Y045262D02*
Y045597D01*
X032195Y043899D02*
X032315D01*
X032255Y043839D02*
Y043959D01*
X035413Y046673D02*
X035533D01*
X035473Y046613D02*
Y046733D01*
X038113Y046673D02*
X038233D01*
X038173Y046613D02*
Y046733D01*
X037413Y046673D02*
X037533D01*
X037473Y046613D02*
Y046733D01*
X036763Y046673D02*
X036883D01*
X036823Y046613D02*
Y046733D01*
X036113Y046673D02*
X036233D01*
X036173Y046613D02*
Y046733D01*
X034013Y041373D02*
X034133D01*
X034073Y041313D02*
Y041433D01*
X027263Y044123D02*
X027383D01*
X027323Y044063D02*
Y044183D01*
X026713Y043673D02*
X026833D01*
X026773Y043613D02*
Y043733D01*
X038213Y042573D02*
X038333D01*
X038273Y042513D02*
Y042633D01*
X038513Y041973D02*
X038633D01*
X038573Y041913D02*
Y042033D01*
X037913Y043173D02*
X038033D01*
X037973Y043113D02*
Y043233D01*
X037613Y041373D02*
X037733D01*
X037673Y041313D02*
Y041433D01*
X037013Y042573D02*
X037133D01*
X037073Y042513D02*
Y042633D01*
X037313Y041973D02*
X037433D01*
X037373Y041913D02*
Y042033D01*
X036413Y046173D02*
X036533D01*
X036473Y046113D02*
Y046233D01*
X036713Y044373D02*
X036833D01*
X036773Y044313D02*
Y044433D01*
X036413Y043773D02*
X036533D01*
X036473Y043713D02*
Y043833D01*
X036713Y043173D02*
X036833D01*
X036773Y043113D02*
Y043233D01*
X036413Y041373D02*
X036533D01*
X036473Y041313D02*
Y041433D01*
X035813Y046173D02*
X035933D01*
X035873Y046113D02*
Y046233D01*
X036113Y045573D02*
X036233D01*
X036173Y045513D02*
Y045633D01*
X035813Y042573D02*
X035933D01*
X035873Y042513D02*
Y042633D01*
X036113Y041973D02*
X036233D01*
X036173Y041913D02*
Y042033D01*
X035513Y045573D02*
X035633D01*
X035573Y045513D02*
Y045633D01*
X035513Y044373D02*
X035633D01*
X035573Y044313D02*
Y044433D01*
X035513Y043173D02*
X035633D01*
X035573Y043113D02*
Y043233D01*
X035213Y041373D02*
X035333D01*
X035273Y041313D02*
Y041433D01*
X034613Y043773D02*
X034733D01*
X034673Y043713D02*
Y043833D01*
X034613Y042573D02*
X034733D01*
X034673Y042513D02*
Y042633D01*
X034913Y041973D02*
X035033D01*
X034973Y041913D02*
Y042033D01*
X034313Y043173D02*
X034433D01*
X034373Y043113D02*
Y043233D01*
X033713Y041973D02*
X033833D01*
X033773Y041913D02*
Y042033D01*
X032813Y041373D02*
X032933D01*
X032873Y041313D02*
Y041433D01*
X032213Y046173D02*
X032333D01*
X032273Y046113D02*
Y046233D01*
X031913Y043173D02*
X032033D01*
X031973Y043113D02*
Y043233D01*
X031313Y043173D02*
X031433D01*
X031373Y043113D02*
Y043233D01*
X029813Y044973D02*
X029933D01*
X029873Y044913D02*
Y045033D01*
X028913Y045573D02*
X029033D01*
X028973Y045513D02*
Y045633D01*
X027413Y043773D02*
X027533D01*
X027473Y043713D02*
Y043833D01*
X027713Y043173D02*
X027833D01*
X027773Y043113D02*
Y043233D01*
X026513Y043173D02*
X026633D01*
X026573Y043113D02*
Y043233D01*
X023813Y041373D02*
X023933D01*
X023873Y041313D02*
Y041433D01*
X023213Y046173D02*
X023333D01*
X023273Y046113D02*
Y046233D01*
X023513Y045573D02*
X023633D01*
X023573Y045513D02*
Y045633D01*
X023213Y043773D02*
X023333D01*
X023273Y043713D02*
Y043833D01*
X023213Y041373D02*
X023333D01*
X023273Y041313D02*
Y041433D01*
X022613Y041373D02*
X022733D01*
X022673Y041313D02*
Y041433D01*
X024563Y041073D02*
X024683D01*
X024623Y041013D02*
Y041133D01*
X026113Y043473D02*
X026233D01*
X026173Y043413D02*
Y043533D01*
X026563Y044523D02*
X026683D01*
X026623Y044463D02*
Y044583D01*
X026163Y044173D02*
X026283D01*
X026223Y044113D02*
Y044233D01*
X028313Y044873D02*
X028433D01*
X028373Y044813D02*
Y044933D01*
X028913Y043673D02*
X029033D01*
X028973Y043613D02*
Y043733D01*
X028613Y043123D02*
X028733D01*
X028673Y043063D02*
Y043183D01*
X024413Y042923D02*
X024533D01*
X024473Y042863D02*
Y042983D01*
X023563Y043623D02*
X023683D01*
X023623Y043563D02*
Y043683D01*
X023563Y044023D02*
X023683D01*
X023623Y043963D02*
Y044083D01*
X024413Y044723D02*
X024533D01*
X024473Y044663D02*
Y044783D01*
X024013Y044723D02*
X024133D01*
X024073Y044663D02*
Y044783D01*
X032713Y042273D02*
X032833D01*
X032773Y042213D02*
Y042333D01*
X031663Y044973D02*
X031783D01*
X031723Y044913D02*
Y045033D01*
X032013Y044973D02*
X032133D01*
X032073Y044913D02*
Y045033D01*
X035063Y046023D02*
X035183D01*
X035123Y045963D02*
Y046083D01*
X031913Y044123D02*
X032033D01*
X031973Y044063D02*
Y044183D01*
X03264Y046423D02*
X03276D01*
X0327Y046363D02*
Y046483D01*
X034463Y0464D02*
X034583D01*
X034523Y04634D02*
Y04646D01*
X031913Y046723D02*
X032033D01*
X031973Y046663D02*
Y046783D01*
X030813Y046473D02*
X030933D01*
X030873Y046413D02*
Y046533D01*
X031213Y045997D02*
X031333D01*
X031273Y045937D02*
Y046057D01*
X029063Y042323D02*
X029183D01*
X029123Y042263D02*
Y042383D01*
X029113Y042823D02*
X029233D01*
X029173Y042763D02*
Y042883D01*
X028263Y043073D02*
X028383D01*
X028323Y043013D02*
Y043133D01*
X028863Y043323D02*
X028983D01*
X028923Y043263D02*
Y043383D01*
X029954Y044162D02*
X030074D01*
X030014Y044102D02*
Y044222D01*
X030413Y043573D02*
X030533D01*
X030473Y043513D02*
Y043633D01*
X029813Y044573D02*
X029933D01*
X029873Y044513D02*
Y044633D01*
X030763Y045923D02*
X030883D01*
X030823Y045863D02*
Y045983D01*
X027563Y042823D02*
X027683D01*
X027623Y042763D02*
Y042883D01*
X029747Y045973D02*
X029867D01*
X029807Y045913D02*
Y046033D01*
X026963Y044873D02*
X027083D01*
X027023Y044813D02*
Y044933D01*
X029913Y041773D02*
X030033D01*
X029973Y041713D02*
Y041833D01*
X030863Y042723D02*
X030983D01*
X030923Y042663D02*
Y042783D01*
X030763Y043223D02*
X030883D01*
X030823Y043163D02*
Y043283D01*
X029913Y043623D02*
X030033D01*
X029973Y043563D02*
Y043683D01*
X029463Y041923D02*
X029583D01*
X029523Y041863D02*
Y041983D01*
X029513Y043223D02*
X029633D01*
X029573Y043163D02*
Y043283D01*
X030213Y042073D02*
X030333D01*
X030273Y042013D02*
Y042133D01*
X030563Y042423D02*
X030683D01*
X030623Y042363D02*
Y042483D01*
X032513Y041173D02*
X032633D01*
X032573Y041113D02*
Y041233D01*
X029763Y041123D02*
X029883D01*
X029823Y041063D02*
Y041183D01*
X027713Y041973D02*
X027833D01*
X027773Y041913D02*
Y042033D01*
X027397Y041473D02*
X027517D01*
X027457Y041413D02*
Y041533D01*
X026863Y042307D02*
X026983D01*
X026923Y042247D02*
Y042367D01*
X025113Y043423D02*
X025233D01*
X025173Y043363D02*
Y043483D01*
X022813Y045973D02*
X022933D01*
X022873Y045913D02*
Y046033D01*
X023863Y041923D02*
X023983D01*
X023923Y041863D02*
Y041983D01*
X025746Y041499D02*
X025866D01*
X025806Y041439D02*
Y041559D01*
X024132Y044217D02*
X024252D01*
X024192Y044157D02*
Y044277D01*
X024313Y045073D02*
X024433D01*
X024373Y045013D02*
Y045133D01*
X024313Y045323D02*
X024433D01*
X024373Y045263D02*
Y045383D01*
X024413Y046073D02*
X024533D01*
X024473Y046013D02*
Y046133D01*
X025579Y044873D02*
X025699D01*
X025639Y044813D02*
Y044933D01*
X023963Y042323D02*
X024083D01*
X024023Y042263D02*
Y042383D01*
X024313Y042323D02*
X024433D01*
X024373Y042263D02*
Y042383D01*
X024313Y042573D02*
X024433D01*
X024373Y042513D02*
Y042633D01*
X023963Y042573D02*
X024083D01*
X024023Y042513D02*
Y042633D01*
X023963Y045073D02*
X024083D01*
X024023Y045013D02*
Y045133D01*
X023963Y045323D02*
X024083D01*
X024023Y045263D02*
Y045383D01*
X024132Y04348D02*
X024252D01*
X024192Y04342D02*
Y04354D01*
X039546Y044709D02*
X040294D01*
X03992Y044335D02*
Y045083D01*
X039546Y042937D02*
X040294D01*
X03992Y042563D02*
Y043311D01*
X044803Y046217D02*
X045137D01*
X04497Y04605D02*
Y046384D01*
X044803Y04543D02*
X045137D01*
X04497Y045262D02*
Y045597D01*
X044015Y046217D02*
X04435D01*
X044183Y04605D02*
Y046384D01*
X044015Y04543D02*
X04435D01*
X044183Y045262D02*
Y045597D01*
X048849Y043899D02*
X048969D01*
X048909Y043839D02*
Y043959D01*
X052066Y046673D02*
X052186D01*
X052126Y046613D02*
Y046733D01*
X054766Y046673D02*
X054886D01*
X054826Y046613D02*
Y046733D01*
X054066Y046673D02*
X054186D01*
X054126Y046613D02*
Y046733D01*
X053416Y046673D02*
X053536D01*
X053476Y046613D02*
Y046733D01*
X052766Y046673D02*
X052886D01*
X052826Y046613D02*
Y046733D01*
X050666Y041373D02*
X050786D01*
X050726Y041313D02*
Y041433D01*
X043916Y044123D02*
X044036D01*
X043976Y044063D02*
Y044183D01*
X043366Y043673D02*
X043486D01*
X043426Y043613D02*
Y043733D01*
X054866Y042573D02*
X054986D01*
X054926Y042513D02*
Y042633D01*
X055166Y041973D02*
X055286D01*
X055226Y041913D02*
Y042033D01*
X054566Y043173D02*
X054686D01*
X054626Y043113D02*
Y043233D01*
X054266Y041373D02*
X054386D01*
X054326Y041313D02*
Y041433D01*
X053666Y042573D02*
X053786D01*
X053726Y042513D02*
Y042633D01*
X053966Y041973D02*
X054086D01*
X054026Y041913D02*
Y042033D01*
X053066Y046173D02*
X053186D01*
X053126Y046113D02*
Y046233D01*
X053366Y044373D02*
X053486D01*
X053426Y044313D02*
Y044433D01*
X053066Y043773D02*
X053186D01*
X053126Y043713D02*
Y043833D01*
X053366Y043173D02*
X053486D01*
X053426Y043113D02*
Y043233D01*
X053066Y041373D02*
X053186D01*
X053126Y041313D02*
Y041433D01*
X052466Y046173D02*
X052586D01*
X052526Y046113D02*
Y046233D01*
X052766Y045573D02*
X052886D01*
X052826Y045513D02*
Y045633D01*
X052466Y042573D02*
X052586D01*
X052526Y042513D02*
Y042633D01*
X052766Y041973D02*
X052886D01*
X052826Y041913D02*
Y042033D01*
X052166Y045573D02*
X052286D01*
X052226Y045513D02*
Y045633D01*
X052166Y044373D02*
X052286D01*
X052226Y044313D02*
Y044433D01*
X052166Y043173D02*
X052286D01*
X052226Y043113D02*
Y043233D01*
X051866Y041373D02*
X051986D01*
X051926Y041313D02*
Y041433D01*
X051266Y043773D02*
X051386D01*
X051326Y043713D02*
Y043833D01*
X051266Y042573D02*
X051386D01*
X051326Y042513D02*
Y042633D01*
X051566Y041973D02*
X051686D01*
X051626Y041913D02*
Y042033D01*
X050966Y043173D02*
X051086D01*
X051026Y043113D02*
Y043233D01*
X050366Y041973D02*
X050486D01*
X050426Y041913D02*
Y042033D01*
X049466Y041373D02*
X049586D01*
X049526Y041313D02*
Y041433D01*
X048866Y046173D02*
X048986D01*
X048926Y046113D02*
Y046233D01*
X048566Y043173D02*
X048686D01*
X048626Y043113D02*
Y043233D01*
X047966Y043173D02*
X048086D01*
X048026Y043113D02*
Y043233D01*
X046466Y044973D02*
X046586D01*
X046526Y044913D02*
Y045033D01*
X045566Y045573D02*
X045686D01*
X045626Y045513D02*
Y045633D01*
X044066Y043773D02*
X044186D01*
X044126Y043713D02*
Y043833D01*
X044366Y043173D02*
X044486D01*
X044426Y043113D02*
Y043233D01*
X043166Y043173D02*
X043286D01*
X043226Y043113D02*
Y043233D01*
X040466Y041373D02*
X040586D01*
X040526Y041313D02*
Y041433D01*
X039866Y046173D02*
X039986D01*
X039926Y046113D02*
Y046233D01*
X040166Y045573D02*
X040286D01*
X040226Y045513D02*
Y045633D01*
X039866Y043773D02*
X039986D01*
X039926Y043713D02*
Y043833D01*
X039866Y041373D02*
X039986D01*
X039926Y041313D02*
Y041433D01*
X039266Y041373D02*
X039386D01*
X039326Y041313D02*
Y041433D01*
X041216Y041073D02*
X041336D01*
X041276Y041013D02*
Y041133D01*
X042766Y043473D02*
X042886D01*
X042826Y043413D02*
Y043533D01*
X043216Y044523D02*
X043336D01*
X043276Y044463D02*
Y044583D01*
X042816Y044173D02*
X042936D01*
X042876Y044113D02*
Y044233D01*
X044966Y044873D02*
X045086D01*
X045026Y044813D02*
Y044933D01*
X045566Y043673D02*
X045686D01*
X045626Y043613D02*
Y043733D01*
X045266Y043123D02*
X045386D01*
X045326Y043063D02*
Y043183D01*
X041066Y042923D02*
X041186D01*
X041126Y042863D02*
Y042983D01*
X040216Y043623D02*
X040336D01*
X040276Y043563D02*
Y043683D01*
X040216Y044023D02*
X040336D01*
X040276Y043963D02*
Y044083D01*
X041066Y044723D02*
X041186D01*
X041126Y044663D02*
Y044783D01*
X040666Y044723D02*
X040786D01*
X040726Y044663D02*
Y044783D01*
X049366Y042273D02*
X049486D01*
X049426Y042213D02*
Y042333D01*
X048316Y044973D02*
X048436D01*
X048376Y044913D02*
Y045033D01*
X048666Y044973D02*
X048786D01*
X048726Y044913D02*
Y045033D01*
X051716Y046023D02*
X051836D01*
X051776Y045963D02*
Y046083D01*
X048566Y044123D02*
X048686D01*
X048626Y044063D02*
Y044183D01*
X049293Y046423D02*
X049413D01*
X049353Y046363D02*
Y046483D01*
X051116Y0464D02*
X051236D01*
X051176Y04634D02*
Y04646D01*
X048566Y046723D02*
X048686D01*
X048626Y046663D02*
Y046783D01*
X047466Y046473D02*
X047586D01*
X047526Y046413D02*
Y046533D01*
X047866Y045997D02*
X047986D01*
X047926Y045937D02*
Y046057D01*
X045716Y042323D02*
X045836D01*
X045776Y042263D02*
Y042383D01*
X045766Y042823D02*
X045886D01*
X045826Y042763D02*
Y042883D01*
X044916Y043073D02*
X045036D01*
X044976Y043013D02*
Y043133D01*
X045516Y043323D02*
X045636D01*
X045576Y043263D02*
Y043383D01*
X046608Y044162D02*
X046728D01*
X046668Y044102D02*
Y044222D01*
X047066Y043573D02*
X047186D01*
X047126Y043513D02*
Y043633D01*
X046466Y044573D02*
X046586D01*
X046526Y044513D02*
Y044633D01*
X047416Y045923D02*
X047536D01*
X047476Y045863D02*
Y045983D01*
X044216Y042823D02*
X044336D01*
X044276Y042763D02*
Y042883D01*
X046401Y045973D02*
X046521D01*
X046461Y045913D02*
Y046033D01*
X043616Y044873D02*
X043736D01*
X043676Y044813D02*
Y044933D01*
X046566Y041773D02*
X046686D01*
X046626Y041713D02*
Y041833D01*
X047516Y042723D02*
X047636D01*
X047576Y042663D02*
Y042783D01*
X047416Y043223D02*
X047536D01*
X047476Y043163D02*
Y043283D01*
X046566Y043623D02*
X046686D01*
X046626Y043563D02*
Y043683D01*
X046116Y041923D02*
X046236D01*
X046176Y041863D02*
Y041983D01*
X046166Y043223D02*
X046286D01*
X046226Y043163D02*
Y043283D01*
X046866Y042073D02*
X046986D01*
X046926Y042013D02*
Y042133D01*
X047216Y042423D02*
X047336D01*
X047276Y042363D02*
Y042483D01*
X049166Y041173D02*
X049286D01*
X049226Y041113D02*
Y041233D01*
X046416Y041123D02*
X046536D01*
X046476Y041063D02*
Y041183D01*
X044366Y041973D02*
X044486D01*
X044426Y041913D02*
Y042033D01*
X044051Y041473D02*
X044171D01*
X044111Y041413D02*
Y041533D01*
X043516Y042307D02*
X043636D01*
X043576Y042247D02*
Y042367D01*
X041766Y043423D02*
X041886D01*
X041826Y043363D02*
Y043483D01*
X039466Y045973D02*
X039586D01*
X039526Y045913D02*
Y046033D01*
X040516Y041923D02*
X040636D01*
X040576Y041863D02*
Y041983D01*
X0424Y041499D02*
X04252D01*
X04246Y041439D02*
Y041559D01*
X040785Y044217D02*
X040905D01*
X040845Y044157D02*
Y044277D01*
X040966Y045073D02*
X041086D01*
X041026Y045013D02*
Y045133D01*
X040966Y045323D02*
X041086D01*
X041026Y045263D02*
Y045383D01*
X041066Y046073D02*
X041186D01*
X041126Y046013D02*
Y046133D01*
X042232Y044873D02*
X042352D01*
X042292Y044813D02*
Y044933D01*
X040616Y042323D02*
X040736D01*
X040676Y042263D02*
Y042383D01*
X040966Y042323D02*
X041086D01*
X041026Y042263D02*
Y042383D01*
X040966Y042573D02*
X041086D01*
X041026Y042513D02*
Y042633D01*
X040616Y042573D02*
X040736D01*
X040676Y042513D02*
Y042633D01*
X040616Y045073D02*
X040736D01*
X040676Y045013D02*
Y045133D01*
X040616Y045323D02*
X040736D01*
X040676Y045263D02*
Y045383D01*
X040785Y04348D02*
X040905D01*
X040845Y04342D02*
Y04354D01*
M02*
