G04*
G04 #@! TF.GenerationSoftware,Altium Limited,Altium Designer,22.10.1 (41)*
G04*
G04 Layer_Color=9720587*
%FSTAX24Y24*%
%MOIN*%
G70*
G04*
G04 #@! TF.SameCoordinates,821BB7C7-380A-43D0-A621-5EA73BA4A5B0*
G04*
G04*
G04 #@! TF.FilePolarity,Negative*
G04*
G01*
G75*
%ADD10R,0.0252X0.0236*%
%ADD11R,0.0236X0.0252*%
%ADD12R,0.0197X0.0236*%
%ADD13R,0.0236X0.0197*%
%ADD14R,0.0236X0.0295*%
%ADD15R,0.0354X0.0394*%
%ADD16R,0.1024X0.1024*%
G04:AMPARAMS|DCode=17|XSize=31.9mil|YSize=10.2mil|CornerRadius=1.3mil|HoleSize=0mil|Usage=FLASHONLY|Rotation=0.000|XOffset=0mil|YOffset=0mil|HoleType=Round|Shape=RoundedRectangle|*
%AMROUNDEDRECTD17*
21,1,0.0319,0.0077,0,0,0.0*
21,1,0.0293,0.0102,0,0,0.0*
1,1,0.0026,0.0147,-0.0038*
1,1,0.0026,-0.0147,-0.0038*
1,1,0.0026,-0.0147,0.0038*
1,1,0.0026,0.0147,0.0038*
%
%ADD17ROUNDEDRECTD17*%
G04:AMPARAMS|DCode=18|XSize=31.9mil|YSize=10.2mil|CornerRadius=1.3mil|HoleSize=0mil|Usage=FLASHONLY|Rotation=90.000|XOffset=0mil|YOffset=0mil|HoleType=Round|Shape=RoundedRectangle|*
%AMROUNDEDRECTD18*
21,1,0.0319,0.0077,0,0,90.0*
21,1,0.0293,0.0102,0,0,90.0*
1,1,0.0026,0.0038,0.0147*
1,1,0.0026,0.0038,-0.0147*
1,1,0.0026,-0.0038,-0.0147*
1,1,0.0026,-0.0038,0.0147*
%
%ADD18ROUNDEDRECTD18*%
G04:AMPARAMS|DCode=19|XSize=11.8mil|YSize=47.2mil|CornerRadius=0mil|HoleSize=0mil|Usage=FLASHONLY|Rotation=225.000|XOffset=0mil|YOffset=0mil|HoleType=Round|Shape=Round|*
%AMOVALD19*
21,1,0.0354,0.0118,0.0000,0.0000,315.0*
1,1,0.0118,-0.0125,0.0125*
1,1,0.0118,0.0125,-0.0125*
%
%ADD19OVALD19*%

G04:AMPARAMS|DCode=20|XSize=11.8mil|YSize=47.2mil|CornerRadius=0mil|HoleSize=0mil|Usage=FLASHONLY|Rotation=135.000|XOffset=0mil|YOffset=0mil|HoleType=Round|Shape=Round|*
%AMOVALD20*
21,1,0.0354,0.0118,0.0000,0.0000,225.0*
1,1,0.0118,0.0125,0.0125*
1,1,0.0118,-0.0125,-0.0125*
%
%ADD20OVALD20*%

%ADD21R,0.0394X0.0354*%
%ADD22R,0.0236X0.0748*%
%ADD23R,0.0157X0.0748*%
%ADD24R,0.1378X0.0591*%
%ADD25R,0.0335X0.0374*%
%ADD26R,0.0551X0.0394*%
G04:AMPARAMS|DCode=27|XSize=47.6mil|YSize=23.2mil|CornerRadius=2.9mil|HoleSize=0mil|Usage=FLASHONLY|Rotation=0.000|XOffset=0mil|YOffset=0mil|HoleType=Round|Shape=RoundedRectangle|*
%AMROUNDEDRECTD27*
21,1,0.0476,0.0174,0,0,0.0*
21,1,0.0418,0.0232,0,0,0.0*
1,1,0.0058,0.0209,-0.0087*
1,1,0.0058,-0.0209,-0.0087*
1,1,0.0058,-0.0209,0.0087*
1,1,0.0058,0.0209,0.0087*
%
%ADD27ROUNDEDRECTD27*%
%ADD42C,0.1102*%
%ADD43R,0.0535X0.0535*%
%ADD44C,0.0535*%
D10*
X036723Y020018D02*
D03*
Y020365D02*
D03*
X032573Y018168D02*
D03*
Y018515D02*
D03*
X053376Y020018D02*
D03*
Y020365D02*
D03*
X049226Y018168D02*
D03*
Y018515D02*
D03*
X036723Y026239D02*
D03*
Y026585D02*
D03*
X032573Y024389D02*
D03*
Y024735D02*
D03*
X053376Y026239D02*
D03*
Y026585D02*
D03*
X049226Y024389D02*
D03*
Y024735D02*
D03*
X036723Y032459D02*
D03*
Y032805D02*
D03*
X032573Y030609D02*
D03*
Y030955D02*
D03*
X053376Y032459D02*
D03*
Y032805D02*
D03*
X049226Y030609D02*
D03*
Y030955D02*
D03*
X036723Y03868D02*
D03*
Y039026D02*
D03*
X032573Y03683D02*
D03*
Y037176D02*
D03*
X053376Y03868D02*
D03*
Y039026D02*
D03*
X049226Y03683D02*
D03*
Y037176D02*
D03*
X036723Y0449D02*
D03*
Y045246D02*
D03*
X032573Y04305D02*
D03*
Y043396D02*
D03*
X053376Y0449D02*
D03*
Y045246D02*
D03*
X049226Y04305D02*
D03*
Y043396D02*
D03*
D11*
X036246Y019991D02*
D03*
X0359D02*
D03*
X035996Y019191D02*
D03*
X03565D02*
D03*
X035996Y018691D02*
D03*
X03565D02*
D03*
X033896Y021541D02*
D03*
X03355D02*
D03*
X0327D02*
D03*
X033046D02*
D03*
X0529Y019991D02*
D03*
X052553D02*
D03*
X05265Y019191D02*
D03*
X052303D02*
D03*
X05265Y018691D02*
D03*
X052303D02*
D03*
X05055Y021541D02*
D03*
X050203D02*
D03*
X049353D02*
D03*
X0497D02*
D03*
X036246Y026212D02*
D03*
X0359D02*
D03*
X035996Y025412D02*
D03*
X03565D02*
D03*
X035996Y024912D02*
D03*
X03565D02*
D03*
X033896Y027762D02*
D03*
X03355D02*
D03*
X0327D02*
D03*
X033046D02*
D03*
X0529Y026212D02*
D03*
X052553D02*
D03*
X05265Y025412D02*
D03*
X052303D02*
D03*
X05265Y024912D02*
D03*
X052303D02*
D03*
X05055Y027762D02*
D03*
X050203D02*
D03*
X049353D02*
D03*
X0497D02*
D03*
X036246Y032432D02*
D03*
X0359D02*
D03*
X035996Y031632D02*
D03*
X03565D02*
D03*
X035996Y031132D02*
D03*
X03565D02*
D03*
X033896Y033982D02*
D03*
X03355D02*
D03*
X0327D02*
D03*
X033046D02*
D03*
X0529Y032432D02*
D03*
X052553D02*
D03*
X05265Y031632D02*
D03*
X052303D02*
D03*
X05265Y031132D02*
D03*
X052303D02*
D03*
X05055Y033982D02*
D03*
X050203D02*
D03*
X049353D02*
D03*
X0497D02*
D03*
X036246Y038653D02*
D03*
X0359D02*
D03*
X035996Y037853D02*
D03*
X03565D02*
D03*
X035996Y037353D02*
D03*
X03565D02*
D03*
X033896Y040203D02*
D03*
X03355D02*
D03*
X0327D02*
D03*
X033046D02*
D03*
X0529Y038653D02*
D03*
X052553D02*
D03*
X05265Y037853D02*
D03*
X052303D02*
D03*
X05265Y037353D02*
D03*
X052303D02*
D03*
X05055Y040203D02*
D03*
X050203D02*
D03*
X049353D02*
D03*
X0497D02*
D03*
X036246Y044873D02*
D03*
X0359D02*
D03*
X035996Y044073D02*
D03*
X03565D02*
D03*
X035996Y043573D02*
D03*
X03565D02*
D03*
X033896Y046423D02*
D03*
X03355D02*
D03*
X0327D02*
D03*
X033046D02*
D03*
X0529Y044873D02*
D03*
X052553D02*
D03*
X05265Y044073D02*
D03*
X052303D02*
D03*
X05265Y043573D02*
D03*
X052303D02*
D03*
X05055Y046423D02*
D03*
X050203D02*
D03*
X049353D02*
D03*
X0497D02*
D03*
D12*
X035419Y019991D02*
D03*
X035073D02*
D03*
X052073D02*
D03*
X051726D02*
D03*
X035419Y026212D02*
D03*
X035073D02*
D03*
X052073D02*
D03*
X051726D02*
D03*
X035419Y032432D02*
D03*
X035073D02*
D03*
X052073D02*
D03*
X051726D02*
D03*
X035419Y038653D02*
D03*
X035073D02*
D03*
X052073D02*
D03*
X051726D02*
D03*
X035419Y044873D02*
D03*
X035073D02*
D03*
X052073D02*
D03*
X051726D02*
D03*
D13*
X034623Y020015D02*
D03*
Y019668D02*
D03*
X035123Y019541D02*
D03*
Y019195D02*
D03*
X051276Y020015D02*
D03*
Y019668D02*
D03*
X051776Y019541D02*
D03*
Y019195D02*
D03*
X034623Y026235D02*
D03*
Y025889D02*
D03*
X035123Y025762D02*
D03*
Y025415D02*
D03*
X051276Y026235D02*
D03*
Y025889D02*
D03*
X051776Y025762D02*
D03*
Y025415D02*
D03*
X034623Y032455D02*
D03*
Y032109D02*
D03*
X035123Y031982D02*
D03*
Y031636D02*
D03*
X051276Y032455D02*
D03*
Y032109D02*
D03*
X051776Y031982D02*
D03*
Y031636D02*
D03*
X034623Y038676D02*
D03*
Y03833D02*
D03*
X035123Y038203D02*
D03*
Y037856D02*
D03*
X051276Y038676D02*
D03*
Y03833D02*
D03*
X051776Y038203D02*
D03*
Y037856D02*
D03*
X034623Y044896D02*
D03*
Y04455D02*
D03*
X035123Y044423D02*
D03*
Y044077D02*
D03*
X051276Y044896D02*
D03*
Y04455D02*
D03*
X051776Y044423D02*
D03*
Y044077D02*
D03*
D14*
X034523Y021065D02*
D03*
Y021518D02*
D03*
X051176Y021065D02*
D03*
Y021518D02*
D03*
X034523Y027285D02*
D03*
Y027738D02*
D03*
X051176Y027285D02*
D03*
Y027738D02*
D03*
X034523Y033506D02*
D03*
Y033959D02*
D03*
X051176Y033506D02*
D03*
Y033959D02*
D03*
X034523Y039726D02*
D03*
Y040179D02*
D03*
X051176Y039726D02*
D03*
Y040179D02*
D03*
X034523Y045947D02*
D03*
Y0464D02*
D03*
X051176Y045947D02*
D03*
Y0464D02*
D03*
D15*
X027989Y016591D02*
D03*
X027457D02*
D03*
X030289Y021041D02*
D03*
X029757D02*
D03*
X024239Y021691D02*
D03*
X023707D02*
D03*
X025639Y019991D02*
D03*
X025107D02*
D03*
X032639Y016941D02*
D03*
X032107D02*
D03*
X044642Y016591D02*
D03*
X044111D02*
D03*
X046942Y021041D02*
D03*
X046411D02*
D03*
X040892Y021691D02*
D03*
X040361D02*
D03*
X042292Y019991D02*
D03*
X041761D02*
D03*
X049292Y016941D02*
D03*
X048761D02*
D03*
X027989Y022812D02*
D03*
X027457D02*
D03*
X030289Y027262D02*
D03*
X029757D02*
D03*
X024239Y027912D02*
D03*
X023707D02*
D03*
X025639Y026212D02*
D03*
X025107D02*
D03*
X032639Y023162D02*
D03*
X032107D02*
D03*
X044642Y022812D02*
D03*
X044111D02*
D03*
X046942Y027262D02*
D03*
X046411D02*
D03*
X040892Y027912D02*
D03*
X040361D02*
D03*
X042292Y026212D02*
D03*
X041761D02*
D03*
X049292Y023162D02*
D03*
X048761D02*
D03*
X027989Y029032D02*
D03*
X027457D02*
D03*
X030289Y033482D02*
D03*
X029757D02*
D03*
X024239Y034132D02*
D03*
X023707D02*
D03*
X025639Y032432D02*
D03*
X025107D02*
D03*
X032639Y029382D02*
D03*
X032107D02*
D03*
X044642Y029032D02*
D03*
X044111D02*
D03*
X046942Y033482D02*
D03*
X046411D02*
D03*
X040892Y034132D02*
D03*
X040361D02*
D03*
X042292Y032432D02*
D03*
X041761D02*
D03*
X049292Y029382D02*
D03*
X048761D02*
D03*
X027989Y035253D02*
D03*
X027457D02*
D03*
X030289Y039703D02*
D03*
X029757D02*
D03*
X024239Y040353D02*
D03*
X023707D02*
D03*
X025639Y038653D02*
D03*
X025107D02*
D03*
X032639Y035603D02*
D03*
X032107D02*
D03*
X044642Y035253D02*
D03*
X044111D02*
D03*
X046942Y039703D02*
D03*
X046411D02*
D03*
X040892Y040353D02*
D03*
X040361D02*
D03*
X042292Y038653D02*
D03*
X041761D02*
D03*
X049292Y035603D02*
D03*
X048761D02*
D03*
X027989Y041473D02*
D03*
X027457D02*
D03*
X030289Y045923D02*
D03*
X029757D02*
D03*
X024239Y046573D02*
D03*
X023707D02*
D03*
X025639Y044873D02*
D03*
X025107D02*
D03*
X032639Y041823D02*
D03*
X032107D02*
D03*
X044642Y041473D02*
D03*
X044111D02*
D03*
X046942Y045923D02*
D03*
X046411D02*
D03*
X040892Y046573D02*
D03*
X040361D02*
D03*
X042292Y044873D02*
D03*
X041761D02*
D03*
X049292Y041823D02*
D03*
X048761D02*
D03*
D16*
X033272Y02004D02*
D03*
X049925D02*
D03*
X033272Y026261D02*
D03*
X049925D02*
D03*
X033272Y032481D02*
D03*
X049925D02*
D03*
X033272Y038702D02*
D03*
X049925D02*
D03*
X033272Y044922D02*
D03*
X049925D02*
D03*
D17*
X034039Y020434D02*
D03*
Y020237D02*
D03*
Y02004D02*
D03*
Y019843D02*
D03*
Y019646D02*
D03*
X032504D02*
D03*
Y019843D02*
D03*
Y02004D02*
D03*
Y020237D02*
D03*
Y020434D02*
D03*
X050693D02*
D03*
Y020237D02*
D03*
Y02004D02*
D03*
Y019843D02*
D03*
Y019646D02*
D03*
X049158D02*
D03*
Y019843D02*
D03*
Y02004D02*
D03*
Y020237D02*
D03*
Y020434D02*
D03*
X034039Y026654D02*
D03*
Y026457D02*
D03*
Y026261D02*
D03*
Y026064D02*
D03*
Y025867D02*
D03*
X032504D02*
D03*
Y026064D02*
D03*
Y026261D02*
D03*
Y026457D02*
D03*
Y026654D02*
D03*
X050693D02*
D03*
Y026457D02*
D03*
Y026261D02*
D03*
Y026064D02*
D03*
Y025867D02*
D03*
X049158D02*
D03*
Y026064D02*
D03*
Y026261D02*
D03*
Y026457D02*
D03*
Y026654D02*
D03*
X034039Y032875D02*
D03*
Y032678D02*
D03*
Y032481D02*
D03*
Y032284D02*
D03*
Y032087D02*
D03*
X032504D02*
D03*
Y032284D02*
D03*
Y032481D02*
D03*
Y032678D02*
D03*
Y032875D02*
D03*
X050693D02*
D03*
Y032678D02*
D03*
Y032481D02*
D03*
Y032284D02*
D03*
Y032087D02*
D03*
X049158D02*
D03*
Y032284D02*
D03*
Y032481D02*
D03*
Y032678D02*
D03*
Y032875D02*
D03*
X034039Y039095D02*
D03*
Y038898D02*
D03*
Y038702D02*
D03*
Y038505D02*
D03*
Y038308D02*
D03*
X032504D02*
D03*
Y038505D02*
D03*
Y038702D02*
D03*
Y038898D02*
D03*
Y039095D02*
D03*
X050693D02*
D03*
Y038898D02*
D03*
Y038702D02*
D03*
Y038505D02*
D03*
Y038308D02*
D03*
X049158D02*
D03*
Y038505D02*
D03*
Y038702D02*
D03*
Y038898D02*
D03*
Y039095D02*
D03*
X034039Y045316D02*
D03*
Y045119D02*
D03*
Y044922D02*
D03*
Y044725D02*
D03*
Y044528D02*
D03*
X032504D02*
D03*
Y044725D02*
D03*
Y044922D02*
D03*
Y045119D02*
D03*
Y045316D02*
D03*
X050693D02*
D03*
Y045119D02*
D03*
Y044922D02*
D03*
Y044725D02*
D03*
Y044528D02*
D03*
X049158D02*
D03*
Y044725D02*
D03*
Y044922D02*
D03*
Y045119D02*
D03*
Y045316D02*
D03*
D18*
X032878Y020808D02*
D03*
X033075D02*
D03*
X033272D02*
D03*
X033469D02*
D03*
X033665D02*
D03*
Y019272D02*
D03*
X033469D02*
D03*
X033272D02*
D03*
X033075D02*
D03*
X032878D02*
D03*
X049532Y020808D02*
D03*
X049728D02*
D03*
X049925D02*
D03*
X050122D02*
D03*
X050319D02*
D03*
Y019272D02*
D03*
X050122D02*
D03*
X049925D02*
D03*
X049728D02*
D03*
X049532D02*
D03*
X032878Y027028D02*
D03*
X033075D02*
D03*
X033272D02*
D03*
X033469D02*
D03*
X033665D02*
D03*
Y025493D02*
D03*
X033469D02*
D03*
X033272D02*
D03*
X033075D02*
D03*
X032878D02*
D03*
X049532Y027028D02*
D03*
X049728D02*
D03*
X049925D02*
D03*
X050122D02*
D03*
X050319D02*
D03*
Y025493D02*
D03*
X050122D02*
D03*
X049925D02*
D03*
X049728D02*
D03*
X049532D02*
D03*
X032878Y033249D02*
D03*
X033075D02*
D03*
X033272D02*
D03*
X033469D02*
D03*
X033665D02*
D03*
Y031713D02*
D03*
X033469D02*
D03*
X033272D02*
D03*
X033075D02*
D03*
X032878D02*
D03*
X049532Y033249D02*
D03*
X049728D02*
D03*
X049925D02*
D03*
X050122D02*
D03*
X050319D02*
D03*
Y031713D02*
D03*
X050122D02*
D03*
X049925D02*
D03*
X049728D02*
D03*
X049532D02*
D03*
X032878Y039469D02*
D03*
X033075D02*
D03*
X033272D02*
D03*
X033469D02*
D03*
X033665D02*
D03*
Y037934D02*
D03*
X033469D02*
D03*
X033272D02*
D03*
X033075D02*
D03*
X032878D02*
D03*
X049532Y039469D02*
D03*
X049728D02*
D03*
X049925D02*
D03*
X050122D02*
D03*
X050319D02*
D03*
Y037934D02*
D03*
X050122D02*
D03*
X049925D02*
D03*
X049728D02*
D03*
X049532D02*
D03*
X032878Y04569D02*
D03*
X033075D02*
D03*
X033272D02*
D03*
X033469D02*
D03*
X033665D02*
D03*
Y044154D02*
D03*
X033469D02*
D03*
X033272D02*
D03*
X033075D02*
D03*
X032878D02*
D03*
X049532Y04569D02*
D03*
X049728D02*
D03*
X049925D02*
D03*
X050122D02*
D03*
X050319D02*
D03*
Y044154D02*
D03*
X050122D02*
D03*
X049925D02*
D03*
X049728D02*
D03*
X049532D02*
D03*
D19*
X03029Y016293D02*
D03*
X03043Y016432D02*
D03*
X030569Y016571D02*
D03*
X030708Y01671D02*
D03*
X030847Y016849D02*
D03*
X030986Y016989D02*
D03*
X031126Y017128D02*
D03*
X031265Y017267D02*
D03*
X031404Y017406D02*
D03*
X031543Y017545D02*
D03*
X031682Y017685D02*
D03*
X031822Y017824D02*
D03*
X029455Y02019D02*
D03*
X029316Y020051D02*
D03*
X029177Y019912D02*
D03*
X029038Y019772D02*
D03*
X028899Y019633D02*
D03*
X028759Y019494D02*
D03*
X02862Y019355D02*
D03*
X028481Y019216D02*
D03*
X028342Y019076D02*
D03*
X028203Y018937D02*
D03*
X028063Y018798D02*
D03*
X027924Y018659D02*
D03*
X046944Y016293D02*
D03*
X047083Y016432D02*
D03*
X047222Y016571D02*
D03*
X047362Y01671D02*
D03*
X047501Y016849D02*
D03*
X04764Y016989D02*
D03*
X047779Y017128D02*
D03*
X047918Y017267D02*
D03*
X048058Y017406D02*
D03*
X048197Y017545D02*
D03*
X048336Y017685D02*
D03*
X048475Y017824D02*
D03*
X046109Y02019D02*
D03*
X04597Y020051D02*
D03*
X04583Y019912D02*
D03*
X045691Y019772D02*
D03*
X045552Y019633D02*
D03*
X045413Y019494D02*
D03*
X045274Y019355D02*
D03*
X045135Y019216D02*
D03*
X044995Y019076D02*
D03*
X044856Y018937D02*
D03*
X044717Y018798D02*
D03*
X044578Y018659D02*
D03*
X03029Y022513D02*
D03*
X03043Y022652D02*
D03*
X030569Y022791D02*
D03*
X030708Y022931D02*
D03*
X030847Y02307D02*
D03*
X030986Y023209D02*
D03*
X031126Y023348D02*
D03*
X031265Y023487D02*
D03*
X031404Y023627D02*
D03*
X031543Y023766D02*
D03*
X031682Y023905D02*
D03*
X031822Y024044D02*
D03*
X029455Y026411D02*
D03*
X029316Y026271D02*
D03*
X029177Y026132D02*
D03*
X029038Y025993D02*
D03*
X028899Y025854D02*
D03*
X028759Y025715D02*
D03*
X02862Y025575D02*
D03*
X028481Y025436D02*
D03*
X028342Y025297D02*
D03*
X028203Y025158D02*
D03*
X028063Y025019D02*
D03*
X027924Y024879D02*
D03*
X046944Y022513D02*
D03*
X047083Y022652D02*
D03*
X047222Y022791D02*
D03*
X047362Y022931D02*
D03*
X047501Y02307D02*
D03*
X04764Y023209D02*
D03*
X047779Y023348D02*
D03*
X047918Y023487D02*
D03*
X048058Y023627D02*
D03*
X048197Y023766D02*
D03*
X048336Y023905D02*
D03*
X048475Y024044D02*
D03*
X046109Y026411D02*
D03*
X04597Y026271D02*
D03*
X04583Y026132D02*
D03*
X045691Y025993D02*
D03*
X045552Y025854D02*
D03*
X045413Y025715D02*
D03*
X045274Y025575D02*
D03*
X045135Y025436D02*
D03*
X044995Y025297D02*
D03*
X044856Y025158D02*
D03*
X044717Y025019D02*
D03*
X044578Y024879D02*
D03*
X03029Y028734D02*
D03*
X03043Y028873D02*
D03*
X030569Y029012D02*
D03*
X030708Y029151D02*
D03*
X030847Y02929D02*
D03*
X030986Y02943D02*
D03*
X031126Y029569D02*
D03*
X031265Y029708D02*
D03*
X031404Y029847D02*
D03*
X031543Y029986D02*
D03*
X031682Y030125D02*
D03*
X031822Y030265D02*
D03*
X029455Y032631D02*
D03*
X029316Y032492D02*
D03*
X029177Y032353D02*
D03*
X029038Y032213D02*
D03*
X028899Y032074D02*
D03*
X028759Y031935D02*
D03*
X02862Y031796D02*
D03*
X028481Y031657D02*
D03*
X028342Y031517D02*
D03*
X028203Y031378D02*
D03*
X028063Y031239D02*
D03*
X027924Y0311D02*
D03*
X046944Y028734D02*
D03*
X047083Y028873D02*
D03*
X047222Y029012D02*
D03*
X047362Y029151D02*
D03*
X047501Y02929D02*
D03*
X04764Y02943D02*
D03*
X047779Y029569D02*
D03*
X047918Y029708D02*
D03*
X048058Y029847D02*
D03*
X048197Y029986D02*
D03*
X048336Y030125D02*
D03*
X048475Y030265D02*
D03*
X046109Y032631D02*
D03*
X04597Y032492D02*
D03*
X04583Y032353D02*
D03*
X045691Y032213D02*
D03*
X045552Y032074D02*
D03*
X045413Y031935D02*
D03*
X045274Y031796D02*
D03*
X045135Y031657D02*
D03*
X044995Y031517D02*
D03*
X044856Y031378D02*
D03*
X044717Y031239D02*
D03*
X044578Y0311D02*
D03*
X03029Y034954D02*
D03*
X03043Y035093D02*
D03*
X030569Y035232D02*
D03*
X030708Y035372D02*
D03*
X030847Y035511D02*
D03*
X030986Y03565D02*
D03*
X031126Y035789D02*
D03*
X031265Y035928D02*
D03*
X031404Y036068D02*
D03*
X031543Y036207D02*
D03*
X031682Y036346D02*
D03*
X031822Y036485D02*
D03*
X029455Y038851D02*
D03*
X029316Y038712D02*
D03*
X029177Y038573D02*
D03*
X029038Y038434D02*
D03*
X028899Y038295D02*
D03*
X028759Y038155D02*
D03*
X02862Y038016D02*
D03*
X028481Y037877D02*
D03*
X028342Y037738D02*
D03*
X028203Y037599D02*
D03*
X028063Y03746D02*
D03*
X027924Y03732D02*
D03*
X046944Y034954D02*
D03*
X047083Y035093D02*
D03*
X047222Y035232D02*
D03*
X047362Y035372D02*
D03*
X047501Y035511D02*
D03*
X04764Y03565D02*
D03*
X047779Y035789D02*
D03*
X047918Y035928D02*
D03*
X048058Y036068D02*
D03*
X048197Y036207D02*
D03*
X048336Y036346D02*
D03*
X048475Y036485D02*
D03*
X046109Y038851D02*
D03*
X04597Y038712D02*
D03*
X04583Y038573D02*
D03*
X045691Y038434D02*
D03*
X045552Y038295D02*
D03*
X045413Y038155D02*
D03*
X045274Y038016D02*
D03*
X045135Y037877D02*
D03*
X044995Y037738D02*
D03*
X044856Y037599D02*
D03*
X044717Y03746D02*
D03*
X044578Y03732D02*
D03*
X03029Y041174D02*
D03*
X03043Y041314D02*
D03*
X030569Y041453D02*
D03*
X030708Y041592D02*
D03*
X030847Y041731D02*
D03*
X030986Y04187D02*
D03*
X031126Y04201D02*
D03*
X031265Y042149D02*
D03*
X031404Y042288D02*
D03*
X031543Y042427D02*
D03*
X031682Y042566D02*
D03*
X031822Y042706D02*
D03*
X029455Y045072D02*
D03*
X029316Y044933D02*
D03*
X029177Y044794D02*
D03*
X029038Y044654D02*
D03*
X028899Y044515D02*
D03*
X028759Y044376D02*
D03*
X02862Y044237D02*
D03*
X028481Y044098D02*
D03*
X028342Y043958D02*
D03*
X028203Y043819D02*
D03*
X028063Y04368D02*
D03*
X027924Y043541D02*
D03*
X046944Y041174D02*
D03*
X047083Y041314D02*
D03*
X047222Y041453D02*
D03*
X047362Y041592D02*
D03*
X047501Y041731D02*
D03*
X04764Y04187D02*
D03*
X047779Y04201D02*
D03*
X047918Y042149D02*
D03*
X048058Y042288D02*
D03*
X048197Y042427D02*
D03*
X048336Y042566D02*
D03*
X048475Y042706D02*
D03*
X046109Y045072D02*
D03*
X04597Y044933D02*
D03*
X04583Y044794D02*
D03*
X045691Y044654D02*
D03*
X045552Y044515D02*
D03*
X045413Y044376D02*
D03*
X045274Y044237D02*
D03*
X045135Y044098D02*
D03*
X044995Y043958D02*
D03*
X044856Y043819D02*
D03*
X044717Y04368D02*
D03*
X044578Y043541D02*
D03*
D20*
X031822Y018659D02*
D03*
X031682Y018798D02*
D03*
X031543Y018937D02*
D03*
X031404Y019076D02*
D03*
X031265Y019216D02*
D03*
X031126Y019355D02*
D03*
X030986Y019494D02*
D03*
X030847Y019633D02*
D03*
X030708Y019772D02*
D03*
X030569Y019912D02*
D03*
X03043Y020051D02*
D03*
X03029Y02019D02*
D03*
X027924Y017824D02*
D03*
X028063Y017685D02*
D03*
X028203Y017545D02*
D03*
X028342Y017406D02*
D03*
X028481Y017267D02*
D03*
X02862Y017128D02*
D03*
X028759Y016989D02*
D03*
X028899Y016849D02*
D03*
X029038Y01671D02*
D03*
X029177Y016571D02*
D03*
X029316Y016432D02*
D03*
X029455Y016293D02*
D03*
X048475Y018659D02*
D03*
X048336Y018798D02*
D03*
X048197Y018937D02*
D03*
X048058Y019076D02*
D03*
X047918Y019216D02*
D03*
X047779Y019355D02*
D03*
X04764Y019494D02*
D03*
X047501Y019633D02*
D03*
X047362Y019772D02*
D03*
X047222Y019912D02*
D03*
X047083Y020051D02*
D03*
X046944Y02019D02*
D03*
X044578Y017824D02*
D03*
X044717Y017685D02*
D03*
X044856Y017545D02*
D03*
X044995Y017406D02*
D03*
X045135Y017267D02*
D03*
X045274Y017128D02*
D03*
X045413Y016989D02*
D03*
X045552Y016849D02*
D03*
X045691Y01671D02*
D03*
X04583Y016571D02*
D03*
X04597Y016432D02*
D03*
X046109Y016293D02*
D03*
X031822Y024879D02*
D03*
X031682Y025019D02*
D03*
X031543Y025158D02*
D03*
X031404Y025297D02*
D03*
X031265Y025436D02*
D03*
X031126Y025575D02*
D03*
X030986Y025715D02*
D03*
X030847Y025854D02*
D03*
X030708Y025993D02*
D03*
X030569Y026132D02*
D03*
X03043Y026271D02*
D03*
X03029Y026411D02*
D03*
X027924Y024044D02*
D03*
X028063Y023905D02*
D03*
X028203Y023766D02*
D03*
X028342Y023627D02*
D03*
X028481Y023487D02*
D03*
X02862Y023348D02*
D03*
X028759Y023209D02*
D03*
X028899Y02307D02*
D03*
X029038Y022931D02*
D03*
X029177Y022791D02*
D03*
X029316Y022652D02*
D03*
X029455Y022513D02*
D03*
X048475Y024879D02*
D03*
X048336Y025019D02*
D03*
X048197Y025158D02*
D03*
X048058Y025297D02*
D03*
X047918Y025436D02*
D03*
X047779Y025575D02*
D03*
X04764Y025715D02*
D03*
X047501Y025854D02*
D03*
X047362Y025993D02*
D03*
X047222Y026132D02*
D03*
X047083Y026271D02*
D03*
X046944Y026411D02*
D03*
X044578Y024044D02*
D03*
X044717Y023905D02*
D03*
X044856Y023766D02*
D03*
X044995Y023627D02*
D03*
X045135Y023487D02*
D03*
X045274Y023348D02*
D03*
X045413Y023209D02*
D03*
X045552Y02307D02*
D03*
X045691Y022931D02*
D03*
X04583Y022791D02*
D03*
X04597Y022652D02*
D03*
X046109Y022513D02*
D03*
X031822Y0311D02*
D03*
X031682Y031239D02*
D03*
X031543Y031378D02*
D03*
X031404Y031517D02*
D03*
X031265Y031657D02*
D03*
X031126Y031796D02*
D03*
X030986Y031935D02*
D03*
X030847Y032074D02*
D03*
X030708Y032213D02*
D03*
X030569Y032353D02*
D03*
X03043Y032492D02*
D03*
X03029Y032631D02*
D03*
X027924Y030265D02*
D03*
X028063Y030125D02*
D03*
X028203Y029986D02*
D03*
X028342Y029847D02*
D03*
X028481Y029708D02*
D03*
X02862Y029569D02*
D03*
X028759Y02943D02*
D03*
X028899Y02929D02*
D03*
X029038Y029151D02*
D03*
X029177Y029012D02*
D03*
X029316Y028873D02*
D03*
X029455Y028734D02*
D03*
X048475Y0311D02*
D03*
X048336Y031239D02*
D03*
X048197Y031378D02*
D03*
X048058Y031517D02*
D03*
X047918Y031657D02*
D03*
X047779Y031796D02*
D03*
X04764Y031935D02*
D03*
X047501Y032074D02*
D03*
X047362Y032213D02*
D03*
X047222Y032353D02*
D03*
X047083Y032492D02*
D03*
X046944Y032631D02*
D03*
X044578Y030265D02*
D03*
X044717Y030125D02*
D03*
X044856Y029986D02*
D03*
X044995Y029847D02*
D03*
X045135Y029708D02*
D03*
X045274Y029569D02*
D03*
X045413Y02943D02*
D03*
X045552Y02929D02*
D03*
X045691Y029151D02*
D03*
X04583Y029012D02*
D03*
X04597Y028873D02*
D03*
X046109Y028734D02*
D03*
X031822Y03732D02*
D03*
X031682Y03746D02*
D03*
X031543Y037599D02*
D03*
X031404Y037738D02*
D03*
X031265Y037877D02*
D03*
X031126Y038016D02*
D03*
X030986Y038155D02*
D03*
X030847Y038295D02*
D03*
X030708Y038434D02*
D03*
X030569Y038573D02*
D03*
X03043Y038712D02*
D03*
X03029Y038851D02*
D03*
X027924Y036485D02*
D03*
X028063Y036346D02*
D03*
X028203Y036207D02*
D03*
X028342Y036068D02*
D03*
X028481Y035928D02*
D03*
X02862Y035789D02*
D03*
X028759Y03565D02*
D03*
X028899Y035511D02*
D03*
X029038Y035372D02*
D03*
X029177Y035232D02*
D03*
X029316Y035093D02*
D03*
X029455Y034954D02*
D03*
X048475Y03732D02*
D03*
X048336Y03746D02*
D03*
X048197Y037599D02*
D03*
X048058Y037738D02*
D03*
X047918Y037877D02*
D03*
X047779Y038016D02*
D03*
X04764Y038155D02*
D03*
X047501Y038295D02*
D03*
X047362Y038434D02*
D03*
X047222Y038573D02*
D03*
X047083Y038712D02*
D03*
X046944Y038851D02*
D03*
X044578Y036485D02*
D03*
X044717Y036346D02*
D03*
X044856Y036207D02*
D03*
X044995Y036068D02*
D03*
X045135Y035928D02*
D03*
X045274Y035789D02*
D03*
X045413Y03565D02*
D03*
X045552Y035511D02*
D03*
X045691Y035372D02*
D03*
X04583Y035232D02*
D03*
X04597Y035093D02*
D03*
X046109Y034954D02*
D03*
X031822Y043541D02*
D03*
X031682Y04368D02*
D03*
X031543Y043819D02*
D03*
X031404Y043958D02*
D03*
X031265Y044098D02*
D03*
X031126Y044237D02*
D03*
X030986Y044376D02*
D03*
X030847Y044515D02*
D03*
X030708Y044654D02*
D03*
X030569Y044794D02*
D03*
X03043Y044933D02*
D03*
X03029Y045072D02*
D03*
X027924Y042706D02*
D03*
X028063Y042566D02*
D03*
X028203Y042427D02*
D03*
X028342Y042288D02*
D03*
X028481Y042149D02*
D03*
X02862Y04201D02*
D03*
X028759Y04187D02*
D03*
X028899Y041731D02*
D03*
X029038Y041592D02*
D03*
X029177Y041453D02*
D03*
X029316Y041314D02*
D03*
X029455Y041174D02*
D03*
X048475Y043541D02*
D03*
X048336Y04368D02*
D03*
X048197Y043819D02*
D03*
X048058Y043958D02*
D03*
X047918Y044098D02*
D03*
X047779Y044237D02*
D03*
X04764Y044376D02*
D03*
X047501Y044515D02*
D03*
X047362Y044654D02*
D03*
X047222Y044794D02*
D03*
X047083Y044933D02*
D03*
X046944Y045072D02*
D03*
X044578Y042706D02*
D03*
X044717Y042566D02*
D03*
X044856Y042427D02*
D03*
X044995Y042288D02*
D03*
X045135Y042149D02*
D03*
X045274Y04201D02*
D03*
X045413Y04187D02*
D03*
X045552Y041731D02*
D03*
X045691Y041592D02*
D03*
X04583Y041453D02*
D03*
X04597Y041314D02*
D03*
X046109Y041174D02*
D03*
D21*
X026923Y017426D02*
D03*
Y017957D02*
D03*
X043576Y017426D02*
D03*
Y017957D02*
D03*
X026923Y023646D02*
D03*
Y024178D02*
D03*
X043576Y023646D02*
D03*
Y024178D02*
D03*
X026923Y029867D02*
D03*
Y030398D02*
D03*
X043576Y029867D02*
D03*
Y030398D02*
D03*
X026923Y036087D02*
D03*
Y036618D02*
D03*
X043576Y036087D02*
D03*
Y036618D02*
D03*
X026923Y042307D02*
D03*
Y042839D02*
D03*
X043576Y042307D02*
D03*
Y042839D02*
D03*
D22*
X033175Y018091D02*
D03*
X033923D02*
D03*
X049828D02*
D03*
X050576D02*
D03*
X033175Y024312D02*
D03*
X033923D02*
D03*
X049828D02*
D03*
X050576D02*
D03*
X033175Y030532D02*
D03*
X033923D02*
D03*
X049828D02*
D03*
X050576D02*
D03*
X033175Y036753D02*
D03*
X033923D02*
D03*
X049828D02*
D03*
X050576D02*
D03*
X033175Y042973D02*
D03*
X033923D02*
D03*
X049828D02*
D03*
X050576D02*
D03*
D23*
X033549Y018091D02*
D03*
X050202D02*
D03*
X033549Y024312D02*
D03*
X050202D02*
D03*
X033549Y030532D02*
D03*
X050202D02*
D03*
X033549Y036753D02*
D03*
X050202D02*
D03*
X033549Y042973D02*
D03*
X050202D02*
D03*
D24*
X038173Y018815D02*
D03*
Y020941D02*
D03*
Y019878D02*
D03*
Y018815D02*
D03*
Y020941D02*
D03*
X054826Y018815D02*
D03*
Y020941D02*
D03*
Y019878D02*
D03*
Y018815D02*
D03*
Y020941D02*
D03*
X038173Y025036D02*
D03*
Y027162D02*
D03*
Y026099D02*
D03*
Y025036D02*
D03*
Y027162D02*
D03*
X054826Y025036D02*
D03*
Y027162D02*
D03*
Y026099D02*
D03*
Y025036D02*
D03*
Y027162D02*
D03*
X038173Y031256D02*
D03*
Y033382D02*
D03*
Y032319D02*
D03*
Y031256D02*
D03*
Y033382D02*
D03*
X054826Y031256D02*
D03*
Y033382D02*
D03*
Y032319D02*
D03*
Y031256D02*
D03*
Y033382D02*
D03*
X038173Y037477D02*
D03*
Y039603D02*
D03*
Y03854D02*
D03*
Y037477D02*
D03*
Y039603D02*
D03*
X054826Y037477D02*
D03*
Y039603D02*
D03*
Y03854D02*
D03*
Y037477D02*
D03*
Y039603D02*
D03*
X038173Y043697D02*
D03*
Y045823D02*
D03*
Y04476D02*
D03*
Y043697D02*
D03*
Y045823D02*
D03*
X054826Y043697D02*
D03*
Y045823D02*
D03*
Y04476D02*
D03*
Y043697D02*
D03*
Y045823D02*
D03*
D25*
X025661Y017941D02*
D03*
X026173D02*
D03*
X032129Y016291D02*
D03*
X031617D02*
D03*
X042315Y017941D02*
D03*
X042826D02*
D03*
X048782Y016291D02*
D03*
X048271D02*
D03*
X025661Y024162D02*
D03*
X026173D02*
D03*
X032129Y022512D02*
D03*
X031617D02*
D03*
X042315Y024162D02*
D03*
X042826D02*
D03*
X048782Y022512D02*
D03*
X048271D02*
D03*
X025661Y030382D02*
D03*
X026173D02*
D03*
X032129Y028732D02*
D03*
X031617D02*
D03*
X042315Y030382D02*
D03*
X042826D02*
D03*
X048782Y028732D02*
D03*
X048271D02*
D03*
X025661Y036603D02*
D03*
X026173D02*
D03*
X032129Y034953D02*
D03*
X031617D02*
D03*
X042315Y036603D02*
D03*
X042826D02*
D03*
X048782Y034953D02*
D03*
X048271D02*
D03*
X025661Y042823D02*
D03*
X026173D02*
D03*
X032129Y041173D02*
D03*
X031617D02*
D03*
X042315Y042823D02*
D03*
X042826D02*
D03*
X048782Y041173D02*
D03*
X048271D02*
D03*
D26*
X02494Y016991D02*
D03*
X025806Y017365D02*
D03*
Y016617D02*
D03*
X041593Y016991D02*
D03*
X04246Y017365D02*
D03*
Y016617D02*
D03*
X02494Y023212D02*
D03*
X025806Y023586D02*
D03*
Y022838D02*
D03*
X041593Y023212D02*
D03*
X04246Y023586D02*
D03*
Y022838D02*
D03*
X02494Y029432D02*
D03*
X025806Y029806D02*
D03*
Y029058D02*
D03*
X041593Y029432D02*
D03*
X04246Y029806D02*
D03*
Y029058D02*
D03*
X02494Y035653D02*
D03*
X025806Y036027D02*
D03*
Y035279D02*
D03*
X041593Y035653D02*
D03*
X04246Y036027D02*
D03*
Y035279D02*
D03*
X02494Y041873D02*
D03*
X025806Y042247D02*
D03*
Y041499D02*
D03*
X041593Y041873D02*
D03*
X04246Y042247D02*
D03*
Y041499D02*
D03*
D27*
X025667Y019315D02*
D03*
Y018941D02*
D03*
Y018567D02*
D03*
X024679D02*
D03*
Y018941D02*
D03*
Y019315D02*
D03*
X042321D02*
D03*
Y018941D02*
D03*
Y018567D02*
D03*
X041332D02*
D03*
Y018941D02*
D03*
Y019315D02*
D03*
X025667Y025536D02*
D03*
Y025162D02*
D03*
Y024788D02*
D03*
X024679D02*
D03*
Y025162D02*
D03*
Y025536D02*
D03*
X042321D02*
D03*
Y025162D02*
D03*
Y024788D02*
D03*
X041332D02*
D03*
Y025162D02*
D03*
Y025536D02*
D03*
X025667Y031756D02*
D03*
Y031382D02*
D03*
Y031008D02*
D03*
X024679D02*
D03*
Y031382D02*
D03*
Y031756D02*
D03*
X042321D02*
D03*
Y031382D02*
D03*
Y031008D02*
D03*
X041332D02*
D03*
Y031382D02*
D03*
Y031756D02*
D03*
X025667Y037977D02*
D03*
Y037603D02*
D03*
Y037229D02*
D03*
X024679D02*
D03*
Y037603D02*
D03*
Y037977D02*
D03*
X042321D02*
D03*
Y037603D02*
D03*
Y037229D02*
D03*
X041332D02*
D03*
Y037603D02*
D03*
Y037977D02*
D03*
X025667Y044197D02*
D03*
Y043823D02*
D03*
Y043449D02*
D03*
X024679D02*
D03*
Y043823D02*
D03*
Y044197D02*
D03*
X042321D02*
D03*
Y043823D02*
D03*
Y043449D02*
D03*
X041332D02*
D03*
Y043823D02*
D03*
Y044197D02*
D03*
D42*
X023267Y019827D02*
D03*
X023267Y018055D02*
D03*
X03992Y019827D02*
D03*
X03992Y018055D02*
D03*
X023267Y026048D02*
D03*
X023267Y024276D02*
D03*
X03992Y026048D02*
D03*
X03992Y024276D02*
D03*
X023267Y032268D02*
D03*
X023267Y030496D02*
D03*
X03992Y032268D02*
D03*
X03992Y030496D02*
D03*
X023267Y038489D02*
D03*
X023267Y036717D02*
D03*
X03992Y038489D02*
D03*
X03992Y036717D02*
D03*
X023267Y044709D02*
D03*
X023267Y042937D02*
D03*
X03992Y044709D02*
D03*
X03992Y042937D02*
D03*
D43*
X028317Y021335D02*
D03*
X04497D02*
D03*
X028317Y027555D02*
D03*
X04497D02*
D03*
X028317Y033776D02*
D03*
X04497D02*
D03*
X028317Y039996D02*
D03*
X04497D02*
D03*
X028317Y046217D02*
D03*
X04497D02*
D03*
D44*
X028317Y020548D02*
D03*
X027529Y021335D02*
D03*
Y020548D02*
D03*
X04497D02*
D03*
X044183Y021335D02*
D03*
Y020548D02*
D03*
X028317Y026768D02*
D03*
X027529Y027555D02*
D03*
Y026768D02*
D03*
X04497D02*
D03*
X044183Y027555D02*
D03*
Y026768D02*
D03*
X028317Y032989D02*
D03*
X027529Y033776D02*
D03*
Y032989D02*
D03*
X04497D02*
D03*
X044183Y033776D02*
D03*
Y032989D02*
D03*
X028317Y039209D02*
D03*
X027529Y039996D02*
D03*
Y039209D02*
D03*
X04497D02*
D03*
X044183Y039996D02*
D03*
Y039209D02*
D03*
X028317Y04543D02*
D03*
X027529Y046217D02*
D03*
Y04543D02*
D03*
X04497D02*
D03*
X044183Y046217D02*
D03*
Y04543D02*
D03*
M02*
