G04*
G04 #@! TF.GenerationSoftware,Altium Limited,Altium Designer,22.10.1 (41)*
G04*
G04 Layer_Color=65535*
%FSTAX24Y24*%
%MOIN*%
G70*
G04*
G04 #@! TF.SameCoordinates,821BB7C7-380A-43D0-A621-5EA73BA4A5B0*
G04*
G04*
G04 #@! TF.FilePolarity,Positive*
G04*
G01*
G75*
%ADD40C,0.0080*%
%ADD55C,0.0079*%
%ADD56C,0.0098*%
%ADD57C,0.0059*%
%ADD58C,0.0050*%
%ADD59C,0.0060*%
G36*
X046693Y041564D02*
X046526Y041397D01*
X046359Y041564D01*
X046443Y041648D01*
X04661D01*
X046693Y041564D01*
D02*
G37*
G36*
X03004D02*
X029873Y041397D01*
X029706Y041564D01*
X029789Y041648D01*
X029956D01*
X03004Y041564D01*
D02*
G37*
G36*
X046693Y035344D02*
X046526Y035177D01*
X046359Y035344D01*
X046443Y035427D01*
X04661D01*
X046693Y035344D01*
D02*
G37*
G36*
X03004D02*
X029873Y035177D01*
X029706Y035344D01*
X029789Y035427D01*
X029956D01*
X03004Y035344D01*
D02*
G37*
G36*
X046693Y029123D02*
X046526Y028956D01*
X046359Y029123D01*
X046443Y029207D01*
X04661D01*
X046693Y029123D01*
D02*
G37*
G36*
X03004D02*
X029873Y028956D01*
X029706Y029123D01*
X029789Y029207D01*
X029956D01*
X03004Y029123D01*
D02*
G37*
G36*
X046693Y022903D02*
X046526Y022736D01*
X046359Y022903D01*
X046443Y022986D01*
X04661D01*
X046693Y022903D01*
D02*
G37*
G36*
X03004D02*
X029873Y022736D01*
X029706Y022903D01*
X029789Y022986D01*
X029956D01*
X03004Y022903D01*
D02*
G37*
G36*
X046693Y016682D02*
X046526Y016515D01*
X046359Y016682D01*
X046443Y016766D01*
X04661D01*
X046693Y016682D01*
D02*
G37*
G36*
X03004D02*
X029873Y016515D01*
X029706Y016682D01*
X029789Y016766D01*
X029956D01*
X03004Y016682D01*
D02*
G37*
D40*
X025113Y016431D02*
X025433D01*
X025113D02*
Y016651D01*
Y017551D02*
X025433D01*
X025113Y017331D02*
Y017551D01*
X041766Y016431D02*
X042086D01*
X041766D02*
Y016651D01*
Y017551D02*
X042086D01*
X041766Y017331D02*
Y017551D01*
X025113Y022652D02*
X025433D01*
X025113D02*
Y022872D01*
Y023772D02*
X025433D01*
X025113Y023552D02*
Y023772D01*
X041766Y022652D02*
X042086D01*
X041766D02*
Y022872D01*
Y023772D02*
X042086D01*
X041766Y023552D02*
Y023772D01*
X025113Y028872D02*
X025433D01*
X025113D02*
Y029092D01*
Y029992D02*
X025433D01*
X025113Y029772D02*
Y029992D01*
X041766Y028872D02*
X042086D01*
X041766D02*
Y029092D01*
Y029992D02*
X042086D01*
X041766Y029772D02*
Y029992D01*
X025113Y035093D02*
X025433D01*
X025113D02*
Y035313D01*
Y036213D02*
X025433D01*
X025113Y035993D02*
Y036213D01*
X041766Y035093D02*
X042086D01*
X041766D02*
Y035313D01*
Y036213D02*
X042086D01*
X041766Y035993D02*
Y036213D01*
X025113Y041313D02*
X025433D01*
X025113D02*
Y041533D01*
Y042433D02*
X025433D01*
X025113Y042213D02*
Y042433D01*
X041766Y041313D02*
X042086D01*
X041766D02*
Y041533D01*
Y042433D02*
X042086D01*
X041766Y042213D02*
Y042433D01*
D55*
X032224Y020536D02*
G03*
X032224Y020536I-000039J0D01*
G01*
X03004Y016682D02*
G03*
X029706Y016682I-000167J-000167D01*
G01*
X034454Y018091D02*
G03*
X034454Y018091I-000039J0D01*
G01*
X024562Y019591D02*
G03*
X024562Y019591I-000039J0D01*
G01*
X037267Y019878D02*
G03*
X037267Y019878I-000039J0D01*
G01*
X028462Y021841D02*
G03*
X028462Y021841I-000039J0D01*
G01*
X029873Y016515D02*
X031599Y018241D01*
X028147D02*
X029873Y019967D01*
X028147Y018241D02*
X029873Y016515D01*
Y019967D02*
X031599Y018241D01*
X048878Y020536D02*
G03*
X048878Y020536I-000039J0D01*
G01*
X046693Y016682D02*
G03*
X046359Y016682I-000167J-000167D01*
G01*
X051108Y018091D02*
G03*
X051108Y018091I-000039J0D01*
G01*
X041216Y019591D02*
G03*
X041216Y019591I-000039J0D01*
G01*
X053921Y019878D02*
G03*
X053921Y019878I-000039J0D01*
G01*
X045116Y021841D02*
G03*
X045116Y021841I-000039J0D01*
G01*
X046526Y016515D02*
X048252Y018241D01*
X0448D02*
X046526Y019967D01*
X0448Y018241D02*
X046526Y016515D01*
Y019967D02*
X048252Y018241D01*
X032224Y026757D02*
G03*
X032224Y026757I-000039J0D01*
G01*
X03004Y022903D02*
G03*
X029706Y022903I-000167J-000167D01*
G01*
X034454Y024312D02*
G03*
X034454Y024312I-000039J0D01*
G01*
X024562Y025812D02*
G03*
X024562Y025812I-000039J0D01*
G01*
X037267Y026099D02*
G03*
X037267Y026099I-000039J0D01*
G01*
X028462Y028062D02*
G03*
X028462Y028062I-000039J0D01*
G01*
X029873Y022736D02*
X031599Y024462D01*
X028147D02*
X029873Y026188D01*
X028147Y024462D02*
X029873Y022736D01*
Y026188D02*
X031599Y024462D01*
X048878Y026757D02*
G03*
X048878Y026757I-000039J0D01*
G01*
X046693Y022903D02*
G03*
X046359Y022903I-000167J-000167D01*
G01*
X051108Y024312D02*
G03*
X051108Y024312I-000039J0D01*
G01*
X041216Y025812D02*
G03*
X041216Y025812I-000039J0D01*
G01*
X053921Y026099D02*
G03*
X053921Y026099I-000039J0D01*
G01*
X045116Y028062D02*
G03*
X045116Y028062I-000039J0D01*
G01*
X046526Y022736D02*
X048252Y024462D01*
X0448D02*
X046526Y026188D01*
X0448Y024462D02*
X046526Y022736D01*
Y026188D02*
X048252Y024462D01*
X032224Y032977D02*
G03*
X032224Y032977I-000039J0D01*
G01*
X03004Y029123D02*
G03*
X029706Y029123I-000167J-000167D01*
G01*
X034454Y030532D02*
G03*
X034454Y030532I-000039J0D01*
G01*
X024562Y032032D02*
G03*
X024562Y032032I-000039J0D01*
G01*
X037267Y032319D02*
G03*
X037267Y032319I-000039J0D01*
G01*
X028462Y034282D02*
G03*
X028462Y034282I-000039J0D01*
G01*
X029873Y028956D02*
X031599Y030682D01*
X028147D02*
X029873Y032408D01*
X028147Y030682D02*
X029873Y028956D01*
Y032408D02*
X031599Y030682D01*
X048878Y032977D02*
G03*
X048878Y032977I-000039J0D01*
G01*
X046693Y029123D02*
G03*
X046359Y029123I-000167J-000167D01*
G01*
X051108Y030532D02*
G03*
X051108Y030532I-000039J0D01*
G01*
X041216Y032032D02*
G03*
X041216Y032032I-000039J0D01*
G01*
X053921Y032319D02*
G03*
X053921Y032319I-000039J0D01*
G01*
X045116Y034282D02*
G03*
X045116Y034282I-000039J0D01*
G01*
X046526Y028956D02*
X048252Y030682D01*
X0448D02*
X046526Y032408D01*
X0448Y030682D02*
X046526Y028956D01*
Y032408D02*
X048252Y030682D01*
X032224Y039198D02*
G03*
X032224Y039198I-000039J0D01*
G01*
X03004Y035344D02*
G03*
X029706Y035344I-000167J-000167D01*
G01*
X034454Y036753D02*
G03*
X034454Y036753I-000039J0D01*
G01*
X024562Y038253D02*
G03*
X024562Y038253I-000039J0D01*
G01*
X037267Y03854D02*
G03*
X037267Y03854I-000039J0D01*
G01*
X028462Y040503D02*
G03*
X028462Y040503I-000039J0D01*
G01*
X029873Y035177D02*
X031599Y036903D01*
X028147D02*
X029873Y038629D01*
X028147Y036903D02*
X029873Y035177D01*
Y038629D02*
X031599Y036903D01*
X048878Y039198D02*
G03*
X048878Y039198I-000039J0D01*
G01*
X046693Y035344D02*
G03*
X046359Y035344I-000167J-000167D01*
G01*
X051108Y036753D02*
G03*
X051108Y036753I-000039J0D01*
G01*
X041216Y038253D02*
G03*
X041216Y038253I-000039J0D01*
G01*
X053921Y03854D02*
G03*
X053921Y03854I-000039J0D01*
G01*
X045116Y040503D02*
G03*
X045116Y040503I-000039J0D01*
G01*
X046526Y035177D02*
X048252Y036903D01*
X0448D02*
X046526Y038629D01*
X0448Y036903D02*
X046526Y035177D01*
Y038629D02*
X048252Y036903D01*
X032224Y045418D02*
G03*
X032224Y045418I-000039J0D01*
G01*
X03004Y041564D02*
G03*
X029706Y041564I-000167J-000167D01*
G01*
X034454Y042973D02*
G03*
X034454Y042973I-000039J0D01*
G01*
X024562Y044473D02*
G03*
X024562Y044473I-000039J0D01*
G01*
X037267Y04476D02*
G03*
X037267Y04476I-000039J0D01*
G01*
X028462Y046723D02*
G03*
X028462Y046723I-000039J0D01*
G01*
X029873Y041397D02*
X031599Y043123D01*
X028147D02*
X029873Y044849D01*
X028147Y043123D02*
X029873Y041397D01*
Y044849D02*
X031599Y043123D01*
X048878Y045418D02*
G03*
X048878Y045418I-000039J0D01*
G01*
X046693Y041564D02*
G03*
X046359Y041564I-000167J-000167D01*
G01*
X051108Y042973D02*
G03*
X051108Y042973I-000039J0D01*
G01*
X041216Y044473D02*
G03*
X041216Y044473I-000039J0D01*
G01*
X053921Y04476D02*
G03*
X053921Y04476I-000039J0D01*
G01*
X045116Y046723D02*
G03*
X045116Y046723I-000039J0D01*
G01*
X046526Y041397D02*
X048252Y043123D01*
X0448D02*
X046526Y044849D01*
X0448Y043123D02*
X046526Y041397D01*
Y044849D02*
X048252Y043123D01*
D56*
X030145Y016098D02*
G03*
X030145Y016098I-000049J0D01*
G01*
X046798D02*
G03*
X046798Y016098I-000049J0D01*
G01*
X030145Y022318D02*
G03*
X030145Y022318I-000049J0D01*
G01*
X046798D02*
G03*
X046798Y022318I-000049J0D01*
G01*
X030145Y028539D02*
G03*
X030145Y028539I-000049J0D01*
G01*
X046798D02*
G03*
X046798Y028539I-000049J0D01*
G01*
X030145Y034759D02*
G03*
X030145Y034759I-000049J0D01*
G01*
X046798D02*
G03*
X046798Y034759I-000049J0D01*
G01*
X030145Y04098D02*
G03*
X030145Y04098I-000049J0D01*
G01*
X046798D02*
G03*
X046798Y04098I-000049J0D01*
G01*
D57*
X036526Y019798D02*
X036605D01*
X036526D02*
Y020585D01*
X036605D01*
X036841D02*
X03692D01*
Y019798D02*
Y020585D01*
X036841Y019798D02*
X03692D01*
X032376Y017948D02*
X032455D01*
X032376D02*
Y018735D01*
X032455D01*
X032691D02*
X03277D01*
Y017948D02*
Y018735D01*
X032691Y017948D02*
X03277D01*
X036467Y019794D02*
Y019873D01*
X035679Y019794D02*
X036467D01*
X035679D02*
Y019873D01*
Y020109D02*
Y020188D01*
X036467D01*
Y020109D02*
Y020188D01*
X034892Y019794D02*
Y019873D01*
Y019794D02*
X0356D01*
Y019873D01*
Y020109D02*
Y020188D01*
X034892D02*
X0356D01*
X034892Y020109D02*
Y020188D01*
X036217Y018994D02*
Y019073D01*
X035429Y018994D02*
X036217D01*
X035429D02*
Y019073D01*
Y019309D02*
Y019388D01*
X036217D01*
Y019309D02*
Y019388D01*
Y018573D02*
X036217Y018494D01*
X035429D02*
X036217D01*
X035429D02*
Y018573D01*
Y018809D02*
Y018888D01*
X036217D01*
X036217Y018809D02*
X036217Y018888D01*
X034741Y019487D02*
X03482D01*
Y020196D01*
X034741Y020196D02*
X03482Y020196D01*
X034426D02*
X034505Y020196D01*
X034426Y019487D02*
Y020196D01*
Y019487D02*
X034505D01*
X035241Y019014D02*
X03532D01*
Y019722D01*
X035241D02*
X03532D01*
X034926D02*
X035005D01*
X034926Y019014D02*
Y019722D01*
Y019014D02*
X035005D01*
X034323Y021291D02*
X034723D01*
X034673Y021741D02*
X034723D01*
Y020841D02*
Y021741D01*
X034673Y020841D02*
X034723D01*
X034323D02*
X034373D01*
X034323D02*
Y021741D01*
X034373D01*
X034117Y021344D02*
Y021423D01*
X033329Y021344D02*
X034117D01*
X033329D02*
Y021423D01*
Y021659D02*
Y021738D01*
X034117D01*
Y021659D02*
Y021738D01*
X032479Y021659D02*
Y021738D01*
X033267D01*
Y021659D02*
Y021738D01*
Y021344D02*
Y021423D01*
X032479Y021344D02*
X033267D01*
X032479D02*
Y021423D01*
X028274Y016749D02*
Y016867D01*
X027172D02*
X028274D01*
X027172Y016749D02*
Y016867D01*
Y016316D02*
Y016434D01*
Y016316D02*
X028274D01*
Y016434D01*
X027723Y016316D02*
Y016867D01*
X030023Y020766D02*
Y021317D01*
X029472Y021199D02*
Y021317D01*
X030574D01*
Y021199D02*
Y021317D01*
Y020766D02*
Y020884D01*
X029472Y020766D02*
X030574D01*
X029472D02*
Y020884D01*
X026647Y017691D02*
X027199D01*
X02708Y018242D02*
X027199D01*
Y01714D02*
Y018242D01*
X02708Y01714D02*
X027199D01*
X026647D02*
X026765D01*
X026647D02*
Y018242D01*
X026765D01*
X024524Y021849D02*
Y021967D01*
X023422D02*
X024524D01*
X023422Y021849D02*
Y021967D01*
Y021416D02*
Y021534D01*
Y021416D02*
X024524D01*
Y021534D01*
X023973Y021416D02*
Y021967D01*
X026417Y018141D02*
Y018217D01*
X025417D02*
X026417D01*
X025417Y018141D02*
Y018217D01*
Y017666D02*
Y017741D01*
Y017666D02*
X026417D01*
Y017741D01*
X025917Y017666D02*
Y018217D01*
X025373Y019716D02*
Y020267D01*
X024822Y020149D02*
Y020267D01*
X025924D01*
Y020149D02*
Y020267D01*
Y019716D02*
Y019834D01*
X024822Y019716D02*
X025924D01*
X024822D02*
Y019834D01*
X031373Y016016D02*
Y016091D01*
Y016016D02*
X032373D01*
Y016091D01*
Y016491D02*
Y016567D01*
X031373D02*
X032373D01*
X031373Y016491D02*
Y016567D01*
X031873Y016016D02*
Y016567D01*
X032373Y016666D02*
Y017217D01*
X031822Y017099D02*
Y017217D01*
X032924D01*
Y017099D02*
Y017217D01*
Y016666D02*
Y016784D01*
X031822Y016666D02*
X032924D01*
X031822D02*
Y016784D01*
X05318Y019798D02*
X053258D01*
X05318D02*
Y020585D01*
X053258D01*
X053495D02*
X053573D01*
Y019798D02*
Y020585D01*
X053495Y019798D02*
X053573D01*
X04903Y017948D02*
X049108D01*
X04903D02*
Y018735D01*
X049108D01*
X049345D02*
X049423D01*
Y017948D02*
Y018735D01*
X049345Y017948D02*
X049423D01*
X05312Y019794D02*
Y019873D01*
X052333Y019794D02*
X05312D01*
X052333D02*
Y019873D01*
Y020109D02*
Y020188D01*
X05312D01*
Y020109D02*
Y020188D01*
X051545Y019794D02*
Y019873D01*
Y019794D02*
X052254D01*
Y019873D01*
Y020109D02*
Y020188D01*
X051545D02*
X052254D01*
X051545Y020109D02*
Y020188D01*
X05287Y018994D02*
Y019073D01*
X052083Y018994D02*
X05287D01*
X052083D02*
Y019073D01*
Y019309D02*
Y019388D01*
X05287D01*
Y019309D02*
Y019388D01*
Y018573D02*
X05287Y018494D01*
X052083D02*
X05287D01*
X052083D02*
Y018573D01*
Y018809D02*
Y018888D01*
X05287D01*
X05287Y018809D02*
X05287Y018888D01*
X051395Y019487D02*
X051473D01*
Y020196D01*
X051395Y020196D02*
X051473Y020196D01*
X05108D02*
X051158Y020196D01*
X05108Y019487D02*
Y020196D01*
Y019487D02*
X051158D01*
X051895Y019014D02*
X051973D01*
Y019722D01*
X051895D02*
X051973D01*
X05158D02*
X051658D01*
X05158Y019014D02*
Y019722D01*
Y019014D02*
X051658D01*
X050976Y021291D02*
X051376D01*
X051326Y021741D02*
X051376D01*
Y020841D02*
Y021741D01*
X051326Y020841D02*
X051376D01*
X050976D02*
X051026D01*
X050976D02*
Y021741D01*
X051026D01*
X05077Y021344D02*
Y021423D01*
X049983Y021344D02*
X05077D01*
X049983D02*
Y021423D01*
Y021659D02*
Y021738D01*
X05077D01*
Y021659D02*
Y021738D01*
X049133Y021659D02*
Y021738D01*
X04992D01*
Y021659D02*
Y021738D01*
Y021344D02*
Y021423D01*
X049133Y021344D02*
X04992D01*
X049133D02*
Y021423D01*
X044928Y016749D02*
Y016867D01*
X043825D02*
X044928D01*
X043825Y016749D02*
Y016867D01*
Y016316D02*
Y016434D01*
Y016316D02*
X044928D01*
Y016434D01*
X044376Y016316D02*
Y016867D01*
X046676Y020766D02*
Y021317D01*
X046125Y021199D02*
Y021317D01*
X047228D01*
Y021199D02*
Y021317D01*
Y020766D02*
Y020884D01*
X046125Y020766D02*
X047228D01*
X046125D02*
Y020884D01*
X043301Y017691D02*
X043852D01*
X043734Y018242D02*
X043852D01*
Y01714D02*
Y018242D01*
X043734Y01714D02*
X043852D01*
X043301D02*
X043419D01*
X043301D02*
Y018242D01*
X043419D01*
X041178Y021849D02*
Y021967D01*
X040075D02*
X041178D01*
X040075Y021849D02*
Y021967D01*
Y021416D02*
Y021534D01*
Y021416D02*
X041178D01*
Y021534D01*
X040626Y021416D02*
Y021967D01*
X043071Y018141D02*
Y018217D01*
X042071D02*
X043071D01*
X042071Y018141D02*
Y018217D01*
Y017666D02*
Y017741D01*
Y017666D02*
X043071D01*
Y017741D01*
X042571Y017666D02*
Y018217D01*
X042026Y019716D02*
Y020267D01*
X041475Y020149D02*
Y020267D01*
X042578D01*
Y020149D02*
Y020267D01*
Y019716D02*
Y019834D01*
X041475Y019716D02*
X042578D01*
X041475D02*
Y019834D01*
X048026Y016016D02*
Y016091D01*
Y016016D02*
X049026D01*
Y016091D01*
Y016491D02*
Y016567D01*
X048026D02*
X049026D01*
X048026Y016491D02*
Y016567D01*
X048526Y016016D02*
Y016567D01*
X049026Y016666D02*
Y017217D01*
X048475Y017099D02*
Y017217D01*
X049578D01*
Y017099D02*
Y017217D01*
Y016666D02*
Y016784D01*
X048475Y016666D02*
X049578D01*
X048475D02*
Y016784D01*
X036526Y026018D02*
X036605D01*
X036526D02*
Y026806D01*
X036605D01*
X036841D02*
X03692D01*
Y026018D02*
Y026806D01*
X036841Y026018D02*
X03692D01*
X032376Y024168D02*
X032455D01*
X032376D02*
Y024955D01*
X032455D01*
X032691D02*
X03277D01*
Y024168D02*
Y024955D01*
X032691Y024168D02*
X03277D01*
X036467Y026015D02*
Y026094D01*
X035679Y026015D02*
X036467D01*
X035679D02*
Y026094D01*
Y02633D02*
Y026409D01*
X036467D01*
Y02633D02*
Y026409D01*
X034892Y026015D02*
Y026094D01*
Y026015D02*
X0356D01*
Y026094D01*
Y02633D02*
Y026409D01*
X034892D02*
X0356D01*
X034892Y02633D02*
Y026409D01*
X036217Y025215D02*
Y025294D01*
X035429Y025215D02*
X036217D01*
X035429D02*
Y025294D01*
Y02553D02*
Y025609D01*
X036217D01*
Y02553D02*
Y025609D01*
Y024794D02*
X036217Y024715D01*
X035429D02*
X036217D01*
X035429D02*
Y024794D01*
Y02503D02*
Y025109D01*
X036217D01*
X036217Y02503D02*
X036217Y025109D01*
X034741Y025707D02*
X03482D01*
Y026416D01*
X034741Y026416D02*
X03482Y026416D01*
X034426D02*
X034505Y026416D01*
X034426Y025707D02*
Y026416D01*
Y025707D02*
X034505D01*
X035241Y025234D02*
X03532D01*
Y025943D01*
X035241D02*
X03532D01*
X034926D02*
X035005D01*
X034926Y025234D02*
Y025943D01*
Y025234D02*
X035005D01*
X034323Y027512D02*
X034723D01*
X034673Y027962D02*
X034723D01*
Y027062D02*
Y027962D01*
X034673Y027062D02*
X034723D01*
X034323D02*
X034373D01*
X034323D02*
Y027962D01*
X034373D01*
X034117Y027565D02*
Y027644D01*
X033329Y027565D02*
X034117D01*
X033329D02*
Y027644D01*
Y02788D02*
Y027959D01*
X034117D01*
Y02788D02*
Y027959D01*
X032479Y02788D02*
Y027959D01*
X033267D01*
Y02788D02*
Y027959D01*
Y027565D02*
Y027644D01*
X032479Y027565D02*
X033267D01*
X032479D02*
Y027644D01*
X028274Y022969D02*
Y023087D01*
X027172D02*
X028274D01*
X027172Y022969D02*
Y023087D01*
Y022536D02*
Y022654D01*
Y022536D02*
X028274D01*
Y022654D01*
X027723Y022536D02*
Y023087D01*
X030023Y026986D02*
Y027537D01*
X029472Y027419D02*
Y027537D01*
X030574D01*
Y027419D02*
Y027537D01*
Y026986D02*
Y027104D01*
X029472Y026986D02*
X030574D01*
X029472D02*
Y027104D01*
X026647Y023912D02*
X027199D01*
X02708Y024463D02*
X027199D01*
Y023361D02*
Y024463D01*
X02708Y023361D02*
X027199D01*
X026647D02*
X026765D01*
X026647D02*
Y024463D01*
X026765D01*
X024524Y028069D02*
Y028187D01*
X023422D02*
X024524D01*
X023422Y028069D02*
Y028187D01*
Y027636D02*
Y027754D01*
Y027636D02*
X024524D01*
Y027754D01*
X023973Y027636D02*
Y028187D01*
X026417Y024362D02*
Y024437D01*
X025417D02*
X026417D01*
X025417Y024362D02*
Y024437D01*
Y023886D02*
Y023962D01*
Y023886D02*
X026417D01*
Y023962D01*
X025917Y023886D02*
Y024437D01*
X025373Y025936D02*
Y026487D01*
X024822Y026369D02*
Y026487D01*
X025924D01*
Y026369D02*
Y026487D01*
Y025936D02*
Y026054D01*
X024822Y025936D02*
X025924D01*
X024822D02*
Y026054D01*
X031373Y022236D02*
Y022312D01*
Y022236D02*
X032373D01*
Y022312D01*
Y022712D02*
Y022787D01*
X031373D02*
X032373D01*
X031373Y022712D02*
Y022787D01*
X031873Y022236D02*
Y022787D01*
X032373Y022886D02*
Y023437D01*
X031822Y023319D02*
Y023437D01*
X032924D01*
Y023319D02*
Y023437D01*
Y022886D02*
Y023004D01*
X031822Y022886D02*
X032924D01*
X031822D02*
Y023004D01*
X05318Y026018D02*
X053258D01*
X05318D02*
Y026806D01*
X053258D01*
X053495D02*
X053573D01*
Y026018D02*
Y026806D01*
X053495Y026018D02*
X053573D01*
X04903Y024168D02*
X049108D01*
X04903D02*
Y024955D01*
X049108D01*
X049345D02*
X049423D01*
Y024168D02*
Y024955D01*
X049345Y024168D02*
X049423D01*
X05312Y026015D02*
Y026094D01*
X052333Y026015D02*
X05312D01*
X052333D02*
Y026094D01*
Y02633D02*
Y026409D01*
X05312D01*
Y02633D02*
Y026409D01*
X051545Y026015D02*
Y026094D01*
Y026015D02*
X052254D01*
Y026094D01*
Y02633D02*
Y026409D01*
X051545D02*
X052254D01*
X051545Y02633D02*
Y026409D01*
X05287Y025215D02*
Y025294D01*
X052083Y025215D02*
X05287D01*
X052083D02*
Y025294D01*
Y02553D02*
Y025609D01*
X05287D01*
Y02553D02*
Y025609D01*
Y024794D02*
X05287Y024715D01*
X052083D02*
X05287D01*
X052083D02*
Y024794D01*
Y02503D02*
Y025109D01*
X05287D01*
X05287Y02503D02*
X05287Y025109D01*
X051395Y025707D02*
X051473D01*
Y026416D01*
X051395Y026416D02*
X051473Y026416D01*
X05108D02*
X051158Y026416D01*
X05108Y025707D02*
Y026416D01*
Y025707D02*
X051158D01*
X051895Y025234D02*
X051973D01*
Y025943D01*
X051895D02*
X051973D01*
X05158D02*
X051658D01*
X05158Y025234D02*
Y025943D01*
Y025234D02*
X051658D01*
X050976Y027512D02*
X051376D01*
X051326Y027962D02*
X051376D01*
Y027062D02*
Y027962D01*
X051326Y027062D02*
X051376D01*
X050976D02*
X051026D01*
X050976D02*
Y027962D01*
X051026D01*
X05077Y027565D02*
Y027644D01*
X049983Y027565D02*
X05077D01*
X049983D02*
Y027644D01*
Y02788D02*
Y027959D01*
X05077D01*
Y02788D02*
Y027959D01*
X049133Y02788D02*
Y027959D01*
X04992D01*
Y02788D02*
Y027959D01*
Y027565D02*
Y027644D01*
X049133Y027565D02*
X04992D01*
X049133D02*
Y027644D01*
X044928Y022969D02*
Y023087D01*
X043825D02*
X044928D01*
X043825Y022969D02*
Y023087D01*
Y022536D02*
Y022654D01*
Y022536D02*
X044928D01*
Y022654D01*
X044376Y022536D02*
Y023087D01*
X046676Y026986D02*
Y027537D01*
X046125Y027419D02*
Y027537D01*
X047228D01*
Y027419D02*
Y027537D01*
Y026986D02*
Y027104D01*
X046125Y026986D02*
X047228D01*
X046125D02*
Y027104D01*
X043301Y023912D02*
X043852D01*
X043734Y024463D02*
X043852D01*
Y023361D02*
Y024463D01*
X043734Y023361D02*
X043852D01*
X043301D02*
X043419D01*
X043301D02*
Y024463D01*
X043419D01*
X041178Y028069D02*
Y028187D01*
X040075D02*
X041178D01*
X040075Y028069D02*
Y028187D01*
Y027636D02*
Y027754D01*
Y027636D02*
X041178D01*
Y027754D01*
X040626Y027636D02*
Y028187D01*
X043071Y024362D02*
Y024437D01*
X042071D02*
X043071D01*
X042071Y024362D02*
Y024437D01*
Y023886D02*
Y023962D01*
Y023886D02*
X043071D01*
Y023962D01*
X042571Y023886D02*
Y024437D01*
X042026Y025936D02*
Y026487D01*
X041475Y026369D02*
Y026487D01*
X042578D01*
Y026369D02*
Y026487D01*
Y025936D02*
Y026054D01*
X041475Y025936D02*
X042578D01*
X041475D02*
Y026054D01*
X048026Y022236D02*
Y022312D01*
Y022236D02*
X049026D01*
Y022312D01*
Y022712D02*
Y022787D01*
X048026D02*
X049026D01*
X048026Y022712D02*
Y022787D01*
X048526Y022236D02*
Y022787D01*
X049026Y022886D02*
Y023437D01*
X048475Y023319D02*
Y023437D01*
X049578D01*
Y023319D02*
Y023437D01*
Y022886D02*
Y023004D01*
X048475Y022886D02*
X049578D01*
X048475D02*
Y023004D01*
X036526Y032239D02*
X036605D01*
X036526D02*
Y033026D01*
X036605D01*
X036841D02*
X03692D01*
Y032239D02*
Y033026D01*
X036841Y032239D02*
X03692D01*
X032376Y030389D02*
X032455D01*
X032376D02*
Y031176D01*
X032455D01*
X032691D02*
X03277D01*
Y030389D02*
Y031176D01*
X032691Y030389D02*
X03277D01*
X036467Y032235D02*
Y032314D01*
X035679Y032235D02*
X036467D01*
X035679D02*
Y032314D01*
Y03255D02*
Y032629D01*
X036467D01*
Y03255D02*
Y032629D01*
X034892Y032235D02*
Y032314D01*
Y032235D02*
X0356D01*
Y032314D01*
Y03255D02*
Y032629D01*
X034892D02*
X0356D01*
X034892Y03255D02*
Y032629D01*
X036217Y031435D02*
Y031514D01*
X035429Y031435D02*
X036217D01*
X035429D02*
Y031514D01*
Y03175D02*
Y031829D01*
X036217D01*
Y03175D02*
Y031829D01*
Y031014D02*
X036217Y030935D01*
X035429D02*
X036217D01*
X035429D02*
Y031014D01*
Y03125D02*
Y031329D01*
X036217D01*
X036217Y03125D02*
X036217Y031329D01*
X034741Y031928D02*
X03482D01*
Y032637D01*
X034741Y032637D02*
X03482Y032637D01*
X034426D02*
X034505Y032637D01*
X034426Y031928D02*
Y032637D01*
Y031928D02*
X034505D01*
X035241Y031455D02*
X03532D01*
Y032163D01*
X035241D02*
X03532D01*
X034926D02*
X035005D01*
X034926Y031455D02*
Y032163D01*
Y031455D02*
X035005D01*
X034323Y033732D02*
X034723D01*
X034673Y034182D02*
X034723D01*
Y033282D02*
Y034182D01*
X034673Y033282D02*
X034723D01*
X034323D02*
X034373D01*
X034323D02*
Y034182D01*
X034373D01*
X034117Y033785D02*
Y033864D01*
X033329Y033785D02*
X034117D01*
X033329D02*
Y033864D01*
Y0341D02*
Y034179D01*
X034117D01*
Y0341D02*
Y034179D01*
X032479Y0341D02*
Y034179D01*
X033267D01*
Y0341D02*
Y034179D01*
Y033785D02*
Y033864D01*
X032479Y033785D02*
X033267D01*
X032479D02*
Y033864D01*
X028274Y02919D02*
Y029308D01*
X027172D02*
X028274D01*
X027172Y02919D02*
Y029308D01*
Y028757D02*
Y028875D01*
Y028757D02*
X028274D01*
Y028875D01*
X027723Y028757D02*
Y029308D01*
X030023Y033207D02*
Y033758D01*
X029472Y03364D02*
Y033758D01*
X030574D01*
Y03364D02*
Y033758D01*
Y033207D02*
Y033325D01*
X029472Y033207D02*
X030574D01*
X029472D02*
Y033325D01*
X026647Y030132D02*
X027199D01*
X02708Y030683D02*
X027199D01*
Y029581D02*
Y030683D01*
X02708Y029581D02*
X027199D01*
X026647D02*
X026765D01*
X026647D02*
Y030683D01*
X026765D01*
X024524Y03429D02*
Y034408D01*
X023422D02*
X024524D01*
X023422Y03429D02*
Y034408D01*
Y033857D02*
Y033975D01*
Y033857D02*
X024524D01*
Y033975D01*
X023973Y033857D02*
Y034408D01*
X026417Y030582D02*
Y030658D01*
X025417D02*
X026417D01*
X025417Y030582D02*
Y030658D01*
Y030107D02*
Y030182D01*
Y030107D02*
X026417D01*
Y030182D01*
X025917Y030107D02*
Y030658D01*
X025373Y032157D02*
Y032708D01*
X024822Y03259D02*
Y032708D01*
X025924D01*
Y03259D02*
Y032708D01*
Y032157D02*
Y032275D01*
X024822Y032157D02*
X025924D01*
X024822D02*
Y032275D01*
X031373Y028457D02*
Y028532D01*
Y028457D02*
X032373D01*
Y028532D01*
Y028932D02*
Y029008D01*
X031373D02*
X032373D01*
X031373Y028932D02*
Y029008D01*
X031873Y028457D02*
Y029008D01*
X032373Y029107D02*
Y029658D01*
X031822Y02954D02*
Y029658D01*
X032924D01*
Y02954D02*
Y029658D01*
Y029107D02*
Y029225D01*
X031822Y029107D02*
X032924D01*
X031822D02*
Y029225D01*
X05318Y032239D02*
X053258D01*
X05318D02*
Y033026D01*
X053258D01*
X053495D02*
X053573D01*
Y032239D02*
Y033026D01*
X053495Y032239D02*
X053573D01*
X04903Y030389D02*
X049108D01*
X04903D02*
Y031176D01*
X049108D01*
X049345D02*
X049423D01*
Y030389D02*
Y031176D01*
X049345Y030389D02*
X049423D01*
X05312Y032235D02*
Y032314D01*
X052333Y032235D02*
X05312D01*
X052333D02*
Y032314D01*
Y03255D02*
Y032629D01*
X05312D01*
Y03255D02*
Y032629D01*
X051545Y032235D02*
Y032314D01*
Y032235D02*
X052254D01*
Y032314D01*
Y03255D02*
Y032629D01*
X051545D02*
X052254D01*
X051545Y03255D02*
Y032629D01*
X05287Y031435D02*
Y031514D01*
X052083Y031435D02*
X05287D01*
X052083D02*
Y031514D01*
Y03175D02*
Y031829D01*
X05287D01*
Y03175D02*
Y031829D01*
Y031014D02*
X05287Y030935D01*
X052083D02*
X05287D01*
X052083D02*
Y031014D01*
Y03125D02*
Y031329D01*
X05287D01*
X05287Y03125D02*
X05287Y031329D01*
X051395Y031928D02*
X051473D01*
Y032637D01*
X051395Y032637D02*
X051473Y032637D01*
X05108D02*
X051158Y032637D01*
X05108Y031928D02*
Y032637D01*
Y031928D02*
X051158D01*
X051895Y031455D02*
X051973D01*
Y032163D01*
X051895D02*
X051973D01*
X05158D02*
X051658D01*
X05158Y031455D02*
Y032163D01*
Y031455D02*
X051658D01*
X050976Y033732D02*
X051376D01*
X051326Y034182D02*
X051376D01*
Y033282D02*
Y034182D01*
X051326Y033282D02*
X051376D01*
X050976D02*
X051026D01*
X050976D02*
Y034182D01*
X051026D01*
X05077Y033785D02*
Y033864D01*
X049983Y033785D02*
X05077D01*
X049983D02*
Y033864D01*
Y0341D02*
Y034179D01*
X05077D01*
Y0341D02*
Y034179D01*
X049133Y0341D02*
Y034179D01*
X04992D01*
Y0341D02*
Y034179D01*
Y033785D02*
Y033864D01*
X049133Y033785D02*
X04992D01*
X049133D02*
Y033864D01*
X044928Y02919D02*
Y029308D01*
X043825D02*
X044928D01*
X043825Y02919D02*
Y029308D01*
Y028757D02*
Y028875D01*
Y028757D02*
X044928D01*
Y028875D01*
X044376Y028757D02*
Y029308D01*
X046676Y033207D02*
Y033758D01*
X046125Y03364D02*
Y033758D01*
X047228D01*
Y03364D02*
Y033758D01*
Y033207D02*
Y033325D01*
X046125Y033207D02*
X047228D01*
X046125D02*
Y033325D01*
X043301Y030132D02*
X043852D01*
X043734Y030683D02*
X043852D01*
Y029581D02*
Y030683D01*
X043734Y029581D02*
X043852D01*
X043301D02*
X043419D01*
X043301D02*
Y030683D01*
X043419D01*
X041178Y03429D02*
Y034408D01*
X040075D02*
X041178D01*
X040075Y03429D02*
Y034408D01*
Y033857D02*
Y033975D01*
Y033857D02*
X041178D01*
Y033975D01*
X040626Y033857D02*
Y034408D01*
X043071Y030582D02*
Y030658D01*
X042071D02*
X043071D01*
X042071Y030582D02*
Y030658D01*
Y030107D02*
Y030182D01*
Y030107D02*
X043071D01*
Y030182D01*
X042571Y030107D02*
Y030658D01*
X042026Y032157D02*
Y032708D01*
X041475Y03259D02*
Y032708D01*
X042578D01*
Y03259D02*
Y032708D01*
Y032157D02*
Y032275D01*
X041475Y032157D02*
X042578D01*
X041475D02*
Y032275D01*
X048026Y028457D02*
Y028532D01*
Y028457D02*
X049026D01*
Y028532D01*
Y028932D02*
Y029008D01*
X048026D02*
X049026D01*
X048026Y028932D02*
Y029008D01*
X048526Y028457D02*
Y029008D01*
X049026Y029107D02*
Y029658D01*
X048475Y02954D02*
Y029658D01*
X049578D01*
Y02954D02*
Y029658D01*
Y029107D02*
Y029225D01*
X048475Y029107D02*
X049578D01*
X048475D02*
Y029225D01*
X036526Y038459D02*
X036605D01*
X036526D02*
Y039246D01*
X036605D01*
X036841D02*
X03692D01*
Y038459D02*
Y039246D01*
X036841Y038459D02*
X03692D01*
X032376Y036609D02*
X032455D01*
X032376D02*
Y037396D01*
X032455D01*
X032691D02*
X03277D01*
Y036609D02*
Y037396D01*
X032691Y036609D02*
X03277D01*
X036467Y038456D02*
Y038535D01*
X035679Y038456D02*
X036467D01*
X035679D02*
Y038535D01*
Y038771D02*
Y03885D01*
X036467D01*
Y038771D02*
Y03885D01*
X034892Y038456D02*
Y038535D01*
Y038456D02*
X0356D01*
Y038535D01*
Y038771D02*
Y03885D01*
X034892D02*
X0356D01*
X034892Y038771D02*
Y03885D01*
X036217Y037656D02*
Y037735D01*
X035429Y037656D02*
X036217D01*
X035429D02*
Y037735D01*
Y037971D02*
Y03805D01*
X036217D01*
Y037971D02*
Y03805D01*
Y037235D02*
X036217Y037156D01*
X035429D02*
X036217D01*
X035429D02*
Y037235D01*
Y037471D02*
Y03755D01*
X036217D01*
X036217Y037471D02*
X036217Y03755D01*
X034741Y038148D02*
X03482D01*
Y038857D01*
X034741Y038857D02*
X03482Y038857D01*
X034426D02*
X034505Y038857D01*
X034426Y038148D02*
Y038857D01*
Y038148D02*
X034505D01*
X035241Y037675D02*
X03532D01*
Y038384D01*
X035241D02*
X03532D01*
X034926D02*
X035005D01*
X034926Y037675D02*
Y038384D01*
Y037675D02*
X035005D01*
X034323Y039953D02*
X034723D01*
X034673Y040403D02*
X034723D01*
Y039503D02*
Y040403D01*
X034673Y039503D02*
X034723D01*
X034323D02*
X034373D01*
X034323D02*
Y040403D01*
X034373D01*
X034117Y040006D02*
Y040085D01*
X033329Y040006D02*
X034117D01*
X033329D02*
Y040085D01*
Y040321D02*
Y0404D01*
X034117D01*
Y040321D02*
Y0404D01*
X032479Y040321D02*
Y0404D01*
X033267D01*
Y040321D02*
Y0404D01*
Y040006D02*
Y040085D01*
X032479Y040006D02*
X033267D01*
X032479D02*
Y040085D01*
X028274Y03541D02*
Y035528D01*
X027172D02*
X028274D01*
X027172Y03541D02*
Y035528D01*
Y034977D02*
Y035095D01*
Y034977D02*
X028274D01*
Y035095D01*
X027723Y034977D02*
Y035528D01*
X030023Y039427D02*
Y039978D01*
X029472Y03986D02*
Y039978D01*
X030574D01*
Y03986D02*
Y039978D01*
Y039427D02*
Y039545D01*
X029472Y039427D02*
X030574D01*
X029472D02*
Y039545D01*
X026647Y036353D02*
X027199D01*
X02708Y036904D02*
X027199D01*
Y035802D02*
Y036904D01*
X02708Y035802D02*
X027199D01*
X026647D02*
X026765D01*
X026647D02*
Y036904D01*
X026765D01*
X024524Y04051D02*
Y040628D01*
X023422D02*
X024524D01*
X023422Y04051D02*
Y040628D01*
Y040077D02*
Y040195D01*
Y040077D02*
X024524D01*
Y040195D01*
X023973Y040077D02*
Y040628D01*
X026417Y036803D02*
Y036878D01*
X025417D02*
X026417D01*
X025417Y036803D02*
Y036878D01*
Y036327D02*
Y036403D01*
Y036327D02*
X026417D01*
Y036403D01*
X025917Y036327D02*
Y036878D01*
X025373Y038377D02*
Y038928D01*
X024822Y03881D02*
Y038928D01*
X025924D01*
Y03881D02*
Y038928D01*
Y038377D02*
Y038495D01*
X024822Y038377D02*
X025924D01*
X024822D02*
Y038495D01*
X031373Y034677D02*
Y034753D01*
Y034677D02*
X032373D01*
Y034753D01*
Y035153D02*
Y035228D01*
X031373D02*
X032373D01*
X031373Y035153D02*
Y035228D01*
X031873Y034677D02*
Y035228D01*
X032373Y035327D02*
Y035878D01*
X031822Y03576D02*
Y035878D01*
X032924D01*
Y03576D02*
Y035878D01*
Y035327D02*
Y035445D01*
X031822Y035327D02*
X032924D01*
X031822D02*
Y035445D01*
X05318Y038459D02*
X053258D01*
X05318D02*
Y039246D01*
X053258D01*
X053495D02*
X053573D01*
Y038459D02*
Y039246D01*
X053495Y038459D02*
X053573D01*
X04903Y036609D02*
X049108D01*
X04903D02*
Y037396D01*
X049108D01*
X049345D02*
X049423D01*
Y036609D02*
Y037396D01*
X049345Y036609D02*
X049423D01*
X05312Y038456D02*
Y038535D01*
X052333Y038456D02*
X05312D01*
X052333D02*
Y038535D01*
Y038771D02*
Y03885D01*
X05312D01*
Y038771D02*
Y03885D01*
X051545Y038456D02*
Y038535D01*
Y038456D02*
X052254D01*
Y038535D01*
Y038771D02*
Y03885D01*
X051545D02*
X052254D01*
X051545Y038771D02*
Y03885D01*
X05287Y037656D02*
Y037735D01*
X052083Y037656D02*
X05287D01*
X052083D02*
Y037735D01*
Y037971D02*
Y03805D01*
X05287D01*
Y037971D02*
Y03805D01*
Y037235D02*
X05287Y037156D01*
X052083D02*
X05287D01*
X052083D02*
Y037235D01*
Y037471D02*
Y03755D01*
X05287D01*
X05287Y037471D02*
X05287Y03755D01*
X051395Y038148D02*
X051473D01*
Y038857D01*
X051395Y038857D02*
X051473Y038857D01*
X05108D02*
X051158Y038857D01*
X05108Y038148D02*
Y038857D01*
Y038148D02*
X051158D01*
X051895Y037675D02*
X051973D01*
Y038384D01*
X051895D02*
X051973D01*
X05158D02*
X051658D01*
X05158Y037675D02*
Y038384D01*
Y037675D02*
X051658D01*
X050976Y039953D02*
X051376D01*
X051326Y040403D02*
X051376D01*
Y039503D02*
Y040403D01*
X051326Y039503D02*
X051376D01*
X050976D02*
X051026D01*
X050976D02*
Y040403D01*
X051026D01*
X05077Y040006D02*
Y040085D01*
X049983Y040006D02*
X05077D01*
X049983D02*
Y040085D01*
Y040321D02*
Y0404D01*
X05077D01*
Y040321D02*
Y0404D01*
X049133Y040321D02*
Y0404D01*
X04992D01*
Y040321D02*
Y0404D01*
Y040006D02*
Y040085D01*
X049133Y040006D02*
X04992D01*
X049133D02*
Y040085D01*
X044928Y03541D02*
Y035528D01*
X043825D02*
X044928D01*
X043825Y03541D02*
Y035528D01*
Y034977D02*
Y035095D01*
Y034977D02*
X044928D01*
Y035095D01*
X044376Y034977D02*
Y035528D01*
X046676Y039427D02*
Y039978D01*
X046125Y03986D02*
Y039978D01*
X047228D01*
Y03986D02*
Y039978D01*
Y039427D02*
Y039545D01*
X046125Y039427D02*
X047228D01*
X046125D02*
Y039545D01*
X043301Y036353D02*
X043852D01*
X043734Y036904D02*
X043852D01*
Y035802D02*
Y036904D01*
X043734Y035802D02*
X043852D01*
X043301D02*
X043419D01*
X043301D02*
Y036904D01*
X043419D01*
X041178Y04051D02*
Y040628D01*
X040075D02*
X041178D01*
X040075Y04051D02*
Y040628D01*
Y040077D02*
Y040195D01*
Y040077D02*
X041178D01*
Y040195D01*
X040626Y040077D02*
Y040628D01*
X043071Y036803D02*
Y036878D01*
X042071D02*
X043071D01*
X042071Y036803D02*
Y036878D01*
Y036327D02*
Y036403D01*
Y036327D02*
X043071D01*
Y036403D01*
X042571Y036327D02*
Y036878D01*
X042026Y038377D02*
Y038928D01*
X041475Y03881D02*
Y038928D01*
X042578D01*
Y03881D02*
Y038928D01*
Y038377D02*
Y038495D01*
X041475Y038377D02*
X042578D01*
X041475D02*
Y038495D01*
X048026Y034677D02*
Y034753D01*
Y034677D02*
X049026D01*
Y034753D01*
Y035153D02*
Y035228D01*
X048026D02*
X049026D01*
X048026Y035153D02*
Y035228D01*
X048526Y034677D02*
Y035228D01*
X049026Y035327D02*
Y035878D01*
X048475Y03576D02*
Y035878D01*
X049578D01*
Y03576D02*
Y035878D01*
Y035327D02*
Y035445D01*
X048475Y035327D02*
X049578D01*
X048475D02*
Y035445D01*
X036526Y04468D02*
X036605D01*
X036526D02*
Y045467D01*
X036605D01*
X036841D02*
X03692D01*
Y04468D02*
Y045467D01*
X036841Y04468D02*
X03692D01*
X032376Y04283D02*
X032455D01*
X032376D02*
Y043617D01*
X032455D01*
X032691D02*
X03277D01*
Y04283D02*
Y043617D01*
X032691Y04283D02*
X03277D01*
X036467Y044676D02*
Y044755D01*
X035679Y044676D02*
X036467D01*
X035679D02*
Y044755D01*
Y044991D02*
Y04507D01*
X036467D01*
Y044991D02*
Y04507D01*
X034892Y044676D02*
Y044755D01*
Y044676D02*
X0356D01*
Y044755D01*
Y044991D02*
Y04507D01*
X034892D02*
X0356D01*
X034892Y044991D02*
Y04507D01*
X036217Y043876D02*
Y043955D01*
X035429Y043876D02*
X036217D01*
X035429D02*
Y043955D01*
Y044191D02*
Y04427D01*
X036217D01*
Y044191D02*
Y04427D01*
Y043455D02*
X036217Y043376D01*
X035429D02*
X036217D01*
X035429D02*
Y043455D01*
Y043691D02*
Y04377D01*
X036217D01*
X036217Y043691D02*
X036217Y04377D01*
X034741Y044369D02*
X03482D01*
Y045078D01*
X034741Y045078D02*
X03482Y045078D01*
X034426D02*
X034505Y045078D01*
X034426Y044369D02*
Y045078D01*
Y044369D02*
X034505D01*
X035241Y043896D02*
X03532D01*
Y044604D01*
X035241D02*
X03532D01*
X034926D02*
X035005D01*
X034926Y043896D02*
Y044604D01*
Y043896D02*
X035005D01*
X034323Y046173D02*
X034723D01*
X034673Y046623D02*
X034723D01*
Y045723D02*
Y046623D01*
X034673Y045723D02*
X034723D01*
X034323D02*
X034373D01*
X034323D02*
Y046623D01*
X034373D01*
X034117Y046226D02*
Y046305D01*
X033329Y046226D02*
X034117D01*
X033329D02*
Y046305D01*
Y046541D02*
Y04662D01*
X034117D01*
Y046541D02*
Y04662D01*
X032479Y046541D02*
Y04662D01*
X033267D01*
Y046541D02*
Y04662D01*
Y046226D02*
Y046305D01*
X032479Y046226D02*
X033267D01*
X032479D02*
Y046305D01*
X028274Y041631D02*
Y041749D01*
X027172D02*
X028274D01*
X027172Y041631D02*
Y041749D01*
Y041198D02*
Y041316D01*
Y041198D02*
X028274D01*
Y041316D01*
X027723Y041198D02*
Y041749D01*
X030023Y045648D02*
Y046199D01*
X029472Y046081D02*
Y046199D01*
X030574D01*
Y046081D02*
Y046199D01*
Y045648D02*
Y045766D01*
X029472Y045648D02*
X030574D01*
X029472D02*
Y045766D01*
X026647Y042573D02*
X027199D01*
X02708Y043124D02*
X027199D01*
Y042022D02*
Y043124D01*
X02708Y042022D02*
X027199D01*
X026647D02*
X026765D01*
X026647D02*
Y043124D01*
X026765D01*
X024524Y046731D02*
Y046849D01*
X023422D02*
X024524D01*
X023422Y046731D02*
Y046849D01*
Y046298D02*
Y046416D01*
Y046298D02*
X024524D01*
Y046416D01*
X023973Y046298D02*
Y046849D01*
X026417Y043023D02*
Y043099D01*
X025417D02*
X026417D01*
X025417Y043023D02*
Y043099D01*
Y042548D02*
Y042623D01*
Y042548D02*
X026417D01*
Y042623D01*
X025917Y042548D02*
Y043099D01*
X025373Y044598D02*
Y045149D01*
X024822Y045031D02*
Y045149D01*
X025924D01*
Y045031D02*
Y045149D01*
Y044598D02*
Y044716D01*
X024822Y044598D02*
X025924D01*
X024822D02*
Y044716D01*
X031373Y040898D02*
Y040973D01*
Y040898D02*
X032373D01*
Y040973D01*
Y041373D02*
Y041449D01*
X031373D02*
X032373D01*
X031373Y041373D02*
Y041449D01*
X031873Y040898D02*
Y041449D01*
X032373Y041548D02*
Y042099D01*
X031822Y041981D02*
Y042099D01*
X032924D01*
Y041981D02*
Y042099D01*
Y041548D02*
Y041666D01*
X031822Y041548D02*
X032924D01*
X031822D02*
Y041666D01*
X05318Y04468D02*
X053258D01*
X05318D02*
Y045467D01*
X053258D01*
X053495D02*
X053573D01*
Y04468D02*
Y045467D01*
X053495Y04468D02*
X053573D01*
X04903Y04283D02*
X049108D01*
X04903D02*
Y043617D01*
X049108D01*
X049345D02*
X049423D01*
Y04283D02*
Y043617D01*
X049345Y04283D02*
X049423D01*
X05312Y044676D02*
Y044755D01*
X052333Y044676D02*
X05312D01*
X052333D02*
Y044755D01*
Y044991D02*
Y04507D01*
X05312D01*
Y044991D02*
Y04507D01*
X051545Y044676D02*
Y044755D01*
Y044676D02*
X052254D01*
Y044755D01*
Y044991D02*
Y04507D01*
X051545D02*
X052254D01*
X051545Y044991D02*
Y04507D01*
X05287Y043876D02*
Y043955D01*
X052083Y043876D02*
X05287D01*
X052083D02*
Y043955D01*
Y044191D02*
Y04427D01*
X05287D01*
Y044191D02*
Y04427D01*
Y043455D02*
X05287Y043376D01*
X052083D02*
X05287D01*
X052083D02*
Y043455D01*
Y043691D02*
Y04377D01*
X05287D01*
X05287Y043691D02*
X05287Y04377D01*
X051395Y044369D02*
X051473D01*
Y045078D01*
X051395Y045078D02*
X051473Y045078D01*
X05108D02*
X051158Y045078D01*
X05108Y044369D02*
Y045078D01*
Y044369D02*
X051158D01*
X051895Y043896D02*
X051973D01*
Y044604D01*
X051895D02*
X051973D01*
X05158D02*
X051658D01*
X05158Y043896D02*
Y044604D01*
Y043896D02*
X051658D01*
X050976Y046173D02*
X051376D01*
X051326Y046623D02*
X051376D01*
Y045723D02*
Y046623D01*
X051326Y045723D02*
X051376D01*
X050976D02*
X051026D01*
X050976D02*
Y046623D01*
X051026D01*
X05077Y046226D02*
Y046305D01*
X049983Y046226D02*
X05077D01*
X049983D02*
Y046305D01*
Y046541D02*
Y04662D01*
X05077D01*
Y046541D02*
Y04662D01*
X049133Y046541D02*
Y04662D01*
X04992D01*
Y046541D02*
Y04662D01*
Y046226D02*
Y046305D01*
X049133Y046226D02*
X04992D01*
X049133D02*
Y046305D01*
X044928Y041631D02*
Y041749D01*
X043825D02*
X044928D01*
X043825Y041631D02*
Y041749D01*
Y041198D02*
Y041316D01*
Y041198D02*
X044928D01*
Y041316D01*
X044376Y041198D02*
Y041749D01*
X046676Y045648D02*
Y046199D01*
X046125Y046081D02*
Y046199D01*
X047228D01*
Y046081D02*
Y046199D01*
Y045648D02*
Y045766D01*
X046125Y045648D02*
X047228D01*
X046125D02*
Y045766D01*
X043301Y042573D02*
X043852D01*
X043734Y043124D02*
X043852D01*
Y042022D02*
Y043124D01*
X043734Y042022D02*
X043852D01*
X043301D02*
X043419D01*
X043301D02*
Y043124D01*
X043419D01*
X041178Y046731D02*
Y046849D01*
X040075D02*
X041178D01*
X040075Y046731D02*
Y046849D01*
Y046298D02*
Y046416D01*
Y046298D02*
X041178D01*
Y046416D01*
X040626Y046298D02*
Y046849D01*
X043071Y043023D02*
Y043099D01*
X042071D02*
X043071D01*
X042071Y043023D02*
Y043099D01*
Y042548D02*
Y042623D01*
Y042548D02*
X043071D01*
Y042623D01*
X042571Y042548D02*
Y043099D01*
X042026Y044598D02*
Y045149D01*
X041475Y045031D02*
Y045149D01*
X042578D01*
Y045031D02*
Y045149D01*
Y044598D02*
Y044716D01*
X041475Y044598D02*
X042578D01*
X041475D02*
Y044716D01*
X048026Y040898D02*
Y040973D01*
Y040898D02*
X049026D01*
Y040973D01*
Y041373D02*
Y041449D01*
X048026D02*
X049026D01*
X048026Y041373D02*
Y041449D01*
X048526Y040898D02*
Y041449D01*
X049026Y041548D02*
Y042099D01*
X048475Y041981D02*
Y042099D01*
X049578D01*
Y041981D02*
Y042099D01*
Y041548D02*
Y041666D01*
X048475Y041548D02*
X049578D01*
X048475D02*
Y041666D01*
D58*
X032484Y02069D02*
Y020828D01*
Y019253D02*
Y019391D01*
X034059Y02069D02*
Y020828D01*
Y019253D02*
Y019391D01*
X032484Y020828D02*
X032622D01*
X032484Y019253D02*
X032622D01*
X033921Y020828D02*
X034059D01*
X033921Y019253D02*
X034059D01*
X032919Y017835D02*
Y018347D01*
X034179Y017835D02*
Y018347D01*
X024853Y018325D02*
X025493D01*
X024853Y019557D02*
X025493D01*
X027136Y020154D02*
Y021729D01*
X02871Y020154D02*
Y021729D01*
X027136D02*
X02871D01*
X027136Y020154D02*
X02871D01*
X049138Y02069D02*
Y020828D01*
Y019253D02*
Y019391D01*
X050713Y02069D02*
Y020828D01*
Y019253D02*
Y019391D01*
X049138Y020828D02*
X049276D01*
X049138Y019253D02*
X049276D01*
X050575Y020828D02*
X050713D01*
X050575Y019253D02*
X050713D01*
X049573Y017835D02*
Y018347D01*
X050832Y017835D02*
Y018347D01*
X041507Y018325D02*
X042146D01*
X041507Y019557D02*
X042146D01*
X043789Y020154D02*
Y021729D01*
X045364Y020154D02*
Y021729D01*
X043789D02*
X045364D01*
X043789Y020154D02*
X045364D01*
X032484Y02691D02*
Y027048D01*
Y025473D02*
Y025611D01*
X034059Y02691D02*
Y027048D01*
Y025473D02*
Y025611D01*
X032484Y027048D02*
X032622D01*
X032484Y025473D02*
X032622D01*
X033921Y027048D02*
X034059D01*
X033921Y025473D02*
X034059D01*
X032919Y024056D02*
Y024568D01*
X034179Y024056D02*
Y024568D01*
X024853Y024546D02*
X025493D01*
X024853Y025778D02*
X025493D01*
X027136Y026374D02*
Y027949D01*
X02871Y026374D02*
Y027949D01*
X027136D02*
X02871D01*
X027136Y026374D02*
X02871D01*
X049138Y02691D02*
Y027048D01*
Y025473D02*
Y025611D01*
X050713Y02691D02*
Y027048D01*
Y025473D02*
Y025611D01*
X049138Y027048D02*
X049276D01*
X049138Y025473D02*
X049276D01*
X050575Y027048D02*
X050713D01*
X050575Y025473D02*
X050713D01*
X049573Y024056D02*
Y024568D01*
X050832Y024056D02*
Y024568D01*
X041507Y024546D02*
X042146D01*
X041507Y025778D02*
X042146D01*
X043789Y026374D02*
Y027949D01*
X045364Y026374D02*
Y027949D01*
X043789D02*
X045364D01*
X043789Y026374D02*
X045364D01*
X032484Y033131D02*
Y033268D01*
Y031694D02*
Y031831D01*
X034059Y033131D02*
Y033268D01*
Y031694D02*
Y031831D01*
X032484Y033268D02*
X032622D01*
X032484Y031694D02*
X032622D01*
X033921Y033268D02*
X034059D01*
X033921Y031694D02*
X034059D01*
X032919Y030276D02*
Y030788D01*
X034179Y030276D02*
Y030788D01*
X024853Y030766D02*
X025493D01*
X024853Y031998D02*
X025493D01*
X027136Y032595D02*
Y03417D01*
X02871Y032595D02*
Y03417D01*
X027136D02*
X02871D01*
X027136Y032595D02*
X02871D01*
X049138Y033131D02*
Y033268D01*
Y031694D02*
Y031831D01*
X050713Y033131D02*
Y033268D01*
Y031694D02*
Y031831D01*
X049138Y033268D02*
X049276D01*
X049138Y031694D02*
X049276D01*
X050575Y033268D02*
X050713D01*
X050575Y031694D02*
X050713D01*
X049573Y030276D02*
Y030788D01*
X050832Y030276D02*
Y030788D01*
X041507Y030766D02*
X042146D01*
X041507Y031998D02*
X042146D01*
X043789Y032595D02*
Y03417D01*
X045364Y032595D02*
Y03417D01*
X043789D02*
X045364D01*
X043789Y032595D02*
X045364D01*
X032484Y039351D02*
Y039489D01*
Y037914D02*
Y038052D01*
X034059Y039351D02*
Y039489D01*
Y037914D02*
Y038052D01*
X032484Y039489D02*
X032622D01*
X032484Y037914D02*
X032622D01*
X033921Y039489D02*
X034059D01*
X033921Y037914D02*
X034059D01*
X032919Y036497D02*
Y037009D01*
X034179Y036497D02*
Y037009D01*
X024853Y036987D02*
X025493D01*
X024853Y038219D02*
X025493D01*
X027136Y038815D02*
Y04039D01*
X02871Y038815D02*
Y04039D01*
X027136D02*
X02871D01*
X027136Y038815D02*
X02871D01*
X049138Y039351D02*
Y039489D01*
Y037914D02*
Y038052D01*
X050713Y039351D02*
Y039489D01*
Y037914D02*
Y038052D01*
X049138Y039489D02*
X049276D01*
X049138Y037914D02*
X049276D01*
X050575Y039489D02*
X050713D01*
X050575Y037914D02*
X050713D01*
X049573Y036497D02*
Y037009D01*
X050832Y036497D02*
Y037009D01*
X041507Y036987D02*
X042146D01*
X041507Y038219D02*
X042146D01*
X043789Y038815D02*
Y04039D01*
X045364Y038815D02*
Y04039D01*
X043789D02*
X045364D01*
X043789Y038815D02*
X045364D01*
X032484Y045572D02*
Y045709D01*
Y044135D02*
Y044272D01*
X034059Y045572D02*
Y045709D01*
Y044135D02*
Y044272D01*
X032484Y045709D02*
X032622D01*
X032484Y044135D02*
X032622D01*
X033921Y045709D02*
X034059D01*
X033921Y044135D02*
X034059D01*
X032919Y042717D02*
Y043229D01*
X034179Y042717D02*
Y043229D01*
X024853Y043207D02*
X025493D01*
X024853Y044439D02*
X025493D01*
X027136Y045036D02*
Y046611D01*
X02871Y045036D02*
Y046611D01*
X027136D02*
X02871D01*
X027136Y045036D02*
X02871D01*
X049138Y045572D02*
Y045709D01*
Y044135D02*
Y044272D01*
X050713Y045572D02*
Y045709D01*
Y044135D02*
Y044272D01*
X049138Y045709D02*
X049276D01*
X049138Y044135D02*
X049276D01*
X050575Y045709D02*
X050713D01*
X050575Y044135D02*
X050713D01*
X049573Y042717D02*
Y043229D01*
X050832Y042717D02*
Y043229D01*
X041507Y043207D02*
X042146D01*
X041507Y044439D02*
X042146D01*
X043789Y045036D02*
Y046611D01*
X045364Y045036D02*
Y046611D01*
X043789D02*
X045364D01*
X043789Y045036D02*
X045364D01*
D59*
X02649Y02065D02*
X026448Y020691D01*
X026365D01*
X026323Y02065D01*
Y020483D01*
X026365Y020441D01*
X026448D01*
X02649Y020483D01*
X026573Y020691D02*
Y020441D01*
X026739D01*
X026823Y020691D02*
Y020441D01*
Y020525D01*
X026989Y020691D01*
X026864Y020566D01*
X026989Y020441D01*
X028823Y020691D02*
Y020441D01*
X028948D01*
X02899Y020483D01*
Y02065D01*
X028948Y020691D01*
X028823D01*
X029073D02*
X029156D01*
X029114D01*
Y020441D01*
X029073D01*
X029156D01*
X029406Y020691D02*
X029323D01*
X029281Y02065D01*
Y020483D01*
X029323Y020441D01*
X029406D01*
X029448Y020483D01*
Y02065D01*
X029406Y020691D01*
X02899Y02165D02*
X028948Y021691D01*
X028865D01*
X028823Y02165D01*
Y021483D01*
X028865Y021441D01*
X028948D01*
X02899Y021483D01*
Y021566D01*
X028906D01*
X029073Y021441D02*
Y021691D01*
X029239Y021441D01*
Y021691D01*
X029323D02*
Y021441D01*
X029448D01*
X029489Y021483D01*
Y02165D01*
X029448Y021691D01*
X029323D01*
X02675Y021701D02*
X026583D01*
Y021576D01*
X026666Y021618D01*
X026708D01*
X02675Y021576D01*
Y021493D01*
X026708Y021451D01*
X026625D01*
X026583Y021493D01*
X026833Y021701D02*
Y021535D01*
X026916Y021451D01*
X026999Y021535D01*
Y021701D01*
X022777Y021775D02*
X022735Y021816D01*
X022652D01*
X022611Y021775D01*
Y021608D01*
X022652Y021566D01*
X022735D01*
X022777Y021608D01*
X02286Y021566D02*
X022944D01*
X022902D01*
Y021816D01*
X02286Y021775D01*
X023069D02*
X02311Y021816D01*
X023194D01*
X023235Y021775D01*
Y021733D01*
X023194Y021691D01*
X023152D01*
X023194D01*
X023235Y02165D01*
Y021608D01*
X023194Y021566D01*
X02311D01*
X023069Y021608D01*
X033365Y017566D02*
Y017525D01*
X033448Y017441D01*
X033531Y017525D01*
Y017566D01*
X033448Y017441D02*
Y017316D01*
X033781D02*
X033615D01*
X033781Y017483D01*
Y017525D01*
X03374Y017566D01*
X033656D01*
X033615Y017525D01*
X024865Y017816D02*
Y018066D01*
X02499D01*
X025031Y018025D01*
Y017941D01*
X02499Y0179D01*
X024865D01*
X024948D02*
X025031Y017816D01*
X025115Y018025D02*
X025156Y018066D01*
X02524D01*
X025281Y018025D01*
Y017983D01*
X02524Y017941D01*
X025281Y0179D01*
Y017858D01*
X02524Y017816D01*
X025156D01*
X025115Y017858D01*
Y0179D01*
X025156Y017941D01*
X025115Y017983D01*
Y018025D01*
X025156Y017941D02*
X02524D01*
X034815Y021416D02*
Y021666D01*
X03494D01*
X034981Y021625D01*
Y021541D01*
X03494Y0215D01*
X034815D01*
X034898D02*
X034981Y021416D01*
X035065Y021625D02*
X035106Y021666D01*
X03519D01*
X035231Y021625D01*
Y021583D01*
X03519Y021541D01*
X035148D01*
X03519D01*
X035231Y0215D01*
Y021458D01*
X03519Y021416D01*
X035106D01*
X035065Y021458D01*
X030906Y016116D02*
Y016366D01*
X031031D01*
X031073Y016325D01*
Y016241D01*
X031031Y0162D01*
X030906D01*
X03099D02*
X031073Y016116D01*
X031156D02*
X03124D01*
X031198D01*
Y016366D01*
X031156Y016325D01*
X024773Y016458D02*
Y016625D01*
X024731Y016666D01*
X024648D01*
X024606Y016625D01*
Y016458D01*
X024648Y016416D01*
X024731D01*
X02469Y0165D02*
X024773Y016416D01*
X024731D02*
X024773Y016458D01*
X024856Y016416D02*
X02494D01*
X024898D01*
Y016666D01*
X024856Y016625D01*
X035015Y020516D02*
Y020266D01*
X035181D01*
X035265Y020475D02*
X035306Y020516D01*
X03539D01*
X035431Y020475D01*
Y020433D01*
X03539Y020391D01*
X035348D01*
X03539D01*
X035431Y02035D01*
Y020308D01*
X03539Y020266D01*
X035306D01*
X035265Y020308D01*
X034365Y019366D02*
Y019116D01*
X034531D01*
X034781D02*
X034615D01*
X034781Y019283D01*
Y019325D01*
X03474Y019366D01*
X034656D01*
X034615Y019325D01*
X034956Y018916D02*
Y018666D01*
X035123D01*
X035206D02*
X03529D01*
X035248D01*
Y018916D01*
X035206Y018875D01*
X033227Y017025D02*
X033185Y017066D01*
X033102D01*
X033061Y017025D01*
Y016858D01*
X033102Y016816D01*
X033185D01*
X033227Y016858D01*
X03331Y016816D02*
X033394D01*
X033352D01*
Y017066D01*
X03331Y017025D01*
X033644Y016816D02*
Y017066D01*
X033519Y016941D01*
X033685D01*
X026669Y017025D02*
X026627Y017066D01*
X026544D01*
X026502Y017025D01*
Y016858D01*
X026544Y016816D01*
X026627D01*
X026669Y016858D01*
X026752Y016816D02*
X026835D01*
X026794D01*
Y017066D01*
X026752Y017025D01*
X02696Y016816D02*
X027044D01*
X027002D01*
Y017066D01*
X02696Y017025D01*
X029993Y021675D02*
X029951Y021716D01*
X029868D01*
X029826Y021675D01*
Y021508D01*
X029868Y021466D01*
X029951D01*
X029993Y021508D01*
X030076Y021466D02*
X030159D01*
X030118D01*
Y021716D01*
X030076Y021675D01*
X030284D02*
X030326Y021716D01*
X030409D01*
X030451Y021675D01*
Y021508D01*
X030409Y021466D01*
X030326D01*
X030284Y021508D01*
Y021675D01*
X026781Y016675D02*
X02674Y016716D01*
X026656D01*
X026615Y016675D01*
Y016508D01*
X026656Y016466D01*
X02674D01*
X026781Y016508D01*
X026865D02*
X026906Y016466D01*
X02699D01*
X027031Y016508D01*
Y016675D01*
X02699Y016716D01*
X026906D01*
X026865Y016675D01*
Y016633D01*
X026906Y016591D01*
X027031D01*
X033981Y021225D02*
X03394Y021266D01*
X033856D01*
X033815Y021225D01*
Y021058D01*
X033856Y021016D01*
X03394D01*
X033981Y021058D01*
X034065Y021225D02*
X034106Y021266D01*
X03419D01*
X034231Y021225D01*
Y021183D01*
X03419Y021141D01*
X034231Y0211D01*
Y021058D01*
X03419Y021016D01*
X034106D01*
X034065Y021058D01*
Y0211D01*
X034106Y021141D01*
X034065Y021183D01*
Y021225D01*
X034106Y021141D02*
X03419D01*
X032481Y017775D02*
X03244Y017816D01*
X032356D01*
X032315Y017775D01*
Y017608D01*
X032356Y017566D01*
X03244D01*
X032481Y017608D01*
X032565Y017816D02*
X032731D01*
Y017775D01*
X032565Y017608D01*
Y017566D01*
X026231Y020075D02*
X02619Y020116D01*
X026106D01*
X026065Y020075D01*
Y019908D01*
X026106Y019866D01*
X02619D01*
X026231Y019908D01*
X026481Y020116D02*
X026398Y020075D01*
X026315Y019991D01*
Y019908D01*
X026356Y019866D01*
X02644D01*
X026481Y019908D01*
Y01995D01*
X02644Y019991D01*
X026315D01*
X036681Y020925D02*
X03664Y020966D01*
X036556D01*
X036515Y020925D01*
Y020758D01*
X036556Y020716D01*
X03664D01*
X036681Y020758D01*
X036931Y020966D02*
X036765D01*
Y020841D01*
X036848Y020883D01*
X03689D01*
X036931Y020841D01*
Y020758D01*
X03689Y020716D01*
X036806D01*
X036765Y020758D01*
X036031Y020475D02*
X03599Y020516D01*
X035906D01*
X035865Y020475D01*
Y020308D01*
X035906Y020266D01*
X03599D01*
X036031Y020308D01*
X03624Y020266D02*
Y020516D01*
X036115Y020391D01*
X036281D01*
X036481Y018725D02*
X03644Y018766D01*
X036356D01*
X036315Y018725D01*
Y018558D01*
X036356Y018516D01*
X03644D01*
X036481Y018558D01*
X036565Y018725D02*
X036606Y018766D01*
X03669D01*
X036731Y018725D01*
Y018683D01*
X03669Y018641D01*
X036648D01*
X03669D01*
X036731Y0186D01*
Y018558D01*
X03669Y018516D01*
X036606D01*
X036565Y018558D01*
X036481Y019225D02*
X03644Y019266D01*
X036356D01*
X036315Y019225D01*
Y019058D01*
X036356Y019016D01*
X03644D01*
X036481Y019058D01*
X036731Y019016D02*
X036565D01*
X036731Y019183D01*
Y019225D01*
X03669Y019266D01*
X036606D01*
X036565Y019225D01*
X032173Y021625D02*
X032131Y021666D01*
X032048D01*
X032006Y021625D01*
Y021458D01*
X032048Y021416D01*
X032131D01*
X032173Y021458D01*
X032256Y021416D02*
X03234D01*
X032298D01*
Y021666D01*
X032256Y021625D01*
X043143Y02065D02*
X043101Y020691D01*
X043018D01*
X042976Y02065D01*
Y020483D01*
X043018Y020441D01*
X043101D01*
X043143Y020483D01*
X043226Y020691D02*
Y020441D01*
X043393D01*
X043476Y020691D02*
Y020441D01*
Y020525D01*
X043643Y020691D01*
X043518Y020566D01*
X043643Y020441D01*
X045476Y020691D02*
Y020441D01*
X045601D01*
X045643Y020483D01*
Y02065D01*
X045601Y020691D01*
X045476D01*
X045726D02*
X04581D01*
X045768D01*
Y020441D01*
X045726D01*
X04581D01*
X04606Y020691D02*
X045976D01*
X045935Y02065D01*
Y020483D01*
X045976Y020441D01*
X04606D01*
X046101Y020483D01*
Y02065D01*
X04606Y020691D01*
X045643Y02165D02*
X045601Y021691D01*
X045518D01*
X045476Y02165D01*
Y021483D01*
X045518Y021441D01*
X045601D01*
X045643Y021483D01*
Y021566D01*
X04556D01*
X045726Y021441D02*
Y021691D01*
X045893Y021441D01*
Y021691D01*
X045976D02*
Y021441D01*
X046101D01*
X046143Y021483D01*
Y02165D01*
X046101Y021691D01*
X045976D01*
X043403Y021701D02*
X043236D01*
Y021576D01*
X04332Y021618D01*
X043361D01*
X043403Y021576D01*
Y021493D01*
X043361Y021451D01*
X043278D01*
X043236Y021493D01*
X043486Y021701D02*
Y021535D01*
X04357Y021451D01*
X043653Y021535D01*
Y021701D01*
X039431Y021775D02*
X039389Y021816D01*
X039306D01*
X039264Y021775D01*
Y021608D01*
X039306Y021566D01*
X039389D01*
X039431Y021608D01*
X039514Y021566D02*
X039597D01*
X039556D01*
Y021816D01*
X039514Y021775D01*
X039722D02*
X039764Y021816D01*
X039847D01*
X039889Y021775D01*
Y021733D01*
X039847Y021691D01*
X039806D01*
X039847D01*
X039889Y02165D01*
Y021608D01*
X039847Y021566D01*
X039764D01*
X039722Y021608D01*
X050018Y017566D02*
Y017525D01*
X050101Y017441D01*
X050185Y017525D01*
Y017566D01*
X050101Y017441D02*
Y017316D01*
X050435D02*
X050268D01*
X050435Y017483D01*
Y017525D01*
X050393Y017566D01*
X05031D01*
X050268Y017525D01*
X041518Y017816D02*
Y018066D01*
X041643D01*
X041685Y018025D01*
Y017941D01*
X041643Y0179D01*
X041518D01*
X041601D02*
X041685Y017816D01*
X041768Y018025D02*
X04181Y018066D01*
X041893D01*
X041935Y018025D01*
Y017983D01*
X041893Y017941D01*
X041935Y0179D01*
Y017858D01*
X041893Y017816D01*
X04181D01*
X041768Y017858D01*
Y0179D01*
X04181Y017941D01*
X041768Y017983D01*
Y018025D01*
X04181Y017941D02*
X041893D01*
X051468Y021416D02*
Y021666D01*
X051593D01*
X051635Y021625D01*
Y021541D01*
X051593Y0215D01*
X051468D01*
X051551D02*
X051635Y021416D01*
X051718Y021625D02*
X05176Y021666D01*
X051843D01*
X051885Y021625D01*
Y021583D01*
X051843Y021541D01*
X051801D01*
X051843D01*
X051885Y0215D01*
Y021458D01*
X051843Y021416D01*
X05176D01*
X051718Y021458D01*
X04756Y016116D02*
Y016366D01*
X047685D01*
X047726Y016325D01*
Y016241D01*
X047685Y0162D01*
X04756D01*
X047643D02*
X047726Y016116D01*
X04781D02*
X047893D01*
X047851D01*
Y016366D01*
X04781Y016325D01*
X041426Y016458D02*
Y016625D01*
X041385Y016666D01*
X041301D01*
X04126Y016625D01*
Y016458D01*
X041301Y016416D01*
X041385D01*
X041343Y0165D02*
X041426Y016416D01*
X041385D02*
X041426Y016458D01*
X04151Y016416D02*
X041593D01*
X041551D01*
Y016666D01*
X04151Y016625D01*
X051668Y020516D02*
Y020266D01*
X051835D01*
X051918Y020475D02*
X05196Y020516D01*
X052043D01*
X052085Y020475D01*
Y020433D01*
X052043Y020391D01*
X052001D01*
X052043D01*
X052085Y02035D01*
Y020308D01*
X052043Y020266D01*
X05196D01*
X051918Y020308D01*
X051018Y019366D02*
Y019116D01*
X051185D01*
X051435D02*
X051268D01*
X051435Y019283D01*
Y019325D01*
X051393Y019366D01*
X05131D01*
X051268Y019325D01*
X05161Y018916D02*
Y018666D01*
X051776D01*
X05186D02*
X051943D01*
X051901D01*
Y018916D01*
X05186Y018875D01*
X049881Y017025D02*
X049839Y017066D01*
X049756D01*
X049714Y017025D01*
Y016858D01*
X049756Y016816D01*
X049839D01*
X049881Y016858D01*
X049964Y016816D02*
X050047D01*
X050006D01*
Y017066D01*
X049964Y017025D01*
X050297Y016816D02*
Y017066D01*
X050172Y016941D01*
X050339D01*
X043322Y017025D02*
X043281Y017066D01*
X043197D01*
X043156Y017025D01*
Y016858D01*
X043197Y016816D01*
X043281D01*
X043322Y016858D01*
X043406Y016816D02*
X043489D01*
X043447D01*
Y017066D01*
X043406Y017025D01*
X043614Y016816D02*
X043697D01*
X043656D01*
Y017066D01*
X043614Y017025D01*
X046646Y021675D02*
X046605Y021716D01*
X046521D01*
X04648Y021675D01*
Y021508D01*
X046521Y021466D01*
X046605D01*
X046646Y021508D01*
X04673Y021466D02*
X046813D01*
X046771D01*
Y021716D01*
X04673Y021675D01*
X046938D02*
X04698Y021716D01*
X047063D01*
X047105Y021675D01*
Y021508D01*
X047063Y021466D01*
X04698D01*
X046938Y021508D01*
Y021675D01*
X043435Y016675D02*
X043393Y016716D01*
X04331D01*
X043268Y016675D01*
Y016508D01*
X04331Y016466D01*
X043393D01*
X043435Y016508D01*
X043518D02*
X04356Y016466D01*
X043643D01*
X043685Y016508D01*
Y016675D01*
X043643Y016716D01*
X04356D01*
X043518Y016675D01*
Y016633D01*
X04356Y016591D01*
X043685D01*
X050635Y021225D02*
X050593Y021266D01*
X05051D01*
X050468Y021225D01*
Y021058D01*
X05051Y021016D01*
X050593D01*
X050635Y021058D01*
X050718Y021225D02*
X05076Y021266D01*
X050843D01*
X050885Y021225D01*
Y021183D01*
X050843Y021141D01*
X050885Y0211D01*
Y021058D01*
X050843Y021016D01*
X05076D01*
X050718Y021058D01*
Y0211D01*
X05076Y021141D01*
X050718Y021183D01*
Y021225D01*
X05076Y021141D02*
X050843D01*
X049135Y017775D02*
X049093Y017816D01*
X04901D01*
X048968Y017775D01*
Y017608D01*
X04901Y017566D01*
X049093D01*
X049135Y017608D01*
X049218Y017816D02*
X049385D01*
Y017775D01*
X049218Y017608D01*
Y017566D01*
X042885Y020075D02*
X042843Y020116D01*
X04276D01*
X042718Y020075D01*
Y019908D01*
X04276Y019866D01*
X042843D01*
X042885Y019908D01*
X043135Y020116D02*
X043051Y020075D01*
X042968Y019991D01*
Y019908D01*
X04301Y019866D01*
X043093D01*
X043135Y019908D01*
Y01995D01*
X043093Y019991D01*
X042968D01*
X053335Y020925D02*
X053293Y020966D01*
X05321D01*
X053168Y020925D01*
Y020758D01*
X05321Y020716D01*
X053293D01*
X053335Y020758D01*
X053585Y020966D02*
X053418D01*
Y020841D01*
X053501Y020883D01*
X053543D01*
X053585Y020841D01*
Y020758D01*
X053543Y020716D01*
X05346D01*
X053418Y020758D01*
X052685Y020475D02*
X052643Y020516D01*
X05256D01*
X052518Y020475D01*
Y020308D01*
X05256Y020266D01*
X052643D01*
X052685Y020308D01*
X052893Y020266D02*
Y020516D01*
X052768Y020391D01*
X052935D01*
X053135Y018725D02*
X053093Y018766D01*
X05301D01*
X052968Y018725D01*
Y018558D01*
X05301Y018516D01*
X053093D01*
X053135Y018558D01*
X053218Y018725D02*
X05326Y018766D01*
X053343D01*
X053385Y018725D01*
Y018683D01*
X053343Y018641D01*
X053301D01*
X053343D01*
X053385Y0186D01*
Y018558D01*
X053343Y018516D01*
X05326D01*
X053218Y018558D01*
X053135Y019225D02*
X053093Y019266D01*
X05301D01*
X052968Y019225D01*
Y019058D01*
X05301Y019016D01*
X053093D01*
X053135Y019058D01*
X053385Y019016D02*
X053218D01*
X053385Y019183D01*
Y019225D01*
X053343Y019266D01*
X05326D01*
X053218Y019225D01*
X048826Y021625D02*
X048785Y021666D01*
X048701D01*
X04866Y021625D01*
Y021458D01*
X048701Y021416D01*
X048785D01*
X048826Y021458D01*
X04891Y021416D02*
X048993D01*
X048951D01*
Y021666D01*
X04891Y021625D01*
X02649Y02687D02*
X026448Y026912D01*
X026365D01*
X026323Y02687D01*
Y026703D01*
X026365Y026662D01*
X026448D01*
X02649Y026703D01*
X026573Y026912D02*
Y026662D01*
X026739D01*
X026823Y026912D02*
Y026662D01*
Y026745D01*
X026989Y026912D01*
X026864Y026787D01*
X026989Y026662D01*
X028823Y026912D02*
Y026662D01*
X028948D01*
X02899Y026703D01*
Y02687D01*
X028948Y026912D01*
X028823D01*
X029073D02*
X029156D01*
X029114D01*
Y026662D01*
X029073D01*
X029156D01*
X029406Y026912D02*
X029323D01*
X029281Y02687D01*
Y026703D01*
X029323Y026662D01*
X029406D01*
X029448Y026703D01*
Y02687D01*
X029406Y026912D01*
X02899Y02787D02*
X028948Y027912D01*
X028865D01*
X028823Y02787D01*
Y027703D01*
X028865Y027662D01*
X028948D01*
X02899Y027703D01*
Y027787D01*
X028906D01*
X029073Y027662D02*
Y027912D01*
X029239Y027662D01*
Y027912D01*
X029323D02*
Y027662D01*
X029448D01*
X029489Y027703D01*
Y02787D01*
X029448Y027912D01*
X029323D01*
X02675Y027922D02*
X026583D01*
Y027797D01*
X026666Y027838D01*
X026708D01*
X02675Y027797D01*
Y027713D01*
X026708Y027672D01*
X026625D01*
X026583Y027713D01*
X026833Y027922D02*
Y027755D01*
X026916Y027672D01*
X026999Y027755D01*
Y027922D01*
X022777Y027995D02*
X022735Y028037D01*
X022652D01*
X022611Y027995D01*
Y027828D01*
X022652Y027787D01*
X022735D01*
X022777Y027828D01*
X02286Y027787D02*
X022944D01*
X022902D01*
Y028037D01*
X02286Y027995D01*
X023069D02*
X02311Y028037D01*
X023194D01*
X023235Y027995D01*
Y027953D01*
X023194Y027912D01*
X023152D01*
X023194D01*
X023235Y02787D01*
Y027828D01*
X023194Y027787D01*
X02311D01*
X023069Y027828D01*
X033365Y023787D02*
Y023745D01*
X033448Y023662D01*
X033531Y023745D01*
Y023787D01*
X033448Y023662D02*
Y023537D01*
X033781D02*
X033615D01*
X033781Y023703D01*
Y023745D01*
X03374Y023787D01*
X033656D01*
X033615Y023745D01*
X024865Y024037D02*
Y024287D01*
X02499D01*
X025031Y024245D01*
Y024162D01*
X02499Y02412D01*
X024865D01*
X024948D02*
X025031Y024037D01*
X025115Y024245D02*
X025156Y024287D01*
X02524D01*
X025281Y024245D01*
Y024203D01*
X02524Y024162D01*
X025281Y02412D01*
Y024078D01*
X02524Y024037D01*
X025156D01*
X025115Y024078D01*
Y02412D01*
X025156Y024162D01*
X025115Y024203D01*
Y024245D01*
X025156Y024162D02*
X02524D01*
X034815Y027637D02*
Y027887D01*
X03494D01*
X034981Y027845D01*
Y027762D01*
X03494Y02772D01*
X034815D01*
X034898D02*
X034981Y027637D01*
X035065Y027845D02*
X035106Y027887D01*
X03519D01*
X035231Y027845D01*
Y027803D01*
X03519Y027762D01*
X035148D01*
X03519D01*
X035231Y02772D01*
Y027678D01*
X03519Y027637D01*
X035106D01*
X035065Y027678D01*
X030906Y022337D02*
Y022587D01*
X031031D01*
X031073Y022545D01*
Y022462D01*
X031031Y02242D01*
X030906D01*
X03099D02*
X031073Y022337D01*
X031156D02*
X03124D01*
X031198D01*
Y022587D01*
X031156Y022545D01*
X024773Y022678D02*
Y022845D01*
X024731Y022887D01*
X024648D01*
X024606Y022845D01*
Y022678D01*
X024648Y022637D01*
X024731D01*
X02469Y02272D02*
X024773Y022637D01*
X024731D02*
X024773Y022678D01*
X024856Y022637D02*
X02494D01*
X024898D01*
Y022887D01*
X024856Y022845D01*
X035015Y026737D02*
Y026487D01*
X035181D01*
X035265Y026695D02*
X035306Y026737D01*
X03539D01*
X035431Y026695D01*
Y026653D01*
X03539Y026612D01*
X035348D01*
X03539D01*
X035431Y02657D01*
Y026528D01*
X03539Y026487D01*
X035306D01*
X035265Y026528D01*
X034365Y025587D02*
Y025337D01*
X034531D01*
X034781D02*
X034615D01*
X034781Y025503D01*
Y025545D01*
X03474Y025587D01*
X034656D01*
X034615Y025545D01*
X034956Y025137D02*
Y024887D01*
X035123D01*
X035206D02*
X03529D01*
X035248D01*
Y025137D01*
X035206Y025095D01*
X033227Y023245D02*
X033185Y023287D01*
X033102D01*
X033061Y023245D01*
Y023078D01*
X033102Y023037D01*
X033185D01*
X033227Y023078D01*
X03331Y023037D02*
X033394D01*
X033352D01*
Y023287D01*
X03331Y023245D01*
X033644Y023037D02*
Y023287D01*
X033519Y023162D01*
X033685D01*
X026669Y023245D02*
X026627Y023287D01*
X026544D01*
X026502Y023245D01*
Y023078D01*
X026544Y023037D01*
X026627D01*
X026669Y023078D01*
X026752Y023037D02*
X026835D01*
X026794D01*
Y023287D01*
X026752Y023245D01*
X02696Y023037D02*
X027044D01*
X027002D01*
Y023287D01*
X02696Y023245D01*
X029993Y027895D02*
X029951Y027937D01*
X029868D01*
X029826Y027895D01*
Y027728D01*
X029868Y027687D01*
X029951D01*
X029993Y027728D01*
X030076Y027687D02*
X030159D01*
X030118D01*
Y027937D01*
X030076Y027895D01*
X030284D02*
X030326Y027937D01*
X030409D01*
X030451Y027895D01*
Y027728D01*
X030409Y027687D01*
X030326D01*
X030284Y027728D01*
Y027895D01*
X026781Y022895D02*
X02674Y022937D01*
X026656D01*
X026615Y022895D01*
Y022728D01*
X026656Y022687D01*
X02674D01*
X026781Y022728D01*
X026865D02*
X026906Y022687D01*
X02699D01*
X027031Y022728D01*
Y022895D01*
X02699Y022937D01*
X026906D01*
X026865Y022895D01*
Y022853D01*
X026906Y022812D01*
X027031D01*
X033981Y027445D02*
X03394Y027487D01*
X033856D01*
X033815Y027445D01*
Y027278D01*
X033856Y027237D01*
X03394D01*
X033981Y027278D01*
X034065Y027445D02*
X034106Y027487D01*
X03419D01*
X034231Y027445D01*
Y027403D01*
X03419Y027362D01*
X034231Y02732D01*
Y027278D01*
X03419Y027237D01*
X034106D01*
X034065Y027278D01*
Y02732D01*
X034106Y027362D01*
X034065Y027403D01*
Y027445D01*
X034106Y027362D02*
X03419D01*
X032481Y023995D02*
X03244Y024037D01*
X032356D01*
X032315Y023995D01*
Y023828D01*
X032356Y023787D01*
X03244D01*
X032481Y023828D01*
X032565Y024037D02*
X032731D01*
Y023995D01*
X032565Y023828D01*
Y023787D01*
X026231Y026295D02*
X02619Y026337D01*
X026106D01*
X026065Y026295D01*
Y026128D01*
X026106Y026087D01*
X02619D01*
X026231Y026128D01*
X026481Y026337D02*
X026398Y026295D01*
X026315Y026212D01*
Y026128D01*
X026356Y026087D01*
X02644D01*
X026481Y026128D01*
Y02617D01*
X02644Y026212D01*
X026315D01*
X036681Y027145D02*
X03664Y027187D01*
X036556D01*
X036515Y027145D01*
Y026978D01*
X036556Y026937D01*
X03664D01*
X036681Y026978D01*
X036931Y027187D02*
X036765D01*
Y027062D01*
X036848Y027103D01*
X03689D01*
X036931Y027062D01*
Y026978D01*
X03689Y026937D01*
X036806D01*
X036765Y026978D01*
X036031Y026695D02*
X03599Y026737D01*
X035906D01*
X035865Y026695D01*
Y026528D01*
X035906Y026487D01*
X03599D01*
X036031Y026528D01*
X03624Y026487D02*
Y026737D01*
X036115Y026612D01*
X036281D01*
X036481Y024945D02*
X03644Y024987D01*
X036356D01*
X036315Y024945D01*
Y024778D01*
X036356Y024737D01*
X03644D01*
X036481Y024778D01*
X036565Y024945D02*
X036606Y024987D01*
X03669D01*
X036731Y024945D01*
Y024903D01*
X03669Y024862D01*
X036648D01*
X03669D01*
X036731Y02482D01*
Y024778D01*
X03669Y024737D01*
X036606D01*
X036565Y024778D01*
X036481Y025445D02*
X03644Y025487D01*
X036356D01*
X036315Y025445D01*
Y025278D01*
X036356Y025237D01*
X03644D01*
X036481Y025278D01*
X036731Y025237D02*
X036565D01*
X036731Y025403D01*
Y025445D01*
X03669Y025487D01*
X036606D01*
X036565Y025445D01*
X032173Y027845D02*
X032131Y027887D01*
X032048D01*
X032006Y027845D01*
Y027678D01*
X032048Y027637D01*
X032131D01*
X032173Y027678D01*
X032256Y027637D02*
X03234D01*
X032298D01*
Y027887D01*
X032256Y027845D01*
X043143Y02687D02*
X043101Y026912D01*
X043018D01*
X042976Y02687D01*
Y026703D01*
X043018Y026662D01*
X043101D01*
X043143Y026703D01*
X043226Y026912D02*
Y026662D01*
X043393D01*
X043476Y026912D02*
Y026662D01*
Y026745D01*
X043643Y026912D01*
X043518Y026787D01*
X043643Y026662D01*
X045476Y026912D02*
Y026662D01*
X045601D01*
X045643Y026703D01*
Y02687D01*
X045601Y026912D01*
X045476D01*
X045726D02*
X04581D01*
X045768D01*
Y026662D01*
X045726D01*
X04581D01*
X04606Y026912D02*
X045976D01*
X045935Y02687D01*
Y026703D01*
X045976Y026662D01*
X04606D01*
X046101Y026703D01*
Y02687D01*
X04606Y026912D01*
X045643Y02787D02*
X045601Y027912D01*
X045518D01*
X045476Y02787D01*
Y027703D01*
X045518Y027662D01*
X045601D01*
X045643Y027703D01*
Y027787D01*
X04556D01*
X045726Y027662D02*
Y027912D01*
X045893Y027662D01*
Y027912D01*
X045976D02*
Y027662D01*
X046101D01*
X046143Y027703D01*
Y02787D01*
X046101Y027912D01*
X045976D01*
X043403Y027922D02*
X043236D01*
Y027797D01*
X04332Y027838D01*
X043361D01*
X043403Y027797D01*
Y027713D01*
X043361Y027672D01*
X043278D01*
X043236Y027713D01*
X043486Y027922D02*
Y027755D01*
X04357Y027672D01*
X043653Y027755D01*
Y027922D01*
X039431Y027995D02*
X039389Y028037D01*
X039306D01*
X039264Y027995D01*
Y027828D01*
X039306Y027787D01*
X039389D01*
X039431Y027828D01*
X039514Y027787D02*
X039597D01*
X039556D01*
Y028037D01*
X039514Y027995D01*
X039722D02*
X039764Y028037D01*
X039847D01*
X039889Y027995D01*
Y027953D01*
X039847Y027912D01*
X039806D01*
X039847D01*
X039889Y02787D01*
Y027828D01*
X039847Y027787D01*
X039764D01*
X039722Y027828D01*
X050018Y023787D02*
Y023745D01*
X050101Y023662D01*
X050185Y023745D01*
Y023787D01*
X050101Y023662D02*
Y023537D01*
X050435D02*
X050268D01*
X050435Y023703D01*
Y023745D01*
X050393Y023787D01*
X05031D01*
X050268Y023745D01*
X041518Y024037D02*
Y024287D01*
X041643D01*
X041685Y024245D01*
Y024162D01*
X041643Y02412D01*
X041518D01*
X041601D02*
X041685Y024037D01*
X041768Y024245D02*
X04181Y024287D01*
X041893D01*
X041935Y024245D01*
Y024203D01*
X041893Y024162D01*
X041935Y02412D01*
Y024078D01*
X041893Y024037D01*
X04181D01*
X041768Y024078D01*
Y02412D01*
X04181Y024162D01*
X041768Y024203D01*
Y024245D01*
X04181Y024162D02*
X041893D01*
X051468Y027637D02*
Y027887D01*
X051593D01*
X051635Y027845D01*
Y027762D01*
X051593Y02772D01*
X051468D01*
X051551D02*
X051635Y027637D01*
X051718Y027845D02*
X05176Y027887D01*
X051843D01*
X051885Y027845D01*
Y027803D01*
X051843Y027762D01*
X051801D01*
X051843D01*
X051885Y02772D01*
Y027678D01*
X051843Y027637D01*
X05176D01*
X051718Y027678D01*
X04756Y022337D02*
Y022587D01*
X047685D01*
X047726Y022545D01*
Y022462D01*
X047685Y02242D01*
X04756D01*
X047643D02*
X047726Y022337D01*
X04781D02*
X047893D01*
X047851D01*
Y022587D01*
X04781Y022545D01*
X041426Y022678D02*
Y022845D01*
X041385Y022887D01*
X041301D01*
X04126Y022845D01*
Y022678D01*
X041301Y022637D01*
X041385D01*
X041343Y02272D02*
X041426Y022637D01*
X041385D02*
X041426Y022678D01*
X04151Y022637D02*
X041593D01*
X041551D01*
Y022887D01*
X04151Y022845D01*
X051668Y026737D02*
Y026487D01*
X051835D01*
X051918Y026695D02*
X05196Y026737D01*
X052043D01*
X052085Y026695D01*
Y026653D01*
X052043Y026612D01*
X052001D01*
X052043D01*
X052085Y02657D01*
Y026528D01*
X052043Y026487D01*
X05196D01*
X051918Y026528D01*
X051018Y025587D02*
Y025337D01*
X051185D01*
X051435D02*
X051268D01*
X051435Y025503D01*
Y025545D01*
X051393Y025587D01*
X05131D01*
X051268Y025545D01*
X05161Y025137D02*
Y024887D01*
X051776D01*
X05186D02*
X051943D01*
X051901D01*
Y025137D01*
X05186Y025095D01*
X049881Y023245D02*
X049839Y023287D01*
X049756D01*
X049714Y023245D01*
Y023078D01*
X049756Y023037D01*
X049839D01*
X049881Y023078D01*
X049964Y023037D02*
X050047D01*
X050006D01*
Y023287D01*
X049964Y023245D01*
X050297Y023037D02*
Y023287D01*
X050172Y023162D01*
X050339D01*
X043322Y023245D02*
X043281Y023287D01*
X043197D01*
X043156Y023245D01*
Y023078D01*
X043197Y023037D01*
X043281D01*
X043322Y023078D01*
X043406Y023037D02*
X043489D01*
X043447D01*
Y023287D01*
X043406Y023245D01*
X043614Y023037D02*
X043697D01*
X043656D01*
Y023287D01*
X043614Y023245D01*
X046646Y027895D02*
X046605Y027937D01*
X046521D01*
X04648Y027895D01*
Y027728D01*
X046521Y027687D01*
X046605D01*
X046646Y027728D01*
X04673Y027687D02*
X046813D01*
X046771D01*
Y027937D01*
X04673Y027895D01*
X046938D02*
X04698Y027937D01*
X047063D01*
X047105Y027895D01*
Y027728D01*
X047063Y027687D01*
X04698D01*
X046938Y027728D01*
Y027895D01*
X043435Y022895D02*
X043393Y022937D01*
X04331D01*
X043268Y022895D01*
Y022728D01*
X04331Y022687D01*
X043393D01*
X043435Y022728D01*
X043518D02*
X04356Y022687D01*
X043643D01*
X043685Y022728D01*
Y022895D01*
X043643Y022937D01*
X04356D01*
X043518Y022895D01*
Y022853D01*
X04356Y022812D01*
X043685D01*
X050635Y027445D02*
X050593Y027487D01*
X05051D01*
X050468Y027445D01*
Y027278D01*
X05051Y027237D01*
X050593D01*
X050635Y027278D01*
X050718Y027445D02*
X05076Y027487D01*
X050843D01*
X050885Y027445D01*
Y027403D01*
X050843Y027362D01*
X050885Y02732D01*
Y027278D01*
X050843Y027237D01*
X05076D01*
X050718Y027278D01*
Y02732D01*
X05076Y027362D01*
X050718Y027403D01*
Y027445D01*
X05076Y027362D02*
X050843D01*
X049135Y023995D02*
X049093Y024037D01*
X04901D01*
X048968Y023995D01*
Y023828D01*
X04901Y023787D01*
X049093D01*
X049135Y023828D01*
X049218Y024037D02*
X049385D01*
Y023995D01*
X049218Y023828D01*
Y023787D01*
X042885Y026295D02*
X042843Y026337D01*
X04276D01*
X042718Y026295D01*
Y026128D01*
X04276Y026087D01*
X042843D01*
X042885Y026128D01*
X043135Y026337D02*
X043051Y026295D01*
X042968Y026212D01*
Y026128D01*
X04301Y026087D01*
X043093D01*
X043135Y026128D01*
Y02617D01*
X043093Y026212D01*
X042968D01*
X053335Y027145D02*
X053293Y027187D01*
X05321D01*
X053168Y027145D01*
Y026978D01*
X05321Y026937D01*
X053293D01*
X053335Y026978D01*
X053585Y027187D02*
X053418D01*
Y027062D01*
X053501Y027103D01*
X053543D01*
X053585Y027062D01*
Y026978D01*
X053543Y026937D01*
X05346D01*
X053418Y026978D01*
X052685Y026695D02*
X052643Y026737D01*
X05256D01*
X052518Y026695D01*
Y026528D01*
X05256Y026487D01*
X052643D01*
X052685Y026528D01*
X052893Y026487D02*
Y026737D01*
X052768Y026612D01*
X052935D01*
X053135Y024945D02*
X053093Y024987D01*
X05301D01*
X052968Y024945D01*
Y024778D01*
X05301Y024737D01*
X053093D01*
X053135Y024778D01*
X053218Y024945D02*
X05326Y024987D01*
X053343D01*
X053385Y024945D01*
Y024903D01*
X053343Y024862D01*
X053301D01*
X053343D01*
X053385Y02482D01*
Y024778D01*
X053343Y024737D01*
X05326D01*
X053218Y024778D01*
X053135Y025445D02*
X053093Y025487D01*
X05301D01*
X052968Y025445D01*
Y025278D01*
X05301Y025237D01*
X053093D01*
X053135Y025278D01*
X053385Y025237D02*
X053218D01*
X053385Y025403D01*
Y025445D01*
X053343Y025487D01*
X05326D01*
X053218Y025445D01*
X048826Y027845D02*
X048785Y027887D01*
X048701D01*
X04866Y027845D01*
Y027678D01*
X048701Y027637D01*
X048785D01*
X048826Y027678D01*
X04891Y027637D02*
X048993D01*
X048951D01*
Y027887D01*
X04891Y027845D01*
X02649Y033091D02*
X026448Y033132D01*
X026365D01*
X026323Y033091D01*
Y032924D01*
X026365Y032882D01*
X026448D01*
X02649Y032924D01*
X026573Y033132D02*
Y032882D01*
X026739D01*
X026823Y033132D02*
Y032882D01*
Y032966D01*
X026989Y033132D01*
X026864Y033007D01*
X026989Y032882D01*
X028823Y033132D02*
Y032882D01*
X028948D01*
X02899Y032924D01*
Y033091D01*
X028948Y033132D01*
X028823D01*
X029073D02*
X029156D01*
X029114D01*
Y032882D01*
X029073D01*
X029156D01*
X029406Y033132D02*
X029323D01*
X029281Y033091D01*
Y032924D01*
X029323Y032882D01*
X029406D01*
X029448Y032924D01*
Y033091D01*
X029406Y033132D01*
X02899Y034091D02*
X028948Y034132D01*
X028865D01*
X028823Y034091D01*
Y033924D01*
X028865Y033882D01*
X028948D01*
X02899Y033924D01*
Y034007D01*
X028906D01*
X029073Y033882D02*
Y034132D01*
X029239Y033882D01*
Y034132D01*
X029323D02*
Y033882D01*
X029448D01*
X029489Y033924D01*
Y034091D01*
X029448Y034132D01*
X029323D01*
X02675Y034142D02*
X026583D01*
Y034017D01*
X026666Y034059D01*
X026708D01*
X02675Y034017D01*
Y033934D01*
X026708Y033892D01*
X026625D01*
X026583Y033934D01*
X026833Y034142D02*
Y033976D01*
X026916Y033892D01*
X026999Y033976D01*
Y034142D01*
X022777Y034216D02*
X022735Y034257D01*
X022652D01*
X022611Y034216D01*
Y034049D01*
X022652Y034007D01*
X022735D01*
X022777Y034049D01*
X02286Y034007D02*
X022944D01*
X022902D01*
Y034257D01*
X02286Y034216D01*
X023069D02*
X02311Y034257D01*
X023194D01*
X023235Y034216D01*
Y034174D01*
X023194Y034132D01*
X023152D01*
X023194D01*
X023235Y034091D01*
Y034049D01*
X023194Y034007D01*
X02311D01*
X023069Y034049D01*
X033365Y030007D02*
Y029966D01*
X033448Y029882D01*
X033531Y029966D01*
Y030007D01*
X033448Y029882D02*
Y029757D01*
X033781D02*
X033615D01*
X033781Y029924D01*
Y029966D01*
X03374Y030007D01*
X033656D01*
X033615Y029966D01*
X024865Y030257D02*
Y030507D01*
X02499D01*
X025031Y030466D01*
Y030382D01*
X02499Y030341D01*
X024865D01*
X024948D02*
X025031Y030257D01*
X025115Y030466D02*
X025156Y030507D01*
X02524D01*
X025281Y030466D01*
Y030424D01*
X02524Y030382D01*
X025281Y030341D01*
Y030299D01*
X02524Y030257D01*
X025156D01*
X025115Y030299D01*
Y030341D01*
X025156Y030382D01*
X025115Y030424D01*
Y030466D01*
X025156Y030382D02*
X02524D01*
X034815Y033857D02*
Y034107D01*
X03494D01*
X034981Y034066D01*
Y033982D01*
X03494Y033941D01*
X034815D01*
X034898D02*
X034981Y033857D01*
X035065Y034066D02*
X035106Y034107D01*
X03519D01*
X035231Y034066D01*
Y034024D01*
X03519Y033982D01*
X035148D01*
X03519D01*
X035231Y033941D01*
Y033899D01*
X03519Y033857D01*
X035106D01*
X035065Y033899D01*
X030906Y028557D02*
Y028807D01*
X031031D01*
X031073Y028766D01*
Y028682D01*
X031031Y028641D01*
X030906D01*
X03099D02*
X031073Y028557D01*
X031156D02*
X03124D01*
X031198D01*
Y028807D01*
X031156Y028766D01*
X024773Y028899D02*
Y029066D01*
X024731Y029107D01*
X024648D01*
X024606Y029066D01*
Y028899D01*
X024648Y028857D01*
X024731D01*
X02469Y028941D02*
X024773Y028857D01*
X024731D02*
X024773Y028899D01*
X024856Y028857D02*
X02494D01*
X024898D01*
Y029107D01*
X024856Y029066D01*
X035015Y032957D02*
Y032707D01*
X035181D01*
X035265Y032916D02*
X035306Y032957D01*
X03539D01*
X035431Y032916D01*
Y032874D01*
X03539Y032832D01*
X035348D01*
X03539D01*
X035431Y032791D01*
Y032749D01*
X03539Y032707D01*
X035306D01*
X035265Y032749D01*
X034365Y031807D02*
Y031557D01*
X034531D01*
X034781D02*
X034615D01*
X034781Y031724D01*
Y031766D01*
X03474Y031807D01*
X034656D01*
X034615Y031766D01*
X034956Y031357D02*
Y031107D01*
X035123D01*
X035206D02*
X03529D01*
X035248D01*
Y031357D01*
X035206Y031316D01*
X033227Y029466D02*
X033185Y029507D01*
X033102D01*
X033061Y029466D01*
Y029299D01*
X033102Y029257D01*
X033185D01*
X033227Y029299D01*
X03331Y029257D02*
X033394D01*
X033352D01*
Y029507D01*
X03331Y029466D01*
X033644Y029257D02*
Y029507D01*
X033519Y029382D01*
X033685D01*
X026669Y029466D02*
X026627Y029507D01*
X026544D01*
X026502Y029466D01*
Y029299D01*
X026544Y029257D01*
X026627D01*
X026669Y029299D01*
X026752Y029257D02*
X026835D01*
X026794D01*
Y029507D01*
X026752Y029466D01*
X02696Y029257D02*
X027044D01*
X027002D01*
Y029507D01*
X02696Y029466D01*
X029993Y034116D02*
X029951Y034157D01*
X029868D01*
X029826Y034116D01*
Y033949D01*
X029868Y033907D01*
X029951D01*
X029993Y033949D01*
X030076Y033907D02*
X030159D01*
X030118D01*
Y034157D01*
X030076Y034116D01*
X030284D02*
X030326Y034157D01*
X030409D01*
X030451Y034116D01*
Y033949D01*
X030409Y033907D01*
X030326D01*
X030284Y033949D01*
Y034116D01*
X026781Y029116D02*
X02674Y029157D01*
X026656D01*
X026615Y029116D01*
Y028949D01*
X026656Y028907D01*
X02674D01*
X026781Y028949D01*
X026865D02*
X026906Y028907D01*
X02699D01*
X027031Y028949D01*
Y029116D01*
X02699Y029157D01*
X026906D01*
X026865Y029116D01*
Y029074D01*
X026906Y029032D01*
X027031D01*
X033981Y033666D02*
X03394Y033707D01*
X033856D01*
X033815Y033666D01*
Y033499D01*
X033856Y033457D01*
X03394D01*
X033981Y033499D01*
X034065Y033666D02*
X034106Y033707D01*
X03419D01*
X034231Y033666D01*
Y033624D01*
X03419Y033582D01*
X034231Y033541D01*
Y033499D01*
X03419Y033457D01*
X034106D01*
X034065Y033499D01*
Y033541D01*
X034106Y033582D01*
X034065Y033624D01*
Y033666D01*
X034106Y033582D02*
X03419D01*
X032481Y030216D02*
X03244Y030257D01*
X032356D01*
X032315Y030216D01*
Y030049D01*
X032356Y030007D01*
X03244D01*
X032481Y030049D01*
X032565Y030257D02*
X032731D01*
Y030216D01*
X032565Y030049D01*
Y030007D01*
X026231Y032516D02*
X02619Y032557D01*
X026106D01*
X026065Y032516D01*
Y032349D01*
X026106Y032307D01*
X02619D01*
X026231Y032349D01*
X026481Y032557D02*
X026398Y032516D01*
X026315Y032432D01*
Y032349D01*
X026356Y032307D01*
X02644D01*
X026481Y032349D01*
Y032391D01*
X02644Y032432D01*
X026315D01*
X036681Y033366D02*
X03664Y033407D01*
X036556D01*
X036515Y033366D01*
Y033199D01*
X036556Y033157D01*
X03664D01*
X036681Y033199D01*
X036931Y033407D02*
X036765D01*
Y033282D01*
X036848Y033324D01*
X03689D01*
X036931Y033282D01*
Y033199D01*
X03689Y033157D01*
X036806D01*
X036765Y033199D01*
X036031Y032916D02*
X03599Y032957D01*
X035906D01*
X035865Y032916D01*
Y032749D01*
X035906Y032707D01*
X03599D01*
X036031Y032749D01*
X03624Y032707D02*
Y032957D01*
X036115Y032832D01*
X036281D01*
X036481Y031166D02*
X03644Y031207D01*
X036356D01*
X036315Y031166D01*
Y030999D01*
X036356Y030957D01*
X03644D01*
X036481Y030999D01*
X036565Y031166D02*
X036606Y031207D01*
X03669D01*
X036731Y031166D01*
Y031124D01*
X03669Y031082D01*
X036648D01*
X03669D01*
X036731Y031041D01*
Y030999D01*
X03669Y030957D01*
X036606D01*
X036565Y030999D01*
X036481Y031666D02*
X03644Y031707D01*
X036356D01*
X036315Y031666D01*
Y031499D01*
X036356Y031457D01*
X03644D01*
X036481Y031499D01*
X036731Y031457D02*
X036565D01*
X036731Y031624D01*
Y031666D01*
X03669Y031707D01*
X036606D01*
X036565Y031666D01*
X032173Y034066D02*
X032131Y034107D01*
X032048D01*
X032006Y034066D01*
Y033899D01*
X032048Y033857D01*
X032131D01*
X032173Y033899D01*
X032256Y033857D02*
X03234D01*
X032298D01*
Y034107D01*
X032256Y034066D01*
X043143Y033091D02*
X043101Y033132D01*
X043018D01*
X042976Y033091D01*
Y032924D01*
X043018Y032882D01*
X043101D01*
X043143Y032924D01*
X043226Y033132D02*
Y032882D01*
X043393D01*
X043476Y033132D02*
Y032882D01*
Y032966D01*
X043643Y033132D01*
X043518Y033007D01*
X043643Y032882D01*
X045476Y033132D02*
Y032882D01*
X045601D01*
X045643Y032924D01*
Y033091D01*
X045601Y033132D01*
X045476D01*
X045726D02*
X04581D01*
X045768D01*
Y032882D01*
X045726D01*
X04581D01*
X04606Y033132D02*
X045976D01*
X045935Y033091D01*
Y032924D01*
X045976Y032882D01*
X04606D01*
X046101Y032924D01*
Y033091D01*
X04606Y033132D01*
X045643Y034091D02*
X045601Y034132D01*
X045518D01*
X045476Y034091D01*
Y033924D01*
X045518Y033882D01*
X045601D01*
X045643Y033924D01*
Y034007D01*
X04556D01*
X045726Y033882D02*
Y034132D01*
X045893Y033882D01*
Y034132D01*
X045976D02*
Y033882D01*
X046101D01*
X046143Y033924D01*
Y034091D01*
X046101Y034132D01*
X045976D01*
X043403Y034142D02*
X043236D01*
Y034017D01*
X04332Y034059D01*
X043361D01*
X043403Y034017D01*
Y033934D01*
X043361Y033892D01*
X043278D01*
X043236Y033934D01*
X043486Y034142D02*
Y033976D01*
X04357Y033892D01*
X043653Y033976D01*
Y034142D01*
X039431Y034216D02*
X039389Y034257D01*
X039306D01*
X039264Y034216D01*
Y034049D01*
X039306Y034007D01*
X039389D01*
X039431Y034049D01*
X039514Y034007D02*
X039597D01*
X039556D01*
Y034257D01*
X039514Y034216D01*
X039722D02*
X039764Y034257D01*
X039847D01*
X039889Y034216D01*
Y034174D01*
X039847Y034132D01*
X039806D01*
X039847D01*
X039889Y034091D01*
Y034049D01*
X039847Y034007D01*
X039764D01*
X039722Y034049D01*
X050018Y030007D02*
Y029966D01*
X050101Y029882D01*
X050185Y029966D01*
Y030007D01*
X050101Y029882D02*
Y029757D01*
X050435D02*
X050268D01*
X050435Y029924D01*
Y029966D01*
X050393Y030007D01*
X05031D01*
X050268Y029966D01*
X041518Y030257D02*
Y030507D01*
X041643D01*
X041685Y030466D01*
Y030382D01*
X041643Y030341D01*
X041518D01*
X041601D02*
X041685Y030257D01*
X041768Y030466D02*
X04181Y030507D01*
X041893D01*
X041935Y030466D01*
Y030424D01*
X041893Y030382D01*
X041935Y030341D01*
Y030299D01*
X041893Y030257D01*
X04181D01*
X041768Y030299D01*
Y030341D01*
X04181Y030382D01*
X041768Y030424D01*
Y030466D01*
X04181Y030382D02*
X041893D01*
X051468Y033857D02*
Y034107D01*
X051593D01*
X051635Y034066D01*
Y033982D01*
X051593Y033941D01*
X051468D01*
X051551D02*
X051635Y033857D01*
X051718Y034066D02*
X05176Y034107D01*
X051843D01*
X051885Y034066D01*
Y034024D01*
X051843Y033982D01*
X051801D01*
X051843D01*
X051885Y033941D01*
Y033899D01*
X051843Y033857D01*
X05176D01*
X051718Y033899D01*
X04756Y028557D02*
Y028807D01*
X047685D01*
X047726Y028766D01*
Y028682D01*
X047685Y028641D01*
X04756D01*
X047643D02*
X047726Y028557D01*
X04781D02*
X047893D01*
X047851D01*
Y028807D01*
X04781Y028766D01*
X041426Y028899D02*
Y029066D01*
X041385Y029107D01*
X041301D01*
X04126Y029066D01*
Y028899D01*
X041301Y028857D01*
X041385D01*
X041343Y028941D02*
X041426Y028857D01*
X041385D02*
X041426Y028899D01*
X04151Y028857D02*
X041593D01*
X041551D01*
Y029107D01*
X04151Y029066D01*
X051668Y032957D02*
Y032707D01*
X051835D01*
X051918Y032916D02*
X05196Y032957D01*
X052043D01*
X052085Y032916D01*
Y032874D01*
X052043Y032832D01*
X052001D01*
X052043D01*
X052085Y032791D01*
Y032749D01*
X052043Y032707D01*
X05196D01*
X051918Y032749D01*
X051018Y031807D02*
Y031557D01*
X051185D01*
X051435D02*
X051268D01*
X051435Y031724D01*
Y031766D01*
X051393Y031807D01*
X05131D01*
X051268Y031766D01*
X05161Y031357D02*
Y031107D01*
X051776D01*
X05186D02*
X051943D01*
X051901D01*
Y031357D01*
X05186Y031316D01*
X049881Y029466D02*
X049839Y029507D01*
X049756D01*
X049714Y029466D01*
Y029299D01*
X049756Y029257D01*
X049839D01*
X049881Y029299D01*
X049964Y029257D02*
X050047D01*
X050006D01*
Y029507D01*
X049964Y029466D01*
X050297Y029257D02*
Y029507D01*
X050172Y029382D01*
X050339D01*
X043322Y029466D02*
X043281Y029507D01*
X043197D01*
X043156Y029466D01*
Y029299D01*
X043197Y029257D01*
X043281D01*
X043322Y029299D01*
X043406Y029257D02*
X043489D01*
X043447D01*
Y029507D01*
X043406Y029466D01*
X043614Y029257D02*
X043697D01*
X043656D01*
Y029507D01*
X043614Y029466D01*
X046646Y034116D02*
X046605Y034157D01*
X046521D01*
X04648Y034116D01*
Y033949D01*
X046521Y033907D01*
X046605D01*
X046646Y033949D01*
X04673Y033907D02*
X046813D01*
X046771D01*
Y034157D01*
X04673Y034116D01*
X046938D02*
X04698Y034157D01*
X047063D01*
X047105Y034116D01*
Y033949D01*
X047063Y033907D01*
X04698D01*
X046938Y033949D01*
Y034116D01*
X043435Y029116D02*
X043393Y029157D01*
X04331D01*
X043268Y029116D01*
Y028949D01*
X04331Y028907D01*
X043393D01*
X043435Y028949D01*
X043518D02*
X04356Y028907D01*
X043643D01*
X043685Y028949D01*
Y029116D01*
X043643Y029157D01*
X04356D01*
X043518Y029116D01*
Y029074D01*
X04356Y029032D01*
X043685D01*
X050635Y033666D02*
X050593Y033707D01*
X05051D01*
X050468Y033666D01*
Y033499D01*
X05051Y033457D01*
X050593D01*
X050635Y033499D01*
X050718Y033666D02*
X05076Y033707D01*
X050843D01*
X050885Y033666D01*
Y033624D01*
X050843Y033582D01*
X050885Y033541D01*
Y033499D01*
X050843Y033457D01*
X05076D01*
X050718Y033499D01*
Y033541D01*
X05076Y033582D01*
X050718Y033624D01*
Y033666D01*
X05076Y033582D02*
X050843D01*
X049135Y030216D02*
X049093Y030257D01*
X04901D01*
X048968Y030216D01*
Y030049D01*
X04901Y030007D01*
X049093D01*
X049135Y030049D01*
X049218Y030257D02*
X049385D01*
Y030216D01*
X049218Y030049D01*
Y030007D01*
X042885Y032516D02*
X042843Y032557D01*
X04276D01*
X042718Y032516D01*
Y032349D01*
X04276Y032307D01*
X042843D01*
X042885Y032349D01*
X043135Y032557D02*
X043051Y032516D01*
X042968Y032432D01*
Y032349D01*
X04301Y032307D01*
X043093D01*
X043135Y032349D01*
Y032391D01*
X043093Y032432D01*
X042968D01*
X053335Y033366D02*
X053293Y033407D01*
X05321D01*
X053168Y033366D01*
Y033199D01*
X05321Y033157D01*
X053293D01*
X053335Y033199D01*
X053585Y033407D02*
X053418D01*
Y033282D01*
X053501Y033324D01*
X053543D01*
X053585Y033282D01*
Y033199D01*
X053543Y033157D01*
X05346D01*
X053418Y033199D01*
X052685Y032916D02*
X052643Y032957D01*
X05256D01*
X052518Y032916D01*
Y032749D01*
X05256Y032707D01*
X052643D01*
X052685Y032749D01*
X052893Y032707D02*
Y032957D01*
X052768Y032832D01*
X052935D01*
X053135Y031166D02*
X053093Y031207D01*
X05301D01*
X052968Y031166D01*
Y030999D01*
X05301Y030957D01*
X053093D01*
X053135Y030999D01*
X053218Y031166D02*
X05326Y031207D01*
X053343D01*
X053385Y031166D01*
Y031124D01*
X053343Y031082D01*
X053301D01*
X053343D01*
X053385Y031041D01*
Y030999D01*
X053343Y030957D01*
X05326D01*
X053218Y030999D01*
X053135Y031666D02*
X053093Y031707D01*
X05301D01*
X052968Y031666D01*
Y031499D01*
X05301Y031457D01*
X053093D01*
X053135Y031499D01*
X053385Y031457D02*
X053218D01*
X053385Y031624D01*
Y031666D01*
X053343Y031707D01*
X05326D01*
X053218Y031666D01*
X048826Y034066D02*
X048785Y034107D01*
X048701D01*
X04866Y034066D01*
Y033899D01*
X048701Y033857D01*
X048785D01*
X048826Y033899D01*
X04891Y033857D02*
X048993D01*
X048951D01*
Y034107D01*
X04891Y034066D01*
X02649Y039311D02*
X026448Y039353D01*
X026365D01*
X026323Y039311D01*
Y039144D01*
X026365Y039103D01*
X026448D01*
X02649Y039144D01*
X026573Y039353D02*
Y039103D01*
X026739D01*
X026823Y039353D02*
Y039103D01*
Y039186D01*
X026989Y039353D01*
X026864Y039228D01*
X026989Y039103D01*
X028823Y039353D02*
Y039103D01*
X028948D01*
X02899Y039144D01*
Y039311D01*
X028948Y039353D01*
X028823D01*
X029073D02*
X029156D01*
X029114D01*
Y039103D01*
X029073D01*
X029156D01*
X029406Y039353D02*
X029323D01*
X029281Y039311D01*
Y039144D01*
X029323Y039103D01*
X029406D01*
X029448Y039144D01*
Y039311D01*
X029406Y039353D01*
X02899Y040311D02*
X028948Y040353D01*
X028865D01*
X028823Y040311D01*
Y040144D01*
X028865Y040103D01*
X028948D01*
X02899Y040144D01*
Y040228D01*
X028906D01*
X029073Y040103D02*
Y040353D01*
X029239Y040103D01*
Y040353D01*
X029323D02*
Y040103D01*
X029448D01*
X029489Y040144D01*
Y040311D01*
X029448Y040353D01*
X029323D01*
X02675Y040363D02*
X026583D01*
Y040238D01*
X026666Y040279D01*
X026708D01*
X02675Y040238D01*
Y040154D01*
X026708Y040113D01*
X026625D01*
X026583Y040154D01*
X026833Y040363D02*
Y040196D01*
X026916Y040113D01*
X026999Y040196D01*
Y040363D01*
X022777Y040436D02*
X022735Y040478D01*
X022652D01*
X022611Y040436D01*
Y040269D01*
X022652Y040228D01*
X022735D01*
X022777Y040269D01*
X02286Y040228D02*
X022944D01*
X022902D01*
Y040478D01*
X02286Y040436D01*
X023069D02*
X02311Y040478D01*
X023194D01*
X023235Y040436D01*
Y040394D01*
X023194Y040353D01*
X023152D01*
X023194D01*
X023235Y040311D01*
Y040269D01*
X023194Y040228D01*
X02311D01*
X023069Y040269D01*
X033365Y036228D02*
Y036186D01*
X033448Y036103D01*
X033531Y036186D01*
Y036228D01*
X033448Y036103D02*
Y035978D01*
X033781D02*
X033615D01*
X033781Y036144D01*
Y036186D01*
X03374Y036228D01*
X033656D01*
X033615Y036186D01*
X024865Y036478D02*
Y036728D01*
X02499D01*
X025031Y036686D01*
Y036603D01*
X02499Y036561D01*
X024865D01*
X024948D02*
X025031Y036478D01*
X025115Y036686D02*
X025156Y036728D01*
X02524D01*
X025281Y036686D01*
Y036644D01*
X02524Y036603D01*
X025281Y036561D01*
Y036519D01*
X02524Y036478D01*
X025156D01*
X025115Y036519D01*
Y036561D01*
X025156Y036603D01*
X025115Y036644D01*
Y036686D01*
X025156Y036603D02*
X02524D01*
X034815Y040078D02*
Y040328D01*
X03494D01*
X034981Y040286D01*
Y040203D01*
X03494Y040161D01*
X034815D01*
X034898D02*
X034981Y040078D01*
X035065Y040286D02*
X035106Y040328D01*
X03519D01*
X035231Y040286D01*
Y040244D01*
X03519Y040203D01*
X035148D01*
X03519D01*
X035231Y040161D01*
Y040119D01*
X03519Y040078D01*
X035106D01*
X035065Y040119D01*
X030906Y034778D02*
Y035028D01*
X031031D01*
X031073Y034986D01*
Y034903D01*
X031031Y034861D01*
X030906D01*
X03099D02*
X031073Y034778D01*
X031156D02*
X03124D01*
X031198D01*
Y035028D01*
X031156Y034986D01*
X024773Y035119D02*
Y035286D01*
X024731Y035328D01*
X024648D01*
X024606Y035286D01*
Y035119D01*
X024648Y035078D01*
X024731D01*
X02469Y035161D02*
X024773Y035078D01*
X024731D02*
X024773Y035119D01*
X024856Y035078D02*
X02494D01*
X024898D01*
Y035328D01*
X024856Y035286D01*
X035015Y039178D02*
Y038928D01*
X035181D01*
X035265Y039136D02*
X035306Y039178D01*
X03539D01*
X035431Y039136D01*
Y039094D01*
X03539Y039053D01*
X035348D01*
X03539D01*
X035431Y039011D01*
Y038969D01*
X03539Y038928D01*
X035306D01*
X035265Y038969D01*
X034365Y038028D02*
Y037778D01*
X034531D01*
X034781D02*
X034615D01*
X034781Y037944D01*
Y037986D01*
X03474Y038028D01*
X034656D01*
X034615Y037986D01*
X034956Y037578D02*
Y037328D01*
X035123D01*
X035206D02*
X03529D01*
X035248D01*
Y037578D01*
X035206Y037536D01*
X033227Y035686D02*
X033185Y035728D01*
X033102D01*
X033061Y035686D01*
Y035519D01*
X033102Y035478D01*
X033185D01*
X033227Y035519D01*
X03331Y035478D02*
X033394D01*
X033352D01*
Y035728D01*
X03331Y035686D01*
X033644Y035478D02*
Y035728D01*
X033519Y035603D01*
X033685D01*
X026669Y035686D02*
X026627Y035728D01*
X026544D01*
X026502Y035686D01*
Y035519D01*
X026544Y035478D01*
X026627D01*
X026669Y035519D01*
X026752Y035478D02*
X026835D01*
X026794D01*
Y035728D01*
X026752Y035686D01*
X02696Y035478D02*
X027044D01*
X027002D01*
Y035728D01*
X02696Y035686D01*
X029993Y040336D02*
X029951Y040378D01*
X029868D01*
X029826Y040336D01*
Y040169D01*
X029868Y040128D01*
X029951D01*
X029993Y040169D01*
X030076Y040128D02*
X030159D01*
X030118D01*
Y040378D01*
X030076Y040336D01*
X030284D02*
X030326Y040378D01*
X030409D01*
X030451Y040336D01*
Y040169D01*
X030409Y040128D01*
X030326D01*
X030284Y040169D01*
Y040336D01*
X026781Y035336D02*
X02674Y035378D01*
X026656D01*
X026615Y035336D01*
Y035169D01*
X026656Y035128D01*
X02674D01*
X026781Y035169D01*
X026865D02*
X026906Y035128D01*
X02699D01*
X027031Y035169D01*
Y035336D01*
X02699Y035378D01*
X026906D01*
X026865Y035336D01*
Y035294D01*
X026906Y035253D01*
X027031D01*
X033981Y039886D02*
X03394Y039928D01*
X033856D01*
X033815Y039886D01*
Y039719D01*
X033856Y039678D01*
X03394D01*
X033981Y039719D01*
X034065Y039886D02*
X034106Y039928D01*
X03419D01*
X034231Y039886D01*
Y039844D01*
X03419Y039803D01*
X034231Y039761D01*
Y039719D01*
X03419Y039678D01*
X034106D01*
X034065Y039719D01*
Y039761D01*
X034106Y039803D01*
X034065Y039844D01*
Y039886D01*
X034106Y039803D02*
X03419D01*
X032481Y036436D02*
X03244Y036478D01*
X032356D01*
X032315Y036436D01*
Y036269D01*
X032356Y036228D01*
X03244D01*
X032481Y036269D01*
X032565Y036478D02*
X032731D01*
Y036436D01*
X032565Y036269D01*
Y036228D01*
X026231Y038736D02*
X02619Y038778D01*
X026106D01*
X026065Y038736D01*
Y038569D01*
X026106Y038528D01*
X02619D01*
X026231Y038569D01*
X026481Y038778D02*
X026398Y038736D01*
X026315Y038653D01*
Y038569D01*
X026356Y038528D01*
X02644D01*
X026481Y038569D01*
Y038611D01*
X02644Y038653D01*
X026315D01*
X036681Y039586D02*
X03664Y039628D01*
X036556D01*
X036515Y039586D01*
Y039419D01*
X036556Y039378D01*
X03664D01*
X036681Y039419D01*
X036931Y039628D02*
X036765D01*
Y039503D01*
X036848Y039544D01*
X03689D01*
X036931Y039503D01*
Y039419D01*
X03689Y039378D01*
X036806D01*
X036765Y039419D01*
X036031Y039136D02*
X03599Y039178D01*
X035906D01*
X035865Y039136D01*
Y038969D01*
X035906Y038928D01*
X03599D01*
X036031Y038969D01*
X03624Y038928D02*
Y039178D01*
X036115Y039053D01*
X036281D01*
X036481Y037386D02*
X03644Y037428D01*
X036356D01*
X036315Y037386D01*
Y037219D01*
X036356Y037178D01*
X03644D01*
X036481Y037219D01*
X036565Y037386D02*
X036606Y037428D01*
X03669D01*
X036731Y037386D01*
Y037344D01*
X03669Y037303D01*
X036648D01*
X03669D01*
X036731Y037261D01*
Y037219D01*
X03669Y037178D01*
X036606D01*
X036565Y037219D01*
X036481Y037886D02*
X03644Y037928D01*
X036356D01*
X036315Y037886D01*
Y037719D01*
X036356Y037678D01*
X03644D01*
X036481Y037719D01*
X036731Y037678D02*
X036565D01*
X036731Y037844D01*
Y037886D01*
X03669Y037928D01*
X036606D01*
X036565Y037886D01*
X032173Y040286D02*
X032131Y040328D01*
X032048D01*
X032006Y040286D01*
Y040119D01*
X032048Y040078D01*
X032131D01*
X032173Y040119D01*
X032256Y040078D02*
X03234D01*
X032298D01*
Y040328D01*
X032256Y040286D01*
X043143Y039311D02*
X043101Y039353D01*
X043018D01*
X042976Y039311D01*
Y039144D01*
X043018Y039103D01*
X043101D01*
X043143Y039144D01*
X043226Y039353D02*
Y039103D01*
X043393D01*
X043476Y039353D02*
Y039103D01*
Y039186D01*
X043643Y039353D01*
X043518Y039228D01*
X043643Y039103D01*
X045476Y039353D02*
Y039103D01*
X045601D01*
X045643Y039144D01*
Y039311D01*
X045601Y039353D01*
X045476D01*
X045726D02*
X04581D01*
X045768D01*
Y039103D01*
X045726D01*
X04581D01*
X04606Y039353D02*
X045976D01*
X045935Y039311D01*
Y039144D01*
X045976Y039103D01*
X04606D01*
X046101Y039144D01*
Y039311D01*
X04606Y039353D01*
X045643Y040311D02*
X045601Y040353D01*
X045518D01*
X045476Y040311D01*
Y040144D01*
X045518Y040103D01*
X045601D01*
X045643Y040144D01*
Y040228D01*
X04556D01*
X045726Y040103D02*
Y040353D01*
X045893Y040103D01*
Y040353D01*
X045976D02*
Y040103D01*
X046101D01*
X046143Y040144D01*
Y040311D01*
X046101Y040353D01*
X045976D01*
X043403Y040363D02*
X043236D01*
Y040238D01*
X04332Y040279D01*
X043361D01*
X043403Y040238D01*
Y040154D01*
X043361Y040113D01*
X043278D01*
X043236Y040154D01*
X043486Y040363D02*
Y040196D01*
X04357Y040113D01*
X043653Y040196D01*
Y040363D01*
X039431Y040436D02*
X039389Y040478D01*
X039306D01*
X039264Y040436D01*
Y040269D01*
X039306Y040228D01*
X039389D01*
X039431Y040269D01*
X039514Y040228D02*
X039597D01*
X039556D01*
Y040478D01*
X039514Y040436D01*
X039722D02*
X039764Y040478D01*
X039847D01*
X039889Y040436D01*
Y040394D01*
X039847Y040353D01*
X039806D01*
X039847D01*
X039889Y040311D01*
Y040269D01*
X039847Y040228D01*
X039764D01*
X039722Y040269D01*
X050018Y036228D02*
Y036186D01*
X050101Y036103D01*
X050185Y036186D01*
Y036228D01*
X050101Y036103D02*
Y035978D01*
X050435D02*
X050268D01*
X050435Y036144D01*
Y036186D01*
X050393Y036228D01*
X05031D01*
X050268Y036186D01*
X041518Y036478D02*
Y036728D01*
X041643D01*
X041685Y036686D01*
Y036603D01*
X041643Y036561D01*
X041518D01*
X041601D02*
X041685Y036478D01*
X041768Y036686D02*
X04181Y036728D01*
X041893D01*
X041935Y036686D01*
Y036644D01*
X041893Y036603D01*
X041935Y036561D01*
Y036519D01*
X041893Y036478D01*
X04181D01*
X041768Y036519D01*
Y036561D01*
X04181Y036603D01*
X041768Y036644D01*
Y036686D01*
X04181Y036603D02*
X041893D01*
X051468Y040078D02*
Y040328D01*
X051593D01*
X051635Y040286D01*
Y040203D01*
X051593Y040161D01*
X051468D01*
X051551D02*
X051635Y040078D01*
X051718Y040286D02*
X05176Y040328D01*
X051843D01*
X051885Y040286D01*
Y040244D01*
X051843Y040203D01*
X051801D01*
X051843D01*
X051885Y040161D01*
Y040119D01*
X051843Y040078D01*
X05176D01*
X051718Y040119D01*
X04756Y034778D02*
Y035028D01*
X047685D01*
X047726Y034986D01*
Y034903D01*
X047685Y034861D01*
X04756D01*
X047643D02*
X047726Y034778D01*
X04781D02*
X047893D01*
X047851D01*
Y035028D01*
X04781Y034986D01*
X041426Y035119D02*
Y035286D01*
X041385Y035328D01*
X041301D01*
X04126Y035286D01*
Y035119D01*
X041301Y035078D01*
X041385D01*
X041343Y035161D02*
X041426Y035078D01*
X041385D02*
X041426Y035119D01*
X04151Y035078D02*
X041593D01*
X041551D01*
Y035328D01*
X04151Y035286D01*
X051668Y039178D02*
Y038928D01*
X051835D01*
X051918Y039136D02*
X05196Y039178D01*
X052043D01*
X052085Y039136D01*
Y039094D01*
X052043Y039053D01*
X052001D01*
X052043D01*
X052085Y039011D01*
Y038969D01*
X052043Y038928D01*
X05196D01*
X051918Y038969D01*
X051018Y038028D02*
Y037778D01*
X051185D01*
X051435D02*
X051268D01*
X051435Y037944D01*
Y037986D01*
X051393Y038028D01*
X05131D01*
X051268Y037986D01*
X05161Y037578D02*
Y037328D01*
X051776D01*
X05186D02*
X051943D01*
X051901D01*
Y037578D01*
X05186Y037536D01*
X049881Y035686D02*
X049839Y035728D01*
X049756D01*
X049714Y035686D01*
Y035519D01*
X049756Y035478D01*
X049839D01*
X049881Y035519D01*
X049964Y035478D02*
X050047D01*
X050006D01*
Y035728D01*
X049964Y035686D01*
X050297Y035478D02*
Y035728D01*
X050172Y035603D01*
X050339D01*
X043322Y035686D02*
X043281Y035728D01*
X043197D01*
X043156Y035686D01*
Y035519D01*
X043197Y035478D01*
X043281D01*
X043322Y035519D01*
X043406Y035478D02*
X043489D01*
X043447D01*
Y035728D01*
X043406Y035686D01*
X043614Y035478D02*
X043697D01*
X043656D01*
Y035728D01*
X043614Y035686D01*
X046646Y040336D02*
X046605Y040378D01*
X046521D01*
X04648Y040336D01*
Y040169D01*
X046521Y040128D01*
X046605D01*
X046646Y040169D01*
X04673Y040128D02*
X046813D01*
X046771D01*
Y040378D01*
X04673Y040336D01*
X046938D02*
X04698Y040378D01*
X047063D01*
X047105Y040336D01*
Y040169D01*
X047063Y040128D01*
X04698D01*
X046938Y040169D01*
Y040336D01*
X043435Y035336D02*
X043393Y035378D01*
X04331D01*
X043268Y035336D01*
Y035169D01*
X04331Y035128D01*
X043393D01*
X043435Y035169D01*
X043518D02*
X04356Y035128D01*
X043643D01*
X043685Y035169D01*
Y035336D01*
X043643Y035378D01*
X04356D01*
X043518Y035336D01*
Y035294D01*
X04356Y035253D01*
X043685D01*
X050635Y039886D02*
X050593Y039928D01*
X05051D01*
X050468Y039886D01*
Y039719D01*
X05051Y039678D01*
X050593D01*
X050635Y039719D01*
X050718Y039886D02*
X05076Y039928D01*
X050843D01*
X050885Y039886D01*
Y039844D01*
X050843Y039803D01*
X050885Y039761D01*
Y039719D01*
X050843Y039678D01*
X05076D01*
X050718Y039719D01*
Y039761D01*
X05076Y039803D01*
X050718Y039844D01*
Y039886D01*
X05076Y039803D02*
X050843D01*
X049135Y036436D02*
X049093Y036478D01*
X04901D01*
X048968Y036436D01*
Y036269D01*
X04901Y036228D01*
X049093D01*
X049135Y036269D01*
X049218Y036478D02*
X049385D01*
Y036436D01*
X049218Y036269D01*
Y036228D01*
X042885Y038736D02*
X042843Y038778D01*
X04276D01*
X042718Y038736D01*
Y038569D01*
X04276Y038528D01*
X042843D01*
X042885Y038569D01*
X043135Y038778D02*
X043051Y038736D01*
X042968Y038653D01*
Y038569D01*
X04301Y038528D01*
X043093D01*
X043135Y038569D01*
Y038611D01*
X043093Y038653D01*
X042968D01*
X053335Y039586D02*
X053293Y039628D01*
X05321D01*
X053168Y039586D01*
Y039419D01*
X05321Y039378D01*
X053293D01*
X053335Y039419D01*
X053585Y039628D02*
X053418D01*
Y039503D01*
X053501Y039544D01*
X053543D01*
X053585Y039503D01*
Y039419D01*
X053543Y039378D01*
X05346D01*
X053418Y039419D01*
X052685Y039136D02*
X052643Y039178D01*
X05256D01*
X052518Y039136D01*
Y038969D01*
X05256Y038928D01*
X052643D01*
X052685Y038969D01*
X052893Y038928D02*
Y039178D01*
X052768Y039053D01*
X052935D01*
X053135Y037386D02*
X053093Y037428D01*
X05301D01*
X052968Y037386D01*
Y037219D01*
X05301Y037178D01*
X053093D01*
X053135Y037219D01*
X053218Y037386D02*
X05326Y037428D01*
X053343D01*
X053385Y037386D01*
Y037344D01*
X053343Y037303D01*
X053301D01*
X053343D01*
X053385Y037261D01*
Y037219D01*
X053343Y037178D01*
X05326D01*
X053218Y037219D01*
X053135Y037886D02*
X053093Y037928D01*
X05301D01*
X052968Y037886D01*
Y037719D01*
X05301Y037678D01*
X053093D01*
X053135Y037719D01*
X053385Y037678D02*
X053218D01*
X053385Y037844D01*
Y037886D01*
X053343Y037928D01*
X05326D01*
X053218Y037886D01*
X048826Y040286D02*
X048785Y040328D01*
X048701D01*
X04866Y040286D01*
Y040119D01*
X048701Y040078D01*
X048785D01*
X048826Y040119D01*
X04891Y040078D02*
X048993D01*
X048951D01*
Y040328D01*
X04891Y040286D01*
X02649Y045531D02*
X026448Y045573D01*
X026365D01*
X026323Y045531D01*
Y045365D01*
X026365Y045323D01*
X026448D01*
X02649Y045365D01*
X026573Y045573D02*
Y045323D01*
X026739D01*
X026823Y045573D02*
Y045323D01*
Y045407D01*
X026989Y045573D01*
X026864Y045448D01*
X026989Y045323D01*
X028823Y045573D02*
Y045323D01*
X028948D01*
X02899Y045365D01*
Y045531D01*
X028948Y045573D01*
X028823D01*
X029073D02*
X029156D01*
X029114D01*
Y045323D01*
X029073D01*
X029156D01*
X029406Y045573D02*
X029323D01*
X029281Y045531D01*
Y045365D01*
X029323Y045323D01*
X029406D01*
X029448Y045365D01*
Y045531D01*
X029406Y045573D01*
X02899Y046531D02*
X028948Y046573D01*
X028865D01*
X028823Y046531D01*
Y046365D01*
X028865Y046323D01*
X028948D01*
X02899Y046365D01*
Y046448D01*
X028906D01*
X029073Y046323D02*
Y046573D01*
X029239Y046323D01*
Y046573D01*
X029323D02*
Y046323D01*
X029448D01*
X029489Y046365D01*
Y046531D01*
X029448Y046573D01*
X029323D01*
X02675Y046583D02*
X026583D01*
Y046458D01*
X026666Y0465D01*
X026708D01*
X02675Y046458D01*
Y046375D01*
X026708Y046333D01*
X026625D01*
X026583Y046375D01*
X026833Y046583D02*
Y046417D01*
X026916Y046333D01*
X026999Y046417D01*
Y046583D01*
X022777Y046657D02*
X022735Y046698D01*
X022652D01*
X022611Y046657D01*
Y04649D01*
X022652Y046448D01*
X022735D01*
X022777Y04649D01*
X02286Y046448D02*
X022944D01*
X022902D01*
Y046698D01*
X02286Y046657D01*
X023069D02*
X02311Y046698D01*
X023194D01*
X023235Y046657D01*
Y046615D01*
X023194Y046573D01*
X023152D01*
X023194D01*
X023235Y046532D01*
Y04649D01*
X023194Y046448D01*
X02311D01*
X023069Y04649D01*
X033365Y042448D02*
Y042407D01*
X033448Y042323D01*
X033531Y042407D01*
Y042448D01*
X033448Y042323D02*
Y042198D01*
X033781D02*
X033615D01*
X033781Y042365D01*
Y042407D01*
X03374Y042448D01*
X033656D01*
X033615Y042407D01*
X024865Y042698D02*
Y042948D01*
X02499D01*
X025031Y042907D01*
Y042823D01*
X02499Y042782D01*
X024865D01*
X024948D02*
X025031Y042698D01*
X025115Y042907D02*
X025156Y042948D01*
X02524D01*
X025281Y042907D01*
Y042865D01*
X02524Y042823D01*
X025281Y042782D01*
Y04274D01*
X02524Y042698D01*
X025156D01*
X025115Y04274D01*
Y042782D01*
X025156Y042823D01*
X025115Y042865D01*
Y042907D01*
X025156Y042823D02*
X02524D01*
X034815Y046298D02*
Y046548D01*
X03494D01*
X034981Y046507D01*
Y046423D01*
X03494Y046382D01*
X034815D01*
X034898D02*
X034981Y046298D01*
X035065Y046507D02*
X035106Y046548D01*
X03519D01*
X035231Y046507D01*
Y046465D01*
X03519Y046423D01*
X035148D01*
X03519D01*
X035231Y046382D01*
Y04634D01*
X03519Y046298D01*
X035106D01*
X035065Y04634D01*
X030906Y040998D02*
Y041248D01*
X031031D01*
X031073Y041207D01*
Y041123D01*
X031031Y041082D01*
X030906D01*
X03099D02*
X031073Y040998D01*
X031156D02*
X03124D01*
X031198D01*
Y041248D01*
X031156Y041207D01*
X024773Y04134D02*
Y041507D01*
X024731Y041548D01*
X024648D01*
X024606Y041507D01*
Y04134D01*
X024648Y041298D01*
X024731D01*
X02469Y041382D02*
X024773Y041298D01*
X024731D02*
X024773Y04134D01*
X024856Y041298D02*
X02494D01*
X024898D01*
Y041548D01*
X024856Y041507D01*
X035015Y045398D02*
Y045148D01*
X035181D01*
X035265Y045357D02*
X035306Y045398D01*
X03539D01*
X035431Y045357D01*
Y045315D01*
X03539Y045273D01*
X035348D01*
X03539D01*
X035431Y045232D01*
Y04519D01*
X03539Y045148D01*
X035306D01*
X035265Y04519D01*
X034365Y044248D02*
Y043998D01*
X034531D01*
X034781D02*
X034615D01*
X034781Y044165D01*
Y044207D01*
X03474Y044248D01*
X034656D01*
X034615Y044207D01*
X034956Y043798D02*
Y043548D01*
X035123D01*
X035206D02*
X03529D01*
X035248D01*
Y043798D01*
X035206Y043757D01*
X033227Y041907D02*
X033185Y041948D01*
X033102D01*
X033061Y041907D01*
Y04174D01*
X033102Y041698D01*
X033185D01*
X033227Y04174D01*
X03331Y041698D02*
X033394D01*
X033352D01*
Y041948D01*
X03331Y041907D01*
X033644Y041698D02*
Y041948D01*
X033519Y041823D01*
X033685D01*
X026669Y041907D02*
X026627Y041948D01*
X026544D01*
X026502Y041907D01*
Y04174D01*
X026544Y041698D01*
X026627D01*
X026669Y04174D01*
X026752Y041698D02*
X026835D01*
X026794D01*
Y041948D01*
X026752Y041907D01*
X02696Y041698D02*
X027044D01*
X027002D01*
Y041948D01*
X02696Y041907D01*
X029993Y046557D02*
X029951Y046598D01*
X029868D01*
X029826Y046557D01*
Y04639D01*
X029868Y046348D01*
X029951D01*
X029993Y04639D01*
X030076Y046348D02*
X030159D01*
X030118D01*
Y046598D01*
X030076Y046557D01*
X030284D02*
X030326Y046598D01*
X030409D01*
X030451Y046557D01*
Y04639D01*
X030409Y046348D01*
X030326D01*
X030284Y04639D01*
Y046557D01*
X026781Y041557D02*
X02674Y041598D01*
X026656D01*
X026615Y041557D01*
Y04139D01*
X026656Y041348D01*
X02674D01*
X026781Y04139D01*
X026865D02*
X026906Y041348D01*
X02699D01*
X027031Y04139D01*
Y041557D01*
X02699Y041598D01*
X026906D01*
X026865Y041557D01*
Y041515D01*
X026906Y041473D01*
X027031D01*
X033981Y046107D02*
X03394Y046148D01*
X033856D01*
X033815Y046107D01*
Y04594D01*
X033856Y045898D01*
X03394D01*
X033981Y04594D01*
X034065Y046107D02*
X034106Y046148D01*
X03419D01*
X034231Y046107D01*
Y046065D01*
X03419Y046023D01*
X034231Y045982D01*
Y04594D01*
X03419Y045898D01*
X034106D01*
X034065Y04594D01*
Y045982D01*
X034106Y046023D01*
X034065Y046065D01*
Y046107D01*
X034106Y046023D02*
X03419D01*
X032481Y042657D02*
X03244Y042698D01*
X032356D01*
X032315Y042657D01*
Y04249D01*
X032356Y042448D01*
X03244D01*
X032481Y04249D01*
X032565Y042698D02*
X032731D01*
Y042657D01*
X032565Y04249D01*
Y042448D01*
X026231Y044957D02*
X02619Y044998D01*
X026106D01*
X026065Y044957D01*
Y04479D01*
X026106Y044748D01*
X02619D01*
X026231Y04479D01*
X026481Y044998D02*
X026398Y044957D01*
X026315Y044873D01*
Y04479D01*
X026356Y044748D01*
X02644D01*
X026481Y04479D01*
Y044832D01*
X02644Y044873D01*
X026315D01*
X036681Y045807D02*
X03664Y045848D01*
X036556D01*
X036515Y045807D01*
Y04564D01*
X036556Y045598D01*
X03664D01*
X036681Y04564D01*
X036931Y045848D02*
X036765D01*
Y045723D01*
X036848Y045765D01*
X03689D01*
X036931Y045723D01*
Y04564D01*
X03689Y045598D01*
X036806D01*
X036765Y04564D01*
X036031Y045357D02*
X03599Y045398D01*
X035906D01*
X035865Y045357D01*
Y04519D01*
X035906Y045148D01*
X03599D01*
X036031Y04519D01*
X03624Y045148D02*
Y045398D01*
X036115Y045273D01*
X036281D01*
X036481Y043607D02*
X03644Y043648D01*
X036356D01*
X036315Y043607D01*
Y04344D01*
X036356Y043398D01*
X03644D01*
X036481Y04344D01*
X036565Y043607D02*
X036606Y043648D01*
X03669D01*
X036731Y043607D01*
Y043565D01*
X03669Y043523D01*
X036648D01*
X03669D01*
X036731Y043482D01*
Y04344D01*
X03669Y043398D01*
X036606D01*
X036565Y04344D01*
X036481Y044107D02*
X03644Y044148D01*
X036356D01*
X036315Y044107D01*
Y04394D01*
X036356Y043898D01*
X03644D01*
X036481Y04394D01*
X036731Y043898D02*
X036565D01*
X036731Y044065D01*
Y044107D01*
X03669Y044148D01*
X036606D01*
X036565Y044107D01*
X032173Y046507D02*
X032131Y046548D01*
X032048D01*
X032006Y046507D01*
Y04634D01*
X032048Y046298D01*
X032131D01*
X032173Y04634D01*
X032256Y046298D02*
X03234D01*
X032298D01*
Y046548D01*
X032256Y046507D01*
X043143Y045531D02*
X043101Y045573D01*
X043018D01*
X042976Y045531D01*
Y045365D01*
X043018Y045323D01*
X043101D01*
X043143Y045365D01*
X043226Y045573D02*
Y045323D01*
X043393D01*
X043476Y045573D02*
Y045323D01*
Y045407D01*
X043643Y045573D01*
X043518Y045448D01*
X043643Y045323D01*
X045476Y045573D02*
Y045323D01*
X045601D01*
X045643Y045365D01*
Y045531D01*
X045601Y045573D01*
X045476D01*
X045726D02*
X04581D01*
X045768D01*
Y045323D01*
X045726D01*
X04581D01*
X04606Y045573D02*
X045976D01*
X045935Y045531D01*
Y045365D01*
X045976Y045323D01*
X04606D01*
X046101Y045365D01*
Y045531D01*
X04606Y045573D01*
X045643Y046531D02*
X045601Y046573D01*
X045518D01*
X045476Y046531D01*
Y046365D01*
X045518Y046323D01*
X045601D01*
X045643Y046365D01*
Y046448D01*
X04556D01*
X045726Y046323D02*
Y046573D01*
X045893Y046323D01*
Y046573D01*
X045976D02*
Y046323D01*
X046101D01*
X046143Y046365D01*
Y046531D01*
X046101Y046573D01*
X045976D01*
X043403Y046583D02*
X043236D01*
Y046458D01*
X04332Y0465D01*
X043361D01*
X043403Y046458D01*
Y046375D01*
X043361Y046333D01*
X043278D01*
X043236Y046375D01*
X043486Y046583D02*
Y046417D01*
X04357Y046333D01*
X043653Y046417D01*
Y046583D01*
X039431Y046657D02*
X039389Y046698D01*
X039306D01*
X039264Y046657D01*
Y04649D01*
X039306Y046448D01*
X039389D01*
X039431Y04649D01*
X039514Y046448D02*
X039597D01*
X039556D01*
Y046698D01*
X039514Y046657D01*
X039722D02*
X039764Y046698D01*
X039847D01*
X039889Y046657D01*
Y046615D01*
X039847Y046573D01*
X039806D01*
X039847D01*
X039889Y046532D01*
Y04649D01*
X039847Y046448D01*
X039764D01*
X039722Y04649D01*
X050018Y042448D02*
Y042407D01*
X050101Y042323D01*
X050185Y042407D01*
Y042448D01*
X050101Y042323D02*
Y042198D01*
X050435D02*
X050268D01*
X050435Y042365D01*
Y042407D01*
X050393Y042448D01*
X05031D01*
X050268Y042407D01*
X041518Y042698D02*
Y042948D01*
X041643D01*
X041685Y042907D01*
Y042823D01*
X041643Y042782D01*
X041518D01*
X041601D02*
X041685Y042698D01*
X041768Y042907D02*
X04181Y042948D01*
X041893D01*
X041935Y042907D01*
Y042865D01*
X041893Y042823D01*
X041935Y042782D01*
Y04274D01*
X041893Y042698D01*
X04181D01*
X041768Y04274D01*
Y042782D01*
X04181Y042823D01*
X041768Y042865D01*
Y042907D01*
X04181Y042823D02*
X041893D01*
X051468Y046298D02*
Y046548D01*
X051593D01*
X051635Y046507D01*
Y046423D01*
X051593Y046382D01*
X051468D01*
X051551D02*
X051635Y046298D01*
X051718Y046507D02*
X05176Y046548D01*
X051843D01*
X051885Y046507D01*
Y046465D01*
X051843Y046423D01*
X051801D01*
X051843D01*
X051885Y046382D01*
Y04634D01*
X051843Y046298D01*
X05176D01*
X051718Y04634D01*
X04756Y040998D02*
Y041248D01*
X047685D01*
X047726Y041207D01*
Y041123D01*
X047685Y041082D01*
X04756D01*
X047643D02*
X047726Y040998D01*
X04781D02*
X047893D01*
X047851D01*
Y041248D01*
X04781Y041207D01*
X041426Y04134D02*
Y041507D01*
X041385Y041548D01*
X041301D01*
X04126Y041507D01*
Y04134D01*
X041301Y041298D01*
X041385D01*
X041343Y041382D02*
X041426Y041298D01*
X041385D02*
X041426Y04134D01*
X04151Y041298D02*
X041593D01*
X041551D01*
Y041548D01*
X04151Y041507D01*
X051668Y045398D02*
Y045148D01*
X051835D01*
X051918Y045357D02*
X05196Y045398D01*
X052043D01*
X052085Y045357D01*
Y045315D01*
X052043Y045273D01*
X052001D01*
X052043D01*
X052085Y045232D01*
Y04519D01*
X052043Y045148D01*
X05196D01*
X051918Y04519D01*
X051018Y044248D02*
Y043998D01*
X051185D01*
X051435D02*
X051268D01*
X051435Y044165D01*
Y044207D01*
X051393Y044248D01*
X05131D01*
X051268Y044207D01*
X05161Y043798D02*
Y043548D01*
X051776D01*
X05186D02*
X051943D01*
X051901D01*
Y043798D01*
X05186Y043757D01*
X049881Y041907D02*
X049839Y041948D01*
X049756D01*
X049714Y041907D01*
Y04174D01*
X049756Y041698D01*
X049839D01*
X049881Y04174D01*
X049964Y041698D02*
X050047D01*
X050006D01*
Y041948D01*
X049964Y041907D01*
X050297Y041698D02*
Y041948D01*
X050172Y041823D01*
X050339D01*
X043322Y041907D02*
X043281Y041948D01*
X043197D01*
X043156Y041907D01*
Y04174D01*
X043197Y041698D01*
X043281D01*
X043322Y04174D01*
X043406Y041698D02*
X043489D01*
X043447D01*
Y041948D01*
X043406Y041907D01*
X043614Y041698D02*
X043697D01*
X043656D01*
Y041948D01*
X043614Y041907D01*
X046646Y046557D02*
X046605Y046598D01*
X046521D01*
X04648Y046557D01*
Y04639D01*
X046521Y046348D01*
X046605D01*
X046646Y04639D01*
X04673Y046348D02*
X046813D01*
X046771D01*
Y046598D01*
X04673Y046557D01*
X046938D02*
X04698Y046598D01*
X047063D01*
X047105Y046557D01*
Y04639D01*
X047063Y046348D01*
X04698D01*
X046938Y04639D01*
Y046557D01*
X043435Y041557D02*
X043393Y041598D01*
X04331D01*
X043268Y041557D01*
Y04139D01*
X04331Y041348D01*
X043393D01*
X043435Y04139D01*
X043518D02*
X04356Y041348D01*
X043643D01*
X043685Y04139D01*
Y041557D01*
X043643Y041598D01*
X04356D01*
X043518Y041557D01*
Y041515D01*
X04356Y041473D01*
X043685D01*
X050635Y046107D02*
X050593Y046148D01*
X05051D01*
X050468Y046107D01*
Y04594D01*
X05051Y045898D01*
X050593D01*
X050635Y04594D01*
X050718Y046107D02*
X05076Y046148D01*
X050843D01*
X050885Y046107D01*
Y046065D01*
X050843Y046023D01*
X050885Y045982D01*
Y04594D01*
X050843Y045898D01*
X05076D01*
X050718Y04594D01*
Y045982D01*
X05076Y046023D01*
X050718Y046065D01*
Y046107D01*
X05076Y046023D02*
X050843D01*
X049135Y042657D02*
X049093Y042698D01*
X04901D01*
X048968Y042657D01*
Y04249D01*
X04901Y042448D01*
X049093D01*
X049135Y04249D01*
X049218Y042698D02*
X049385D01*
Y042657D01*
X049218Y04249D01*
Y042448D01*
X042885Y044957D02*
X042843Y044998D01*
X04276D01*
X042718Y044957D01*
Y04479D01*
X04276Y044748D01*
X042843D01*
X042885Y04479D01*
X043135Y044998D02*
X043051Y044957D01*
X042968Y044873D01*
Y04479D01*
X04301Y044748D01*
X043093D01*
X043135Y04479D01*
Y044832D01*
X043093Y044873D01*
X042968D01*
X053335Y045807D02*
X053293Y045848D01*
X05321D01*
X053168Y045807D01*
Y04564D01*
X05321Y045598D01*
X053293D01*
X053335Y04564D01*
X053585Y045848D02*
X053418D01*
Y045723D01*
X053501Y045765D01*
X053543D01*
X053585Y045723D01*
Y04564D01*
X053543Y045598D01*
X05346D01*
X053418Y04564D01*
X052685Y045357D02*
X052643Y045398D01*
X05256D01*
X052518Y045357D01*
Y04519D01*
X05256Y045148D01*
X052643D01*
X052685Y04519D01*
X052893Y045148D02*
Y045398D01*
X052768Y045273D01*
X052935D01*
X053135Y043607D02*
X053093Y043648D01*
X05301D01*
X052968Y043607D01*
Y04344D01*
X05301Y043398D01*
X053093D01*
X053135Y04344D01*
X053218Y043607D02*
X05326Y043648D01*
X053343D01*
X053385Y043607D01*
Y043565D01*
X053343Y043523D01*
X053301D01*
X053343D01*
X053385Y043482D01*
Y04344D01*
X053343Y043398D01*
X05326D01*
X053218Y04344D01*
X053135Y044107D02*
X053093Y044148D01*
X05301D01*
X052968Y044107D01*
Y04394D01*
X05301Y043898D01*
X053093D01*
X053135Y04394D01*
X053385Y043898D02*
X053218D01*
X053385Y044065D01*
Y044107D01*
X053343Y044148D01*
X05326D01*
X053218Y044107D01*
X048826Y046507D02*
X048785Y046548D01*
X048701D01*
X04866Y046507D01*
Y04634D01*
X048701Y046298D01*
X048785D01*
X048826Y04634D01*
X04891Y046298D02*
X048993D01*
X048951D01*
Y046548D01*
X04891Y046507D01*
M02*
