G04*
G04 #@! TF.GenerationSoftware,Altium Limited,Altium Designer,22.10.1 (41)*
G04*
G04 Layer_Color=16711935*
%FSTAX24Y24*%
%MOIN*%
G70*
G04*
G04 #@! TF.SameCoordinates,C4D65E7B-EEE1-4A75-A0B3-CD900F305789*
G04*
G04*
G04 #@! TF.FilePolarity,Positive*
G04*
G01*
G75*
%ADD40C,0.0080*%
%ADD55C,0.0079*%
%ADD58C,0.0050*%
%ADD60C,0.0039*%
%ADD66R,0.0669X0.0331*%
G36*
X042537Y042154D02*
X042306D01*
X042306Y042333D01*
X042537D01*
X042537Y042154D01*
D02*
G37*
G36*
X025883D02*
X025653D01*
X025653Y042333D01*
X025883D01*
X025883Y042154D01*
D02*
G37*
G36*
X041746Y041783D02*
X041516D01*
Y041963D01*
X041746Y041963D01*
Y041783D01*
D02*
G37*
G36*
X025093D02*
X024863D01*
Y041963D01*
X025093Y041963D01*
Y041783D01*
D02*
G37*
G36*
X042537Y041413D02*
X042306D01*
Y041593D01*
X042537D01*
Y041413D01*
D02*
G37*
G36*
X025884D02*
X025653D01*
Y041593D01*
X025884D01*
Y041413D01*
D02*
G37*
G36*
X042537Y035933D02*
X042306D01*
X042306Y036113D01*
X042537D01*
X042537Y035933D01*
D02*
G37*
G36*
X025883D02*
X025653D01*
X025653Y036113D01*
X025883D01*
X025883Y035933D01*
D02*
G37*
G36*
X041746Y035563D02*
X041516D01*
Y035743D01*
X041746Y035743D01*
Y035563D01*
D02*
G37*
G36*
X025093D02*
X024863D01*
Y035743D01*
X025093Y035743D01*
Y035563D01*
D02*
G37*
G36*
X042537Y035192D02*
X042306D01*
Y035373D01*
X042537D01*
Y035192D01*
D02*
G37*
G36*
X025884D02*
X025653D01*
Y035373D01*
X025884D01*
Y035192D01*
D02*
G37*
G36*
X042537Y029713D02*
X042306D01*
X042306Y029892D01*
X042537D01*
X042537Y029713D01*
D02*
G37*
G36*
X025883D02*
X025653D01*
X025653Y029892D01*
X025883D01*
X025883Y029713D01*
D02*
G37*
G36*
X041746Y029342D02*
X041516D01*
Y029522D01*
X041746Y029522D01*
Y029342D01*
D02*
G37*
G36*
X025093D02*
X024863D01*
Y029522D01*
X025093Y029522D01*
Y029342D01*
D02*
G37*
G36*
X042537Y028972D02*
X042306D01*
Y029152D01*
X042537D01*
Y028972D01*
D02*
G37*
G36*
X025884D02*
X025653D01*
Y029152D01*
X025884D01*
Y028972D01*
D02*
G37*
G36*
X042537Y023492D02*
X042306D01*
X042306Y023672D01*
X042537D01*
X042537Y023492D01*
D02*
G37*
G36*
X025883D02*
X025653D01*
X025653Y023672D01*
X025883D01*
X025883Y023492D01*
D02*
G37*
G36*
X041746Y023122D02*
X041516D01*
Y023302D01*
X041746Y023302D01*
Y023122D01*
D02*
G37*
G36*
X025093D02*
X024863D01*
Y023302D01*
X025093Y023302D01*
Y023122D01*
D02*
G37*
G36*
X042537Y022751D02*
X042306D01*
Y022932D01*
X042537D01*
Y022751D01*
D02*
G37*
G36*
X025884D02*
X025653D01*
Y022932D01*
X025884D01*
Y022751D01*
D02*
G37*
G36*
X042537Y017272D02*
X042306D01*
X042306Y017451D01*
X042537D01*
X042537Y017272D01*
D02*
G37*
G36*
X025883D02*
X025653D01*
X025653Y017451D01*
X025883D01*
X025883Y017272D01*
D02*
G37*
G36*
X041746Y016901D02*
X041516D01*
Y017081D01*
X041746Y017081D01*
Y016901D01*
D02*
G37*
G36*
X025093D02*
X024863D01*
Y017081D01*
X025093Y017081D01*
Y016901D01*
D02*
G37*
G36*
X042537Y016531D02*
X042306D01*
Y016711D01*
X042537D01*
Y016531D01*
D02*
G37*
G36*
X025884D02*
X025653D01*
Y016711D01*
X025884D01*
Y016531D01*
D02*
G37*
D40*
X025113Y017551D02*
X025633D01*
Y016431D02*
Y017551D01*
X025113Y016431D02*
X025633D01*
X025113D02*
Y017551D01*
X041766D02*
X042286D01*
Y016431D02*
Y017551D01*
X041766Y016431D02*
X042286D01*
X041766D02*
Y017551D01*
X025113Y023772D02*
X025633D01*
Y022652D02*
Y023772D01*
X025113Y022652D02*
X025633D01*
X025113D02*
Y023772D01*
X041766D02*
X042286D01*
Y022652D02*
Y023772D01*
X041766Y022652D02*
X042286D01*
X041766D02*
Y023772D01*
X025113Y029992D02*
X025633D01*
Y028872D02*
Y029992D01*
X025113Y028872D02*
X025633D01*
X025113D02*
Y029992D01*
X041766D02*
X042286D01*
Y028872D02*
Y029992D01*
X041766Y028872D02*
X042286D01*
X041766D02*
Y029992D01*
X025113Y036213D02*
X025633D01*
Y035093D02*
Y036213D01*
X025113Y035093D02*
X025633D01*
X025113D02*
Y036213D01*
X041766D02*
X042286D01*
Y035093D02*
Y036213D01*
X041766Y035093D02*
X042286D01*
X041766D02*
Y036213D01*
X025113Y042433D02*
X025633D01*
Y041313D02*
Y042433D01*
X025113Y041313D02*
X025633D01*
X025113D02*
Y042433D01*
X041766D02*
X042286D01*
Y041313D02*
Y042433D01*
X041766Y041313D02*
X042286D01*
X041766D02*
Y042433D01*
D55*
X026112Y020491D02*
G03*
X026112Y020491I-000039J0D01*
G01*
X029414Y017243D02*
G03*
X029414Y017243I-000039J0D01*
G01*
X032224Y020536D02*
G03*
X032224Y020536I-000039J0D01*
G01*
X034454Y018091D02*
G03*
X034454Y018091I-000039J0D01*
G01*
X024555Y019614D02*
G03*
X024562Y019591I-000032J-000022D01*
G01*
X037267Y019878D02*
G03*
X037267Y019878I-000039J0D01*
G01*
X029006Y021335D02*
G03*
X029006Y021335I-000039J0D01*
G01*
X042766Y020491D02*
G03*
X042766Y020491I-000039J0D01*
G01*
X046068Y017243D02*
G03*
X046068Y017243I-000039J0D01*
G01*
X048878Y020536D02*
G03*
X048878Y020536I-000039J0D01*
G01*
X051108Y018091D02*
G03*
X051108Y018091I-000039J0D01*
G01*
X041209Y019614D02*
G03*
X041216Y019591I-000032J-000022D01*
G01*
X053921Y019878D02*
G03*
X053921Y019878I-000039J0D01*
G01*
X045659Y021335D02*
G03*
X045659Y021335I-000039J0D01*
G01*
X026112Y026712D02*
G03*
X026112Y026712I-000039J0D01*
G01*
X029414Y023464D02*
G03*
X029414Y023464I-000039J0D01*
G01*
X032224Y026757D02*
G03*
X032224Y026757I-000039J0D01*
G01*
X034454Y024312D02*
G03*
X034454Y024312I-000039J0D01*
G01*
X024555Y025834D02*
G03*
X024562Y025812I-000032J-000022D01*
G01*
X037267Y026099D02*
G03*
X037267Y026099I-000039J0D01*
G01*
X029006Y027555D02*
G03*
X029006Y027555I-000039J0D01*
G01*
X042766Y026712D02*
G03*
X042766Y026712I-000039J0D01*
G01*
X046068Y023464D02*
G03*
X046068Y023464I-000039J0D01*
G01*
X048878Y026757D02*
G03*
X048878Y026757I-000039J0D01*
G01*
X051108Y024312D02*
G03*
X051108Y024312I-000039J0D01*
G01*
X041209Y025834D02*
G03*
X041216Y025812I-000032J-000022D01*
G01*
X053921Y026099D02*
G03*
X053921Y026099I-000039J0D01*
G01*
X045659Y027555D02*
G03*
X045659Y027555I-000039J0D01*
G01*
X026112Y032932D02*
G03*
X026112Y032932I-000039J0D01*
G01*
X029414Y029684D02*
G03*
X029414Y029684I-000039J0D01*
G01*
X032224Y032977D02*
G03*
X032224Y032977I-000039J0D01*
G01*
X034454Y030532D02*
G03*
X034454Y030532I-000039J0D01*
G01*
X024555Y032055D02*
G03*
X024562Y032032I-000032J-000022D01*
G01*
X037267Y032319D02*
G03*
X037267Y032319I-000039J0D01*
G01*
X029006Y033776D02*
G03*
X029006Y033776I-000039J0D01*
G01*
X042766Y032932D02*
G03*
X042766Y032932I-000039J0D01*
G01*
X046068Y029684D02*
G03*
X046068Y029684I-000039J0D01*
G01*
X048878Y032977D02*
G03*
X048878Y032977I-000039J0D01*
G01*
X051108Y030532D02*
G03*
X051108Y030532I-000039J0D01*
G01*
X041209Y032055D02*
G03*
X041216Y032032I-000032J-000022D01*
G01*
X053921Y032319D02*
G03*
X053921Y032319I-000039J0D01*
G01*
X045659Y033776D02*
G03*
X045659Y033776I-000039J0D01*
G01*
X026112Y039153D02*
G03*
X026112Y039153I-000039J0D01*
G01*
X029414Y035905D02*
G03*
X029414Y035905I-000039J0D01*
G01*
X032224Y039198D02*
G03*
X032224Y039198I-000039J0D01*
G01*
X034454Y036753D02*
G03*
X034454Y036753I-000039J0D01*
G01*
X024555Y038275D02*
G03*
X024562Y038253I-000032J-000022D01*
G01*
X037267Y03854D02*
G03*
X037267Y03854I-000039J0D01*
G01*
X029006Y039996D02*
G03*
X029006Y039996I-000039J0D01*
G01*
X042766Y039153D02*
G03*
X042766Y039153I-000039J0D01*
G01*
X046068Y035905D02*
G03*
X046068Y035905I-000039J0D01*
G01*
X048878Y039198D02*
G03*
X048878Y039198I-000039J0D01*
G01*
X051108Y036753D02*
G03*
X051108Y036753I-000039J0D01*
G01*
X041209Y038275D02*
G03*
X041216Y038253I-000032J-000022D01*
G01*
X053921Y03854D02*
G03*
X053921Y03854I-000039J0D01*
G01*
X045659Y039996D02*
G03*
X045659Y039996I-000039J0D01*
G01*
X026112Y045373D02*
G03*
X026112Y045373I-000039J0D01*
G01*
X029414Y042125D02*
G03*
X029414Y042125I-000039J0D01*
G01*
X032224Y045418D02*
G03*
X032224Y045418I-000039J0D01*
G01*
X034454Y042973D02*
G03*
X034454Y042973I-000039J0D01*
G01*
X024555Y044496D02*
G03*
X024562Y044473I-000032J-000022D01*
G01*
X037267Y04476D02*
G03*
X037267Y04476I-000039J0D01*
G01*
X029006Y046217D02*
G03*
X029006Y046217I-000039J0D01*
G01*
X042766Y045373D02*
G03*
X042766Y045373I-000039J0D01*
G01*
X046068Y042125D02*
G03*
X046068Y042125I-000039J0D01*
G01*
X048878Y045418D02*
G03*
X048878Y045418I-000039J0D01*
G01*
X051108Y042973D02*
G03*
X051108Y042973I-000039J0D01*
G01*
X041209Y044496D02*
G03*
X041216Y044473I-000032J-000022D01*
G01*
X053921Y04476D02*
G03*
X053921Y04476I-000039J0D01*
G01*
X045659Y046217D02*
G03*
X045659Y046217I-000039J0D01*
G01*
D58*
X025894Y020576D02*
Y021206D01*
X024752D02*
X025894D01*
X024752Y020576D02*
Y021206D01*
Y020576D02*
X025894D01*
X029723Y017229D02*
X030614Y01812D01*
X030252Y018482D02*
X030614Y01812D01*
X029361Y017591D02*
X030252Y018482D01*
X029361Y017591D02*
X029723Y017229D01*
X032484Y019253D02*
Y020828D01*
X034059Y019253D02*
Y020828D01*
X032484D02*
X034059D01*
X032484Y019253D02*
X034059D01*
X034179Y017835D02*
Y018347D01*
X032919D02*
X034179D01*
X032919Y017835D02*
Y018347D01*
Y017835D02*
X034179D01*
X024853Y018366D02*
Y019517D01*
Y018366D02*
X025493D01*
Y019517D01*
X024853D02*
X025493D01*
X038862Y018628D02*
Y021128D01*
X039511D01*
Y018628D02*
Y021128D01*
X038862Y018628D02*
X039511D01*
X04261D01*
Y021128D01*
X039511D02*
X04261D01*
X027136Y020154D02*
Y021729D01*
X02871D01*
Y020154D02*
Y021729D01*
X027136Y020154D02*
X02871D01*
X027136D02*
X02871D01*
X042547Y020576D02*
Y021206D01*
X041406D02*
X042547D01*
X041406Y020576D02*
Y021206D01*
Y020576D02*
X042547D01*
X046376Y017229D02*
X047267Y01812D01*
X046905Y018482D02*
X047267Y01812D01*
X046015Y017591D02*
X046905Y018482D01*
X046015Y017591D02*
X046376Y017229D01*
X049138Y019253D02*
Y020828D01*
X050713Y019253D02*
Y020828D01*
X049138D02*
X050713D01*
X049138Y019253D02*
X050713D01*
X050832Y017835D02*
Y018347D01*
X049573D02*
X050832D01*
X049573Y017835D02*
Y018347D01*
Y017835D02*
X050832D01*
X041507Y018366D02*
Y019517D01*
Y018366D02*
X042146D01*
Y019517D01*
X041507D02*
X042146D01*
X055515Y018628D02*
Y021128D01*
X056165D01*
Y018628D02*
Y021128D01*
X055515Y018628D02*
X056165D01*
X059263D01*
Y021128D01*
X056165D02*
X059263D01*
X043789Y020154D02*
Y021729D01*
X045364D01*
Y020154D02*
Y021729D01*
X043789Y020154D02*
X045364D01*
X043789D02*
X045364D01*
X025894Y026797D02*
Y027427D01*
X024752D02*
X025894D01*
X024752Y026797D02*
Y027427D01*
Y026797D02*
X025894D01*
X029723Y02345D02*
X030614Y024341D01*
X030252Y024703D02*
X030614Y024341D01*
X029361Y023812D02*
X030252Y024703D01*
X029361Y023812D02*
X029723Y02345D01*
X032484Y025473D02*
Y027048D01*
X034059Y025473D02*
Y027048D01*
X032484D02*
X034059D01*
X032484Y025473D02*
X034059D01*
X034179Y024056D02*
Y024568D01*
X032919D02*
X034179D01*
X032919Y024056D02*
Y024568D01*
Y024056D02*
X034179D01*
X024853Y024586D02*
Y025738D01*
Y024586D02*
X025493D01*
Y025738D01*
X024853D02*
X025493D01*
X038862Y024849D02*
Y027349D01*
X039511D01*
Y024849D02*
Y027349D01*
X038862Y024849D02*
X039511D01*
X04261D01*
Y027349D01*
X039511D02*
X04261D01*
X027136Y026374D02*
Y027949D01*
X02871D01*
Y026374D02*
Y027949D01*
X027136Y026374D02*
X02871D01*
X027136D02*
X02871D01*
X042547Y026797D02*
Y027427D01*
X041406D02*
X042547D01*
X041406Y026797D02*
Y027427D01*
Y026797D02*
X042547D01*
X046376Y02345D02*
X047267Y024341D01*
X046905Y024703D02*
X047267Y024341D01*
X046015Y023812D02*
X046905Y024703D01*
X046015Y023812D02*
X046376Y02345D01*
X049138Y025473D02*
Y027048D01*
X050713Y025473D02*
Y027048D01*
X049138D02*
X050713D01*
X049138Y025473D02*
X050713D01*
X050832Y024056D02*
Y024568D01*
X049573D02*
X050832D01*
X049573Y024056D02*
Y024568D01*
Y024056D02*
X050832D01*
X041507Y024586D02*
Y025738D01*
Y024586D02*
X042146D01*
Y025738D01*
X041507D02*
X042146D01*
X055515Y024849D02*
Y027349D01*
X056165D01*
Y024849D02*
Y027349D01*
X055515Y024849D02*
X056165D01*
X059263D01*
Y027349D01*
X056165D02*
X059263D01*
X043789Y026374D02*
Y027949D01*
X045364D01*
Y026374D02*
Y027949D01*
X043789Y026374D02*
X045364D01*
X043789D02*
X045364D01*
X025894Y033017D02*
Y033647D01*
X024752D02*
X025894D01*
X024752Y033017D02*
Y033647D01*
Y033017D02*
X025894D01*
X029723Y02967D02*
X030614Y030561D01*
X030252Y030923D02*
X030614Y030561D01*
X029361Y030032D02*
X030252Y030923D01*
X029361Y030032D02*
X029723Y02967D01*
X032484Y031694D02*
Y033268D01*
X034059Y031694D02*
Y033268D01*
X032484D02*
X034059D01*
X032484Y031694D02*
X034059D01*
X034179Y030276D02*
Y030788D01*
X032919D02*
X034179D01*
X032919Y030276D02*
Y030788D01*
Y030276D02*
X034179D01*
X024853Y030806D02*
Y031958D01*
Y030806D02*
X025493D01*
Y031958D01*
X024853D02*
X025493D01*
X038862Y031069D02*
Y033569D01*
X039511D01*
Y031069D02*
Y033569D01*
X038862Y031069D02*
X039511D01*
X04261D01*
Y033569D01*
X039511D02*
X04261D01*
X027136Y032595D02*
Y03417D01*
X02871D01*
Y032595D02*
Y03417D01*
X027136Y032595D02*
X02871D01*
X027136D02*
X02871D01*
X042547Y033017D02*
Y033647D01*
X041406D02*
X042547D01*
X041406Y033017D02*
Y033647D01*
Y033017D02*
X042547D01*
X046376Y02967D02*
X047267Y030561D01*
X046905Y030923D02*
X047267Y030561D01*
X046015Y030032D02*
X046905Y030923D01*
X046015Y030032D02*
X046376Y02967D01*
X049138Y031694D02*
Y033268D01*
X050713Y031694D02*
Y033268D01*
X049138D02*
X050713D01*
X049138Y031694D02*
X050713D01*
X050832Y030276D02*
Y030788D01*
X049573D02*
X050832D01*
X049573Y030276D02*
Y030788D01*
Y030276D02*
X050832D01*
X041507Y030806D02*
Y031958D01*
Y030806D02*
X042146D01*
Y031958D01*
X041507D02*
X042146D01*
X055515Y031069D02*
Y033569D01*
X056165D01*
Y031069D02*
Y033569D01*
X055515Y031069D02*
X056165D01*
X059263D01*
Y033569D01*
X056165D02*
X059263D01*
X043789Y032595D02*
Y03417D01*
X045364D01*
Y032595D02*
Y03417D01*
X043789Y032595D02*
X045364D01*
X043789D02*
X045364D01*
X025894Y039238D02*
Y039868D01*
X024752D02*
X025894D01*
X024752Y039238D02*
Y039868D01*
Y039238D02*
X025894D01*
X029723Y035891D02*
X030614Y036782D01*
X030252Y037144D02*
X030614Y036782D01*
X029361Y036253D02*
X030252Y037144D01*
X029361Y036253D02*
X029723Y035891D01*
X032484Y037914D02*
Y039489D01*
X034059Y037914D02*
Y039489D01*
X032484D02*
X034059D01*
X032484Y037914D02*
X034059D01*
X034179Y036497D02*
Y037009D01*
X032919D02*
X034179D01*
X032919Y036497D02*
Y037009D01*
Y036497D02*
X034179D01*
X024853Y037027D02*
Y038179D01*
Y037027D02*
X025493D01*
Y038179D01*
X024853D02*
X025493D01*
X038862Y03729D02*
Y03979D01*
X039511D01*
Y03729D02*
Y03979D01*
X038862Y03729D02*
X039511D01*
X04261D01*
Y03979D01*
X039511D02*
X04261D01*
X027136Y038815D02*
Y04039D01*
X02871D01*
Y038815D02*
Y04039D01*
X027136Y038815D02*
X02871D01*
X027136D02*
X02871D01*
X042547Y039238D02*
Y039868D01*
X041406D02*
X042547D01*
X041406Y039238D02*
Y039868D01*
Y039238D02*
X042547D01*
X046376Y035891D02*
X047267Y036782D01*
X046905Y037144D02*
X047267Y036782D01*
X046015Y036253D02*
X046905Y037144D01*
X046015Y036253D02*
X046376Y035891D01*
X049138Y037914D02*
Y039489D01*
X050713Y037914D02*
Y039489D01*
X049138D02*
X050713D01*
X049138Y037914D02*
X050713D01*
X050832Y036497D02*
Y037009D01*
X049573D02*
X050832D01*
X049573Y036497D02*
Y037009D01*
Y036497D02*
X050832D01*
X041507Y037027D02*
Y038179D01*
Y037027D02*
X042146D01*
Y038179D01*
X041507D02*
X042146D01*
X055515Y03729D02*
Y03979D01*
X056165D01*
Y03729D02*
Y03979D01*
X055515Y03729D02*
X056165D01*
X059263D01*
Y03979D01*
X056165D02*
X059263D01*
X043789Y038815D02*
Y04039D01*
X045364D01*
Y038815D02*
Y04039D01*
X043789Y038815D02*
X045364D01*
X043789D02*
X045364D01*
X025894Y045458D02*
Y046088D01*
X024752D02*
X025894D01*
X024752Y045458D02*
Y046088D01*
Y045458D02*
X025894D01*
X029723Y042111D02*
X030614Y043002D01*
X030252Y043364D02*
X030614Y043002D01*
X029361Y042473D02*
X030252Y043364D01*
X029361Y042473D02*
X029723Y042111D01*
X032484Y044135D02*
Y045709D01*
X034059Y044135D02*
Y045709D01*
X032484D02*
X034059D01*
X032484Y044135D02*
X034059D01*
X034179Y042717D02*
Y043229D01*
X032919D02*
X034179D01*
X032919Y042717D02*
Y043229D01*
Y042717D02*
X034179D01*
X024853Y043247D02*
Y044399D01*
Y043247D02*
X025493D01*
Y044399D01*
X024853D02*
X025493D01*
X038862Y04351D02*
Y04601D01*
X039511D01*
Y04351D02*
Y04601D01*
X038862Y04351D02*
X039511D01*
X04261D01*
Y04601D01*
X039511D02*
X04261D01*
X027136Y045036D02*
Y046611D01*
X02871D01*
Y045036D02*
Y046611D01*
X027136Y045036D02*
X02871D01*
X027136D02*
X02871D01*
X042547Y045458D02*
Y046088D01*
X041406D02*
X042547D01*
X041406Y045458D02*
Y046088D01*
Y045458D02*
X042547D01*
X046376Y042111D02*
X047267Y043002D01*
X046905Y043364D02*
X047267Y043002D01*
X046015Y042473D02*
X046905Y043364D01*
X046015Y042473D02*
X046376Y042111D01*
X049138Y044135D02*
Y045709D01*
X050713Y044135D02*
Y045709D01*
X049138D02*
X050713D01*
X049138Y044135D02*
X050713D01*
X050832Y042717D02*
Y043229D01*
X049573D02*
X050832D01*
X049573Y042717D02*
Y043229D01*
Y042717D02*
X050832D01*
X041507Y043247D02*
Y044399D01*
Y043247D02*
X042146D01*
Y044399D01*
X041507D02*
X042146D01*
X055515Y04351D02*
Y04601D01*
X056165D01*
Y04351D02*
Y04601D01*
X055515Y04351D02*
X056165D01*
X059263D01*
Y04601D01*
X056165D02*
X059263D01*
X043789Y045036D02*
Y046611D01*
X045364D01*
Y045036D02*
Y046611D01*
X043789Y045036D02*
X045364D01*
X043789D02*
X045364D01*
D60*
X03007Y016794D02*
G03*
X03007Y016794I-000197J0D01*
G01*
X023367Y021504D02*
Y021878D01*
X022678Y021504D02*
Y021878D01*
X023367D01*
X022678Y021504D02*
X023367D01*
X023878D02*
X024567D01*
X023878Y021878D02*
X024567D01*
X023878Y021504D02*
Y021878D01*
X024567Y021504D02*
Y021878D01*
X036621Y019989D02*
X036825D01*
X036621Y020394D02*
X036825D01*
X036621Y019989D02*
Y020394D01*
X036825Y019989D02*
Y020394D01*
X025536Y017397D02*
X02591D01*
X025536Y018086D02*
X02591D01*
Y017397D02*
Y018086D01*
X025536Y017397D02*
Y018086D01*
X032471Y018139D02*
X032675D01*
X032471Y018544D02*
X032675D01*
X032471Y018139D02*
Y018544D01*
X032675Y018139D02*
Y018544D01*
X036276Y019889D02*
Y020094D01*
X03587Y019889D02*
Y020094D01*
Y019889D02*
X036276D01*
X03587Y020094D02*
X036276D01*
X035043Y019889D02*
X035449D01*
X035043Y020094D02*
X035449D01*
Y019889D02*
Y020094D01*
X035043Y019889D02*
Y020094D01*
X036026Y019089D02*
Y019294D01*
X03562Y019089D02*
Y019294D01*
Y019089D02*
X036026D01*
X03562Y019294D02*
X036026D01*
X036026Y018589D02*
Y018794D01*
X03562Y018589D02*
Y018794D01*
Y018589D02*
X036026Y018589D01*
X03562Y018794D02*
X036026Y018794D01*
X034725Y019639D02*
X034725Y020044D01*
X034521D02*
X034521Y019639D01*
X034521Y020044D02*
X034725D01*
X034521Y019639D02*
X034725D01*
X035225Y019165D02*
Y019571D01*
X035021Y019165D02*
Y019571D01*
X035225D01*
X035021Y019165D02*
X035225D01*
X034415Y021085D02*
Y021498D01*
X034631Y021085D02*
Y021498D01*
X034415Y021085D02*
X034631D01*
X034415Y021498D02*
X034631D01*
X033926Y021439D02*
Y021644D01*
X03352Y021439D02*
Y021644D01*
Y021439D02*
X033926D01*
X03352Y021644D02*
X033926D01*
X03267Y021439D02*
Y021644D01*
X033076Y021439D02*
Y021644D01*
X03267D02*
X033076D01*
X03267Y021439D02*
X033076D01*
X031165Y021548D02*
X031381D01*
X031165Y021135D02*
X031381D01*
X031165D02*
Y021548D01*
X031381Y021135D02*
Y021548D01*
X029536Y020997D02*
Y021686D01*
X02991Y020997D02*
Y021686D01*
X029536D02*
X02991D01*
X029536Y020997D02*
X02991Y020997D01*
X030243Y019664D02*
X030396Y019511D01*
X02995Y019372D02*
X030103Y019219D01*
X02995Y019372D02*
X030243Y019664D01*
X030103Y019219D02*
X030396Y019511D01*
X028067Y016404D02*
Y016778D01*
X027378Y016404D02*
Y016778D01*
Y016404D02*
X028067D01*
X027378Y016778D02*
X028067D01*
X016475Y016579D02*
X024271D01*
Y021304D01*
X016475D02*
X024271D01*
X016475Y016579D02*
Y021304D01*
X03056Y020997D02*
Y021686D01*
X030186Y020997D02*
X030186Y021686D01*
X030186Y020997D02*
X03056D01*
X030186Y021686D02*
X03056D01*
X029678Y020854D02*
X030367D01*
X029678Y021228D02*
X030367D01*
X030367Y020854D02*
X030367Y021228D01*
X029678D02*
X029678Y020854D01*
X029873Y016293D02*
X031822Y018241D01*
X027924D02*
X029873Y02019D01*
X027924Y018241D02*
X029873Y016293D01*
Y02019D02*
X031822Y018241D01*
X026736Y017347D02*
Y018036D01*
X02711Y017347D02*
Y018036D01*
X026736Y017347D02*
X02711D01*
X026736Y018036D02*
X02711D01*
X024317Y021504D02*
Y021878D01*
X023628Y021504D02*
Y021878D01*
Y021504D02*
X024317D01*
X023628Y021878D02*
X024317D01*
X026808Y020266D02*
Y021611D01*
X026138Y020266D02*
Y021611D01*
Y020266D02*
X026808D01*
X026138Y021611D02*
X026808D01*
X025573Y018128D02*
X026261D01*
X025573Y017754D02*
X026261D01*
X025573D02*
Y018128D01*
X026261Y017754D02*
Y018128D01*
X025028Y019804D02*
X025717D01*
X025028Y020178D02*
X025717D01*
Y019804D02*
Y020178D01*
X025028Y019804D02*
Y020178D01*
X025015Y017485D02*
Y017898D01*
X025231Y017485D02*
Y017898D01*
X025015D02*
X025231D01*
X025015Y017485D02*
X025231D01*
X031528Y016104D02*
X032217D01*
X031528Y016478D02*
X032217D01*
Y016104D02*
Y016478D01*
X031528Y016104D02*
Y016478D01*
X032028Y016754D02*
X032717D01*
X032028Y017128D02*
X032717D01*
Y016754D02*
Y017128D01*
X032028Y016754D02*
Y017128D01*
X046723Y016794D02*
G03*
X046723Y016794I-000197J0D01*
G01*
X040021Y021504D02*
Y021878D01*
X039332Y021504D02*
Y021878D01*
X040021D01*
X039332Y021504D02*
X040021D01*
X040532D02*
X041221D01*
X040532Y021878D02*
X041221D01*
X040532Y021504D02*
Y021878D01*
X041221Y021504D02*
Y021878D01*
X053274Y019989D02*
X053479D01*
X053274Y020394D02*
X053479D01*
X053274Y019989D02*
Y020394D01*
X053479Y019989D02*
Y020394D01*
X042189Y017397D02*
X042563D01*
X042189Y018086D02*
X042563D01*
Y017397D02*
Y018086D01*
X042189Y017397D02*
Y018086D01*
X049124Y018139D02*
X049329D01*
X049124Y018544D02*
X049329D01*
X049124Y018139D02*
Y018544D01*
X049329Y018139D02*
Y018544D01*
X052929Y019889D02*
Y020094D01*
X052524Y019889D02*
Y020094D01*
Y019889D02*
X052929D01*
X052524Y020094D02*
X052929D01*
X051697Y019889D02*
X052102D01*
X051697Y020094D02*
X052102D01*
Y019889D02*
Y020094D01*
X051697Y019889D02*
Y020094D01*
X052679Y019089D02*
Y019294D01*
X052274Y019089D02*
Y019294D01*
Y019089D02*
X052679D01*
X052274Y019294D02*
X052679D01*
X052679Y018589D02*
Y018794D01*
X052274Y018589D02*
Y018794D01*
Y018589D02*
X052679Y018589D01*
X052274Y018794D02*
X052679Y018794D01*
X051379Y019639D02*
X051379Y020044D01*
X051174D02*
X051174Y019639D01*
X051174Y020044D02*
X051379D01*
X051174Y019639D02*
X051379D01*
X051879Y019165D02*
Y019571D01*
X051674Y019165D02*
Y019571D01*
X051879D01*
X051674Y019165D02*
X051879D01*
X051068Y021085D02*
Y021498D01*
X051285Y021085D02*
Y021498D01*
X051068Y021085D02*
X051285D01*
X051068Y021498D02*
X051285D01*
X050579Y021439D02*
Y021644D01*
X050174Y021439D02*
Y021644D01*
Y021439D02*
X050579D01*
X050174Y021644D02*
X050579D01*
X049324Y021439D02*
Y021644D01*
X049729Y021439D02*
Y021644D01*
X049324D02*
X049729D01*
X049324Y021439D02*
X049729D01*
X047818Y021548D02*
X048035D01*
X047818Y021135D02*
X048035D01*
X047818D02*
Y021548D01*
X048035Y021135D02*
Y021548D01*
X046189Y020997D02*
Y021686D01*
X046563Y020997D02*
Y021686D01*
X046189D02*
X046563D01*
X046189Y020997D02*
X046563Y020997D01*
X046896Y019664D02*
X047049Y019511D01*
X046604Y019372D02*
X046757Y019219D01*
X046604Y019372D02*
X046896Y019664D01*
X046757Y019219D02*
X047049Y019511D01*
X044721Y016404D02*
Y016778D01*
X044032Y016404D02*
Y016778D01*
Y016404D02*
X044721D01*
X044032Y016778D02*
X044721D01*
X033129Y016579D02*
X040924D01*
Y021304D01*
X033129D02*
X040924D01*
X033129Y016579D02*
Y021304D01*
X047213Y020997D02*
Y021686D01*
X046839Y020997D02*
X046839Y021686D01*
X046839Y020997D02*
X047213D01*
X046839Y021686D02*
X047213D01*
X046332Y020854D02*
X047021D01*
X046332Y021228D02*
X047021D01*
X047021Y020854D02*
X047021Y021228D01*
X046332D02*
X046332Y020854D01*
X046526Y016293D02*
X048475Y018241D01*
X044578D02*
X046526Y02019D01*
X044578Y018241D02*
X046526Y016293D01*
Y02019D02*
X048475Y018241D01*
X043389Y017347D02*
Y018036D01*
X043763Y017347D02*
Y018036D01*
X043389Y017347D02*
X043763D01*
X043389Y018036D02*
X043763D01*
X040971Y021504D02*
Y021878D01*
X040282Y021504D02*
Y021878D01*
Y021504D02*
X040971D01*
X040282Y021878D02*
X040971D01*
X043461Y020266D02*
Y021611D01*
X042792Y020266D02*
Y021611D01*
Y020266D02*
X043461D01*
X042792Y021611D02*
X043461D01*
X042226Y018128D02*
X042915D01*
X042226Y017754D02*
X042915D01*
X042226D02*
Y018128D01*
X042915Y017754D02*
Y018128D01*
X041682Y019804D02*
X042371D01*
X041682Y020178D02*
X042371D01*
Y019804D02*
Y020178D01*
X041682Y019804D02*
Y020178D01*
X041668Y017485D02*
Y017898D01*
X041885Y017485D02*
Y017898D01*
X041668D02*
X041885D01*
X041668Y017485D02*
X041885D01*
X048182Y016104D02*
X048871D01*
X048182Y016478D02*
X048871D01*
Y016104D02*
Y016478D01*
X048182Y016104D02*
Y016478D01*
X048682Y016754D02*
X049371D01*
X048682Y017128D02*
X049371D01*
Y016754D02*
Y017128D01*
X048682Y016754D02*
Y017128D01*
X03007Y023014D02*
G03*
X03007Y023014I-000197J0D01*
G01*
X023367Y027725D02*
Y028099D01*
X022678Y027725D02*
Y028099D01*
X023367D01*
X022678Y027725D02*
X023367D01*
X023878D02*
X024567D01*
X023878Y028099D02*
X024567D01*
X023878Y027725D02*
Y028099D01*
X024567Y027725D02*
Y028099D01*
X036621Y026209D02*
X036825D01*
X036621Y026615D02*
X036825D01*
X036621Y026209D02*
Y026615D01*
X036825Y026209D02*
Y026615D01*
X025536Y023617D02*
X02591D01*
X025536Y024306D02*
X02591D01*
Y023617D02*
Y024306D01*
X025536Y023617D02*
Y024306D01*
X032471Y024359D02*
X032675D01*
X032471Y024765D02*
X032675D01*
X032471Y024359D02*
Y024765D01*
X032675Y024359D02*
Y024765D01*
X036276Y026109D02*
Y026314D01*
X03587Y026109D02*
Y026314D01*
Y026109D02*
X036276D01*
X03587Y026314D02*
X036276D01*
X035043Y026109D02*
X035449D01*
X035043Y026314D02*
X035449D01*
Y026109D02*
Y026314D01*
X035043Y026109D02*
Y026314D01*
X036026Y025309D02*
Y025514D01*
X03562Y025309D02*
Y025514D01*
Y025309D02*
X036026D01*
X03562Y025514D02*
X036026D01*
X036026Y024809D02*
Y025014D01*
X03562Y024809D02*
Y025014D01*
Y024809D02*
X036026Y024809D01*
X03562Y025014D02*
X036026Y025014D01*
X034725Y025859D02*
X034725Y026265D01*
X034521D02*
X034521Y025859D01*
X034521Y026265D02*
X034725D01*
X034521Y025859D02*
X034725D01*
X035225Y025386D02*
Y025791D01*
X035021Y025386D02*
Y025791D01*
X035225D01*
X035021Y025386D02*
X035225D01*
X034415Y027305D02*
Y027718D01*
X034631Y027305D02*
Y027718D01*
X034415Y027305D02*
X034631D01*
X034415Y027718D02*
X034631D01*
X033926Y027659D02*
Y027864D01*
X03352Y027659D02*
Y027864D01*
Y027659D02*
X033926D01*
X03352Y027864D02*
X033926D01*
X03267Y027659D02*
Y027864D01*
X033076Y027659D02*
Y027864D01*
X03267D02*
X033076D01*
X03267Y027659D02*
X033076D01*
X031165Y027768D02*
X031381D01*
X031165Y027355D02*
X031381D01*
X031165D02*
Y027768D01*
X031381Y027355D02*
Y027768D01*
X029536Y027217D02*
Y027906D01*
X02991Y027217D02*
Y027906D01*
X029536D02*
X02991D01*
X029536Y027217D02*
X02991Y027217D01*
X030243Y025884D02*
X030396Y025731D01*
X02995Y025592D02*
X030103Y025439D01*
X02995Y025592D02*
X030243Y025884D01*
X030103Y025439D02*
X030396Y025731D01*
X028067Y022625D02*
Y022999D01*
X027378Y022625D02*
Y022999D01*
Y022625D02*
X028067D01*
X027378Y022999D02*
X028067D01*
X016475Y0228D02*
X024271D01*
Y027524D01*
X016475D02*
X024271D01*
X016475Y0228D02*
Y027524D01*
X03056Y027217D02*
Y027906D01*
X030186Y027217D02*
X030186Y027906D01*
X030186Y027217D02*
X03056D01*
X030186Y027906D02*
X03056D01*
X029678Y027075D02*
X030367D01*
X029678Y027449D02*
X030367D01*
X030367Y027075D02*
X030367Y027449D01*
X029678D02*
X029678Y027075D01*
X029873Y022513D02*
X031822Y024462D01*
X027924D02*
X029873Y026411D01*
X027924Y024462D02*
X029873Y022513D01*
Y026411D02*
X031822Y024462D01*
X026736Y023567D02*
Y024256D01*
X02711Y023567D02*
Y024256D01*
X026736Y023567D02*
X02711D01*
X026736Y024256D02*
X02711D01*
X024317Y027725D02*
Y028099D01*
X023628Y027725D02*
Y028099D01*
Y027725D02*
X024317D01*
X023628Y028099D02*
X024317D01*
X026808Y026487D02*
Y027831D01*
X026138Y026487D02*
Y027831D01*
Y026487D02*
X026808D01*
X026138Y027831D02*
X026808D01*
X025573Y024349D02*
X026261D01*
X025573Y023975D02*
X026261D01*
X025573D02*
Y024349D01*
X026261Y023975D02*
Y024349D01*
X025028Y026025D02*
X025717D01*
X025028Y026399D02*
X025717D01*
Y026025D02*
Y026399D01*
X025028Y026025D02*
Y026399D01*
X025015Y023705D02*
Y024118D01*
X025231Y023705D02*
Y024118D01*
X025015D02*
X025231D01*
X025015Y023705D02*
X025231D01*
X031528Y022325D02*
X032217D01*
X031528Y022699D02*
X032217D01*
Y022325D02*
Y022699D01*
X031528Y022325D02*
Y022699D01*
X032028Y022975D02*
X032717D01*
X032028Y023349D02*
X032717D01*
Y022975D02*
Y023349D01*
X032028Y022975D02*
Y023349D01*
X046723Y023014D02*
G03*
X046723Y023014I-000197J0D01*
G01*
X040021Y027725D02*
Y028099D01*
X039332Y027725D02*
Y028099D01*
X040021D01*
X039332Y027725D02*
X040021D01*
X040532D02*
X041221D01*
X040532Y028099D02*
X041221D01*
X040532Y027725D02*
Y028099D01*
X041221Y027725D02*
Y028099D01*
X053274Y026209D02*
X053479D01*
X053274Y026615D02*
X053479D01*
X053274Y026209D02*
Y026615D01*
X053479Y026209D02*
Y026615D01*
X042189Y023617D02*
X042563D01*
X042189Y024306D02*
X042563D01*
Y023617D02*
Y024306D01*
X042189Y023617D02*
Y024306D01*
X049124Y024359D02*
X049329D01*
X049124Y024765D02*
X049329D01*
X049124Y024359D02*
Y024765D01*
X049329Y024359D02*
Y024765D01*
X052929Y026109D02*
Y026314D01*
X052524Y026109D02*
Y026314D01*
Y026109D02*
X052929D01*
X052524Y026314D02*
X052929D01*
X051697Y026109D02*
X052102D01*
X051697Y026314D02*
X052102D01*
Y026109D02*
Y026314D01*
X051697Y026109D02*
Y026314D01*
X052679Y025309D02*
Y025514D01*
X052274Y025309D02*
Y025514D01*
Y025309D02*
X052679D01*
X052274Y025514D02*
X052679D01*
X052679Y024809D02*
Y025014D01*
X052274Y024809D02*
Y025014D01*
Y024809D02*
X052679Y024809D01*
X052274Y025014D02*
X052679Y025014D01*
X051379Y025859D02*
X051379Y026265D01*
X051174D02*
X051174Y025859D01*
X051174Y026265D02*
X051379D01*
X051174Y025859D02*
X051379D01*
X051879Y025386D02*
Y025791D01*
X051674Y025386D02*
Y025791D01*
X051879D01*
X051674Y025386D02*
X051879D01*
X051068Y027305D02*
Y027718D01*
X051285Y027305D02*
Y027718D01*
X051068Y027305D02*
X051285D01*
X051068Y027718D02*
X051285D01*
X050579Y027659D02*
Y027864D01*
X050174Y027659D02*
Y027864D01*
Y027659D02*
X050579D01*
X050174Y027864D02*
X050579D01*
X049324Y027659D02*
Y027864D01*
X049729Y027659D02*
Y027864D01*
X049324D02*
X049729D01*
X049324Y027659D02*
X049729D01*
X047818Y027768D02*
X048035D01*
X047818Y027355D02*
X048035D01*
X047818D02*
Y027768D01*
X048035Y027355D02*
Y027768D01*
X046189Y027217D02*
Y027906D01*
X046563Y027217D02*
Y027906D01*
X046189D02*
X046563D01*
X046189Y027217D02*
X046563Y027217D01*
X046896Y025884D02*
X047049Y025731D01*
X046604Y025592D02*
X046757Y025439D01*
X046604Y025592D02*
X046896Y025884D01*
X046757Y025439D02*
X047049Y025731D01*
X044721Y022625D02*
Y022999D01*
X044032Y022625D02*
Y022999D01*
Y022625D02*
X044721D01*
X044032Y022999D02*
X044721D01*
X033129Y0228D02*
X040924D01*
Y027524D01*
X033129D02*
X040924D01*
X033129Y0228D02*
Y027524D01*
X047213Y027217D02*
Y027906D01*
X046839Y027217D02*
X046839Y027906D01*
X046839Y027217D02*
X047213D01*
X046839Y027906D02*
X047213D01*
X046332Y027075D02*
X047021D01*
X046332Y027449D02*
X047021D01*
X047021Y027075D02*
X047021Y027449D01*
X046332D02*
X046332Y027075D01*
X046526Y022513D02*
X048475Y024462D01*
X044578D02*
X046526Y026411D01*
X044578Y024462D02*
X046526Y022513D01*
Y026411D02*
X048475Y024462D01*
X043389Y023567D02*
Y024256D01*
X043763Y023567D02*
Y024256D01*
X043389Y023567D02*
X043763D01*
X043389Y024256D02*
X043763D01*
X040971Y027725D02*
Y028099D01*
X040282Y027725D02*
Y028099D01*
Y027725D02*
X040971D01*
X040282Y028099D02*
X040971D01*
X043461Y026487D02*
Y027831D01*
X042792Y026487D02*
Y027831D01*
Y026487D02*
X043461D01*
X042792Y027831D02*
X043461D01*
X042226Y024349D02*
X042915D01*
X042226Y023975D02*
X042915D01*
X042226D02*
Y024349D01*
X042915Y023975D02*
Y024349D01*
X041682Y026025D02*
X042371D01*
X041682Y026399D02*
X042371D01*
Y026025D02*
Y026399D01*
X041682Y026025D02*
Y026399D01*
X041668Y023705D02*
Y024118D01*
X041885Y023705D02*
Y024118D01*
X041668D02*
X041885D01*
X041668Y023705D02*
X041885D01*
X048182Y022325D02*
X048871D01*
X048182Y022699D02*
X048871D01*
Y022325D02*
Y022699D01*
X048182Y022325D02*
Y022699D01*
X048682Y022975D02*
X049371D01*
X048682Y023349D02*
X049371D01*
Y022975D02*
Y023349D01*
X048682Y022975D02*
Y023349D01*
X03007Y029235D02*
G03*
X03007Y029235I-000197J0D01*
G01*
X023367Y033945D02*
Y034319D01*
X022678Y033945D02*
Y034319D01*
X023367D01*
X022678Y033945D02*
X023367D01*
X023878D02*
X024567D01*
X023878Y034319D02*
X024567D01*
X023878Y033945D02*
Y034319D01*
X024567Y033945D02*
Y034319D01*
X036621Y03243D02*
X036825D01*
X036621Y032835D02*
X036825D01*
X036621Y03243D02*
Y032835D01*
X036825Y03243D02*
Y032835D01*
X025536Y029838D02*
X02591D01*
X025536Y030527D02*
X02591D01*
Y029838D02*
Y030527D01*
X025536Y029838D02*
Y030527D01*
X032471Y03058D02*
X032675D01*
X032471Y030985D02*
X032675D01*
X032471Y03058D02*
Y030985D01*
X032675Y03058D02*
Y030985D01*
X036276Y03233D02*
Y032535D01*
X03587Y03233D02*
Y032535D01*
Y03233D02*
X036276D01*
X03587Y032535D02*
X036276D01*
X035043Y03233D02*
X035449D01*
X035043Y032535D02*
X035449D01*
Y03233D02*
Y032535D01*
X035043Y03233D02*
Y032535D01*
X036026Y03153D02*
Y031735D01*
X03562Y03153D02*
Y031735D01*
Y03153D02*
X036026D01*
X03562Y031735D02*
X036026D01*
X036026Y03103D02*
Y031235D01*
X03562Y03103D02*
Y031235D01*
Y03103D02*
X036026Y03103D01*
X03562Y031235D02*
X036026Y031235D01*
X034725Y03208D02*
X034725Y032485D01*
X034521D02*
X034521Y03208D01*
X034521Y032485D02*
X034725D01*
X034521Y03208D02*
X034725D01*
X035225Y031606D02*
Y032012D01*
X035021Y031606D02*
Y032012D01*
X035225D01*
X035021Y031606D02*
X035225D01*
X034415Y033526D02*
Y033939D01*
X034631Y033526D02*
Y033939D01*
X034415Y033526D02*
X034631D01*
X034415Y033939D02*
X034631D01*
X033926Y03388D02*
Y034085D01*
X03352Y03388D02*
Y034085D01*
Y03388D02*
X033926D01*
X03352Y034085D02*
X033926D01*
X03267Y03388D02*
Y034085D01*
X033076Y03388D02*
Y034085D01*
X03267D02*
X033076D01*
X03267Y03388D02*
X033076D01*
X031165Y033989D02*
X031381D01*
X031165Y033576D02*
X031381D01*
X031165D02*
Y033989D01*
X031381Y033576D02*
Y033989D01*
X029536Y033438D02*
Y034127D01*
X02991Y033438D02*
Y034127D01*
X029536D02*
X02991D01*
X029536Y033438D02*
X02991Y033438D01*
X030243Y032105D02*
X030396Y031952D01*
X02995Y031813D02*
X030103Y03166D01*
X02995Y031813D02*
X030243Y032105D01*
X030103Y03166D02*
X030396Y031952D01*
X028067Y028845D02*
Y029219D01*
X027378Y028845D02*
Y029219D01*
Y028845D02*
X028067D01*
X027378Y029219D02*
X028067D01*
X016475Y02902D02*
X024271D01*
Y033744D01*
X016475D02*
X024271D01*
X016475Y02902D02*
Y033744D01*
X03056Y033438D02*
Y034127D01*
X030186Y033438D02*
X030186Y034127D01*
X030186Y033438D02*
X03056D01*
X030186Y034127D02*
X03056D01*
X029678Y033295D02*
X030367D01*
X029678Y033669D02*
X030367D01*
X030367Y033295D02*
X030367Y033669D01*
X029678D02*
X029678Y033295D01*
X029873Y028734D02*
X031822Y030682D01*
X027924D02*
X029873Y032631D01*
X027924Y030682D02*
X029873Y028734D01*
Y032631D02*
X031822Y030682D01*
X026736Y029788D02*
Y030477D01*
X02711Y029788D02*
Y030477D01*
X026736Y029788D02*
X02711D01*
X026736Y030477D02*
X02711D01*
X024317Y033945D02*
Y034319D01*
X023628Y033945D02*
Y034319D01*
Y033945D02*
X024317D01*
X023628Y034319D02*
X024317D01*
X026808Y032707D02*
Y034052D01*
X026138Y032707D02*
Y034052D01*
Y032707D02*
X026808D01*
X026138Y034052D02*
X026808D01*
X025573Y030569D02*
X026261D01*
X025573Y030195D02*
X026261D01*
X025573D02*
Y030569D01*
X026261Y030195D02*
Y030569D01*
X025028Y032245D02*
X025717D01*
X025028Y032619D02*
X025717D01*
Y032245D02*
Y032619D01*
X025028Y032245D02*
Y032619D01*
X025015Y029926D02*
Y030339D01*
X025231Y029926D02*
Y030339D01*
X025015D02*
X025231D01*
X025015Y029926D02*
X025231D01*
X031528Y028545D02*
X032217D01*
X031528Y028919D02*
X032217D01*
Y028545D02*
Y028919D01*
X031528Y028545D02*
Y028919D01*
X032028Y029195D02*
X032717D01*
X032028Y029569D02*
X032717D01*
Y029195D02*
Y029569D01*
X032028Y029195D02*
Y029569D01*
X046723Y029235D02*
G03*
X046723Y029235I-000197J0D01*
G01*
X040021Y033945D02*
Y034319D01*
X039332Y033945D02*
Y034319D01*
X040021D01*
X039332Y033945D02*
X040021D01*
X040532D02*
X041221D01*
X040532Y034319D02*
X041221D01*
X040532Y033945D02*
Y034319D01*
X041221Y033945D02*
Y034319D01*
X053274Y03243D02*
X053479D01*
X053274Y032835D02*
X053479D01*
X053274Y03243D02*
Y032835D01*
X053479Y03243D02*
Y032835D01*
X042189Y029838D02*
X042563D01*
X042189Y030527D02*
X042563D01*
Y029838D02*
Y030527D01*
X042189Y029838D02*
Y030527D01*
X049124Y03058D02*
X049329D01*
X049124Y030985D02*
X049329D01*
X049124Y03058D02*
Y030985D01*
X049329Y03058D02*
Y030985D01*
X052929Y03233D02*
Y032535D01*
X052524Y03233D02*
Y032535D01*
Y03233D02*
X052929D01*
X052524Y032535D02*
X052929D01*
X051697Y03233D02*
X052102D01*
X051697Y032535D02*
X052102D01*
Y03233D02*
Y032535D01*
X051697Y03233D02*
Y032535D01*
X052679Y03153D02*
Y031735D01*
X052274Y03153D02*
Y031735D01*
Y03153D02*
X052679D01*
X052274Y031735D02*
X052679D01*
X052679Y03103D02*
Y031235D01*
X052274Y03103D02*
Y031235D01*
Y03103D02*
X052679Y03103D01*
X052274Y031235D02*
X052679Y031235D01*
X051379Y03208D02*
X051379Y032485D01*
X051174D02*
X051174Y03208D01*
X051174Y032485D02*
X051379D01*
X051174Y03208D02*
X051379D01*
X051879Y031606D02*
Y032012D01*
X051674Y031606D02*
Y032012D01*
X051879D01*
X051674Y031606D02*
X051879D01*
X051068Y033526D02*
Y033939D01*
X051285Y033526D02*
Y033939D01*
X051068Y033526D02*
X051285D01*
X051068Y033939D02*
X051285D01*
X050579Y03388D02*
Y034085D01*
X050174Y03388D02*
Y034085D01*
Y03388D02*
X050579D01*
X050174Y034085D02*
X050579D01*
X049324Y03388D02*
Y034085D01*
X049729Y03388D02*
Y034085D01*
X049324D02*
X049729D01*
X049324Y03388D02*
X049729D01*
X047818Y033989D02*
X048035D01*
X047818Y033576D02*
X048035D01*
X047818D02*
Y033989D01*
X048035Y033576D02*
Y033989D01*
X046189Y033438D02*
Y034127D01*
X046563Y033438D02*
Y034127D01*
X046189D02*
X046563D01*
X046189Y033438D02*
X046563Y033438D01*
X046896Y032105D02*
X047049Y031952D01*
X046604Y031813D02*
X046757Y03166D01*
X046604Y031813D02*
X046896Y032105D01*
X046757Y03166D02*
X047049Y031952D01*
X044721Y028845D02*
Y029219D01*
X044032Y028845D02*
Y029219D01*
Y028845D02*
X044721D01*
X044032Y029219D02*
X044721D01*
X033129Y02902D02*
X040924D01*
Y033744D01*
X033129D02*
X040924D01*
X033129Y02902D02*
Y033744D01*
X047213Y033438D02*
Y034127D01*
X046839Y033438D02*
X046839Y034127D01*
X046839Y033438D02*
X047213D01*
X046839Y034127D02*
X047213D01*
X046332Y033295D02*
X047021D01*
X046332Y033669D02*
X047021D01*
X047021Y033295D02*
X047021Y033669D01*
X046332D02*
X046332Y033295D01*
X046526Y028734D02*
X048475Y030682D01*
X044578D02*
X046526Y032631D01*
X044578Y030682D02*
X046526Y028734D01*
Y032631D02*
X048475Y030682D01*
X043389Y029788D02*
Y030477D01*
X043763Y029788D02*
Y030477D01*
X043389Y029788D02*
X043763D01*
X043389Y030477D02*
X043763D01*
X040971Y033945D02*
Y034319D01*
X040282Y033945D02*
Y034319D01*
Y033945D02*
X040971D01*
X040282Y034319D02*
X040971D01*
X043461Y032707D02*
Y034052D01*
X042792Y032707D02*
Y034052D01*
Y032707D02*
X043461D01*
X042792Y034052D02*
X043461D01*
X042226Y030569D02*
X042915D01*
X042226Y030195D02*
X042915D01*
X042226D02*
Y030569D01*
X042915Y030195D02*
Y030569D01*
X041682Y032245D02*
X042371D01*
X041682Y032619D02*
X042371D01*
Y032245D02*
Y032619D01*
X041682Y032245D02*
Y032619D01*
X041668Y029926D02*
Y030339D01*
X041885Y029926D02*
Y030339D01*
X041668D02*
X041885D01*
X041668Y029926D02*
X041885D01*
X048182Y028545D02*
X048871D01*
X048182Y028919D02*
X048871D01*
Y028545D02*
Y028919D01*
X048182Y028545D02*
Y028919D01*
X048682Y029195D02*
X049371D01*
X048682Y029569D02*
X049371D01*
Y029195D02*
Y029569D01*
X048682Y029195D02*
Y029569D01*
X03007Y035455D02*
G03*
X03007Y035455I-000197J0D01*
G01*
X023367Y040166D02*
Y04054D01*
X022678Y040166D02*
Y04054D01*
X023367D01*
X022678Y040166D02*
X023367D01*
X023878D02*
X024567D01*
X023878Y04054D02*
X024567D01*
X023878Y040166D02*
Y04054D01*
X024567Y040166D02*
Y04054D01*
X036621Y03865D02*
X036825D01*
X036621Y039055D02*
X036825D01*
X036621Y03865D02*
Y039055D01*
X036825Y03865D02*
Y039055D01*
X025536Y036058D02*
X02591D01*
X025536Y036747D02*
X02591D01*
Y036058D02*
Y036747D01*
X025536Y036058D02*
Y036747D01*
X032471Y0368D02*
X032675D01*
X032471Y037205D02*
X032675D01*
X032471Y0368D02*
Y037205D01*
X032675Y0368D02*
Y037205D01*
X036276Y03855D02*
Y038755D01*
X03587Y03855D02*
Y038755D01*
Y03855D02*
X036276D01*
X03587Y038755D02*
X036276D01*
X035043Y03855D02*
X035449D01*
X035043Y038755D02*
X035449D01*
Y03855D02*
Y038755D01*
X035043Y03855D02*
Y038755D01*
X036026Y03775D02*
Y037955D01*
X03562Y03775D02*
Y037955D01*
Y03775D02*
X036026D01*
X03562Y037955D02*
X036026D01*
X036026Y03725D02*
Y037455D01*
X03562Y03725D02*
Y037455D01*
Y03725D02*
X036026Y03725D01*
X03562Y037455D02*
X036026Y037455D01*
X034725Y0383D02*
X034725Y038705D01*
X034521D02*
X034521Y0383D01*
X034521Y038705D02*
X034725D01*
X034521Y0383D02*
X034725D01*
X035225Y037827D02*
Y038232D01*
X035021Y037827D02*
Y038232D01*
X035225D01*
X035021Y037827D02*
X035225D01*
X034415Y039746D02*
Y040159D01*
X034631Y039746D02*
Y040159D01*
X034415Y039746D02*
X034631D01*
X034415Y040159D02*
X034631D01*
X033926Y0401D02*
Y040305D01*
X03352Y0401D02*
Y040305D01*
Y0401D02*
X033926D01*
X03352Y040305D02*
X033926D01*
X03267Y0401D02*
Y040305D01*
X033076Y0401D02*
Y040305D01*
X03267D02*
X033076D01*
X03267Y0401D02*
X033076D01*
X031165Y040209D02*
X031381D01*
X031165Y039796D02*
X031381D01*
X031165D02*
Y040209D01*
X031381Y039796D02*
Y040209D01*
X029536Y039658D02*
Y040347D01*
X02991Y039658D02*
Y040347D01*
X029536D02*
X02991D01*
X029536Y039658D02*
X02991Y039658D01*
X030243Y038325D02*
X030396Y038172D01*
X02995Y038033D02*
X030103Y03788D01*
X02995Y038033D02*
X030243Y038325D01*
X030103Y03788D02*
X030396Y038172D01*
X028067Y035066D02*
Y03544D01*
X027378Y035066D02*
Y03544D01*
Y035066D02*
X028067D01*
X027378Y03544D02*
X028067D01*
X016475Y035241D02*
X024271D01*
Y039965D01*
X016475D02*
X024271D01*
X016475Y035241D02*
Y039965D01*
X03056Y039658D02*
Y040347D01*
X030186Y039658D02*
X030186Y040347D01*
X030186Y039658D02*
X03056D01*
X030186Y040347D02*
X03056D01*
X029678Y039516D02*
X030367D01*
X029678Y03989D02*
X030367D01*
X030367Y039516D02*
X030367Y03989D01*
X029678D02*
X029678Y039516D01*
X029873Y034954D02*
X031822Y036903D01*
X027924D02*
X029873Y038851D01*
X027924Y036903D02*
X029873Y034954D01*
Y038851D02*
X031822Y036903D01*
X026736Y036008D02*
Y036697D01*
X02711Y036008D02*
Y036697D01*
X026736Y036008D02*
X02711D01*
X026736Y036697D02*
X02711D01*
X024317Y040166D02*
Y04054D01*
X023628Y040166D02*
Y04054D01*
Y040166D02*
X024317D01*
X023628Y04054D02*
X024317D01*
X026808Y038928D02*
Y040272D01*
X026138Y038928D02*
Y040272D01*
Y038928D02*
X026808D01*
X026138Y040272D02*
X026808D01*
X025573Y03679D02*
X026261D01*
X025573Y036416D02*
X026261D01*
X025573D02*
Y03679D01*
X026261Y036416D02*
Y03679D01*
X025028Y038466D02*
X025717D01*
X025028Y03884D02*
X025717D01*
Y038466D02*
Y03884D01*
X025028Y038466D02*
Y03884D01*
X025015Y036146D02*
Y036559D01*
X025231Y036146D02*
Y036559D01*
X025015D02*
X025231D01*
X025015Y036146D02*
X025231D01*
X031528Y034766D02*
X032217D01*
X031528Y03514D02*
X032217D01*
Y034766D02*
Y03514D01*
X031528Y034766D02*
Y03514D01*
X032028Y035416D02*
X032717D01*
X032028Y03579D02*
X032717D01*
Y035416D02*
Y03579D01*
X032028Y035416D02*
Y03579D01*
X046723Y035455D02*
G03*
X046723Y035455I-000197J0D01*
G01*
X040021Y040166D02*
Y04054D01*
X039332Y040166D02*
Y04054D01*
X040021D01*
X039332Y040166D02*
X040021D01*
X040532D02*
X041221D01*
X040532Y04054D02*
X041221D01*
X040532Y040166D02*
Y04054D01*
X041221Y040166D02*
Y04054D01*
X053274Y03865D02*
X053479D01*
X053274Y039055D02*
X053479D01*
X053274Y03865D02*
Y039055D01*
X053479Y03865D02*
Y039055D01*
X042189Y036058D02*
X042563D01*
X042189Y036747D02*
X042563D01*
Y036058D02*
Y036747D01*
X042189Y036058D02*
Y036747D01*
X049124Y0368D02*
X049329D01*
X049124Y037205D02*
X049329D01*
X049124Y0368D02*
Y037205D01*
X049329Y0368D02*
Y037205D01*
X052929Y03855D02*
Y038755D01*
X052524Y03855D02*
Y038755D01*
Y03855D02*
X052929D01*
X052524Y038755D02*
X052929D01*
X051697Y03855D02*
X052102D01*
X051697Y038755D02*
X052102D01*
Y03855D02*
Y038755D01*
X051697Y03855D02*
Y038755D01*
X052679Y03775D02*
Y037955D01*
X052274Y03775D02*
Y037955D01*
Y03775D02*
X052679D01*
X052274Y037955D02*
X052679D01*
X052679Y03725D02*
Y037455D01*
X052274Y03725D02*
Y037455D01*
Y03725D02*
X052679Y03725D01*
X052274Y037455D02*
X052679Y037455D01*
X051379Y0383D02*
X051379Y038705D01*
X051174D02*
X051174Y0383D01*
X051174Y038705D02*
X051379D01*
X051174Y0383D02*
X051379D01*
X051879Y037827D02*
Y038232D01*
X051674Y037827D02*
Y038232D01*
X051879D01*
X051674Y037827D02*
X051879D01*
X051068Y039746D02*
Y040159D01*
X051285Y039746D02*
Y040159D01*
X051068Y039746D02*
X051285D01*
X051068Y040159D02*
X051285D01*
X050579Y0401D02*
Y040305D01*
X050174Y0401D02*
Y040305D01*
Y0401D02*
X050579D01*
X050174Y040305D02*
X050579D01*
X049324Y0401D02*
Y040305D01*
X049729Y0401D02*
Y040305D01*
X049324D02*
X049729D01*
X049324Y0401D02*
X049729D01*
X047818Y040209D02*
X048035D01*
X047818Y039796D02*
X048035D01*
X047818D02*
Y040209D01*
X048035Y039796D02*
Y040209D01*
X046189Y039658D02*
Y040347D01*
X046563Y039658D02*
Y040347D01*
X046189D02*
X046563D01*
X046189Y039658D02*
X046563Y039658D01*
X046896Y038325D02*
X047049Y038172D01*
X046604Y038033D02*
X046757Y03788D01*
X046604Y038033D02*
X046896Y038325D01*
X046757Y03788D02*
X047049Y038172D01*
X044721Y035066D02*
Y03544D01*
X044032Y035066D02*
Y03544D01*
Y035066D02*
X044721D01*
X044032Y03544D02*
X044721D01*
X033129Y035241D02*
X040924D01*
Y039965D01*
X033129D02*
X040924D01*
X033129Y035241D02*
Y039965D01*
X047213Y039658D02*
Y040347D01*
X046839Y039658D02*
X046839Y040347D01*
X046839Y039658D02*
X047213D01*
X046839Y040347D02*
X047213D01*
X046332Y039516D02*
X047021D01*
X046332Y03989D02*
X047021D01*
X047021Y039516D02*
X047021Y03989D01*
X046332D02*
X046332Y039516D01*
X046526Y034954D02*
X048475Y036903D01*
X044578D02*
X046526Y038851D01*
X044578Y036903D02*
X046526Y034954D01*
Y038851D02*
X048475Y036903D01*
X043389Y036008D02*
Y036697D01*
X043763Y036008D02*
Y036697D01*
X043389Y036008D02*
X043763D01*
X043389Y036697D02*
X043763D01*
X040971Y040166D02*
Y04054D01*
X040282Y040166D02*
Y04054D01*
Y040166D02*
X040971D01*
X040282Y04054D02*
X040971D01*
X043461Y038928D02*
Y040272D01*
X042792Y038928D02*
Y040272D01*
Y038928D02*
X043461D01*
X042792Y040272D02*
X043461D01*
X042226Y03679D02*
X042915D01*
X042226Y036416D02*
X042915D01*
X042226D02*
Y03679D01*
X042915Y036416D02*
Y03679D01*
X041682Y038466D02*
X042371D01*
X041682Y03884D02*
X042371D01*
Y038466D02*
Y03884D01*
X041682Y038466D02*
Y03884D01*
X041668Y036146D02*
Y036559D01*
X041885Y036146D02*
Y036559D01*
X041668D02*
X041885D01*
X041668Y036146D02*
X041885D01*
X048182Y034766D02*
X048871D01*
X048182Y03514D02*
X048871D01*
Y034766D02*
Y03514D01*
X048182Y034766D02*
Y03514D01*
X048682Y035416D02*
X049371D01*
X048682Y03579D02*
X049371D01*
Y035416D02*
Y03579D01*
X048682Y035416D02*
Y03579D01*
X03007Y041676D02*
G03*
X03007Y041676I-000197J0D01*
G01*
X023367Y046386D02*
Y04676D01*
X022678Y046386D02*
Y04676D01*
X023367D01*
X022678Y046386D02*
X023367D01*
X023878D02*
X024567D01*
X023878Y04676D02*
X024567D01*
X023878Y046386D02*
Y04676D01*
X024567Y046386D02*
Y04676D01*
X036621Y04487D02*
X036825D01*
X036621Y045276D02*
X036825D01*
X036621Y04487D02*
Y045276D01*
X036825Y04487D02*
Y045276D01*
X025536Y042279D02*
X02591D01*
X025536Y042968D02*
X02591D01*
Y042279D02*
Y042968D01*
X025536Y042279D02*
Y042968D01*
X032471Y04302D02*
X032675D01*
X032471Y043426D02*
X032675D01*
X032471Y04302D02*
Y043426D01*
X032675Y04302D02*
Y043426D01*
X036276Y044771D02*
Y044976D01*
X03587Y044771D02*
Y044976D01*
Y044771D02*
X036276D01*
X03587Y044976D02*
X036276D01*
X035043Y044771D02*
X035449D01*
X035043Y044976D02*
X035449D01*
Y044771D02*
Y044976D01*
X035043Y044771D02*
Y044976D01*
X036026Y043971D02*
Y044176D01*
X03562Y043971D02*
Y044176D01*
Y043971D02*
X036026D01*
X03562Y044176D02*
X036026D01*
X036026Y043471D02*
Y043676D01*
X03562Y043471D02*
Y043676D01*
Y043471D02*
X036026Y043471D01*
X03562Y043676D02*
X036026Y043676D01*
X034725Y04452D02*
X034725Y044926D01*
X034521D02*
X034521Y04452D01*
X034521Y044926D02*
X034725D01*
X034521Y04452D02*
X034725D01*
X035225Y044047D02*
Y044453D01*
X035021Y044047D02*
Y044453D01*
X035225D01*
X035021Y044047D02*
X035225D01*
X034415Y045967D02*
Y04638D01*
X034631Y045967D02*
Y04638D01*
X034415Y045967D02*
X034631D01*
X034415Y04638D02*
X034631D01*
X033926Y046321D02*
Y046526D01*
X03352Y046321D02*
Y046526D01*
Y046321D02*
X033926D01*
X03352Y046526D02*
X033926D01*
X03267Y046321D02*
Y046526D01*
X033076Y046321D02*
Y046526D01*
X03267D02*
X033076D01*
X03267Y046321D02*
X033076D01*
X031165Y04643D02*
X031381D01*
X031165Y046017D02*
X031381D01*
X031165D02*
Y04643D01*
X031381Y046017D02*
Y04643D01*
X029536Y045879D02*
Y046568D01*
X02991Y045879D02*
Y046568D01*
X029536D02*
X02991D01*
X029536Y045879D02*
X02991Y045879D01*
X030243Y044546D02*
X030396Y044393D01*
X02995Y044254D02*
X030103Y0441D01*
X02995Y044254D02*
X030243Y044546D01*
X030103Y0441D02*
X030396Y044393D01*
X028067Y041286D02*
Y04166D01*
X027378Y041286D02*
Y04166D01*
Y041286D02*
X028067D01*
X027378Y04166D02*
X028067D01*
X016475Y041461D02*
X024271D01*
Y046185D01*
X016475D02*
X024271D01*
X016475Y041461D02*
Y046185D01*
X03056Y045879D02*
Y046568D01*
X030186Y045879D02*
X030186Y046568D01*
X030186Y045879D02*
X03056D01*
X030186Y046568D02*
X03056D01*
X029678Y045736D02*
X030367D01*
X029678Y04611D02*
X030367D01*
X030367Y045736D02*
X030367Y04611D01*
X029678D02*
X029678Y045736D01*
X029873Y041174D02*
X031822Y043123D01*
X027924D02*
X029873Y045072D01*
X027924Y043123D02*
X029873Y041174D01*
Y045072D02*
X031822Y043123D01*
X026736Y042229D02*
Y042918D01*
X02711Y042229D02*
Y042918D01*
X026736Y042229D02*
X02711D01*
X026736Y042918D02*
X02711D01*
X024317Y046386D02*
Y04676D01*
X023628Y046386D02*
Y04676D01*
Y046386D02*
X024317D01*
X023628Y04676D02*
X024317D01*
X026808Y045148D02*
Y046493D01*
X026138Y045148D02*
Y046493D01*
Y045148D02*
X026808D01*
X026138Y046493D02*
X026808D01*
X025573Y04301D02*
X026261D01*
X025573Y042636D02*
X026261D01*
X025573D02*
Y04301D01*
X026261Y042636D02*
Y04301D01*
X025028Y044686D02*
X025717D01*
X025028Y04506D02*
X025717D01*
Y044686D02*
Y04506D01*
X025028Y044686D02*
Y04506D01*
X025015Y042367D02*
Y04278D01*
X025231Y042367D02*
Y04278D01*
X025015D02*
X025231D01*
X025015Y042367D02*
X025231D01*
X031528Y040986D02*
X032217D01*
X031528Y04136D02*
X032217D01*
Y040986D02*
Y04136D01*
X031528Y040986D02*
Y04136D01*
X032028Y041636D02*
X032717D01*
X032028Y04201D02*
X032717D01*
Y041636D02*
Y04201D01*
X032028Y041636D02*
Y04201D01*
X046723Y041676D02*
G03*
X046723Y041676I-000197J0D01*
G01*
X040021Y046386D02*
Y04676D01*
X039332Y046386D02*
Y04676D01*
X040021D01*
X039332Y046386D02*
X040021D01*
X040532D02*
X041221D01*
X040532Y04676D02*
X041221D01*
X040532Y046386D02*
Y04676D01*
X041221Y046386D02*
Y04676D01*
X053274Y04487D02*
X053479D01*
X053274Y045276D02*
X053479D01*
X053274Y04487D02*
Y045276D01*
X053479Y04487D02*
Y045276D01*
X042189Y042279D02*
X042563D01*
X042189Y042968D02*
X042563D01*
Y042279D02*
Y042968D01*
X042189Y042279D02*
Y042968D01*
X049124Y04302D02*
X049329D01*
X049124Y043426D02*
X049329D01*
X049124Y04302D02*
Y043426D01*
X049329Y04302D02*
Y043426D01*
X052929Y044771D02*
Y044976D01*
X052524Y044771D02*
Y044976D01*
Y044771D02*
X052929D01*
X052524Y044976D02*
X052929D01*
X051697Y044771D02*
X052102D01*
X051697Y044976D02*
X052102D01*
Y044771D02*
Y044976D01*
X051697Y044771D02*
Y044976D01*
X052679Y043971D02*
Y044176D01*
X052274Y043971D02*
Y044176D01*
Y043971D02*
X052679D01*
X052274Y044176D02*
X052679D01*
X052679Y043471D02*
Y043676D01*
X052274Y043471D02*
Y043676D01*
Y043471D02*
X052679Y043471D01*
X052274Y043676D02*
X052679Y043676D01*
X051379Y04452D02*
X051379Y044926D01*
X051174D02*
X051174Y04452D01*
X051174Y044926D02*
X051379D01*
X051174Y04452D02*
X051379D01*
X051879Y044047D02*
Y044453D01*
X051674Y044047D02*
Y044453D01*
X051879D01*
X051674Y044047D02*
X051879D01*
X051068Y045967D02*
Y04638D01*
X051285Y045967D02*
Y04638D01*
X051068Y045967D02*
X051285D01*
X051068Y04638D02*
X051285D01*
X050579Y046321D02*
Y046526D01*
X050174Y046321D02*
Y046526D01*
Y046321D02*
X050579D01*
X050174Y046526D02*
X050579D01*
X049324Y046321D02*
Y046526D01*
X049729Y046321D02*
Y046526D01*
X049324D02*
X049729D01*
X049324Y046321D02*
X049729D01*
X047818Y04643D02*
X048035D01*
X047818Y046017D02*
X048035D01*
X047818D02*
Y04643D01*
X048035Y046017D02*
Y04643D01*
X046189Y045879D02*
Y046568D01*
X046563Y045879D02*
Y046568D01*
X046189D02*
X046563D01*
X046189Y045879D02*
X046563Y045879D01*
X046896Y044546D02*
X047049Y044393D01*
X046604Y044254D02*
X046757Y0441D01*
X046604Y044254D02*
X046896Y044546D01*
X046757Y0441D02*
X047049Y044393D01*
X044721Y041286D02*
Y04166D01*
X044032Y041286D02*
Y04166D01*
Y041286D02*
X044721D01*
X044032Y04166D02*
X044721D01*
X033129Y041461D02*
X040924D01*
Y046185D01*
X033129D02*
X040924D01*
X033129Y041461D02*
Y046185D01*
X047213Y045879D02*
Y046568D01*
X046839Y045879D02*
X046839Y046568D01*
X046839Y045879D02*
X047213D01*
X046839Y046568D02*
X047213D01*
X046332Y045736D02*
X047021D01*
X046332Y04611D02*
X047021D01*
X047021Y045736D02*
X047021Y04611D01*
X046332D02*
X046332Y045736D01*
X046526Y041174D02*
X048475Y043123D01*
X044578D02*
X046526Y045072D01*
X044578Y043123D02*
X046526Y041174D01*
Y045072D02*
X048475Y043123D01*
X043389Y042229D02*
Y042918D01*
X043763Y042229D02*
Y042918D01*
X043389Y042229D02*
X043763D01*
X043389Y042918D02*
X043763D01*
X040971Y046386D02*
Y04676D01*
X040282Y046386D02*
Y04676D01*
Y046386D02*
X040971D01*
X040282Y04676D02*
X040971D01*
X043461Y045148D02*
Y046493D01*
X042792Y045148D02*
Y046493D01*
Y045148D02*
X043461D01*
X042792Y046493D02*
X043461D01*
X042226Y04301D02*
X042915D01*
X042226Y042636D02*
X042915D01*
X042226D02*
Y04301D01*
X042915Y042636D02*
Y04301D01*
X041682Y044686D02*
X042371D01*
X041682Y04506D02*
X042371D01*
Y044686D02*
Y04506D01*
X041682Y044686D02*
Y04506D01*
X041668Y042367D02*
Y04278D01*
X041885Y042367D02*
Y04278D01*
X041668D02*
X041885D01*
X041668Y042367D02*
X041885D01*
X048182Y040986D02*
X048871D01*
X048182Y04136D02*
X048871D01*
Y040986D02*
Y04136D01*
X048182Y040986D02*
Y04136D01*
X048682Y041636D02*
X049371D01*
X048682Y04201D02*
X049371D01*
Y041636D02*
Y04201D01*
X048682Y041636D02*
Y04201D01*
D66*
X026473Y021451D02*
D03*
X043126D02*
D03*
X026473Y027672D02*
D03*
X043126D02*
D03*
X026473Y033892D02*
D03*
X043126D02*
D03*
X026473Y040113D02*
D03*
X043126D02*
D03*
X026473Y046333D02*
D03*
X043126D02*
D03*
M02*
