G04*
G04 #@! TF.GenerationSoftware,Altium Limited,Altium Designer,22.10.1 (41)*
G04*
G04 Layer_Color=14186556*
%FSTAX24Y24*%
%MOIN*%
G70*
G04*
G04 #@! TF.SameCoordinates,821BB7C7-380A-43D0-A621-5EA73BA4A5B0*
G04*
G04*
G04 #@! TF.FilePolarity,Negative*
G04*
G01*
G75*
%ADD14R,0.0236X0.0295*%
%ADD25R,0.0335X0.0374*%
%ADD42C,0.1102*%
%ADD43R,0.0535X0.0535*%
%ADD44C,0.0535*%
%ADD46R,0.0236X0.0520*%
%ADD47R,0.0315X0.0315*%
%ADD48R,0.0374X0.0335*%
G04:AMPARAMS|DCode=49|XSize=15.7mil|YSize=74.8mil|CornerRadius=0mil|HoleSize=0mil|Usage=FLASHONLY|Rotation=45.000|XOffset=0mil|YOffset=0mil|HoleType=Round|Shape=Rectangle|*
%AMROTATEDRECTD49*
4,1,4,0.0209,-0.0320,-0.0320,0.0209,-0.0209,0.0320,0.0320,-0.0209,0.0209,-0.0320,0.0*
%
%ADD49ROTATEDRECTD49*%

G04:AMPARAMS|DCode=50|XSize=23.6mil|YSize=74.8mil|CornerRadius=0mil|HoleSize=0mil|Usage=FLASHONLY|Rotation=45.000|XOffset=0mil|YOffset=0mil|HoleType=Round|Shape=Rectangle|*
%AMROTATEDRECTD50*
4,1,4,0.0181,-0.0348,-0.0348,0.0181,-0.0181,0.0348,0.0348,-0.0181,0.0181,-0.0348,0.0*
%
%ADD50ROTATEDRECTD50*%

%ADD51R,0.0315X0.0315*%
G04:AMPARAMS|DCode=52|XSize=23.6mil|YSize=29.5mil|CornerRadius=0mil|HoleSize=0mil|Usage=FLASHONLY|Rotation=135.000|XOffset=0mil|YOffset=0mil|HoleType=Round|Shape=Rectangle|*
%AMROTATEDRECTD52*
4,1,4,0.0188,0.0021,-0.0021,-0.0188,-0.0188,-0.0021,0.0021,0.0188,0.0188,0.0021,0.0*
%
%ADD52ROTATEDRECTD52*%

%ADD53R,0.0669X0.0512*%
%ADD54R,0.0484X0.0709*%
D14*
X031273Y021568D02*
D03*
Y021115D02*
D03*
X025123Y017918D02*
D03*
Y017465D02*
D03*
X047926Y021568D02*
D03*
Y021115D02*
D03*
X041776Y017918D02*
D03*
Y017465D02*
D03*
X031273Y027788D02*
D03*
Y027335D02*
D03*
X025123Y024138D02*
D03*
Y023685D02*
D03*
X047926Y027788D02*
D03*
Y027335D02*
D03*
X041776Y024138D02*
D03*
Y023685D02*
D03*
X031273Y034009D02*
D03*
Y033556D02*
D03*
X025123Y030359D02*
D03*
Y029906D02*
D03*
X047926Y034009D02*
D03*
Y033556D02*
D03*
X041776Y030359D02*
D03*
Y029906D02*
D03*
X031273Y040229D02*
D03*
Y039776D02*
D03*
X025123Y036579D02*
D03*
Y036126D02*
D03*
X047926Y040229D02*
D03*
Y039776D02*
D03*
X041776Y036579D02*
D03*
Y036126D02*
D03*
X031273Y04645D02*
D03*
Y045997D02*
D03*
X025123Y0428D02*
D03*
Y042347D02*
D03*
X047926Y04645D02*
D03*
Y045997D02*
D03*
X041776Y0428D02*
D03*
Y042347D02*
D03*
D25*
X023279Y021691D02*
D03*
X022767D02*
D03*
X039932D02*
D03*
X039421D02*
D03*
X023279Y027912D02*
D03*
X022767D02*
D03*
X039932D02*
D03*
X039421D02*
D03*
X023279Y034132D02*
D03*
X022767D02*
D03*
X039932D02*
D03*
X039421D02*
D03*
X023279Y040353D02*
D03*
X022767D02*
D03*
X039932D02*
D03*
X039421D02*
D03*
X023279Y046573D02*
D03*
X022767D02*
D03*
X039932D02*
D03*
X039421D02*
D03*
D42*
X023267Y019827D02*
D03*
X023267Y018055D02*
D03*
X03992Y019827D02*
D03*
X03992Y018055D02*
D03*
X023267Y026048D02*
D03*
X023267Y024276D02*
D03*
X03992Y026048D02*
D03*
X03992Y024276D02*
D03*
X023267Y032268D02*
D03*
X023267Y030496D02*
D03*
X03992Y032268D02*
D03*
X03992Y030496D02*
D03*
X023267Y038489D02*
D03*
X023267Y036717D02*
D03*
X03992Y038489D02*
D03*
X03992Y036717D02*
D03*
X023267Y044709D02*
D03*
X023267Y042937D02*
D03*
X03992Y044709D02*
D03*
X03992Y042937D02*
D03*
D43*
X028317Y021335D02*
D03*
X04497D02*
D03*
X028317Y027555D02*
D03*
X04497D02*
D03*
X028317Y033776D02*
D03*
X04497D02*
D03*
X028317Y039996D02*
D03*
X04497D02*
D03*
X028317Y046217D02*
D03*
X04497D02*
D03*
D44*
X028317Y020548D02*
D03*
X027529Y021335D02*
D03*
Y020548D02*
D03*
X04497D02*
D03*
X044183Y021335D02*
D03*
Y020548D02*
D03*
X028317Y026768D02*
D03*
X027529Y027555D02*
D03*
Y026768D02*
D03*
X04497D02*
D03*
X044183Y027555D02*
D03*
Y026768D02*
D03*
X028317Y032989D02*
D03*
X027529Y033776D02*
D03*
Y032989D02*
D03*
X04497D02*
D03*
X044183Y033776D02*
D03*
Y032989D02*
D03*
X028317Y039209D02*
D03*
X027529Y039996D02*
D03*
Y039209D02*
D03*
X04497D02*
D03*
X044183Y039996D02*
D03*
Y039209D02*
D03*
X028317Y04543D02*
D03*
X027529Y046217D02*
D03*
Y04543D02*
D03*
X04497D02*
D03*
X044183Y046217D02*
D03*
Y04543D02*
D03*
D46*
X025697Y020439D02*
D03*
X025323D02*
D03*
X024949D02*
D03*
Y021344D02*
D03*
X025697D02*
D03*
X04235Y020439D02*
D03*
X041976D02*
D03*
X041602D02*
D03*
Y021344D02*
D03*
X04235D02*
D03*
X025697Y026659D02*
D03*
X025323D02*
D03*
X024949D02*
D03*
Y027565D02*
D03*
X025697D02*
D03*
X04235Y026659D02*
D03*
X041976D02*
D03*
X041602D02*
D03*
Y027565D02*
D03*
X04235D02*
D03*
X025697Y03288D02*
D03*
X025323D02*
D03*
X024949D02*
D03*
Y033785D02*
D03*
X025697D02*
D03*
X04235Y03288D02*
D03*
X041976D02*
D03*
X041602D02*
D03*
Y033785D02*
D03*
X04235D02*
D03*
X025697Y0391D02*
D03*
X025323D02*
D03*
X024949D02*
D03*
Y040005D02*
D03*
X025697D02*
D03*
X04235Y0391D02*
D03*
X041976D02*
D03*
X041602D02*
D03*
Y040005D02*
D03*
X04235D02*
D03*
X025697Y04532D02*
D03*
X025323D02*
D03*
X024949D02*
D03*
Y046226D02*
D03*
X025697D02*
D03*
X04235Y04532D02*
D03*
X041976D02*
D03*
X041602D02*
D03*
Y046226D02*
D03*
X04235D02*
D03*
D47*
X023928Y021691D02*
D03*
X024518D02*
D03*
X040581D02*
D03*
X041172D02*
D03*
X023928Y027912D02*
D03*
X024518D02*
D03*
X040581D02*
D03*
X041172D02*
D03*
X023928Y034132D02*
D03*
X024518D02*
D03*
X040581D02*
D03*
X041172D02*
D03*
X023928Y040353D02*
D03*
X024518D02*
D03*
X040581D02*
D03*
X041172D02*
D03*
X023928Y046573D02*
D03*
X024518D02*
D03*
X040581D02*
D03*
X041172D02*
D03*
D48*
X025723Y017485D02*
D03*
Y017997D02*
D03*
X030373Y021085D02*
D03*
Y021597D02*
D03*
X042376Y017485D02*
D03*
Y017997D02*
D03*
X047026Y021085D02*
D03*
Y021597D02*
D03*
X025723Y023706D02*
D03*
Y024218D02*
D03*
X030373Y027306D02*
D03*
Y027818D02*
D03*
X042376Y023706D02*
D03*
Y024218D02*
D03*
X047026Y027306D02*
D03*
Y027818D02*
D03*
X025723Y029926D02*
D03*
Y030438D02*
D03*
X030373Y033526D02*
D03*
Y034038D02*
D03*
X042376Y029926D02*
D03*
Y030438D02*
D03*
X047026Y033526D02*
D03*
Y034038D02*
D03*
X025723Y036147D02*
D03*
Y036659D02*
D03*
X030373Y039747D02*
D03*
Y040259D02*
D03*
X042376Y036147D02*
D03*
Y036659D02*
D03*
X047026Y039747D02*
D03*
Y040259D02*
D03*
X025723Y042367D02*
D03*
Y042879D02*
D03*
X030373Y045967D02*
D03*
Y046479D02*
D03*
X042376Y042367D02*
D03*
Y042879D02*
D03*
X047026Y045967D02*
D03*
Y046479D02*
D03*
D49*
X029987Y017856D02*
D03*
X046641D02*
D03*
X029987Y024076D02*
D03*
X046641D02*
D03*
X029987Y030297D02*
D03*
X046641D02*
D03*
X029987Y036517D02*
D03*
X046641D02*
D03*
X029987Y042738D02*
D03*
X046641D02*
D03*
D50*
X029723Y017591D02*
D03*
X030252Y01812D02*
D03*
X046376Y017591D02*
D03*
X046905Y01812D02*
D03*
X029723Y023812D02*
D03*
X030252Y024341D02*
D03*
X046376Y023812D02*
D03*
X046905Y024341D02*
D03*
X029723Y030032D02*
D03*
X030252Y030561D02*
D03*
X046376Y030032D02*
D03*
X046905Y030561D02*
D03*
X029723Y036253D02*
D03*
X030252Y036782D02*
D03*
X046376Y036253D02*
D03*
X046905Y036782D02*
D03*
X029723Y042473D02*
D03*
X030252Y043002D02*
D03*
X046376Y042473D02*
D03*
X046905Y043002D02*
D03*
D51*
X029723Y021637D02*
D03*
Y021046D02*
D03*
X046376Y021637D02*
D03*
Y021046D02*
D03*
X029723Y027857D02*
D03*
Y027267D02*
D03*
X046376Y027857D02*
D03*
Y027267D02*
D03*
X029723Y034078D02*
D03*
Y033487D02*
D03*
X046376Y034078D02*
D03*
Y033487D02*
D03*
X029723Y040298D02*
D03*
Y039707D02*
D03*
X046376Y040298D02*
D03*
Y039707D02*
D03*
X029723Y046518D02*
D03*
Y045928D02*
D03*
X046376Y046518D02*
D03*
Y045928D02*
D03*
D52*
X030333Y019601D02*
D03*
X030013Y019281D02*
D03*
X046987Y019601D02*
D03*
X046666Y019281D02*
D03*
X030333Y025822D02*
D03*
X030013Y025502D02*
D03*
X046987Y025822D02*
D03*
X046666Y025502D02*
D03*
X030333Y032042D02*
D03*
X030013Y031722D02*
D03*
X046987Y032042D02*
D03*
X046666Y031722D02*
D03*
X030333Y038263D02*
D03*
X030013Y037943D02*
D03*
X046987Y038263D02*
D03*
X046666Y037943D02*
D03*
X030333Y044483D02*
D03*
X030013Y044163D02*
D03*
X046987Y044483D02*
D03*
X046666Y044163D02*
D03*
D53*
X024192Y020319D02*
D03*
Y017563D02*
D03*
Y019335D02*
D03*
Y018548D02*
D03*
X040845Y020319D02*
D03*
Y017563D02*
D03*
Y019335D02*
D03*
Y018548D02*
D03*
X024192Y02654D02*
D03*
Y023784D02*
D03*
Y025556D02*
D03*
Y024768D02*
D03*
X040845Y02654D02*
D03*
Y023784D02*
D03*
Y025556D02*
D03*
Y024768D02*
D03*
X024192Y03276D02*
D03*
Y030004D02*
D03*
Y031776D02*
D03*
Y030989D02*
D03*
X040845Y03276D02*
D03*
Y030004D02*
D03*
Y031776D02*
D03*
Y030989D02*
D03*
X024192Y038981D02*
D03*
Y036225D02*
D03*
Y037996D02*
D03*
Y037209D02*
D03*
X040845Y038981D02*
D03*
Y036225D02*
D03*
Y037996D02*
D03*
Y037209D02*
D03*
X024192Y045201D02*
D03*
Y042445D02*
D03*
Y044217D02*
D03*
Y04343D02*
D03*
X040845Y045201D02*
D03*
Y042445D02*
D03*
Y044217D02*
D03*
Y04343D02*
D03*
D54*
X026473Y020426D02*
D03*
Y021457D02*
D03*
X043126Y020426D02*
D03*
Y021457D02*
D03*
X026473Y026646D02*
D03*
Y027678D02*
D03*
X043126Y026646D02*
D03*
Y027678D02*
D03*
X026473Y032867D02*
D03*
Y033898D02*
D03*
X043126Y032867D02*
D03*
Y033898D02*
D03*
X026473Y039087D02*
D03*
Y040118D02*
D03*
X043126Y039087D02*
D03*
Y040118D02*
D03*
X026473Y045307D02*
D03*
Y046339D02*
D03*
X043126Y045307D02*
D03*
Y046339D02*
D03*
M02*
