M48
;Layer_Color=9474304
;FILE_FORMAT=2:4
INCH,LZ
;TYPE=PLATED
T1F00S00C0.0120
T2F00S00C0.0335
T3F00S00C0.0748
%
T01
X046926Y017191
X047276Y017541
X047576Y017841
X047476Y018341
X048026Y018291
X048626
Y019241
X048909Y019017
X048726Y020091
X048376
X047926Y021115
X047476Y021041
X047526Y021591
X048626Y021841
X048926Y021291
X049353Y021541
X049226Y022512
X049526Y022712
X049426Y023612
X050426Y023312
X050726Y022712
X051926
X051626Y023312
X051326Y023912
X051026Y024512
X051326Y025112
X052226Y025712
X053426
X053126Y025112
X053426Y024512
X053726Y023912
X054026Y023312
X054326Y022712
X054126Y021791
X053476
X052826
X052126
X052526Y021291
X053126
X052826Y020691
X052226
X051776Y021141
X051176Y021518
X051326Y018891
X051026Y018291
X051326Y017691
X051626Y017091
X051926Y016491
X050726
X050426Y017091
X049426Y017391
X049526Y016491
X049226Y016291
X053126Y016491
X052826Y017091
X052526Y017691
X052226Y018291
X053426
X053726Y017691
X054026Y017091
X054326Y016491
X055226Y017091
X054926Y017691
X054626Y018291
X053126Y018891
X053426Y019491
X052226
X053126Y022712
X052826Y023312
X052526Y023912
X052226Y024512
X054626
X054926Y023912
X055226Y023312
X054826Y021791
Y028012
X054126
X053476
X052826
X052126
X052526Y027512
X053126
X052826Y026912
X052226
X051776Y027362
X051176Y027738
X050726Y028932
X050426Y029532
X051626
X051926Y028932
X053126
X052826Y029532
X052526Y030132
X052226Y030732
X053426
X053726Y030132
X054026Y029532
X054326Y028932
X055226Y029532
X054926Y030132
X054626Y030732
X051026
X051326Y030132
X049426Y029832
X049526Y028932
X049226Y028732
X049353Y027762
X048926Y027512
X048626Y028062
X047526Y027812
X047476Y027262
X047926Y027335
X048376Y026312
X048726
X048626Y025462
X048909Y025238
X048626Y024512
X048026
X047476Y024562
X047576Y024062
X047276Y023762
X046926Y023412
X047126Y024912
X046926Y029632
X047276Y029982
X047576Y030282
X047476Y030782
X048026Y030732
X048626
X047126Y031132
Y018691
X046626Y018741
X046668Y01928
X046526Y019691
Y020091
X046461Y021091
X045626Y020691
X045026Y019991
X043676
X043276Y019641
X042876Y019291
X042826Y018591
X043226Y018291
X043426Y018791
X044126Y018891
X043976Y019241
X044426Y018291
X044276Y017941
X044976Y018191
X045326Y018241
X045576Y018441
X045626Y018791
X045826Y017941
X045776Y017441
X046176Y017041
X046626Y016891
X046476Y016241
X046226Y018341
X044426Y017091
X044111Y016591
X043576Y017426
X04246Y016617
X041276Y016191
X040526Y016491
X039926
X039326
X038573Y017091
X038273Y017691
X037973Y018291
X036773
X037073Y017691
X037373Y017091
X037673Y016491
X036473
X036173Y017091
X035873Y017691
X035573Y018291
Y019491
X036773
X036473Y018891
X034673
X034373Y018291
X034673Y017691
X034973Y017091
X035273Y016491
X034073
X033773Y017091
X032773Y017391
X032873Y016491
X032573Y016291
X031973Y018291
X031373
X031973Y019241
X032255Y019017
X032073Y020091
X031723
X031273Y021115
X032273Y021291
X0327Y021541
X031973Y021841
X032573Y022512
X032873Y022712
X032773Y023612
X033773Y023312
X034073Y022712
X035273
X034973Y023312
X034673Y023912
X034373Y024512
X034673Y025112
X035573Y025712
X036773
X036473Y025112
X036773Y024512
X037073Y023912
X037373Y023312
X037673Y022712
X037473Y021791
X036823
X036173
X035473
X035873Y021291
X036473
X036173Y020691
X035573
X035123Y021141
X034523Y021518
X036473Y022712
X036173Y023312
X035873Y023912
X035573Y024512
X037973
X038273Y023912
X038573Y023312
X039326Y022712
X039926
X040526
X040576Y023262
X040676Y023662
Y023912
X041026
Y023662
X041126Y024262
X040845Y024818
X040276Y024962
Y025362
X039926Y025112
X040845Y025556
X040726Y026062
X041126
X041026Y026412
Y026662
X040676
Y026412
X040226Y026912
X039926Y027512
X039526Y027312
X041126Y027412
X041276Y028632
X040526Y028932
X039926
X039326
X038573Y029532
X038273Y030132
X037973Y030732
X036773
X037073Y030132
X037373Y029532
X037673Y028932
X037473Y028012
X036823
X036173
X035473
X035873Y027512
X036473
X036173Y026912
X035573
X035123Y027362
X034523Y027738
X034073Y028932
X033773Y029532
X034973
X035273Y028932
X036473
X036173Y029532
X035873Y030132
X035573Y030732
X034373
X034673Y030132
X032773Y029832
X032873Y028932
X032573Y028732
X0327Y027762
X032273Y027512
X031973Y028062
X031273Y027335
X031723Y026312
X032073
X031973Y025462
X032255Y025238
X031973Y024512
X031373
Y030732
X031973
X040276Y031182
X040845Y031039
X041126Y030482
X041026Y030132
Y029882
X040676
Y030132
X040576Y029482
X04246Y029058
X044111Y029032
X044426Y029532
X044276Y030382
X044426Y030732
X044976Y030632
X045326Y030682
X045576Y030882
X045626Y031232
X045826Y030382
X045776Y029882
X046176Y029482
X046626Y029332
X046476Y028682
X046461Y027312
X046526Y026312
Y025912
X046668Y0255
X046626Y024962
X046226Y024562
X045576Y024662
X045626Y025012
X045326Y024462
X044976Y024412
X044426Y024512
X044276Y024162
X044426Y023312
X044111Y022812
X043576Y023646
X043226Y024512
X043426Y025012
X044126Y025112
X043976Y025462
X043676Y026212
X043276Y025862
X042876Y025512
X042826Y024812
X041826Y024762
X042292Y026212
X045026
X045626Y026912
X045826Y024162
X045776Y023662
X046176Y023262
X046626Y023112
X046476Y022462
X04246Y022838
X041276Y022412
X041126Y021191
X041026Y020441
Y020191
X040676
Y020441
X040726Y019841
X041126
X040845Y019335
Y018598
X040276Y018741
Y019141
X039926Y018891
X040676Y017691
Y017441
X041026
Y017691
X041126Y018041
X041826Y018541
X042292Y019991
X040226Y020691
X039926Y021291
X039526Y021091
X038173Y021791
Y028012
X041826Y030982
X042826Y031032
X043226Y030732
X043426Y031232
X043576Y029867
X046226Y030782
X046626Y031182
X040576Y017041
X030923Y017841
X030823Y018341
X030473Y018691
X029973Y018741
X030014Y01928
X029873Y019691
Y020091
X029807Y021091
X030823Y021041
X030873Y021591
X029823Y022462
X029973Y023112
X029523Y023262
X029123Y023662
X029173Y024162
X028923Y024662
X028973Y025012
X028673Y024462
X028323Y024412
X027773Y024512
X027623Y024162
X027773Y023312
X027457Y022812
X026923Y023646
X026573Y024512
X026773Y025012
X027473Y025112
X027323Y025462
X027023Y026212
X026623Y025862
X026223Y025512
X026173Y024812
X025173Y024762
X024192Y024818
X023623Y024962
Y025362
X023273Y025112
X024192Y025556
X024073Y026062
X024473
X024373Y026412
Y026662
X024023
Y026412
X023573Y026912
X023273Y027512
X022873Y027312
X024473Y027412
X024623Y028632
X023873Y028932
X023273
X022673
X023923Y029482
X024023Y029882
Y030132
X024373
Y029882
X024473Y030482
X024192Y031039
X023623Y031182
X025173Y030982
X026173Y031032
X026573Y030732
X026773Y031232
X027773Y030732
X027623Y030382
X028323Y030632
X028673Y030682
X028923Y030882
X028973Y031232
X029173Y030382
X029123Y029882
X029523Y029482
X029973Y029332
X030273Y029632
X030623Y029982
X030923Y030282
X030823Y030782
X030473Y031132
X029973Y031182
X029573Y030782
X029823Y028682
X029807Y027312
X029873Y026312
Y025912
X030014Y0255
X029973Y024962
X030473Y024912
X030823Y024562
X030923Y024062
X030623Y023762
X030273Y023412
X029573Y024562
X028373Y026212
X028973Y026912
X030823Y027262
X030873Y027812
X027457Y029032
X027773Y029532
X026923Y029867
X025806Y029058
X025639Y026212
X024473Y024262
X024373Y023912
Y023662
X024023
Y023912
X023923Y023262
X023873Y022712
X023273
X022673
X022873Y021091
X023273Y021291
X023573Y020691
X024023Y020441
Y020191
X024373
Y020441
X024473Y019841
X024073
X024192Y019335
Y018598
X023623Y018741
Y019141
X023273Y018891
X024023Y017691
Y017441
X024373
Y017691
X024473Y018041
X025173Y018541
X026173Y018591
X026573Y018291
X026773Y018791
X027473Y018891
X027323Y019241
X027023Y019991
X026623Y019641
X026223Y019291
X025639Y019991
X024473Y021191
X024623Y022412
X025806Y022838
X028973Y020691
X028373Y019991
X028973Y018791
X028923Y018441
X028673Y018241
X028323Y018191
X027773Y018291
X027623Y017941
X027773Y017091
X027457Y016591
X026923Y017426
X025806Y016617
X024623Y016191
X023873Y016491
X023273
X022673
X023923Y017041
X029123Y017441
X029173Y017941
X029573Y018341
X029523Y017041
X029973Y016891
X030273Y017191
X030623Y017541
X029823Y016241
X030014Y031721
X029873Y032132
Y032532
X029807Y033532
X030823Y033482
X030873Y034032
X029823Y034903
X029973Y035553
X029523Y035703
X029123Y036103
X029173Y036603
X028923Y037103
X028973Y037453
X028673Y036903
X028323Y036853
X027773Y036953
X027623Y036603
X027773Y035753
X027457Y035253
X026923Y036087
X026573Y036953
X026773Y037453
X027473Y037553
X027323Y037903
X027023Y038653
X026623Y038303
X026223Y037953
X026173Y037253
X025173Y037203
X024192Y037259
X023623Y037403
Y037803
X023273Y037553
X024192Y037996
X024073Y038503
X024473
X024373Y038853
Y039103
X024023
Y038853
X023573Y039353
X023273Y039953
X022873Y039753
X024473Y039853
X024623Y041073
X023873Y041373
X023273
X022673
X023923Y041923
X024023Y042323
Y042573
X024373
Y042323
X024473Y042923
X024192Y04348
X023623Y043623
Y044023
X023273Y043773
X024192Y044217
X024073Y044723
X024473
X024373Y045073
Y045323
X024023
Y045073
X023573Y045573
X023273Y046173
X022873Y045973
X024473Y046073
X025639Y044873
X026223Y044173
X026173Y043473
X026573Y043173
X026773Y043673
X027473Y043773
X027323Y044123
X027023Y044873
X026623Y044523
X028373Y044873
X028973Y045573
X029807Y045973
X029873Y044973
Y044573
X030014Y044162
X029973Y043623
X030473Y043573
X030823Y043223
X030923Y042723
X030623Y042423
X030273Y042073
X029973Y041773
X029523Y041923
X029123Y042323
X029173Y042823
X028923Y043323
X028973Y043673
X028673Y043123
X028323Y043073
X027773Y043173
X027623Y042823
X027773Y041973
X027457Y041473
X026923Y042307
X025806Y041499
X025173Y043423
X029573Y043223
X029823Y041123
X029807Y039753
X029873Y038753
Y038353
X030014Y037941
X029973Y037403
X030473Y037353
X030823Y037003
X030923Y036503
X030623Y036203
X030273Y035853
X029573Y037003
X028373Y038653
X028973Y039353
X030823Y039703
X030873Y040253
X030823Y045923
X030873Y046473
X025639Y038653
X024473Y036703
X024373Y036353
Y036103
X024023
Y036353
X023923Y035703
X023873Y035153
X023273
X022673
X022873Y033532
X023273Y033732
X023573Y033132
X024023Y032882
Y032632
X024373
Y032882
X024473Y032282
X024073
X024192Y031776
X023623Y031582
X023273Y031332
X026223Y031732
X026623Y032082
X027023Y032432
X027323Y031682
X027473Y031332
X028373Y032432
X028973Y033132
X025639Y032432
X024473Y033632
X024623Y034853
X025806Y035279
X032573Y034953
X032873Y035153
X032773Y036053
X033773Y035753
X034073Y035153
X035273
X034973Y035753
X034673Y036353
X034373Y036953
X034673Y037553
X035573Y038153
X036773
X036473Y037553
X036773Y036953
X037073Y036353
X037373Y035753
X037673Y035153
X037473Y034232
X036823
X036173
X035473
X035873Y033732
X036473
X036173Y033132
X035573
X035123Y033582
X034523Y033959
X0327Y033982
X032273Y033732
X031973Y034282
X031273Y033556
X031723Y032532
X032073
X031973Y031682
X032255Y031458
X034673Y031332
X035573Y031932
X036773
X036473Y031332
X039926
X040276Y031582
X040845Y031776
X040726Y032282
X041126
X041026Y032632
Y032882
X040676
Y032632
X040226Y033132
X039926Y033732
X039526Y033532
X041126Y033632
X041276Y034853
X040526Y035153
X039926
X039326
X038573Y035753
X038273Y036353
X037973Y036953
X035573
X035873Y036353
X036173Y035753
X036473Y035153
X038173Y034232
X040576Y035703
X040676Y036103
Y036353
X041026
Y036103
X041126Y036703
X040845Y037259
X040276Y037403
Y037803
X039926Y037553
X040845Y037996
X040726Y038503
X041126
X041026Y038853
Y039103
X040676
Y038853
X040226Y039353
X039926Y039953
X039526Y039753
X041126Y039853
X041276Y041073
X040526Y041373
X039926
X039326
X038573Y041973
X038273Y042573
X037973Y043173
X036773
X037073Y042573
X037373Y041973
X037673Y041373
X037473Y040453
X036823
X036173
X035473
X035873Y039953
X036473
X036173Y039353
X035573
X035123Y039803
X034523Y040179
X034073Y041373
X033773Y041973
X034973
X035273Y041373
X036473
X036173Y041973
X035873Y042573
X035573Y043173
Y044373
X036773
X036473Y043773
X034673
X034373Y043173
X034673Y042573
X032773Y042273
X032873Y041373
X032573Y041173
X0327Y040203
X032273Y039953
X031973Y040503
X031273Y039776
X031723Y038753
X032073
X031973Y037903
X032255Y037679
X031973Y036953
X031373
Y043173
X031973
Y044123
X032255Y043899
X032073Y044973
X031723
X031273Y045997
X032273Y046173
X0327Y046423
X031973Y046723
X034523Y0464
X035123Y046023
X035873Y046173
X036473
X036173Y046673
X036823
X037473
X038173
X039526Y045973
X039926Y046173
X040226Y045573
X040676Y045323
Y045073
X041026
Y045323
X041126Y044723
X040726
X040845Y044217
Y04348
X040276Y043623
Y044023
X039926Y043773
X040676Y042573
Y042323
X041026
Y042573
X041126Y042923
X041826Y043423
X042826Y043473
X043226Y043173
X043426Y043673
X044126Y043773
X043976Y044123
X043676Y044873
X043276Y044523
X042876Y044173
X042292Y044873
X041126Y046073
X040576Y041923
X04246Y041499
X044111Y041473
X044426Y041973
X044276Y042823
X044426Y043173
X044976Y043073
X045326Y043123
X045576Y043323
X045626Y043673
X045826Y042823
X045776Y042323
X046176Y041923
X046626Y041773
X046476Y041123
X046461Y039753
X046526Y038753
Y038353
X046668Y037941
X046626Y037403
X046226Y037003
X045576Y037103
X045626Y037453
X045326Y036903
X044976Y036853
X044426Y036953
X044276Y036603
X044426Y035753
X044111Y035253
X043576Y036087
X043226Y036953
X043426Y037453
X044126Y037553
X043976Y037903
X043676Y038653
X043276Y038303
X042876Y037953
X042826Y037253
X041826Y037203
X042292Y038653
X045026
X045626Y039353
X045826Y036603
X045776Y036103
X046176Y035703
X046626Y035553
X046476Y034903
X046461Y033532
X046526Y032532
Y032132
X046668Y031721
X045026Y032432
X045626Y033132
X043676Y032432
X043276Y032082
X042876Y031732
X043976Y031682
X044126Y031332
X042292Y032432
X04246Y035279
X043576Y042307
X046226Y043223
X046626Y043623
X046668Y044162
X046526Y044573
Y044973
X046461Y045973
X045626Y045573
X045026Y044873
X036173Y045573
X035573
X035473Y046673
X038173Y040453
X047526Y040253
X047476Y039703
X047926Y039776
X048926Y039953
X049353Y040203
X048626Y040503
X049226Y041173
X049526Y041373
X049426Y042273
X050426Y041973
X050726Y041373
X051926
X051626Y041973
X051326Y042573
X051026Y043173
X051326Y043773
X052226Y044373
X053426
X053126Y043773
X053426Y043173
X053726Y042573
X054026Y041973
X054326Y041373
X054126Y040453
X053476
X052826
X052126
X052526Y039953
X053126
X052826Y039353
X052226
X051776Y039803
X051176Y040179
X051326Y037553
X051026Y036953
X051326Y036353
X051626Y035753
X051926Y035153
X052126Y034232
X052826
X053476
X054126
X054826
X054326Y035153
X054026Y035753
X053726Y036353
X053426Y036953
X053126Y037553
X053426Y038153
X052226
Y036953
X052526Y036353
X052826Y035753
X053126Y035153
Y033732
X052526
X052826Y033132
X052226
X051776Y033582
X051176Y033959
X050726Y035153
X050426Y035753
X049426Y036053
X049526Y035153
X049226Y034953
X049353Y033982
X048926Y033732
X048626Y034282
X047526Y034032
X047476Y033482
X047926Y033556
X048376Y032532
X048726
X048626Y031682
X048909Y031458
X051326Y031332
X052226Y031932
X053426
X053126Y031332
X055226Y035753
X054926Y036353
X054626Y036953
X054826Y040453
X055226Y041973
X054926Y042573
X054626Y043173
X052226
X052526Y042573
X052826Y041973
X053126Y041373
X052826Y045573
X052226
X052526Y046173
X053126
X052826Y046673
X053476
X054126
X054826
X052126
X051776Y046023
X051176Y0464
X049353Y046423
X048926Y046173
X048626Y046723
X047526Y046473
X047476Y045923
X047926Y045997
X048376Y044973
X048726
X048626Y044123
X048909Y043899
X048626Y043173
X048026
X047476Y043223
X047576Y042723
X047276Y042423
X046926Y042073
X047126Y043573
X048376Y038753
X048726
X048626Y037903
X048909Y037679
X048626Y036953
X048026
X047476Y037003
X047576Y036503
X047276Y036203
X046926Y035853
X047126Y037353
T02
X044183Y020548
X04497
Y021335
X044183
Y026768
X04497
Y027555
X044183
X028317
Y026768
X027529
Y027555
Y021335
X028317
Y020548
X027529
Y032989
X028317
Y033776
X027529
Y039209
X028317
Y039996
X027529
Y04543
X028317
Y046217
X027529
X044183
X04497
Y04543
X044183
Y039996
X04497
Y039209
X044183
Y033776
X04497
Y032989
X044183
T03
X03992Y018055
X03992Y019827
X03992Y024276
X03992Y026048
X03992Y030496
X023267
X023267Y026048
X023267Y024276
X023267Y019827
X023267Y018055
X023267Y032268
X023267Y036717
X023267Y038489
X023267Y042937
X023267Y044709
X03992
X03992Y042937
X03992Y038489
X03992Y036717
X03992Y032268
M30
