G04*
G04 #@! TF.GenerationSoftware,Altium Limited,Altium Designer,22.10.1 (41)*
G04*
G04 Layer_Color=32896*
%FSTAX24Y24*%
%MOIN*%
G70*
G04*
G04 #@! TF.SameCoordinates,821BB7C7-380A-43D0-A621-5EA73BA4A5B0*
G04*
G04*
G04 #@! TF.FilePolarity,Positive*
G04*
G01*
G75*
%ADD55C,0.0079*%
%ADD56C,0.0098*%
%ADD57C,0.0059*%
%ADD58C,0.0050*%
%ADD59C,0.0060*%
%ADD60C,0.0039*%
%ADD61R,0.0236X0.0059*%
%ADD62R,0.0236X0.0059*%
%ADD63R,0.0236X0.0059*%
%ADD64R,0.0236X0.0059*%
D55*
X026112Y020491D02*
G03*
X026112Y020491I-000039J0D01*
G01*
X029414Y017243D02*
G03*
X029414Y017243I-000039J0D01*
G01*
X026827Y019957D02*
Y022004D01*
X026709Y019957D02*
X026827D01*
X026591Y022004D02*
X026827D01*
X026591Y021926D02*
Y022004D01*
Y021926D02*
X026827D01*
X026129Y019964D02*
Y022011D01*
X026365D01*
X026129Y019964D02*
X026247D01*
X026365Y021932D02*
Y022011D01*
X026129Y021932D02*
X026365D01*
X042766Y020491D02*
G03*
X042766Y020491I-000039J0D01*
G01*
X046068Y017243D02*
G03*
X046068Y017243I-000039J0D01*
G01*
X043481Y019957D02*
Y022004D01*
X043363Y019957D02*
X043481D01*
X043245Y022004D02*
X043481D01*
X043245Y021926D02*
Y022004D01*
Y021926D02*
X043481D01*
X042783Y019964D02*
Y022011D01*
X043019D01*
X042783Y019964D02*
X042901D01*
X043019Y021932D02*
Y022011D01*
X042783Y021932D02*
X043019D01*
X026112Y026712D02*
G03*
X026112Y026712I-000039J0D01*
G01*
X029414Y023464D02*
G03*
X029414Y023464I-000039J0D01*
G01*
X026827Y026178D02*
Y028225D01*
X026709Y026178D02*
X026827D01*
X026591Y028225D02*
X026827D01*
X026591Y028146D02*
Y028225D01*
Y028146D02*
X026827D01*
X026129Y026184D02*
Y028231D01*
X026365D01*
X026129Y026184D02*
X026247D01*
X026365Y028153D02*
Y028231D01*
X026129Y028153D02*
X026365D01*
X042766Y026712D02*
G03*
X042766Y026712I-000039J0D01*
G01*
X046068Y023464D02*
G03*
X046068Y023464I-000039J0D01*
G01*
X043481Y026178D02*
Y028225D01*
X043363Y026178D02*
X043481D01*
X043245Y028225D02*
X043481D01*
X043245Y028146D02*
Y028225D01*
Y028146D02*
X043481D01*
X042783Y026184D02*
Y028231D01*
X043019D01*
X042783Y026184D02*
X042901D01*
X043019Y028153D02*
Y028231D01*
X042783Y028153D02*
X043019D01*
X026112Y032932D02*
G03*
X026112Y032932I-000039J0D01*
G01*
X029414Y029684D02*
G03*
X029414Y029684I-000039J0D01*
G01*
X026827Y032398D02*
Y034445D01*
X026709Y032398D02*
X026827D01*
X026591Y034445D02*
X026827D01*
X026591Y034367D02*
Y034445D01*
Y034367D02*
X026827D01*
X026129Y032405D02*
Y034452D01*
X026365D01*
X026129Y032405D02*
X026247D01*
X026365Y034373D02*
Y034452D01*
X026129Y034373D02*
X026365D01*
X042766Y032932D02*
G03*
X042766Y032932I-000039J0D01*
G01*
X046068Y029684D02*
G03*
X046068Y029684I-000039J0D01*
G01*
X043481Y032398D02*
Y034445D01*
X043363Y032398D02*
X043481D01*
X043245Y034445D02*
X043481D01*
X043245Y034367D02*
Y034445D01*
Y034367D02*
X043481D01*
X042783Y032405D02*
Y034452D01*
X043019D01*
X042783Y032405D02*
X042901D01*
X043019Y034373D02*
Y034452D01*
X042783Y034373D02*
X043019D01*
X026112Y039153D02*
G03*
X026112Y039153I-000039J0D01*
G01*
X029414Y035905D02*
G03*
X029414Y035905I-000039J0D01*
G01*
X026827Y038618D02*
Y040666D01*
X026709Y038618D02*
X026827D01*
X026591Y040666D02*
X026827D01*
X026591Y040587D02*
Y040666D01*
Y040587D02*
X026827D01*
X026129Y038625D02*
Y040672D01*
X026365D01*
X026129Y038625D02*
X026247D01*
X026365Y040594D02*
Y040672D01*
X026129Y040594D02*
X026365D01*
X042766Y039153D02*
G03*
X042766Y039153I-000039J0D01*
G01*
X046068Y035905D02*
G03*
X046068Y035905I-000039J0D01*
G01*
X043481Y038618D02*
Y040666D01*
X043363Y038618D02*
X043481D01*
X043245Y040666D02*
X043481D01*
X043245Y040587D02*
Y040666D01*
Y040587D02*
X043481D01*
X042783Y038625D02*
Y040672D01*
X043019D01*
X042783Y038625D02*
X042901D01*
X043019Y040594D02*
Y040672D01*
X042783Y040594D02*
X043019D01*
X026112Y045373D02*
G03*
X026112Y045373I-000039J0D01*
G01*
X029414Y042125D02*
G03*
X029414Y042125I-000039J0D01*
G01*
X026827Y044839D02*
Y046886D01*
X026709Y044839D02*
X026827D01*
X026591Y046886D02*
X026827D01*
X026591Y046807D02*
Y046886D01*
Y046807D02*
X026827D01*
X026129Y044846D02*
Y046893D01*
X026365D01*
X026129Y044846D02*
X026247D01*
X026365Y046814D02*
Y046893D01*
X026129Y046814D02*
X026365D01*
X042766Y045373D02*
G03*
X042766Y045373I-000039J0D01*
G01*
X046068Y042125D02*
G03*
X046068Y042125I-000039J0D01*
G01*
X043481Y044839D02*
Y046886D01*
X043363Y044839D02*
X043481D01*
X043245Y046886D02*
X043481D01*
X043245Y046807D02*
Y046886D01*
Y046807D02*
X043481D01*
X042783Y044846D02*
Y046893D01*
X043019D01*
X042783Y044846D02*
X042901D01*
X043019Y046814D02*
Y046893D01*
X042783Y046814D02*
X043019D01*
D56*
X025972Y021841D02*
G03*
X025972Y021841I-000049J0D01*
G01*
X042626D02*
G03*
X042626Y021841I-000049J0D01*
G01*
X025972Y028062D02*
G03*
X025972Y028062I-000049J0D01*
G01*
X042626D02*
G03*
X042626Y028062I-000049J0D01*
G01*
X025972Y034282D02*
G03*
X025972Y034282I-000049J0D01*
G01*
X042626D02*
G03*
X042626Y034282I-000049J0D01*
G01*
X025972Y040503D02*
G03*
X025972Y040503I-000049J0D01*
G01*
X042626D02*
G03*
X042626Y040503I-000049J0D01*
G01*
X025972Y046723D02*
G03*
X025972Y046723I-000049J0D01*
G01*
X042626D02*
G03*
X042626Y046723I-000049J0D01*
G01*
D57*
X023023Y021416D02*
Y021967D01*
X023523Y021891D02*
Y021967D01*
X022523D02*
X023523D01*
X022523Y021891D02*
Y021967D01*
Y021416D02*
Y021491D01*
Y021416D02*
X023523D01*
Y021491D01*
X024223Y021829D02*
Y021967D01*
Y021416D02*
Y021554D01*
X024823Y021416D02*
Y021491D01*
X023632Y021416D02*
X024823D01*
X023673D02*
Y021591D01*
Y021791D02*
Y021967D01*
X023632D02*
X024823D01*
Y021891D02*
Y021967D01*
X023623Y021416D02*
X023673D01*
X023623D02*
Y021591D01*
X023673D01*
X023623Y021967D02*
X023673D01*
X023623Y021791D02*
Y021967D01*
Y021791D02*
X023673D01*
X025447Y017741D02*
X025998D01*
X025923Y017241D02*
X025998D01*
Y018241D01*
X025923D02*
X025998D01*
X025447D02*
X025523D01*
X025447Y017241D02*
Y018241D01*
Y017241D02*
X025523D01*
X031423Y021791D02*
X031473D01*
Y020891D02*
Y021791D01*
X031423Y020891D02*
X031473D01*
X031073D02*
X031123D01*
X031073D02*
Y021791D01*
X031123D01*
X031073Y021341D02*
X031473D01*
X029861D02*
X029999D01*
X029447D02*
X029585D01*
X029447Y020741D02*
X029523Y020741D01*
X029447Y021932D02*
X029447Y020741D01*
X029447Y021891D02*
X029623Y021891D01*
X029823Y021891D02*
X029999Y021891D01*
X029999Y021932D02*
X029999Y020741D01*
X029923Y020741D02*
X029999Y020741D01*
X029447Y021941D02*
X029447Y021891D01*
X029447Y021941D02*
X029623D01*
X029623Y021891D01*
X029999Y021941D02*
X029999Y021891D01*
X029823Y021941D02*
X029999D01*
X029823Y021891D02*
Y021941D01*
X030597Y019653D02*
X030633Y019618D01*
X029996Y018982D02*
X030633Y019618D01*
X029961Y019017D02*
X029996Y018982D01*
X029713Y019265D02*
X029749Y019229D01*
X029713Y019265D02*
X03035Y019901D01*
X030385Y019866D01*
X030031Y019583D02*
X030314Y0193D01*
X024271Y020654D02*
Y021304D01*
Y01967D02*
Y019985D01*
Y018882D02*
Y019D01*
Y017898D02*
Y018213D01*
Y016579D02*
Y017229D01*
X016475Y016579D02*
X024271Y016579D01*
X016475Y021304D02*
X024271D01*
X016475Y016579D02*
X016475Y021304D01*
X030573Y021841D02*
X030649Y021841D01*
X030649Y020841D01*
X030573Y020841D02*
X030649Y020841D01*
X030097D02*
X030173D01*
X030097D02*
Y021841D01*
X030173D01*
X030097Y021341D02*
X030649D01*
X024923Y017691D02*
X025323D01*
X025273Y017241D02*
X025323D01*
Y018141D01*
X025273D02*
X025323D01*
X024923D02*
X024973D01*
X024923Y017241D02*
Y018141D01*
Y017241D02*
X024973D01*
X039676Y021416D02*
Y021967D01*
X040176Y021891D02*
Y021967D01*
X039176D02*
X040176D01*
X039176Y021891D02*
Y021967D01*
Y021416D02*
Y021491D01*
Y021416D02*
X040176D01*
Y021491D01*
X040876Y021829D02*
Y021967D01*
Y021416D02*
Y021554D01*
X041476Y021416D02*
Y021491D01*
X040286Y021416D02*
X041476D01*
X040326D02*
Y021591D01*
Y021791D02*
Y021967D01*
X040286D02*
X041476D01*
Y021891D02*
Y021967D01*
X040276Y021416D02*
X040326D01*
X040276D02*
Y021591D01*
X040326D01*
X040276Y021967D02*
X040326D01*
X040276Y021791D02*
Y021967D01*
Y021791D02*
X040326D01*
X042101Y017741D02*
X042652D01*
X042576Y017241D02*
X042652D01*
Y018241D01*
X042576D02*
X042652D01*
X042101D02*
X042176D01*
X042101Y017241D02*
Y018241D01*
Y017241D02*
X042176D01*
X048076Y021791D02*
X048126D01*
Y020891D02*
Y021791D01*
X048076Y020891D02*
X048126D01*
X047726D02*
X047776D01*
X047726D02*
Y021791D01*
X047776D01*
X047726Y021341D02*
X048126D01*
X046514D02*
X046652D01*
X046101D02*
X046239D01*
X046101Y020741D02*
X046176Y020741D01*
X046101Y021932D02*
X046101Y020741D01*
X046101Y021891D02*
X046276Y021891D01*
X046476Y021891D02*
X046652Y021891D01*
X046652Y021932D02*
X046652Y020741D01*
X046576Y020741D02*
X046652Y020741D01*
X046101Y021941D02*
X046101Y021891D01*
X046101Y021941D02*
X046276D01*
X046276Y021891D01*
X046652Y021941D02*
X046652Y021891D01*
X046476Y021941D02*
X046652D01*
X046476Y021891D02*
Y021941D01*
X047251Y019653D02*
X047286Y019618D01*
X04665Y018982D02*
X047286Y019618D01*
X046614Y019017D02*
X04665Y018982D01*
X046367Y019265D02*
X046402Y019229D01*
X046367Y019265D02*
X047003Y019901D01*
X047039Y019866D01*
X046685Y019583D02*
X046968Y0193D01*
X040924Y020654D02*
Y021304D01*
Y01967D02*
Y019985D01*
Y018882D02*
Y019D01*
Y017898D02*
Y018213D01*
Y016579D02*
Y017229D01*
X033129Y016579D02*
X040924Y016579D01*
X033129Y021304D02*
X040924D01*
X033129Y016579D02*
X033129Y021304D01*
X047226Y021841D02*
X047302Y021841D01*
X047302Y020841D01*
X047226Y020841D02*
X047302Y020841D01*
X046751D02*
X046826D01*
X046751D02*
Y021841D01*
X046826D01*
X046751Y021341D02*
X047302D01*
X041576Y017691D02*
X041976D01*
X041926Y017241D02*
X041976D01*
Y018141D01*
X041926D02*
X041976D01*
X041576D02*
X041626D01*
X041576Y017241D02*
Y018141D01*
Y017241D02*
X041626D01*
X023023Y027636D02*
Y028187D01*
X023523Y028112D02*
Y028187D01*
X022523D02*
X023523D01*
X022523Y028112D02*
Y028187D01*
Y027636D02*
Y027712D01*
Y027636D02*
X023523D01*
Y027712D01*
X024223Y02805D02*
Y028187D01*
Y027636D02*
Y027774D01*
X024823Y027636D02*
Y027712D01*
X023632Y027636D02*
X024823D01*
X023673D02*
Y027812D01*
Y028012D02*
Y028187D01*
X023632D02*
X024823D01*
Y028112D02*
Y028187D01*
X023623Y027636D02*
X023673D01*
X023623D02*
Y027812D01*
X023673D01*
X023623Y028187D02*
X023673D01*
X023623Y028012D02*
Y028187D01*
Y028012D02*
X023673D01*
X025447Y023962D02*
X025998D01*
X025923Y023462D02*
X025998D01*
Y024462D01*
X025923D02*
X025998D01*
X025447D02*
X025523D01*
X025447Y023462D02*
Y024462D01*
Y023462D02*
X025523D01*
X031423Y028012D02*
X031473D01*
Y027112D02*
Y028012D01*
X031423Y027112D02*
X031473D01*
X031073D02*
X031123D01*
X031073D02*
Y028012D01*
X031123D01*
X031073Y027562D02*
X031473D01*
X029861D02*
X029999D01*
X029447D02*
X029585D01*
X029447Y026962D02*
X029523Y026962D01*
X029447Y028152D02*
X029447Y026962D01*
X029447Y028112D02*
X029623Y028112D01*
X029823Y028112D02*
X029999Y028112D01*
X029999Y028152D02*
X029999Y026962D01*
X029923Y026962D02*
X029999Y026962D01*
X029447Y028162D02*
X029447Y028112D01*
X029447Y028162D02*
X029623D01*
X029623Y028112D01*
X029999Y028162D02*
X029999Y028112D01*
X029823Y028162D02*
X029999D01*
X029823Y028112D02*
Y028162D01*
X030597Y025874D02*
X030633Y025839D01*
X029996Y025202D02*
X030633Y025839D01*
X029961Y025238D02*
X029996Y025202D01*
X029713Y025485D02*
X029749Y02545D01*
X029713Y025485D02*
X03035Y026121D01*
X030385Y026086D01*
X030031Y025803D02*
X030314Y02552D01*
X024271Y026874D02*
Y027524D01*
Y02589D02*
Y026205D01*
Y025103D02*
Y025221D01*
Y024118D02*
Y024433D01*
Y0228D02*
Y023449D01*
X016475Y0228D02*
X024271Y0228D01*
X016475Y027524D02*
X024271D01*
X016475Y0228D02*
X016475Y027524D01*
X030573Y028062D02*
X030649Y028062D01*
X030649Y027062D01*
X030573Y027062D02*
X030649Y027062D01*
X030097D02*
X030173D01*
X030097D02*
Y028062D01*
X030173D01*
X030097Y027562D02*
X030649D01*
X024923Y023912D02*
X025323D01*
X025273Y023462D02*
X025323D01*
Y024362D01*
X025273D02*
X025323D01*
X024923D02*
X024973D01*
X024923Y023462D02*
Y024362D01*
Y023462D02*
X024973D01*
X039676Y027636D02*
Y028187D01*
X040176Y028112D02*
Y028187D01*
X039176D02*
X040176D01*
X039176Y028112D02*
Y028187D01*
Y027636D02*
Y027712D01*
Y027636D02*
X040176D01*
Y027712D01*
X040876Y02805D02*
Y028187D01*
Y027636D02*
Y027774D01*
X041476Y027636D02*
Y027712D01*
X040286Y027636D02*
X041476D01*
X040326D02*
Y027812D01*
Y028012D02*
Y028187D01*
X040286D02*
X041476D01*
Y028112D02*
Y028187D01*
X040276Y027636D02*
X040326D01*
X040276D02*
Y027812D01*
X040326D01*
X040276Y028187D02*
X040326D01*
X040276Y028012D02*
Y028187D01*
Y028012D02*
X040326D01*
X042101Y023962D02*
X042652D01*
X042576Y023462D02*
X042652D01*
Y024462D01*
X042576D02*
X042652D01*
X042101D02*
X042176D01*
X042101Y023462D02*
Y024462D01*
Y023462D02*
X042176D01*
X048076Y028012D02*
X048126D01*
Y027112D02*
Y028012D01*
X048076Y027112D02*
X048126D01*
X047726D02*
X047776D01*
X047726D02*
Y028012D01*
X047776D01*
X047726Y027562D02*
X048126D01*
X046514D02*
X046652D01*
X046101D02*
X046239D01*
X046101Y026962D02*
X046176Y026962D01*
X046101Y028152D02*
X046101Y026962D01*
X046101Y028112D02*
X046276Y028112D01*
X046476Y028112D02*
X046652Y028112D01*
X046652Y028152D02*
X046652Y026962D01*
X046576Y026962D02*
X046652Y026962D01*
X046101Y028162D02*
X046101Y028112D01*
X046101Y028162D02*
X046276D01*
X046276Y028112D01*
X046652Y028162D02*
X046652Y028112D01*
X046476Y028162D02*
X046652D01*
X046476Y028112D02*
Y028162D01*
X047251Y025874D02*
X047286Y025839D01*
X04665Y025202D02*
X047286Y025839D01*
X046614Y025238D02*
X04665Y025202D01*
X046367Y025485D02*
X046402Y02545D01*
X046367Y025485D02*
X047003Y026121D01*
X047039Y026086D01*
X046685Y025803D02*
X046968Y02552D01*
X040924Y026874D02*
Y027524D01*
Y02589D02*
Y026205D01*
Y025103D02*
Y025221D01*
Y024118D02*
Y024433D01*
Y0228D02*
Y023449D01*
X033129Y0228D02*
X040924Y0228D01*
X033129Y027524D02*
X040924D01*
X033129Y0228D02*
X033129Y027524D01*
X047226Y028062D02*
X047302Y028062D01*
X047302Y027062D01*
X047226Y027062D02*
X047302Y027062D01*
X046751D02*
X046826D01*
X046751D02*
Y028062D01*
X046826D01*
X046751Y027562D02*
X047302D01*
X041576Y023912D02*
X041976D01*
X041926Y023462D02*
X041976D01*
Y024362D01*
X041926D02*
X041976D01*
X041576D02*
X041626D01*
X041576Y023462D02*
Y024362D01*
Y023462D02*
X041626D01*
X023023Y033857D02*
Y034408D01*
X023523Y034332D02*
Y034408D01*
X022523D02*
X023523D01*
X022523Y034332D02*
Y034408D01*
Y033857D02*
Y033932D01*
Y033857D02*
X023523D01*
Y033932D01*
X024223Y03427D02*
Y034408D01*
Y033857D02*
Y033994D01*
X024823Y033857D02*
Y033932D01*
X023632Y033857D02*
X024823D01*
X023673D02*
Y034032D01*
Y034232D02*
Y034408D01*
X023632D02*
X024823D01*
Y034332D02*
Y034408D01*
X023623Y033857D02*
X023673D01*
X023623D02*
Y034032D01*
X023673D01*
X023623Y034408D02*
X023673D01*
X023623Y034232D02*
Y034408D01*
Y034232D02*
X023673D01*
X025447Y030182D02*
X025998D01*
X025923Y029682D02*
X025998D01*
Y030682D01*
X025923D02*
X025998D01*
X025447D02*
X025523D01*
X025447Y029682D02*
Y030682D01*
Y029682D02*
X025523D01*
X031423Y034232D02*
X031473D01*
Y033332D02*
Y034232D01*
X031423Y033332D02*
X031473D01*
X031073D02*
X031123D01*
X031073D02*
Y034232D01*
X031123D01*
X031073Y033782D02*
X031473D01*
X029861D02*
X029999D01*
X029447D02*
X029585D01*
X029447Y033182D02*
X029523Y033182D01*
X029447Y034373D02*
X029447Y033182D01*
X029447Y034332D02*
X029623Y034332D01*
X029823Y034332D02*
X029999Y034332D01*
X029999Y034373D02*
X029999Y033182D01*
X029923Y033182D02*
X029999Y033182D01*
X029447Y034382D02*
X029447Y034332D01*
X029447Y034382D02*
X029623D01*
X029623Y034332D01*
X029999Y034382D02*
X029999Y034332D01*
X029823Y034382D02*
X029999D01*
X029823Y034332D02*
Y034382D01*
X030597Y032094D02*
X030633Y032059D01*
X029996Y031423D02*
X030633Y032059D01*
X029961Y031458D02*
X029996Y031423D01*
X029713Y031705D02*
X029749Y03167D01*
X029713Y031705D02*
X03035Y032342D01*
X030385Y032307D01*
X030031Y032024D02*
X030314Y031741D01*
X024271Y033095D02*
Y033744D01*
Y032111D02*
Y032426D01*
Y031323D02*
Y031441D01*
Y030339D02*
Y030654D01*
Y02902D02*
Y02967D01*
X016475Y02902D02*
X024271Y02902D01*
X016475Y033744D02*
X024271D01*
X016475Y02902D02*
X016475Y033744D01*
X030573Y034282D02*
X030649Y034282D01*
X030649Y033282D01*
X030573Y033282D02*
X030649Y033282D01*
X030097D02*
X030173D01*
X030097D02*
Y034282D01*
X030173D01*
X030097Y033782D02*
X030649D01*
X024923Y030132D02*
X025323D01*
X025273Y029682D02*
X025323D01*
Y030582D01*
X025273D02*
X025323D01*
X024923D02*
X024973D01*
X024923Y029682D02*
Y030582D01*
Y029682D02*
X024973D01*
X039676Y033857D02*
Y034408D01*
X040176Y034332D02*
Y034408D01*
X039176D02*
X040176D01*
X039176Y034332D02*
Y034408D01*
Y033857D02*
Y033932D01*
Y033857D02*
X040176D01*
Y033932D01*
X040876Y03427D02*
Y034408D01*
Y033857D02*
Y033994D01*
X041476Y033857D02*
Y033932D01*
X040286Y033857D02*
X041476D01*
X040326D02*
Y034032D01*
Y034232D02*
Y034408D01*
X040286D02*
X041476D01*
Y034332D02*
Y034408D01*
X040276Y033857D02*
X040326D01*
X040276D02*
Y034032D01*
X040326D01*
X040276Y034408D02*
X040326D01*
X040276Y034232D02*
Y034408D01*
Y034232D02*
X040326D01*
X042101Y030182D02*
X042652D01*
X042576Y029682D02*
X042652D01*
Y030682D01*
X042576D02*
X042652D01*
X042101D02*
X042176D01*
X042101Y029682D02*
Y030682D01*
Y029682D02*
X042176D01*
X048076Y034232D02*
X048126D01*
Y033332D02*
Y034232D01*
X048076Y033332D02*
X048126D01*
X047726D02*
X047776D01*
X047726D02*
Y034232D01*
X047776D01*
X047726Y033782D02*
X048126D01*
X046514D02*
X046652D01*
X046101D02*
X046239D01*
X046101Y033182D02*
X046176Y033182D01*
X046101Y034373D02*
X046101Y033182D01*
X046101Y034332D02*
X046276Y034332D01*
X046476Y034332D02*
X046652Y034332D01*
X046652Y034373D02*
X046652Y033182D01*
X046576Y033182D02*
X046652Y033182D01*
X046101Y034382D02*
X046101Y034332D01*
X046101Y034382D02*
X046276D01*
X046276Y034332D01*
X046652Y034382D02*
X046652Y034332D01*
X046476Y034382D02*
X046652D01*
X046476Y034332D02*
Y034382D01*
X047251Y032094D02*
X047286Y032059D01*
X04665Y031423D02*
X047286Y032059D01*
X046614Y031458D02*
X04665Y031423D01*
X046367Y031705D02*
X046402Y03167D01*
X046367Y031705D02*
X047003Y032342D01*
X047039Y032307D01*
X046685Y032024D02*
X046968Y031741D01*
X040924Y033095D02*
Y033744D01*
Y032111D02*
Y032426D01*
Y031323D02*
Y031441D01*
Y030339D02*
Y030654D01*
Y02902D02*
Y02967D01*
X033129Y02902D02*
X040924Y02902D01*
X033129Y033744D02*
X040924D01*
X033129Y02902D02*
X033129Y033744D01*
X047226Y034282D02*
X047302Y034282D01*
X047302Y033282D01*
X047226Y033282D02*
X047302Y033282D01*
X046751D02*
X046826D01*
X046751D02*
Y034282D01*
X046826D01*
X046751Y033782D02*
X047302D01*
X041576Y030132D02*
X041976D01*
X041926Y029682D02*
X041976D01*
Y030582D01*
X041926D02*
X041976D01*
X041576D02*
X041626D01*
X041576Y029682D02*
Y030582D01*
Y029682D02*
X041626D01*
X023023Y040077D02*
Y040628D01*
X023523Y040553D02*
Y040628D01*
X022523D02*
X023523D01*
X022523Y040553D02*
Y040628D01*
Y040077D02*
Y040153D01*
Y040077D02*
X023523D01*
Y040153D01*
X024223Y040491D02*
Y040628D01*
Y040077D02*
Y040215D01*
X024823Y040077D02*
Y040153D01*
X023632Y040077D02*
X024823D01*
X023673D02*
Y040253D01*
Y040453D02*
Y040628D01*
X023632D02*
X024823D01*
Y040553D02*
Y040628D01*
X023623Y040077D02*
X023673D01*
X023623D02*
Y040253D01*
X023673D01*
X023623Y040628D02*
X023673D01*
X023623Y040453D02*
Y040628D01*
Y040453D02*
X023673D01*
X025447Y036403D02*
X025998D01*
X025923Y035903D02*
X025998D01*
Y036903D01*
X025923D02*
X025998D01*
X025447D02*
X025523D01*
X025447Y035903D02*
Y036903D01*
Y035903D02*
X025523D01*
X031423Y040453D02*
X031473D01*
Y039553D02*
Y040453D01*
X031423Y039553D02*
X031473D01*
X031073D02*
X031123D01*
X031073D02*
Y040453D01*
X031123D01*
X031073Y040003D02*
X031473D01*
X029861D02*
X029999D01*
X029447D02*
X029585D01*
X029447Y039403D02*
X029523Y039403D01*
X029447Y040593D02*
X029447Y039403D01*
X029447Y040553D02*
X029623Y040553D01*
X029823Y040553D02*
X029999Y040553D01*
X029999Y040593D02*
X029999Y039403D01*
X029923Y039403D02*
X029999Y039403D01*
X029447Y040603D02*
X029447Y040553D01*
X029447Y040603D02*
X029623D01*
X029623Y040553D01*
X029999Y040603D02*
X029999Y040553D01*
X029823Y040603D02*
X029999D01*
X029823Y040553D02*
Y040603D01*
X030597Y038315D02*
X030633Y03828D01*
X029996Y037643D02*
X030633Y03828D01*
X029961Y037678D02*
X029996Y037643D01*
X029713Y037926D02*
X029749Y037891D01*
X029713Y037926D02*
X03035Y038562D01*
X030385Y038527D01*
X030031Y038244D02*
X030314Y037961D01*
X024271Y039315D02*
Y039965D01*
Y038331D02*
Y038646D01*
Y037544D02*
Y037662D01*
Y036559D02*
Y036874D01*
Y035241D02*
Y03589D01*
X016475Y035241D02*
X024271Y035241D01*
X016475Y039965D02*
X024271D01*
X016475Y035241D02*
X016475Y039965D01*
X030573Y040503D02*
X030649Y040503D01*
X030649Y039503D01*
X030573Y039503D02*
X030649Y039503D01*
X030097D02*
X030173D01*
X030097D02*
Y040503D01*
X030173D01*
X030097Y040003D02*
X030649D01*
X024923Y036353D02*
X025323D01*
X025273Y035903D02*
X025323D01*
Y036803D01*
X025273D02*
X025323D01*
X024923D02*
X024973D01*
X024923Y035903D02*
Y036803D01*
Y035903D02*
X024973D01*
X039676Y040077D02*
Y040628D01*
X040176Y040553D02*
Y040628D01*
X039176D02*
X040176D01*
X039176Y040553D02*
Y040628D01*
Y040077D02*
Y040153D01*
Y040077D02*
X040176D01*
Y040153D01*
X040876Y040491D02*
Y040628D01*
Y040077D02*
Y040215D01*
X041476Y040077D02*
Y040153D01*
X040286Y040077D02*
X041476D01*
X040326D02*
Y040253D01*
Y040453D02*
Y040628D01*
X040286D02*
X041476D01*
Y040553D02*
Y040628D01*
X040276Y040077D02*
X040326D01*
X040276D02*
Y040253D01*
X040326D01*
X040276Y040628D02*
X040326D01*
X040276Y040453D02*
Y040628D01*
Y040453D02*
X040326D01*
X042101Y036403D02*
X042652D01*
X042576Y035903D02*
X042652D01*
Y036903D01*
X042576D02*
X042652D01*
X042101D02*
X042176D01*
X042101Y035903D02*
Y036903D01*
Y035903D02*
X042176D01*
X048076Y040453D02*
X048126D01*
Y039553D02*
Y040453D01*
X048076Y039553D02*
X048126D01*
X047726D02*
X047776D01*
X047726D02*
Y040453D01*
X047776D01*
X047726Y040003D02*
X048126D01*
X046514D02*
X046652D01*
X046101D02*
X046239D01*
X046101Y039403D02*
X046176Y039403D01*
X046101Y040593D02*
X046101Y039403D01*
X046101Y040553D02*
X046276Y040553D01*
X046476Y040553D02*
X046652Y040553D01*
X046652Y040593D02*
X046652Y039403D01*
X046576Y039403D02*
X046652Y039403D01*
X046101Y040603D02*
X046101Y040553D01*
X046101Y040603D02*
X046276D01*
X046276Y040553D01*
X046652Y040603D02*
X046652Y040553D01*
X046476Y040603D02*
X046652D01*
X046476Y040553D02*
Y040603D01*
X047251Y038315D02*
X047286Y03828D01*
X04665Y037643D02*
X047286Y03828D01*
X046614Y037678D02*
X04665Y037643D01*
X046367Y037926D02*
X046402Y037891D01*
X046367Y037926D02*
X047003Y038562D01*
X047039Y038527D01*
X046685Y038244D02*
X046968Y037961D01*
X040924Y039315D02*
Y039965D01*
Y038331D02*
Y038646D01*
Y037544D02*
Y037662D01*
Y036559D02*
Y036874D01*
Y035241D02*
Y03589D01*
X033129Y035241D02*
X040924Y035241D01*
X033129Y039965D02*
X040924D01*
X033129Y035241D02*
X033129Y039965D01*
X047226Y040503D02*
X047302Y040503D01*
X047302Y039503D01*
X047226Y039503D02*
X047302Y039503D01*
X046751D02*
X046826D01*
X046751D02*
Y040503D01*
X046826D01*
X046751Y040003D02*
X047302D01*
X041576Y036353D02*
X041976D01*
X041926Y035903D02*
X041976D01*
Y036803D01*
X041926D02*
X041976D01*
X041576D02*
X041626D01*
X041576Y035903D02*
Y036803D01*
Y035903D02*
X041626D01*
X023023Y046298D02*
Y046849D01*
X023523Y046773D02*
Y046849D01*
X022523D02*
X023523D01*
X022523Y046773D02*
Y046849D01*
Y046298D02*
Y046373D01*
Y046298D02*
X023523D01*
Y046373D01*
X024223Y046711D02*
Y046849D01*
Y046298D02*
Y046435D01*
X024823Y046298D02*
Y046373D01*
X023632Y046298D02*
X024823D01*
X023673D02*
Y046473D01*
Y046673D02*
Y046849D01*
X023632D02*
X024823D01*
Y046773D02*
Y046849D01*
X023623Y046298D02*
X023673D01*
X023623D02*
Y046473D01*
X023673D01*
X023623Y046849D02*
X023673D01*
X023623Y046673D02*
Y046849D01*
Y046673D02*
X023673D01*
X025447Y042623D02*
X025998D01*
X025923Y042123D02*
X025998D01*
Y043123D01*
X025923D02*
X025998D01*
X025447D02*
X025523D01*
X025447Y042123D02*
Y043123D01*
Y042123D02*
X025523D01*
X031423Y046673D02*
X031473D01*
Y045773D02*
Y046673D01*
X031423Y045773D02*
X031473D01*
X031073D02*
X031123D01*
X031073D02*
Y046673D01*
X031123D01*
X031073Y046223D02*
X031473D01*
X029861D02*
X029999D01*
X029447D02*
X029585D01*
X029447Y045623D02*
X029523Y045623D01*
X029447Y046814D02*
X029447Y045623D01*
X029447Y046773D02*
X029623Y046773D01*
X029823Y046773D02*
X029999Y046773D01*
X029999Y046814D02*
X029999Y045623D01*
X029923Y045623D02*
X029999Y045623D01*
X029447Y046823D02*
X029447Y046773D01*
X029447Y046823D02*
X029623D01*
X029623Y046773D01*
X029999Y046823D02*
X029999Y046773D01*
X029823Y046823D02*
X029999D01*
X029823Y046773D02*
Y046823D01*
X030597Y044535D02*
X030633Y0445D01*
X029996Y043864D02*
X030633Y0445D01*
X029961Y043899D02*
X029996Y043864D01*
X029713Y044146D02*
X029749Y044111D01*
X029713Y044146D02*
X03035Y044783D01*
X030385Y044747D01*
X030031Y044465D02*
X030314Y044182D01*
X024271Y045536D02*
Y046185D01*
Y044552D02*
Y044867D01*
Y043764D02*
Y043882D01*
Y04278D02*
Y043095D01*
Y041461D02*
Y042111D01*
X016475Y041461D02*
X024271Y041461D01*
X016475Y046185D02*
X024271D01*
X016475Y041461D02*
X016475Y046185D01*
X030573Y046723D02*
X030649Y046723D01*
X030649Y045723D01*
X030573Y045723D02*
X030649Y045723D01*
X030097D02*
X030173D01*
X030097D02*
Y046723D01*
X030173D01*
X030097Y046223D02*
X030649D01*
X024923Y042573D02*
X025323D01*
X025273Y042123D02*
X025323D01*
Y043023D01*
X025273D02*
X025323D01*
X024923D02*
X024973D01*
X024923Y042123D02*
Y043023D01*
Y042123D02*
X024973D01*
X039676Y046298D02*
Y046849D01*
X040176Y046773D02*
Y046849D01*
X039176D02*
X040176D01*
X039176Y046773D02*
Y046849D01*
Y046298D02*
Y046373D01*
Y046298D02*
X040176D01*
Y046373D01*
X040876Y046711D02*
Y046849D01*
Y046298D02*
Y046435D01*
X041476Y046298D02*
Y046373D01*
X040286Y046298D02*
X041476D01*
X040326D02*
Y046473D01*
Y046673D02*
Y046849D01*
X040286D02*
X041476D01*
Y046773D02*
Y046849D01*
X040276Y046298D02*
X040326D01*
X040276D02*
Y046473D01*
X040326D01*
X040276Y046849D02*
X040326D01*
X040276Y046673D02*
Y046849D01*
Y046673D02*
X040326D01*
X042101Y042623D02*
X042652D01*
X042576Y042123D02*
X042652D01*
Y043123D01*
X042576D02*
X042652D01*
X042101D02*
X042176D01*
X042101Y042123D02*
Y043123D01*
Y042123D02*
X042176D01*
X048076Y046673D02*
X048126D01*
Y045773D02*
Y046673D01*
X048076Y045773D02*
X048126D01*
X047726D02*
X047776D01*
X047726D02*
Y046673D01*
X047776D01*
X047726Y046223D02*
X048126D01*
X046514D02*
X046652D01*
X046101D02*
X046239D01*
X046101Y045623D02*
X046176Y045623D01*
X046101Y046814D02*
X046101Y045623D01*
X046101Y046773D02*
X046276Y046773D01*
X046476Y046773D02*
X046652Y046773D01*
X046652Y046814D02*
X046652Y045623D01*
X046576Y045623D02*
X046652Y045623D01*
X046101Y046823D02*
X046101Y046773D01*
X046101Y046823D02*
X046276D01*
X046276Y046773D01*
X046652Y046823D02*
X046652Y046773D01*
X046476Y046823D02*
X046652D01*
X046476Y046773D02*
Y046823D01*
X047251Y044535D02*
X047286Y0445D01*
X04665Y043864D02*
X047286Y0445D01*
X046614Y043899D02*
X04665Y043864D01*
X046367Y044146D02*
X046402Y044111D01*
X046367Y044146D02*
X047003Y044783D01*
X047039Y044747D01*
X046685Y044465D02*
X046968Y044182D01*
X040924Y045536D02*
Y046185D01*
Y044552D02*
Y044867D01*
Y043764D02*
Y043882D01*
Y04278D02*
Y043095D01*
Y041461D02*
Y042111D01*
X033129Y041461D02*
X040924Y041461D01*
X033129Y046185D02*
X040924D01*
X033129Y041461D02*
X033129Y046185D01*
X047226Y046723D02*
X047302Y046723D01*
X047302Y045723D01*
X047226Y045723D02*
X047302Y045723D01*
X046751D02*
X046826D01*
X046751D02*
Y046723D01*
X046826D01*
X046751Y046223D02*
X047302D01*
X041576Y042573D02*
X041976D01*
X041926Y042123D02*
X041976D01*
Y043023D01*
X041926D02*
X041976D01*
X041576D02*
X041626D01*
X041576Y042123D02*
Y043023D01*
Y042123D02*
X041626D01*
D58*
X025938Y020576D02*
Y021206D01*
X024707Y020576D02*
Y021206D01*
X029361Y017591D02*
X029723Y017229D01*
X030252Y018482D02*
X030614Y01812D01*
X042592Y020576D02*
Y021206D01*
X041361Y020576D02*
Y021206D01*
X046015Y017591D02*
X046376Y017229D01*
X046905Y018482D02*
X047267Y01812D01*
X025938Y026797D02*
Y027427D01*
X024707Y026797D02*
Y027427D01*
X029361Y023812D02*
X029723Y02345D01*
X030252Y024703D02*
X030614Y024341D01*
X042592Y026797D02*
Y027427D01*
X041361Y026797D02*
Y027427D01*
X046015Y023812D02*
X046376Y02345D01*
X046905Y024703D02*
X047267Y024341D01*
X025938Y033017D02*
Y033647D01*
X024707Y033017D02*
Y033647D01*
X029361Y030032D02*
X029723Y02967D01*
X030252Y030923D02*
X030614Y030561D01*
X042592Y033017D02*
Y033647D01*
X041361Y033017D02*
Y033647D01*
X046015Y030032D02*
X046376Y02967D01*
X046905Y030923D02*
X047267Y030561D01*
X025938Y039238D02*
Y039868D01*
X024707Y039238D02*
Y039868D01*
X029361Y036253D02*
X029723Y035891D01*
X030252Y037144D02*
X030614Y036782D01*
X042592Y039238D02*
Y039868D01*
X041361Y039238D02*
Y039868D01*
X046015Y036253D02*
X046376Y035891D01*
X046905Y037144D02*
X047267Y036782D01*
X025938Y045458D02*
Y046088D01*
X024707Y045458D02*
Y046088D01*
X029361Y042473D02*
X029723Y042111D01*
X030252Y043364D02*
X030614Y043002D01*
X042592Y045458D02*
Y046088D01*
X041361Y045458D02*
Y046088D01*
X046015Y042473D02*
X046376Y042111D01*
X046905Y043364D02*
X047267Y043002D01*
D59*
X025581Y021966D02*
Y021758D01*
X02554Y021716D01*
X025456D01*
X025415Y021758D01*
Y021966D01*
X025331Y021925D02*
X02529Y021966D01*
X025206D01*
X025165Y021925D01*
Y021883D01*
X025206Y021841D01*
X025248D01*
X025206D01*
X025165Y0218D01*
Y021758D01*
X025206Y021716D01*
X02529D01*
X025331Y021758D01*
X023481Y020966D02*
Y021216D01*
X023356D01*
X023315Y021175D01*
Y021091D01*
X023356Y02105D01*
X023481D01*
X023398D02*
X023315Y020966D01*
X023231Y021008D02*
X02319Y020966D01*
X023106D01*
X023065Y021008D01*
Y021175D01*
X023106Y021216D01*
X02319D01*
X023231Y021175D01*
Y021133D01*
X02319Y021091D01*
X023065D01*
X025881Y018366D02*
Y018616D01*
X025756D01*
X025715Y018575D01*
Y018491D01*
X025756Y01845D01*
X025881D01*
X025798D02*
X025715Y018366D01*
X025631Y018616D02*
X025465D01*
Y018575D01*
X025631Y018408D01*
Y018366D01*
X025331Y016866D02*
Y017116D01*
X025206D01*
X025165Y017075D01*
Y016991D01*
X025206Y01695D01*
X025331D01*
X025248D02*
X025165Y016866D01*
X024915Y017116D02*
X024998Y017075D01*
X025081Y016991D01*
Y016908D01*
X02504Y016866D01*
X024956D01*
X024915Y016908D01*
Y01695D01*
X024956Y016991D01*
X025081D01*
X030531Y020366D02*
Y020616D01*
X030406D01*
X030365Y020575D01*
Y020491D01*
X030406Y02045D01*
X030531D01*
X030448D02*
X030365Y020366D01*
X030115Y020616D02*
X030281D01*
Y020491D01*
X030198Y020533D01*
X030156D01*
X030115Y020491D01*
Y020408D01*
X030156Y020366D01*
X03024D01*
X030281Y020408D01*
X031481Y020466D02*
Y020716D01*
X031356D01*
X031315Y020675D01*
Y020591D01*
X031356Y02055D01*
X031481D01*
X031398D02*
X031315Y020466D01*
X031106D02*
Y020716D01*
X031231Y020591D01*
X031065D01*
X029759Y0189D02*
X029582Y019077D01*
X029493Y018989D01*
Y01893D01*
X029552Y018871D01*
X029611Y018871D01*
X0297Y018959D01*
X029641Y0189D02*
X029641Y018782D01*
X029464Y018606D02*
X029582Y018724D01*
X029346D01*
X029317Y018753D01*
Y018812D01*
X029376Y018871D01*
X029435D01*
X024131Y021216D02*
Y020966D01*
X024006D01*
X023965Y021008D01*
Y021175D01*
X024006Y021216D01*
X024131D01*
X023715Y020966D02*
X023881D01*
X023715Y021133D01*
Y021175D01*
X023756Y021216D01*
X02384D01*
X023881Y021175D01*
X02989Y020616D02*
Y020366D01*
X029765D01*
X029723Y020408D01*
Y020575D01*
X029765Y020616D01*
X02989D01*
X02964Y020366D02*
X029556D01*
X029598D01*
Y020616D01*
X02964Y020575D01*
X02519Y020587D02*
X025148Y020629D01*
Y020712D01*
X02519Y020754D01*
X025356D01*
X025398Y020712D01*
Y020629D01*
X025356Y020587D01*
X025398Y020504D02*
Y02042D01*
Y020462D01*
X025148D01*
X02519Y020504D01*
X025398Y020129D02*
Y020296D01*
X025231Y020129D01*
X02519D01*
X025148Y020171D01*
Y020254D01*
X02519Y020296D01*
X042235Y021966D02*
Y021758D01*
X042193Y021716D01*
X04211D01*
X042068Y021758D01*
Y021966D01*
X041985Y021925D02*
X041943Y021966D01*
X04186D01*
X041818Y021925D01*
Y021883D01*
X04186Y021841D01*
X041901D01*
X04186D01*
X041818Y0218D01*
Y021758D01*
X04186Y021716D01*
X041943D01*
X041985Y021758D01*
X040135Y020966D02*
Y021216D01*
X04001D01*
X039968Y021175D01*
Y021091D01*
X04001Y02105D01*
X040135D01*
X040051D02*
X039968Y020966D01*
X039885Y021008D02*
X039843Y020966D01*
X03976D01*
X039718Y021008D01*
Y021175D01*
X03976Y021216D01*
X039843D01*
X039885Y021175D01*
Y021133D01*
X039843Y021091D01*
X039718D01*
X042535Y018366D02*
Y018616D01*
X04241D01*
X042368Y018575D01*
Y018491D01*
X04241Y01845D01*
X042535D01*
X042451D02*
X042368Y018366D01*
X042285Y018616D02*
X042118D01*
Y018575D01*
X042285Y018408D01*
Y018366D01*
X041985Y016866D02*
Y017116D01*
X04186D01*
X041818Y017075D01*
Y016991D01*
X04186Y01695D01*
X041985D01*
X041901D02*
X041818Y016866D01*
X041568Y017116D02*
X041651Y017075D01*
X041735Y016991D01*
Y016908D01*
X041693Y016866D01*
X04161D01*
X041568Y016908D01*
Y01695D01*
X04161Y016991D01*
X041735D01*
X047185Y020366D02*
Y020616D01*
X04706D01*
X047018Y020575D01*
Y020491D01*
X04706Y02045D01*
X047185D01*
X047101D02*
X047018Y020366D01*
X046768Y020616D02*
X046935D01*
Y020491D01*
X046851Y020533D01*
X04681D01*
X046768Y020491D01*
Y020408D01*
X04681Y020366D01*
X046893D01*
X046935Y020408D01*
X048135Y020466D02*
Y020716D01*
X04801D01*
X047968Y020675D01*
Y020591D01*
X04801Y02055D01*
X048135D01*
X048051D02*
X047968Y020466D01*
X04776D02*
Y020716D01*
X047885Y020591D01*
X047718D01*
X046412Y0189D02*
X046235Y019077D01*
X046147Y018989D01*
Y01893D01*
X046206Y018871D01*
X046265Y018871D01*
X046353Y018959D01*
X046294Y0189D02*
X046294Y018782D01*
X046118Y018606D02*
X046235Y018724D01*
X046D01*
X04597Y018753D01*
Y018812D01*
X046029Y018871D01*
X046088D01*
X040785Y021216D02*
Y020966D01*
X04066D01*
X040618Y021008D01*
Y021175D01*
X04066Y021216D01*
X040785D01*
X040368Y020966D02*
X040535D01*
X040368Y021133D01*
Y021175D01*
X04041Y021216D01*
X040493D01*
X040535Y021175D01*
X046543Y020616D02*
Y020366D01*
X046418D01*
X046376Y020408D01*
Y020575D01*
X046418Y020616D01*
X046543D01*
X046293Y020366D02*
X04621D01*
X046251D01*
Y020616D01*
X046293Y020575D01*
X041843Y020587D02*
X041801Y020629D01*
Y020712D01*
X041843Y020754D01*
X04201D01*
X042051Y020712D01*
Y020629D01*
X04201Y020587D01*
X042051Y020504D02*
Y02042D01*
Y020462D01*
X041801D01*
X041843Y020504D01*
X042051Y020129D02*
Y020296D01*
X041885Y020129D01*
X041843D01*
X041801Y020171D01*
Y020254D01*
X041843Y020296D01*
X025581Y028187D02*
Y027978D01*
X02554Y027937D01*
X025456D01*
X025415Y027978D01*
Y028187D01*
X025331Y028145D02*
X02529Y028187D01*
X025206D01*
X025165Y028145D01*
Y028103D01*
X025206Y028062D01*
X025248D01*
X025206D01*
X025165Y02802D01*
Y027978D01*
X025206Y027937D01*
X02529D01*
X025331Y027978D01*
X023481Y027187D02*
Y027437D01*
X023356D01*
X023315Y027395D01*
Y027312D01*
X023356Y02727D01*
X023481D01*
X023398D02*
X023315Y027187D01*
X023231Y027228D02*
X02319Y027187D01*
X023106D01*
X023065Y027228D01*
Y027395D01*
X023106Y027437D01*
X02319D01*
X023231Y027395D01*
Y027353D01*
X02319Y027312D01*
X023065D01*
X025881Y024587D02*
Y024837D01*
X025756D01*
X025715Y024795D01*
Y024712D01*
X025756Y02467D01*
X025881D01*
X025798D02*
X025715Y024587D01*
X025631Y024837D02*
X025465D01*
Y024795D01*
X025631Y024628D01*
Y024587D01*
X025331Y023087D02*
Y023337D01*
X025206D01*
X025165Y023295D01*
Y023212D01*
X025206Y02317D01*
X025331D01*
X025248D02*
X025165Y023087D01*
X024915Y023337D02*
X024998Y023295D01*
X025081Y023212D01*
Y023128D01*
X02504Y023087D01*
X024956D01*
X024915Y023128D01*
Y02317D01*
X024956Y023212D01*
X025081D01*
X030531Y026587D02*
Y026837D01*
X030406D01*
X030365Y026795D01*
Y026712D01*
X030406Y02667D01*
X030531D01*
X030448D02*
X030365Y026587D01*
X030115Y026837D02*
X030281D01*
Y026712D01*
X030198Y026753D01*
X030156D01*
X030115Y026712D01*
Y026628D01*
X030156Y026587D01*
X03024D01*
X030281Y026628D01*
X031481Y026687D02*
Y026937D01*
X031356D01*
X031315Y026895D01*
Y026812D01*
X031356Y02677D01*
X031481D01*
X031398D02*
X031315Y026687D01*
X031106D02*
Y026937D01*
X031231Y026812D01*
X031065D01*
X029759Y025121D02*
X029582Y025297D01*
X029493Y025209D01*
Y02515D01*
X029552Y025091D01*
X029611Y025091D01*
X0297Y02518D01*
X029641Y025121D02*
X029641Y025003D01*
X029464Y024826D02*
X029582Y024944D01*
X029346D01*
X029317Y024973D01*
Y025032D01*
X029376Y025091D01*
X029435D01*
X024131Y027437D02*
Y027187D01*
X024006D01*
X023965Y027228D01*
Y027395D01*
X024006Y027437D01*
X024131D01*
X023715Y027187D02*
X023881D01*
X023715Y027353D01*
Y027395D01*
X023756Y027437D01*
X02384D01*
X023881Y027395D01*
X02989Y026837D02*
Y026587D01*
X029765D01*
X029723Y026628D01*
Y026795D01*
X029765Y026837D01*
X02989D01*
X02964Y026587D02*
X029556D01*
X029598D01*
Y026837D01*
X02964Y026795D01*
X02519Y026808D02*
X025148Y026849D01*
Y026933D01*
X02519Y026974D01*
X025356D01*
X025398Y026933D01*
Y026849D01*
X025356Y026808D01*
X025398Y026724D02*
Y026641D01*
Y026683D01*
X025148D01*
X02519Y026724D01*
X025398Y026349D02*
Y026516D01*
X025231Y026349D01*
X02519D01*
X025148Y026391D01*
Y026474D01*
X02519Y026516D01*
X042235Y028187D02*
Y027978D01*
X042193Y027937D01*
X04211D01*
X042068Y027978D01*
Y028187D01*
X041985Y028145D02*
X041943Y028187D01*
X04186D01*
X041818Y028145D01*
Y028103D01*
X04186Y028062D01*
X041901D01*
X04186D01*
X041818Y02802D01*
Y027978D01*
X04186Y027937D01*
X041943D01*
X041985Y027978D01*
X040135Y027187D02*
Y027437D01*
X04001D01*
X039968Y027395D01*
Y027312D01*
X04001Y02727D01*
X040135D01*
X040051D02*
X039968Y027187D01*
X039885Y027228D02*
X039843Y027187D01*
X03976D01*
X039718Y027228D01*
Y027395D01*
X03976Y027437D01*
X039843D01*
X039885Y027395D01*
Y027353D01*
X039843Y027312D01*
X039718D01*
X042535Y024587D02*
Y024837D01*
X04241D01*
X042368Y024795D01*
Y024712D01*
X04241Y02467D01*
X042535D01*
X042451D02*
X042368Y024587D01*
X042285Y024837D02*
X042118D01*
Y024795D01*
X042285Y024628D01*
Y024587D01*
X041985Y023087D02*
Y023337D01*
X04186D01*
X041818Y023295D01*
Y023212D01*
X04186Y02317D01*
X041985D01*
X041901D02*
X041818Y023087D01*
X041568Y023337D02*
X041651Y023295D01*
X041735Y023212D01*
Y023128D01*
X041693Y023087D01*
X04161D01*
X041568Y023128D01*
Y02317D01*
X04161Y023212D01*
X041735D01*
X047185Y026587D02*
Y026837D01*
X04706D01*
X047018Y026795D01*
Y026712D01*
X04706Y02667D01*
X047185D01*
X047101D02*
X047018Y026587D01*
X046768Y026837D02*
X046935D01*
Y026712D01*
X046851Y026753D01*
X04681D01*
X046768Y026712D01*
Y026628D01*
X04681Y026587D01*
X046893D01*
X046935Y026628D01*
X048135Y026687D02*
Y026937D01*
X04801D01*
X047968Y026895D01*
Y026812D01*
X04801Y02677D01*
X048135D01*
X048051D02*
X047968Y026687D01*
X04776D02*
Y026937D01*
X047885Y026812D01*
X047718D01*
X046412Y025121D02*
X046235Y025297D01*
X046147Y025209D01*
Y02515D01*
X046206Y025091D01*
X046265Y025091D01*
X046353Y02518D01*
X046294Y025121D02*
X046294Y025003D01*
X046118Y024826D02*
X046235Y024944D01*
X046D01*
X04597Y024973D01*
Y025032D01*
X046029Y025091D01*
X046088D01*
X040785Y027437D02*
Y027187D01*
X04066D01*
X040618Y027228D01*
Y027395D01*
X04066Y027437D01*
X040785D01*
X040368Y027187D02*
X040535D01*
X040368Y027353D01*
Y027395D01*
X04041Y027437D01*
X040493D01*
X040535Y027395D01*
X046543Y026837D02*
Y026587D01*
X046418D01*
X046376Y026628D01*
Y026795D01*
X046418Y026837D01*
X046543D01*
X046293Y026587D02*
X04621D01*
X046251D01*
Y026837D01*
X046293Y026795D01*
X041843Y026808D02*
X041801Y026849D01*
Y026933D01*
X041843Y026974D01*
X04201D01*
X042051Y026933D01*
Y026849D01*
X04201Y026808D01*
X042051Y026724D02*
Y026641D01*
Y026683D01*
X041801D01*
X041843Y026724D01*
X042051Y026349D02*
Y026516D01*
X041885Y026349D01*
X041843D01*
X041801Y026391D01*
Y026474D01*
X041843Y026516D01*
X025581Y034407D02*
Y034199D01*
X02554Y034157D01*
X025456D01*
X025415Y034199D01*
Y034407D01*
X025331Y034366D02*
X02529Y034407D01*
X025206D01*
X025165Y034366D01*
Y034324D01*
X025206Y034282D01*
X025248D01*
X025206D01*
X025165Y034241D01*
Y034199D01*
X025206Y034157D01*
X02529D01*
X025331Y034199D01*
X023481Y033407D02*
Y033657D01*
X023356D01*
X023315Y033616D01*
Y033532D01*
X023356Y033491D01*
X023481D01*
X023398D02*
X023315Y033407D01*
X023231Y033449D02*
X02319Y033407D01*
X023106D01*
X023065Y033449D01*
Y033616D01*
X023106Y033657D01*
X02319D01*
X023231Y033616D01*
Y033574D01*
X02319Y033532D01*
X023065D01*
X025881Y030807D02*
Y031057D01*
X025756D01*
X025715Y031016D01*
Y030932D01*
X025756Y030891D01*
X025881D01*
X025798D02*
X025715Y030807D01*
X025631Y031057D02*
X025465D01*
Y031016D01*
X025631Y030849D01*
Y030807D01*
X025331Y029307D02*
Y029557D01*
X025206D01*
X025165Y029516D01*
Y029432D01*
X025206Y029391D01*
X025331D01*
X025248D02*
X025165Y029307D01*
X024915Y029557D02*
X024998Y029516D01*
X025081Y029432D01*
Y029349D01*
X02504Y029307D01*
X024956D01*
X024915Y029349D01*
Y029391D01*
X024956Y029432D01*
X025081D01*
X030531Y032807D02*
Y033057D01*
X030406D01*
X030365Y033016D01*
Y032932D01*
X030406Y032891D01*
X030531D01*
X030448D02*
X030365Y032807D01*
X030115Y033057D02*
X030281D01*
Y032932D01*
X030198Y032974D01*
X030156D01*
X030115Y032932D01*
Y032849D01*
X030156Y032807D01*
X03024D01*
X030281Y032849D01*
X031481Y032907D02*
Y033157D01*
X031356D01*
X031315Y033116D01*
Y033032D01*
X031356Y032991D01*
X031481D01*
X031398D02*
X031315Y032907D01*
X031106D02*
Y033157D01*
X031231Y033032D01*
X031065D01*
X029759Y031341D02*
X029582Y031518D01*
X029493Y03143D01*
Y031371D01*
X029552Y031312D01*
X029611Y031312D01*
X0297Y0314D01*
X029641Y031341D02*
X029641Y031223D01*
X029464Y031047D02*
X029582Y031164D01*
X029346D01*
X029317Y031194D01*
Y031253D01*
X029376Y031312D01*
X029435D01*
X024131Y033657D02*
Y033407D01*
X024006D01*
X023965Y033449D01*
Y033616D01*
X024006Y033657D01*
X024131D01*
X023715Y033407D02*
X023881D01*
X023715Y033574D01*
Y033616D01*
X023756Y033657D01*
X02384D01*
X023881Y033616D01*
X02989Y033057D02*
Y032807D01*
X029765D01*
X029723Y032849D01*
Y033016D01*
X029765Y033057D01*
X02989D01*
X02964Y032807D02*
X029556D01*
X029598D01*
Y033057D01*
X02964Y033016D01*
X02519Y033028D02*
X025148Y03307D01*
Y033153D01*
X02519Y033195D01*
X025356D01*
X025398Y033153D01*
Y03307D01*
X025356Y033028D01*
X025398Y032945D02*
Y032861D01*
Y032903D01*
X025148D01*
X02519Y032945D01*
X025398Y03257D02*
Y032736D01*
X025231Y03257D01*
X02519D01*
X025148Y032612D01*
Y032695D01*
X02519Y032736D01*
X042235Y034407D02*
Y034199D01*
X042193Y034157D01*
X04211D01*
X042068Y034199D01*
Y034407D01*
X041985Y034366D02*
X041943Y034407D01*
X04186D01*
X041818Y034366D01*
Y034324D01*
X04186Y034282D01*
X041901D01*
X04186D01*
X041818Y034241D01*
Y034199D01*
X04186Y034157D01*
X041943D01*
X041985Y034199D01*
X040135Y033407D02*
Y033657D01*
X04001D01*
X039968Y033616D01*
Y033532D01*
X04001Y033491D01*
X040135D01*
X040051D02*
X039968Y033407D01*
X039885Y033449D02*
X039843Y033407D01*
X03976D01*
X039718Y033449D01*
Y033616D01*
X03976Y033657D01*
X039843D01*
X039885Y033616D01*
Y033574D01*
X039843Y033532D01*
X039718D01*
X042535Y030807D02*
Y031057D01*
X04241D01*
X042368Y031016D01*
Y030932D01*
X04241Y030891D01*
X042535D01*
X042451D02*
X042368Y030807D01*
X042285Y031057D02*
X042118D01*
Y031016D01*
X042285Y030849D01*
Y030807D01*
X041985Y029307D02*
Y029557D01*
X04186D01*
X041818Y029516D01*
Y029432D01*
X04186Y029391D01*
X041985D01*
X041901D02*
X041818Y029307D01*
X041568Y029557D02*
X041651Y029516D01*
X041735Y029432D01*
Y029349D01*
X041693Y029307D01*
X04161D01*
X041568Y029349D01*
Y029391D01*
X04161Y029432D01*
X041735D01*
X047185Y032807D02*
Y033057D01*
X04706D01*
X047018Y033016D01*
Y032932D01*
X04706Y032891D01*
X047185D01*
X047101D02*
X047018Y032807D01*
X046768Y033057D02*
X046935D01*
Y032932D01*
X046851Y032974D01*
X04681D01*
X046768Y032932D01*
Y032849D01*
X04681Y032807D01*
X046893D01*
X046935Y032849D01*
X048135Y032907D02*
Y033157D01*
X04801D01*
X047968Y033116D01*
Y033032D01*
X04801Y032991D01*
X048135D01*
X048051D02*
X047968Y032907D01*
X04776D02*
Y033157D01*
X047885Y033032D01*
X047718D01*
X046412Y031341D02*
X046235Y031518D01*
X046147Y03143D01*
Y031371D01*
X046206Y031312D01*
X046265Y031312D01*
X046353Y0314D01*
X046294Y031341D02*
X046294Y031223D01*
X046118Y031047D02*
X046235Y031164D01*
X046D01*
X04597Y031194D01*
Y031253D01*
X046029Y031312D01*
X046088D01*
X040785Y033657D02*
Y033407D01*
X04066D01*
X040618Y033449D01*
Y033616D01*
X04066Y033657D01*
X040785D01*
X040368Y033407D02*
X040535D01*
X040368Y033574D01*
Y033616D01*
X04041Y033657D01*
X040493D01*
X040535Y033616D01*
X046543Y033057D02*
Y032807D01*
X046418D01*
X046376Y032849D01*
Y033016D01*
X046418Y033057D01*
X046543D01*
X046293Y032807D02*
X04621D01*
X046251D01*
Y033057D01*
X046293Y033016D01*
X041843Y033028D02*
X041801Y03307D01*
Y033153D01*
X041843Y033195D01*
X04201D01*
X042051Y033153D01*
Y03307D01*
X04201Y033028D01*
X042051Y032945D02*
Y032861D01*
Y032903D01*
X041801D01*
X041843Y032945D01*
X042051Y03257D02*
Y032736D01*
X041885Y03257D01*
X041843D01*
X041801Y032612D01*
Y032695D01*
X041843Y032736D01*
X025581Y040628D02*
Y040419D01*
X02554Y040378D01*
X025456D01*
X025415Y040419D01*
Y040628D01*
X025331Y040586D02*
X02529Y040628D01*
X025206D01*
X025165Y040586D01*
Y040544D01*
X025206Y040503D01*
X025248D01*
X025206D01*
X025165Y040461D01*
Y040419D01*
X025206Y040378D01*
X02529D01*
X025331Y040419D01*
X023481Y039628D02*
Y039878D01*
X023356D01*
X023315Y039836D01*
Y039753D01*
X023356Y039711D01*
X023481D01*
X023398D02*
X023315Y039628D01*
X023231Y039669D02*
X02319Y039628D01*
X023106D01*
X023065Y039669D01*
Y039836D01*
X023106Y039878D01*
X02319D01*
X023231Y039836D01*
Y039794D01*
X02319Y039753D01*
X023065D01*
X025881Y037028D02*
Y037278D01*
X025756D01*
X025715Y037236D01*
Y037153D01*
X025756Y037111D01*
X025881D01*
X025798D02*
X025715Y037028D01*
X025631Y037278D02*
X025465D01*
Y037236D01*
X025631Y037069D01*
Y037028D01*
X025331Y035528D02*
Y035778D01*
X025206D01*
X025165Y035736D01*
Y035653D01*
X025206Y035611D01*
X025331D01*
X025248D02*
X025165Y035528D01*
X024915Y035778D02*
X024998Y035736D01*
X025081Y035653D01*
Y035569D01*
X02504Y035528D01*
X024956D01*
X024915Y035569D01*
Y035611D01*
X024956Y035653D01*
X025081D01*
X030531Y039028D02*
Y039278D01*
X030406D01*
X030365Y039236D01*
Y039153D01*
X030406Y039111D01*
X030531D01*
X030448D02*
X030365Y039028D01*
X030115Y039278D02*
X030281D01*
Y039153D01*
X030198Y039194D01*
X030156D01*
X030115Y039153D01*
Y039069D01*
X030156Y039028D01*
X03024D01*
X030281Y039069D01*
X031481Y039128D02*
Y039378D01*
X031356D01*
X031315Y039336D01*
Y039253D01*
X031356Y039211D01*
X031481D01*
X031398D02*
X031315Y039128D01*
X031106D02*
Y039378D01*
X031231Y039253D01*
X031065D01*
X029759Y037562D02*
X029582Y037738D01*
X029493Y03765D01*
Y037591D01*
X029552Y037532D01*
X029611Y037532D01*
X0297Y037621D01*
X029641Y037562D02*
X029641Y037444D01*
X029464Y037267D02*
X029582Y037385D01*
X029346D01*
X029317Y037414D01*
Y037473D01*
X029376Y037532D01*
X029435D01*
X024131Y039878D02*
Y039628D01*
X024006D01*
X023965Y039669D01*
Y039836D01*
X024006Y039878D01*
X024131D01*
X023715Y039628D02*
X023881D01*
X023715Y039794D01*
Y039836D01*
X023756Y039878D01*
X02384D01*
X023881Y039836D01*
X02989Y039278D02*
Y039028D01*
X029765D01*
X029723Y039069D01*
Y039236D01*
X029765Y039278D01*
X02989D01*
X02964Y039028D02*
X029556D01*
X029598D01*
Y039278D01*
X02964Y039236D01*
X02519Y039249D02*
X025148Y03929D01*
Y039373D01*
X02519Y039415D01*
X025356D01*
X025398Y039373D01*
Y03929D01*
X025356Y039249D01*
X025398Y039165D02*
Y039082D01*
Y039124D01*
X025148D01*
X02519Y039165D01*
X025398Y03879D02*
Y038957D01*
X025231Y03879D01*
X02519D01*
X025148Y038832D01*
Y038915D01*
X02519Y038957D01*
X042235Y040628D02*
Y040419D01*
X042193Y040378D01*
X04211D01*
X042068Y040419D01*
Y040628D01*
X041985Y040586D02*
X041943Y040628D01*
X04186D01*
X041818Y040586D01*
Y040544D01*
X04186Y040503D01*
X041901D01*
X04186D01*
X041818Y040461D01*
Y040419D01*
X04186Y040378D01*
X041943D01*
X041985Y040419D01*
X040135Y039628D02*
Y039878D01*
X04001D01*
X039968Y039836D01*
Y039753D01*
X04001Y039711D01*
X040135D01*
X040051D02*
X039968Y039628D01*
X039885Y039669D02*
X039843Y039628D01*
X03976D01*
X039718Y039669D01*
Y039836D01*
X03976Y039878D01*
X039843D01*
X039885Y039836D01*
Y039794D01*
X039843Y039753D01*
X039718D01*
X042535Y037028D02*
Y037278D01*
X04241D01*
X042368Y037236D01*
Y037153D01*
X04241Y037111D01*
X042535D01*
X042451D02*
X042368Y037028D01*
X042285Y037278D02*
X042118D01*
Y037236D01*
X042285Y037069D01*
Y037028D01*
X041985Y035528D02*
Y035778D01*
X04186D01*
X041818Y035736D01*
Y035653D01*
X04186Y035611D01*
X041985D01*
X041901D02*
X041818Y035528D01*
X041568Y035778D02*
X041651Y035736D01*
X041735Y035653D01*
Y035569D01*
X041693Y035528D01*
X04161D01*
X041568Y035569D01*
Y035611D01*
X04161Y035653D01*
X041735D01*
X047185Y039028D02*
Y039278D01*
X04706D01*
X047018Y039236D01*
Y039153D01*
X04706Y039111D01*
X047185D01*
X047101D02*
X047018Y039028D01*
X046768Y039278D02*
X046935D01*
Y039153D01*
X046851Y039194D01*
X04681D01*
X046768Y039153D01*
Y039069D01*
X04681Y039028D01*
X046893D01*
X046935Y039069D01*
X048135Y039128D02*
Y039378D01*
X04801D01*
X047968Y039336D01*
Y039253D01*
X04801Y039211D01*
X048135D01*
X048051D02*
X047968Y039128D01*
X04776D02*
Y039378D01*
X047885Y039253D01*
X047718D01*
X046412Y037562D02*
X046235Y037738D01*
X046147Y03765D01*
Y037591D01*
X046206Y037532D01*
X046265Y037532D01*
X046353Y037621D01*
X046294Y037562D02*
X046294Y037444D01*
X046118Y037267D02*
X046235Y037385D01*
X046D01*
X04597Y037414D01*
Y037473D01*
X046029Y037532D01*
X046088D01*
X040785Y039878D02*
Y039628D01*
X04066D01*
X040618Y039669D01*
Y039836D01*
X04066Y039878D01*
X040785D01*
X040368Y039628D02*
X040535D01*
X040368Y039794D01*
Y039836D01*
X04041Y039878D01*
X040493D01*
X040535Y039836D01*
X046543Y039278D02*
Y039028D01*
X046418D01*
X046376Y039069D01*
Y039236D01*
X046418Y039278D01*
X046543D01*
X046293Y039028D02*
X04621D01*
X046251D01*
Y039278D01*
X046293Y039236D01*
X041843Y039249D02*
X041801Y03929D01*
Y039373D01*
X041843Y039415D01*
X04201D01*
X042051Y039373D01*
Y03929D01*
X04201Y039249D01*
X042051Y039165D02*
Y039082D01*
Y039124D01*
X041801D01*
X041843Y039165D01*
X042051Y03879D02*
Y038957D01*
X041885Y03879D01*
X041843D01*
X041801Y038832D01*
Y038915D01*
X041843Y038957D01*
X025581Y046848D02*
Y04664D01*
X02554Y046598D01*
X025456D01*
X025415Y04664D01*
Y046848D01*
X025331Y046807D02*
X02529Y046848D01*
X025206D01*
X025165Y046807D01*
Y046765D01*
X025206Y046723D01*
X025248D01*
X025206D01*
X025165Y046682D01*
Y04664D01*
X025206Y046598D01*
X02529D01*
X025331Y04664D01*
X023481Y045848D02*
Y046098D01*
X023356D01*
X023315Y046057D01*
Y045973D01*
X023356Y045932D01*
X023481D01*
X023398D02*
X023315Y045848D01*
X023231Y04589D02*
X02319Y045848D01*
X023106D01*
X023065Y04589D01*
Y046057D01*
X023106Y046098D01*
X02319D01*
X023231Y046057D01*
Y046015D01*
X02319Y045973D01*
X023065D01*
X025881Y043248D02*
Y043498D01*
X025756D01*
X025715Y043457D01*
Y043373D01*
X025756Y043332D01*
X025881D01*
X025798D02*
X025715Y043248D01*
X025631Y043498D02*
X025465D01*
Y043457D01*
X025631Y04329D01*
Y043248D01*
X025331Y041748D02*
Y041998D01*
X025206D01*
X025165Y041957D01*
Y041873D01*
X025206Y041832D01*
X025331D01*
X025248D02*
X025165Y041748D01*
X024915Y041998D02*
X024998Y041957D01*
X025081Y041873D01*
Y04179D01*
X02504Y041748D01*
X024956D01*
X024915Y04179D01*
Y041832D01*
X024956Y041873D01*
X025081D01*
X030531Y045248D02*
Y045498D01*
X030406D01*
X030365Y045457D01*
Y045373D01*
X030406Y045332D01*
X030531D01*
X030448D02*
X030365Y045248D01*
X030115Y045498D02*
X030281D01*
Y045373D01*
X030198Y045415D01*
X030156D01*
X030115Y045373D01*
Y04529D01*
X030156Y045248D01*
X03024D01*
X030281Y04529D01*
X031481Y045348D02*
Y045598D01*
X031356D01*
X031315Y045557D01*
Y045473D01*
X031356Y045432D01*
X031481D01*
X031398D02*
X031315Y045348D01*
X031106D02*
Y045598D01*
X031231Y045473D01*
X031065D01*
X029759Y043782D02*
X029582Y043959D01*
X029493Y04387D01*
Y043812D01*
X029552Y043753D01*
X029611Y043753D01*
X0297Y043841D01*
X029641Y043782D02*
X029641Y043664D01*
X029464Y043488D02*
X029582Y043605D01*
X029346D01*
X029317Y043635D01*
Y043694D01*
X029376Y043753D01*
X029435D01*
X024131Y046098D02*
Y045848D01*
X024006D01*
X023965Y04589D01*
Y046057D01*
X024006Y046098D01*
X024131D01*
X023715Y045848D02*
X023881D01*
X023715Y046015D01*
Y046057D01*
X023756Y046098D01*
X02384D01*
X023881Y046057D01*
X02989Y045498D02*
Y045248D01*
X029765D01*
X029723Y04529D01*
Y045457D01*
X029765Y045498D01*
X02989D01*
X02964Y045248D02*
X029556D01*
X029598D01*
Y045498D01*
X02964Y045457D01*
X02519Y045469D02*
X025148Y045511D01*
Y045594D01*
X02519Y045636D01*
X025356D01*
X025398Y045594D01*
Y045511D01*
X025356Y045469D01*
X025398Y045386D02*
Y045302D01*
Y045344D01*
X025148D01*
X02519Y045386D01*
X025398Y045011D02*
Y045177D01*
X025231Y045011D01*
X02519D01*
X025148Y045052D01*
Y045136D01*
X02519Y045177D01*
X042235Y046848D02*
Y04664D01*
X042193Y046598D01*
X04211D01*
X042068Y04664D01*
Y046848D01*
X041985Y046807D02*
X041943Y046848D01*
X04186D01*
X041818Y046807D01*
Y046765D01*
X04186Y046723D01*
X041901D01*
X04186D01*
X041818Y046682D01*
Y04664D01*
X04186Y046598D01*
X041943D01*
X041985Y04664D01*
X040135Y045848D02*
Y046098D01*
X04001D01*
X039968Y046057D01*
Y045973D01*
X04001Y045932D01*
X040135D01*
X040051D02*
X039968Y045848D01*
X039885Y04589D02*
X039843Y045848D01*
X03976D01*
X039718Y04589D01*
Y046057D01*
X03976Y046098D01*
X039843D01*
X039885Y046057D01*
Y046015D01*
X039843Y045973D01*
X039718D01*
X042535Y043248D02*
Y043498D01*
X04241D01*
X042368Y043457D01*
Y043373D01*
X04241Y043332D01*
X042535D01*
X042451D02*
X042368Y043248D01*
X042285Y043498D02*
X042118D01*
Y043457D01*
X042285Y04329D01*
Y043248D01*
X041985Y041748D02*
Y041998D01*
X04186D01*
X041818Y041957D01*
Y041873D01*
X04186Y041832D01*
X041985D01*
X041901D02*
X041818Y041748D01*
X041568Y041998D02*
X041651Y041957D01*
X041735Y041873D01*
Y04179D01*
X041693Y041748D01*
X04161D01*
X041568Y04179D01*
Y041832D01*
X04161Y041873D01*
X041735D01*
X047185Y045248D02*
Y045498D01*
X04706D01*
X047018Y045457D01*
Y045373D01*
X04706Y045332D01*
X047185D01*
X047101D02*
X047018Y045248D01*
X046768Y045498D02*
X046935D01*
Y045373D01*
X046851Y045415D01*
X04681D01*
X046768Y045373D01*
Y04529D01*
X04681Y045248D01*
X046893D01*
X046935Y04529D01*
X048135Y045348D02*
Y045598D01*
X04801D01*
X047968Y045557D01*
Y045473D01*
X04801Y045432D01*
X048135D01*
X048051D02*
X047968Y045348D01*
X04776D02*
Y045598D01*
X047885Y045473D01*
X047718D01*
X046412Y043782D02*
X046235Y043959D01*
X046147Y04387D01*
Y043812D01*
X046206Y043753D01*
X046265Y043753D01*
X046353Y043841D01*
X046294Y043782D02*
X046294Y043664D01*
X046118Y043488D02*
X046235Y043605D01*
X046D01*
X04597Y043635D01*
Y043694D01*
X046029Y043753D01*
X046088D01*
X040785Y046098D02*
Y045848D01*
X04066D01*
X040618Y04589D01*
Y046057D01*
X04066Y046098D01*
X040785D01*
X040368Y045848D02*
X040535D01*
X040368Y046015D01*
Y046057D01*
X04041Y046098D01*
X040493D01*
X040535Y046057D01*
X046543Y045498D02*
Y045248D01*
X046418D01*
X046376Y04529D01*
Y045457D01*
X046418Y045498D01*
X046543D01*
X046293Y045248D02*
X04621D01*
X046251D01*
Y045498D01*
X046293Y045457D01*
X041843Y045469D02*
X041801Y045511D01*
Y045594D01*
X041843Y045636D01*
X04201D01*
X042051Y045594D01*
Y045511D01*
X04201Y045469D01*
X042051Y045386D02*
Y045302D01*
Y045344D01*
X041801D01*
X041843Y045386D01*
X042051Y045011D02*
Y045177D01*
X041885Y045011D01*
X041843D01*
X041801Y045052D01*
Y045136D01*
X041843Y045177D01*
D60*
X024154Y021691D02*
X024292Y021593D01*
Y021691D01*
X024154Y021603D02*
Y021691D01*
Y02178D01*
X024292Y021691D02*
Y02179D01*
X024154Y021691D02*
X024292Y02179D01*
X029624Y021272D02*
X029723Y02141D01*
X029624Y021272D02*
X029723D01*
X029634Y02141D02*
X029723Y02141D01*
X029811Y02141D01*
X029723Y021272D02*
X029821D01*
X029723Y02141D02*
X029821Y021272D01*
X040808Y021691D02*
X040945Y021593D01*
Y021691D01*
X040808Y021603D02*
Y021691D01*
Y02178D01*
X040945Y021691D02*
Y02179D01*
X040808Y021691D02*
X040945Y02179D01*
X046278Y021272D02*
X046376Y02141D01*
X046278Y021272D02*
X046376D01*
X046288Y02141D02*
X046376Y02141D01*
X046465Y02141D01*
X046376Y021272D02*
X046475D01*
X046376Y02141D02*
X046475Y021272D01*
X024154Y027912D02*
X024292Y027813D01*
Y027912D01*
X024154Y027823D02*
Y027912D01*
Y028D01*
X024292Y027912D02*
Y02801D01*
X024154Y027912D02*
X024292Y02801D01*
X029624Y027493D02*
X029723Y027631D01*
X029624Y027493D02*
X029723D01*
X029634Y027631D02*
X029723Y027631D01*
X029811Y027631D01*
X029723Y027493D02*
X029821D01*
X029723Y027631D02*
X029821Y027493D01*
X040808Y027912D02*
X040945Y027813D01*
Y027912D01*
X040808Y027823D02*
Y027912D01*
Y028D01*
X040945Y027912D02*
Y02801D01*
X040808Y027912D02*
X040945Y02801D01*
X046278Y027493D02*
X046376Y027631D01*
X046278Y027493D02*
X046376D01*
X046288Y027631D02*
X046376Y027631D01*
X046465Y027631D01*
X046376Y027493D02*
X046475D01*
X046376Y027631D02*
X046475Y027493D01*
X024154Y034132D02*
X024292Y034034D01*
Y034132D01*
X024154Y034044D02*
Y034132D01*
Y034221D01*
X024292Y034132D02*
Y034231D01*
X024154Y034132D02*
X024292Y034231D01*
X029624Y033713D02*
X029723Y033851D01*
X029624Y033713D02*
X029723D01*
X029634Y033851D02*
X029723Y033851D01*
X029811Y033851D01*
X029723Y033713D02*
X029821D01*
X029723Y033851D02*
X029821Y033713D01*
X040808Y034132D02*
X040945Y034034D01*
Y034132D01*
X040808Y034044D02*
Y034132D01*
Y034221D01*
X040945Y034132D02*
Y034231D01*
X040808Y034132D02*
X040945Y034231D01*
X046278Y033713D02*
X046376Y033851D01*
X046278Y033713D02*
X046376D01*
X046288Y033851D02*
X046376Y033851D01*
X046465Y033851D01*
X046376Y033713D02*
X046475D01*
X046376Y033851D02*
X046475Y033713D01*
X024154Y040353D02*
X024292Y040254D01*
Y040353D01*
X024154Y040264D02*
Y040353D01*
Y040441D01*
X024292Y040353D02*
Y040451D01*
X024154Y040353D02*
X024292Y040451D01*
X029624Y039934D02*
X029723Y040072D01*
X029624Y039934D02*
X029723D01*
X029634Y040072D02*
X029723Y040072D01*
X029811Y040072D01*
X029723Y039934D02*
X029821D01*
X029723Y040072D02*
X029821Y039934D01*
X040808Y040353D02*
X040945Y040254D01*
Y040353D01*
X040808Y040264D02*
Y040353D01*
Y040441D01*
X040945Y040353D02*
Y040451D01*
X040808Y040353D02*
X040945Y040451D01*
X046278Y039934D02*
X046376Y040072D01*
X046278Y039934D02*
X046376D01*
X046288Y040072D02*
X046376Y040072D01*
X046465Y040072D01*
X046376Y039934D02*
X046475D01*
X046376Y040072D02*
X046475Y039934D01*
X024154Y046573D02*
X024292Y046475D01*
Y046573D01*
X024154Y046485D02*
Y046573D01*
Y046662D01*
X024292Y046573D02*
Y046672D01*
X024154Y046573D02*
X024292Y046672D01*
X029624Y046154D02*
X029723Y046292D01*
X029624Y046154D02*
X029723D01*
X029634Y046292D02*
X029723Y046292D01*
X029811Y046292D01*
X029723Y046154D02*
X029821D01*
X029723Y046292D02*
X029821Y046154D01*
X040808Y046573D02*
X040945Y046475D01*
Y046573D01*
X040808Y046485D02*
Y046573D01*
Y046662D01*
X040945Y046573D02*
Y046672D01*
X040808Y046573D02*
X040945Y046672D01*
X046278Y046154D02*
X046376Y046292D01*
X046278Y046154D02*
X046376D01*
X046288Y046292D02*
X046376Y046292D01*
X046465Y046292D01*
X046376Y046154D02*
X046475D01*
X046376Y046292D02*
X046475Y046154D01*
D61*
X026709Y021975D02*
D03*
Y028195D02*
D03*
Y034416D02*
D03*
Y040636D02*
D03*
Y046857D02*
D03*
D62*
X026247Y021981D02*
D03*
Y028202D02*
D03*
Y034422D02*
D03*
Y040643D02*
D03*
Y046863D02*
D03*
D63*
X043363Y021975D02*
D03*
Y028195D02*
D03*
Y034416D02*
D03*
Y040636D02*
D03*
Y046857D02*
D03*
D64*
X042901Y021981D02*
D03*
Y028202D02*
D03*
Y034422D02*
D03*
Y040643D02*
D03*
Y046863D02*
D03*
M02*
