G04*
G04 #@! TF.GenerationSoftware,Altium Limited,Altium Designer,22.10.1 (41)*
G04*
G04 Layer_Color=16711935*
%FSTAX24Y24*%
%MOIN*%
G70*
G04*
G04 #@! TF.SameCoordinates,C4D65E7B-EEE1-4A75-A0B3-CD900F305789*
G04*
G04*
G04 #@! TF.FilePolarity,Positive*
G04*
G01*
G75*
%ADD59C,0.0060*%
%ADD60C,0.0039*%
D59*
X021967Y018154D02*
X022217D01*
Y018279D01*
X022176Y018321D01*
X022092D01*
X022051Y018279D01*
Y018154D01*
X022176Y01857D02*
X022217Y018529D01*
Y018446D01*
X022176Y018404D01*
X022009D01*
X021967Y018446D01*
Y018529D01*
X022009Y01857D01*
X022217Y018654D02*
X021967D01*
Y018779D01*
X022009Y01882D01*
X022051D01*
X022092Y018779D01*
Y018654D01*
Y018779D01*
X022134Y01882D01*
X022176D01*
X022217Y018779D01*
Y018654D01*
Y01932D02*
Y019154D01*
X021967D01*
Y01932D01*
X022092Y019154D02*
Y019237D01*
X022217Y01957D02*
X021967D01*
Y019445D01*
X022009Y019404D01*
X022092D01*
X022134Y019445D01*
Y01957D01*
X021884Y019737D02*
Y019778D01*
X021926Y01982D01*
X022134D01*
Y019695D01*
X022092Y019653D01*
X022009D01*
X021967Y019695D01*
Y01982D01*
Y020028D02*
Y019945D01*
X022009Y019903D01*
X022092D01*
X022134Y019945D01*
Y020028D01*
X022092Y02007D01*
X022051D01*
Y019903D01*
X038621Y018154D02*
X038871D01*
Y018279D01*
X038829Y018321D01*
X038746D01*
X038704Y018279D01*
Y018154D01*
X038829Y01857D02*
X038871Y018529D01*
Y018446D01*
X038829Y018404D01*
X038663D01*
X038621Y018446D01*
Y018529D01*
X038663Y01857D01*
X038871Y018654D02*
X038621D01*
Y018779D01*
X038663Y01882D01*
X038704D01*
X038746Y018779D01*
Y018654D01*
Y018779D01*
X038788Y01882D01*
X038829D01*
X038871Y018779D01*
Y018654D01*
Y01932D02*
Y019154D01*
X038621D01*
Y01932D01*
X038746Y019154D02*
Y019237D01*
X038871Y01957D02*
X038621D01*
Y019445D01*
X038663Y019404D01*
X038746D01*
X038788Y019445D01*
Y01957D01*
X038538Y019737D02*
Y019778D01*
X038579Y01982D01*
X038788D01*
Y019695D01*
X038746Y019653D01*
X038663D01*
X038621Y019695D01*
Y01982D01*
Y020028D02*
Y019945D01*
X038663Y019903D01*
X038746D01*
X038788Y019945D01*
Y020028D01*
X038746Y02007D01*
X038704D01*
Y019903D01*
X021967Y024374D02*
X022217D01*
Y024499D01*
X022176Y024541D01*
X022092D01*
X022051Y024499D01*
Y024374D01*
X022176Y024791D02*
X022217Y024749D01*
Y024666D01*
X022176Y024624D01*
X022009D01*
X021967Y024666D01*
Y024749D01*
X022009Y024791D01*
X022217Y024874D02*
X021967D01*
Y024999D01*
X022009Y025041D01*
X022051D01*
X022092Y024999D01*
Y024874D01*
Y024999D01*
X022134Y025041D01*
X022176D01*
X022217Y024999D01*
Y024874D01*
Y025541D02*
Y025374D01*
X021967D01*
Y025541D01*
X022092Y025374D02*
Y025457D01*
X022217Y025791D02*
X021967D01*
Y025666D01*
X022009Y025624D01*
X022092D01*
X022134Y025666D01*
Y025791D01*
X021884Y025957D02*
Y025999D01*
X021926Y026041D01*
X022134D01*
Y025916D01*
X022092Y025874D01*
X022009D01*
X021967Y025916D01*
Y026041D01*
Y026249D02*
Y026165D01*
X022009Y026124D01*
X022092D01*
X022134Y026165D01*
Y026249D01*
X022092Y02629D01*
X022051D01*
Y026124D01*
X038621Y024374D02*
X038871D01*
Y024499D01*
X038829Y024541D01*
X038746D01*
X038704Y024499D01*
Y024374D01*
X038829Y024791D02*
X038871Y024749D01*
Y024666D01*
X038829Y024624D01*
X038663D01*
X038621Y024666D01*
Y024749D01*
X038663Y024791D01*
X038871Y024874D02*
X038621D01*
Y024999D01*
X038663Y025041D01*
X038704D01*
X038746Y024999D01*
Y024874D01*
Y024999D01*
X038788Y025041D01*
X038829D01*
X038871Y024999D01*
Y024874D01*
Y025541D02*
Y025374D01*
X038621D01*
Y025541D01*
X038746Y025374D02*
Y025457D01*
X038871Y025791D02*
X038621D01*
Y025666D01*
X038663Y025624D01*
X038746D01*
X038788Y025666D01*
Y025791D01*
X038538Y025957D02*
Y025999D01*
X038579Y026041D01*
X038788D01*
Y025916D01*
X038746Y025874D01*
X038663D01*
X038621Y025916D01*
Y026041D01*
Y026249D02*
Y026165D01*
X038663Y026124D01*
X038746D01*
X038788Y026165D01*
Y026249D01*
X038746Y02629D01*
X038704D01*
Y026124D01*
X021967Y030595D02*
X022217D01*
Y03072D01*
X022176Y030761D01*
X022092D01*
X022051Y03072D01*
Y030595D01*
X022176Y031011D02*
X022217Y03097D01*
Y030886D01*
X022176Y030845D01*
X022009D01*
X021967Y030886D01*
Y03097D01*
X022009Y031011D01*
X022217Y031095D02*
X021967D01*
Y03122D01*
X022009Y031261D01*
X022051D01*
X022092Y03122D01*
Y031095D01*
Y03122D01*
X022134Y031261D01*
X022176D01*
X022217Y03122D01*
Y031095D01*
Y031761D02*
Y031595D01*
X021967D01*
Y031761D01*
X022092Y031595D02*
Y031678D01*
X022217Y032011D02*
X021967D01*
Y031886D01*
X022009Y031844D01*
X022092D01*
X022134Y031886D01*
Y032011D01*
X021884Y032178D02*
Y032219D01*
X021926Y032261D01*
X022134D01*
Y032136D01*
X022092Y032094D01*
X022009D01*
X021967Y032136D01*
Y032261D01*
Y032469D02*
Y032386D01*
X022009Y032344D01*
X022092D01*
X022134Y032386D01*
Y032469D01*
X022092Y032511D01*
X022051D01*
Y032344D01*
X038621Y030595D02*
X038871D01*
Y03072D01*
X038829Y030761D01*
X038746D01*
X038704Y03072D01*
Y030595D01*
X038829Y031011D02*
X038871Y03097D01*
Y030886D01*
X038829Y030845D01*
X038663D01*
X038621Y030886D01*
Y03097D01*
X038663Y031011D01*
X038871Y031095D02*
X038621D01*
Y03122D01*
X038663Y031261D01*
X038704D01*
X038746Y03122D01*
Y031095D01*
Y03122D01*
X038788Y031261D01*
X038829D01*
X038871Y03122D01*
Y031095D01*
Y031761D02*
Y031595D01*
X038621D01*
Y031761D01*
X038746Y031595D02*
Y031678D01*
X038871Y032011D02*
X038621D01*
Y031886D01*
X038663Y031844D01*
X038746D01*
X038788Y031886D01*
Y032011D01*
X038538Y032178D02*
Y032219D01*
X038579Y032261D01*
X038788D01*
Y032136D01*
X038746Y032094D01*
X038663D01*
X038621Y032136D01*
Y032261D01*
Y032469D02*
Y032386D01*
X038663Y032344D01*
X038746D01*
X038788Y032386D01*
Y032469D01*
X038746Y032511D01*
X038704D01*
Y032344D01*
X021967Y036815D02*
X022217D01*
Y03694D01*
X022176Y036982D01*
X022092D01*
X022051Y03694D01*
Y036815D01*
X022176Y037232D02*
X022217Y03719D01*
Y037107D01*
X022176Y037065D01*
X022009D01*
X021967Y037107D01*
Y03719D01*
X022009Y037232D01*
X022217Y037315D02*
X021967D01*
Y03744D01*
X022009Y037482D01*
X022051D01*
X022092Y03744D01*
Y037315D01*
Y03744D01*
X022134Y037482D01*
X022176D01*
X022217Y03744D01*
Y037315D01*
Y037982D02*
Y037815D01*
X021967D01*
Y037982D01*
X022092Y037815D02*
Y037898D01*
X022217Y038232D02*
X021967D01*
Y038107D01*
X022009Y038065D01*
X022092D01*
X022134Y038107D01*
Y038232D01*
X021884Y038398D02*
Y03844D01*
X021926Y038481D01*
X022134D01*
Y038357D01*
X022092Y038315D01*
X022009D01*
X021967Y038357D01*
Y038481D01*
Y03869D02*
Y038606D01*
X022009Y038565D01*
X022092D01*
X022134Y038606D01*
Y03869D01*
X022092Y038731D01*
X022051D01*
Y038565D01*
X038621Y036815D02*
X038871D01*
Y03694D01*
X038829Y036982D01*
X038746D01*
X038704Y03694D01*
Y036815D01*
X038829Y037232D02*
X038871Y03719D01*
Y037107D01*
X038829Y037065D01*
X038663D01*
X038621Y037107D01*
Y03719D01*
X038663Y037232D01*
X038871Y037315D02*
X038621D01*
Y03744D01*
X038663Y037482D01*
X038704D01*
X038746Y03744D01*
Y037315D01*
Y03744D01*
X038788Y037482D01*
X038829D01*
X038871Y03744D01*
Y037315D01*
Y037982D02*
Y037815D01*
X038621D01*
Y037982D01*
X038746Y037815D02*
Y037898D01*
X038871Y038232D02*
X038621D01*
Y038107D01*
X038663Y038065D01*
X038746D01*
X038788Y038107D01*
Y038232D01*
X038538Y038398D02*
Y03844D01*
X038579Y038481D01*
X038788D01*
Y038357D01*
X038746Y038315D01*
X038663D01*
X038621Y038357D01*
Y038481D01*
Y03869D02*
Y038606D01*
X038663Y038565D01*
X038746D01*
X038788Y038606D01*
Y03869D01*
X038746Y038731D01*
X038704D01*
Y038565D01*
X021967Y043036D02*
X022217D01*
Y043161D01*
X022176Y043202D01*
X022092D01*
X022051Y043161D01*
Y043036D01*
X022176Y043452D02*
X022217Y043411D01*
Y043327D01*
X022176Y043286D01*
X022009D01*
X021967Y043327D01*
Y043411D01*
X022009Y043452D01*
X022217Y043536D02*
X021967D01*
Y043661D01*
X022009Y043702D01*
X022051D01*
X022092Y043661D01*
Y043536D01*
Y043661D01*
X022134Y043702D01*
X022176D01*
X022217Y043661D01*
Y043536D01*
Y044202D02*
Y044035D01*
X021967D01*
Y044202D01*
X022092Y044035D02*
Y044119D01*
X022217Y044452D02*
X021967D01*
Y044327D01*
X022009Y044285D01*
X022092D01*
X022134Y044327D01*
Y044452D01*
X021884Y044619D02*
Y04466D01*
X021926Y044702D01*
X022134D01*
Y044577D01*
X022092Y044535D01*
X022009D01*
X021967Y044577D01*
Y044702D01*
Y04491D02*
Y044827D01*
X022009Y044785D01*
X022092D01*
X022134Y044827D01*
Y04491D01*
X022092Y044952D01*
X022051D01*
Y044785D01*
X038621Y043036D02*
X038871D01*
Y043161D01*
X038829Y043202D01*
X038746D01*
X038704Y043161D01*
Y043036D01*
X038829Y043452D02*
X038871Y043411D01*
Y043327D01*
X038829Y043286D01*
X038663D01*
X038621Y043327D01*
Y043411D01*
X038663Y043452D01*
X038871Y043536D02*
X038621D01*
Y043661D01*
X038663Y043702D01*
X038704D01*
X038746Y043661D01*
Y043536D01*
Y043661D01*
X038788Y043702D01*
X038829D01*
X038871Y043661D01*
Y043536D01*
Y044202D02*
Y044035D01*
X038621D01*
Y044202D01*
X038746Y044035D02*
Y044119D01*
X038871Y044452D02*
X038621D01*
Y044327D01*
X038663Y044285D01*
X038746D01*
X038788Y044327D01*
Y044452D01*
X038538Y044619D02*
Y04466D01*
X038579Y044702D01*
X038788D01*
Y044577D01*
X038746Y044535D01*
X038663D01*
X038621Y044577D01*
Y044702D01*
Y04491D02*
Y044827D01*
X038663Y044785D01*
X038746D01*
X038788Y044827D01*
Y04491D01*
X038746Y044952D01*
X038704D01*
Y044785D01*
D60*
X022381Y016579D02*
Y021304D01*
X039034Y016579D02*
Y021304D01*
X022381Y0228D02*
Y027524D01*
X039034Y0228D02*
Y027524D01*
X022381Y02902D02*
Y033744D01*
X039034Y02902D02*
Y033744D01*
X022381Y035241D02*
Y039965D01*
X039034Y035241D02*
Y039965D01*
X022381Y041461D02*
Y046185D01*
X039034Y041461D02*
Y046185D01*
M02*
