G04*
G04 #@! TF.GenerationSoftware,Altium Limited,Altium Designer,22.10.1 (41)*
G04*
G04 Layer_Color=16711935*
%FSTAX24Y24*%
%MOIN*%
G70*
G04*
G04 #@! TF.SameCoordinates,821BB7C7-380A-43D0-A621-5EA73BA4A5B0*
G04*
G04*
G04 #@! TF.FilePolarity,Positive*
G04*
G01*
G75*
%ADD29C,0.0100*%
%ADD68C,0.0004*%
D29*
X01985Y01455D02*
X057252D01*
X01985Y048015D02*
X057252D01*
Y01455D02*
Y048015D01*
X01985Y01455D02*
Y048015D01*
D68*
X0224Y01595D02*
Y022052D01*
Y01595D02*
X038935D01*
Y022052D01*
X0224D02*
X038935D01*
X039054Y01595D02*
Y022052D01*
Y01595D02*
X055589D01*
Y022052D01*
X039054D02*
X055589D01*
X0224Y02217D02*
Y028273D01*
Y02217D02*
X038935D01*
Y028273D01*
X0224D02*
X038935D01*
X039054Y02217D02*
Y028273D01*
Y02217D02*
X055589D01*
Y028273D01*
X039054D02*
X055589D01*
X0224Y028391D02*
Y034493D01*
Y028391D02*
X038935D01*
Y034493D01*
X0224D02*
X038935D01*
X039054Y028391D02*
Y034493D01*
Y028391D02*
X055589D01*
Y034493D01*
X039054D02*
X055589D01*
X0224Y034611D02*
Y040714D01*
Y034611D02*
X038935D01*
Y040714D01*
X0224D02*
X038935D01*
X039054Y034611D02*
Y040714D01*
Y034611D02*
X055589D01*
Y040714D01*
X039054D02*
X055589D01*
X0224Y040832D02*
Y046934D01*
Y040832D02*
X038935D01*
Y046934D01*
X0224D02*
X038935D01*
X039054Y040832D02*
Y046934D01*
Y040832D02*
X055589D01*
Y046934D01*
X039054D02*
X055589D01*
M02*
