G04*
G04 #@! TF.GenerationSoftware,Altium Limited,Altium Designer,22.10.1 (41)*
G04*
G04 Layer_Color=8388736*
%FSTAX24Y24*%
%MOIN*%
G70*
G04*
G04 #@! TF.SameCoordinates,C4D65E7B-EEE1-4A75-A0B3-CD900F305789*
G04*
G04*
G04 #@! TF.FilePolarity,Positive*
G04*
G01*
G75*
%ADD58C,0.0050*%
D58*
X038862Y018628D02*
Y021128D01*
Y018628D02*
X039511D01*
Y021128D01*
X038862D02*
X039511D01*
X04261D01*
Y018628D02*
Y021128D01*
X039511Y018628D02*
X04261D01*
X055515D02*
Y021128D01*
Y018628D02*
X056165D01*
Y021128D01*
X055515D02*
X056165D01*
X059263D01*
Y018628D02*
Y021128D01*
X056165Y018628D02*
X059263D01*
X038862Y024849D02*
Y027349D01*
Y024849D02*
X039511D01*
Y027349D01*
X038862D02*
X039511D01*
X04261D01*
Y024849D02*
Y027349D01*
X039511Y024849D02*
X04261D01*
X055515D02*
Y027349D01*
Y024849D02*
X056165D01*
Y027349D01*
X055515D02*
X056165D01*
X059263D01*
Y024849D02*
Y027349D01*
X056165Y024849D02*
X059263D01*
X038862Y031069D02*
Y033569D01*
Y031069D02*
X039511D01*
Y033569D01*
X038862D02*
X039511D01*
X04261D01*
Y031069D02*
Y033569D01*
X039511Y031069D02*
X04261D01*
X055515D02*
Y033569D01*
Y031069D02*
X056165D01*
Y033569D01*
X055515D02*
X056165D01*
X059263D01*
Y031069D02*
Y033569D01*
X056165Y031069D02*
X059263D01*
X038862Y03729D02*
Y03979D01*
Y03729D02*
X039511D01*
Y03979D01*
X038862D02*
X039511D01*
X04261D01*
Y03729D02*
Y03979D01*
X039511Y03729D02*
X04261D01*
X055515D02*
Y03979D01*
Y03729D02*
X056165D01*
Y03979D01*
X055515D02*
X056165D01*
X059263D01*
Y03729D02*
Y03979D01*
X056165Y03729D02*
X059263D01*
X038862Y04351D02*
Y04601D01*
Y04351D02*
X039511D01*
Y04601D01*
X038862D02*
X039511D01*
X04261D01*
Y04351D02*
Y04601D01*
X039511Y04351D02*
X04261D01*
X055515D02*
Y04601D01*
Y04351D02*
X056165D01*
Y04601D01*
X055515D02*
X056165D01*
X059263D01*
Y04351D02*
Y04601D01*
X056165Y04351D02*
X059263D01*
M02*
